<svg xmlns="http://www.w3.org/2000/svg" width="900" height="620" viewBox="0 0 900 620">
<rect width="100%" height="100%" fill="#ffffff"/>
<text x="72" y="26" font-family="Arial, sans-serif" font-size="16" font-weight="700">lfd2nx_out Zout Load-Line Curves</text>
<text x="72" y="45" font-family="Arial, sans-serif" font-size="11" fill="#555">Rload=50 ohm; solid=device I-V, dashed=load line, circles=operating points</text>
<rect x="72.00" y="62.00" width="380.00" height="286.00" fill="#fbfbfb" stroke="#c8c8c8"/>
<text x="80.00" y="50.00" font-family="Arial, sans-serif" font-size="13" font-weight="700">[Pulldown] Rload to Vdd</text>
<line x1="72.00" y1="62.00" x2="72.00" y2="348.00" stroke="#ececec"/>
<text x="72.00" y="366.00" text-anchor="middle" font-family="Arial, sans-serif" font-size="10">-1.1</text>
<line x1="167.00" y1="62.00" x2="167.00" y2="348.00" stroke="#ececec"/>
<text x="167.00" y="366.00" text-anchor="middle" font-family="Arial, sans-serif" font-size="10">-0.54</text>
<line x1="262.00" y1="62.00" x2="262.00" y2="348.00" stroke="#ececec"/>
<text x="262.00" y="366.00" text-anchor="middle" font-family="Arial, sans-serif" font-size="10">0</text>
<line x1="357.00" y1="62.00" x2="357.00" y2="348.00" stroke="#ececec"/>
<text x="357.00" y="366.00" text-anchor="middle" font-family="Arial, sans-serif" font-size="10">0.54</text>
<line x1="452.00" y1="62.00" x2="452.00" y2="348.00" stroke="#ececec"/>
<text x="452.00" y="366.00" text-anchor="middle" font-family="Arial, sans-serif" font-size="10">1.1</text>
<line x1="72.00" y1="348.00" x2="452.00" y2="348.00" stroke="#ececec"/>
<text x="65.00" y="352.00" text-anchor="end" font-family="Arial, sans-serif" font-size="10">-37</text>
<line x1="72.00" y1="276.50" x2="452.00" y2="276.50" stroke="#ececec"/>
<text x="65.00" y="280.50" text-anchor="end" font-family="Arial, sans-serif" font-size="10">-15</text>
<line x1="72.00" y1="205.00" x2="452.00" y2="205.00" stroke="#ececec"/>
<text x="65.00" y="209.00" text-anchor="end" font-family="Arial, sans-serif" font-size="10">6.7</text>
<line x1="72.00" y1="133.50" x2="452.00" y2="133.50" stroke="#ececec"/>
<text x="65.00" y="137.50" text-anchor="end" font-family="Arial, sans-serif" font-size="10">29</text>
<line x1="72.00" y1="62.00" x2="452.00" y2="62.00" stroke="#ececec"/>
<text x="65.00" y="66.00" text-anchor="end" font-family="Arial, sans-serif" font-size="10">50</text>
<line x1="262.00" y1="62" x2="262.00" y2="348" stroke="#777" stroke-dasharray="4 4"/>
<line x1="72.0" y1="226.94" x2="452.0" y2="226.94" stroke="#777" stroke-dasharray="4 4"/>
<polyline fill="none" stroke="#1f77b4" stroke-width="1.8" points="86.07,308.65 262.00,226.94 437.93,145.24"/>
<polyline fill="none" stroke="#ff7f0e" stroke-width="1.8" stroke-dasharray="5 4" points="86.07,297.99 262.00,226.94 437.93,155.90"/>
<polyline fill="none" stroke="#2ca02c" stroke-width="1.8" stroke-dasharray="2 4" points="86.07,320.32 262.00,226.94 437.93,133.57"/>
<polyline fill="none" stroke="#1f77b4" stroke-width="1.1" stroke-dasharray="6 4" points="72.00,90.98 76.81,92.77 81.62,94.56 86.43,96.35 91.24,98.13 96.05,99.92 100.86,101.71 105.67,103.50 110.48,105.28 115.29,107.07 120.10,108.86 124.91,110.64 129.72,112.43 134.53,114.22 139.34,116.01 144.15,117.79 148.96,119.58 153.77,121.37 158.58,123.15 163.39,124.94 168.20,126.73 173.01,128.52 177.82,130.30 182.63,132.09 187.44,133.88 192.25,135.66 197.06,137.45 201.87,139.24 206.68,141.03 211.49,142.81 216.30,144.60 221.11,146.39 225.92,148.18 230.73,149.96 235.54,151.75 240.35,153.54 245.16,155.32 249.97,157.11 254.78,158.90 259.59,160.69 264.41,162.47 269.22,164.26 274.03,166.05 278.84,167.83 283.65,169.62 288.46,171.41 293.27,173.20 298.08,174.98 302.89,176.77 307.70,178.56 312.51,180.35 317.32,182.13 322.13,183.92 326.94,185.71 331.75,187.49 336.56,189.28 341.37,191.07 346.18,192.86 350.99,194.64 355.80,196.43 360.61,198.22 365.42,200.00 370.23,201.79 375.04,203.58 379.85,205.37 384.66,207.15 389.47,208.94 394.28,210.73 399.09,212.51 403.90,214.30 408.71,216.09 413.52,217.88 418.33,219.66 423.14,221.45 427.95,223.24 432.76,225.03 437.57,226.81 442.38,228.60 447.19,230.39 452.00,232.17"/>
<circle cx="340.19" cy="190.63" r="4.6" fill="#ffffff" stroke="#1f77b4" stroke-width="2"/>
<text x="346.19" y="184.63" font-family="Arial, sans-serif" font-size="10" fill="#1f77b4">typ 40 ohm</text>
<polyline fill="none" stroke="#ff7f0e" stroke-width="1.1" stroke-dasharray="6 4" points="72.00,97.52 76.81,99.31 81.62,101.10 86.43,102.88 91.24,104.67 96.05,106.46 100.86,108.24 105.67,110.03 110.48,111.82 115.29,113.61 120.10,115.39 124.91,117.18 129.72,118.97 134.53,120.75 139.34,122.54 144.15,124.33 148.96,126.12 153.77,127.90 158.58,129.69 163.39,131.48 168.20,133.27 173.01,135.05 177.82,136.84 182.63,138.63 187.44,140.41 192.25,142.20 197.06,143.99 201.87,145.78 206.68,147.56 211.49,149.35 216.30,151.14 221.11,152.92 225.92,154.71 230.73,156.50 235.54,158.29 240.35,160.07 245.16,161.86 249.97,163.65 254.78,165.44 259.59,167.22 264.41,169.01 269.22,170.80 274.03,172.58 278.84,174.37 283.65,176.16 288.46,177.95 293.27,179.73 298.08,181.52 302.89,183.31 307.70,185.09 312.51,186.88 317.32,188.67 322.13,190.46 326.94,192.24 331.75,194.03 336.56,195.82 341.37,197.60 346.18,199.39 350.99,201.18 355.80,202.97 360.61,204.75 365.42,206.54 370.23,208.33 375.04,210.12 379.85,211.90 384.66,213.69 389.47,215.48 394.28,217.26 399.09,219.05 403.90,220.84 408.71,222.63 413.52,224.41 418.33,226.20 423.14,227.99 427.95,229.77 432.76,231.56 437.57,233.35 442.38,235.14 447.19,236.92 452.00,238.71"/>
<circle cx="337.87" cy="196.30" r="4.6" fill="#ffffff" stroke="#ff7f0e" stroke-width="2"/>
<text x="343.87" y="190.30" font-family="Arial, sans-serif" font-size="10" fill="#ff7f0e">min 46 ohm</text>
<polyline fill="none" stroke="#2ca02c" stroke-width="1.1" stroke-dasharray="6 4" points="72.00,84.45 76.81,86.24 81.62,88.02 86.43,89.81 91.24,91.60 96.05,93.38 100.86,95.17 105.67,96.96 110.48,98.75 115.29,100.53 120.10,102.32 124.91,104.11 129.72,105.89 134.53,107.68 139.34,109.47 144.15,111.26 148.96,113.04 153.77,114.83 158.58,116.62 163.39,118.41 168.20,120.19 173.01,121.98 177.82,123.77 182.63,125.55 187.44,127.34 192.25,129.13 197.06,130.92 201.87,132.70 206.68,134.49 211.49,136.28 216.30,138.06 221.11,139.85 225.92,141.64 230.73,143.43 235.54,145.21 240.35,147.00 245.16,148.79 249.97,150.57 254.78,152.36 259.59,154.15 264.41,155.94 269.22,157.72 274.03,159.51 278.84,161.30 283.65,163.09 288.46,164.87 293.27,166.66 298.08,168.45 302.89,170.23 307.70,172.02 312.51,173.81 317.32,175.60 322.13,177.38 326.94,179.17 331.75,180.96 336.56,182.74 341.37,184.53 346.18,186.32 350.99,188.11 355.80,189.89 360.61,191.68 365.42,193.47 370.23,195.25 375.04,197.04 379.85,198.83 384.66,200.62 389.47,202.40 394.28,204.19 399.09,205.98 403.90,207.77 408.71,209.55 413.52,211.34 418.33,213.13 423.14,214.91 427.95,216.70 432.76,218.49 437.57,220.28 442.38,222.06 447.19,223.85 452.00,225.64"/>
<circle cx="341.68" cy="184.65" r="4.6" fill="#ffffff" stroke="#2ca02c" stroke-width="2"/>
<text x="347.68" y="178.65" font-family="Arial, sans-serif" font-size="10" fill="#2ca02c">max 35 ohm</text>
<line x1="82.00" y1="80.00" x2="104.00" y2="80.00" stroke="#1f77b4" stroke-width="2"/>
<text x="110.00" y="84.00" font-family="Arial, sans-serif" font-size="11">typ</text>
<line x1="82.00" y1="97.00" x2="104.00" y2="97.00" stroke="#ff7f0e" stroke-width="2" stroke-dasharray="5 4"/>
<text x="110.00" y="101.00" font-family="Arial, sans-serif" font-size="11">min</text>
<line x1="82.00" y1="114.00" x2="104.00" y2="114.00" stroke="#2ca02c" stroke-width="2" stroke-dasharray="2 4"/>
<text x="110.00" y="118.00" font-family="Arial, sans-serif" font-size="11">max</text>
<text x="262.00" y="386.00" text-anchor="middle" font-family="Arial, sans-serif" font-size="11">Output voltage (V)</text>
<text transform="translate(22.00 205.00) rotate(-90)" text-anchor="middle" font-family="Arial, sans-serif" font-size="11">Current (mA)</text>
<rect x="492.00" y="62.00" width="380.00" height="286.00" fill="#fbfbfb" stroke="#c8c8c8"/>
<text x="500.00" y="50.00" font-family="Arial, sans-serif" font-size="13" font-weight="700">[Pullup] Rload to GND</text>
<line x1="492.00" y1="62.00" x2="492.00" y2="348.00" stroke="#ececec"/>
<text x="492.00" y="366.00" text-anchor="middle" font-family="Arial, sans-serif" font-size="10">-1.1</text>
<line x1="587.00" y1="62.00" x2="587.00" y2="348.00" stroke="#ececec"/>
<text x="587.00" y="366.00" text-anchor="middle" font-family="Arial, sans-serif" font-size="10">-0.54</text>
<line x1="682.00" y1="62.00" x2="682.00" y2="348.00" stroke="#ececec"/>
<text x="682.00" y="366.00" text-anchor="middle" font-family="Arial, sans-serif" font-size="10">0</text>
<line x1="777.00" y1="62.00" x2="777.00" y2="348.00" stroke="#ececec"/>
<text x="777.00" y="366.00" text-anchor="middle" font-family="Arial, sans-serif" font-size="10">0.54</text>
<line x1="872.00" y1="62.00" x2="872.00" y2="348.00" stroke="#ececec"/>
<text x="872.00" y="366.00" text-anchor="middle" font-family="Arial, sans-serif" font-size="10">1.1</text>
<line x1="492.00" y1="348.00" x2="872.00" y2="348.00" stroke="#ececec"/>
<text x="485.00" y="352.00" text-anchor="end" font-family="Arial, sans-serif" font-size="10">-50</text>
<line x1="492.00" y1="276.50" x2="872.00" y2="276.50" stroke="#ececec"/>
<text x="485.00" y="280.50" text-anchor="end" font-family="Arial, sans-serif" font-size="10">-29</text>
<line x1="492.00" y1="205.00" x2="872.00" y2="205.00" stroke="#ececec"/>
<text x="485.00" y="209.00" text-anchor="end" font-family="Arial, sans-serif" font-size="10">-6.7</text>
<line x1="492.00" y1="133.50" x2="872.00" y2="133.50" stroke="#ececec"/>
<text x="485.00" y="137.50" text-anchor="end" font-family="Arial, sans-serif" font-size="10">15</text>
<line x1="492.00" y1="62.00" x2="872.00" y2="62.00" stroke="#ececec"/>
<text x="485.00" y="66.00" text-anchor="end" font-family="Arial, sans-serif" font-size="10">37</text>
<line x1="682.00" y1="62" x2="682.00" y2="348" stroke="#777" stroke-dasharray="4 4"/>
<line x1="492.0" y1="183.06" x2="872.0" y2="183.06" stroke="#777" stroke-dasharray="4 4"/>
<polyline fill="none" stroke="#1f77b4" stroke-width="1.8" points="506.07,101.35 682.00,183.06 857.93,264.76"/>
<polyline fill="none" stroke="#ff7f0e" stroke-width="1.8" stroke-dasharray="5 4" points="506.07,112.01 682.00,183.06 857.93,254.10"/>
<polyline fill="none" stroke="#2ca02c" stroke-width="1.8" stroke-dasharray="2 4" points="506.07,89.68 682.00,183.06 857.93,276.43"/>
<polyline fill="none" stroke="#1f77b4" stroke-width="1.1" stroke-dasharray="6 4" points="492.00,319.02 496.81,317.23 501.62,315.44 506.43,313.65 511.24,311.87 516.05,310.08 520.86,308.29 525.67,306.50 530.48,304.72 535.29,302.93 540.10,301.14 544.91,299.36 549.72,297.57 554.53,295.78 559.34,293.99 564.15,292.21 568.96,290.42 573.77,288.63 578.58,286.85 583.39,285.06 588.20,283.27 593.01,281.48 597.82,279.70 602.63,277.91 607.44,276.12 612.25,274.34 617.06,272.55 621.87,270.76 626.68,268.97 631.49,267.19 636.30,265.40 641.11,263.61 645.92,261.82 650.73,260.04 655.54,258.25 660.35,256.46 665.16,254.68 669.97,252.89 674.78,251.10 679.59,249.31 684.41,247.53 689.22,245.74 694.03,243.95 698.84,242.17 703.65,240.38 708.46,238.59 713.27,236.80 718.08,235.02 722.89,233.23 727.70,231.44 732.51,229.66 737.32,227.87 742.13,226.08 746.94,224.29 751.75,222.51 756.56,220.72 761.37,218.93 766.18,217.14 770.99,215.36 775.80,213.57 780.61,211.78 785.42,210.00 790.23,208.21 795.04,206.42 799.85,204.63 804.66,202.85 809.47,201.06 814.28,199.27 819.09,197.49 823.90,195.70 828.71,193.91 833.52,192.12 838.33,190.34 843.14,188.55 847.95,186.76 852.76,184.98 857.57,183.19 862.38,181.40 867.19,179.61 872.00,177.83"/>
<circle cx="760.19" cy="219.37" r="4.6" fill="#ffffff" stroke="#1f77b4" stroke-width="2"/>
<text x="766.19" y="213.37" font-family="Arial, sans-serif" font-size="10" fill="#1f77b4">typ 40 ohm</text>
<polyline fill="none" stroke="#ff7f0e" stroke-width="1.1" stroke-dasharray="6 4" points="492.00,312.48 496.81,310.69 501.62,308.90 506.43,307.12 511.24,305.33 516.05,303.54 520.86,301.76 525.67,299.97 530.48,298.18 535.29,296.39 540.10,294.61 544.91,292.82 549.72,291.03 554.53,289.25 559.34,287.46 564.15,285.67 568.96,283.88 573.77,282.10 578.58,280.31 583.39,278.52 588.20,276.73 593.01,274.95 597.82,273.16 602.63,271.37 607.44,269.59 612.25,267.80 617.06,266.01 621.87,264.22 626.68,262.44 631.49,260.65 636.30,258.86 641.11,257.08 645.92,255.29 650.73,253.50 655.54,251.71 660.35,249.93 665.16,248.14 669.97,246.35 674.78,244.57 679.59,242.78 684.41,240.99 689.22,239.20 694.03,237.42 698.84,235.63 703.65,233.84 708.46,232.05 713.27,230.27 718.08,228.48 722.89,226.69 727.70,224.91 732.51,223.12 737.32,221.33 742.13,219.54 746.94,217.76 751.75,215.97 756.56,214.18 761.37,212.40 766.18,210.61 770.99,208.82 775.80,207.03 780.61,205.25 785.42,203.46 790.23,201.67 795.04,199.89 799.85,198.10 804.66,196.31 809.47,194.52 814.28,192.74 819.09,190.95 823.90,189.16 828.71,187.37 833.52,185.59 838.33,183.80 843.14,182.01 847.95,180.23 852.76,178.44 857.57,176.65 862.38,174.86 867.19,173.08 872.00,171.29"/>
<circle cx="757.87" cy="213.70" r="4.6" fill="#ffffff" stroke="#ff7f0e" stroke-width="2"/>
<text x="763.87" y="207.70" font-family="Arial, sans-serif" font-size="10" fill="#ff7f0e">min 46 ohm</text>
<polyline fill="none" stroke="#2ca02c" stroke-width="1.1" stroke-dasharray="6 4" points="492.00,325.55 496.81,323.76 501.62,321.98 506.43,320.19 511.24,318.40 516.05,316.62 520.86,314.83 525.67,313.04 530.48,311.25 535.29,309.47 540.10,307.68 544.91,305.89 549.72,304.11 554.53,302.32 559.34,300.53 564.15,298.74 568.96,296.96 573.77,295.17 578.58,293.38 583.39,291.59 588.20,289.81 593.01,288.02 597.82,286.23 602.63,284.45 607.44,282.66 612.25,280.87 617.06,279.08 621.87,277.30 626.68,275.51 631.49,273.72 636.30,271.94 641.11,270.15 645.92,268.36 650.73,266.57 655.54,264.79 660.35,263.00 665.16,261.21 669.97,259.43 674.78,257.64 679.59,255.85 684.41,254.06 689.22,252.28 694.03,250.49 698.84,248.70 703.65,246.91 708.46,245.13 713.27,243.34 718.08,241.55 722.89,239.77 727.70,237.98 732.51,236.19 737.32,234.40 742.13,232.62 746.94,230.83 751.75,229.04 756.56,227.26 761.37,225.47 766.18,223.68 770.99,221.89 775.80,220.11 780.61,218.32 785.42,216.53 790.23,214.75 795.04,212.96 799.85,211.17 804.66,209.38 809.47,207.60 814.28,205.81 819.09,204.02 823.90,202.23 828.71,200.45 833.52,198.66 838.33,196.87 843.14,195.09 847.95,193.30 852.76,191.51 857.57,189.72 862.38,187.94 867.19,186.15 872.00,184.36"/>
<circle cx="761.68" cy="225.35" r="4.6" fill="#ffffff" stroke="#2ca02c" stroke-width="2"/>
<text x="767.68" y="219.35" font-family="Arial, sans-serif" font-size="10" fill="#2ca02c">max 35 ohm</text>
<line x1="502.00" y1="80.00" x2="524.00" y2="80.00" stroke="#1f77b4" stroke-width="2"/>
<text x="530.00" y="84.00" font-family="Arial, sans-serif" font-size="11">typ</text>
<line x1="502.00" y1="97.00" x2="524.00" y2="97.00" stroke="#ff7f0e" stroke-width="2" stroke-dasharray="5 4"/>
<text x="530.00" y="101.00" font-family="Arial, sans-serif" font-size="11">min</text>
<line x1="502.00" y1="114.00" x2="524.00" y2="114.00" stroke="#2ca02c" stroke-width="2" stroke-dasharray="2 4"/>
<text x="530.00" y="118.00" font-family="Arial, sans-serif" font-size="11">max</text>
<text x="682.00" y="386.00" text-anchor="middle" font-family="Arial, sans-serif" font-size="11">Vcc-relative table voltage (V)</text>
<text transform="translate(442.00 205.00) rotate(-90)" text-anchor="middle" font-family="Arial, sans-serif" font-size="11">Current (mA)</text>
<rect x="72.00" y="418.00" width="800.00" height="144.00" fill="#ffffff" stroke="#c8c8c8"/>
<text x="82.00" y="436.00" font-family="Arial, sans-serif" font-size="12" font-weight="700">Operating-point summary</text>
<text x="82.00" y="454.00" font-family="Arial, sans-serif" font-size="10" font-weight="700" fill="#333">Table</text>
<text x="174.00" y="454.00" font-family="Arial, sans-serif" font-size="10" font-weight="700" fill="#333">Corner</text>
<text x="242.00" y="454.00" font-family="Arial, sans-serif" font-size="10" font-weight="700" fill="#333">Vout</text>
<text x="332.00" y="454.00" font-family="Arial, sans-serif" font-size="10" font-weight="700" fill="#333">Iop</text>
<text x="422.00" y="454.00" font-family="Arial, sans-serif" font-size="10" font-weight="700" fill="#333">Zout</text>
<text x="512.00" y="454.00" font-family="Arial, sans-serif" font-size="10" font-weight="700" fill="#333">Rseries</text>
<text x="82.00" y="473.00" font-family="Arial, sans-serif" font-size="10" fill="#1f77b4">pulldown</text>
<text x="174.00" y="473.00" font-family="Arial, sans-serif" font-size="10" fill="#1f77b4">typ</text>
<text x="242.00" y="473.00" font-family="Arial, sans-serif" font-size="10" fill="#1f77b4">0.4444 V</text>
<text x="332.00" y="473.00" font-family="Arial, sans-serif" font-size="10" fill="#1f77b4">11 mA</text>
<text x="422.00" y="473.00" font-family="Arial, sans-serif" font-size="10" fill="#1f77b4">40 ohm</text>
<text x="512.00" y="473.00" font-family="Arial, sans-serif" font-size="10" fill="#1f77b4">10 ohm</text>
<text x="82.00" y="492.00" font-family="Arial, sans-serif" font-size="10" fill="#ff7f0e">pulldown</text>
<text x="174.00" y="492.00" font-family="Arial, sans-serif" font-size="10" fill="#ff7f0e">min</text>
<text x="242.00" y="492.00" font-family="Arial, sans-serif" font-size="10" fill="#ff7f0e">0.4313 V</text>
<text x="332.00" y="492.00" font-family="Arial, sans-serif" font-size="10" fill="#ff7f0e">9.4 mA</text>
<text x="422.00" y="492.00" font-family="Arial, sans-serif" font-size="10" fill="#ff7f0e">46 ohm</text>
<text x="512.00" y="492.00" font-family="Arial, sans-serif" font-size="10" fill="#ff7f0e">4 ohm</text>
<text x="82.00" y="511.00" font-family="Arial, sans-serif" font-size="10" fill="#2ca02c">pulldown</text>
<text x="174.00" y="511.00" font-family="Arial, sans-serif" font-size="10" fill="#2ca02c">max</text>
<text x="242.00" y="511.00" font-family="Arial, sans-serif" font-size="10" fill="#2ca02c">0.4529 V</text>
<text x="332.00" y="511.00" font-family="Arial, sans-serif" font-size="10" fill="#2ca02c">13 mA</text>
<text x="422.00" y="511.00" font-family="Arial, sans-serif" font-size="10" fill="#2ca02c">35 ohm</text>
<text x="512.00" y="511.00" font-family="Arial, sans-serif" font-size="10" fill="#2ca02c">15 ohm</text>
<text x="82.00" y="530.00" font-family="Arial, sans-serif" font-size="10" fill="#1f77b4">pullup</text>
<text x="174.00" y="530.00" font-family="Arial, sans-serif" font-size="10" fill="#1f77b4">typ</text>
<text x="242.00" y="530.00" font-family="Arial, sans-serif" font-size="10" fill="#1f77b4">0.5556 V</text>
<text x="332.00" y="530.00" font-family="Arial, sans-serif" font-size="10" fill="#1f77b4">-11 mA</text>
<text x="422.00" y="530.00" font-family="Arial, sans-serif" font-size="10" fill="#1f77b4">40 ohm</text>
<text x="512.00" y="530.00" font-family="Arial, sans-serif" font-size="10" fill="#1f77b4">10 ohm</text>
<text x="82.00" y="549.00" font-family="Arial, sans-serif" font-size="10" fill="#ff7f0e">pullup</text>
<text x="174.00" y="549.00" font-family="Arial, sans-serif" font-size="10" fill="#ff7f0e">min</text>
<text x="242.00" y="549.00" font-family="Arial, sans-serif" font-size="10" fill="#ff7f0e">0.4687 V</text>
<text x="332.00" y="549.00" font-family="Arial, sans-serif" font-size="10" fill="#ff7f0e">-9.4 mA</text>
<text x="422.00" y="549.00" font-family="Arial, sans-serif" font-size="10" fill="#ff7f0e">46 ohm</text>
<text x="512.00" y="549.00" font-family="Arial, sans-serif" font-size="10" fill="#ff7f0e">4 ohm</text>
<text x="82.00" y="568.00" font-family="Arial, sans-serif" font-size="10" fill="#2ca02c">pullup</text>
<text x="174.00" y="568.00" font-family="Arial, sans-serif" font-size="10" fill="#2ca02c">max</text>
<text x="242.00" y="568.00" font-family="Arial, sans-serif" font-size="10" fill="#2ca02c">0.6471 V</text>
<text x="332.00" y="568.00" font-family="Arial, sans-serif" font-size="10" fill="#2ca02c">-13 mA</text>
<text x="422.00" y="568.00" font-family="Arial, sans-serif" font-size="10" fill="#2ca02c">35 ohm</text>
<text x="512.00" y="568.00" font-family="Arial, sans-serif" font-size="10" fill="#2ca02c">15 ohm</text>
</svg>