<svg xmlns="http://www.w3.org/2000/svg" width="800" height="560" viewBox="0 0 800 560">
<rect width="100%" height="100%" fill="#ffffff"/>
<text x="78" y="25" font-family="Arial, sans-serif" font-size="16" font-weight="700">nfc_ioc15_swp_slave_3v3 I-V Clamp Sweep Range</text>
<rect x="78" y="52" width="694" height="348" fill="#fbfbfb" stroke="#c8c8c8"/>
<line x1="78.00" y1="52" x2="78.00" y2="400" stroke="#ececec"/>
<text x="78.00" y="422" text-anchor="middle" font-family="Arial, sans-serif" font-size="11">-3.8</text>
<line x1="216.80" y1="52" x2="216.80" y2="400" stroke="#ececec"/>
<text x="216.80" y="422" text-anchor="middle" font-family="Arial, sans-serif" font-size="11">-1.6</text>
<line x1="355.60" y1="52" x2="355.60" y2="400" stroke="#ececec"/>
<text x="355.60" y="422" text-anchor="middle" font-family="Arial, sans-serif" font-size="11">0.561</text>
<line x1="494.40" y1="52" x2="494.40" y2="400" stroke="#ececec"/>
<text x="494.40" y="422" text-anchor="middle" font-family="Arial, sans-serif" font-size="11">2.7</text>
<line x1="633.20" y1="52" x2="633.20" y2="400" stroke="#ececec"/>
<text x="633.20" y="422" text-anchor="middle" font-family="Arial, sans-serif" font-size="11">4.9</text>
<line x1="772.00" y1="52" x2="772.00" y2="400" stroke="#ececec"/>
<text x="772.00" y="422" text-anchor="middle" font-family="Arial, sans-serif" font-size="11">7.1</text>
<line x1="78" y1="400.00" x2="772" y2="400.00" stroke="#ececec"/>
<text x="70" y="404.00" text-anchor="end" font-family="Arial, sans-serif" font-size="11">-5.3</text>
<line x1="78" y1="330.40" x2="772" y2="330.40" stroke="#ececec"/>
<text x="70" y="334.40" text-anchor="end" font-family="Arial, sans-serif" font-size="11">-2.6</text>
<line x1="78" y1="260.80" x2="772" y2="260.80" stroke="#ececec"/>
<text x="70" y="264.80" text-anchor="end" font-family="Arial, sans-serif" font-size="11">0.0807</text>
<line x1="78" y1="191.20" x2="772" y2="191.20" stroke="#ececec"/>
<text x="70" y="195.20" text-anchor="end" font-family="Arial, sans-serif" font-size="11">2.7</text>
<line x1="78" y1="121.60" x2="772" y2="121.60" stroke="#ececec"/>
<text x="70" y="125.60" text-anchor="end" font-family="Arial, sans-serif" font-size="11">5.4</text>
<line x1="78" y1="52.00" x2="772" y2="52.00" stroke="#ececec"/>
<text x="70" y="56.00" text-anchor="end" font-family="Arial, sans-serif" font-size="11">8.1</text>
<line x1="319.85" y1="52" x2="319.85" y2="400" stroke="#777" stroke-dasharray="4 4"/>
<line x1="78" y1="262.90" x2="772" y2="262.90" stroke="#777" stroke-dasharray="4 4"/>
<line x1="109.55" y1="52" x2="109.55" y2="400" stroke="#555" stroke-dasharray="2 4"/>
<text x="113.55" y="66" font-family="Arial, sans-serif" font-size="11" fill="#555">-Vcc</text>
<line x1="530.15" y1="52" x2="530.15" y2="400" stroke="#555" stroke-dasharray="2 4"/>
<text x="534.15" y="66" font-family="Arial, sans-serif" font-size="11" fill="#555">Vcc</text>
<line x1="740.45" y1="52" x2="740.45" y2="400" stroke="#555" stroke-dasharray="2 4"/>
<text x="744.45" y="66" font-family="Arial, sans-serif" font-size="11" fill="#555">2Vcc</text>
<polyline fill="none" stroke="#2ca02c" stroke-width="1.2" opacity="0.55" stroke-dasharray="4 4" points="109.55,376.00 119.10,369.35 129.30,362.25 138.86,355.60 149.06,348.51 158.62,341.85 168.81,334.76 178.37,328.11 188.57,321.01 198.13,314.36 208.32,307.26 217.88,300.61 228.08,293.52 237.64,286.86 247.84,279.77 257.39,273.12 258.67,272.23 259.31,271.79 259.94,271.34 260.58,270.90 261.22,270.46 261.86,270.01 262.49,269.57 263.13,269.13 263.77,268.68 264.40,268.24 265.04,267.80 265.68,267.35 267.59,266.04 268.23,265.65 268.87,265.30 269.50,264.97 270.14,264.67 270.78,264.40 277.15,263.12 287.35,262.93 296.91,262.91 307.10,262.90 316.66,262.90 319.85,262.90 326.86,262.90 336.42,262.90 346.61,262.90 356.17,262.90 366.37,262.90 375.93,262.90 386.13,262.90 395.69,262.90 405.88,262.90 415.44,262.90 425.64,262.90 435.20,262.90 444.76,262.90 454.95,262.90 464.51,262.85 472.16,261.90 472.80,261.68 473.43,261.43 474.07,261.14 474.71,260.81 475.35,260.45 475.98,260.04 484.27,254.27 494.46,247.18 504.02,240.52 514.22,233.43 523.78,226.78 533.98,219.68 543.53,213.03 553.73,205.93 563.29,199.28 573.49,192.19 583.05,185.53 584.96,184.20 585.60,183.76 586.23,183.32 586.87,182.87 587.51,182.43 588.14,181.99 588.78,181.54 593.24,178.44 602.80,171.79 613.00,164.69 622.56,158.04 632.75,150.94 642.31,144.29 652.51,137.20 662.07,130.55 672.27,123.45 681.82,116.80 692.02,109.70 701.58,103.05 711.78,95.96 721.34,89.30 729.62,83.54 730.26,83.10 730.90,82.65 731.53,82.21 732.17,81.76 740.45,76.00"/>
<polyline fill="none" stroke="#2ca02c" stroke-width="1.2" opacity="0.55" stroke-dasharray="4 4" points="109.55,368.40 119.10,361.75 129.30,354.66 138.86,348.00 149.06,340.91 158.62,334.26 168.81,327.16 178.37,320.51 188.57,313.41 198.13,306.76 208.32,299.67 217.88,293.01 228.08,285.92 237.64,279.27 247.84,272.17 257.39,265.52 258.67,264.65 259.31,264.31 259.94,264.04 260.58,263.85 261.22,263.70 261.86,263.60 262.49,263.52 263.13,263.46 263.77,263.41 264.40,263.37 265.04,263.33 265.68,263.30 267.59,263.22 268.23,263.20 268.87,263.18 269.50,263.16 270.14,263.14 270.78,263.13 277.15,263.04 287.35,262.96 296.91,262.91 307.10,262.90 316.66,262.90 319.85,262.90 326.86,262.90 336.42,262.90 346.61,262.90 356.17,262.90 366.37,262.90 375.93,262.90 386.13,262.90 395.69,262.90 405.88,262.90 415.44,262.90 425.64,262.90 435.20,262.90 444.76,262.90 454.95,262.90 464.51,262.90 472.16,262.90 472.80,262.90 473.43,262.90 474.07,262.90 474.71,262.90 475.35,262.90 475.98,262.90 484.27,262.90 494.46,262.90 504.02,262.90 514.22,262.90 523.78,262.90 533.98,262.90 543.53,262.90 553.73,262.90 563.29,262.90 573.49,262.90 583.05,262.90 584.96,262.90 585.60,262.90 586.23,262.90 586.87,262.90 587.51,262.90 588.14,262.90 588.78,262.90 593.24,262.90 602.80,262.90 613.00,262.90 622.56,262.90 632.75,262.90 642.31,262.90 652.51,262.90 662.07,262.90 672.27,262.90 681.82,262.90 692.02,262.90 701.58,262.90 711.78,262.90 721.34,262.90 729.62,262.69 730.26,262.58 730.90,262.40 731.53,262.16 732.17,261.83 740.45,256.08"/>
<polyline fill="none" stroke="#2ca02c" stroke-width="2.0" opacity="1.0" points="109.55,371.28 119.10,364.62 129.30,357.53 138.86,350.88 149.06,343.78 158.62,337.13 168.81,330.03 178.37,323.38 188.57,316.29 198.13,309.64 208.32,302.54 217.88,295.89 228.08,288.79 237.64,282.14 247.84,275.05 257.39,268.39 258.67,267.51 259.31,267.06 259.94,266.62 260.58,266.18 261.22,265.73 261.86,265.29 262.49,264.88 263.13,264.53 263.77,264.23 264.40,263.98 265.04,263.77 265.68,263.61 267.59,263.31 268.23,263.25 268.87,263.20 269.50,263.16 270.14,263.13 270.78,263.11 277.15,263.00 287.35,262.94 296.91,262.91 307.10,262.90 316.66,262.90 319.85,262.90 326.86,262.90 336.42,262.90 346.61,262.90 356.17,262.90 366.37,262.90 375.93,262.90 386.13,262.90 395.69,262.90 405.88,262.90 415.44,262.90 425.64,262.90 435.20,262.90 444.76,262.90 454.95,262.90 464.51,262.90 472.16,262.90 472.80,262.90 473.43,262.90 474.07,262.90 474.71,262.90 475.35,262.90 475.98,262.90 484.27,262.90 494.46,262.90 504.02,262.90 514.22,262.90 523.78,262.90 533.98,262.90 543.53,262.90 553.73,262.90 563.29,262.90 573.49,262.90 583.05,262.78 584.96,262.55 585.60,262.41 586.23,262.23 586.87,262.01 587.51,261.73 588.14,261.38 588.78,260.97 593.24,257.87 602.80,251.22 613.00,244.12 622.56,237.47 632.75,230.37 642.31,223.72 652.51,216.63 662.07,209.98 672.27,202.88 681.82,196.23 692.02,189.13 701.58,182.48 711.78,175.39 721.34,168.73 729.62,162.97 730.26,162.53 730.90,162.08 731.53,161.64 732.17,161.19 740.45,155.43"/>
<line x1="88" y1="70" x2="110" y2="70" stroke="#2ca02c" stroke-width="2.4"/>
<text x="116" y="74" font-family="Arial, sans-serif" font-size="12">[GND Clamp]</text>
<text x="425.00" y="444.00" text-anchor="middle" font-family="Arial, sans-serif" font-size="12">Table voltage (V)</text>
<text transform="translate(18 226.00) rotate(-90)" text-anchor="middle" font-family="Arial, sans-serif" font-size="12">Current (A)</text>
<text x="420" y="42" font-family="Arial, sans-serif" font-size="11" fill="#555">solid=typ, dashed=min/max; dashed vertical=required sweep boundary (5.3.4/5.3.5)</text>
</svg>