<svg xmlns="http://www.w3.org/2000/svg" width="800" height="560" viewBox="0 0 800 560">
<rect width="100%" height="100%" fill="#ffffff"/>
<text x="78" y="25" font-family="Arial, sans-serif" font-size="16" font-weight="700">E34_GPIO_I2CSCLIN_1V2_11 I-V Clamp Sweep Range</text>
<rect x="78" y="52" width="694" height="348" fill="#fbfbfb" stroke="#c8c8c8"/>
<line x1="78.00" y1="52" x2="78.00" y2="400" stroke="#ececec"/>
<text x="78.00" y="422" text-anchor="middle" font-family="Arial, sans-serif" font-size="11">-1.4</text>
<line x1="216.80" y1="52" x2="216.80" y2="400" stroke="#ececec"/>
<text x="216.80" y="422" text-anchor="middle" font-family="Arial, sans-serif" font-size="11">-0.588</text>
<line x1="355.60" y1="52" x2="355.60" y2="400" stroke="#ececec"/>
<text x="355.60" y="422" text-anchor="middle" font-family="Arial, sans-serif" font-size="11">0.204</text>
<line x1="494.40" y1="52" x2="494.40" y2="400" stroke="#ececec"/>
<text x="494.40" y="422" text-anchor="middle" font-family="Arial, sans-serif" font-size="11">0.996</text>
<line x1="633.20" y1="52" x2="633.20" y2="400" stroke="#ececec"/>
<text x="633.20" y="422" text-anchor="middle" font-family="Arial, sans-serif" font-size="11">1.8</text>
<line x1="772.00" y1="52" x2="772.00" y2="400" stroke="#ececec"/>
<text x="772.00" y="422" text-anchor="middle" font-family="Arial, sans-serif" font-size="11">2.6</text>
<line x1="78" y1="400.00" x2="772" y2="400.00" stroke="#ececec"/>
<text x="70" y="404.00" text-anchor="end" font-family="Arial, sans-serif" font-size="11">-0.822</text>
<line x1="78" y1="330.40" x2="772" y2="330.40" stroke="#ececec"/>
<text x="70" y="334.40" text-anchor="end" font-family="Arial, sans-serif" font-size="11">-0.646</text>
<line x1="78" y1="260.80" x2="772" y2="260.80" stroke="#ececec"/>
<text x="70" y="264.80" text-anchor="end" font-family="Arial, sans-serif" font-size="11">-0.469</text>
<line x1="78" y1="191.20" x2="772" y2="191.20" stroke="#ececec"/>
<text x="70" y="195.20" text-anchor="end" font-family="Arial, sans-serif" font-size="11">-0.292</text>
<line x1="78" y1="121.60" x2="772" y2="121.60" stroke="#ececec"/>
<text x="70" y="125.60" text-anchor="end" font-family="Arial, sans-serif" font-size="11">-0.116</text>
<line x1="78" y1="52.00" x2="772" y2="52.00" stroke="#ececec"/>
<text x="70" y="56.00" text-anchor="end" font-family="Arial, sans-serif" font-size="11">0.0609</text>
<line x1="319.85" y1="52" x2="319.85" y2="400" stroke="#777" stroke-dasharray="4 4"/>
<line x1="78" y1="76.00" x2="772" y2="76.00" stroke="#777" stroke-dasharray="4 4"/>
<line x1="109.55" y1="52" x2="109.55" y2="400" stroke="#555" stroke-dasharray="2 4"/>
<text x="113.55" y="66" font-family="Arial, sans-serif" font-size="11" fill="#555">-Vcc</text>
<line x1="530.15" y1="52" x2="530.15" y2="400" stroke="#555" stroke-dasharray="2 4"/>
<text x="534.15" y="66" font-family="Arial, sans-serif" font-size="11" fill="#555">Vcc</text>
<line x1="740.45" y1="52" x2="740.45" y2="400" stroke="#555" stroke-dasharray="2 4"/>
<text x="744.45" y="66" font-family="Arial, sans-serif" font-size="11" fill="#555">2Vcc</text>
<polyline fill="none" stroke="#2ca02c" stroke-width="1.2" opacity="0.55" stroke-dasharray="4 4" points="109.55,376.00 120.06,335.81 128.82,302.32 139.34,262.14 149.85,221.95 151.61,215.25 153.36,208.55 155.11,201.86 156.86,195.16 158.62,188.46 160.37,181.76 162.12,175.06 163.87,168.37 165.63,161.67 167.38,154.97 169.13,148.27 170.88,141.57 172.64,134.88 174.39,128.18 176.14,121.62 177.89,115.60 179.65,110.12 181.40,105.17 183.15,100.73 184.90,96.80 186.66,93.34 188.41,90.33 190.16,87.75 191.91,85.56 193.67,83.73 195.42,82.21 197.17,80.97 198.92,79.97 200.68,79.17 202.43,78.54 204.18,78.04 205.93,77.65 207.69,77.35 209.44,77.11 218.20,76.48 228.72,76.23 237.48,76.13 247.99,76.06 258.51,76.02 267.27,76.01 277.79,76.01 288.30,76.00 297.07,76.00 307.58,76.00 316.34,76.00 319.85,76.00 326.86,76.00 337.37,76.00 346.14,76.00 356.65,76.00 360.16,76.00 367.17,76.00 375.93,76.00 386.44,76.00 389.95,76.00 396.96,76.00 405.72,76.00 416.24,76.00 425.00,76.00 426.75,76.00 435.52,76.00 439.02,76.00 446.03,76.00 454.79,76.00 456.55,76.00 465.31,76.00 470.57,76.00 475.82,76.00 484.59,76.00 495.10,76.00 505.62,76.00 514.38,76.00 524.89,76.00 535.41,76.00 544.17,76.00 554.69,76.00 563.45,76.00 573.96,76.00 584.48,76.00 593.24,76.00 603.76,76.00 614.27,76.00 623.04,76.00 633.55,76.00 644.07,76.00 652.83,76.00 663.34,76.00 673.86,76.00 682.62,76.00 693.14,76.00 701.90,76.00 712.41,76.00 722.93,76.00 731.69,76.00 740.45,76.00"/>
<polyline fill="none" stroke="#2ca02c" stroke-width="1.2" opacity="0.55" stroke-dasharray="4 4" points="109.55,252.28 120.06,212.10 128.82,178.61 139.34,138.42 149.85,98.23 151.61,92.47 153.36,88.03 155.11,84.73 156.86,82.39 158.62,80.79 160.37,79.71 162.12,79.01 163.87,78.54 165.63,78.23 167.38,78.01 169.13,77.85 170.88,77.73 172.64,77.64 174.39,77.56 176.14,77.48 177.89,77.42 179.65,77.35 181.40,77.29 183.15,77.23 184.90,77.18 186.66,77.12 188.41,77.06 190.16,77.01 191.91,76.96 193.67,76.91 195.42,76.85 197.17,76.80 198.92,76.75 200.68,76.71 202.43,76.66 204.18,76.61 205.93,76.57 207.69,76.53 209.44,76.49 218.20,76.30 228.72,76.14 237.48,76.06 247.99,76.02 258.51,76.00 267.27,76.00 277.79,76.00 288.30,76.00 297.07,76.00 307.58,76.00 316.34,76.00 319.85,76.00 326.86,76.00 337.37,76.00 346.14,76.00 356.65,76.00 360.16,76.00 367.17,76.00 375.93,76.00 386.44,76.00 389.95,76.00 396.96,76.00 405.72,76.00 416.24,76.00 425.00,76.00 426.75,76.00 435.52,76.00 439.02,76.00 446.03,76.00 454.79,76.00 456.55,76.00 465.31,76.00 470.57,76.00 475.82,76.00 484.59,76.00 495.10,76.00 505.62,76.00 514.38,76.00 524.89,76.00 535.41,76.00 544.17,76.00 554.69,76.00 563.45,76.00 573.96,76.00 584.48,76.00 593.24,76.00 603.76,76.00 614.27,76.00 623.04,76.00 633.55,76.00 644.07,76.00 652.83,76.00 663.34,76.00 673.86,76.00 682.62,76.00 693.14,76.00 701.90,76.00 712.41,76.00 722.93,76.00 731.69,76.00 740.45,76.00"/>
<polyline fill="none" stroke="#2ca02c" stroke-width="2.0" opacity="1.0" points="109.55,300.18 120.06,260.00 128.82,226.51 139.34,186.32 149.85,146.13 151.61,139.43 153.36,132.74 155.11,126.04 156.86,119.34 158.62,112.64 160.37,105.95 162.12,100.05 163.87,95.03 165.63,90.85 167.38,87.46 169.13,84.76 170.88,82.67 172.64,81.09 174.39,79.92 176.14,79.06 177.89,78.44 179.65,78.00 181.40,77.67 183.15,77.43 184.90,77.26 186.66,77.12 188.41,77.02 190.16,76.94 191.91,76.86 193.67,76.80 195.42,76.75 197.17,76.70 198.92,76.66 200.68,76.61 202.43,76.58 204.18,76.54 205.93,76.50 207.69,76.47 209.44,76.43 218.20,76.28 228.72,76.15 237.48,76.08 247.99,76.03 258.51,76.01 267.27,76.00 277.79,76.00 288.30,76.00 297.07,76.00 307.58,76.00 316.34,76.00 319.85,76.00 326.86,76.00 337.37,76.00 346.14,76.00 356.65,76.00 360.16,76.00 367.17,76.00 375.93,76.00 386.44,76.00 389.95,76.00 396.96,76.00 405.72,76.00 416.24,76.00 425.00,76.00 426.75,76.00 435.52,76.00 439.02,76.00 446.03,76.00 454.79,76.00 456.55,76.00 465.31,76.00 470.57,76.00 475.82,76.00 484.59,76.00 495.10,76.00 505.62,76.00 514.38,76.00 524.89,76.00 535.41,76.00 544.17,76.00 554.69,76.00 563.45,76.00 573.96,76.00 584.48,76.00 593.24,76.00 603.76,76.00 614.27,76.00 623.04,76.00 633.55,76.00 644.07,76.00 652.83,76.00 663.34,76.00 673.86,76.00 682.62,76.00 693.14,76.00 701.90,76.00 712.41,76.00 722.93,76.00 731.69,76.00 740.45,76.00"/>
<polyline fill="none" stroke="#9467bd" stroke-width="1.2" opacity="0.55" stroke-dasharray="4 4" points="109.55,76.00 111.30,76.00 113.05,76.00 116.56,76.00 118.31,76.00 120.06,76.00 121.81,76.00 123.57,76.00 125.32,76.00 127.07,76.00 128.82,76.00 132.33,76.00 135.83,76.00 139.34,76.00 142.84,76.00 146.35,76.00 149.85,76.00 151.61,76.00 153.36,76.00 155.11,76.00 158.62,76.00 162.12,76.00 163.87,76.00 165.63,76.00 169.13,76.00 170.88,76.00 172.64,76.00 176.14,76.00 177.89,76.00 179.65,76.00 183.15,76.00 184.90,76.00 186.66,76.00 188.41,76.00 190.16,76.00 191.91,76.00 195.42,76.00 198.92,76.00 202.43,76.00 204.18,76.00 205.93,76.00 207.69,76.00 209.44,76.00 212.94,76.00 214.70,76.00 216.45,76.00 218.20,76.00 219.95,76.00 221.71,76.00 225.21,76.00 226.96,76.00 228.72,76.00 230.47,76.00 232.22,76.00 233.97,76.00 235.73,76.00 237.48,76.00 239.23,76.00 240.98,76.00 242.74,76.00 244.49,76.00 246.24,76.00 247.99,76.00 249.75,76.00 251.50,76.00 255.01,76.00 256.76,76.00 258.51,76.00 260.26,76.00 262.02,76.00 263.77,76.00 265.52,76.00 267.27,76.00 269.03,76.00 270.78,76.00 272.53,76.00 276.04,76.00 277.79,76.00 281.29,76.00 284.80,76.00 288.30,76.00 290.06,76.00 291.81,76.00 293.56,76.00 295.31,76.00 297.07,76.00 298.82,76.00 300.57,76.00 302.32,76.00 304.08,76.00 305.83,76.00 307.58,76.00 309.33,76.00 311.09,76.00 312.84,76.00 314.59,76.00 316.34,76.00 318.10,76.00 319.85,76.00 740.45,76.00"/>
<polyline fill="none" stroke="#9467bd" stroke-width="1.2" opacity="0.55" stroke-dasharray="4 4" points="109.55,76.00 111.30,76.00 113.05,76.00 116.56,76.00 118.31,76.00 120.06,76.00 121.81,76.00 123.57,76.00 125.32,76.00 127.07,76.00 128.82,76.00 132.33,76.00 135.83,76.00 139.34,76.00 142.84,76.00 146.35,76.00 149.85,76.00 151.61,76.00 153.36,76.00 155.11,76.00 158.62,76.00 162.12,76.00 163.87,76.00 165.63,76.00 169.13,76.00 170.88,76.00 172.64,76.00 176.14,76.00 177.89,76.00 179.65,76.00 183.15,76.00 184.90,76.00 186.66,76.00 188.41,76.00 190.16,76.00 191.91,76.00 195.42,76.00 198.92,76.00 202.43,76.00 204.18,76.00 205.93,76.00 207.69,76.00 209.44,76.00 212.94,76.00 214.70,76.00 216.45,76.00 218.20,76.00 219.95,76.00 221.71,76.00 225.21,76.00 226.96,76.00 228.72,76.00 230.47,76.00 232.22,76.00 233.97,76.00 235.73,76.00 237.48,76.00 239.23,76.00 240.98,76.00 242.74,76.00 244.49,76.00 246.24,76.00 247.99,76.00 249.75,76.00 251.50,76.00 255.01,76.00 256.76,76.00 258.51,76.00 260.26,76.00 262.02,76.00 263.77,76.00 265.52,76.00 267.27,76.00 269.03,76.00 270.78,76.00 272.53,76.00 276.04,76.00 277.79,76.00 281.29,76.00 284.80,76.00 288.30,76.00 290.06,76.00 291.81,76.00 293.56,76.00 295.31,76.00 297.07,76.00 298.82,76.00 300.57,76.00 302.32,76.00 304.08,76.00 305.83,76.00 307.58,76.00 309.33,76.00 311.09,76.00 312.84,76.00 314.59,76.00 316.34,76.00 318.10,76.00 319.85,76.00 740.45,76.00"/>
<polyline fill="none" stroke="#9467bd" stroke-width="2.0" opacity="1.0" points="109.55,76.00 111.30,76.00 113.05,76.00 116.56,76.00 118.31,76.00 120.06,76.00 121.81,76.00 123.57,76.00 125.32,76.00 127.07,76.00 128.82,76.00 132.33,76.00 135.83,76.00 139.34,76.00 142.84,76.00 146.35,76.00 149.85,76.00 151.61,76.00 153.36,76.00 155.11,76.00 158.62,76.00 162.12,76.00 163.87,76.00 165.63,76.00 169.13,76.00 170.88,76.00 172.64,76.00 176.14,76.00 177.89,76.00 179.65,76.00 183.15,76.00 184.90,76.00 186.66,76.00 188.41,76.00 190.16,76.00 191.91,76.00 195.42,76.00 198.92,76.00 202.43,76.00 204.18,76.00 205.93,76.00 207.69,76.00 209.44,76.00 212.94,76.00 214.70,76.00 216.45,76.00 218.20,76.00 219.95,76.00 221.71,76.00 225.21,76.00 226.96,76.00 228.72,76.00 230.47,76.00 232.22,76.00 233.97,76.00 235.73,76.00 237.48,76.00 239.23,76.00 240.98,76.00 242.74,76.00 244.49,76.00 246.24,76.00 247.99,76.00 249.75,76.00 251.50,76.00 255.01,76.00 256.76,76.00 258.51,76.00 260.26,76.00 262.02,76.00 263.77,76.00 265.52,76.00 267.27,76.00 269.03,76.00 270.78,76.00 272.53,76.00 276.04,76.00 277.79,76.00 281.29,76.00 284.80,76.00 288.30,76.00 290.06,76.00 291.81,76.00 293.56,76.00 295.31,76.00 297.07,76.00 298.82,76.00 300.57,76.00 302.32,76.00 304.08,76.00 305.83,76.00 307.58,76.00 309.33,76.00 311.09,76.00 312.84,76.00 314.59,76.00 316.34,76.00 318.10,76.00 319.85,76.00 740.45,76.00"/>
<line x1="88" y1="70" x2="110" y2="70" stroke="#2ca02c" stroke-width="2.4"/>
<text x="116" y="74" font-family="Arial, sans-serif" font-size="12">[GND Clamp]</text>
<line x1="88" y1="88" x2="110" y2="88" stroke="#9467bd" stroke-width="2.4"/>
<text x="116" y="92" font-family="Arial, sans-serif" font-size="12">[POWER Clamp]</text>
<text x="425.00" y="444.00" text-anchor="middle" font-family="Arial, sans-serif" font-size="12">Table voltage (V)</text>
<text transform="translate(18 226.00) rotate(-90)" text-anchor="middle" font-family="Arial, sans-serif" font-size="12">Current (A)</text>
<text x="420" y="42" font-family="Arial, sans-serif" font-size="11" fill="#555">solid=typ, dashed=min/max; dashed vertical=required sweep boundary (5.3.4/5.3.5)</text>
</svg>