<svg xmlns="http://www.w3.org/2000/svg" width="800" height="560" viewBox="0 0 800 560">
<rect width="100%" height="100%" fill="#ffffff"/>
<text x="78" y="25" font-family="Arial, sans-serif" font-size="16" font-weight="700">E34_GPIO_COMBO_1V8 I-V Clamp Sweep Range</text>
<rect x="78" y="52" width="694" height="348" fill="#fbfbfb" stroke="#c8c8c8"/>
<line x1="78.00" y1="52" x2="78.00" y2="400" stroke="#ececec"/>
<text x="78.00" y="422" text-anchor="middle" font-family="Arial, sans-serif" font-size="11">-2.1</text>
<line x1="216.80" y1="52" x2="216.80" y2="400" stroke="#ececec"/>
<text x="216.80" y="422" text-anchor="middle" font-family="Arial, sans-serif" font-size="11">-0.882</text>
<line x1="355.60" y1="52" x2="355.60" y2="400" stroke="#ececec"/>
<text x="355.60" y="422" text-anchor="middle" font-family="Arial, sans-serif" font-size="11">0.306</text>
<line x1="494.40" y1="52" x2="494.40" y2="400" stroke="#ececec"/>
<text x="494.40" y="422" text-anchor="middle" font-family="Arial, sans-serif" font-size="11">1.5</text>
<line x1="633.20" y1="52" x2="633.20" y2="400" stroke="#ececec"/>
<text x="633.20" y="422" text-anchor="middle" font-family="Arial, sans-serif" font-size="11">2.7</text>
<line x1="772.00" y1="52" x2="772.00" y2="400" stroke="#ececec"/>
<text x="772.00" y="422" text-anchor="middle" font-family="Arial, sans-serif" font-size="11">3.9</text>
<line x1="78" y1="400.00" x2="772" y2="400.00" stroke="#ececec"/>
<text x="70" y="404.00" text-anchor="end" font-family="Arial, sans-serif" font-size="11">-1.9</text>
<line x1="78" y1="330.40" x2="772" y2="330.40" stroke="#ececec"/>
<text x="70" y="334.40" text-anchor="end" font-family="Arial, sans-serif" font-size="11">-1.5</text>
<line x1="78" y1="260.80" x2="772" y2="260.80" stroke="#ececec"/>
<text x="70" y="264.80" text-anchor="end" font-family="Arial, sans-serif" font-size="11">-1.1</text>
<line x1="78" y1="191.20" x2="772" y2="191.20" stroke="#ececec"/>
<text x="70" y="195.20" text-anchor="end" font-family="Arial, sans-serif" font-size="11">-0.65</text>
<line x1="78" y1="121.60" x2="772" y2="121.60" stroke="#ececec"/>
<text x="70" y="125.60" text-anchor="end" font-family="Arial, sans-serif" font-size="11">-0.221</text>
<line x1="78" y1="52.00" x2="772" y2="52.00" stroke="#ececec"/>
<text x="70" y="56.00" text-anchor="end" font-family="Arial, sans-serif" font-size="11">0.209</text>
<line x1="319.85" y1="52" x2="319.85" y2="400" stroke="#777" stroke-dasharray="4 4"/>
<line x1="78" y1="85.82" x2="772" y2="85.82" stroke="#777" stroke-dasharray="4 4"/>
<line x1="109.55" y1="52" x2="109.55" y2="400" stroke="#555" stroke-dasharray="2 4"/>
<text x="113.55" y="66" font-family="Arial, sans-serif" font-size="11" fill="#555">-Vcc</text>
<line x1="530.15" y1="52" x2="530.15" y2="400" stroke="#555" stroke-dasharray="2 4"/>
<text x="534.15" y="66" font-family="Arial, sans-serif" font-size="11" fill="#555">Vcc</text>
<line x1="740.45" y1="52" x2="740.45" y2="400" stroke="#555" stroke-dasharray="2 4"/>
<text x="744.45" y="66" font-family="Arial, sans-serif" font-size="11" fill="#555">2Vcc</text>
<polyline fill="none" stroke="#2ca02c" stroke-width="1.2" opacity="0.55" stroke-dasharray="4 4" points="109.55,376.00 118.89,353.96 129.41,329.16 138.75,307.12 149.27,282.32 158.62,260.28 169.13,235.48 178.48,213.44 188.99,188.64 198.34,166.60 208.86,141.80 218.20,119.75 219.37,117.00 220.54,114.24 221.71,111.49 222.88,108.73 224.04,105.98 225.21,103.22 226.38,100.70 227.55,98.45 228.72,96.46 229.89,94.71 231.05,93.18 232.22,91.86 233.39,90.74 234.56,89.78 235.73,88.99 236.90,88.33 238.06,87.80 239.23,87.37 240.40,87.03 241.57,86.76 242.74,86.55 243.91,86.39 245.07,86.27 246.24,86.17 247.41,86.10 248.58,86.04 249.75,86.00 250.92,85.96 252.08,85.94 253.25,85.92 254.42,85.90 255.59,85.89 257.93,85.87 267.27,85.84 277.79,85.83 287.13,85.82 297.65,85.82 307.00,85.82 317.51,85.82 319.85,85.82 326.86,85.82 336.21,85.82 339.71,85.82 346.72,85.82 356.07,85.82 357.24,85.82 366.58,85.82 375.93,85.82 380.60,85.82 386.44,85.82 395.79,85.82 406.31,85.82 415.65,85.82 426.17,85.82 435.52,85.82 444.86,85.82 455.38,85.82 464.72,85.82 475.24,85.82 484.59,85.82 495.10,85.82 502.11,85.82 504.45,85.82 507.95,85.82 514.96,85.82 524.31,85.82 533.66,85.82 544.17,85.82 553.52,85.82 564.03,85.82 573.38,85.82 583.90,85.82 593.24,85.82 603.76,85.82 613.10,85.82 623.62,85.82 632.97,85.82 642.31,85.82 652.83,85.82 662.18,85.82 672.69,85.82 682.04,85.82 692.55,85.82 701.90,85.82 712.41,85.82 721.76,85.82 732.28,85.82 740.45,85.82"/>
<polyline fill="none" stroke="#2ca02c" stroke-width="1.2" opacity="0.55" stroke-dasharray="4 4" points="109.55,353.14 118.89,331.10 129.41,306.30 138.75,284.26 149.27,259.46 158.62,237.42 169.13,212.62 178.48,190.58 188.99,165.78 198.34,143.74 208.86,118.94 218.20,96.90 219.37,94.14 220.54,91.39 221.71,89.44 222.88,88.19 224.04,87.39 225.21,86.88 226.38,86.56 227.55,86.36 228.72,86.23 229.89,86.15 231.05,86.09 232.22,86.05 233.39,86.02 234.56,86.00 235.73,85.99 236.90,85.97 238.06,85.96 239.23,85.95 240.40,85.94 241.57,85.93 242.74,85.92 243.91,85.91 245.07,85.91 246.24,85.90 247.41,85.89 248.58,85.89 249.75,85.88 250.92,85.87 252.08,85.87 253.25,85.86 254.42,85.86 255.59,85.85 257.93,85.85 267.27,85.83 277.79,85.82 287.13,85.82 297.65,85.82 307.00,85.82 317.51,85.82 319.85,85.82 326.86,85.82 336.21,85.82 339.71,85.82 346.72,85.82 356.07,85.82 357.24,85.82 366.58,85.82 375.93,85.82 380.60,85.82 386.44,85.82 395.79,85.82 406.31,85.82 415.65,85.82 426.17,85.82 435.52,85.82 444.86,85.82 455.38,85.82 464.72,85.82 475.24,85.82 484.59,85.82 495.10,85.82 502.11,85.82 504.45,85.82 507.95,85.82 514.96,85.82 524.31,85.82 533.66,85.82 544.17,85.82 553.52,85.82 564.03,85.82 573.38,85.82 583.90,85.82 593.24,85.82 603.76,85.82 613.10,85.82 623.62,85.82 632.97,85.82 642.31,85.82 652.83,85.82 662.18,85.82 672.69,85.82 682.04,85.82 692.55,85.82 701.90,85.82 712.41,85.82 721.76,85.82 732.28,85.82 740.45,85.82"/>
<polyline fill="none" stroke="#2ca02c" stroke-width="2.0" opacity="1.0" points="109.55,353.19 118.89,331.14 129.41,306.35 138.75,284.30 149.27,259.51 158.62,237.46 169.13,212.67 178.48,190.62 188.99,165.83 198.34,143.78 208.86,118.99 218.20,96.94 219.37,94.19 220.54,91.81 221.71,90.09 222.88,88.85 224.04,87.97 225.21,87.36 226.38,86.93 227.55,86.63 228.72,86.42 229.89,86.28 231.05,86.18 232.22,86.11 233.39,86.05 234.56,86.02 235.73,85.99 236.90,85.97 238.06,85.95 239.23,85.94 240.40,85.93 241.57,85.92 242.74,85.91 243.91,85.90 245.07,85.90 246.24,85.89 247.41,85.88 248.58,85.88 249.75,85.87 250.92,85.87 252.08,85.86 253.25,85.86 254.42,85.86 255.59,85.85 257.93,85.85 267.27,85.83 277.79,85.82 287.13,85.82 297.65,85.82 307.00,85.82 317.51,85.82 319.85,85.82 326.86,85.82 336.21,85.82 339.71,85.82 346.72,85.82 356.07,85.82 357.24,85.82 366.58,85.82 375.93,85.82 380.60,85.82 386.44,85.82 395.79,85.82 406.31,85.82 415.65,85.82 426.17,85.82 435.52,85.82 444.86,85.82 455.38,85.82 464.72,85.82 475.24,85.82 484.59,85.82 495.10,85.82 502.11,85.82 504.45,85.82 507.95,85.82 514.96,85.82 524.31,85.82 533.66,85.82 544.17,85.82 553.52,85.82 564.03,85.82 573.38,85.82 583.90,85.82 593.24,85.82 603.76,85.82 613.10,85.82 623.62,85.82 632.97,85.82 642.31,85.82 652.83,85.82 662.18,85.82 672.69,85.82 682.04,85.82 692.55,85.82 701.90,85.82 712.41,85.82 721.76,85.82 732.28,85.82 740.45,85.82"/>
<polyline fill="none" stroke="#9467bd" stroke-width="1.2" opacity="0.55" stroke-dasharray="4 4" points="109.55,76.00 111.88,76.87 113.05,77.30 114.22,77.73 116.56,78.60 118.89,79.46 120.06,79.90 122.40,80.76 123.57,81.20 125.90,82.06 129.41,83.36 131.74,84.23 132.91,84.55 134.08,84.80 135.25,84.98 136.42,85.12 137.59,85.23 138.75,85.31 139.92,85.37 141.09,85.41 142.26,85.45 143.43,85.48 144.60,85.50 145.76,85.52 146.93,85.53 148.10,85.54 149.27,85.55 150.44,85.56 151.61,85.56 152.77,85.57 153.94,85.57 155.11,85.58 156.28,85.58 158.62,85.59 162.12,85.60 165.63,85.61 169.13,85.62 172.64,85.63 176.14,85.64 178.48,85.65 181.98,85.66 185.49,85.67 186.66,85.67 187.82,85.67 188.99,85.68 190.16,85.68 191.33,85.68 192.50,85.68 193.67,85.69 194.84,85.69 196.00,85.69 197.17,85.70 198.34,85.70 199.51,85.70 200.68,85.70 201.85,85.71 203.01,85.71 204.18,85.71 205.35,85.71 208.86,85.72 212.36,85.73 215.87,85.73 218.20,85.74 221.71,85.74 225.21,85.75 228.72,85.76 232.22,85.76 234.56,85.77 238.06,85.77 241.57,85.78 245.07,85.78 248.58,85.79 252.08,85.79 254.42,85.79 255.59,85.80 256.76,85.80 257.93,85.80 259.09,85.80 260.26,85.80 261.43,85.80 262.60,85.80 264.94,85.81 268.44,85.81 271.95,85.81 274.28,85.81 277.79,85.82 281.29,85.82 284.80,85.82 288.30,85.82 291.81,85.82 294.14,85.82 297.65,85.82 301.15,85.82 304.66,85.82 308.16,85.82 311.67,85.82 314.01,85.82 317.51,85.82 319.85,85.82 740.45,85.82"/>
<polyline fill="none" stroke="#9467bd" stroke-width="1.2" opacity="0.55" stroke-dasharray="4 4" points="109.55,84.00 111.88,84.02 113.05,84.03 114.22,84.05 116.56,84.07 118.89,84.10 120.06,84.11 122.40,84.14 123.57,84.16 125.90,84.19 129.41,84.23 131.74,84.26 132.91,84.28 134.08,84.29 135.25,84.31 136.42,84.33 137.59,84.34 138.75,84.36 139.92,84.38 141.09,84.39 142.26,84.41 143.43,84.43 144.60,84.45 145.76,84.46 146.93,84.48 148.10,84.50 149.27,84.52 150.44,84.54 151.61,84.56 152.77,84.57 153.94,84.59 155.11,84.61 156.28,84.63 158.62,84.67 162.12,84.73 165.63,84.79 169.13,84.85 172.64,84.92 176.14,84.98 178.48,85.02 181.98,85.09 185.49,85.15 186.66,85.17 187.82,85.19 188.99,85.21 190.16,85.23 191.33,85.25 192.50,85.26 193.67,85.28 194.84,85.30 196.00,85.32 197.17,85.33 198.34,85.35 199.51,85.36 200.68,85.37 201.85,85.39 203.01,85.40 204.18,85.41 205.35,85.42 208.86,85.45 212.36,85.48 215.87,85.51 218.20,85.53 221.71,85.56 225.21,85.59 228.72,85.62 232.22,85.64 234.56,85.66 238.06,85.68 241.57,85.71 245.07,85.73 248.58,85.75 252.08,85.76 254.42,85.77 255.59,85.78 256.76,85.78 257.93,85.79 259.09,85.79 260.26,85.80 261.43,85.80 262.60,85.80 264.94,85.81 268.44,85.81 271.95,85.82 274.28,85.82 277.79,85.82 281.29,85.82 284.80,85.82 288.30,85.82 291.81,85.82 294.14,85.82 297.65,85.82 301.15,85.82 304.66,85.82 308.16,85.82 311.67,85.82 314.01,85.82 317.51,85.82 319.85,85.82 740.45,85.82"/>
<polyline fill="none" stroke="#9467bd" stroke-width="2.0" opacity="1.0" points="109.55,85.26 111.88,85.27 113.05,85.27 114.22,85.28 116.56,85.29 118.89,85.30 120.06,85.31 122.40,85.32 123.57,85.32 125.90,85.33 129.41,85.35 131.74,85.36 132.91,85.37 134.08,85.37 135.25,85.38 136.42,85.38 137.59,85.39 138.75,85.39 139.92,85.40 141.09,85.40 142.26,85.41 143.43,85.42 144.60,85.42 145.76,85.43 146.93,85.43 148.10,85.44 149.27,85.44 150.44,85.45 151.61,85.45 152.77,85.46 153.94,85.46 155.11,85.47 156.28,85.47 158.62,85.48 162.12,85.50 165.63,85.51 169.13,85.53 172.64,85.54 176.14,85.55 178.48,85.56 181.98,85.57 185.49,85.58 186.66,85.59 187.82,85.59 188.99,85.59 190.16,85.60 191.33,85.60 192.50,85.61 193.67,85.61 194.84,85.61 196.00,85.62 197.17,85.62 198.34,85.62 199.51,85.63 200.68,85.63 201.85,85.63 203.01,85.64 204.18,85.64 205.35,85.64 208.86,85.65 212.36,85.66 215.87,85.68 218.20,85.68 221.71,85.69 225.21,85.70 228.72,85.71 232.22,85.72 234.56,85.73 238.06,85.74 241.57,85.75 245.07,85.76 248.58,85.77 252.08,85.78 254.42,85.79 255.59,85.79 256.76,85.79 257.93,85.79 259.09,85.80 260.26,85.80 261.43,85.80 262.60,85.80 264.94,85.81 268.44,85.81 271.95,85.81 274.28,85.82 277.79,85.82 281.29,85.82 284.80,85.82 288.30,85.82 291.81,85.82 294.14,85.82 297.65,85.82 301.15,85.82 304.66,85.82 308.16,85.82 311.67,85.82 314.01,85.82 317.51,85.82 319.85,85.82 740.45,85.82"/>
<line x1="88" y1="70" x2="110" y2="70" stroke="#2ca02c" stroke-width="2.4"/>
<text x="116" y="74" font-family="Arial, sans-serif" font-size="12">[GND Clamp]</text>
<line x1="88" y1="88" x2="110" y2="88" stroke="#9467bd" stroke-width="2.4"/>
<text x="116" y="92" font-family="Arial, sans-serif" font-size="12">[POWER Clamp]</text>
<text x="425.00" y="444.00" text-anchor="middle" font-family="Arial, sans-serif" font-size="12">Table voltage (V)</text>
<text transform="translate(18 226.00) rotate(-90)" text-anchor="middle" font-family="Arial, sans-serif" font-size="12">Current (A)</text>
<text x="420" y="42" font-family="Arial, sans-serif" font-size="11" fill="#555">solid=typ, dashed=min/max; dashed vertical=required sweep boundary (5.3.4/5.3.5)</text>
</svg>