<svg xmlns="http://www.w3.org/2000/svg" width="800" height="560" viewBox="0 0 800 560">
<rect width="100%" height="100%" fill="#ffffff"/>
<text x="78" y="25" font-family="Arial, sans-serif" font-size="16" font-weight="700">E34_GPIO_5V0_LIN I-V Clamp Sweep Range</text>
<rect x="78" y="52" width="694" height="348" fill="#fbfbfb" stroke="#c8c8c8"/>
<line x1="78.00" y1="52" x2="78.00" y2="400" stroke="#ececec"/>
<text x="78.00" y="422" text-anchor="middle" font-family="Arial, sans-serif" font-size="11">-4.3</text>
<line x1="216.80" y1="52" x2="216.80" y2="400" stroke="#ececec"/>
<text x="216.80" y="422" text-anchor="middle" font-family="Arial, sans-serif" font-size="11">-1.8</text>
<line x1="355.60" y1="52" x2="355.60" y2="400" stroke="#ececec"/>
<text x="355.60" y="422" text-anchor="middle" font-family="Arial, sans-serif" font-size="11">0.629</text>
<line x1="494.40" y1="52" x2="494.40" y2="400" stroke="#ececec"/>
<text x="494.40" y="422" text-anchor="middle" font-family="Arial, sans-serif" font-size="11">3.1</text>
<line x1="633.20" y1="52" x2="633.20" y2="400" stroke="#ececec"/>
<text x="633.20" y="422" text-anchor="middle" font-family="Arial, sans-serif" font-size="11">5.5</text>
<line x1="772.00" y1="52" x2="772.00" y2="400" stroke="#ececec"/>
<text x="772.00" y="422" text-anchor="middle" font-family="Arial, sans-serif" font-size="11">8</text>
<line x1="78" y1="400.00" x2="772" y2="400.00" stroke="#ececec"/>
<text x="70" y="404.00" text-anchor="end" font-family="Arial, sans-serif" font-size="11">-5.8</text>
<line x1="78" y1="330.40" x2="772" y2="330.40" stroke="#ececec"/>
<text x="70" y="334.40" text-anchor="end" font-family="Arial, sans-serif" font-size="11">-3.5</text>
<line x1="78" y1="260.80" x2="772" y2="260.80" stroke="#ececec"/>
<text x="70" y="264.80" text-anchor="end" font-family="Arial, sans-serif" font-size="11">-1.1</text>
<line x1="78" y1="191.20" x2="772" y2="191.20" stroke="#ececec"/>
<text x="70" y="195.20" text-anchor="end" font-family="Arial, sans-serif" font-size="11">1.2</text>
<line x1="78" y1="121.60" x2="772" y2="121.60" stroke="#ececec"/>
<text x="70" y="125.60" text-anchor="end" font-family="Arial, sans-serif" font-size="11">3.6</text>
<line x1="78" y1="52.00" x2="772" y2="52.00" stroke="#ececec"/>
<text x="70" y="56.00" text-anchor="end" font-family="Arial, sans-serif" font-size="11">6</text>
<line x1="319.85" y1="52" x2="319.85" y2="400" stroke="#777" stroke-dasharray="4 4"/>
<line x1="78" y1="227.85" x2="772" y2="227.85" stroke="#777" stroke-dasharray="4 4"/>
<line x1="109.55" y1="52" x2="109.55" y2="400" stroke="#555" stroke-dasharray="2 4"/>
<text x="113.55" y="66" font-family="Arial, sans-serif" font-size="11" fill="#555">-Vcc</text>
<line x1="530.15" y1="52" x2="530.15" y2="400" stroke="#555" stroke-dasharray="2 4"/>
<text x="534.15" y="66" font-family="Arial, sans-serif" font-size="11" fill="#555">Vcc</text>
<line x1="740.45" y1="52" x2="740.45" y2="400" stroke="#555" stroke-dasharray="2 4"/>
<text x="744.45" y="66" font-family="Arial, sans-serif" font-size="11" fill="#555">2Vcc</text>
<polyline fill="none" stroke="#2ca02c" stroke-width="1.2" opacity="0.55" stroke-dasharray="4 4" points="109.55,376.00 119.21,367.49 129.44,358.49 139.10,349.98 148.76,341.48 159.00,332.47 168.66,323.96 178.89,314.96 188.55,306.45 198.21,297.94 208.44,288.94 218.11,280.43 227.77,271.93 238.00,262.92 247.66,254.41 257.33,245.91 267.56,236.90 272.67,232.40 273.24,231.90 273.81,231.40 274.38,230.90 274.95,230.40 275.51,229.97 276.08,229.60 276.65,229.29 277.22,229.02 277.79,228.80 278.36,228.61 278.92,228.45 279.49,228.32 280.06,228.22 280.63,228.14 281.20,228.07 281.77,228.02 282.33,227.98 282.90,227.95 283.47,227.93 284.04,227.91 284.61,227.90 285.18,227.89 285.75,227.88 286.31,227.87 286.88,227.87 287.45,227.87 288.02,227.86 288.59,227.86 289.16,227.86 289.72,227.86 297.11,227.85 306.78,227.85 317.01,227.85 319.85,227.85 326.67,227.85 331.22,227.85 336.33,227.85 346.56,227.85 354.52,227.85 356.23,227.85 365.89,227.85 376.12,227.85 385.78,227.85 395.44,227.85 401.70,227.85 405.67,227.85 415.34,227.85 425.57,227.85 435.23,227.85 444.89,227.85 455.12,227.85 457.97,227.85 464.79,227.85 474.45,227.85 484.68,227.85 494.34,227.85 504.01,227.85 514.24,227.85 523.90,227.85 533.56,227.85 534.70,227.85 543.79,227.85 553.46,227.85 563.69,227.85 573.35,227.85 583.01,227.85 593.24,227.85 602.90,227.85 612.57,227.85 622.80,227.85 632.46,227.85 642.12,227.85 652.35,227.85 662.02,227.85 671.68,227.85 681.91,227.85 691.57,227.85 701.80,227.85 711.47,227.85 721.13,227.85 731.36,227.85 740.45,227.85"/>
<polyline fill="none" stroke="#2ca02c" stroke-width="1.2" opacity="0.55" stroke-dasharray="4 4" points="109.55,372.85 119.21,364.35 129.44,355.34 139.10,346.84 148.76,338.33 159.00,329.32 168.66,320.82 178.89,311.81 188.55,303.30 198.21,294.80 208.44,285.79 218.11,277.29 227.77,268.78 238.00,259.77 247.66,251.27 257.33,242.76 267.56,233.75 272.67,229.25 273.24,228.75 273.81,228.41 274.38,228.20 274.95,228.07 275.51,227.99 276.08,227.94 276.65,227.91 277.22,227.89 277.79,227.88 278.36,227.87 278.92,227.87 279.49,227.87 280.06,227.86 280.63,227.86 281.20,227.86 281.77,227.86 282.33,227.86 282.90,227.86 283.47,227.86 284.04,227.86 284.61,227.86 285.18,227.86 285.75,227.86 286.31,227.86 286.88,227.86 287.45,227.85 288.02,227.85 288.59,227.85 289.16,227.85 289.72,227.85 297.11,227.85 306.78,227.85 317.01,227.85 319.85,227.85 326.67,227.85 331.22,227.85 336.33,227.85 346.56,227.85 354.52,227.85 356.23,227.85 365.89,227.85 376.12,227.85 385.78,227.85 395.44,227.85 401.70,227.85 405.67,227.85 415.34,227.85 425.57,227.85 435.23,227.85 444.89,227.85 455.12,227.85 457.97,227.85 464.79,227.85 474.45,227.85 484.68,227.85 494.34,227.85 504.01,227.85 514.24,227.85 523.90,227.85 533.56,227.85 534.70,227.85 543.79,227.85 553.46,227.85 563.69,227.85 573.35,227.85 583.01,227.85 593.24,227.85 602.90,227.85 612.57,227.85 622.80,227.85 632.46,227.85 642.12,227.85 652.35,227.85 662.02,227.85 671.68,227.85 681.91,227.85 691.57,227.85 701.80,227.85 711.47,227.85 721.13,227.85 731.36,227.85 740.45,227.85"/>
<polyline fill="none" stroke="#2ca02c" stroke-width="2.0" opacity="1.0" points="109.55,372.83 119.21,364.32 129.44,355.31 139.10,346.81 148.76,338.30 159.00,329.29 168.66,320.79 178.89,311.78 188.55,303.28 198.21,294.77 208.44,285.76 218.11,277.26 227.77,268.75 238.00,259.74 247.66,251.24 257.33,242.73 267.56,233.73 272.67,229.22 273.24,228.80 273.81,228.50 274.38,228.30 274.95,228.16 275.51,228.07 276.08,228.00 276.65,227.96 277.22,227.93 277.79,227.91 278.36,227.89 278.92,227.88 279.49,227.87 280.06,227.87 280.63,227.87 281.20,227.86 281.77,227.86 282.33,227.86 282.90,227.86 283.47,227.86 284.04,227.86 284.61,227.86 285.18,227.86 285.75,227.86 286.31,227.86 286.88,227.86 287.45,227.86 288.02,227.85 288.59,227.85 289.16,227.85 289.72,227.85 297.11,227.85 306.78,227.85 317.01,227.85 319.85,227.85 326.67,227.85 331.22,227.85 336.33,227.85 346.56,227.85 354.52,227.85 356.23,227.85 365.89,227.85 376.12,227.85 385.78,227.85 395.44,227.85 401.70,227.85 405.67,227.85 415.34,227.85 425.57,227.85 435.23,227.85 444.89,227.85 455.12,227.85 457.97,227.85 464.79,227.85 474.45,227.85 484.68,227.85 494.34,227.85 504.01,227.85 514.24,227.85 523.90,227.85 533.56,227.85 534.70,227.85 543.79,227.85 553.46,227.85 563.69,227.85 573.35,227.85 583.01,227.85 593.24,227.85 602.90,227.85 612.57,227.85 622.80,227.85 632.46,227.85 642.12,227.85 652.35,227.85 662.02,227.85 671.68,227.85 681.91,227.85 691.57,227.85 701.80,227.85 711.47,227.85 721.13,227.85 731.36,227.85 740.45,227.85"/>
<polyline fill="none" stroke="#9467bd" stroke-width="1.2" opacity="0.55" stroke-dasharray="4 4" points="109.55,76.00 112.96,79.00 116.37,82.00 119.21,84.51 122.62,87.51 126.03,90.51 129.44,93.51 132.85,96.51 135.69,99.02 139.10,102.02 142.51,105.02 145.92,108.02 149.33,111.03 152.17,113.53 155.58,116.53 159.00,119.53 162.41,122.53 165.82,125.54 168.66,128.04 172.07,131.04 175.48,134.04 178.89,137.04 182.30,140.05 185.14,142.55 188.55,145.55 191.96,148.55 195.37,151.55 198.78,154.56 201.62,157.06 205.03,160.06 208.44,163.06 211.86,166.06 215.27,169.07 218.11,171.57 221.52,174.57 224.93,177.57 228.34,180.58 231.18,183.08 234.59,186.08 238.00,189.08 241.41,192.08 244.82,195.09 247.66,197.59 248.23,198.09 248.80,198.59 251.07,200.59 254.48,203.59 257.89,206.59 261.30,209.60 264.15,212.10 267.56,215.10 270.97,218.10 273.24,220.10 273.81,220.60 274.38,221.10 274.95,221.60 275.51,222.11 276.08,222.61 276.65,223.11 277.22,223.61 277.79,224.11 278.36,224.61 278.92,225.11 279.49,225.61 280.06,226.11 280.63,226.54 281.20,226.86 281.77,227.11 282.33,227.29 282.90,227.43 283.47,227.54 284.04,227.61 284.61,227.67 285.18,227.72 285.75,227.75 286.31,227.78 286.88,227.79 287.45,227.81 288.02,227.82 288.59,227.83 289.16,227.83 289.72,227.84 290.29,227.84 290.86,227.84 291.43,227.85 292.00,227.85 292.57,227.85 293.13,227.85 293.70,227.85 294.27,227.85 294.84,227.85 297.11,227.85 300.52,227.85 303.93,227.85 307.34,227.85 310.75,227.85 313.60,227.85 317.01,227.85 319.85,227.85 740.45,227.85"/>
<polyline fill="none" stroke="#9467bd" stroke-width="1.2" opacity="0.55" stroke-dasharray="4 4" points="109.55,82.92 112.96,85.92 116.37,88.92 119.21,91.43 122.62,94.43 126.03,97.43 129.44,100.43 132.85,103.44 135.69,105.94 139.10,108.94 142.51,111.94 145.92,114.94 149.33,117.95 152.17,120.45 155.58,123.45 159.00,126.45 162.41,129.45 165.82,132.46 168.66,134.96 172.07,137.96 175.48,140.96 178.89,143.96 182.30,146.97 185.14,149.47 188.55,152.47 191.96,155.47 195.37,158.47 198.78,161.48 201.62,163.98 205.03,166.98 208.44,169.98 211.86,172.99 215.27,175.99 218.11,178.49 221.52,181.49 224.93,184.49 228.34,187.50 231.18,190.00 234.59,193.00 238.00,196.00 241.41,199.00 244.82,202.01 247.66,204.51 248.23,205.01 248.80,205.51 251.07,207.51 254.48,210.51 257.89,213.51 261.30,216.52 264.15,219.02 267.56,222.02 270.97,225.02 273.24,227.02 273.81,227.34 274.38,227.53 274.95,227.65 275.51,227.72 276.08,227.76 276.65,227.79 277.22,227.81 277.79,227.82 278.36,227.83 278.92,227.83 279.49,227.83 280.06,227.84 280.63,227.84 281.20,227.84 281.77,227.84 282.33,227.84 282.90,227.84 283.47,227.84 284.04,227.85 284.61,227.85 285.18,227.85 285.75,227.85 286.31,227.85 286.88,227.85 287.45,227.85 288.02,227.85 288.59,227.85 289.16,227.85 289.72,227.85 290.29,227.85 290.86,227.85 291.43,227.85 292.00,227.85 292.57,227.85 293.13,227.85 293.70,227.85 294.27,227.85 294.84,227.85 297.11,227.85 300.52,227.85 303.93,227.85 307.34,227.85 310.75,227.85 313.60,227.85 317.01,227.85 319.85,227.85 740.45,227.85"/>
<polyline fill="none" stroke="#9467bd" stroke-width="2.0" opacity="1.0" points="109.55,80.54 112.96,83.55 116.37,86.55 119.21,89.05 122.62,92.05 126.03,95.06 129.44,98.06 132.85,101.06 135.69,103.56 139.10,106.56 142.51,109.57 145.92,112.57 149.33,115.57 152.17,118.07 155.58,121.07 159.00,124.08 162.41,127.08 165.82,130.08 168.66,132.58 172.07,135.58 175.48,138.59 178.89,141.59 182.30,144.59 185.14,147.09 188.55,150.09 191.96,153.10 195.37,156.10 198.78,159.10 201.62,161.60 205.03,164.61 208.44,167.61 211.86,170.61 215.27,173.61 218.11,176.11 221.52,179.12 224.93,182.12 228.34,185.12 231.18,187.62 234.59,190.62 238.00,193.63 241.41,196.63 244.82,199.63 247.66,202.13 248.23,202.63 248.80,203.13 251.07,205.13 254.48,208.14 257.89,211.14 261.30,214.14 264.15,216.64 267.56,219.64 270.97,222.65 273.24,224.65 273.81,225.15 274.38,225.65 274.95,226.15 275.51,226.65 276.08,227.03 276.65,227.29 277.22,227.47 277.79,227.59 278.36,227.67 278.92,227.73 279.49,227.76 280.06,227.79 280.63,227.81 281.20,227.82 281.77,227.83 282.33,227.83 282.90,227.84 283.47,227.84 284.04,227.84 284.61,227.85 285.18,227.85 285.75,227.85 286.31,227.85 286.88,227.85 287.45,227.85 288.02,227.85 288.59,227.85 289.16,227.85 289.72,227.85 290.29,227.85 290.86,227.85 291.43,227.85 292.00,227.85 292.57,227.85 293.13,227.85 293.70,227.85 294.27,227.85 294.84,227.85 297.11,227.85 300.52,227.85 303.93,227.85 307.34,227.85 310.75,227.85 313.60,227.85 317.01,227.85 319.85,227.85 740.45,227.85"/>
<line x1="88" y1="70" x2="110" y2="70" stroke="#2ca02c" stroke-width="2.4"/>
<text x="116" y="74" font-family="Arial, sans-serif" font-size="12">[GND Clamp]</text>
<line x1="88" y1="88" x2="110" y2="88" stroke="#9467bd" stroke-width="2.4"/>
<text x="116" y="92" font-family="Arial, sans-serif" font-size="12">[POWER Clamp]</text>
<text x="425.00" y="444.00" text-anchor="middle" font-family="Arial, sans-serif" font-size="12">Table voltage (V)</text>
<text transform="translate(18 226.00) rotate(-90)" text-anchor="middle" font-family="Arial, sans-serif" font-size="12">Current (A)</text>
<text x="420" y="42" font-family="Arial, sans-serif" font-size="11" fill="#555">solid=typ, dashed=min/max; dashed vertical=required sweep boundary (5.3.4/5.3.5)</text>
</svg>