<svg xmlns="http://www.w3.org/2000/svg" width="800" height="560" viewBox="0 0 800 560">
<rect width="100%" height="100%" fill="#ffffff"/>
<text x="78" y="25" font-family="Arial, sans-serif" font-size="16" font-weight="700">E34_GPIO_I2CSCLIN_1V8_11_ISOSW I-V Clamp Sweep Range</text>
<rect x="78" y="52" width="694" height="348" fill="#fbfbfb" stroke="#c8c8c8"/>
<line x1="78.00" y1="52" x2="78.00" y2="400" stroke="#ececec"/>
<text x="78.00" y="422" text-anchor="middle" font-family="Arial, sans-serif" font-size="11">-2.1</text>
<line x1="216.80" y1="52" x2="216.80" y2="400" stroke="#ececec"/>
<text x="216.80" y="422" text-anchor="middle" font-family="Arial, sans-serif" font-size="11">-0.882</text>
<line x1="355.60" y1="52" x2="355.60" y2="400" stroke="#ececec"/>
<text x="355.60" y="422" text-anchor="middle" font-family="Arial, sans-serif" font-size="11">0.306</text>
<line x1="494.40" y1="52" x2="494.40" y2="400" stroke="#ececec"/>
<text x="494.40" y="422" text-anchor="middle" font-family="Arial, sans-serif" font-size="11">1.5</text>
<line x1="633.20" y1="52" x2="633.20" y2="400" stroke="#ececec"/>
<text x="633.20" y="422" text-anchor="middle" font-family="Arial, sans-serif" font-size="11">2.7</text>
<line x1="772.00" y1="52" x2="772.00" y2="400" stroke="#ececec"/>
<text x="772.00" y="422" text-anchor="middle" font-family="Arial, sans-serif" font-size="11">3.9</text>
<line x1="78" y1="400.00" x2="772" y2="400.00" stroke="#ececec"/>
<text x="70" y="404.00" text-anchor="end" font-family="Arial, sans-serif" font-size="11">-1.9</text>
<line x1="78" y1="330.40" x2="772" y2="330.40" stroke="#ececec"/>
<text x="70" y="334.40" text-anchor="end" font-family="Arial, sans-serif" font-size="11">-1.5</text>
<line x1="78" y1="260.80" x2="772" y2="260.80" stroke="#ececec"/>
<text x="70" y="264.80" text-anchor="end" font-family="Arial, sans-serif" font-size="11">-1.1</text>
<line x1="78" y1="191.20" x2="772" y2="191.20" stroke="#ececec"/>
<text x="70" y="195.20" text-anchor="end" font-family="Arial, sans-serif" font-size="11">-0.685</text>
<line x1="78" y1="121.60" x2="772" y2="121.60" stroke="#ececec"/>
<text x="70" y="125.60" text-anchor="end" font-family="Arial, sans-serif" font-size="11">-0.271</text>
<line x1="78" y1="52.00" x2="772" y2="52.00" stroke="#ececec"/>
<text x="70" y="56.00" text-anchor="end" font-family="Arial, sans-serif" font-size="11">0.143</text>
<line x1="319.85" y1="52" x2="319.85" y2="400" stroke="#777" stroke-dasharray="4 4"/>
<line x1="78" y1="76.00" x2="772" y2="76.00" stroke="#777" stroke-dasharray="4 4"/>
<line x1="109.55" y1="52" x2="109.55" y2="400" stroke="#555" stroke-dasharray="2 4"/>
<text x="113.55" y="66" font-family="Arial, sans-serif" font-size="11" fill="#555">-Vcc</text>
<line x1="530.15" y1="52" x2="530.15" y2="400" stroke="#555" stroke-dasharray="2 4"/>
<text x="534.15" y="66" font-family="Arial, sans-serif" font-size="11" fill="#555">Vcc</text>
<line x1="740.45" y1="52" x2="740.45" y2="400" stroke="#555" stroke-dasharray="2 4"/>
<text x="744.45" y="66" font-family="Arial, sans-serif" font-size="11" fill="#555">2Vcc</text>
<polyline fill="none" stroke="#2ca02c" stroke-width="1.2" opacity="0.55" stroke-dasharray="4 4" points="109.55,376.00 118.89,353.12 129.41,327.39 138.75,304.51 149.27,278.77 158.62,255.89 169.13,230.16 178.48,207.28 188.99,181.54 198.34,158.66 206.52,138.65 207.69,135.79 208.86,132.93 210.02,130.07 211.19,127.21 212.36,124.35 213.53,121.49 214.70,118.63 215.87,115.77 217.03,112.91 218.20,110.05 219.37,107.19 220.54,104.33 221.71,101.47 222.88,98.61 224.04,95.78 225.21,93.19 226.38,90.83 227.55,88.69 228.72,86.77 229.89,85.07 231.05,83.58 232.22,82.27 233.39,81.16 234.56,80.21 235.73,79.41 236.90,78.75 238.06,78.21 239.23,77.78 240.40,77.43 241.57,77.15 242.74,76.93 243.91,76.76 247.41,76.44 257.93,76.14 267.27,76.06 277.79,76.02 287.13,76.00 297.65,76.00 307.00,76.00 317.51,76.00 319.85,76.00 326.86,76.00 336.21,76.00 346.72,76.00 356.07,76.00 366.58,76.00 375.93,76.00 386.44,76.00 395.79,76.00 398.13,76.00 406.31,76.00 415.65,76.00 420.33,76.00 423.83,76.00 426.17,76.00 433.18,76.00 435.52,76.00 444.86,76.00 449.54,76.00 455.38,76.00 464.72,76.00 475.24,76.00 484.59,76.00 495.10,76.00 504.45,76.00 514.96,76.00 524.31,76.00 533.66,76.00 544.17,76.00 553.52,76.00 564.03,76.00 573.38,76.00 583.90,76.00 593.24,76.00 603.76,76.00 613.10,76.00 623.62,76.00 632.97,76.00 642.31,76.00 652.83,76.00 662.18,76.00 672.69,76.00 682.04,76.00 692.55,76.00 701.90,76.00 712.41,76.00 721.76,76.00 732.28,76.00 740.45,76.00"/>
<polyline fill="none" stroke="#2ca02c" stroke-width="1.2" opacity="0.55" stroke-dasharray="4 4" points="109.55,323.22 118.89,300.35 129.41,274.61 138.75,251.73 149.27,225.99 158.62,203.12 169.13,177.38 178.48,154.50 188.99,128.76 198.34,105.89 206.52,85.87 207.69,83.37 208.86,81.43 210.02,79.99 211.19,78.97 212.36,78.26 213.53,77.79 214.70,77.47 215.87,77.26 217.03,77.11 218.20,77.01 219.37,76.93 220.54,76.87 221.71,76.82 222.88,76.78 224.04,76.74 225.21,76.70 226.38,76.67 227.55,76.63 228.72,76.60 229.89,76.57 231.05,76.54 232.22,76.52 233.39,76.49 234.56,76.46 235.73,76.44 236.90,76.41 238.06,76.39 239.23,76.36 240.40,76.34 241.57,76.32 242.74,76.30 243.91,76.28 247.41,76.22 257.93,76.08 267.27,76.02 277.79,76.00 287.13,76.00 297.65,76.00 307.00,76.00 317.51,76.00 319.85,76.00 326.86,76.00 336.21,76.00 346.72,76.00 356.07,76.00 366.58,76.00 375.93,76.00 386.44,76.00 395.79,76.00 398.13,76.00 406.31,76.00 415.65,76.00 420.33,76.00 423.83,76.00 426.17,76.00 433.18,76.00 435.52,76.00 444.86,76.00 449.54,76.00 455.38,76.00 464.72,76.00 475.24,76.00 484.59,76.00 495.10,76.00 504.45,76.00 514.96,76.00 524.31,76.00 533.66,76.00 544.17,76.00 553.52,76.00 564.03,76.00 573.38,76.00 583.90,76.00 593.24,76.00 603.76,76.00 613.10,76.00 623.62,76.00 632.97,76.00 642.31,76.00 652.83,76.00 662.18,76.00 672.69,76.00 682.04,76.00 692.55,76.00 701.90,76.00 712.41,76.00 721.76,76.00 732.28,76.00 740.45,76.00"/>
<polyline fill="none" stroke="#2ca02c" stroke-width="2.0" opacity="1.0" points="109.55,343.61 118.89,320.74 129.41,295.00 138.75,272.12 149.27,246.38 158.62,223.51 169.13,197.77 178.48,174.89 188.99,149.15 198.34,126.28 206.52,106.26 207.69,103.40 208.86,100.54 210.02,97.68 211.19,94.82 212.36,91.96 213.53,89.10 214.70,86.55 215.87,84.38 217.03,82.57 218.20,81.09 219.37,79.92 220.54,79.01 221.71,78.32 222.88,77.80 224.04,77.42 225.21,77.15 226.38,76.95 227.55,76.81 228.72,76.70 229.89,76.62 231.05,76.56 232.22,76.51 233.39,76.47 234.56,76.43 235.73,76.40 236.90,76.38 238.06,76.35 239.23,76.33 240.40,76.31 241.57,76.29 242.74,76.27 243.91,76.26 247.41,76.21 257.93,76.09 267.27,76.03 277.79,76.01 287.13,76.00 297.65,76.00 307.00,76.00 317.51,76.00 319.85,76.00 326.86,76.00 336.21,76.00 346.72,76.00 356.07,76.00 366.58,76.00 375.93,76.00 386.44,76.00 395.79,76.00 398.13,76.00 406.31,76.00 415.65,76.00 420.33,76.00 423.83,76.00 426.17,76.00 433.18,76.00 435.52,76.00 444.86,76.00 449.54,76.00 455.38,76.00 464.72,76.00 475.24,76.00 484.59,76.00 495.10,76.00 504.45,76.00 514.96,76.00 524.31,76.00 533.66,76.00 544.17,76.00 553.52,76.00 564.03,76.00 573.38,76.00 583.90,76.00 593.24,76.00 603.76,76.00 613.10,76.00 623.62,76.00 632.97,76.00 642.31,76.00 652.83,76.00 662.18,76.00 672.69,76.00 682.04,76.00 692.55,76.00 701.90,76.00 712.41,76.00 721.76,76.00 732.28,76.00 740.45,76.00"/>
<polyline fill="none" stroke="#9467bd" stroke-width="1.2" opacity="0.55" stroke-dasharray="4 4" points="109.55,76.00 113.05,76.00 114.22,76.00 115.39,76.00 116.56,76.00 118.89,76.00 122.40,76.00 125.90,76.00 129.41,76.00 131.74,76.00 132.91,76.00 134.08,76.00 135.25,76.00 136.42,76.00 137.59,76.00 138.75,76.00 139.92,76.00 141.09,76.00 142.26,76.00 143.43,76.00 144.60,76.00 145.76,76.00 148.10,76.00 149.27,76.00 152.77,76.00 156.28,76.00 157.45,76.00 158.62,76.00 160.95,76.00 162.12,76.00 165.63,76.00 166.79,76.00 169.13,76.00 172.64,76.00 176.14,76.00 178.48,76.00 181.98,76.00 185.49,76.00 188.99,76.00 192.50,76.00 196.00,76.00 198.34,76.00 201.85,76.00 203.01,76.00 204.18,76.00 205.35,76.00 208.86,76.00 212.36,76.00 215.87,76.00 218.20,76.00 221.71,76.00 224.04,76.00 225.21,76.00 228.72,76.00 229.89,76.00 231.05,76.00 232.22,76.00 234.56,76.00 235.73,76.00 238.06,76.00 241.57,76.00 242.74,76.00 243.91,76.00 245.07,76.00 248.58,76.00 252.08,76.00 253.25,76.00 254.42,76.00 257.93,76.00 259.09,76.00 260.26,76.00 261.43,76.00 263.77,76.00 264.94,76.00 268.44,76.00 271.95,76.00 274.28,76.00 275.45,76.00 276.62,76.00 277.79,76.00 281.29,76.00 284.80,76.00 288.30,76.00 291.81,76.00 294.14,76.00 297.65,76.00 301.15,76.00 304.66,76.00 307.00,76.00 308.16,76.00 309.33,76.00 310.50,76.00 311.67,76.00 312.84,76.00 314.01,76.00 315.18,76.00 316.34,76.00 317.51,76.00 319.85,76.00 740.45,76.00"/>
<polyline fill="none" stroke="#9467bd" stroke-width="1.2" opacity="0.55" stroke-dasharray="4 4" points="109.55,76.00 113.05,76.00 114.22,76.00 115.39,76.00 116.56,76.00 118.89,76.00 122.40,76.00 125.90,76.00 129.41,76.00 131.74,76.00 132.91,76.00 134.08,76.00 135.25,76.00 136.42,76.00 137.59,76.00 138.75,76.00 139.92,76.00 141.09,76.00 142.26,76.00 143.43,76.00 144.60,76.00 145.76,76.00 148.10,76.00 149.27,76.00 152.77,76.00 156.28,76.00 157.45,76.00 158.62,76.00 160.95,76.00 162.12,76.00 165.63,76.00 166.79,76.00 169.13,76.00 172.64,76.00 176.14,76.00 178.48,76.00 181.98,76.00 185.49,76.00 188.99,76.00 192.50,76.00 196.00,76.00 198.34,76.00 201.85,76.00 203.01,76.00 204.18,76.00 205.35,76.00 208.86,76.00 212.36,76.00 215.87,76.00 218.20,76.00 221.71,76.00 224.04,76.00 225.21,76.00 228.72,76.00 229.89,76.00 231.05,76.00 232.22,76.00 234.56,76.00 235.73,76.00 238.06,76.00 241.57,76.00 242.74,76.00 243.91,76.00 245.07,76.00 248.58,76.00 252.08,76.00 253.25,76.00 254.42,76.00 257.93,76.00 259.09,76.00 260.26,76.00 261.43,76.00 263.77,76.00 264.94,76.00 268.44,76.00 271.95,76.00 274.28,76.00 275.45,76.00 276.62,76.00 277.79,76.00 281.29,76.00 284.80,76.00 288.30,76.00 291.81,76.00 294.14,76.00 297.65,76.00 301.15,76.00 304.66,76.00 307.00,76.00 308.16,76.00 309.33,76.00 310.50,76.00 311.67,76.00 312.84,76.00 314.01,76.00 315.18,76.00 316.34,76.00 317.51,76.00 319.85,76.00 740.45,76.00"/>
<polyline fill="none" stroke="#9467bd" stroke-width="2.0" opacity="1.0" points="109.55,76.00 113.05,76.00 114.22,76.00 115.39,76.00 116.56,76.00 118.89,76.00 122.40,76.00 125.90,76.00 129.41,76.00 131.74,76.00 132.91,76.00 134.08,76.00 135.25,76.00 136.42,76.00 137.59,76.00 138.75,76.00 139.92,76.00 141.09,76.00 142.26,76.00 143.43,76.00 144.60,76.00 145.76,76.00 148.10,76.00 149.27,76.00 152.77,76.00 156.28,76.00 157.45,76.00 158.62,76.00 160.95,76.00 162.12,76.00 165.63,76.00 166.79,76.00 169.13,76.00 172.64,76.00 176.14,76.00 178.48,76.00 181.98,76.00 185.49,76.00 188.99,76.00 192.50,76.00 196.00,76.00 198.34,76.00 201.85,76.00 203.01,76.00 204.18,76.00 205.35,76.00 208.86,76.00 212.36,76.00 215.87,76.00 218.20,76.00 221.71,76.00 224.04,76.00 225.21,76.00 228.72,76.00 229.89,76.00 231.05,76.00 232.22,76.00 234.56,76.00 235.73,76.00 238.06,76.00 241.57,76.00 242.74,76.00 243.91,76.00 245.07,76.00 248.58,76.00 252.08,76.00 253.25,76.00 254.42,76.00 257.93,76.00 259.09,76.00 260.26,76.00 261.43,76.00 263.77,76.00 264.94,76.00 268.44,76.00 271.95,76.00 274.28,76.00 275.45,76.00 276.62,76.00 277.79,76.00 281.29,76.00 284.80,76.00 288.30,76.00 291.81,76.00 294.14,76.00 297.65,76.00 301.15,76.00 304.66,76.00 307.00,76.00 308.16,76.00 309.33,76.00 310.50,76.00 311.67,76.00 312.84,76.00 314.01,76.00 315.18,76.00 316.34,76.00 317.51,76.00 319.85,76.00 740.45,76.00"/>
<line x1="88" y1="70" x2="110" y2="70" stroke="#2ca02c" stroke-width="2.4"/>
<text x="116" y="74" font-family="Arial, sans-serif" font-size="12">[GND Clamp]</text>
<line x1="88" y1="88" x2="110" y2="88" stroke="#9467bd" stroke-width="2.4"/>
<text x="116" y="92" font-family="Arial, sans-serif" font-size="12">[POWER Clamp]</text>
<text x="425.00" y="444.00" text-anchor="middle" font-family="Arial, sans-serif" font-size="12">Table voltage (V)</text>
<text transform="translate(18 226.00) rotate(-90)" text-anchor="middle" font-family="Arial, sans-serif" font-size="12">Current (A)</text>
<text x="420" y="42" font-family="Arial, sans-serif" font-size="11" fill="#555">solid=typ, dashed=min/max; dashed vertical=required sweep boundary (5.3.4/5.3.5)</text>
</svg>