<svg xmlns="http://www.w3.org/2000/svg" width="800" height="560" viewBox="0 0 800 560">
<rect width="100%" height="100%" fill="#ffffff"/>
<text x="78" y="25" font-family="Arial, sans-serif" font-size="16" font-weight="700">E34_GPIO_COMBO_1V1 I-V Clamp Sweep Range</text>
<rect x="78" y="52" width="694" height="348" fill="#fbfbfb" stroke="#c8c8c8"/>
<line x1="78.00" y1="52" x2="78.00" y2="400" stroke="#ececec"/>
<text x="78.00" y="422" text-anchor="middle" font-family="Arial, sans-serif" font-size="11">-1.3</text>
<line x1="216.80" y1="52" x2="216.80" y2="400" stroke="#ececec"/>
<text x="216.80" y="422" text-anchor="middle" font-family="Arial, sans-serif" font-size="11">-0.539</text>
<line x1="355.60" y1="52" x2="355.60" y2="400" stroke="#ececec"/>
<text x="355.60" y="422" text-anchor="middle" font-family="Arial, sans-serif" font-size="11">0.187</text>
<line x1="494.40" y1="52" x2="494.40" y2="400" stroke="#ececec"/>
<text x="494.40" y="422" text-anchor="middle" font-family="Arial, sans-serif" font-size="11">0.913</text>
<line x1="633.20" y1="52" x2="633.20" y2="400" stroke="#ececec"/>
<text x="633.20" y="422" text-anchor="middle" font-family="Arial, sans-serif" font-size="11">1.6</text>
<line x1="772.00" y1="52" x2="772.00" y2="400" stroke="#ececec"/>
<text x="772.00" y="422" text-anchor="middle" font-family="Arial, sans-serif" font-size="11">2.4</text>
<line x1="78" y1="400.00" x2="772" y2="400.00" stroke="#ececec"/>
<text x="70" y="404.00" text-anchor="end" font-family="Arial, sans-serif" font-size="11">-0.649</text>
<line x1="78" y1="330.40" x2="772" y2="330.40" stroke="#ececec"/>
<text x="70" y="334.40" text-anchor="end" font-family="Arial, sans-serif" font-size="11">-0.509</text>
<line x1="78" y1="260.80" x2="772" y2="260.80" stroke="#ececec"/>
<text x="70" y="264.80" text-anchor="end" font-family="Arial, sans-serif" font-size="11">-0.368</text>
<line x1="78" y1="191.20" x2="772" y2="191.20" stroke="#ececec"/>
<text x="70" y="195.20" text-anchor="end" font-family="Arial, sans-serif" font-size="11">-0.228</text>
<line x1="78" y1="121.60" x2="772" y2="121.60" stroke="#ececec"/>
<text x="70" y="125.60" text-anchor="end" font-family="Arial, sans-serif" font-size="11">-0.0878</text>
<line x1="78" y1="52.00" x2="772" y2="52.00" stroke="#ececec"/>
<text x="70" y="56.00" text-anchor="end" font-family="Arial, sans-serif" font-size="11">0.0524</text>
<line x1="319.85" y1="52" x2="319.85" y2="400" stroke="#777" stroke-dasharray="4 4"/>
<line x1="78" y1="78.00" x2="772" y2="78.00" stroke="#777" stroke-dasharray="4 4"/>
<line x1="109.55" y1="52" x2="109.55" y2="400" stroke="#555" stroke-dasharray="2 4"/>
<text x="113.55" y="66" font-family="Arial, sans-serif" font-size="11" fill="#555">-Vcc</text>
<line x1="530.15" y1="52" x2="530.15" y2="400" stroke="#555" stroke-dasharray="2 4"/>
<text x="534.15" y="66" font-family="Arial, sans-serif" font-size="11" fill="#555">Vcc</text>
<line x1="740.45" y1="52" x2="740.45" y2="400" stroke="#555" stroke-dasharray="2 4"/>
<text x="744.45" y="66" font-family="Arial, sans-serif" font-size="11" fill="#555">2Vcc</text>
<polyline fill="none" stroke="#2ca02c" stroke-width="1.2" opacity="0.55" stroke-dasharray="4 4" points="109.55,376.00 119.10,333.81 128.66,291.62 140.13,240.99 149.69,198.80 155.43,173.49 157.34,165.05 159.25,156.61 161.17,148.17 163.08,139.73 164.99,131.30 166.90,123.57 168.81,116.69 170.72,110.59 172.64,105.23 174.55,100.55 176.46,96.51 178.37,93.05 180.28,90.13 182.20,87.70 184.11,85.69 186.02,84.06 187.93,82.75 189.84,81.71 191.75,80.89 193.67,80.25 195.58,79.75 197.49,79.37 199.40,79.08 201.31,78.85 203.23,78.68 205.14,78.54 207.05,78.44 208.96,78.36 210.87,78.30 212.79,78.25 214.70,78.21 216.61,78.18 218.52,78.16 220.43,78.14 222.34,78.12 228.08,78.08 237.64,78.04 247.20,78.02 258.67,78.01 268.23,78.01 277.79,78.00 287.35,78.00 296.91,78.00 306.47,78.00 317.94,78.00 319.85,78.00 327.50,78.00 329.41,78.00 337.06,78.00 346.61,78.00 352.35,78.00 356.17,78.00 365.73,78.00 377.20,78.00 386.76,78.00 396.32,78.00 405.88,78.00 415.44,78.00 426.91,78.00 436.47,78.00 446.03,78.00 455.59,78.00 465.15,78.00 474.71,78.00 486.18,78.00 495.74,78.00 503.39,78.00 505.30,78.00 514.86,78.00 516.77,78.00 524.42,78.00 526.33,78.00 533.98,78.00 545.45,78.00 555.01,78.00 564.56,78.00 574.12,78.00 583.68,78.00 593.24,78.00 604.71,78.00 614.27,78.00 623.83,78.00 633.39,78.00 642.95,78.00 652.51,78.00 663.98,78.00 673.54,78.00 683.10,78.00 692.66,78.00 702.22,78.00 711.78,78.00 723.25,78.00 732.81,78.00 740.45,78.00"/>
<polyline fill="none" stroke="#2ca02c" stroke-width="1.2" opacity="0.55" stroke-dasharray="4 4" points="109.55,306.00 119.10,263.81 128.66,221.62 140.13,170.99 149.69,128.80 155.43,103.49 157.34,95.05 159.25,89.10 161.17,85.25 163.08,82.80 164.99,81.26 166.90,80.28 168.81,79.66 170.72,79.26 172.64,79.01 174.55,78.83 176.46,78.71 178.37,78.63 180.28,78.56 182.20,78.51 184.11,78.47 186.02,78.43 187.93,78.40 189.84,78.37 191.75,78.34 193.67,78.31 195.58,78.29 197.49,78.27 199.40,78.24 201.31,78.22 203.23,78.20 205.14,78.18 207.05,78.17 208.96,78.15 210.87,78.13 212.79,78.12 214.70,78.11 216.61,78.09 218.52,78.08 220.43,78.07 222.34,78.06 228.08,78.04 237.64,78.02 247.20,78.01 258.67,78.00 268.23,78.00 277.79,78.00 287.35,78.00 296.91,78.00 306.47,78.00 317.94,78.00 319.85,78.00 327.50,78.00 329.41,78.00 337.06,78.00 346.61,78.00 352.35,78.00 356.17,78.00 365.73,78.00 377.20,78.00 386.76,78.00 396.32,78.00 405.88,78.00 415.44,78.00 426.91,78.00 436.47,78.00 446.03,78.00 455.59,78.00 465.15,78.00 474.71,78.00 486.18,78.00 495.74,78.00 503.39,78.00 505.30,78.00 514.86,78.00 516.77,78.00 524.42,78.00 526.33,78.00 533.98,78.00 545.45,78.00 555.01,78.00 564.56,78.00 574.12,78.00 583.68,78.00 593.24,78.00 604.71,78.00 614.27,78.00 623.83,78.00 633.39,78.00 642.95,78.00 652.51,78.00 663.98,78.00 673.54,78.00 683.10,78.00 692.66,78.00 702.22,78.00 711.78,78.00 723.25,78.00 732.81,78.00 740.45,78.00"/>
<polyline fill="none" stroke="#2ca02c" stroke-width="2.0" opacity="1.0" points="109.55,306.14 119.10,263.95 128.66,221.76 140.13,171.13 149.69,128.94 155.43,103.63 157.34,96.36 159.25,91.07 161.17,87.28 163.08,84.59 164.99,82.71 166.90,81.40 168.81,80.48 170.72,79.85 172.64,79.41 174.55,79.09 176.46,78.88 178.37,78.72 180.28,78.60 182.20,78.52 184.11,78.45 186.02,78.40 187.93,78.36 189.84,78.33 191.75,78.30 193.67,78.28 195.58,78.25 197.49,78.23 199.40,78.21 201.31,78.20 203.23,78.18 205.14,78.16 207.05,78.15 208.96,78.14 210.87,78.12 212.79,78.11 214.70,78.10 216.61,78.09 218.52,78.08 220.43,78.07 222.34,78.06 228.08,78.04 237.64,78.02 247.20,78.01 258.67,78.00 268.23,78.00 277.79,78.00 287.35,78.00 296.91,78.00 306.47,78.00 317.94,78.00 319.85,78.00 327.50,78.00 329.41,78.00 337.06,78.00 346.61,78.00 352.35,78.00 356.17,78.00 365.73,78.00 377.20,78.00 386.76,78.00 396.32,78.00 405.88,78.00 415.44,78.00 426.91,78.00 436.47,78.00 446.03,78.00 455.59,78.00 465.15,78.00 474.71,78.00 486.18,78.00 495.74,78.00 503.39,78.00 505.30,78.00 514.86,78.00 516.77,78.00 524.42,78.00 526.33,78.00 533.98,78.00 545.45,78.00 555.01,78.00 564.56,78.00 574.12,78.00 583.68,78.00 593.24,78.00 604.71,78.00 614.27,78.00 623.83,78.00 633.39,78.00 642.95,78.00 652.51,78.00 663.98,78.00 673.54,78.00 683.10,78.00 692.66,78.00 702.22,78.00 711.78,78.00 723.25,78.00 732.81,78.00 740.45,78.00"/>
<polyline fill="none" stroke="#9467bd" stroke-width="1.2" opacity="0.55" stroke-dasharray="4 4" points="109.55,77.64 111.46,77.64 113.37,77.65 115.28,77.65 117.19,77.66 119.10,77.67 121.02,77.67 122.93,77.68 124.84,77.68 126.75,77.69 128.66,77.69 130.58,77.70 132.49,77.71 134.40,77.71 136.31,77.72 138.22,77.72 140.13,77.73 142.05,77.73 143.96,77.74 145.87,77.74 147.78,77.75 149.69,77.75 151.61,77.76 153.52,77.77 155.43,77.77 157.34,77.78 159.25,77.78 161.17,77.79 163.08,77.79 164.99,77.79 166.90,77.80 168.81,77.80 170.72,77.81 172.64,77.81 174.55,77.82 176.46,77.82 178.37,77.83 180.28,77.83 182.20,77.84 184.11,77.84 186.02,77.85 187.93,77.85 189.84,77.86 191.75,77.86 193.67,77.87 195.58,77.87 197.49,77.88 199.40,77.88 201.31,77.89 203.23,77.89 205.14,77.90 207.05,77.90 208.96,77.91 210.87,77.91 212.79,77.91 214.70,77.92 216.61,77.92 218.52,77.93 220.43,77.93 222.34,77.94 224.26,77.94 226.17,77.95 228.08,77.95 229.99,77.95 231.90,77.96 233.82,77.96 235.73,77.96 237.64,77.97 239.55,77.97 241.46,77.97 243.37,77.98 245.29,77.98 247.20,77.98 249.11,77.98 251.02,77.99 252.93,77.99 254.85,77.99 256.76,77.99 258.67,77.99 260.58,78.00 262.49,78.00 266.32,78.00 268.23,78.00 272.05,78.00 275.88,78.00 277.79,78.00 281.61,78.00 285.44,78.00 289.26,78.00 291.17,78.00 294.99,78.00 298.82,78.00 302.64,78.00 304.55,78.00 308.38,78.00 312.20,78.00 316.02,78.00 317.94,78.00 319.85,78.00 740.45,78.00"/>
<polyline fill="none" stroke="#9467bd" stroke-width="1.2" opacity="0.55" stroke-dasharray="4 4" points="109.55,76.00 111.46,76.07 113.37,76.14 115.28,76.21 117.19,76.28 119.10,76.34 121.02,76.40 122.93,76.46 124.84,76.51 126.75,76.56 128.66,76.61 130.58,76.65 132.49,76.70 134.40,76.73 136.31,76.77 138.22,76.81 140.13,76.85 142.05,76.88 143.96,76.91 145.87,76.95 147.78,76.98 149.69,77.01 151.61,77.05 153.52,77.08 155.43,77.11 157.34,77.14 159.25,77.17 161.17,77.20 163.08,77.23 164.99,77.26 166.90,77.29 168.81,77.32 170.72,77.35 172.64,77.38 174.55,77.41 176.46,77.44 178.37,77.46 180.28,77.49 182.20,77.52 184.11,77.54 186.02,77.57 187.93,77.59 189.84,77.62 191.75,77.64 193.67,77.67 195.58,77.69 197.49,77.71 199.40,77.73 201.31,77.75 203.23,77.77 205.14,77.79 207.05,77.81 208.96,77.83 210.87,77.85 212.79,77.86 214.70,77.88 216.61,77.89 218.52,77.90 220.43,77.92 222.34,77.93 224.26,77.94 226.17,77.95 228.08,77.95 229.99,77.96 231.90,77.97 233.82,77.97 235.73,77.98 237.64,77.98 239.55,77.99 241.46,77.99 243.37,77.99 245.29,78.00 247.20,78.00 249.11,78.00 251.02,78.00 252.93,78.00 254.85,78.00 256.76,78.00 258.67,78.00 260.58,78.00 262.49,78.00 266.32,78.00 268.23,78.00 272.05,78.00 275.88,78.00 277.79,78.00 281.61,78.00 285.44,78.00 289.26,78.00 291.17,78.00 294.99,78.00 298.82,78.00 302.64,78.00 304.55,78.00 308.38,78.00 312.20,78.00 316.02,78.00 317.94,78.00 319.85,78.00 740.45,78.00"/>
<polyline fill="none" stroke="#9467bd" stroke-width="2.0" opacity="1.0" points="109.55,77.09 111.46,77.11 113.37,77.12 115.28,77.14 117.19,77.16 119.10,77.18 121.02,77.19 122.93,77.21 124.84,77.23 126.75,77.24 128.66,77.26 130.58,77.28 132.49,77.29 134.40,77.31 136.31,77.32 138.22,77.34 140.13,77.36 142.05,77.37 143.96,77.39 145.87,77.40 147.78,77.42 149.69,77.44 151.61,77.45 153.52,77.47 155.43,77.48 157.34,77.50 159.25,77.51 161.17,77.53 163.08,77.54 164.99,77.56 166.90,77.57 168.81,77.59 170.72,77.60 172.64,77.62 174.55,77.63 176.46,77.65 178.37,77.66 180.28,77.68 182.20,77.69 184.11,77.70 186.02,77.72 187.93,77.73 189.84,77.74 191.75,77.76 193.67,77.77 195.58,77.78 197.49,77.80 199.40,77.81 201.31,77.82 203.23,77.83 205.14,77.84 207.05,77.85 208.96,77.87 210.87,77.88 212.79,77.89 214.70,77.90 216.61,77.90 218.52,77.91 220.43,77.92 222.34,77.93 224.26,77.94 226.17,77.95 228.08,77.95 229.99,77.96 231.90,77.96 233.82,77.97 235.73,77.97 237.64,77.98 239.55,77.98 241.46,77.99 243.37,77.99 245.29,77.99 247.20,77.99 249.11,78.00 251.02,78.00 252.93,78.00 254.85,78.00 256.76,78.00 258.67,78.00 260.58,78.00 262.49,78.00 266.32,78.00 268.23,78.00 272.05,78.00 275.88,78.00 277.79,78.00 281.61,78.00 285.44,78.00 289.26,78.00 291.17,78.00 294.99,78.00 298.82,78.00 302.64,78.00 304.55,78.00 308.38,78.00 312.20,78.00 316.02,78.00 317.94,78.00 319.85,78.00 740.45,78.00"/>
<line x1="88" y1="70" x2="110" y2="70" stroke="#2ca02c" stroke-width="2.4"/>
<text x="116" y="74" font-family="Arial, sans-serif" font-size="12">[GND Clamp]</text>
<line x1="88" y1="88" x2="110" y2="88" stroke="#9467bd" stroke-width="2.4"/>
<text x="116" y="92" font-family="Arial, sans-serif" font-size="12">[POWER Clamp]</text>
<text x="425.00" y="444.00" text-anchor="middle" font-family="Arial, sans-serif" font-size="12">Table voltage (V)</text>
<text transform="translate(18 226.00) rotate(-90)" text-anchor="middle" font-family="Arial, sans-serif" font-size="12">Current (A)</text>
<text x="420" y="42" font-family="Arial, sans-serif" font-size="11" fill="#555">solid=typ, dashed=min/max; dashed vertical=required sweep boundary (5.3.4/5.3.5)</text>
</svg>