<svg xmlns="http://www.w3.org/2000/svg" width="800" height="560" viewBox="0 0 800 560">
<rect width="100%" height="100%" fill="#ffffff"/>
<text x="78" y="25" font-family="Arial, sans-serif" font-size="16" font-weight="700">E34_GPIO_I2CSCLIN_3V3_10_ISOSW I-V Clamp Sweep Range</text>
<rect x="78" y="52" width="694" height="348" fill="#fbfbfb" stroke="#c8c8c8"/>
<line x1="78.00" y1="52" x2="78.00" y2="400" stroke="#ececec"/>
<text x="78.00" y="422" text-anchor="middle" font-family="Arial, sans-serif" font-size="11">-3.8</text>
<line x1="216.80" y1="52" x2="216.80" y2="400" stroke="#ececec"/>
<text x="216.80" y="422" text-anchor="middle" font-family="Arial, sans-serif" font-size="11">-1.6</text>
<line x1="355.60" y1="52" x2="355.60" y2="400" stroke="#ececec"/>
<text x="355.60" y="422" text-anchor="middle" font-family="Arial, sans-serif" font-size="11">0.561</text>
<line x1="494.40" y1="52" x2="494.40" y2="400" stroke="#ececec"/>
<text x="494.40" y="422" text-anchor="middle" font-family="Arial, sans-serif" font-size="11">2.7</text>
<line x1="633.20" y1="52" x2="633.20" y2="400" stroke="#ececec"/>
<text x="633.20" y="422" text-anchor="middle" font-family="Arial, sans-serif" font-size="11">4.9</text>
<line x1="772.00" y1="52" x2="772.00" y2="400" stroke="#ececec"/>
<text x="772.00" y="422" text-anchor="middle" font-family="Arial, sans-serif" font-size="11">7.1</text>
<line x1="78" y1="400.00" x2="772" y2="400.00" stroke="#ececec"/>
<text x="70" y="404.00" text-anchor="end" font-family="Arial, sans-serif" font-size="11">-4.9</text>
<line x1="78" y1="330.40" x2="772" y2="330.40" stroke="#ececec"/>
<text x="70" y="334.40" text-anchor="end" font-family="Arial, sans-serif" font-size="11">-3.3</text>
<line x1="78" y1="260.80" x2="772" y2="260.80" stroke="#ececec"/>
<text x="70" y="264.80" text-anchor="end" font-family="Arial, sans-serif" font-size="11">-1.7</text>
<line x1="78" y1="191.20" x2="772" y2="191.20" stroke="#ececec"/>
<text x="70" y="195.20" text-anchor="end" font-family="Arial, sans-serif" font-size="11">-0.121</text>
<line x1="78" y1="121.60" x2="772" y2="121.60" stroke="#ececec"/>
<text x="70" y="125.60" text-anchor="end" font-family="Arial, sans-serif" font-size="11">1.5</text>
<line x1="78" y1="52.00" x2="772" y2="52.00" stroke="#ececec"/>
<text x="70" y="56.00" text-anchor="end" font-family="Arial, sans-serif" font-size="11">3.1</text>
<line x1="319.85" y1="52" x2="319.85" y2="400" stroke="#777" stroke-dasharray="4 4"/>
<line x1="78" y1="185.91" x2="772" y2="185.91" stroke="#777" stroke-dasharray="4 4"/>
<line x1="109.55" y1="52" x2="109.55" y2="400" stroke="#555" stroke-dasharray="2 4"/>
<text x="113.55" y="66" font-family="Arial, sans-serif" font-size="11" fill="#555">-Vcc</text>
<line x1="530.15" y1="52" x2="530.15" y2="400" stroke="#555" stroke-dasharray="2 4"/>
<text x="534.15" y="66" font-family="Arial, sans-serif" font-size="11" fill="#555">Vcc</text>
<line x1="740.45" y1="52" x2="740.45" y2="400" stroke="#555" stroke-dasharray="2 4"/>
<text x="744.45" y="66" font-family="Arial, sans-serif" font-size="11" fill="#555">2Vcc</text>
<polyline fill="none" stroke="#2ca02c" stroke-width="1.2" opacity="0.55" stroke-dasharray="4 4" points="109.55,376.00 119.10,364.82 129.30,352.90 138.86,341.72 149.06,329.80 158.62,318.62 168.81,306.70 178.37,295.52 188.57,283.60 198.13,272.43 208.32,260.50 217.88,249.33 228.08,237.40 237.64,226.23 247.84,214.30 257.39,203.13 258.03,202.38 258.67,201.64 259.31,200.89 259.94,200.15 260.58,199.40 261.22,198.66 261.86,197.91 262.49,197.17 263.13,196.42 263.77,195.68 264.40,194.93 265.04,194.19 265.68,193.44 266.32,192.69 266.95,191.95 267.59,191.20 268.23,190.51 268.87,189.89 269.50,189.32 270.14,188.80 270.78,188.35 271.42,187.95 272.05,187.60 272.69,187.30 273.33,187.04 273.96,186.83 274.60,186.65 275.24,186.51 275.88,186.39 277.15,186.22 287.35,185.94 296.91,185.92 307.10,185.91 316.66,185.91 319.85,185.91 326.86,185.91 336.42,185.91 346.61,185.91 356.17,185.91 366.37,185.91 375.93,185.91 386.13,185.91 395.69,185.91 405.88,185.91 407.16,185.91 415.44,185.91 421.81,185.91 423.73,185.91 425.64,185.91 426.27,185.91 428.19,185.91 435.20,185.91 444.76,185.91 450.49,185.91 454.95,185.91 464.51,185.91 474.71,185.91 484.27,185.91 494.46,185.91 504.02,185.91 514.22,185.91 523.78,185.91 533.98,185.91 543.53,185.91 553.73,185.91 563.29,185.91 573.49,185.91 583.05,185.91 593.24,185.91 602.80,185.91 613.00,185.91 622.56,185.91 632.75,185.91 642.31,185.91 652.51,185.91 662.07,185.91 672.27,185.91 681.82,185.91 692.02,185.91 701.58,185.91 711.78,185.91 721.34,185.91 731.53,185.91 740.45,185.91"/>
<polyline fill="none" stroke="#2ca02c" stroke-width="1.2" opacity="0.55" stroke-dasharray="4 4" points="109.55,362.18 119.10,351.00 129.30,339.08 138.86,327.90 149.06,315.98 158.62,304.80 168.81,292.88 178.37,281.70 188.57,269.78 198.13,258.60 208.32,246.68 217.88,235.51 228.08,223.58 237.64,212.41 247.84,200.48 257.39,189.31 258.03,188.56 258.67,187.89 259.31,187.37 259.94,186.98 260.58,186.70 261.22,186.51 261.86,186.38 262.49,186.30 263.13,186.24 263.77,186.20 264.40,186.17 265.04,186.15 265.68,186.14 266.32,186.12 266.95,186.11 267.59,186.10 268.23,186.09 268.87,186.08 269.50,186.08 270.14,186.07 270.78,186.06 271.42,186.05 272.05,186.05 272.69,186.04 273.33,186.03 273.96,186.02 274.60,186.02 275.24,186.01 275.88,186.01 277.15,185.99 287.35,185.93 296.91,185.91 307.10,185.91 316.66,185.91 319.85,185.91 326.86,185.91 336.42,185.91 346.61,185.91 356.17,185.91 366.37,185.91 375.93,185.91 386.13,185.91 395.69,185.91 405.88,185.91 407.16,185.91 415.44,185.91 421.81,185.91 423.73,185.91 425.64,185.91 426.27,185.91 428.19,185.91 435.20,185.91 444.76,185.91 450.49,185.91 454.95,185.91 464.51,185.91 474.71,185.91 484.27,185.91 494.46,185.91 504.02,185.91 514.22,185.91 523.78,185.91 533.98,185.91 543.53,185.91 553.73,185.91 563.29,185.91 573.49,185.91 583.05,185.91 593.24,185.91 602.80,185.91 613.00,185.91 622.56,185.91 632.75,185.91 642.31,185.91 652.51,185.91 662.07,185.91 672.27,185.91 681.82,185.91 692.02,185.91 701.58,185.91 711.78,185.91 721.34,185.91 731.53,185.91 740.45,185.91"/>
<polyline fill="none" stroke="#2ca02c" stroke-width="2.0" opacity="1.0" points="109.55,367.52 119.10,356.34 129.30,344.42 138.86,333.24 149.06,321.32 158.62,310.14 168.81,298.22 178.37,287.04 188.57,275.12 198.13,263.94 208.32,252.02 217.88,240.84 228.08,228.92 237.64,217.74 247.84,205.82 257.39,194.64 258.03,193.90 258.67,193.15 259.31,192.41 259.94,191.66 260.58,190.92 261.22,190.17 261.86,189.43 262.49,188.74 263.13,188.16 263.77,187.68 264.40,187.28 265.04,186.96 265.68,186.72 266.32,186.53 266.95,186.39 267.59,186.29 268.23,186.22 268.87,186.16 269.50,186.12 270.14,186.09 270.78,186.07 271.42,186.06 272.05,186.04 272.69,186.03 273.33,186.02 273.96,186.02 274.60,186.01 275.24,186.00 275.88,186.00 277.15,185.99 287.35,185.93 296.91,185.91 307.10,185.91 316.66,185.91 319.85,185.91 326.86,185.91 336.42,185.91 346.61,185.91 356.17,185.91 366.37,185.91 375.93,185.91 386.13,185.91 395.69,185.91 405.88,185.91 407.16,185.91 415.44,185.91 421.81,185.91 423.73,185.91 425.64,185.91 426.27,185.91 428.19,185.91 435.20,185.91 444.76,185.91 450.49,185.91 454.95,185.91 464.51,185.91 474.71,185.91 484.27,185.91 494.46,185.91 504.02,185.91 514.22,185.91 523.78,185.91 533.98,185.91 543.53,185.91 553.73,185.91 563.29,185.91 573.49,185.91 583.05,185.91 593.24,185.91 602.80,185.91 613.00,185.91 622.56,185.91 632.75,185.91 642.31,185.91 652.51,185.91 662.07,185.91 672.27,185.91 681.82,185.91 692.02,185.91 701.58,185.91 711.78,185.91 721.34,185.91 731.53,185.91 740.45,185.91"/>
<polyline fill="none" stroke="#9467bd" stroke-width="1.2" opacity="0.55" stroke-dasharray="4 4" points="109.55,78.20 112.73,81.93 115.92,85.65 119.74,90.12 122.93,93.85 126.11,97.57 129.30,101.30 132.49,105.03 135.67,108.75 139.50,113.22 141.41,115.46 142.05,116.20 142.68,116.95 145.87,120.67 149.06,124.40 152.24,128.12 155.43,131.85 159.25,136.32 162.44,140.05 165.63,143.77 168.81,147.50 172.00,151.22 175.19,154.95 179.01,159.42 182.20,163.15 185.38,166.87 188.57,170.60 191.75,174.32 194.94,178.05 197.49,181.03 198.13,181.68 198.76,182.24 199.40,182.73 200.04,183.15 200.68,183.51 201.31,183.83 201.95,184.10 202.59,184.33 203.23,184.54 203.86,184.71 204.50,184.87 205.14,185.00 205.78,185.11 206.41,185.21 207.05,185.30 207.69,185.37 208.32,185.43 208.96,185.49 209.60,185.54 210.24,185.58 210.87,185.62 211.51,185.65 212.15,185.67 212.79,185.70 213.42,185.72 214.06,185.74 214.70,185.75 215.33,185.77 215.97,185.78 216.61,185.79 217.25,185.80 217.88,185.81 218.52,185.81 219.16,185.82 219.80,185.82 220.43,185.83 221.07,185.83 221.71,185.84 222.34,185.84 224.89,185.85 228.08,185.86 231.27,185.87 235.09,185.87 238.28,185.88 241.46,185.88 244.65,185.88 247.84,185.89 251.02,185.89 254.85,185.90 258.03,185.90 261.22,185.90 264.40,185.90 267.59,185.91 270.78,185.91 274.60,185.91 277.79,185.91 280.97,185.91 284.16,185.91 287.35,185.91 290.53,185.91 294.36,185.91 297.54,185.91 300.73,185.91 303.92,185.91 307.10,185.91 310.29,185.91 314.11,185.91 317.30,185.91 319.85,185.91 740.45,185.91"/>
<polyline fill="none" stroke="#9467bd" stroke-width="1.2" opacity="0.55" stroke-dasharray="4 4" points="109.55,76.00 112.73,79.73 115.92,83.45 119.74,87.92 122.93,91.65 126.11,95.37 129.30,99.10 132.49,102.83 135.67,106.55 139.50,111.02 141.41,113.26 142.05,114.00 142.68,114.75 145.87,118.47 149.06,122.20 152.24,125.92 155.43,129.65 159.25,134.12 162.44,137.85 165.63,141.57 168.81,145.30 172.00,149.02 175.19,152.75 179.01,157.22 182.20,160.95 185.38,164.67 188.57,168.40 191.75,172.12 194.94,175.85 197.49,178.83 198.13,179.57 198.76,180.32 199.40,181.07 200.04,181.81 200.68,182.56 201.31,183.25 201.95,183.79 202.59,184.22 203.23,184.55 203.86,184.81 204.50,185.01 205.14,185.17 205.78,185.29 206.41,185.39 207.05,185.46 207.69,185.52 208.32,185.57 208.96,185.61 209.60,185.64 210.24,185.66 210.87,185.68 211.51,185.70 212.15,185.71 212.79,185.72 213.42,185.73 214.06,185.74 214.70,185.74 215.33,185.75 215.97,185.75 216.61,185.76 217.25,185.76 217.88,185.76 218.52,185.76 219.16,185.77 219.80,185.77 220.43,185.77 221.07,185.77 221.71,185.78 222.34,185.78 224.89,185.79 228.08,185.80 231.27,185.81 235.09,185.82 238.28,185.83 241.46,185.84 244.65,185.85 247.84,185.86 251.02,185.87 254.85,185.88 258.03,185.89 261.22,185.90 264.40,185.90 267.59,185.91 270.78,185.91 274.60,185.91 277.79,185.91 280.97,185.91 284.16,185.91 287.35,185.91 290.53,185.91 294.36,185.91 297.54,185.91 300.73,185.91 303.92,185.91 307.10,185.91 310.29,185.91 314.11,185.91 317.30,185.91 319.85,185.91 740.45,185.91"/>
<polyline fill="none" stroke="#9467bd" stroke-width="2.0" opacity="1.0" points="109.55,77.00 112.73,80.73 115.92,84.45 119.74,88.92 122.93,92.65 126.11,96.38 129.30,100.10 132.49,103.83 135.67,107.55 139.50,112.02 141.41,114.26 142.05,115.00 142.68,115.75 145.87,119.48 149.06,123.20 152.24,126.93 155.43,130.65 159.25,135.12 162.44,138.85 165.63,142.58 168.81,146.30 172.00,150.03 175.19,153.75 179.01,158.22 182.20,161.95 185.38,165.67 188.57,169.40 191.75,173.13 194.94,176.85 197.49,179.83 198.13,180.58 198.76,181.32 199.40,182.07 200.04,182.72 200.68,183.26 201.31,183.71 201.95,184.07 202.59,184.38 203.23,184.63 203.86,184.83 204.50,185.00 205.14,185.14 205.78,185.25 206.41,185.35 207.05,185.43 207.69,185.49 208.32,185.55 208.96,185.59 209.60,185.63 210.24,185.66 210.87,185.68 211.51,185.71 212.15,185.72 212.79,185.74 213.42,185.75 214.06,185.76 214.70,185.77 215.33,185.78 215.97,185.79 216.61,185.79 217.25,185.80 217.88,185.80 218.52,185.80 219.16,185.81 219.80,185.81 220.43,185.81 221.07,185.82 221.71,185.82 222.34,185.82 224.89,185.83 228.08,185.84 231.27,185.84 235.09,185.85 238.28,185.86 241.46,185.87 244.65,185.87 247.84,185.88 251.02,185.88 254.85,185.89 258.03,185.90 261.22,185.90 264.40,185.90 267.59,185.91 270.78,185.91 274.60,185.91 277.79,185.91 280.97,185.91 284.16,185.91 287.35,185.91 290.53,185.91 294.36,185.91 297.54,185.91 300.73,185.91 303.92,185.91 307.10,185.91 310.29,185.91 314.11,185.91 317.30,185.91 319.85,185.91 740.45,185.91"/>
<line x1="88" y1="70" x2="110" y2="70" stroke="#2ca02c" stroke-width="2.4"/>
<text x="116" y="74" font-family="Arial, sans-serif" font-size="12">[GND Clamp]</text>
<line x1="88" y1="88" x2="110" y2="88" stroke="#9467bd" stroke-width="2.4"/>
<text x="116" y="92" font-family="Arial, sans-serif" font-size="12">[POWER Clamp]</text>
<text x="425.00" y="444.00" text-anchor="middle" font-family="Arial, sans-serif" font-size="12">Table voltage (V)</text>
<text transform="translate(18 226.00) rotate(-90)" text-anchor="middle" font-family="Arial, sans-serif" font-size="12">Current (A)</text>
<text x="420" y="42" font-family="Arial, sans-serif" font-size="11" fill="#555">solid=typ, dashed=min/max; dashed vertical=required sweep boundary (5.3.4/5.3.5)</text>
</svg>