<svg xmlns="http://www.w3.org/2000/svg" width="800" height="520" viewBox="0 0 800 520">
<rect width="100%" height="100%" fill="#ffffff"/>
<text x="78" y="25" font-family="Arial, sans-serif" font-size="16" font-weight="700">E34_GPIO_COMBO_1V8 I-V Clamp Detail</text>
<rect x="78" y="54" width="690" height="306" fill="#fbfbfb" stroke="#c8c8c8"/>
<line x1="78.00" y1="54" x2="78.00" y2="360" stroke="#ececec"/>
<text x="78.00" y="382" text-anchor="middle" font-family="Arial, sans-serif" font-size="11">0</text>
<line x1="216.00" y1="54" x2="216.00" y2="360" stroke="#ececec"/>
<text x="216.00" y="382" text-anchor="middle" font-family="Arial, sans-serif" font-size="11">0.36</text>
<line x1="354.00" y1="54" x2="354.00" y2="360" stroke="#ececec"/>
<text x="354.00" y="382" text-anchor="middle" font-family="Arial, sans-serif" font-size="11">0.72</text>
<line x1="492.00" y1="54" x2="492.00" y2="360" stroke="#ececec"/>
<text x="492.00" y="382" text-anchor="middle" font-family="Arial, sans-serif" font-size="11">1.1</text>
<line x1="630.00" y1="54" x2="630.00" y2="360" stroke="#ececec"/>
<text x="630.00" y="382" text-anchor="middle" font-family="Arial, sans-serif" font-size="11">1.4</text>
<line x1="768.00" y1="54" x2="768.00" y2="360" stroke="#ececec"/>
<text x="768.00" y="382" text-anchor="middle" font-family="Arial, sans-serif" font-size="11">1.8</text>
<line x1="78" y1="360.00" x2="768" y2="360.00" stroke="#ececec"/>
<text x="70" y="364.00" text-anchor="end" font-family="Arial, sans-serif" font-size="11">-2.5e-08</text>
<line x1="78" y1="298.80" x2="768" y2="298.80" stroke="#ececec"/>
<text x="70" y="302.80" text-anchor="end" font-family="Arial, sans-serif" font-size="11">-8.7e-09</text>
<line x1="78" y1="237.60" x2="768" y2="237.60" stroke="#ececec"/>
<text x="70" y="241.60" text-anchor="end" font-family="Arial, sans-serif" font-size="11">7.4e-09</text>
<line x1="78" y1="176.40" x2="768" y2="176.40" stroke="#ececec"/>
<text x="70" y="180.40" text-anchor="end" font-family="Arial, sans-serif" font-size="11">2.4e-08</text>
<line x1="78" y1="115.20" x2="768" y2="115.20" stroke="#ececec"/>
<text x="70" y="119.20" text-anchor="end" font-family="Arial, sans-serif" font-size="11">4.0e-08</text>
<line x1="78" y1="54.00" x2="768" y2="54.00" stroke="#ececec"/>
<text x="70" y="58.00" text-anchor="end" font-family="Arial, sans-serif" font-size="11">5.6e-08</text>
<line x1="78.00" y1="54" x2="78.00" y2="360" stroke="#777" stroke-dasharray="4 4"/>
<line x1="78" y1="265.69" x2="768" y2="265.69" stroke="#777" stroke-dasharray="4 4"/>
<line x1="78.00" y1="54" x2="78.00" y2="360" stroke="#555" stroke-dasharray="2 4"/>
<text x="82.00" y="68" font-family="Arial, sans-serif" font-size="11" fill="#555">0V</text>
<line x1="768.00" y1="54" x2="768.00" y2="360" stroke="#555" stroke-dasharray="2 4"/>
<text x="772.00" y="68" font-family="Arial, sans-serif" font-size="11" fill="#555">Vcc</text>
<polyline fill="none" stroke="#2ca02c" stroke-width="1.2" opacity="0.55" stroke-dasharray="4 4" points="78.00,322.91 101.00,303.49 131.67,298.15 143.17,297.38 166.17,296.12 196.83,294.56 200.67,294.37 231.33,292.86 262.00,291.37 277.33,290.63 296.50,289.70 327.17,288.22 361.67,286.55 392.33,285.06 426.83,283.36 457.50,281.83 488.17,280.28 522.67,278.48 553.33,276.83 587.83,274.89 618.50,273.03 653.00,270.03 676.00,263.14 683.67,257.80 695.17,242.94 718.17,194.99 748.83,131.05 768.00,91.09"/>
<polyline fill="none" stroke="#2ca02c" stroke-width="1.2" opacity="0.55" stroke-dasharray="4 4" points="78.00,266.91 101.00,266.86 131.67,266.81 143.17,266.79 166.17,266.75 196.83,266.70 200.67,266.70 231.33,266.65 262.00,266.60 277.33,266.58 296.50,266.55 327.17,266.50 361.67,266.45 392.33,266.41 426.83,266.35 457.50,266.31 488.17,266.26 522.67,266.21 553.33,266.17 587.83,266.12 618.50,266.07 653.00,266.02 676.00,265.99 683.67,265.98 695.17,265.96 718.17,265.93 748.83,265.88 768.00,265.86"/>
<polyline fill="none" stroke="#2ca02c" stroke-width="2.0" opacity="1.0" points="78.00,267.23 101.00,266.96 131.67,266.87 143.17,266.85 166.17,266.79 196.83,266.73 200.67,266.72 231.33,266.65 262.00,266.59 277.33,266.55 296.50,266.51 327.17,266.45 361.67,266.37 392.33,266.31 426.83,266.23 457.50,266.17 488.17,266.10 522.67,266.03 553.33,265.96 587.83,265.88 618.50,265.82 653.00,265.74 676.00,265.69 683.67,265.67 695.17,265.64 718.17,265.59 748.83,265.47 768.00,265.11"/>
<polyline fill="none" stroke="#9467bd" stroke-width="1.2" opacity="0.55" stroke-dasharray="4 4" points="78.00,265.69 768.00,265.69"/>
<polyline fill="none" stroke="#9467bd" stroke-width="1.2" opacity="0.55" stroke-dasharray="4 4" points="78.00,265.69 768.00,265.69"/>
<polyline fill="none" stroke="#9467bd" stroke-width="2.0" opacity="1.0" points="78.00,265.69 768.00,265.69"/>
<circle cx="78.00" cy="267.23" r="4.0" fill="#ffffff" stroke="#2ca02c" stroke-width="1.5"/>
<circle cx="78.00" cy="322.91" r="3.0" fill="#ffffff" stroke="#2ca02c" stroke-width="1.5"/>
<circle cx="78.00" cy="266.91" r="3.0" fill="#ffffff" stroke="#2ca02c" stroke-width="1.5"/>
<circle cx="78.00" cy="265.69" r="4.0" fill="#ffffff" stroke="#9467bd" stroke-width="1.5"/>
<circle cx="78.00" cy="265.69" r="3.0" fill="#ffffff" stroke="#9467bd" stroke-width="1.5"/>
<circle cx="78.00" cy="265.69" r="3.0" fill="#ffffff" stroke="#9467bd" stroke-width="1.5"/>
<line x1="88" y1="72" x2="110" y2="72" stroke="#2ca02c" stroke-width="2.4"/>
<text x="116" y="76" font-family="Arial, sans-serif" font-size="12">[GND Clamp]</text>
<line x1="88" y1="90" x2="110" y2="90" stroke="#9467bd" stroke-width="2.4"/>
<text x="116" y="94" font-family="Arial, sans-serif" font-size="12">[POWER Clamp]</text>
<text x="423.00" y="404.00" text-anchor="middle" font-family="Arial, sans-serif" font-size="12">Table voltage (V), zoomed 0..Vcc</text>
<text transform="translate(18 207.00) rotate(-90)" text-anchor="middle" font-family="Arial, sans-serif" font-size="12">Current (A)</text>
<text x="420" y="42" font-family="Arial, sans-serif" font-size="11" fill="#555">clamp curves show typ/min/max; open circles mark clamp I(0 V)</text>
</svg>