<svg xmlns="http://www.w3.org/2000/svg" width="800" height="560" viewBox="0 0 800 560">
<rect width="100%" height="100%" fill="#ffffff"/>
<text x="78" y="25" font-family="Arial, sans-serif" font-size="16" font-weight="700">nfc_ioc15_swp_slave_3v7 I-V Clamp Sweep Range</text>
<rect x="78" y="52" width="694" height="348" fill="#fbfbfb" stroke="#c8c8c8"/>
<line x1="78.00" y1="52" x2="78.00" y2="400" stroke="#ececec"/>
<text x="78.00" y="422" text-anchor="middle" font-family="Arial, sans-serif" font-size="11">-4.3</text>
<line x1="216.80" y1="52" x2="216.80" y2="400" stroke="#ececec"/>
<text x="216.80" y="422" text-anchor="middle" font-family="Arial, sans-serif" font-size="11">-1.8</text>
<line x1="355.60" y1="52" x2="355.60" y2="400" stroke="#ececec"/>
<text x="355.60" y="422" text-anchor="middle" font-family="Arial, sans-serif" font-size="11">0.629</text>
<line x1="494.40" y1="52" x2="494.40" y2="400" stroke="#ececec"/>
<text x="494.40" y="422" text-anchor="middle" font-family="Arial, sans-serif" font-size="11">3.1</text>
<line x1="633.20" y1="52" x2="633.20" y2="400" stroke="#ececec"/>
<text x="633.20" y="422" text-anchor="middle" font-family="Arial, sans-serif" font-size="11">5.5</text>
<line x1="772.00" y1="52" x2="772.00" y2="400" stroke="#ececec"/>
<text x="772.00" y="422" text-anchor="middle" font-family="Arial, sans-serif" font-size="11">8</text>
<line x1="78" y1="400.00" x2="772" y2="400.00" stroke="#ececec"/>
<text x="70" y="404.00" text-anchor="end" font-family="Arial, sans-serif" font-size="11">-6</text>
<line x1="78" y1="330.40" x2="772" y2="330.40" stroke="#ececec"/>
<text x="70" y="334.40" text-anchor="end" font-family="Arial, sans-serif" font-size="11">-3.2</text>
<line x1="78" y1="260.80" x2="772" y2="260.80" stroke="#ececec"/>
<text x="70" y="264.80" text-anchor="end" font-family="Arial, sans-serif" font-size="11">-0.456</text>
<line x1="78" y1="191.20" x2="772" y2="191.20" stroke="#ececec"/>
<text x="70" y="195.20" text-anchor="end" font-family="Arial, sans-serif" font-size="11">2.3</text>
<line x1="78" y1="121.60" x2="772" y2="121.60" stroke="#ececec"/>
<text x="70" y="125.60" text-anchor="end" font-family="Arial, sans-serif" font-size="11">5.1</text>
<line x1="78" y1="52.00" x2="772" y2="52.00" stroke="#ececec"/>
<text x="70" y="56.00" text-anchor="end" font-family="Arial, sans-serif" font-size="11">7.8</text>
<line x1="319.85" y1="52" x2="319.85" y2="400" stroke="#777" stroke-dasharray="4 4"/>
<line x1="78" y1="249.27" x2="772" y2="249.27" stroke="#777" stroke-dasharray="4 4"/>
<line x1="109.55" y1="52" x2="109.55" y2="400" stroke="#555" stroke-dasharray="2 4"/>
<text x="113.55" y="66" font-family="Arial, sans-serif" font-size="11" fill="#555">-Vcc</text>
<line x1="530.15" y1="52" x2="530.15" y2="400" stroke="#555" stroke-dasharray="2 4"/>
<text x="534.15" y="66" font-family="Arial, sans-serif" font-size="11" fill="#555">Vcc</text>
<line x1="740.45" y1="52" x2="740.45" y2="400" stroke="#555" stroke-dasharray="2 4"/>
<text x="744.45" y="66" font-family="Arial, sans-serif" font-size="11" fill="#555">2Vcc</text>
<polyline fill="none" stroke="#2ca02c" stroke-width="1.2" opacity="0.55" stroke-dasharray="4 4" points="109.55,376.00 119.21,368.70 129.44,360.97 139.10,353.68 148.76,346.38 159.00,338.65 168.66,331.35 178.89,323.62 188.55,316.32 198.21,309.03 208.44,301.30 218.11,294.00 227.77,286.70 238.00,278.97 247.66,271.67 257.33,264.38 265.28,258.37 265.85,257.94 266.42,257.51 266.99,257.08 267.56,256.65 268.13,256.22 268.69,255.79 269.26,255.36 269.83,254.93 270.40,254.50 270.97,254.07 271.54,253.64 273.24,252.37 273.81,251.99 274.38,251.64 274.95,251.31 275.51,251.02 276.08,250.76 277.22,250.32 286.88,249.32 297.11,249.28 306.78,249.27 317.01,249.27 319.85,249.27 326.67,249.27 336.33,249.27 346.56,249.27 356.23,249.27 365.89,249.27 376.12,249.27 385.78,249.27 395.44,249.27 405.67,249.27 415.34,249.27 425.57,249.27 435.23,249.27 444.89,249.27 455.12,249.27 464.79,249.27 474.45,249.27 484.68,249.27 494.34,249.27 504.01,249.23 511.39,248.27 511.96,248.06 512.53,247.81 513.10,247.53 513.67,247.20 514.24,246.84 523.90,239.57 533.56,232.27 543.79,224.55 553.46,217.25 563.69,209.52 573.35,202.22 579.03,197.93 579.60,197.50 580.17,197.07 580.74,196.64 581.31,196.21 581.87,195.78 582.44,195.35 583.01,194.92 593.24,187.19 602.90,179.90 612.57,172.60 622.80,164.87 632.46,157.57 642.12,150.27 652.35,142.54 662.02,135.25 671.68,127.95 681.91,120.22 685.32,117.64 685.89,117.21 686.46,116.79 687.03,116.36 687.59,115.93 691.57,112.92 701.80,105.19 711.47,97.90 721.13,90.60 731.36,82.87 740.45,76.00"/>
<polyline fill="none" stroke="#2ca02c" stroke-width="1.2" opacity="0.55" stroke-dasharray="4 4" points="109.55,368.58 119.21,361.28 129.44,353.55 139.10,346.26 148.76,338.96 159.00,331.23 168.66,323.93 178.89,316.20 188.55,308.90 198.21,301.61 208.44,293.88 218.11,286.58 227.77,279.28 238.00,271.55 247.66,264.26 257.33,256.96 265.28,250.96 265.85,250.63 266.42,250.38 266.99,250.19 267.56,250.05 268.13,249.94 268.69,249.87 269.26,249.81 269.83,249.76 270.40,249.72 270.97,249.69 271.54,249.66 273.24,249.58 273.81,249.56 274.38,249.54 274.95,249.52 275.51,249.50 276.08,249.49 277.22,249.46 286.88,249.36 297.11,249.29 306.78,249.27 317.01,249.27 319.85,249.27 326.67,249.27 336.33,249.27 346.56,249.27 356.23,249.27 365.89,249.27 376.12,249.27 385.78,249.27 395.44,249.27 405.67,249.27 415.34,249.27 425.57,249.27 435.23,249.27 444.89,249.27 455.12,249.27 464.79,249.27 474.45,249.27 484.68,249.27 494.34,249.27 504.01,249.27 511.39,249.27 511.96,249.27 512.53,249.27 513.10,249.27 513.67,249.27 514.24,249.27 523.90,249.27 533.56,249.27 543.79,249.27 553.46,249.27 563.69,249.27 573.35,249.27 579.03,249.27 579.60,249.27 580.17,249.27 580.74,249.27 581.31,249.27 581.87,249.27 582.44,249.27 583.01,249.27 593.24,249.27 602.90,249.27 612.57,249.27 622.80,249.27 632.46,249.27 642.12,249.27 652.35,249.27 662.02,249.27 671.68,249.27 681.91,249.26 685.32,249.07 685.89,248.95 686.46,248.79 687.03,248.55 687.59,248.24 691.57,245.25 701.80,237.52 711.47,230.22 721.13,222.92 731.36,215.19 740.45,208.32"/>
<polyline fill="none" stroke="#2ca02c" stroke-width="2.0" opacity="1.0" points="109.55,371.38 119.21,364.08 129.44,356.35 139.10,349.06 148.76,341.76 159.00,334.03 168.66,326.73 178.89,319.00 188.55,311.70 198.21,304.41 208.44,296.68 218.11,289.38 227.77,282.08 238.00,274.35 247.66,267.05 257.33,259.76 265.28,253.75 265.85,253.32 266.42,252.89 266.99,252.46 267.56,252.03 268.13,251.60 268.69,251.20 269.26,250.86 269.83,250.56 270.40,250.32 270.97,250.12 271.54,249.96 273.24,249.67 273.81,249.61 274.38,249.56 274.95,249.53 275.51,249.50 276.08,249.47 277.22,249.44 286.88,249.33 297.11,249.28 306.78,249.27 317.01,249.27 319.85,249.27 326.67,249.27 336.33,249.27 346.56,249.27 356.23,249.27 365.89,249.27 376.12,249.27 385.78,249.27 395.44,249.27 405.67,249.27 415.34,249.27 425.57,249.27 435.23,249.27 444.89,249.27 455.12,249.27 464.79,249.27 474.45,249.27 484.68,249.27 494.34,249.27 504.01,249.27 511.39,249.27 511.96,249.27 512.53,249.27 513.10,249.27 513.67,249.27 514.24,249.27 523.90,249.27 533.56,249.27 543.79,249.27 553.46,249.27 563.69,249.27 573.35,249.26 579.03,248.92 579.60,248.79 580.17,248.62 580.74,248.40 581.31,248.12 581.87,247.79 582.44,247.39 583.01,246.96 593.24,239.23 602.90,231.93 612.57,224.63 622.80,216.90 632.46,209.61 642.12,202.31 652.35,194.58 662.02,187.28 671.68,179.98 681.91,172.26 685.32,169.68 685.89,169.25 686.46,168.82 687.03,168.39 687.59,167.96 691.57,164.96 701.80,157.23 711.47,149.93 721.13,142.63 731.36,134.90 740.45,128.04"/>
<line x1="88" y1="70" x2="110" y2="70" stroke="#2ca02c" stroke-width="2.4"/>
<text x="116" y="74" font-family="Arial, sans-serif" font-size="12">[GND Clamp]</text>
<text x="425.00" y="444.00" text-anchor="middle" font-family="Arial, sans-serif" font-size="12">Table voltage (V)</text>
<text transform="translate(18 226.00) rotate(-90)" text-anchor="middle" font-family="Arial, sans-serif" font-size="12">Current (A)</text>
<text x="420" y="42" font-family="Arial, sans-serif" font-size="11" fill="#555">solid=typ, dashed=min/max; dashed vertical=required sweep boundary (5.3.4/5.3.5)</text>
</svg>