<svg xmlns="http://www.w3.org/2000/svg" width="800" height="560" viewBox="0 0 800 560">
<rect width="100%" height="100%" fill="#ffffff"/>
<text x="78" y="25" font-family="Arial, sans-serif" font-size="16" font-weight="700">E34_GPIO_I2CSCLIN_1V1_01_ISOSW I-V Clamp Sweep Range</text>
<rect x="78" y="52" width="694" height="348" fill="#fbfbfb" stroke="#c8c8c8"/>
<line x1="78.00" y1="52" x2="78.00" y2="400" stroke="#ececec"/>
<text x="78.00" y="422" text-anchor="middle" font-family="Arial, sans-serif" font-size="11">-1.3</text>
<line x1="216.80" y1="52" x2="216.80" y2="400" stroke="#ececec"/>
<text x="216.80" y="422" text-anchor="middle" font-family="Arial, sans-serif" font-size="11">-0.539</text>
<line x1="355.60" y1="52" x2="355.60" y2="400" stroke="#ececec"/>
<text x="355.60" y="422" text-anchor="middle" font-family="Arial, sans-serif" font-size="11">0.187</text>
<line x1="494.40" y1="52" x2="494.40" y2="400" stroke="#ececec"/>
<text x="494.40" y="422" text-anchor="middle" font-family="Arial, sans-serif" font-size="11">0.913</text>
<line x1="633.20" y1="52" x2="633.20" y2="400" stroke="#ececec"/>
<text x="633.20" y="422" text-anchor="middle" font-family="Arial, sans-serif" font-size="11">1.6</text>
<line x1="772.00" y1="52" x2="772.00" y2="400" stroke="#ececec"/>
<text x="772.00" y="422" text-anchor="middle" font-family="Arial, sans-serif" font-size="11">2.4</text>
<line x1="78" y1="400.00" x2="772" y2="400.00" stroke="#ececec"/>
<text x="70" y="404.00" text-anchor="end" font-family="Arial, sans-serif" font-size="11">-0.639</text>
<line x1="78" y1="330.40" x2="772" y2="330.40" stroke="#ececec"/>
<text x="70" y="334.40" text-anchor="end" font-family="Arial, sans-serif" font-size="11">-0.502</text>
<line x1="78" y1="260.80" x2="772" y2="260.80" stroke="#ececec"/>
<text x="70" y="264.80" text-anchor="end" font-family="Arial, sans-serif" font-size="11">-0.365</text>
<line x1="78" y1="191.20" x2="772" y2="191.20" stroke="#ececec"/>
<text x="70" y="195.20" text-anchor="end" font-family="Arial, sans-serif" font-size="11">-0.227</text>
<line x1="78" y1="121.60" x2="772" y2="121.60" stroke="#ececec"/>
<text x="70" y="125.60" text-anchor="end" font-family="Arial, sans-serif" font-size="11">-0.09</text>
<line x1="78" y1="52.00" x2="772" y2="52.00" stroke="#ececec"/>
<text x="70" y="56.00" text-anchor="end" font-family="Arial, sans-serif" font-size="11">0.0474</text>
<line x1="319.85" y1="52" x2="319.85" y2="400" stroke="#777" stroke-dasharray="4 4"/>
<line x1="78" y1="76.00" x2="772" y2="76.00" stroke="#777" stroke-dasharray="4 4"/>
<line x1="109.55" y1="52" x2="109.55" y2="400" stroke="#555" stroke-dasharray="2 4"/>
<text x="113.55" y="66" font-family="Arial, sans-serif" font-size="11" fill="#555">-Vcc</text>
<line x1="530.15" y1="52" x2="530.15" y2="400" stroke="#555" stroke-dasharray="2 4"/>
<text x="534.15" y="66" font-family="Arial, sans-serif" font-size="11" fill="#555">Vcc</text>
<line x1="740.45" y1="52" x2="740.45" y2="400" stroke="#555" stroke-dasharray="2 4"/>
<text x="744.45" y="66" font-family="Arial, sans-serif" font-size="11" fill="#555">2Vcc</text>
<polyline fill="none" stroke="#2ca02c" stroke-width="1.2" opacity="0.55" stroke-dasharray="4 4" points="109.55,376.00 119.10,332.92 128.66,289.84 134.40,263.99 136.31,255.37 138.22,246.76 140.13,238.14 142.05,229.52 143.96,220.91 145.87,212.29 147.78,203.68 149.69,195.06 151.61,186.44 153.52,177.83 155.43,169.21 157.34,160.59 159.25,151.98 161.17,143.36 163.08,134.91 164.99,127.17 166.90,120.11 168.81,113.74 170.72,108.03 172.64,102.96 174.55,98.51 176.46,94.64 178.37,91.31 180.28,88.49 182.20,86.13 184.11,84.17 186.02,82.57 187.93,81.28 189.84,80.25 191.75,79.43 193.67,78.78 195.58,78.27 197.49,77.87 199.40,77.56 201.31,77.31 208.96,76.73 218.52,76.41 228.08,76.24 237.64,76.13 247.20,76.07 258.67,76.02 268.23,76.01 277.79,76.01 287.35,76.00 296.91,76.00 306.47,76.00 317.94,76.00 319.85,76.00 327.50,76.00 337.06,76.00 338.97,76.00 346.61,76.00 354.26,76.00 356.17,76.00 365.73,76.00 377.20,76.00 384.85,76.00 386.76,76.00 396.32,76.00 405.88,76.00 415.44,76.00 426.91,76.00 436.47,76.00 446.03,76.00 455.59,76.00 465.15,76.00 474.71,76.00 484.27,76.00 486.18,76.00 491.91,76.00 495.74,76.00 505.30,76.00 514.86,76.00 524.42,76.00 533.98,76.00 545.45,76.00 555.01,76.00 564.56,76.00 574.12,76.00 583.68,76.00 593.24,76.00 604.71,76.00 614.27,76.00 623.83,76.00 633.39,76.00 642.95,76.00 652.51,76.00 663.98,76.00 673.54,76.00 683.10,76.00 692.66,76.00 702.22,76.00 711.78,76.00 723.25,76.00 732.81,76.00 740.45,76.00"/>
<polyline fill="none" stroke="#2ca02c" stroke-width="1.2" opacity="0.55" stroke-dasharray="4 4" points="109.55,217.34 119.10,174.26 128.66,131.18 134.40,105.33 136.31,97.90 138.22,92.15 140.13,87.88 142.05,84.84 143.96,82.75 145.87,81.34 147.78,80.40 149.69,79.77 151.61,79.34 153.52,79.03 155.43,78.80 157.34,78.62 159.25,78.47 161.17,78.34 163.08,78.22 164.99,78.11 166.90,78.01 168.81,77.91 170.72,77.81 172.64,77.72 174.55,77.64 176.46,77.55 178.37,77.47 180.28,77.39 182.20,77.32 184.11,77.24 186.02,77.17 187.93,77.09 189.84,77.02 191.75,76.96 193.67,76.89 195.58,76.83 197.49,76.77 199.40,76.71 201.31,76.65 208.96,76.44 218.52,76.24 228.08,76.11 237.64,76.04 247.20,76.01 258.67,76.00 268.23,76.00 277.79,76.00 287.35,76.00 296.91,76.00 306.47,76.00 317.94,76.00 319.85,76.00 327.50,76.00 337.06,76.00 338.97,76.00 346.61,76.00 354.26,76.00 356.17,76.00 365.73,76.00 377.20,76.00 384.85,76.00 386.76,76.00 396.32,76.00 405.88,76.00 415.44,76.00 426.91,76.00 436.47,76.00 446.03,76.00 455.59,76.00 465.15,76.00 474.71,76.00 484.27,76.00 486.18,76.00 491.91,76.00 495.74,76.00 505.30,76.00 514.86,76.00 524.42,76.00 533.98,76.00 545.45,76.00 555.01,76.00 564.56,76.00 574.12,76.00 583.68,76.00 593.24,76.00 604.71,76.00 614.27,76.00 623.83,76.00 633.39,76.00 642.95,76.00 652.51,76.00 663.98,76.00 673.54,76.00 683.10,76.00 692.66,76.00 702.22,76.00 711.78,76.00 723.25,76.00 732.81,76.00 740.45,76.00"/>
<polyline fill="none" stroke="#2ca02c" stroke-width="2.0" opacity="1.0" points="109.55,278.66 119.10,235.58 128.66,192.50 134.40,166.65 136.31,158.03 138.22,149.42 140.13,140.80 142.05,132.19 143.96,123.57 145.87,114.95 147.78,107.35 149.69,100.89 151.61,95.50 153.52,91.12 155.43,87.64 157.34,84.93 159.25,82.89 161.17,81.36 163.08,80.25 164.99,79.43 166.90,78.84 168.81,78.41 170.72,78.09 172.64,77.85 174.55,77.67 176.46,77.52 178.37,77.40 180.28,77.30 182.20,77.21 184.11,77.14 186.02,77.06 187.93,77.00 189.84,76.94 191.75,76.88 193.67,76.82 195.58,76.77 197.49,76.72 199.40,76.67 201.31,76.62 208.96,76.44 218.52,76.27 228.08,76.14 237.64,76.06 247.20,76.02 258.67,76.01 268.23,76.00 277.79,76.00 287.35,76.00 296.91,76.00 306.47,76.00 317.94,76.00 319.85,76.00 327.50,76.00 337.06,76.00 338.97,76.00 346.61,76.00 354.26,76.00 356.17,76.00 365.73,76.00 377.20,76.00 384.85,76.00 386.76,76.00 396.32,76.00 405.88,76.00 415.44,76.00 426.91,76.00 436.47,76.00 446.03,76.00 455.59,76.00 465.15,76.00 474.71,76.00 484.27,76.00 486.18,76.00 491.91,76.00 495.74,76.00 505.30,76.00 514.86,76.00 524.42,76.00 533.98,76.00 545.45,76.00 555.01,76.00 564.56,76.00 574.12,76.00 583.68,76.00 593.24,76.00 604.71,76.00 614.27,76.00 623.83,76.00 633.39,76.00 642.95,76.00 652.51,76.00 663.98,76.00 673.54,76.00 683.10,76.00 692.66,76.00 702.22,76.00 711.78,76.00 723.25,76.00 732.81,76.00 740.45,76.00"/>
<polyline fill="none" stroke="#9467bd" stroke-width="1.2" opacity="0.55" stroke-dasharray="4 4" points="109.55,76.01 111.46,76.01 113.37,76.01 115.28,76.00 119.10,76.00 122.93,76.00 124.84,76.00 126.75,76.00 128.66,76.00 130.58,76.00 132.49,76.00 134.40,76.00 136.31,76.00 138.22,76.00 140.13,76.00 142.05,76.00 143.96,76.00 145.87,76.00 147.78,76.00 149.69,76.00 151.61,76.00 153.52,76.00 155.43,76.00 157.34,76.00 159.25,76.00 161.17,76.00 163.08,76.00 164.99,76.00 166.90,76.00 168.81,76.00 170.72,76.00 172.64,76.00 174.55,76.00 176.46,76.00 178.37,76.00 180.28,76.00 182.20,76.00 186.02,76.00 187.93,76.00 189.84,76.00 191.75,76.00 193.67,76.00 195.58,76.00 197.49,76.00 199.40,76.00 201.31,76.00 203.23,76.00 205.14,76.00 207.05,76.00 208.96,76.00 210.87,76.00 212.79,76.00 216.61,76.00 218.52,76.00 220.43,76.00 222.34,76.00 226.17,76.00 228.08,76.00 231.90,76.00 233.82,76.00 235.73,76.00 239.55,76.00 241.46,76.00 245.29,76.00 247.20,76.00 249.11,76.00 251.02,76.00 252.93,76.00 254.85,76.00 258.67,76.00 260.58,76.00 262.49,76.00 266.32,76.00 268.23,76.00 272.05,76.00 275.88,76.00 277.79,76.00 279.70,76.00 281.61,76.00 283.52,76.00 285.44,76.00 287.35,76.00 289.26,76.00 291.17,76.00 293.08,76.00 294.99,76.00 296.91,76.00 298.82,76.00 300.73,76.00 302.64,76.00 304.55,76.00 306.47,76.00 308.38,76.00 310.29,76.00 312.20,76.00 314.11,76.00 316.02,76.00 317.94,76.00 319.85,76.00 740.45,76.00"/>
<polyline fill="none" stroke="#9467bd" stroke-width="1.2" opacity="0.55" stroke-dasharray="4 4" points="109.55,76.00 111.46,76.00 113.37,76.00 115.28,76.00 119.10,76.00 122.93,76.00 124.84,76.00 126.75,76.00 128.66,76.00 130.58,76.00 132.49,76.00 134.40,76.00 136.31,76.00 138.22,76.00 140.13,76.00 142.05,76.00 143.96,76.00 145.87,76.00 147.78,76.00 149.69,76.00 151.61,76.00 153.52,76.00 155.43,76.00 157.34,76.00 159.25,76.00 161.17,76.00 163.08,76.00 164.99,76.00 166.90,76.00 168.81,76.00 170.72,76.00 172.64,76.00 174.55,76.00 176.46,76.00 178.37,76.00 180.28,76.00 182.20,76.00 186.02,76.00 187.93,76.00 189.84,76.00 191.75,76.00 193.67,76.00 195.58,76.00 197.49,76.00 199.40,76.00 201.31,76.00 203.23,76.00 205.14,76.00 207.05,76.00 208.96,76.00 210.87,76.00 212.79,76.00 216.61,76.00 218.52,76.00 220.43,76.00 222.34,76.00 226.17,76.00 228.08,76.00 231.90,76.00 233.82,76.00 235.73,76.00 239.55,76.00 241.46,76.00 245.29,76.00 247.20,76.00 249.11,76.00 251.02,76.00 252.93,76.00 254.85,76.00 258.67,76.00 260.58,76.00 262.49,76.00 266.32,76.00 268.23,76.00 272.05,76.00 275.88,76.00 277.79,76.00 279.70,76.00 281.61,76.00 283.52,76.00 285.44,76.00 287.35,76.00 289.26,76.00 291.17,76.00 293.08,76.00 294.99,76.00 296.91,76.00 298.82,76.00 300.73,76.00 302.64,76.00 304.55,76.00 306.47,76.00 308.38,76.00 310.29,76.00 312.20,76.00 314.11,76.00 316.02,76.00 317.94,76.00 319.85,76.00 740.45,76.00"/>
<polyline fill="none" stroke="#9467bd" stroke-width="2.0" opacity="1.0" points="109.55,76.00 111.46,76.00 113.37,76.00 115.28,76.00 119.10,76.00 122.93,76.00 124.84,76.00 126.75,76.00 128.66,76.00 130.58,76.00 132.49,76.00 134.40,76.00 136.31,76.00 138.22,76.00 140.13,76.00 142.05,76.00 143.96,76.00 145.87,76.00 147.78,76.00 149.69,76.00 151.61,76.00 153.52,76.00 155.43,76.00 157.34,76.00 159.25,76.00 161.17,76.00 163.08,76.00 164.99,76.00 166.90,76.00 168.81,76.00 170.72,76.00 172.64,76.00 174.55,76.00 176.46,76.00 178.37,76.00 180.28,76.00 182.20,76.00 186.02,76.00 187.93,76.00 189.84,76.00 191.75,76.00 193.67,76.00 195.58,76.00 197.49,76.00 199.40,76.00 201.31,76.00 203.23,76.00 205.14,76.00 207.05,76.00 208.96,76.00 210.87,76.00 212.79,76.00 216.61,76.00 218.52,76.00 220.43,76.00 222.34,76.00 226.17,76.00 228.08,76.00 231.90,76.00 233.82,76.00 235.73,76.00 239.55,76.00 241.46,76.00 245.29,76.00 247.20,76.00 249.11,76.00 251.02,76.00 252.93,76.00 254.85,76.00 258.67,76.00 260.58,76.00 262.49,76.00 266.32,76.00 268.23,76.00 272.05,76.00 275.88,76.00 277.79,76.00 279.70,76.00 281.61,76.00 283.52,76.00 285.44,76.00 287.35,76.00 289.26,76.00 291.17,76.00 293.08,76.00 294.99,76.00 296.91,76.00 298.82,76.00 300.73,76.00 302.64,76.00 304.55,76.00 306.47,76.00 308.38,76.00 310.29,76.00 312.20,76.00 314.11,76.00 316.02,76.00 317.94,76.00 319.85,76.00 740.45,76.00"/>
<line x1="88" y1="70" x2="110" y2="70" stroke="#2ca02c" stroke-width="2.4"/>
<text x="116" y="74" font-family="Arial, sans-serif" font-size="12">[GND Clamp]</text>
<line x1="88" y1="88" x2="110" y2="88" stroke="#9467bd" stroke-width="2.4"/>
<text x="116" y="92" font-family="Arial, sans-serif" font-size="12">[POWER Clamp]</text>
<text x="425.00" y="444.00" text-anchor="middle" font-family="Arial, sans-serif" font-size="12">Table voltage (V)</text>
<text transform="translate(18 226.00) rotate(-90)" text-anchor="middle" font-family="Arial, sans-serif" font-size="12">Current (A)</text>
<text x="420" y="42" font-family="Arial, sans-serif" font-size="11" fill="#555">solid=typ, dashed=min/max; dashed vertical=required sweep boundary (5.3.4/5.3.5)</text>
</svg>