<svg xmlns="http://www.w3.org/2000/svg" width="800" height="560" viewBox="0 0 800 560">
<rect width="100%" height="100%" fill="#ffffff"/>
<text x="78" y="25" font-family="Arial, sans-serif" font-size="16" font-weight="700">E34_GPIO_SPI_1V2_00 I-V Clamp Sweep Range</text>
<rect x="78" y="52" width="694" height="348" fill="#fbfbfb" stroke="#c8c8c8"/>
<line x1="78.00" y1="52" x2="78.00" y2="400" stroke="#ececec"/>
<text x="78.00" y="422" text-anchor="middle" font-family="Arial, sans-serif" font-size="11">-1.4</text>
<line x1="216.80" y1="52" x2="216.80" y2="400" stroke="#ececec"/>
<text x="216.80" y="422" text-anchor="middle" font-family="Arial, sans-serif" font-size="11">-0.588</text>
<line x1="355.60" y1="52" x2="355.60" y2="400" stroke="#ececec"/>
<text x="355.60" y="422" text-anchor="middle" font-family="Arial, sans-serif" font-size="11">0.204</text>
<line x1="494.40" y1="52" x2="494.40" y2="400" stroke="#ececec"/>
<text x="494.40" y="422" text-anchor="middle" font-family="Arial, sans-serif" font-size="11">0.996</text>
<line x1="633.20" y1="52" x2="633.20" y2="400" stroke="#ececec"/>
<text x="633.20" y="422" text-anchor="middle" font-family="Arial, sans-serif" font-size="11">1.8</text>
<line x1="772.00" y1="52" x2="772.00" y2="400" stroke="#ececec"/>
<text x="772.00" y="422" text-anchor="middle" font-family="Arial, sans-serif" font-size="11">2.6</text>
<line x1="78" y1="400.00" x2="772" y2="400.00" stroke="#ececec"/>
<text x="70" y="404.00" text-anchor="end" font-family="Arial, sans-serif" font-size="11">-0.843</text>
<line x1="78" y1="330.40" x2="772" y2="330.40" stroke="#ececec"/>
<text x="70" y="334.40" text-anchor="end" font-family="Arial, sans-serif" font-size="11">-0.662</text>
<line x1="78" y1="260.80" x2="772" y2="260.80" stroke="#ececec"/>
<text x="70" y="264.80" text-anchor="end" font-family="Arial, sans-serif" font-size="11">-0.481</text>
<line x1="78" y1="191.20" x2="772" y2="191.20" stroke="#ececec"/>
<text x="70" y="195.20" text-anchor="end" font-family="Arial, sans-serif" font-size="11">-0.3</text>
<line x1="78" y1="121.60" x2="772" y2="121.60" stroke="#ececec"/>
<text x="70" y="125.60" text-anchor="end" font-family="Arial, sans-serif" font-size="11">-0.119</text>
<line x1="78" y1="52.00" x2="772" y2="52.00" stroke="#ececec"/>
<text x="70" y="56.00" text-anchor="end" font-family="Arial, sans-serif" font-size="11">0.0625</text>
<line x1="319.85" y1="52" x2="319.85" y2="400" stroke="#777" stroke-dasharray="4 4"/>
<line x1="78" y1="76.00" x2="772" y2="76.00" stroke="#777" stroke-dasharray="4 4"/>
<line x1="109.55" y1="52" x2="109.55" y2="400" stroke="#555" stroke-dasharray="2 4"/>
<text x="113.55" y="66" font-family="Arial, sans-serif" font-size="11" fill="#555">-Vcc</text>
<line x1="530.15" y1="52" x2="530.15" y2="400" stroke="#555" stroke-dasharray="2 4"/>
<text x="534.15" y="66" font-family="Arial, sans-serif" font-size="11" fill="#555">Vcc</text>
<line x1="740.45" y1="52" x2="740.45" y2="400" stroke="#555" stroke-dasharray="2 4"/>
<text x="744.45" y="66" font-family="Arial, sans-serif" font-size="11" fill="#555">2Vcc</text>
<polyline fill="none" stroke="#2ca02c" stroke-width="1.2" opacity="0.55" stroke-dasharray="4 4" points="109.55,376.00 120.06,336.80 128.82,304.13 139.34,264.92 149.85,225.72 153.36,212.65 155.11,206.12 156.86,199.58 158.62,193.05 160.37,186.52 162.12,179.98 163.87,173.45 165.63,166.91 167.38,160.38 169.13,153.85 170.88,147.31 172.64,140.78 174.39,134.24 176.14,127.71 177.89,121.18 179.65,115.00 181.40,109.49 183.15,104.61 184.90,100.31 186.66,96.56 188.41,93.31 190.16,90.52 191.91,88.15 193.67,86.15 195.42,84.49 197.17,83.12 198.92,81.99 200.68,81.07 202.43,80.32 204.18,79.71 205.93,79.21 207.69,78.81 209.44,78.47 211.19,78.19 212.94,77.95 218.20,77.42 228.72,76.78 237.48,76.45 247.99,76.21 258.51,76.08 267.27,76.03 277.79,76.01 288.30,76.01 297.07,76.00 307.58,76.00 316.34,76.00 319.85,76.00 326.86,76.00 337.37,76.00 342.63,76.00 346.14,76.00 356.65,76.00 360.16,76.00 367.17,76.00 375.93,76.00 386.44,76.00 393.45,76.00 396.96,76.00 405.72,76.00 416.24,76.00 426.75,76.00 435.52,76.00 446.03,76.00 454.79,76.00 465.31,76.00 468.81,76.00 475.82,76.00 482.83,76.00 484.59,76.00 495.10,76.00 505.62,76.00 514.38,76.00 524.89,76.00 535.41,76.00 544.17,76.00 554.69,76.00 563.45,76.00 573.96,76.00 584.48,76.00 593.24,76.00 603.76,76.00 614.27,76.00 623.04,76.00 633.55,76.00 644.07,76.00 652.83,76.00 663.34,76.00 673.86,76.00 682.62,76.00 693.14,76.00 701.90,76.00 712.41,76.00 722.93,76.00 731.69,76.00 740.45,76.00"/>
<polyline fill="none" stroke="#2ca02c" stroke-width="1.2" opacity="0.55" stroke-dasharray="4 4" points="109.55,269.41 120.06,230.20 128.82,197.53 139.34,158.33 149.85,119.13 153.36,106.06 155.11,99.67 156.86,95.04 158.62,91.79 160.37,89.55 162.12,87.99 163.87,86.88 165.63,86.08 167.38,85.45 169.13,84.95 170.88,84.52 172.64,84.13 174.39,83.78 176.14,83.44 177.89,83.12 179.65,82.81 181.40,82.50 183.15,82.20 184.90,81.91 186.66,81.62 188.41,81.33 190.16,81.05 191.91,80.78 193.67,80.51 195.42,80.25 197.17,79.99 198.92,79.74 200.68,79.49 202.43,79.26 204.18,79.02 205.93,78.80 207.69,78.59 209.44,78.38 211.19,78.18 212.94,77.99 218.20,77.48 228.72,76.70 237.48,76.31 247.99,76.09 258.51,76.02 267.27,76.01 277.79,76.00 288.30,76.00 297.07,76.00 307.58,76.00 316.34,76.00 319.85,76.00 326.86,76.00 337.37,76.00 342.63,76.00 346.14,76.00 356.65,76.00 360.16,76.00 367.17,76.00 375.93,76.00 386.44,76.00 393.45,76.00 396.96,76.00 405.72,76.00 416.24,76.00 426.75,76.00 435.52,76.00 446.03,76.00 454.79,76.00 465.31,76.00 468.81,76.00 475.82,76.00 482.83,76.00 484.59,76.00 495.10,76.00 505.62,76.00 514.38,76.00 524.89,76.00 535.41,76.00 544.17,76.00 554.69,76.00 563.45,76.00 573.96,76.00 584.48,76.00 593.24,76.00 603.76,76.00 614.27,76.00 623.04,76.00 633.55,76.00 644.07,76.00 652.83,76.00 663.34,76.00 673.86,76.00 682.62,76.00 693.14,76.00 701.90,76.00 712.41,76.00 722.93,76.00 731.69,76.00 740.45,76.00"/>
<polyline fill="none" stroke="#2ca02c" stroke-width="2.0" opacity="1.0" points="109.55,307.30 120.06,268.09 128.82,235.42 139.34,196.22 149.85,157.02 153.36,143.95 155.11,137.41 156.86,130.88 158.62,124.35 160.37,117.81 162.12,111.28 163.87,104.74 165.63,99.24 167.38,94.84 169.13,91.36 170.88,88.67 172.64,86.61 174.39,85.05 176.14,83.86 177.89,82.96 179.65,82.25 181.40,81.70 183.15,81.24 184.90,80.86 186.66,80.53 188.41,80.24 190.16,79.98 191.91,79.73 193.67,79.50 195.42,79.28 197.17,79.08 198.92,78.88 200.68,78.69 202.43,78.50 204.18,78.33 205.93,78.16 207.69,78.00 209.44,77.84 211.19,77.70 212.94,77.56 218.20,77.18 228.72,76.60 237.48,76.30 247.99,76.10 258.51,76.03 267.27,76.01 277.79,76.00 288.30,76.00 297.07,76.00 307.58,76.00 316.34,76.00 319.85,76.00 326.86,76.00 337.37,76.00 342.63,76.00 346.14,76.00 356.65,76.00 360.16,76.00 367.17,76.00 375.93,76.00 386.44,76.00 393.45,76.00 396.96,76.00 405.72,76.00 416.24,76.00 426.75,76.00 435.52,76.00 446.03,76.00 454.79,76.00 465.31,76.00 468.81,76.00 475.82,76.00 482.83,76.00 484.59,76.00 495.10,76.00 505.62,76.00 514.38,76.00 524.89,76.00 535.41,76.00 544.17,76.00 554.69,76.00 563.45,76.00 573.96,76.00 584.48,76.00 593.24,76.00 603.76,76.00 614.27,76.00 623.04,76.00 633.55,76.00 644.07,76.00 652.83,76.00 663.34,76.00 673.86,76.00 682.62,76.00 693.14,76.00 701.90,76.00 712.41,76.00 722.93,76.00 731.69,76.00 740.45,76.00"/>
<polyline fill="none" stroke="#9467bd" stroke-width="1.2" opacity="0.55" stroke-dasharray="4 4" points="109.55,76.01 113.05,76.01 116.56,76.01 120.06,76.01 123.57,76.01 125.32,76.01 128.82,76.01 132.33,76.00 134.08,76.00 135.83,76.00 139.34,76.00 142.84,76.00 146.35,76.00 148.10,76.00 149.85,76.00 153.36,76.00 155.11,76.00 156.86,76.00 158.62,76.00 162.12,76.00 163.87,76.00 165.63,76.00 169.13,76.00 170.88,76.00 172.64,76.00 174.39,76.00 176.14,76.00 177.89,76.00 179.65,76.00 181.40,76.00 183.15,76.00 184.90,76.00 186.66,76.00 188.41,76.00 191.91,76.00 193.67,76.00 195.42,76.00 197.17,76.00 198.92,76.00 202.43,76.00 204.18,76.00 205.93,76.00 207.69,76.00 209.44,76.00 212.94,76.00 214.70,76.00 216.45,76.00 218.20,76.00 219.95,76.00 221.71,76.00 223.46,76.00 225.21,76.00 228.72,76.00 230.47,76.00 232.22,76.00 235.73,76.00 237.48,76.00 239.23,76.00 240.98,76.00 242.74,76.00 246.24,76.00 247.99,76.00 249.75,76.00 251.50,76.00 253.25,76.00 255.01,76.00 258.51,76.00 260.26,76.00 262.02,76.00 263.77,76.00 265.52,76.00 269.03,76.00 272.53,76.00 274.28,76.00 276.04,76.00 277.79,76.00 279.54,76.00 281.29,76.00 283.05,76.00 284.80,76.00 286.55,76.00 288.30,76.00 290.06,76.00 291.81,76.00 293.56,76.00 295.31,76.00 297.07,76.00 298.82,76.00 302.32,76.00 304.08,76.00 305.83,76.00 307.58,76.00 309.33,76.00 311.09,76.00 312.84,76.00 314.59,76.00 316.34,76.00 318.10,76.00 319.85,76.00 740.45,76.00"/>
<polyline fill="none" stroke="#9467bd" stroke-width="1.2" opacity="0.55" stroke-dasharray="4 4" points="109.55,76.00 113.05,76.00 116.56,76.00 120.06,76.00 123.57,76.00 125.32,76.00 128.82,76.00 132.33,76.00 134.08,76.00 135.83,76.00 139.34,76.00 142.84,76.00 146.35,76.00 148.10,76.00 149.85,76.00 153.36,76.00 155.11,76.00 156.86,76.00 158.62,76.00 162.12,76.00 163.87,76.00 165.63,76.00 169.13,76.00 170.88,76.00 172.64,76.00 174.39,76.00 176.14,76.00 177.89,76.00 179.65,76.00 181.40,76.00 183.15,76.00 184.90,76.00 186.66,76.00 188.41,76.00 191.91,76.00 193.67,76.00 195.42,76.00 197.17,76.00 198.92,76.00 202.43,76.00 204.18,76.00 205.93,76.00 207.69,76.00 209.44,76.00 212.94,76.00 214.70,76.00 216.45,76.00 218.20,76.00 219.95,76.00 221.71,76.00 223.46,76.00 225.21,76.00 228.72,76.00 230.47,76.00 232.22,76.00 235.73,76.00 237.48,76.00 239.23,76.00 240.98,76.00 242.74,76.00 246.24,76.00 247.99,76.00 249.75,76.00 251.50,76.00 253.25,76.00 255.01,76.00 258.51,76.00 260.26,76.00 262.02,76.00 263.77,76.00 265.52,76.00 269.03,76.00 272.53,76.00 274.28,76.00 276.04,76.00 277.79,76.00 279.54,76.00 281.29,76.00 283.05,76.00 284.80,76.00 286.55,76.00 288.30,76.00 290.06,76.00 291.81,76.00 293.56,76.00 295.31,76.00 297.07,76.00 298.82,76.00 302.32,76.00 304.08,76.00 305.83,76.00 307.58,76.00 309.33,76.00 311.09,76.00 312.84,76.00 314.59,76.00 316.34,76.00 318.10,76.00 319.85,76.00 740.45,76.00"/>
<polyline fill="none" stroke="#9467bd" stroke-width="2.0" opacity="1.0" points="109.55,76.00 113.05,76.00 116.56,76.00 120.06,76.00 123.57,76.00 125.32,76.00 128.82,76.00 132.33,76.00 134.08,76.00 135.83,76.00 139.34,76.00 142.84,76.00 146.35,76.00 148.10,76.00 149.85,76.00 153.36,76.00 155.11,76.00 156.86,76.00 158.62,76.00 162.12,76.00 163.87,76.00 165.63,76.00 169.13,76.00 170.88,76.00 172.64,76.00 174.39,76.00 176.14,76.00 177.89,76.00 179.65,76.00 181.40,76.00 183.15,76.00 184.90,76.00 186.66,76.00 188.41,76.00 191.91,76.00 193.67,76.00 195.42,76.00 197.17,76.00 198.92,76.00 202.43,76.00 204.18,76.00 205.93,76.00 207.69,76.00 209.44,76.00 212.94,76.00 214.70,76.00 216.45,76.00 218.20,76.00 219.95,76.00 221.71,76.00 223.46,76.00 225.21,76.00 228.72,76.00 230.47,76.00 232.22,76.00 235.73,76.00 237.48,76.00 239.23,76.00 240.98,76.00 242.74,76.00 246.24,76.00 247.99,76.00 249.75,76.00 251.50,76.00 253.25,76.00 255.01,76.00 258.51,76.00 260.26,76.00 262.02,76.00 263.77,76.00 265.52,76.00 269.03,76.00 272.53,76.00 274.28,76.00 276.04,76.00 277.79,76.00 279.54,76.00 281.29,76.00 283.05,76.00 284.80,76.00 286.55,76.00 288.30,76.00 290.06,76.00 291.81,76.00 293.56,76.00 295.31,76.00 297.07,76.00 298.82,76.00 302.32,76.00 304.08,76.00 305.83,76.00 307.58,76.00 309.33,76.00 311.09,76.00 312.84,76.00 314.59,76.00 316.34,76.00 318.10,76.00 319.85,76.00 740.45,76.00"/>
<line x1="88" y1="70" x2="110" y2="70" stroke="#2ca02c" stroke-width="2.4"/>
<text x="116" y="74" font-family="Arial, sans-serif" font-size="12">[GND Clamp]</text>
<line x1="88" y1="88" x2="110" y2="88" stroke="#9467bd" stroke-width="2.4"/>
<text x="116" y="92" font-family="Arial, sans-serif" font-size="12">[POWER Clamp]</text>
<text x="425.00" y="444.00" text-anchor="middle" font-family="Arial, sans-serif" font-size="12">Table voltage (V)</text>
<text transform="translate(18 226.00) rotate(-90)" text-anchor="middle" font-family="Arial, sans-serif" font-size="12">Current (A)</text>
<text x="420" y="42" font-family="Arial, sans-serif" font-size="11" fill="#555">solid=typ, dashed=min/max; dashed vertical=required sweep boundary (5.3.4/5.3.5)</text>
</svg>