<svg xmlns="http://www.w3.org/2000/svg" width="800" height="560" viewBox="0 0 800 560">
<rect width="100%" height="100%" fill="#ffffff"/>
<text x="78" y="25" font-family="Arial, sans-serif" font-size="16" font-weight="700">E34_GPIO_COMBO_5V0 I-V Clamp Sweep Range</text>
<rect x="78" y="52" width="694" height="348" fill="#fbfbfb" stroke="#c8c8c8"/>
<line x1="78.00" y1="52" x2="78.00" y2="400" stroke="#ececec"/>
<text x="78.00" y="422" text-anchor="middle" font-family="Arial, sans-serif" font-size="11">-4.3</text>
<line x1="216.80" y1="52" x2="216.80" y2="400" stroke="#ececec"/>
<text x="216.80" y="422" text-anchor="middle" font-family="Arial, sans-serif" font-size="11">-1.8</text>
<line x1="355.60" y1="52" x2="355.60" y2="400" stroke="#ececec"/>
<text x="355.60" y="422" text-anchor="middle" font-family="Arial, sans-serif" font-size="11">0.629</text>
<line x1="494.40" y1="52" x2="494.40" y2="400" stroke="#ececec"/>
<text x="494.40" y="422" text-anchor="middle" font-family="Arial, sans-serif" font-size="11">3.1</text>
<line x1="633.20" y1="52" x2="633.20" y2="400" stroke="#ececec"/>
<text x="633.20" y="422" text-anchor="middle" font-family="Arial, sans-serif" font-size="11">5.5</text>
<line x1="772.00" y1="52" x2="772.00" y2="400" stroke="#ececec"/>
<text x="772.00" y="422" text-anchor="middle" font-family="Arial, sans-serif" font-size="11">8</text>
<line x1="78" y1="400.00" x2="772" y2="400.00" stroke="#ececec"/>
<text x="70" y="404.00" text-anchor="end" font-family="Arial, sans-serif" font-size="11">-5.8</text>
<line x1="78" y1="330.40" x2="772" y2="330.40" stroke="#ececec"/>
<text x="70" y="334.40" text-anchor="end" font-family="Arial, sans-serif" font-size="11">-3.5</text>
<line x1="78" y1="260.80" x2="772" y2="260.80" stroke="#ececec"/>
<text x="70" y="264.80" text-anchor="end" font-family="Arial, sans-serif" font-size="11">-1.1</text>
<line x1="78" y1="191.20" x2="772" y2="191.20" stroke="#ececec"/>
<text x="70" y="195.20" text-anchor="end" font-family="Arial, sans-serif" font-size="11">1.3</text>
<line x1="78" y1="121.60" x2="772" y2="121.60" stroke="#ececec"/>
<text x="70" y="125.60" text-anchor="end" font-family="Arial, sans-serif" font-size="11">3.6</text>
<line x1="78" y1="52.00" x2="772" y2="52.00" stroke="#ececec"/>
<text x="70" y="56.00" text-anchor="end" font-family="Arial, sans-serif" font-size="11">6</text>
<line x1="319.85" y1="52" x2="319.85" y2="400" stroke="#777" stroke-dasharray="4 4"/>
<line x1="78" y1="228.05" x2="772" y2="228.05" stroke="#777" stroke-dasharray="4 4"/>
<line x1="109.55" y1="52" x2="109.55" y2="400" stroke="#555" stroke-dasharray="2 4"/>
<text x="113.55" y="66" font-family="Arial, sans-serif" font-size="11" fill="#555">-Vcc</text>
<line x1="530.15" y1="52" x2="530.15" y2="400" stroke="#555" stroke-dasharray="2 4"/>
<text x="534.15" y="66" font-family="Arial, sans-serif" font-size="11" fill="#555">Vcc</text>
<line x1="740.45" y1="52" x2="740.45" y2="400" stroke="#555" stroke-dasharray="2 4"/>
<text x="744.45" y="66" font-family="Arial, sans-serif" font-size="11" fill="#555">2Vcc</text>
<polyline fill="none" stroke="#2ca02c" stroke-width="1.2" opacity="0.55" stroke-dasharray="4 4" points="109.55,376.00 119.21,367.48 129.44,358.46 139.10,349.95 148.76,341.43 159.00,332.41 168.66,323.89 178.89,314.87 188.55,306.35 198.21,297.84 208.44,288.82 218.11,280.30 227.77,271.78 238.00,262.76 247.66,254.25 257.33,245.73 267.56,236.71 270.97,233.70 271.54,233.20 272.10,232.70 272.67,232.20 273.24,231.70 273.81,231.20 274.38,230.74 274.95,230.33 275.51,229.97 276.08,229.65 276.65,229.38 277.22,229.14 277.79,228.93 278.36,228.76 278.92,228.62 279.49,228.50 280.06,228.40 280.63,228.32 281.20,228.26 281.77,228.21 282.33,228.18 282.90,228.15 283.47,228.13 284.04,228.11 284.61,228.10 285.18,228.09 285.75,228.08 286.31,228.07 286.88,228.07 287.45,228.06 297.11,228.05 306.78,228.05 317.01,228.05 319.85,228.05 322.12,228.05 326.67,228.05 327.24,228.05 336.33,228.05 338.04,228.05 346.56,228.05 356.23,228.05 365.89,228.05 376.12,228.05 385.78,228.05 395.44,228.05 405.67,228.05 415.34,228.05 425.57,228.05 435.23,228.05 444.89,228.05 455.12,228.05 464.79,228.05 465.36,228.05 474.45,228.05 484.68,228.05 494.34,228.05 504.01,228.05 514.24,228.05 521.06,228.05 523.90,228.05 533.56,228.05 543.79,228.05 553.46,228.05 563.69,228.05 573.35,228.05 583.01,228.05 593.24,228.05 602.90,228.05 607.45,228.05 612.57,228.05 622.80,228.05 632.46,228.05 642.12,228.05 652.35,228.05 662.02,228.05 671.68,228.05 681.91,228.05 691.57,228.05 701.80,228.05 711.47,228.05 721.13,228.05 731.36,228.05 740.45,228.05"/>
<polyline fill="none" stroke="#2ca02c" stroke-width="1.2" opacity="0.55" stroke-dasharray="4 4" points="109.55,371.81 119.21,363.29 129.44,354.27 139.10,345.76 148.76,337.24 159.00,328.22 168.66,319.70 178.89,310.68 188.55,302.16 198.21,293.65 208.44,284.63 218.11,276.11 227.77,267.59 238.00,258.57 247.66,250.06 257.33,241.54 267.56,232.52 270.97,229.51 271.54,229.01 272.10,228.66 272.67,228.44 273.24,228.30 273.81,228.21 274.38,228.15 274.95,228.12 275.51,228.10 276.08,228.09 276.65,228.08 277.22,228.07 277.79,228.07 278.36,228.07 278.92,228.06 279.49,228.06 280.06,228.06 280.63,228.06 281.20,228.06 281.77,228.06 282.33,228.06 282.90,228.06 283.47,228.06 284.04,228.06 284.61,228.06 285.18,228.05 285.75,228.05 286.31,228.05 286.88,228.05 287.45,228.05 297.11,228.05 306.78,228.05 317.01,228.05 319.85,228.05 322.12,228.05 326.67,228.05 327.24,228.05 336.33,228.05 338.04,228.05 346.56,228.05 356.23,228.05 365.89,228.05 376.12,228.05 385.78,228.05 395.44,228.05 405.67,228.05 415.34,228.05 425.57,228.05 435.23,228.05 444.89,228.05 455.12,228.05 464.79,228.05 465.36,228.05 474.45,228.05 484.68,228.05 494.34,228.05 504.01,228.05 514.24,228.05 521.06,228.05 523.90,228.05 533.56,228.05 543.79,228.05 553.46,228.05 563.69,228.05 573.35,228.05 583.01,228.05 593.24,228.05 602.90,228.05 607.45,228.05 612.57,228.05 622.80,228.05 632.46,228.05 642.12,228.05 652.35,228.05 662.02,228.05 671.68,228.05 681.91,228.05 691.57,228.05 701.80,228.05 711.47,228.05 721.13,228.05 731.36,228.05 740.45,228.05"/>
<polyline fill="none" stroke="#2ca02c" stroke-width="2.0" opacity="1.0" points="109.55,371.83 119.21,363.32 129.44,354.30 139.10,345.78 148.76,337.26 159.00,328.24 168.66,319.72 178.89,310.71 188.55,302.19 198.21,293.67 208.44,284.65 218.11,276.13 227.77,267.62 238.00,258.60 247.66,250.08 257.33,241.56 267.56,232.54 270.97,229.54 271.54,229.11 272.10,228.80 272.67,228.57 273.24,228.41 273.81,228.31 274.38,228.23 274.95,228.18 275.51,228.14 276.08,228.12 276.65,228.10 277.22,228.09 277.79,228.08 278.36,228.07 278.92,228.07 279.49,228.07 280.06,228.06 280.63,228.06 281.20,228.06 281.77,228.06 282.33,228.06 282.90,228.06 283.47,228.06 284.04,228.06 284.61,228.06 285.18,228.06 285.75,228.05 286.31,228.05 286.88,228.05 287.45,228.05 297.11,228.05 306.78,228.05 317.01,228.05 319.85,228.05 322.12,228.05 326.67,228.05 327.24,228.05 336.33,228.05 338.04,228.05 346.56,228.05 356.23,228.05 365.89,228.05 376.12,228.05 385.78,228.05 395.44,228.05 405.67,228.05 415.34,228.05 425.57,228.05 435.23,228.05 444.89,228.05 455.12,228.05 464.79,228.05 465.36,228.05 474.45,228.05 484.68,228.05 494.34,228.05 504.01,228.05 514.24,228.05 521.06,228.05 523.90,228.05 533.56,228.05 543.79,228.05 553.46,228.05 563.69,228.05 573.35,228.05 583.01,228.05 593.24,228.05 602.90,228.05 607.45,228.05 612.57,228.05 622.80,228.05 632.46,228.05 642.12,228.05 652.35,228.05 662.02,228.05 671.68,228.05 681.91,228.05 691.57,228.05 701.80,228.05 711.47,228.05 721.13,228.05 731.36,228.05 740.45,228.05"/>
<polyline fill="none" stroke="#9467bd" stroke-width="1.2" opacity="0.55" stroke-dasharray="4 4" points="109.55,76.00 112.96,79.01 116.37,82.01 119.21,84.52 122.62,87.52 126.03,90.53 129.44,93.54 132.85,96.54 135.69,99.05 139.10,102.05 142.51,105.06 145.92,108.07 149.33,111.07 152.17,113.58 155.58,116.58 159.00,119.59 162.41,122.60 165.82,125.60 168.66,128.11 172.07,131.12 175.48,134.12 178.89,137.13 182.30,140.13 185.14,142.64 188.55,145.65 191.96,148.65 195.37,151.66 198.78,154.66 201.62,157.17 205.03,160.18 208.44,163.18 211.86,166.19 215.27,169.19 218.11,171.70 221.52,174.71 224.93,177.71 228.34,180.72 231.18,183.22 234.59,186.23 238.00,189.24 241.41,192.24 244.82,195.25 247.66,197.75 248.23,198.26 248.80,198.76 251.07,200.76 254.48,203.77 257.89,206.77 261.30,209.78 264.15,212.28 267.56,215.29 270.97,218.30 272.67,219.80 273.24,220.30 273.81,220.80 274.38,221.30 274.95,221.80 275.51,222.31 276.08,222.81 276.65,223.31 277.22,223.81 277.79,224.31 278.36,224.81 278.92,225.31 279.49,225.81 280.06,226.31 280.63,226.74 281.20,227.07 281.77,227.31 282.33,227.49 282.90,227.63 283.47,227.74 284.04,227.82 284.61,227.87 285.18,227.92 285.75,227.95 286.31,227.98 286.88,227.99 287.45,228.01 288.02,228.02 288.59,228.03 289.16,228.03 289.72,228.04 290.29,228.04 290.86,228.04 291.43,228.05 292.00,228.05 292.57,228.05 293.13,228.05 293.70,228.05 294.27,228.05 297.11,228.05 300.52,228.05 303.93,228.05 307.34,228.05 310.75,228.05 313.60,228.05 317.01,228.05 319.85,228.05 740.45,228.05"/>
<polyline fill="none" stroke="#9467bd" stroke-width="1.2" opacity="0.55" stroke-dasharray="4 4" points="109.55,82.97 112.96,85.97 116.37,88.98 119.21,91.48 122.62,94.49 126.03,97.50 129.44,100.50 132.85,103.51 135.69,106.01 139.10,109.02 142.51,112.03 145.92,115.03 149.33,118.04 152.17,120.54 155.58,123.55 159.00,126.56 162.41,129.56 165.82,132.57 168.66,135.07 172.07,138.08 175.48,141.09 178.89,144.09 182.30,147.10 185.14,149.60 188.55,152.61 191.96,155.62 195.37,158.62 198.78,161.63 201.62,164.13 205.03,167.14 208.44,170.15 211.86,173.15 215.27,176.16 218.11,178.67 221.52,181.67 224.93,184.68 228.34,187.68 231.18,190.19 234.59,193.20 238.00,196.20 241.41,199.21 244.82,202.21 247.66,204.72 248.23,205.22 248.80,205.72 251.07,207.73 254.48,210.73 257.89,213.74 261.30,216.74 264.15,219.25 267.56,222.26 270.97,225.26 272.67,226.77 273.24,227.26 273.81,227.56 274.38,227.75 274.95,227.86 275.51,227.93 276.08,227.97 276.65,228.00 277.22,228.01 277.79,228.02 278.36,228.03 278.92,228.03 279.49,228.04 280.06,228.04 280.63,228.04 281.20,228.04 281.77,228.04 282.33,228.04 282.90,228.04 283.47,228.04 284.04,228.05 284.61,228.05 285.18,228.05 285.75,228.05 286.31,228.05 286.88,228.05 287.45,228.05 288.02,228.05 288.59,228.05 289.16,228.05 289.72,228.05 290.29,228.05 290.86,228.05 291.43,228.05 292.00,228.05 292.57,228.05 293.13,228.05 293.70,228.05 294.27,228.05 297.11,228.05 300.52,228.05 303.93,228.05 307.34,228.05 310.75,228.05 313.60,228.05 317.01,228.05 319.85,228.05 740.45,228.05"/>
<polyline fill="none" stroke="#9467bd" stroke-width="2.0" opacity="1.0" points="109.55,80.57 112.96,83.57 116.37,86.58 119.21,89.08 122.62,92.09 126.03,95.10 129.44,98.10 132.85,101.11 135.69,103.61 139.10,106.62 142.51,109.63 145.92,112.63 149.33,115.64 152.17,118.14 155.58,121.15 159.00,124.16 162.41,127.16 165.82,130.17 168.66,132.67 172.07,135.68 175.48,138.69 178.89,141.69 182.30,144.70 185.14,147.20 188.55,150.21 191.96,153.22 195.37,156.22 198.78,159.23 201.62,161.74 205.03,164.74 208.44,167.75 211.86,170.75 215.27,173.76 218.11,176.27 221.52,179.27 224.93,182.28 228.34,185.28 231.18,187.79 234.59,190.80 238.00,193.80 241.41,196.81 244.82,199.81 247.66,202.32 248.23,202.82 248.80,203.32 251.07,205.33 254.48,208.33 257.89,211.34 261.30,214.34 264.15,216.85 267.56,219.86 270.97,222.86 272.67,224.37 273.24,224.87 273.81,225.37 274.38,225.87 274.95,226.37 275.51,226.87 276.08,227.25 276.65,227.50 277.22,227.68 277.79,227.80 278.36,227.88 278.92,227.93 279.49,227.97 280.06,227.99 280.63,228.01 281.20,228.02 281.77,228.03 282.33,228.04 282.90,228.04 283.47,228.04 284.04,228.04 284.61,228.05 285.18,228.05 285.75,228.05 286.31,228.05 286.88,228.05 287.45,228.05 288.02,228.05 288.59,228.05 289.16,228.05 289.72,228.05 290.29,228.05 290.86,228.05 291.43,228.05 292.00,228.05 292.57,228.05 293.13,228.05 293.70,228.05 294.27,228.05 297.11,228.05 300.52,228.05 303.93,228.05 307.34,228.05 310.75,228.05 313.60,228.05 317.01,228.05 319.85,228.05 740.45,228.05"/>
<line x1="88" y1="70" x2="110" y2="70" stroke="#2ca02c" stroke-width="2.4"/>
<text x="116" y="74" font-family="Arial, sans-serif" font-size="12">[GND Clamp]</text>
<line x1="88" y1="88" x2="110" y2="88" stroke="#9467bd" stroke-width="2.4"/>
<text x="116" y="92" font-family="Arial, sans-serif" font-size="12">[POWER Clamp]</text>
<text x="425.00" y="444.00" text-anchor="middle" font-family="Arial, sans-serif" font-size="12">Table voltage (V)</text>
<text transform="translate(18 226.00) rotate(-90)" text-anchor="middle" font-family="Arial, sans-serif" font-size="12">Current (A)</text>
<text x="420" y="42" font-family="Arial, sans-serif" font-size="11" fill="#555">solid=typ, dashed=min/max; dashed vertical=required sweep boundary (5.3.4/5.3.5)</text>
</svg>