<svg xmlns="http://www.w3.org/2000/svg" width="800" height="560" viewBox="0 0 800 560">
<rect width="100%" height="100%" fill="#ffffff"/>
<text x="78" y="25" font-family="Arial, sans-serif" font-size="16" font-weight="700">E34_GPIO_I2CSCLIN_1V8_00 I-V Clamp Sweep Range</text>
<rect x="78" y="52" width="694" height="348" fill="#fbfbfb" stroke="#c8c8c8"/>
<line x1="78.00" y1="52" x2="78.00" y2="400" stroke="#ececec"/>
<text x="78.00" y="422" text-anchor="middle" font-family="Arial, sans-serif" font-size="11">-2.1</text>
<line x1="216.80" y1="52" x2="216.80" y2="400" stroke="#ececec"/>
<text x="216.80" y="422" text-anchor="middle" font-family="Arial, sans-serif" font-size="11">-0.882</text>
<line x1="355.60" y1="52" x2="355.60" y2="400" stroke="#ececec"/>
<text x="355.60" y="422" text-anchor="middle" font-family="Arial, sans-serif" font-size="11">0.306</text>
<line x1="494.40" y1="52" x2="494.40" y2="400" stroke="#ececec"/>
<text x="494.40" y="422" text-anchor="middle" font-family="Arial, sans-serif" font-size="11">1.5</text>
<line x1="633.20" y1="52" x2="633.20" y2="400" stroke="#ececec"/>
<text x="633.20" y="422" text-anchor="middle" font-family="Arial, sans-serif" font-size="11">2.7</text>
<line x1="772.00" y1="52" x2="772.00" y2="400" stroke="#ececec"/>
<text x="772.00" y="422" text-anchor="middle" font-family="Arial, sans-serif" font-size="11">3.9</text>
<line x1="78" y1="400.00" x2="772" y2="400.00" stroke="#ececec"/>
<text x="70" y="404.00" text-anchor="end" font-family="Arial, sans-serif" font-size="11">-1.9</text>
<line x1="78" y1="330.40" x2="772" y2="330.40" stroke="#ececec"/>
<text x="70" y="334.40" text-anchor="end" font-family="Arial, sans-serif" font-size="11">-1.5</text>
<line x1="78" y1="260.80" x2="772" y2="260.80" stroke="#ececec"/>
<text x="70" y="264.80" text-anchor="end" font-family="Arial, sans-serif" font-size="11">-1.1</text>
<line x1="78" y1="191.20" x2="772" y2="191.20" stroke="#ececec"/>
<text x="70" y="195.20" text-anchor="end" font-family="Arial, sans-serif" font-size="11">-0.685</text>
<line x1="78" y1="121.60" x2="772" y2="121.60" stroke="#ececec"/>
<text x="70" y="125.60" text-anchor="end" font-family="Arial, sans-serif" font-size="11">-0.271</text>
<line x1="78" y1="52.00" x2="772" y2="52.00" stroke="#ececec"/>
<text x="70" y="56.00" text-anchor="end" font-family="Arial, sans-serif" font-size="11">0.143</text>
<line x1="319.85" y1="52" x2="319.85" y2="400" stroke="#777" stroke-dasharray="4 4"/>
<line x1="78" y1="76.00" x2="772" y2="76.00" stroke="#777" stroke-dasharray="4 4"/>
<line x1="109.55" y1="52" x2="109.55" y2="400" stroke="#555" stroke-dasharray="2 4"/>
<text x="113.55" y="66" font-family="Arial, sans-serif" font-size="11" fill="#555">-Vcc</text>
<line x1="530.15" y1="52" x2="530.15" y2="400" stroke="#555" stroke-dasharray="2 4"/>
<text x="534.15" y="66" font-family="Arial, sans-serif" font-size="11" fill="#555">Vcc</text>
<line x1="740.45" y1="52" x2="740.45" y2="400" stroke="#555" stroke-dasharray="2 4"/>
<text x="744.45" y="66" font-family="Arial, sans-serif" font-size="11" fill="#555">2Vcc</text>
<polyline fill="none" stroke="#2ca02c" stroke-width="1.2" opacity="0.55" stroke-dasharray="4 4" points="109.55,376.00 118.89,353.11 129.41,327.37 138.75,304.48 149.27,278.73 158.62,255.85 169.13,230.10 178.48,207.21 188.99,181.47 198.34,158.58 206.52,138.56 207.69,135.69 208.86,132.83 210.02,129.97 211.19,127.11 212.36,124.25 213.53,121.39 214.70,118.53 215.87,115.67 217.03,112.81 218.20,109.95 219.37,107.09 220.54,104.23 221.71,101.36 222.88,98.50 224.04,95.68 225.21,93.09 226.38,90.73 227.55,88.60 228.72,86.69 229.89,84.99 231.05,83.50 232.22,82.20 233.39,81.08 234.56,80.14 235.73,79.34 236.90,78.69 238.06,78.15 239.23,77.72 240.40,77.37 241.57,77.10 242.74,76.88 247.41,76.40 257.93,76.11 267.27,76.04 277.79,76.01 287.13,76.00 297.65,76.00 307.00,76.00 317.51,76.00 319.85,76.00 326.86,76.00 336.21,76.00 343.22,76.00 346.72,76.00 356.07,76.00 360.74,76.00 366.58,76.00 375.93,76.00 380.60,76.00 386.44,76.00 395.79,76.00 406.31,76.00 415.65,76.00 426.17,76.00 435.52,76.00 444.86,76.00 455.38,76.00 464.72,76.00 475.24,76.00 484.59,76.00 490.43,76.00 495.10,76.00 498.61,76.00 503.28,76.00 504.45,76.00 514.96,76.00 524.31,76.00 533.66,76.00 544.17,76.00 553.52,76.00 564.03,76.00 573.38,76.00 583.90,76.00 593.24,76.00 603.76,76.00 613.10,76.00 623.62,76.00 632.97,76.00 642.31,76.00 652.83,76.00 662.18,76.00 672.69,76.00 682.04,76.00 692.55,76.00 701.90,76.00 712.41,76.00 721.76,76.00 732.28,76.00 740.45,76.00"/>
<polyline fill="none" stroke="#2ca02c" stroke-width="1.2" opacity="0.55" stroke-dasharray="4 4" points="109.55,323.06 118.89,300.17 129.41,274.42 138.75,251.54 149.27,225.79 158.62,202.90 169.13,177.16 178.48,154.27 188.99,128.52 198.34,105.64 206.52,85.61 207.69,83.12 208.86,81.20 210.02,79.77 211.19,78.76 212.36,78.06 213.53,77.60 214.70,77.29 215.87,77.09 217.03,76.96 218.20,76.86 219.37,76.79 220.54,76.74 221.71,76.70 222.88,76.67 224.04,76.64 225.21,76.61 226.38,76.58 227.55,76.55 228.72,76.53 229.89,76.50 231.05,76.48 232.22,76.46 233.39,76.43 234.56,76.41 235.73,76.39 236.90,76.37 238.06,76.34 239.23,76.32 240.40,76.30 241.57,76.28 242.74,76.26 247.41,76.19 257.93,76.07 267.27,76.02 277.79,76.00 287.13,76.00 297.65,76.00 307.00,76.00 317.51,76.00 319.85,76.00 326.86,76.00 336.21,76.00 343.22,76.00 346.72,76.00 356.07,76.00 360.74,76.00 366.58,76.00 375.93,76.00 380.60,76.00 386.44,76.00 395.79,76.00 406.31,76.00 415.65,76.00 426.17,76.00 435.52,76.00 444.86,76.00 455.38,76.00 464.72,76.00 475.24,76.00 484.59,76.00 490.43,76.00 495.10,76.00 498.61,76.00 503.28,76.00 504.45,76.00 514.96,76.00 524.31,76.00 533.66,76.00 544.17,76.00 553.52,76.00 564.03,76.00 573.38,76.00 583.90,76.00 593.24,76.00 603.76,76.00 613.10,76.00 623.62,76.00 632.97,76.00 642.31,76.00 652.83,76.00 662.18,76.00 672.69,76.00 682.04,76.00 692.55,76.00 701.90,76.00 712.41,76.00 721.76,76.00 732.28,76.00 740.45,76.00"/>
<polyline fill="none" stroke="#2ca02c" stroke-width="2.0" opacity="1.0" points="109.55,343.55 118.89,320.66 129.41,294.91 138.75,272.03 149.27,246.28 158.62,223.39 169.13,197.65 178.48,174.76 188.99,149.01 198.34,126.13 206.52,106.10 207.69,103.24 208.86,100.38 210.02,97.52 211.19,94.66 212.36,91.80 213.53,88.94 214.70,86.39 215.87,84.23 217.03,82.42 218.20,80.96 219.37,79.79 220.54,78.88 221.71,78.20 222.88,77.69 224.04,77.32 225.21,77.05 226.38,76.86 227.55,76.72 228.72,76.62 229.89,76.54 231.05,76.48 232.22,76.44 233.39,76.40 234.56,76.37 235.73,76.34 236.90,76.32 238.06,76.30 239.23,76.28 240.40,76.26 241.57,76.25 242.74,76.23 247.41,76.17 257.93,76.07 267.27,76.02 277.79,76.00 287.13,76.00 297.65,76.00 307.00,76.00 317.51,76.00 319.85,76.00 326.86,76.00 336.21,76.00 343.22,76.00 346.72,76.00 356.07,76.00 360.74,76.00 366.58,76.00 375.93,76.00 380.60,76.00 386.44,76.00 395.79,76.00 406.31,76.00 415.65,76.00 426.17,76.00 435.52,76.00 444.86,76.00 455.38,76.00 464.72,76.00 475.24,76.00 484.59,76.00 490.43,76.00 495.10,76.00 498.61,76.00 503.28,76.00 504.45,76.00 514.96,76.00 524.31,76.00 533.66,76.00 544.17,76.00 553.52,76.00 564.03,76.00 573.38,76.00 583.90,76.00 593.24,76.00 603.76,76.00 613.10,76.00 623.62,76.00 632.97,76.00 642.31,76.00 652.83,76.00 662.18,76.00 672.69,76.00 682.04,76.00 692.55,76.00 701.90,76.00 712.41,76.00 721.76,76.00 732.28,76.00 740.45,76.00"/>
<polyline fill="none" stroke="#9467bd" stroke-width="1.2" opacity="0.55" stroke-dasharray="4 4" points="109.55,76.00 113.05,76.00 116.56,76.00 118.89,76.00 122.40,76.00 125.90,76.00 129.41,76.00 132.91,76.00 136.42,76.00 137.59,76.00 138.75,76.00 139.92,76.00 141.09,76.00 142.26,76.00 145.76,76.00 149.27,76.00 152.77,76.00 156.28,76.00 157.45,76.00 158.62,76.00 162.12,76.00 165.63,76.00 169.13,76.00 172.64,76.00 176.14,76.00 177.31,76.00 178.48,76.00 180.81,76.00 181.98,76.00 185.49,76.00 188.99,76.00 192.50,76.00 193.67,76.00 196.00,76.00 198.34,76.00 199.51,76.00 201.85,76.00 205.35,76.00 208.86,76.00 210.02,76.00 211.19,76.00 212.36,76.00 213.53,76.00 215.87,76.00 217.03,76.00 218.20,76.00 221.71,76.00 222.88,76.00 225.21,76.00 227.55,76.00 228.72,76.00 232.22,76.00 234.56,76.00 235.73,76.00 238.06,76.00 239.23,76.00 241.57,76.00 243.91,76.00 245.07,76.00 248.58,76.00 252.08,76.00 254.42,76.00 257.93,76.00 259.09,76.00 261.43,76.00 264.94,76.00 266.10,76.00 267.27,76.00 268.44,76.00 271.95,76.00 274.28,76.00 275.45,76.00 276.62,76.00 277.79,76.00 281.29,76.00 283.63,76.00 284.80,76.00 288.30,76.00 290.64,76.00 291.81,76.00 294.14,76.00 295.31,76.00 296.48,76.00 297.65,76.00 301.15,76.00 302.32,76.00 304.66,76.00 305.83,76.00 307.00,76.00 308.16,76.00 309.33,76.00 310.50,76.00 311.67,76.00 312.84,76.00 314.01,76.00 315.18,76.00 316.34,76.00 317.51,76.00 319.85,76.00 740.45,76.00"/>
<polyline fill="none" stroke="#9467bd" stroke-width="1.2" opacity="0.55" stroke-dasharray="4 4" points="109.55,76.00 113.05,76.00 116.56,76.00 118.89,76.00 122.40,76.00 125.90,76.00 129.41,76.00 132.91,76.00 136.42,76.00 137.59,76.00 138.75,76.00 139.92,76.00 141.09,76.00 142.26,76.00 145.76,76.00 149.27,76.00 152.77,76.00 156.28,76.00 157.45,76.00 158.62,76.00 162.12,76.00 165.63,76.00 169.13,76.00 172.64,76.00 176.14,76.00 177.31,76.00 178.48,76.00 180.81,76.00 181.98,76.00 185.49,76.00 188.99,76.00 192.50,76.00 193.67,76.00 196.00,76.00 198.34,76.00 199.51,76.00 201.85,76.00 205.35,76.00 208.86,76.00 210.02,76.00 211.19,76.00 212.36,76.00 213.53,76.00 215.87,76.00 217.03,76.00 218.20,76.00 221.71,76.00 222.88,76.00 225.21,76.00 227.55,76.00 228.72,76.00 232.22,76.00 234.56,76.00 235.73,76.00 238.06,76.00 239.23,76.00 241.57,76.00 243.91,76.00 245.07,76.00 248.58,76.00 252.08,76.00 254.42,76.00 257.93,76.00 259.09,76.00 261.43,76.00 264.94,76.00 266.10,76.00 267.27,76.00 268.44,76.00 271.95,76.00 274.28,76.00 275.45,76.00 276.62,76.00 277.79,76.00 281.29,76.00 283.63,76.00 284.80,76.00 288.30,76.00 290.64,76.00 291.81,76.00 294.14,76.00 295.31,76.00 296.48,76.00 297.65,76.00 301.15,76.00 302.32,76.00 304.66,76.00 305.83,76.00 307.00,76.00 308.16,76.00 309.33,76.00 310.50,76.00 311.67,76.00 312.84,76.00 314.01,76.00 315.18,76.00 316.34,76.00 317.51,76.00 319.85,76.00 740.45,76.00"/>
<polyline fill="none" stroke="#9467bd" stroke-width="2.0" opacity="1.0" points="109.55,76.00 113.05,76.00 116.56,76.00 118.89,76.00 122.40,76.00 125.90,76.00 129.41,76.00 132.91,76.00 136.42,76.00 137.59,76.00 138.75,76.00 139.92,76.00 141.09,76.00 142.26,76.00 145.76,76.00 149.27,76.00 152.77,76.00 156.28,76.00 157.45,76.00 158.62,76.00 162.12,76.00 165.63,76.00 169.13,76.00 172.64,76.00 176.14,76.00 177.31,76.00 178.48,76.00 180.81,76.00 181.98,76.00 185.49,76.00 188.99,76.00 192.50,76.00 193.67,76.00 196.00,76.00 198.34,76.00 199.51,76.00 201.85,76.00 205.35,76.00 208.86,76.00 210.02,76.00 211.19,76.00 212.36,76.00 213.53,76.00 215.87,76.00 217.03,76.00 218.20,76.00 221.71,76.00 222.88,76.00 225.21,76.00 227.55,76.00 228.72,76.00 232.22,76.00 234.56,76.00 235.73,76.00 238.06,76.00 239.23,76.00 241.57,76.00 243.91,76.00 245.07,76.00 248.58,76.00 252.08,76.00 254.42,76.00 257.93,76.00 259.09,76.00 261.43,76.00 264.94,76.00 266.10,76.00 267.27,76.00 268.44,76.00 271.95,76.00 274.28,76.00 275.45,76.00 276.62,76.00 277.79,76.00 281.29,76.00 283.63,76.00 284.80,76.00 288.30,76.00 290.64,76.00 291.81,76.00 294.14,76.00 295.31,76.00 296.48,76.00 297.65,76.00 301.15,76.00 302.32,76.00 304.66,76.00 305.83,76.00 307.00,76.00 308.16,76.00 309.33,76.00 310.50,76.00 311.67,76.00 312.84,76.00 314.01,76.00 315.18,76.00 316.34,76.00 317.51,76.00 319.85,76.00 740.45,76.00"/>
<line x1="88" y1="70" x2="110" y2="70" stroke="#2ca02c" stroke-width="2.4"/>
<text x="116" y="74" font-family="Arial, sans-serif" font-size="12">[GND Clamp]</text>
<line x1="88" y1="88" x2="110" y2="88" stroke="#9467bd" stroke-width="2.4"/>
<text x="116" y="92" font-family="Arial, sans-serif" font-size="12">[POWER Clamp]</text>
<text x="425.00" y="444.00" text-anchor="middle" font-family="Arial, sans-serif" font-size="12">Table voltage (V)</text>
<text transform="translate(18 226.00) rotate(-90)" text-anchor="middle" font-family="Arial, sans-serif" font-size="12">Current (A)</text>
<text x="420" y="42" font-family="Arial, sans-serif" font-size="11" fill="#555">solid=typ, dashed=min/max; dashed vertical=required sweep boundary (5.3.4/5.3.5)</text>
</svg>