<svg xmlns="http://www.w3.org/2000/svg" width="800" height="520" viewBox="0 0 800 520">
<rect width="100%" height="100%" fill="#ffffff"/>
<text x="78" y="25" font-family="Arial, sans-serif" font-size="16" font-weight="700">E34_GPIO_SPI_I3C_MST_1V2_01 I-V Clamp Detail</text>
<rect x="78" y="54" width="690" height="306" fill="#fbfbfb" stroke="#c8c8c8"/>
<line x1="78.00" y1="54" x2="78.00" y2="360" stroke="#ececec"/>
<text x="78.00" y="382" text-anchor="middle" font-family="Arial, sans-serif" font-size="11">0</text>
<line x1="216.00" y1="54" x2="216.00" y2="360" stroke="#ececec"/>
<text x="216.00" y="382" text-anchor="middle" font-family="Arial, sans-serif" font-size="11">0.24</text>
<line x1="354.00" y1="54" x2="354.00" y2="360" stroke="#ececec"/>
<text x="354.00" y="382" text-anchor="middle" font-family="Arial, sans-serif" font-size="11">0.48</text>
<line x1="492.00" y1="54" x2="492.00" y2="360" stroke="#ececec"/>
<text x="492.00" y="382" text-anchor="middle" font-family="Arial, sans-serif" font-size="11">0.72</text>
<line x1="630.00" y1="54" x2="630.00" y2="360" stroke="#ececec"/>
<text x="630.00" y="382" text-anchor="middle" font-family="Arial, sans-serif" font-size="11">0.96</text>
<line x1="768.00" y1="54" x2="768.00" y2="360" stroke="#ececec"/>
<text x="768.00" y="382" text-anchor="middle" font-family="Arial, sans-serif" font-size="11">1.2</text>
<line x1="78" y1="360.00" x2="768" y2="360.00" stroke="#ececec"/>
<text x="70" y="364.00" text-anchor="end" font-family="Arial, sans-serif" font-size="11">-4.4e-07</text>
<line x1="78" y1="298.80" x2="768" y2="298.80" stroke="#ececec"/>
<text x="70" y="302.80" text-anchor="end" font-family="Arial, sans-serif" font-size="11">5.3e-08</text>
<line x1="78" y1="237.60" x2="768" y2="237.60" stroke="#ececec"/>
<text x="70" y="241.60" text-anchor="end" font-family="Arial, sans-serif" font-size="11">5.5e-07</text>
<line x1="78" y1="176.40" x2="768" y2="176.40" stroke="#ececec"/>
<text x="70" y="180.40" text-anchor="end" font-family="Arial, sans-serif" font-size="11">1.0e-06</text>
<line x1="78" y1="115.20" x2="768" y2="115.20" stroke="#ececec"/>
<text x="70" y="119.20" text-anchor="end" font-family="Arial, sans-serif" font-size="11">1.5e-06</text>
<line x1="78" y1="54.00" x2="768" y2="54.00" stroke="#ececec"/>
<text x="70" y="58.00" text-anchor="end" font-family="Arial, sans-serif" font-size="11">2.0e-06</text>
<line x1="78.00" y1="54" x2="78.00" y2="360" stroke="#777" stroke-dasharray="4 4"/>
<line x1="78" y1="305.43" x2="768" y2="305.43" stroke="#777" stroke-dasharray="4 4"/>
<line x1="78.00" y1="54" x2="78.00" y2="360" stroke="#555" stroke-dasharray="2 4"/>
<text x="82.00" y="68" font-family="Arial, sans-serif" font-size="11" fill="#555">0V</text>
<line x1="768.00" y1="54" x2="768.00" y2="360" stroke="#555" stroke-dasharray="2 4"/>
<text x="772.00" y="68" font-family="Arial, sans-serif" font-size="11" fill="#555">Vcc</text>
<polyline fill="none" stroke="#2ca02c" stroke-width="1.2" opacity="0.55" stroke-dasharray="4 4" points="78.00,322.91 101.00,318.47 135.50,316.32 164.25,315.66 198.75,315.14 227.50,314.73 233.25,314.65 262.00,314.26 296.50,313.78 302.25,313.71 331.00,313.31 354.00,313.00 359.75,312.92 394.25,312.44 423.00,312.04 428.75,311.96 457.50,311.56 492.00,311.07 515.00,310.73 520.75,310.63 555.25,309.88 589.75,307.34 618.50,298.31 653.00,261.72 687.50,206.32 716.25,165.09 750.75,115.76 768.00,91.09"/>
<polyline fill="none" stroke="#2ca02c" stroke-width="1.2" opacity="0.55" stroke-dasharray="4 4" points="78.00,305.47 101.00,305.46 135.50,305.46 164.25,305.46 198.75,305.46 227.50,305.46 233.25,305.46 262.00,305.45 296.50,305.45 302.25,305.45 331.00,305.45 354.00,305.45 359.75,305.45 394.25,305.45 423.00,305.44 428.75,305.44 457.50,305.44 492.00,305.44 515.00,305.44 520.75,305.44 555.25,305.43 589.75,305.43 618.50,305.43 653.00,305.43 687.50,305.43 716.25,305.42 750.75,305.42 768.00,305.42"/>
<polyline fill="none" stroke="#2ca02c" stroke-width="2.0" opacity="1.0" points="78.00,305.69 101.00,305.63 135.50,305.60 164.25,305.59 198.75,305.58 227.50,305.57 233.25,305.57 262.00,305.56 296.50,305.55 302.25,305.55 331.00,305.54 354.00,305.53 359.75,305.53 394.25,305.52 423.00,305.51 428.75,305.51 457.50,305.50 492.00,305.49 515.00,305.48 520.75,305.48 555.25,305.47 589.75,305.46 618.50,305.45 653.00,305.44 687.50,305.43 716.25,305.42 750.75,305.21 768.00,304.88"/>
<polyline fill="none" stroke="#9467bd" stroke-width="1.2" opacity="0.55" stroke-dasharray="4 4" points="78.00,305.43 768.00,305.43"/>
<polyline fill="none" stroke="#9467bd" stroke-width="1.2" opacity="0.55" stroke-dasharray="4 4" points="78.00,305.43 768.00,305.43"/>
<polyline fill="none" stroke="#9467bd" stroke-width="2.0" opacity="1.0" points="78.00,305.43 768.00,305.43"/>
<circle cx="78.00" cy="305.69" r="4.0" fill="#ffffff" stroke="#2ca02c" stroke-width="1.5"/>
<circle cx="78.00" cy="322.91" r="3.0" fill="#ffffff" stroke="#2ca02c" stroke-width="1.5"/>
<circle cx="78.00" cy="305.47" r="3.0" fill="#ffffff" stroke="#2ca02c" stroke-width="1.5"/>
<circle cx="78.00" cy="305.43" r="4.0" fill="#ffffff" stroke="#9467bd" stroke-width="1.5"/>
<circle cx="78.00" cy="305.43" r="3.0" fill="#ffffff" stroke="#9467bd" stroke-width="1.5"/>
<circle cx="78.00" cy="305.43" r="3.0" fill="#ffffff" stroke="#9467bd" stroke-width="1.5"/>
<line x1="88" y1="72" x2="110" y2="72" stroke="#2ca02c" stroke-width="2.4"/>
<text x="116" y="76" font-family="Arial, sans-serif" font-size="12">[GND Clamp]</text>
<line x1="88" y1="90" x2="110" y2="90" stroke="#9467bd" stroke-width="2.4"/>
<text x="116" y="94" font-family="Arial, sans-serif" font-size="12">[POWER Clamp]</text>
<text x="423.00" y="404.00" text-anchor="middle" font-family="Arial, sans-serif" font-size="12">Table voltage (V), zoomed 0..Vcc</text>
<text transform="translate(18 207.00) rotate(-90)" text-anchor="middle" font-family="Arial, sans-serif" font-size="12">Current (A)</text>
<text x="420" y="42" font-family="Arial, sans-serif" font-size="11" fill="#555">clamp curves show typ/min/max; open circles mark clamp I(0 V)</text>
</svg>