<svg xmlns="http://www.w3.org/2000/svg" width="800" height="560" viewBox="0 0 800 560">
<rect width="100%" height="100%" fill="#ffffff"/>
<text x="78" y="25" font-family="Arial, sans-serif" font-size="16" font-weight="700">E34_GPIO_SPI_I3C_MST_1V8_11 I-V Clamp Sweep Range</text>
<rect x="78" y="52" width="694" height="348" fill="#fbfbfb" stroke="#c8c8c8"/>
<line x1="78.00" y1="52" x2="78.00" y2="400" stroke="#ececec"/>
<text x="78.00" y="422" text-anchor="middle" font-family="Arial, sans-serif" font-size="11">-2.1</text>
<line x1="216.80" y1="52" x2="216.80" y2="400" stroke="#ececec"/>
<text x="216.80" y="422" text-anchor="middle" font-family="Arial, sans-serif" font-size="11">-0.882</text>
<line x1="355.60" y1="52" x2="355.60" y2="400" stroke="#ececec"/>
<text x="355.60" y="422" text-anchor="middle" font-family="Arial, sans-serif" font-size="11">0.306</text>
<line x1="494.40" y1="52" x2="494.40" y2="400" stroke="#ececec"/>
<text x="494.40" y="422" text-anchor="middle" font-family="Arial, sans-serif" font-size="11">1.5</text>
<line x1="633.20" y1="52" x2="633.20" y2="400" stroke="#ececec"/>
<text x="633.20" y="422" text-anchor="middle" font-family="Arial, sans-serif" font-size="11">2.7</text>
<line x1="772.00" y1="52" x2="772.00" y2="400" stroke="#ececec"/>
<text x="772.00" y="422" text-anchor="middle" font-family="Arial, sans-serif" font-size="11">3.9</text>
<line x1="78" y1="400.00" x2="772" y2="400.00" stroke="#ececec"/>
<text x="70" y="404.00" text-anchor="end" font-family="Arial, sans-serif" font-size="11">-1.9</text>
<line x1="78" y1="330.40" x2="772" y2="330.40" stroke="#ececec"/>
<text x="70" y="334.40" text-anchor="end" font-family="Arial, sans-serif" font-size="11">-1.5</text>
<line x1="78" y1="260.80" x2="772" y2="260.80" stroke="#ececec"/>
<text x="70" y="264.80" text-anchor="end" font-family="Arial, sans-serif" font-size="11">-1.1</text>
<line x1="78" y1="191.20" x2="772" y2="191.20" stroke="#ececec"/>
<text x="70" y="195.20" text-anchor="end" font-family="Arial, sans-serif" font-size="11">-0.692</text>
<line x1="78" y1="121.60" x2="772" y2="121.60" stroke="#ececec"/>
<text x="70" y="125.60" text-anchor="end" font-family="Arial, sans-serif" font-size="11">-0.274</text>
<line x1="78" y1="52.00" x2="772" y2="52.00" stroke="#ececec"/>
<text x="70" y="56.00" text-anchor="end" font-family="Arial, sans-serif" font-size="11">0.144</text>
<line x1="319.85" y1="52" x2="319.85" y2="400" stroke="#777" stroke-dasharray="4 4"/>
<line x1="78" y1="76.00" x2="772" y2="76.00" stroke="#777" stroke-dasharray="4 4"/>
<line x1="109.55" y1="52" x2="109.55" y2="400" stroke="#555" stroke-dasharray="2 4"/>
<text x="113.55" y="66" font-family="Arial, sans-serif" font-size="11" fill="#555">-Vcc</text>
<line x1="530.15" y1="52" x2="530.15" y2="400" stroke="#555" stroke-dasharray="2 4"/>
<text x="534.15" y="66" font-family="Arial, sans-serif" font-size="11" fill="#555">Vcc</text>
<line x1="740.45" y1="52" x2="740.45" y2="400" stroke="#555" stroke-dasharray="2 4"/>
<text x="744.45" y="66" font-family="Arial, sans-serif" font-size="11" fill="#555">2Vcc</text>
<polyline fill="none" stroke="#2ca02c" stroke-width="1.2" opacity="0.55" stroke-dasharray="4 4" points="109.55,376.00 118.89,353.35 129.41,327.88 138.75,305.23 149.27,279.75 158.62,257.11 169.13,231.63 178.48,208.98 188.99,183.50 198.34,160.86 208.86,135.38 210.02,132.55 211.19,129.72 212.36,126.89 213.53,124.06 214.70,121.23 215.87,118.39 217.03,115.56 218.20,112.73 219.37,109.90 220.54,107.07 221.71,104.24 222.88,101.41 224.04,98.58 225.21,95.75 226.38,93.05 227.55,90.65 228.72,88.52 229.89,86.64 231.05,85.00 232.22,83.58 233.39,82.36 234.56,81.32 235.73,80.44 236.90,79.71 238.06,79.11 239.23,78.62 240.40,78.21 241.57,77.89 242.74,77.62 243.91,77.40 245.07,77.22 247.41,76.95 257.93,76.37 267.27,76.15 277.79,76.04 287.13,76.01 297.65,76.00 307.00,76.00 317.51,76.00 319.85,76.00 326.86,76.00 336.21,76.00 340.88,76.00 346.72,76.00 347.89,76.00 356.07,76.00 360.74,76.00 366.58,76.00 375.93,76.00 386.44,76.00 395.79,76.00 406.31,76.00 415.65,76.00 426.17,76.00 435.52,76.00 444.86,76.00 451.87,76.00 455.38,76.00 464.72,76.00 475.24,76.00 484.59,76.00 488.09,76.00 495.10,76.00 504.45,76.00 514.96,76.00 519.64,76.00 524.31,76.00 533.66,76.00 544.17,76.00 553.52,76.00 564.03,76.00 573.38,76.00 583.90,76.00 593.24,76.00 603.76,76.00 613.10,76.00 623.62,76.00 632.97,76.00 642.31,76.00 652.83,76.00 662.18,76.00 672.69,76.00 682.04,76.00 692.55,76.00 701.90,76.00 712.41,76.00 721.76,76.00 732.28,76.00 740.45,76.00"/>
<polyline fill="none" stroke="#2ca02c" stroke-width="1.2" opacity="0.55" stroke-dasharray="4 4" points="109.55,329.71 118.89,307.06 129.41,281.58 138.75,258.94 149.27,233.46 158.62,210.81 169.13,185.33 178.48,162.69 188.99,137.21 198.34,114.56 208.86,89.09 210.02,86.30 211.19,84.28 212.36,82.86 213.53,81.88 214.70,81.20 215.87,80.72 217.03,80.37 218.20,80.10 219.37,79.88 220.54,79.69 221.71,79.53 222.88,79.37 224.04,79.23 225.21,79.09 226.38,78.95 227.55,78.82 228.72,78.69 229.89,78.56 231.05,78.44 232.22,78.31 233.39,78.19 234.56,78.07 235.73,77.96 236.90,77.84 238.06,77.73 239.23,77.62 240.40,77.52 241.57,77.41 242.74,77.31 243.91,77.22 245.07,77.12 247.41,76.95 257.93,76.35 267.27,76.09 277.79,76.01 287.13,76.00 297.65,76.00 307.00,76.00 317.51,76.00 319.85,76.00 326.86,76.00 336.21,76.00 340.88,76.00 346.72,76.00 347.89,76.00 356.07,76.00 360.74,76.00 366.58,76.00 375.93,76.00 386.44,76.00 395.79,76.00 406.31,76.00 415.65,76.00 426.17,76.00 435.52,76.00 444.86,76.00 451.87,76.00 455.38,76.00 464.72,76.00 475.24,76.00 484.59,76.00 488.09,76.00 495.10,76.00 504.45,76.00 514.96,76.00 519.64,76.00 524.31,76.00 533.66,76.00 544.17,76.00 553.52,76.00 564.03,76.00 573.38,76.00 583.90,76.00 593.24,76.00 603.76,76.00 613.10,76.00 623.62,76.00 632.97,76.00 642.31,76.00 652.83,76.00 662.18,76.00 672.69,76.00 682.04,76.00 692.55,76.00 701.90,76.00 712.41,76.00 721.76,76.00 732.28,76.00 740.45,76.00"/>
<polyline fill="none" stroke="#2ca02c" stroke-width="2.0" opacity="1.0" points="109.55,346.16 118.89,323.51 129.41,298.03 138.75,275.39 149.27,249.91 158.62,227.26 169.13,201.79 178.48,179.14 188.99,153.66 198.34,131.02 208.86,105.54 210.02,102.71 211.19,99.88 212.36,97.05 213.53,94.21 214.70,91.38 215.87,88.55 217.03,86.15 218.20,84.22 219.37,82.70 220.54,81.53 221.71,80.62 222.88,79.94 224.04,79.42 225.21,79.02 226.38,78.72 227.55,78.47 228.72,78.28 229.89,78.11 231.05,77.97 232.22,77.84 233.39,77.72 234.56,77.62 235.73,77.52 236.90,77.42 238.06,77.33 239.23,77.25 240.40,77.17 241.57,77.09 242.74,77.01 243.91,76.94 245.07,76.87 247.41,76.74 257.93,76.30 267.27,76.09 277.79,76.02 287.13,76.00 297.65,76.00 307.00,76.00 317.51,76.00 319.85,76.00 326.86,76.00 336.21,76.00 340.88,76.00 346.72,76.00 347.89,76.00 356.07,76.00 360.74,76.00 366.58,76.00 375.93,76.00 386.44,76.00 395.79,76.00 406.31,76.00 415.65,76.00 426.17,76.00 435.52,76.00 444.86,76.00 451.87,76.00 455.38,76.00 464.72,76.00 475.24,76.00 484.59,76.00 488.09,76.00 495.10,76.00 504.45,76.00 514.96,76.00 519.64,76.00 524.31,76.00 533.66,76.00 544.17,76.00 553.52,76.00 564.03,76.00 573.38,76.00 583.90,76.00 593.24,76.00 603.76,76.00 613.10,76.00 623.62,76.00 632.97,76.00 642.31,76.00 652.83,76.00 662.18,76.00 672.69,76.00 682.04,76.00 692.55,76.00 701.90,76.00 712.41,76.00 721.76,76.00 732.28,76.00 740.45,76.00"/>
<polyline fill="none" stroke="#9467bd" stroke-width="1.2" opacity="0.55" stroke-dasharray="4 4" points="109.55,76.00 113.05,76.00 116.56,76.00 118.89,76.00 122.40,76.00 125.90,76.00 129.41,76.00 132.91,76.00 135.25,76.00 136.42,76.00 138.75,76.00 142.26,76.00 144.60,76.00 145.76,76.00 146.93,76.00 148.10,76.00 149.27,76.00 152.77,76.00 156.28,76.00 158.62,76.00 162.12,76.00 165.63,76.00 169.13,76.00 170.30,76.00 171.47,76.00 172.64,76.00 173.80,76.00 176.14,76.00 178.48,76.00 181.98,76.00 185.49,76.00 187.82,76.00 188.99,76.00 191.33,76.00 192.50,76.00 193.67,76.00 194.84,76.00 196.00,76.00 197.17,76.00 198.34,76.00 201.85,76.00 205.35,76.00 208.86,76.00 210.02,76.00 211.19,76.00 212.36,76.00 213.53,76.00 214.70,76.00 215.87,76.00 218.20,76.00 219.37,76.00 220.54,76.00 221.71,76.00 225.21,76.00 227.55,76.00 228.72,76.00 232.22,76.00 234.56,76.00 238.06,76.00 241.57,76.00 245.07,76.00 248.58,76.00 249.75,76.00 250.92,76.00 252.08,76.00 254.42,76.00 256.76,76.00 257.93,76.00 260.26,76.00 261.43,76.00 263.77,76.00 264.94,76.00 266.10,76.00 267.27,76.00 268.44,76.00 271.95,76.00 274.28,76.00 277.79,76.00 278.96,76.00 280.12,76.00 281.29,76.00 283.63,76.00 284.80,76.00 285.97,76.00 287.13,76.00 288.30,76.00 289.47,76.00 290.64,76.00 291.81,76.00 294.14,76.00 297.65,76.00 301.15,76.00 304.66,76.00 308.16,76.00 311.67,76.00 314.01,76.00 315.18,76.00 317.51,76.00 319.85,76.00 740.45,76.00"/>
<polyline fill="none" stroke="#9467bd" stroke-width="1.2" opacity="0.55" stroke-dasharray="4 4" points="109.55,76.00 113.05,76.00 116.56,76.00 118.89,76.00 122.40,76.00 125.90,76.00 129.41,76.00 132.91,76.00 135.25,76.00 136.42,76.00 138.75,76.00 142.26,76.00 144.60,76.00 145.76,76.00 146.93,76.00 148.10,76.00 149.27,76.00 152.77,76.00 156.28,76.00 158.62,76.00 162.12,76.00 165.63,76.00 169.13,76.00 170.30,76.00 171.47,76.00 172.64,76.00 173.80,76.00 176.14,76.00 178.48,76.00 181.98,76.00 185.49,76.00 187.82,76.00 188.99,76.00 191.33,76.00 192.50,76.00 193.67,76.00 194.84,76.00 196.00,76.00 197.17,76.00 198.34,76.00 201.85,76.00 205.35,76.00 208.86,76.00 210.02,76.00 211.19,76.00 212.36,76.00 213.53,76.00 214.70,76.00 215.87,76.00 218.20,76.00 219.37,76.00 220.54,76.00 221.71,76.00 225.21,76.00 227.55,76.00 228.72,76.00 232.22,76.00 234.56,76.00 238.06,76.00 241.57,76.00 245.07,76.00 248.58,76.00 249.75,76.00 250.92,76.00 252.08,76.00 254.42,76.00 256.76,76.00 257.93,76.00 260.26,76.00 261.43,76.00 263.77,76.00 264.94,76.00 266.10,76.00 267.27,76.00 268.44,76.00 271.95,76.00 274.28,76.00 277.79,76.00 278.96,76.00 280.12,76.00 281.29,76.00 283.63,76.00 284.80,76.00 285.97,76.00 287.13,76.00 288.30,76.00 289.47,76.00 290.64,76.00 291.81,76.00 294.14,76.00 297.65,76.00 301.15,76.00 304.66,76.00 308.16,76.00 311.67,76.00 314.01,76.00 315.18,76.00 317.51,76.00 319.85,76.00 740.45,76.00"/>
<polyline fill="none" stroke="#9467bd" stroke-width="2.0" opacity="1.0" points="109.55,76.00 113.05,76.00 116.56,76.00 118.89,76.00 122.40,76.00 125.90,76.00 129.41,76.00 132.91,76.00 135.25,76.00 136.42,76.00 138.75,76.00 142.26,76.00 144.60,76.00 145.76,76.00 146.93,76.00 148.10,76.00 149.27,76.00 152.77,76.00 156.28,76.00 158.62,76.00 162.12,76.00 165.63,76.00 169.13,76.00 170.30,76.00 171.47,76.00 172.64,76.00 173.80,76.00 176.14,76.00 178.48,76.00 181.98,76.00 185.49,76.00 187.82,76.00 188.99,76.00 191.33,76.00 192.50,76.00 193.67,76.00 194.84,76.00 196.00,76.00 197.17,76.00 198.34,76.00 201.85,76.00 205.35,76.00 208.86,76.00 210.02,76.00 211.19,76.00 212.36,76.00 213.53,76.00 214.70,76.00 215.87,76.00 218.20,76.00 219.37,76.00 220.54,76.00 221.71,76.00 225.21,76.00 227.55,76.00 228.72,76.00 232.22,76.00 234.56,76.00 238.06,76.00 241.57,76.00 245.07,76.00 248.58,76.00 249.75,76.00 250.92,76.00 252.08,76.00 254.42,76.00 256.76,76.00 257.93,76.00 260.26,76.00 261.43,76.00 263.77,76.00 264.94,76.00 266.10,76.00 267.27,76.00 268.44,76.00 271.95,76.00 274.28,76.00 277.79,76.00 278.96,76.00 280.12,76.00 281.29,76.00 283.63,76.00 284.80,76.00 285.97,76.00 287.13,76.00 288.30,76.00 289.47,76.00 290.64,76.00 291.81,76.00 294.14,76.00 297.65,76.00 301.15,76.00 304.66,76.00 308.16,76.00 311.67,76.00 314.01,76.00 315.18,76.00 317.51,76.00 319.85,76.00 740.45,76.00"/>
<line x1="88" y1="70" x2="110" y2="70" stroke="#2ca02c" stroke-width="2.4"/>
<text x="116" y="74" font-family="Arial, sans-serif" font-size="12">[GND Clamp]</text>
<line x1="88" y1="88" x2="110" y2="88" stroke="#9467bd" stroke-width="2.4"/>
<text x="116" y="92" font-family="Arial, sans-serif" font-size="12">[POWER Clamp]</text>
<text x="425.00" y="444.00" text-anchor="middle" font-family="Arial, sans-serif" font-size="12">Table voltage (V)</text>
<text transform="translate(18 226.00) rotate(-90)" text-anchor="middle" font-family="Arial, sans-serif" font-size="12">Current (A)</text>
<text x="420" y="42" font-family="Arial, sans-serif" font-size="11" fill="#555">solid=typ, dashed=min/max; dashed vertical=required sweep boundary (5.3.4/5.3.5)</text>
</svg>