<svg xmlns="http://www.w3.org/2000/svg" width="800" height="560" viewBox="0 0 800 560">
<rect width="100%" height="100%" fill="#ffffff"/>
<text x="78" y="25" font-family="Arial, sans-serif" font-size="16" font-weight="700">E34_GPIO_I2CSCLIN_1V1_01 I-V Clamp Sweep Range</text>
<rect x="78" y="52" width="694" height="348" fill="#fbfbfb" stroke="#c8c8c8"/>
<line x1="78.00" y1="52" x2="78.00" y2="400" stroke="#ececec"/>
<text x="78.00" y="422" text-anchor="middle" font-family="Arial, sans-serif" font-size="11">-1.3</text>
<line x1="216.80" y1="52" x2="216.80" y2="400" stroke="#ececec"/>
<text x="216.80" y="422" text-anchor="middle" font-family="Arial, sans-serif" font-size="11">-0.539</text>
<line x1="355.60" y1="52" x2="355.60" y2="400" stroke="#ececec"/>
<text x="355.60" y="422" text-anchor="middle" font-family="Arial, sans-serif" font-size="11">0.187</text>
<line x1="494.40" y1="52" x2="494.40" y2="400" stroke="#ececec"/>
<text x="494.40" y="422" text-anchor="middle" font-family="Arial, sans-serif" font-size="11">0.913</text>
<line x1="633.20" y1="52" x2="633.20" y2="400" stroke="#ececec"/>
<text x="633.20" y="422" text-anchor="middle" font-family="Arial, sans-serif" font-size="11">1.6</text>
<line x1="772.00" y1="52" x2="772.00" y2="400" stroke="#ececec"/>
<text x="772.00" y="422" text-anchor="middle" font-family="Arial, sans-serif" font-size="11">2.4</text>
<line x1="78" y1="400.00" x2="772" y2="400.00" stroke="#ececec"/>
<text x="70" y="404.00" text-anchor="end" font-family="Arial, sans-serif" font-size="11">-0.639</text>
<line x1="78" y1="330.40" x2="772" y2="330.40" stroke="#ececec"/>
<text x="70" y="334.40" text-anchor="end" font-family="Arial, sans-serif" font-size="11">-0.501</text>
<line x1="78" y1="260.80" x2="772" y2="260.80" stroke="#ececec"/>
<text x="70" y="264.80" text-anchor="end" font-family="Arial, sans-serif" font-size="11">-0.364</text>
<line x1="78" y1="191.20" x2="772" y2="191.20" stroke="#ececec"/>
<text x="70" y="195.20" text-anchor="end" font-family="Arial, sans-serif" font-size="11">-0.227</text>
<line x1="78" y1="121.60" x2="772" y2="121.60" stroke="#ececec"/>
<text x="70" y="125.60" text-anchor="end" font-family="Arial, sans-serif" font-size="11">-0.0899</text>
<line x1="78" y1="52.00" x2="772" y2="52.00" stroke="#ececec"/>
<text x="70" y="56.00" text-anchor="end" font-family="Arial, sans-serif" font-size="11">0.0473</text>
<line x1="319.85" y1="52" x2="319.85" y2="400" stroke="#777" stroke-dasharray="4 4"/>
<line x1="78" y1="76.00" x2="772" y2="76.00" stroke="#777" stroke-dasharray="4 4"/>
<line x1="109.55" y1="52" x2="109.55" y2="400" stroke="#555" stroke-dasharray="2 4"/>
<text x="113.55" y="66" font-family="Arial, sans-serif" font-size="11" fill="#555">-Vcc</text>
<line x1="530.15" y1="52" x2="530.15" y2="400" stroke="#555" stroke-dasharray="2 4"/>
<text x="534.15" y="66" font-family="Arial, sans-serif" font-size="11" fill="#555">Vcc</text>
<line x1="740.45" y1="52" x2="740.45" y2="400" stroke="#555" stroke-dasharray="2 4"/>
<text x="744.45" y="66" font-family="Arial, sans-serif" font-size="11" fill="#555">2Vcc</text>
<polyline fill="none" stroke="#2ca02c" stroke-width="1.2" opacity="0.55" stroke-dasharray="4 4" points="109.55,376.00 119.10,332.87 128.66,289.74 134.40,263.86 136.31,255.23 138.22,246.61 140.13,237.98 142.05,229.36 143.96,220.73 145.87,212.10 147.78,203.48 149.69,194.85 151.61,186.22 153.52,177.60 155.43,168.97 157.34,160.35 159.25,151.72 161.17,143.09 163.08,134.65 164.99,126.91 166.90,119.86 168.81,113.50 170.72,107.79 172.64,102.73 174.55,98.28 176.46,94.42 178.37,91.10 180.28,88.29 182.20,85.93 184.11,83.98 186.02,82.39 187.93,81.11 189.84,80.08 191.75,79.27 193.67,78.62 195.58,78.12 197.49,77.73 199.40,77.42 208.96,76.62 218.52,76.33 228.08,76.19 237.64,76.10 247.20,76.05 258.67,76.02 268.23,76.01 277.79,76.01 287.35,76.00 296.91,76.00 306.47,76.00 317.94,76.00 319.85,76.00 327.50,76.00 337.06,76.00 338.97,76.00 346.61,76.00 354.26,76.00 356.17,76.00 365.73,76.00 377.20,76.00 382.94,76.00 386.76,76.00 396.32,76.00 405.88,76.00 415.44,76.00 426.91,76.00 436.47,76.00 446.03,76.00 455.59,76.00 465.15,76.00 474.71,76.00 484.27,76.00 486.18,76.00 491.91,76.00 493.83,76.00 495.74,76.00 505.30,76.00 514.86,76.00 524.42,76.00 533.98,76.00 545.45,76.00 555.01,76.00 564.56,76.00 574.12,76.00 583.68,76.00 593.24,76.00 604.71,76.00 614.27,76.00 623.83,76.00 633.39,76.00 642.95,76.00 652.51,76.00 663.98,76.00 673.54,76.00 683.10,76.00 692.66,76.00 702.22,76.00 711.78,76.00 723.25,76.00 732.81,76.00 740.45,76.00"/>
<polyline fill="none" stroke="#2ca02c" stroke-width="1.2" opacity="0.55" stroke-dasharray="4 4" points="109.55,216.72 119.10,173.59 128.66,130.46 134.40,104.58 136.31,97.18 138.22,91.46 140.13,87.22 142.05,84.21 143.96,82.15 145.87,80.78 147.78,79.87 149.69,79.27 151.61,78.87 153.52,78.59 155.43,78.39 157.34,78.23 159.25,78.11 161.17,78.00 163.08,77.91 164.99,77.82 166.90,77.74 168.81,77.66 170.72,77.59 172.64,77.51 174.55,77.44 176.46,77.37 178.37,77.30 180.28,77.23 182.20,77.16 184.11,77.10 186.02,77.03 187.93,76.97 189.84,76.91 191.75,76.85 193.67,76.79 195.58,76.73 197.49,76.68 199.40,76.63 208.96,76.39 218.52,76.21 228.08,76.09 237.64,76.03 247.20,76.01 258.67,76.00 268.23,76.00 277.79,76.00 287.35,76.00 296.91,76.00 306.47,76.00 317.94,76.00 319.85,76.00 327.50,76.00 337.06,76.00 338.97,76.00 346.61,76.00 354.26,76.00 356.17,76.00 365.73,76.00 377.20,76.00 382.94,76.00 386.76,76.00 396.32,76.00 405.88,76.00 415.44,76.00 426.91,76.00 436.47,76.00 446.03,76.00 455.59,76.00 465.15,76.00 474.71,76.00 484.27,76.00 486.18,76.00 491.91,76.00 493.83,76.00 495.74,76.00 505.30,76.00 514.86,76.00 524.42,76.00 533.98,76.00 545.45,76.00 555.01,76.00 564.56,76.00 574.12,76.00 583.68,76.00 593.24,76.00 604.71,76.00 614.27,76.00 623.83,76.00 633.39,76.00 642.95,76.00 652.51,76.00 663.98,76.00 673.54,76.00 683.10,76.00 692.66,76.00 702.22,76.00 711.78,76.00 723.25,76.00 732.81,76.00 740.45,76.00"/>
<polyline fill="none" stroke="#2ca02c" stroke-width="2.0" opacity="1.0" points="109.55,278.39 119.10,235.26 128.66,192.13 134.40,166.25 136.31,157.62 138.22,149.00 140.13,140.37 142.05,131.75 143.96,123.12 145.87,114.49 147.78,106.91 149.69,100.46 151.61,95.09 153.52,90.72 155.43,87.26 157.34,84.57 159.25,82.54 161.17,81.04 163.08,79.94 164.99,79.14 166.90,78.57 168.81,78.15 170.72,77.85 172.64,77.62 174.55,77.45 176.46,77.31 178.37,77.20 180.28,77.11 182.20,77.03 184.11,76.97 186.02,76.90 187.93,76.85 189.84,76.79 191.75,76.74 193.67,76.69 195.58,76.64 197.49,76.60 199.40,76.56 208.96,76.37 218.52,76.22 228.08,76.11 237.64,76.05 247.20,76.02 258.67,76.01 268.23,76.00 277.79,76.00 287.35,76.00 296.91,76.00 306.47,76.00 317.94,76.00 319.85,76.00 327.50,76.00 337.06,76.00 338.97,76.00 346.61,76.00 354.26,76.00 356.17,76.00 365.73,76.00 377.20,76.00 382.94,76.00 386.76,76.00 396.32,76.00 405.88,76.00 415.44,76.00 426.91,76.00 436.47,76.00 446.03,76.00 455.59,76.00 465.15,76.00 474.71,76.00 484.27,76.00 486.18,76.00 491.91,76.00 493.83,76.00 495.74,76.00 505.30,76.00 514.86,76.00 524.42,76.00 533.98,76.00 545.45,76.00 555.01,76.00 564.56,76.00 574.12,76.00 583.68,76.00 593.24,76.00 604.71,76.00 614.27,76.00 623.83,76.00 633.39,76.00 642.95,76.00 652.51,76.00 663.98,76.00 673.54,76.00 683.10,76.00 692.66,76.00 702.22,76.00 711.78,76.00 723.25,76.00 732.81,76.00 740.45,76.00"/>
<polyline fill="none" stroke="#9467bd" stroke-width="1.2" opacity="0.55" stroke-dasharray="4 4" points="109.55,76.01 111.46,76.01 113.37,76.01 115.28,76.01 117.19,76.01 119.10,76.01 122.93,76.01 126.75,76.00 128.66,76.00 130.58,76.00 132.49,76.00 136.31,76.00 140.13,76.00 142.05,76.00 143.96,76.00 145.87,76.00 147.78,76.00 149.69,76.00 151.61,76.00 153.52,76.00 155.43,76.00 157.34,76.00 159.25,76.00 163.08,76.00 164.99,76.00 166.90,76.00 168.81,76.00 172.64,76.00 174.55,76.00 176.46,76.00 178.37,76.00 182.20,76.00 184.11,76.00 186.02,76.00 189.84,76.00 191.75,76.00 193.67,76.00 195.58,76.00 199.40,76.00 201.31,76.00 203.23,76.00 205.14,76.00 207.05,76.00 208.96,76.00 210.87,76.00 212.79,76.00 216.61,76.00 218.52,76.00 220.43,76.00 222.34,76.00 224.26,76.00 226.17,76.00 228.08,76.00 229.99,76.00 231.90,76.00 233.82,76.00 235.73,76.00 237.64,76.00 239.55,76.00 241.46,76.00 243.37,76.00 245.29,76.00 247.20,76.00 249.11,76.00 251.02,76.00 252.93,76.00 254.85,76.00 256.76,76.00 258.67,76.00 260.58,76.00 262.49,76.00 264.40,76.00 266.32,76.00 268.23,76.00 270.14,76.00 272.05,76.00 275.88,76.00 277.79,76.00 281.61,76.00 283.52,76.00 285.44,76.00 287.35,76.00 289.26,76.00 291.17,76.00 293.08,76.00 294.99,76.00 296.91,76.00 298.82,76.00 300.73,76.00 302.64,76.00 304.55,76.00 306.47,76.00 308.38,76.00 310.29,76.00 312.20,76.00 314.11,76.00 316.02,76.00 317.94,76.00 319.85,76.00 740.45,76.00"/>
<polyline fill="none" stroke="#9467bd" stroke-width="1.2" opacity="0.55" stroke-dasharray="4 4" points="109.55,76.00 111.46,76.00 113.37,76.00 115.28,76.00 117.19,76.00 119.10,76.00 122.93,76.00 126.75,76.00 128.66,76.00 130.58,76.00 132.49,76.00 136.31,76.00 140.13,76.00 142.05,76.00 143.96,76.00 145.87,76.00 147.78,76.00 149.69,76.00 151.61,76.00 153.52,76.00 155.43,76.00 157.34,76.00 159.25,76.00 163.08,76.00 164.99,76.00 166.90,76.00 168.81,76.00 172.64,76.00 174.55,76.00 176.46,76.00 178.37,76.00 182.20,76.00 184.11,76.00 186.02,76.00 189.84,76.00 191.75,76.00 193.67,76.00 195.58,76.00 199.40,76.00 201.31,76.00 203.23,76.00 205.14,76.00 207.05,76.00 208.96,76.00 210.87,76.00 212.79,76.00 216.61,76.00 218.52,76.00 220.43,76.00 222.34,76.00 224.26,76.00 226.17,76.00 228.08,76.00 229.99,76.00 231.90,76.00 233.82,76.00 235.73,76.00 237.64,76.00 239.55,76.00 241.46,76.00 243.37,76.00 245.29,76.00 247.20,76.00 249.11,76.00 251.02,76.00 252.93,76.00 254.85,76.00 256.76,76.00 258.67,76.00 260.58,76.00 262.49,76.00 264.40,76.00 266.32,76.00 268.23,76.00 270.14,76.00 272.05,76.00 275.88,76.00 277.79,76.00 281.61,76.00 283.52,76.00 285.44,76.00 287.35,76.00 289.26,76.00 291.17,76.00 293.08,76.00 294.99,76.00 296.91,76.00 298.82,76.00 300.73,76.00 302.64,76.00 304.55,76.00 306.47,76.00 308.38,76.00 310.29,76.00 312.20,76.00 314.11,76.00 316.02,76.00 317.94,76.00 319.85,76.00 740.45,76.00"/>
<polyline fill="none" stroke="#9467bd" stroke-width="2.0" opacity="1.0" points="109.55,76.00 111.46,76.00 113.37,76.00 115.28,76.00 117.19,76.00 119.10,76.00 122.93,76.00 126.75,76.00 128.66,76.00 130.58,76.00 132.49,76.00 136.31,76.00 140.13,76.00 142.05,76.00 143.96,76.00 145.87,76.00 147.78,76.00 149.69,76.00 151.61,76.00 153.52,76.00 155.43,76.00 157.34,76.00 159.25,76.00 163.08,76.00 164.99,76.00 166.90,76.00 168.81,76.00 172.64,76.00 174.55,76.00 176.46,76.00 178.37,76.00 182.20,76.00 184.11,76.00 186.02,76.00 189.84,76.00 191.75,76.00 193.67,76.00 195.58,76.00 199.40,76.00 201.31,76.00 203.23,76.00 205.14,76.00 207.05,76.00 208.96,76.00 210.87,76.00 212.79,76.00 216.61,76.00 218.52,76.00 220.43,76.00 222.34,76.00 224.26,76.00 226.17,76.00 228.08,76.00 229.99,76.00 231.90,76.00 233.82,76.00 235.73,76.00 237.64,76.00 239.55,76.00 241.46,76.00 243.37,76.00 245.29,76.00 247.20,76.00 249.11,76.00 251.02,76.00 252.93,76.00 254.85,76.00 256.76,76.00 258.67,76.00 260.58,76.00 262.49,76.00 264.40,76.00 266.32,76.00 268.23,76.00 270.14,76.00 272.05,76.00 275.88,76.00 277.79,76.00 281.61,76.00 283.52,76.00 285.44,76.00 287.35,76.00 289.26,76.00 291.17,76.00 293.08,76.00 294.99,76.00 296.91,76.00 298.82,76.00 300.73,76.00 302.64,76.00 304.55,76.00 306.47,76.00 308.38,76.00 310.29,76.00 312.20,76.00 314.11,76.00 316.02,76.00 317.94,76.00 319.85,76.00 740.45,76.00"/>
<line x1="88" y1="70" x2="110" y2="70" stroke="#2ca02c" stroke-width="2.4"/>
<text x="116" y="74" font-family="Arial, sans-serif" font-size="12">[GND Clamp]</text>
<line x1="88" y1="88" x2="110" y2="88" stroke="#9467bd" stroke-width="2.4"/>
<text x="116" y="92" font-family="Arial, sans-serif" font-size="12">[POWER Clamp]</text>
<text x="425.00" y="444.00" text-anchor="middle" font-family="Arial, sans-serif" font-size="12">Table voltage (V)</text>
<text transform="translate(18 226.00) rotate(-90)" text-anchor="middle" font-family="Arial, sans-serif" font-size="12">Current (A)</text>
<text x="420" y="42" font-family="Arial, sans-serif" font-size="11" fill="#555">solid=typ, dashed=min/max; dashed vertical=required sweep boundary (5.3.4/5.3.5)</text>
</svg>