<svg xmlns="http://www.w3.org/2000/svg" width="800" height="520" viewBox="0 0 800 520">
<rect width="100%" height="100%" fill="#ffffff"/>
<text x="78" y="25" font-family="Arial, sans-serif" font-size="16" font-weight="700">E34_GPIO_I2CSCLIN_1V1_00 I-V Clamp Detail</text>
<rect x="78" y="54" width="690" height="306" fill="#fbfbfb" stroke="#c8c8c8"/>
<line x1="78.00" y1="54" x2="78.00" y2="360" stroke="#ececec"/>
<text x="78.00" y="382" text-anchor="middle" font-family="Arial, sans-serif" font-size="11">0</text>
<line x1="216.00" y1="54" x2="216.00" y2="360" stroke="#ececec"/>
<text x="216.00" y="382" text-anchor="middle" font-family="Arial, sans-serif" font-size="11">0.22</text>
<line x1="354.00" y1="54" x2="354.00" y2="360" stroke="#ececec"/>
<text x="354.00" y="382" text-anchor="middle" font-family="Arial, sans-serif" font-size="11">0.44</text>
<line x1="492.00" y1="54" x2="492.00" y2="360" stroke="#ececec"/>
<text x="492.00" y="382" text-anchor="middle" font-family="Arial, sans-serif" font-size="11">0.66</text>
<line x1="630.00" y1="54" x2="630.00" y2="360" stroke="#ececec"/>
<text x="630.00" y="382" text-anchor="middle" font-family="Arial, sans-serif" font-size="11">0.88</text>
<line x1="768.00" y1="54" x2="768.00" y2="360" stroke="#ececec"/>
<text x="768.00" y="382" text-anchor="middle" font-family="Arial, sans-serif" font-size="11">1.1</text>
<line x1="78" y1="360.00" x2="768" y2="360.00" stroke="#ececec"/>
<text x="70" y="364.00" text-anchor="end" font-family="Arial, sans-serif" font-size="11">-2.5e-07</text>
<line x1="78" y1="298.80" x2="768" y2="298.80" stroke="#ececec"/>
<text x="70" y="302.80" text-anchor="end" font-family="Arial, sans-serif" font-size="11">1.1e-07</text>
<line x1="78" y1="237.60" x2="768" y2="237.60" stroke="#ececec"/>
<text x="70" y="241.60" text-anchor="end" font-family="Arial, sans-serif" font-size="11">4.7e-07</text>
<line x1="78" y1="176.40" x2="768" y2="176.40" stroke="#ececec"/>
<text x="70" y="180.40" text-anchor="end" font-family="Arial, sans-serif" font-size="11">8.2e-07</text>
<line x1="78" y1="115.20" x2="768" y2="115.20" stroke="#ececec"/>
<text x="70" y="119.20" text-anchor="end" font-family="Arial, sans-serif" font-size="11">1.2e-06</text>
<line x1="78" y1="54.00" x2="768" y2="54.00" stroke="#ececec"/>
<text x="70" y="58.00" text-anchor="end" font-family="Arial, sans-serif" font-size="11">1.5e-06</text>
<line x1="78.00" y1="54" x2="78.00" y2="360" stroke="#777" stroke-dasharray="4 4"/>
<line x1="78" y1="317.41" x2="768" y2="317.41" stroke="#777" stroke-dasharray="4 4"/>
<line x1="78.00" y1="54" x2="78.00" y2="360" stroke="#555" stroke-dasharray="2 4"/>
<text x="82.00" y="68" font-family="Arial, sans-serif" font-size="11" fill="#555">0V</text>
<line x1="768.00" y1="54" x2="768.00" y2="360" stroke="#555" stroke-dasharray="2 4"/>
<text x="772.00" y="68" font-family="Arial, sans-serif" font-size="11" fill="#555">Vcc</text>
<polyline fill="none" stroke="#2ca02c" stroke-width="1.2" opacity="0.55" stroke-dasharray="4 4" points="78.00,322.91 103.09,320.89 109.36,320.63 134.45,320.05 165.82,319.76 184.64,319.66 197.18,319.60 228.55,319.47 266.18,319.32 297.55,319.19 328.91,319.06 360.27,318.93 391.64,318.81 429.27,318.65 460.64,318.51 492.00,318.32 523.36,317.94 554.73,316.77 586.09,312.25 623.73,289.32 655.09,239.49 673.91,204.17 686.45,184.58 717.82,147.98 742.91,119.54 749.18,112.42 768.00,91.09"/>
<polyline fill="none" stroke="#2ca02c" stroke-width="1.2" opacity="0.55" stroke-dasharray="4 4" points="78.00,317.43 103.09,317.43 109.36,317.43 134.45,317.43 165.82,317.43 184.64,317.42 197.18,317.42 228.55,317.42 266.18,317.42 297.55,317.42 328.91,317.42 360.27,317.42 391.64,317.42 429.27,317.42 460.64,317.42 492.00,317.41 523.36,317.41 554.73,317.41 586.09,317.41 623.73,317.41 655.09,317.41 673.91,317.41 686.45,317.41 717.82,317.41 742.91,317.41 749.18,317.41 768.00,317.41"/>
<polyline fill="none" stroke="#2ca02c" stroke-width="2.0" opacity="1.0" points="78.00,317.49 103.09,317.46 109.36,317.46 134.45,317.46 165.82,317.45 184.64,317.45 197.18,317.45 228.55,317.45 266.18,317.45 297.55,317.44 328.91,317.44 360.27,317.44 391.64,317.43 429.27,317.43 460.64,317.43 492.00,317.43 523.36,317.42 554.73,317.42 586.09,317.42 623.73,317.41 655.09,317.41 673.91,317.41 686.45,317.40 717.82,317.36 742.91,317.22 749.18,317.15 768.00,316.88"/>
<polyline fill="none" stroke="#9467bd" stroke-width="1.2" opacity="0.55" stroke-dasharray="4 4" points="78.00,317.41 768.00,317.41"/>
<polyline fill="none" stroke="#9467bd" stroke-width="1.2" opacity="0.55" stroke-dasharray="4 4" points="78.00,317.41 768.00,317.41"/>
<polyline fill="none" stroke="#9467bd" stroke-width="2.0" opacity="1.0" points="78.00,317.41 768.00,317.41"/>
<circle cx="78.00" cy="317.49" r="4.0" fill="#ffffff" stroke="#2ca02c" stroke-width="1.5"/>
<circle cx="78.00" cy="322.91" r="3.0" fill="#ffffff" stroke="#2ca02c" stroke-width="1.5"/>
<circle cx="78.00" cy="317.43" r="3.0" fill="#ffffff" stroke="#2ca02c" stroke-width="1.5"/>
<circle cx="78.00" cy="317.41" r="4.0" fill="#ffffff" stroke="#9467bd" stroke-width="1.5"/>
<circle cx="78.00" cy="317.41" r="3.0" fill="#ffffff" stroke="#9467bd" stroke-width="1.5"/>
<circle cx="78.00" cy="317.41" r="3.0" fill="#ffffff" stroke="#9467bd" stroke-width="1.5"/>
<line x1="88" y1="72" x2="110" y2="72" stroke="#2ca02c" stroke-width="2.4"/>
<text x="116" y="76" font-family="Arial, sans-serif" font-size="12">[GND Clamp]</text>
<line x1="88" y1="90" x2="110" y2="90" stroke="#9467bd" stroke-width="2.4"/>
<text x="116" y="94" font-family="Arial, sans-serif" font-size="12">[POWER Clamp]</text>
<text x="423.00" y="404.00" text-anchor="middle" font-family="Arial, sans-serif" font-size="12">Table voltage (V), zoomed 0..Vcc</text>
<text transform="translate(18 207.00) rotate(-90)" text-anchor="middle" font-family="Arial, sans-serif" font-size="12">Current (A)</text>
<text x="420" y="42" font-family="Arial, sans-serif" font-size="11" fill="#555">clamp curves show typ/min/max; open circles mark clamp I(0 V)</text>
</svg>