<svg xmlns="http://www.w3.org/2000/svg" width="800" height="520" viewBox="0 0 800 520">
<rect width="100%" height="100%" fill="#ffffff"/>
<text x="78" y="25" font-family="Arial, sans-serif" font-size="16" font-weight="700">E34_GPIO_I2CSCLIN_1V8_01_ISOSW I-V Clamp Detail</text>
<rect x="78" y="54" width="690" height="306" fill="#fbfbfb" stroke="#c8c8c8"/>
<line x1="78.00" y1="54" x2="78.00" y2="360" stroke="#ececec"/>
<text x="78.00" y="382" text-anchor="middle" font-family="Arial, sans-serif" font-size="11">0</text>
<line x1="216.00" y1="54" x2="216.00" y2="360" stroke="#ececec"/>
<text x="216.00" y="382" text-anchor="middle" font-family="Arial, sans-serif" font-size="11">0.36</text>
<line x1="354.00" y1="54" x2="354.00" y2="360" stroke="#ececec"/>
<text x="354.00" y="382" text-anchor="middle" font-family="Arial, sans-serif" font-size="11">0.72</text>
<line x1="492.00" y1="54" x2="492.00" y2="360" stroke="#ececec"/>
<text x="492.00" y="382" text-anchor="middle" font-family="Arial, sans-serif" font-size="11">1.1</text>
<line x1="630.00" y1="54" x2="630.00" y2="360" stroke="#ececec"/>
<text x="630.00" y="382" text-anchor="middle" font-family="Arial, sans-serif" font-size="11">1.4</text>
<line x1="768.00" y1="54" x2="768.00" y2="360" stroke="#ececec"/>
<text x="768.00" y="382" text-anchor="middle" font-family="Arial, sans-serif" font-size="11">1.8</text>
<line x1="78" y1="360.00" x2="768" y2="360.00" stroke="#ececec"/>
<text x="70" y="364.00" text-anchor="end" font-family="Arial, sans-serif" font-size="11">-3.0e-07</text>
<line x1="78" y1="298.80" x2="768" y2="298.80" stroke="#ececec"/>
<text x="70" y="302.80" text-anchor="end" font-family="Arial, sans-serif" font-size="11">1.6e-07</text>
<line x1="78" y1="237.60" x2="768" y2="237.60" stroke="#ececec"/>
<text x="70" y="241.60" text-anchor="end" font-family="Arial, sans-serif" font-size="11">6.2e-07</text>
<line x1="78" y1="176.40" x2="768" y2="176.40" stroke="#ececec"/>
<text x="70" y="180.40" text-anchor="end" font-family="Arial, sans-serif" font-size="11">1.1e-06</text>
<line x1="78" y1="115.20" x2="768" y2="115.20" stroke="#ececec"/>
<text x="70" y="119.20" text-anchor="end" font-family="Arial, sans-serif" font-size="11">1.5e-06</text>
<line x1="78" y1="54.00" x2="768" y2="54.00" stroke="#ececec"/>
<text x="70" y="58.00" text-anchor="end" font-family="Arial, sans-serif" font-size="11">2.0e-06</text>
<line x1="78.00" y1="54" x2="78.00" y2="360" stroke="#777" stroke-dasharray="4 4"/>
<line x1="78" y1="319.77" x2="768" y2="319.77" stroke="#777" stroke-dasharray="4 4"/>
<line x1="78.00" y1="54" x2="78.00" y2="360" stroke="#555" stroke-dasharray="2 4"/>
<text x="82.00" y="68" font-family="Arial, sans-serif" font-size="11" fill="#555">0V</text>
<line x1="768.00" y1="54" x2="768.00" y2="360" stroke="#555" stroke-dasharray="2 4"/>
<text x="772.00" y="68" font-family="Arial, sans-serif" font-size="11" fill="#555">Vcc</text>
<polyline fill="none" stroke="#2ca02c" stroke-width="1.2" opacity="0.55" stroke-dasharray="4 4" points="78.00,322.91 101.00,321.65 131.67,321.37 166.17,321.29 196.83,321.24 231.33,321.19 250.50,321.17 262.00,321.15 296.50,321.10 327.17,321.06 346.33,321.04 361.67,321.02 392.33,320.98 426.83,320.93 438.33,320.92 457.50,320.89 469.00,320.88 488.17,320.85 503.50,320.83 522.67,320.80 538.00,320.78 553.33,320.75 587.83,320.52 618.50,318.61 653.00,296.37 683.67,224.35 718.17,166.50 748.83,120.10 768.00,91.09"/>
<polyline fill="none" stroke="#2ca02c" stroke-width="1.2" opacity="0.55" stroke-dasharray="4 4" points="78.00,319.79 101.00,319.79 131.67,319.79 166.17,319.79 196.83,319.79 231.33,319.78 250.50,319.78 262.00,319.78 296.50,319.78 327.17,319.78 346.33,319.78 361.67,319.78 392.33,319.77 426.83,319.77 438.33,319.77 457.50,319.77 469.00,319.77 488.17,319.77 503.50,319.77 522.67,319.77 538.00,319.77 553.33,319.76 587.83,319.76 618.50,319.76 653.00,319.76 683.67,319.76 718.17,319.75 748.83,319.75 768.00,319.75"/>
<polyline fill="none" stroke="#2ca02c" stroke-width="2.0" opacity="1.0" points="78.00,319.81 101.00,319.80 131.67,319.80 166.17,319.79 196.83,319.79 231.33,319.79 250.50,319.79 262.00,319.79 296.50,319.79 327.17,319.78 346.33,319.78 361.67,319.78 392.33,319.78 426.83,319.78 438.33,319.78 457.50,319.77 469.00,319.77 488.17,319.77 503.50,319.77 522.67,319.77 538.00,319.77 553.33,319.77 587.83,319.76 618.50,319.76 653.00,319.76 683.67,319.76 718.17,319.75 748.83,319.63 768.00,319.24"/>
<polyline fill="none" stroke="#9467bd" stroke-width="1.2" opacity="0.55" stroke-dasharray="4 4" points="78.00,319.77 768.00,319.77"/>
<polyline fill="none" stroke="#9467bd" stroke-width="1.2" opacity="0.55" stroke-dasharray="4 4" points="78.00,319.77 768.00,319.77"/>
<polyline fill="none" stroke="#9467bd" stroke-width="2.0" opacity="1.0" points="78.00,319.77 768.00,319.77"/>
<circle cx="78.00" cy="319.81" r="4.0" fill="#ffffff" stroke="#2ca02c" stroke-width="1.5"/>
<circle cx="78.00" cy="322.91" r="3.0" fill="#ffffff" stroke="#2ca02c" stroke-width="1.5"/>
<circle cx="78.00" cy="319.79" r="3.0" fill="#ffffff" stroke="#2ca02c" stroke-width="1.5"/>
<circle cx="78.00" cy="319.77" r="4.0" fill="#ffffff" stroke="#9467bd" stroke-width="1.5"/>
<circle cx="78.00" cy="319.77" r="3.0" fill="#ffffff" stroke="#9467bd" stroke-width="1.5"/>
<circle cx="78.00" cy="319.77" r="3.0" fill="#ffffff" stroke="#9467bd" stroke-width="1.5"/>
<line x1="88" y1="72" x2="110" y2="72" stroke="#2ca02c" stroke-width="2.4"/>
<text x="116" y="76" font-family="Arial, sans-serif" font-size="12">[GND Clamp]</text>
<line x1="88" y1="90" x2="110" y2="90" stroke="#9467bd" stroke-width="2.4"/>
<text x="116" y="94" font-family="Arial, sans-serif" font-size="12">[POWER Clamp]</text>
<text x="423.00" y="404.00" text-anchor="middle" font-family="Arial, sans-serif" font-size="12">Table voltage (V), zoomed 0..Vcc</text>
<text transform="translate(18 207.00) rotate(-90)" text-anchor="middle" font-family="Arial, sans-serif" font-size="12">Current (A)</text>
<text x="420" y="42" font-family="Arial, sans-serif" font-size="11" fill="#555">clamp curves show typ/min/max; open circles mark clamp I(0 V)</text>
</svg>