<svg xmlns="http://www.w3.org/2000/svg" width="800" height="520" viewBox="0 0 800 520">
<rect width="100%" height="100%" fill="#ffffff"/>
<text x="78" y="25" font-family="Arial, sans-serif" font-size="16" font-weight="700">E34_GPIO_SPI_I3C_MST_1V1_11 I-V Clamp Detail</text>
<rect x="78" y="54" width="690" height="306" fill="#fbfbfb" stroke="#c8c8c8"/>
<line x1="78.00" y1="54" x2="78.00" y2="360" stroke="#ececec"/>
<text x="78.00" y="382" text-anchor="middle" font-family="Arial, sans-serif" font-size="11">0</text>
<line x1="216.00" y1="54" x2="216.00" y2="360" stroke="#ececec"/>
<text x="216.00" y="382" text-anchor="middle" font-family="Arial, sans-serif" font-size="11">0.22</text>
<line x1="354.00" y1="54" x2="354.00" y2="360" stroke="#ececec"/>
<text x="354.00" y="382" text-anchor="middle" font-family="Arial, sans-serif" font-size="11">0.44</text>
<line x1="492.00" y1="54" x2="492.00" y2="360" stroke="#ececec"/>
<text x="492.00" y="382" text-anchor="middle" font-family="Arial, sans-serif" font-size="11">0.66</text>
<line x1="630.00" y1="54" x2="630.00" y2="360" stroke="#ececec"/>
<text x="630.00" y="382" text-anchor="middle" font-family="Arial, sans-serif" font-size="11">0.88</text>
<line x1="768.00" y1="54" x2="768.00" y2="360" stroke="#ececec"/>
<text x="768.00" y="382" text-anchor="middle" font-family="Arial, sans-serif" font-size="11">1.1</text>
<line x1="78" y1="360.00" x2="768" y2="360.00" stroke="#ececec"/>
<text x="70" y="364.00" text-anchor="end" font-family="Arial, sans-serif" font-size="11">-4.2e-07</text>
<line x1="78" y1="298.80" x2="768" y2="298.80" stroke="#ececec"/>
<text x="70" y="302.80" text-anchor="end" font-family="Arial, sans-serif" font-size="11">4.7e-08</text>
<line x1="78" y1="237.60" x2="768" y2="237.60" stroke="#ececec"/>
<text x="70" y="241.60" text-anchor="end" font-family="Arial, sans-serif" font-size="11">5.2e-07</text>
<line x1="78" y1="176.40" x2="768" y2="176.40" stroke="#ececec"/>
<text x="70" y="180.40" text-anchor="end" font-family="Arial, sans-serif" font-size="11">9.9e-07</text>
<line x1="78" y1="115.20" x2="768" y2="115.20" stroke="#ececec"/>
<text x="70" y="119.20" text-anchor="end" font-family="Arial, sans-serif" font-size="11">1.5e-06</text>
<line x1="78" y1="54.00" x2="768" y2="54.00" stroke="#ececec"/>
<text x="70" y="58.00" text-anchor="end" font-family="Arial, sans-serif" font-size="11">1.9e-06</text>
<line x1="78.00" y1="54" x2="78.00" y2="360" stroke="#777" stroke-dasharray="4 4"/>
<line x1="78" y1="304.99" x2="768" y2="304.99" stroke="#777" stroke-dasharray="4 4"/>
<line x1="78.00" y1="54" x2="78.00" y2="360" stroke="#555" stroke-dasharray="2 4"/>
<text x="82.00" y="68" font-family="Arial, sans-serif" font-size="11" fill="#555">0V</text>
<line x1="768.00" y1="54" x2="768.00" y2="360" stroke="#555" stroke-dasharray="2 4"/>
<text x="772.00" y="68" font-family="Arial, sans-serif" font-size="11" fill="#555">Vcc</text>
<polyline fill="none" stroke="#2ca02c" stroke-width="1.2" opacity="0.55" stroke-dasharray="4 4" points="78.00,322.91 103.09,318.25 134.45,316.20 165.82,315.40 190.91,315.00 197.18,314.92 228.55,314.49 259.91,314.07 266.18,313.98 297.55,313.56 316.36,313.31 328.91,313.15 360.27,312.73 385.36,312.39 391.64,312.31 429.27,311.80 460.64,311.38 492.00,310.94 523.36,310.43 554.73,309.47 586.09,306.31 623.73,289.47 655.09,250.50 686.45,202.52 717.82,159.58 749.18,116.78 768.00,91.09"/>
<polyline fill="none" stroke="#2ca02c" stroke-width="1.2" opacity="0.55" stroke-dasharray="4 4" points="78.00,305.02 103.09,305.02 134.45,305.02 165.82,305.02 190.91,305.02 197.18,305.02 228.55,305.01 259.91,305.01 266.18,305.01 297.55,305.01 316.36,305.01 328.91,305.01 360.27,305.01 385.36,305.00 391.64,305.00 429.27,305.00 460.64,305.00 492.00,305.00 523.36,305.00 554.73,304.99 586.09,304.99 623.73,304.99 655.09,304.99 686.45,304.98 717.82,304.98 749.18,304.98 768.00,304.98"/>
<polyline fill="none" stroke="#2ca02c" stroke-width="2.0" opacity="1.0" points="78.00,305.25 103.09,305.18 134.45,305.16 165.82,305.15 190.91,305.14 197.18,305.14 228.55,305.13 259.91,305.12 266.18,305.12 297.55,305.11 316.36,305.11 328.91,305.10 360.27,305.09 385.36,305.09 391.64,305.08 429.27,305.07 460.64,305.06 492.00,305.05 523.36,305.04 554.73,305.03 586.09,305.02 623.73,305.01 655.09,305.00 686.45,305.00 717.82,304.97 749.18,304.77 768.00,304.44"/>
<polyline fill="none" stroke="#9467bd" stroke-width="1.2" opacity="0.55" stroke-dasharray="4 4" points="78.00,304.99 768.00,304.99"/>
<polyline fill="none" stroke="#9467bd" stroke-width="1.2" opacity="0.55" stroke-dasharray="4 4" points="78.00,304.99 768.00,304.99"/>
<polyline fill="none" stroke="#9467bd" stroke-width="2.0" opacity="1.0" points="78.00,304.99 768.00,304.99"/>
<circle cx="78.00" cy="305.25" r="4.0" fill="#ffffff" stroke="#2ca02c" stroke-width="1.5"/>
<circle cx="78.00" cy="322.91" r="3.0" fill="#ffffff" stroke="#2ca02c" stroke-width="1.5"/>
<circle cx="78.00" cy="305.02" r="3.0" fill="#ffffff" stroke="#2ca02c" stroke-width="1.5"/>
<circle cx="78.00" cy="304.99" r="4.0" fill="#ffffff" stroke="#9467bd" stroke-width="1.5"/>
<circle cx="78.00" cy="304.99" r="3.0" fill="#ffffff" stroke="#9467bd" stroke-width="1.5"/>
<circle cx="78.00" cy="304.99" r="3.0" fill="#ffffff" stroke="#9467bd" stroke-width="1.5"/>
<line x1="88" y1="72" x2="110" y2="72" stroke="#2ca02c" stroke-width="2.4"/>
<text x="116" y="76" font-family="Arial, sans-serif" font-size="12">[GND Clamp]</text>
<line x1="88" y1="90" x2="110" y2="90" stroke="#9467bd" stroke-width="2.4"/>
<text x="116" y="94" font-family="Arial, sans-serif" font-size="12">[POWER Clamp]</text>
<text x="423.00" y="404.00" text-anchor="middle" font-family="Arial, sans-serif" font-size="12">Table voltage (V), zoomed 0..Vcc</text>
<text transform="translate(18 207.00) rotate(-90)" text-anchor="middle" font-family="Arial, sans-serif" font-size="12">Current (A)</text>
<text x="420" y="42" font-family="Arial, sans-serif" font-size="11" fill="#555">clamp curves show typ/min/max; open circles mark clamp I(0 V)</text>
</svg>