<svg xmlns="http://www.w3.org/2000/svg" width="800" height="560" viewBox="0 0 800 560">
<rect width="100%" height="100%" fill="#ffffff"/>
<text x="78" y="25" font-family="Arial, sans-serif" font-size="16" font-weight="700">E34_GPIO_SPI_I3C_MST_1V8_00 I-V Combined Curves</text>
<rect x="78" y="52" width="694" height="348" fill="#fbfbfb" stroke="#c8c8c8"/>
<line x1="78.00" y1="52" x2="78.00" y2="400" stroke="#ececec"/>
<text x="78.00" y="422" text-anchor="middle" font-family="Arial, sans-serif" font-size="11">-1.9</text>
<line x1="216.80" y1="52" x2="216.80" y2="400" stroke="#ececec"/>
<text x="216.80" y="422" text-anchor="middle" font-family="Arial, sans-serif" font-size="11">-0.785</text>
<line x1="355.60" y1="52" x2="355.60" y2="400" stroke="#ececec"/>
<text x="355.60" y="422" text-anchor="middle" font-family="Arial, sans-serif" font-size="11">0.338</text>
<line x1="494.40" y1="52" x2="494.40" y2="400" stroke="#ececec"/>
<text x="494.40" y="422" text-anchor="middle" font-family="Arial, sans-serif" font-size="11">1.5</text>
<line x1="633.20" y1="52" x2="633.20" y2="400" stroke="#ececec"/>
<text x="633.20" y="422" text-anchor="middle" font-family="Arial, sans-serif" font-size="11">2.6</text>
<line x1="772.00" y1="52" x2="772.00" y2="400" stroke="#ececec"/>
<text x="772.00" y="422" text-anchor="middle" font-family="Arial, sans-serif" font-size="11">3.7</text>
<line x1="78" y1="400.00" x2="772" y2="400.00" stroke="#ececec"/>
<text x="70" y="404.00" text-anchor="end" font-family="Arial, sans-serif" font-size="11">-1.8</text>
<line x1="78" y1="330.40" x2="772" y2="330.40" stroke="#ececec"/>
<text x="70" y="334.40" text-anchor="end" font-family="Arial, sans-serif" font-size="11">-1.4</text>
<line x1="78" y1="260.80" x2="772" y2="260.80" stroke="#ececec"/>
<text x="70" y="264.80" text-anchor="end" font-family="Arial, sans-serif" font-size="11">-0.992</text>
<line x1="78" y1="191.20" x2="772" y2="191.20" stroke="#ececec"/>
<text x="70" y="195.20" text-anchor="end" font-family="Arial, sans-serif" font-size="11">-0.6</text>
<line x1="78" y1="121.60" x2="772" y2="121.60" stroke="#ececec"/>
<text x="70" y="125.60" text-anchor="end" font-family="Arial, sans-serif" font-size="11">-0.207</text>
<line x1="78" y1="52.00" x2="772" y2="52.00" stroke="#ececec"/>
<text x="70" y="56.00" text-anchor="end" font-family="Arial, sans-serif" font-size="11">0.185</text>
<line x1="313.78" y1="52" x2="313.78" y2="400" stroke="#777" stroke-dasharray="4 4"/>
<line x1="78" y1="84.79" x2="772" y2="84.79" stroke="#777" stroke-dasharray="4 4"/>
<line x1="91.35" y1="52" x2="91.35" y2="400" stroke="#555" stroke-dasharray="2 4"/>
<text x="95.35" y="66" font-family="Arial, sans-serif" font-size="11" fill="#555">-Vcc</text>
<line x1="536.22" y1="52" x2="536.22" y2="400" stroke="#555" stroke-dasharray="2 4"/>
<text x="540.22" y="66" font-family="Arial, sans-serif" font-size="11" fill="#555">Vcc</text>
<line x1="758.65" y1="52" x2="758.65" y2="400" stroke="#555" stroke-dasharray="2 4"/>
<text x="762.65" y="66" font-family="Arial, sans-serif" font-size="11" fill="#555">2Vcc</text>
<polyline fill="none" stroke="#0f766e" stroke-width="2.8" opacity="0.95" stroke-dasharray="6 3" points="91.35,376.00 101.23,351.87 112.35,324.73 122.24,300.60 133.36,273.46 143.25,249.33 154.37,222.19 164.26,198.06 175.38,170.92 185.26,146.79 196.39,119.65 197.62,116.64 198.86,113.62 200.09,110.60 201.33,107.59 202.56,104.57 203.80,101.56 205.04,99.00 206.27,96.94 207.51,95.32 208.74,94.07 209.98,93.11 211.21,92.38 212.45,91.82 213.69,91.38 214.92,91.04 216.16,90.76 217.39,90.54 218.63,90.34 219.86,90.17 221.10,90.01 222.34,89.87 223.57,89.73 224.81,89.60 226.04,89.48 227.28,89.36 228.51,89.24 229.75,89.12 230.99,89.01 232.22,88.91 233.46,88.80 234.69,88.69 235.93,88.59 237.17,88.49 238.40,88.40 239.64,88.31 240.87,88.23 242.11,88.14 244.58,87.97 245.82,87.88 247.05,87.80 248.29,87.71 250.76,87.57 253.23,87.44 255.70,87.30 258.17,87.16 269.29,86.65 279.18,86.23 290.30,85.77 300.19,85.35 311.31,84.89 313.78,84.79 321.20,84.50 331.08,84.13 342.20,83.75 352.09,83.46 363.21,83.18 368.16,83.07 373.10,82.98 378.04,82.89 384.22,82.80 394.11,82.68 395.34,82.67 405.23,82.58 415.11,82.52 426.24,82.48 433.65,82.46 436.12,82.45 446.01,82.43 453.42,82.41 457.13,82.41 464.54,82.39 467.02,82.39 478.14,82.37 488.02,82.36 499.15,82.35 509.03,82.34 513.97,82.33 520.15,82.33 530.04,82.32 536.22,82.31 539.93,82.31 551.05,82.30 558.46,82.29 560.93,82.29 572.05,82.28 581.94,82.27 593.06,82.26 602.95,82.23 614.07,82.18 623.96,82.11 635.08,81.99 644.96,81.86 654.85,81.70 665.97,81.49 675.86,81.28 686.98,81.03 696.87,80.77 707.99,80.46 717.87,80.15 729.00,79.75 738.88,79.35 748.77,78.90 750.00,78.84 758.65,78.41"/>
<polyline fill="none" stroke="#7c2d12" stroke-width="2.8" opacity="0.95" stroke-dasharray="6 3" points="91.35,76.00 95.05,76.21 98.76,76.42 101.23,76.56 102.47,76.63 104.94,76.76 107.41,76.89 108.65,76.95 112.35,77.14 116.06,77.32 118.53,77.44 119.77,77.50 122.24,77.62 125.95,77.79 128.42,77.90 129.65,77.96 130.89,78.01 132.13,78.07 133.36,78.12 137.07,78.28 140.78,78.44 143.25,78.54 146.96,78.69 150.66,78.84 154.37,78.99 155.61,79.04 156.84,79.09 158.08,79.13 159.31,79.18 161.78,79.28 164.26,79.38 167.96,79.52 171.67,79.66 174.14,79.75 175.38,79.80 177.85,79.90 179.08,79.94 180.32,79.99 181.56,80.04 182.79,80.08 184.03,80.13 185.26,80.18 188.97,80.32 192.68,80.46 196.39,80.59 197.62,80.64 198.86,80.69 200.09,80.73 201.33,80.78 202.56,80.83 203.80,80.87 206.27,80.96 207.51,81.01 208.74,81.06 209.98,81.10 213.69,81.24 216.16,81.33 217.39,81.38 221.10,81.51 223.57,81.60 227.28,81.74 230.99,81.87 234.69,82.01 237.17,82.10 238.40,82.14 239.64,82.19 240.87,82.23 242.11,82.28 244.58,82.37 247.05,82.46 248.29,82.50 250.76,82.59 251.99,82.63 254.47,82.72 255.70,82.77 256.94,82.81 258.17,82.86 259.41,82.90 263.12,83.03 265.59,83.12 269.29,83.25 270.53,83.30 271.77,83.34 273.00,83.38 275.47,83.47 276.71,83.51 277.95,83.56 279.18,83.60 280.42,83.64 281.65,83.69 282.89,83.73 284.12,83.77 286.60,83.86 290.30,83.99 294.01,84.12 297.72,84.24 301.42,84.37 302.66,84.41 305.13,84.50 307.60,84.58 308.84,84.62 311.31,84.71 313.78,84.79 321.20,85.03 327.38,85.22 328.61,85.26 331.08,85.33 342.20,85.65 352.09,85.90 363.21,86.15 373.10,86.35 384.22,86.54 394.11,86.69 405.23,86.83 415.11,86.92 426.24,87.01 436.12,87.07 438.59,87.09 446.01,87.12 448.48,87.13 454.66,87.13 457.13,87.13 463.31,87.13 464.54,87.13 467.02,87.13 478.14,87.13 488.02,87.13 499.15,87.13 509.03,87.13 513.97,87.13 520.15,87.13 530.04,87.13 536.22,87.13 539.93,87.13 551.05,87.13 558.46,87.13 560.93,87.13 572.05,87.13 581.94,87.13 593.06,87.13 594.30,87.15 602.95,87.43 612.83,87.71 614.07,87.74 625.19,87.99 626.43,88.01 627.66,88.03 628.90,88.05 630.14,88.07 631.37,88.09 632.61,88.11 633.84,88.13 635.08,88.15 636.31,88.16 637.55,88.17 638.79,88.18 640.02,88.18 644.96,88.18 647.44,88.18 654.85,88.18 659.79,88.18 661.03,88.18 662.26,88.18 663.50,88.18 664.74,88.18 665.97,88.18 667.21,88.18 675.86,88.18 686.98,88.18 696.87,88.18 707.99,88.18 717.87,88.18 729.00,88.18 738.88,88.18 750.00,88.18 758.65,88.18"/>
<line x1="88" y1="70" x2="110" y2="70" stroke="#0f766e" stroke-width="2.8" stroke-dasharray="6 3"/>
<text x="116" y="74" font-family="Arial, sans-serif" font-size="12">[Pulldown]+[GND Clamp]</text>
<line x1="88" y1="88" x2="110" y2="88" stroke="#7c2d12" stroke-width="2.8" stroke-dasharray="6 3"/>
<text x="116" y="92" font-family="Arial, sans-serif" font-size="12">[Pullup]+[POWER Clamp]</text>
<text x="425.00" y="444.00" text-anchor="middle" font-family="Arial, sans-serif" font-size="12">Table voltage (V)</text>
<text transform="translate(18 226.00) rotate(-90)" text-anchor="middle" font-family="Arial, sans-serif" font-size="12">Current (A)</text>
<text x="420" y="42" font-family="Arial, sans-serif" font-size="11" fill="#555">thick dashed=combined typ curves</text>
</svg>