<svg xmlns="http://www.w3.org/2000/svg" width="800" height="560" viewBox="0 0 800 560">
<rect width="100%" height="100%" fill="#ffffff"/>
<text x="78" y="25" font-family="Arial, sans-serif" font-size="16" font-weight="700">E34_GPIO_SPI_1V8_10 I-V Combined Curves</text>
<rect x="78" y="52" width="694" height="348" fill="#fbfbfb" stroke="#c8c8c8"/>
<line x1="78.00" y1="52" x2="78.00" y2="400" stroke="#ececec"/>
<text x="78.00" y="422" text-anchor="middle" font-family="Arial, sans-serif" font-size="11">-1.9</text>
<line x1="216.80" y1="52" x2="216.80" y2="400" stroke="#ececec"/>
<text x="216.80" y="422" text-anchor="middle" font-family="Arial, sans-serif" font-size="11">-0.785</text>
<line x1="355.60" y1="52" x2="355.60" y2="400" stroke="#ececec"/>
<text x="355.60" y="422" text-anchor="middle" font-family="Arial, sans-serif" font-size="11">0.338</text>
<line x1="494.40" y1="52" x2="494.40" y2="400" stroke="#ececec"/>
<text x="494.40" y="422" text-anchor="middle" font-family="Arial, sans-serif" font-size="11">1.5</text>
<line x1="633.20" y1="52" x2="633.20" y2="400" stroke="#ececec"/>
<text x="633.20" y="422" text-anchor="middle" font-family="Arial, sans-serif" font-size="11">2.6</text>
<line x1="772.00" y1="52" x2="772.00" y2="400" stroke="#ececec"/>
<text x="772.00" y="422" text-anchor="middle" font-family="Arial, sans-serif" font-size="11">3.7</text>
<line x1="78" y1="400.00" x2="772" y2="400.00" stroke="#ececec"/>
<text x="70" y="404.00" text-anchor="end" font-family="Arial, sans-serif" font-size="11">-1.8</text>
<line x1="78" y1="330.40" x2="772" y2="330.40" stroke="#ececec"/>
<text x="70" y="334.40" text-anchor="end" font-family="Arial, sans-serif" font-size="11">-1.4</text>
<line x1="78" y1="260.80" x2="772" y2="260.80" stroke="#ececec"/>
<text x="70" y="264.80" text-anchor="end" font-family="Arial, sans-serif" font-size="11">-0.988</text>
<line x1="78" y1="191.20" x2="772" y2="191.20" stroke="#ececec"/>
<text x="70" y="195.20" text-anchor="end" font-family="Arial, sans-serif" font-size="11">-0.561</text>
<line x1="78" y1="121.60" x2="772" y2="121.60" stroke="#ececec"/>
<text x="70" y="125.60" text-anchor="end" font-family="Arial, sans-serif" font-size="11">-0.135</text>
<line x1="78" y1="52.00" x2="772" y2="52.00" stroke="#ececec"/>
<text x="70" y="56.00" text-anchor="end" font-family="Arial, sans-serif" font-size="11">0.292</text>
<line x1="313.78" y1="52" x2="313.78" y2="400" stroke="#777" stroke-dasharray="4 4"/>
<line x1="78" y1="99.65" x2="772" y2="99.65" stroke="#777" stroke-dasharray="4 4"/>
<line x1="91.35" y1="52" x2="91.35" y2="400" stroke="#555" stroke-dasharray="2 4"/>
<text x="95.35" y="66" font-family="Arial, sans-serif" font-size="11" fill="#555">-Vcc</text>
<line x1="536.22" y1="52" x2="536.22" y2="400" stroke="#555" stroke-dasharray="2 4"/>
<text x="540.22" y="66" font-family="Arial, sans-serif" font-size="11" fill="#555">Vcc</text>
<line x1="758.65" y1="52" x2="758.65" y2="400" stroke="#555" stroke-dasharray="2 4"/>
<text x="762.65" y="66" font-family="Arial, sans-serif" font-size="11" fill="#555">2Vcc</text>
<polyline fill="none" stroke="#0f766e" stroke-width="2.8" opacity="0.95" stroke-dasharray="6 3" points="91.35,376.00 101.23,353.81 112.35,328.85 122.24,306.66 133.36,281.70 143.25,259.52 154.37,234.56 164.26,212.37 175.38,187.41 185.26,165.22 196.39,140.26 197.62,137.49 198.86,134.71 200.09,131.94 201.33,129.17 202.56,126.39 203.80,123.62 205.04,121.27 206.27,119.38 207.51,117.89 208.74,116.74 209.98,115.85 211.21,115.17 212.45,114.63 213.69,114.21 214.92,113.86 216.16,113.56 217.39,113.31 218.63,113.08 219.86,112.87 221.10,112.67 222.34,112.49 223.57,112.31 224.81,112.13 226.04,111.95 227.28,111.78 228.51,111.60 229.75,111.42 230.99,111.25 232.22,111.08 233.46,110.91 234.69,110.74 237.17,110.42 238.40,110.26 239.64,110.10 240.87,109.94 242.11,109.77 243.34,109.60 244.58,109.43 245.82,109.25 247.05,109.08 248.29,108.90 249.52,108.74 250.76,108.57 251.99,108.41 253.23,108.24 254.47,108.07 258.17,107.54 269.29,106.00 279.18,104.61 290.30,103.01 300.19,101.58 311.31,100.00 313.78,99.65 321.20,98.65 331.08,97.38 342.20,96.09 344.68,95.82 352.09,95.08 354.56,94.85 363.21,94.11 371.86,93.49 373.10,93.41 384.22,92.79 394.11,92.38 405.23,92.05 415.11,91.85 426.24,91.69 436.12,91.59 437.36,91.58 446.01,91.52 457.13,91.45 467.02,91.39 478.14,91.34 479.37,91.33 488.02,91.29 499.15,91.25 509.03,91.21 513.97,91.19 520.15,91.17 530.04,91.14 536.22,91.12 539.93,91.11 551.05,91.07 558.46,91.05 560.93,91.04 572.05,91.01 581.94,90.98 593.06,90.93 602.95,90.86 614.07,90.72 623.96,90.51 635.08,90.18 644.96,89.81 654.85,89.36 665.97,88.77 675.86,88.19 686.98,87.47 696.87,86.77 707.99,85.94 717.87,85.15 729.00,84.22 738.88,83.34 750.00,82.30 758.65,81.46"/>
<polyline fill="none" stroke="#7c2d12" stroke-width="2.8" opacity="0.95" stroke-dasharray="6 3" points="91.35,76.00 95.05,76.43 98.76,76.85 101.23,77.14 104.94,77.56 108.65,77.98 112.35,78.41 116.06,78.82 118.53,79.10 119.77,79.24 121.00,79.38 122.24,79.52 123.48,79.66 125.95,79.93 129.65,80.35 133.36,80.76 135.83,81.03 137.07,81.17 140.78,81.58 142.01,81.72 143.25,81.85 145.72,82.12 146.96,82.26 150.66,82.66 154.37,83.07 156.84,83.34 158.08,83.47 161.78,83.87 163.02,84.01 164.26,84.14 165.49,84.28 167.96,84.54 169.20,84.68 171.67,84.94 175.38,85.34 179.08,85.74 182.79,86.14 184.03,86.27 185.26,86.41 187.74,86.67 188.97,86.80 191.44,87.07 192.68,87.20 196.39,87.59 200.09,87.99 203.80,88.38 206.27,88.65 208.74,88.91 209.98,89.04 212.45,89.30 213.69,89.43 214.92,89.56 216.16,89.69 217.39,89.82 218.63,89.95 219.86,90.08 221.10,90.21 222.34,90.34 223.57,90.47 224.81,90.60 227.28,90.86 228.51,90.99 230.99,91.25 234.69,91.64 237.17,91.90 238.40,92.02 242.11,92.41 244.58,92.67 248.29,93.05 251.99,93.43 255.70,93.82 258.17,94.07 259.41,94.20 260.64,94.33 263.12,94.58 264.35,94.71 265.59,94.83 269.29,95.21 271.77,95.46 273.00,95.59 274.24,95.72 276.71,95.97 279.18,96.22 280.42,96.34 281.65,96.47 282.89,96.59 284.12,96.72 285.36,96.84 286.60,96.97 290.30,97.34 294.01,97.71 297.72,98.08 300.19,98.33 301.42,98.45 302.66,98.57 303.90,98.69 305.13,98.81 306.37,98.93 307.60,99.05 308.84,99.17 310.07,99.29 311.31,99.41 313.78,99.65 321.20,100.35 324.90,100.68 326.14,100.79 331.08,101.22 342.20,102.12 352.09,102.84 358.27,103.26 363.21,103.58 370.63,104.02 373.10,104.15 384.22,104.71 390.40,104.98 394.11,105.13 405.23,105.52 415.11,105.80 426.24,106.06 436.12,106.24 446.01,106.38 448.48,106.41 457.13,106.41 467.02,106.41 478.14,106.41 488.02,106.41 499.15,106.41 509.03,106.41 513.97,106.41 520.15,106.41 530.04,106.41 536.22,106.41 539.93,106.41 551.05,106.41 558.46,106.41 560.93,106.41 572.05,106.41 583.18,106.41 584.41,106.49 593.06,107.60 600.48,108.47 601.71,108.61 604.18,108.87 605.42,109.00 606.66,109.12 607.89,109.24 609.13,109.36 610.36,109.48 611.60,109.59 612.83,109.70 614.07,109.81 615.31,109.91 616.54,110.01 617.78,110.11 623.96,110.56 627.66,110.80 628.90,110.87 630.14,110.95 631.37,111.02 632.61,111.08 633.84,111.14 635.08,111.20 636.31,111.24 637.55,111.28 638.79,111.31 640.02,111.32 644.96,111.32 654.85,111.32 665.97,111.32 675.86,111.32 686.98,111.32 696.87,111.32 707.99,111.32 717.87,111.32 729.00,111.32 738.88,111.32 750.00,111.32 758.65,111.32"/>
<line x1="88" y1="70" x2="110" y2="70" stroke="#0f766e" stroke-width="2.8" stroke-dasharray="6 3"/>
<text x="116" y="74" font-family="Arial, sans-serif" font-size="12">[Pulldown]+[GND Clamp]</text>
<line x1="88" y1="88" x2="110" y2="88" stroke="#7c2d12" stroke-width="2.8" stroke-dasharray="6 3"/>
<text x="116" y="92" font-family="Arial, sans-serif" font-size="12">[Pullup]+[POWER Clamp]</text>
<text x="425.00" y="444.00" text-anchor="middle" font-family="Arial, sans-serif" font-size="12">Table voltage (V)</text>
<text transform="translate(18 226.00) rotate(-90)" text-anchor="middle" font-family="Arial, sans-serif" font-size="12">Current (A)</text>
<text x="420" y="42" font-family="Arial, sans-serif" font-size="11" fill="#555">thick dashed=combined typ curves</text>
</svg>