<svg xmlns="http://www.w3.org/2000/svg" width="800" height="560" viewBox="0 0 800 560">
<rect width="100%" height="100%" fill="#ffffff"/>
<text x="78" y="25" font-family="Arial, sans-serif" font-size="16" font-weight="700">E34_GPIO_SPI_I3C_MST_1V2_11 I-V Combined Curves</text>
<rect x="78" y="52" width="694" height="348" fill="#fbfbfb" stroke="#c8c8c8"/>
<line x1="78.00" y1="52" x2="78.00" y2="400" stroke="#ececec"/>
<text x="78.00" y="422" text-anchor="middle" font-family="Arial, sans-serif" font-size="11">-1.3</text>
<line x1="216.80" y1="52" x2="216.80" y2="400" stroke="#ececec"/>
<text x="216.80" y="422" text-anchor="middle" font-family="Arial, sans-serif" font-size="11">-0.523</text>
<line x1="355.60" y1="52" x2="355.60" y2="400" stroke="#ececec"/>
<text x="355.60" y="422" text-anchor="middle" font-family="Arial, sans-serif" font-size="11">0.226</text>
<line x1="494.40" y1="52" x2="494.40" y2="400" stroke="#ececec"/>
<text x="494.40" y="422" text-anchor="middle" font-family="Arial, sans-serif" font-size="11">0.974</text>
<line x1="633.20" y1="52" x2="633.20" y2="400" stroke="#ececec"/>
<text x="633.20" y="422" text-anchor="middle" font-family="Arial, sans-serif" font-size="11">1.7</text>
<line x1="772.00" y1="52" x2="772.00" y2="400" stroke="#ececec"/>
<text x="772.00" y="422" text-anchor="middle" font-family="Arial, sans-serif" font-size="11">2.5</text>
<line x1="78" y1="400.00" x2="772" y2="400.00" stroke="#ececec"/>
<text x="70" y="404.00" text-anchor="end" font-family="Arial, sans-serif" font-size="11">-0.733</text>
<line x1="78" y1="330.40" x2="772" y2="330.40" stroke="#ececec"/>
<text x="70" y="334.40" text-anchor="end" font-family="Arial, sans-serif" font-size="11">-0.555</text>
<line x1="78" y1="260.80" x2="772" y2="260.80" stroke="#ececec"/>
<text x="70" y="264.80" text-anchor="end" font-family="Arial, sans-serif" font-size="11">-0.377</text>
<line x1="78" y1="191.20" x2="772" y2="191.20" stroke="#ececec"/>
<text x="70" y="195.20" text-anchor="end" font-family="Arial, sans-serif" font-size="11">-0.199</text>
<line x1="78" y1="121.60" x2="772" y2="121.60" stroke="#ececec"/>
<text x="70" y="125.60" text-anchor="end" font-family="Arial, sans-serif" font-size="11">-0.0204</text>
<line x1="78" y1="52.00" x2="772" y2="52.00" stroke="#ececec"/>
<text x="70" y="56.00" text-anchor="end" font-family="Arial, sans-serif" font-size="11">0.158</text>
<line x1="313.78" y1="52" x2="313.78" y2="400" stroke="#777" stroke-dasharray="4 4"/>
<line x1="78" y1="113.62" x2="772" y2="113.62" stroke="#777" stroke-dasharray="4 4"/>
<line x1="91.35" y1="52" x2="91.35" y2="400" stroke="#555" stroke-dasharray="2 4"/>
<text x="95.35" y="66" font-family="Arial, sans-serif" font-size="11" fill="#555">-Vcc</text>
<line x1="536.22" y1="52" x2="536.22" y2="400" stroke="#555" stroke-dasharray="2 4"/>
<text x="540.22" y="66" font-family="Arial, sans-serif" font-size="11" fill="#555">Vcc</text>
<line x1="758.65" y1="52" x2="758.65" y2="400" stroke="#555" stroke-dasharray="2 4"/>
<text x="762.65" y="66" font-family="Arial, sans-serif" font-size="11" fill="#555">2Vcc</text>
<polyline fill="none" stroke="#0f766e" stroke-width="2.8" opacity="0.95" stroke-dasharray="6 3" points="91.35,376.00 102.47,336.15 111.74,302.95 122.86,263.10 133.98,223.26 137.69,209.98 139.54,203.33 141.39,196.69 143.25,190.05 145.10,183.41 146.96,176.77 148.81,170.13 150.66,164.54 152.52,160.06 154.37,156.53 156.22,153.79 158.08,151.70 159.93,150.11 161.78,148.87 163.64,147.88 165.49,147.07 167.35,146.39 169.20,145.80 171.05,145.28 172.91,144.79 174.76,144.34 176.61,143.91 178.47,143.49 180.32,143.08 182.17,142.66 184.03,142.26 185.88,141.87 187.74,141.45 189.59,141.05 191.44,140.65 193.30,140.26 195.15,139.87 197.00,139.47 198.86,139.07 200.71,138.67 202.56,138.26 204.42,137.86 206.27,137.45 208.12,137.06 209.98,136.66 211.83,136.26 213.69,135.84 215.54,135.42 217.39,134.99 219.25,134.59 221.10,134.18 222.95,133.76 226.66,132.91 237.78,130.39 248.90,127.84 258.17,125.71 269.29,123.16 280.42,120.64 289.68,118.58 300.81,116.21 310.07,114.33 313.78,113.62 321.20,112.24 332.32,110.34 341.59,108.93 347.15,108.16 350.85,107.69 352.71,107.46 354.56,107.24 360.12,106.62 363.83,106.24 369.39,105.73 373.10,105.43 384.22,104.67 395.34,104.15 404.61,103.86 415.73,103.62 426.85,103.45 436.12,103.34 447.24,103.23 456.51,103.15 462.07,103.10 467.63,103.05 478.76,102.97 488.02,102.90 499.15,102.83 506.56,102.78 510.27,102.76 513.97,102.73 519.54,102.70 530.66,102.63 536.22,102.60 541.78,102.57 551.05,102.52 558.46,102.48 562.17,102.46 571.44,102.41 582.56,102.35 593.68,102.30 602.95,102.25 614.07,102.17 625.19,102.07 634.46,101.93 645.58,101.69 656.70,101.33 665.97,100.92 677.09,100.30 688.22,99.54 697.48,98.80 708.61,97.79 717.87,96.85 729.00,95.62 740.12,94.29 749.39,93.11 758.65,91.86"/>
<polyline fill="none" stroke="#7c2d12" stroke-width="2.8" opacity="0.95" stroke-dasharray="6 3" points="91.35,76.00 95.05,76.74 98.76,77.49 102.47,78.23 106.18,78.97 108.03,79.34 111.74,80.07 115.44,80.80 117.30,81.17 119.15,81.53 121.00,81.89 122.86,82.26 126.57,82.97 128.42,83.33 130.27,83.69 132.13,84.05 133.98,84.41 135.83,84.76 137.69,85.12 139.54,85.47 141.39,85.83 143.25,86.18 145.10,86.53 146.96,86.88 148.81,87.22 150.66,87.57 152.52,87.92 154.37,88.27 156.22,88.61 158.08,88.96 159.93,89.30 161.78,89.64 163.64,89.99 165.49,90.32 167.35,90.66 169.20,91.00 171.05,91.33 174.76,92.01 176.61,92.34 178.47,92.67 180.32,93.00 182.17,93.33 184.03,93.66 185.88,93.99 189.59,94.64 191.44,94.97 193.30,95.29 195.15,95.62 197.00,95.93 198.86,96.25 200.71,96.57 202.56,96.89 204.42,97.21 206.27,97.52 208.12,97.83 209.98,98.15 211.83,98.46 213.69,98.77 215.54,99.08 217.39,99.39 221.10,100.00 222.95,100.30 224.81,100.61 226.66,100.91 228.51,101.21 232.22,101.81 234.08,102.10 235.93,102.40 237.78,102.70 239.64,102.99 241.49,103.28 243.34,103.57 245.20,103.86 248.90,104.44 250.76,104.72 252.61,105.01 254.47,105.29 256.32,105.58 258.17,105.86 260.03,106.14 261.88,106.41 263.73,106.69 265.59,106.96 267.44,107.24 269.29,107.52 273.00,108.06 276.71,108.59 280.42,109.13 284.12,109.65 287.83,110.17 289.68,110.43 291.54,110.68 295.25,111.18 298.95,111.68 300.81,111.93 302.66,112.18 304.51,112.42 306.37,112.66 308.22,112.90 310.07,113.14 311.93,113.38 313.78,113.62 321.20,114.52 330.46,115.56 332.32,115.75 341.59,116.68 352.71,117.66 363.83,118.50 365.68,118.63 373.10,119.09 384.22,119.67 387.93,119.83 395.34,120.11 404.61,120.38 415.73,120.62 423.15,120.75 426.85,120.81 436.12,120.93 447.24,121.05 456.51,121.05 463.93,121.05 467.63,121.05 478.76,121.05 488.02,121.05 499.15,121.05 510.27,121.05 513.97,121.05 519.54,121.05 530.66,121.05 536.22,121.05 541.78,121.05 551.05,121.05 558.46,121.05 562.17,121.05 571.44,121.05 582.56,123.58 593.68,126.13 599.24,127.39 601.10,127.82 614.07,130.69 625.19,132.98 634.46,134.71 643.73,136.26 645.58,136.54 647.44,136.82 649.29,137.09 651.14,137.35 653.00,137.60 654.85,137.84 656.70,138.08 658.56,138.31 660.41,138.53 662.26,138.74 664.12,138.95 665.97,139.15 667.83,139.34 669.68,139.52 671.53,139.70 673.39,139.87 675.24,140.03 677.09,140.19 680.80,140.47 682.65,140.60 684.51,140.71 686.36,140.81 688.22,140.88 690.07,140.92 697.48,140.92 703.04,140.92 708.61,140.92 712.31,140.92 714.17,140.92 716.02,140.92 717.87,140.92 719.73,140.92 729.00,140.92 740.12,140.92 749.39,140.92 758.65,140.92"/>
<line x1="88" y1="70" x2="110" y2="70" stroke="#0f766e" stroke-width="2.8" stroke-dasharray="6 3"/>
<text x="116" y="74" font-family="Arial, sans-serif" font-size="12">[Pulldown]+[GND Clamp]</text>
<line x1="88" y1="88" x2="110" y2="88" stroke="#7c2d12" stroke-width="2.8" stroke-dasharray="6 3"/>
<text x="116" y="92" font-family="Arial, sans-serif" font-size="12">[Pullup]+[POWER Clamp]</text>
<rect x="78" y="464" width="694" height="44" fill="#fffdf7" stroke="#d8c6a1" rx="4"/>
<text x="88" y="481" font-family="Arial, sans-serif" font-size="11" font-weight="700" fill="#4b3b21">Findings needing attention</text>
<rect x="88" y="488" width="7" height="7" fill="#b54708"/>
<text x="102" y="495" font-family="Arial, sans-serif" font-size="11" fill="#333">WARN 5.3.6: I-V stair-step evidence needs review | [GND Clamp]: roughness=0.169 &gt; 0.1</text>
<text x="425.00" y="444.00" text-anchor="middle" font-family="Arial, sans-serif" font-size="12">Table voltage (V)</text>
<text transform="translate(18 226.00) rotate(-90)" text-anchor="middle" font-family="Arial, sans-serif" font-size="12">Current (A)</text>
<text x="420" y="42" font-family="Arial, sans-serif" font-size="11" fill="#555">thick dashed=combined typ curves</text>
</svg>