<svg xmlns="http://www.w3.org/2000/svg" width="800" height="560" viewBox="0 0 800 560">
<rect width="100%" height="100%" fill="#ffffff"/>
<text x="78" y="25" font-family="Arial, sans-serif" font-size="16" font-weight="700">E34_GPIO_SPI_I3C_MST_1V8_11 I-V Combined Curves</text>
<rect x="78" y="52" width="694" height="348" fill="#fbfbfb" stroke="#c8c8c8"/>
<line x1="78.00" y1="52" x2="78.00" y2="400" stroke="#ececec"/>
<text x="78.00" y="422" text-anchor="middle" font-family="Arial, sans-serif" font-size="11">-1.9</text>
<line x1="216.80" y1="52" x2="216.80" y2="400" stroke="#ececec"/>
<text x="216.80" y="422" text-anchor="middle" font-family="Arial, sans-serif" font-size="11">-0.785</text>
<line x1="355.60" y1="52" x2="355.60" y2="400" stroke="#ececec"/>
<text x="355.60" y="422" text-anchor="middle" font-family="Arial, sans-serif" font-size="11">0.338</text>
<line x1="494.40" y1="52" x2="494.40" y2="400" stroke="#ececec"/>
<text x="494.40" y="422" text-anchor="middle" font-family="Arial, sans-serif" font-size="11">1.5</text>
<line x1="633.20" y1="52" x2="633.20" y2="400" stroke="#ececec"/>
<text x="633.20" y="422" text-anchor="middle" font-family="Arial, sans-serif" font-size="11">2.6</text>
<line x1="772.00" y1="52" x2="772.00" y2="400" stroke="#ececec"/>
<text x="772.00" y="422" text-anchor="middle" font-family="Arial, sans-serif" font-size="11">3.7</text>
<line x1="78" y1="400.00" x2="772" y2="400.00" stroke="#ececec"/>
<text x="70" y="404.00" text-anchor="end" font-family="Arial, sans-serif" font-size="11">-1.9</text>
<line x1="78" y1="330.40" x2="772" y2="330.40" stroke="#ececec"/>
<text x="70" y="334.40" text-anchor="end" font-family="Arial, sans-serif" font-size="11">-1.4</text>
<line x1="78" y1="260.80" x2="772" y2="260.80" stroke="#ececec"/>
<text x="70" y="264.80" text-anchor="end" font-family="Arial, sans-serif" font-size="11">-0.986</text>
<line x1="78" y1="191.20" x2="772" y2="191.20" stroke="#ececec"/>
<text x="70" y="195.20" text-anchor="end" font-family="Arial, sans-serif" font-size="11">-0.543</text>
<line x1="78" y1="121.60" x2="772" y2="121.60" stroke="#ececec"/>
<text x="70" y="125.60" text-anchor="end" font-family="Arial, sans-serif" font-size="11">-0.1</text>
<line x1="78" y1="52.00" x2="772" y2="52.00" stroke="#ececec"/>
<text x="70" y="56.00" text-anchor="end" font-family="Arial, sans-serif" font-size="11">0.343</text>
<line x1="313.78" y1="52" x2="313.78" y2="400" stroke="#777" stroke-dasharray="4 4"/>
<line x1="78" y1="105.84" x2="772" y2="105.84" stroke="#777" stroke-dasharray="4 4"/>
<line x1="91.35" y1="52" x2="91.35" y2="400" stroke="#555" stroke-dasharray="2 4"/>
<text x="95.35" y="66" font-family="Arial, sans-serif" font-size="11" fill="#555">-Vcc</text>
<line x1="536.22" y1="52" x2="536.22" y2="400" stroke="#555" stroke-dasharray="2 4"/>
<text x="540.22" y="66" font-family="Arial, sans-serif" font-size="11" fill="#555">Vcc</text>
<line x1="758.65" y1="52" x2="758.65" y2="400" stroke="#555" stroke-dasharray="2 4"/>
<text x="762.65" y="66" font-family="Arial, sans-serif" font-size="11" fill="#555">2Vcc</text>
<polyline fill="none" stroke="#0f766e" stroke-width="2.8" opacity="0.95" stroke-dasharray="6 3" points="91.35,376.00 101.23,354.62 112.35,330.58 122.24,309.20 133.36,285.15 143.25,263.78 154.37,239.73 164.26,218.36 175.38,194.31 185.26,172.93 196.39,148.89 197.62,146.22 198.86,143.54 200.09,140.87 201.33,138.20 202.56,135.53 203.80,132.86 205.04,130.59 206.27,128.77 207.51,127.33 208.74,126.22 209.98,125.37 211.21,124.71 212.45,124.18 213.69,123.76 214.92,123.41 216.16,123.10 217.39,122.84 218.63,122.60 219.86,122.37 221.10,122.16 222.34,121.95 223.57,121.75 224.81,121.56 226.04,121.36 227.28,121.16 228.51,120.96 229.75,120.77 230.99,120.57 232.22,120.38 233.46,120.18 234.69,119.98 235.93,119.79 237.17,119.59 238.40,119.40 240.87,119.01 242.11,118.81 243.34,118.61 244.58,118.40 247.05,117.98 248.29,117.76 249.52,117.56 250.76,117.35 251.99,117.15 253.23,116.94 254.47,116.72 255.70,116.51 258.17,116.06 269.29,114.09 279.18,112.28 290.30,110.20 300.19,108.35 311.31,106.29 313.78,105.84 321.20,104.54 331.08,102.89 336.03,102.12 342.20,101.21 343.44,101.03 352.09,99.89 357.03,99.31 363.21,98.64 373.10,97.73 384.22,96.92 394.11,96.39 405.23,95.96 415.11,95.70 426.24,95.50 436.12,95.37 446.01,95.27 453.42,95.21 457.13,95.18 467.02,95.10 478.14,95.03 488.02,94.98 491.73,94.96 499.15,94.92 509.03,94.87 513.97,94.85 520.15,94.82 525.10,94.80 530.04,94.78 536.22,94.75 539.93,94.73 551.05,94.69 558.46,94.66 560.93,94.65 572.05,94.61 581.94,94.57 593.06,94.51 602.95,94.42 614.07,94.24 623.96,93.97 635.08,93.55 644.96,93.07 654.85,92.50 665.97,91.75 675.86,91.01 686.98,90.10 696.87,89.22 707.99,88.17 717.87,87.18 729.00,86.01 738.88,84.93 750.00,83.68 758.65,82.67"/>
<polyline fill="none" stroke="#7c2d12" stroke-width="2.8" opacity="0.95" stroke-dasharray="6 3" points="91.35,76.00 95.05,76.52 98.76,77.03 101.23,77.37 104.94,77.89 108.65,78.41 112.35,78.92 116.06,79.44 118.53,79.79 119.77,79.96 122.24,80.30 125.95,80.82 128.42,81.16 129.65,81.34 130.89,81.51 132.13,81.68 133.36,81.85 137.07,82.37 140.78,82.88 143.25,83.23 146.96,83.74 150.66,84.26 154.37,84.77 155.61,84.94 156.84,85.11 158.08,85.28 159.31,85.45 161.78,85.79 164.26,86.13 167.96,86.64 171.67,87.15 174.14,87.49 175.38,87.66 177.85,88.00 179.08,88.17 180.32,88.33 181.56,88.50 182.79,88.67 184.03,88.84 185.26,89.01 188.97,89.51 192.68,90.02 196.39,90.52 197.62,90.69 198.86,90.85 200.09,91.02 201.33,91.19 202.56,91.35 203.80,91.52 206.27,91.85 207.51,92.02 208.74,92.19 209.98,92.35 213.69,92.85 216.16,93.18 217.39,93.35 221.10,93.84 223.57,94.17 227.28,94.67 230.99,95.16 234.69,95.65 237.17,95.98 238.40,96.15 239.64,96.31 240.87,96.47 242.11,96.64 244.58,96.96 247.05,97.29 248.29,97.45 250.76,97.78 251.99,97.94 254.47,98.26 255.70,98.43 256.94,98.59 258.17,98.75 259.41,98.91 263.12,99.39 265.59,99.72 269.29,100.20 270.53,100.36 271.77,100.52 273.00,100.68 275.47,101.00 276.71,101.16 277.95,101.32 279.18,101.48 280.42,101.64 281.65,101.80 282.89,101.95 284.12,102.11 286.60,102.43 290.30,102.91 294.01,103.38 297.72,103.84 300.19,104.16 301.42,104.31 302.66,104.47 303.90,104.62 305.13,104.77 307.60,105.08 308.84,105.23 311.31,105.54 313.78,105.84 321.20,106.73 324.90,107.15 326.14,107.29 331.08,107.83 342.20,108.97 347.15,109.45 352.09,109.90 358.27,110.43 363.21,110.83 373.10,111.56 374.33,111.64 384.22,112.27 394.11,112.80 405.23,113.30 415.11,113.66 426.24,113.98 436.12,114.21 446.01,114.39 448.48,114.43 457.13,114.43 467.02,114.43 478.14,114.43 488.02,114.43 499.15,114.43 509.03,114.43 513.97,114.43 520.15,114.43 530.04,114.43 536.22,114.43 539.93,114.43 551.05,114.43 558.46,114.43 560.93,114.43 572.05,114.43 581.94,114.43 583.18,114.51 593.06,116.18 598.01,116.94 601.71,117.48 602.95,117.65 604.18,117.82 605.42,117.99 606.66,118.15 607.89,118.31 609.13,118.46 610.36,118.61 611.60,118.76 612.83,118.90 615.31,119.17 616.54,119.30 619.01,119.55 621.49,119.79 625.19,120.12 627.66,120.33 628.90,120.43 631.37,120.61 632.61,120.69 633.84,120.77 635.08,120.84 636.31,120.91 637.55,120.96 638.79,120.99 640.02,121.01 644.96,121.01 654.85,121.01 665.97,121.01 675.86,121.01 686.98,121.01 696.87,121.01 707.99,121.01 717.87,121.01 729.00,121.01 738.88,121.01 750.00,121.01 758.65,121.01"/>
<line x1="88" y1="70" x2="110" y2="70" stroke="#0f766e" stroke-width="2.8" stroke-dasharray="6 3"/>
<text x="116" y="74" font-family="Arial, sans-serif" font-size="12">[Pulldown]+[GND Clamp]</text>
<line x1="88" y1="88" x2="110" y2="88" stroke="#7c2d12" stroke-width="2.8" stroke-dasharray="6 3"/>
<text x="116" y="92" font-family="Arial, sans-serif" font-size="12">[Pullup]+[POWER Clamp]</text>
<text x="425.00" y="444.00" text-anchor="middle" font-family="Arial, sans-serif" font-size="12">Table voltage (V)</text>
<text transform="translate(18 226.00) rotate(-90)" text-anchor="middle" font-family="Arial, sans-serif" font-size="12">Current (A)</text>
<text x="420" y="42" font-family="Arial, sans-serif" font-size="11" fill="#555">thick dashed=combined typ curves</text>
</svg>