<svg xmlns="http://www.w3.org/2000/svg" width="800" height="560" viewBox="0 0 800 560">
<rect width="100%" height="100%" fill="#ffffff"/>
<text x="78" y="25" font-family="Arial, sans-serif" font-size="16" font-weight="700">E34_GPIO_I3C_I2C_SLV_1V8_00 I-V Combined Curves</text>
<rect x="78" y="52" width="694" height="348" fill="#fbfbfb" stroke="#c8c8c8"/>
<line x1="78.00" y1="52" x2="78.00" y2="400" stroke="#ececec"/>
<text x="78.00" y="422" text-anchor="middle" font-family="Arial, sans-serif" font-size="11">-1.9</text>
<line x1="216.80" y1="52" x2="216.80" y2="400" stroke="#ececec"/>
<text x="216.80" y="422" text-anchor="middle" font-family="Arial, sans-serif" font-size="11">-0.785</text>
<line x1="355.60" y1="52" x2="355.60" y2="400" stroke="#ececec"/>
<text x="355.60" y="422" text-anchor="middle" font-family="Arial, sans-serif" font-size="11">0.338</text>
<line x1="494.40" y1="52" x2="494.40" y2="400" stroke="#ececec"/>
<text x="494.40" y="422" text-anchor="middle" font-family="Arial, sans-serif" font-size="11">1.5</text>
<line x1="633.20" y1="52" x2="633.20" y2="400" stroke="#ececec"/>
<text x="633.20" y="422" text-anchor="middle" font-family="Arial, sans-serif" font-size="11">2.6</text>
<line x1="772.00" y1="52" x2="772.00" y2="400" stroke="#ececec"/>
<text x="772.00" y="422" text-anchor="middle" font-family="Arial, sans-serif" font-size="11">3.7</text>
<line x1="78" y1="400.00" x2="772" y2="400.00" stroke="#ececec"/>
<text x="70" y="404.00" text-anchor="end" font-family="Arial, sans-serif" font-size="11">-1.8</text>
<line x1="78" y1="330.40" x2="772" y2="330.40" stroke="#ececec"/>
<text x="70" y="334.40" text-anchor="end" font-family="Arial, sans-serif" font-size="11">-1.4</text>
<line x1="78" y1="260.80" x2="772" y2="260.80" stroke="#ececec"/>
<text x="70" y="264.80" text-anchor="end" font-family="Arial, sans-serif" font-size="11">-0.992</text>
<line x1="78" y1="191.20" x2="772" y2="191.20" stroke="#ececec"/>
<text x="70" y="195.20" text-anchor="end" font-family="Arial, sans-serif" font-size="11">-0.6</text>
<line x1="78" y1="121.60" x2="772" y2="121.60" stroke="#ececec"/>
<text x="70" y="125.60" text-anchor="end" font-family="Arial, sans-serif" font-size="11">-0.208</text>
<line x1="78" y1="52.00" x2="772" y2="52.00" stroke="#ececec"/>
<text x="70" y="56.00" text-anchor="end" font-family="Arial, sans-serif" font-size="11">0.185</text>
<line x1="313.78" y1="52" x2="313.78" y2="400" stroke="#777" stroke-dasharray="4 4"/>
<line x1="78" y1="84.75" x2="772" y2="84.75" stroke="#777" stroke-dasharray="4 4"/>
<line x1="91.35" y1="52" x2="91.35" y2="400" stroke="#555" stroke-dasharray="2 4"/>
<text x="95.35" y="66" font-family="Arial, sans-serif" font-size="11" fill="#555">-Vcc</text>
<line x1="536.22" y1="52" x2="536.22" y2="400" stroke="#555" stroke-dasharray="2 4"/>
<text x="540.22" y="66" font-family="Arial, sans-serif" font-size="11" fill="#555">Vcc</text>
<line x1="758.65" y1="52" x2="758.65" y2="400" stroke="#555" stroke-dasharray="2 4"/>
<text x="762.65" y="66" font-family="Arial, sans-serif" font-size="11" fill="#555">2Vcc</text>
<polyline fill="none" stroke="#0f766e" stroke-width="2.8" opacity="0.95" stroke-dasharray="6 3" points="91.35,376.00 101.23,351.87 112.35,324.72 122.24,300.59 133.36,273.44 143.25,249.31 154.37,222.17 164.26,198.04 175.38,170.89 185.26,146.76 196.39,119.61 197.62,116.60 198.86,113.58 200.09,110.56 201.33,107.55 202.56,104.53 203.80,101.51 205.04,98.95 206.27,96.90 207.51,95.28 208.74,94.03 209.98,93.07 211.21,92.33 212.45,91.77 213.69,91.34 214.92,91.00 216.16,90.72 217.39,90.49 218.63,90.30 219.86,90.12 221.10,89.97 222.34,89.82 223.57,89.69 224.81,89.56 226.04,89.43 227.28,89.31 228.51,89.19 229.75,89.08 230.99,88.97 232.22,88.86 233.46,88.75 234.69,88.65 235.93,88.55 237.17,88.45 238.40,88.35 239.64,88.27 240.87,88.19 242.11,88.10 244.58,87.93 247.05,87.75 248.29,87.66 249.52,87.60 250.76,87.53 251.99,87.46 253.23,87.39 255.70,87.25 258.17,87.11 269.29,86.60 279.18,86.19 290.30,85.72 300.19,85.31 311.31,84.85 313.78,84.75 321.20,84.45 331.08,84.08 342.20,83.71 352.09,83.42 363.21,83.13 368.16,83.03 373.10,82.93 378.04,82.84 384.22,82.75 394.11,82.63 396.58,82.61 405.23,82.54 415.11,82.48 426.24,82.43 433.65,82.41 436.12,82.40 446.01,82.38 453.42,82.37 457.13,82.36 464.54,82.35 467.02,82.34 478.14,82.33 488.02,82.32 499.15,82.30 509.03,82.29 513.97,82.29 520.15,82.28 530.04,82.27 536.22,82.27 539.93,82.26 551.05,82.25 558.46,82.25 560.93,82.24 572.05,82.23 581.94,82.23 593.06,82.21 602.95,82.19 614.07,82.14 623.96,82.06 635.08,81.95 644.96,81.82 654.85,81.66 665.97,81.45 675.86,81.24 686.98,80.98 696.87,80.73 707.99,80.42 717.87,80.12 729.00,79.73 738.88,79.33 750.00,78.84 756.18,78.53 758.65,78.41"/>
<polyline fill="none" stroke="#7c2d12" stroke-width="2.8" opacity="0.95" stroke-dasharray="6 3" points="91.35,76.00 92.58,76.07 95.05,76.21 96.29,76.28 98.76,76.42 100.00,76.49 101.23,76.55 102.47,76.62 103.70,76.69 104.94,76.75 106.18,76.81 107.41,76.88 108.65,76.94 109.88,77.00 112.35,77.13 114.83,77.25 116.06,77.31 117.30,77.37 118.53,77.43 119.77,77.49 121.00,77.54 122.24,77.60 124.71,77.71 125.95,77.77 128.42,77.88 129.65,77.93 133.36,78.09 134.60,78.15 137.07,78.25 140.78,78.40 142.01,78.45 143.25,78.51 146.96,78.65 150.66,78.80 151.90,78.85 153.13,78.90 154.37,78.95 155.61,79.00 156.84,79.04 158.08,79.09 160.55,79.19 161.78,79.24 163.02,79.28 164.26,79.33 165.49,79.38 167.96,79.47 169.20,79.52 171.67,79.62 175.38,79.76 177.85,79.85 179.08,79.90 182.79,80.04 184.03,80.08 185.26,80.13 186.50,80.18 187.74,80.22 188.97,80.27 192.68,80.41 196.39,80.55 200.09,80.69 203.80,80.83 206.27,80.92 209.98,81.06 211.21,81.10 212.45,81.15 213.69,81.19 214.92,81.24 216.16,81.28 217.39,81.33 218.63,81.38 219.86,81.42 221.10,81.47 222.34,81.51 223.57,81.56 224.81,81.60 226.04,81.65 227.28,81.69 230.99,81.83 234.69,81.96 237.17,82.05 238.40,82.10 242.11,82.23 243.34,82.28 244.58,82.32 248.29,82.46 251.99,82.59 255.70,82.72 258.17,82.81 259.41,82.85 263.12,82.99 264.35,83.03 265.59,83.07 269.29,83.21 271.77,83.29 273.00,83.34 274.24,83.38 276.71,83.47 277.95,83.51 279.18,83.56 280.42,83.60 281.65,83.64 282.89,83.68 284.12,83.73 285.36,83.77 286.60,83.81 290.30,83.94 294.01,84.07 297.72,84.20 300.19,84.28 301.42,84.33 302.66,84.37 305.13,84.45 306.37,84.49 307.60,84.54 308.84,84.58 310.07,84.62 311.31,84.66 313.78,84.75 321.20,84.99 324.90,85.10 326.14,85.14 327.38,85.18 328.61,85.22 331.08,85.29 342.20,85.60 352.09,85.85 363.21,86.11 369.39,86.23 373.10,86.31 384.22,86.50 394.11,86.65 405.23,86.78 415.11,86.88 426.24,86.97 436.12,87.03 438.59,87.04 446.01,87.08 453.42,87.11 457.13,87.12 464.54,87.15 467.02,87.16 478.14,87.19 488.02,87.21 499.15,87.24 509.03,87.26 513.97,87.27 520.15,87.28 530.04,87.29 536.22,87.30 539.93,87.31 551.05,87.33 558.46,87.34 560.93,87.34 572.05,87.35 581.94,87.37 593.06,87.38 602.95,87.39 612.83,87.40 614.07,87.40 623.96,87.41 635.08,87.43 646.20,87.44 654.85,87.44 665.97,87.44 675.86,87.44 686.98,87.44 696.87,87.44 707.99,87.44 717.87,87.44 729.00,87.44 738.88,87.44 750.00,87.44 758.65,87.44"/>
<line x1="88" y1="70" x2="110" y2="70" stroke="#0f766e" stroke-width="2.8" stroke-dasharray="6 3"/>
<text x="116" y="74" font-family="Arial, sans-serif" font-size="12">[Pulldown]+[GND Clamp]</text>
<line x1="88" y1="88" x2="110" y2="88" stroke="#7c2d12" stroke-width="2.8" stroke-dasharray="6 3"/>
<text x="116" y="92" font-family="Arial, sans-serif" font-size="12">[Pullup]+[POWER Clamp]</text>
<text x="425.00" y="444.00" text-anchor="middle" font-family="Arial, sans-serif" font-size="12">Table voltage (V)</text>
<text transform="translate(18 226.00) rotate(-90)" text-anchor="middle" font-family="Arial, sans-serif" font-size="12">Current (A)</text>
<text x="420" y="42" font-family="Arial, sans-serif" font-size="11" fill="#555">thick dashed=combined typ curves</text>
</svg>