<svg xmlns="http://www.w3.org/2000/svg" width="800" height="560" viewBox="0 0 800 560">
<rect width="100%" height="100%" fill="#ffffff"/>
<text x="78" y="25" font-family="Arial, sans-serif" font-size="16" font-weight="700">E34_GPIO_SPI_1V2_01 I-V Combined Curves</text>
<rect x="78" y="52" width="694" height="348" fill="#fbfbfb" stroke="#c8c8c8"/>
<line x1="78.00" y1="52" x2="78.00" y2="400" stroke="#ececec"/>
<text x="78.00" y="422" text-anchor="middle" font-family="Arial, sans-serif" font-size="11">-1.3</text>
<line x1="216.80" y1="52" x2="216.80" y2="400" stroke="#ececec"/>
<text x="216.80" y="422" text-anchor="middle" font-family="Arial, sans-serif" font-size="11">-0.523</text>
<line x1="355.60" y1="52" x2="355.60" y2="400" stroke="#ececec"/>
<text x="355.60" y="422" text-anchor="middle" font-family="Arial, sans-serif" font-size="11">0.226</text>
<line x1="494.40" y1="52" x2="494.40" y2="400" stroke="#ececec"/>
<text x="494.40" y="422" text-anchor="middle" font-family="Arial, sans-serif" font-size="11">0.974</text>
<line x1="633.20" y1="52" x2="633.20" y2="400" stroke="#ececec"/>
<text x="633.20" y="422" text-anchor="middle" font-family="Arial, sans-serif" font-size="11">1.7</text>
<line x1="772.00" y1="52" x2="772.00" y2="400" stroke="#ececec"/>
<text x="772.00" y="422" text-anchor="middle" font-family="Arial, sans-serif" font-size="11">2.5</text>
<line x1="78" y1="400.00" x2="772" y2="400.00" stroke="#ececec"/>
<text x="70" y="404.00" text-anchor="end" font-family="Arial, sans-serif" font-size="11">-0.689</text>
<line x1="78" y1="330.40" x2="772" y2="330.40" stroke="#ececec"/>
<text x="70" y="334.40" text-anchor="end" font-family="Arial, sans-serif" font-size="11">-0.531</text>
<line x1="78" y1="260.80" x2="772" y2="260.80" stroke="#ececec"/>
<text x="70" y="264.80" text-anchor="end" font-family="Arial, sans-serif" font-size="11">-0.372</text>
<line x1="78" y1="191.20" x2="772" y2="191.20" stroke="#ececec"/>
<text x="70" y="195.20" text-anchor="end" font-family="Arial, sans-serif" font-size="11">-0.214</text>
<line x1="78" y1="121.60" x2="772" y2="121.60" stroke="#ececec"/>
<text x="70" y="125.60" text-anchor="end" font-family="Arial, sans-serif" font-size="11">-0.0555</text>
<line x1="78" y1="52.00" x2="772" y2="52.00" stroke="#ececec"/>
<text x="70" y="56.00" text-anchor="end" font-family="Arial, sans-serif" font-size="11">0.103</text>
<line x1="313.78" y1="52" x2="313.78" y2="400" stroke="#777" stroke-dasharray="4 4"/>
<line x1="78" y1="97.18" x2="772" y2="97.18" stroke="#777" stroke-dasharray="4 4"/>
<line x1="91.35" y1="52" x2="91.35" y2="400" stroke="#555" stroke-dasharray="2 4"/>
<text x="95.35" y="66" font-family="Arial, sans-serif" font-size="11" fill="#555">-Vcc</text>
<line x1="536.22" y1="52" x2="536.22" y2="400" stroke="#555" stroke-dasharray="2 4"/>
<text x="540.22" y="66" font-family="Arial, sans-serif" font-size="11" fill="#555">Vcc</text>
<line x1="758.65" y1="52" x2="758.65" y2="400" stroke="#555" stroke-dasharray="2 4"/>
<text x="762.65" y="66" font-family="Arial, sans-serif" font-size="11" fill="#555">2Vcc</text>
<polyline fill="none" stroke="#0f766e" stroke-width="2.8" opacity="0.95" stroke-dasharray="6 3" points="91.35,376.00 102.47,331.17 111.74,293.80 122.86,248.97 133.98,204.13 137.69,189.19 139.54,181.72 141.39,174.24 143.25,166.77 145.10,159.30 146.96,151.83 148.81,144.35 150.66,138.06 152.52,133.02 154.37,129.05 156.22,125.97 158.08,123.62 159.93,121.83 161.78,120.45 163.64,119.38 165.49,118.53 167.35,117.83 169.20,117.24 171.05,116.74 172.91,116.28 174.76,115.87 176.61,115.48 178.47,115.11 180.32,114.75 182.17,114.40 184.03,114.07 185.88,113.74 187.74,113.41 189.59,113.08 191.44,112.76 193.30,112.46 195.15,112.15 197.00,111.85 198.86,111.55 200.71,111.25 202.56,110.97 204.42,110.68 206.27,110.38 208.12,110.12 209.98,109.85 211.83,109.58 213.69,109.31 215.54,109.03 217.39,108.74 219.25,108.50 221.10,108.24 226.66,107.47 237.78,106.03 248.90,104.65 258.17,103.52 269.29,102.18 280.42,100.86 289.68,99.78 300.81,98.54 310.07,97.56 313.78,97.18 321.20,96.46 332.32,95.47 341.59,94.73 352.71,93.97 354.56,93.85 356.42,93.73 360.12,93.52 361.98,93.42 363.83,93.33 367.54,93.14 371.24,92.98 373.10,92.90 378.66,92.69 384.22,92.50 386.07,92.45 395.34,92.23 402.76,92.11 404.61,92.08 415.73,91.95 425.00,91.88 426.85,91.87 436.12,91.81 447.24,91.75 454.66,91.71 456.51,91.71 467.63,91.66 478.76,91.61 488.02,91.58 499.15,91.54 510.27,91.50 513.97,91.49 519.54,91.47 530.66,91.44 536.22,91.42 541.78,91.41 551.05,91.38 558.46,91.36 562.17,91.35 571.44,91.32 582.56,91.29 593.68,91.26 602.95,91.24 614.07,91.20 625.19,91.14 634.46,91.06 645.58,90.93 656.70,90.73 665.97,90.50 677.09,90.15 688.22,89.72 697.48,89.31 708.61,88.74 717.87,88.21 729.00,87.52 740.12,86.76 749.39,86.10 758.65,85.39"/>
<polyline fill="none" stroke="#7c2d12" stroke-width="2.8" opacity="0.95" stroke-dasharray="6 3" points="91.35,76.00 95.05,76.42 98.76,76.84 102.47,77.26 106.18,77.68 108.03,77.89 111.74,78.30 115.44,78.71 117.30,78.92 119.15,79.12 122.86,79.53 126.57,79.94 130.27,80.34 132.13,80.55 133.98,80.75 137.69,81.15 139.54,81.35 141.39,81.55 143.25,81.75 146.96,82.14 148.81,82.34 150.66,82.53 154.37,82.93 156.22,83.12 158.08,83.31 159.93,83.51 161.78,83.70 163.64,83.89 165.49,84.08 167.35,84.27 169.20,84.46 171.05,84.65 172.91,84.84 174.76,85.03 178.47,85.41 180.32,85.59 182.17,85.78 184.03,85.96 185.88,86.15 189.59,86.52 191.44,86.70 193.30,86.88 195.15,87.06 197.00,87.24 200.71,87.60 202.56,87.78 204.42,87.96 206.27,88.14 208.12,88.31 209.98,88.49 211.83,88.66 213.69,88.84 217.39,89.19 219.25,89.36 221.10,89.53 224.81,89.87 226.66,90.04 228.51,90.21 230.37,90.38 232.22,90.55 235.93,90.88 237.78,91.05 239.64,91.21 241.49,91.37 243.34,91.54 245.20,91.70 248.90,92.03 250.76,92.19 252.61,92.35 254.47,92.50 256.32,92.66 258.17,92.82 260.03,92.98 263.73,93.29 265.59,93.45 267.44,93.60 269.29,93.76 271.15,93.91 273.00,94.06 274.86,94.21 276.71,94.36 278.56,94.51 280.42,94.66 282.27,94.81 284.12,94.95 285.98,95.10 287.83,95.24 289.68,95.39 291.54,95.53 295.25,95.82 297.10,95.96 298.95,96.10 300.81,96.23 302.66,96.37 304.51,96.51 306.37,96.64 308.22,96.78 310.07,96.92 311.93,97.05 313.78,97.18 321.20,97.69 326.76,98.05 328.61,98.16 330.46,98.28 332.32,98.39 341.59,98.91 352.71,99.46 363.83,99.93 369.39,100.14 373.10,100.26 384.22,100.59 395.34,100.84 404.61,100.99 415.73,101.13 426.85,101.23 436.12,101.30 447.24,101.37 456.51,101.37 465.78,101.37 467.63,101.37 478.76,101.37 488.02,101.37 499.15,101.37 510.27,101.37 513.97,101.37 519.54,101.37 530.66,101.37 536.22,101.37 541.78,101.37 551.05,101.37 558.46,101.37 562.17,101.37 573.29,101.37 575.14,101.52 582.56,102.40 593.68,103.73 602.95,104.84 614.07,106.12 625.19,107.32 628.90,107.70 632.61,108.06 634.46,108.23 636.31,108.40 638.17,108.57 640.02,108.73 641.88,108.89 643.73,109.04 645.58,109.19 647.44,109.34 649.29,109.48 651.14,109.61 654.85,109.87 656.70,110.00 658.56,110.12 660.41,110.23 662.26,110.34 664.12,110.45 665.97,110.56 671.53,110.85 675.24,111.02 677.09,111.10 678.95,111.18 680.80,111.25 682.65,111.32 684.51,111.38 686.36,111.43 688.22,111.46 690.07,111.48 697.48,111.48 708.61,111.48 717.87,111.48 729.00,111.48 734.56,111.48 740.12,111.48 749.39,111.48 758.65,111.48"/>
<line x1="88" y1="70" x2="110" y2="70" stroke="#0f766e" stroke-width="2.8" stroke-dasharray="6 3"/>
<text x="116" y="74" font-family="Arial, sans-serif" font-size="12">[Pulldown]+[GND Clamp]</text>
<line x1="88" y1="88" x2="110" y2="88" stroke="#7c2d12" stroke-width="2.8" stroke-dasharray="6 3"/>
<text x="116" y="92" font-family="Arial, sans-serif" font-size="12">[Pullup]+[POWER Clamp]</text>
<rect x="78" y="464" width="694" height="44" fill="#fffdf7" stroke="#d8c6a1" rx="4"/>
<text x="88" y="481" font-family="Arial, sans-serif" font-size="11" font-weight="700" fill="#4b3b21">Findings needing attention</text>
<rect x="88" y="488" width="7" height="7" fill="#b54708"/>
<text x="102" y="495" font-family="Arial, sans-serif" font-size="11" fill="#333">WARN 5.3.6: I-V stair-step evidence needs review | [GND Clamp]: roughness=0.169 &gt; 0.1</text>
<text x="425.00" y="444.00" text-anchor="middle" font-family="Arial, sans-serif" font-size="12">Table voltage (V)</text>
<text transform="translate(18 226.00) rotate(-90)" text-anchor="middle" font-family="Arial, sans-serif" font-size="12">Current (A)</text>
<text x="420" y="42" font-family="Arial, sans-serif" font-size="11" fill="#555">thick dashed=combined typ curves</text>
</svg>