<svg xmlns="http://www.w3.org/2000/svg" width="800" height="560" viewBox="0 0 800 560">
<rect width="100%" height="100%" fill="#ffffff"/>
<text x="78" y="25" font-family="Arial, sans-serif" font-size="16" font-weight="700">E34_GPIO_I2CSCLIN_1V2_00 I-V Combined Curves</text>
<rect x="78" y="52" width="694" height="348" fill="#fbfbfb" stroke="#c8c8c8"/>
<line x1="78.00" y1="52" x2="78.00" y2="400" stroke="#ececec"/>
<text x="78.00" y="422" text-anchor="middle" font-family="Arial, sans-serif" font-size="11">-1.3</text>
<line x1="216.80" y1="52" x2="216.80" y2="400" stroke="#ececec"/>
<text x="216.80" y="422" text-anchor="middle" font-family="Arial, sans-serif" font-size="11">-0.523</text>
<line x1="355.60" y1="52" x2="355.60" y2="400" stroke="#ececec"/>
<text x="355.60" y="422" text-anchor="middle" font-family="Arial, sans-serif" font-size="11">0.226</text>
<line x1="494.40" y1="52" x2="494.40" y2="400" stroke="#ececec"/>
<text x="494.40" y="422" text-anchor="middle" font-family="Arial, sans-serif" font-size="11">0.974</text>
<line x1="633.20" y1="52" x2="633.20" y2="400" stroke="#ececec"/>
<text x="633.20" y="422" text-anchor="middle" font-family="Arial, sans-serif" font-size="11">1.7</text>
<line x1="772.00" y1="52" x2="772.00" y2="400" stroke="#ececec"/>
<text x="772.00" y="422" text-anchor="middle" font-family="Arial, sans-serif" font-size="11">2.5</text>
<line x1="78" y1="400.00" x2="772" y2="400.00" stroke="#ececec"/>
<text x="70" y="404.00" text-anchor="end" font-family="Arial, sans-serif" font-size="11">-0.619</text>
<line x1="78" y1="330.40" x2="772" y2="330.40" stroke="#ececec"/>
<text x="70" y="334.40" text-anchor="end" font-family="Arial, sans-serif" font-size="11">-0.484</text>
<line x1="78" y1="260.80" x2="772" y2="260.80" stroke="#ececec"/>
<text x="70" y="264.80" text-anchor="end" font-family="Arial, sans-serif" font-size="11">-0.349</text>
<line x1="78" y1="191.20" x2="772" y2="191.20" stroke="#ececec"/>
<text x="70" y="195.20" text-anchor="end" font-family="Arial, sans-serif" font-size="11">-0.214</text>
<line x1="78" y1="121.60" x2="772" y2="121.60" stroke="#ececec"/>
<text x="70" y="125.60" text-anchor="end" font-family="Arial, sans-serif" font-size="11">-0.0793</text>
<line x1="78" y1="52.00" x2="772" y2="52.00" stroke="#ececec"/>
<text x="70" y="56.00" text-anchor="end" font-family="Arial, sans-serif" font-size="11">0.0556</text>
<line x1="313.78" y1="52" x2="313.78" y2="400" stroke="#777" stroke-dasharray="4 4"/>
<line x1="78" y1="80.67" x2="772" y2="80.67" stroke="#777" stroke-dasharray="4 4"/>
<line x1="91.35" y1="52" x2="91.35" y2="400" stroke="#555" stroke-dasharray="2 4"/>
<text x="95.35" y="66" font-family="Arial, sans-serif" font-size="11" fill="#555">-Vcc</text>
<line x1="536.22" y1="52" x2="536.22" y2="400" stroke="#555" stroke-dasharray="2 4"/>
<text x="540.22" y="66" font-family="Arial, sans-serif" font-size="11" fill="#555">Vcc</text>
<line x1="758.65" y1="52" x2="758.65" y2="400" stroke="#555" stroke-dasharray="2 4"/>
<text x="762.65" y="66" font-family="Arial, sans-serif" font-size="11" fill="#555">2Vcc</text>
<polyline fill="none" stroke="#0f766e" stroke-width="2.8" opacity="0.95" stroke-dasharray="6 3" points="91.35,376.00 102.47,323.36 111.74,279.50 122.86,226.86 133.98,174.22 135.83,165.45 137.69,156.67 139.54,147.90 141.39,139.13 143.25,130.36 145.10,121.58 146.96,113.86 148.81,107.29 150.66,101.82 152.52,97.36 154.37,93.83 156.22,91.10 158.08,89.03 159.93,87.49 161.78,86.37 163.64,85.56 165.49,84.97 167.35,84.55 169.20,84.24 171.05,84.01 172.91,83.83 174.76,83.70 176.61,83.58 178.47,83.49 180.32,83.41 182.17,83.34 184.03,83.28 185.88,83.22 187.74,83.16 189.59,83.11 191.44,83.06 193.30,83.01 195.15,82.96 197.00,82.92 198.86,82.87 200.71,82.83 202.56,82.79 204.42,82.74 206.27,82.70 208.12,82.66 209.98,82.62 211.83,82.58 213.69,82.54 215.54,82.50 217.39,82.45 219.25,82.42 221.10,82.38 222.95,82.34 224.81,82.30 226.66,82.26 228.51,82.23 230.37,82.20 232.22,82.16 234.08,82.12 235.93,82.08 237.78,82.04 248.90,81.83 258.17,81.66 269.29,81.45 280.42,81.24 289.68,81.08 300.81,80.89 310.07,80.73 313.78,80.67 321.20,80.56 324.90,80.50 332.32,80.39 336.03,80.34 341.59,80.27 352.71,80.13 363.83,80.01 373.10,79.93 384.22,79.84 395.34,79.78 404.61,79.74 415.73,79.71 426.85,79.69 436.12,79.68 447.24,79.67 456.51,79.66 467.63,79.65 478.76,79.64 488.02,79.63 499.15,79.63 504.71,79.62 510.27,79.62 513.97,79.62 517.68,79.62 519.54,79.62 525.10,79.61 530.66,79.61 536.22,79.61 541.78,79.60 551.05,79.60 558.46,79.59 562.17,79.59 571.44,79.59 582.56,79.58 593.68,79.58 602.95,79.57 614.07,79.57 625.19,79.56 634.46,79.54 645.58,79.49 656.70,79.42 665.97,79.34 677.09,79.21 682.65,79.14 684.51,79.11 686.36,79.08 688.22,79.06 690.07,79.03 691.92,79.00 693.78,78.97 695.63,78.94 697.48,78.91 699.34,78.88 703.04,78.82 704.90,78.78 708.61,78.72 717.87,78.54 729.00,78.31 740.12,78.07 749.39,77.86 758.65,77.65"/>
<polyline fill="none" stroke="#7c2d12" stroke-width="2.8" opacity="0.95" stroke-dasharray="6 3" points="91.35,76.00 93.20,76.05 95.05,76.09 98.76,76.18 100.61,76.23 102.47,76.27 104.32,76.32 106.18,76.36 108.03,76.41 109.88,76.46 111.74,76.50 115.44,76.59 119.15,76.68 122.86,76.77 126.57,76.86 130.27,76.95 133.98,77.04 135.83,77.09 137.69,77.13 139.54,77.18 143.25,77.27 146.96,77.35 148.81,77.40 150.66,77.44 154.37,77.53 156.22,77.57 158.08,77.61 161.78,77.70 163.64,77.74 165.49,77.79 169.20,77.87 171.05,77.91 172.91,77.96 174.76,78.00 176.61,78.04 178.47,78.08 182.17,78.16 185.88,78.25 189.59,78.33 191.44,78.37 193.30,78.41 195.15,78.45 197.00,78.49 200.71,78.57 202.56,78.61 204.42,78.65 206.27,78.68 208.12,78.72 209.98,78.76 213.69,78.84 215.54,78.87 217.39,78.91 219.25,78.95 221.10,78.99 222.95,79.02 224.81,79.06 226.66,79.10 228.51,79.13 230.37,79.17 232.22,79.21 234.08,79.24 235.93,79.28 237.78,79.31 239.64,79.35 241.49,79.38 245.20,79.45 247.05,79.49 248.90,79.52 250.76,79.56 252.61,79.59 254.47,79.63 256.32,79.66 258.17,79.70 260.03,79.73 261.88,79.76 263.73,79.80 267.44,79.87 269.29,79.90 273.00,79.97 276.71,80.03 280.42,80.10 282.27,80.13 284.12,80.16 285.98,80.20 287.83,80.23 289.68,80.26 291.54,80.29 293.39,80.33 295.25,80.36 297.10,80.39 298.95,80.42 300.81,80.45 302.66,80.49 304.51,80.52 306.37,80.55 308.22,80.58 310.07,80.61 311.93,80.64 313.78,80.67 321.20,80.79 324.90,80.85 326.76,80.88 328.61,80.91 330.46,80.93 341.59,81.09 352.71,81.24 360.12,81.32 363.83,81.37 365.68,81.39 371.24,81.44 374.95,81.48 378.66,81.51 380.51,81.53 382.37,81.54 384.22,81.56 386.07,81.57 387.93,81.59 389.78,81.60 391.63,81.62 393.49,81.63 395.34,81.64 397.20,81.65 399.05,81.66 400.90,81.67 402.76,81.68 404.61,81.69 406.46,81.70 408.32,81.71 410.17,81.72 412.02,81.73 413.88,81.74 415.73,81.74 417.59,81.75 419.44,81.76 421.29,81.76 425.00,81.77 436.12,81.80 447.24,81.82 456.51,81.84 467.63,81.85 478.76,81.87 488.02,81.88 499.15,81.89 502.85,81.89 510.27,81.90 513.97,81.90 519.54,81.91 530.66,81.92 536.22,81.92 541.78,81.93 551.05,81.93 558.46,81.94 562.17,81.94 571.44,81.95 582.56,81.95 593.68,81.96 602.95,81.96 614.07,81.96 625.19,81.96 634.46,81.96 645.58,81.96 656.70,81.96 665.97,81.96 677.09,81.96 688.22,81.96 697.48,81.96 708.61,81.96 717.87,81.96 729.00,81.96 740.12,81.96 749.39,81.96 758.65,81.96"/>
<line x1="88" y1="70" x2="110" y2="70" stroke="#0f766e" stroke-width="2.8" stroke-dasharray="6 3"/>
<text x="116" y="74" font-family="Arial, sans-serif" font-size="12">[Pulldown]+[GND Clamp]</text>
<line x1="88" y1="88" x2="110" y2="88" stroke="#7c2d12" stroke-width="2.8" stroke-dasharray="6 3"/>
<text x="116" y="92" font-family="Arial, sans-serif" font-size="12">[Pullup]+[POWER Clamp]</text>
<rect x="78" y="464" width="694" height="44" fill="#fffdf7" stroke="#d8c6a1" rx="4"/>
<text x="88" y="481" font-family="Arial, sans-serif" font-size="11" font-weight="700" fill="#4b3b21">Findings needing attention</text>
<rect x="88" y="488" width="7" height="7" fill="#b54708"/>
<text x="102" y="495" font-family="Arial, sans-serif" font-size="11" fill="#333">WARN 5.3.6: I-V stair-step evidence needs review | [GND Clamp]: roughness=0.179 &gt; 0.1</text>
<text x="425.00" y="444.00" text-anchor="middle" font-family="Arial, sans-serif" font-size="12">Table voltage (V)</text>
<text transform="translate(18 226.00) rotate(-90)" text-anchor="middle" font-family="Arial, sans-serif" font-size="12">Current (A)</text>
<text x="420" y="42" font-family="Arial, sans-serif" font-size="11" fill="#555">thick dashed=combined typ curves</text>
</svg>