<svg xmlns="http://www.w3.org/2000/svg" width="800" height="560" viewBox="0 0 800 560">
<rect width="100%" height="100%" fill="#ffffff"/>
<text x="78" y="25" font-family="Arial, sans-serif" font-size="16" font-weight="700">E34_GPIO_I2CSCLIN_1V8_01_ISOSW I-V Combined Curves</text>
<rect x="78" y="52" width="694" height="348" fill="#fbfbfb" stroke="#c8c8c8"/>
<line x1="78.00" y1="52" x2="78.00" y2="400" stroke="#ececec"/>
<text x="78.00" y="422" text-anchor="middle" font-family="Arial, sans-serif" font-size="11">-1.9</text>
<line x1="216.80" y1="52" x2="216.80" y2="400" stroke="#ececec"/>
<text x="216.80" y="422" text-anchor="middle" font-family="Arial, sans-serif" font-size="11">-0.785</text>
<line x1="355.60" y1="52" x2="355.60" y2="400" stroke="#ececec"/>
<text x="355.60" y="422" text-anchor="middle" font-family="Arial, sans-serif" font-size="11">0.338</text>
<line x1="494.40" y1="52" x2="494.40" y2="400" stroke="#ececec"/>
<text x="494.40" y="422" text-anchor="middle" font-family="Arial, sans-serif" font-size="11">1.5</text>
<line x1="633.20" y1="52" x2="633.20" y2="400" stroke="#ececec"/>
<text x="633.20" y="422" text-anchor="middle" font-family="Arial, sans-serif" font-size="11">2.6</text>
<line x1="772.00" y1="52" x2="772.00" y2="400" stroke="#ececec"/>
<text x="772.00" y="422" text-anchor="middle" font-family="Arial, sans-serif" font-size="11">3.7</text>
<line x1="78" y1="400.00" x2="772" y2="400.00" stroke="#ececec"/>
<text x="70" y="404.00" text-anchor="end" font-family="Arial, sans-serif" font-size="11">-1.7</text>
<line x1="78" y1="330.40" x2="772" y2="330.40" stroke="#ececec"/>
<text x="70" y="334.40" text-anchor="end" font-family="Arial, sans-serif" font-size="11">-1.4</text>
<line x1="78" y1="260.80" x2="772" y2="260.80" stroke="#ececec"/>
<text x="70" y="264.80" text-anchor="end" font-family="Arial, sans-serif" font-size="11">-0.975</text>
<line x1="78" y1="191.20" x2="772" y2="191.20" stroke="#ececec"/>
<text x="70" y="195.20" text-anchor="end" font-family="Arial, sans-serif" font-size="11">-0.597</text>
<line x1="78" y1="121.60" x2="772" y2="121.60" stroke="#ececec"/>
<text x="70" y="125.60" text-anchor="end" font-family="Arial, sans-serif" font-size="11">-0.219</text>
<line x1="78" y1="52.00" x2="772" y2="52.00" stroke="#ececec"/>
<text x="70" y="56.00" text-anchor="end" font-family="Arial, sans-serif" font-size="11">0.16</text>
<line x1="313.78" y1="52" x2="313.78" y2="400" stroke="#777" stroke-dasharray="4 4"/>
<line x1="78" y1="81.39" x2="772" y2="81.39" stroke="#777" stroke-dasharray="4 4"/>
<line x1="91.35" y1="52" x2="91.35" y2="400" stroke="#555" stroke-dasharray="2 4"/>
<text x="95.35" y="66" font-family="Arial, sans-serif" font-size="11" fill="#555">-Vcc</text>
<line x1="536.22" y1="52" x2="536.22" y2="400" stroke="#555" stroke-dasharray="2 4"/>
<text x="540.22" y="66" font-family="Arial, sans-serif" font-size="11" fill="#555">Vcc</text>
<line x1="758.65" y1="52" x2="758.65" y2="400" stroke="#555" stroke-dasharray="2 4"/>
<text x="762.65" y="66" font-family="Arial, sans-serif" font-size="11" fill="#555">2Vcc</text>
<polyline fill="none" stroke="#0f766e" stroke-width="2.8" opacity="0.95" stroke-dasharray="6 3" points="91.35,376.00 101.23,350.98 112.35,322.82 122.24,297.80 133.36,269.64 143.25,244.62 154.37,216.47 164.26,191.44 175.38,163.29 185.26,138.26 193.91,116.37 195.15,113.24 196.39,110.11 197.62,106.98 198.86,103.86 200.09,100.73 201.33,97.60 202.56,94.80 203.80,92.42 205.04,90.44 206.27,88.82 207.51,87.53 208.74,86.53 209.98,85.77 211.21,85.20 212.45,84.79 213.69,84.48 214.92,84.25 216.16,84.09 217.39,83.96 218.63,83.87 219.86,83.79 221.10,83.73 222.34,83.68 223.57,83.63 224.81,83.59 226.04,83.55 227.28,83.52 228.51,83.48 229.75,83.45 230.99,83.42 232.22,83.38 233.46,83.35 235.93,83.29 237.17,83.26 238.40,83.23 239.64,83.20 240.87,83.17 242.11,83.14 243.34,83.11 244.58,83.08 245.82,83.04 247.05,83.01 248.29,82.98 249.52,82.95 250.76,82.92 251.99,82.89 253.23,82.86 254.47,82.83 255.70,82.80 256.94,82.76 258.17,82.73 259.41,82.70 269.29,82.46 279.18,82.22 290.30,81.95 300.19,81.71 311.31,81.45 313.78,81.39 321.20,81.22 331.08,80.99 342.20,80.74 352.09,80.52 363.21,80.28 369.39,80.16 373.10,80.08 384.22,79.86 394.11,79.67 400.28,79.56 405.23,79.47 415.11,79.30 426.24,79.13 429.94,79.08 436.12,79.00 439.83,78.95 446.01,78.88 450.95,78.83 457.13,78.77 462.07,78.73 467.02,78.70 478.14,78.63 488.02,78.59 499.15,78.56 509.03,78.54 513.97,78.53 520.15,78.52 530.04,78.51 536.22,78.51 539.93,78.50 551.05,78.49 558.46,78.49 560.93,78.48 572.05,78.48 581.94,78.47 593.06,78.46 602.95,78.46 614.07,78.45 623.96,78.44 635.08,78.43 644.96,78.41 654.85,78.40 665.97,78.38 675.86,78.36 686.98,78.32 696.87,78.26 707.99,78.18 717.87,78.08 729.00,77.95 738.88,77.81 750.00,77.65 758.65,77.51"/>
<polyline fill="none" stroke="#7c2d12" stroke-width="2.8" opacity="0.95" stroke-dasharray="6 3" points="91.35,76.00 95.05,76.09 96.29,76.13 97.52,76.16 98.76,76.19 101.23,76.25 104.94,76.35 108.65,76.44 112.35,76.54 114.83,76.60 116.06,76.63 117.30,76.66 118.53,76.69 119.77,76.73 121.00,76.76 122.24,76.79 123.48,76.82 124.71,76.85 125.95,76.88 127.18,76.92 128.42,76.95 129.65,76.98 132.13,77.04 133.36,77.07 137.07,77.17 140.78,77.26 142.01,77.29 143.25,77.32 145.72,77.39 146.96,77.42 150.66,77.51 151.90,77.54 154.37,77.60 158.08,77.70 161.78,77.79 164.26,77.85 167.96,77.95 171.67,78.04 175.38,78.13 179.08,78.22 182.79,78.32 185.26,78.38 188.97,78.47 190.21,78.50 191.44,78.53 192.68,78.56 196.39,78.65 200.09,78.74 203.80,78.83 206.27,78.89 209.98,78.98 212.45,79.04 213.69,79.07 216.16,79.13 217.39,79.16 218.63,79.19 219.86,79.22 221.10,79.25 223.57,79.31 224.81,79.34 227.28,79.40 230.99,79.48 232.22,79.51 233.46,79.54 234.69,79.57 237.17,79.63 238.40,79.66 242.11,79.75 243.34,79.77 244.58,79.80 248.29,79.89 249.52,79.92 250.76,79.95 251.99,79.97 254.47,80.03 255.70,80.06 258.17,80.12 259.41,80.14 263.12,80.23 265.59,80.29 266.82,80.31 268.06,80.34 269.29,80.37 273.00,80.46 276.71,80.54 279.18,80.60 280.42,80.62 284.12,80.71 286.60,80.77 290.30,80.85 294.01,80.93 296.48,80.99 297.72,81.02 298.95,81.05 300.19,81.08 301.42,81.10 302.66,81.13 303.90,81.16 305.13,81.19 306.37,81.22 307.60,81.25 308.84,81.27 310.07,81.30 311.31,81.33 313.78,81.39 321.20,81.56 332.32,81.81 333.55,81.83 334.79,81.86 342.20,82.02 352.09,82.23 363.21,82.46 373.10,82.66 384.22,82.88 394.11,83.06 405.23,83.26 415.11,83.43 422.53,83.55 426.24,83.61 431.18,83.69 436.12,83.76 439.83,83.81 442.30,83.84 446.01,83.89 449.72,83.94 455.89,84.01 458.37,84.04 463.31,84.09 467.02,84.13 474.43,84.20 478.14,84.23 480.61,84.25 483.08,84.27 488.02,84.30 490.50,84.31 492.97,84.33 495.44,84.34 496.67,84.35 499.15,84.36 501.62,84.37 504.09,84.38 506.56,84.39 509.03,84.40 511.50,84.41 513.97,84.42 517.68,84.43 521.39,84.44 525.10,84.45 530.04,84.46 536.22,84.48 539.93,84.49 544.87,84.50 551.05,84.51 553.52,84.51 558.46,84.52 559.70,84.52 560.93,84.52 572.05,84.54 581.94,84.55 590.59,84.55 593.06,84.55 602.95,84.55 606.66,84.55 609.13,84.55 610.36,84.55 614.07,84.55 623.96,84.55 635.08,84.55 644.96,84.55 654.85,84.55 665.97,84.55 675.86,84.55 686.98,84.55 696.87,84.55 707.99,84.55 717.87,84.55 729.00,84.55 738.88,84.55 750.00,84.55 758.65,84.55"/>
<line x1="88" y1="70" x2="110" y2="70" stroke="#0f766e" stroke-width="2.8" stroke-dasharray="6 3"/>
<text x="116" y="74" font-family="Arial, sans-serif" font-size="12">[Pulldown]+[GND Clamp]</text>
<line x1="88" y1="88" x2="110" y2="88" stroke="#7c2d12" stroke-width="2.8" stroke-dasharray="6 3"/>
<text x="116" y="92" font-family="Arial, sans-serif" font-size="12">[Pullup]+[POWER Clamp]</text>
<text x="425.00" y="444.00" text-anchor="middle" font-family="Arial, sans-serif" font-size="12">Table voltage (V)</text>
<text transform="translate(18 226.00) rotate(-90)" text-anchor="middle" font-family="Arial, sans-serif" font-size="12">Current (A)</text>
<text x="420" y="42" font-family="Arial, sans-serif" font-size="11" fill="#555">thick dashed=combined typ curves</text>
</svg>