<svg xmlns="http://www.w3.org/2000/svg" width="800" height="560" viewBox="0 0 800 560">
<rect width="100%" height="100%" fill="#ffffff"/>
<text x="78" y="25" font-family="Arial, sans-serif" font-size="16" font-weight="700">E34_GPIO_I3C_I2C_SLV_1V8_11 I-V Combined Curves</text>
<rect x="78" y="52" width="694" height="348" fill="#fbfbfb" stroke="#c8c8c8"/>
<line x1="78.00" y1="52" x2="78.00" y2="400" stroke="#ececec"/>
<text x="78.00" y="422" text-anchor="middle" font-family="Arial, sans-serif" font-size="11">-1.9</text>
<line x1="216.80" y1="52" x2="216.80" y2="400" stroke="#ececec"/>
<text x="216.80" y="422" text-anchor="middle" font-family="Arial, sans-serif" font-size="11">-0.785</text>
<line x1="355.60" y1="52" x2="355.60" y2="400" stroke="#ececec"/>
<text x="355.60" y="422" text-anchor="middle" font-family="Arial, sans-serif" font-size="11">0.338</text>
<line x1="494.40" y1="52" x2="494.40" y2="400" stroke="#ececec"/>
<text x="494.40" y="422" text-anchor="middle" font-family="Arial, sans-serif" font-size="11">1.5</text>
<line x1="633.20" y1="52" x2="633.20" y2="400" stroke="#ececec"/>
<text x="633.20" y="422" text-anchor="middle" font-family="Arial, sans-serif" font-size="11">2.6</text>
<line x1="772.00" y1="52" x2="772.00" y2="400" stroke="#ececec"/>
<text x="772.00" y="422" text-anchor="middle" font-family="Arial, sans-serif" font-size="11">3.7</text>
<line x1="78" y1="400.00" x2="772" y2="400.00" stroke="#ececec"/>
<text x="70" y="404.00" text-anchor="end" font-family="Arial, sans-serif" font-size="11">-1.9</text>
<line x1="78" y1="330.40" x2="772" y2="330.40" stroke="#ececec"/>
<text x="70" y="334.40" text-anchor="end" font-family="Arial, sans-serif" font-size="11">-1.4</text>
<line x1="78" y1="260.80" x2="772" y2="260.80" stroke="#ececec"/>
<text x="70" y="264.80" text-anchor="end" font-family="Arial, sans-serif" font-size="11">-0.986</text>
<line x1="78" y1="191.20" x2="772" y2="191.20" stroke="#ececec"/>
<text x="70" y="195.20" text-anchor="end" font-family="Arial, sans-serif" font-size="11">-0.543</text>
<line x1="78" y1="121.60" x2="772" y2="121.60" stroke="#ececec"/>
<text x="70" y="125.60" text-anchor="end" font-family="Arial, sans-serif" font-size="11">-0.101</text>
<line x1="78" y1="52.00" x2="772" y2="52.00" stroke="#ececec"/>
<text x="70" y="56.00" text-anchor="end" font-family="Arial, sans-serif" font-size="11">0.342</text>
<line x1="313.78" y1="52" x2="313.78" y2="400" stroke="#777" stroke-dasharray="4 4"/>
<line x1="78" y1="105.80" x2="772" y2="105.80" stroke="#777" stroke-dasharray="4 4"/>
<line x1="91.35" y1="52" x2="91.35" y2="400" stroke="#555" stroke-dasharray="2 4"/>
<text x="95.35" y="66" font-family="Arial, sans-serif" font-size="11" fill="#555">-Vcc</text>
<line x1="536.22" y1="52" x2="536.22" y2="400" stroke="#555" stroke-dasharray="2 4"/>
<text x="540.22" y="66" font-family="Arial, sans-serif" font-size="11" fill="#555">Vcc</text>
<line x1="758.65" y1="52" x2="758.65" y2="400" stroke="#555" stroke-dasharray="2 4"/>
<text x="762.65" y="66" font-family="Arial, sans-serif" font-size="11" fill="#555">2Vcc</text>
<polyline fill="none" stroke="#0f766e" stroke-width="2.8" opacity="0.95" stroke-dasharray="6 3" points="91.35,376.00 101.23,354.62 112.35,330.57 122.24,309.19 133.36,285.14 143.25,263.76 154.37,239.71 164.26,218.33 175.38,194.28 185.26,172.90 196.39,148.85 197.62,146.18 198.86,143.51 200.09,140.83 201.33,138.16 202.56,135.49 203.80,132.82 205.04,130.55 206.27,128.73 207.51,127.29 208.74,126.18 209.98,125.33 211.21,124.67 212.45,124.14 213.69,123.72 214.92,123.37 216.16,123.06 217.39,122.80 218.63,122.56 219.86,122.33 221.10,122.12 222.34,121.91 223.57,121.71 224.81,121.51 226.04,121.32 227.28,121.12 228.51,120.92 229.75,120.73 230.99,120.53 232.22,120.34 233.46,120.14 234.69,119.94 235.93,119.75 237.17,119.55 238.40,119.36 240.87,118.97 242.11,118.77 243.34,118.57 244.58,118.36 247.05,117.93 248.29,117.72 249.52,117.52 250.76,117.31 251.99,117.11 253.23,116.89 254.47,116.68 255.70,116.46 258.17,116.02 269.29,114.04 279.18,112.23 290.30,110.16 300.19,108.30 311.31,106.25 313.78,105.80 321.20,104.49 331.08,102.84 336.03,102.07 342.20,101.16 343.44,100.99 352.09,99.85 357.03,99.26 363.21,98.60 373.10,97.68 384.22,96.88 394.11,96.34 405.23,95.92 415.11,95.66 426.24,95.45 436.12,95.32 446.01,95.22 453.42,95.16 457.13,95.13 467.02,95.06 478.14,94.99 488.02,94.93 491.73,94.91 499.15,94.87 509.03,94.83 513.97,94.80 520.15,94.77 525.10,94.75 530.04,94.73 536.22,94.70 539.93,94.69 551.05,94.64 558.46,94.62 560.93,94.61 572.05,94.56 581.94,94.53 593.06,94.47 602.95,94.37 614.07,94.19 623.96,93.93 635.08,93.51 644.96,93.03 654.85,92.45 665.97,91.71 675.86,90.97 686.98,90.05 696.87,89.18 707.99,88.13 717.87,87.15 729.00,85.99 738.88,84.92 750.00,83.67 758.65,82.67"/>
<polyline fill="none" stroke="#7c2d12" stroke-width="2.8" opacity="0.95" stroke-dasharray="6 3" points="91.35,76.00 95.05,76.51 98.76,77.03 101.23,77.37 104.94,77.88 108.65,78.40 112.35,78.91 116.06,79.42 117.30,79.60 119.77,79.94 122.24,80.28 125.95,80.80 129.65,81.31 133.36,81.82 134.60,82.00 137.07,82.34 140.78,82.85 142.01,83.02 143.25,83.19 146.96,83.71 150.66,84.22 151.90,84.39 153.13,84.56 154.37,84.73 155.61,84.90 156.84,85.07 158.08,85.24 160.55,85.58 161.78,85.75 163.02,85.92 164.26,86.09 165.49,86.26 167.96,86.60 169.20,86.77 171.67,87.11 175.38,87.61 177.85,87.95 179.08,88.12 182.79,88.63 184.03,88.79 185.26,88.96 186.50,89.13 187.74,89.30 188.97,89.47 192.68,89.97 196.39,90.47 200.09,90.97 203.80,91.47 206.27,91.81 209.98,92.31 211.21,92.47 212.45,92.64 213.69,92.80 214.92,92.97 216.16,93.14 217.39,93.30 218.63,93.47 219.86,93.63 221.10,93.80 222.34,93.96 223.57,94.13 224.81,94.29 226.04,94.46 227.28,94.62 230.99,95.12 234.69,95.61 237.17,95.94 238.40,96.10 242.11,96.59 243.34,96.75 244.58,96.92 248.29,97.41 251.99,97.89 255.70,98.38 258.17,98.70 259.41,98.87 263.12,99.35 264.35,99.51 265.59,99.67 269.29,100.15 271.77,100.47 273.00,100.63 274.24,100.79 276.71,101.11 277.95,101.27 279.18,101.43 280.42,101.59 281.65,101.75 282.89,101.91 284.12,102.07 285.36,102.23 286.60,102.39 290.30,102.86 294.01,103.33 297.72,103.80 300.19,104.11 301.42,104.27 302.66,104.42 303.90,104.58 305.13,104.73 306.37,104.88 307.60,105.04 308.84,105.19 310.07,105.34 311.31,105.50 313.78,105.80 321.20,106.68 322.43,106.82 323.67,106.97 324.90,107.11 326.14,107.24 331.08,107.79 337.26,108.43 340.97,108.81 342.20,108.93 343.44,109.05 344.68,109.17 345.91,109.29 347.15,109.40 348.38,109.52 349.62,109.63 350.85,109.74 352.09,109.85 353.33,109.96 354.56,110.07 355.80,110.18 357.03,110.28 358.27,110.39 360.74,110.59 361.98,110.69 363.21,110.79 365.68,110.98 369.39,111.25 370.63,111.34 374.33,111.60 375.57,111.68 378.04,111.85 380.51,112.00 384.22,112.23 385.46,112.30 394.11,112.76 405.23,113.26 415.11,113.62 426.24,113.94 436.12,114.17 446.01,114.35 457.13,114.51 467.02,114.64 478.14,114.75 488.02,114.84 499.15,114.93 509.03,115.00 513.97,115.04 520.15,115.08 530.04,115.14 536.22,115.17 539.93,115.20 551.05,115.25 558.46,115.29 560.93,115.30 572.05,115.36 581.94,115.40 593.06,115.45 602.95,115.49 614.07,115.54 623.96,115.58 635.08,115.62 646.20,115.66 654.85,115.66 656.09,115.66 665.97,115.66 675.86,115.66 686.98,115.66 696.87,115.66 707.99,115.66 717.87,115.66 729.00,115.66 738.88,115.66 750.00,115.66 758.65,115.66"/>
<line x1="88" y1="70" x2="110" y2="70" stroke="#0f766e" stroke-width="2.8" stroke-dasharray="6 3"/>
<text x="116" y="74" font-family="Arial, sans-serif" font-size="12">[Pulldown]+[GND Clamp]</text>
<line x1="88" y1="88" x2="110" y2="88" stroke="#7c2d12" stroke-width="2.8" stroke-dasharray="6 3"/>
<text x="116" y="92" font-family="Arial, sans-serif" font-size="12">[Pullup]+[POWER Clamp]</text>
<text x="425.00" y="444.00" text-anchor="middle" font-family="Arial, sans-serif" font-size="12">Table voltage (V)</text>
<text transform="translate(18 226.00) rotate(-90)" text-anchor="middle" font-family="Arial, sans-serif" font-size="12">Current (A)</text>
<text x="420" y="42" font-family="Arial, sans-serif" font-size="11" fill="#555">thick dashed=combined typ curves</text>
</svg>