<svg xmlns="http://www.w3.org/2000/svg" width="800" height="560" viewBox="0 0 800 560">
<rect width="100%" height="100%" fill="#ffffff"/>
<text x="78" y="25" font-family="Arial, sans-serif" font-size="16" font-weight="700">E34_GPIO_I2CSCLIN_1V2_10_ISOSW I-V Combined Curves</text>
<rect x="78" y="52" width="694" height="348" fill="#fbfbfb" stroke="#c8c8c8"/>
<line x1="78.00" y1="52" x2="78.00" y2="400" stroke="#ececec"/>
<text x="78.00" y="422" text-anchor="middle" font-family="Arial, sans-serif" font-size="11">-1.3</text>
<line x1="216.80" y1="52" x2="216.80" y2="400" stroke="#ececec"/>
<text x="216.80" y="422" text-anchor="middle" font-family="Arial, sans-serif" font-size="11">-0.523</text>
<line x1="355.60" y1="52" x2="355.60" y2="400" stroke="#ececec"/>
<text x="355.60" y="422" text-anchor="middle" font-family="Arial, sans-serif" font-size="11">0.226</text>
<line x1="494.40" y1="52" x2="494.40" y2="400" stroke="#ececec"/>
<text x="494.40" y="422" text-anchor="middle" font-family="Arial, sans-serif" font-size="11">0.974</text>
<line x1="633.20" y1="52" x2="633.20" y2="400" stroke="#ececec"/>
<text x="633.20" y="422" text-anchor="middle" font-family="Arial, sans-serif" font-size="11">1.7</text>
<line x1="772.00" y1="52" x2="772.00" y2="400" stroke="#ececec"/>
<text x="772.00" y="422" text-anchor="middle" font-family="Arial, sans-serif" font-size="11">2.5</text>
<line x1="78" y1="400.00" x2="772" y2="400.00" stroke="#ececec"/>
<text x="70" y="404.00" text-anchor="end" font-family="Arial, sans-serif" font-size="11">-0.628</text>
<line x1="78" y1="330.40" x2="772" y2="330.40" stroke="#ececec"/>
<text x="70" y="334.40" text-anchor="end" font-family="Arial, sans-serif" font-size="11">-0.489</text>
<line x1="78" y1="260.80" x2="772" y2="260.80" stroke="#ececec"/>
<text x="70" y="264.80" text-anchor="end" font-family="Arial, sans-serif" font-size="11">-0.35</text>
<line x1="78" y1="191.20" x2="772" y2="191.20" stroke="#ececec"/>
<text x="70" y="195.20" text-anchor="end" font-family="Arial, sans-serif" font-size="11">-0.212</text>
<line x1="78" y1="121.60" x2="772" y2="121.60" stroke="#ececec"/>
<text x="70" y="125.60" text-anchor="end" font-family="Arial, sans-serif" font-size="11">-0.0727</text>
<line x1="78" y1="52.00" x2="772" y2="52.00" stroke="#ececec"/>
<text x="70" y="56.00" text-anchor="end" font-family="Arial, sans-serif" font-size="11">0.0662</text>
<line x1="313.78" y1="52" x2="313.78" y2="400" stroke="#777" stroke-dasharray="4 4"/>
<line x1="78" y1="85.19" x2="772" y2="85.19" stroke="#777" stroke-dasharray="4 4"/>
<line x1="91.35" y1="52" x2="91.35" y2="400" stroke="#555" stroke-dasharray="2 4"/>
<text x="95.35" y="66" font-family="Arial, sans-serif" font-size="11" fill="#555">-Vcc</text>
<line x1="536.22" y1="52" x2="536.22" y2="400" stroke="#555" stroke-dasharray="2 4"/>
<text x="540.22" y="66" font-family="Arial, sans-serif" font-size="11" fill="#555">Vcc</text>
<line x1="758.65" y1="52" x2="758.65" y2="400" stroke="#555" stroke-dasharray="2 4"/>
<text x="762.65" y="66" font-family="Arial, sans-serif" font-size="11" fill="#555">2Vcc</text>
<polyline fill="none" stroke="#0f766e" stroke-width="2.8" opacity="0.95" stroke-dasharray="6 3" points="91.35,376.00 102.47,324.89 111.74,282.31 122.86,231.20 133.98,180.10 135.83,171.58 137.69,163.06 139.54,154.54 141.39,146.03 143.25,137.51 145.10,128.99 146.96,121.45 148.81,115.04 150.66,109.69 152.52,105.33 154.37,101.86 156.22,99.17 158.08,97.12 159.93,95.59 161.78,94.46 163.64,93.63 165.49,93.03 167.35,92.58 169.20,92.24 171.05,91.97 172.91,91.77 174.76,91.60 176.61,91.45 178.47,91.32 180.32,91.20 182.17,91.10 184.03,91.00 185.88,90.90 187.74,90.80 189.59,90.71 191.44,90.62 193.30,90.53 195.15,90.44 197.00,90.35 198.86,90.26 202.56,90.09 204.42,90.00 206.27,89.91 208.12,89.83 209.98,89.74 211.83,89.65 213.69,89.57 215.54,89.48 217.39,89.39 219.25,89.30 221.10,89.22 222.95,89.13 224.81,89.05 226.66,88.96 228.51,88.88 230.37,88.79 232.22,88.71 237.78,88.45 248.90,87.95 258.17,87.53 269.29,87.05 280.42,86.57 289.68,86.17 300.81,85.71 310.07,85.34 313.78,85.19 321.20,84.90 332.32,84.47 341.59,84.13 350.85,83.81 352.71,83.74 363.83,83.37 373.10,83.08 380.51,82.86 384.22,82.75 395.34,82.46 404.61,82.25 415.73,82.03 423.15,81.92 426.85,81.86 432.41,81.80 436.12,81.76 443.54,81.70 447.24,81.68 450.95,81.66 452.80,81.65 456.51,81.64 460.22,81.62 463.93,81.61 465.78,81.61 467.63,81.60 469.49,81.60 475.05,81.58 478.76,81.58 480.61,81.57 488.02,81.56 499.15,81.54 510.27,81.52 513.97,81.52 519.54,81.51 530.66,81.50 536.22,81.50 541.78,81.49 551.05,81.48 558.46,81.47 562.17,81.47 571.44,81.46 582.56,81.45 593.68,81.45 602.95,81.44 614.07,81.43 625.19,81.42 634.46,81.42 645.58,81.41 656.70,81.39 665.97,81.38 677.09,81.35 688.22,81.31 697.48,81.26 708.61,81.17 717.87,81.08 729.00,80.94 740.12,80.77 749.39,80.61 758.65,80.44"/>
<polyline fill="none" stroke="#7c2d12" stroke-width="2.8" opacity="0.95" stroke-dasharray="6 3" points="91.35,76.00 95.05,76.16 98.76,76.32 100.61,76.40 102.47,76.48 104.32,76.56 106.18,76.64 108.03,76.72 111.74,76.88 113.59,76.96 115.44,77.04 117.30,77.12 119.15,77.20 121.00,77.28 122.86,77.36 124.71,77.44 126.57,77.52 130.27,77.68 132.13,77.76 133.98,77.84 135.83,77.92 137.69,78.00 139.54,78.08 143.25,78.24 145.10,78.32 146.96,78.40 148.81,78.48 150.66,78.56 152.52,78.64 154.37,78.72 156.22,78.80 158.08,78.88 161.78,79.04 163.64,79.12 165.49,79.20 167.35,79.27 169.20,79.35 171.05,79.43 172.91,79.51 174.76,79.59 176.61,79.67 178.47,79.75 182.17,79.91 184.03,79.98 185.88,80.06 189.59,80.22 191.44,80.30 193.30,80.37 195.15,80.45 197.00,80.53 198.86,80.61 200.71,80.68 204.42,80.84 206.27,80.91 209.98,81.07 211.83,81.14 213.69,81.22 217.39,81.37 221.10,81.52 222.95,81.60 224.81,81.67 226.66,81.75 228.51,81.82 232.22,81.97 234.08,82.05 235.93,82.12 237.78,82.19 241.49,82.34 243.34,82.42 245.20,82.49 248.90,82.64 252.61,82.78 256.32,82.93 258.17,83.00 260.03,83.08 261.88,83.15 263.73,83.22 265.59,83.30 267.44,83.37 269.29,83.44 273.00,83.59 276.71,83.74 278.56,83.81 280.42,83.88 282.27,83.95 284.12,84.03 285.98,84.10 287.83,84.17 289.68,84.25 291.54,84.32 293.39,84.39 295.25,84.46 297.10,84.53 298.95,84.61 300.81,84.68 302.66,84.75 304.51,84.82 306.37,84.90 308.22,84.97 310.07,85.04 311.93,85.12 313.78,85.19 321.20,85.48 332.32,85.89 339.73,86.15 341.59,86.22 343.44,86.28 345.29,86.35 350.85,86.54 363.83,86.96 373.10,87.25 384.22,87.56 395.34,87.85 404.61,88.07 410.17,88.19 415.73,88.30 417.59,88.33 419.44,88.36 421.29,88.39 423.15,88.42 425.00,88.45 426.85,88.48 428.71,88.50 430.56,88.53 432.41,88.55 434.27,88.57 436.12,88.59 437.98,88.61 439.83,88.63 443.54,88.66 447.24,88.69 449.10,88.70 452.80,88.72 456.51,88.74 460.22,88.76 462.07,88.76 463.93,88.77 465.78,88.78 467.63,88.79 469.49,88.79 471.34,88.80 475.05,88.81 476.90,88.82 480.61,88.83 486.17,88.85 499.15,88.88 510.27,88.90 513.97,88.91 519.54,88.92 530.66,88.94 536.22,88.95 541.78,88.96 551.05,88.98 558.46,88.99 562.17,89.00 571.44,89.01 582.56,89.02 593.68,89.03 602.95,89.04 614.07,89.04 625.19,89.04 628.90,89.04 634.46,89.04 645.58,89.04 656.70,89.04 665.97,89.04 677.09,89.04 688.22,89.04 697.48,89.04 708.61,89.04 717.87,89.04 729.00,89.04 740.12,89.04 749.39,89.04 758.65,89.04"/>
<line x1="88" y1="70" x2="110" y2="70" stroke="#0f766e" stroke-width="2.8" stroke-dasharray="6 3"/>
<text x="116" y="74" font-family="Arial, sans-serif" font-size="12">[Pulldown]+[GND Clamp]</text>
<line x1="88" y1="88" x2="110" y2="88" stroke="#7c2d12" stroke-width="2.8" stroke-dasharray="6 3"/>
<text x="116" y="92" font-family="Arial, sans-serif" font-size="12">[Pullup]+[POWER Clamp]</text>
<rect x="78" y="464" width="694" height="44" fill="#fffdf7" stroke="#d8c6a1" rx="4"/>
<text x="88" y="481" font-family="Arial, sans-serif" font-size="11" font-weight="700" fill="#4b3b21">Findings needing attention</text>
<rect x="88" y="488" width="7" height="7" fill="#b54708"/>
<text x="102" y="495" font-family="Arial, sans-serif" font-size="11" fill="#333">WARN 5.3.6: I-V stair-step evidence needs review | [GND Clamp]: roughness=0.179 &gt; 0.1</text>
<text x="425.00" y="444.00" text-anchor="middle" font-family="Arial, sans-serif" font-size="12">Table voltage (V)</text>
<text transform="translate(18 226.00) rotate(-90)" text-anchor="middle" font-family="Arial, sans-serif" font-size="12">Current (A)</text>
<text x="420" y="42" font-family="Arial, sans-serif" font-size="11" fill="#555">thick dashed=combined typ curves</text>
</svg>