<svg xmlns="http://www.w3.org/2000/svg" width="800" height="560" viewBox="0 0 800 560">
<rect width="100%" height="100%" fill="#ffffff"/>
<text x="78" y="25" font-family="Arial, sans-serif" font-size="16" font-weight="700">E34_GPIO_I2CSCLIN_1V8_10_ISOSW I-V Combined Curves</text>
<rect x="78" y="52" width="694" height="348" fill="#fbfbfb" stroke="#c8c8c8"/>
<line x1="78.00" y1="52" x2="78.00" y2="400" stroke="#ececec"/>
<text x="78.00" y="422" text-anchor="middle" font-family="Arial, sans-serif" font-size="11">-1.9</text>
<line x1="216.80" y1="52" x2="216.80" y2="400" stroke="#ececec"/>
<text x="216.80" y="422" text-anchor="middle" font-family="Arial, sans-serif" font-size="11">-0.785</text>
<line x1="355.60" y1="52" x2="355.60" y2="400" stroke="#ececec"/>
<text x="355.60" y="422" text-anchor="middle" font-family="Arial, sans-serif" font-size="11">0.338</text>
<line x1="494.40" y1="52" x2="494.40" y2="400" stroke="#ececec"/>
<text x="494.40" y="422" text-anchor="middle" font-family="Arial, sans-serif" font-size="11">1.5</text>
<line x1="633.20" y1="52" x2="633.20" y2="400" stroke="#ececec"/>
<text x="633.20" y="422" text-anchor="middle" font-family="Arial, sans-serif" font-size="11">2.6</text>
<line x1="772.00" y1="52" x2="772.00" y2="400" stroke="#ececec"/>
<text x="772.00" y="422" text-anchor="middle" font-family="Arial, sans-serif" font-size="11">3.7</text>
<line x1="78" y1="400.00" x2="772" y2="400.00" stroke="#ececec"/>
<text x="70" y="404.00" text-anchor="end" font-family="Arial, sans-serif" font-size="11">-1.7</text>
<line x1="78" y1="330.40" x2="772" y2="330.40" stroke="#ececec"/>
<text x="70" y="334.40" text-anchor="end" font-family="Arial, sans-serif" font-size="11">-1.4</text>
<line x1="78" y1="260.80" x2="772" y2="260.80" stroke="#ececec"/>
<text x="70" y="264.80" text-anchor="end" font-family="Arial, sans-serif" font-size="11">-0.975</text>
<line x1="78" y1="191.20" x2="772" y2="191.20" stroke="#ececec"/>
<text x="70" y="195.20" text-anchor="end" font-family="Arial, sans-serif" font-size="11">-0.595</text>
<line x1="78" y1="121.60" x2="772" y2="121.60" stroke="#ececec"/>
<text x="70" y="125.60" text-anchor="end" font-family="Arial, sans-serif" font-size="11">-0.215</text>
<line x1="78" y1="52.00" x2="772" y2="52.00" stroke="#ececec"/>
<text x="70" y="56.00" text-anchor="end" font-family="Arial, sans-serif" font-size="11">0.165</text>
<line x1="313.78" y1="52" x2="313.78" y2="400" stroke="#777" stroke-dasharray="4 4"/>
<line x1="78" y1="82.26" x2="772" y2="82.26" stroke="#777" stroke-dasharray="4 4"/>
<line x1="91.35" y1="52" x2="91.35" y2="400" stroke="#555" stroke-dasharray="2 4"/>
<text x="95.35" y="66" font-family="Arial, sans-serif" font-size="11" fill="#555">-Vcc</text>
<line x1="536.22" y1="52" x2="536.22" y2="400" stroke="#555" stroke-dasharray="2 4"/>
<text x="540.22" y="66" font-family="Arial, sans-serif" font-size="11" fill="#555">Vcc</text>
<line x1="758.65" y1="52" x2="758.65" y2="400" stroke="#555" stroke-dasharray="2 4"/>
<text x="762.65" y="66" font-family="Arial, sans-serif" font-size="11" fill="#555">2Vcc</text>
<polyline fill="none" stroke="#0f766e" stroke-width="2.8" opacity="0.95" stroke-dasharray="6 3" points="91.35,376.00 101.23,351.09 112.35,323.07 122.24,298.16 133.36,270.13 143.25,245.22 154.37,217.20 164.26,192.29 175.38,164.27 185.26,139.36 193.91,117.56 195.15,114.45 196.39,111.33 197.62,108.22 198.86,105.10 200.09,101.99 201.33,98.88 202.56,96.09 203.80,93.72 205.04,91.74 206.27,90.12 207.51,88.83 208.74,87.83 209.98,87.07 211.21,86.50 212.45,86.08 213.69,85.77 214.92,85.54 216.16,85.37 217.39,85.24 218.63,85.14 219.86,85.06 221.10,84.99 222.34,84.93 223.57,84.88 224.81,84.84 226.04,84.79 227.28,84.75 228.51,84.71 229.75,84.67 230.99,84.64 232.22,84.60 233.46,84.56 234.69,84.53 235.93,84.49 237.17,84.45 238.40,84.42 239.64,84.38 240.87,84.35 242.11,84.31 243.34,84.28 244.58,84.24 245.82,84.20 247.05,84.17 248.29,84.13 249.52,84.09 250.76,84.06 251.99,84.02 253.23,83.99 254.47,83.95 255.70,83.92 256.94,83.88 258.17,83.84 259.41,83.81 263.12,83.70 269.29,83.52 279.18,83.24 290.30,82.92 300.19,82.64 311.31,82.33 313.78,82.26 321.20,82.06 331.08,81.79 342.20,81.49 352.09,81.22 363.21,80.93 373.10,80.67 384.22,80.39 386.69,80.33 394.11,80.15 405.23,79.88 415.11,79.66 426.24,79.41 433.65,79.25 436.12,79.20 443.54,79.05 446.01,79.00 457.13,78.80 467.02,78.64 478.14,78.48 488.02,78.36 499.15,78.25 509.03,78.18 513.97,78.15 520.15,78.12 530.04,78.08 536.22,78.06 539.93,78.05 551.05,78.03 558.46,78.02 560.93,78.01 572.05,77.99 581.94,77.98 593.06,77.97 602.95,77.96 614.07,77.94 623.96,77.93 635.08,77.91 644.96,77.90 654.85,77.88 665.97,77.86 675.86,77.84 686.98,77.82 696.87,77.79 707.99,77.77 717.87,77.73 729.00,77.69 738.88,77.62 750.00,77.52 758.65,77.43"/>
<polyline fill="none" stroke="#7c2d12" stroke-width="2.8" opacity="0.95" stroke-dasharray="6 3" points="91.35,76.00 95.05,76.11 96.29,76.14 97.52,76.18 98.76,76.22 101.23,76.29 104.94,76.40 108.65,76.50 112.35,76.61 114.83,76.68 116.06,76.72 117.30,76.76 118.53,76.79 119.77,76.83 121.00,76.86 122.24,76.90 123.48,76.94 124.71,76.97 125.95,77.01 127.18,77.04 128.42,77.08 129.65,77.11 132.13,77.19 133.36,77.22 137.07,77.33 140.78,77.44 142.01,77.47 143.25,77.51 145.72,77.58 146.96,77.62 150.66,77.72 151.90,77.76 154.37,77.83 158.08,77.94 161.78,78.05 164.26,78.12 167.96,78.22 171.67,78.33 175.38,78.44 179.08,78.54 182.79,78.65 185.26,78.72 188.97,78.83 190.21,78.86 191.44,78.90 192.68,78.93 196.39,79.04 200.09,79.14 203.80,79.25 206.27,79.32 209.98,79.42 212.45,79.49 213.69,79.53 216.16,79.60 217.39,79.63 218.63,79.66 219.86,79.70 221.10,79.73 223.57,79.80 224.81,79.84 227.28,79.91 230.99,80.01 232.22,80.04 233.46,80.08 234.69,80.11 237.17,80.18 238.40,80.21 242.11,80.31 243.34,80.35 244.58,80.38 248.29,80.48 249.52,80.52 250.76,80.55 251.99,80.58 254.47,80.65 255.70,80.68 258.17,80.75 259.41,80.78 263.12,80.88 265.59,80.95 266.82,80.98 268.06,81.02 269.29,81.05 273.00,81.15 276.71,81.25 279.18,81.32 280.42,81.35 284.12,81.45 286.60,81.52 289.07,81.59 290.30,81.62 294.01,81.72 296.48,81.79 297.72,81.82 300.19,81.89 301.42,81.92 302.66,81.96 303.90,81.99 305.13,82.03 306.37,82.06 307.60,82.09 308.84,82.13 310.07,82.16 311.31,82.19 313.78,82.26 321.20,82.47 331.08,82.73 333.55,82.80 334.79,82.83 336.03,82.86 339.73,82.96 342.20,83.03 352.09,83.29 363.21,83.57 373.10,83.82 384.22,84.10 394.11,84.34 405.23,84.60 415.11,84.83 426.24,85.08 428.71,85.13 434.89,85.27 436.12,85.29 441.06,85.39 446.01,85.50 457.13,85.71 467.02,85.90 478.14,86.08 488.02,86.24 496.67,86.36 499.15,86.39 510.27,86.52 512.74,86.54 513.97,86.56 521.39,86.62 530.04,86.69 536.22,86.73 541.16,86.76 543.63,86.77 547.34,86.79 551.05,86.81 558.46,86.84 560.93,86.85 572.05,86.88 579.47,86.90 581.94,86.91 584.41,86.91 585.65,86.91 586.88,86.91 589.36,86.91 591.83,86.91 593.06,86.91 595.53,86.91 600.48,86.91 602.95,86.91 604.18,86.91 605.42,86.91 607.89,86.91 609.13,86.91 610.36,86.91 611.60,86.91 612.83,86.91 614.07,86.91 615.31,86.91 616.54,86.91 623.96,86.91 635.08,86.91 644.96,86.91 654.85,86.91 665.97,86.91 675.86,86.91 686.98,86.91 696.87,86.91 707.99,86.91 717.87,86.91 729.00,86.91 738.88,86.91 750.00,86.91 758.65,86.91"/>
<line x1="88" y1="70" x2="110" y2="70" stroke="#0f766e" stroke-width="2.8" stroke-dasharray="6 3"/>
<text x="116" y="74" font-family="Arial, sans-serif" font-size="12">[Pulldown]+[GND Clamp]</text>
<line x1="88" y1="88" x2="110" y2="88" stroke="#7c2d12" stroke-width="2.8" stroke-dasharray="6 3"/>
<text x="116" y="92" font-family="Arial, sans-serif" font-size="12">[Pullup]+[POWER Clamp]</text>
<text x="425.00" y="444.00" text-anchor="middle" font-family="Arial, sans-serif" font-size="12">Table voltage (V)</text>
<text transform="translate(18 226.00) rotate(-90)" text-anchor="middle" font-family="Arial, sans-serif" font-size="12">Current (A)</text>
<text x="420" y="42" font-family="Arial, sans-serif" font-size="11" fill="#555">thick dashed=combined typ curves</text>
</svg>