<svg xmlns="http://www.w3.org/2000/svg" width="800" height="560" viewBox="0 0 800 560">
<rect width="100%" height="100%" fill="#ffffff"/>
<text x="78" y="25" font-family="Arial, sans-serif" font-size="16" font-weight="700">E34_GPIO_I2CSCLIN_1V1_00_ISOSW I-V Combined Curves</text>
<rect x="78" y="52" width="694" height="348" fill="#fbfbfb" stroke="#c8c8c8"/>
<line x1="78.00" y1="52" x2="78.00" y2="400" stroke="#ececec"/>
<text x="78.00" y="422" text-anchor="middle" font-family="Arial, sans-serif" font-size="11">-1.2</text>
<line x1="216.80" y1="52" x2="216.80" y2="400" stroke="#ececec"/>
<text x="216.80" y="422" text-anchor="middle" font-family="Arial, sans-serif" font-size="11">-0.48</text>
<line x1="355.60" y1="52" x2="355.60" y2="400" stroke="#ececec"/>
<text x="355.60" y="422" text-anchor="middle" font-family="Arial, sans-serif" font-size="11">0.207</text>
<line x1="494.40" y1="52" x2="494.40" y2="400" stroke="#ececec"/>
<text x="494.40" y="422" text-anchor="middle" font-family="Arial, sans-serif" font-size="11">0.893</text>
<line x1="633.20" y1="52" x2="633.20" y2="400" stroke="#ececec"/>
<text x="633.20" y="422" text-anchor="middle" font-family="Arial, sans-serif" font-size="11">1.6</text>
<line x1="772.00" y1="52" x2="772.00" y2="400" stroke="#ececec"/>
<text x="772.00" y="422" text-anchor="middle" font-family="Arial, sans-serif" font-size="11">2.3</text>
<line x1="78" y1="400.00" x2="772" y2="400.00" stroke="#ececec"/>
<text x="70" y="404.00" text-anchor="end" font-family="Arial, sans-serif" font-size="11">-0.436</text>
<line x1="78" y1="330.40" x2="772" y2="330.40" stroke="#ececec"/>
<text x="70" y="334.40" text-anchor="end" font-family="Arial, sans-serif" font-size="11">-0.341</text>
<line x1="78" y1="260.80" x2="772" y2="260.80" stroke="#ececec"/>
<text x="70" y="264.80" text-anchor="end" font-family="Arial, sans-serif" font-size="11">-0.245</text>
<line x1="78" y1="191.20" x2="772" y2="191.20" stroke="#ececec"/>
<text x="70" y="195.20" text-anchor="end" font-family="Arial, sans-serif" font-size="11">-0.15</text>
<line x1="78" y1="121.60" x2="772" y2="121.60" stroke="#ececec"/>
<text x="70" y="125.60" text-anchor="end" font-family="Arial, sans-serif" font-size="11">-0.0545</text>
<line x1="78" y1="52.00" x2="772" y2="52.00" stroke="#ececec"/>
<text x="70" y="56.00" text-anchor="end" font-family="Arial, sans-serif" font-size="11">0.0409</text>
<line x1="313.78" y1="52" x2="313.78" y2="400" stroke="#777" stroke-dasharray="4 4"/>
<line x1="78" y1="81.83" x2="772" y2="81.83" stroke="#777" stroke-dasharray="4 4"/>
<line x1="91.35" y1="52" x2="91.35" y2="400" stroke="#555" stroke-dasharray="2 4"/>
<text x="95.35" y="66" font-family="Arial, sans-serif" font-size="11" fill="#555">-Vcc</text>
<line x1="536.22" y1="52" x2="536.22" y2="400" stroke="#555" stroke-dasharray="2 4"/>
<text x="540.22" y="66" font-family="Arial, sans-serif" font-size="11" fill="#555">Vcc</text>
<line x1="758.65" y1="52" x2="758.65" y2="400" stroke="#555" stroke-dasharray="2 4"/>
<text x="762.65" y="66" font-family="Arial, sans-serif" font-size="11" fill="#555">2Vcc</text>
<polyline fill="none" stroke="#0f766e" stroke-width="2.8" opacity="0.95" stroke-dasharray="6 3" points="91.35,376.00 101.46,314.01 111.57,252.03 117.63,214.84 119.66,202.44 121.68,190.04 123.70,177.65 125.72,165.25 127.74,152.85 129.77,140.46 131.79,129.52 133.81,120.22 135.83,112.47 137.86,106.17 139.88,101.15 141.90,97.26 143.92,94.32 145.94,92.13 147.97,90.52 149.99,89.35 152.01,88.50 154.03,87.88 156.05,87.42 158.08,87.08 160.10,86.81 162.12,86.60 164.14,86.43 166.17,86.28 168.19,86.16 170.21,86.04 172.23,85.94 174.25,85.84 176.28,85.75 178.30,85.66 180.32,85.58 182.34,85.50 184.36,85.42 186.39,85.34 188.41,85.26 190.43,85.19 192.45,85.11 194.48,85.04 196.50,84.97 198.52,84.90 200.54,84.84 202.56,84.77 204.59,84.70 206.61,84.63 208.63,84.57 210.65,84.51 212.67,84.44 214.70,84.38 216.72,84.31 218.74,84.26 220.76,84.20 222.79,84.14 224.81,84.07 226.83,84.01 228.85,83.96 230.87,83.90 236.94,83.72 249.07,83.38 259.18,83.11 269.29,82.85 279.41,82.60 289.52,82.36 299.63,82.13 311.76,81.87 313.78,81.83 321.87,81.68 327.94,81.57 331.98,81.50 342.09,81.33 352.20,81.19 362.31,81.06 374.45,80.95 384.56,80.87 394.67,80.82 404.78,80.79 414.89,80.77 427.02,80.76 437.13,80.75 447.24,80.74 457.35,80.74 467.47,80.73 477.58,80.73 489.71,80.73 499.82,80.72 505.89,80.72 509.93,80.72 513.97,80.72 520.04,80.72 528.13,80.71 530.15,80.71 536.22,80.71 540.26,80.71 552.40,80.71 558.46,80.71 562.51,80.71 572.62,80.70 582.73,80.70 592.84,80.70 602.95,80.70 615.08,80.70 625.19,80.69 635.30,80.68 645.41,80.66 655.52,80.62 665.64,80.55 677.77,80.42 687.88,80.29 693.95,80.20 695.97,80.16 697.99,80.13 700.01,80.09 702.03,80.06 704.06,80.02 706.08,79.99 708.10,79.95 710.12,79.91 712.14,79.87 716.19,79.79 718.21,79.75 728.32,79.53 740.45,79.25 750.57,79.00 758.65,78.79"/>
<polyline fill="none" stroke="#7c2d12" stroke-width="2.8" opacity="0.95" stroke-dasharray="6 3" points="91.35,76.00 93.37,76.07 95.39,76.14 97.41,76.21 101.46,76.35 105.50,76.48 107.52,76.55 109.55,76.62 111.57,76.69 113.59,76.75 115.61,76.82 117.63,76.89 119.66,76.95 121.68,77.02 123.70,77.09 125.72,77.15 127.74,77.22 129.77,77.28 131.79,77.35 133.81,77.41 135.83,77.48 137.86,77.54 139.88,77.61 141.90,77.67 143.92,77.73 145.94,77.79 147.97,77.86 149.99,77.92 152.01,77.98 154.03,78.04 156.05,78.10 158.08,78.16 160.10,78.23 162.12,78.29 164.14,78.35 166.17,78.40 168.19,78.46 172.23,78.58 174.25,78.64 176.28,78.69 178.30,78.75 180.32,78.81 182.34,78.86 184.36,78.92 186.39,78.98 188.41,79.03 190.43,79.08 192.45,79.14 194.48,79.19 196.50,79.25 198.52,79.30 200.54,79.35 204.59,79.45 206.61,79.50 208.63,79.55 210.65,79.60 214.70,79.70 216.72,79.75 220.76,79.85 222.79,79.90 224.81,79.94 226.83,79.99 228.85,80.04 230.87,80.09 234.92,80.18 236.94,80.23 238.96,80.27 240.98,80.32 243.01,80.36 245.03,80.41 249.07,80.50 251.10,80.54 253.12,80.59 257.16,80.68 259.18,80.72 263.23,80.81 267.27,80.90 269.29,80.94 271.32,80.98 273.34,81.02 275.36,81.07 277.38,81.11 279.41,81.15 281.43,81.19 283.45,81.23 285.47,81.28 287.49,81.32 289.52,81.36 291.54,81.40 293.56,81.44 295.58,81.48 297.60,81.52 299.63,81.56 301.65,81.60 303.67,81.64 305.69,81.68 307.72,81.72 309.74,81.76 311.76,81.79 313.78,81.83 321.87,81.98 331.98,82.15 334.00,82.18 336.03,82.21 338.05,82.24 340.07,82.27 342.09,82.30 344.11,82.33 346.14,82.35 352.20,82.43 362.31,82.55 370.40,82.63 374.45,82.66 378.49,82.69 380.51,82.71 382.53,82.72 384.56,82.73 386.58,82.75 388.60,82.76 390.62,82.77 392.65,82.78 394.67,82.79 396.69,82.79 398.71,82.80 400.73,82.81 402.76,82.81 404.78,82.82 406.80,82.82 408.82,82.83 410.84,82.83 412.87,82.83 414.89,82.84 416.91,82.84 418.93,82.84 427.02,82.85 437.13,82.86 447.24,82.87 457.35,82.88 467.47,82.88 477.58,82.89 489.71,82.90 499.82,82.90 505.89,82.91 509.93,82.91 513.97,82.91 520.04,82.91 522.06,82.91 530.15,82.92 536.22,82.92 540.26,82.92 552.40,82.92 558.46,82.93 562.51,82.93 572.62,82.93 582.73,82.93 592.84,82.94 602.95,82.94 615.08,82.94 625.19,82.94 635.30,82.94 645.41,82.94 655.52,82.94 665.64,82.94 677.77,82.94 687.88,82.94 697.99,82.94 708.10,82.94 718.21,82.94 728.32,82.94 740.45,82.94 750.57,82.94 758.65,82.94"/>
<line x1="88" y1="70" x2="110" y2="70" stroke="#0f766e" stroke-width="2.8" stroke-dasharray="6 3"/>
<text x="116" y="74" font-family="Arial, sans-serif" font-size="12">[Pulldown]+[GND Clamp]</text>
<line x1="88" y1="88" x2="110" y2="88" stroke="#7c2d12" stroke-width="2.8" stroke-dasharray="6 3"/>
<text x="116" y="92" font-family="Arial, sans-serif" font-size="12">[Pullup]+[POWER Clamp]</text>
<rect x="78" y="464" width="694" height="44" fill="#fffdf7" stroke="#d8c6a1" rx="4"/>
<text x="88" y="481" font-family="Arial, sans-serif" font-size="11" font-weight="700" fill="#4b3b21">Findings needing attention</text>
<rect x="88" y="488" width="7" height="7" fill="#b54708"/>
<text x="102" y="495" font-family="Arial, sans-serif" font-size="11" fill="#333">WARN 5.3.6: I-V stair-step evidence needs review | [GND Clamp]: roughness=0.213 &gt; 0.1</text>
<text x="425.00" y="444.00" text-anchor="middle" font-family="Arial, sans-serif" font-size="12">Table voltage (V)</text>
<text transform="translate(18 226.00) rotate(-90)" text-anchor="middle" font-family="Arial, sans-serif" font-size="12">Current (A)</text>
<text x="420" y="42" font-family="Arial, sans-serif" font-size="11" fill="#555">thick dashed=combined typ curves</text>
</svg>