<svg xmlns="http://www.w3.org/2000/svg" width="800" height="560" viewBox="0 0 800 560">
<rect width="100%" height="100%" fill="#ffffff"/>
<text x="78" y="25" font-family="Arial, sans-serif" font-size="16" font-weight="700">E34_GPIO_I2CSCLIN_1V8_01 I-V Combined Curves</text>
<rect x="78" y="52" width="694" height="348" fill="#fbfbfb" stroke="#c8c8c8"/>
<line x1="78.00" y1="52" x2="78.00" y2="400" stroke="#ececec"/>
<text x="78.00" y="422" text-anchor="middle" font-family="Arial, sans-serif" font-size="11">-1.9</text>
<line x1="216.80" y1="52" x2="216.80" y2="400" stroke="#ececec"/>
<text x="216.80" y="422" text-anchor="middle" font-family="Arial, sans-serif" font-size="11">-0.785</text>
<line x1="355.60" y1="52" x2="355.60" y2="400" stroke="#ececec"/>
<text x="355.60" y="422" text-anchor="middle" font-family="Arial, sans-serif" font-size="11">0.338</text>
<line x1="494.40" y1="52" x2="494.40" y2="400" stroke="#ececec"/>
<text x="494.40" y="422" text-anchor="middle" font-family="Arial, sans-serif" font-size="11">1.5</text>
<line x1="633.20" y1="52" x2="633.20" y2="400" stroke="#ececec"/>
<text x="633.20" y="422" text-anchor="middle" font-family="Arial, sans-serif" font-size="11">2.6</text>
<line x1="772.00" y1="52" x2="772.00" y2="400" stroke="#ececec"/>
<text x="772.00" y="422" text-anchor="middle" font-family="Arial, sans-serif" font-size="11">3.7</text>
<line x1="78" y1="400.00" x2="772" y2="400.00" stroke="#ececec"/>
<text x="70" y="404.00" text-anchor="end" font-family="Arial, sans-serif" font-size="11">-1.7</text>
<line x1="78" y1="330.40" x2="772" y2="330.40" stroke="#ececec"/>
<text x="70" y="334.40" text-anchor="end" font-family="Arial, sans-serif" font-size="11">-1.4</text>
<line x1="78" y1="260.80" x2="772" y2="260.80" stroke="#ececec"/>
<text x="70" y="264.80" text-anchor="end" font-family="Arial, sans-serif" font-size="11">-0.976</text>
<line x1="78" y1="191.20" x2="772" y2="191.20" stroke="#ececec"/>
<text x="70" y="195.20" text-anchor="end" font-family="Arial, sans-serif" font-size="11">-0.599</text>
<line x1="78" y1="121.60" x2="772" y2="121.60" stroke="#ececec"/>
<text x="70" y="125.60" text-anchor="end" font-family="Arial, sans-serif" font-size="11">-0.223</text>
<line x1="78" y1="52.00" x2="772" y2="52.00" stroke="#ececec"/>
<text x="70" y="56.00" text-anchor="end" font-family="Arial, sans-serif" font-size="11">0.154</text>
<line x1="313.78" y1="52" x2="313.78" y2="400" stroke="#777" stroke-dasharray="4 4"/>
<line x1="78" y1="80.44" x2="772" y2="80.44" stroke="#777" stroke-dasharray="4 4"/>
<line x1="91.35" y1="52" x2="91.35" y2="400" stroke="#555" stroke-dasharray="2 4"/>
<text x="95.35" y="66" font-family="Arial, sans-serif" font-size="11" fill="#555">-Vcc</text>
<line x1="536.22" y1="52" x2="536.22" y2="400" stroke="#555" stroke-dasharray="2 4"/>
<text x="540.22" y="66" font-family="Arial, sans-serif" font-size="11" fill="#555">Vcc</text>
<line x1="758.65" y1="52" x2="758.65" y2="400" stroke="#555" stroke-dasharray="2 4"/>
<text x="762.65" y="66" font-family="Arial, sans-serif" font-size="11" fill="#555">2Vcc</text>
<polyline fill="none" stroke="#0f766e" stroke-width="2.8" opacity="0.95" stroke-dasharray="6 3" points="91.35,376.00 101.23,350.87 112.35,322.59 122.24,297.46 133.36,269.18 143.25,244.05 154.37,215.78 164.26,190.65 175.38,162.37 185.26,137.24 193.91,115.25 195.15,112.11 196.39,108.96 197.62,105.82 198.86,102.68 200.09,99.54 201.33,96.40 202.56,93.60 203.80,91.22 205.04,89.23 206.27,87.62 207.51,86.33 208.74,85.33 209.98,84.58 211.21,84.02 212.45,83.60 213.69,83.30 214.92,83.08 216.16,82.92 217.39,82.80 218.63,82.71 219.86,82.64 221.10,82.59 222.34,82.54 223.57,82.50 224.81,82.46 226.04,82.43 227.28,82.39 228.51,82.36 229.75,82.33 230.99,82.30 232.22,82.28 233.46,82.25 234.69,82.22 237.17,82.16 238.40,82.14 239.64,82.11 240.87,82.08 242.11,82.06 243.34,82.03 244.58,82.00 245.82,81.97 247.05,81.94 248.29,81.91 249.52,81.88 250.76,81.86 251.99,81.83 253.23,81.80 254.47,81.77 255.70,81.75 256.94,81.72 258.17,81.69 259.41,81.66 260.64,81.63 269.29,81.43 279.18,81.21 290.30,80.96 300.19,80.74 311.31,80.49 313.78,80.44 321.20,80.28 331.08,80.06 342.20,79.83 352.09,79.63 361.98,79.43 363.21,79.41 373.10,79.22 384.22,79.02 391.63,78.89 394.11,78.85 405.23,78.67 415.11,78.53 420.06,78.47 426.24,78.39 432.41,78.33 436.12,78.29 446.01,78.20 449.72,78.17 454.66,78.14 457.13,78.13 458.37,78.12 467.02,78.08 478.14,78.04 488.02,78.01 499.15,77.99 509.03,77.97 513.97,77.96 520.15,77.95 530.04,77.94 536.22,77.93 539.93,77.93 551.05,77.91 558.46,77.91 560.93,77.90 572.05,77.89 581.94,77.88 593.06,77.87 602.95,77.86 614.07,77.85 623.96,77.83 635.08,77.81 644.96,77.80 654.85,77.77 665.97,77.74 669.68,77.73 675.86,77.70 686.98,77.62 696.87,77.54 707.99,77.43 717.87,77.31 729.00,77.16 738.88,77.02 750.00,76.84 758.65,76.70"/>
<polyline fill="none" stroke="#7c2d12" stroke-width="2.8" opacity="0.95" stroke-dasharray="6 3" points="91.35,76.00 92.58,76.02 95.05,76.05 96.29,76.07 98.76,76.11 101.23,76.15 104.94,76.21 108.65,76.27 109.88,76.29 112.35,76.34 116.06,76.40 117.30,76.42 118.53,76.44 119.77,76.47 121.00,76.49 122.24,76.51 123.48,76.53 124.71,76.56 125.95,76.58 127.18,76.60 128.42,76.62 129.65,76.65 132.13,76.69 133.36,76.72 134.60,76.74 137.07,76.79 140.78,76.86 142.01,76.88 143.25,76.91 144.48,76.93 146.96,76.98 150.66,77.05 154.37,77.12 158.08,77.20 160.55,77.25 161.78,77.27 163.02,77.30 164.26,77.32 166.73,77.37 167.96,77.40 171.67,77.47 175.38,77.55 179.08,77.62 180.32,77.65 182.79,77.70 185.26,77.75 186.50,77.78 188.97,77.83 192.68,77.91 196.39,77.98 197.62,78.01 198.86,78.04 200.09,78.06 201.33,78.09 203.80,78.14 205.04,78.17 206.27,78.19 209.98,78.27 211.21,78.30 213.69,78.35 216.16,78.40 217.39,78.43 218.63,78.45 221.10,78.50 223.57,78.56 224.81,78.58 227.28,78.64 228.51,78.66 230.99,78.71 233.46,78.77 234.69,78.79 237.17,78.84 238.40,78.87 242.11,78.95 244.58,79.00 248.29,79.08 249.52,79.11 251.99,79.16 255.70,79.23 256.94,79.26 258.17,79.29 259.41,79.31 263.12,79.39 265.59,79.44 266.82,79.47 268.06,79.49 269.29,79.52 273.00,79.59 275.47,79.65 276.71,79.67 279.18,79.72 280.42,79.75 282.89,79.80 284.12,79.83 286.60,79.88 287.83,79.90 289.07,79.93 290.30,79.95 294.01,80.03 295.25,80.06 297.72,80.11 298.95,80.13 300.19,80.16 301.42,80.18 302.66,80.21 303.90,80.23 305.13,80.26 306.37,80.29 307.60,80.31 308.84,80.34 310.07,80.36 311.31,80.39 313.78,80.44 321.20,80.59 331.08,80.79 342.20,81.01 352.09,81.20 363.21,81.40 373.10,81.58 384.22,81.77 394.11,81.93 405.23,82.10 415.11,82.25 422.53,82.35 426.24,82.40 436.12,82.52 438.59,82.55 446.01,82.63 452.19,82.69 457.13,82.74 458.37,82.75 459.60,82.76 465.78,82.81 468.25,82.83 476.90,82.89 478.14,82.90 488.02,82.96 499.15,83.02 509.03,83.06 513.97,83.08 520.15,83.10 530.04,83.13 536.22,83.14 539.93,83.15 551.05,83.18 558.46,83.19 560.93,83.20 572.05,83.22 580.71,83.23 583.18,83.23 593.06,83.23 602.95,83.23 609.13,83.23 611.60,83.23 614.07,83.23 623.96,83.23 635.08,83.23 644.96,83.23 654.85,83.23 665.97,83.23 675.86,83.23 686.98,83.23 696.87,83.23 707.99,83.23 717.87,83.23 729.00,83.23 738.88,83.23 750.00,83.23 758.65,83.23"/>
<line x1="88" y1="70" x2="110" y2="70" stroke="#0f766e" stroke-width="2.8" stroke-dasharray="6 3"/>
<text x="116" y="74" font-family="Arial, sans-serif" font-size="12">[Pulldown]+[GND Clamp]</text>
<line x1="88" y1="88" x2="110" y2="88" stroke="#7c2d12" stroke-width="2.8" stroke-dasharray="6 3"/>
<text x="116" y="92" font-family="Arial, sans-serif" font-size="12">[Pullup]+[POWER Clamp]</text>
<text x="425.00" y="444.00" text-anchor="middle" font-family="Arial, sans-serif" font-size="12">Table voltage (V)</text>
<text transform="translate(18 226.00) rotate(-90)" text-anchor="middle" font-family="Arial, sans-serif" font-size="12">Current (A)</text>
<text x="420" y="42" font-family="Arial, sans-serif" font-size="11" fill="#555">thick dashed=combined typ curves</text>
</svg>