<svg xmlns="http://www.w3.org/2000/svg" width="800" height="560" viewBox="0 0 800 560">
<rect width="100%" height="100%" fill="#ffffff"/>
<text x="78" y="25" font-family="Arial, sans-serif" font-size="16" font-weight="700">E34_GPIO_1V1TO1V8_1v2_11 I-V Combined Curves</text>
<rect x="78" y="52" width="694" height="348" fill="#fbfbfb" stroke="#c8c8c8"/>
<line x1="78.00" y1="52" x2="78.00" y2="400" stroke="#ececec"/>
<text x="78.00" y="422" text-anchor="middle" font-family="Arial, sans-serif" font-size="11">-1.3</text>
<line x1="216.80" y1="52" x2="216.80" y2="400" stroke="#ececec"/>
<text x="216.80" y="422" text-anchor="middle" font-family="Arial, sans-serif" font-size="11">-0.523</text>
<line x1="355.60" y1="52" x2="355.60" y2="400" stroke="#ececec"/>
<text x="355.60" y="422" text-anchor="middle" font-family="Arial, sans-serif" font-size="11">0.226</text>
<line x1="494.40" y1="52" x2="494.40" y2="400" stroke="#ececec"/>
<text x="494.40" y="422" text-anchor="middle" font-family="Arial, sans-serif" font-size="11">0.974</text>
<line x1="633.20" y1="52" x2="633.20" y2="400" stroke="#ececec"/>
<text x="633.20" y="422" text-anchor="middle" font-family="Arial, sans-serif" font-size="11">1.7</text>
<line x1="772.00" y1="52" x2="772.00" y2="400" stroke="#ececec"/>
<text x="772.00" y="422" text-anchor="middle" font-family="Arial, sans-serif" font-size="11">2.5</text>
<line x1="78" y1="400.00" x2="772" y2="400.00" stroke="#ececec"/>
<text x="70" y="404.00" text-anchor="end" font-family="Arial, sans-serif" font-size="11">-0.628</text>
<line x1="78" y1="330.40" x2="772" y2="330.40" stroke="#ececec"/>
<text x="70" y="334.40" text-anchor="end" font-family="Arial, sans-serif" font-size="11">-0.489</text>
<line x1="78" y1="260.80" x2="772" y2="260.80" stroke="#ececec"/>
<text x="70" y="264.80" text-anchor="end" font-family="Arial, sans-serif" font-size="11">-0.351</text>
<line x1="78" y1="191.20" x2="772" y2="191.20" stroke="#ececec"/>
<text x="70" y="195.20" text-anchor="end" font-family="Arial, sans-serif" font-size="11">-0.212</text>
<line x1="78" y1="121.60" x2="772" y2="121.60" stroke="#ececec"/>
<text x="70" y="125.60" text-anchor="end" font-family="Arial, sans-serif" font-size="11">-0.0735</text>
<line x1="78" y1="52.00" x2="772" y2="52.00" stroke="#ececec"/>
<text x="70" y="56.00" text-anchor="end" font-family="Arial, sans-serif" font-size="11">0.0652</text>
<line x1="313.78" y1="52" x2="313.78" y2="400" stroke="#777" stroke-dasharray="4 4"/>
<line x1="78" y1="84.72" x2="772" y2="84.72" stroke="#777" stroke-dasharray="4 4"/>
<line x1="91.35" y1="52" x2="91.35" y2="400" stroke="#555" stroke-dasharray="2 4"/>
<text x="95.35" y="66" font-family="Arial, sans-serif" font-size="11" fill="#555">-Vcc</text>
<line x1="536.22" y1="52" x2="536.22" y2="400" stroke="#555" stroke-dasharray="2 4"/>
<text x="540.22" y="66" font-family="Arial, sans-serif" font-size="11" fill="#555">Vcc</text>
<line x1="758.65" y1="52" x2="758.65" y2="400" stroke="#555" stroke-dasharray="2 4"/>
<text x="762.65" y="66" font-family="Arial, sans-serif" font-size="11" fill="#555">2Vcc</text>
<polyline fill="none" stroke="#0f766e" stroke-width="2.8" opacity="0.95" stroke-dasharray="6 3" points="91.35,376.00 102.47,324.80 111.74,282.13 122.86,230.93 133.98,179.73 135.83,171.19 137.69,162.66 139.54,154.13 141.39,145.59 143.25,137.06 145.10,128.53 146.96,120.99 148.81,114.58 150.66,109.23 152.52,104.88 154.37,101.43 156.22,98.74 158.08,96.70 159.93,95.18 161.78,94.07 163.64,93.25 165.49,92.65 167.35,92.21 169.20,91.88 171.05,91.62 172.91,91.42 174.76,91.25 176.61,91.11 178.47,90.99 180.32,90.87 182.17,90.77 184.03,90.67 185.88,90.58 187.74,90.48 189.59,90.39 191.44,90.30 193.30,90.21 195.15,90.12 197.00,90.03 198.86,89.95 200.71,89.86 202.56,89.77 204.42,89.69 206.27,89.59 208.12,89.51 209.98,89.43 211.83,89.34 213.69,89.25 215.54,89.16 217.39,89.07 219.25,88.99 221.10,88.90 222.95,88.82 224.81,88.73 226.66,88.64 228.51,88.55 230.37,88.47 232.22,88.38 234.08,88.30 237.78,88.12 248.90,87.61 258.17,87.18 269.29,86.68 280.42,86.18 289.68,85.77 300.81,85.28 310.07,84.88 313.78,84.72 321.20,84.41 332.32,83.96 341.59,83.58 352.71,83.15 356.42,83.01 363.83,82.74 373.10,82.41 384.22,82.04 387.93,81.92 395.34,81.69 404.61,81.43 415.73,81.15 425.00,80.95 426.85,80.91 436.12,80.75 439.83,80.69 447.24,80.60 449.10,80.58 456.51,80.52 458.37,80.50 462.07,80.47 467.63,80.44 471.34,80.42 473.19,80.41 478.76,80.38 480.61,80.37 484.32,80.36 488.02,80.34 499.15,80.30 510.27,80.26 513.97,80.25 519.54,80.23 530.66,80.20 536.22,80.18 541.78,80.17 551.05,80.15 558.46,80.13 562.17,80.12 571.44,80.10 582.56,80.07 593.68,80.05 602.95,80.03 614.07,80.00 625.19,79.98 634.46,79.96 645.58,79.93 656.70,79.90 665.97,79.87 677.09,79.83 688.22,79.78 697.48,79.73 708.61,79.66 717.87,79.59 729.00,79.48 740.12,79.35 749.39,79.23 758.65,79.09"/>
<polyline fill="none" stroke="#7c2d12" stroke-width="2.8" opacity="0.95" stroke-dasharray="6 3" points="91.35,76.00 93.20,76.06 95.05,76.12 98.76,76.23 100.61,76.29 102.47,76.35 104.32,76.41 106.18,76.47 108.03,76.53 109.88,76.60 111.74,76.66 115.44,76.79 117.30,76.85 119.15,76.92 121.00,76.99 122.86,77.05 124.71,77.12 126.57,77.19 128.42,77.26 130.27,77.33 133.98,77.47 135.83,77.54 137.69,77.61 139.54,77.68 143.25,77.82 146.96,77.96 148.81,78.04 150.66,78.11 154.37,78.25 156.22,78.33 158.08,78.40 161.78,78.55 163.64,78.62 165.49,78.70 169.20,78.85 171.05,78.93 172.91,79.00 174.76,79.08 176.61,79.15 178.47,79.23 182.17,79.38 185.88,79.53 189.59,79.68 191.44,79.76 193.30,79.84 195.15,79.91 197.00,79.99 200.71,80.14 202.56,80.22 204.42,80.30 206.27,80.37 208.12,80.45 209.98,80.53 213.69,80.68 215.54,80.76 217.39,80.83 219.25,80.91 221.10,80.99 222.95,81.06 224.81,81.14 226.66,81.22 228.51,81.29 230.37,81.37 232.22,81.45 234.08,81.52 235.93,81.60 237.78,81.67 239.64,81.75 241.49,81.82 245.20,81.98 247.05,82.05 248.90,82.13 250.76,82.20 252.61,82.28 254.47,82.35 256.32,82.43 258.17,82.50 260.03,82.58 261.88,82.65 263.73,82.72 267.44,82.87 269.29,82.95 273.00,83.10 276.71,83.25 280.42,83.40 282.27,83.47 284.12,83.54 285.98,83.62 287.83,83.69 289.68,83.77 291.54,83.84 293.39,83.91 295.25,83.99 297.10,84.06 298.95,84.13 300.81,84.21 302.66,84.28 304.51,84.36 306.37,84.43 308.22,84.50 310.07,84.58 311.93,84.65 313.78,84.72 321.20,85.02 330.46,85.37 332.32,85.44 341.59,85.78 352.71,86.17 363.83,86.55 373.10,86.86 384.22,87.20 395.34,87.52 404.61,87.77 415.73,88.04 419.44,88.12 423.15,88.20 425.00,88.23 426.85,88.27 428.71,88.30 430.56,88.34 432.41,88.37 434.27,88.40 436.12,88.43 437.98,88.46 441.68,88.52 445.39,88.57 447.24,88.60 450.95,88.64 456.51,88.70 460.22,88.74 462.07,88.76 463.93,88.77 467.63,88.80 471.34,88.83 475.05,88.86 480.61,88.90 488.02,88.94 493.58,88.97 499.15,89.00 502.85,89.02 506.56,89.03 510.27,89.05 513.97,89.07 519.54,89.09 530.66,89.13 536.22,89.15 541.78,89.17 551.05,89.20 558.46,89.23 562.17,89.24 571.44,89.27 582.56,89.30 593.68,89.33 602.95,89.34 614.07,89.35 625.19,89.35 634.46,89.35 636.31,89.35 638.17,89.35 645.58,89.35 656.70,89.35 665.97,89.35 677.09,89.35 688.22,89.35 697.48,89.35 708.61,89.35 717.87,89.35 729.00,89.35 740.12,89.35 749.39,89.35 758.65,89.35"/>
<line x1="88" y1="70" x2="110" y2="70" stroke="#0f766e" stroke-width="2.8" stroke-dasharray="6 3"/>
<text x="116" y="74" font-family="Arial, sans-serif" font-size="12">[Pulldown]+[GND Clamp]</text>
<line x1="88" y1="88" x2="110" y2="88" stroke="#7c2d12" stroke-width="2.8" stroke-dasharray="6 3"/>
<text x="116" y="92" font-family="Arial, sans-serif" font-size="12">[Pullup]+[POWER Clamp]</text>
<rect x="78" y="464" width="694" height="44" fill="#fffdf7" stroke="#d8c6a1" rx="4"/>
<text x="88" y="481" font-family="Arial, sans-serif" font-size="11" font-weight="700" fill="#4b3b21">Findings needing attention</text>
<rect x="88" y="488" width="7" height="7" fill="#b54708"/>
<text x="102" y="495" font-family="Arial, sans-serif" font-size="11" fill="#333">WARN 5.3.6: I-V stair-step evidence needs review | [GND Clamp]: roughness=0.179 &gt; 0.1</text>
<text x="425.00" y="444.00" text-anchor="middle" font-family="Arial, sans-serif" font-size="12">Table voltage (V)</text>
<text transform="translate(18 226.00) rotate(-90)" text-anchor="middle" font-family="Arial, sans-serif" font-size="12">Current (A)</text>
<text x="420" y="42" font-family="Arial, sans-serif" font-size="11" fill="#555">thick dashed=combined typ curves</text>
</svg>