<svg xmlns="http://www.w3.org/2000/svg" width="800" height="560" viewBox="0 0 800 560">
<rect width="100%" height="100%" fill="#ffffff"/>
<text x="78" y="25" font-family="Arial, sans-serif" font-size="16" font-weight="700">E34_GPIO_SPI_I3C_MST_1V1_01 I-V Combined Curves</text>
<rect x="78" y="52" width="694" height="348" fill="#fbfbfb" stroke="#c8c8c8"/>
<line x1="78.00" y1="52" x2="78.00" y2="400" stroke="#ececec"/>
<text x="78.00" y="422" text-anchor="middle" font-family="Arial, sans-serif" font-size="11">-1.2</text>
<line x1="216.80" y1="52" x2="216.80" y2="400" stroke="#ececec"/>
<text x="216.80" y="422" text-anchor="middle" font-family="Arial, sans-serif" font-size="11">-0.48</text>
<line x1="355.60" y1="52" x2="355.60" y2="400" stroke="#ececec"/>
<text x="355.60" y="422" text-anchor="middle" font-family="Arial, sans-serif" font-size="11">0.207</text>
<line x1="494.40" y1="52" x2="494.40" y2="400" stroke="#ececec"/>
<text x="494.40" y="422" text-anchor="middle" font-family="Arial, sans-serif" font-size="11">0.893</text>
<line x1="633.20" y1="52" x2="633.20" y2="400" stroke="#ececec"/>
<text x="633.20" y="422" text-anchor="middle" font-family="Arial, sans-serif" font-size="11">1.6</text>
<line x1="772.00" y1="52" x2="772.00" y2="400" stroke="#ececec"/>
<text x="772.00" y="422" text-anchor="middle" font-family="Arial, sans-serif" font-size="11">2.3</text>
<line x1="78" y1="400.00" x2="772" y2="400.00" stroke="#ececec"/>
<text x="70" y="404.00" text-anchor="end" font-family="Arial, sans-serif" font-size="11">-0.502</text>
<line x1="78" y1="330.40" x2="772" y2="330.40" stroke="#ececec"/>
<text x="70" y="334.40" text-anchor="end" font-family="Arial, sans-serif" font-size="11">-0.385</text>
<line x1="78" y1="260.80" x2="772" y2="260.80" stroke="#ececec"/>
<text x="70" y="264.80" text-anchor="end" font-family="Arial, sans-serif" font-size="11">-0.269</text>
<line x1="78" y1="191.20" x2="772" y2="191.20" stroke="#ececec"/>
<text x="70" y="195.20" text-anchor="end" font-family="Arial, sans-serif" font-size="11">-0.152</text>
<line x1="78" y1="121.60" x2="772" y2="121.60" stroke="#ececec"/>
<text x="70" y="125.60" text-anchor="end" font-family="Arial, sans-serif" font-size="11">-0.0356</text>
<line x1="78" y1="52.00" x2="772" y2="52.00" stroke="#ececec"/>
<text x="70" y="56.00" text-anchor="end" font-family="Arial, sans-serif" font-size="11">0.081</text>
<line x1="313.78" y1="52" x2="313.78" y2="400" stroke="#777" stroke-dasharray="4 4"/>
<line x1="78" y1="100.36" x2="772" y2="100.36" stroke="#777" stroke-dasharray="4 4"/>
<line x1="91.35" y1="52" x2="91.35" y2="400" stroke="#555" stroke-dasharray="2 4"/>
<text x="95.35" y="66" font-family="Arial, sans-serif" font-size="11" fill="#555">-Vcc</text>
<line x1="536.22" y1="52" x2="536.22" y2="400" stroke="#555" stroke-dasharray="2 4"/>
<text x="540.22" y="66" font-family="Arial, sans-serif" font-size="11" fill="#555">Vcc</text>
<line x1="758.65" y1="52" x2="758.65" y2="400" stroke="#555" stroke-dasharray="2 4"/>
<text x="762.65" y="66" font-family="Arial, sans-serif" font-size="11" fill="#555">2Vcc</text>
<polyline fill="none" stroke="#0f766e" stroke-width="2.8" opacity="0.95" stroke-dasharray="6 3" points="91.35,376.00 101.46,325.26 111.57,274.51 121.68,223.77 123.70,213.62 125.72,203.48 127.74,193.33 129.77,183.18 131.79,173.03 133.81,162.88 135.83,154.35 137.86,147.51 139.88,142.13 141.90,137.96 143.92,134.76 145.94,132.34 147.97,130.48 149.99,129.03 152.01,127.88 154.03,126.94 156.05,126.15 158.08,125.47 160.10,124.86 162.12,124.31 164.14,123.79 166.17,123.30 168.19,122.82 170.21,122.36 172.23,121.91 174.25,121.48 176.28,121.03 178.30,120.60 180.32,120.18 182.34,119.77 184.36,119.37 186.39,118.98 188.41,118.58 190.43,118.19 192.45,117.82 194.48,117.44 196.50,117.05 198.52,116.70 200.54,116.35 202.56,115.99 204.59,115.62 206.61,115.25 208.63,114.93 210.65,114.60 212.67,114.26 214.70,113.92 216.72,113.57 226.83,112.00 236.94,110.50 249.07,108.76 259.18,107.34 269.29,105.95 279.41,104.58 289.52,103.26 299.63,102.00 311.76,100.59 313.78,100.36 321.87,99.51 331.98,98.54 342.09,97.68 352.20,96.94 354.22,96.80 358.27,96.55 362.31,96.32 366.36,96.11 368.38,96.01 370.40,95.92 374.45,95.74 384.56,95.39 388.60,95.29 394.67,95.15 396.69,95.11 404.78,94.98 414.89,94.88 427.02,94.78 437.13,94.72 441.18,94.70 443.20,94.68 447.24,94.66 457.35,94.61 465.44,94.57 467.47,94.56 477.58,94.52 489.71,94.47 499.82,94.43 509.93,94.39 513.97,94.38 520.04,94.35 530.15,94.32 536.22,94.30 540.26,94.28 552.40,94.24 558.46,94.22 562.51,94.21 572.62,94.18 582.73,94.15 592.84,94.12 602.95,94.09 615.08,94.04 625.19,94.00 635.30,93.93 645.41,93.82 655.52,93.66 665.64,93.44 677.77,93.08 687.88,92.70 697.99,92.24 708.10,91.71 718.21,91.10 728.32,90.42 740.45,89.53 750.57,88.72 758.65,88.03"/>
<polyline fill="none" stroke="#7c2d12" stroke-width="2.8" opacity="0.95" stroke-dasharray="6 3" points="91.35,76.00 93.37,76.27 95.39,76.54 97.41,76.82 101.46,77.36 105.50,77.90 109.55,78.44 111.57,78.70 115.61,79.23 117.63,79.50 119.66,79.76 121.68,80.03 123.70,80.29 125.72,80.55 127.74,80.81 129.77,81.07 131.79,81.33 133.81,81.59 135.83,81.84 137.86,82.10 139.88,82.35 143.92,82.86 145.94,83.12 147.97,83.37 149.99,83.62 152.01,83.87 154.03,84.12 156.05,84.36 158.08,84.61 160.10,84.86 162.12,85.10 164.14,85.35 166.17,85.59 168.19,85.83 170.21,86.07 172.23,86.31 174.25,86.55 176.28,86.79 178.30,87.02 182.34,87.49 184.36,87.73 186.39,87.96 188.41,88.19 190.43,88.42 192.45,88.65 194.48,88.88 196.50,89.11 198.52,89.33 200.54,89.56 202.56,89.78 204.59,90.00 206.61,90.23 208.63,90.45 210.65,90.66 212.67,90.88 214.70,91.10 216.72,91.32 218.74,91.53 220.76,91.75 222.79,91.96 224.81,92.17 226.83,92.39 228.85,92.59 230.87,92.80 234.92,93.22 236.94,93.43 238.96,93.63 243.01,94.03 245.03,94.23 247.05,94.44 249.07,94.64 251.10,94.83 253.12,95.03 255.14,95.22 257.16,95.42 259.18,95.62 261.21,95.81 263.23,96.00 265.25,96.19 267.27,96.38 269.29,96.57 271.32,96.75 273.34,96.93 275.36,97.12 277.38,97.30 279.41,97.49 281.43,97.66 283.45,97.84 285.47,98.02 287.49,98.20 289.52,98.37 291.54,98.54 295.58,98.89 297.60,99.05 299.63,99.22 301.65,99.38 303.67,99.55 305.69,99.71 309.74,100.04 311.76,100.20 313.78,100.36 321.87,100.97 329.96,101.52 331.98,101.65 334.00,101.78 342.09,102.25 352.20,102.78 362.31,103.24 374.45,103.68 384.56,103.96 394.67,104.17 404.78,104.32 414.89,104.44 427.02,104.54 429.04,104.55 437.13,104.61 447.24,104.67 457.35,104.72 461.40,104.74 463.42,104.75 467.47,104.77 473.53,104.80 477.58,104.81 489.71,104.86 499.82,104.90 509.93,104.94 513.97,104.95 520.04,104.97 530.15,105.01 536.22,105.03 540.26,105.04 552.40,105.07 558.46,105.09 562.51,105.10 572.62,105.13 582.73,105.16 592.84,105.18 598.90,105.20 600.93,105.20 615.08,105.24 625.19,105.26 635.30,105.29 645.41,105.31 649.46,105.32 651.48,105.32 653.50,105.33 655.52,105.33 657.55,105.34 659.57,105.34 661.59,105.34 663.61,105.35 665.64,105.35 667.66,105.36 669.68,105.36 671.70,105.37 673.72,105.37 675.75,105.38 677.77,105.38 679.79,105.38 681.81,105.39 683.83,105.39 685.86,105.40 687.88,105.40 689.90,105.41 693.95,105.41 697.99,105.42 702.03,105.43 708.10,105.44 718.21,105.46 726.30,105.46 728.32,105.46 730.34,105.46 732.37,105.46 734.39,105.46 740.45,105.46 750.57,105.46 758.65,105.46"/>
<line x1="88" y1="70" x2="110" y2="70" stroke="#0f766e" stroke-width="2.8" stroke-dasharray="6 3"/>
<text x="116" y="74" font-family="Arial, sans-serif" font-size="12">[Pulldown]+[GND Clamp]</text>
<line x1="88" y1="88" x2="110" y2="88" stroke="#7c2d12" stroke-width="2.8" stroke-dasharray="6 3"/>
<text x="116" y="92" font-family="Arial, sans-serif" font-size="12">[Pullup]+[POWER Clamp]</text>
<rect x="78" y="464" width="694" height="44" fill="#fffdf7" stroke="#d8c6a1" rx="4"/>
<text x="88" y="481" font-family="Arial, sans-serif" font-size="11" font-weight="700" fill="#4b3b21">Findings needing attention</text>
<rect x="88" y="488" width="7" height="7" fill="#b54708"/>
<text x="102" y="495" font-family="Arial, sans-serif" font-size="11" fill="#333">WARN 5.3.6: I-V stair-step evidence needs review | [GND Clamp]: roughness=0.197 &gt; 0.1</text>
<text x="425.00" y="444.00" text-anchor="middle" font-family="Arial, sans-serif" font-size="12">Table voltage (V)</text>
<text transform="translate(18 226.00) rotate(-90)" text-anchor="middle" font-family="Arial, sans-serif" font-size="12">Current (A)</text>
<text x="420" y="42" font-family="Arial, sans-serif" font-size="11" fill="#555">thick dashed=combined typ curves</text>
</svg>