<svg xmlns="http://www.w3.org/2000/svg" width="800" height="560" viewBox="0 0 800 560">
<rect width="100%" height="100%" fill="#ffffff"/>
<text x="78" y="25" font-family="Arial, sans-serif" font-size="16" font-weight="700">E34_GPIO_I2CSCLIN_3V3_11_ISOSW I-V Combined Curves</text>
<rect x="78" y="52" width="694" height="348" fill="#fbfbfb" stroke="#c8c8c8"/>
<line x1="78.00" y1="52" x2="78.00" y2="400" stroke="#ececec"/>
<text x="78.00" y="422" text-anchor="middle" font-family="Arial, sans-serif" font-size="11">-3.5</text>
<line x1="216.80" y1="52" x2="216.80" y2="400" stroke="#ececec"/>
<text x="216.80" y="422" text-anchor="middle" font-family="Arial, sans-serif" font-size="11">-1.4</text>
<line x1="355.60" y1="52" x2="355.60" y2="400" stroke="#ececec"/>
<text x="355.60" y="422" text-anchor="middle" font-family="Arial, sans-serif" font-size="11">0.62</text>
<line x1="494.40" y1="52" x2="494.40" y2="400" stroke="#ececec"/>
<text x="494.40" y="422" text-anchor="middle" font-family="Arial, sans-serif" font-size="11">2.7</text>
<line x1="633.20" y1="52" x2="633.20" y2="400" stroke="#ececec"/>
<text x="633.20" y="422" text-anchor="middle" font-family="Arial, sans-serif" font-size="11">4.7</text>
<line x1="772.00" y1="52" x2="772.00" y2="400" stroke="#ececec"/>
<text x="772.00" y="422" text-anchor="middle" font-family="Arial, sans-serif" font-size="11">6.8</text>
<line x1="78" y1="400.00" x2="772" y2="400.00" stroke="#ececec"/>
<text x="70" y="404.00" text-anchor="end" font-family="Arial, sans-serif" font-size="11">-4.7</text>
<line x1="78" y1="330.40" x2="772" y2="330.40" stroke="#ececec"/>
<text x="70" y="334.40" text-anchor="end" font-family="Arial, sans-serif" font-size="11">-3.1</text>
<line x1="78" y1="260.80" x2="772" y2="260.80" stroke="#ececec"/>
<text x="70" y="264.80" text-anchor="end" font-family="Arial, sans-serif" font-size="11">-1.6</text>
<line x1="78" y1="191.20" x2="772" y2="191.20" stroke="#ececec"/>
<text x="70" y="195.20" text-anchor="end" font-family="Arial, sans-serif" font-size="11">-0.0388</text>
<line x1="78" y1="121.60" x2="772" y2="121.60" stroke="#ececec"/>
<text x="70" y="125.60" text-anchor="end" font-family="Arial, sans-serif" font-size="11">1.5</text>
<line x1="78" y1="52.00" x2="772" y2="52.00" stroke="#ececec"/>
<text x="70" y="56.00" text-anchor="end" font-family="Arial, sans-serif" font-size="11">3.1</text>
<line x1="313.78" y1="52" x2="313.78" y2="400" stroke="#777" stroke-dasharray="4 4"/>
<line x1="78" y1="189.46" x2="772" y2="189.46" stroke="#777" stroke-dasharray="4 4"/>
<line x1="91.35" y1="52" x2="91.35" y2="400" stroke="#555" stroke-dasharray="2 4"/>
<text x="95.35" y="66" font-family="Arial, sans-serif" font-size="11" fill="#555">-Vcc</text>
<line x1="536.22" y1="52" x2="536.22" y2="400" stroke="#555" stroke-dasharray="2 4"/>
<text x="540.22" y="66" font-family="Arial, sans-serif" font-size="11" fill="#555">Vcc</text>
<line x1="758.65" y1="52" x2="758.65" y2="400" stroke="#555" stroke-dasharray="2 4"/>
<text x="762.65" y="66" font-family="Arial, sans-serif" font-size="11" fill="#555">2Vcc</text>
<polyline fill="none" stroke="#0f766e" stroke-width="2.8" opacity="0.95" stroke-dasharray="6 3" points="91.35,376.00 101.46,364.56 112.24,352.37 122.35,340.93 133.14,328.73 143.25,317.29 154.03,305.10 164.14,293.66 174.93,281.46 185.04,270.03 195.82,257.83 205.93,246.39 216.72,234.19 226.83,222.76 237.61,210.56 247.73,199.12 248.40,198.36 249.07,197.60 249.75,196.83 250.42,196.07 251.10,195.31 251.77,194.55 252.44,193.78 253.12,193.08 253.79,192.48 254.47,191.98 255.14,191.57 255.81,191.24 256.49,190.99 257.16,190.79 257.84,190.65 258.51,190.54 259.18,190.46 259.86,190.40 260.53,190.36 261.21,190.32 261.88,190.29 262.55,190.27 263.23,190.25 263.90,190.24 264.58,190.22 265.25,190.21 265.92,190.20 266.60,190.19 267.27,190.18 267.95,190.17 268.62,190.16 279.41,189.99 289.52,189.83 300.30,189.67 310.41,189.51 313.78,189.46 321.20,189.35 331.31,189.19 342.09,189.03 352.20,188.88 362.99,188.71 373.10,188.56 383.88,188.40 393.99,188.25 404.78,188.09 411.52,187.99 414.89,187.94 416.24,187.92 418.26,187.89 420.28,187.86 425.67,187.78 433.76,187.67 435.78,187.64 445.90,187.49 456.68,187.34 466.79,187.20 477.58,187.05 487.69,186.91 498.47,186.77 508.58,186.64 516.00,186.54 519.37,186.50 529.48,186.37 536.22,186.29 540.26,186.24 550.37,186.13 556.44,186.06 561.16,186.01 571.27,185.90 582.05,185.80 592.16,185.71 602.95,185.62 605.64,185.60 606.99,185.59 608.34,185.58 609.69,185.57 611.04,185.56 613.06,185.55 614.41,185.54 619.80,185.50 622.50,185.49 623.84,185.48 629.91,185.45 631.26,185.44 632.61,185.43 633.95,185.43 638.00,185.41 639.35,185.40 640.70,185.40 643.39,185.39 644.07,185.38 644.74,185.38 645.41,185.38 646.76,185.37 653.50,185.35 654.85,185.35 656.20,185.34 656.87,185.34 657.55,185.34 659.57,185.33 660.92,185.33 661.59,185.32 663.61,185.32 665.64,185.32 670.35,185.32 675.75,185.32 682.49,185.32 686.53,185.32 696.64,185.32 707.43,185.32 717.54,185.32 728.32,185.32 738.43,185.32 749.22,185.32 758.65,185.32"/>
<polyline fill="none" stroke="#7c2d12" stroke-width="2.8" opacity="0.95" stroke-dasharray="6 3" points="91.35,76.00 94.72,79.81 98.09,83.62 101.46,87.44 102.13,88.20 105.50,92.01 108.87,95.82 112.24,99.63 115.61,103.45 118.98,107.26 122.35,111.07 123.03,111.83 125.05,114.12 125.72,114.88 126.40,115.65 129.77,119.46 133.14,123.27 136.51,127.08 139.88,130.89 143.25,134.71 143.92,135.47 147.29,139.28 150.66,143.09 154.03,146.90 157.40,150.72 160.77,154.53 164.14,158.34 164.82,159.10 168.19,162.91 171.56,166.73 174.93,170.54 178.30,174.35 181.67,178.16 184.36,181.21 185.04,181.97 185.71,182.74 186.39,183.50 187.06,184.18 187.74,184.75 188.41,185.21 189.08,185.60 189.76,185.92 190.43,186.18 191.11,186.40 191.78,186.59 192.45,186.74 193.13,186.87 193.80,186.98 194.48,187.07 195.15,187.15 195.82,187.21 196.50,187.27 197.17,187.32 197.85,187.36 198.52,187.40 199.19,187.43 199.87,187.46 200.54,187.49 201.22,187.51 201.89,187.53 202.56,187.55 203.24,187.57 203.91,187.59 204.59,187.60 205.26,187.62 205.93,187.64 206.61,187.65 207.28,187.67 207.96,187.68 208.63,187.69 209.30,187.71 209.98,187.72 210.65,187.73 213.35,187.79 216.72,187.85 220.09,187.91 224.13,187.98 226.83,188.03 227.50,188.04 230.87,188.11 234.24,188.17 237.61,188.23 240.98,188.29 245.03,188.36 247.73,188.41 248.40,188.42 251.77,188.48 255.14,188.54 258.51,188.59 261.88,188.65 265.92,188.71 268.62,188.75 269.29,188.76 272.67,188.82 276.04,188.87 279.41,188.92 282.78,188.98 286.82,189.04 289.52,189.08 290.19,189.09 293.56,189.14 296.93,189.20 300.30,189.25 303.67,189.30 307.72,189.37 310.41,189.41 311.09,189.42 313.78,189.46 321.20,189.58 331.31,189.74 342.09,189.91 352.20,190.06 362.99,190.23 373.10,190.39 383.88,190.56 393.99,190.71 404.78,190.88 413.54,191.01 414.89,191.03 416.24,191.05 418.26,191.08 425.67,191.19 435.78,191.34 445.90,191.50 456.68,191.66 466.79,191.80 477.58,191.96 487.69,192.11 498.47,192.26 508.58,192.40 516.00,192.51 519.37,192.56 529.48,192.70 536.22,192.79 540.26,192.84 550.37,192.98 556.44,193.06 561.16,193.12 566.55,193.19 567.22,193.19 567.90,193.20 569.92,193.22 570.59,193.23 571.94,193.24 572.62,193.25 573.96,193.26 574.64,193.27 575.31,193.27 575.99,193.28 576.66,193.28 578.68,193.29 580.71,193.31 582.05,193.32 584.08,193.33 586.10,193.34 588.79,193.35 592.16,193.36 595.53,193.37 596.88,193.37 597.56,193.38 598.23,193.38 603.62,193.38 605.64,193.38 606.99,193.38 611.04,193.38 613.73,193.38 615.08,193.38 621.82,193.38 623.84,193.38 633.95,193.38 644.74,193.38 654.85,193.38 665.64,193.38 675.75,193.38 686.53,193.38 696.64,193.38 707.43,193.38 717.54,193.38 728.32,193.38 738.43,193.38 749.22,193.38 758.65,193.38"/>
<line x1="88" y1="70" x2="110" y2="70" stroke="#0f766e" stroke-width="2.8" stroke-dasharray="6 3"/>
<text x="116" y="74" font-family="Arial, sans-serif" font-size="12">[Pulldown]+[GND Clamp]</text>
<line x1="88" y1="88" x2="110" y2="88" stroke="#7c2d12" stroke-width="2.8" stroke-dasharray="6 3"/>
<text x="116" y="92" font-family="Arial, sans-serif" font-size="12">[Pullup]+[POWER Clamp]</text>
<text x="425.00" y="444.00" text-anchor="middle" font-family="Arial, sans-serif" font-size="12">Table voltage (V)</text>
<text transform="translate(18 226.00) rotate(-90)" text-anchor="middle" font-family="Arial, sans-serif" font-size="12">Current (A)</text>
<text x="420" y="42" font-family="Arial, sans-serif" font-size="11" fill="#555">thick dashed=combined typ curves</text>
</svg>