<svg xmlns="http://www.w3.org/2000/svg" width="800" height="560" viewBox="0 0 800 560">
<rect width="100%" height="100%" fill="#ffffff"/>
<text x="78" y="25" font-family="Arial, sans-serif" font-size="16" font-weight="700">E34_GPIO_I2CSCLIN_3V3_10_ISOSW I-V Combined Curves</text>
<rect x="78" y="52" width="694" height="348" fill="#fbfbfb" stroke="#c8c8c8"/>
<line x1="78.00" y1="52" x2="78.00" y2="400" stroke="#ececec"/>
<text x="78.00" y="422" text-anchor="middle" font-family="Arial, sans-serif" font-size="11">-3.5</text>
<line x1="216.80" y1="52" x2="216.80" y2="400" stroke="#ececec"/>
<text x="216.80" y="422" text-anchor="middle" font-family="Arial, sans-serif" font-size="11">-1.4</text>
<line x1="355.60" y1="52" x2="355.60" y2="400" stroke="#ececec"/>
<text x="355.60" y="422" text-anchor="middle" font-family="Arial, sans-serif" font-size="11">0.62</text>
<line x1="494.40" y1="52" x2="494.40" y2="400" stroke="#ececec"/>
<text x="494.40" y="422" text-anchor="middle" font-family="Arial, sans-serif" font-size="11">2.7</text>
<line x1="633.20" y1="52" x2="633.20" y2="400" stroke="#ececec"/>
<text x="633.20" y="422" text-anchor="middle" font-family="Arial, sans-serif" font-size="11">4.7</text>
<line x1="772.00" y1="52" x2="772.00" y2="400" stroke="#ececec"/>
<text x="772.00" y="422" text-anchor="middle" font-family="Arial, sans-serif" font-size="11">6.8</text>
<line x1="78" y1="400.00" x2="772" y2="400.00" stroke="#ececec"/>
<text x="70" y="404.00" text-anchor="end" font-family="Arial, sans-serif" font-size="11">-4.7</text>
<line x1="78" y1="330.40" x2="772" y2="330.40" stroke="#ececec"/>
<text x="70" y="334.40" text-anchor="end" font-family="Arial, sans-serif" font-size="11">-3.1</text>
<line x1="78" y1="260.80" x2="772" y2="260.80" stroke="#ececec"/>
<text x="70" y="264.80" text-anchor="end" font-family="Arial, sans-serif" font-size="11">-1.6</text>
<line x1="78" y1="191.20" x2="772" y2="191.20" stroke="#ececec"/>
<text x="70" y="195.20" text-anchor="end" font-family="Arial, sans-serif" font-size="11">-0.0401</text>
<line x1="78" y1="121.60" x2="772" y2="121.60" stroke="#ececec"/>
<text x="70" y="125.60" text-anchor="end" font-family="Arial, sans-serif" font-size="11">1.5</text>
<line x1="78" y1="52.00" x2="772" y2="52.00" stroke="#ececec"/>
<text x="70" y="56.00" text-anchor="end" font-family="Arial, sans-serif" font-size="11">3.1</text>
<line x1="313.78" y1="52" x2="313.78" y2="400" stroke="#777" stroke-dasharray="4 4"/>
<line x1="78" y1="189.40" x2="772" y2="189.40" stroke="#777" stroke-dasharray="4 4"/>
<line x1="91.35" y1="52" x2="91.35" y2="400" stroke="#555" stroke-dasharray="2 4"/>
<text x="95.35" y="66" font-family="Arial, sans-serif" font-size="11" fill="#555">-Vcc</text>
<line x1="536.22" y1="52" x2="536.22" y2="400" stroke="#555" stroke-dasharray="2 4"/>
<text x="540.22" y="66" font-family="Arial, sans-serif" font-size="11" fill="#555">Vcc</text>
<line x1="758.65" y1="52" x2="758.65" y2="400" stroke="#555" stroke-dasharray="2 4"/>
<text x="762.65" y="66" font-family="Arial, sans-serif" font-size="11" fill="#555">2Vcc</text>
<polyline fill="none" stroke="#0f766e" stroke-width="2.8" opacity="0.95" stroke-dasharray="6 3" points="91.35,376.00 101.46,364.56 112.24,352.35 122.35,340.90 133.14,328.70 143.25,317.25 154.03,305.04 164.14,293.60 174.93,281.39 185.04,269.95 195.82,257.74 205.93,246.30 216.72,234.09 226.83,222.64 237.61,210.44 247.73,198.99 248.40,198.23 249.07,197.47 249.75,196.70 250.42,195.94 251.10,195.18 251.77,194.42 252.44,193.65 253.12,192.95 253.79,192.35 254.47,191.85 255.14,191.44 255.81,191.11 256.49,190.86 257.16,190.67 257.84,190.52 258.51,190.41 259.18,190.33 259.86,190.28 260.53,190.23 261.21,190.20 261.88,190.17 262.55,190.15 263.23,190.13 263.90,190.12 264.58,190.10 265.25,190.09 265.92,190.08 266.60,190.07 267.27,190.06 268.62,190.04 274.69,189.96 276.04,189.94 276.71,189.93 277.38,189.92 278.06,189.91 278.73,189.90 279.41,189.89 280.08,189.88 280.75,189.87 281.43,189.86 282.10,189.85 284.12,189.82 289.52,189.74 300.30,189.59 310.41,189.45 313.78,189.40 321.20,189.29 331.31,189.15 342.09,189.00 352.20,188.86 362.99,188.71 373.10,188.57 383.88,188.42 393.99,188.29 404.78,188.14 406.13,188.13 414.89,188.01 421.63,187.92 423.65,187.90 425.67,187.87 426.35,187.86 428.37,187.83 435.78,187.74 445.90,187.61 451.96,187.54 456.68,187.48 466.79,187.36 477.58,187.23 487.69,187.12 498.47,187.00 508.58,186.90 516.00,186.83 519.37,186.79 529.48,186.70 536.22,186.65 540.26,186.62 550.37,186.54 556.44,186.51 561.16,186.48 571.27,186.43 582.05,186.39 592.16,186.36 602.95,186.33 613.06,186.30 623.84,186.28 633.95,186.26 642.04,186.25 642.72,186.25 644.74,186.25 645.41,186.24 654.85,186.23 660.24,186.22 660.92,186.22 661.59,186.22 662.26,186.22 662.94,186.22 663.61,186.21 665.64,186.21 673.05,186.21 674.40,186.21 675.07,186.21 675.75,186.21 676.42,186.21 680.46,186.21 681.81,186.21 682.49,186.21 686.53,186.21 696.64,186.21 707.43,186.21 717.54,186.21 728.32,186.21 738.43,186.21 749.22,186.21 758.65,186.21"/>
<polyline fill="none" stroke="#7c2d12" stroke-width="2.8" opacity="0.95" stroke-dasharray="6 3" points="91.35,76.00 94.72,79.81 98.09,83.63 101.46,87.44 102.13,88.21 105.50,92.02 108.87,95.84 112.24,99.65 115.61,103.47 118.98,107.28 122.35,111.10 123.03,111.86 125.05,114.15 125.72,114.91 126.40,115.67 129.77,119.49 133.14,123.30 136.51,127.12 139.88,130.93 143.25,134.75 143.92,135.51 147.29,139.33 150.66,143.14 154.03,146.96 157.40,150.77 160.77,154.59 164.14,158.40 164.82,159.16 168.19,162.98 171.56,166.79 174.93,170.61 178.30,174.42 181.67,178.24 184.36,181.29 185.04,182.05 185.71,182.81 186.39,183.58 187.06,184.26 187.74,184.82 188.41,185.29 189.08,185.67 189.76,185.99 190.43,186.26 191.11,186.48 191.78,186.66 192.45,186.81 193.13,186.94 193.80,187.05 194.48,187.14 195.15,187.22 195.82,187.28 196.50,187.34 197.17,187.39 197.85,187.43 198.52,187.46 199.19,187.50 199.87,187.53 200.54,187.55 201.22,187.57 201.89,187.60 202.56,187.61 203.24,187.63 203.91,187.65 204.59,187.67 205.26,187.68 205.93,187.70 206.61,187.71 207.28,187.72 207.96,187.74 208.63,187.75 209.30,187.76 209.98,187.78 210.65,187.79 213.35,187.84 216.72,187.90 220.09,187.95 224.13,188.02 226.83,188.07 227.50,188.08 230.87,188.14 234.24,188.19 237.61,188.25 240.98,188.31 245.03,188.38 247.73,188.42 248.40,188.43 251.77,188.49 255.14,188.54 258.51,188.59 261.88,188.64 265.92,188.70 268.62,188.74 269.29,188.75 272.67,188.80 276.04,188.85 279.41,188.90 282.78,188.95 286.82,189.01 289.52,189.05 290.19,189.06 293.56,189.10 296.93,189.15 300.30,189.20 303.67,189.25 307.72,189.31 310.41,189.35 311.09,189.36 313.78,189.40 321.20,189.51 331.31,189.65 342.09,189.81 352.20,189.96 362.99,190.11 373.10,190.26 383.88,190.41 393.99,190.55 404.78,190.70 414.89,190.84 418.26,190.89 421.63,190.93 423.65,190.96 425.67,190.99 435.78,191.12 445.90,191.26 456.68,191.40 466.79,191.53 477.58,191.67 487.69,191.80 498.47,191.93 508.58,192.06 516.00,192.15 519.37,192.19 529.48,192.31 536.22,192.38 540.26,192.43 550.37,192.54 556.44,192.61 561.16,192.66 571.27,192.74 582.05,192.79 586.10,192.80 587.45,192.80 589.47,192.80 590.14,192.80 590.82,192.80 592.16,192.80 592.84,192.80 594.19,192.80 595.53,192.80 596.21,192.80 598.23,192.80 598.90,192.80 601.60,192.80 602.27,192.80 604.30,192.80 604.97,192.80 606.32,192.80 606.99,192.80 609.02,192.80 609.69,192.80 610.36,192.80 612.39,192.80 615.08,192.80 615.76,192.80 623.84,192.80 633.95,192.80 644.74,192.80 654.85,192.80 665.64,192.80 675.75,192.80 686.53,192.80 696.64,192.80 707.43,192.80 717.54,192.80 728.32,192.80 738.43,192.80 749.22,192.80 758.65,192.80"/>
<line x1="88" y1="70" x2="110" y2="70" stroke="#0f766e" stroke-width="2.8" stroke-dasharray="6 3"/>
<text x="116" y="74" font-family="Arial, sans-serif" font-size="12">[Pulldown]+[GND Clamp]</text>
<line x1="88" y1="88" x2="110" y2="88" stroke="#7c2d12" stroke-width="2.8" stroke-dasharray="6 3"/>
<text x="116" y="92" font-family="Arial, sans-serif" font-size="12">[Pullup]+[POWER Clamp]</text>
<text x="425.00" y="444.00" text-anchor="middle" font-family="Arial, sans-serif" font-size="12">Table voltage (V)</text>
<text transform="translate(18 226.00) rotate(-90)" text-anchor="middle" font-family="Arial, sans-serif" font-size="12">Current (A)</text>
<text x="420" y="42" font-family="Arial, sans-serif" font-size="11" fill="#555">thick dashed=combined typ curves</text>
</svg>