<svg xmlns="http://www.w3.org/2000/svg" width="800" height="560" viewBox="0 0 800 560">
<rect width="100%" height="100%" fill="#ffffff"/>
<text x="78" y="25" font-family="Arial, sans-serif" font-size="16" font-weight="700">E34_GPIO_I2CSCLIN_1V1_11 I-V Combined Curves</text>
<rect x="78" y="52" width="694" height="348" fill="#fbfbfb" stroke="#c8c8c8"/>
<line x1="78.00" y1="52" x2="78.00" y2="400" stroke="#ececec"/>
<text x="78.00" y="422" text-anchor="middle" font-family="Arial, sans-serif" font-size="11">-1.2</text>
<line x1="216.80" y1="52" x2="216.80" y2="400" stroke="#ececec"/>
<text x="216.80" y="422" text-anchor="middle" font-family="Arial, sans-serif" font-size="11">-0.48</text>
<line x1="355.60" y1="52" x2="355.60" y2="400" stroke="#ececec"/>
<text x="355.60" y="422" text-anchor="middle" font-family="Arial, sans-serif" font-size="11">0.207</text>
<line x1="494.40" y1="52" x2="494.40" y2="400" stroke="#ececec"/>
<text x="494.40" y="422" text-anchor="middle" font-family="Arial, sans-serif" font-size="11">0.893</text>
<line x1="633.20" y1="52" x2="633.20" y2="400" stroke="#ececec"/>
<text x="633.20" y="422" text-anchor="middle" font-family="Arial, sans-serif" font-size="11">1.6</text>
<line x1="772.00" y1="52" x2="772.00" y2="400" stroke="#ececec"/>
<text x="772.00" y="422" text-anchor="middle" font-family="Arial, sans-serif" font-size="11">2.3</text>
<line x1="78" y1="400.00" x2="772" y2="400.00" stroke="#ececec"/>
<text x="70" y="404.00" text-anchor="end" font-family="Arial, sans-serif" font-size="11">-0.443</text>
<line x1="78" y1="330.40" x2="772" y2="330.40" stroke="#ececec"/>
<text x="70" y="334.40" text-anchor="end" font-family="Arial, sans-serif" font-size="11">-0.345</text>
<line x1="78" y1="260.80" x2="772" y2="260.80" stroke="#ececec"/>
<text x="70" y="264.80" text-anchor="end" font-family="Arial, sans-serif" font-size="11">-0.247</text>
<line x1="78" y1="191.20" x2="772" y2="191.20" stroke="#ececec"/>
<text x="70" y="195.20" text-anchor="end" font-family="Arial, sans-serif" font-size="11">-0.148</text>
<line x1="78" y1="121.60" x2="772" y2="121.60" stroke="#ececec"/>
<text x="70" y="125.60" text-anchor="end" font-family="Arial, sans-serif" font-size="11">-0.0497</text>
<line x1="78" y1="52.00" x2="772" y2="52.00" stroke="#ececec"/>
<text x="70" y="56.00" text-anchor="end" font-family="Arial, sans-serif" font-size="11">0.0488</text>
<line x1="313.78" y1="52" x2="313.78" y2="400" stroke="#777" stroke-dasharray="4 4"/>
<line x1="78" y1="86.50" x2="772" y2="86.50" stroke="#777" stroke-dasharray="4 4"/>
<line x1="91.35" y1="52" x2="91.35" y2="400" stroke="#555" stroke-dasharray="2 4"/>
<text x="95.35" y="66" font-family="Arial, sans-serif" font-size="11" fill="#555">-Vcc</text>
<line x1="536.22" y1="52" x2="536.22" y2="400" stroke="#555" stroke-dasharray="2 4"/>
<text x="540.22" y="66" font-family="Arial, sans-serif" font-size="11" fill="#555">Vcc</text>
<line x1="758.65" y1="52" x2="758.65" y2="400" stroke="#555" stroke-dasharray="2 4"/>
<text x="762.65" y="66" font-family="Arial, sans-serif" font-size="11" fill="#555">2Vcc</text>
<polyline fill="none" stroke="#0f766e" stroke-width="2.8" opacity="0.95" stroke-dasharray="6 3" points="91.35,376.00 101.46,315.91 111.57,255.82 117.63,219.77 119.66,207.75 121.68,195.73 123.70,183.71 125.72,171.69 127.74,159.68 129.77,147.66 131.79,137.07 133.81,128.06 135.83,120.55 137.86,114.43 139.88,109.57 141.90,105.80 143.92,102.94 145.94,100.82 147.97,99.25 149.99,98.11 152.01,97.27 154.03,96.65 156.05,96.19 158.08,95.83 160.10,95.55 162.12,95.32 164.14,95.12 166.17,94.95 168.19,94.80 170.21,94.65 172.23,94.52 174.25,94.39 176.28,94.26 178.30,94.13 180.32,94.01 182.34,93.89 184.36,93.77 186.39,93.65 188.41,93.53 190.43,93.41 194.48,93.17 196.50,93.05 198.52,92.93 200.54,92.82 202.56,92.70 204.59,92.58 206.61,92.45 208.63,92.34 210.65,92.22 212.67,92.10 214.70,91.98 216.72,91.86 218.74,91.75 220.76,91.63 222.79,91.52 226.83,91.27 236.94,90.69 249.07,90.00 259.18,89.43 269.29,88.87 279.41,88.31 289.52,87.76 299.63,87.23 311.76,86.60 313.78,86.50 321.87,86.09 331.98,85.59 342.09,85.12 348.16,84.84 352.20,84.66 362.31,84.22 374.45,83.74 376.47,83.66 384.56,83.36 394.67,83.02 404.78,82.73 414.89,82.48 418.93,82.40 427.02,82.24 431.07,82.18 437.13,82.11 443.20,82.05 447.24,82.01 453.31,81.97 457.35,81.95 459.38,81.94 463.42,81.91 467.47,81.89 469.49,81.88 471.51,81.88 477.58,81.85 479.60,81.84 489.71,81.80 499.82,81.76 509.93,81.73 513.97,81.71 520.04,81.69 530.15,81.66 536.22,81.64 540.26,81.63 552.40,81.60 558.46,81.58 562.51,81.57 572.62,81.54 582.73,81.52 592.84,81.49 602.95,81.47 615.08,81.44 625.19,81.42 635.30,81.39 645.41,81.36 655.52,81.33 665.64,81.29 677.77,81.24 687.88,81.19 697.99,81.12 708.10,81.04 718.21,80.93 728.32,80.81 740.45,80.63 750.57,80.46 758.65,80.31"/>
<polyline fill="none" stroke="#7c2d12" stroke-width="2.8" opacity="0.95" stroke-dasharray="6 3" points="91.35,76.00 93.37,76.06 95.39,76.13 97.41,76.19 99.43,76.26 101.46,76.33 105.50,76.48 107.52,76.56 109.55,76.64 111.57,76.72 113.59,76.80 115.61,76.88 117.63,76.96 119.66,77.05 121.68,77.13 123.70,77.22 125.72,77.31 127.74,77.40 129.77,77.48 131.79,77.57 133.81,77.67 135.83,77.76 137.86,77.85 139.88,77.94 141.90,78.04 143.92,78.13 147.97,78.32 149.99,78.42 152.01,78.51 154.03,78.61 158.08,78.80 160.10,78.90 162.12,79.00 164.14,79.10 168.19,79.30 170.21,79.40 172.23,79.50 174.25,79.60 176.28,79.70 178.30,79.80 180.32,79.90 182.34,80.00 186.39,80.21 188.41,80.31 190.43,80.41 192.45,80.51 194.48,80.61 196.50,80.72 198.52,80.82 200.54,80.92 204.59,81.13 206.61,81.23 208.63,81.33 210.65,81.43 212.67,81.54 214.70,81.64 216.72,81.74 218.74,81.84 220.76,81.95 222.79,82.05 224.81,82.15 226.83,82.25 228.85,82.35 230.87,82.45 232.90,82.56 234.92,82.66 236.94,82.76 238.96,82.86 240.98,82.96 243.01,83.06 245.03,83.16 247.05,83.26 249.07,83.36 251.10,83.46 253.12,83.56 255.14,83.66 257.16,83.76 259.18,83.86 261.21,83.96 263.23,84.05 267.27,84.25 269.29,84.35 273.34,84.55 275.36,84.65 277.38,84.75 279.41,84.84 281.43,84.94 283.45,85.04 285.47,85.14 287.49,85.23 289.52,85.33 291.54,85.43 293.56,85.53 295.58,85.62 297.60,85.72 299.63,85.82 301.65,85.91 303.67,86.01 305.69,86.11 307.72,86.20 309.74,86.30 311.76,86.40 313.78,86.50 321.87,86.88 331.98,87.33 334.00,87.42 342.09,87.77 352.20,88.19 362.31,88.59 374.45,89.04 384.56,89.38 394.67,89.70 404.78,89.98 414.89,90.22 427.02,90.46 437.13,90.61 439.16,90.63 441.18,90.65 443.20,90.68 445.22,90.70 447.24,90.72 451.29,90.75 453.31,90.77 455.33,90.79 459.38,90.82 461.40,90.83 465.44,90.86 469.49,90.89 473.53,90.91 477.58,90.93 479.60,90.95 483.64,90.97 489.71,91.00 499.82,91.05 509.93,91.09 513.97,91.11 520.04,91.13 530.15,91.17 536.22,91.19 540.26,91.21 552.40,91.25 558.46,91.27 562.51,91.28 572.62,91.31 582.73,91.34 592.84,91.36 602.95,91.39 615.08,91.40 625.19,91.40 635.30,91.40 639.35,91.40 643.39,91.40 645.41,91.40 655.52,91.40 665.64,91.40 677.77,91.40 687.88,91.40 697.99,91.40 708.10,91.40 718.21,91.40 728.32,91.40 740.45,91.40 750.57,91.40 758.65,91.40"/>
<line x1="88" y1="70" x2="110" y2="70" stroke="#0f766e" stroke-width="2.8" stroke-dasharray="6 3"/>
<text x="116" y="74" font-family="Arial, sans-serif" font-size="12">[Pulldown]+[GND Clamp]</text>
<line x1="88" y1="88" x2="110" y2="88" stroke="#7c2d12" stroke-width="2.8" stroke-dasharray="6 3"/>
<text x="116" y="92" font-family="Arial, sans-serif" font-size="12">[Pullup]+[POWER Clamp]</text>
<rect x="78" y="464" width="694" height="44" fill="#fffdf7" stroke="#d8c6a1" rx="4"/>
<text x="88" y="481" font-family="Arial, sans-serif" font-size="11" font-weight="700" fill="#4b3b21">Findings needing attention</text>
<rect x="88" y="488" width="7" height="7" fill="#b54708"/>
<text x="102" y="495" font-family="Arial, sans-serif" font-size="11" fill="#333">WARN 5.3.6: I-V stair-step evidence needs review | [GND Clamp]: roughness=0.213 &gt; 0.1</text>
<text x="425.00" y="444.00" text-anchor="middle" font-family="Arial, sans-serif" font-size="12">Table voltage (V)</text>
<text transform="translate(18 226.00) rotate(-90)" text-anchor="middle" font-family="Arial, sans-serif" font-size="12">Current (A)</text>
<text x="420" y="42" font-family="Arial, sans-serif" font-size="11" fill="#555">thick dashed=combined typ curves</text>
</svg>