<svg xmlns="http://www.w3.org/2000/svg" width="800" height="560" viewBox="0 0 800 560">
<rect width="100%" height="100%" fill="#ffffff"/>
<text x="78" y="25" font-family="Arial, sans-serif" font-size="16" font-weight="700">E34_GPIO_SPI_I3C_MST_1V2_10 I-V Combined Curves</text>
<rect x="78" y="52" width="694" height="348" fill="#fbfbfb" stroke="#c8c8c8"/>
<line x1="78.00" y1="52" x2="78.00" y2="400" stroke="#ececec"/>
<text x="78.00" y="422" text-anchor="middle" font-family="Arial, sans-serif" font-size="11">-1.3</text>
<line x1="216.80" y1="52" x2="216.80" y2="400" stroke="#ececec"/>
<text x="216.80" y="422" text-anchor="middle" font-family="Arial, sans-serif" font-size="11">-0.523</text>
<line x1="355.60" y1="52" x2="355.60" y2="400" stroke="#ececec"/>
<text x="355.60" y="422" text-anchor="middle" font-family="Arial, sans-serif" font-size="11">0.226</text>
<line x1="494.40" y1="52" x2="494.40" y2="400" stroke="#ececec"/>
<text x="494.40" y="422" text-anchor="middle" font-family="Arial, sans-serif" font-size="11">0.974</text>
<line x1="633.20" y1="52" x2="633.20" y2="400" stroke="#ececec"/>
<text x="633.20" y="422" text-anchor="middle" font-family="Arial, sans-serif" font-size="11">1.7</text>
<line x1="772.00" y1="52" x2="772.00" y2="400" stroke="#ececec"/>
<text x="772.00" y="422" text-anchor="middle" font-family="Arial, sans-serif" font-size="11">2.5</text>
<line x1="78" y1="400.00" x2="772" y2="400.00" stroke="#ececec"/>
<text x="70" y="404.00" text-anchor="end" font-family="Arial, sans-serif" font-size="11">-0.712</text>
<line x1="78" y1="330.40" x2="772" y2="330.40" stroke="#ececec"/>
<text x="70" y="334.40" text-anchor="end" font-family="Arial, sans-serif" font-size="11">-0.543</text>
<line x1="78" y1="260.80" x2="772" y2="260.80" stroke="#ececec"/>
<text x="70" y="264.80" text-anchor="end" font-family="Arial, sans-serif" font-size="11">-0.375</text>
<line x1="78" y1="191.20" x2="772" y2="191.20" stroke="#ececec"/>
<text x="70" y="195.20" text-anchor="end" font-family="Arial, sans-serif" font-size="11">-0.206</text>
<line x1="78" y1="121.60" x2="772" y2="121.60" stroke="#ececec"/>
<text x="70" y="125.60" text-anchor="end" font-family="Arial, sans-serif" font-size="11">-0.0374</text>
<line x1="78" y1="52.00" x2="772" y2="52.00" stroke="#ececec"/>
<text x="70" y="56.00" text-anchor="end" font-family="Arial, sans-serif" font-size="11">0.131</text>
<line x1="313.78" y1="52" x2="313.78" y2="400" stroke="#777" stroke-dasharray="4 4"/>
<line x1="78" y1="106.15" x2="772" y2="106.15" stroke="#777" stroke-dasharray="4 4"/>
<line x1="91.35" y1="52" x2="91.35" y2="400" stroke="#555" stroke-dasharray="2 4"/>
<text x="95.35" y="66" font-family="Arial, sans-serif" font-size="11" fill="#555">-Vcc</text>
<line x1="536.22" y1="52" x2="536.22" y2="400" stroke="#555" stroke-dasharray="2 4"/>
<text x="540.22" y="66" font-family="Arial, sans-serif" font-size="11" fill="#555">Vcc</text>
<line x1="758.65" y1="52" x2="758.65" y2="400" stroke="#555" stroke-dasharray="2 4"/>
<text x="762.65" y="66" font-family="Arial, sans-serif" font-size="11" fill="#555">2Vcc</text>
<polyline fill="none" stroke="#0f766e" stroke-width="2.8" opacity="0.95" stroke-dasharray="6 3" points="91.35,376.00 102.47,333.89 111.74,298.79 122.86,256.68 133.98,214.56 137.69,200.53 139.54,193.51 141.39,186.49 143.25,179.47 145.10,172.45 146.96,165.43 148.81,158.41 150.66,152.50 152.52,147.77 154.37,144.04 156.22,141.15 158.08,138.94 159.93,137.26 161.78,135.95 163.64,134.92 165.49,134.09 167.35,133.41 169.20,132.82 171.05,132.30 172.91,131.83 174.76,131.40 176.61,130.99 178.47,130.59 180.32,130.20 182.17,129.82 184.03,129.45 185.88,129.08 187.74,128.70 189.59,128.34 191.44,127.97 193.30,127.62 195.15,127.27 197.00,126.91 198.86,126.56 200.71,126.20 202.56,125.86 204.42,125.51 206.27,125.15 208.12,124.81 209.98,124.48 211.83,124.13 213.69,123.78 215.54,123.42 217.39,123.06 219.25,122.73 221.10,122.39 222.95,122.05 226.66,121.35 237.78,119.32 248.90,117.30 258.17,115.62 269.29,113.62 280.42,111.65 289.68,110.04 300.81,108.18 310.07,106.71 313.78,106.15 321.20,105.07 332.32,103.58 341.59,102.47 352.71,101.32 358.27,100.82 360.12,100.66 363.83,100.37 365.68,100.23 367.54,100.10 373.10,99.73 382.37,99.23 384.22,99.14 395.34,98.73 404.61,98.50 415.73,98.31 421.29,98.24 426.85,98.18 436.12,98.10 437.98,98.08 447.24,98.01 456.51,97.94 467.63,97.87 478.76,97.80 488.02,97.75 491.73,97.73 499.15,97.69 510.27,97.64 513.97,97.62 519.54,97.59 530.66,97.54 536.22,97.52 541.78,97.49 551.05,97.45 558.46,97.42 562.17,97.40 571.44,97.37 582.56,97.32 593.68,97.28 602.95,97.24 614.07,97.18 625.19,97.10 634.46,96.99 645.58,96.79 656.70,96.51 665.97,96.18 677.09,95.69 688.22,95.08 697.48,94.49 708.61,93.68 717.87,92.93 729.00,91.94 740.12,90.87 749.39,89.93 758.65,88.92"/>
<polyline fill="none" stroke="#7c2d12" stroke-width="2.8" opacity="0.95" stroke-dasharray="6 3" points="91.35,76.00 95.05,76.60 98.76,77.20 102.47,77.79 106.18,78.38 108.03,78.68 111.74,79.27 115.44,79.85 117.30,80.14 119.15,80.44 121.00,80.73 122.86,81.02 126.57,81.60 128.42,81.88 130.27,82.17 132.13,82.46 133.98,82.75 135.83,83.03 137.69,83.31 139.54,83.60 141.39,83.88 143.25,84.16 145.10,84.44 146.96,84.72 148.81,85.00 150.66,85.28 152.52,85.56 154.37,85.84 156.22,86.12 158.08,86.39 159.93,86.67 161.78,86.94 163.64,87.22 165.49,87.49 167.35,87.76 169.20,88.03 171.05,88.30 174.76,88.84 176.61,89.10 178.47,89.37 180.32,89.63 182.17,89.90 184.03,90.16 185.88,90.43 189.59,90.95 191.44,91.21 193.30,91.47 195.15,91.73 197.00,91.98 198.86,92.24 200.71,92.49 202.56,92.75 204.42,93.00 206.27,93.25 208.12,93.50 209.98,93.75 211.83,94.00 213.69,94.25 215.54,94.50 217.39,94.75 221.10,95.24 222.95,95.48 224.81,95.72 226.66,95.97 228.51,96.21 232.22,96.68 234.08,96.92 235.93,97.16 237.78,97.40 239.64,97.63 241.49,97.87 243.34,98.10 245.20,98.33 248.90,98.80 250.76,99.02 252.61,99.25 254.47,99.48 256.32,99.70 258.17,99.93 260.03,100.15 261.88,100.37 263.73,100.60 265.59,100.82 267.44,101.04 269.29,101.26 273.00,101.69 276.71,102.12 280.42,102.55 284.12,102.97 287.83,103.38 289.68,103.59 291.54,103.79 295.25,104.20 298.95,104.60 300.81,104.79 302.66,104.99 304.51,105.18 306.37,105.38 308.22,105.57 310.07,105.77 311.93,105.96 313.78,106.15 321.20,106.87 330.46,107.70 332.32,107.86 341.59,108.60 352.71,109.39 363.83,110.06 373.10,110.53 380.51,110.86 384.22,111.00 395.34,111.35 404.61,111.57 412.02,111.70 415.73,111.76 426.85,111.91 436.12,112.01 443.54,112.07 447.24,112.11 456.51,112.11 463.93,112.11 467.63,112.11 478.76,112.11 488.02,112.11 499.15,112.11 510.27,112.11 513.97,112.11 519.54,112.11 530.66,112.11 536.22,112.11 541.78,112.11 551.05,112.11 558.46,112.11 562.17,112.11 571.44,112.11 573.29,112.30 582.56,113.95 593.68,115.95 599.24,116.94 601.10,117.27 614.07,119.52 625.19,121.32 634.46,122.68 645.58,124.11 647.44,124.33 649.29,124.54 651.14,124.74 653.00,124.94 654.85,125.13 656.70,125.31 658.56,125.49 660.41,125.67 662.26,125.83 664.12,125.99 665.97,126.15 667.83,126.30 669.68,126.45 671.53,126.58 673.39,126.72 675.24,126.85 677.09,126.97 680.80,127.19 682.65,127.29 684.51,127.38 686.36,127.45 688.22,127.51 690.07,127.54 697.48,127.54 708.61,127.54 712.31,127.54 714.17,127.54 716.02,127.54 717.87,127.54 719.73,127.54 729.00,127.54 740.12,127.54 749.39,127.54 758.65,127.54"/>
<line x1="88" y1="70" x2="110" y2="70" stroke="#0f766e" stroke-width="2.8" stroke-dasharray="6 3"/>
<text x="116" y="74" font-family="Arial, sans-serif" font-size="12">[Pulldown]+[GND Clamp]</text>
<line x1="88" y1="88" x2="110" y2="88" stroke="#7c2d12" stroke-width="2.8" stroke-dasharray="6 3"/>
<text x="116" y="92" font-family="Arial, sans-serif" font-size="12">[Pullup]+[POWER Clamp]</text>
<rect x="78" y="464" width="694" height="44" fill="#fffdf7" stroke="#d8c6a1" rx="4"/>
<text x="88" y="481" font-family="Arial, sans-serif" font-size="11" font-weight="700" fill="#4b3b21">Findings needing attention</text>
<rect x="88" y="488" width="7" height="7" fill="#b54708"/>
<text x="102" y="495" font-family="Arial, sans-serif" font-size="11" fill="#333">WARN 5.3.6: I-V stair-step evidence needs review | [GND Clamp]: roughness=0.169 &gt; 0.1</text>
<text x="425.00" y="444.00" text-anchor="middle" font-family="Arial, sans-serif" font-size="12">Table voltage (V)</text>
<text transform="translate(18 226.00) rotate(-90)" text-anchor="middle" font-family="Arial, sans-serif" font-size="12">Current (A)</text>
<text x="420" y="42" font-family="Arial, sans-serif" font-size="11" fill="#555">thick dashed=combined typ curves</text>
</svg>