<svg xmlns="http://www.w3.org/2000/svg" width="800" height="560" viewBox="0 0 800 560">
<rect width="100%" height="100%" fill="#ffffff"/>
<text x="78" y="25" font-family="Arial, sans-serif" font-size="16" font-weight="700">E34_GPIO_I3C_I2C_SLV_1V8_01 I-V Combined Curves</text>
<rect x="78" y="52" width="694" height="348" fill="#fbfbfb" stroke="#c8c8c8"/>
<line x1="78.00" y1="52" x2="78.00" y2="400" stroke="#ececec"/>
<text x="78.00" y="422" text-anchor="middle" font-family="Arial, sans-serif" font-size="11">-1.9</text>
<line x1="216.80" y1="52" x2="216.80" y2="400" stroke="#ececec"/>
<text x="216.80" y="422" text-anchor="middle" font-family="Arial, sans-serif" font-size="11">-0.785</text>
<line x1="355.60" y1="52" x2="355.60" y2="400" stroke="#ececec"/>
<text x="355.60" y="422" text-anchor="middle" font-family="Arial, sans-serif" font-size="11">0.338</text>
<line x1="494.40" y1="52" x2="494.40" y2="400" stroke="#ececec"/>
<text x="494.40" y="422" text-anchor="middle" font-family="Arial, sans-serif" font-size="11">1.5</text>
<line x1="633.20" y1="52" x2="633.20" y2="400" stroke="#ececec"/>
<text x="633.20" y="422" text-anchor="middle" font-family="Arial, sans-serif" font-size="11">2.6</text>
<line x1="772.00" y1="52" x2="772.00" y2="400" stroke="#ececec"/>
<text x="772.00" y="422" text-anchor="middle" font-family="Arial, sans-serif" font-size="11">3.7</text>
<line x1="78" y1="400.00" x2="772" y2="400.00" stroke="#ececec"/>
<text x="70" y="404.00" text-anchor="end" font-family="Arial, sans-serif" font-size="11">-1.8</text>
<line x1="78" y1="330.40" x2="772" y2="330.40" stroke="#ececec"/>
<text x="70" y="334.40" text-anchor="end" font-family="Arial, sans-serif" font-size="11">-1.4</text>
<line x1="78" y1="260.80" x2="772" y2="260.80" stroke="#ececec"/>
<text x="70" y="264.80" text-anchor="end" font-family="Arial, sans-serif" font-size="11">-0.99</text>
<line x1="78" y1="191.20" x2="772" y2="191.20" stroke="#ececec"/>
<text x="70" y="195.20" text-anchor="end" font-family="Arial, sans-serif" font-size="11">-0.58</text>
<line x1="78" y1="121.60" x2="772" y2="121.60" stroke="#ececec"/>
<text x="70" y="125.60" text-anchor="end" font-family="Arial, sans-serif" font-size="11">-0.171</text>
<line x1="78" y1="52.00" x2="772" y2="52.00" stroke="#ececec"/>
<text x="70" y="56.00" text-anchor="end" font-family="Arial, sans-serif" font-size="11">0.238</text>
<line x1="313.78" y1="52" x2="313.78" y2="400" stroke="#777" stroke-dasharray="4 4"/>
<line x1="78" y1="92.53" x2="772" y2="92.53" stroke="#777" stroke-dasharray="4 4"/>
<line x1="91.35" y1="52" x2="91.35" y2="400" stroke="#555" stroke-dasharray="2 4"/>
<text x="95.35" y="66" font-family="Arial, sans-serif" font-size="11" fill="#555">-Vcc</text>
<line x1="536.22" y1="52" x2="536.22" y2="400" stroke="#555" stroke-dasharray="2 4"/>
<text x="540.22" y="66" font-family="Arial, sans-serif" font-size="11" fill="#555">Vcc</text>
<line x1="758.65" y1="52" x2="758.65" y2="400" stroke="#555" stroke-dasharray="2 4"/>
<text x="762.65" y="66" font-family="Arial, sans-serif" font-size="11" fill="#555">2Vcc</text>
<polyline fill="none" stroke="#0f766e" stroke-width="2.8" opacity="0.95" stroke-dasharray="6 3" points="91.35,376.00 101.23,352.88 112.35,326.86 122.24,303.74 133.36,277.73 143.25,254.61 154.37,228.59 164.26,205.47 175.38,179.46 185.26,156.34 196.39,130.32 197.62,127.43 198.86,124.54 200.09,121.65 201.33,118.76 202.56,115.87 203.80,112.98 205.04,110.53 206.27,108.56 207.51,107.01 208.74,105.81 209.98,104.89 211.21,104.18 212.45,103.63 213.69,103.20 214.92,102.85 216.16,102.57 217.39,102.33 218.63,102.12 219.86,101.92 221.10,101.75 222.34,101.58 223.57,101.42 224.81,101.27 226.04,101.12 227.28,100.97 228.51,100.82 229.75,100.67 230.99,100.53 232.22,100.39 233.46,100.26 234.69,100.12 235.93,99.99 237.17,99.85 238.40,99.72 239.64,99.60 240.87,99.47 242.11,99.35 243.34,99.22 244.58,99.09 245.82,98.96 247.05,98.82 248.29,98.69 249.52,98.57 250.76,98.46 251.99,98.34 253.23,98.22 254.47,98.10 255.70,97.98 258.17,97.72 269.29,96.69 279.18,95.77 290.30,94.72 300.19,93.79 311.31,92.75 313.78,92.53 321.20,91.87 331.08,91.04 342.20,90.19 352.09,89.53 363.21,88.90 373.10,88.44 379.28,88.21 384.22,88.04 394.11,87.77 405.23,87.56 407.70,87.52 415.11,87.42 426.24,87.32 436.12,87.26 446.01,87.21 453.42,87.18 457.13,87.16 467.02,87.12 478.14,87.09 488.02,87.06 491.73,87.05 499.15,87.03 509.03,87.01 513.97,86.99 520.15,86.98 530.04,86.96 536.22,86.95 539.93,86.94 551.05,86.92 558.46,86.90 560.93,86.90 572.05,86.87 581.94,86.86 593.06,86.83 602.95,86.78 614.07,86.68 623.96,86.54 635.08,86.31 644.96,86.05 654.85,85.74 665.97,85.34 675.86,84.93 686.98,84.44 696.87,83.96 707.99,83.37 717.87,82.82 729.00,82.14 738.88,81.49 750.00,80.70 758.65,80.05"/>
<polyline fill="none" stroke="#7c2d12" stroke-width="2.8" opacity="0.95" stroke-dasharray="6 3" points="91.35,76.00 92.58,76.11 93.82,76.22 95.05,76.33 96.29,76.43 97.52,76.54 98.76,76.65 101.23,76.86 104.94,77.18 106.18,77.29 108.65,77.49 109.88,77.60 112.35,77.80 113.59,77.91 114.83,78.01 116.06,78.11 117.30,78.21 118.53,78.31 119.77,78.41 122.24,78.62 125.95,78.91 129.65,79.21 133.36,79.50 134.60,79.60 137.07,79.79 140.78,80.08 142.01,80.17 143.25,80.27 146.96,80.55 150.66,80.83 151.90,80.93 153.13,81.02 154.37,81.12 155.61,81.21 156.84,81.30 158.08,81.39 160.55,81.58 161.78,81.67 163.02,81.76 164.26,81.86 165.49,81.95 167.96,82.13 169.20,82.23 171.67,82.41 175.38,82.69 177.85,82.87 179.08,82.96 182.79,83.24 184.03,83.33 185.26,83.42 186.50,83.51 187.74,83.60 188.97,83.69 192.68,83.96 196.39,84.24 200.09,84.51 203.80,84.78 206.27,84.96 209.98,85.23 211.21,85.32 212.45,85.41 213.69,85.50 214.92,85.59 216.16,85.68 217.39,85.77 218.63,85.86 219.86,85.95 221.10,86.04 222.34,86.13 223.57,86.22 224.81,86.31 226.04,86.40 227.28,86.49 230.99,86.75 234.69,87.02 237.17,87.20 238.40,87.29 242.11,87.55 243.34,87.64 244.58,87.73 248.29,87.99 251.99,88.26 255.70,88.52 258.17,88.69 259.41,88.78 263.12,89.04 264.35,89.13 265.59,89.22 269.29,89.48 271.77,89.65 273.00,89.74 274.24,89.82 276.71,90.00 277.95,90.08 279.18,90.17 280.42,90.25 281.65,90.34 282.89,90.43 284.12,90.51 285.36,90.60 286.60,90.68 290.30,90.94 294.01,91.19 297.72,91.45 301.42,91.70 302.66,91.78 303.90,91.87 305.13,91.95 306.37,92.03 307.60,92.12 308.84,92.20 310.07,92.28 311.31,92.36 313.78,92.53 321.20,93.01 323.67,93.16 324.90,93.24 326.14,93.31 327.38,93.39 328.61,93.46 331.08,93.60 342.20,94.22 343.44,94.29 347.15,94.48 350.85,94.66 353.33,94.78 358.27,95.01 361.98,95.17 364.45,95.28 368.16,95.43 371.86,95.57 374.33,95.67 379.28,95.84 380.51,95.88 384.22,96.00 394.11,96.29 396.58,96.36 405.23,96.56 415.11,96.76 420.06,96.84 426.24,96.93 436.12,97.05 446.01,97.15 457.13,97.24 467.02,97.31 478.14,97.37 488.02,97.42 499.15,97.47 509.03,97.51 513.97,97.53 520.15,97.55 530.04,97.58 536.22,97.60 539.93,97.61 551.05,97.64 558.46,97.66 560.93,97.67 572.05,97.70 581.94,97.72 593.06,97.75 602.95,97.77 614.07,97.80 623.96,97.82 635.08,97.84 646.20,97.86 654.85,97.86 665.97,97.86 674.62,97.86 675.86,97.86 686.98,97.86 696.87,97.86 707.99,97.86 717.87,97.86 729.00,97.86 738.88,97.86 750.00,97.86 758.65,97.86"/>
<line x1="88" y1="70" x2="110" y2="70" stroke="#0f766e" stroke-width="2.8" stroke-dasharray="6 3"/>
<text x="116" y="74" font-family="Arial, sans-serif" font-size="12">[Pulldown]+[GND Clamp]</text>
<line x1="88" y1="88" x2="110" y2="88" stroke="#7c2d12" stroke-width="2.8" stroke-dasharray="6 3"/>
<text x="116" y="92" font-family="Arial, sans-serif" font-size="12">[Pullup]+[POWER Clamp]</text>
<text x="425.00" y="444.00" text-anchor="middle" font-family="Arial, sans-serif" font-size="12">Table voltage (V)</text>
<text transform="translate(18 226.00) rotate(-90)" text-anchor="middle" font-family="Arial, sans-serif" font-size="12">Current (A)</text>
<text x="420" y="42" font-family="Arial, sans-serif" font-size="11" fill="#555">thick dashed=combined typ curves</text>
</svg>