<svg xmlns="http://www.w3.org/2000/svg" width="800" height="560" viewBox="0 0 800 560">
<rect width="100%" height="100%" fill="#ffffff"/>
<text x="78" y="25" font-family="Arial, sans-serif" font-size="16" font-weight="700">E34_GPIO_I2CSCLIN_1V2_11_ISOSW I-V Combined Curves</text>
<rect x="78" y="52" width="694" height="348" fill="#fbfbfb" stroke="#c8c8c8"/>
<line x1="78.00" y1="52" x2="78.00" y2="400" stroke="#ececec"/>
<text x="78.00" y="422" text-anchor="middle" font-family="Arial, sans-serif" font-size="11">-1.3</text>
<line x1="216.80" y1="52" x2="216.80" y2="400" stroke="#ececec"/>
<text x="216.80" y="422" text-anchor="middle" font-family="Arial, sans-serif" font-size="11">-0.523</text>
<line x1="355.60" y1="52" x2="355.60" y2="400" stroke="#ececec"/>
<text x="355.60" y="422" text-anchor="middle" font-family="Arial, sans-serif" font-size="11">0.226</text>
<line x1="494.40" y1="52" x2="494.40" y2="400" stroke="#ececec"/>
<text x="494.40" y="422" text-anchor="middle" font-family="Arial, sans-serif" font-size="11">0.974</text>
<line x1="633.20" y1="52" x2="633.20" y2="400" stroke="#ececec"/>
<text x="633.20" y="422" text-anchor="middle" font-family="Arial, sans-serif" font-size="11">1.7</text>
<line x1="772.00" y1="52" x2="772.00" y2="400" stroke="#ececec"/>
<text x="772.00" y="422" text-anchor="middle" font-family="Arial, sans-serif" font-size="11">2.5</text>
<line x1="78" y1="400.00" x2="772" y2="400.00" stroke="#ececec"/>
<text x="70" y="404.00" text-anchor="end" font-family="Arial, sans-serif" font-size="11">-0.63</text>
<line x1="78" y1="330.40" x2="772" y2="330.40" stroke="#ececec"/>
<text x="70" y="334.40" text-anchor="end" font-family="Arial, sans-serif" font-size="11">-0.491</text>
<line x1="78" y1="260.80" x2="772" y2="260.80" stroke="#ececec"/>
<text x="70" y="264.80" text-anchor="end" font-family="Arial, sans-serif" font-size="11">-0.351</text>
<line x1="78" y1="191.20" x2="772" y2="191.20" stroke="#ececec"/>
<text x="70" y="195.20" text-anchor="end" font-family="Arial, sans-serif" font-size="11">-0.211</text>
<line x1="78" y1="121.60" x2="772" y2="121.60" stroke="#ececec"/>
<text x="70" y="125.60" text-anchor="end" font-family="Arial, sans-serif" font-size="11">-0.0712</text>
<line x1="78" y1="52.00" x2="772" y2="52.00" stroke="#ececec"/>
<text x="70" y="56.00" text-anchor="end" font-family="Arial, sans-serif" font-size="11">0.0686</text>
<line x1="313.78" y1="52" x2="313.78" y2="400" stroke="#777" stroke-dasharray="4 4"/>
<line x1="78" y1="86.16" x2="772" y2="86.16" stroke="#777" stroke-dasharray="4 4"/>
<line x1="91.35" y1="52" x2="91.35" y2="400" stroke="#555" stroke-dasharray="2 4"/>
<text x="95.35" y="66" font-family="Arial, sans-serif" font-size="11" fill="#555">-Vcc</text>
<line x1="536.22" y1="52" x2="536.22" y2="400" stroke="#555" stroke-dasharray="2 4"/>
<text x="540.22" y="66" font-family="Arial, sans-serif" font-size="11" fill="#555">Vcc</text>
<line x1="758.65" y1="52" x2="758.65" y2="400" stroke="#555" stroke-dasharray="2 4"/>
<text x="762.65" y="66" font-family="Arial, sans-serif" font-size="11" fill="#555">2Vcc</text>
<polyline fill="none" stroke="#0f766e" stroke-width="2.8" opacity="0.95" stroke-dasharray="6 3" points="91.35,376.00 102.47,325.22 111.74,282.91 122.86,232.13 133.98,181.35 135.83,172.89 137.69,164.42 139.54,155.96 141.39,147.50 143.25,139.03 145.10,130.57 146.96,123.07 148.81,116.69 150.66,111.36 152.52,107.02 154.37,103.57 156.22,100.88 158.08,98.84 159.93,97.31 161.78,96.18 163.64,95.35 165.49,94.74 167.35,94.28 169.20,93.93 171.05,93.66 172.91,93.45 174.76,93.27 176.61,93.11 178.47,92.97 180.32,92.85 182.17,92.73 184.03,92.62 185.88,92.52 187.74,92.41 189.59,92.31 191.44,92.21 193.30,92.11 195.15,92.01 197.00,91.91 198.86,91.82 202.56,91.63 206.27,91.43 208.12,91.34 209.98,91.25 211.83,91.15 213.69,91.05 215.54,90.96 217.39,90.86 219.25,90.76 221.10,90.67 222.95,90.58 224.81,90.48 226.66,90.38 228.51,90.29 232.22,90.11 237.78,89.82 248.90,89.26 258.17,88.80 269.29,88.26 280.42,87.72 289.68,87.28 300.81,86.76 310.07,86.33 313.78,86.16 321.20,85.83 332.32,85.34 341.59,84.94 352.71,84.48 361.98,84.11 363.83,84.04 373.10,83.68 384.22,83.28 395.34,82.90 399.05,82.78 404.61,82.61 415.73,82.29 426.85,82.03 434.27,81.87 436.12,81.84 447.24,81.67 450.95,81.63 456.51,81.57 458.37,81.56 462.07,81.53 467.63,81.50 469.49,81.49 473.19,81.47 476.90,81.45 478.76,81.44 480.61,81.44 484.32,81.43 488.02,81.41 489.88,81.41 493.58,81.40 497.29,81.39 499.15,81.38 501.00,81.38 510.27,81.36 513.97,81.35 519.54,81.34 530.66,81.32 536.22,81.31 541.78,81.31 551.05,81.29 558.46,81.28 562.17,81.28 571.44,81.27 582.56,81.26 593.68,81.24 602.95,81.23 614.07,81.22 625.19,81.21 634.46,81.20 645.58,81.19 656.70,81.18 665.97,81.16 677.09,81.14 688.22,81.11 697.48,81.08 708.61,81.03 717.87,80.98 729.00,80.89 740.12,80.77 749.39,80.65 758.65,80.51"/>
<polyline fill="none" stroke="#7c2d12" stroke-width="2.8" opacity="0.95" stroke-dasharray="6 3" points="91.35,76.00 95.05,76.17 98.76,76.34 100.61,76.42 102.47,76.51 104.32,76.59 106.18,76.68 108.03,76.77 111.74,76.94 113.59,77.02 115.44,77.11 117.30,77.19 119.15,77.28 121.00,77.37 122.86,77.45 124.71,77.54 126.57,77.63 130.27,77.80 132.13,77.88 133.98,77.97 135.83,78.06 137.69,78.14 139.54,78.23 143.25,78.40 145.10,78.49 146.96,78.58 148.81,78.66 150.66,78.75 152.52,78.84 154.37,78.93 156.22,79.01 158.08,79.10 161.78,79.27 163.64,79.36 165.49,79.45 167.35,79.53 169.20,79.62 171.05,79.71 172.91,79.79 174.76,79.88 176.61,79.97 178.47,80.05 182.17,80.22 184.03,80.31 185.88,80.40 189.59,80.57 191.44,80.65 193.30,80.74 195.15,80.83 197.00,80.91 198.86,81.00 200.71,81.08 204.42,81.25 206.27,81.34 209.98,81.51 211.83,81.59 213.69,81.68 217.39,81.85 221.10,82.02 222.95,82.10 224.81,82.18 226.66,82.27 228.51,82.35 232.22,82.52 234.08,82.60 235.93,82.69 237.78,82.77 241.49,82.93 243.34,83.02 245.20,83.10 248.90,83.27 252.61,83.43 256.32,83.60 258.17,83.68 260.03,83.76 261.88,83.84 263.73,83.93 265.59,84.01 267.44,84.09 269.29,84.18 273.00,84.34 276.71,84.51 278.56,84.59 280.42,84.67 282.27,84.75 284.12,84.84 285.98,84.92 287.83,85.00 289.68,85.08 291.54,85.17 293.39,85.25 295.25,85.33 297.10,85.41 298.95,85.50 300.81,85.58 302.66,85.66 304.51,85.75 306.37,85.83 308.22,85.91 310.07,86.00 311.93,86.08 313.78,86.16 321.20,86.49 332.32,86.97 341.59,87.36 343.44,87.43 345.29,87.51 347.15,87.59 350.85,87.74 363.83,88.24 373.10,88.59 384.22,88.99 395.34,89.36 404.61,89.65 415.73,89.97 421.29,90.12 426.85,90.25 436.12,90.45 437.98,90.48 439.83,90.52 441.68,90.55 443.54,90.58 445.39,90.61 447.24,90.64 449.10,90.66 450.95,90.69 456.51,90.75 462.07,90.80 463.93,90.82 465.78,90.83 467.63,90.85 469.49,90.86 471.34,90.87 475.05,90.89 476.90,90.90 478.76,90.91 482.46,90.93 484.32,90.94 486.17,90.95 488.02,90.96 489.88,90.96 491.73,90.97 493.58,90.98 495.44,90.99 497.29,90.99 501.00,91.01 504.71,91.02 506.56,91.03 510.27,91.04 513.97,91.05 517.68,91.06 530.66,91.10 536.22,91.11 541.78,91.13 551.05,91.15 558.46,91.17 562.17,91.17 571.44,91.19 582.56,91.21 593.68,91.23 602.95,91.24 614.07,91.24 625.19,91.24 634.46,91.24 645.58,91.24 656.70,91.24 665.97,91.24 677.09,91.24 688.22,91.24 697.48,91.24 708.61,91.24 717.87,91.24 729.00,91.24 740.12,91.24 749.39,91.24 758.65,91.24"/>
<line x1="88" y1="70" x2="110" y2="70" stroke="#0f766e" stroke-width="2.8" stroke-dasharray="6 3"/>
<text x="116" y="74" font-family="Arial, sans-serif" font-size="12">[Pulldown]+[GND Clamp]</text>
<line x1="88" y1="88" x2="110" y2="88" stroke="#7c2d12" stroke-width="2.8" stroke-dasharray="6 3"/>
<text x="116" y="92" font-family="Arial, sans-serif" font-size="12">[Pullup]+[POWER Clamp]</text>
<rect x="78" y="464" width="694" height="44" fill="#fffdf7" stroke="#d8c6a1" rx="4"/>
<text x="88" y="481" font-family="Arial, sans-serif" font-size="11" font-weight="700" fill="#4b3b21">Findings needing attention</text>
<rect x="88" y="488" width="7" height="7" fill="#b54708"/>
<text x="102" y="495" font-family="Arial, sans-serif" font-size="11" fill="#333">WARN 5.3.6: I-V stair-step evidence needs review | [GND Clamp]: roughness=0.179 &gt; 0.1</text>
<text x="425.00" y="444.00" text-anchor="middle" font-family="Arial, sans-serif" font-size="12">Table voltage (V)</text>
<text transform="translate(18 226.00) rotate(-90)" text-anchor="middle" font-family="Arial, sans-serif" font-size="12">Current (A)</text>
<text x="420" y="42" font-family="Arial, sans-serif" font-size="11" fill="#555">thick dashed=combined typ curves</text>
</svg>