<svg xmlns="http://www.w3.org/2000/svg" width="800" height="560" viewBox="0 0 800 560">
<rect width="100%" height="100%" fill="#ffffff"/>
<text x="78" y="25" font-family="Arial, sans-serif" font-size="16" font-weight="700">E34_GPIO_COMBO_1V1 I-V Combined Curves</text>
<rect x="78" y="52" width="694" height="348" fill="#fbfbfb" stroke="#c8c8c8"/>
<line x1="78.00" y1="52" x2="78.00" y2="400" stroke="#ececec"/>
<text x="78.00" y="422" text-anchor="middle" font-family="Arial, sans-serif" font-size="11">-1.2</text>
<line x1="216.80" y1="52" x2="216.80" y2="400" stroke="#ececec"/>
<text x="216.80" y="422" text-anchor="middle" font-family="Arial, sans-serif" font-size="11">-0.48</text>
<line x1="355.60" y1="52" x2="355.60" y2="400" stroke="#ececec"/>
<text x="355.60" y="422" text-anchor="middle" font-family="Arial, sans-serif" font-size="11">0.207</text>
<line x1="494.40" y1="52" x2="494.40" y2="400" stroke="#ececec"/>
<text x="494.40" y="422" text-anchor="middle" font-family="Arial, sans-serif" font-size="11">0.893</text>
<line x1="633.20" y1="52" x2="633.20" y2="400" stroke="#ececec"/>
<text x="633.20" y="422" text-anchor="middle" font-family="Arial, sans-serif" font-size="11">1.6</text>
<line x1="772.00" y1="52" x2="772.00" y2="400" stroke="#ececec"/>
<text x="772.00" y="422" text-anchor="middle" font-family="Arial, sans-serif" font-size="11">2.3</text>
<line x1="78" y1="400.00" x2="772" y2="400.00" stroke="#ececec"/>
<text x="70" y="404.00" text-anchor="end" font-family="Arial, sans-serif" font-size="11">-0.5</text>
<line x1="78" y1="330.40" x2="772" y2="330.40" stroke="#ececec"/>
<text x="70" y="334.40" text-anchor="end" font-family="Arial, sans-serif" font-size="11">-0.391</text>
<line x1="78" y1="260.80" x2="772" y2="260.80" stroke="#ececec"/>
<text x="70" y="264.80" text-anchor="end" font-family="Arial, sans-serif" font-size="11">-0.283</text>
<line x1="78" y1="191.20" x2="772" y2="191.20" stroke="#ececec"/>
<text x="70" y="195.20" text-anchor="end" font-family="Arial, sans-serif" font-size="11">-0.175</text>
<line x1="78" y1="121.60" x2="772" y2="121.60" stroke="#ececec"/>
<text x="70" y="125.60" text-anchor="end" font-family="Arial, sans-serif" font-size="11">-0.0667</text>
<line x1="78" y1="52.00" x2="772" y2="52.00" stroke="#ececec"/>
<text x="70" y="56.00" text-anchor="end" font-family="Arial, sans-serif" font-size="11">0.0416</text>
<line x1="313.78" y1="52" x2="313.78" y2="400" stroke="#777" stroke-dasharray="4 4"/>
<line x1="78" y1="78.75" x2="772" y2="78.75" stroke="#777" stroke-dasharray="4 4"/>
<line x1="91.35" y1="52" x2="91.35" y2="400" stroke="#555" stroke-dasharray="2 4"/>
<text x="95.35" y="66" font-family="Arial, sans-serif" font-size="11" fill="#555">-Vcc</text>
<line x1="536.22" y1="52" x2="536.22" y2="400" stroke="#555" stroke-dasharray="2 4"/>
<text x="540.22" y="66" font-family="Arial, sans-serif" font-size="11" fill="#555">Vcc</text>
<line x1="758.65" y1="52" x2="758.65" y2="400" stroke="#555" stroke-dasharray="2 4"/>
<text x="762.65" y="66" font-family="Arial, sans-serif" font-size="11" fill="#555">2Vcc</text>
<polyline fill="none" stroke="#0f766e" stroke-width="2.8" opacity="0.95" stroke-dasharray="6 3" points="91.35,376.00 101.46,321.35 111.57,266.71 123.70,201.14 133.81,146.49 139.88,113.70 141.90,104.29 143.92,97.44 145.94,92.53 147.97,89.05 149.99,86.61 152.01,84.91 154.03,83.73 156.05,82.91 158.08,82.33 160.10,81.93 162.12,81.65 164.14,81.44 166.17,81.29 168.19,81.17 170.21,81.08 172.23,81.01 174.25,80.95 176.28,80.89 178.30,80.85 180.32,80.80 182.34,80.76 184.36,80.72 186.39,80.68 188.41,80.64 190.43,80.61 192.45,80.57 194.48,80.54 196.50,80.50 198.52,80.47 200.54,80.43 202.56,80.40 204.59,80.36 206.61,80.33 208.63,80.30 210.65,80.26 212.67,80.23 214.70,80.20 216.72,80.16 218.74,80.13 220.76,80.10 222.79,80.07 226.83,80.00 236.94,79.84 249.07,79.65 259.18,79.50 269.29,79.35 279.41,79.21 289.52,79.07 299.63,78.93 311.76,78.77 313.78,78.75 321.87,78.65 323.89,78.63 331.98,78.54 342.09,78.43 348.16,78.37 352.20,78.33 362.31,78.24 374.45,78.15 378.49,78.12 384.56,78.08 392.65,78.04 394.67,78.03 400.73,78.00 404.78,77.98 414.89,77.95 427.02,77.93 437.13,77.92 447.24,77.91 457.35,77.90 467.47,77.89 477.58,77.88 489.71,77.88 499.82,77.87 507.91,77.86 509.93,77.86 513.97,77.86 520.04,77.86 522.06,77.86 530.15,77.85 532.17,77.85 536.22,77.85 540.26,77.85 552.40,77.84 558.46,77.84 562.51,77.84 572.62,77.83 582.73,77.83 592.84,77.83 602.95,77.82 615.08,77.82 625.19,77.82 635.30,77.82 645.41,77.82 655.52,77.82 665.64,77.82 677.77,77.82 687.88,77.82 697.99,77.82 708.10,77.82 718.21,77.82 728.32,77.82 740.45,77.82 750.57,77.82 758.65,77.82"/>
<polyline fill="none" stroke="#7c2d12" stroke-width="2.8" opacity="0.95" stroke-dasharray="6 3" points="91.35,76.00 93.37,76.02 95.39,76.05 97.41,76.07 99.43,76.09 101.46,76.11 103.48,76.14 105.50,76.16 107.52,76.18 109.55,76.20 111.57,76.22 113.59,76.24 115.61,76.27 117.63,76.29 119.66,76.31 121.68,76.33 123.70,76.35 125.72,76.37 127.74,76.39 129.77,76.42 131.79,76.44 133.81,76.46 135.83,76.48 137.86,76.51 139.88,76.53 141.90,76.55 143.92,76.57 145.94,76.60 147.97,76.62 149.99,76.64 152.01,76.67 154.03,76.69 156.05,76.71 158.08,76.74 160.10,76.76 162.12,76.79 164.14,76.81 166.17,76.83 168.19,76.86 170.21,76.88 172.23,76.91 174.25,76.93 176.28,76.96 178.30,76.98 180.32,77.01 182.34,77.03 184.36,77.06 186.39,77.08 188.41,77.11 190.43,77.13 192.45,77.16 194.48,77.18 196.50,77.21 198.52,77.24 200.54,77.26 202.56,77.29 204.59,77.31 206.61,77.34 208.63,77.37 210.65,77.39 212.67,77.42 214.70,77.45 216.72,77.47 218.74,77.50 220.76,77.53 222.79,77.55 224.81,77.58 226.83,77.61 228.85,77.63 230.87,77.66 232.90,77.69 234.92,77.71 236.94,77.74 238.96,77.77 240.98,77.80 243.01,77.82 245.03,77.85 247.05,77.88 249.07,77.90 251.10,77.93 253.12,77.96 257.16,78.01 259.18,78.04 263.23,78.09 267.27,78.15 269.29,78.17 273.34,78.23 277.38,78.28 279.41,78.31 281.43,78.33 283.45,78.36 287.49,78.41 289.52,78.44 291.54,78.47 295.58,78.52 297.60,78.54 299.63,78.57 301.65,78.60 305.69,78.65 309.74,78.70 311.76,78.72 313.78,78.75 321.87,78.85 331.98,78.97 342.09,79.09 352.20,79.20 362.31,79.30 374.45,79.42 384.56,79.51 394.67,79.59 404.78,79.66 408.82,79.68 412.87,79.70 414.89,79.71 427.02,79.76 437.13,79.79 447.24,79.82 457.35,79.83 467.47,79.85 477.58,79.86 489.71,79.88 499.82,79.89 503.86,79.89 509.93,79.90 513.97,79.90 518.02,79.91 520.04,79.91 524.09,79.91 530.15,79.92 536.22,79.92 540.26,79.93 552.40,79.93 558.46,79.94 562.51,79.94 572.62,79.95 582.73,79.96 592.84,79.96 602.95,79.97 615.08,79.97 625.19,79.97 635.30,79.97 645.41,79.97 655.52,79.97 665.64,79.97 677.77,79.97 687.88,79.97 697.99,79.97 708.10,79.97 718.21,79.97 728.32,79.97 740.45,79.97 750.57,79.97 758.65,79.97"/>
<line x1="88" y1="70" x2="110" y2="70" stroke="#0f766e" stroke-width="2.8" stroke-dasharray="6 3"/>
<text x="116" y="74" font-family="Arial, sans-serif" font-size="12">[Pulldown]+[GND Clamp]</text>
<line x1="88" y1="88" x2="110" y2="88" stroke="#7c2d12" stroke-width="2.8" stroke-dasharray="6 3"/>
<text x="116" y="92" font-family="Arial, sans-serif" font-size="12">[Pullup]+[POWER Clamp]</text>
<rect x="78" y="464" width="694" height="44" fill="#fffdf7" stroke="#d8c6a1" rx="4"/>
<text x="88" y="481" font-family="Arial, sans-serif" font-size="11" font-weight="700" fill="#4b3b21">Findings needing attention</text>
<rect x="88" y="488" width="7" height="7" fill="#b54708"/>
<text x="102" y="495" font-family="Arial, sans-serif" font-size="11" fill="#333">WARN 5.3.6: I-V stair-step evidence needs review | [GND Clamp]: roughness=0.222 &gt; 0.1</text>
<text x="425.00" y="444.00" text-anchor="middle" font-family="Arial, sans-serif" font-size="12">Table voltage (V)</text>
<text transform="translate(18 226.00) rotate(-90)" text-anchor="middle" font-family="Arial, sans-serif" font-size="12">Current (A)</text>
<text x="420" y="42" font-family="Arial, sans-serif" font-size="11" fill="#555">thick dashed=combined typ curves</text>
</svg>