<svg xmlns="http://www.w3.org/2000/svg" width="800" height="560" viewBox="0 0 800 560">
<rect width="100%" height="100%" fill="#ffffff"/>
<text x="78" y="25" font-family="Arial, sans-serif" font-size="16" font-weight="700">E34_GPIO_COMBO_1V2 I-V Combined Curves</text>
<rect x="78" y="52" width="694" height="348" fill="#fbfbfb" stroke="#c8c8c8"/>
<line x1="78.00" y1="52" x2="78.00" y2="400" stroke="#ececec"/>
<text x="78.00" y="422" text-anchor="middle" font-family="Arial, sans-serif" font-size="11">-1.3</text>
<line x1="216.80" y1="52" x2="216.80" y2="400" stroke="#ececec"/>
<text x="216.80" y="422" text-anchor="middle" font-family="Arial, sans-serif" font-size="11">-0.523</text>
<line x1="355.60" y1="52" x2="355.60" y2="400" stroke="#ececec"/>
<text x="355.60" y="422" text-anchor="middle" font-family="Arial, sans-serif" font-size="11">0.226</text>
<line x1="494.40" y1="52" x2="494.40" y2="400" stroke="#ececec"/>
<text x="494.40" y="422" text-anchor="middle" font-family="Arial, sans-serif" font-size="11">0.974</text>
<line x1="633.20" y1="52" x2="633.20" y2="400" stroke="#ececec"/>
<text x="633.20" y="422" text-anchor="middle" font-family="Arial, sans-serif" font-size="11">1.7</text>
<line x1="772.00" y1="52" x2="772.00" y2="400" stroke="#ececec"/>
<text x="772.00" y="422" text-anchor="middle" font-family="Arial, sans-serif" font-size="11">2.5</text>
<line x1="78" y1="400.00" x2="772" y2="400.00" stroke="#ececec"/>
<text x="70" y="404.00" text-anchor="end" font-family="Arial, sans-serif" font-size="11">-0.684</text>
<line x1="78" y1="330.40" x2="772" y2="330.40" stroke="#ececec"/>
<text x="70" y="334.40" text-anchor="end" font-family="Arial, sans-serif" font-size="11">-0.536</text>
<line x1="78" y1="260.80" x2="772" y2="260.80" stroke="#ececec"/>
<text x="70" y="264.80" text-anchor="end" font-family="Arial, sans-serif" font-size="11">-0.388</text>
<line x1="78" y1="191.20" x2="772" y2="191.20" stroke="#ececec"/>
<text x="70" y="195.20" text-anchor="end" font-family="Arial, sans-serif" font-size="11">-0.24</text>
<line x1="78" y1="121.60" x2="772" y2="121.60" stroke="#ececec"/>
<text x="70" y="125.60" text-anchor="end" font-family="Arial, sans-serif" font-size="11">-0.0922</text>
<line x1="78" y1="52.00" x2="772" y2="52.00" stroke="#ececec"/>
<text x="70" y="56.00" text-anchor="end" font-family="Arial, sans-serif" font-size="11">0.0556</text>
<line x1="313.78" y1="52" x2="313.78" y2="400" stroke="#777" stroke-dasharray="4 4"/>
<line x1="78" y1="78.17" x2="772" y2="78.17" stroke="#777" stroke-dasharray="4 4"/>
<line x1="91.35" y1="52" x2="91.35" y2="400" stroke="#555" stroke-dasharray="2 4"/>
<text x="95.35" y="66" font-family="Arial, sans-serif" font-size="11" fill="#555">-Vcc</text>
<line x1="536.22" y1="52" x2="536.22" y2="400" stroke="#555" stroke-dasharray="2 4"/>
<text x="540.22" y="66" font-family="Arial, sans-serif" font-size="11" fill="#555">Vcc</text>
<line x1="758.65" y1="52" x2="758.65" y2="400" stroke="#555" stroke-dasharray="2 4"/>
<text x="762.65" y="66" font-family="Arial, sans-serif" font-size="11" fill="#555">2Vcc</text>
<polyline fill="none" stroke="#0f766e" stroke-width="2.8" opacity="0.95" stroke-dasharray="6 3" points="91.35,376.00 102.47,327.97 111.74,287.95 122.86,239.93 133.98,191.90 143.25,151.88 154.37,103.86 156.22,96.96 158.08,91.95 159.93,88.35 161.78,85.80 163.64,84.02 165.49,82.77 167.35,81.91 169.20,81.30 171.05,80.88 172.91,80.59 174.76,80.38 176.61,80.23 178.47,80.12 180.32,80.03 182.17,79.96 184.03,79.91 185.88,79.86 187.74,79.82 189.59,79.79 191.44,79.75 193.30,79.72 195.15,79.69 197.00,79.66 198.86,79.64 200.71,79.61 202.56,79.58 204.42,79.55 206.27,79.53 208.12,79.50 209.98,79.47 211.83,79.45 213.69,79.42 215.54,79.40 217.39,79.37 219.25,79.34 221.10,79.32 222.95,79.29 224.81,79.27 226.66,79.24 228.51,79.22 230.37,79.20 237.78,79.09 248.90,78.95 258.17,78.83 269.29,78.69 280.42,78.55 289.68,78.44 300.81,78.31 310.07,78.21 313.78,78.17 321.20,78.09 324.90,78.05 332.32,77.98 336.03,77.94 341.59,77.89 352.71,77.79 354.56,77.77 363.83,77.70 373.10,77.63 384.22,77.56 393.49,77.51 395.34,77.50 399.05,77.48 400.90,77.47 404.61,77.45 415.73,77.41 426.85,77.39 436.12,77.37 447.24,77.36 456.51,77.35 467.63,77.34 478.76,77.33 488.02,77.32 499.15,77.32 504.71,77.32 510.27,77.31 513.97,77.31 519.54,77.31 528.80,77.30 530.66,77.30 536.22,77.30 541.78,77.30 551.05,77.29 558.46,77.29 562.17,77.29 571.44,77.29 582.56,77.28 593.68,77.28 602.95,77.28 614.07,77.28 625.19,77.28 634.46,77.28 645.58,77.28 656.70,77.28 665.97,77.28 677.09,77.28 688.22,77.28 697.48,77.28 708.61,77.28 717.87,77.28 729.00,77.28 740.12,77.28 749.39,77.28 758.65,77.28"/>
<polyline fill="none" stroke="#7c2d12" stroke-width="2.8" opacity="0.95" stroke-dasharray="6 3" points="91.35,76.00 95.05,76.03 96.91,76.05 98.76,76.07 100.61,76.08 102.47,76.10 104.32,76.11 106.18,76.13 108.03,76.15 109.88,76.16 111.74,76.18 113.59,76.19 115.44,76.21 117.30,76.22 119.15,76.24 121.00,76.25 122.86,76.27 124.71,76.28 126.57,76.30 128.42,76.31 130.27,76.33 132.13,76.34 133.98,76.36 135.83,76.37 137.69,76.39 139.54,76.40 141.39,76.42 143.25,76.43 145.10,76.45 146.96,76.46 150.66,76.49 154.37,76.52 158.08,76.56 159.93,76.57 161.78,76.59 163.64,76.61 165.49,76.62 167.35,76.64 169.20,76.66 171.05,76.67 174.76,76.71 176.61,76.73 178.47,76.74 180.32,76.76 182.17,76.78 184.03,76.79 185.88,76.81 187.74,76.83 189.59,76.85 191.44,76.87 193.30,76.88 195.15,76.90 197.00,76.92 198.86,76.94 200.71,76.96 202.56,76.98 204.42,76.99 206.27,77.01 208.12,77.03 209.98,77.05 211.83,77.07 213.69,77.09 215.54,77.11 217.39,77.13 219.25,77.15 221.10,77.17 222.95,77.18 224.81,77.20 226.66,77.22 228.51,77.24 230.37,77.26 232.22,77.28 234.08,77.30 235.93,77.32 237.78,77.34 239.64,77.36 241.49,77.38 243.34,77.40 245.20,77.42 248.90,77.46 252.61,77.50 256.32,77.54 258.17,77.56 260.03,77.58 263.73,77.62 267.44,77.66 269.29,77.68 273.00,77.72 276.71,77.76 280.42,77.80 284.12,77.85 287.83,77.89 289.68,77.91 291.54,77.93 295.25,77.97 298.95,78.01 300.81,78.03 304.51,78.07 308.22,78.11 310.07,78.13 311.93,78.15 313.78,78.17 321.20,78.25 332.32,78.36 341.59,78.46 352.71,78.56 363.83,78.67 373.10,78.75 384.22,78.84 395.34,78.93 404.61,78.99 415.73,79.06 417.59,79.07 421.29,79.09 426.85,79.12 436.12,79.15 447.24,79.19 456.51,79.21 467.63,79.23 478.76,79.25 488.02,79.26 499.15,79.27 502.85,79.28 510.27,79.29 513.97,79.29 517.68,79.29 519.54,79.30 530.66,79.31 536.22,79.31 541.78,79.32 551.05,79.32 558.46,79.33 562.17,79.33 571.44,79.34 582.56,79.35 593.68,79.35 602.95,79.35 614.07,79.35 625.19,79.35 634.46,79.35 645.58,79.35 656.70,79.35 665.97,79.35 677.09,79.35 688.22,79.35 697.48,79.35 708.61,79.35 717.87,79.35 729.00,79.35 740.12,79.35 749.39,79.35 758.65,79.35"/>
<line x1="88" y1="70" x2="110" y2="70" stroke="#0f766e" stroke-width="2.8" stroke-dasharray="6 3"/>
<text x="116" y="74" font-family="Arial, sans-serif" font-size="12">[Pulldown]+[GND Clamp]</text>
<line x1="88" y1="88" x2="110" y2="88" stroke="#7c2d12" stroke-width="2.8" stroke-dasharray="6 3"/>
<text x="116" y="92" font-family="Arial, sans-serif" font-size="12">[Pullup]+[POWER Clamp]</text>
<rect x="78" y="464" width="694" height="44" fill="#fffdf7" stroke="#d8c6a1" rx="4"/>
<text x="88" y="481" font-family="Arial, sans-serif" font-size="11" font-weight="700" fill="#4b3b21">Findings needing attention</text>
<rect x="88" y="488" width="7" height="7" fill="#b54708"/>
<text x="102" y="495" font-family="Arial, sans-serif" font-size="11" fill="#333">WARN 5.3.6: I-V stair-step evidence needs review | [GND Clamp]: roughness=0.162 &gt; 0.1</text>
<text x="425.00" y="444.00" text-anchor="middle" font-family="Arial, sans-serif" font-size="12">Table voltage (V)</text>
<text transform="translate(18 226.00) rotate(-90)" text-anchor="middle" font-family="Arial, sans-serif" font-size="12">Current (A)</text>
<text x="420" y="42" font-family="Arial, sans-serif" font-size="11" fill="#555">thick dashed=combined typ curves</text>
</svg>