<svg xmlns="http://www.w3.org/2000/svg" width="800" height="560" viewBox="0 0 800 560">
<rect width="100%" height="100%" fill="#ffffff"/>
<text x="78" y="25" font-family="Arial, sans-serif" font-size="16" font-weight="700">E34_GPIO_1V1TO1V8_1v8_11 I-V Combined Curves</text>
<rect x="78" y="52" width="694" height="348" fill="#fbfbfb" stroke="#c8c8c8"/>
<line x1="78.00" y1="52" x2="78.00" y2="400" stroke="#ececec"/>
<text x="78.00" y="422" text-anchor="middle" font-family="Arial, sans-serif" font-size="11">-1.9</text>
<line x1="216.80" y1="52" x2="216.80" y2="400" stroke="#ececec"/>
<text x="216.80" y="422" text-anchor="middle" font-family="Arial, sans-serif" font-size="11">-0.785</text>
<line x1="355.60" y1="52" x2="355.60" y2="400" stroke="#ececec"/>
<text x="355.60" y="422" text-anchor="middle" font-family="Arial, sans-serif" font-size="11">0.338</text>
<line x1="494.40" y1="52" x2="494.40" y2="400" stroke="#ececec"/>
<text x="494.40" y="422" text-anchor="middle" font-family="Arial, sans-serif" font-size="11">1.5</text>
<line x1="633.20" y1="52" x2="633.20" y2="400" stroke="#ececec"/>
<text x="633.20" y="422" text-anchor="middle" font-family="Arial, sans-serif" font-size="11">2.6</text>
<line x1="772.00" y1="52" x2="772.00" y2="400" stroke="#ececec"/>
<text x="772.00" y="422" text-anchor="middle" font-family="Arial, sans-serif" font-size="11">3.7</text>
<line x1="78" y1="400.00" x2="772" y2="400.00" stroke="#ececec"/>
<text x="70" y="404.00" text-anchor="end" font-family="Arial, sans-serif" font-size="11">-1.7</text>
<line x1="78" y1="330.40" x2="772" y2="330.40" stroke="#ececec"/>
<text x="70" y="334.40" text-anchor="end" font-family="Arial, sans-serif" font-size="11">-1.4</text>
<line x1="78" y1="260.80" x2="772" y2="260.80" stroke="#ececec"/>
<text x="70" y="264.80" text-anchor="end" font-family="Arial, sans-serif" font-size="11">-0.975</text>
<line x1="78" y1="191.20" x2="772" y2="191.20" stroke="#ececec"/>
<text x="70" y="195.20" text-anchor="end" font-family="Arial, sans-serif" font-size="11">-0.596</text>
<line x1="78" y1="121.60" x2="772" y2="121.60" stroke="#ececec"/>
<text x="70" y="125.60" text-anchor="end" font-family="Arial, sans-serif" font-size="11">-0.216</text>
<line x1="78" y1="52.00" x2="772" y2="52.00" stroke="#ececec"/>
<text x="70" y="56.00" text-anchor="end" font-family="Arial, sans-serif" font-size="11">0.164</text>
<line x1="313.78" y1="52" x2="313.78" y2="400" stroke="#777" stroke-dasharray="4 4"/>
<line x1="78" y1="81.99" x2="772" y2="81.99" stroke="#777" stroke-dasharray="4 4"/>
<line x1="91.35" y1="52" x2="91.35" y2="400" stroke="#555" stroke-dasharray="2 4"/>
<text x="95.35" y="66" font-family="Arial, sans-serif" font-size="11" fill="#555">-Vcc</text>
<line x1="536.22" y1="52" x2="536.22" y2="400" stroke="#555" stroke-dasharray="2 4"/>
<text x="540.22" y="66" font-family="Arial, sans-serif" font-size="11" fill="#555">Vcc</text>
<line x1="758.65" y1="52" x2="758.65" y2="400" stroke="#555" stroke-dasharray="2 4"/>
<text x="762.65" y="66" font-family="Arial, sans-serif" font-size="11" fill="#555">2Vcc</text>
<polyline fill="none" stroke="#0f766e" stroke-width="2.8" opacity="0.95" stroke-dasharray="6 3" points="91.35,376.00 101.23,351.06 112.35,323.01 122.24,298.07 133.36,270.02 143.25,245.08 154.37,217.03 164.26,192.09 175.38,164.03 185.26,139.10 193.91,117.28 195.15,114.16 196.39,111.04 197.62,107.93 198.86,104.81 200.09,101.69 201.33,98.57 202.56,95.79 203.80,93.42 205.04,91.44 206.27,89.83 207.51,88.55 208.74,87.55 209.98,86.79 211.21,86.22 212.45,85.81 213.69,85.50 214.92,85.27 216.16,85.11 217.39,84.98 218.63,84.88 219.86,84.80 221.10,84.74 222.34,84.68 223.57,84.63 224.81,84.59 226.04,84.55 227.28,84.51 228.51,84.47 229.75,84.43 230.99,84.39 232.22,84.35 233.46,84.32 234.69,84.28 235.93,84.25 237.17,84.21 238.40,84.17 239.64,84.14 240.87,84.11 242.11,84.07 243.34,84.03 244.58,84.00 245.82,83.96 247.05,83.92 248.29,83.88 249.52,83.85 250.76,83.82 251.99,83.78 253.23,83.74 254.47,83.71 255.70,83.67 256.94,83.63 258.17,83.60 259.41,83.56 260.64,83.53 269.29,83.27 279.18,82.99 290.30,82.67 300.19,82.38 311.31,82.06 313.78,81.99 321.20,81.78 331.08,81.51 342.20,81.20 352.09,80.92 363.21,80.62 373.10,80.36 384.22,80.07 386.69,80.00 394.11,79.81 405.23,79.54 415.11,79.30 426.24,79.05 432.41,78.91 436.12,78.83 439.83,78.76 442.30,78.71 446.01,78.63 457.13,78.42 467.02,78.25 478.14,78.08 488.02,77.96 499.15,77.84 509.03,77.77 513.97,77.73 520.15,77.70 530.04,77.65 536.22,77.63 539.93,77.62 551.05,77.58 558.46,77.56 560.93,77.56 572.05,77.53 581.94,77.51 593.06,77.49 602.95,77.47 614.07,77.44 623.96,77.42 635.08,77.39 644.96,77.36 654.85,77.34 665.97,77.31 675.86,77.28 686.98,77.24 696.87,77.21 707.99,77.18 717.87,77.15 729.00,77.10 738.88,77.05 750.00,76.98 758.65,76.90"/>
<polyline fill="none" stroke="#7c2d12" stroke-width="2.8" opacity="0.95" stroke-dasharray="6 3" points="91.35,76.00 95.05,76.09 98.76,76.19 101.23,76.25 104.94,76.34 108.65,76.44 112.35,76.53 116.06,76.63 119.77,76.72 121.00,76.76 122.24,76.79 123.48,76.82 124.71,76.85 125.95,76.89 129.65,76.98 133.36,77.08 137.07,77.18 140.78,77.28 142.01,77.31 143.25,77.34 144.48,77.38 146.96,77.44 150.66,77.54 154.37,77.64 158.08,77.74 161.78,77.84 163.02,77.88 164.26,77.91 166.73,77.98 167.96,78.01 171.67,78.11 175.38,78.21 179.08,78.32 180.32,78.35 182.79,78.42 185.26,78.48 186.50,78.52 188.97,78.59 192.68,78.69 196.39,78.79 197.62,78.83 198.86,78.86 200.09,78.89 201.33,78.93 203.80,79.00 205.04,79.03 206.27,79.06 209.98,79.17 211.21,79.20 213.69,79.27 216.16,79.34 217.39,79.37 221.10,79.47 223.57,79.54 224.81,79.58 227.28,79.64 228.51,79.68 230.99,79.75 233.46,79.81 234.69,79.85 237.17,79.92 238.40,79.95 242.11,80.05 244.58,80.12 248.29,80.22 249.52,80.25 251.99,80.32 255.70,80.42 256.94,80.45 258.17,80.49 259.41,80.52 263.12,80.62 265.59,80.69 266.82,80.72 268.06,80.76 269.29,80.79 273.00,80.89 275.47,80.96 276.71,80.99 279.18,81.06 280.42,81.09 282.89,81.16 284.12,81.19 286.60,81.26 287.83,81.29 289.07,81.32 290.30,81.36 294.01,81.46 295.25,81.49 297.72,81.56 298.95,81.59 300.19,81.62 301.42,81.66 302.66,81.69 303.90,81.72 305.13,81.76 306.37,81.79 307.60,81.83 308.84,81.86 310.07,81.89 311.31,81.93 313.78,81.99 321.20,82.20 331.08,82.46 342.20,82.75 352.09,83.01 363.21,83.30 373.10,83.55 384.22,83.82 394.11,84.06 405.23,84.33 415.11,84.55 426.24,84.80 429.94,84.88 434.89,84.99 436.12,85.01 441.06,85.12 446.01,85.22 457.13,85.43 467.02,85.62 478.14,85.81 488.02,85.97 499.15,86.13 502.85,86.18 509.03,86.26 513.97,86.32 516.45,86.35 520.15,86.39 523.86,86.42 527.57,86.46 530.04,86.48 536.22,86.54 539.93,86.57 551.05,86.65 558.46,86.70 560.93,86.71 563.40,86.72 565.88,86.74 572.05,86.77 578.23,86.80 580.71,86.81 583.18,86.82 585.65,86.82 586.88,86.83 588.12,86.83 589.36,86.83 590.59,86.83 591.83,86.83 593.06,86.83 602.95,86.83 605.42,86.83 606.66,86.83 607.89,86.83 609.13,86.83 610.36,86.83 611.60,86.83 612.83,86.83 614.07,86.83 615.31,86.83 616.54,86.83 617.78,86.83 619.01,86.83 620.25,86.83 623.96,86.83 635.08,86.83 644.96,86.83 654.85,86.83 665.97,86.83 675.86,86.83 686.98,86.83 696.87,86.83 707.99,86.83 717.87,86.83 729.00,86.83 738.88,86.83 750.00,86.83 758.65,86.83"/>
<line x1="88" y1="70" x2="110" y2="70" stroke="#0f766e" stroke-width="2.8" stroke-dasharray="6 3"/>
<text x="116" y="74" font-family="Arial, sans-serif" font-size="12">[Pulldown]+[GND Clamp]</text>
<line x1="88" y1="88" x2="110" y2="88" stroke="#7c2d12" stroke-width="2.8" stroke-dasharray="6 3"/>
<text x="116" y="92" font-family="Arial, sans-serif" font-size="12">[Pullup]+[POWER Clamp]</text>
<text x="425.00" y="444.00" text-anchor="middle" font-family="Arial, sans-serif" font-size="12">Table voltage (V)</text>
<text transform="translate(18 226.00) rotate(-90)" text-anchor="middle" font-family="Arial, sans-serif" font-size="12">Current (A)</text>
<text x="420" y="42" font-family="Arial, sans-serif" font-size="11" fill="#555">thick dashed=combined typ curves</text>
</svg>