<svg xmlns="http://www.w3.org/2000/svg" width="800" height="560" viewBox="0 0 800 560">
<rect width="100%" height="100%" fill="#ffffff"/>
<text x="78" y="25" font-family="Arial, sans-serif" font-size="16" font-weight="700">E34_GPIO_I2CSCLIN_1V8_11_ISOSW I-V Combined Curves</text>
<rect x="78" y="52" width="694" height="348" fill="#fbfbfb" stroke="#c8c8c8"/>
<line x1="78.00" y1="52" x2="78.00" y2="400" stroke="#ececec"/>
<text x="78.00" y="422" text-anchor="middle" font-family="Arial, sans-serif" font-size="11">-1.9</text>
<line x1="216.80" y1="52" x2="216.80" y2="400" stroke="#ececec"/>
<text x="216.80" y="422" text-anchor="middle" font-family="Arial, sans-serif" font-size="11">-0.785</text>
<line x1="355.60" y1="52" x2="355.60" y2="400" stroke="#ececec"/>
<text x="355.60" y="422" text-anchor="middle" font-family="Arial, sans-serif" font-size="11">0.338</text>
<line x1="494.40" y1="52" x2="494.40" y2="400" stroke="#ececec"/>
<text x="494.40" y="422" text-anchor="middle" font-family="Arial, sans-serif" font-size="11">1.5</text>
<line x1="633.20" y1="52" x2="633.20" y2="400" stroke="#ececec"/>
<text x="633.20" y="422" text-anchor="middle" font-family="Arial, sans-serif" font-size="11">2.6</text>
<line x1="772.00" y1="52" x2="772.00" y2="400" stroke="#ececec"/>
<text x="772.00" y="422" text-anchor="middle" font-family="Arial, sans-serif" font-size="11">3.7</text>
<line x1="78" y1="400.00" x2="772" y2="400.00" stroke="#ececec"/>
<text x="70" y="404.00" text-anchor="end" font-family="Arial, sans-serif" font-size="11">-1.7</text>
<line x1="78" y1="330.40" x2="772" y2="330.40" stroke="#ececec"/>
<text x="70" y="334.40" text-anchor="end" font-family="Arial, sans-serif" font-size="11">-1.4</text>
<line x1="78" y1="260.80" x2="772" y2="260.80" stroke="#ececec"/>
<text x="70" y="264.80" text-anchor="end" font-family="Arial, sans-serif" font-size="11">-0.975</text>
<line x1="78" y1="191.20" x2="772" y2="191.20" stroke="#ececec"/>
<text x="70" y="195.20" text-anchor="end" font-family="Arial, sans-serif" font-size="11">-0.593</text>
<line x1="78" y1="121.60" x2="772" y2="121.60" stroke="#ececec"/>
<text x="70" y="125.60" text-anchor="end" font-family="Arial, sans-serif" font-size="11">-0.212</text>
<line x1="78" y1="52.00" x2="772" y2="52.00" stroke="#ececec"/>
<text x="70" y="56.00" text-anchor="end" font-family="Arial, sans-serif" font-size="11">0.169</text>
<line x1="313.78" y1="52" x2="313.78" y2="400" stroke="#777" stroke-dasharray="4 4"/>
<line x1="78" y1="82.83" x2="772" y2="82.83" stroke="#777" stroke-dasharray="4 4"/>
<line x1="91.35" y1="52" x2="91.35" y2="400" stroke="#555" stroke-dasharray="2 4"/>
<text x="95.35" y="66" font-family="Arial, sans-serif" font-size="11" fill="#555">-Vcc</text>
<line x1="536.22" y1="52" x2="536.22" y2="400" stroke="#555" stroke-dasharray="2 4"/>
<text x="540.22" y="66" font-family="Arial, sans-serif" font-size="11" fill="#555">Vcc</text>
<line x1="758.65" y1="52" x2="758.65" y2="400" stroke="#555" stroke-dasharray="2 4"/>
<text x="762.65" y="66" font-family="Arial, sans-serif" font-size="11" fill="#555">2Vcc</text>
<polyline fill="none" stroke="#0f766e" stroke-width="2.8" opacity="0.95" stroke-dasharray="6 3" points="91.35,376.00 101.23,351.16 112.35,323.23 122.24,298.39 133.36,270.45 143.25,245.62 154.37,217.68 164.26,192.84 175.38,164.90 185.26,140.07 193.91,118.34 195.15,115.23 196.39,112.13 197.62,109.02 198.86,105.92 200.09,102.81 201.33,99.71 202.56,96.93 203.80,94.56 205.04,92.58 206.27,90.96 207.51,89.68 208.74,88.67 209.98,87.91 211.21,87.34 212.45,86.92 213.69,86.60 214.92,86.37 216.16,86.20 217.39,86.07 218.63,85.96 219.86,85.88 221.10,85.81 222.34,85.75 223.57,85.69 224.81,85.65 226.04,85.60 227.28,85.56 228.51,85.51 229.75,85.47 230.99,85.43 232.22,85.39 233.46,85.35 234.69,85.31 235.93,85.27 237.17,85.23 238.40,85.19 239.64,85.15 240.87,85.11 242.11,85.08 243.34,85.04 244.58,85.00 245.82,84.96 247.05,84.91 248.29,84.87 249.52,84.84 250.76,84.80 251.99,84.76 253.23,84.72 254.47,84.68 255.70,84.64 256.94,84.60 258.17,84.56 260.64,84.48 263.12,84.41 269.29,84.21 279.18,83.90 290.30,83.55 300.19,83.25 311.31,82.90 313.78,82.83 321.20,82.60 331.08,82.30 342.20,81.96 352.09,81.67 363.21,81.34 373.10,81.05 384.22,80.73 394.11,80.45 396.58,80.38 405.23,80.14 415.11,79.87 420.06,79.74 423.76,79.64 426.24,79.57 433.65,79.38 436.12,79.31 446.01,79.06 450.95,78.94 457.13,78.79 467.02,78.57 478.14,78.32 488.02,78.12 499.15,77.92 509.03,77.76 513.97,77.69 520.15,77.61 530.04,77.50 536.22,77.44 539.93,77.41 551.05,77.34 558.46,77.30 560.93,77.29 563.40,77.28 572.05,77.25 581.94,77.23 593.06,77.20 602.95,77.18 614.07,77.16 623.96,77.14 635.08,77.12 644.96,77.10 654.85,77.07 665.97,77.05 675.86,77.02 686.98,77.00 696.87,76.97 707.99,76.94 717.87,76.92 729.00,76.89 738.88,76.86 750.00,76.83 758.65,76.80"/>
<polyline fill="none" stroke="#7c2d12" stroke-width="2.8" opacity="0.95" stroke-dasharray="6 3" points="91.35,76.00 95.05,76.12 96.29,76.15 97.52,76.19 98.76,76.23 101.23,76.31 104.94,76.42 108.65,76.54 112.35,76.66 114.83,76.73 116.06,76.77 117.30,76.81 118.53,76.85 119.77,76.89 121.00,76.93 122.24,76.96 123.48,77.00 124.71,77.04 125.95,77.08 127.18,77.12 128.42,77.16 129.65,77.20 132.13,77.27 133.36,77.31 137.07,77.43 140.78,77.54 142.01,77.58 143.25,77.62 145.72,77.70 146.96,77.74 150.66,77.85 151.90,77.89 154.37,77.97 158.08,78.09 161.78,78.20 164.26,78.28 167.96,78.39 171.67,78.51 175.38,78.63 179.08,78.74 182.79,78.86 185.26,78.93 188.97,79.05 190.21,79.09 191.44,79.12 192.68,79.16 196.39,79.28 200.09,79.39 203.80,79.51 206.27,79.58 209.98,79.70 212.45,79.77 213.69,79.81 216.16,79.89 217.39,79.92 218.63,79.96 219.86,80.00 221.10,80.04 223.57,80.11 224.81,80.15 227.28,80.22 230.99,80.34 232.22,80.37 233.46,80.41 234.69,80.45 237.17,80.52 238.40,80.56 242.11,80.67 243.34,80.71 244.58,80.75 248.29,80.86 249.52,80.90 250.76,80.93 251.99,80.97 254.47,81.04 255.70,81.08 258.17,81.15 259.41,81.19 263.12,81.30 265.59,81.38 266.82,81.41 268.06,81.45 269.29,81.49 273.00,81.60 276.71,81.71 279.18,81.78 280.42,81.82 284.12,81.93 286.60,82.00 290.30,82.12 294.01,82.23 296.48,82.30 297.72,82.34 300.19,82.41 301.42,82.45 302.66,82.49 303.90,82.53 305.13,82.56 306.37,82.60 307.60,82.64 308.84,82.68 310.07,82.71 311.31,82.75 313.78,82.83 321.20,83.05 331.08,83.35 336.03,83.50 342.20,83.68 352.09,83.97 363.21,84.30 373.10,84.58 384.22,84.90 394.11,85.17 405.23,85.48 415.11,85.75 421.29,85.91 426.24,86.05 431.18,86.17 436.12,86.30 446.01,86.55 457.13,86.83 467.02,87.07 475.67,87.27 478.14,87.32 488.02,87.54 495.44,87.70 499.15,87.77 509.03,87.97 513.97,88.06 520.15,88.17 525.10,88.25 530.04,88.33 532.51,88.36 536.22,88.42 539.93,88.47 551.05,88.60 553.52,88.63 558.46,88.68 560.93,88.70 568.35,88.76 572.05,88.79 583.18,88.85 584.41,88.86 586.88,88.87 588.12,88.87 589.36,88.88 590.59,88.88 591.83,88.88 604.18,88.88 606.66,88.88 607.89,88.88 609.13,88.88 610.36,88.88 611.60,88.88 612.83,88.88 614.07,88.88 615.31,88.88 616.54,88.88 617.78,88.88 619.01,88.88 620.25,88.88 621.49,88.88 622.72,88.88 623.96,88.88 625.19,88.88 626.43,88.88 627.66,88.88 635.08,88.88 644.96,88.88 654.85,88.88 665.97,88.88 675.86,88.88 686.98,88.88 696.87,88.88 707.99,88.88 717.87,88.88 729.00,88.88 738.88,88.88 750.00,88.88 758.65,88.88"/>
<line x1="88" y1="70" x2="110" y2="70" stroke="#0f766e" stroke-width="2.8" stroke-dasharray="6 3"/>
<text x="116" y="74" font-family="Arial, sans-serif" font-size="12">[Pulldown]+[GND Clamp]</text>
<line x1="88" y1="88" x2="110" y2="88" stroke="#7c2d12" stroke-width="2.8" stroke-dasharray="6 3"/>
<text x="116" y="92" font-family="Arial, sans-serif" font-size="12">[Pullup]+[POWER Clamp]</text>
<text x="425.00" y="444.00" text-anchor="middle" font-family="Arial, sans-serif" font-size="12">Table voltage (V)</text>
<text transform="translate(18 226.00) rotate(-90)" text-anchor="middle" font-family="Arial, sans-serif" font-size="12">Current (A)</text>
<text x="420" y="42" font-family="Arial, sans-serif" font-size="11" fill="#555">thick dashed=combined typ curves</text>
</svg>