<svg xmlns="http://www.w3.org/2000/svg" width="800" height="560" viewBox="0 0 800 560">
<rect width="100%" height="100%" fill="#ffffff"/>
<text x="78" y="25" font-family="Arial, sans-serif" font-size="16" font-weight="700">E34_GPIO_SPI_I3C_MST_1V8_10 I-V Combined Curves</text>
<rect x="78" y="52" width="694" height="348" fill="#fbfbfb" stroke="#c8c8c8"/>
<line x1="78.00" y1="52" x2="78.00" y2="400" stroke="#ececec"/>
<text x="78.00" y="422" text-anchor="middle" font-family="Arial, sans-serif" font-size="11">-1.9</text>
<line x1="216.80" y1="52" x2="216.80" y2="400" stroke="#ececec"/>
<text x="216.80" y="422" text-anchor="middle" font-family="Arial, sans-serif" font-size="11">-0.785</text>
<line x1="355.60" y1="52" x2="355.60" y2="400" stroke="#ececec"/>
<text x="355.60" y="422" text-anchor="middle" font-family="Arial, sans-serif" font-size="11">0.338</text>
<line x1="494.40" y1="52" x2="494.40" y2="400" stroke="#ececec"/>
<text x="494.40" y="422" text-anchor="middle" font-family="Arial, sans-serif" font-size="11">1.5</text>
<line x1="633.20" y1="52" x2="633.20" y2="400" stroke="#ececec"/>
<text x="633.20" y="422" text-anchor="middle" font-family="Arial, sans-serif" font-size="11">2.6</text>
<line x1="772.00" y1="52" x2="772.00" y2="400" stroke="#ececec"/>
<text x="772.00" y="422" text-anchor="middle" font-family="Arial, sans-serif" font-size="11">3.7</text>
<line x1="78" y1="400.00" x2="772" y2="400.00" stroke="#ececec"/>
<text x="70" y="404.00" text-anchor="end" font-family="Arial, sans-serif" font-size="11">-1.8</text>
<line x1="78" y1="330.40" x2="772" y2="330.40" stroke="#ececec"/>
<text x="70" y="334.40" text-anchor="end" font-family="Arial, sans-serif" font-size="11">-1.4</text>
<line x1="78" y1="260.80" x2="772" y2="260.80" stroke="#ececec"/>
<text x="70" y="264.80" text-anchor="end" font-family="Arial, sans-serif" font-size="11">-0.988</text>
<line x1="78" y1="191.20" x2="772" y2="191.20" stroke="#ececec"/>
<text x="70" y="195.20" text-anchor="end" font-family="Arial, sans-serif" font-size="11">-0.561</text>
<line x1="78" y1="121.60" x2="772" y2="121.60" stroke="#ececec"/>
<text x="70" y="125.60" text-anchor="end" font-family="Arial, sans-serif" font-size="11">-0.134</text>
<line x1="78" y1="52.00" x2="772" y2="52.00" stroke="#ececec"/>
<text x="70" y="56.00" text-anchor="end" font-family="Arial, sans-serif" font-size="11">0.292</text>
<line x1="313.78" y1="52" x2="313.78" y2="400" stroke="#777" stroke-dasharray="4 4"/>
<line x1="78" y1="99.70" x2="772" y2="99.70" stroke="#777" stroke-dasharray="4 4"/>
<line x1="91.35" y1="52" x2="91.35" y2="400" stroke="#555" stroke-dasharray="2 4"/>
<text x="95.35" y="66" font-family="Arial, sans-serif" font-size="11" fill="#555">-Vcc</text>
<line x1="536.22" y1="52" x2="536.22" y2="400" stroke="#555" stroke-dasharray="2 4"/>
<text x="540.22" y="66" font-family="Arial, sans-serif" font-size="11" fill="#555">Vcc</text>
<line x1="758.65" y1="52" x2="758.65" y2="400" stroke="#555" stroke-dasharray="2 4"/>
<text x="762.65" y="66" font-family="Arial, sans-serif" font-size="11" fill="#555">2Vcc</text>
<polyline fill="none" stroke="#0f766e" stroke-width="2.8" opacity="0.95" stroke-dasharray="6 3" points="91.35,376.00 101.23,353.82 112.35,328.86 122.24,306.68 133.36,281.72 143.25,259.54 154.37,234.58 164.26,212.40 175.38,187.44 185.26,165.26 196.39,140.30 197.62,137.53 198.86,134.75 200.09,131.98 201.33,129.21 202.56,126.44 203.80,123.66 205.04,121.31 206.27,119.42 207.51,117.93 208.74,116.78 209.98,115.90 211.21,115.21 212.45,114.68 213.69,114.25 214.92,113.90 216.16,113.61 217.39,113.35 218.63,113.12 219.86,112.91 221.10,112.72 222.34,112.53 223.57,112.35 224.81,112.17 226.04,112.00 227.28,111.82 228.51,111.64 229.75,111.46 230.99,111.29 232.22,111.11 233.46,110.94 234.69,110.78 237.17,110.45 238.40,110.30 240.87,109.98 242.11,109.81 243.34,109.65 244.58,109.47 245.82,109.30 247.05,109.12 248.29,108.94 249.52,108.78 250.76,108.62 251.99,108.45 253.23,108.28 258.17,107.59 269.29,106.05 279.18,104.65 290.30,103.05 300.19,101.62 311.31,100.04 313.78,99.70 321.20,98.69 331.08,97.42 342.20,96.13 344.68,95.87 352.09,95.12 354.56,94.89 363.21,94.16 371.86,93.54 373.10,93.46 384.22,92.84 394.11,92.43 400.28,92.23 405.23,92.23 415.11,92.23 426.24,92.23 436.12,92.23 437.36,92.23 446.01,92.23 457.13,92.23 467.02,92.23 478.14,92.23 479.37,92.23 488.02,92.23 499.15,92.23 509.03,92.23 513.97,92.23 520.15,92.23 530.04,92.23 536.22,92.23 539.93,92.23 551.05,92.23 558.46,92.23 560.93,92.23 572.05,92.23 581.94,92.23 593.06,92.23 602.95,92.23 609.13,92.23 610.36,92.20 614.07,91.81 623.96,90.78 635.08,89.61 644.96,88.56 654.85,87.51 665.97,86.32 675.86,85.26 686.98,84.05 696.87,82.97 707.99,81.75 717.87,80.65 729.00,79.40 738.88,78.28 750.00,77.00 758.65,76.00"/>
<polyline fill="none" stroke="#7c2d12" stroke-width="2.8" opacity="0.95" stroke-dasharray="6 3" points="91.35,76.00 95.05,76.43 98.76,76.86 101.23,77.15 104.94,77.57 108.65,78.00 112.35,78.42 116.06,78.84 118.53,79.12 119.77,79.26 122.24,79.54 125.95,79.96 128.42,80.24 129.65,80.37 130.89,80.51 132.13,80.65 133.36,80.79 137.07,81.20 140.78,81.61 143.25,81.89 146.96,82.30 150.66,82.70 154.37,83.11 155.61,83.24 156.84,83.38 158.08,83.51 159.31,83.65 161.78,83.92 164.26,84.19 167.96,84.59 171.67,84.99 174.14,85.26 175.38,85.39 177.85,85.66 179.08,85.79 180.32,85.92 181.56,86.05 182.79,86.19 184.03,86.32 185.26,86.45 188.97,86.85 192.68,87.24 196.39,87.64 197.62,87.77 198.86,87.90 200.09,88.03 201.33,88.17 202.56,88.30 203.80,88.43 206.27,88.69 207.51,88.82 208.74,88.95 209.98,89.08 213.69,89.48 216.16,89.74 217.39,89.87 221.10,90.26 223.57,90.52 227.28,90.91 230.99,91.30 234.69,91.68 237.17,91.94 238.40,92.07 239.64,92.20 240.87,92.33 242.11,92.46 244.58,92.71 247.05,92.97 248.29,93.10 250.76,93.35 251.99,93.48 254.47,93.74 255.70,93.86 256.94,93.99 258.17,94.12 259.41,94.24 263.12,94.62 265.59,94.88 269.29,95.26 270.53,95.38 271.77,95.51 273.00,95.64 275.47,95.89 276.71,96.01 277.95,96.14 279.18,96.26 280.42,96.39 281.65,96.51 282.89,96.64 284.12,96.76 286.60,97.01 290.30,97.39 294.01,97.76 297.72,98.13 300.19,98.37 301.42,98.49 302.66,98.61 305.13,98.86 307.60,99.10 308.84,99.22 311.31,99.46 313.78,99.70 321.20,100.39 331.08,101.26 342.20,102.16 352.09,102.89 358.27,103.31 363.21,103.62 370.63,104.06 373.10,104.20 384.22,104.75 390.40,105.03 394.11,105.17 405.23,105.57 415.11,105.85 426.24,106.10 436.12,106.28 446.01,106.42 448.48,106.46 457.13,106.46 463.31,106.46 467.02,106.46 478.14,106.46 488.02,106.46 499.15,106.46 509.03,106.46 513.97,106.46 520.15,106.46 530.04,106.46 536.22,106.46 539.93,106.46 551.05,106.46 558.46,106.46 560.93,106.46 572.05,106.46 583.18,106.46 584.41,106.53 593.06,107.65 602.95,108.78 611.60,109.63 612.83,109.74 617.78,110.15 619.01,110.25 620.25,110.34 621.49,110.43 622.72,110.52 623.96,110.60 625.19,110.69 626.43,110.77 627.66,110.84 628.90,110.92 630.14,110.99 631.37,111.06 632.61,111.12 633.84,111.18 635.08,111.24 636.31,111.29 637.55,111.33 638.79,111.36 640.02,111.37 644.96,111.37 656.09,111.37 658.56,111.37 661.03,111.37 662.26,111.37 663.50,111.37 664.74,111.37 665.97,111.37 667.21,111.37 675.86,111.37 686.98,111.37 696.87,111.37 707.99,111.37 717.87,111.37 729.00,111.37 738.88,111.37 750.00,111.37 758.65,111.37"/>
<line x1="88" y1="70" x2="110" y2="70" stroke="#0f766e" stroke-width="2.8" stroke-dasharray="6 3"/>
<text x="116" y="74" font-family="Arial, sans-serif" font-size="12">[Pulldown]+[GND Clamp]</text>
<line x1="88" y1="88" x2="110" y2="88" stroke="#7c2d12" stroke-width="2.8" stroke-dasharray="6 3"/>
<text x="116" y="92" font-family="Arial, sans-serif" font-size="12">[Pullup]+[POWER Clamp]</text>
<text x="425.00" y="444.00" text-anchor="middle" font-family="Arial, sans-serif" font-size="12">Table voltage (V)</text>
<text transform="translate(18 226.00) rotate(-90)" text-anchor="middle" font-family="Arial, sans-serif" font-size="12">Current (A)</text>
<text x="420" y="42" font-family="Arial, sans-serif" font-size="11" fill="#555">thick dashed=combined typ curves</text>
</svg>