<svg xmlns="http://www.w3.org/2000/svg" width="800" height="560" viewBox="0 0 800 560">
<rect width="100%" height="100%" fill="#ffffff"/>
<text x="78" y="25" font-family="Arial, sans-serif" font-size="16" font-weight="700">E34_GPIO_I2CSCLIN_1V1_11_ISOSW I-V Combined Curves</text>
<rect x="78" y="52" width="694" height="348" fill="#fbfbfb" stroke="#c8c8c8"/>
<line x1="78.00" y1="52" x2="78.00" y2="400" stroke="#ececec"/>
<text x="78.00" y="422" text-anchor="middle" font-family="Arial, sans-serif" font-size="11">-1.2</text>
<line x1="216.80" y1="52" x2="216.80" y2="400" stroke="#ececec"/>
<text x="216.80" y="422" text-anchor="middle" font-family="Arial, sans-serif" font-size="11">-0.48</text>
<line x1="355.60" y1="52" x2="355.60" y2="400" stroke="#ececec"/>
<text x="355.60" y="422" text-anchor="middle" font-family="Arial, sans-serif" font-size="11">0.207</text>
<line x1="494.40" y1="52" x2="494.40" y2="400" stroke="#ececec"/>
<text x="494.40" y="422" text-anchor="middle" font-family="Arial, sans-serif" font-size="11">0.893</text>
<line x1="633.20" y1="52" x2="633.20" y2="400" stroke="#ececec"/>
<text x="633.20" y="422" text-anchor="middle" font-family="Arial, sans-serif" font-size="11">1.6</text>
<line x1="772.00" y1="52" x2="772.00" y2="400" stroke="#ececec"/>
<text x="772.00" y="422" text-anchor="middle" font-family="Arial, sans-serif" font-size="11">2.3</text>
<line x1="78" y1="400.00" x2="772" y2="400.00" stroke="#ececec"/>
<text x="70" y="404.00" text-anchor="end" font-family="Arial, sans-serif" font-size="11">-0.446</text>
<line x1="78" y1="330.40" x2="772" y2="330.40" stroke="#ececec"/>
<text x="70" y="334.40" text-anchor="end" font-family="Arial, sans-serif" font-size="11">-0.346</text>
<line x1="78" y1="260.80" x2="772" y2="260.80" stroke="#ececec"/>
<text x="70" y="264.80" text-anchor="end" font-family="Arial, sans-serif" font-size="11">-0.247</text>
<line x1="78" y1="191.20" x2="772" y2="191.20" stroke="#ececec"/>
<text x="70" y="195.20" text-anchor="end" font-family="Arial, sans-serif" font-size="11">-0.147</text>
<line x1="78" y1="121.60" x2="772" y2="121.60" stroke="#ececec"/>
<text x="70" y="125.60" text-anchor="end" font-family="Arial, sans-serif" font-size="11">-0.0476</text>
<line x1="78" y1="52.00" x2="772" y2="52.00" stroke="#ececec"/>
<text x="70" y="56.00" text-anchor="end" font-family="Arial, sans-serif" font-size="11">0.0519</text>
<line x1="313.78" y1="52" x2="313.78" y2="400" stroke="#777" stroke-dasharray="4 4"/>
<line x1="78" y1="88.31" x2="772" y2="88.31" stroke="#777" stroke-dasharray="4 4"/>
<line x1="91.35" y1="52" x2="91.35" y2="400" stroke="#555" stroke-dasharray="2 4"/>
<text x="95.35" y="66" font-family="Arial, sans-serif" font-size="11" fill="#555">-Vcc</text>
<line x1="536.22" y1="52" x2="536.22" y2="400" stroke="#555" stroke-dasharray="2 4"/>
<text x="540.22" y="66" font-family="Arial, sans-serif" font-size="11" fill="#555">Vcc</text>
<line x1="758.65" y1="52" x2="758.65" y2="400" stroke="#555" stroke-dasharray="2 4"/>
<text x="762.65" y="66" font-family="Arial, sans-serif" font-size="11" fill="#555">2Vcc</text>
<polyline fill="none" stroke="#0f766e" stroke-width="2.8" opacity="0.95" stroke-dasharray="6 3" points="91.35,376.00 101.46,316.57 111.57,257.13 117.63,221.47 119.66,209.58 121.68,197.70 123.70,185.81 125.72,173.92 127.74,162.03 129.77,150.15 131.79,139.64 133.81,130.69 135.83,123.22 137.86,117.14 139.88,112.30 141.90,108.54 143.92,105.68 145.94,103.54 147.97,101.96 149.99,100.80 152.01,99.95 154.03,99.31 156.05,98.82 158.08,98.45 160.10,98.15 162.12,97.90 164.14,97.69 166.17,97.50 168.19,97.32 170.21,97.16 172.23,97.01 174.25,96.87 176.28,96.73 178.30,96.59 180.32,96.45 182.34,96.31 184.36,96.18 186.39,96.05 188.41,95.91 190.43,95.78 192.45,95.64 194.48,95.52 196.50,95.38 198.52,95.26 200.54,95.13 202.56,95.00 204.59,94.86 206.61,94.73 208.63,94.61 212.67,94.35 214.70,94.22 216.72,94.08 220.76,93.83 224.81,93.58 226.83,93.44 236.94,92.81 249.07,92.07 259.18,91.45 269.29,90.85 279.41,90.25 289.52,89.67 299.63,89.09 311.76,88.42 313.78,88.31 321.87,87.88 331.98,87.36 342.09,86.85 352.20,86.36 362.31,85.90 374.45,85.38 384.56,84.98 394.67,84.62 404.78,84.31 414.89,84.04 427.02,83.80 429.04,83.77 431.07,83.74 435.11,83.69 437.13,83.66 441.18,83.62 443.20,83.61 447.24,83.58 449.27,83.56 453.31,83.54 455.33,83.53 457.35,83.52 459.38,83.51 461.40,83.50 463.42,83.50 465.44,83.49 467.47,83.48 469.49,83.47 473.53,83.46 477.58,83.45 481.62,83.44 489.71,83.42 499.82,83.40 509.93,83.38 513.97,83.38 520.04,83.37 530.15,83.35 536.22,83.34 540.26,83.34 552.40,83.32 558.46,83.31 562.51,83.31 572.62,83.30 582.73,83.29 592.84,83.28 602.95,83.27 615.08,83.25 625.19,83.25 635.30,83.24 645.41,83.22 655.52,83.21 665.64,83.20 677.77,83.17 687.88,83.14 697.99,83.09 708.10,83.03 718.21,82.94 728.32,82.82 740.45,82.65 750.57,82.48 758.65,82.32"/>
<polyline fill="none" stroke="#7c2d12" stroke-width="2.8" opacity="0.95" stroke-dasharray="6 3" points="91.35,76.00 93.37,76.11 95.39,76.22 97.41,76.33 101.46,76.55 105.50,76.78 107.52,76.89 109.55,77.00 111.57,77.11 113.59,77.23 115.61,77.34 117.63,77.45 119.66,77.57 121.68,77.68 123.70,77.79 125.72,77.91 127.74,78.02 129.77,78.14 131.79,78.25 133.81,78.37 135.83,78.48 137.86,78.60 139.88,78.71 141.90,78.83 143.92,78.94 145.94,79.06 147.97,79.17 149.99,79.29 152.01,79.40 154.03,79.52 156.05,79.63 158.08,79.75 160.10,79.86 162.12,79.98 164.14,80.09 166.17,80.21 168.19,80.32 172.23,80.55 174.25,80.67 176.28,80.78 178.30,80.90 180.32,81.01 182.34,81.13 184.36,81.24 186.39,81.36 188.41,81.47 190.43,81.59 192.45,81.70 194.48,81.82 196.50,81.93 198.52,82.04 200.54,82.16 204.59,82.38 206.61,82.50 208.63,82.61 210.65,82.72 214.70,82.95 216.72,83.06 220.76,83.28 222.79,83.39 224.81,83.50 226.83,83.62 228.85,83.73 230.87,83.84 234.92,84.06 236.94,84.17 238.96,84.28 240.98,84.39 243.01,84.50 245.03,84.61 249.07,84.83 251.10,84.94 253.12,85.05 257.16,85.26 259.18,85.37 263.23,85.59 267.27,85.81 269.29,85.92 271.32,86.03 273.34,86.14 275.36,86.25 277.38,86.36 279.41,86.46 281.43,86.57 283.45,86.68 285.47,86.79 287.49,86.90 289.52,87.01 291.54,87.11 293.56,87.22 295.58,87.33 297.60,87.44 299.63,87.55 301.65,87.66 303.67,87.77 305.69,87.88 307.72,87.98 309.74,88.09 311.76,88.20 313.78,88.31 321.87,88.75 331.98,89.26 344.11,89.85 346.14,89.95 348.16,90.04 350.18,90.13 354.22,90.32 362.31,90.68 374.45,91.19 384.56,91.59 394.67,91.94 404.78,92.26 412.87,92.49 414.89,92.54 416.91,92.59 418.93,92.63 420.96,92.68 422.98,92.72 425.00,92.76 427.02,92.79 429.04,92.83 431.07,92.86 433.09,92.89 435.11,92.91 437.13,92.94 439.16,92.96 443.20,93.00 445.22,93.02 447.24,93.03 451.29,93.06 455.33,93.08 457.35,93.09 459.38,93.11 461.40,93.12 463.42,93.12 465.44,93.13 467.47,93.14 469.49,93.15 471.51,93.16 473.53,93.17 475.55,93.18 479.60,93.19 487.69,93.22 489.71,93.23 499.82,93.26 509.93,93.29 513.97,93.30 520.04,93.32 530.15,93.34 536.22,93.36 540.26,93.37 552.40,93.39 558.46,93.41 562.51,93.41 572.62,93.43 582.73,93.45 592.84,93.47 602.95,93.48 615.08,93.48 625.19,93.48 635.30,93.48 645.41,93.48 655.52,93.48 665.64,93.48 677.77,93.48 687.88,93.48 697.99,93.48 708.10,93.48 718.21,93.48 728.32,93.48 740.45,93.48 750.57,93.48 758.65,93.48"/>
<line x1="88" y1="70" x2="110" y2="70" stroke="#0f766e" stroke-width="2.8" stroke-dasharray="6 3"/>
<text x="116" y="74" font-family="Arial, sans-serif" font-size="12">[Pulldown]+[GND Clamp]</text>
<line x1="88" y1="88" x2="110" y2="88" stroke="#7c2d12" stroke-width="2.8" stroke-dasharray="6 3"/>
<text x="116" y="92" font-family="Arial, sans-serif" font-size="12">[Pullup]+[POWER Clamp]</text>
<rect x="78" y="464" width="694" height="44" fill="#fffdf7" stroke="#d8c6a1" rx="4"/>
<text x="88" y="481" font-family="Arial, sans-serif" font-size="11" font-weight="700" fill="#4b3b21">Findings needing attention</text>
<rect x="88" y="488" width="7" height="7" fill="#b54708"/>
<text x="102" y="495" font-family="Arial, sans-serif" font-size="11" fill="#333">WARN 5.3.6: I-V stair-step evidence needs review | [GND Clamp]: roughness=0.213 &gt; 0.1</text>
<text x="425.00" y="444.00" text-anchor="middle" font-family="Arial, sans-serif" font-size="12">Table voltage (V)</text>
<text transform="translate(18 226.00) rotate(-90)" text-anchor="middle" font-family="Arial, sans-serif" font-size="12">Current (A)</text>
<text x="420" y="42" font-family="Arial, sans-serif" font-size="11" fill="#555">thick dashed=combined typ curves</text>
</svg>