<svg xmlns="http://www.w3.org/2000/svg" width="800" height="560" viewBox="0 0 800 560">
<rect width="100%" height="100%" fill="#ffffff"/>
<text x="78" y="25" font-family="Arial, sans-serif" font-size="16" font-weight="700">E34_GPIO_I2CSCLIN_1V8_00 I-V Combined Curves</text>
<rect x="78" y="52" width="694" height="348" fill="#fbfbfb" stroke="#c8c8c8"/>
<line x1="78.00" y1="52" x2="78.00" y2="400" stroke="#ececec"/>
<text x="78.00" y="422" text-anchor="middle" font-family="Arial, sans-serif" font-size="11">-1.9</text>
<line x1="216.80" y1="52" x2="216.80" y2="400" stroke="#ececec"/>
<text x="216.80" y="422" text-anchor="middle" font-family="Arial, sans-serif" font-size="11">-0.785</text>
<line x1="355.60" y1="52" x2="355.60" y2="400" stroke="#ececec"/>
<text x="355.60" y="422" text-anchor="middle" font-family="Arial, sans-serif" font-size="11">0.338</text>
<line x1="494.40" y1="52" x2="494.40" y2="400" stroke="#ececec"/>
<text x="494.40" y="422" text-anchor="middle" font-family="Arial, sans-serif" font-size="11">1.5</text>
<line x1="633.20" y1="52" x2="633.20" y2="400" stroke="#ececec"/>
<text x="633.20" y="422" text-anchor="middle" font-family="Arial, sans-serif" font-size="11">2.6</text>
<line x1="772.00" y1="52" x2="772.00" y2="400" stroke="#ececec"/>
<text x="772.00" y="422" text-anchor="middle" font-family="Arial, sans-serif" font-size="11">3.7</text>
<line x1="78" y1="400.00" x2="772" y2="400.00" stroke="#ececec"/>
<text x="70" y="404.00" text-anchor="end" font-family="Arial, sans-serif" font-size="11">-1.7</text>
<line x1="78" y1="330.40" x2="772" y2="330.40" stroke="#ececec"/>
<text x="70" y="334.40" text-anchor="end" font-family="Arial, sans-serif" font-size="11">-1.3</text>
<line x1="78" y1="260.80" x2="772" y2="260.80" stroke="#ececec"/>
<text x="70" y="264.80" text-anchor="end" font-family="Arial, sans-serif" font-size="11">-0.975</text>
<line x1="78" y1="191.20" x2="772" y2="191.20" stroke="#ececec"/>
<text x="70" y="195.20" text-anchor="end" font-family="Arial, sans-serif" font-size="11">-0.601</text>
<line x1="78" y1="121.60" x2="772" y2="121.60" stroke="#ececec"/>
<text x="70" y="125.60" text-anchor="end" font-family="Arial, sans-serif" font-size="11">-0.226</text>
<line x1="78" y1="52.00" x2="772" y2="52.00" stroke="#ececec"/>
<text x="70" y="56.00" text-anchor="end" font-family="Arial, sans-serif" font-size="11">0.148</text>
<line x1="313.78" y1="52" x2="313.78" y2="400" stroke="#777" stroke-dasharray="4 4"/>
<line x1="78" y1="79.51" x2="772" y2="79.51" stroke="#777" stroke-dasharray="4 4"/>
<line x1="91.35" y1="52" x2="91.35" y2="400" stroke="#555" stroke-dasharray="2 4"/>
<text x="95.35" y="66" font-family="Arial, sans-serif" font-size="11" fill="#555">-Vcc</text>
<line x1="536.22" y1="52" x2="536.22" y2="400" stroke="#555" stroke-dasharray="2 4"/>
<text x="540.22" y="66" font-family="Arial, sans-serif" font-size="11" fill="#555">Vcc</text>
<line x1="758.65" y1="52" x2="758.65" y2="400" stroke="#555" stroke-dasharray="2 4"/>
<text x="762.65" y="66" font-family="Arial, sans-serif" font-size="11" fill="#555">2Vcc</text>
<polyline fill="none" stroke="#0f766e" stroke-width="2.8" opacity="0.95" stroke-dasharray="6 3" points="91.35,376.00 101.23,350.71 112.35,322.25 122.24,296.96 133.36,268.50 143.25,243.21 154.37,214.76 164.26,189.47 175.38,161.01 185.26,135.72 193.91,113.59 195.15,110.43 196.39,107.27 197.62,104.10 198.86,100.94 200.09,97.78 201.33,94.62 202.56,91.81 203.80,89.41 205.04,87.42 206.27,85.80 207.51,84.51 208.74,83.51 209.98,82.75 211.21,82.19 212.45,81.78 213.69,81.48 214.92,81.27 216.16,81.12 217.39,81.00 218.63,80.92 219.86,80.85 221.10,80.80 222.34,80.76 223.57,80.73 224.81,80.70 226.04,80.68 227.28,80.65 228.51,80.63 229.75,80.61 230.99,80.59 232.22,80.57 234.69,80.53 235.93,80.52 237.17,80.50 238.40,80.48 239.64,80.47 240.87,80.45 242.11,80.43 243.34,80.42 244.58,80.40 245.82,80.38 247.05,80.36 248.29,80.35 249.52,80.33 250.76,80.32 251.99,80.30 253.23,80.29 254.47,80.27 255.70,80.25 256.94,80.24 258.17,80.22 259.41,80.20 260.64,80.19 261.88,80.17 269.29,80.07 279.18,79.95 290.30,79.81 300.19,79.68 311.31,79.54 313.78,79.51 321.20,79.42 331.08,79.30 338.50,79.22 342.20,79.17 352.09,79.07 357.03,79.02 363.21,78.96 373.10,78.87 378.04,78.83 384.22,78.78 394.11,78.72 405.23,78.66 415.11,78.61 426.24,78.58 436.12,78.56 446.01,78.54 457.13,78.53 467.02,78.52 478.14,78.51 488.02,78.51 494.20,78.50 499.15,78.50 502.85,78.50 507.80,78.49 509.03,78.49 513.97,78.49 520.15,78.49 530.04,78.49 536.22,78.48 539.93,78.48 551.05,78.48 558.46,78.47 560.93,78.47 572.05,78.47 581.94,78.47 593.06,78.46 602.95,78.46 614.07,78.45 623.96,78.43 635.08,78.38 644.96,78.32 654.85,78.24 661.03,78.17 663.50,78.15 664.74,78.13 665.97,78.12 667.21,78.11 669.68,78.08 670.92,78.06 673.39,78.03 675.86,78.00 685.74,77.87 686.98,77.85 688.22,77.84 690.69,77.80 695.63,77.73 696.87,77.71 707.99,77.55 717.87,77.39 729.00,77.21 738.88,77.04 750.00,76.84 758.65,76.69"/>
<polyline fill="none" stroke="#7c2d12" stroke-width="2.8" opacity="0.95" stroke-dasharray="6 3" points="91.35,76.00 93.82,76.05 95.05,76.07 98.76,76.14 101.23,76.19 104.94,76.26 108.65,76.33 112.35,76.40 114.83,76.44 116.06,76.46 119.77,76.53 121.00,76.56 122.24,76.58 123.48,76.60 124.71,76.62 125.95,76.65 129.65,76.71 132.13,76.76 133.36,76.78 134.60,76.80 135.83,76.83 137.07,76.85 140.78,76.92 142.01,76.94 143.25,76.96 145.72,77.01 146.96,77.03 150.66,77.09 154.37,77.16 155.61,77.18 156.84,77.20 158.08,77.22 161.78,77.29 163.02,77.31 164.26,77.33 166.73,77.37 167.96,77.39 171.67,77.46 175.38,77.52 179.08,77.58 180.32,77.60 182.79,77.65 185.26,77.69 186.50,77.71 188.97,77.75 190.21,77.77 192.68,77.81 196.39,77.87 197.62,77.89 198.86,77.91 200.09,77.93 201.33,77.95 203.80,77.98 205.04,78.00 206.27,78.02 209.98,78.08 211.21,78.10 213.69,78.14 216.16,78.18 217.39,78.19 221.10,78.25 223.57,78.29 224.81,78.30 227.28,78.34 228.51,78.36 230.99,78.39 233.46,78.43 234.69,78.45 237.17,78.48 238.40,78.50 242.11,78.55 244.58,78.59 248.29,78.64 249.52,78.65 251.99,78.69 255.70,78.74 256.94,78.76 258.17,78.77 259.41,78.79 263.12,78.84 265.59,78.87 266.82,78.89 268.06,78.91 269.29,78.92 273.00,78.97 275.47,79.00 276.71,79.02 279.18,79.05 280.42,79.07 282.89,79.10 284.12,79.12 286.60,79.15 287.83,79.17 289.07,79.18 290.30,79.20 294.01,79.25 295.25,79.27 297.72,79.30 298.95,79.31 300.19,79.33 301.42,79.35 302.66,79.36 303.90,79.38 305.13,79.40 306.37,79.41 307.60,79.43 308.84,79.44 310.07,79.46 311.31,79.48 313.78,79.51 321.20,79.60 323.67,79.64 324.90,79.65 326.14,79.67 331.08,79.73 342.20,79.86 352.09,79.97 363.21,80.09 373.10,80.19 384.22,80.29 394.11,80.38 405.23,80.46 415.11,80.53 426.24,80.59 436.12,80.64 446.01,80.68 457.13,80.72 467.02,80.75 473.19,80.76 475.67,80.77 479.37,80.77 481.84,80.78 488.02,80.79 489.26,80.79 492.97,80.80 494.20,80.80 499.15,80.80 509.03,80.82 513.97,80.82 520.15,80.83 530.04,80.84 536.22,80.85 539.93,80.85 551.05,80.86 558.46,80.87 560.93,80.87 572.05,80.87 578.23,80.88 581.94,80.88 588.12,80.88 594.30,80.88 598.01,80.88 601.71,80.88 605.42,80.88 614.07,80.88 623.96,80.88 635.08,80.88 644.96,80.88 654.85,80.88 665.97,80.88 675.86,80.88 686.98,80.88 696.87,80.88 707.99,80.88 717.87,80.88 729.00,80.88 738.88,80.88 750.00,80.88 758.65,80.88"/>
<line x1="88" y1="70" x2="110" y2="70" stroke="#0f766e" stroke-width="2.8" stroke-dasharray="6 3"/>
<text x="116" y="74" font-family="Arial, sans-serif" font-size="12">[Pulldown]+[GND Clamp]</text>
<line x1="88" y1="88" x2="110" y2="88" stroke="#7c2d12" stroke-width="2.8" stroke-dasharray="6 3"/>
<text x="116" y="92" font-family="Arial, sans-serif" font-size="12">[Pullup]+[POWER Clamp]</text>
<text x="425.00" y="444.00" text-anchor="middle" font-family="Arial, sans-serif" font-size="12">Table voltage (V)</text>
<text transform="translate(18 226.00) rotate(-90)" text-anchor="middle" font-family="Arial, sans-serif" font-size="12">Current (A)</text>
<text x="420" y="42" font-family="Arial, sans-serif" font-size="11" fill="#555">thick dashed=combined typ curves</text>
</svg>