<svg xmlns="http://www.w3.org/2000/svg" width="800" height="560" viewBox="0 0 800 560">
<rect width="100%" height="100%" fill="#ffffff"/>
<text x="78" y="25" font-family="Arial, sans-serif" font-size="16" font-weight="700">E34_GPIO_I2CSCLIN_3V3_01_ISOSW I-V Combined Curves</text>
<rect x="78" y="52" width="694" height="348" fill="#fbfbfb" stroke="#c8c8c8"/>
<line x1="78.00" y1="52" x2="78.00" y2="400" stroke="#ececec"/>
<text x="78.00" y="422" text-anchor="middle" font-family="Arial, sans-serif" font-size="11">-3.5</text>
<line x1="216.80" y1="52" x2="216.80" y2="400" stroke="#ececec"/>
<text x="216.80" y="422" text-anchor="middle" font-family="Arial, sans-serif" font-size="11">-1.4</text>
<line x1="355.60" y1="52" x2="355.60" y2="400" stroke="#ececec"/>
<text x="355.60" y="422" text-anchor="middle" font-family="Arial, sans-serif" font-size="11">0.62</text>
<line x1="494.40" y1="52" x2="494.40" y2="400" stroke="#ececec"/>
<text x="494.40" y="422" text-anchor="middle" font-family="Arial, sans-serif" font-size="11">2.7</text>
<line x1="633.20" y1="52" x2="633.20" y2="400" stroke="#ececec"/>
<text x="633.20" y="422" text-anchor="middle" font-family="Arial, sans-serif" font-size="11">4.7</text>
<line x1="772.00" y1="52" x2="772.00" y2="400" stroke="#ececec"/>
<text x="772.00" y="422" text-anchor="middle" font-family="Arial, sans-serif" font-size="11">6.8</text>
<line x1="78" y1="400.00" x2="772" y2="400.00" stroke="#ececec"/>
<text x="70" y="404.00" text-anchor="end" font-family="Arial, sans-serif" font-size="11">-4.7</text>
<line x1="78" y1="330.40" x2="772" y2="330.40" stroke="#ececec"/>
<text x="70" y="334.40" text-anchor="end" font-family="Arial, sans-serif" font-size="11">-3.1</text>
<line x1="78" y1="260.80" x2="772" y2="260.80" stroke="#ececec"/>
<text x="70" y="264.80" text-anchor="end" font-family="Arial, sans-serif" font-size="11">-1.6</text>
<line x1="78" y1="191.20" x2="772" y2="191.20" stroke="#ececec"/>
<text x="70" y="195.20" text-anchor="end" font-family="Arial, sans-serif" font-size="11">-0.0423</text>
<line x1="78" y1="121.60" x2="772" y2="121.60" stroke="#ececec"/>
<text x="70" y="125.60" text-anchor="end" font-family="Arial, sans-serif" font-size="11">1.5</text>
<line x1="78" y1="52.00" x2="772" y2="52.00" stroke="#ececec"/>
<text x="70" y="56.00" text-anchor="end" font-family="Arial, sans-serif" font-size="11">3.1</text>
<line x1="313.78" y1="52" x2="313.78" y2="400" stroke="#777" stroke-dasharray="4 4"/>
<line x1="78" y1="189.30" x2="772" y2="189.30" stroke="#777" stroke-dasharray="4 4"/>
<line x1="91.35" y1="52" x2="91.35" y2="400" stroke="#555" stroke-dasharray="2 4"/>
<text x="95.35" y="66" font-family="Arial, sans-serif" font-size="11" fill="#555">-Vcc</text>
<line x1="536.22" y1="52" x2="536.22" y2="400" stroke="#555" stroke-dasharray="2 4"/>
<text x="540.22" y="66" font-family="Arial, sans-serif" font-size="11" fill="#555">Vcc</text>
<line x1="758.65" y1="52" x2="758.65" y2="400" stroke="#555" stroke-dasharray="2 4"/>
<text x="762.65" y="66" font-family="Arial, sans-serif" font-size="11" fill="#555">2Vcc</text>
<polyline fill="none" stroke="#0f766e" stroke-width="2.8" opacity="0.95" stroke-dasharray="6 3" points="91.35,376.00 101.46,364.54 112.24,352.32 122.35,340.86 133.14,328.64 143.25,317.18 154.03,304.96 164.14,293.50 174.93,281.28 185.04,269.83 195.82,257.60 205.93,246.15 216.72,233.93 226.83,222.47 237.61,210.25 247.73,198.79 248.40,198.02 249.07,197.26 249.75,196.50 250.42,195.73 251.10,194.97 251.77,194.21 252.44,193.44 253.12,192.74 253.79,192.14 254.47,191.64 255.14,191.23 255.81,190.91 256.49,190.65 257.16,190.46 257.84,190.32 258.51,190.21 259.18,190.13 259.86,190.07 260.53,190.03 261.21,190.00 261.88,189.97 262.55,189.95 263.23,189.94 263.90,189.92 264.58,189.91 265.25,189.90 265.92,189.89 266.60,189.88 267.27,189.87 268.62,189.86 269.97,189.84 270.64,189.83 271.99,189.82 272.67,189.81 273.34,189.80 274.01,189.79 275.36,189.78 276.04,189.77 276.71,189.76 277.38,189.75 278.06,189.74 278.73,189.73 279.41,189.72 280.08,189.71 280.75,189.71 281.43,189.70 282.10,189.69 283.45,189.67 284.12,189.67 289.52,189.60 300.30,189.46 310.41,189.34 313.78,189.30 321.20,189.21 331.31,189.08 342.09,188.95 352.20,188.83 362.99,188.70 373.10,188.59 383.88,188.46 393.99,188.35 396.69,188.32 404.78,188.23 414.89,188.12 419.61,188.07 425.67,188.01 431.74,187.95 433.76,187.93 435.78,187.91 437.13,187.89 442.53,187.84 445.90,187.81 456.68,187.71 466.79,187.63 477.58,187.54 487.69,187.47 498.47,187.41 508.58,187.36 516.00,187.32 519.37,187.31 529.48,187.28 536.22,187.26 540.26,187.25 550.37,187.24 556.44,187.23 561.16,187.22 571.27,187.21 582.05,187.21 592.16,187.20 602.95,187.19 613.06,187.17 623.84,187.16 633.95,187.15 643.39,187.14 644.07,187.14 644.74,187.14 645.41,187.14 654.85,187.13 663.61,187.11 665.64,187.11 675.75,187.11 680.46,187.11 681.14,187.11 682.49,187.11 686.53,187.11 696.64,187.11 707.43,187.11 717.54,187.11 728.32,187.11 738.43,187.11 749.22,187.11 758.65,187.11"/>
<polyline fill="none" stroke="#7c2d12" stroke-width="2.8" opacity="0.95" stroke-dasharray="6 3" points="91.35,76.00 94.72,79.82 98.09,83.64 101.46,87.46 102.13,88.22 105.50,92.04 108.87,95.86 112.24,99.68 115.61,103.50 118.98,107.32 122.35,111.14 123.03,111.90 125.05,114.19 125.72,114.96 126.40,115.72 129.77,119.54 133.14,123.36 136.51,127.18 139.88,131.00 143.25,134.82 143.92,135.58 147.29,139.40 150.66,143.22 154.03,147.04 157.40,150.86 160.77,154.68 164.14,158.50 164.82,159.26 168.19,163.08 171.56,166.90 174.93,170.72 178.30,174.54 181.67,178.36 184.36,181.41 185.04,182.17 185.71,182.94 186.39,183.70 187.06,184.38 187.74,184.95 188.41,185.41 189.08,185.80 189.76,186.11 190.43,186.38 191.11,186.60 191.78,186.78 192.45,186.93 193.13,187.06 193.80,187.17 194.48,187.26 195.15,187.33 195.82,187.40 196.50,187.45 197.17,187.50 197.85,187.54 198.52,187.57 199.19,187.60 199.87,187.63 200.54,187.65 201.22,187.68 201.89,187.70 202.56,187.71 203.24,187.73 203.91,187.75 204.59,187.76 205.26,187.78 205.93,187.79 206.61,187.80 207.28,187.82 207.96,187.83 208.63,187.84 209.30,187.85 209.98,187.86 210.65,187.87 213.35,187.92 216.72,187.97 220.09,188.02 224.13,188.08 226.83,188.13 227.50,188.14 230.87,188.19 234.24,188.24 237.61,188.29 240.98,188.34 245.03,188.40 247.73,188.44 248.40,188.45 251.77,188.50 255.14,188.55 258.51,188.59 261.88,188.64 265.92,188.69 268.62,188.73 269.29,188.73 272.67,188.78 276.04,188.82 279.41,188.86 282.78,188.90 286.82,188.96 289.52,188.99 290.19,189.00 293.56,189.04 296.93,189.08 300.30,189.13 303.67,189.17 307.72,189.22 310.41,189.25 311.09,189.26 313.78,189.30 321.20,189.39 331.31,189.52 342.09,189.66 352.20,189.78 362.99,189.92 373.10,190.04 383.88,190.17 393.99,190.29 404.78,190.41 414.89,190.53 425.67,190.65 427.70,190.67 430.39,190.70 433.09,190.73 435.78,190.76 445.90,190.87 456.68,190.98 466.79,191.09 477.58,191.19 487.69,191.29 498.47,191.39 508.58,191.48 516.00,191.54 519.37,191.57 529.48,191.65 536.22,191.69 540.26,191.72 550.37,191.79 556.44,191.83 561.16,191.85 564.53,191.87 565.20,191.87 566.55,191.87 567.90,191.88 569.25,191.88 570.59,191.88 571.27,191.88 572.62,191.88 582.05,191.88 583.40,191.88 584.75,191.88 585.42,191.88 586.10,191.88 586.77,191.88 587.45,191.88 588.12,191.88 588.79,191.88 589.47,191.88 590.14,191.88 590.82,191.88 591.49,191.88 592.16,191.88 592.84,191.88 593.51,191.88 594.19,191.88 594.86,191.88 602.95,191.88 613.06,191.88 623.84,191.88 633.95,191.88 644.74,191.88 654.85,191.88 665.64,191.88 675.75,191.88 686.53,191.88 696.64,191.88 707.43,191.88 717.54,191.88 728.32,191.88 738.43,191.88 749.22,191.88 758.65,191.88"/>
<line x1="88" y1="70" x2="110" y2="70" stroke="#0f766e" stroke-width="2.8" stroke-dasharray="6 3"/>
<text x="116" y="74" font-family="Arial, sans-serif" font-size="12">[Pulldown]+[GND Clamp]</text>
<line x1="88" y1="88" x2="110" y2="88" stroke="#7c2d12" stroke-width="2.8" stroke-dasharray="6 3"/>
<text x="116" y="92" font-family="Arial, sans-serif" font-size="12">[Pullup]+[POWER Clamp]</text>
<text x="425.00" y="444.00" text-anchor="middle" font-family="Arial, sans-serif" font-size="12">Table voltage (V)</text>
<text transform="translate(18 226.00) rotate(-90)" text-anchor="middle" font-family="Arial, sans-serif" font-size="12">Current (A)</text>
<text x="420" y="42" font-family="Arial, sans-serif" font-size="11" fill="#555">thick dashed=combined typ curves</text>
</svg>