<svg xmlns="http://www.w3.org/2000/svg" width="800" height="560" viewBox="0 0 800 560">
<rect width="100%" height="100%" fill="#ffffff"/>
<text x="78" y="25" font-family="Arial, sans-serif" font-size="16" font-weight="700">E34_GPIO_I2CSCLIN_1V1_01_ISOSW I-V Combined Curves</text>
<rect x="78" y="52" width="694" height="348" fill="#fbfbfb" stroke="#c8c8c8"/>
<line x1="78.00" y1="52" x2="78.00" y2="400" stroke="#ececec"/>
<text x="78.00" y="422" text-anchor="middle" font-family="Arial, sans-serif" font-size="11">-1.2</text>
<line x1="216.80" y1="52" x2="216.80" y2="400" stroke="#ececec"/>
<text x="216.80" y="422" text-anchor="middle" font-family="Arial, sans-serif" font-size="11">-0.48</text>
<line x1="355.60" y1="52" x2="355.60" y2="400" stroke="#ececec"/>
<text x="355.60" y="422" text-anchor="middle" font-family="Arial, sans-serif" font-size="11">0.207</text>
<line x1="494.40" y1="52" x2="494.40" y2="400" stroke="#ececec"/>
<text x="494.40" y="422" text-anchor="middle" font-family="Arial, sans-serif" font-size="11">0.893</text>
<line x1="633.20" y1="52" x2="633.20" y2="400" stroke="#ececec"/>
<text x="633.20" y="422" text-anchor="middle" font-family="Arial, sans-serif" font-size="11">1.6</text>
<line x1="772.00" y1="52" x2="772.00" y2="400" stroke="#ececec"/>
<text x="772.00" y="422" text-anchor="middle" font-family="Arial, sans-serif" font-size="11">2.3</text>
<line x1="78" y1="400.00" x2="772" y2="400.00" stroke="#ececec"/>
<text x="70" y="404.00" text-anchor="end" font-family="Arial, sans-serif" font-size="11">-0.441</text>
<line x1="78" y1="330.40" x2="772" y2="330.40" stroke="#ececec"/>
<text x="70" y="334.40" text-anchor="end" font-family="Arial, sans-serif" font-size="11">-0.343</text>
<line x1="78" y1="260.80" x2="772" y2="260.80" stroke="#ececec"/>
<text x="70" y="264.80" text-anchor="end" font-family="Arial, sans-serif" font-size="11">-0.246</text>
<line x1="78" y1="191.20" x2="772" y2="191.20" stroke="#ececec"/>
<text x="70" y="195.20" text-anchor="end" font-family="Arial, sans-serif" font-size="11">-0.148</text>
<line x1="78" y1="121.60" x2="772" y2="121.60" stroke="#ececec"/>
<text x="70" y="125.60" text-anchor="end" font-family="Arial, sans-serif" font-size="11">-0.0509</text>
<line x1="78" y1="52.00" x2="772" y2="52.00" stroke="#ececec"/>
<text x="70" y="56.00" text-anchor="end" font-family="Arial, sans-serif" font-size="11">0.0466</text>
<line x1="313.78" y1="52" x2="313.78" y2="400" stroke="#777" stroke-dasharray="4 4"/>
<line x1="78" y1="85.30" x2="772" y2="85.30" stroke="#777" stroke-dasharray="4 4"/>
<line x1="91.35" y1="52" x2="91.35" y2="400" stroke="#555" stroke-dasharray="2 4"/>
<text x="95.35" y="66" font-family="Arial, sans-serif" font-size="11" fill="#555">-Vcc</text>
<line x1="536.22" y1="52" x2="536.22" y2="400" stroke="#555" stroke-dasharray="2 4"/>
<text x="540.22" y="66" font-family="Arial, sans-serif" font-size="11" fill="#555">Vcc</text>
<line x1="758.65" y1="52" x2="758.65" y2="400" stroke="#555" stroke-dasharray="2 4"/>
<text x="762.65" y="66" font-family="Arial, sans-serif" font-size="11" fill="#555">2Vcc</text>
<polyline fill="none" stroke="#0f766e" stroke-width="2.8" opacity="0.95" stroke-dasharray="6 3" points="91.35,376.00 101.46,315.33 111.57,254.65 117.63,218.25 119.66,206.11 121.68,193.98 123.70,181.85 125.72,169.71 127.74,157.57 129.77,145.44 131.79,134.74 133.81,125.63 135.83,118.04 137.86,111.86 139.88,106.94 141.90,103.13 143.92,100.24 145.94,98.09 147.97,96.50 149.99,95.34 152.01,94.50 154.03,93.88 156.05,93.42 158.08,93.07 160.10,92.79 162.12,92.57 164.14,92.38 166.17,92.22 168.19,92.07 170.21,91.94 172.23,91.82 174.25,91.70 176.28,91.59 178.30,91.48 180.32,91.37 182.34,91.26 184.36,91.16 186.39,91.05 188.41,90.95 190.43,90.85 192.45,90.75 194.48,90.64 196.50,90.54 198.52,90.44 200.54,90.34 202.56,90.24 204.59,90.14 206.61,90.03 208.63,89.94 210.65,89.84 212.67,89.74 214.70,89.64 216.72,89.54 218.74,89.45 220.76,89.35 222.79,89.25 224.81,89.16 226.83,89.05 236.94,88.58 249.07,88.01 259.18,87.56 269.29,87.11 279.41,86.67 289.52,86.25 299.63,85.84 311.76,85.37 313.78,85.30 321.87,85.00 331.98,84.65 334.00,84.58 342.09,84.32 350.18,84.08 352.20,84.02 362.31,83.74 374.45,83.45 382.53,83.29 384.56,83.25 394.67,83.09 404.78,82.97 410.84,82.92 412.87,82.91 414.89,82.89 416.91,82.88 418.93,82.87 420.96,82.86 422.98,82.85 425.00,82.84 427.02,82.84 429.04,82.83 437.13,82.81 447.24,82.79 457.35,82.77 467.47,82.76 477.58,82.75 487.69,82.74 489.71,82.74 495.78,82.73 499.82,82.73 509.93,82.72 513.97,82.72 520.04,82.72 530.15,82.71 536.22,82.71 540.26,82.70 552.40,82.70 558.46,82.69 562.51,82.69 572.62,82.69 582.73,82.68 592.84,82.68 602.95,82.67 615.08,82.66 625.19,82.66 635.30,82.65 645.41,82.65 655.52,82.63 665.64,82.60 677.77,82.53 687.88,82.45 697.99,82.33 708.10,82.19 718.21,82.03 728.32,81.84 740.45,81.58 750.57,81.35 758.65,81.15"/>
<polyline fill="none" stroke="#7c2d12" stroke-width="2.8" opacity="0.95" stroke-dasharray="6 3" points="91.35,76.00 93.37,76.09 95.39,76.18 97.41,76.28 101.46,76.46 105.50,76.64 107.52,76.73 109.55,76.83 111.57,76.92 113.59,77.01 115.61,77.10 117.63,77.19 119.66,77.29 121.68,77.38 123.70,77.47 125.72,77.56 127.74,77.65 129.77,77.74 131.79,77.84 133.81,77.93 135.83,78.02 137.86,78.11 139.88,78.20 141.90,78.29 143.92,78.38 145.94,78.48 147.97,78.57 149.99,78.66 152.01,78.75 154.03,78.84 156.05,78.93 158.08,79.02 160.10,79.11 162.12,79.20 164.14,79.29 166.17,79.38 168.19,79.47 172.23,79.65 174.25,79.73 176.28,79.82 178.30,79.91 180.32,80.00 182.34,80.09 184.36,80.18 186.39,80.26 188.41,80.35 190.43,80.44 192.45,80.52 194.48,80.61 196.50,80.70 198.52,80.78 200.54,80.87 204.59,81.04 206.61,81.12 208.63,81.21 210.65,81.29 214.70,81.46 216.72,81.54 220.76,81.71 222.79,81.79 224.81,81.87 226.83,81.96 228.85,82.04 230.87,82.12 234.92,82.28 236.94,82.36 238.96,82.44 240.98,82.52 243.01,82.60 245.03,82.68 249.07,82.84 251.10,82.92 253.12,83.00 257.16,83.16 259.18,83.24 263.23,83.39 267.27,83.55 269.29,83.63 271.32,83.71 273.34,83.78 275.36,83.86 277.38,83.94 279.41,84.01 281.43,84.09 283.45,84.17 285.47,84.24 287.49,84.32 289.52,84.40 291.54,84.47 293.56,84.55 295.58,84.62 297.60,84.70 299.63,84.77 301.65,84.85 303.67,84.92 305.69,85.00 307.72,85.07 309.74,85.15 311.76,85.22 313.78,85.30 321.87,85.59 331.98,85.92 340.07,86.18 342.09,86.24 344.11,86.30 346.14,86.36 348.16,86.42 352.20,86.53 362.31,86.80 374.45,87.08 384.56,87.28 388.60,87.35 392.65,87.42 394.67,87.44 396.69,87.47 398.71,87.50 400.73,87.52 402.76,87.55 404.78,87.57 406.80,87.59 408.82,87.61 410.84,87.62 412.87,87.64 414.89,87.65 416.91,87.67 418.93,87.68 420.96,87.69 422.98,87.70 425.00,87.70 427.02,87.71 429.04,87.72 431.07,87.73 433.09,87.73 435.11,87.74 437.13,87.74 439.16,87.75 441.18,87.75 443.20,87.76 447.24,87.77 457.35,87.79 467.47,87.81 477.58,87.82 489.71,87.84 493.75,87.85 499.82,87.86 509.93,87.87 513.97,87.87 520.04,87.88 530.15,87.89 536.22,87.90 540.26,87.90 552.40,87.91 558.46,87.92 562.51,87.92 572.62,87.93 582.73,87.94 592.84,87.95 602.95,87.95 615.08,87.95 625.19,87.95 635.30,87.95 645.41,87.95 655.52,87.95 665.64,87.95 677.77,87.95 687.88,87.95 697.99,87.95 708.10,87.95 718.21,87.95 728.32,87.95 740.45,87.95 750.57,87.95 758.65,87.95"/>
<line x1="88" y1="70" x2="110" y2="70" stroke="#0f766e" stroke-width="2.8" stroke-dasharray="6 3"/>
<text x="116" y="74" font-family="Arial, sans-serif" font-size="12">[Pulldown]+[GND Clamp]</text>
<line x1="88" y1="88" x2="110" y2="88" stroke="#7c2d12" stroke-width="2.8" stroke-dasharray="6 3"/>
<text x="116" y="92" font-family="Arial, sans-serif" font-size="12">[Pullup]+[POWER Clamp]</text>
<rect x="78" y="464" width="694" height="44" fill="#fffdf7" stroke="#d8c6a1" rx="4"/>
<text x="88" y="481" font-family="Arial, sans-serif" font-size="11" font-weight="700" fill="#4b3b21">Findings needing attention</text>
<rect x="88" y="488" width="7" height="7" fill="#b54708"/>
<text x="102" y="495" font-family="Arial, sans-serif" font-size="11" fill="#333">WARN 5.3.6: I-V stair-step evidence needs review | [GND Clamp]: roughness=0.213 &gt; 0.1</text>
<text x="425.00" y="444.00" text-anchor="middle" font-family="Arial, sans-serif" font-size="12">Table voltage (V)</text>
<text transform="translate(18 226.00) rotate(-90)" text-anchor="middle" font-family="Arial, sans-serif" font-size="12">Current (A)</text>
<text x="420" y="42" font-family="Arial, sans-serif" font-size="11" fill="#555">thick dashed=combined typ curves</text>
</svg>