<svg xmlns="http://www.w3.org/2000/svg" width="800" height="560" viewBox="0 0 800 560">
<rect width="100%" height="100%" fill="#ffffff"/>
<text x="78" y="25" font-family="Arial, sans-serif" font-size="16" font-weight="700">E34_GPIO_COMBO_1V8 I-V Combined Curves</text>
<rect x="78" y="52" width="694" height="348" fill="#fbfbfb" stroke="#c8c8c8"/>
<line x1="78.00" y1="52" x2="78.00" y2="400" stroke="#ececec"/>
<text x="78.00" y="422" text-anchor="middle" font-family="Arial, sans-serif" font-size="11">-1.9</text>
<line x1="216.80" y1="52" x2="216.80" y2="400" stroke="#ececec"/>
<text x="216.80" y="422" text-anchor="middle" font-family="Arial, sans-serif" font-size="11">-0.785</text>
<line x1="355.60" y1="52" x2="355.60" y2="400" stroke="#ececec"/>
<text x="355.60" y="422" text-anchor="middle" font-family="Arial, sans-serif" font-size="11">0.338</text>
<line x1="494.40" y1="52" x2="494.40" y2="400" stroke="#ececec"/>
<text x="494.40" y="422" text-anchor="middle" font-family="Arial, sans-serif" font-size="11">1.5</text>
<line x1="633.20" y1="52" x2="633.20" y2="400" stroke="#ececec"/>
<text x="633.20" y="422" text-anchor="middle" font-family="Arial, sans-serif" font-size="11">2.6</text>
<line x1="772.00" y1="52" x2="772.00" y2="400" stroke="#ececec"/>
<text x="772.00" y="422" text-anchor="middle" font-family="Arial, sans-serif" font-size="11">3.7</text>
<line x1="78" y1="400.00" x2="772" y2="400.00" stroke="#ececec"/>
<text x="70" y="404.00" text-anchor="end" font-family="Arial, sans-serif" font-size="11">-1.8</text>
<line x1="78" y1="330.40" x2="772" y2="330.40" stroke="#ececec"/>
<text x="70" y="334.40" text-anchor="end" font-family="Arial, sans-serif" font-size="11">-1.4</text>
<line x1="78" y1="260.80" x2="772" y2="260.80" stroke="#ececec"/>
<text x="70" y="264.80" text-anchor="end" font-family="Arial, sans-serif" font-size="11">-1</text>
<line x1="78" y1="191.20" x2="772" y2="191.20" stroke="#ececec"/>
<text x="70" y="195.20" text-anchor="end" font-family="Arial, sans-serif" font-size="11">-0.631</text>
<line x1="78" y1="121.60" x2="772" y2="121.60" stroke="#ececec"/>
<text x="70" y="125.60" text-anchor="end" font-family="Arial, sans-serif" font-size="11">-0.246</text>
<line x1="78" y1="52.00" x2="772" y2="52.00" stroke="#ececec"/>
<text x="70" y="56.00" text-anchor="end" font-family="Arial, sans-serif" font-size="11">0.139</text>
<line x1="313.78" y1="52" x2="313.78" y2="400" stroke="#777" stroke-dasharray="4 4"/>
<line x1="78" y1="77.06" x2="772" y2="77.06" stroke="#777" stroke-dasharray="4 4"/>
<line x1="91.35" y1="52" x2="91.35" y2="400" stroke="#555" stroke-dasharray="2 4"/>
<text x="95.35" y="66" font-family="Arial, sans-serif" font-size="11" fill="#555">-Vcc</text>
<line x1="536.22" y1="52" x2="536.22" y2="400" stroke="#555" stroke-dasharray="2 4"/>
<text x="540.22" y="66" font-family="Arial, sans-serif" font-size="11" fill="#555">Vcc</text>
<line x1="758.65" y1="52" x2="758.65" y2="400" stroke="#555" stroke-dasharray="2 4"/>
<text x="762.65" y="66" font-family="Arial, sans-serif" font-size="11" fill="#555">2Vcc</text>
<polyline fill="none" stroke="#0f766e" stroke-width="2.8" opacity="0.95" stroke-dasharray="6 3" points="91.35,376.00 101.23,351.41 112.35,323.75 122.24,299.16 133.36,271.50 143.25,246.91 154.37,219.24 164.26,194.66 175.38,166.99 185.26,142.40 196.39,114.74 206.27,90.15 207.51,87.08 208.74,84.43 209.98,82.50 211.21,81.12 212.45,80.15 213.69,79.46 214.92,78.98 216.16,78.65 217.39,78.42 218.63,78.26 219.86,78.14 221.10,78.06 222.34,78.00 223.57,77.96 224.81,77.92 226.04,77.89 227.28,77.87 228.51,77.85 229.75,77.84 230.99,77.82 232.22,77.81 233.46,77.79 234.69,77.78 235.93,77.77 237.17,77.75 238.40,77.74 239.64,77.73 240.87,77.72 242.11,77.71 243.34,77.69 244.58,77.68 245.82,77.67 247.05,77.66 248.29,77.65 249.52,77.64 250.76,77.62 251.99,77.61 253.23,77.60 254.47,77.59 258.17,77.55 269.29,77.45 279.18,77.36 290.30,77.26 300.19,77.18 311.31,77.08 313.78,77.06 321.20,77.00 331.08,76.92 334.79,76.89 342.20,76.84 352.09,76.77 353.33,76.76 363.21,76.69 373.10,76.63 378.04,76.60 384.22,76.56 394.11,76.51 405.23,76.45 415.11,76.40 426.24,76.36 436.12,76.32 446.01,76.29 457.13,76.26 467.02,76.24 478.14,76.23 488.02,76.22 499.15,76.21 506.56,76.20 509.03,76.20 512.74,76.20 513.97,76.20 520.15,76.19 530.04,76.19 536.22,76.19 539.93,76.19 551.05,76.18 558.46,76.18 560.93,76.18 572.05,76.18 581.94,76.17 593.06,76.17 602.95,76.17 614.07,76.17 623.96,76.17 635.08,76.17 644.96,76.17 654.85,76.17 665.97,76.17 675.86,76.17 686.98,76.17 696.87,76.17 707.99,76.17 717.87,76.17 729.00,76.17 738.88,76.17 750.00,76.17 758.65,76.17"/>
<polyline fill="none" stroke="#7c2d12" stroke-width="2.8" opacity="0.95" stroke-dasharray="6 3" points="91.35,76.00 93.82,76.01 95.05,76.02 96.29,76.02 98.76,76.04 101.23,76.05 102.47,76.06 104.94,76.07 106.18,76.07 108.65,76.09 112.35,76.10 114.83,76.12 116.06,76.12 117.30,76.13 118.53,76.14 119.77,76.14 121.00,76.15 122.24,76.15 123.48,76.16 124.71,76.17 125.95,76.17 127.18,76.18 128.42,76.18 129.65,76.19 130.89,76.20 132.13,76.20 133.36,76.21 134.60,76.21 135.83,76.22 137.07,76.23 138.30,76.23 139.54,76.24 140.78,76.24 143.25,76.25 146.96,76.27 150.66,76.29 154.37,76.30 158.08,76.32 161.78,76.33 164.26,76.34 167.96,76.35 171.67,76.37 172.91,76.37 174.14,76.37 175.38,76.38 176.61,76.38 177.85,76.39 179.08,76.39 180.32,76.40 181.56,76.40 182.79,76.40 184.03,76.41 185.26,76.41 186.50,76.42 187.74,76.42 188.97,76.43 190.21,76.43 191.44,76.44 192.68,76.44 193.91,76.44 195.15,76.45 196.39,76.45 200.09,76.47 203.80,76.48 206.27,76.49 209.98,76.50 213.69,76.52 216.16,76.53 217.39,76.53 221.10,76.55 223.57,76.56 227.28,76.57 230.99,76.59 233.46,76.60 234.69,76.60 235.93,76.61 237.17,76.62 238.40,76.62 239.64,76.63 240.87,76.63 242.11,76.64 243.34,76.64 244.58,76.65 245.82,76.66 247.05,76.66 248.29,76.67 249.52,76.67 250.76,76.68 251.99,76.69 253.23,76.69 254.47,76.70 255.70,76.71 256.94,76.71 258.17,76.72 259.41,76.73 260.64,76.73 263.12,76.75 265.59,76.76 269.29,76.78 273.00,76.80 276.71,76.82 279.18,76.84 280.42,76.85 284.12,76.87 286.60,76.88 290.30,76.91 294.01,76.93 297.72,76.95 300.19,76.97 301.42,76.98 305.13,77.00 307.60,77.02 311.31,77.05 313.78,77.06 321.20,77.11 331.08,77.19 342.20,77.27 352.09,77.34 363.21,77.42 373.10,77.50 384.22,77.58 394.11,77.65 405.23,77.73 415.11,77.80 426.24,77.87 436.12,77.94 446.01,78.00 457.13,78.06 467.02,78.11 478.14,78.17 488.02,78.21 492.97,78.23 494.20,78.23 496.67,78.24 497.91,78.24 500.38,78.25 502.85,78.26 505.32,78.27 509.03,78.28 513.97,78.29 516.45,78.30 520.15,78.30 530.04,78.32 536.22,78.34 539.93,78.34 551.05,78.36 558.46,78.37 560.93,78.37 572.05,78.38 581.94,78.39 593.06,78.39 602.95,78.39 614.07,78.39 623.96,78.39 635.08,78.39 644.96,78.39 654.85,78.39 665.97,78.39 675.86,78.39 686.98,78.39 696.87,78.39 707.99,78.39 717.87,78.39 729.00,78.39 738.88,78.39 750.00,78.39 758.65,78.39"/>
<line x1="88" y1="70" x2="110" y2="70" stroke="#0f766e" stroke-width="2.8" stroke-dasharray="6 3"/>
<text x="116" y="74" font-family="Arial, sans-serif" font-size="12">[Pulldown]+[GND Clamp]</text>
<line x1="88" y1="88" x2="110" y2="88" stroke="#7c2d12" stroke-width="2.8" stroke-dasharray="6 3"/>
<text x="116" y="92" font-family="Arial, sans-serif" font-size="12">[Pullup]+[POWER Clamp]</text>
<text x="425.00" y="444.00" text-anchor="middle" font-family="Arial, sans-serif" font-size="12">Table voltage (V)</text>
<text transform="translate(18 226.00) rotate(-90)" text-anchor="middle" font-family="Arial, sans-serif" font-size="12">Current (A)</text>
<text x="420" y="42" font-family="Arial, sans-serif" font-size="11" fill="#555">thick dashed=combined typ curves</text>
</svg>