<svg xmlns="http://www.w3.org/2000/svg" width="800" height="560" viewBox="0 0 800 560">
<rect width="100%" height="100%" fill="#ffffff"/>
<text x="78" y="25" font-family="Arial, sans-serif" font-size="16" font-weight="700">E34_GPIO_1V1TO1V8_1v1_10 I-V Combined Curves</text>
<rect x="78" y="52" width="694" height="348" fill="#fbfbfb" stroke="#c8c8c8"/>
<line x1="78.00" y1="52" x2="78.00" y2="400" stroke="#ececec"/>
<text x="78.00" y="422" text-anchor="middle" font-family="Arial, sans-serif" font-size="11">-1.2</text>
<line x1="216.80" y1="52" x2="216.80" y2="400" stroke="#ececec"/>
<text x="216.80" y="422" text-anchor="middle" font-family="Arial, sans-serif" font-size="11">-0.48</text>
<line x1="355.60" y1="52" x2="355.60" y2="400" stroke="#ececec"/>
<text x="355.60" y="422" text-anchor="middle" font-family="Arial, sans-serif" font-size="11">0.207</text>
<line x1="494.40" y1="52" x2="494.40" y2="400" stroke="#ececec"/>
<text x="494.40" y="422" text-anchor="middle" font-family="Arial, sans-serif" font-size="11">0.893</text>
<line x1="633.20" y1="52" x2="633.20" y2="400" stroke="#ececec"/>
<text x="633.20" y="422" text-anchor="middle" font-family="Arial, sans-serif" font-size="11">1.6</text>
<line x1="772.00" y1="52" x2="772.00" y2="400" stroke="#ececec"/>
<text x="772.00" y="422" text-anchor="middle" font-family="Arial, sans-serif" font-size="11">2.3</text>
<line x1="78" y1="400.00" x2="772" y2="400.00" stroke="#ececec"/>
<text x="70" y="404.00" text-anchor="end" font-family="Arial, sans-serif" font-size="11">-0.442</text>
<line x1="78" y1="330.40" x2="772" y2="330.40" stroke="#ececec"/>
<text x="70" y="334.40" text-anchor="end" font-family="Arial, sans-serif" font-size="11">-0.344</text>
<line x1="78" y1="260.80" x2="772" y2="260.80" stroke="#ececec"/>
<text x="70" y="264.80" text-anchor="end" font-family="Arial, sans-serif" font-size="11">-0.246</text>
<line x1="78" y1="191.20" x2="772" y2="191.20" stroke="#ececec"/>
<text x="70" y="195.20" text-anchor="end" font-family="Arial, sans-serif" font-size="11">-0.148</text>
<line x1="78" y1="121.60" x2="772" y2="121.60" stroke="#ececec"/>
<text x="70" y="125.60" text-anchor="end" font-family="Arial, sans-serif" font-size="11">-0.0502</text>
<line x1="78" y1="52.00" x2="772" y2="52.00" stroke="#ececec"/>
<text x="70" y="56.00" text-anchor="end" font-family="Arial, sans-serif" font-size="11">0.0477</text>
<line x1="313.78" y1="52" x2="313.78" y2="400" stroke="#777" stroke-dasharray="4 4"/>
<line x1="78" y1="85.93" x2="772" y2="85.93" stroke="#777" stroke-dasharray="4 4"/>
<line x1="91.35" y1="52" x2="91.35" y2="400" stroke="#555" stroke-dasharray="2 4"/>
<text x="95.35" y="66" font-family="Arial, sans-serif" font-size="11" fill="#555">-Vcc</text>
<line x1="536.22" y1="52" x2="536.22" y2="400" stroke="#555" stroke-dasharray="2 4"/>
<text x="540.22" y="66" font-family="Arial, sans-serif" font-size="11" fill="#555">Vcc</text>
<line x1="758.65" y1="52" x2="758.65" y2="400" stroke="#555" stroke-dasharray="2 4"/>
<text x="762.65" y="66" font-family="Arial, sans-serif" font-size="11" fill="#555">2Vcc</text>
<polyline fill="none" stroke="#0f766e" stroke-width="2.8" opacity="0.95" stroke-dasharray="6 3" points="91.35,376.00 101.46,315.54 111.57,255.09 117.63,218.81 119.66,206.72 121.68,194.63 123.70,182.54 125.72,170.45 127.74,158.36 129.77,146.27 131.79,135.63 133.81,126.57 135.83,119.03 137.86,112.89 139.88,108.01 141.90,104.23 143.92,101.37 145.94,99.24 147.97,97.68 149.99,96.54 152.01,95.71 154.03,95.10 156.05,94.65 158.08,94.30 160.10,94.03 162.12,93.81 164.14,93.63 166.17,93.47 168.19,93.33 170.21,93.20 172.23,93.07 174.25,92.96 176.28,92.84 178.30,92.73 180.32,92.62 182.34,92.51 184.36,92.40 186.39,92.29 188.41,92.18 192.45,91.97 194.48,91.86 196.50,91.75 198.52,91.65 200.54,91.55 202.56,91.44 204.59,91.33 206.61,91.22 208.63,91.12 210.65,91.02 212.67,90.91 214.70,90.80 216.72,90.69 218.74,90.59 220.76,90.49 222.79,90.38 224.81,90.28 226.83,90.17 236.94,89.65 249.07,89.03 259.18,88.52 269.29,88.02 279.41,87.53 289.52,87.04 299.63,86.57 311.76,86.02 313.78,85.93 321.87,85.57 331.98,85.14 342.09,84.74 352.20,84.35 362.31,83.99 366.36,83.85 374.45,83.59 384.56,83.29 394.67,83.04 404.78,82.82 406.80,82.79 414.89,82.65 427.02,82.51 433.09,82.46 437.13,82.43 439.16,82.42 441.18,82.41 447.24,82.38 457.35,82.33 463.42,82.31 467.47,82.30 477.58,82.26 483.64,82.25 487.69,82.23 489.71,82.23 499.82,82.20 509.93,82.17 513.97,82.16 520.04,82.15 530.15,82.13 536.22,82.11 540.26,82.10 552.40,82.08 558.46,82.07 562.51,82.06 572.62,82.04 582.73,82.02 592.84,82.00 602.95,81.98 615.08,81.96 625.19,81.94 635.30,81.92 645.41,81.89 655.52,81.87 665.64,81.83 677.77,81.77 687.88,81.70 697.99,81.60 708.10,81.48 718.21,81.34 728.32,81.18 740.45,80.95 750.57,80.74 758.65,80.56"/>
<polyline fill="none" stroke="#7c2d12" stroke-width="2.8" opacity="0.95" stroke-dasharray="6 3" points="91.35,76.00 93.37,76.08 95.39,76.15 97.41,76.23 99.43,76.31 101.46,76.39 105.50,76.56 109.55,76.72 111.57,76.80 113.59,76.89 115.61,76.97 117.63,77.06 119.66,77.15 121.68,77.23 123.70,77.32 125.72,77.41 127.74,77.50 129.77,77.59 131.79,77.68 133.81,77.76 135.83,77.86 137.86,77.95 139.88,78.04 141.90,78.13 143.92,78.22 147.97,78.40 149.99,78.50 152.01,78.59 154.03,78.68 158.08,78.87 160.10,78.96 162.12,79.05 164.14,79.15 168.19,79.34 170.21,79.43 172.23,79.52 174.25,79.62 176.28,79.71 178.30,79.81 180.32,79.90 182.34,80.00 186.39,80.19 188.41,80.28 190.43,80.38 192.45,80.47 194.48,80.57 196.50,80.66 198.52,80.76 200.54,80.85 204.59,81.04 206.61,81.14 208.63,81.23 210.65,81.33 212.67,81.42 214.70,81.51 216.72,81.61 218.74,81.70 220.76,81.80 222.79,81.89 224.81,81.98 226.83,82.08 228.85,82.17 230.87,82.26 232.90,82.35 234.92,82.45 236.94,82.54 238.96,82.63 240.98,82.72 243.01,82.81 245.03,82.91 247.05,83.00 249.07,83.09 251.10,83.18 253.12,83.27 255.14,83.36 257.16,83.45 259.18,83.54 261.21,83.63 263.23,83.72 267.27,83.90 269.29,83.99 273.34,84.17 275.36,84.26 277.38,84.35 279.41,84.44 281.43,84.53 283.45,84.61 285.47,84.70 287.49,84.79 289.52,84.88 291.54,84.97 293.56,85.05 295.58,85.14 297.60,85.23 299.63,85.32 301.65,85.40 303.67,85.49 305.69,85.58 307.72,85.67 309.74,85.75 311.76,85.84 313.78,85.93 321.87,86.27 329.96,86.59 331.98,86.67 334.00,86.75 342.09,87.06 352.20,87.43 362.31,87.77 374.45,88.16 384.56,88.45 394.67,88.71 404.78,88.93 408.82,89.01 410.84,89.05 414.89,89.12 418.93,89.18 420.96,89.21 422.98,89.24 425.00,89.26 427.02,89.29 429.04,89.31 431.07,89.33 433.09,89.35 435.11,89.37 437.13,89.39 439.16,89.41 441.18,89.43 443.20,89.44 445.22,89.46 447.24,89.47 449.27,89.48 451.29,89.50 453.31,89.51 455.33,89.52 465.44,89.57 467.47,89.58 477.58,89.63 483.64,89.66 485.66,89.66 489.71,89.68 499.82,89.72 509.93,89.75 513.97,89.77 520.04,89.79 530.15,89.82 536.22,89.83 540.26,89.84 552.40,89.88 558.46,89.89 562.51,89.90 572.62,89.93 582.73,89.95 592.84,89.97 602.95,89.99 615.08,89.99 625.19,89.99 635.30,89.99 641.37,89.99 645.41,89.99 655.52,89.99 665.64,89.99 677.77,89.99 687.88,89.99 697.99,89.99 708.10,89.99 718.21,89.99 728.32,89.99 740.45,89.99 750.57,89.99 758.65,89.99"/>
<line x1="88" y1="70" x2="110" y2="70" stroke="#0f766e" stroke-width="2.8" stroke-dasharray="6 3"/>
<text x="116" y="74" font-family="Arial, sans-serif" font-size="12">[Pulldown]+[GND Clamp]</text>
<line x1="88" y1="88" x2="110" y2="88" stroke="#7c2d12" stroke-width="2.8" stroke-dasharray="6 3"/>
<text x="116" y="92" font-family="Arial, sans-serif" font-size="12">[Pullup]+[POWER Clamp]</text>
<rect x="78" y="464" width="694" height="44" fill="#fffdf7" stroke="#d8c6a1" rx="4"/>
<text x="88" y="481" font-family="Arial, sans-serif" font-size="11" font-weight="700" fill="#4b3b21">Findings needing attention</text>
<rect x="88" y="488" width="7" height="7" fill="#b54708"/>
<text x="102" y="495" font-family="Arial, sans-serif" font-size="11" fill="#333">WARN 5.3.6: I-V stair-step evidence needs review | [GND Clamp]: roughness=0.213 &gt; 0.1</text>
<text x="425.00" y="444.00" text-anchor="middle" font-family="Arial, sans-serif" font-size="12">Table voltage (V)</text>
<text transform="translate(18 226.00) rotate(-90)" text-anchor="middle" font-family="Arial, sans-serif" font-size="12">Current (A)</text>
<text x="420" y="42" font-family="Arial, sans-serif" font-size="11" fill="#555">thick dashed=combined typ curves</text>
</svg>