<svg xmlns="http://www.w3.org/2000/svg" width="800" height="560" viewBox="0 0 800 560">
<rect width="100%" height="100%" fill="#ffffff"/>
<text x="78" y="25" font-family="Arial, sans-serif" font-size="16" font-weight="700">E34_GPIO_1V1TO1V8_1v1_01 I-V Combined Curves</text>
<rect x="78" y="52" width="694" height="348" fill="#fbfbfb" stroke="#c8c8c8"/>
<line x1="78.00" y1="52" x2="78.00" y2="400" stroke="#ececec"/>
<text x="78.00" y="422" text-anchor="middle" font-family="Arial, sans-serif" font-size="11">-1.2</text>
<line x1="216.80" y1="52" x2="216.80" y2="400" stroke="#ececec"/>
<text x="216.80" y="422" text-anchor="middle" font-family="Arial, sans-serif" font-size="11">-0.48</text>
<line x1="355.60" y1="52" x2="355.60" y2="400" stroke="#ececec"/>
<text x="355.60" y="422" text-anchor="middle" font-family="Arial, sans-serif" font-size="11">0.207</text>
<line x1="494.40" y1="52" x2="494.40" y2="400" stroke="#ececec"/>
<text x="494.40" y="422" text-anchor="middle" font-family="Arial, sans-serif" font-size="11">0.893</text>
<line x1="633.20" y1="52" x2="633.20" y2="400" stroke="#ececec"/>
<text x="633.20" y="422" text-anchor="middle" font-family="Arial, sans-serif" font-size="11">1.6</text>
<line x1="772.00" y1="52" x2="772.00" y2="400" stroke="#ececec"/>
<text x="772.00" y="422" text-anchor="middle" font-family="Arial, sans-serif" font-size="11">2.3</text>
<line x1="78" y1="400.00" x2="772" y2="400.00" stroke="#ececec"/>
<text x="70" y="404.00" text-anchor="end" font-family="Arial, sans-serif" font-size="11">-0.439</text>
<line x1="78" y1="330.40" x2="772" y2="330.40" stroke="#ececec"/>
<text x="70" y="334.40" text-anchor="end" font-family="Arial, sans-serif" font-size="11">-0.343</text>
<line x1="78" y1="260.80" x2="772" y2="260.80" stroke="#ececec"/>
<text x="70" y="264.80" text-anchor="end" font-family="Arial, sans-serif" font-size="11">-0.246</text>
<line x1="78" y1="191.20" x2="772" y2="191.20" stroke="#ececec"/>
<text x="70" y="195.20" text-anchor="end" font-family="Arial, sans-serif" font-size="11">-0.15</text>
<line x1="78" y1="121.60" x2="772" y2="121.60" stroke="#ececec"/>
<text x="70" y="125.60" text-anchor="end" font-family="Arial, sans-serif" font-size="11">-0.0536</text>
<line x1="78" y1="52.00" x2="772" y2="52.00" stroke="#ececec"/>
<text x="70" y="56.00" text-anchor="end" font-family="Arial, sans-serif" font-size="11">0.0427</text>
<line x1="313.78" y1="52" x2="313.78" y2="400" stroke="#777" stroke-dasharray="4 4"/>
<line x1="78" y1="82.84" x2="772" y2="82.84" stroke="#777" stroke-dasharray="4 4"/>
<line x1="91.35" y1="52" x2="91.35" y2="400" stroke="#555" stroke-dasharray="2 4"/>
<text x="95.35" y="66" font-family="Arial, sans-serif" font-size="11" fill="#555">-Vcc</text>
<line x1="536.22" y1="52" x2="536.22" y2="400" stroke="#555" stroke-dasharray="2 4"/>
<text x="540.22" y="66" font-family="Arial, sans-serif" font-size="11" fill="#555">Vcc</text>
<line x1="758.65" y1="52" x2="758.65" y2="400" stroke="#555" stroke-dasharray="2 4"/>
<text x="762.65" y="66" font-family="Arial, sans-serif" font-size="11" fill="#555">2Vcc</text>
<polyline fill="none" stroke="#0f766e" stroke-width="2.8" opacity="0.95" stroke-dasharray="6 3" points="91.35,376.00 101.46,314.58 111.57,253.17 117.63,216.32 119.66,204.04 121.68,191.75 123.70,179.47 125.72,167.19 127.74,154.90 129.77,142.62 131.79,131.82 133.81,122.64 135.83,114.99 137.86,108.76 139.88,103.82 141.90,100.00 143.92,97.10 145.94,94.95 147.97,93.38 149.99,92.24 152.01,91.41 154.03,90.80 156.05,90.36 158.08,90.02 160.10,89.76 162.12,89.56 164.14,89.39 166.17,89.24 168.19,89.11 170.21,88.99 172.23,88.88 174.25,88.78 176.28,88.68 178.30,88.58 180.32,88.49 182.34,88.39 184.36,88.30 186.39,88.21 188.41,88.12 190.43,88.03 192.45,87.94 194.48,87.85 196.50,87.75 198.52,87.66 200.54,87.58 202.56,87.48 204.59,87.39 206.61,87.30 208.63,87.21 210.65,87.12 212.67,87.03 214.70,86.94 216.72,86.85 218.74,86.76 220.76,86.68 222.79,86.59 224.81,86.50 226.83,86.40 228.85,86.32 236.94,85.96 249.07,85.44 259.18,85.01 269.29,84.59 279.41,84.17 289.52,83.77 299.63,83.37 311.76,82.92 313.78,82.84 321.87,82.55 331.98,82.20 334.00,82.14 342.09,81.88 350.18,81.63 352.20,81.57 362.31,81.30 374.45,81.00 380.51,80.87 384.56,80.79 394.67,80.61 404.78,80.48 414.89,80.38 418.93,80.35 422.98,80.32 425.00,80.31 427.02,80.30 429.04,80.29 437.13,80.26 447.24,80.23 457.35,80.20 467.47,80.18 477.58,80.16 487.69,80.14 489.71,80.13 495.78,80.12 497.80,80.12 499.82,80.11 509.93,80.10 513.97,80.09 520.04,80.08 530.15,80.06 536.22,80.05 540.26,80.05 552.40,80.03 558.46,80.02 562.51,80.01 572.62,80.00 582.73,79.98 592.84,79.97 602.95,79.96 615.08,79.94 625.19,79.93 635.30,79.91 645.41,79.89 655.52,79.86 665.64,79.81 677.77,79.72 687.88,79.62 697.99,79.49 708.10,79.34 718.21,79.16 728.32,78.96 740.45,78.70 750.57,78.46 758.65,78.26"/>
<polyline fill="none" stroke="#7c2d12" stroke-width="2.8" opacity="0.95" stroke-dasharray="6 3" points="91.35,76.00 93.37,76.00 95.39,76.00 97.41,76.00 99.43,76.00 101.46,76.00 105.50,76.00 107.52,76.00 109.55,76.01 111.57,76.03 113.59,76.06 115.61,76.08 117.63,76.12 119.66,76.15 121.68,76.19 123.70,76.24 125.72,76.28 127.74,76.33 129.77,76.38 131.79,76.43 133.81,76.48 135.83,76.54 137.86,76.60 139.88,76.66 141.90,76.71 143.92,76.77 145.94,76.83 147.97,76.90 149.99,76.96 152.01,77.03 154.03,77.09 156.05,77.16 158.08,77.22 160.10,77.29 162.12,77.36 164.14,77.43 168.19,77.57 170.21,77.64 172.23,77.71 174.25,77.78 176.28,77.86 178.30,77.93 180.32,78.00 182.34,78.08 186.39,78.22 188.41,78.30 190.43,78.37 192.45,78.45 194.48,78.53 196.50,78.60 198.52,78.68 200.54,78.75 204.59,78.90 206.61,78.98 208.63,79.06 210.65,79.13 212.67,79.21 214.70,79.29 216.72,79.36 218.74,79.44 220.76,79.52 222.79,79.59 224.81,79.67 226.83,79.74 228.85,79.82 230.87,79.90 232.90,79.97 234.92,80.05 236.94,80.12 238.96,80.20 240.98,80.27 243.01,80.35 245.03,80.42 247.05,80.49 249.07,80.57 251.10,80.64 253.12,80.72 255.14,80.79 257.16,80.86 259.18,80.94 261.21,81.01 263.23,81.08 267.27,81.23 269.29,81.30 273.34,81.44 275.36,81.52 277.38,81.59 279.41,81.66 281.43,81.73 283.45,81.80 285.47,81.87 287.49,81.94 289.52,82.01 291.54,82.08 293.56,82.15 295.58,82.22 297.60,82.29 299.63,82.36 301.65,82.43 303.67,82.50 305.69,82.57 307.72,82.64 309.74,82.70 311.76,82.77 313.78,82.84 321.87,83.11 329.96,83.36 331.98,83.42 342.09,83.72 352.20,83.99 362.31,84.24 374.45,84.52 384.56,84.72 394.67,84.89 404.78,85.02 410.84,85.09 414.89,85.13 416.91,85.15 420.96,85.18 425.00,85.21 427.02,85.22 433.09,85.26 437.13,85.28 447.24,85.32 457.35,85.36 467.47,85.39 477.58,85.42 489.71,85.45 491.73,85.45 493.75,85.46 499.82,85.47 509.93,85.49 513.97,85.50 520.04,85.51 530.15,85.53 536.22,85.55 540.26,85.55 552.40,85.57 558.46,85.58 562.51,85.59 572.62,85.61 582.73,85.62 592.84,85.63 602.95,85.65 615.08,85.65 625.19,85.65 635.30,85.65 645.41,85.65 655.52,85.65 665.64,85.65 677.77,85.65 687.88,85.65 697.99,85.65 708.10,85.65 718.21,85.65 728.32,85.65 740.45,85.65 750.57,85.65 758.65,85.65"/>
<circle cx="105.50" cy="76.00" r="6" fill="none" stroke="#b42318" stroke-width="2"/>
<line x1="100.50" y1="71.00" x2="110.50" y2="81.00" stroke="#b42318" stroke-width="1.6"/>
<line x1="100.50" y1="81.00" x2="110.50" y2="71.00" stroke="#b42318" stroke-width="1.6"/>
<text x="420" y="30" font-family="Arial, sans-serif" font-size="11" fill="#b42318">x = 5.3.7 monotonicity violation</text>
<line x1="88" y1="70" x2="110" y2="70" stroke="#0f766e" stroke-width="2.8" stroke-dasharray="6 3"/>
<text x="116" y="74" font-family="Arial, sans-serif" font-size="12">[Pulldown]+[GND Clamp]</text>
<line x1="88" y1="88" x2="110" y2="88" stroke="#7c2d12" stroke-width="2.8" stroke-dasharray="6 3"/>
<text x="116" y="92" font-family="Arial, sans-serif" font-size="12">[Pullup]+[POWER Clamp]</text>
<rect x="78" y="464" width="694" height="60" fill="#fffdf7" stroke="#d8c6a1" rx="4"/>
<text x="88" y="481" font-family="Arial, sans-serif" font-size="11" font-weight="700" fill="#4b3b21">Findings needing attention</text>
<rect x="88" y="488" width="7" height="7" fill="#b42318"/>
<text x="102" y="495" font-family="Arial, sans-serif" font-size="11" fill="#333">FAIL 5.3.7: [Pullup] + [POWER Clamp] combined curve non-monotonic (... | V=-1.03: combined current increases from 9.469mA to...</text>
<rect x="88" y="504" width="7" height="7" fill="#b54708"/>
<text x="102" y="511" font-family="Arial, sans-serif" font-size="11" fill="#333">WARN 5.3.6: I-V stair-step evidence needs review | [GND Clamp]: roughness=0.213 &gt; 0.1</text>
<text x="425.00" y="444.00" text-anchor="middle" font-family="Arial, sans-serif" font-size="12">Table voltage (V)</text>
<text transform="translate(18 226.00) rotate(-90)" text-anchor="middle" font-family="Arial, sans-serif" font-size="12">Current (A)</text>
<text x="420" y="42" font-family="Arial, sans-serif" font-size="11" fill="#555">thick dashed=combined typ curves</text>
</svg>