<svg xmlns="http://www.w3.org/2000/svg" width="800" height="560" viewBox="0 0 800 560">
<rect width="100%" height="100%" fill="#ffffff"/>
<text x="78" y="25" font-family="Arial, sans-serif" font-size="16" font-weight="700">E34_GPIO_SPI_1V1_00 I-V Combined Curves</text>
<rect x="78" y="52" width="694" height="348" fill="#fbfbfb" stroke="#c8c8c8"/>
<line x1="78.00" y1="52" x2="78.00" y2="400" stroke="#ececec"/>
<text x="78.00" y="422" text-anchor="middle" font-family="Arial, sans-serif" font-size="11">-1.2</text>
<line x1="216.80" y1="52" x2="216.80" y2="400" stroke="#ececec"/>
<text x="216.80" y="422" text-anchor="middle" font-family="Arial, sans-serif" font-size="11">-0.48</text>
<line x1="355.60" y1="52" x2="355.60" y2="400" stroke="#ececec"/>
<text x="355.60" y="422" text-anchor="middle" font-family="Arial, sans-serif" font-size="11">0.207</text>
<line x1="494.40" y1="52" x2="494.40" y2="400" stroke="#ececec"/>
<text x="494.40" y="422" text-anchor="middle" font-family="Arial, sans-serif" font-size="11">0.893</text>
<line x1="633.20" y1="52" x2="633.20" y2="400" stroke="#ececec"/>
<text x="633.20" y="422" text-anchor="middle" font-family="Arial, sans-serif" font-size="11">1.6</text>
<line x1="772.00" y1="52" x2="772.00" y2="400" stroke="#ececec"/>
<text x="772.00" y="422" text-anchor="middle" font-family="Arial, sans-serif" font-size="11">2.3</text>
<line x1="78" y1="400.00" x2="772" y2="400.00" stroke="#ececec"/>
<text x="70" y="404.00" text-anchor="end" font-family="Arial, sans-serif" font-size="11">-0.482</text>
<line x1="78" y1="330.40" x2="772" y2="330.40" stroke="#ececec"/>
<text x="70" y="334.40" text-anchor="end" font-family="Arial, sans-serif" font-size="11">-0.374</text>
<line x1="78" y1="260.80" x2="772" y2="260.80" stroke="#ececec"/>
<text x="70" y="264.80" text-anchor="end" font-family="Arial, sans-serif" font-size="11">-0.266</text>
<line x1="78" y1="191.20" x2="772" y2="191.20" stroke="#ececec"/>
<text x="70" y="195.20" text-anchor="end" font-family="Arial, sans-serif" font-size="11">-0.158</text>
<line x1="78" y1="121.60" x2="772" y2="121.60" stroke="#ececec"/>
<text x="70" y="125.60" text-anchor="end" font-family="Arial, sans-serif" font-size="11">-0.0507</text>
<line x1="78" y1="52.00" x2="772" y2="52.00" stroke="#ececec"/>
<text x="70" y="56.00" text-anchor="end" font-family="Arial, sans-serif" font-size="11">0.057</text>
<line x1="313.78" y1="52" x2="313.78" y2="400" stroke="#777" stroke-dasharray="4 4"/>
<line x1="78" y1="88.82" x2="772" y2="88.82" stroke="#777" stroke-dasharray="4 4"/>
<line x1="91.35" y1="52" x2="91.35" y2="400" stroke="#555" stroke-dasharray="2 4"/>
<text x="95.35" y="66" font-family="Arial, sans-serif" font-size="11" fill="#555">-Vcc</text>
<line x1="536.22" y1="52" x2="536.22" y2="400" stroke="#555" stroke-dasharray="2 4"/>
<text x="540.22" y="66" font-family="Arial, sans-serif" font-size="11" fill="#555">Vcc</text>
<line x1="758.65" y1="52" x2="758.65" y2="400" stroke="#555" stroke-dasharray="2 4"/>
<text x="762.65" y="66" font-family="Arial, sans-serif" font-size="11" fill="#555">2Vcc</text>
<polyline fill="none" stroke="#0f766e" stroke-width="2.8" opacity="0.95" stroke-dasharray="6 3" points="91.35,376.00 101.46,321.08 111.57,266.16 121.68,211.24 123.70,200.26 125.72,189.28 127.74,178.29 129.77,167.31 131.79,156.32 133.81,145.34 135.83,136.11 137.86,128.71 139.88,122.88 141.90,118.36 143.92,114.91 145.94,112.29 147.97,110.29 149.99,108.74 152.01,107.53 154.03,106.57 156.05,105.77 158.08,105.08 160.10,104.49 162.12,103.95 164.14,103.45 166.17,102.99 168.19,102.55 170.21,102.13 172.23,101.72 174.25,101.33 176.28,100.94 178.30,100.56 180.32,100.20 182.34,99.84 184.36,99.50 186.39,99.17 188.41,98.85 190.43,98.54 194.48,97.94 196.50,97.65 198.52,97.39 202.56,96.87 206.61,96.34 208.63,96.12 212.67,95.69 214.70,95.47 216.72,95.24 224.81,94.51 226.83,94.33 236.94,93.54 249.07,92.70 259.18,92.04 269.29,91.39 279.41,90.77 289.52,90.16 299.63,89.58 311.76,88.92 313.78,88.82 321.87,88.43 331.98,87.98 334.00,87.90 342.09,87.58 350.18,87.31 352.20,87.24 354.22,87.18 356.25,87.12 358.27,87.07 360.29,87.01 362.31,86.96 364.34,86.91 366.36,86.86 368.38,86.82 370.40,86.77 374.45,86.69 382.53,86.56 384.56,86.53 394.67,86.42 404.78,86.35 414.89,86.30 427.02,86.25 437.13,86.22 447.24,86.20 457.35,86.17 467.47,86.15 477.58,86.13 479.60,86.13 489.71,86.11 491.73,86.10 493.75,86.10 499.82,86.09 509.93,86.07 513.97,86.07 520.04,86.06 530.15,86.04 536.22,86.03 540.26,86.02 552.40,86.01 558.46,86.00 562.51,85.99 572.62,85.98 582.73,85.96 592.84,85.95 602.95,85.93 615.08,85.91 625.19,85.89 635.30,85.85 645.41,85.80 655.52,85.71 665.64,85.60 677.77,85.41 687.88,85.20 697.99,84.96 708.10,84.67 718.21,84.35 728.32,83.99 740.45,83.51 750.57,83.08 758.65,82.71"/>
<polyline fill="none" stroke="#7c2d12" stroke-width="2.8" opacity="0.95" stroke-dasharray="6 3" points="91.35,76.00 93.37,76.14 95.39,76.29 97.41,76.43 101.46,76.72 103.48,76.86 105.50,77.01 107.52,77.15 109.55,77.29 111.57,77.43 113.59,77.58 115.61,77.72 117.63,77.86 119.66,78.00 121.68,78.14 123.70,78.28 125.72,78.41 127.74,78.55 129.77,78.69 131.79,78.83 133.81,78.96 135.83,79.10 137.86,79.23 139.88,79.37 141.90,79.50 143.92,79.64 145.94,79.77 147.97,79.90 149.99,80.04 154.03,80.30 156.05,80.43 158.08,80.56 160.10,80.69 162.12,80.82 164.14,80.95 166.17,81.08 168.19,81.20 170.21,81.33 172.23,81.46 174.25,81.59 176.28,81.71 178.30,81.83 182.34,82.08 184.36,82.20 186.39,82.33 190.43,82.57 192.45,82.69 196.50,82.93 198.52,83.05 200.54,83.17 204.59,83.40 206.61,83.52 210.65,83.75 214.70,83.98 216.72,84.09 218.74,84.20 220.76,84.31 222.79,84.43 224.81,84.54 226.83,84.65 228.85,84.76 230.87,84.87 232.90,84.98 234.92,85.08 236.94,85.19 238.96,85.30 243.01,85.51 245.03,85.62 247.05,85.72 249.07,85.83 251.10,85.93 253.12,86.03 255.14,86.13 257.16,86.24 259.18,86.34 261.21,86.44 263.23,86.54 265.25,86.64 267.27,86.74 269.29,86.84 271.32,86.93 273.34,87.03 275.36,87.12 277.38,87.22 279.41,87.32 281.43,87.41 283.45,87.50 285.47,87.60 287.49,87.69 289.52,87.78 291.54,87.87 295.58,88.05 297.60,88.14 301.65,88.31 303.67,88.39 305.69,88.48 307.72,88.57 309.74,88.65 311.76,88.74 313.78,88.82 319.85,89.06 321.87,89.14 323.89,89.21 325.91,89.29 327.94,89.36 329.96,89.43 331.98,89.50 334.00,89.56 336.03,89.63 342.09,89.81 348.16,89.98 350.18,90.04 352.20,90.09 354.22,90.14 356.25,90.19 358.27,90.24 360.29,90.28 362.31,90.33 364.34,90.37 366.36,90.41 368.38,90.45 370.40,90.49 372.42,90.52 374.45,90.56 376.47,90.59 378.49,90.62 380.51,90.65 382.53,90.68 384.56,90.71 386.58,90.73 388.60,90.75 390.62,90.78 392.65,90.80 394.67,90.82 404.78,90.90 414.89,90.95 427.02,91.01 437.13,91.04 447.24,91.07 457.35,91.10 467.47,91.13 477.58,91.15 489.71,91.18 493.75,91.19 499.82,91.20 509.93,91.22 513.97,91.22 520.04,91.24 530.15,91.25 536.22,91.26 540.26,91.27 552.40,91.29 558.46,91.30 562.51,91.30 572.62,91.32 582.73,91.33 592.84,91.35 602.95,91.36 615.08,91.37 625.19,91.39 635.30,91.40 645.41,91.41 655.52,91.42 665.64,91.43 673.72,91.44 675.75,91.45 687.88,91.46 697.99,91.47 708.10,91.48 718.21,91.49 728.32,91.49 740.45,91.49 750.57,91.49 758.65,91.49"/>
<line x1="88" y1="70" x2="110" y2="70" stroke="#0f766e" stroke-width="2.8" stroke-dasharray="6 3"/>
<text x="116" y="74" font-family="Arial, sans-serif" font-size="12">[Pulldown]+[GND Clamp]</text>
<line x1="88" y1="88" x2="110" y2="88" stroke="#7c2d12" stroke-width="2.8" stroke-dasharray="6 3"/>
<text x="116" y="92" font-family="Arial, sans-serif" font-size="12">[Pullup]+[POWER Clamp]</text>
<rect x="78" y="464" width="694" height="44" fill="#fffdf7" stroke="#d8c6a1" rx="4"/>
<text x="88" y="481" font-family="Arial, sans-serif" font-size="11" font-weight="700" fill="#4b3b21">Findings needing attention</text>
<rect x="88" y="488" width="7" height="7" fill="#b54708"/>
<text x="102" y="495" font-family="Arial, sans-serif" font-size="11" fill="#333">WARN 5.3.6: I-V stair-step evidence needs review | [GND Clamp]: roughness=0.197 &gt; 0.1</text>
<text x="425.00" y="444.00" text-anchor="middle" font-family="Arial, sans-serif" font-size="12">Table voltage (V)</text>
<text transform="translate(18 226.00) rotate(-90)" text-anchor="middle" font-family="Arial, sans-serif" font-size="12">Current (A)</text>
<text x="420" y="42" font-family="Arial, sans-serif" font-size="11" fill="#555">thick dashed=combined typ curves</text>
</svg>