<svg xmlns="http://www.w3.org/2000/svg" width="800" height="560" viewBox="0 0 800 560">
<rect width="100%" height="100%" fill="#ffffff"/>
<text x="78" y="25" font-family="Arial, sans-serif" font-size="16" font-weight="700">E34_GPIO_I2CSCLIN_1V2_00_ISOSW I-V Combined Curves</text>
<rect x="78" y="52" width="694" height="348" fill="#fbfbfb" stroke="#c8c8c8"/>
<line x1="78.00" y1="52" x2="78.00" y2="400" stroke="#ececec"/>
<text x="78.00" y="422" text-anchor="middle" font-family="Arial, sans-serif" font-size="11">-1.3</text>
<line x1="216.80" y1="52" x2="216.80" y2="400" stroke="#ececec"/>
<text x="216.80" y="422" text-anchor="middle" font-family="Arial, sans-serif" font-size="11">-0.523</text>
<line x1="355.60" y1="52" x2="355.60" y2="400" stroke="#ececec"/>
<text x="355.60" y="422" text-anchor="middle" font-family="Arial, sans-serif" font-size="11">0.226</text>
<line x1="494.40" y1="52" x2="494.40" y2="400" stroke="#ececec"/>
<text x="494.40" y="422" text-anchor="middle" font-family="Arial, sans-serif" font-size="11">0.974</text>
<line x1="633.20" y1="52" x2="633.20" y2="400" stroke="#ececec"/>
<text x="633.20" y="422" text-anchor="middle" font-family="Arial, sans-serif" font-size="11">1.7</text>
<line x1="772.00" y1="52" x2="772.00" y2="400" stroke="#ececec"/>
<text x="772.00" y="422" text-anchor="middle" font-family="Arial, sans-serif" font-size="11">2.5</text>
<line x1="78" y1="400.00" x2="772" y2="400.00" stroke="#ececec"/>
<text x="70" y="404.00" text-anchor="end" font-family="Arial, sans-serif" font-size="11">-0.62</text>
<line x1="78" y1="330.40" x2="772" y2="330.40" stroke="#ececec"/>
<text x="70" y="334.40" text-anchor="end" font-family="Arial, sans-serif" font-size="11">-0.485</text>
<line x1="78" y1="260.80" x2="772" y2="260.80" stroke="#ececec"/>
<text x="70" y="264.80" text-anchor="end" font-family="Arial, sans-serif" font-size="11">-0.35</text>
<line x1="78" y1="191.20" x2="772" y2="191.20" stroke="#ececec"/>
<text x="70" y="195.20" text-anchor="end" font-family="Arial, sans-serif" font-size="11">-0.214</text>
<line x1="78" y1="121.60" x2="772" y2="121.60" stroke="#ececec"/>
<text x="70" y="125.60" text-anchor="end" font-family="Arial, sans-serif" font-size="11">-0.0791</text>
<line x1="78" y1="52.00" x2="772" y2="52.00" stroke="#ececec"/>
<text x="70" y="56.00" text-anchor="end" font-family="Arial, sans-serif" font-size="11">0.0562</text>
<line x1="313.78" y1="52" x2="313.78" y2="400" stroke="#777" stroke-dasharray="4 4"/>
<line x1="78" y1="80.91" x2="772" y2="80.91" stroke="#777" stroke-dasharray="4 4"/>
<line x1="91.35" y1="52" x2="91.35" y2="400" stroke="#555" stroke-dasharray="2 4"/>
<text x="95.35" y="66" font-family="Arial, sans-serif" font-size="11" fill="#555">-Vcc</text>
<line x1="536.22" y1="52" x2="536.22" y2="400" stroke="#555" stroke-dasharray="2 4"/>
<text x="540.22" y="66" font-family="Arial, sans-serif" font-size="11" fill="#555">Vcc</text>
<line x1="758.65" y1="52" x2="758.65" y2="400" stroke="#555" stroke-dasharray="2 4"/>
<text x="762.65" y="66" font-family="Arial, sans-serif" font-size="11" fill="#555">2Vcc</text>
<polyline fill="none" stroke="#0f766e" stroke-width="2.8" opacity="0.95" stroke-dasharray="6 3" points="91.35,376.00 102.47,323.55 111.74,279.84 122.86,227.38 133.98,174.93 135.83,166.19 137.69,157.45 139.54,148.70 141.39,139.96 143.25,131.22 145.10,122.48 146.96,114.76 148.81,108.19 150.66,102.71 152.52,98.25 154.37,94.71 156.22,91.96 158.08,89.88 159.93,88.33 161.78,87.20 163.64,86.37 165.49,85.77 167.35,85.33 169.20,85.01 171.05,84.76 172.91,84.57 174.76,84.43 176.61,84.30 178.47,84.20 180.32,84.11 182.17,84.03 184.03,83.96 185.88,83.89 187.74,83.83 189.59,83.76 191.44,83.70 193.30,83.65 195.15,83.59 197.00,83.53 198.86,83.48 200.71,83.43 202.56,83.38 204.42,83.32 206.27,83.27 208.12,83.22 209.98,83.18 211.83,83.13 213.69,83.08 215.54,83.03 217.39,82.98 219.25,82.93 221.10,82.89 222.95,82.84 224.81,82.80 226.66,82.75 228.51,82.71 230.37,82.67 232.22,82.62 234.08,82.58 235.93,82.53 237.78,82.48 248.90,82.23 258.17,82.02 269.29,81.78 280.42,81.55 289.68,81.36 300.81,81.15 310.07,80.98 313.78,80.91 321.20,80.79 323.05,80.76 332.32,80.61 341.59,80.47 349.00,80.37 352.71,80.33 363.83,80.20 373.10,80.11 384.22,80.02 395.34,79.96 404.61,79.92 415.73,79.89 426.85,79.88 436.12,79.87 447.24,79.86 456.51,79.85 467.63,79.85 478.76,79.84 488.02,79.84 499.15,79.84 504.71,79.83 510.27,79.83 513.97,79.83 515.83,79.83 519.54,79.83 521.39,79.83 530.66,79.83 536.22,79.83 541.78,79.82 551.05,79.82 558.46,79.82 562.17,79.82 571.44,79.82 582.56,79.82 593.68,79.81 602.95,79.81 614.07,79.81 625.19,79.81 634.46,79.80 645.58,79.77 656.70,79.72 665.97,79.65 677.09,79.54 688.22,79.40 690.07,79.38 693.78,79.32 695.63,79.29 697.48,79.27 699.34,79.24 701.19,79.21 703.04,79.18 704.90,79.15 706.75,79.12 708.61,79.09 717.87,78.92 729.00,78.71 740.12,78.48 749.39,78.28 758.65,78.07"/>
<polyline fill="none" stroke="#7c2d12" stroke-width="2.8" opacity="0.95" stroke-dasharray="6 3" points="91.35,76.00 95.05,76.11 98.76,76.21 100.61,76.27 102.47,76.32 104.32,76.37 106.18,76.42 108.03,76.47 111.74,76.58 113.59,76.63 115.44,76.68 117.30,76.73 119.15,76.78 121.00,76.83 122.86,76.88 124.71,76.93 126.57,76.98 130.27,77.08 132.13,77.13 133.98,77.18 135.83,77.23 137.69,77.28 139.54,77.33 143.25,77.43 145.10,77.48 146.96,77.52 148.81,77.57 150.66,77.62 152.52,77.67 154.37,77.72 156.22,77.76 158.08,77.81 161.78,77.90 163.64,77.95 165.49,77.99 167.35,78.04 169.20,78.08 171.05,78.13 172.91,78.17 174.76,78.22 176.61,78.26 178.47,78.30 182.17,78.39 184.03,78.43 185.88,78.48 189.59,78.56 191.44,78.60 193.30,78.64 195.15,78.69 197.00,78.73 198.86,78.77 200.71,78.81 204.42,78.89 206.27,78.93 209.98,79.00 211.83,79.04 213.69,79.08 217.39,79.16 221.10,79.23 222.95,79.27 224.81,79.31 226.66,79.34 228.51,79.38 232.22,79.45 234.08,79.49 235.93,79.52 237.78,79.56 241.49,79.63 243.34,79.66 245.20,79.70 248.90,79.77 252.61,79.84 256.32,79.91 258.17,79.94 260.03,79.98 261.88,80.01 263.73,80.04 265.59,80.08 267.44,80.11 269.29,80.14 273.00,80.21 276.71,80.28 278.56,80.31 280.42,80.34 282.27,80.38 284.12,80.41 285.98,80.44 287.83,80.47 289.68,80.50 291.54,80.54 293.39,80.57 295.25,80.60 297.10,80.63 298.95,80.66 300.81,80.69 302.66,80.73 304.51,80.76 306.37,80.79 308.22,80.82 310.07,80.85 311.93,80.88 313.78,80.91 321.20,81.03 334.17,81.22 336.03,81.24 337.88,81.27 339.73,81.29 341.59,81.32 343.44,81.34 352.71,81.45 363.83,81.57 373.10,81.66 378.66,81.71 382.37,81.73 384.22,81.75 387.93,81.77 389.78,81.78 393.49,81.80 395.34,81.81 397.20,81.82 399.05,81.83 400.90,81.84 402.76,81.84 404.61,81.85 406.46,81.86 408.32,81.86 410.17,81.87 412.02,81.87 413.88,81.88 415.73,81.88 417.59,81.88 419.44,81.89 421.29,81.89 425.00,81.90 426.85,81.90 436.12,81.91 447.24,81.92 456.51,81.93 467.63,81.94 478.76,81.94 488.02,81.95 499.15,81.96 504.71,81.96 510.27,81.96 513.97,81.96 517.68,81.96 519.54,81.97 523.24,81.97 530.66,81.97 536.22,81.97 541.78,81.97 551.05,81.98 558.46,81.98 562.17,81.98 571.44,81.98 582.56,81.99 593.68,81.99 602.95,81.99 614.07,81.99 625.19,81.99 634.46,81.99 645.58,81.99 656.70,81.99 665.97,81.99 677.09,81.99 688.22,81.99 697.48,81.99 708.61,81.99 717.87,81.99 729.00,81.99 740.12,81.99 749.39,81.99 758.65,81.99"/>
<line x1="88" y1="70" x2="110" y2="70" stroke="#0f766e" stroke-width="2.8" stroke-dasharray="6 3"/>
<text x="116" y="74" font-family="Arial, sans-serif" font-size="12">[Pulldown]+[GND Clamp]</text>
<line x1="88" y1="88" x2="110" y2="88" stroke="#7c2d12" stroke-width="2.8" stroke-dasharray="6 3"/>
<text x="116" y="92" font-family="Arial, sans-serif" font-size="12">[Pullup]+[POWER Clamp]</text>
<rect x="78" y="464" width="694" height="44" fill="#fffdf7" stroke="#d8c6a1" rx="4"/>
<text x="88" y="481" font-family="Arial, sans-serif" font-size="11" font-weight="700" fill="#4b3b21">Findings needing attention</text>
<rect x="88" y="488" width="7" height="7" fill="#b54708"/>
<text x="102" y="495" font-family="Arial, sans-serif" font-size="11" fill="#333">WARN 5.3.6: I-V stair-step evidence needs review | [GND Clamp]: roughness=0.179 &gt; 0.1</text>
<text x="425.00" y="444.00" text-anchor="middle" font-family="Arial, sans-serif" font-size="12">Table voltage (V)</text>
<text transform="translate(18 226.00) rotate(-90)" text-anchor="middle" font-family="Arial, sans-serif" font-size="12">Current (A)</text>
<text x="420" y="42" font-family="Arial, sans-serif" font-size="11" fill="#555">thick dashed=combined typ curves</text>
</svg>