<svg xmlns="http://www.w3.org/2000/svg" width="800" height="560" viewBox="0 0 800 560">
<rect width="100%" height="100%" fill="#ffffff"/>
<text x="78" y="25" font-family="Arial, sans-serif" font-size="16" font-weight="700">E34_GPIO_SPI_I3C_MST_1V1_00 I-V Combined Curves</text>
<rect x="78" y="52" width="694" height="348" fill="#fbfbfb" stroke="#c8c8c8"/>
<line x1="78.00" y1="52" x2="78.00" y2="400" stroke="#ececec"/>
<text x="78.00" y="422" text-anchor="middle" font-family="Arial, sans-serif" font-size="11">-1.2</text>
<line x1="216.80" y1="52" x2="216.80" y2="400" stroke="#ececec"/>
<text x="216.80" y="422" text-anchor="middle" font-family="Arial, sans-serif" font-size="11">-0.48</text>
<line x1="355.60" y1="52" x2="355.60" y2="400" stroke="#ececec"/>
<text x="355.60" y="422" text-anchor="middle" font-family="Arial, sans-serif" font-size="11">0.207</text>
<line x1="494.40" y1="52" x2="494.40" y2="400" stroke="#ececec"/>
<text x="494.40" y="422" text-anchor="middle" font-family="Arial, sans-serif" font-size="11">0.893</text>
<line x1="633.20" y1="52" x2="633.20" y2="400" stroke="#ececec"/>
<text x="633.20" y="422" text-anchor="middle" font-family="Arial, sans-serif" font-size="11">1.6</text>
<line x1="772.00" y1="52" x2="772.00" y2="400" stroke="#ececec"/>
<text x="772.00" y="422" text-anchor="middle" font-family="Arial, sans-serif" font-size="11">2.3</text>
<line x1="78" y1="400.00" x2="772" y2="400.00" stroke="#ececec"/>
<text x="70" y="404.00" text-anchor="end" font-family="Arial, sans-serif" font-size="11">-0.482</text>
<line x1="78" y1="330.40" x2="772" y2="330.40" stroke="#ececec"/>
<text x="70" y="334.40" text-anchor="end" font-family="Arial, sans-serif" font-size="11">-0.374</text>
<line x1="78" y1="260.80" x2="772" y2="260.80" stroke="#ececec"/>
<text x="70" y="264.80" text-anchor="end" font-family="Arial, sans-serif" font-size="11">-0.266</text>
<line x1="78" y1="191.20" x2="772" y2="191.20" stroke="#ececec"/>
<text x="70" y="195.20" text-anchor="end" font-family="Arial, sans-serif" font-size="11">-0.158</text>
<line x1="78" y1="121.60" x2="772" y2="121.60" stroke="#ececec"/>
<text x="70" y="125.60" text-anchor="end" font-family="Arial, sans-serif" font-size="11">-0.0507</text>
<line x1="78" y1="52.00" x2="772" y2="52.00" stroke="#ececec"/>
<text x="70" y="56.00" text-anchor="end" font-family="Arial, sans-serif" font-size="11">0.057</text>
<line x1="313.78" y1="52" x2="313.78" y2="400" stroke="#777" stroke-dasharray="4 4"/>
<line x1="78" y1="88.83" x2="772" y2="88.83" stroke="#777" stroke-dasharray="4 4"/>
<line x1="91.35" y1="52" x2="91.35" y2="400" stroke="#555" stroke-dasharray="2 4"/>
<text x="95.35" y="66" font-family="Arial, sans-serif" font-size="11" fill="#555">-Vcc</text>
<line x1="536.22" y1="52" x2="536.22" y2="400" stroke="#555" stroke-dasharray="2 4"/>
<text x="540.22" y="66" font-family="Arial, sans-serif" font-size="11" fill="#555">Vcc</text>
<line x1="758.65" y1="52" x2="758.65" y2="400" stroke="#555" stroke-dasharray="2 4"/>
<text x="762.65" y="66" font-family="Arial, sans-serif" font-size="11" fill="#555">2Vcc</text>
<polyline fill="none" stroke="#0f766e" stroke-width="2.8" opacity="0.95" stroke-dasharray="6 3" points="91.35,376.00 101.46,321.08 111.57,266.16 121.68,211.25 123.70,200.26 125.72,189.28 127.74,178.30 129.77,167.31 131.79,156.33 133.81,145.34 135.83,136.11 137.86,128.71 139.88,122.89 141.90,118.37 143.92,114.91 145.94,112.29 147.97,110.29 149.99,108.75 152.01,107.54 154.03,106.57 156.05,105.77 158.08,105.09 160.10,104.49 162.12,103.95 164.14,103.46 166.17,102.99 168.19,102.55 170.21,102.13 172.23,101.73 174.25,101.33 176.28,100.94 178.30,100.57 180.32,100.20 182.34,99.85 184.36,99.51 186.39,99.18 188.41,98.86 190.43,98.54 194.48,97.95 196.50,97.65 198.52,97.39 202.56,96.87 206.61,96.34 208.63,96.13 212.67,95.69 214.70,95.47 216.72,95.25 224.81,94.52 226.83,94.33 236.94,93.55 249.07,92.71 259.18,92.04 269.29,91.40 279.41,90.77 289.52,90.16 299.63,89.58 311.76,88.93 313.78,88.83 321.87,88.43 331.98,87.99 334.00,87.91 342.09,87.59 348.16,87.38 352.20,87.25 354.22,87.19 356.25,87.13 358.27,87.07 360.29,87.02 362.31,86.96 364.34,86.91 366.36,86.87 368.38,86.82 370.40,86.78 372.42,86.74 374.45,86.70 380.51,86.60 384.56,86.54 394.67,86.42 404.78,86.35 414.89,86.30 427.02,86.26 437.13,86.23 447.24,86.20 457.35,86.18 467.47,86.16 477.58,86.14 479.60,86.13 489.71,86.11 491.73,86.11 493.75,86.11 499.82,86.09 509.93,86.08 513.97,86.07 520.04,86.06 530.15,86.04 536.22,86.03 540.26,86.03 552.40,86.01 558.46,86.00 562.51,85.99 572.62,85.98 582.73,85.97 592.84,85.95 602.95,85.94 615.08,85.92 625.19,85.89 635.30,85.86 645.41,85.80 655.52,85.72 665.64,85.60 677.77,85.41 687.88,85.21 697.99,84.96 708.10,84.68 718.21,84.35 728.32,83.99 740.45,83.51 750.57,83.08 758.65,82.71"/>
<polyline fill="none" stroke="#7c2d12" stroke-width="2.8" opacity="0.95" stroke-dasharray="6 3" points="91.35,76.00 93.37,76.14 95.39,76.29 97.41,76.43 101.46,76.72 105.50,77.01 109.55,77.29 111.57,77.44 115.61,77.72 117.63,77.86 119.66,78.00 121.68,78.14 123.70,78.28 125.72,78.42 127.74,78.55 129.77,78.69 131.79,78.83 133.81,78.97 135.83,79.10 137.86,79.24 139.88,79.37 143.92,79.64 145.94,79.77 147.97,79.91 149.99,80.04 152.01,80.17 154.03,80.30 156.05,80.43 158.08,80.56 160.10,80.69 162.12,80.82 164.14,80.95 166.17,81.08 168.19,81.21 170.21,81.33 172.23,81.46 174.25,81.59 176.28,81.71 178.30,81.84 182.34,82.08 184.36,82.21 186.39,82.33 188.41,82.45 190.43,82.57 192.45,82.69 194.48,82.81 196.50,82.93 198.52,83.05 200.54,83.17 202.56,83.29 204.59,83.40 206.61,83.52 208.63,83.64 210.65,83.75 212.67,83.86 214.70,83.98 216.72,84.09 218.74,84.21 220.76,84.32 222.79,84.43 224.81,84.54 226.83,84.65 228.85,84.76 230.87,84.87 234.92,85.09 236.94,85.20 238.96,85.30 243.01,85.51 245.03,85.62 247.05,85.72 249.07,85.83 251.10,85.93 253.12,86.03 255.14,86.14 257.16,86.24 259.18,86.34 261.21,86.44 263.23,86.54 265.25,86.64 267.27,86.74 269.29,86.84 271.32,86.94 273.34,87.03 275.36,87.13 277.38,87.22 279.41,87.32 281.43,87.41 283.45,87.51 285.47,87.60 287.49,87.69 289.52,87.78 291.54,87.87 295.58,88.05 297.60,88.14 299.63,88.23 301.65,88.31 303.67,88.40 305.69,88.48 309.74,88.66 311.76,88.74 313.78,88.83 321.87,89.14 329.96,89.43 331.98,89.50 334.00,89.57 336.03,89.63 342.09,89.82 352.20,90.09 362.31,90.33 374.45,90.56 384.56,90.71 394.67,90.82 404.78,90.90 414.89,90.96 427.02,91.01 437.13,91.05 447.24,91.08 457.35,91.08 463.42,91.08 467.47,91.08 477.58,91.08 489.71,91.08 491.73,91.08 493.75,91.08 499.82,91.08 501.84,91.08 509.93,91.08 513.97,91.08 520.04,91.08 530.15,91.08 536.22,91.08 540.26,91.08 552.40,91.08 558.46,91.08 562.51,91.08 574.64,91.08 576.66,91.14 582.73,91.53 592.84,92.17 604.97,92.95 606.99,93.08 615.08,93.59 625.19,94.20 635.30,94.78 645.41,95.30 647.44,95.40 651.48,95.59 655.52,95.76 657.55,95.85 659.57,95.93 663.61,96.09 665.64,96.16 669.68,96.31 671.70,96.37 673.72,96.44 675.75,96.50 677.77,96.56 681.81,96.68 683.83,96.73 687.88,96.83 689.90,96.88 693.95,96.96 695.97,97.00 697.99,97.03 700.01,97.06 702.03,97.08 704.06,97.09 708.10,97.09 718.21,97.09 726.30,97.09 730.34,97.09 732.37,97.09 734.39,97.09 740.45,97.09 750.57,97.09 758.65,97.09"/>
<line x1="88" y1="70" x2="110" y2="70" stroke="#0f766e" stroke-width="2.8" stroke-dasharray="6 3"/>
<text x="116" y="74" font-family="Arial, sans-serif" font-size="12">[Pulldown]+[GND Clamp]</text>
<line x1="88" y1="88" x2="110" y2="88" stroke="#7c2d12" stroke-width="2.8" stroke-dasharray="6 3"/>
<text x="116" y="92" font-family="Arial, sans-serif" font-size="12">[Pullup]+[POWER Clamp]</text>
<rect x="78" y="464" width="694" height="44" fill="#fffdf7" stroke="#d8c6a1" rx="4"/>
<text x="88" y="481" font-family="Arial, sans-serif" font-size="11" font-weight="700" fill="#4b3b21">Findings needing attention</text>
<rect x="88" y="488" width="7" height="7" fill="#b54708"/>
<text x="102" y="495" font-family="Arial, sans-serif" font-size="11" fill="#333">WARN 5.3.6: I-V stair-step evidence needs review | [GND Clamp]: roughness=0.197 &gt; 0.1</text>
<text x="425.00" y="444.00" text-anchor="middle" font-family="Arial, sans-serif" font-size="12">Table voltage (V)</text>
<text transform="translate(18 226.00) rotate(-90)" text-anchor="middle" font-family="Arial, sans-serif" font-size="12">Current (A)</text>
<text x="420" y="42" font-family="Arial, sans-serif" font-size="11" fill="#555">thick dashed=combined typ curves</text>
</svg>