<svg xmlns="http://www.w3.org/2000/svg" width="800" height="560" viewBox="0 0 800 560">
<rect width="100%" height="100%" fill="#ffffff"/>
<text x="78" y="25" font-family="Arial, sans-serif" font-size="16" font-weight="700">nfc_ioc15_swp_master_200_best I-V Pullup/Pulldown Curves</text>
<rect x="78" y="52" width="694" height="348" fill="#fbfbfb" stroke="#c8c8c8"/>
<line x1="78.00" y1="52" x2="78.00" y2="400" stroke="#ececec"/>
<text x="78.00" y="422" text-anchor="middle" font-family="Arial, sans-serif" font-size="11">-1.9</text>
<line x1="216.80" y1="52" x2="216.80" y2="400" stroke="#ececec"/>
<text x="216.80" y="422" text-anchor="middle" font-family="Arial, sans-serif" font-size="11">-0.785</text>
<line x1="355.60" y1="52" x2="355.60" y2="400" stroke="#ececec"/>
<text x="355.60" y="422" text-anchor="middle" font-family="Arial, sans-serif" font-size="11">0.338</text>
<line x1="494.40" y1="52" x2="494.40" y2="400" stroke="#ececec"/>
<text x="494.40" y="422" text-anchor="middle" font-family="Arial, sans-serif" font-size="11">1.5</text>
<line x1="633.20" y1="52" x2="633.20" y2="400" stroke="#ececec"/>
<text x="633.20" y="422" text-anchor="middle" font-family="Arial, sans-serif" font-size="11">2.6</text>
<line x1="772.00" y1="52" x2="772.00" y2="400" stroke="#ececec"/>
<text x="772.00" y="422" text-anchor="middle" font-family="Arial, sans-serif" font-size="11">3.7</text>
<line x1="78" y1="400.00" x2="772" y2="400.00" stroke="#ececec"/>
<text x="70" y="404.00" text-anchor="end" font-family="Arial, sans-serif" font-size="11">-0.301</text>
<line x1="78" y1="330.40" x2="772" y2="330.40" stroke="#ececec"/>
<text x="70" y="334.40" text-anchor="end" font-family="Arial, sans-serif" font-size="11">-0.171</text>
<line x1="78" y1="260.80" x2="772" y2="260.80" stroke="#ececec"/>
<text x="70" y="264.80" text-anchor="end" font-family="Arial, sans-serif" font-size="11">-0.0413</text>
<line x1="78" y1="191.20" x2="772" y2="191.20" stroke="#ececec"/>
<text x="70" y="195.20" text-anchor="end" font-family="Arial, sans-serif" font-size="11">0.0884</text>
<line x1="78" y1="121.60" x2="772" y2="121.60" stroke="#ececec"/>
<text x="70" y="125.60" text-anchor="end" font-family="Arial, sans-serif" font-size="11">0.218</text>
<line x1="78" y1="52.00" x2="772" y2="52.00" stroke="#ececec"/>
<text x="70" y="56.00" text-anchor="end" font-family="Arial, sans-serif" font-size="11">0.348</text>
<line x1="313.78" y1="52" x2="313.78" y2="400" stroke="#777" stroke-dasharray="4 4"/>
<line x1="78" y1="238.64" x2="772" y2="238.64" stroke="#777" stroke-dasharray="4 4"/>
<line x1="558.46" y1="52" x2="558.46" y2="400" stroke="#555" stroke-dasharray="2 4"/>
<text x="562.46" y="66" font-family="Arial, sans-serif" font-size="11" fill="#555">Vcc</text>
<polyline fill="none" stroke="#0f766e" stroke-width="2.8" opacity="0.95" stroke-dasharray="6 3" points="91.35,373.85 101.23,364.73 112.35,354.47 122.24,345.35 133.36,335.09 143.25,325.98 154.37,315.72 164.26,306.60 175.38,296.34 185.26,287.22 196.39,276.96 206.27,267.84 216.16,258.73 221.10,254.17 222.34,253.38 223.57,252.81 224.81,252.38 226.04,252.03 227.28,251.74 228.51,251.47 229.75,251.23 237.17,249.90 248.29,248.02 258.17,246.41 269.29,244.66 279.18,243.18 290.30,241.60 300.19,240.29 311.31,238.92 313.78,238.64 321.20,237.81 331.08,236.81 342.20,235.80 350.85,235.12 352.09,235.03 355.80,234.77 361.98,234.36 363.21,234.29 373.10,233.75 384.22,233.27 394.11,232.95 405.23,232.70 415.11,232.58 426.24,232.50 436.12,232.45 446.01,232.41 457.13,232.37 467.02,232.34 478.14,232.32 488.02,232.29 499.15,232.27 509.03,232.25 513.97,232.24 520.15,232.23 530.04,232.22 536.22,232.21 539.93,232.20 551.05,232.18 558.46,232.17 560.93,232.17 572.05,232.15 581.94,232.14 593.06,232.12 602.95,232.11 614.07,231.93 616.54,231.83 619.01,231.70 620.25,231.63 621.49,231.54 622.72,231.45 625.19,231.24 626.43,231.12 628.90,230.86 631.37,230.57 633.84,230.24 636.31,229.88 638.79,229.49 641.26,229.07 642.49,228.84 643.73,228.61 644.96,228.37 646.20,228.11 647.44,227.84 648.67,227.54 649.91,227.22 651.14,226.86 652.38,226.42 653.61,225.88 654.85,225.17 656.09,224.18 665.97,215.06 675.86,205.94 686.98,195.68 696.87,186.56 707.99,176.30 717.87,167.19 729.00,156.93 738.88,147.81 750.00,137.55 758.65,129.57"/>
<polyline fill="none" stroke="#7c2d12" stroke-width="2.8" opacity="0.95" stroke-dasharray="6 3" points="91.35,76.00 101.23,85.12 112.35,95.38 122.24,104.50 133.36,114.75 143.25,123.87 154.37,134.13 164.26,143.25 172.91,151.23 174.14,152.37 175.38,153.51 176.61,154.65 177.85,155.79 185.26,162.63 195.15,171.75 196.39,172.89 197.62,174.02 198.86,175.16 200.09,176.30 206.27,182.00 217.39,192.26 218.63,193.29 219.86,194.15 221.10,194.91 222.34,195.61 227.28,198.16 237.17,202.99 248.29,208.38 258.17,213.13 269.29,218.43 279.18,223.09 281.65,224.24 290.30,228.24 300.19,232.72 303.90,234.37 311.31,237.59 313.78,238.64 321.20,241.70 326.14,243.65 331.08,245.54 342.20,249.50 352.09,252.66 363.21,255.81 373.10,258.25 384.22,260.60 394.11,262.35 405.23,264.00 415.11,265.24 426.24,266.47 436.12,267.41 446.01,268.18 457.13,268.89 467.02,269.41 478.14,269.91 488.02,270.29 499.15,270.68 509.03,270.98 513.97,271.13 520.15,271.30 530.04,271.56 536.22,271.71 539.93,271.80 551.05,272.06 558.46,272.22 560.93,272.27 572.05,272.50 581.94,272.69 593.06,272.89 599.24,273.00 600.48,273.03 601.71,273.05 602.95,273.07 604.18,273.09 605.42,273.11 606.66,273.13 614.07,273.26 622.72,273.45 623.96,273.48 625.19,273.52 626.43,273.55 627.66,273.59 628.90,273.63 635.08,273.87 644.96,274.61 646.20,274.82 647.44,275.09 648.67,275.48 649.91,276.03 651.14,276.84 654.85,280.25 665.97,290.51 675.86,299.63 686.98,309.89 696.87,319.01 707.99,329.27 717.87,338.39 729.00,348.64 738.88,357.76 750.00,368.02 758.65,376.00"/>
<line x1="88" y1="70" x2="110" y2="70" stroke="#0f766e" stroke-width="2.8" stroke-dasharray="6 3"/>
<text x="116" y="74" font-family="Arial, sans-serif" font-size="12">[Pulldown]</text>
<line x1="88" y1="88" x2="110" y2="88" stroke="#7c2d12" stroke-width="2.8" stroke-dasharray="6 3"/>
<text x="116" y="92" font-family="Arial, sans-serif" font-size="12">[Pullup]</text>
<rect x="78" y="464" width="694" height="60" fill="#fffdf7" stroke="#d8c6a1" rx="4"/>
<text x="88" y="481" font-family="Arial, sans-serif" font-size="11" font-weight="700" fill="#4b3b21">Findings needing attention</text>
<rect x="88" y="488" width="7" height="7" fill="#b42318"/>
<text x="102" y="495" font-family="Arial, sans-serif" font-size="11" fill="#333">FAIL 5.3.2: [Pullup] voltage sweep insufficient | Low end: table starts at -1.8V, need ≤ -1.98V</text>
<rect x="88" y="504" width="7" height="7" fill="#b42318"/>
<text x="102" y="511" font-family="Arial, sans-serif" font-size="11" fill="#333">FAIL 5.3.3: [Pulldown] voltage sweep insufficient | Low end: table starts at -1.8V, need ≤ -1.98V</text>
<text x="425.00" y="444.00" text-anchor="middle" font-family="Arial, sans-serif" font-size="12">Table voltage (V)</text>
<text transform="translate(18 226.00) rotate(-90)" text-anchor="middle" font-family="Arial, sans-serif" font-size="12">Current (A)</text>
<text x="420" y="42" font-family="Arial, sans-serif" font-size="11" fill="#555">thick dashed=combined typ curves</text>
</svg>