<svg xmlns="http://www.w3.org/2000/svg" width="800" height="520" viewBox="0 0 800 520">
<rect width="100%" height="100%" fill="#ffffff"/>
<text x="78" y="25" font-family="Arial, sans-serif" font-size="16" font-weight="700">E34_GPIO_I2CSCLIN_3V3_11_ISOSW I-V Pullup/Pulldown 0 V Detail</text>
<rect x="78" y="54" width="690" height="306" fill="#fbfbfb" stroke="#c8c8c8"/>
<line x1="78.00" y1="54" x2="78.00" y2="360" stroke="#ececec"/>
<text x="78.00" y="382" text-anchor="middle" font-family="Arial, sans-serif" font-size="11">0</text>
<line x1="216.00" y1="54" x2="216.00" y2="360" stroke="#ececec"/>
<text x="216.00" y="382" text-anchor="middle" font-family="Arial, sans-serif" font-size="11">0.66</text>
<line x1="354.00" y1="54" x2="354.00" y2="360" stroke="#ececec"/>
<text x="354.00" y="382" text-anchor="middle" font-family="Arial, sans-serif" font-size="11">1.3</text>
<line x1="492.00" y1="54" x2="492.00" y2="360" stroke="#ececec"/>
<text x="492.00" y="382" text-anchor="middle" font-family="Arial, sans-serif" font-size="11">2</text>
<line x1="630.00" y1="54" x2="630.00" y2="360" stroke="#ececec"/>
<text x="630.00" y="382" text-anchor="middle" font-family="Arial, sans-serif" font-size="11">2.6</text>
<line x1="768.00" y1="54" x2="768.00" y2="360" stroke="#ececec"/>
<text x="768.00" y="382" text-anchor="middle" font-family="Arial, sans-serif" font-size="11">3.3</text>
<line x1="78" y1="360.00" x2="768" y2="360.00" stroke="#ececec"/>
<text x="70" y="364.00" text-anchor="end" font-family="Arial, sans-serif" font-size="11">-0.12</text>
<line x1="78" y1="298.80" x2="768" y2="298.80" stroke="#ececec"/>
<text x="70" y="302.80" text-anchor="end" font-family="Arial, sans-serif" font-size="11">-0.0731</text>
<line x1="78" y1="237.60" x2="768" y2="237.60" stroke="#ececec"/>
<text x="70" y="241.60" text-anchor="end" font-family="Arial, sans-serif" font-size="11">-0.0259</text>
<line x1="78" y1="176.40" x2="768" y2="176.40" stroke="#ececec"/>
<text x="70" y="180.40" text-anchor="end" font-family="Arial, sans-serif" font-size="11">0.0214</text>
<line x1="78" y1="115.20" x2="768" y2="115.20" stroke="#ececec"/>
<text x="70" y="119.20" text-anchor="end" font-family="Arial, sans-serif" font-size="11">0.0686</text>
<line x1="78" y1="54.00" x2="768" y2="54.00" stroke="#ececec"/>
<text x="70" y="58.00" text-anchor="end" font-family="Arial, sans-serif" font-size="11">0.116</text>
<line x1="78.00" y1="54" x2="78.00" y2="360" stroke="#777" stroke-dasharray="4 4"/>
<line x1="78" y1="204.08" x2="768" y2="204.08" stroke="#777" stroke-dasharray="4 4"/>
<line x1="78.00" y1="54" x2="78.00" y2="360" stroke="#555" stroke-dasharray="2 4"/>
<text x="82.00" y="68" font-family="Arial, sans-serif" font-size="11" fill="#555">0V</text>
<line x1="768.00" y1="54" x2="768.00" y2="360" stroke="#555" stroke-dasharray="2 4"/>
<text x="772.00" y="68" font-family="Arial, sans-serif" font-size="11" fill="#555">Vcc</text>
<polyline fill="none" stroke="#1f77b4" stroke-width="1.2" opacity="0.55" stroke-dasharray="4 4" points="78.00,204.08 101.00,201.44 132.36,197.85 165.82,194.05 197.18,190.51 230.64,186.75 262.00,183.26 295.45,179.56 326.82,176.12 360.27,172.50 391.64,169.14 395.82,168.70 402.09,168.03 408.36,167.37 425.09,165.61 456.45,162.35 487.82,159.14 521.27,155.79 552.64,152.72 586.09,149.53 617.45,146.64 650.91,143.67 682.27,141.01 705.27,139.15 715.73,138.33 747.09,136.00 768.00,134.55"/>
<polyline fill="none" stroke="#1f77b4" stroke-width="1.2" opacity="0.55" stroke-dasharray="4 4" points="78.00,204.08 101.00,200.13 132.36,194.76 165.82,189.03 197.18,183.66 230.64,177.95 262.00,172.61 295.45,166.93 326.82,161.62 360.27,155.98 391.64,150.72 395.82,150.02 402.09,148.97 408.36,147.93 425.09,145.14 456.45,139.94 487.82,134.78 521.27,129.32 552.64,124.25 586.09,118.89 617.45,113.93 650.91,108.70 682.27,103.87 705.27,100.38 715.73,98.81 747.09,94.15 768.00,91.09"/>
<polyline fill="none" stroke="#1f77b4" stroke-width="2.0" opacity="1.0" points="78.00,204.08 101.00,200.80 132.36,196.34 165.82,191.60 197.18,187.16 230.64,182.45 262.00,178.05 295.45,173.37 326.82,169.02 360.27,164.40 391.64,160.10 395.82,159.53 402.09,158.67 408.36,157.82 425.09,155.55 456.45,151.32 487.82,147.13 521.27,142.71 552.64,138.62 586.09,134.32 617.45,130.35 650.91,126.20 682.27,122.38 705.27,119.64 715.73,118.41 747.09,114.79 768.00,112.44"/>
<polyline fill="none" stroke="#d62728" stroke-width="1.2" opacity="0.55" stroke-dasharray="4 4" points="78.00,204.08 101.00,206.82 132.36,210.54 165.82,214.49 197.18,218.17 230.64,222.07 262.00,225.71 295.45,229.56 326.82,233.15 360.27,236.94 387.45,240.00 391.64,240.47 395.82,240.94 402.09,241.64 425.09,244.20 456.45,247.66 487.82,251.09 521.27,254.71 552.64,258.05 586.09,261.58 617.45,264.84 650.91,268.25 682.27,271.40 705.27,273.67 715.73,274.69 747.09,277.71 768.00,279.65"/>
<polyline fill="none" stroke="#d62728" stroke-width="1.2" opacity="0.55" stroke-dasharray="4 4" points="78.00,204.08 101.00,208.25 132.36,213.88 165.82,219.88 197.18,225.49 230.64,231.46 262.00,237.04 295.45,242.97 326.82,248.50 360.27,254.37 387.45,259.13 391.64,259.85 395.82,260.58 402.09,261.68 425.09,265.67 456.45,271.09 487.82,276.48 521.27,282.19 552.64,287.51 586.09,293.14 617.45,298.38 650.91,303.92 682.27,309.07 705.27,312.82 715.73,314.51 747.09,319.57 768.00,322.91"/>
<polyline fill="none" stroke="#d62728" stroke-width="2.0" opacity="1.0" points="78.00,204.08 101.00,207.46 132.36,212.06 165.82,216.95 197.18,221.52 230.64,226.37 262.00,230.90 295.45,235.72 326.82,240.21 360.27,244.97 387.45,248.82 391.64,249.42 395.82,250.01 402.09,250.89 425.09,254.13 456.45,258.52 487.82,262.87 521.27,267.49 552.64,271.79 586.09,276.33 617.45,280.55 650.91,285.01 682.27,289.16 705.27,292.17 715.73,293.53 747.09,297.58 768.00,300.25"/>
<circle cx="78.00" cy="204.08" r="4.0" fill="#ffffff" stroke="#1f77b4" stroke-width="1.5"/>
<circle cx="78.00" cy="204.08" r="3.0" fill="#ffffff" stroke="#1f77b4" stroke-width="1.5"/>
<circle cx="78.00" cy="204.08" r="3.0" fill="#ffffff" stroke="#1f77b4" stroke-width="1.5"/>
<circle cx="78.00" cy="204.08" r="4.0" fill="#ffffff" stroke="#d62728" stroke-width="1.5"/>
<circle cx="78.00" cy="204.08" r="3.0" fill="#ffffff" stroke="#d62728" stroke-width="1.5"/>
<circle cx="78.00" cy="204.08" r="3.0" fill="#ffffff" stroke="#d62728" stroke-width="1.5"/>
<line x1="78" y1="204.08" x2="768" y2="204.08" stroke="#b54708" stroke-width="1.4" stroke-dasharray="5 3"/>
<text x="764" y="200.08" text-anchor="end" font-family="Arial, sans-serif" font-size="10" fill="#b54708">+1uA leakage limit</text>
<line x1="78" y1="204.08" x2="768" y2="204.08" stroke="#b54708" stroke-width="1.4" stroke-dasharray="5 3"/>
<text x="764" y="200.08" text-anchor="end" font-family="Arial, sans-serif" font-size="10" fill="#b54708">-1uA leakage limit</text>
<line x1="88" y1="72" x2="110" y2="72" stroke="#1f77b4" stroke-width="2.4"/>
<text x="116" y="76" font-family="Arial, sans-serif" font-size="12">[Pulldown]</text>
<line x1="88" y1="90" x2="110" y2="90" stroke="#d62728" stroke-width="2.4"/>
<text x="116" y="94" font-family="Arial, sans-serif" font-size="12">[Pullup]</text>
<text x="423.00" y="404.00" text-anchor="middle" font-family="Arial, sans-serif" font-size="12">Table voltage (V), zoomed around 0 V</text>
<text transform="translate(18 207.00) rotate(-90)" text-anchor="middle" font-family="Arial, sans-serif" font-size="12">Current (A)</text>
<text x="420" y="42" font-family="Arial, sans-serif" font-size="11" fill="#555">pullup/pulldown curves show typ/min/max; open circles mark I(0 V)</text>
</svg>