<svg xmlns="http://www.w3.org/2000/svg" width="800" height="520" viewBox="0 0 800 520">
<rect width="100%" height="100%" fill="#ffffff"/>
<text x="78" y="25" font-family="Arial, sans-serif" font-size="16" font-weight="700">E34_GPIO_SPI_I3C_MST_1V8_11 I-V Pullup/Pulldown 0 V Detail</text>
<rect x="78" y="54" width="690" height="306" fill="#fbfbfb" stroke="#c8c8c8"/>
<line x1="78.00" y1="54" x2="78.00" y2="360" stroke="#ececec"/>
<text x="78.00" y="382" text-anchor="middle" font-family="Arial, sans-serif" font-size="11">0</text>
<line x1="216.00" y1="54" x2="216.00" y2="360" stroke="#ececec"/>
<text x="216.00" y="382" text-anchor="middle" font-family="Arial, sans-serif" font-size="11">0.36</text>
<line x1="354.00" y1="54" x2="354.00" y2="360" stroke="#ececec"/>
<text x="354.00" y="382" text-anchor="middle" font-family="Arial, sans-serif" font-size="11">0.72</text>
<line x1="492.00" y1="54" x2="492.00" y2="360" stroke="#ececec"/>
<text x="492.00" y="382" text-anchor="middle" font-family="Arial, sans-serif" font-size="11">1.1</text>
<line x1="630.00" y1="54" x2="630.00" y2="360" stroke="#ececec"/>
<text x="630.00" y="382" text-anchor="middle" font-family="Arial, sans-serif" font-size="11">1.4</text>
<line x1="768.00" y1="54" x2="768.00" y2="360" stroke="#ececec"/>
<text x="768.00" y="382" text-anchor="middle" font-family="Arial, sans-serif" font-size="11">1.8</text>
<line x1="78" y1="360.00" x2="768" y2="360.00" stroke="#ececec"/>
<text x="70" y="364.00" text-anchor="end" font-family="Arial, sans-serif" font-size="11">-0.121</text>
<line x1="78" y1="298.80" x2="768" y2="298.80" stroke="#ececec"/>
<text x="70" y="302.80" text-anchor="end" font-family="Arial, sans-serif" font-size="11">-0.0696</text>
<line x1="78" y1="237.60" x2="768" y2="237.60" stroke="#ececec"/>
<text x="70" y="241.60" text-anchor="end" font-family="Arial, sans-serif" font-size="11">-0.0178</text>
<line x1="78" y1="176.40" x2="768" y2="176.40" stroke="#ececec"/>
<text x="70" y="180.40" text-anchor="end" font-family="Arial, sans-serif" font-size="11">0.0339</text>
<line x1="78" y1="115.20" x2="768" y2="115.20" stroke="#ececec"/>
<text x="70" y="119.20" text-anchor="end" font-family="Arial, sans-serif" font-size="11">0.0857</text>
<line x1="78" y1="54.00" x2="768" y2="54.00" stroke="#ececec"/>
<text x="70" y="58.00" text-anchor="end" font-family="Arial, sans-serif" font-size="11">0.137</text>
<line x1="78.00" y1="54" x2="78.00" y2="360" stroke="#777" stroke-dasharray="4 4"/>
<line x1="78" y1="216.53" x2="768" y2="216.53" stroke="#777" stroke-dasharray="4 4"/>
<line x1="78.00" y1="54" x2="78.00" y2="360" stroke="#555" stroke-dasharray="2 4"/>
<text x="82.00" y="68" font-family="Arial, sans-serif" font-size="11" fill="#555">0V</text>
<line x1="768.00" y1="54" x2="768.00" y2="360" stroke="#555" stroke-dasharray="2 4"/>
<text x="772.00" y="68" font-family="Arial, sans-serif" font-size="11" fill="#555">Vcc</text>
<polyline fill="none" stroke="#1f77b4" stroke-width="1.2" opacity="0.55" stroke-dasharray="4 4" points="78.00,216.53 101.00,210.50 131.67,203.00 147.00,199.50 166.17,195.40 170.00,194.62 196.83,189.49 212.17,186.85 231.33,183.85 262.00,179.75 296.50,176.16 327.17,173.83 361.67,172.02 392.33,170.95 426.83,170.11 457.50,169.56 488.17,169.11 522.67,168.68 553.33,168.35 587.83,168.01 618.50,167.74 653.00,167.46 683.67,167.22 699.00,167.11 718.17,166.97 748.83,166.76 768.00,166.63"/>
<polyline fill="none" stroke="#1f77b4" stroke-width="1.2" opacity="0.55" stroke-dasharray="4 4" points="78.00,216.53 101.00,202.06 131.67,183.66 147.00,175.01 166.17,164.82 170.00,162.87 196.83,150.11 212.17,143.55 231.33,136.10 262.00,125.90 296.50,116.82 327.17,110.65 361.67,105.53 392.33,102.30 426.83,99.73 457.50,98.11 488.17,96.88 522.67,95.78 553.33,94.98 587.83,94.19 618.50,93.57 653.00,92.94 683.67,92.40 699.00,92.15 718.17,91.85 748.83,91.37 768.00,91.09"/>
<polyline fill="none" stroke="#1f77b4" stroke-width="2.0" opacity="1.0" points="78.00,216.53 101.00,206.69 131.67,194.29 147.00,188.48 166.17,181.65 170.00,180.34 196.83,171.77 212.17,167.36 231.33,162.35 262.00,155.49 296.50,149.44 327.17,145.41 361.67,142.20 392.33,140.24 426.83,138.72 457.50,137.74 488.17,136.98 522.67,136.28 553.33,135.75 587.83,135.22 618.50,134.80 653.00,134.36 683.67,133.99 699.00,133.82 718.17,133.61 748.83,133.28 768.00,133.08"/>
<polyline fill="none" stroke="#d62728" stroke-width="1.2" opacity="0.55" stroke-dasharray="4 4" points="78.00,216.53 101.00,220.77 112.50,222.79 116.33,223.45 131.67,226.00 166.17,231.34 181.50,233.54 196.83,235.61 216.00,238.04 231.33,239.85 262.00,243.11 265.83,243.48 296.50,246.18 327.17,248.40 361.67,250.35 392.33,251.67 426.83,252.79 457.50,253.57 488.17,254.20 495.83,254.34 522.67,254.79 553.33,255.23 587.83,255.67 618.50,256.02 653.00,256.38 683.67,256.67 699.00,256.81 718.17,256.97 748.83,257.22 768.00,257.37"/>
<polyline fill="none" stroke="#d62728" stroke-width="1.2" opacity="0.55" stroke-dasharray="4 4" points="78.00,216.53 101.00,226.45 112.50,231.20 116.33,232.74 131.67,238.65 166.17,251.32 181.50,256.54 196.83,261.50 216.00,267.33 231.33,271.70 262.00,279.68 265.83,280.61 296.50,287.49 327.17,293.45 361.67,299.16 392.33,303.43 426.83,307.43 457.50,310.34 488.17,312.72 495.83,313.25 522.67,314.89 553.33,316.46 587.83,317.93 618.50,319.04 653.00,320.12 683.67,320.96 699.00,321.35 718.17,321.82 748.83,322.50 768.00,322.91"/>
<polyline fill="none" stroke="#d62728" stroke-width="2.0" opacity="1.0" points="78.00,216.53 101.00,223.17 112.50,226.35 116.33,227.40 131.67,231.47 166.17,240.08 181.50,243.64 196.83,247.03 216.00,251.03 231.33,254.04 262.00,259.53 265.83,260.16 296.50,264.86 327.17,268.88 361.67,272.62 392.33,275.32 426.83,277.74 457.50,279.45 488.17,280.82 495.83,281.12 522.67,281.12 553.33,281.12 587.83,281.12 618.50,281.12 653.00,281.12 683.67,281.12 699.00,281.12 718.17,281.12 748.83,281.12 768.00,281.12"/>
<circle cx="78.00" cy="216.53" r="4.0" fill="#ffffff" stroke="#1f77b4" stroke-width="1.5"/>
<circle cx="78.00" cy="216.53" r="3.0" fill="#ffffff" stroke="#1f77b4" stroke-width="1.5"/>
<circle cx="78.00" cy="216.53" r="3.0" fill="#ffffff" stroke="#1f77b4" stroke-width="1.5"/>
<circle cx="78.00" cy="216.53" r="4.0" fill="#ffffff" stroke="#d62728" stroke-width="1.5"/>
<circle cx="78.00" cy="216.53" r="3.0" fill="#ffffff" stroke="#d62728" stroke-width="1.5"/>
<circle cx="78.00" cy="216.53" r="3.0" fill="#ffffff" stroke="#d62728" stroke-width="1.5"/>
<line x1="78" y1="216.53" x2="768" y2="216.53" stroke="#b54708" stroke-width="1.4" stroke-dasharray="5 3"/>
<text x="764" y="212.53" text-anchor="end" font-family="Arial, sans-serif" font-size="10" fill="#b54708">+1uA leakage limit</text>
<line x1="78" y1="216.53" x2="768" y2="216.53" stroke="#b54708" stroke-width="1.4" stroke-dasharray="5 3"/>
<text x="764" y="212.53" text-anchor="end" font-family="Arial, sans-serif" font-size="10" fill="#b54708">-1uA leakage limit</text>
<line x1="88" y1="72" x2="110" y2="72" stroke="#1f77b4" stroke-width="2.4"/>
<text x="116" y="76" font-family="Arial, sans-serif" font-size="12">[Pulldown]</text>
<line x1="88" y1="90" x2="110" y2="90" stroke="#d62728" stroke-width="2.4"/>
<text x="116" y="94" font-family="Arial, sans-serif" font-size="12">[Pullup]</text>
<text x="423.00" y="404.00" text-anchor="middle" font-family="Arial, sans-serif" font-size="12">Table voltage (V), zoomed around 0 V</text>
<text transform="translate(18 207.00) rotate(-90)" text-anchor="middle" font-family="Arial, sans-serif" font-size="12">Current (A)</text>
<text x="420" y="42" font-family="Arial, sans-serif" font-size="11" fill="#555">pullup/pulldown curves show typ/min/max; open circles mark I(0 V)</text>
</svg>