<svg xmlns="http://www.w3.org/2000/svg" width="800" height="520" viewBox="0 0 800 520">
<rect width="100%" height="100%" fill="#ffffff"/>
<text x="78" y="25" font-family="Arial, sans-serif" font-size="16" font-weight="700">E34_GPIO_I2CSCLIN_1V2_01_ISOSW I-V Pullup/Pulldown 0 V Detail</text>
<rect x="78" y="54" width="690" height="306" fill="#fbfbfb" stroke="#c8c8c8"/>
<line x1="78.00" y1="54" x2="78.00" y2="360" stroke="#ececec"/>
<text x="78.00" y="382" text-anchor="middle" font-family="Arial, sans-serif" font-size="11">0</text>
<line x1="216.00" y1="54" x2="216.00" y2="360" stroke="#ececec"/>
<text x="216.00" y="382" text-anchor="middle" font-family="Arial, sans-serif" font-size="11">0.24</text>
<line x1="354.00" y1="54" x2="354.00" y2="360" stroke="#ececec"/>
<text x="354.00" y="382" text-anchor="middle" font-family="Arial, sans-serif" font-size="11">0.48</text>
<line x1="492.00" y1="54" x2="492.00" y2="360" stroke="#ececec"/>
<text x="492.00" y="382" text-anchor="middle" font-family="Arial, sans-serif" font-size="11">0.72</text>
<line x1="630.00" y1="54" x2="630.00" y2="360" stroke="#ececec"/>
<text x="630.00" y="382" text-anchor="middle" font-family="Arial, sans-serif" font-size="11">0.96</text>
<line x1="768.00" y1="54" x2="768.00" y2="360" stroke="#ececec"/>
<text x="768.00" y="382" text-anchor="middle" font-family="Arial, sans-serif" font-size="11">1.2</text>
<line x1="78" y1="360.00" x2="768" y2="360.00" stroke="#ececec"/>
<text x="70" y="364.00" text-anchor="end" font-family="Arial, sans-serif" font-size="11">-0.0124</text>
<line x1="78" y1="298.80" x2="768" y2="298.80" stroke="#ececec"/>
<text x="70" y="302.80" text-anchor="end" font-family="Arial, sans-serif" font-size="11">-0.00743</text>
<line x1="78" y1="237.60" x2="768" y2="237.60" stroke="#ececec"/>
<text x="70" y="241.60" text-anchor="end" font-family="Arial, sans-serif" font-size="11">-0.00247</text>
<line x1="78" y1="176.40" x2="768" y2="176.40" stroke="#ececec"/>
<text x="70" y="180.40" text-anchor="end" font-family="Arial, sans-serif" font-size="11">0.00249</text>
<line x1="78" y1="115.20" x2="768" y2="115.20" stroke="#ececec"/>
<text x="70" y="119.20" text-anchor="end" font-family="Arial, sans-serif" font-size="11">0.00744</text>
<line x1="78" y1="54.00" x2="768" y2="54.00" stroke="#ececec"/>
<text x="70" y="58.00" text-anchor="end" font-family="Arial, sans-serif" font-size="11">0.0124</text>
<line x1="78.00" y1="54" x2="78.00" y2="360" stroke="#777" stroke-dasharray="4 4"/>
<line x1="78" y1="207.07" x2="768" y2="207.07" stroke="#777" stroke-dasharray="4 4"/>
<line x1="78.00" y1="54" x2="78.00" y2="360" stroke="#555" stroke-dasharray="2 4"/>
<text x="82.00" y="68" font-family="Arial, sans-serif" font-size="11" fill="#555">0V</text>
<line x1="768.00" y1="54" x2="768.00" y2="360" stroke="#555" stroke-dasharray="2 4"/>
<text x="772.00" y="68" font-family="Arial, sans-serif" font-size="11" fill="#555">Vcc</text>
<polyline fill="none" stroke="#1f77b4" stroke-width="1.2" opacity="0.55" stroke-dasharray="4 4" points="78.00,207.07 101.00,203.43 135.50,198.32 164.25,194.40 198.75,190.15 233.25,186.45 262.00,183.83 296.50,181.28 331.00,179.44 359.75,178.42 394.25,177.67 417.25,177.36 428.75,177.24 434.50,177.18 457.50,177.00 469.00,176.92 492.00,176.78 520.75,176.64 555.25,176.49 572.50,176.42 589.75,176.36 618.50,176.26 624.25,176.24 630.00,176.22 653.00,176.15 687.50,176.05 699.00,176.02 716.25,175.98 750.75,175.89 768.00,175.85"/>
<polyline fill="none" stroke="#1f77b4" stroke-width="1.2" opacity="0.55" stroke-dasharray="4 4" points="78.00,207.07 101.00,198.74 135.50,186.53 164.25,176.66 198.75,165.21 233.25,154.28 262.00,145.62 296.50,135.84 331.00,126.84 359.75,120.02 394.25,112.80 417.25,108.63 428.75,106.76 434.50,105.87 457.50,102.71 469.00,101.35 492.00,99.07 520.75,96.93 555.25,95.18 572.50,94.54 589.75,94.01 618.50,93.30 624.25,93.17 630.00,93.06 653.00,92.63 687.50,92.08 699.00,91.92 716.25,91.69 750.75,91.28 768.00,91.09"/>
<polyline fill="none" stroke="#1f77b4" stroke-width="2.0" opacity="1.0" points="78.00,207.07 101.00,201.39 135.50,193.19 164.25,186.71 198.75,179.40 233.25,172.65 262.00,167.53 296.50,162.06 331.00,157.44 359.75,154.32 394.25,151.50 417.25,150.16 428.75,149.63 434.50,149.40 457.50,148.64 469.00,148.35 492.00,147.88 520.75,147.44 555.25,147.04 572.50,146.87 589.75,146.71 618.50,146.48 624.25,146.43 630.00,146.39 653.00,146.23 687.50,146.01 699.00,145.94 716.25,145.84 750.75,145.65 768.00,145.57"/>
<polyline fill="none" stroke="#d62728" stroke-width="1.2" opacity="0.55" stroke-dasharray="4 4" points="78.00,207.07 101.00,210.83 135.50,216.09 152.75,218.53 158.50,219.31 164.25,220.08 170.00,220.84 175.75,221.59 187.25,223.04 198.75,224.44 233.25,228.28 262.00,231.05 296.50,233.81 331.00,235.90 359.75,237.11 365.50,237.30 377.00,237.62 388.50,237.89 394.25,238.01 400.00,238.12 411.50,238.31 417.25,238.39 423.00,238.47 428.75,238.54 434.50,238.61 440.25,238.68 446.00,238.74 451.75,238.80 457.50,238.86 463.25,238.91 469.00,238.97 474.75,239.02 480.50,239.07 486.25,239.12 492.00,239.17 497.75,239.22 503.50,239.26 509.25,239.31 515.00,239.35 520.75,239.39 555.25,239.63 578.25,239.77 589.75,239.84 618.50,239.99 624.25,240.02 653.00,240.17 687.50,240.33 699.00,240.38 716.25,240.45 750.75,240.59 768.00,240.65"/>
<polyline fill="none" stroke="#d62728" stroke-width="1.2" opacity="0.55" stroke-dasharray="4 4" points="78.00,207.07 101.00,215.11 135.50,226.88 152.75,232.57 158.50,234.42 164.25,236.22 170.00,237.96 175.75,239.62 187.25,242.89 198.75,246.25 233.25,256.33 262.00,264.42 296.50,273.62 331.00,282.18 359.75,288.79 365.50,290.04 377.00,292.49 388.50,294.84 394.25,295.98 400.00,297.09 411.50,299.24 417.25,300.27 423.00,301.28 428.75,302.25 434.50,303.20 440.25,304.12 446.00,305.01 451.75,305.86 457.50,306.69 463.25,307.49 469.00,308.25 474.75,308.98 480.50,309.68 486.25,310.35 492.00,310.98 497.75,311.58 503.50,312.16 509.25,312.70 515.00,313.21 520.75,313.70 555.25,316.09 578.25,317.31 589.75,317.84 618.50,318.98 624.25,319.19 653.00,320.13 687.50,321.10 699.00,321.39 716.25,321.80 750.75,322.56 768.00,322.91"/>
<polyline fill="none" stroke="#d62728" stroke-width="2.0" opacity="1.0" points="78.00,207.07 101.00,212.61 135.50,220.48 152.75,224.24 158.50,225.47 164.25,226.68 170.00,227.88 175.75,229.07 187.25,231.41 198.75,233.70 233.25,240.22 262.00,245.20 296.50,250.59 331.00,255.25 359.75,258.49 365.50,259.07 377.00,260.13 388.50,261.10 394.25,261.54 400.00,261.95 411.50,262.70 417.25,263.04 423.00,263.35 428.75,263.64 434.50,263.90 440.25,264.15 446.00,264.38 451.75,264.59 457.50,264.78 463.25,264.96 469.00,265.13 474.75,265.29 480.50,265.44 486.25,265.58 492.00,265.72 497.75,265.85 503.50,265.97 509.25,266.09 515.00,266.20 520.75,266.31 555.25,266.91 578.25,267.26 589.75,267.42 618.50,267.80 624.25,267.87 653.00,268.20 687.50,268.57 699.00,268.68 716.25,268.85 750.75,269.15 768.00,269.30"/>
<circle cx="78.00" cy="207.07" r="4.0" fill="#ffffff" stroke="#1f77b4" stroke-width="1.5"/>
<circle cx="78.00" cy="207.07" r="3.0" fill="#ffffff" stroke="#1f77b4" stroke-width="1.5"/>
<circle cx="78.00" cy="207.07" r="3.0" fill="#ffffff" stroke="#1f77b4" stroke-width="1.5"/>
<circle cx="78.00" cy="207.07" r="4.0" fill="#ffffff" stroke="#d62728" stroke-width="1.5"/>
<circle cx="78.00" cy="207.07" r="3.0" fill="#ffffff" stroke="#d62728" stroke-width="1.5"/>
<circle cx="78.00" cy="207.07" r="3.0" fill="#ffffff" stroke="#d62728" stroke-width="1.5"/>
<line x1="78" y1="207.06" x2="768" y2="207.06" stroke="#b54708" stroke-width="1.4" stroke-dasharray="5 3"/>
<text x="764" y="203.06" text-anchor="end" font-family="Arial, sans-serif" font-size="10" fill="#b54708">+1uA leakage limit</text>
<line x1="78" y1="207.08" x2="768" y2="207.08" stroke="#b54708" stroke-width="1.4" stroke-dasharray="5 3"/>
<text x="764" y="203.08" text-anchor="end" font-family="Arial, sans-serif" font-size="10" fill="#b54708">-1uA leakage limit</text>
<line x1="88" y1="72" x2="110" y2="72" stroke="#1f77b4" stroke-width="2.4"/>
<text x="116" y="76" font-family="Arial, sans-serif" font-size="12">[Pulldown]</text>
<line x1="88" y1="90" x2="110" y2="90" stroke="#d62728" stroke-width="2.4"/>
<text x="116" y="94" font-family="Arial, sans-serif" font-size="12">[Pullup]</text>
<text x="423.00" y="404.00" text-anchor="middle" font-family="Arial, sans-serif" font-size="12">Table voltage (V), zoomed around 0 V</text>
<text transform="translate(18 207.00) rotate(-90)" text-anchor="middle" font-family="Arial, sans-serif" font-size="12">Current (A)</text>
<text x="420" y="42" font-family="Arial, sans-serif" font-size="11" fill="#555">pullup/pulldown curves show typ/min/max; open circles mark I(0 V)</text>
</svg>