<svg xmlns="http://www.w3.org/2000/svg" width="800" height="520" viewBox="0 0 800 520">
<rect width="100%" height="100%" fill="#ffffff"/>
<text x="78" y="25" font-family="Arial, sans-serif" font-size="16" font-weight="700">E34_GPIO_I2CSCLIN_1V1_01 I-V Pullup/Pulldown 0 V Detail</text>
<rect x="78" y="54" width="690" height="306" fill="#fbfbfb" stroke="#c8c8c8"/>
<line x1="78.00" y1="54" x2="78.00" y2="360" stroke="#ececec"/>
<text x="78.00" y="382" text-anchor="middle" font-family="Arial, sans-serif" font-size="11">0</text>
<line x1="216.00" y1="54" x2="216.00" y2="360" stroke="#ececec"/>
<text x="216.00" y="382" text-anchor="middle" font-family="Arial, sans-serif" font-size="11">0.22</text>
<line x1="354.00" y1="54" x2="354.00" y2="360" stroke="#ececec"/>
<text x="354.00" y="382" text-anchor="middle" font-family="Arial, sans-serif" font-size="11">0.44</text>
<line x1="492.00" y1="54" x2="492.00" y2="360" stroke="#ececec"/>
<text x="492.00" y="382" text-anchor="middle" font-family="Arial, sans-serif" font-size="11">0.66</text>
<line x1="630.00" y1="54" x2="630.00" y2="360" stroke="#ececec"/>
<text x="630.00" y="382" text-anchor="middle" font-family="Arial, sans-serif" font-size="11">0.88</text>
<line x1="768.00" y1="54" x2="768.00" y2="360" stroke="#ececec"/>
<text x="768.00" y="382" text-anchor="middle" font-family="Arial, sans-serif" font-size="11">1.1</text>
<line x1="78" y1="360.00" x2="768" y2="360.00" stroke="#ececec"/>
<text x="70" y="364.00" text-anchor="end" font-family="Arial, sans-serif" font-size="11">-0.00918</text>
<line x1="78" y1="298.80" x2="768" y2="298.80" stroke="#ececec"/>
<text x="70" y="302.80" text-anchor="end" font-family="Arial, sans-serif" font-size="11">-0.00546</text>
<line x1="78" y1="237.60" x2="768" y2="237.60" stroke="#ececec"/>
<text x="70" y="241.60" text-anchor="end" font-family="Arial, sans-serif" font-size="11">-0.00173</text>
<line x1="78" y1="176.40" x2="768" y2="176.40" stroke="#ececec"/>
<text x="70" y="180.40" text-anchor="end" font-family="Arial, sans-serif" font-size="11">0.002</text>
<line x1="78" y1="115.20" x2="768" y2="115.20" stroke="#ececec"/>
<text x="70" y="119.20" text-anchor="end" font-family="Arial, sans-serif" font-size="11">0.00573</text>
<line x1="78" y1="54.00" x2="768" y2="54.00" stroke="#ececec"/>
<text x="70" y="58.00" text-anchor="end" font-family="Arial, sans-serif" font-size="11">0.00945</text>
<line x1="78.00" y1="54" x2="78.00" y2="360" stroke="#777" stroke-dasharray="4 4"/>
<line x1="78" y1="209.22" x2="768" y2="209.22" stroke="#777" stroke-dasharray="4 4"/>
<line x1="78.00" y1="54" x2="78.00" y2="360" stroke="#555" stroke-dasharray="2 4"/>
<text x="82.00" y="68" font-family="Arial, sans-serif" font-size="11" fill="#555">0V</text>
<line x1="768.00" y1="54" x2="768.00" y2="360" stroke="#555" stroke-dasharray="2 4"/>
<text x="772.00" y="68" font-family="Arial, sans-serif" font-size="11" fill="#555">Vcc</text>
<polyline fill="none" stroke="#1f77b4" stroke-width="1.2" opacity="0.55" stroke-dasharray="4 4" points="78.00,209.22 103.09,205.13 134.45,200.37 165.82,196.05 197.18,192.19 228.55,188.85 266.18,185.56 297.55,183.47 328.91,181.96 360.27,180.98 391.64,180.37 404.18,180.19 416.73,180.04 423.00,179.96 429.27,179.89 435.55,179.82 460.64,179.57 492.00,179.28 523.36,179.02 554.73,178.78 586.09,178.55 617.45,178.34 623.73,178.30 642.55,178.18 648.82,178.14 655.09,178.10 686.45,177.91 699.00,177.84 717.82,177.73 749.18,177.55 768.00,177.45"/>
<polyline fill="none" stroke="#1f77b4" stroke-width="1.2" opacity="0.55" stroke-dasharray="4 4" points="78.00,209.22 103.09,199.39 134.45,187.41 165.82,175.82 197.18,164.71 228.55,154.16 266.18,142.37 297.55,133.36 328.91,125.23 360.27,118.07 391.64,111.99 404.18,109.88 416.73,107.96 423.00,107.07 429.27,106.23 435.55,105.44 460.64,102.72 492.00,100.20 523.36,98.38 554.73,96.99 586.09,95.84 617.45,94.84 623.73,94.65 642.55,94.11 648.82,93.94 655.09,93.77 686.45,92.96 699.00,92.65 717.82,92.21 749.18,91.50 768.00,91.09"/>
<polyline fill="none" stroke="#1f77b4" stroke-width="2.0" opacity="1.0" points="78.00,209.22 103.09,202.64 134.45,194.76 165.82,187.34 197.18,180.43 228.55,174.09 266.18,167.36 297.55,162.56 328.91,158.59 360.27,155.49 391.64,153.27 404.18,152.61 416.73,152.04 423.00,151.80 429.27,151.57 435.55,151.36 460.64,150.64 492.00,149.92 523.36,149.30 554.73,148.75 586.09,148.24 617.45,147.77 623.73,147.68 642.55,147.41 648.82,147.33 655.09,147.24 686.45,146.83 699.00,146.67 717.82,146.44 749.18,146.07 768.00,145.85"/>
<polyline fill="none" stroke="#d62728" stroke-width="1.2" opacity="0.55" stroke-dasharray="4 4" points="78.00,209.22 103.09,213.19 128.18,216.90 134.45,217.78 165.82,221.94 197.18,225.67 228.55,228.95 266.18,232.27 297.55,234.47 328.91,236.14 360.27,237.32 379.09,237.83 391.64,238.11 397.91,238.24 410.45,238.47 423.00,238.68 429.27,238.78 448.09,239.05 460.64,239.21 492.00,239.59 523.36,239.93 554.73,240.23 586.09,240.51 623.73,240.82 630.00,240.87 636.27,240.92 655.09,241.06 686.45,241.29 699.00,241.38 717.82,241.50 749.18,241.71 768.00,241.82"/>
<polyline fill="none" stroke="#d62728" stroke-width="1.2" opacity="0.55" stroke-dasharray="4 4" points="78.00,209.22 103.09,218.18 128.18,226.85 134.45,228.94 165.82,239.00 197.18,248.78 228.55,258.10 266.18,268.58 297.55,276.65 328.91,284.06 360.27,290.73 379.09,294.36 391.64,296.60 397.91,297.68 410.45,299.72 423.00,301.63 429.27,302.52 448.09,305.02 460.64,306.51 492.00,309.72 523.36,312.28 554.73,314.36 586.09,316.10 623.73,317.88 630.00,318.15 636.27,318.41 655.09,319.17 686.45,320.33 699.00,320.77 717.82,321.39 749.18,322.36 768.00,322.91"/>
<polyline fill="none" stroke="#d62728" stroke-width="2.0" opacity="1.0" points="78.00,209.22 103.09,215.25 128.18,220.99 134.45,222.38 165.82,229.08 197.18,235.34 228.55,241.11 266.18,247.32 297.55,251.84 328.91,255.69 360.27,258.82 379.09,260.35 391.64,261.23 397.91,261.63 410.45,262.37 423.00,263.01 429.27,263.30 448.09,264.08 460.64,264.54 492.00,265.52 523.36,266.34 554.73,267.07 586.09,267.73 623.73,268.44 630.00,268.55 636.27,268.66 655.09,268.98 686.45,269.49 699.00,269.68 717.82,269.96 749.18,270.41 768.00,270.66"/>
<circle cx="78.00" cy="209.22" r="4.0" fill="#ffffff" stroke="#1f77b4" stroke-width="1.5"/>
<circle cx="78.00" cy="209.22" r="3.0" fill="#ffffff" stroke="#1f77b4" stroke-width="1.5"/>
<circle cx="78.00" cy="209.22" r="3.0" fill="#ffffff" stroke="#1f77b4" stroke-width="1.5"/>
<circle cx="78.00" cy="209.22" r="4.0" fill="#ffffff" stroke="#d62728" stroke-width="1.5"/>
<circle cx="78.00" cy="209.22" r="3.0" fill="#ffffff" stroke="#d62728" stroke-width="1.5"/>
<circle cx="78.00" cy="209.22" r="3.0" fill="#ffffff" stroke="#d62728" stroke-width="1.5"/>
<line x1="78" y1="209.21" x2="768" y2="209.21" stroke="#b54708" stroke-width="1.4" stroke-dasharray="5 3"/>
<text x="764" y="205.21" text-anchor="end" font-family="Arial, sans-serif" font-size="10" fill="#b54708">+1uA leakage limit</text>
<line x1="78" y1="209.24" x2="768" y2="209.24" stroke="#b54708" stroke-width="1.4" stroke-dasharray="5 3"/>
<text x="764" y="205.24" text-anchor="end" font-family="Arial, sans-serif" font-size="10" fill="#b54708">-1uA leakage limit</text>
<line x1="88" y1="72" x2="110" y2="72" stroke="#1f77b4" stroke-width="2.4"/>
<text x="116" y="76" font-family="Arial, sans-serif" font-size="12">[Pulldown]</text>
<line x1="88" y1="90" x2="110" y2="90" stroke="#d62728" stroke-width="2.4"/>
<text x="116" y="94" font-family="Arial, sans-serif" font-size="12">[Pullup]</text>
<text x="423.00" y="404.00" text-anchor="middle" font-family="Arial, sans-serif" font-size="12">Table voltage (V), zoomed around 0 V</text>
<text transform="translate(18 207.00) rotate(-90)" text-anchor="middle" font-family="Arial, sans-serif" font-size="12">Current (A)</text>
<text x="420" y="42" font-family="Arial, sans-serif" font-size="11" fill="#555">pullup/pulldown curves show typ/min/max; open circles mark I(0 V)</text>
</svg>