<svg xmlns="http://www.w3.org/2000/svg" width="800" height="520" viewBox="0 0 800 520">
<rect width="100%" height="100%" fill="#ffffff"/>
<text x="78" y="25" font-family="Arial, sans-serif" font-size="16" font-weight="700">nfc_ioc15_swp_master_700_worst I-V Pullup/Pulldown 0 V Detail</text>
<rect x="78" y="54" width="690" height="306" fill="#fbfbfb" stroke="#c8c8c8"/>
<line x1="78.00" y1="54" x2="78.00" y2="360" stroke="#ececec"/>
<text x="78.00" y="382" text-anchor="middle" font-family="Arial, sans-serif" font-size="11">0</text>
<line x1="216.00" y1="54" x2="216.00" y2="360" stroke="#ececec"/>
<text x="216.00" y="382" text-anchor="middle" font-family="Arial, sans-serif" font-size="11">0.324</text>
<line x1="354.00" y1="54" x2="354.00" y2="360" stroke="#ececec"/>
<text x="354.00" y="382" text-anchor="middle" font-family="Arial, sans-serif" font-size="11">0.648</text>
<line x1="492.00" y1="54" x2="492.00" y2="360" stroke="#ececec"/>
<text x="492.00" y="382" text-anchor="middle" font-family="Arial, sans-serif" font-size="11">0.972</text>
<line x1="630.00" y1="54" x2="630.00" y2="360" stroke="#ececec"/>
<text x="630.00" y="382" text-anchor="middle" font-family="Arial, sans-serif" font-size="11">1.3</text>
<line x1="768.00" y1="54" x2="768.00" y2="360" stroke="#ececec"/>
<text x="768.00" y="382" text-anchor="middle" font-family="Arial, sans-serif" font-size="11">1.6</text>
<line x1="78" y1="360.00" x2="768" y2="360.00" stroke="#ececec"/>
<text x="70" y="364.00" text-anchor="end" font-family="Arial, sans-serif" font-size="11">-0.0181</text>
<line x1="78" y1="298.80" x2="768" y2="298.80" stroke="#ececec"/>
<text x="70" y="302.80" text-anchor="end" font-family="Arial, sans-serif" font-size="11">-0.0134</text>
<line x1="78" y1="237.60" x2="768" y2="237.60" stroke="#ececec"/>
<text x="70" y="241.60" text-anchor="end" font-family="Arial, sans-serif" font-size="11">-0.00875</text>
<line x1="78" y1="176.40" x2="768" y2="176.40" stroke="#ececec"/>
<text x="70" y="180.40" text-anchor="end" font-family="Arial, sans-serif" font-size="11">-0.00406</text>
<line x1="78" y1="115.20" x2="768" y2="115.20" stroke="#ececec"/>
<text x="70" y="119.20" text-anchor="end" font-family="Arial, sans-serif" font-size="11">6.3e-04</text>
<line x1="78" y1="54.00" x2="768" y2="54.00" stroke="#ececec"/>
<text x="70" y="58.00" text-anchor="end" font-family="Arial, sans-serif" font-size="11">0.00532</text>
<line x1="78.00" y1="54" x2="78.00" y2="360" stroke="#777" stroke-dasharray="4 4"/>
<line x1="78" y1="123.41" x2="768" y2="123.41" stroke="#777" stroke-dasharray="4 4"/>
<line x1="78.00" y1="54" x2="78.00" y2="360" stroke="#555" stroke-dasharray="2 4"/>
<text x="82.00" y="68" font-family="Arial, sans-serif" font-size="11" fill="#555">0V</text>
<line x1="768.00" y1="54" x2="768.00" y2="360" stroke="#555" stroke-dasharray="2 4"/>
<text x="772.00" y="68" font-family="Arial, sans-serif" font-size="11" fill="#555">Vcc</text>
<polyline fill="none" stroke="#1f77b4" stroke-width="1.2" opacity="0.55" stroke-dasharray="4 4" points="78.00,123.41 103.56,117.89 137.63,111.42 175.96,105.38 210.04,101.08 222.81,99.71 248.37,97.39 278.19,95.32 282.44,95.08 320.78,93.50 354.85,92.83 393.19,92.45 427.26,92.22 465.59,92.02 499.67,91.87 533.74,91.74 572.07,91.61 606.15,91.50 644.48,91.39 678.56,91.30 716.89,91.21 750.96,91.13 768.00,91.09"/>
<polyline fill="none" stroke="#1f77b4" stroke-width="1.2" opacity="0.55" stroke-dasharray="4 4" points="78.00,123.41 103.56,117.89 137.63,111.42 175.96,105.38 210.04,101.08 222.81,99.71 248.37,97.39 278.19,95.32 282.44,95.08 320.78,93.50 354.85,92.83 393.19,92.45 427.26,92.22 465.59,92.02 499.67,91.87 533.74,91.74 572.07,91.61 606.15,91.50 644.48,91.39 678.56,91.30 716.89,91.21 750.96,91.13 768.00,91.09"/>
<polyline fill="none" stroke="#1f77b4" stroke-width="2.0" opacity="1.0" points="78.00,123.41 103.56,117.89 137.63,111.42 175.96,105.38 210.04,101.08 222.81,99.71 248.37,97.39 278.19,95.32 282.44,95.08 320.78,93.50 354.85,92.83 393.19,92.45 427.26,92.22 465.59,92.02 499.67,91.87 533.74,91.74 572.07,91.61 606.15,91.50 644.48,91.39 678.56,91.30 716.89,91.21 750.96,91.13 768.00,91.09"/>
<polyline fill="none" stroke="#d62728" stroke-width="1.2" opacity="0.55" stroke-dasharray="4 4" points="78.00,123.41 103.56,148.07 107.81,151.98 137.63,177.87 175.96,207.20 184.48,213.10 210.04,229.50 248.37,250.37 261.15,256.33 282.44,265.20 320.78,277.84 354.85,286.04 393.19,293.10 427.26,298.14 465.59,302.76 499.67,306.17 533.74,309.11 572.07,312.01 606.15,314.29 644.48,316.63 678.56,318.52 716.89,320.49 750.96,322.13 768.00,322.91"/>
<polyline fill="none" stroke="#d62728" stroke-width="1.2" opacity="0.55" stroke-dasharray="4 4" points="78.00,123.41 103.56,148.07 107.81,151.98 137.63,177.87 175.96,207.20 184.48,213.10 210.04,229.50 248.37,250.37 261.15,256.33 282.44,265.20 320.78,277.84 354.85,286.04 393.19,293.10 427.26,298.14 465.59,302.76 499.67,306.17 533.74,309.11 572.07,312.01 606.15,314.29 644.48,316.63 678.56,318.52 716.89,320.49 750.96,322.13 768.00,322.91"/>
<polyline fill="none" stroke="#d62728" stroke-width="2.0" opacity="1.0" points="78.00,123.41 103.56,148.07 107.81,151.98 137.63,177.87 175.96,207.20 184.48,213.10 210.04,229.50 248.37,250.37 261.15,256.33 282.44,265.20 320.78,277.84 354.85,286.04 393.19,293.10 427.26,298.14 465.59,302.76 499.67,306.17 533.74,309.11 572.07,312.01 606.15,314.29 644.48,316.63 678.56,318.52 716.89,320.49 750.96,322.13 768.00,322.91"/>
<circle cx="78.00" cy="123.41" r="4.0" fill="#ffffff" stroke="#1f77b4" stroke-width="1.5"/>
<circle cx="78.00" cy="123.41" r="3.0" fill="#ffffff" stroke="#1f77b4" stroke-width="1.5"/>
<circle cx="78.00" cy="123.41" r="3.0" fill="#ffffff" stroke="#1f77b4" stroke-width="1.5"/>
<circle cx="78.00" cy="123.41" r="4.0" fill="#ffffff" stroke="#d62728" stroke-width="1.5"/>
<circle cx="78.00" cy="123.41" r="3.0" fill="#ffffff" stroke="#d62728" stroke-width="1.5"/>
<circle cx="78.00" cy="123.41" r="3.0" fill="#ffffff" stroke="#d62728" stroke-width="1.5"/>
<line x1="78" y1="123.40" x2="768" y2="123.40" stroke="#b54708" stroke-width="1.4" stroke-dasharray="5 3"/>
<text x="764" y="119.40" text-anchor="end" font-family="Arial, sans-serif" font-size="10" fill="#b54708">+1uA leakage limit</text>
<line x1="78" y1="123.43" x2="768" y2="123.43" stroke="#b54708" stroke-width="1.4" stroke-dasharray="5 3"/>
<text x="764" y="119.43" text-anchor="end" font-family="Arial, sans-serif" font-size="10" fill="#b54708">-1uA leakage limit</text>
<line x1="88" y1="72" x2="110" y2="72" stroke="#1f77b4" stroke-width="2.4"/>
<text x="116" y="76" font-family="Arial, sans-serif" font-size="12">[Pulldown]</text>
<line x1="88" y1="90" x2="110" y2="90" stroke="#d62728" stroke-width="2.4"/>
<text x="116" y="94" font-family="Arial, sans-serif" font-size="12">[Pullup]</text>
<text x="423.00" y="404.00" text-anchor="middle" font-family="Arial, sans-serif" font-size="12">Table voltage (V), zoomed around 0 V</text>
<text transform="translate(18 207.00) rotate(-90)" text-anchor="middle" font-family="Arial, sans-serif" font-size="12">Current (A)</text>
<text x="420" y="42" font-family="Arial, sans-serif" font-size="11" fill="#555">pullup/pulldown curves show typ/min/max; open circles mark I(0 V)</text>
</svg>