<svg xmlns="http://www.w3.org/2000/svg" width="800" height="520" viewBox="0 0 800 520">
<rect width="100%" height="100%" fill="#ffffff"/>
<text x="78" y="25" font-family="Arial, sans-serif" font-size="16" font-weight="700">E34_GPIO_SPI_I3C_MST_1V2_01 I-V Pullup/Pulldown 0 V Detail</text>
<rect x="78" y="54" width="690" height="306" fill="#fbfbfb" stroke="#c8c8c8"/>
<line x1="78.00" y1="54" x2="78.00" y2="360" stroke="#ececec"/>
<text x="78.00" y="382" text-anchor="middle" font-family="Arial, sans-serif" font-size="11">0</text>
<line x1="216.00" y1="54" x2="216.00" y2="360" stroke="#ececec"/>
<text x="216.00" y="382" text-anchor="middle" font-family="Arial, sans-serif" font-size="11">0.24</text>
<line x1="354.00" y1="54" x2="354.00" y2="360" stroke="#ececec"/>
<text x="354.00" y="382" text-anchor="middle" font-family="Arial, sans-serif" font-size="11">0.48</text>
<line x1="492.00" y1="54" x2="492.00" y2="360" stroke="#ececec"/>
<text x="492.00" y="382" text-anchor="middle" font-family="Arial, sans-serif" font-size="11">0.72</text>
<line x1="630.00" y1="54" x2="630.00" y2="360" stroke="#ececec"/>
<text x="630.00" y="382" text-anchor="middle" font-family="Arial, sans-serif" font-size="11">0.96</text>
<line x1="768.00" y1="54" x2="768.00" y2="360" stroke="#ececec"/>
<text x="768.00" y="382" text-anchor="middle" font-family="Arial, sans-serif" font-size="11">1.2</text>
<line x1="78" y1="360.00" x2="768" y2="360.00" stroke="#ececec"/>
<text x="70" y="364.00" text-anchor="end" font-family="Arial, sans-serif" font-size="11">-0.0236</text>
<line x1="78" y1="298.80" x2="768" y2="298.80" stroke="#ececec"/>
<text x="70" y="302.80" text-anchor="end" font-family="Arial, sans-serif" font-size="11">-0.013</text>
<line x1="78" y1="237.60" x2="768" y2="237.60" stroke="#ececec"/>
<text x="70" y="241.60" text-anchor="end" font-family="Arial, sans-serif" font-size="11">-0.00234</text>
<line x1="78" y1="176.40" x2="768" y2="176.40" stroke="#ececec"/>
<text x="70" y="180.40" text-anchor="end" font-family="Arial, sans-serif" font-size="11">0.00829</text>
<line x1="78" y1="115.20" x2="768" y2="115.20" stroke="#ececec"/>
<text x="70" y="119.20" text-anchor="end" font-family="Arial, sans-serif" font-size="11">0.0189</text>
<line x1="78" y1="54.00" x2="768" y2="54.00" stroke="#ececec"/>
<text x="70" y="58.00" text-anchor="end" font-family="Arial, sans-serif" font-size="11">0.0296</text>
<line x1="78.00" y1="54" x2="78.00" y2="360" stroke="#777" stroke-dasharray="4 4"/>
<line x1="78" y1="224.14" x2="768" y2="224.14" stroke="#777" stroke-dasharray="4 4"/>
<line x1="78.00" y1="54" x2="78.00" y2="360" stroke="#555" stroke-dasharray="2 4"/>
<text x="82.00" y="68" font-family="Arial, sans-serif" font-size="11" fill="#555">0V</text>
<line x1="768.00" y1="54" x2="768.00" y2="360" stroke="#555" stroke-dasharray="2 4"/>
<text x="772.00" y="68" font-family="Arial, sans-serif" font-size="11" fill="#555">Vcc</text>
<polyline fill="none" stroke="#1f77b4" stroke-width="1.2" opacity="0.55" stroke-dasharray="4 4" points="78.00,224.14 101.00,218.80 135.50,211.61 164.25,206.39 204.50,200.29 210.25,199.53 221.75,198.11 233.25,196.80 244.75,195.60 256.25,194.52 262.00,194.02 279.25,192.69 296.50,191.59 302.25,191.27 331.00,190.02 359.75,189.19 394.25,188.51 423.00,188.09 428.75,188.01 457.50,187.66 492.00,187.28 515.00,187.05 520.75,186.99 555.25,186.67 589.75,186.37 618.50,186.14 653.00,185.87 687.50,185.61 699.00,185.53 716.25,185.41 750.75,185.17 768.00,185.06"/>
<polyline fill="none" stroke="#1f77b4" stroke-width="1.2" opacity="0.55" stroke-dasharray="4 4" points="78.00,224.14 101.00,208.74 135.50,187.13 164.25,170.77 204.50,150.83 210.25,148.28 221.75,143.41 233.25,138.85 244.75,134.59 256.25,130.63 262.00,128.77 279.25,123.62 296.50,119.13 302.25,117.77 331.00,111.97 359.75,107.65 394.25,104.00 423.00,101.86 428.75,101.50 457.50,99.95 492.00,98.45 515.00,97.60 520.75,97.40 555.25,96.28 589.75,95.29 618.50,94.52 653.00,93.65 687.50,92.84 699.00,92.58 716.25,92.20 750.75,91.45 768.00,91.09"/>
<polyline fill="none" stroke="#1f77b4" stroke-width="2.0" opacity="1.0" points="78.00,224.14 101.00,214.69 135.50,201.68 164.25,192.01 204.50,180.43 210.25,178.97 221.75,176.19 233.25,173.61 244.75,171.22 256.25,169.03 262.00,168.01 279.25,165.22 296.50,162.86 302.25,162.16 331.00,159.28 359.75,157.26 394.25,155.64 423.00,154.68 428.75,154.50 457.50,153.75 492.00,152.97 515.00,152.51 520.75,152.40 555.25,151.76 589.75,151.18 618.50,150.73 653.00,150.22 687.50,149.73 699.00,149.57 716.25,149.33 750.75,148.89 768.00,148.67"/>
<polyline fill="none" stroke="#d62728" stroke-width="1.2" opacity="0.55" stroke-dasharray="4 4" points="78.00,224.14 101.00,228.19 129.75,232.75 135.50,233.60 164.25,237.50 198.75,241.53 233.25,244.86 262.00,247.08 296.50,249.11 331.00,250.52 359.75,251.34 394.25,252.04 428.75,252.58 457.50,252.96 492.00,253.36 520.75,253.66 543.75,253.88 549.50,253.93 555.25,253.98 589.75,254.28 618.50,254.51 653.00,254.77 687.50,255.02 699.00,255.10 716.25,255.21 750.75,255.44 768.00,255.54"/>
<polyline fill="none" stroke="#d62728" stroke-width="1.2" opacity="0.55" stroke-dasharray="4 4" points="78.00,224.14 101.00,234.91 129.75,247.46 135.50,249.78 164.25,260.58 198.75,272.57 233.25,283.12 262.00,290.76 296.50,298.53 331.00,304.85 359.75,309.10 394.25,313.15 428.75,316.29 457.50,318.39 492.00,320.45 520.75,321.89 543.75,322.91 549.50,322.91 555.25,322.91 589.75,322.91 618.50,322.91 653.00,322.91 687.50,322.91 699.00,322.91 716.25,322.91 750.75,322.91 768.00,322.91"/>
<polyline fill="none" stroke="#d62728" stroke-width="2.0" opacity="1.0" points="78.00,224.14 101.00,230.82 129.75,238.47 135.50,239.90 164.25,246.70 198.75,253.94 233.25,260.14 262.00,264.50 296.50,268.75 331.00,271.98 359.75,273.99 394.25,275.79 428.75,277.13 457.50,278.04 492.00,278.96 520.75,278.96 543.75,278.96 549.50,278.96 555.25,278.96 589.75,278.96 618.50,278.96 653.00,278.96 687.50,278.96 699.00,278.96 716.25,278.96 750.75,278.96 768.00,278.96"/>
<circle cx="78.00" cy="224.14" r="4.0" fill="#ffffff" stroke="#1f77b4" stroke-width="1.5"/>
<circle cx="78.00" cy="224.14" r="3.0" fill="#ffffff" stroke="#1f77b4" stroke-width="1.5"/>
<circle cx="78.00" cy="224.14" r="3.0" fill="#ffffff" stroke="#1f77b4" stroke-width="1.5"/>
<circle cx="78.00" cy="224.14" r="4.0" fill="#ffffff" stroke="#d62728" stroke-width="1.5"/>
<circle cx="78.00" cy="224.14" r="3.0" fill="#ffffff" stroke="#d62728" stroke-width="1.5"/>
<circle cx="78.00" cy="224.14" r="3.0" fill="#ffffff" stroke="#d62728" stroke-width="1.5"/>
<line x1="78" y1="224.13" x2="768" y2="224.13" stroke="#b54708" stroke-width="1.4" stroke-dasharray="5 3"/>
<text x="764" y="220.13" text-anchor="end" font-family="Arial, sans-serif" font-size="10" fill="#b54708">+1uA leakage limit</text>
<line x1="78" y1="224.14" x2="768" y2="224.14" stroke="#b54708" stroke-width="1.4" stroke-dasharray="5 3"/>
<text x="764" y="220.14" text-anchor="end" font-family="Arial, sans-serif" font-size="10" fill="#b54708">-1uA leakage limit</text>
<line x1="88" y1="72" x2="110" y2="72" stroke="#1f77b4" stroke-width="2.4"/>
<text x="116" y="76" font-family="Arial, sans-serif" font-size="12">[Pulldown]</text>
<line x1="88" y1="90" x2="110" y2="90" stroke="#d62728" stroke-width="2.4"/>
<text x="116" y="94" font-family="Arial, sans-serif" font-size="12">[Pullup]</text>
<text x="423.00" y="404.00" text-anchor="middle" font-family="Arial, sans-serif" font-size="12">Table voltage (V), zoomed around 0 V</text>
<text transform="translate(18 207.00) rotate(-90)" text-anchor="middle" font-family="Arial, sans-serif" font-size="12">Current (A)</text>
<text x="420" y="42" font-family="Arial, sans-serif" font-size="11" fill="#555">pullup/pulldown curves show typ/min/max; open circles mark I(0 V)</text>
</svg>