<svg xmlns="http://www.w3.org/2000/svg" width="800" height="520" viewBox="0 0 800 520">
<rect width="100%" height="100%" fill="#ffffff"/>
<text x="78" y="25" font-family="Arial, sans-serif" font-size="16" font-weight="700">nfc_ioc15_swp_slave_3v7 I-V Pullup/Pulldown 0 V Detail</text>
<rect x="78" y="54" width="690" height="306" fill="#fbfbfb" stroke="#c8c8c8"/>
<line x1="78.00" y1="54" x2="78.00" y2="360" stroke="#ececec"/>
<text x="78.00" y="382" text-anchor="middle" font-family="Arial, sans-serif" font-size="11">0</text>
<line x1="216.00" y1="54" x2="216.00" y2="360" stroke="#ececec"/>
<text x="216.00" y="382" text-anchor="middle" font-family="Arial, sans-serif" font-size="11">0.74</text>
<line x1="354.00" y1="54" x2="354.00" y2="360" stroke="#ececec"/>
<text x="354.00" y="382" text-anchor="middle" font-family="Arial, sans-serif" font-size="11">1.5</text>
<line x1="492.00" y1="54" x2="492.00" y2="360" stroke="#ececec"/>
<text x="492.00" y="382" text-anchor="middle" font-family="Arial, sans-serif" font-size="11">2.2</text>
<line x1="630.00" y1="54" x2="630.00" y2="360" stroke="#ececec"/>
<text x="630.00" y="382" text-anchor="middle" font-family="Arial, sans-serif" font-size="11">3</text>
<line x1="768.00" y1="54" x2="768.00" y2="360" stroke="#ececec"/>
<text x="768.00" y="382" text-anchor="middle" font-family="Arial, sans-serif" font-size="11">3.7</text>
<line x1="78" y1="360.00" x2="768" y2="360.00" stroke="#ececec"/>
<text x="70" y="364.00" text-anchor="end" font-family="Arial, sans-serif" font-size="11">-1.6e-04</text>
<line x1="78" y1="298.80" x2="768" y2="298.80" stroke="#ececec"/>
<text x="70" y="302.80" text-anchor="end" font-family="Arial, sans-serif" font-size="11">1.0e-04</text>
<line x1="78" y1="237.60" x2="768" y2="237.60" stroke="#ececec"/>
<text x="70" y="241.60" text-anchor="end" font-family="Arial, sans-serif" font-size="11">3.6e-04</text>
<line x1="78" y1="176.40" x2="768" y2="176.40" stroke="#ececec"/>
<text x="70" y="180.40" text-anchor="end" font-family="Arial, sans-serif" font-size="11">6.2e-04</text>
<line x1="78" y1="115.20" x2="768" y2="115.20" stroke="#ececec"/>
<text x="70" y="119.20" text-anchor="end" font-family="Arial, sans-serif" font-size="11">8.8e-04</text>
<line x1="78" y1="54.00" x2="768" y2="54.00" stroke="#ececec"/>
<text x="70" y="58.00" text-anchor="end" font-family="Arial, sans-serif" font-size="11">0.00114</text>
<line x1="78.00" y1="54" x2="78.00" y2="360" stroke="#777" stroke-dasharray="4 4"/>
<line x1="78" y1="322.67" x2="768" y2="322.67" stroke="#777" stroke-dasharray="4 4"/>
<line x1="78.00" y1="54" x2="78.00" y2="360" stroke="#555" stroke-dasharray="2 4"/>
<text x="82.00" y="68" font-family="Arial, sans-serif" font-size="11" fill="#555">0V</text>
<line x1="768.00" y1="54" x2="768.00" y2="360" stroke="#555" stroke-dasharray="2 4"/>
<text x="772.00" y="68" font-family="Arial, sans-serif" font-size="11" fill="#555">Vcc</text>
<polyline fill="none" stroke="#1f77b4" stroke-width="1.2" opacity="0.55" stroke-dasharray="4 4" points="78.00,322.67 79.86,312.86 81.73,303.45 83.59,294.43 85.46,285.80 87.32,277.57 89.19,269.73 91.05,262.26 92.92,255.18 94.78,248.47 96.65,242.12 100.38,230.51 132.08,179.07 165.65,171.97 197.35,170.93 229.05,170.27 262.62,169.75 294.32,169.37 326.03,169.11 359.59,169.01 391.30,169.00 424.86,168.99 456.57,168.98 488.27,168.98 521.84,168.97 549.81,168.97 553.54,168.97 562.86,168.97 585.24,168.97 618.81,168.96 650.51,168.96 682.22,168.94 715.78,168.89 747.49,168.89 753.08,168.89 768.00,168.89"/>
<polyline fill="none" stroke="#1f77b4" stroke-width="1.2" opacity="0.55" stroke-dasharray="4 4" points="78.00,322.67 79.86,301.63 81.73,281.79 83.59,263.18 85.46,245.79 87.32,229.65 89.19,214.75 91.05,201.09 92.92,188.66 94.78,177.45 96.65,167.44 100.38,150.84 132.08,104.37 165.65,99.24 197.35,98.07 229.05,97.27 262.62,96.61 294.32,96.09 326.03,95.63 359.59,95.20 391.30,94.83 424.86,94.47 456.57,94.15 488.27,93.84 521.84,93.53 549.81,93.28 553.54,93.25 562.86,93.16 585.24,92.97 618.81,92.67 650.51,92.37 682.22,92.06 715.78,91.71 747.49,91.34 753.08,91.27 768.00,91.09"/>
<polyline fill="none" stroke="#1f77b4" stroke-width="2.0" opacity="1.0" points="78.00,322.67 79.86,307.75 81.73,293.52 83.59,279.99 85.46,267.17 87.32,255.04 89.19,243.60 91.05,232.86 92.92,222.80 94.78,213.42 96.65,204.71 100.38,189.23 132.08,134.68 165.65,130.42 197.35,129.56 229.05,128.98 262.62,128.50 294.32,128.13 326.03,127.81 359.59,127.51 391.30,127.26 424.86,127.01 456.57,126.81 488.27,126.63 521.84,126.53 549.81,126.52 553.54,126.52 562.86,126.52 585.24,126.51 618.81,126.51 650.51,126.50 682.22,126.50 715.78,126.49 747.49,126.49 753.08,126.49 768.00,126.49"/>
<circle cx="78.00" cy="322.67" r="4.0" fill="#ffffff" stroke="#1f77b4" stroke-width="1.5"/>
<circle cx="78.00" cy="322.67" r="3.0" fill="#ffffff" stroke="#1f77b4" stroke-width="1.5"/>
<circle cx="78.00" cy="322.67" r="3.0" fill="#ffffff" stroke="#1f77b4" stroke-width="1.5"/>
<line x1="78" y1="322.44" x2="768" y2="322.44" stroke="#b54708" stroke-width="1.4" stroke-dasharray="5 3"/>
<text x="764" y="318.44" text-anchor="end" font-family="Arial, sans-serif" font-size="10" fill="#b54708">+1uA leakage limit</text>
<line x1="78" y1="322.91" x2="768" y2="322.91" stroke="#b54708" stroke-width="1.4" stroke-dasharray="5 3"/>
<text x="764" y="318.91" text-anchor="end" font-family="Arial, sans-serif" font-size="10" fill="#b54708">-1uA leakage limit</text>
<line x1="88" y1="72" x2="110" y2="72" stroke="#1f77b4" stroke-width="2.4"/>
<text x="116" y="76" font-family="Arial, sans-serif" font-size="12">[Pulldown]</text>
<text x="423.00" y="404.00" text-anchor="middle" font-family="Arial, sans-serif" font-size="12">Table voltage (V), zoomed around 0 V</text>
<text transform="translate(18 207.00) rotate(-90)" text-anchor="middle" font-family="Arial, sans-serif" font-size="12">Current (A)</text>
<text x="420" y="42" font-family="Arial, sans-serif" font-size="11" fill="#555">pullup/pulldown curves show typ/min/max; open circles mark I(0 V)</text>
</svg>