<svg xmlns="http://www.w3.org/2000/svg" width="800" height="520" viewBox="0 0 800 520">
<rect width="100%" height="100%" fill="#ffffff"/>
<text x="78" y="25" font-family="Arial, sans-serif" font-size="16" font-weight="700">E34_GPIO_I3C_I2C_SLV_1V8_10 I-V Pullup/Pulldown 0 V Detail</text>
<rect x="78" y="54" width="690" height="306" fill="#fbfbfb" stroke="#c8c8c8"/>
<line x1="78.00" y1="54" x2="78.00" y2="360" stroke="#ececec"/>
<text x="78.00" y="382" text-anchor="middle" font-family="Arial, sans-serif" font-size="11">0</text>
<line x1="216.00" y1="54" x2="216.00" y2="360" stroke="#ececec"/>
<text x="216.00" y="382" text-anchor="middle" font-family="Arial, sans-serif" font-size="11">0.36</text>
<line x1="354.00" y1="54" x2="354.00" y2="360" stroke="#ececec"/>
<text x="354.00" y="382" text-anchor="middle" font-family="Arial, sans-serif" font-size="11">0.72</text>
<line x1="492.00" y1="54" x2="492.00" y2="360" stroke="#ececec"/>
<text x="492.00" y="382" text-anchor="middle" font-family="Arial, sans-serif" font-size="11">1.1</text>
<line x1="630.00" y1="54" x2="630.00" y2="360" stroke="#ececec"/>
<text x="630.00" y="382" text-anchor="middle" font-family="Arial, sans-serif" font-size="11">1.4</text>
<line x1="768.00" y1="54" x2="768.00" y2="360" stroke="#ececec"/>
<text x="768.00" y="382" text-anchor="middle" font-family="Arial, sans-serif" font-size="11">1.8</text>
<line x1="78" y1="360.00" x2="768" y2="360.00" stroke="#ececec"/>
<text x="70" y="364.00" text-anchor="end" font-family="Arial, sans-serif" font-size="11">-0.0917</text>
<line x1="78" y1="298.80" x2="768" y2="298.80" stroke="#ececec"/>
<text x="70" y="302.80" text-anchor="end" font-family="Arial, sans-serif" font-size="11">-0.053</text>
<line x1="78" y1="237.60" x2="768" y2="237.60" stroke="#ececec"/>
<text x="70" y="241.60" text-anchor="end" font-family="Arial, sans-serif" font-size="11">-0.0142</text>
<line x1="78" y1="176.40" x2="768" y2="176.40" stroke="#ececec"/>
<text x="70" y="180.40" text-anchor="end" font-family="Arial, sans-serif" font-size="11">0.0246</text>
<line x1="78" y1="115.20" x2="768" y2="115.20" stroke="#ececec"/>
<text x="70" y="119.20" text-anchor="end" font-family="Arial, sans-serif" font-size="11">0.0634</text>
<line x1="78" y1="54.00" x2="768" y2="54.00" stroke="#ececec"/>
<text x="70" y="58.00" text-anchor="end" font-family="Arial, sans-serif" font-size="11">0.102</text>
<line x1="78.00" y1="54" x2="78.00" y2="360" stroke="#777" stroke-dasharray="4 4"/>
<line x1="78" y1="215.23" x2="768" y2="215.23" stroke="#777" stroke-dasharray="4 4"/>
<line x1="78.00" y1="54" x2="78.00" y2="360" stroke="#555" stroke-dasharray="2 4"/>
<text x="82.00" y="68" font-family="Arial, sans-serif" font-size="11" fill="#555">0V</text>
<line x1="768.00" y1="54" x2="768.00" y2="360" stroke="#555" stroke-dasharray="2 4"/>
<text x="772.00" y="68" font-family="Arial, sans-serif" font-size="11" fill="#555">Vcc</text>
<polyline fill="none" stroke="#1f77b4" stroke-width="1.2" opacity="0.55" stroke-dasharray="4 4" points="78.00,215.23 101.00,209.26 131.67,201.83 166.17,194.32 173.83,192.78 196.83,188.47 204.50,187.14 231.33,182.89 258.17,179.29 262.00,178.83 296.50,175.28 327.17,172.97 361.67,171.18 392.33,170.12 426.83,169.29 457.50,168.74 488.17,168.30 522.67,167.87 553.33,167.55 587.83,167.21 618.50,166.95 653.00,166.66 683.67,166.43 699.00,166.32 718.17,166.18 748.83,165.97 768.00,165.85"/>
<polyline fill="none" stroke="#1f77b4" stroke-width="1.2" opacity="0.55" stroke-dasharray="4 4" points="78.00,215.23 101.00,200.90 131.67,182.70 166.17,164.05 173.83,160.22 196.83,149.50 204.50,146.18 231.33,135.63 258.17,126.69 262.00,125.54 296.50,116.54 327.17,110.44 361.67,105.38 392.33,102.18 426.83,99.64 457.50,98.04 488.17,96.82 522.67,95.74 553.33,94.94 587.83,94.16 618.50,93.54 653.00,92.91 683.67,92.39 699.00,92.14 718.17,91.83 748.83,91.37 768.00,91.09"/>
<polyline fill="none" stroke="#1f77b4" stroke-width="2.0" opacity="1.0" points="78.00,215.23 101.00,205.49 131.67,193.22 166.17,180.70 173.83,178.14 196.83,170.94 204.50,168.71 231.33,161.61 258.17,155.59 262.00,154.82 296.50,148.83 327.17,144.85 361.67,141.66 392.33,139.73 426.83,138.22 457.50,137.26 488.17,136.51 522.67,135.82 553.33,135.29 587.83,134.77 618.50,134.34 653.00,133.91 683.67,133.55 699.00,133.37 718.17,133.17 748.83,132.84 768.00,132.65"/>
<polyline fill="none" stroke="#d62728" stroke-width="1.2" opacity="0.55" stroke-dasharray="4 4" points="78.00,215.23 104.83,220.21 108.67,220.90 112.50,221.57 116.33,222.23 120.17,222.89 131.67,224.82 158.50,229.07 166.17,230.22 173.83,231.35 181.50,232.44 189.17,233.51 196.83,234.54 200.67,235.05 212.17,236.52 216.00,237.00 227.50,238.39 242.83,240.13 250.50,240.95 254.33,241.35 262.00,242.13 277.33,243.59 296.50,245.24 315.67,246.70 327.17,247.48 361.67,249.46 392.33,250.79 426.83,251.93 457.50,252.72 488.17,253.36 522.67,253.95 553.33,254.40 587.83,254.85 618.50,255.20 653.00,255.56 683.67,255.86 699.00,255.99 718.17,256.16 748.83,256.42 768.00,256.57"/>
<polyline fill="none" stroke="#d62728" stroke-width="1.2" opacity="0.55" stroke-dasharray="4 4" points="78.00,215.23 104.83,226.89 108.67,228.50 112.50,230.09 116.33,231.65 120.17,233.17 131.67,237.63 158.50,247.69 166.17,250.44 173.83,253.11 181.50,255.72 189.17,258.27 196.83,260.74 200.67,261.96 212.17,265.50 216.00,266.65 227.50,269.99 242.83,274.22 250.50,276.24 254.33,277.22 262.00,279.15 277.33,282.81 296.50,287.05 315.67,290.92 327.17,293.08 361.67,298.86 392.33,303.19 426.83,307.24 457.50,310.18 488.17,312.60 522.67,314.79 553.33,316.38 587.83,317.87 618.50,318.99 653.00,320.08 683.67,320.94 699.00,321.33 718.17,321.80 748.83,322.50 768.00,322.91"/>
<polyline fill="none" stroke="#d62728" stroke-width="2.0" opacity="1.0" points="78.00,215.23 104.83,223.04 108.67,224.11 112.50,225.18 116.33,226.23 120.17,227.27 131.67,230.35 158.50,237.20 166.17,239.06 173.83,240.88 181.50,242.66 189.17,244.40 196.83,246.10 200.67,246.93 212.17,249.36 216.00,250.15 227.50,252.45 242.83,255.36 250.50,256.75 254.33,257.42 262.00,258.75 277.33,261.26 296.50,264.15 315.67,266.77 327.17,268.21 361.67,272.00 392.33,274.73 426.83,277.19 457.50,278.91 488.17,280.30 522.67,281.57 553.33,282.50 587.83,283.39 618.50,284.07 653.00,284.76 683.67,285.30 699.00,285.56 718.17,285.86 748.83,286.32 768.00,286.60"/>
<circle cx="78.00" cy="215.23" r="4.0" fill="#ffffff" stroke="#1f77b4" stroke-width="1.5"/>
<circle cx="78.00" cy="215.23" r="3.0" fill="#ffffff" stroke="#1f77b4" stroke-width="1.5"/>
<circle cx="78.00" cy="215.23" r="3.0" fill="#ffffff" stroke="#1f77b4" stroke-width="1.5"/>
<circle cx="78.00" cy="215.23" r="4.0" fill="#ffffff" stroke="#d62728" stroke-width="1.5"/>
<circle cx="78.00" cy="215.23" r="3.0" fill="#ffffff" stroke="#d62728" stroke-width="1.5"/>
<circle cx="78.00" cy="215.23" r="3.0" fill="#ffffff" stroke="#d62728" stroke-width="1.5"/>
<line x1="78" y1="215.23" x2="768" y2="215.23" stroke="#b54708" stroke-width="1.4" stroke-dasharray="5 3"/>
<text x="764" y="211.23" text-anchor="end" font-family="Arial, sans-serif" font-size="10" fill="#b54708">+1uA leakage limit</text>
<line x1="78" y1="215.23" x2="768" y2="215.23" stroke="#b54708" stroke-width="1.4" stroke-dasharray="5 3"/>
<text x="764" y="211.23" text-anchor="end" font-family="Arial, sans-serif" font-size="10" fill="#b54708">-1uA leakage limit</text>
<line x1="88" y1="72" x2="110" y2="72" stroke="#1f77b4" stroke-width="2.4"/>
<text x="116" y="76" font-family="Arial, sans-serif" font-size="12">[Pulldown]</text>
<line x1="88" y1="90" x2="110" y2="90" stroke="#d62728" stroke-width="2.4"/>
<text x="116" y="94" font-family="Arial, sans-serif" font-size="12">[Pullup]</text>
<text x="423.00" y="404.00" text-anchor="middle" font-family="Arial, sans-serif" font-size="12">Table voltage (V), zoomed around 0 V</text>
<text transform="translate(18 207.00) rotate(-90)" text-anchor="middle" font-family="Arial, sans-serif" font-size="12">Current (A)</text>
<text x="420" y="42" font-family="Arial, sans-serif" font-size="11" fill="#555">pullup/pulldown curves show typ/min/max; open circles mark I(0 V)</text>
</svg>