<svg xmlns="http://www.w3.org/2000/svg" width="800" height="520" viewBox="0 0 800 520">
<rect width="100%" height="100%" fill="#ffffff"/>
<text x="78" y="25" font-family="Arial, sans-serif" font-size="16" font-weight="700">E34_GPIO_SPI_I3C_MST_1V1_10 I-V Pullup/Pulldown 0 V Detail</text>
<rect x="78" y="54" width="690" height="306" fill="#fbfbfb" stroke="#c8c8c8"/>
<line x1="78.00" y1="54" x2="78.00" y2="360" stroke="#ececec"/>
<text x="78.00" y="382" text-anchor="middle" font-family="Arial, sans-serif" font-size="11">0</text>
<line x1="216.00" y1="54" x2="216.00" y2="360" stroke="#ececec"/>
<text x="216.00" y="382" text-anchor="middle" font-family="Arial, sans-serif" font-size="11">0.22</text>
<line x1="354.00" y1="54" x2="354.00" y2="360" stroke="#ececec"/>
<text x="354.00" y="382" text-anchor="middle" font-family="Arial, sans-serif" font-size="11">0.44</text>
<line x1="492.00" y1="54" x2="492.00" y2="360" stroke="#ececec"/>
<text x="492.00" y="382" text-anchor="middle" font-family="Arial, sans-serif" font-size="11">0.66</text>
<line x1="630.00" y1="54" x2="630.00" y2="360" stroke="#ececec"/>
<text x="630.00" y="382" text-anchor="middle" font-family="Arial, sans-serif" font-size="11">0.88</text>
<line x1="768.00" y1="54" x2="768.00" y2="360" stroke="#ececec"/>
<text x="768.00" y="382" text-anchor="middle" font-family="Arial, sans-serif" font-size="11">1.1</text>
<line x1="78" y1="360.00" x2="768" y2="360.00" stroke="#ececec"/>
<text x="70" y="364.00" text-anchor="end" font-family="Arial, sans-serif" font-size="11">-0.0286</text>
<line x1="78" y1="298.80" x2="768" y2="298.80" stroke="#ececec"/>
<text x="70" y="302.80" text-anchor="end" font-family="Arial, sans-serif" font-size="11">-0.0152</text>
<line x1="78" y1="237.60" x2="768" y2="237.60" stroke="#ececec"/>
<text x="70" y="241.60" text-anchor="end" font-family="Arial, sans-serif" font-size="11">-0.00189</text>
<line x1="78" y1="176.40" x2="768" y2="176.40" stroke="#ececec"/>
<text x="70" y="180.40" text-anchor="end" font-family="Arial, sans-serif" font-size="11">0.0114</text>
<line x1="78" y1="115.20" x2="768" y2="115.20" stroke="#ececec"/>
<text x="70" y="119.20" text-anchor="end" font-family="Arial, sans-serif" font-size="11">0.0248</text>
<line x1="78" y1="54.00" x2="768" y2="54.00" stroke="#ececec"/>
<text x="70" y="58.00" text-anchor="end" font-family="Arial, sans-serif" font-size="11">0.0381</text>
<line x1="78.00" y1="54" x2="78.00" y2="360" stroke="#777" stroke-dasharray="4 4"/>
<line x1="78" y1="228.91" x2="768" y2="228.91" stroke="#777" stroke-dasharray="4 4"/>
<line x1="78.00" y1="54" x2="78.00" y2="360" stroke="#555" stroke-dasharray="2 4"/>
<text x="82.00" y="68" font-family="Arial, sans-serif" font-size="11" fill="#555">0V</text>
<line x1="768.00" y1="54" x2="768.00" y2="360" stroke="#555" stroke-dasharray="2 4"/>
<text x="772.00" y="68" font-family="Arial, sans-serif" font-size="11" fill="#555">Vcc</text>
<polyline fill="none" stroke="#1f77b4" stroke-width="1.2" opacity="0.55" stroke-dasharray="4 4" points="78.00,228.91 103.09,223.12 134.45,216.67 165.82,211.11 184.64,208.21 197.18,206.46 209.73,204.85 216.00,204.10 228.55,202.70 234.82,202.05 241.09,201.44 253.64,200.33 259.91,199.82 266.18,199.34 285.00,198.11 297.55,197.43 328.91,196.20 360.27,195.43 391.64,194.90 429.27,194.41 460.64,194.05 492.00,193.72 523.36,193.42 554.73,193.14 586.09,192.87 623.73,192.57 655.09,192.33 686.45,192.10 699.00,192.01 717.82,191.88 749.18,191.67 768.00,191.54"/>
<polyline fill="none" stroke="#1f77b4" stroke-width="1.2" opacity="0.55" stroke-dasharray="4 4" points="78.00,228.91 103.09,211.36 134.45,190.91 165.82,172.40 184.64,162.34 197.18,156.09 209.73,150.22 216.00,147.43 228.55,142.12 234.82,139.62 241.09,137.20 253.64,132.66 259.91,130.53 266.18,128.50 285.00,122.95 297.55,119.70 328.91,113.07 360.27,108.29 391.64,104.96 429.27,102.21 460.64,100.51 492.00,99.12 523.36,97.92 554.73,96.83 586.09,95.84 623.73,94.74 655.09,93.88 686.45,93.06 699.00,92.75 717.82,92.28 749.18,91.53 768.00,91.09"/>
<polyline fill="none" stroke="#1f77b4" stroke-width="2.0" opacity="1.0" points="78.00,228.91 103.09,218.46 134.45,206.54 165.82,196.01 184.64,190.39 197.18,186.94 209.73,183.74 216.00,182.22 228.55,179.38 234.82,178.05 241.09,176.78 253.64,174.42 259.91,173.33 266.18,172.30 285.00,169.54 297.55,167.99 328.91,164.98 360.27,163.00 391.64,161.67 429.27,160.52 460.64,159.74 492.00,159.05 523.36,158.42 554.73,157.84 586.09,157.29 623.73,156.67 655.09,156.19 686.45,155.72 699.00,155.54 717.82,155.28 749.18,154.84 768.00,154.59"/>
<polyline fill="none" stroke="#d62728" stroke-width="1.2" opacity="0.55" stroke-dasharray="4 4" points="78.00,228.91 103.09,233.13 128.18,236.91 134.45,237.79 165.82,241.77 197.18,245.14 228.55,247.91 266.18,250.46 297.55,251.96 316.36,252.62 328.91,252.99 360.27,253.69 391.64,254.19 429.27,254.68 435.55,254.75 460.64,255.02 492.00,255.33 517.09,255.56 523.36,255.62 542.18,255.78 554.73,255.88 586.09,256.12 623.73,256.39 655.09,256.60 686.45,256.81 699.00,256.88 717.82,257.00 749.18,257.18 768.00,257.29"/>
<polyline fill="none" stroke="#d62728" stroke-width="1.2" opacity="0.55" stroke-dasharray="4 4" points="78.00,228.91 103.09,240.52 128.18,251.32 134.45,253.84 165.82,265.36 197.18,275.96 228.55,285.34 266.18,294.90 297.55,301.45 316.36,304.78 328.91,306.76 360.27,310.95 391.64,314.21 429.27,317.19 435.55,317.61 460.64,319.14 492.00,320.77 517.09,321.90 523.36,322.16 542.18,322.91 554.73,322.91 586.09,322.91 623.73,322.91 655.09,322.91 686.45,322.91 699.00,322.91 717.82,322.91 749.18,322.91 768.00,322.91"/>
<polyline fill="none" stroke="#d62728" stroke-width="2.0" opacity="1.0" points="78.00,228.91 103.09,235.95 128.18,242.37 134.45,243.88 165.82,250.92 197.18,257.10 228.55,262.39 266.18,267.54 297.55,270.83 316.36,272.40 328.91,273.29 360.27,275.07 391.64,276.36 429.27,277.54 435.55,277.71 460.64,278.35 492.00,279.05 517.09,279.05 523.36,279.05 542.18,279.05 554.73,279.05 586.09,279.05 623.73,279.05 655.09,279.05 686.45,279.05 699.00,279.05 717.82,279.05 749.18,279.05 768.00,279.05"/>
<circle cx="78.00" cy="228.91" r="4.0" fill="#ffffff" stroke="#1f77b4" stroke-width="1.5"/>
<circle cx="78.00" cy="228.91" r="3.0" fill="#ffffff" stroke="#1f77b4" stroke-width="1.5"/>
<circle cx="78.00" cy="228.91" r="3.0" fill="#ffffff" stroke="#1f77b4" stroke-width="1.5"/>
<circle cx="78.00" cy="228.91" r="4.0" fill="#ffffff" stroke="#d62728" stroke-width="1.5"/>
<circle cx="78.00" cy="228.91" r="3.0" fill="#ffffff" stroke="#d62728" stroke-width="1.5"/>
<circle cx="78.00" cy="228.91" r="3.0" fill="#ffffff" stroke="#d62728" stroke-width="1.5"/>
<line x1="78" y1="228.91" x2="768" y2="228.91" stroke="#b54708" stroke-width="1.4" stroke-dasharray="5 3"/>
<text x="764" y="224.91" text-anchor="end" font-family="Arial, sans-serif" font-size="10" fill="#b54708">+1uA leakage limit</text>
<line x1="78" y1="228.91" x2="768" y2="228.91" stroke="#b54708" stroke-width="1.4" stroke-dasharray="5 3"/>
<text x="764" y="224.91" text-anchor="end" font-family="Arial, sans-serif" font-size="10" fill="#b54708">-1uA leakage limit</text>
<line x1="88" y1="72" x2="110" y2="72" stroke="#1f77b4" stroke-width="2.4"/>
<text x="116" y="76" font-family="Arial, sans-serif" font-size="12">[Pulldown]</text>
<line x1="88" y1="90" x2="110" y2="90" stroke="#d62728" stroke-width="2.4"/>
<text x="116" y="94" font-family="Arial, sans-serif" font-size="12">[Pullup]</text>
<text x="423.00" y="404.00" text-anchor="middle" font-family="Arial, sans-serif" font-size="12">Table voltage (V), zoomed around 0 V</text>
<text transform="translate(18 207.00) rotate(-90)" text-anchor="middle" font-family="Arial, sans-serif" font-size="12">Current (A)</text>
<text x="420" y="42" font-family="Arial, sans-serif" font-size="11" fill="#555">pullup/pulldown curves show typ/min/max; open circles mark I(0 V)</text>
</svg>