<svg xmlns="http://www.w3.org/2000/svg" width="800" height="520" viewBox="0 0 800 520">
<rect width="100%" height="100%" fill="#ffffff"/>
<text x="78" y="25" font-family="Arial, sans-serif" font-size="16" font-weight="700">E34_GPIO_I2CSCLIN_1V2_00 I-V Pullup/Pulldown 0 V Detail</text>
<rect x="78" y="54" width="690" height="306" fill="#fbfbfb" stroke="#c8c8c8"/>
<line x1="78.00" y1="54" x2="78.00" y2="360" stroke="#ececec"/>
<text x="78.00" y="382" text-anchor="middle" font-family="Arial, sans-serif" font-size="11">0</text>
<line x1="216.00" y1="54" x2="216.00" y2="360" stroke="#ececec"/>
<text x="216.00" y="382" text-anchor="middle" font-family="Arial, sans-serif" font-size="11">0.24</text>
<line x1="354.00" y1="54" x2="354.00" y2="360" stroke="#ececec"/>
<text x="354.00" y="382" text-anchor="middle" font-family="Arial, sans-serif" font-size="11">0.48</text>
<line x1="492.00" y1="54" x2="492.00" y2="360" stroke="#ececec"/>
<text x="492.00" y="382" text-anchor="middle" font-family="Arial, sans-serif" font-size="11">0.72</text>
<line x1="630.00" y1="54" x2="630.00" y2="360" stroke="#ececec"/>
<text x="630.00" y="382" text-anchor="middle" font-family="Arial, sans-serif" font-size="11">0.96</text>
<line x1="768.00" y1="54" x2="768.00" y2="360" stroke="#ececec"/>
<text x="768.00" y="382" text-anchor="middle" font-family="Arial, sans-serif" font-size="11">1.2</text>
<line x1="78" y1="360.00" x2="768" y2="360.00" stroke="#ececec"/>
<text x="70" y="364.00" text-anchor="end" font-family="Arial, sans-serif" font-size="11">-0.00561</text>
<line x1="78" y1="298.80" x2="768" y2="298.80" stroke="#ececec"/>
<text x="70" y="302.80" text-anchor="end" font-family="Arial, sans-serif" font-size="11">-0.0035</text>
<line x1="78" y1="237.60" x2="768" y2="237.60" stroke="#ececec"/>
<text x="70" y="241.60" text-anchor="end" font-family="Arial, sans-serif" font-size="11">-0.00139</text>
<line x1="78" y1="176.40" x2="768" y2="176.40" stroke="#ececec"/>
<text x="70" y="180.40" text-anchor="end" font-family="Arial, sans-serif" font-size="11">7.3e-04</text>
<line x1="78" y1="115.20" x2="768" y2="115.20" stroke="#ececec"/>
<text x="70" y="119.20" text-anchor="end" font-family="Arial, sans-serif" font-size="11">0.00284</text>
<line x1="78" y1="54.00" x2="768" y2="54.00" stroke="#ececec"/>
<text x="70" y="58.00" text-anchor="end" font-family="Arial, sans-serif" font-size="11">0.00495</text>
<line x1="78.00" y1="54" x2="78.00" y2="360" stroke="#777" stroke-dasharray="4 4"/>
<line x1="78" y1="197.42" x2="768" y2="197.42" stroke="#777" stroke-dasharray="4 4"/>
<line x1="78.00" y1="54" x2="78.00" y2="360" stroke="#555" stroke-dasharray="2 4"/>
<text x="82.00" y="68" font-family="Arial, sans-serif" font-size="11" fill="#555">0V</text>
<line x1="768.00" y1="54" x2="768.00" y2="360" stroke="#555" stroke-dasharray="2 4"/>
<text x="772.00" y="68" font-family="Arial, sans-serif" font-size="11" fill="#555">Vcc</text>
<polyline fill="none" stroke="#1f77b4" stroke-width="1.2" opacity="0.55" stroke-dasharray="4 4" points="78.00,197.42 101.00,193.53 135.50,188.18 164.25,184.19 198.75,180.01 233.25,176.54 262.00,174.20 296.50,172.07 331.00,170.65 359.75,169.91 394.25,169.34 428.75,168.94 457.50,168.67 492.00,168.37 520.75,168.15 555.25,167.91 589.75,167.68 618.50,167.50 653.00,167.30 670.25,167.20 687.50,167.11 699.00,167.05 710.50,166.99 716.25,166.96 733.50,166.87 750.75,166.78 768.00,166.70"/>
<polyline fill="none" stroke="#1f77b4" stroke-width="1.2" opacity="0.55" stroke-dasharray="4 4" points="78.00,197.42 101.00,187.43 135.50,173.03 164.25,161.68 198.75,149.00 233.25,137.52 262.00,128.98 296.50,120.10 331.00,112.80 359.75,107.96 394.25,103.60 428.75,100.61 457.50,98.87 492.00,97.35 520.75,96.35 555.25,95.36 589.75,94.49 618.50,93.85 653.00,93.13 670.25,92.80 687.50,92.48 699.00,92.27 710.50,92.06 716.25,91.96 733.50,91.66 750.75,91.37 768.00,91.09"/>
<polyline fill="none" stroke="#1f77b4" stroke-width="2.0" opacity="1.0" points="78.00,197.42 101.00,190.92 135.50,181.72 164.25,174.65 198.75,166.97 233.25,160.25 262.00,155.45 296.50,150.72 331.00,147.15 359.75,145.04 394.25,143.35 428.75,142.26 457.50,141.59 492.00,140.94 520.75,140.46 555.25,139.95 589.75,139.49 618.50,139.13 653.00,138.72 670.25,138.53 687.50,138.34 699.00,138.22 710.50,138.10 716.25,138.04 733.50,137.87 750.75,137.70 768.00,137.53"/>
<polyline fill="none" stroke="#d62728" stroke-width="1.2" opacity="0.55" stroke-dasharray="4 4" points="78.00,197.42 101.00,201.73 112.50,203.79 118.25,204.79 124.00,205.77 129.75,206.73 164.25,212.12 198.75,216.86 221.75,219.64 233.25,220.92 239.00,221.53 256.25,223.24 267.75,224.27 279.25,225.22 285.00,225.67 290.75,226.09 296.50,226.50 302.25,226.88 308.00,227.24 313.75,227.58 319.50,227.90 325.25,228.20 331.00,228.49 336.75,228.75 342.50,229.00 348.25,229.23 354.00,229.45 359.75,229.65 365.50,229.84 371.25,230.01 377.00,230.18 382.75,230.33 388.50,230.47 394.25,230.61 400.00,230.74 405.75,230.86 411.50,230.98 423.00,231.20 457.50,231.76 492.00,232.24 520.75,232.59 555.25,232.97 589.75,233.32 618.50,233.59 653.00,233.88 664.50,233.98 687.50,234.16 699.00,234.25 716.25,234.38 750.75,234.63 768.00,234.74"/>
<polyline fill="none" stroke="#d62728" stroke-width="1.2" opacity="0.55" stroke-dasharray="4 4" points="78.00,197.42 101.00,207.63 112.50,212.59 118.25,215.03 124.00,217.42 129.75,219.76 164.25,233.31 198.75,246.14 221.75,254.18 233.25,258.03 239.00,259.92 256.25,265.38 267.75,268.88 279.25,272.25 285.00,273.88 290.75,275.48 296.50,277.05 302.25,278.59 308.00,280.09 313.75,281.56 319.50,282.99 325.25,284.39 331.00,285.76 336.75,287.09 342.50,288.38 348.25,289.64 354.00,290.86 359.75,292.05 365.50,293.20 371.25,294.31 377.00,295.39 382.75,296.43 388.50,297.44 394.25,298.41 400.00,299.35 405.75,300.25 411.50,301.12 423.00,302.76 457.50,306.95 492.00,310.23 520.75,312.44 555.25,314.63 589.75,316.45 618.50,317.77 653.00,319.18 664.50,319.61 687.50,320.43 699.00,320.81 716.25,321.37 750.75,322.42 768.00,322.91"/>
<polyline fill="none" stroke="#d62728" stroke-width="2.0" opacity="1.0" points="78.00,197.42 101.00,204.14 112.50,207.38 118.25,208.97 124.00,210.54 129.75,212.08 164.25,220.93 198.75,229.02 221.75,233.96 233.25,236.29 239.00,237.41 256.25,240.63 267.75,242.65 279.25,244.56 285.00,245.48 290.75,246.36 296.50,247.22 302.25,248.05 308.00,248.85 313.75,249.62 319.50,250.37 325.25,251.08 331.00,251.77 336.75,252.42 342.50,253.05 348.25,253.65 354.00,254.22 359.75,254.76 365.50,255.28 371.25,255.77 377.00,256.23 382.75,256.68 388.50,257.09 394.25,257.49 400.00,257.86 405.75,258.21 411.50,258.55 423.00,259.16 457.50,260.70 492.00,261.90 520.75,262.75 555.25,263.63 589.75,264.42 618.50,265.01 653.00,265.67 664.50,265.87 687.50,266.27 699.00,266.45 716.25,266.73 750.75,267.26 768.00,267.51"/>
<circle cx="78.00" cy="197.42" r="4.0" fill="#ffffff" stroke="#1f77b4" stroke-width="1.5"/>
<circle cx="78.00" cy="197.42" r="3.0" fill="#ffffff" stroke="#1f77b4" stroke-width="1.5"/>
<circle cx="78.00" cy="197.42" r="3.0" fill="#ffffff" stroke="#1f77b4" stroke-width="1.5"/>
<circle cx="78.00" cy="197.42" r="4.0" fill="#ffffff" stroke="#d62728" stroke-width="1.5"/>
<circle cx="78.00" cy="197.42" r="3.0" fill="#ffffff" stroke="#d62728" stroke-width="1.5"/>
<circle cx="78.00" cy="197.42" r="3.0" fill="#ffffff" stroke="#d62728" stroke-width="1.5"/>
<line x1="78" y1="197.39" x2="768" y2="197.39" stroke="#b54708" stroke-width="1.4" stroke-dasharray="5 3"/>
<text x="764" y="193.39" text-anchor="end" font-family="Arial, sans-serif" font-size="10" fill="#b54708">+1uA leakage limit</text>
<line x1="78" y1="197.45" x2="768" y2="197.45" stroke="#b54708" stroke-width="1.4" stroke-dasharray="5 3"/>
<text x="764" y="193.45" text-anchor="end" font-family="Arial, sans-serif" font-size="10" fill="#b54708">-1uA leakage limit</text>
<line x1="88" y1="72" x2="110" y2="72" stroke="#1f77b4" stroke-width="2.4"/>
<text x="116" y="76" font-family="Arial, sans-serif" font-size="12">[Pulldown]</text>
<line x1="88" y1="90" x2="110" y2="90" stroke="#d62728" stroke-width="2.4"/>
<text x="116" y="94" font-family="Arial, sans-serif" font-size="12">[Pullup]</text>
<text x="423.00" y="404.00" text-anchor="middle" font-family="Arial, sans-serif" font-size="12">Table voltage (V), zoomed around 0 V</text>
<text transform="translate(18 207.00) rotate(-90)" text-anchor="middle" font-family="Arial, sans-serif" font-size="12">Current (A)</text>
<text x="420" y="42" font-family="Arial, sans-serif" font-size="11" fill="#555">pullup/pulldown curves show typ/min/max; open circles mark I(0 V)</text>
</svg>