<svg xmlns="http://www.w3.org/2000/svg" width="800" height="520" viewBox="0 0 800 520">
<rect width="100%" height="100%" fill="#ffffff"/>
<text x="78" y="25" font-family="Arial, sans-serif" font-size="16" font-weight="700">E34_GPIO_SPI_I3C_MST_1V2_10 I-V Pullup/Pulldown 0 V Detail</text>
<rect x="78" y="54" width="690" height="306" fill="#fbfbfb" stroke="#c8c8c8"/>
<line x1="78.00" y1="54" x2="78.00" y2="360" stroke="#ececec"/>
<text x="78.00" y="382" text-anchor="middle" font-family="Arial, sans-serif" font-size="11">0</text>
<line x1="216.00" y1="54" x2="216.00" y2="360" stroke="#ececec"/>
<text x="216.00" y="382" text-anchor="middle" font-family="Arial, sans-serif" font-size="11">0.24</text>
<line x1="354.00" y1="54" x2="354.00" y2="360" stroke="#ececec"/>
<text x="354.00" y="382" text-anchor="middle" font-family="Arial, sans-serif" font-size="11">0.48</text>
<line x1="492.00" y1="54" x2="492.00" y2="360" stroke="#ececec"/>
<text x="492.00" y="382" text-anchor="middle" font-family="Arial, sans-serif" font-size="11">0.72</text>
<line x1="630.00" y1="54" x2="630.00" y2="360" stroke="#ececec"/>
<text x="630.00" y="382" text-anchor="middle" font-family="Arial, sans-serif" font-size="11">0.96</text>
<line x1="768.00" y1="54" x2="768.00" y2="360" stroke="#ececec"/>
<text x="768.00" y="382" text-anchor="middle" font-family="Arial, sans-serif" font-size="11">1.2</text>
<line x1="78" y1="360.00" x2="768" y2="360.00" stroke="#ececec"/>
<text x="70" y="364.00" text-anchor="end" font-family="Arial, sans-serif" font-size="11">-0.0361</text>
<line x1="78" y1="298.80" x2="768" y2="298.80" stroke="#ececec"/>
<text x="70" y="302.80" text-anchor="end" font-family="Arial, sans-serif" font-size="11">-0.0195</text>
<line x1="78" y1="237.60" x2="768" y2="237.60" stroke="#ececec"/>
<text x="70" y="241.60" text-anchor="end" font-family="Arial, sans-serif" font-size="11">-0.00289</text>
<line x1="78" y1="176.40" x2="768" y2="176.40" stroke="#ececec"/>
<text x="70" y="180.40" text-anchor="end" font-family="Arial, sans-serif" font-size="11">0.0137</text>
<line x1="78" y1="115.20" x2="768" y2="115.20" stroke="#ececec"/>
<text x="70" y="119.20" text-anchor="end" font-family="Arial, sans-serif" font-size="11">0.0303</text>
<line x1="78" y1="54.00" x2="768" y2="54.00" stroke="#ececec"/>
<text x="70" y="58.00" text-anchor="end" font-family="Arial, sans-serif" font-size="11">0.0469</text>
<line x1="78.00" y1="54" x2="78.00" y2="360" stroke="#777" stroke-dasharray="4 4"/>
<line x1="78" y1="226.95" x2="768" y2="226.95" stroke="#777" stroke-dasharray="4 4"/>
<line x1="78.00" y1="54" x2="78.00" y2="360" stroke="#555" stroke-dasharray="2 4"/>
<text x="82.00" y="68" font-family="Arial, sans-serif" font-size="11" fill="#555">0V</text>
<line x1="768.00" y1="54" x2="768.00" y2="360" stroke="#555" stroke-dasharray="2 4"/>
<text x="772.00" y="68" font-family="Arial, sans-serif" font-size="11" fill="#555">Vcc</text>
<polyline fill="none" stroke="#1f77b4" stroke-width="1.2" opacity="0.55" stroke-dasharray="4 4" points="78.00,226.95 101.00,221.51 135.50,214.16 164.25,208.83 198.75,203.39 216.00,201.08 221.75,200.36 233.25,199.02 239.00,198.40 244.75,197.80 262.00,196.19 290.75,194.05 296.50,193.70 331.00,192.09 359.75,191.24 394.25,190.55 411.50,190.28 428.75,190.04 457.50,189.68 492.00,189.29 520.75,189.00 555.25,188.67 589.75,188.36 618.50,188.12 653.00,187.85 687.50,187.59 699.00,187.51 716.25,187.38 750.75,187.14 768.00,187.02"/>
<polyline fill="none" stroke="#1f77b4" stroke-width="1.2" opacity="0.55" stroke-dasharray="4 4" points="78.00,226.95 101.00,211.23 135.50,189.17 164.25,172.47 198.75,154.80 216.00,146.98 221.75,144.53 233.25,139.87 239.00,137.66 244.75,135.52 262.00,129.58 290.75,121.19 296.50,119.73 331.00,112.42 359.75,108.00 394.25,104.28 411.50,102.89 428.75,101.72 457.50,100.13 492.00,98.61 520.75,97.53 555.25,96.40 589.75,95.37 618.50,94.59 653.00,93.71 687.50,92.88 699.00,92.61 716.25,92.22 750.75,91.46 768.00,91.09"/>
<polyline fill="none" stroke="#1f77b4" stroke-width="2.0" opacity="1.0" points="78.00,226.95 101.00,217.31 135.50,204.02 164.25,194.14 198.75,183.86 216.00,179.38 221.75,177.99 233.25,175.35 239.00,174.11 244.75,172.91 262.00,169.63 290.75,165.13 296.50,164.36 331.00,160.70 359.75,158.64 394.25,156.99 411.50,156.36 428.75,155.82 457.50,155.05 492.00,154.26 520.75,153.67 555.25,153.02 589.75,152.43 618.50,151.97 653.00,151.44 687.50,150.94 699.00,150.78 716.25,150.54 750.75,150.08 768.00,149.86"/>
<polyline fill="none" stroke="#d62728" stroke-width="1.2" opacity="0.55" stroke-dasharray="4 4" points="78.00,226.95 101.00,230.88 129.75,235.31 135.50,236.13 164.25,239.92 198.75,243.85 233.25,247.08 262.00,249.24 285.00,250.63 296.50,251.22 331.00,252.58 359.75,253.37 382.75,253.85 394.25,254.06 428.75,254.58 457.50,254.95 480.50,255.21 492.00,255.34 520.75,255.63 543.75,255.84 555.25,255.95 589.75,256.24 618.50,256.46 653.00,256.72 687.50,256.95 699.00,257.03 716.25,257.14 750.75,257.36 768.00,257.46"/>
<polyline fill="none" stroke="#d62728" stroke-width="1.2" opacity="0.55" stroke-dasharray="4 4" points="78.00,226.95 101.00,237.40 129.75,249.56 135.50,251.79 164.25,262.34 198.75,274.00 233.25,284.25 262.00,291.67 285.00,296.87 296.50,299.22 331.00,305.37 359.75,309.49 382.75,312.23 394.25,313.43 428.75,316.48 457.50,318.52 480.50,319.90 492.00,320.52 520.75,321.92 543.75,322.91 555.25,322.91 589.75,322.91 618.50,322.91 653.00,322.91 687.50,322.91 699.00,322.91 716.25,322.91 750.75,322.91 768.00,322.91"/>
<polyline fill="none" stroke="#d62728" stroke-width="2.0" opacity="1.0" points="78.00,226.95 101.00,233.43 129.75,240.86 135.50,242.26 164.25,248.86 198.75,255.90 233.25,261.93 262.00,266.17 285.00,269.03 296.50,270.29 331.00,273.43 359.75,275.38 382.75,276.60 394.25,277.13 428.75,278.43 457.50,279.32 480.50,279.93 492.00,280.21 520.75,280.21 543.75,280.21 555.25,280.21 589.75,280.21 618.50,280.21 653.00,280.21 687.50,280.21 699.00,280.21 716.25,280.21 750.75,280.21 768.00,280.21"/>
<circle cx="78.00" cy="226.95" r="4.0" fill="#ffffff" stroke="#1f77b4" stroke-width="1.5"/>
<circle cx="78.00" cy="226.95" r="3.0" fill="#ffffff" stroke="#1f77b4" stroke-width="1.5"/>
<circle cx="78.00" cy="226.95" r="3.0" fill="#ffffff" stroke="#1f77b4" stroke-width="1.5"/>
<circle cx="78.00" cy="226.95" r="4.0" fill="#ffffff" stroke="#d62728" stroke-width="1.5"/>
<circle cx="78.00" cy="226.95" r="3.0" fill="#ffffff" stroke="#d62728" stroke-width="1.5"/>
<circle cx="78.00" cy="226.95" r="3.0" fill="#ffffff" stroke="#d62728" stroke-width="1.5"/>
<line x1="78" y1="226.95" x2="768" y2="226.95" stroke="#b54708" stroke-width="1.4" stroke-dasharray="5 3"/>
<text x="764" y="222.95" text-anchor="end" font-family="Arial, sans-serif" font-size="10" fill="#b54708">+1uA leakage limit</text>
<line x1="78" y1="226.95" x2="768" y2="226.95" stroke="#b54708" stroke-width="1.4" stroke-dasharray="5 3"/>
<text x="764" y="222.95" text-anchor="end" font-family="Arial, sans-serif" font-size="10" fill="#b54708">-1uA leakage limit</text>
<line x1="88" y1="72" x2="110" y2="72" stroke="#1f77b4" stroke-width="2.4"/>
<text x="116" y="76" font-family="Arial, sans-serif" font-size="12">[Pulldown]</text>
<line x1="88" y1="90" x2="110" y2="90" stroke="#d62728" stroke-width="2.4"/>
<text x="116" y="94" font-family="Arial, sans-serif" font-size="12">[Pullup]</text>
<text x="423.00" y="404.00" text-anchor="middle" font-family="Arial, sans-serif" font-size="12">Table voltage (V), zoomed around 0 V</text>
<text transform="translate(18 207.00) rotate(-90)" text-anchor="middle" font-family="Arial, sans-serif" font-size="12">Current (A)</text>
<text x="420" y="42" font-family="Arial, sans-serif" font-size="11" fill="#555">pullup/pulldown curves show typ/min/max; open circles mark I(0 V)</text>
</svg>