<svg xmlns="http://www.w3.org/2000/svg" width="800" height="450" viewBox="0 0 800 450">
<rect width="100%" height="100%" fill="#ffffff"/>
<text x="78" y="25" font-family="Arial, sans-serif" font-size="16" font-weight="700">E34_GPIO_SPI_I3C_MST_1V2_01 V-T Waveforms</text>
<rect x="78" y="54" width="694" height="230" fill="#fbfbfb" stroke="#c8c8c8"/>
<text transform="translate(18 169.00) rotate(-90)" text-anchor="middle" font-family="Arial, sans-serif" font-size="12">Voltage (V)</text>
<line x1="78.00" y1="54" x2="78.00" y2="284" stroke="#ececec"/>
<text x="78.00" y="302" text-anchor="middle" font-family="Arial, sans-serif" font-size="10">-635p</text>
<line x1="216.80" y1="54" x2="216.80" y2="284" stroke="#ececec"/>
<text x="216.80" y="302" text-anchor="middle" font-family="Arial, sans-serif" font-size="10">5.97n</text>
<line x1="355.60" y1="54" x2="355.60" y2="284" stroke="#ececec"/>
<text x="355.60" y="302" text-anchor="middle" font-family="Arial, sans-serif" font-size="10">12.6n</text>
<line x1="494.40" y1="54" x2="494.40" y2="284" stroke="#ececec"/>
<text x="494.40" y="302" text-anchor="middle" font-family="Arial, sans-serif" font-size="10">19.2n</text>
<line x1="633.20" y1="54" x2="633.20" y2="284" stroke="#ececec"/>
<text x="633.20" y="302" text-anchor="middle" font-family="Arial, sans-serif" font-size="10">25.8n</text>
<line x1="772.00" y1="54" x2="772.00" y2="284" stroke="#ececec"/>
<text x="772.00" y="302" text-anchor="middle" font-family="Arial, sans-serif" font-size="10">32.4n</text>
<line x1="78" y1="284.00" x2="772" y2="284.00" stroke="#ececec"/>
<text x="70" y="288.00" text-anchor="end" font-family="Arial, sans-serif" font-size="10">-0.105</text>
<line x1="78" y1="226.50" x2="772" y2="226.50" stroke="#ececec"/>
<text x="70" y="230.50" text-anchor="end" font-family="Arial, sans-serif" font-size="10">0.248</text>
<line x1="78" y1="169.00" x2="772" y2="169.00" stroke="#ececec"/>
<text x="70" y="173.00" text-anchor="end" font-family="Arial, sans-serif" font-size="10">0.601</text>
<line x1="78" y1="111.50" x2="772" y2="111.50" stroke="#ececec"/>
<text x="70" y="115.50" text-anchor="end" font-family="Arial, sans-serif" font-size="10">0.954</text>
<line x1="78" y1="54.00" x2="772" y2="54.00" stroke="#ececec"/>
<text x="70" y="58.00" text-anchor="end" font-family="Arial, sans-serif" font-size="10">1.3</text>
<line x1="78" y1="71.35" x2="772" y2="71.35" stroke="#1f77b4" opacity="0.18" stroke-dasharray="3 4"/>
<polyline fill="none" stroke="#1f77b4" stroke-width="2.0" points="91.35,169.64 92.98,169.64 94.60,169.64 96.66,169.64 98.28,169.65 99.92,169.66 101.14,169.63 101.85,169.58 102.17,169.55 102.42,169.53 102.78,169.50 102.99,169.49 103.20,169.47 103.51,169.45 103.78,169.44 104.01,169.44 104.29,169.46 104.44,169.48 104.62,169.51 104.79,169.56 105.09,169.68 105.23,169.76 105.38,169.85 105.53,169.95 105.78,170.17 105.97,170.35 106.14,170.54 106.31,170.74 106.47,170.95 106.66,171.21 106.83,171.45 107.02,171.73 107.12,171.89 107.27,172.12 107.42,172.35 107.52,172.52 107.63,172.68 107.78,172.91 107.88,173.07 108.03,173.29 108.11,173.42 108.28,173.66 108.47,173.91 108.60,174.07 108.76,174.25 108.91,174.39 109.08,174.52 109.27,174.61 109.48,174.65 109.67,174.61 109.83,174.50 109.94,174.39 110.09,174.21 110.30,173.83 110.51,173.32 110.72,172.67 110.93,171.88 111.20,170.61 111.45,169.21 111.73,167.44 111.89,166.21 112.15,164.23 112.31,162.83 112.61,160.14 112.92,156.99 113.20,154.05 113.39,151.92 113.57,149.75 113.83,146.71 113.99,144.63 114.23,141.73 114.39,139.55 114.71,135.41 114.96,132.06 115.19,128.93 115.44,125.52 115.70,122.09 115.93,118.97 116.24,114.73 116.47,111.66 116.66,109.19 116.94,105.68 117.29,101.27 117.48,99.04 117.73,96.21 117.86,94.86 117.97,93.78 118.26,90.94 118.43,89.45 118.53,88.57 118.68,87.40 118.85,86.16 119.16,84.11 119.52,82.17 119.86,80.62 120.11,79.61 120.44,78.43 120.74,77.57 121.01,76.89 121.20,76.49 121.45,76.00 121.58,75.79 121.77,75.50 122.38,74.69 122.78,74.27 123.01,74.07 123.60,73.61 124.02,73.35 124.96,72.92 125.42,72.75 125.72,72.67 126.26,72.53 126.83,72.39 127.02,72.35 127.63,72.23 128.39,72.12 128.79,72.06 129.31,72.00 129.65,71.97 129.84,71.95 130.30,71.91 130.59,71.88 131.77,71.79 132.59,71.75 133.81,71.69 134.44,71.67 135.11,71.64 135.51,71.63 136.16,71.61 136.54,71.59 137.08,71.58 137.57,71.57 137.90,71.56 138.39,71.55 138.89,71.54 139.23,71.54 139.67,71.53 140.26,71.52 140.40,71.51 140.76,71.51 141.14,71.51 141.52,71.50 141.96,71.49 142.25,71.49 142.61,71.49 142.99,71.48 143.34,71.48 143.72,71.47 144.12,71.47 144.46,71.47 144.84,71.46 145.24,71.46 145.66,71.45 146.06,71.45 146.29,71.45 146.69,71.45 147.06,71.44 147.29,71.44 147.59,71.44 147.86,71.44 148.09,71.44 148.45,71.44 148.72,71.43 149.02,71.43 149.73,71.43 150.15,71.43 150.57,71.42 150.95,71.42 151.37,71.42 152.34,71.42 153.01,71.41 153.41,71.41 153.83,71.41 154.10,71.41 154.54,71.41 154.90,71.41 155.87,71.40 156.27,71.40 157.09,71.40 157.53,71.40 157.78,71.40 158.26,71.40 158.66,71.39 159.14,71.39 159.86,71.39 159.98,71.39 160.07,71.39 160.76,71.39 161.37,71.39 162.40,71.39 162.86,71.39 163.62,71.39 164.02,71.38 164.88,71.38 165.24,71.38 166.08,71.38 166.58,71.38 166.88,71.38 167.53,71.38 168.01,71.38 168.45,71.38 168.87,71.38 169.17,71.38 169.48,71.38 169.96,71.38 170.97,71.38 171.79,71.37 172.15,71.37 172.57,71.37 173.41,71.37 174.23,71.37 175.87,71.37 177.51,71.37 179.10,71.37 179.75,71.37 180.26,71.37 180.81,71.37 181.44,71.37 182.40,71.37 183.37,71.37 184.86,71.37 186.48,71.37 187.72,71.37 188.94,71.37 190.57,71.37 192.19,71.37 194.25,71.37 195.87,71.37 197.51,71.36 198.33,71.36 199.97,71.36 202.00,71.36 203.64,71.36 205.26,71.36 206.90,71.36 208.12,71.36 209.76,71.36 211.29,71.36 212.61,71.36 213.41,71.35"/>
<line x1="78" y1="71.35" x2="772" y2="71.35" stroke="#d62728" opacity="0.18" stroke-dasharray="3 4"/>
<polyline fill="none" stroke="#d62728" stroke-width="2.0" points="91.35,71.35 97.02,71.35 100.82,71.35 101.68,71.35 102.40,71.35 102.57,71.35 102.86,71.35 104.41,71.35 104.83,71.34 105.30,71.34 105.67,71.34 106.33,71.34 106.56,71.34 107.15,71.34 107.73,71.35 108.09,71.35 108.24,71.36 108.43,71.36 108.74,71.37 108.95,71.38 109.20,71.40 109.37,71.41 109.65,71.42 109.79,71.43 109.90,71.44 110.07,71.45 110.34,71.47 110.53,71.48 110.68,71.49 110.86,71.50 111.12,71.52 111.28,71.52 111.47,71.53 111.60,71.54 111.81,71.55 112.04,71.55 112.23,71.56 112.57,71.56 112.75,71.56 113.11,71.55 113.41,71.52 113.68,71.50 113.99,71.44 114.31,71.38 114.54,71.32 114.69,71.28 115.05,71.17 115.42,71.05 115.70,70.96 115.95,70.88 116.20,70.80 116.56,70.69 116.83,70.61 117.12,70.52 117.31,70.47 117.59,70.40 117.86,70.33 118.09,70.28 118.32,70.23 118.68,70.15 118.93,70.10 119.23,70.05 119.46,70.02 119.67,69.98 119.94,69.94 120.42,69.88 120.68,69.87 120.95,69.86 121.22,69.88 121.37,69.90 121.85,70.03 122.15,70.19 122.44,70.42 122.78,70.79 123.01,71.12 123.28,71.60 123.74,72.66 123.89,73.07 124.14,73.86 124.39,74.73 124.52,75.20 124.73,76.01 125.05,77.37 125.32,78.66 125.51,79.61 125.76,80.96 126.10,82.84 126.43,84.82 126.52,85.34 126.92,87.81 127.17,89.42 127.31,90.36 127.61,92.27 127.99,94.74 128.30,96.81 128.76,99.85 129.21,102.72 129.69,105.82 130.49,110.78 130.97,113.70 131.22,115.14 131.68,117.75 132.02,119.65 132.82,123.75 133.22,125.77 133.83,128.56 134.39,131.17 134.77,132.69 135.28,134.71 136.05,137.71 136.81,140.43 137.21,141.73 137.78,143.56 137.97,144.13 138.62,146.06 139.42,148.24 139.73,149.04 139.98,149.67 140.40,150.67 140.78,151.52 141.10,152.20 141.20,152.43 141.48,152.99 141.64,153.33 141.87,153.78 142.19,154.38 142.36,154.69 143.43,156.51 143.60,156.77 143.91,157.26 144.50,158.10 145.03,158.81 145.40,159.29 145.93,159.92 146.79,160.85 147.99,162.00 148.77,162.65 149.63,163.30 150.82,164.09 151.75,164.62 152.23,164.88 153.56,165.50 154.00,165.69 154.29,165.81 154.63,165.93 155.45,166.23 156.10,166.45 156.88,166.68 157.30,166.81 157.90,166.97 158.96,167.23 159.69,167.41 159.92,167.46 160.17,167.52 160.38,167.57 160.68,167.63 160.99,167.69 162.11,167.91 162.65,168.01 163.41,168.14 163.72,168.19 164.29,168.28 164.98,168.37 165.89,168.48 167.13,168.62 167.80,168.69 168.64,168.76 169.42,168.82 170.49,168.90 171.33,168.96 172.53,169.03 173.81,169.08 174.88,169.12 176.31,169.18 177.57,169.22 178.98,169.26 180.55,169.30 182.21,169.33 184.23,169.35 186.20,169.38 188.41,169.41 191.10,169.43 194.02,169.46 197.55,169.47 200.37,169.49 204.63,169.50 208.87,169.51 214.53,169.52 220.20,169.53 224.44,169.54 230.11,169.54 235.77,169.55 242.85,169.55 248.52,169.56 254.17,169.56 259.84,169.56 265.52,169.56 271.17,169.57 278.25,169.57 283.92,169.57 289.57,169.57 295.24,169.57 300.90,169.58 307.98,169.58 313.65,169.58 319.32,169.58 324.97,169.58 330.65,169.59 336.30,169.59 343.38,169.59 349.05,169.59 354.70,169.59 360.37,169.59 366.05,169.59 373.13,169.60 378.78,169.60 384.45,169.60 390.10,169.60 395.78,169.60 401.43,169.60 408.51,169.60 414.18,169.61 419.85,169.61 422.67,169.61 428.34,169.61 434.01,169.61 441.07,169.61 446.74,169.61 452.42,169.61 458.07,169.61 463.74,169.61 470.82,169.61 476.47,169.61 482.15,169.62 487.82,169.62 493.47,169.62 499.14,169.62 506.22,169.62 511.87,169.62 514.69,169.64"/>
<line x1="78" y1="266.96" x2="772" y2="266.96" stroke="#2ca02c" opacity="0.18" stroke-dasharray="3 4"/>
<polyline fill="none" stroke="#2ca02c" stroke-width="2.0" points="91.35,266.96 98.49,266.96 98.83,266.96 100.21,266.97 100.49,266.97 100.76,266.97 100.84,266.97 100.93,266.97 101.01,266.97 101.12,266.97 101.20,266.97 101.28,266.97 101.37,266.97 101.54,266.97 101.68,266.97 101.85,266.97 102.08,266.97 102.78,266.97 103.24,266.97 103.59,266.97 104.04,266.96 104.56,266.93 104.81,266.91 105.17,266.88 105.40,266.86 105.57,266.85 105.74,266.83 105.84,266.82 105.95,266.81 106.03,266.81 106.14,266.80 106.24,266.79 106.35,266.78 106.47,266.78 106.58,266.77 106.73,266.76 106.89,266.76 107.10,266.75 107.33,266.75 107.50,266.75 107.69,266.75 107.82,266.76 107.99,266.76 108.15,266.77 108.30,266.79 108.47,266.80 108.62,266.82 108.81,266.86 109.02,266.90 109.16,266.94 109.41,267.01 109.71,267.10 109.96,267.19 110.36,267.34 110.59,267.43 110.78,267.50 111.01,267.58 111.24,267.66 111.37,267.70 111.54,267.75 111.70,267.80 111.89,267.86 112.02,267.89 112.33,267.98 112.54,268.03 112.78,268.08 113.03,268.12 113.20,268.14 113.47,268.14 113.64,268.12 113.99,268.00 114.33,267.71 114.67,267.35 114.92,266.90 115.13,266.52 115.40,265.82 115.65,265.08 115.84,264.46 115.97,263.99 116.10,263.50 116.31,262.59 116.52,261.60 116.77,260.27 116.98,259.06 117.17,257.90 117.29,257.08 117.48,255.81 117.67,254.48 117.88,252.94 118.05,251.68 118.24,250.23 118.47,248.42 118.70,246.60 118.97,244.44 119.27,242.14 119.52,240.19 119.77,238.29 120.00,236.58 120.32,234.30 120.53,232.82 120.84,230.66 121.01,229.55 121.39,227.15 121.77,224.87 122.23,222.32 122.59,220.44 122.99,218.49 123.51,216.08 123.95,214.23 124.73,211.35 125.00,210.37 125.74,208.04 125.91,207.61 126.60,205.82 127.25,204.26 128.41,201.90 128.95,200.91 129.67,199.76 130.40,198.73 131.03,197.95 132.42,196.52 133.58,195.58 133.93,195.32 134.67,194.85 135.51,194.38 136.41,193.95 138.22,193.28 139.40,192.93 140.63,192.64 141.35,192.49 142.17,192.35 143.09,192.20 144.61,192.01 145.15,191.94 145.68,191.88 146.56,191.80 147.00,191.76 147.53,191.72 148.22,191.66 148.58,191.63 148.95,191.60 149.35,191.57 149.54,191.55 149.92,191.53 150.45,191.49 150.78,191.47 151.29,191.44 151.62,191.41 152.42,191.36 152.93,191.34 153.47,191.31 153.95,191.29 154.31,191.27 154.86,191.24 155.55,191.21 156.01,191.18 156.62,191.16 157.23,191.13 157.63,191.12 158.30,191.09 158.96,191.06 159.48,191.04 160.05,191.02 160.68,190.99 162.06,190.94 163.26,190.90 164.46,190.86 165.07,190.84 165.74,190.82 167.82,190.76 169.52,190.71 171.69,190.65 174.38,190.59 176.69,190.53 179.21,190.48 182.49,190.41 187.72,190.30 194.02,190.19 198.58,190.12 205.18,190.03 214.11,189.93 225.26,189.83 231.96,189.77 240.87,189.72 249.80,189.66 258.73,189.61 267.66,189.57 278.82,189.53 287.74,189.50 296.67,189.47 305.60,189.45 314.53,189.43 325.69,189.41 334.62,189.39 343.55,189.38 352.47,189.37 361.40,189.36 370.33,189.35 381.49,189.34 390.42,189.33 399.35,189.32 408.28,189.32 417.21,189.32 428.36,189.31 437.29,189.31 446.22,189.30 455.15,189.30 464.08,189.29 472.99,189.29 484.16,189.29 493.09,189.29 502.00,189.29 510.93,189.29 519.86,189.28 531.01,189.28 539.94,189.28 548.87,189.28 557.80,189.28 566.73,189.28 575.66,189.28 586.82,189.27 595.75,189.27 604.67,189.27 613.60,189.27 622.53,189.27 631.46,189.27 642.62,189.27 651.55,189.27 660.48,189.27 669.40,189.27 678.33,189.27 689.49,189.27 698.42,189.27 707.35,189.27 716.28,189.27 725.21,189.27 734.11,189.27 745.29,189.27 754.22,189.27 758.65,189.27"/>
<line x1="78" y1="266.96" x2="772" y2="266.96" stroke="#9467bd" opacity="0.18" stroke-dasharray="3 4"/>
<polyline fill="none" stroke="#9467bd" stroke-width="2.0" points="91.35,189.26 93.22,189.26 95.11,189.26 97.44,189.26 99.33,189.26 101.12,189.26 101.45,189.26 101.64,189.26 101.83,189.26 102.06,189.26 102.21,189.26 102.40,189.26 102.54,189.26 102.80,189.26 103.07,189.26 103.76,189.26 103.93,189.26 104.01,189.26 104.10,189.26 104.25,189.26 104.44,189.27 104.62,189.27 104.77,189.27 104.98,189.28 105.21,189.28 105.44,189.29 105.74,189.30 105.91,189.31 106.14,189.31 106.41,189.32 106.64,189.33 106.91,189.34 107.12,189.34 107.31,189.35 107.54,189.35 107.71,189.36 107.86,189.36 108.07,189.36 108.20,189.36 108.30,189.36 108.43,189.36 108.55,189.36 108.70,189.35 108.83,189.35 108.97,189.34 109.08,189.33 109.27,189.31 109.41,189.29 109.58,189.26 109.73,189.23 109.86,189.20 109.98,189.17 110.07,189.15 110.19,189.11 110.38,189.05 110.51,189.00 110.68,188.93 110.89,188.84 111.03,188.77 111.26,188.65 111.43,188.55 111.56,188.48 111.79,188.34 111.91,188.26 112.15,188.10 112.29,188.00 112.44,187.90 112.59,187.80 112.80,187.65 112.94,187.56 113.09,187.46 113.20,187.40 113.30,187.35 113.41,187.30 113.60,187.23 113.72,187.20 113.93,187.19 114.12,187.23 114.27,187.30 114.44,187.44 114.58,187.58 114.77,187.84 114.86,187.98 115.07,188.39 115.21,188.74 115.36,189.12 115.57,189.76 115.74,190.35 115.86,190.80 116.01,191.41 116.22,192.32 116.47,193.54 116.68,194.64 117.04,196.67 117.29,198.24 117.57,200.03 117.78,201.48 117.90,202.38 118.32,205.46 118.57,207.39 118.85,209.51 119.14,211.86 119.35,213.56 119.73,216.63 120.02,219.04 120.32,221.46 120.40,222.15 120.61,223.87 120.86,225.93 121.14,228.15 121.37,230.01 121.49,231.01 121.71,232.67 121.89,234.15 122.42,238.13 122.65,239.83 122.86,241.33 123.11,243.09 123.34,244.64 123.53,245.88 123.85,247.85 124.08,249.23 124.29,250.42 124.54,251.78 124.71,252.65 124.96,253.87 125.15,254.72 125.40,255.79 125.78,257.23 126.12,258.35 126.33,258.99 126.68,259.97 126.94,260.57 127.08,260.90 127.48,261.69 127.78,262.20 128.07,262.65 128.41,263.10 128.89,263.65 129.16,263.93 129.50,264.23 129.90,264.55 130.23,264.78 130.47,264.93 130.87,265.15 131.31,265.37 131.71,265.53 132.19,265.70 133.60,266.08 134.52,266.25 136.10,266.46 137.04,266.53 137.69,266.57 138.51,266.62 138.89,266.63 139.23,266.65 139.63,266.67 140.15,266.69 140.63,266.71 141.18,266.72 141.58,266.74 142.04,266.75 142.29,266.76 142.78,266.77 143.45,266.78 143.83,266.79 144.29,266.80 144.50,266.80 144.84,266.80 145.19,266.81 145.59,266.81 145.80,266.82 146.18,266.82 146.54,266.83 146.75,266.83 147.21,266.83 147.74,266.84 148.18,266.84 148.60,266.85 149.08,266.85 149.48,266.85 149.92,266.86 150.40,266.86 150.61,266.86 151.06,266.87 151.48,266.87 151.90,266.87 152.48,266.87 152.90,266.88 153.56,266.88 154.14,266.88 154.71,266.89 155.38,266.89 156.01,266.89 156.71,266.89 157.53,266.90 158.14,266.90 159.19,266.90 160.13,266.90 161.08,266.91 161.75,266.91 162.30,266.91 163.64,266.91 164.56,266.91 165.97,266.92 166.92,266.92 168.33,266.92 170.20,266.92 171.60,266.93 173.96,266.93 175.83,266.93 177.72,266.93 179.59,266.94 181.46,266.94 183.81,266.94 185.70,266.94 187.57,266.94 189.44,266.94 191.33,266.94 193.20,266.95 195.55,266.95 197.42,266.95 199.29,266.95 201.18,266.95 203.05,266.95 204.95,266.95 207.28,266.95 209.17,266.95 211.04,266.95 212.91,266.95 214.80,266.95 217.13,266.95 219.02,266.95 220.89,266.95 222.78,266.96 224.65,266.96 226.52,266.96 228.88,266.96 230.75,266.96 231.67,266.96"/>
<line x1="88" y1="72" x2="110" y2="72" stroke="#1f77b4" stroke-width="2.4"/>
<text x="116" y="76" font-family="Arial, sans-serif" font-size="12">rising #1</text>
<line x1="88" y1="90" x2="110" y2="90" stroke="#d62728" stroke-width="2.4"/>
<text x="116" y="94" font-family="Arial, sans-serif" font-size="12">falling #2</text>
<line x1="88" y1="108" x2="110" y2="108" stroke="#2ca02c" stroke-width="2.4"/>
<text x="116" y="112" font-family="Arial, sans-serif" font-size="12">rising #3</text>
<line x1="88" y1="126" x2="110" y2="126" stroke="#9467bd" stroke-width="2.4"/>
<text x="116" y="130" font-family="Arial, sans-serif" font-size="12">falling #4</text>
<rect x="78" y="342" width="694" height="44" fill="#fffdf7" stroke="#d8c6a1" rx="4"/>
<text x="88" y="359" font-family="Arial, sans-serif" font-size="11" font-weight="700" fill="#4b3b21">Findings needing attention</text>
<rect x="88" y="366" width="7" height="7" fill="#b54708"/>
<text x="102" y="373" font-family="Arial, sans-serif" font-size="11" fill="#333">WARN 5.5.4: Ramp dt versus V-T 20-80% evidence needs review | avg Ramp dt=5.143e-10s, avg V-T 20-80% span=3.873e-...</text>
<text x="425.00" y="322.00" text-anchor="middle" font-family="Arial, sans-serif" font-size="12">Time (s)</text>
<text x="420" y="42" font-family="Arial, sans-serif" font-size="11" fill="#555">solid=V-T voltage, faint horizontal=V_fixture</text>
</svg>