<svg xmlns="http://www.w3.org/2000/svg" width="800" height="450" viewBox="0 0 800 450">
<rect width="100%" height="100%" fill="#ffffff"/>
<text x="78" y="25" font-family="Arial, sans-serif" font-size="16" font-weight="700">nfc_ioc15_swp_slave_3v7 V-T Waveforms</text>
<rect x="78" y="54" width="694" height="230" fill="#fbfbfb" stroke="#c8c8c8"/>
<text transform="translate(18 169.00) rotate(-90)" text-anchor="middle" font-family="Arial, sans-serif" font-size="12">Voltage (V)</text>
<line x1="78.00" y1="54" x2="78.00" y2="284" stroke="#ececec"/>
<text x="78.00" y="302" text-anchor="middle" font-family="Arial, sans-serif" font-size="10">-16n</text>
<line x1="216.80" y1="54" x2="216.80" y2="284" stroke="#ececec"/>
<text x="216.80" y="302" text-anchor="middle" font-family="Arial, sans-serif" font-size="10">150n</text>
<line x1="355.60" y1="54" x2="355.60" y2="284" stroke="#ececec"/>
<text x="355.60" y="302" text-anchor="middle" font-family="Arial, sans-serif" font-size="10">317n</text>
<line x1="494.40" y1="54" x2="494.40" y2="284" stroke="#ececec"/>
<text x="494.40" y="302" text-anchor="middle" font-family="Arial, sans-serif" font-size="10">483n</text>
<line x1="633.20" y1="54" x2="633.20" y2="284" stroke="#ececec"/>
<text x="633.20" y="302" text-anchor="middle" font-family="Arial, sans-serif" font-size="10">650n</text>
<line x1="772.00" y1="54" x2="772.00" y2="284" stroke="#ececec"/>
<text x="772.00" y="302" text-anchor="middle" font-family="Arial, sans-serif" font-size="10">816n</text>
<line x1="78" y1="284.00" x2="772" y2="284.00" stroke="#ececec"/>
<text x="70" y="288.00" text-anchor="end" font-family="Arial, sans-serif" font-size="10">1.7</text>
<line x1="78" y1="226.50" x2="772" y2="226.50" stroke="#ececec"/>
<text x="70" y="230.50" text-anchor="end" font-family="Arial, sans-serif" font-size="10">1.7</text>
<line x1="78" y1="169.00" x2="772" y2="169.00" stroke="#ececec"/>
<text x="70" y="173.00" text-anchor="end" font-family="Arial, sans-serif" font-size="10">1.8</text>
<line x1="78" y1="111.50" x2="772" y2="111.50" stroke="#ececec"/>
<text x="70" y="115.50" text-anchor="end" font-family="Arial, sans-serif" font-size="10">1.8</text>
<line x1="78" y1="54.00" x2="772" y2="54.00" stroke="#ececec"/>
<text x="70" y="58.00" text-anchor="end" font-family="Arial, sans-serif" font-size="10">1.8</text>
<line x1="78" y1="71.19" x2="772" y2="71.19" stroke="#1f77b4" opacity="0.18" stroke-dasharray="3 4"/>
<polyline fill="none" stroke="#1f77b4" stroke-width="2.0" points="91.35,268.00 91.49,267.97 91.68,267.97 91.79,268.04 91.91,268.09 92.01,268.14 92.07,268.14 92.17,268.04 92.21,267.95 92.28,267.76 92.32,267.57 92.38,267.28 92.41,267.00 92.44,266.81 92.50,266.24 92.54,265.69 92.58,265.22 92.59,264.98 92.64,264.29 92.69,263.34 92.72,262.65 92.75,261.89 92.77,261.47 92.81,260.52 92.84,259.71 92.86,259.09 92.89,257.93 92.93,256.67 92.97,255.32 93.01,253.89 93.04,252.37 93.09,250.42 93.11,249.71 93.14,248.22 93.17,246.67 93.20,245.32 93.22,244.51 93.26,242.68 93.30,240.59 93.32,239.33 93.36,237.60 93.39,235.84 93.42,234.04 93.47,231.24 93.51,229.34 93.53,228.13 93.58,225.16 93.62,222.88 93.64,221.03 93.66,219.93 93.69,217.99 93.75,213.88 93.77,212.05 93.80,209.82 93.85,206.16 93.88,203.45 93.92,199.94 93.95,197.80 93.99,194.53 94.02,191.58 94.05,188.61 94.07,187.14 94.09,185.62 94.12,183.01 94.14,180.40 94.17,178.52 94.18,177.03 94.21,174.41 94.25,171.45 94.28,168.53 94.33,163.89 94.37,160.33 94.42,156.77 94.45,154.11 94.52,148.44 94.55,146.11 94.61,141.98 94.66,138.25 94.70,135.38 94.75,132.50 94.77,130.79 94.86,125.09 94.91,122.48 94.95,119.89 95.00,117.07 95.04,115.17 95.06,113.98 95.12,111.11 95.14,110.35 95.18,108.26 95.22,106.72 95.29,103.49 95.35,101.37 95.41,98.93 95.48,96.65 95.50,95.63 95.54,94.58 95.60,92.97 95.66,91.21 95.68,90.76 95.72,89.71 95.75,88.95 95.80,88.05 95.83,87.46 95.86,86.72 95.88,86.39 95.91,85.89 95.92,85.56 95.96,84.73 96.01,83.82 96.07,83.16 96.13,82.35 96.21,81.38 96.24,81.02 96.29,80.41 96.34,79.86 96.38,79.31 96.42,78.98 96.44,78.84 96.48,78.48 96.53,78.03 96.57,77.75 96.61,77.44 96.63,77.27 96.64,77.15 96.68,76.96 96.72,76.77 96.78,76.51 96.81,76.32 96.84,76.20 96.87,76.06 96.90,75.92 96.93,75.77 96.97,75.56 97.01,75.39 97.03,75.28 97.06,75.13 97.12,74.92 97.18,74.73 97.21,74.63 97.26,74.47 97.30,74.35 97.34,74.18 97.39,74.07 97.42,73.99 97.44,73.95 97.46,73.92 97.48,73.88 97.50,73.83 97.54,73.76 97.57,73.71 97.60,73.64 97.63,73.57 97.67,73.50 97.71,73.40 97.76,73.31 97.81,73.26 97.85,73.19 97.91,73.12 97.98,73.02 98.04,72.95 98.12,72.83 98.21,72.74 98.27,72.66 98.41,72.57 98.47,72.52 98.55,72.45 98.60,72.40 98.72,72.31 98.79,72.26 98.87,72.21 98.94,72.19 98.99,72.17 99.05,72.14 99.12,72.09 99.16,72.09 99.25,72.05 99.31,72.02 99.38,71.98 99.45,71.95 99.53,71.90 99.63,71.88 99.66,71.86 99.74,71.86 99.78,71.83 99.81,71.83 99.91,71.79 99.96,71.79 100.01,71.76 100.11,71.74 100.17,71.71 100.27,71.69 100.39,71.67 100.44,71.67 100.50,71.64 100.61,71.62 100.70,71.62 100.76,71.60 100.87,71.57 100.98,71.57 101.11,71.55 101.29,71.52 101.50,71.52 101.64,71.50 101.71,71.50 101.89,71.48 102.06,71.45 102.23,71.45 102.34,71.43 102.62,71.43 102.85,71.41 103.05,71.41 103.17,71.41 103.31,71.38 103.57,71.38 103.79,71.38 103.91,71.36 104.07,71.36 104.29,71.36 104.51,71.36 104.69,71.36 104.80,71.36 104.96,71.36 105.13,71.36 105.23,71.33 105.37,71.33 105.64,71.33 105.74,71.33 105.86,71.33 106.08,71.33 106.25,71.33 106.42,71.33 106.64,71.33 106.81,71.31 106.98,71.31 107.20,71.31 107.42,71.31 107.70,71.31 107.92,71.31 108.03,71.31"/>
<line x1="78" y1="71.19" x2="772" y2="71.19" stroke="#d62728" opacity="0.18" stroke-dasharray="3 4"/>
<polyline fill="none" stroke="#d62728" stroke-width="2.0" points="91.35,71.19 91.61,71.31 93.55,71.29 100.29,71.19 105.36,71.22 105.89,71.22 106.56,71.22 107.96,71.12 109.17,70.93 110.77,70.55 111.23,70.43 112.03,70.24 112.57,70.10 112.97,70.03 113.50,69.93 113.84,69.89 114.30,69.86 114.70,69.91 115.04,69.98 115.37,70.12 115.84,70.48 116.24,71.14 116.51,72.26 116.91,76.49 117.24,82.28 117.71,92.94 118.11,102.73 118.44,110.89 118.84,120.61 119.31,131.77 119.58,138.06 120.04,148.79 120.58,160.55 120.98,169.12 121.38,176.81 121.71,183.25 122.05,188.88 122.58,196.76 123.11,204.67 123.71,212.15 124.25,218.03 124.51,220.98 124.92,224.54 125.52,228.17 125.92,230.62 126.32,233.04 126.78,235.87 127.32,239.10 127.72,241.16 128.05,242.40 128.59,244.39 129.19,246.65 129.52,247.88 130.05,248.95 130.52,249.74 131.05,250.64 131.39,251.21 131.92,252.11 132.46,253.01 133.32,254.46 133.79,255.08 134.26,255.43 134.73,255.79 135.19,256.15 135.59,256.43 136.19,256.91 136.66,257.26 137.33,257.76 137.73,258.07 138.06,258.28 138.60,258.43 139.46,258.69 139.73,258.76 140.33,258.92 140.67,259.02 141.13,259.16 141.93,259.38 142.20,259.45 143.20,259.73 143.53,259.83 143.87,259.92 144.47,260.09 144.74,260.18 145.40,260.37 146.07,260.56 146.40,260.66 146.74,260.73 147.14,260.80 147.41,260.82 147.94,260.90 148.21,260.92 148.61,260.97 149.27,261.06 149.81,261.11 150.21,261.16 150.54,261.20 150.81,261.23 151.21,261.28 151.68,261.35 152.28,261.42 152.81,261.47 153.41,261.56 153.95,261.61 155.08,261.75 156.15,261.87 156.82,261.96 157.48,262.04 157.75,262.06 158.08,262.11 158.95,262.23 159.95,262.34 160.49,262.39 161.15,262.49 161.89,262.56 162.82,262.68 163.62,262.77 164.29,262.87 164.56,262.87 164.89,262.89 165.42,262.94 165.89,262.96 166.23,262.99 166.69,263.01 167.03,263.03 167.36,263.06 168.16,263.10 168.96,263.15 169.30,263.18 169.70,263.20 170.43,263.22 171.56,263.29 172.10,263.34 173.23,263.41 174.37,263.46 175.03,263.51 176.77,263.63 178.37,263.72 180.84,263.86 182.84,263.98 184.85,264.10 186.38,264.20 187.72,264.27 189.32,264.36 189.85,264.41 192.05,264.53 194.26,264.67 195.52,264.74 198.46,264.93 207.40,265.19 212.88,265.31 216.75,265.41 219.08,265.48 223.49,265.57 225.69,265.64 227.22,265.67 229.29,265.74 233.03,265.81 234.16,265.86 235.83,265.88 238.64,265.95 240.90,266.02 249.31,266.24 252.12,266.29 255.59,266.38 260.79,266.52 264.53,266.59 267.67,266.69 269.33,266.71 272.14,266.76 275.61,266.78 280.15,266.81 285.55,266.83 290.02,266.88 295.03,266.90 300.30,266.93 303.37,266.95 305.64,266.97 309.91,267.00 310.98,267.00 311.45,267.02 314.65,267.02 321.26,267.07 323.46,267.09 328.06,267.12 332.54,267.14 336.87,267.19 339.88,267.21 348.02,267.26 351.02,267.28 358.30,267.33 362.43,267.35 370.38,267.40 379.25,267.45 384.19,267.50 390.20,267.54 395.13,267.57 397.40,267.59 402.61,267.62 412.75,267.66 418.63,267.66 423.90,267.69 430.64,267.69 439.52,267.69 448.46,267.71 457.40,267.71 466.34,267.73 475.29,267.73 484.16,267.73 490.90,267.76 498.84,267.76 504.25,267.76 513.19,267.78 522.14,267.78 531.08,267.78 542.22,267.81 551.17,267.81 560.04,267.83 568.99,267.83 577.93,267.83 586.87,267.85 595.81,267.85 604.69,267.85 613.63,267.88 622.58,267.88 631.52,267.90 640.40,267.90 651.61,267.90 656.08,267.92 664.95,267.92 673.90,267.92 680.57,267.95 691.78,267.95 700.66,267.95 709.60,267.95 716.34,267.97 725.22,267.97 734.16,267.97 743.10,267.97 752.05,267.97 758.65,267.97"/>
<line x1="88" y1="72" x2="110" y2="72" stroke="#1f77b4" stroke-width="2.4"/>
<text x="116" y="76" font-family="Arial, sans-serif" font-size="12">rising #1</text>
<line x1="88" y1="90" x2="110" y2="90" stroke="#d62728" stroke-width="2.4"/>
<text x="116" y="94" font-family="Arial, sans-serif" font-size="12">falling #2</text>
<text x="425.00" y="322.00" text-anchor="middle" font-family="Arial, sans-serif" font-size="12">Time (s)</text>
<text x="420" y="42" font-family="Arial, sans-serif" font-size="11" fill="#555">solid=V-T voltage, faint horizontal=V_fixture</text>
</svg>