<svg xmlns="http://www.w3.org/2000/svg" width="800" height="450" viewBox="0 0 800 450">
<rect width="100%" height="100%" fill="#ffffff"/>
<text x="78" y="25" font-family="Arial, sans-serif" font-size="16" font-weight="700">E34_GPIO_I2CSCLIN_1V1_10_ISOSW V-T Waveforms</text>
<rect x="78" y="54" width="694" height="230" fill="#fbfbfb" stroke="#c8c8c8"/>
<text transform="translate(18 169.00) rotate(-90)" text-anchor="middle" font-family="Arial, sans-serif" font-size="12">Voltage (V)</text>
<line x1="78.00" y1="54" x2="78.00" y2="284" stroke="#ececec"/>
<text x="78.00" y="302" text-anchor="middle" font-family="Arial, sans-serif" font-size="10">-435p</text>
<line x1="216.80" y1="54" x2="216.80" y2="284" stroke="#ececec"/>
<text x="216.80" y="302" text-anchor="middle" font-family="Arial, sans-serif" font-size="10">4.09n</text>
<line x1="355.60" y1="54" x2="355.60" y2="284" stroke="#ececec"/>
<text x="355.60" y="302" text-anchor="middle" font-family="Arial, sans-serif" font-size="10">8.61n</text>
<line x1="494.40" y1="54" x2="494.40" y2="284" stroke="#ececec"/>
<text x="494.40" y="302" text-anchor="middle" font-family="Arial, sans-serif" font-size="10">13.1n</text>
<line x1="633.20" y1="54" x2="633.20" y2="284" stroke="#ececec"/>
<text x="633.20" y="302" text-anchor="middle" font-family="Arial, sans-serif" font-size="10">17.7n</text>
<line x1="772.00" y1="54" x2="772.00" y2="284" stroke="#ececec"/>
<text x="772.00" y="302" text-anchor="middle" font-family="Arial, sans-serif" font-size="10">22.2n</text>
<line x1="78" y1="284.00" x2="772" y2="284.00" stroke="#ececec"/>
<text x="70" y="288.00" text-anchor="end" font-family="Arial, sans-serif" font-size="10">-0.0964</text>
<line x1="78" y1="226.50" x2="772" y2="226.50" stroke="#ececec"/>
<text x="70" y="230.50" text-anchor="end" font-family="Arial, sans-serif" font-size="10">0.226</text>
<line x1="78" y1="169.00" x2="772" y2="169.00" stroke="#ececec"/>
<text x="70" y="173.00" text-anchor="end" font-family="Arial, sans-serif" font-size="10">0.549</text>
<line x1="78" y1="111.50" x2="772" y2="111.50" stroke="#ececec"/>
<text x="70" y="115.50" text-anchor="end" font-family="Arial, sans-serif" font-size="10">0.871</text>
<line x1="78" y1="54.00" x2="772" y2="54.00" stroke="#ececec"/>
<text x="70" y="58.00" text-anchor="end" font-family="Arial, sans-serif" font-size="10">1.2</text>
<line x1="78" y1="70.73" x2="772" y2="70.73" stroke="#1f77b4" opacity="0.18" stroke-dasharray="3 4"/>
<polyline fill="none" stroke="#1f77b4" stroke-width="2.0" points="91.35,117.83 97.55,117.83 103.74,117.83 111.48,117.83 117.68,117.83 123.84,117.83 130.04,117.83 136.24,117.83 142.44,117.83 150.17,117.83 156.37,117.83 162.54,117.83 168.74,117.83 174.94,117.83 182.67,117.83 188.87,117.83 193.51,117.83 196.39,117.83 197.22,117.83 197.99,117.84 198.54,117.84 198.88,117.84 199.52,117.84 199.86,117.84 200.23,117.84 200.81,117.84 201.42,117.84 201.73,117.84 202.19,117.84 202.59,117.84 202.84,117.84 203.42,117.84 203.85,117.84 204.34,117.84 204.86,117.84 205.35,117.84 205.75,117.84 206.27,117.84 206.92,117.84 207.35,117.84 207.65,117.84 208.14,117.84 208.79,117.84 209.10,117.84 209.68,117.84 210.26,117.84 210.57,117.84 210.81,117.84 211.27,117.84 212.07,117.84 212.41,117.84 213.02,117.84 213.51,117.84 214.22,117.84 214.44,117.84 214.96,117.84 216.25,117.84 216.74,117.84 217.17,117.85 218.85,117.85 220.33,117.85 222.29,117.85 222.63,117.85 224.47,117.85 225.88,117.85 226.37,117.85 229.10,117.85 231.01,117.84 231.84,117.84 232.39,117.84 233.43,117.83 235.58,117.83 238.22,117.81 239.75,117.81 240.52,117.80 241.20,117.80 241.96,117.79 242.30,117.79 242.61,117.79 243.07,117.79 243.31,117.78 244.17,117.78 244.60,117.77 245.18,117.77 246.63,117.76 248.10,117.75 249.97,117.73 252.33,117.69 254.70,117.66 256.97,117.62 258.75,117.61 259.27,117.61 260.13,117.62 260.47,117.63 262.15,117.70 263.35,117.79 264.40,117.91 264.67,117.95 265.53,118.09 268.94,118.89 270.90,119.52 274.00,120.53 275.75,120.88 277.10,120.79 278.05,120.40 278.76,119.89 279.34,119.31 280.20,118.18 280.94,116.97 281.73,115.40 282.19,114.40 282.84,112.88 283.42,111.41 284.00,109.86 284.83,107.54 285.42,105.87 285.94,104.36 286.46,102.83 287.17,100.79 287.90,98.70 288.70,96.52 289.34,94.83 289.96,93.31 290.60,91.79 291.52,89.77 292.26,88.28 292.66,87.52 293.33,86.29 294.13,84.92 294.96,83.59 295.54,82.71 296.19,81.78 297.23,80.37 297.72,79.76 298.58,78.76 299.56,77.76 300.39,77.01 301.25,76.34 301.77,75.98 302.66,75.45 303.03,75.25 303.89,74.84 305.30,74.32 306.10,74.07 308.06,73.61 310.09,73.25 311.07,73.10 311.41,73.05 312.70,72.87 316.32,72.44 316.84,72.39 317.21,72.35 317.67,72.31 318.50,72.25 319.05,72.21 319.45,72.18 322.03,72.04 324.39,71.96 328.20,71.87 331.02,71.83 332.28,71.82 335.93,71.80 339.03,71.77 342.13,71.72 347.34,71.62 349.86,71.56 351.43,71.53 352.71,71.50 353.05,71.49 353.73,71.48 357.59,71.40 358.85,71.38 359.96,71.36 360.29,71.35 361.61,71.33 362.47,71.32 365.45,71.27 365.76,71.26 367.32,71.24 369.10,71.21 371.53,71.17 374.44,71.13 376.07,71.10 379.20,71.06 380.06,71.05 382.36,71.02 385.46,70.99 390.61,70.94 394.76,70.91 399.39,70.88 403.07,70.86 407.12,70.84 411.76,70.82 415.35,70.81 417.96,70.80 420.63,70.79 421.92,70.79 423.42,70.79 425.02,70.78 426.06,70.78 427.26,70.78 428.21,70.78 429.34,70.78 430.45,70.78 431.52,70.77 432.35,70.77 433.42,70.77 434.25,70.77 435.08,70.77 436.52,70.77 437.75,70.77 438.73,70.77 439.75,70.76 441.19,70.76 442.54,70.76 443.92,70.76 445.42,70.76 447.11,70.76 448.92,70.76 450.46,70.76 453.56,70.75 455.55,70.75 459.29,70.75 462.85,70.75 466.47,70.75 470.59,70.75 476.79,70.75 481.42,70.74 487.62,70.74 493.82,70.74 500.02,70.74 507.75,70.74 513.95,70.74 520.12,70.74 525.12,70.74 530.95,70.74 537.15,70.74 544.88,70.74 551.08,70.74 554.15,70.74"/>
<line x1="78" y1="70.73" x2="772" y2="70.73" stroke="#d62728" opacity="0.18" stroke-dasharray="3 4"/>
<polyline fill="none" stroke="#d62728" stroke-width="2.0" points="91.35,70.73 100.28,70.73 109.21,70.73 120.35,70.73 129.28,70.73 138.21,70.73 145.33,70.73 153.83,70.73 162.76,70.73 173.93,70.73 180.62,70.73 189.55,70.73 191.79,70.73 195.29,70.73 198.26,70.73 200.41,70.73 200.99,70.73 203.51,70.73 204.58,70.73 205.41,70.73 206.49,70.73 207.71,70.73 209.19,70.73 209.89,70.73 211.86,70.73 214.56,70.73 216.06,70.73 218.58,70.73 220.79,70.73 222.51,70.73 222.63,70.73 222.81,70.73 223.06,70.73 224.56,70.73 225.39,70.73 226.37,70.73 227.48,70.73 228.21,70.73 229.96,70.73 231.07,70.73 231.99,70.73 233.31,70.73 234.20,70.73 235.55,70.73 236.01,70.73 236.59,70.73 237.36,70.73 238.68,70.73 238.89,70.73 239.45,70.73 239.72,70.73 240.95,70.73 241.93,70.73 242.33,70.73 242.79,70.73 243.68,70.73 245.18,70.73 246.20,70.73 246.90,70.73 247.42,70.73 247.70,70.73 248.62,70.73 249.36,70.73 250.28,70.73 252.06,70.73 253.87,70.73 255.28,70.73 256.72,70.73 258.75,70.73 259.79,70.73 262.06,70.73 263.20,70.74 264.52,70.74 266.05,70.74 266.45,70.74 268.54,70.76 271.15,70.77 272.90,70.78 274.71,70.80 276.61,70.81 278.82,70.83 281.49,70.84 282.75,70.81 283.30,70.80 285.26,70.69 286.00,70.64 286.43,70.61 287.13,70.55 287.38,70.53 287.75,70.50 287.96,70.48 288.15,70.47 288.64,70.43 288.91,70.40 289.41,70.36 289.65,70.34 290.14,70.30 290.33,70.28 291.15,70.21 291.58,70.18 292.23,70.13 294.25,70.00 295.88,69.93 298.92,69.86 303.37,69.89 304.57,69.91 305.06,69.92 305.98,69.93 309.69,69.97 312.30,69.99 316.13,70.03 320.65,70.10 321.63,70.13 325.22,70.31 325.71,70.35 326.29,70.40 326.72,70.44 327.49,70.52 328.53,70.64 329.67,70.80 332.37,71.30 334.61,71.87 338.75,73.22 340.04,73.69 341.21,74.14 342.53,74.66 344.89,75.61 346.09,76.10 347.41,76.64 348.02,76.90 349.83,77.66 351.18,78.25 351.43,78.35 351.73,78.49 352.13,78.67 353.14,79.13 354.03,79.54 354.71,79.88 354.83,79.94 355.02,80.03 355.14,80.09 355.78,80.41 356.52,80.78 356.73,80.89 357.29,81.20 358.64,81.94 359.22,82.26 360.17,82.81 362.57,84.25 363.52,84.86 364.81,85.69 365.67,86.25 366.00,86.47 366.40,86.74 366.95,87.12 367.60,87.55 367.91,87.76 368.15,87.92 368.40,88.09 370.33,89.41 372.57,90.93 374.75,92.39 376.96,93.84 379.23,95.28 381.59,96.71 384.11,98.16 386.75,99.59 389.63,101.04 392.61,102.47 394.88,103.44 398.26,104.86 401.57,105.96 405.50,107.26 408.57,108.22 412.74,109.38 417.19,110.43 421.67,111.38 426.12,112.20 430.60,112.89 435.05,113.51 441.74,114.25 448.46,114.80 455.15,115.31 461.84,115.71 468.53,116.03 476.82,116.38 481.94,116.54 490.87,116.77 495.63,116.86 502.01,116.98 506.95,117.07 511.19,117.14 517.05,117.21 520.79,117.25 524.47,117.30 528.80,117.35 533.04,117.37 536.07,117.39 540.31,117.42 544.30,117.44 546.72,117.45 550.31,117.48 553.35,117.49 557.07,117.52 560.04,117.53 562.59,117.55 565.93,117.57 568.97,117.58 571.76,117.59 575.66,117.60 580.14,117.62 583.09,117.63 586.83,117.64 590.85,117.65 595.52,117.67 599.08,117.68 602.64,117.68 606.90,117.69 611.38,117.69 615.83,117.70 622.55,117.71 627.00,117.72 633.45,117.73 638.17,117.74 644.86,117.75 650.23,117.75 658.24,117.76 664.93,117.76 671.65,117.77 678.34,117.77 687.27,117.78 696.20,117.78 702.89,117.79 711.82,117.79 718.51,117.79 727.44,117.79 736.37,117.80 745.30,117.80 754.23,117.80 758.65,117.82"/>
<line x1="78" y1="266.82" x2="772" y2="266.82" stroke="#2ca02c" opacity="0.18" stroke-dasharray="3 4"/>
<polyline fill="none" stroke="#2ca02c" stroke-width="2.0" points="91.35,266.82 99.97,266.82 108.59,266.82 119.36,266.82 127.99,266.82 136.61,266.82 145.26,266.82 153.89,266.82 162.51,266.82 173.28,266.82 181.91,266.82 190.53,266.82 194.76,266.82 195.99,266.82 196.91,266.82 197.19,266.82 197.93,266.82 198.48,266.82 199.15,266.82 200.75,266.82 201.79,266.82 203.48,266.82 204.58,266.82 205.41,266.82 206.39,266.82 207.04,266.82 208.05,266.82 208.70,266.82 209.31,266.82 209.89,266.82 210.51,266.82 211.83,266.82 212.44,266.82 213.24,266.82 214.25,266.82 215.02,266.82 216.00,266.82 217.20,266.82 218.24,266.82 220.73,266.82 222.08,266.82 223.61,266.82 225.02,266.82 225.76,266.82 227.05,266.82 227.75,266.82 228.95,266.82 230.18,266.82 231.19,266.82 231.87,266.82 233.31,266.82 234.17,266.82 235.64,266.82 237.08,266.82 238.00,266.82 239.11,266.82 240.12,266.82 240.95,266.82 242.30,266.82 243.53,266.82 244.45,266.82 245.12,266.82 246.57,266.82 247.58,266.82 248.74,266.82 249.97,266.82 250.89,266.82 252.46,266.82 253.07,266.82 254.67,266.82 256.05,266.82 257.52,266.82 258.69,266.82 260.16,266.82 261.66,266.81 263.84,266.80 265.90,266.79 268.14,266.78 269.21,266.77 272.07,266.77 272.25,266.77 274.52,266.80 275.23,266.81 276.73,266.88 277.01,266.90 278.60,267.01 280.57,267.17 282.78,267.34 285.26,267.50 287.04,267.60 288.06,267.64 288.76,267.67 290.02,267.70 291.86,267.67 293.18,267.62 293.98,267.60 295.24,267.60 296.49,267.63 298.18,267.71 298.73,267.74 301.10,267.93 302.33,268.01 304.23,268.10 306.19,268.14 307.24,268.14 308.98,268.11 311.22,268.03 313.43,267.92 315.58,267.80 318.44,267.67 322.18,267.55 324.21,267.48 325.92,267.39 328.07,267.18 330.37,266.75 331.69,266.40 332.31,266.20 333.69,265.71 334.98,265.21 336.45,264.58 338.72,263.54 340.29,262.81 342.40,261.83 343.63,261.28 345.63,260.38 347.34,259.60 349.52,258.58 351.67,257.48 352.56,257.00 354.40,255.96 356.61,254.60 358.70,253.21 359.53,252.63 361.77,251.03 363.03,250.10 364.50,249.01 366.13,247.78 368.70,245.85 370.67,244.39 371.65,243.68 373.80,242.17 375.55,240.93 377.66,239.56 379.72,238.22 380.73,237.61 383.34,236.15 385.95,234.69 386.84,234.22 390.89,232.28 393.22,231.31 397.21,229.86 399.88,228.89 401.85,228.23 406.17,226.95 410.16,225.98 412.62,225.41 414.73,225.01 416.91,224.67 419.09,224.34 424.16,223.56 427.99,223.07 434.01,222.41 436.34,222.22 439.16,222.03 443.37,221.74 446.31,221.54 448.55,221.39 449.26,221.36 451.44,221.26 455.73,221.08 462.02,220.80 465.16,220.72 468.47,220.63 471.75,220.54 475.50,220.44 482.92,220.30 488.97,220.20 494.55,220.15 497.29,220.13 501.03,220.09 503.67,220.07 506.06,220.05 509.31,220.02 511.80,220.00 514.01,219.98 516.10,219.96 518.55,219.95 522.57,219.93 526.29,219.91 529.60,219.90 533.34,219.88 536.32,219.86 537.98,219.86 541.94,219.85 544.15,219.85 547.00,219.84 550.62,219.83 552.19,219.83 555.78,219.82 557.07,219.82 560.32,219.81 562.50,219.80 565.69,219.80 568.94,219.79 572.16,219.78 575.45,219.78 578.06,219.77 579.93,219.77 582.94,219.77 586.37,219.76 588.34,219.76 591.59,219.76 594.11,219.75 596.47,219.75 601.10,219.75 604.51,219.74 606.66,219.74 610.98,219.73 614.30,219.73 617.21,219.73 621.79,219.73 625.81,219.73 629.52,219.73 635.56,219.72 639.00,219.72 645.48,219.72 652.38,219.72 658.43,219.71 662.66,219.71 669.20,219.71 675.67,219.71 679.97,219.70 688.59,219.70 695.07,219.70 701.94,219.70 710.17,219.70 718.79,219.69 727.41,219.69 735.18,219.69 736.01,219.68"/>
<line x1="78" y1="266.82" x2="772" y2="266.82" stroke="#9467bd" opacity="0.18" stroke-dasharray="3 4"/>
<polyline fill="none" stroke="#9467bd" stroke-width="2.0" points="91.35,219.67 97.42,219.67 103.50,219.67 111.08,219.67 117.15,219.67 123.23,219.67 129.31,219.67 135.38,219.67 141.46,219.67 149.04,219.67 155.12,219.67 161.19,219.67 167.27,219.67 173.34,219.67 180.95,219.67 187.03,219.67 190.65,219.67 191.57,219.67 192.34,219.67 193.02,219.67 193.97,219.67 194.61,219.67 195.04,219.67 195.84,219.67 196.73,219.67 197.50,219.67 197.99,219.67 198.51,219.67 199.03,219.67 199.52,219.67 200.07,219.67 200.90,219.67 201.76,219.67 202.19,219.67 202.74,219.67 203.39,219.67 203.94,219.67 204.71,219.67 205.26,219.67 205.57,219.67 206.21,219.67 206.64,219.67 207.44,219.67 207.96,219.67 208.33,219.67 209.00,219.67 209.65,219.67 210.02,219.67 210.63,219.67 211.31,219.67 211.89,219.67 212.47,219.67 212.90,219.67 213.70,219.67 214.34,219.67 214.99,219.67 215.63,219.67 216.12,219.67 216.61,219.67 217.63,219.67 218.42,219.67 218.98,219.67 219.84,219.67 220.48,219.67 221.46,219.67 222.14,219.67 223.00,219.67 223.79,219.67 225.21,219.67 226.25,219.66 227.39,219.66 228.31,219.66 229.56,219.66 230.95,219.66 231.96,219.66 232.88,219.66 233.86,219.66 234.97,219.66 236.44,219.66 237.57,219.66 238.95,219.67 240.83,219.68 241.90,219.68 243.47,219.69 244.85,219.70 247.27,219.71 248.77,219.71 252.30,219.72 254.51,219.73 258.38,219.75 261.42,219.76 265.99,219.75 267.95,219.69 269.12,219.63 270.53,219.54 272.07,219.39 273.51,219.21 274.86,219.00 276.49,218.70 276.98,218.60 278.36,218.30 279.28,218.06 280.17,217.82 281.18,217.53 282.69,217.09 284.22,216.74 285.39,216.64 286.00,216.68 287.26,216.97 288.12,217.33 288.76,217.72 289.59,218.34 290.05,218.74 290.66,219.35 291.68,220.51 292.35,221.39 293.00,222.29 293.76,223.44 294.53,224.66 295.14,225.68 296.03,227.20 296.86,228.64 297.75,230.22 298.58,231.69 299.16,232.72 299.75,233.75 300.58,235.19 301.22,236.29 302.02,237.62 302.42,238.27 303.34,239.72 304.32,241.21 305.30,242.64 305.98,243.59 306.59,244.42 307.24,245.28 308.43,246.77 309.32,247.83 310.33,248.98 311.53,250.24 312.05,250.77 313.40,252.06 314.78,253.26 316.04,254.26 317.42,255.28 318.96,256.29 319.88,256.85 321.29,257.63 323.68,258.77 324.94,259.29 326.72,259.97 328.26,260.52 329.76,261.04 332.61,261.96 335.38,262.80 337.37,263.37 339.03,263.80 341.15,264.31 343.45,264.78 346.45,265.28 348.51,265.55 350.26,265.72 352.53,265.90 355.45,266.06 359.62,266.19 364.68,266.29 369.26,266.36 375.33,266.46 381.41,266.54 387.48,266.60 393.56,266.65 396.57,266.67 400.53,266.69 404.18,266.71 408.72,266.73 412.00,266.74 416.33,266.75 417.74,266.75 419.37,266.76 420.66,266.76 422.41,266.77 423.79,266.77 425.44,266.77 426.76,266.77 427.78,266.77 428.82,266.78 429.99,266.78 430.97,266.78 431.95,266.78 433.02,266.78 434.04,266.78 435.02,266.78 436.43,266.79 437.60,266.79 438.70,266.79 440.02,266.79 441.37,266.79 442.72,266.79 443.86,266.79 445.18,266.79 446.44,266.80 447.42,266.80 448.22,266.80 449.72,266.80 451.25,266.80 452.27,266.80 453.65,266.80 454.97,266.80 456.01,266.80 457.36,266.80 458.83,266.80 460.37,266.80 462.42,266.81 463.53,266.81 465.28,266.81 467.95,266.81 469.48,266.81 471.54,266.81 474.09,266.81 476.94,266.81 479.30,266.81 481.70,266.81 484.21,266.81 486.18,266.81 488.85,266.81 491.39,266.81 496.76,266.81 499.83,266.81 502.87,266.81 505.91,266.81 509.04,266.81 513.52,266.81 516.56,266.81 519.78,266.81 523.46,266.82 527.18,266.82 531.29,266.82 536.29,266.82 542.37,266.82 545.37,266.82"/>
<line x1="88" y1="72" x2="110" y2="72" stroke="#1f77b4" stroke-width="2.4"/>
<text x="116" y="76" font-family="Arial, sans-serif" font-size="12">rising #1</text>
<line x1="88" y1="90" x2="110" y2="90" stroke="#d62728" stroke-width="2.4"/>
<text x="116" y="94" font-family="Arial, sans-serif" font-size="12">falling #2</text>
<line x1="88" y1="108" x2="110" y2="108" stroke="#2ca02c" stroke-width="2.4"/>
<text x="116" y="112" font-family="Arial, sans-serif" font-size="12">rising #3</text>
<line x1="88" y1="126" x2="110" y2="126" stroke="#9467bd" stroke-width="2.4"/>
<text x="116" y="130" font-family="Arial, sans-serif" font-size="12">falling #4</text>
<rect x="78" y="342" width="694" height="44" fill="#fffdf7" stroke="#d8c6a1" rx="4"/>
<text x="88" y="359" font-family="Arial, sans-serif" font-size="11" font-weight="700" fill="#4b3b21">Findings needing attention</text>
<rect x="88" y="366" width="7" height="7" fill="#b54708"/>
<text x="102" y="373" font-family="Arial, sans-serif" font-size="11" fill="#333">WARN 5.5.4: Ramp dt versus V-T 20-80% evidence needs review | avg Ramp dt=1.652e-09s, avg V-T 20-80% span=1.124e-...</text>
<text x="425.00" y="322.00" text-anchor="middle" font-family="Arial, sans-serif" font-size="12">Time (s)</text>
<text x="420" y="42" font-family="Arial, sans-serif" font-size="11" fill="#555">solid=V-T voltage, faint horizontal=V_fixture</text>
</svg>