<svg xmlns="http://www.w3.org/2000/svg" width="800" height="450" viewBox="0 0 800 450">
<rect width="100%" height="100%" fill="#ffffff"/>
<text x="78" y="25" font-family="Arial, sans-serif" font-size="16" font-weight="700">E34_GPIO_COMBO_1V2 V-T Waveforms</text>
<rect x="78" y="54" width="694" height="230" fill="#fbfbfb" stroke="#c8c8c8"/>
<text transform="translate(18 169.00) rotate(-90)" text-anchor="middle" font-family="Arial, sans-serif" font-size="12">Voltage (V)</text>
<line x1="78.00" y1="54" x2="78.00" y2="284" stroke="#ececec"/>
<text x="78.00" y="302" text-anchor="middle" font-family="Arial, sans-serif" font-size="10">-172p</text>
<line x1="216.80" y1="54" x2="216.80" y2="284" stroke="#ececec"/>
<text x="216.80" y="302" text-anchor="middle" font-family="Arial, sans-serif" font-size="10">1.61n</text>
<line x1="355.60" y1="54" x2="355.60" y2="284" stroke="#ececec"/>
<text x="355.60" y="302" text-anchor="middle" font-family="Arial, sans-serif" font-size="10">3.4n</text>
<line x1="494.40" y1="54" x2="494.40" y2="284" stroke="#ececec"/>
<text x="494.40" y="302" text-anchor="middle" font-family="Arial, sans-serif" font-size="10">5.18n</text>
<line x1="633.20" y1="54" x2="633.20" y2="284" stroke="#ececec"/>
<text x="633.20" y="302" text-anchor="middle" font-family="Arial, sans-serif" font-size="10">6.97n</text>
<line x1="772.00" y1="54" x2="772.00" y2="284" stroke="#ececec"/>
<text x="772.00" y="302" text-anchor="middle" font-family="Arial, sans-serif" font-size="10">8.75n</text>
<line x1="78" y1="284.00" x2="772" y2="284.00" stroke="#ececec"/>
<text x="70" y="288.00" text-anchor="end" font-family="Arial, sans-serif" font-size="10">-0.0994</text>
<line x1="78" y1="226.50" x2="772" y2="226.50" stroke="#ececec"/>
<text x="70" y="230.50" text-anchor="end" font-family="Arial, sans-serif" font-size="10">0.25</text>
<line x1="78" y1="169.00" x2="772" y2="169.00" stroke="#ececec"/>
<text x="70" y="173.00" text-anchor="end" font-family="Arial, sans-serif" font-size="10">0.6</text>
<line x1="78" y1="111.50" x2="772" y2="111.50" stroke="#ececec"/>
<text x="70" y="115.50" text-anchor="end" font-family="Arial, sans-serif" font-size="10">0.95</text>
<line x1="78" y1="54.00" x2="772" y2="54.00" stroke="#ececec"/>
<text x="70" y="58.00" text-anchor="end" font-family="Arial, sans-serif" font-size="10">1.3</text>
<line x1="78" y1="70.45" x2="772" y2="70.45" stroke="#1f77b4" opacity="0.18" stroke-dasharray="3 4"/>
<polyline fill="none" stroke="#1f77b4" stroke-width="2.0" points="91.35,85.45 93.29,85.45 94.85,85.45 97.57,85.45 101.07,85.45 104.18,85.45 110.79,85.45 114.68,85.45 120.51,85.45 124.40,85.45 128.29,85.45 132.18,85.45 134.51,85.45 136.07,85.45 138.01,85.45 140.73,85.45 142.29,85.45 145.01,85.45 146.96,85.45 150.45,85.45 152.40,85.45 153.95,85.45 155.90,85.45 159.40,85.45 161.34,85.45 163.29,85.44 165.23,85.44 166.79,85.44 168.34,85.43 170.29,85.43 171.84,85.43 173.79,85.43 175.34,85.44 176.90,85.44 178.45,85.45 180.01,85.45 181.56,85.45 183.51,85.46 185.06,85.46 186.62,85.46 188.18,85.46 189.73,85.46 191.68,85.45 193.23,85.45 194.79,85.45 196.34,85.45 197.90,85.45 199.45,85.45 201.40,85.45 202.95,85.45 205.29,85.45 206.84,85.45 208.79,85.45 210.73,85.45 212.29,85.45 214.23,85.45 215.79,85.45 217.73,85.45 219.29,85.45 221.23,85.45 222.79,85.45 224.73,85.45 226.29,85.45 227.84,85.44 229.79,85.44 231.34,85.43 232.90,85.43 234.45,85.42 236.40,85.42 237.95,85.43 240.28,85.45 241.84,85.48 243.40,85.51 245.34,85.58 246.90,85.63 248.45,85.70 250.40,85.80 251.95,85.88 253.51,85.96 255.84,86.06 257.78,86.10 259.73,86.04 261.28,85.87 262.84,85.50 264.40,84.89 265.95,84.00 267.51,82.86 269.45,81.28 271.01,80.03 272.56,78.87 274.12,77.83 275.67,76.92 277.62,75.95 279.17,75.29 280.73,74.71 282.28,74.22 283.84,73.79 285.39,73.43 287.34,73.05 288.89,72.80 290.45,72.58 292.01,72.40 293.95,72.21 295.89,72.05 297.45,71.95 299.39,71.84 300.95,71.77 302.50,71.70 304.06,71.64 306.78,71.55 308.34,71.50 309.89,71.45 311.84,71.39 313.78,71.33 316.89,71.24 319.62,71.17 321.56,71.12 323.12,71.09 324.67,71.05 326.23,71.02 328.17,70.97 329.73,70.94 331.28,70.91 332.84,70.88 334.39,70.85 336.34,70.82 339.06,70.77 340.61,70.75 343.73,70.71 345.67,70.69 347.23,70.67 349.17,70.65 351.50,70.63 353.84,70.61 355.39,70.60 356.95,70.60 358.89,70.59 361.22,70.58 363.56,70.57 366.28,70.56 369.00,70.55 370.56,70.54 372.50,70.54 374.06,70.54 375.61,70.53 377.17,70.53 378.72,70.53 380.28,70.52 383.00,70.52 385.33,70.52 387.28,70.51 389.61,70.51 391.17,70.51 395.45,70.50 398.56,70.50 402.06,70.50 404.00,70.50 407.50,70.50 410.22,70.49 413.33,70.49 416.06,70.49 418.39,70.49 421.50,70.49 424.22,70.49 426.94,70.48 431.22,70.48 433.56,70.48 435.11,70.48 436.67,70.48 438.22,70.48 440.17,70.48 441.72,70.48 443.28,70.48 446.00,70.48 447.55,70.48 449.11,70.48 452.61,70.48 454.55,70.48 456.50,70.48 458.05,70.48 459.61,70.48 462.33,70.47 463.89,70.47 465.44,70.47 467.39,70.47 468.94,70.47 471.66,70.47 473.61,70.47 475.55,70.47 477.89,70.47 479.44,70.47 481.39,70.47 483.33,70.47 484.89,70.47 486.83,70.47 488.39,70.47 489.94,70.47 491.50,70.47 494.22,70.47 495.78,70.47 498.11,70.47 499.66,70.47 501.61,70.47 503.55,70.47 506.66,70.47 508.22,70.47 510.16,70.47 511.72,70.47 513.66,70.47 516.00,70.47 517.55,70.47 519.11,70.47 522.22,70.46 524.55,70.46 526.50,70.46 528.05,70.46 529.61,70.46 531.16,70.46 533.11,70.46 534.66,70.46 536.61,70.46 540.11,70.46 541.66,70.46 543.22,70.46 544.77,70.46 547.11,70.46 549.44,70.46 551.38,70.46 553.72,70.46 555.27,70.46 556.83,70.46 558.77,70.46 560.33,70.46 561.88,70.46 563.83,70.46 566.16,70.46 567.72,70.46 569.66,70.46 571.22,70.46 572.77,70.45"/>
<line x1="78" y1="70.45" x2="772" y2="70.45" stroke="#d62728" opacity="0.18" stroke-dasharray="3 4"/>
<polyline fill="none" stroke="#d62728" stroke-width="2.0" points="91.35,70.45 92.90,70.45 94.46,70.45 96.40,70.45 98.73,70.45 104.18,70.46 106.90,70.46 113.51,70.45 118.18,70.45 124.79,70.45 131.79,70.45 134.12,70.45 136.07,70.45 138.40,70.45 142.68,70.45 147.34,70.45 149.68,70.45 152.01,70.45 153.95,70.45 160.18,70.45 163.29,70.45 166.40,70.46 167.95,70.46 169.90,70.46 172.23,70.46 176.90,70.46 181.95,70.45 185.06,70.44 189.73,70.45 193.23,70.45 196.34,70.45 202.95,70.45 206.06,70.45 208.40,70.45 209.95,70.45 212.67,70.45 215.79,70.45 218.90,70.45 221.23,70.45 222.79,70.45 226.29,70.45 229.40,70.45 232.51,70.45 234.45,70.45 236.01,70.45 237.95,70.45 241.06,70.45 242.62,70.45 245.34,70.45 247.67,70.45 250.01,70.45 252.73,70.45 255.45,70.45 258.17,70.45 260.12,70.45 262.45,70.45 264.40,70.45 266.73,70.45 268.67,70.45 271.39,70.45 272.95,70.45 274.89,70.45 276.45,70.45 278.39,70.45 282.28,70.45 285.01,70.45 287.73,70.45 290.84,70.45 292.39,70.45 293.95,70.46 295.89,70.46 297.84,70.46 299.39,70.46 300.95,70.46 303.67,70.47 306.00,70.47 309.89,70.47 312.62,70.46 314.95,70.44 316.89,70.42 318.45,70.40 320.39,70.37 321.95,70.35 325.06,70.31 326.61,70.29 329.34,70.24 330.89,70.22 332.84,70.17 334.78,70.13 337.11,70.07 340.23,70.00 342.95,69.93 346.84,69.86 349.56,69.89 352.28,70.01 354.22,70.21 355.78,70.44 357.72,70.83 359.67,71.33 361.22,71.79 363.17,72.45 365.11,73.16 367.45,74.08 369.39,74.85 371.34,75.63 373.28,76.37 375.61,77.25 377.17,77.79 378.72,78.32 381.06,79.03 382.61,79.48 384.56,80.04 386.50,80.51 388.45,80.98 390.39,81.34 392.72,81.76 394.67,82.11 396.22,82.37 398.56,82.70 400.50,82.97 402.45,83.17 404.39,83.36 405.95,83.52 409.06,83.79 411.78,83.97 415.67,84.23 417.61,84.30 421.50,84.44 423.44,84.52 426.17,84.62 428.50,84.70 433.56,84.81 435.89,84.86 439.78,84.94 442.50,84.98 446.39,85.02 449.11,85.05 452.22,85.08 455.33,85.11 459.22,85.14 461.94,85.17 465.44,85.18 473.61,85.23 476.72,85.24 480.22,85.26 483.33,85.27 485.66,85.27 487.22,85.27 489.55,85.28 491.89,85.29 493.83,85.29 496.16,85.29 498.50,85.30 500.44,85.30 502.77,85.31 505.11,85.31 507.44,85.32 509.77,85.32 512.50,85.33 515.22,85.34 518.72,85.34 521.44,85.34 523.39,85.35 525.33,85.35 529.22,85.35 531.55,85.36 533.50,85.36 535.83,85.36 539.33,85.37 540.88,85.37 546.72,85.37 551.38,85.38 554.88,85.38 558.38,85.38 559.94,85.38 561.88,85.39 564.99,85.39 567.33,85.39 571.22,85.39 573.55,85.39 577.05,85.40 580.16,85.40 583.66,85.40 586.77,85.40 589.49,85.40 593.38,85.40 595.72,85.40 600.77,85.41 603.10,85.41 605.05,85.41 609.72,85.41 615.16,85.41 622.55,85.42 625.66,85.42 628.38,85.42 630.33,85.42 632.66,85.42 635.38,85.42 638.49,85.42 641.21,85.42 643.94,85.42 645.88,85.42 648.60,85.42 650.94,85.42 652.88,85.42 655.21,85.43 658.32,85.43 661.05,85.43 663.77,85.43 666.10,85.43 668.05,85.43 670.38,85.43 672.32,85.43 674.66,85.43 677.77,85.43 680.10,85.43 682.82,85.43 684.77,85.43 687.10,85.43 688.66,85.43 693.32,85.43 696.43,85.43 699.55,85.43 703.04,85.43 705.38,85.43 708.49,85.43 713.54,85.44 716.66,85.44 720.54,85.44 723.66,85.44 726.77,85.44 732.21,85.44 738.04,85.44 741.93,85.44 745.82,85.44 748.15,85.44 750.88,85.44 753.21,85.44 755.93,85.44 758.65,85.45"/>
<line x1="78" y1="267.67" x2="772" y2="267.67" stroke="#2ca02c" opacity="0.18" stroke-dasharray="3 4"/>
<polyline fill="none" stroke="#2ca02c" stroke-width="2.0" points="91.35,267.67 92.90,267.67 94.46,267.67 96.40,267.67 97.96,267.67 99.51,267.67 101.07,267.67 102.62,267.67 104.18,267.67 106.12,267.67 107.68,267.67 109.23,267.67 110.79,267.67 112.35,267.67 114.68,267.67 116.23,267.67 117.79,267.67 119.35,267.67 120.90,267.67 122.46,267.67 124.40,267.67 125.96,267.67 127.51,267.67 129.07,267.67 130.62,267.67 132.18,267.67 134.12,267.67 135.68,267.67 137.23,267.67 138.79,267.67 140.34,267.67 142.29,267.67 143.84,267.67 145.40,267.67 146.96,267.67 148.51,267.67 150.07,267.67 152.01,267.67 153.57,267.67 155.12,267.67 156.68,267.67 158.23,267.67 160.18,267.67 161.73,267.67 163.29,267.66 164.84,267.66 166.40,267.66 167.95,267.66 169.90,267.65 171.45,267.65 173.01,267.66 174.57,267.66 176.12,267.66 178.07,267.67 179.62,267.67 181.18,267.67 182.73,267.68 184.29,267.68 185.84,267.68 187.79,267.68 189.34,267.68 190.90,267.67 192.45,267.67 194.01,267.67 195.95,267.67 197.51,267.67 199.06,267.67 200.62,267.67 202.18,267.67 203.73,267.67 205.68,267.67 207.23,267.67 208.79,267.67 211.12,267.67 213.45,267.67 215.40,267.67 218.12,267.67 220.06,267.67 221.62,267.67 223.17,267.67 224.73,267.67 226.67,267.67 228.62,267.67 230.56,267.67 232.51,267.67 234.84,267.67 236.40,267.67 238.34,267.66 240.28,267.66 241.84,267.66 243.40,267.66 245.73,267.65 248.45,267.65 250.40,267.65 251.95,267.65 254.67,267.65 256.62,267.66 258.17,267.67 260.12,267.69 261.67,267.72 263.23,267.76 264.78,267.81 266.34,267.87 268.28,267.97 269.84,268.04 271.39,268.11 272.95,268.14 274.51,268.13 276.06,268.11 278.01,268.07 280.34,268.03 282.67,267.99 285.01,267.97 287.34,267.95 289.67,267.95 291.23,267.95 292.78,267.95 294.34,267.96 295.89,267.96 297.45,267.96 299.39,267.94 300.95,267.90 302.89,267.81 305.23,267.62 307.17,267.36 309.12,267.00 311.84,266.30 313.78,265.66 315.34,265.08 317.28,264.27 319.23,263.40 321.56,262.31 323.50,261.38 325.06,260.64 327.00,259.73 328.56,259.01 330.11,258.35 332.84,257.22 335.17,256.31 337.11,255.59 339.84,254.73 342.56,253.92 346.06,253.01 349.17,252.39 353.06,251.63 355.78,251.23 359.28,250.72 366.28,250.06 372.50,249.58 376.39,249.33 380.67,249.16 386.50,248.94 389.61,248.83 397.39,248.66 402.06,248.55 409.45,248.48 415.28,248.43 419.56,248.39 423.44,248.35 427.33,248.31 430.83,248.30 433.56,248.28 435.89,248.27 438.61,248.25 442.89,248.23 444.83,248.22 448.33,248.21 452.22,248.20 455.72,248.19 460.39,248.17 464.28,248.17 467.78,248.16 470.11,248.16 472.05,248.15 473.61,248.15 475.16,248.15 477.11,248.15 478.66,248.15 480.22,248.14 481.78,248.14 483.33,248.14 485.66,248.14 488.00,248.13 489.55,248.13 491.11,248.13 493.05,248.12 494.61,248.12 496.55,248.12 498.11,248.12 500.05,248.12 503.16,248.11 507.05,248.11 512.11,248.11 516.39,248.10 520.66,248.10 523.39,248.10 525.72,248.09 531.16,248.09 536.61,248.09 540.50,248.09 546.72,248.08 552.94,248.08 555.66,248.08 559.94,248.08 562.66,248.08 565.77,248.08 568.11,248.08 571.22,248.08 574.33,248.08 578.22,248.07 580.55,248.07 583.66,248.07 586.38,248.07 588.72,248.07 591.83,248.07 594.55,248.07 597.27,248.07 599.99,248.07 602.33,248.07 605.44,248.07 609.33,248.07 612.44,248.07 615.16,248.07 618.27,248.07 622.55,248.07 626.83,248.07 632.27,248.06 636.16,248.06 639.66,248.06 643.55,248.06 648.21,248.06 654.44,248.06 660.66,248.06 666.10,248.06 671.55,248.06 679.71,248.06 686.32,248.06 692.16,248.06 700.32,248.06 704.21,248.05"/>
<line x1="78" y1="267.67" x2="772" y2="267.67" stroke="#9467bd" opacity="0.18" stroke-dasharray="3 4"/>
<polyline fill="none" stroke="#9467bd" stroke-width="2.0" points="91.35,248.05 92.90,248.05 94.46,248.05 96.40,248.05 97.96,248.05 99.51,248.05 101.07,248.05 102.62,248.05 104.18,248.05 106.12,248.05 107.68,248.05 109.23,248.05 110.79,248.05 112.35,248.05 114.29,248.05 115.85,248.05 117.40,248.05 118.96,248.05 120.51,248.05 122.07,248.05 124.01,248.05 125.57,248.05 127.12,248.05 128.68,248.05 130.23,248.05 131.79,248.05 133.73,248.05 135.29,248.05 136.84,248.05 138.40,248.05 139.96,248.05 141.90,248.05 143.46,248.05 145.01,248.05 146.57,248.05 148.12,248.05 149.68,248.05 151.62,248.05 153.18,248.05 154.73,248.05 156.29,248.05 157.84,248.05 159.79,248.05 161.34,248.05 162.90,248.05 164.45,248.05 166.01,248.05 167.57,248.06 169.51,248.06 171.07,248.06 172.62,248.06 174.18,248.06 175.73,248.06 177.68,248.06 179.23,248.05 180.79,248.05 182.34,248.04 183.90,248.04 185.45,248.04 187.40,248.04 188.95,248.04 190.51,248.04 192.06,248.04 193.62,248.05 195.56,248.05 197.12,248.05 198.68,248.05 200.23,248.05 201.79,248.05 203.34,248.05 205.29,248.05 206.84,248.05 208.40,248.05 209.95,248.05 211.51,248.05 213.06,248.05 215.01,248.05 216.95,248.05 218.51,248.05 220.06,248.05 221.62,248.05 223.56,248.05 225.12,248.05 226.67,248.05 228.23,248.05 229.79,248.05 231.34,248.05 233.29,248.05 234.84,248.05 236.40,248.05 237.95,248.05 239.90,248.05 242.23,248.05 244.17,248.05 245.73,248.05 247.67,248.05 250.01,248.05 251.56,248.05 254.28,248.05 256.62,248.05 258.95,248.05 261.67,248.05 263.23,248.05 265.56,248.05 267.12,248.05 268.67,248.05 270.23,248.05 271.78,248.05 273.34,248.05 275.28,248.05 276.84,248.05 278.78,248.06 280.73,248.06 282.28,248.06 284.62,248.06 286.56,248.06 288.51,248.07 290.06,248.07 291.62,248.06 293.17,248.06 295.12,248.05 296.67,248.03 298.23,248.01 299.78,247.98 301.34,247.95 303.28,247.90 305.23,247.84 307.17,247.77 309.12,247.69 310.67,247.63 312.23,247.59 314.17,247.57 315.73,247.60 317.28,247.69 318.84,247.86 320.39,248.11 321.95,248.45 323.89,248.97 325.45,249.45 327.00,250.00 328.56,250.61 330.11,251.29 332.45,252.44 334.00,253.29 335.56,254.21 337.11,255.18 338.67,256.20 340.61,257.47 342.95,258.96 344.89,260.07 346.45,260.89 348.00,261.62 350.34,262.58 353.06,263.50 354.61,263.95 356.56,264.45 358.89,264.97 361.22,265.42 363.95,265.85 367.45,266.28 370.95,266.61 374.45,266.85 377.56,267.01 379.89,267.11 384.17,267.24 388.06,267.32 392.33,267.39 397.78,267.44 401.28,267.47 406.33,267.50 412.94,267.53 418.78,267.55 425.00,267.56 429.28,267.57 433.17,267.58 437.83,267.59 443.67,267.59 451.44,267.60 456.89,267.61 460.78,267.61 467.00,267.62 475.55,267.62 479.83,267.63 484.11,267.63 488.00,267.63 491.50,267.63 493.05,267.63 496.55,267.64 499.27,267.64 502.77,267.64 508.22,267.64 511.72,267.64 514.44,267.64 518.33,267.64 521.05,267.64 524.55,267.65 527.27,267.65 530.00,267.65 533.50,267.65 535.44,267.65 538.55,267.65 541.27,267.65 544.00,267.65 548.66,267.65 551.00,267.65 554.88,267.65 558.38,267.65 561.88,267.65 564.99,267.65 568.49,267.65 570.05,267.66 573.16,267.66 576.27,267.66 578.61,267.66 582.49,267.66 585.60,267.66 588.72,267.66 591.44,267.66 594.55,267.66 596.88,267.66 599.99,267.66 602.33,267.66 605.05,267.66 607.38,267.66 609.72,267.66 612.83,267.66 617.10,267.66 619.83,267.66 623.33,267.66 625.27,267.66 627.60,267.66 632.66,267.66 635.38,267.66 640.05,267.66 642.77,267.66 647.44,267.66 650.94,267.66 656.77,267.66 660.27,267.66 663.38,267.67"/>
<line x1="88" y1="72" x2="110" y2="72" stroke="#1f77b4" stroke-width="2.4"/>
<text x="116" y="76" font-family="Arial, sans-serif" font-size="12">rising #1</text>
<line x1="88" y1="90" x2="110" y2="90" stroke="#d62728" stroke-width="2.4"/>
<text x="116" y="94" font-family="Arial, sans-serif" font-size="12">falling #2</text>
<line x1="88" y1="108" x2="110" y2="108" stroke="#2ca02c" stroke-width="2.4"/>
<text x="116" y="112" font-family="Arial, sans-serif" font-size="12">rising #3</text>
<line x1="88" y1="126" x2="110" y2="126" stroke="#9467bd" stroke-width="2.4"/>
<text x="116" y="130" font-family="Arial, sans-serif" font-size="12">falling #4</text>
<rect x="78" y="342" width="694" height="44" fill="#fffdf7" stroke="#d8c6a1" rx="4"/>
<text x="88" y="359" font-family="Arial, sans-serif" font-size="11" font-weight="700" fill="#4b3b21">Findings needing attention</text>
<rect x="88" y="366" width="7" height="7" fill="#b54708"/>
<text x="102" y="373" font-family="Arial, sans-serif" font-size="11" fill="#333">WARN 5.5.4: Ramp dt versus V-T 20-80% evidence needs review | avg Ramp dt=4.098e-10s, avg V-T 20-80% span=3.321e-...</text>
<text x="425.00" y="322.00" text-anchor="middle" font-family="Arial, sans-serif" font-size="12">Time (s)</text>
<text x="420" y="42" font-family="Arial, sans-serif" font-size="11" fill="#555">solid=V-T voltage, faint horizontal=V_fixture</text>
</svg>