<svg xmlns="http://www.w3.org/2000/svg" width="800" height="450" viewBox="0 0 800 450">
<rect width="100%" height="100%" fill="#ffffff"/>
<text x="78" y="25" font-family="Arial, sans-serif" font-size="16" font-weight="700">E34_GPIO_SPI_I3C_MST_1V1_11 V-T Waveforms</text>
<rect x="78" y="54" width="694" height="230" fill="#fbfbfb" stroke="#c8c8c8"/>
<text transform="translate(18 169.00) rotate(-90)" text-anchor="middle" font-family="Arial, sans-serif" font-size="12">Voltage (V)</text>
<line x1="78.00" y1="54" x2="78.00" y2="284" stroke="#ececec"/>
<text x="78.00" y="302" text-anchor="middle" font-family="Arial, sans-serif" font-size="10">-788p</text>
<line x1="216.80" y1="54" x2="216.80" y2="284" stroke="#ececec"/>
<text x="216.80" y="302" text-anchor="middle" font-family="Arial, sans-serif" font-size="10">7.4n</text>
<line x1="355.60" y1="54" x2="355.60" y2="284" stroke="#ececec"/>
<text x="355.60" y="302" text-anchor="middle" font-family="Arial, sans-serif" font-size="10">15.6n</text>
<line x1="494.40" y1="54" x2="494.40" y2="284" stroke="#ececec"/>
<text x="494.40" y="302" text-anchor="middle" font-family="Arial, sans-serif" font-size="10">23.8n</text>
<line x1="633.20" y1="54" x2="633.20" y2="284" stroke="#ececec"/>
<text x="633.20" y="302" text-anchor="middle" font-family="Arial, sans-serif" font-size="10">32n</text>
<line x1="772.00" y1="54" x2="772.00" y2="284" stroke="#ececec"/>
<text x="772.00" y="302" text-anchor="middle" font-family="Arial, sans-serif" font-size="10">40.2n</text>
<line x1="78" y1="284.00" x2="772" y2="284.00" stroke="#ececec"/>
<text x="70" y="288.00" text-anchor="end" font-family="Arial, sans-serif" font-size="10">-0.097</text>
<line x1="78" y1="226.50" x2="772" y2="226.50" stroke="#ececec"/>
<text x="70" y="230.50" text-anchor="end" font-family="Arial, sans-serif" font-size="10">0.228</text>
<line x1="78" y1="169.00" x2="772" y2="169.00" stroke="#ececec"/>
<text x="70" y="173.00" text-anchor="end" font-family="Arial, sans-serif" font-size="10">0.552</text>
<line x1="78" y1="111.50" x2="772" y2="111.50" stroke="#ececec"/>
<text x="70" y="115.50" text-anchor="end" font-family="Arial, sans-serif" font-size="10">0.877</text>
<line x1="78" y1="54.00" x2="772" y2="54.00" stroke="#ececec"/>
<text x="70" y="58.00" text-anchor="end" font-family="Arial, sans-serif" font-size="10">1.2</text>
<line x1="78" y1="72.03" x2="772" y2="72.03" stroke="#1f77b4" opacity="0.18" stroke-dasharray="3 4"/>
<polyline fill="none" stroke="#1f77b4" stroke-width="2.0" points="91.35,215.98 92.80,215.98 94.28,215.98 96.09,215.98 97.57,215.99 99.02,216.00 100.48,215.93 101.06,215.89 101.28,215.88 101.58,215.86 101.79,215.85 102.09,215.84 102.38,215.82 102.65,215.82 103.02,215.84 103.33,215.89 103.48,215.92 103.70,216.00 103.80,216.04 104.01,216.14 104.16,216.23 104.33,216.35 104.46,216.44 104.62,216.57 104.73,216.66 104.89,216.80 105.12,217.02 105.28,217.17 105.43,217.32 105.63,217.52 105.79,217.67 105.94,217.82 106.04,217.92 106.16,218.03 106.26,218.13 106.38,218.24 106.48,218.33 106.67,218.49 106.80,218.61 106.95,218.73 107.07,218.83 107.23,218.94 107.40,219.06 107.50,219.12 107.58,219.16 107.78,219.26 107.92,219.30 108.07,219.32 108.24,219.31 108.41,219.27 108.51,219.22 108.73,219.06 108.94,218.83 109.14,218.50 109.34,218.08 109.50,217.67 109.62,217.34 109.99,215.96 110.17,215.12 110.43,213.79 110.72,211.96 111.00,209.79 111.14,208.61 111.45,205.69 111.73,202.49 111.92,200.13 112.04,198.53 112.33,194.33 112.55,190.82 112.70,188.27 112.94,184.09 113.11,180.97 113.17,179.71 113.34,176.45 113.48,173.81 113.65,170.44 113.87,165.97 113.99,163.55 114.12,160.74 114.34,156.15 114.50,152.96 114.77,147.28 114.99,142.67 115.19,138.43 115.41,133.89 115.58,130.43 115.77,126.67 115.97,122.65 116.16,119.03 116.28,116.77 116.38,114.85 116.56,111.42 116.70,108.99 116.77,107.80 116.89,105.75 117.05,102.91 117.21,100.46 117.29,99.15 117.46,96.64 117.63,94.27 117.80,92.10 117.94,90.47 118.07,88.95 118.29,86.74 118.44,85.37 118.60,84.12 118.77,82.87 118.89,82.08 119.11,80.78 119.21,80.27 119.41,79.33 119.72,78.18 119.82,77.85 120.09,77.10 120.38,76.46 120.50,76.23 120.77,75.78 120.87,75.63 121.33,75.07 121.44,74.95 122.05,74.46 122.33,74.29 122.60,74.15 122.82,74.04 122.95,73.98 123.38,73.81 123.55,73.74 123.88,73.60 124.24,73.47 124.38,73.42 124.99,73.21 125.83,72.96 126.46,72.81 126.73,72.76 127.05,72.70 127.27,72.66 127.82,72.58 128.04,72.55 129.00,72.44 129.65,72.39 129.87,72.37 130.04,72.36 130.34,72.34 130.44,72.34 130.54,72.33 130.87,72.31 131.24,72.30 131.43,72.29 131.71,72.28 131.97,72.27 132.24,72.26 132.65,72.24 132.88,72.23 133.27,72.22 133.54,72.22 133.90,72.20 134.04,72.20 134.15,72.20 134.70,72.19 135.19,72.18 135.36,72.17 135.66,72.17 135.95,72.16 136.14,72.16 136.49,72.16 136.70,72.15 137.02,72.15 137.27,72.15 137.53,72.14 138.02,72.14 138.37,72.13 138.54,72.13 138.76,72.13 139.09,72.13 139.39,72.13 139.76,72.12 140.04,72.12 140.41,72.12 140.66,72.11 141.02,72.11 141.42,72.11 141.80,72.11 142.19,72.10 142.53,72.10 142.90,72.10 143.10,72.10 143.36,72.10 143.70,72.10 143.98,72.10 144.36,72.09 144.73,72.09 145.09,72.09 145.46,72.09 145.92,72.09 146.32,72.09 146.54,72.08 146.92,72.08 147.51,72.08 147.93,72.08 148.31,72.08 149.07,72.08 149.86,72.08 150.58,72.07 152.03,72.07 153.17,72.07 154.20,72.06 155.32,72.06 156.42,72.06 157.81,72.06 159.34,72.06 160.35,72.06 161.17,72.06 162.64,72.06 163.37,72.05 165.20,72.05 166.29,72.05 167.76,72.05 169.22,72.05 170.68,72.05 171.61,72.05 173.23,72.05 174.69,72.05 175.90,72.05 177.25,72.05 178.73,72.05 180.18,72.05 182.01,72.05 183.47,72.05 184.93,72.05 186.40,72.05 187.86,72.05 189.69,72.05 190.79,72.04 192.25,72.04 193.71,72.04 195.16,72.04 196.64,72.04 198.47,72.04 199.93,72.04 200.64,72.04"/>
<line x1="78" y1="72.03" x2="772" y2="72.03" stroke="#d62728" opacity="0.18" stroke-dasharray="3 4"/>
<polyline fill="none" stroke="#d62728" stroke-width="2.0" points="91.35,72.03 95.45,72.03 97.11,72.03 98.24,72.03 99.36,72.03 99.85,72.03 100.21,72.03 100.43,72.04 100.55,72.04 101.38,72.03 101.63,72.03 101.75,72.03 101.90,72.03 102.12,72.03 102.82,72.03 103.06,72.03 103.63,72.03 103.95,72.03 104.41,72.03 104.60,72.03 104.68,72.03 104.79,72.03 105.24,72.03 105.38,72.03 105.53,72.03 105.85,72.03 106.04,72.03 106.23,72.03 106.34,72.03 106.63,72.03 107.17,72.04 107.51,72.04 107.72,72.05 107.87,72.05 107.95,72.06 108.12,72.06 108.28,72.07 108.45,72.07 108.58,72.08 108.65,72.08 108.75,72.09 108.84,72.09 109.09,72.10 109.19,72.11 109.38,72.11 109.48,72.11 109.65,72.12 109.75,72.12 109.90,72.13 110.09,72.13 110.24,72.13 110.41,72.14 110.56,72.14 110.78,72.14 110.99,72.14 111.16,72.14 111.31,72.15 111.55,72.15 111.75,72.14 111.99,72.14 112.09,72.13 112.29,72.11 112.51,72.09 112.72,72.06 112.97,72.01 113.07,71.98 113.24,71.93 113.48,71.85 113.60,71.81 113.73,71.76 113.85,71.72 113.97,71.67 114.12,71.61 114.29,71.54 114.41,71.49 114.61,71.41 114.77,71.35 114.90,71.29 115.07,71.23 115.24,71.16 115.36,71.12 115.48,71.08 115.63,71.02 115.82,70.96 116.05,70.88 116.28,70.81 116.41,70.77 116.58,70.72 116.72,70.68 116.92,70.63 117.16,70.57 117.28,70.53 117.50,70.48 117.73,70.42 117.85,70.40 118.02,70.35 118.33,70.28 118.48,70.25 118.68,70.20 118.87,70.16 119.11,70.10 119.31,70.05 119.97,69.90 120.12,69.87 120.73,69.86 120.94,69.90 121.12,69.98 121.44,70.19 121.53,70.27 121.77,70.56 121.99,70.91 122.22,71.47 122.48,72.13 122.82,73.22 123.19,74.75 123.46,76.09 123.70,77.39 123.94,78.78 124.26,80.90 124.63,83.63 125.09,87.36 125.38,89.86 125.75,93.30 126.16,97.23 126.48,100.47 126.92,104.99 127.48,110.84 128.02,116.57 128.44,121.02 129.00,126.83 129.32,130.14 129.99,136.73 130.32,139.96 130.77,144.15 131.44,150.24 131.95,154.66 132.63,160.29 133.32,165.74 133.88,169.88 134.41,173.55 135.09,177.97 135.46,180.26 136.09,183.87 136.46,185.88 137.22,189.66 137.61,191.44 138.46,194.91 139.04,196.97 139.54,198.63 141.09,202.81 142.54,205.76 144.58,208.73 147.64,211.50 149.75,212.70 151.75,213.50 153.47,214.02 154.73,214.31 155.80,214.52 156.05,214.56 157.05,214.72 157.88,214.83 158.78,214.94 159.64,215.03 160.46,215.11 161.74,215.22 162.49,215.27 163.49,215.34 164.24,215.38 165.05,215.43 166.03,215.49 167.10,215.54 168.12,215.59 169.08,215.64 169.93,215.67 170.62,215.69 171.49,215.74 172.73,215.75 173.23,215.76 174.30,215.78 175.28,215.80 176.51,215.82 178.06,215.84 179.39,215.86 180.40,215.86 182.39,215.88 183.93,215.88 185.69,215.89 188.59,215.90 190.64,215.91 193.40,215.92 195.76,215.92 198.82,215.93 202.93,215.93 205.99,215.94 209.98,215.94 213.16,215.94 217.26,215.95 220.33,215.95 225.45,215.95 229.55,215.95 233.63,215.96 237.73,215.96 241.82,215.96 246.95,215.96 251.04,215.96 255.14,215.96 259.22,215.96 263.32,215.97 267.43,215.97 272.54,215.97 276.63,215.97 280.73,215.97 284.81,215.97 288.92,215.97 294.03,215.97 298.13,215.97 302.22,215.97 306.32,215.97 310.42,215.97 314.51,215.97 319.62,215.97 323.72,215.97 327.81,215.97 331.91,215.97 336.01,215.97 340.10,215.97 345.21,215.97 349.31,215.97 352.38,215.97 356.48,215.97 360.57,215.97 365.69,215.98 369.79,215.98 373.89,215.98 377.97,215.98 382.07,215.98 386.17,215.98 391.29,215.98 395.38,215.98 397.41,215.98"/>
<line x1="78" y1="266.82" x2="772" y2="266.82" stroke="#2ca02c" opacity="0.18" stroke-dasharray="3 4"/>
<polyline fill="none" stroke="#2ca02c" stroke-width="2.0" points="91.35,266.82 98.04,266.82 100.28,266.83 100.55,266.83 101.77,266.83 102.38,266.82 102.92,266.81 103.40,266.79 103.70,266.77 104.04,266.75 104.29,266.73 104.45,266.73 104.63,266.72 104.77,266.71 104.90,266.71 105.01,266.71 105.09,266.71 105.19,266.70 105.28,266.70 105.36,266.70 105.50,266.70 105.65,266.70 105.77,266.70 105.92,266.70 106.11,266.71 106.21,266.71 106.40,266.71 106.53,266.72 106.68,266.72 106.78,266.73 106.92,266.74 107.07,266.75 107.23,266.77 107.38,266.79 107.55,266.82 107.73,266.87 107.87,266.90 108.07,266.96 108.17,266.99 108.36,267.05 108.50,267.09 108.62,267.13 108.78,267.19 108.90,267.23 109.04,267.28 109.17,267.33 109.31,267.38 109.46,267.43 109.68,267.50 109.84,267.55 110.11,267.64 110.34,267.71 110.45,267.74 110.61,267.79 110.73,267.82 110.94,267.88 111.26,267.97 111.51,268.03 111.75,268.08 111.99,268.11 112.22,268.14 112.55,268.10 112.72,268.05 113.17,267.75 113.39,267.41 113.67,266.99 113.87,266.52 114.14,265.82 114.34,265.08 114.51,264.43 114.82,262.97 115.04,261.71 115.22,260.50 115.38,259.42 115.51,258.37 115.75,256.37 115.90,254.95 116.05,253.45 116.16,252.40 116.33,250.57 116.51,248.45 116.70,246.24 116.82,244.79 117.02,242.27 117.22,239.72 117.48,236.51 117.66,234.17 117.85,231.85 118.05,229.37 118.22,227.32 118.44,224.72 118.75,221.21 118.94,219.10 119.11,217.23 119.36,214.50 119.51,212.90 119.73,210.65 120.11,207.04 120.36,204.67 120.75,201.29 121.17,197.77 121.65,194.13 122.12,190.72 122.63,187.37 123.09,184.57 123.41,182.71 123.94,179.88 124.21,178.53 124.61,176.61 124.92,175.26 125.39,173.32 125.65,172.35 126.12,170.66 126.46,169.56 126.88,168.27 127.27,167.18 127.71,166.04 128.32,164.64 129.05,163.19 129.48,162.44 130.58,160.80 131.10,160.14 132.09,159.07 132.83,158.39 133.58,157.79 133.98,157.50 135.49,156.62 136.90,156.02 138.56,155.53 138.97,155.45 140.44,155.15 141.05,155.06 141.90,154.95 142.31,154.90 143.03,154.80 143.37,154.77 143.98,154.71 144.37,154.68 144.92,154.63 145.32,154.59 145.54,154.57 145.88,154.55 146.41,154.53 147.09,154.49 147.58,154.46 148.24,154.43 148.73,154.40 149.37,154.37 149.76,154.35 150.34,154.33 150.83,154.31 151.20,154.30 151.61,154.28 152.19,154.26 152.83,154.24 153.25,154.23 153.73,154.22 154.17,154.20 154.90,154.19 155.85,154.16 156.41,154.15 157.44,154.12 158.30,154.10 158.96,154.09 160.61,154.06 161.91,154.03 162.76,154.02 163.83,154.00 165.00,153.98 167.24,153.94 169.46,153.90 171.30,153.87 173.18,153.84 175.25,153.81 178.39,153.76 182.86,153.69 187.88,153.62 194.01,153.54 202.94,153.42 211.87,153.30 218.57,153.22 229.55,153.10 236.41,153.02 245.34,152.93 254.28,152.84 263.21,152.76 272.12,152.68 281.05,152.60 289.98,152.53 298.91,152.46 307.83,152.39 316.76,152.32 327.93,152.25 336.86,152.20 345.77,152.16 354.70,152.13 363.63,152.10 372.57,152.04 381.53,151.92 390.41,151.85 399.34,151.79 408.27,151.75 417.20,151.70 428.36,151.65 437.29,151.61 446.22,151.57 455.13,151.53 464.06,151.50 472.99,151.46 484.15,151.42 493.08,151.39 502.01,151.36 510.94,151.33 519.87,151.30 531.02,151.27 539.95,151.24 548.88,151.21 557.80,151.19 566.73,151.16 575.66,151.14 586.81,151.11 595.74,151.09 604.67,151.07 613.60,151.04 622.54,151.02 631.45,151.00 642.62,150.98 651.55,150.96 660.46,150.94 669.39,150.93 678.32,150.91 689.48,150.89 698.41,150.87 707.34,150.86 716.27,150.84 725.20,150.83 734.11,150.81 745.28,150.79 754.21,150.78 758.65,150.75"/>
<line x1="78" y1="266.82" x2="772" y2="266.82" stroke="#9467bd" opacity="0.18" stroke-dasharray="3 4"/>
<polyline fill="none" stroke="#9467bd" stroke-width="2.0" points="91.35,150.04 92.96,150.04 94.58,150.04 96.60,150.04 98.21,150.04 99.82,150.04 100.70,150.04 101.02,150.03 101.21,150.03 101.85,150.03 103.09,150.04 103.23,150.04 103.33,150.04 103.48,150.05 103.62,150.05 103.75,150.05 103.90,150.06 104.09,150.06 104.34,150.07 104.60,150.08 104.79,150.09 104.99,150.10 105.12,150.10 105.40,150.11 105.58,150.12 105.75,150.12 105.90,150.13 106.01,150.13 106.11,150.14 106.19,150.14 106.28,150.14 106.38,150.14 106.48,150.15 106.56,150.15 106.67,150.15 106.80,150.15 106.92,150.16 107.12,150.16 107.26,150.16 107.38,150.16 107.50,150.15 107.58,150.15 107.70,150.15 107.84,150.14 107.94,150.13 108.06,150.12 108.17,150.10 108.29,150.08 108.43,150.05 108.55,150.03 108.67,149.99 108.80,149.95 108.95,149.90 109.14,149.83 109.24,149.78 109.36,149.72 109.51,149.64 109.62,149.59 109.78,149.49 109.92,149.41 110.02,149.34 110.16,149.25 110.31,149.14 110.50,149.01 110.70,148.85 110.85,148.73 111.06,148.57 111.24,148.41 111.39,148.28 111.61,148.10 111.80,147.94 111.97,147.80 112.07,147.72 112.24,147.59 112.34,147.52 112.43,147.47 112.61,147.37 112.75,147.32 112.89,147.30 112.99,147.31 113.19,147.38 113.41,147.55 113.60,147.80 113.68,147.95 113.87,148.33 113.99,148.66 114.14,149.09 114.34,149.85 114.46,150.35 114.67,151.29 114.80,152.03 114.94,152.79 115.38,155.76 115.61,157.62 115.87,159.79 116.11,161.99 116.36,164.50 116.63,167.34 116.94,170.70 117.21,173.81 117.50,177.21 117.68,179.45 117.89,181.94 118.04,183.83 118.22,186.16 118.36,187.87 118.48,189.37 118.73,192.62 119.02,196.31 119.19,198.49 119.44,201.76 119.61,203.93 119.77,205.88 120.00,208.88 120.24,211.85 120.53,215.40 120.70,217.46 120.83,219.09 121.07,221.90 121.24,223.86 121.55,227.30 121.78,229.86 122.04,232.52 122.36,235.72 122.61,238.15 122.85,240.33 123.26,243.86 123.60,246.56 123.83,248.33 124.04,249.75 124.27,251.30 124.56,253.05 124.88,254.80 125.14,256.04 125.39,257.17 125.68,258.31 125.92,259.15 126.46,260.76 126.68,261.30 127.05,262.09 127.38,262.67 127.68,263.14 127.97,263.52 128.22,263.81 128.51,264.10 128.73,264.30 129.10,264.58 129.51,264.85 129.83,265.03 130.36,265.30 131.17,265.62 132.14,265.92 133.36,266.16 134.32,266.30 134.65,266.34 135.07,266.38 135.41,266.41 135.78,266.44 136.21,266.48 136.87,266.51 137.36,266.55 137.80,266.57 138.27,266.58 138.80,266.60 139.31,266.61 139.51,266.62 139.92,266.63 140.42,266.64 140.75,266.65 141.05,266.66 141.53,266.67 141.97,266.68 142.29,266.68 142.64,266.69 142.81,266.69 143.24,266.70 143.73,266.71 144.05,266.71 144.46,266.72 144.81,266.72 145.07,266.72 145.48,266.73 145.86,266.73 146.27,266.73 146.68,266.74 147.03,266.74 147.49,266.74 147.90,266.75 148.34,266.75 148.83,266.75 149.25,266.75 149.86,266.76 150.29,266.76 150.78,266.76 151.53,266.76 151.93,266.77 152.75,266.77 153.14,266.77 154.07,266.77 154.61,266.78 155.17,266.78 155.97,266.78 156.66,266.78 157.22,266.78 158.08,266.78 158.88,266.79 159.27,266.79 160.03,266.79 161.22,266.79 162.83,266.79 164.46,266.79 165.66,266.80 167.29,266.80 168.90,266.80 170.91,266.80 172.52,266.80 174.15,266.80 175.76,266.80 177.37,266.80 179.00,266.81 181.01,266.81 182.62,266.81 184.25,266.81 185.86,266.81 187.47,266.81 189.10,266.81 191.11,266.81 192.72,266.81 194.33,266.81 195.96,266.81 197.57,266.81 199.59,266.81 201.21,266.81 202.82,266.81 204.43,266.81 206.06,266.81 207.67,266.81 209.69,266.81 211.30,266.81 212.09,266.82"/>
<line x1="88" y1="72" x2="110" y2="72" stroke="#1f77b4" stroke-width="2.4"/>
<text x="116" y="76" font-family="Arial, sans-serif" font-size="12">rising #1</text>
<line x1="88" y1="90" x2="110" y2="90" stroke="#d62728" stroke-width="2.4"/>
<text x="116" y="94" font-family="Arial, sans-serif" font-size="12">falling #2</text>
<line x1="88" y1="108" x2="110" y2="108" stroke="#2ca02c" stroke-width="2.4"/>
<text x="116" y="112" font-family="Arial, sans-serif" font-size="12">rising #3</text>
<line x1="88" y1="126" x2="110" y2="126" stroke="#9467bd" stroke-width="2.4"/>
<text x="116" y="130" font-family="Arial, sans-serif" font-size="12">falling #4</text>
<rect x="78" y="342" width="694" height="44" fill="#fffdf7" stroke="#d8c6a1" rx="4"/>
<text x="88" y="359" font-family="Arial, sans-serif" font-size="11" font-weight="700" fill="#4b3b21">Findings needing attention</text>
<rect x="88" y="366" width="7" height="7" fill="#b54708"/>
<text x="102" y="373" font-family="Arial, sans-serif" font-size="11" fill="#333">WARN 5.5.4: Ramp dt versus V-T 20-80% evidence needs review | avg Ramp dt=5.464e-10s, avg V-T 20-80% span=4.275e-...</text>
<text x="425.00" y="322.00" text-anchor="middle" font-family="Arial, sans-serif" font-size="12">Time (s)</text>
<text x="420" y="42" font-family="Arial, sans-serif" font-size="11" fill="#555">solid=V-T voltage, faint horizontal=V_fixture</text>
</svg>