<svg xmlns="http://www.w3.org/2000/svg" width="800" height="450" viewBox="0 0 800 450">
<rect width="100%" height="100%" fill="#ffffff"/>
<text x="78" y="25" font-family="Arial, sans-serif" font-size="16" font-weight="700">E34_GPIO_COMBO_1V8 V-T Waveforms</text>
<rect x="78" y="54" width="694" height="230" fill="#fbfbfb" stroke="#c8c8c8"/>
<text transform="translate(18 169.00) rotate(-90)" text-anchor="middle" font-family="Arial, sans-serif" font-size="12">Voltage (V)</text>
<line x1="78.00" y1="54" x2="78.00" y2="284" stroke="#ececec"/>
<text x="78.00" y="302" text-anchor="middle" font-family="Arial, sans-serif" font-size="10">-262p</text>
<line x1="216.80" y1="54" x2="216.80" y2="284" stroke="#ececec"/>
<text x="216.80" y="302" text-anchor="middle" font-family="Arial, sans-serif" font-size="10">2.46n</text>
<line x1="355.60" y1="54" x2="355.60" y2="284" stroke="#ececec"/>
<text x="355.60" y="302" text-anchor="middle" font-family="Arial, sans-serif" font-size="10">5.18n</text>
<line x1="494.40" y1="54" x2="494.40" y2="284" stroke="#ececec"/>
<text x="494.40" y="302" text-anchor="middle" font-family="Arial, sans-serif" font-size="10">7.9n</text>
<line x1="633.20" y1="54" x2="633.20" y2="284" stroke="#ececec"/>
<text x="633.20" y="302" text-anchor="middle" font-family="Arial, sans-serif" font-size="10">10.6n</text>
<line x1="772.00" y1="54" x2="772.00" y2="284" stroke="#ececec"/>
<text x="772.00" y="302" text-anchor="middle" font-family="Arial, sans-serif" font-size="10">13.3n</text>
<line x1="78" y1="284.00" x2="772" y2="284.00" stroke="#ececec"/>
<text x="70" y="288.00" text-anchor="end" font-family="Arial, sans-serif" font-size="10">-0.151</text>
<line x1="78" y1="226.50" x2="772" y2="226.50" stroke="#ececec"/>
<text x="70" y="230.50" text-anchor="end" font-family="Arial, sans-serif" font-size="10">0.374</text>
<line x1="78" y1="169.00" x2="772" y2="169.00" stroke="#ececec"/>
<text x="70" y="173.00" text-anchor="end" font-family="Arial, sans-serif" font-size="10">0.9</text>
<line x1="78" y1="111.50" x2="772" y2="111.50" stroke="#ececec"/>
<text x="70" y="115.50" text-anchor="end" font-family="Arial, sans-serif" font-size="10">1.4</text>
<line x1="78" y1="54.00" x2="772" y2="54.00" stroke="#ececec"/>
<text x="70" y="58.00" text-anchor="end" font-family="Arial, sans-serif" font-size="10">2</text>
<line x1="78" y1="70.44" x2="772" y2="70.44" stroke="#1f77b4" opacity="0.18" stroke-dasharray="3 4"/>
<polyline fill="none" stroke="#1f77b4" stroke-width="2.0" points="91.35,96.51 92.37,96.51 93.39,96.51 94.92,96.51 96.19,96.51 97.22,96.51 98.49,96.51 100.02,96.51 101.04,96.51 102.32,96.51 103.85,96.51 104.87,96.51 106.40,96.51 107.68,96.51 109.97,96.51 111.00,96.51 112.27,96.51 114.57,96.51 116.35,96.51 117.63,96.51 119.16,96.51 120.18,96.51 121.20,96.51 122.22,96.51 123.24,96.51 124.26,96.51 125.54,96.51 126.56,96.51 127.58,96.51 128.60,96.51 129.62,96.51 130.90,96.51 131.92,96.51 132.94,96.51 133.96,96.51 134.98,96.51 136.00,96.51 137.28,96.51 138.30,96.51 139.32,96.51 140.34,96.51 141.36,96.50 142.64,96.50 143.66,96.50 144.68,96.50 145.70,96.50 146.72,96.51 147.74,96.51 149.02,96.51 150.04,96.51 151.06,96.51 152.08,96.51 153.10,96.51 154.38,96.51 155.40,96.51 156.42,96.51 157.44,96.51 158.46,96.51 159.48,96.51 160.76,96.51 161.78,96.51 162.80,96.51 163.82,96.51 164.84,96.51 166.12,96.51 167.14,96.51 168.16,96.51 169.94,96.51 170.96,96.51 171.98,96.51 173.26,96.50 174.28,96.50 175.30,96.50 176.32,96.52 177.34,96.55 178.36,96.60 179.64,96.69 180.66,96.77 181.68,96.78 182.70,96.61 183.72,96.03 185.00,94.39 186.02,92.33 187.04,90.02 188.06,87.76 189.08,85.69 190.10,83.84 191.38,81.86 192.40,80.51 193.42,79.35 194.44,78.33 195.46,77.42 196.74,76.39 197.76,75.63 198.78,74.94 199.80,74.34 200.82,73.82 201.84,73.37 203.12,72.88 204.14,72.54 205.16,72.25 206.18,72.00 207.20,71.78 208.48,71.56 209.50,71.41 210.52,71.28 211.54,71.17 212.56,71.08 213.58,71.00 214.86,70.93 215.88,70.88 216.90,70.83 217.92,70.79 218.94,70.76 220.21,70.72 221.24,70.70 222.26,70.68 223.28,70.66 224.30,70.65 225.32,70.64 226.59,70.62 227.61,70.61 228.64,70.60 229.66,70.60 230.68,70.59 231.70,70.58 232.97,70.57 233.99,70.57 235.02,70.56 236.04,70.56 237.06,70.56 238.33,70.55 239.35,70.55 240.37,70.54 241.39,70.54 242.42,70.54 243.44,70.53 244.71,70.53 245.73,70.53 246.75,70.53 247.77,70.52 248.80,70.52 250.07,70.52 251.09,70.52 252.11,70.51 253.13,70.51 254.41,70.51 255.43,70.51 256.71,70.51 257.73,70.51 258.75,70.51 259.77,70.50 261.04,70.50 262.32,70.50 263.60,70.50 264.62,70.50 265.64,70.50 266.66,70.49 267.68,70.49 268.95,70.49 269.98,70.49 271.00,70.49 272.02,70.49 273.04,70.49 274.31,70.49 275.33,70.49 276.61,70.48 277.63,70.48 278.65,70.48 279.67,70.48 280.95,70.48 281.97,70.48 282.99,70.48 284.01,70.48 285.03,70.48 286.05,70.48 287.33,70.48 288.86,70.48 289.88,70.48 290.90,70.48 291.92,70.47 293.71,70.47 294.98,70.47 296.51,70.47 298.05,70.47 299.07,70.47 300.09,70.47 301.36,70.47 302.38,70.47 303.40,70.47 304.43,70.47 305.70,70.47 307.23,70.47 308.25,70.47 309.27,70.47 310.29,70.47 311.32,70.47 312.34,70.46 313.61,70.46 314.63,70.46 315.65,70.46 316.67,70.46 317.69,70.46 318.97,70.46 319.99,70.46 321.01,70.46 322.03,70.46 323.05,70.46 324.07,70.46 325.35,70.46 326.37,70.46 327.39,70.46 328.41,70.46 329.43,70.46 330.96,70.46 331.99,70.46 333.01,70.46 334.03,70.46 335.05,70.46 336.07,70.46 337.34,70.46 338.36,70.46 339.39,70.46 340.41,70.46 341.43,70.46 342.45,70.46 343.72,70.46 344.74,70.46 345.77,70.45 346.79,70.45 347.81,70.45 349.08,70.45 350.10,70.45 351.38,70.45 352.40,70.45 353.42,70.45 354.44,70.45 355.97,70.45 356.99,70.45 358.01,70.44"/>
<line x1="78" y1="70.44" x2="772" y2="70.44" stroke="#d62728" opacity="0.18" stroke-dasharray="3 4"/>
<polyline fill="none" stroke="#d62728" stroke-width="2.0" points="91.35,70.44 94.92,70.44 97.98,70.44 104.62,70.44 106.15,70.44 111.00,70.44 118.14,70.44 120.69,70.44 127.07,70.44 130.90,70.44 136.00,70.44 140.09,70.44 142.38,70.44 146.47,70.45 150.80,70.44 153.87,70.43 156.67,70.44 158.71,70.44 159.99,70.44 161.01,70.44 162.54,70.44 163.82,70.44 165.09,70.44 166.12,70.44 167.14,70.44 168.16,70.44 169.43,70.44 170.45,70.44 171.98,70.44 173.52,70.44 174.79,70.44 176.07,70.44 177.34,70.44 178.62,70.44 180.66,70.44 181.68,70.44 182.96,70.44 184.49,70.44 185.76,70.44 187.55,70.44 189.08,70.44 191.38,70.44 193.16,70.44 195.97,70.44 198.27,70.44 200.31,70.45 202.35,70.45 204.65,70.42 209.24,70.23 210.77,70.13 214.09,69.87 215.11,69.86 216.13,69.99 217.41,70.46 218.43,71.14 219.45,72.08 220.47,73.25 221.75,74.93 223.79,77.89 225.83,80.81 227.10,82.52 228.13,83.80 229.91,85.87 231.44,87.43 233.23,89.01 234.25,89.80 235.27,90.50 237.57,91.82 239.10,92.51 240.63,93.10 242.93,93.80 244.46,94.18 246.24,94.54 248.80,94.92 250.58,95.13 253.64,95.41 255.94,95.57 257.47,95.66 259.51,95.75 261.04,95.82 262.58,95.87 266.15,95.96 268.19,96.01 270.49,96.05 272.78,96.09 275.08,96.12 276.87,96.14 282.22,96.19 284.78,96.21 285.80,96.22 289.37,96.24 292.69,96.26 296.26,96.28 299.07,96.30 303.66,96.32 305.96,96.32 310.80,96.34 313.36,96.35 315.65,96.36 317.18,96.36 319.74,96.37 321.78,96.37 325.10,96.38 327.14,96.38 328.92,96.39 329.94,96.39 331.73,96.39 334.28,96.40 335.30,96.40 337.09,96.40 338.62,96.41 340.92,96.41 342.96,96.41 345.25,96.42 349.08,96.42 351.38,96.43 353.17,96.43 355.72,96.43 358.27,96.44 360.06,96.44 362.35,96.44 363.88,96.44 364.90,96.44 366.69,96.45 368.22,96.45 369.50,96.45 371.28,96.45 372.56,96.45 374.09,96.45 375.37,96.45 377.15,96.46 379.19,96.46 380.73,96.46 382.51,96.46 384.04,96.46 385.83,96.46 387.62,96.46 390.42,96.46 392.21,96.47 393.74,96.47 395.27,96.47 397.06,96.47 399.10,96.47 401.40,96.47 403.95,96.47 406.24,96.48 410.07,96.48 412.37,96.48 415.69,96.48 418.49,96.48 420.28,96.48 424.11,96.48 430.74,96.49 435.33,96.49 438.65,96.49 440.95,96.49 443.25,96.49 448.60,96.49 455.24,96.49 459.83,96.49 462.89,96.50 467.74,96.50 473.61,96.50 480.50,96.50 486.63,96.50 493.26,96.50 497.60,96.50 501.68,96.50 505.77,96.50 507.04,96.50 515.46,96.50 522.35,96.50 526.69,96.50 531.28,96.50 534.09,96.51 540.22,96.51 544.55,96.51 548.13,96.51 551.19,96.51 553.49,96.51 559.10,96.51 563.69,96.51 567.01,96.51 569.05,96.51 574.92,96.51 577.98,96.51 584.62,96.51 591.25,96.51 594.31,96.51 600.44,96.51 602.99,96.51 607.58,96.51 612.43,96.51 617.79,96.51 619.58,96.51 624.17,96.51 625.96,96.51 628.76,96.51 632.59,96.51 634.63,96.51 636.68,96.51 640.25,96.51 644.59,96.51 647.39,96.51 651.73,96.51 654.03,96.51 656.32,96.51 658.11,96.51 660.92,96.51 663.21,96.51 665.00,96.51 667.30,96.51 669.59,96.51 671.89,96.51 674.44,96.51 678.53,96.51 681.84,96.51 685.93,96.51 692.05,96.51 694.35,96.51 700.73,96.51 703.02,96.51 705.32,96.51 707.87,96.51 710.42,96.51 714.25,96.51 717.06,96.51 720.12,96.51 722.93,96.51 725.48,96.51 727.78,96.51 730.33,96.51 733.14,96.51 736.71,96.51 740.03,96.51 741.56,96.51 745.64,96.51 752.27,96.51 757.12,96.51 758.65,96.51"/>
<line x1="78" y1="267.50" x2="772" y2="267.50" stroke="#2ca02c" opacity="0.18" stroke-dasharray="3 4"/>
<polyline fill="none" stroke="#2ca02c" stroke-width="2.0" points="91.35,267.50 92.37,267.50 93.39,267.50 94.66,267.50 95.68,267.50 96.71,267.50 97.73,267.50 98.75,267.50 99.77,267.50 101.04,267.50 102.06,267.50 103.08,267.50 104.11,267.50 105.13,267.50 106.40,267.50 107.42,267.50 108.44,267.50 109.46,267.50 110.48,267.50 111.51,267.50 112.78,267.50 113.80,267.50 114.82,267.50 115.84,267.50 116.86,267.50 117.89,267.50 119.16,267.50 120.18,267.50 121.20,267.50 122.22,267.50 123.24,267.50 124.52,267.50 125.54,267.50 126.56,267.50 127.58,267.50 128.60,267.50 129.62,267.50 130.90,267.50 131.92,267.50 132.94,267.50 133.96,267.50 134.98,267.50 136.26,267.50 137.28,267.50 138.30,267.49 139.32,267.49 140.34,267.49 141.36,267.49 142.64,267.49 143.66,267.49 144.68,267.49 145.70,267.49 146.72,267.49 148.00,267.50 149.02,267.50 150.04,267.50 151.06,267.50 152.08,267.50 153.10,267.50 154.38,267.50 155.40,267.50 156.42,267.50 157.44,267.50 158.46,267.50 159.74,267.50 160.76,267.50 161.78,267.50 162.80,267.50 163.82,267.50 164.84,267.50 166.12,267.50 167.14,267.50 168.16,267.50 169.18,267.50 170.20,267.50 171.22,267.50 172.49,267.50 173.52,267.50 174.54,267.50 175.56,267.49 176.58,267.49 177.85,267.48 178.87,267.48 179.90,267.48 180.92,267.49 181.94,267.52 182.96,267.57 184.23,267.70 185.25,267.84 186.27,268.01 187.30,268.12 188.32,268.14 189.59,268.12 190.61,268.10 191.63,268.07 192.65,268.01 193.93,267.78 194.95,267.41 196.23,266.63 197.25,265.70 198.27,264.49 199.29,263.03 200.31,261.35 201.84,258.56 203.12,256.12 204.39,253.71 205.41,251.85 206.94,249.24 207.97,247.62 209.75,245.11 210.77,243.80 211.79,242.65 213.32,241.06 214.86,239.69 217.15,237.98 218.43,237.22 219.45,236.68 220.72,236.10 221.75,235.72 222.77,235.35 224.04,234.98 225.06,234.69 226.08,234.48 227.10,234.26 228.13,234.07 229.15,233.91 230.93,233.64 232.21,233.51 233.74,233.35 235.53,233.19 236.80,233.10 238.59,232.97 240.12,232.89 241.39,232.83 242.67,232.77 244.20,232.71 245.22,232.68 246.50,232.63 247.52,232.60 249.31,232.56 251.09,232.51 253.64,232.46 255.43,232.43 257.47,232.40 258.75,232.38 260.02,232.36 261.81,232.34 263.60,232.32 265.38,232.30 267.17,232.28 268.70,232.27 271.76,232.25 273.29,232.24 278.40,232.20 280.44,232.19 284.01,232.17 285.54,232.16 286.56,232.16 289.37,232.14 292.18,232.13 293.20,232.13 294.22,232.12 295.24,232.12 296.26,232.11 297.54,232.11 298.56,232.10 299.58,232.10 300.60,232.10 301.62,232.09 302.89,232.09 304.43,232.08 305.45,232.08 306.47,232.08 307.49,232.07 308.51,232.07 309.53,232.07 310.80,232.07 311.83,232.06 312.85,232.06 313.87,232.06 314.89,232.05 316.16,232.05 317.18,232.05 318.21,232.04 319.23,232.04 320.50,232.04 321.78,232.04 323.56,232.03 324.84,232.03 326.37,232.03 328.16,232.02 329.94,232.02 331.73,232.02 333.26,232.01 334.54,232.01 336.07,232.01 337.60,232.01 339.39,232.01 341.43,232.00 343.47,232.00 345.00,232.00 346.53,232.00 347.81,231.99 349.59,231.99 351.38,231.99 353.17,231.99 354.19,231.99 355.97,231.98 358.01,231.98 360.31,231.98 362.35,231.98 364.65,231.98 366.69,231.97 368.22,231.97 370.77,231.97 373.07,231.97 375.62,231.97 377.92,231.96 381.24,231.96 385.06,231.96 387.62,231.96 391.44,231.96 394.51,231.95 397.31,231.95 402.16,231.95 403.95,231.95 408.29,231.95 411.86,231.95 414.15,231.95 417.98,231.94 420.53,231.94 425.38,231.94 428.96,231.94 432.53,231.94 436.87,231.94 439.93,231.94 442.74,231.94 448.35,231.94 451.92,231.94 454.22,231.92"/>
<line x1="78" y1="267.50" x2="772" y2="267.50" stroke="#9467bd" opacity="0.18" stroke-dasharray="3 4"/>
<polyline fill="none" stroke="#9467bd" stroke-width="2.0" points="91.35,231.92 92.37,231.92 93.39,231.92 94.66,231.92 95.68,231.92 96.71,231.92 97.73,231.93 98.75,231.93 99.77,231.93 101.04,231.93 102.06,231.92 103.08,231.92 104.11,231.92 105.13,231.92 106.40,231.92 107.42,231.92 108.44,231.92 109.46,231.92 110.48,231.92 111.51,231.92 112.78,231.92 113.80,231.92 114.82,231.92 115.84,231.92 116.86,231.92 117.89,231.92 119.16,231.92 120.18,231.92 121.20,231.92 122.22,231.92 123.24,231.92 124.52,231.92 125.54,231.92 126.56,231.92 127.58,231.92 128.60,231.92 129.62,231.92 130.90,231.92 131.92,231.92 132.94,231.92 133.96,231.92 134.98,231.92 136.26,231.92 137.28,231.92 138.30,231.92 139.32,231.92 140.34,231.93 141.36,231.93 142.64,231.93 143.66,231.93 144.68,231.93 145.70,231.93 146.72,231.93 148.00,231.93 149.02,231.92 150.04,231.92 151.06,231.92 152.08,231.91 153.10,231.91 154.38,231.91 155.40,231.91 156.42,231.91 157.44,231.91 158.46,231.91 159.74,231.92 160.76,231.92 161.78,231.92 162.80,231.92 163.82,231.92 164.84,231.92 166.12,231.92 167.14,231.92 168.16,231.92 169.18,231.92 170.20,231.92 171.22,231.92 172.49,231.92 173.52,231.92 174.54,231.92 175.56,231.92 176.58,231.92 177.85,231.92 178.87,231.92 179.90,231.92 180.92,231.92 181.94,231.92 183.47,231.92 184.74,231.92 186.02,231.92 187.04,231.92 188.06,231.92 189.34,231.92 190.61,231.92 191.63,231.92 192.65,231.92 193.68,231.92 194.70,231.93 195.72,231.93 196.99,231.93 198.01,231.92 199.03,231.91 200.05,231.89 201.08,231.85 202.35,231.80 203.37,231.76 204.39,231.76 205.41,231.83 206.43,232.02 207.46,232.40 208.73,233.14 209.75,234.01 210.77,235.18 211.79,236.71 212.81,238.60 214.09,241.42 215.11,243.97 216.13,246.66 217.15,249.34 218.17,251.91 219.19,254.28 220.47,256.89 221.49,258.66 222.51,260.16 223.53,261.39 224.55,262.43 225.57,263.27 226.85,264.13 227.87,264.69 228.89,265.14 229.91,265.51 230.93,265.80 232.72,266.20 233.99,266.38 235.02,266.53 236.04,266.64 237.06,266.73 238.08,266.81 239.35,266.89 240.37,266.94 241.65,267.00 242.93,267.04 243.95,267.08 245.48,267.12 247.26,267.16 248.54,267.18 250.07,267.20 251.60,267.22 253.90,267.25 255.69,267.27 257.22,267.28 259.26,267.29 260.28,267.30 261.81,267.31 263.34,267.32 264.87,267.33 265.89,267.33 266.91,267.34 268.44,267.34 269.46,267.35 271.76,267.36 272.78,267.36 274.06,267.36 275.33,267.37 277.38,267.37 280.69,267.39 282.22,267.39 284.27,267.39 286.56,267.40 287.84,267.40 289.37,267.41 292.69,267.41 294.22,267.42 295.75,267.42 297.79,267.42 300.85,267.43 304.17,267.43 308.51,267.44 309.78,267.44 313.36,267.45 315.14,267.45 316.42,267.45 318.21,267.45 320.50,267.45 321.78,267.45 322.80,267.45 323.82,267.46 324.84,267.46 326.37,267.46 328.16,267.46 329.43,267.46 330.45,267.46 331.47,267.46 332.75,267.46 333.77,267.46 334.79,267.46 335.81,267.46 336.83,267.46 337.85,267.47 339.13,267.47 340.15,267.47 341.68,267.47 342.96,267.47 343.98,267.47 345.25,267.47 346.28,267.47 347.30,267.47 348.32,267.47 349.85,267.47 350.87,267.47 352.14,267.47 353.17,267.47 354.19,267.47 355.21,267.47 356.23,267.48 357.76,267.48 358.78,267.48 359.80,267.48 360.82,267.48 361.84,267.48 363.37,267.48 365.41,267.48 366.69,267.48 367.97,267.48 368.99,267.48 370.26,267.48 371.54,267.48 372.81,267.48 374.09,267.48 375.37,267.48 376.90,267.48 378.17,267.48 380.47,267.48 381.75,267.48 384.04,267.48 386.08,267.48 387.87,267.48 390.17,267.48 393.48,267.49 395.53,267.49 398.33,267.50"/>
<line x1="88" y1="72" x2="110" y2="72" stroke="#1f77b4" stroke-width="2.4"/>
<text x="116" y="76" font-family="Arial, sans-serif" font-size="12">rising #1</text>
<line x1="88" y1="90" x2="110" y2="90" stroke="#d62728" stroke-width="2.4"/>
<text x="116" y="94" font-family="Arial, sans-serif" font-size="12">falling #2</text>
<line x1="88" y1="108" x2="110" y2="108" stroke="#2ca02c" stroke-width="2.4"/>
<text x="116" y="112" font-family="Arial, sans-serif" font-size="12">rising #3</text>
<line x1="88" y1="126" x2="110" y2="126" stroke="#9467bd" stroke-width="2.4"/>
<text x="116" y="130" font-family="Arial, sans-serif" font-size="12">falling #4</text>
<text x="425.00" y="322.00" text-anchor="middle" font-family="Arial, sans-serif" font-size="12">Time (s)</text>
<text x="420" y="42" font-family="Arial, sans-serif" font-size="11" fill="#555">solid=V-T voltage, faint horizontal=V_fixture</text>
</svg>