<svg xmlns="http://www.w3.org/2000/svg" width="800" height="450" viewBox="0 0 800 450">
<rect width="100%" height="100%" fill="#ffffff"/>
<text x="78" y="25" font-family="Arial, sans-serif" font-size="16" font-weight="700">E34_GPIO_I2CSCLIN_1V2_11 V-T Waveforms</text>
<rect x="78" y="54" width="694" height="230" fill="#fbfbfb" stroke="#c8c8c8"/>
<text transform="translate(18 169.00) rotate(-90)" text-anchor="middle" font-family="Arial, sans-serif" font-size="12">Voltage (V)</text>
<line x1="78.00" y1="54" x2="78.00" y2="284" stroke="#ececec"/>
<text x="78.00" y="302" text-anchor="middle" font-family="Arial, sans-serif" font-size="10">-347p</text>
<line x1="216.80" y1="54" x2="216.80" y2="284" stroke="#ececec"/>
<text x="216.80" y="302" text-anchor="middle" font-family="Arial, sans-serif" font-size="10">3.26n</text>
<line x1="355.60" y1="54" x2="355.60" y2="284" stroke="#ececec"/>
<text x="355.60" y="302" text-anchor="middle" font-family="Arial, sans-serif" font-size="10">6.87n</text>
<line x1="494.40" y1="54" x2="494.40" y2="284" stroke="#ececec"/>
<text x="494.40" y="302" text-anchor="middle" font-family="Arial, sans-serif" font-size="10">10.5n</text>
<line x1="633.20" y1="54" x2="633.20" y2="284" stroke="#ececec"/>
<text x="633.20" y="302" text-anchor="middle" font-family="Arial, sans-serif" font-size="10">14.1n</text>
<line x1="772.00" y1="54" x2="772.00" y2="284" stroke="#ececec"/>
<text x="772.00" y="302" text-anchor="middle" font-family="Arial, sans-serif" font-size="10">17.7n</text>
<line x1="78" y1="284.00" x2="772" y2="284.00" stroke="#ececec"/>
<text x="70" y="288.00" text-anchor="end" font-family="Arial, sans-serif" font-size="10">-0.105</text>
<line x1="78" y1="226.50" x2="772" y2="226.50" stroke="#ececec"/>
<text x="70" y="230.50" text-anchor="end" font-family="Arial, sans-serif" font-size="10">0.246</text>
<line x1="78" y1="169.00" x2="772" y2="169.00" stroke="#ececec"/>
<text x="70" y="173.00" text-anchor="end" font-family="Arial, sans-serif" font-size="10">0.598</text>
<line x1="78" y1="111.50" x2="772" y2="111.50" stroke="#ececec"/>
<text x="70" y="115.50" text-anchor="end" font-family="Arial, sans-serif" font-size="10">0.95</text>
<line x1="78" y1="54.00" x2="772" y2="54.00" stroke="#ececec"/>
<text x="70" y="58.00" text-anchor="end" font-family="Arial, sans-serif" font-size="10">1.3</text>
<line x1="78" y1="70.59" x2="772" y2="70.59" stroke="#1f77b4" opacity="0.18" stroke-dasharray="3 4"/>
<polyline fill="none" stroke="#1f77b4" stroke-width="2.0" points="91.35,139.40 96.08,139.40 100.85,139.40 106.77,139.40 111.54,139.40 116.27,139.39 121.01,139.39 125.78,139.39 128.58,139.39 129.31,139.39 129.62,139.40 129.97,139.40 130.24,139.40 130.58,139.40 131.01,139.40 131.31,139.40 131.62,139.40 131.93,139.40 132.24,139.40 132.58,139.40 133.05,139.40 133.43,139.40 133.78,139.40 134.05,139.40 134.43,139.40 134.82,139.40 135.28,139.40 135.62,139.40 136.01,139.40 136.43,139.40 136.82,139.40 137.32,139.40 137.66,139.40 138.01,139.40 138.24,139.40 138.47,139.40 138.82,139.40 139.47,139.40 139.85,139.40 140.05,139.40 140.55,139.39 140.82,139.39 141.47,139.39 142.12,139.39 142.39,139.38 142.86,139.38 143.59,139.37 144.32,139.36 144.78,139.35 145.05,139.35 145.70,139.34 146.89,139.31 147.28,139.30 149.43,139.27 150.20,139.34 150.74,139.43 152.32,139.96 153.09,140.32 154.20,140.72 154.47,140.76 154.97,140.69 155.55,140.33 156.24,139.41 156.63,138.65 157.43,136.55 157.97,134.76 158.20,133.91 158.47,132.85 158.74,131.74 159.24,129.52 159.59,127.89 159.97,126.00 160.40,123.83 160.78,121.81 161.32,118.92 161.70,116.82 162.20,114.09 162.59,112.00 163.17,108.92 163.51,107.12 164.01,104.59 164.44,102.54 164.74,101.11 164.97,100.05 165.21,99.04 165.47,97.88 165.78,96.58 166.05,95.49 166.51,93.68 167.05,91.67 167.67,89.51 168.05,88.23 168.59,86.57 168.94,85.55 169.28,84.61 169.82,83.24 170.48,81.74 170.98,80.71 172.13,78.75 172.98,77.61 173.59,76.89 174.44,76.05 175.09,75.51 176.51,74.55 176.90,74.35 177.36,74.12 177.55,74.02 178.75,73.53 179.94,73.14 180.90,72.89 181.94,72.65 182.75,72.49 183.94,72.29 185.86,72.04 186.44,71.97 187.40,71.88 187.79,71.85 188.79,71.77 189.94,71.70 191.94,71.61 195.83,71.51 197.98,71.49 201.75,71.47 202.71,71.46 203.75,71.45 204.25,71.44 205.64,71.41 206.56,71.38 207.94,71.35 208.87,71.32 210.06,71.28 211.33,71.24 212.41,71.20 213.67,71.17 214.18,71.15 214.79,71.13 215.33,71.12 215.98,71.10 216.33,71.09 216.98,71.08 217.64,71.06 218.37,71.04 219.06,71.03 219.56,71.02 220.02,71.01 220.71,71.00 221.02,70.99 221.75,70.98 222.25,70.97 222.91,70.96 223.60,70.94 223.95,70.94 224.79,70.92 225.64,70.91 226.33,70.90 226.91,70.89 227.68,70.88 227.99,70.88 228.87,70.87 229.83,70.85 230.95,70.84 231.49,70.83 231.99,70.83 233.02,70.82 233.72,70.81 234.26,70.81 234.87,70.80 235.49,70.79 236.68,70.78 237.56,70.78 239.64,70.76 240.68,70.75 241.76,70.74 242.53,70.74 244.10,70.73 246.57,70.72 247.72,70.71 248.03,70.71 248.64,70.71 248.99,70.70 249.57,70.70 250.41,70.70 251.18,70.69 252.18,70.69 253.45,70.68 253.99,70.68 255.68,70.68 256.41,70.67 259.45,70.66 261.11,70.66 262.30,70.66 264.76,70.65 266.15,70.65 268.76,70.64 271.80,70.64 275.03,70.63 277.72,70.63 282.46,70.62 288.42,70.62 292.77,70.61 295.34,70.61 298.27,70.61 301.46,70.61 305.04,70.61 307.73,70.61 310.23,70.61 312.15,70.61 315.69,70.61 320.46,70.60 325.19,70.60 327.58,70.60 331.16,70.60 335.89,70.60 339.39,70.60 343.01,70.60 346.70,70.60 350.12,70.60 354.12,70.60 358.24,70.60 362.01,70.60 367.93,70.60 370.32,70.60 375.05,70.60 379.82,70.60 382.20,70.60 385.74,70.60 390.51,70.60 392.90,70.60 397.63,70.60 402.36,70.60 405.94,70.60 411.86,70.60 416.63,70.59 421.36,70.59 426.10,70.59 428.48,70.59 433.25,70.59 439.18,70.59 443.91,70.59 446.25,70.59"/>
<line x1="78" y1="70.59" x2="772" y2="70.59" stroke="#d62728" opacity="0.18" stroke-dasharray="3 4"/>
<polyline fill="none" stroke="#d62728" stroke-width="2.0" points="91.35,70.59 95.31,70.59 100.27,70.59 109.20,70.59 115.89,70.59 121.43,70.59 124.81,70.60 130.24,70.59 132.85,70.59 135.97,70.59 138.01,70.59 138.82,70.59 142.66,70.59 147.59,70.59 149.39,70.59 150.70,70.58 151.97,70.58 153.20,70.58 154.70,70.58 155.43,70.58 156.28,70.58 157.47,70.58 158.13,70.58 158.43,70.58 159.28,70.59 159.43,70.59 159.70,70.59 160.05,70.59 160.74,70.60 161.36,70.61 162.09,70.62 162.74,70.63 163.20,70.64 163.82,70.65 164.47,70.66 164.86,70.66 165.21,70.66 165.78,70.64 166.24,70.61 166.82,70.55 167.40,70.48 168.40,70.35 169.48,70.21 170.13,70.14 171.17,70.05 171.67,70.02 172.40,69.98 173.51,69.94 174.55,69.91 175.44,69.89 176.09,69.88 177.32,69.87 178.40,69.86 179.98,69.86 180.78,69.87 181.94,69.88 182.25,69.88 183.02,69.89 184.17,69.92 184.94,69.93 185.63,69.94 187.63,69.97 188.98,69.99 189.86,70.00 190.75,70.02 192.21,70.07 193.21,70.12 194.02,70.16 194.79,70.22 195.98,70.33 197.56,70.56 197.98,70.63 198.75,70.79 199.29,70.92 200.71,71.32 202.25,71.89 203.17,72.30 203.90,72.65 205.17,73.34 205.64,73.62 206.06,73.88 207.40,74.81 209.48,76.49 210.41,77.36 210.87,77.80 211.29,78.24 211.83,78.80 212.41,79.40 213.79,80.99 214.37,81.68 215.68,83.29 216.33,84.14 217.64,85.85 218.10,86.47 219.18,87.93 219.83,88.81 220.45,89.65 221.33,90.85 222.45,92.37 223.02,93.14 223.29,93.50 224.18,94.68 224.79,95.50 225.37,96.27 226.45,97.65 227.56,99.08 228.02,99.67 228.37,100.11 229.22,101.14 231.02,103.28 231.95,104.38 233.45,106.02 235.02,107.71 236.06,108.82 236.72,109.51 237.87,110.59 239.68,112.29 241.26,113.78 241.99,114.37 243.76,115.75 245.99,117.50 247.57,118.74 249.34,119.94 251.30,121.25 252.41,122.00 253.68,122.71 254.99,123.41 256.49,124.22 259.68,125.92 263.15,127.46 264.95,128.26 267.68,129.28 270.61,130.35 272.80,131.05 275.07,131.75 277.46,132.42 279.34,132.89 280.34,133.13 280.88,133.26 281.53,133.42 281.99,133.52 282.53,133.64 283.46,133.83 285.84,134.32 286.57,134.45 287.26,134.58 287.88,134.69 288.92,134.88 289.96,135.05 292.23,135.40 294.04,135.66 294.57,135.73 296.34,135.97 297.88,136.16 298.38,136.22 299.31,136.32 299.57,136.35 301.92,136.61 304.15,136.82 307.00,137.08 308.38,137.19 308.92,137.23 309.42,137.27 309.96,137.31 310.50,137.35 311.04,137.39 311.54,137.43 312.96,137.53 314.00,137.59 314.85,137.64 316.65,137.75 318.42,137.85 320.19,137.94 321.66,138.01 323.69,138.11 325.43,138.18 326.39,138.22 327.93,138.27 330.16,138.35 332.77,138.45 335.62,138.52 339.08,138.61 341.77,138.68 343.85,138.73 347.24,138.78 350.24,138.82 353.28,138.87 357.39,138.93 361.39,138.98 364.82,139.01 368.09,139.04 372.59,139.08 377.05,139.12 381.51,139.15 385.97,139.17 390.44,139.20 394.90,139.22 400.98,139.24 408.02,139.26 412.75,139.27 419.44,139.29 426.13,139.30 432.83,139.31 440.83,139.32 448.45,139.33 455.14,139.33 461.83,139.34 470.76,139.34 477.45,139.35 488.65,139.35 495.34,139.35 504.26,139.35 513.19,139.36 522.11,139.36 532.08,139.36 539.96,139.36 548.89,139.37 557.81,139.37 566.74,139.37 575.66,139.37 586.82,139.37 595.78,139.37 604.70,139.37 613.63,139.38 622.55,139.38 631.48,139.38 642.63,139.38 651.56,139.38 660.48,139.38 669.41,139.38 678.33,139.38 689.49,139.38 698.41,139.39 707.38,139.39 716.30,139.39 725.22,139.39 734.15,139.39 745.31,139.39 754.23,139.39 758.65,139.39"/>
<line x1="78" y1="266.79" x2="772" y2="266.79" stroke="#2ca02c" opacity="0.18" stroke-dasharray="3 4"/>
<polyline fill="none" stroke="#2ca02c" stroke-width="2.0" points="91.35,266.79 99.69,266.79 108.08,266.79 118.54,266.78 126.89,266.79 127.62,266.79 127.97,266.79 128.35,266.79 128.62,266.79 129.08,266.79 130.01,266.79 130.39,266.79 130.78,266.79 131.20,266.79 132.43,266.79 132.78,266.79 133.16,266.79 133.47,266.79 133.85,266.79 134.58,266.79 135.66,266.79 136.39,266.79 137.35,266.79 137.93,266.79 138.97,266.79 139.78,266.79 140.66,266.79 141.55,266.79 142.82,266.79 143.62,266.79 144.74,266.79 145.70,266.79 146.39,266.79 147.13,266.79 147.82,266.79 148.55,266.79 149.47,266.78 150.01,266.77 151.09,266.76 151.97,266.75 152.55,266.75 153.09,266.75 153.66,266.77 154.24,266.80 154.59,266.83 155.01,266.87 155.70,266.94 156.17,266.98 156.63,267.03 157.20,267.08 157.59,267.11 158.24,267.16 158.51,267.17 159.47,267.22 160.36,267.26 161.05,267.29 162.13,267.33 162.63,267.34 163.44,267.38 164.55,267.45 165.24,267.50 166.01,267.58 166.63,267.65 167.24,267.72 168.67,267.91 169.24,267.98 169.98,268.05 170.44,268.09 170.98,268.12 171.74,268.14 172.74,268.13 173.13,268.12 173.63,268.11 174.09,268.09 174.51,268.06 174.98,268.04 175.75,267.99 176.17,267.97 176.98,267.92 177.40,267.89 178.25,267.84 179.13,267.78 179.59,267.75 180.59,267.69 181.25,267.65 182.40,267.58 183.36,267.52 184.98,267.43 185.71,267.39 187.17,267.31 187.75,267.27 188.40,267.22 189.40,267.12 189.82,267.07 190.59,266.97 191.48,266.82 191.94,266.72 192.67,266.55 193.83,266.22 194.63,265.93 195.17,265.71 196.90,264.85 198.02,264.15 199.83,262.77 201.37,261.39 202.02,260.76 203.37,259.33 204.87,257.59 206.06,256.09 207.10,254.73 208.25,253.18 209.06,252.05 210.29,250.32 210.52,249.99 211.87,248.06 213.29,246.03 214.44,244.39 215.10,243.47 215.87,242.40 217.14,240.65 218.60,238.69 220.18,236.64 221.21,235.29 222.29,234.00 223.98,231.97 225.14,230.63 227.02,228.62 228.29,227.26 229.37,226.17 231.06,224.60 233.26,222.58 234.91,221.25 235.91,220.48 237.72,219.10 239.14,218.01 240.29,217.28 241.91,216.27 244.64,214.56 247.33,213.21 250.26,211.74 252.37,210.85 254.68,209.88 258.49,208.52 260.72,207.82 262.95,207.19 265.57,206.52 268.57,205.84 271.15,205.32 273.61,204.90 275.34,204.62 278.34,204.18 281.26,203.83 282.30,203.70 285.11,203.42 286.61,203.27 287.92,203.17 289.07,203.07 291.30,202.89 292.92,202.79 295.57,202.62 296.88,202.54 298.34,202.47 300.46,202.36 302.34,202.27 304.65,202.18 306.00,202.13 308.69,202.04 310.46,201.98 311.65,201.94 313.58,201.89 316.46,201.83 317.81,201.80 319.89,201.76 322.46,201.70 324.23,201.66 326.93,201.63 328.77,201.61 331.81,201.57 334.62,201.53 336.00,201.51 338.81,201.48 341.43,201.45 343.39,201.44 346.47,201.41 350.62,201.38 352.74,201.36 354.81,201.36 359.01,201.34 361.24,201.33 365.28,201.31 368.47,201.30 372.74,201.28 377.82,201.27 379.90,201.26 384.59,201.25 387.32,201.24 392.48,201.23 397.55,201.23 401.75,201.22 407.09,201.22 412.75,201.21 417.13,201.20 423.83,201.20 430.10,201.19 436.37,201.19 442.64,201.19 446.83,201.18 455.02,201.18 461.45,201.18 467.72,201.18 473.99,201.17 482.38,201.17 490.72,201.17 496.99,201.17 507.46,201.17 513.73,201.17 522.11,201.17 530.00,201.17 536.73,201.17 545.12,201.16 555.54,201.16 563.93,201.16 572.28,201.16 580.66,201.16 589.01,201.16 597.40,201.16 607.82,201.16 616.21,201.16 624.55,201.16 632.94,201.16 641.29,201.16 651.75,201.16 660.10,201.16 668.48,201.16 676.83,201.16 685.22,201.16 693.57,201.16 704.03,201.16 712.38,201.16 716.53,201.15"/>
<line x1="78" y1="266.79" x2="772" y2="266.79" stroke="#9467bd" opacity="0.18" stroke-dasharray="3 4"/>
<polyline fill="none" stroke="#9467bd" stroke-width="2.0" points="91.35,201.15 95.81,201.15 100.27,201.15 104.73,201.15 109.20,201.15 113.70,201.15 118.16,201.15 122.62,201.14 127.08,201.13 131.81,201.13 132.20,201.13 132.43,201.13 132.89,201.13 133.20,201.13 133.58,201.13 133.82,201.13 134.12,201.13 134.39,201.13 135.01,201.14 135.39,201.14 135.78,201.14 136.01,201.14 136.24,201.14 136.47,201.14 136.74,201.14 137.08,201.14 137.66,201.14 138.32,201.15 139.16,201.15 139.62,201.15 140.12,201.15 140.62,201.15 141.12,201.15 141.66,201.15 142.20,201.15 142.59,201.15 143.01,201.15 143.70,201.15 144.24,201.15 144.78,201.15 145.47,201.15 146.01,201.15 146.62,201.15 147.13,201.15 147.66,201.15 148.28,201.15 148.66,201.15 149.28,201.15 149.89,201.16 150.32,201.16 150.78,201.16 151.43,201.17 151.93,201.17 152.70,201.17 153.20,201.18 153.90,201.18 154.55,201.18 155.13,201.19 156.05,201.19 156.70,201.20 157.24,201.20 157.78,201.20 158.47,201.21 159.24,201.21 160.05,201.21 160.55,201.20 160.97,201.19 161.55,201.16 161.97,201.13 162.36,201.10 163.05,201.01 163.40,200.96 163.94,200.86 164.28,200.78 164.67,200.69 165.09,200.58 165.94,200.36 166.36,200.27 166.78,200.22 167.24,200.24 167.55,200.30 168.05,200.48 168.40,200.68 168.78,200.96 169.17,201.33 169.36,201.54 169.78,202.07 170.40,203.00 170.94,203.96 171.40,204.87 172.01,206.19 172.59,207.52 173.24,209.11 173.94,210.88 174.21,211.58 174.94,213.53 175.67,215.52 176.28,217.20 177.13,219.54 177.67,221.02 178.44,223.12 179.02,224.70 179.82,226.87 180.67,229.12 181.09,230.22 181.71,231.81 182.40,233.55 182.90,234.77 183.48,236.15 184.05,237.48 184.94,239.45 185.29,240.19 185.90,241.47 186.44,242.56 187.29,244.18 187.94,245.38 188.67,246.67 189.44,247.96 190.09,249.01 190.82,250.13 191.86,251.63 192.98,253.13 194.09,254.49 195.13,255.67 195.98,256.58 196.90,257.52 198.25,258.78 199.02,259.47 200.63,260.78 201.56,261.47 202.52,262.12 204.13,263.10 205.75,263.90 207.17,264.47 208.56,264.91 210.79,265.43 212.98,265.76 215.79,266.03 217.25,266.12 218.10,266.17 219.21,266.23 219.75,266.25 220.87,266.30 221.64,266.33 222.98,266.37 224.14,266.40 225.41,266.43 226.37,266.46 226.75,266.47 227.49,266.48 228.18,266.49 228.99,266.51 229.83,266.52 230.68,266.53 231.14,266.54 231.87,266.55 232.72,266.56 233.29,266.57 234.26,266.58 235.41,266.59 236.22,266.60 236.95,266.61 237.64,266.62 238.76,266.62 239.87,266.63 240.99,266.64 241.95,266.65 242.49,266.65 243.26,266.66 244.10,266.66 244.95,266.67 245.80,266.67 246.57,266.67 247.53,266.68 247.91,266.68 248.80,266.69 249.95,266.69 250.84,266.69 251.91,266.70 252.64,266.70 253.60,266.70 254.61,266.71 255.64,266.71 256.61,266.71 257.72,266.72 258.49,266.72 259.76,266.72 261.11,266.72 262.22,266.73 263.34,266.73 264.45,266.73 265.68,266.73 267.42,266.74 268.38,266.74 269.34,266.74 271.15,266.74 273.38,266.75 274.49,266.75 276.22,266.75 277.84,266.75 278.99,266.75 281.19,266.76 282.30,266.76 284.53,266.76 286.15,266.76 288.34,266.76 290.50,266.76 293.30,266.76 294.57,266.76 297.96,266.77 300.19,266.77 302.42,266.77 304.65,266.77 308.00,266.77 311.35,266.77 315.81,266.77 320.27,266.77 324.73,266.77 329.19,266.78 333.70,266.78 339.27,266.78 343.74,266.78 348.20,266.78 352.66,266.78 357.12,266.78 361.59,266.78 367.16,266.78 371.66,266.78 376.13,266.78 380.59,266.78 385.05,266.78 390.63,266.78 395.09,266.78 399.55,266.78 404.02,266.78 408.52,266.78 412.98,266.78 418.56,266.78 423.02,266.78 425.21,266.79"/>
<line x1="88" y1="72" x2="110" y2="72" stroke="#1f77b4" stroke-width="2.4"/>
<text x="116" y="76" font-family="Arial, sans-serif" font-size="12">rising #1</text>
<line x1="88" y1="90" x2="110" y2="90" stroke="#d62728" stroke-width="2.4"/>
<text x="116" y="94" font-family="Arial, sans-serif" font-size="12">falling #2</text>
<line x1="88" y1="108" x2="110" y2="108" stroke="#2ca02c" stroke-width="2.4"/>
<text x="116" y="112" font-family="Arial, sans-serif" font-size="12">rising #3</text>
<line x1="88" y1="126" x2="110" y2="126" stroke="#9467bd" stroke-width="2.4"/>
<text x="116" y="130" font-family="Arial, sans-serif" font-size="12">falling #4</text>
<rect x="78" y="342" width="694" height="44" fill="#fffdf7" stroke="#d8c6a1" rx="4"/>
<text x="88" y="359" font-family="Arial, sans-serif" font-size="11" font-weight="700" fill="#4b3b21">Findings needing attention</text>
<rect x="88" y="366" width="7" height="7" fill="#b54708"/>
<text x="102" y="373" font-family="Arial, sans-serif" font-size="11" fill="#333">WARN 5.5.4: Ramp dt versus V-T 20-80% evidence needs review | avg Ramp dt=1.039e-09s, avg V-T 20-80% span=6.986e-...</text>
<text x="425.00" y="322.00" text-anchor="middle" font-family="Arial, sans-serif" font-size="12">Time (s)</text>
<text x="420" y="42" font-family="Arial, sans-serif" font-size="11" fill="#555">solid=V-T voltage, faint horizontal=V_fixture</text>
</svg>