<svg xmlns="http://www.w3.org/2000/svg" width="800" height="450" viewBox="0 0 800 450">
<rect width="100%" height="100%" fill="#ffffff"/>
<text x="78" y="25" font-family="Arial, sans-serif" font-size="16" font-weight="700">E34_GPIO_I2CSCLIN_1V2_11_ISOSW V-T Waveforms</text>
<rect x="78" y="54" width="694" height="230" fill="#fbfbfb" stroke="#c8c8c8"/>
<text transform="translate(18 169.00) rotate(-90)" text-anchor="middle" font-family="Arial, sans-serif" font-size="12">Voltage (V)</text>
<line x1="78.00" y1="54" x2="78.00" y2="284" stroke="#ececec"/>
<text x="78.00" y="302" text-anchor="middle" font-family="Arial, sans-serif" font-size="10">-420p</text>
<line x1="216.80" y1="54" x2="216.80" y2="284" stroke="#ececec"/>
<text x="216.80" y="302" text-anchor="middle" font-family="Arial, sans-serif" font-size="10">3.95n</text>
<line x1="355.60" y1="54" x2="355.60" y2="284" stroke="#ececec"/>
<text x="355.60" y="302" text-anchor="middle" font-family="Arial, sans-serif" font-size="10">8.31n</text>
<line x1="494.40" y1="54" x2="494.40" y2="284" stroke="#ececec"/>
<text x="494.40" y="302" text-anchor="middle" font-family="Arial, sans-serif" font-size="10">12.7n</text>
<line x1="633.20" y1="54" x2="633.20" y2="284" stroke="#ececec"/>
<text x="633.20" y="302" text-anchor="middle" font-family="Arial, sans-serif" font-size="10">17n</text>
<line x1="772.00" y1="54" x2="772.00" y2="284" stroke="#ececec"/>
<text x="772.00" y="302" text-anchor="middle" font-family="Arial, sans-serif" font-size="10">21.4n</text>
<line x1="78" y1="284.00" x2="772" y2="284.00" stroke="#ececec"/>
<text x="70" y="288.00" text-anchor="end" font-family="Arial, sans-serif" font-size="10">-0.11</text>
<line x1="78" y1="226.50" x2="772" y2="226.50" stroke="#ececec"/>
<text x="70" y="230.50" text-anchor="end" font-family="Arial, sans-serif" font-size="10">0.244</text>
<line x1="78" y1="169.00" x2="772" y2="169.00" stroke="#ececec"/>
<text x="70" y="173.00" text-anchor="end" font-family="Arial, sans-serif" font-size="10">0.597</text>
<line x1="78" y1="111.50" x2="772" y2="111.50" stroke="#ececec"/>
<text x="70" y="115.50" text-anchor="end" font-family="Arial, sans-serif" font-size="10">0.95</text>
<line x1="78" y1="54.00" x2="772" y2="54.00" stroke="#ececec"/>
<text x="70" y="58.00" text-anchor="end" font-family="Arial, sans-serif" font-size="10">1.3</text>
<line x1="78" y1="70.88" x2="772" y2="70.88" stroke="#1f77b4" opacity="0.18" stroke-dasharray="3 4"/>
<polyline fill="none" stroke="#1f77b4" stroke-width="2.0" points="91.35,145.12 96.97,145.12 102.57,145.12 109.59,145.12 115.18,145.12 120.81,145.12 126.40,145.12 132.03,145.12 137.65,145.12 144.65,145.12 150.27,145.12 155.86,145.12 161.49,145.12 167.08,145.12 172.71,145.12 176.90,145.12 181.39,145.13 182.15,145.13 182.69,145.13 183.23,145.13 183.93,145.13 184.63,145.13 184.98,145.13 185.39,145.13 186.12,145.13 186.47,145.13 186.85,145.13 187.33,145.13 187.62,145.13 188.12,145.13 188.57,145.13 189.24,145.13 189.65,145.13 190.03,145.13 190.54,145.13 191.11,145.13 191.65,145.13 192.26,145.13 192.54,145.13 193.02,145.13 193.53,145.13 193.91,145.13 194.32,145.13 194.99,145.13 195.34,145.13 195.91,145.13 196.17,145.14 196.55,145.14 197.18,145.14 197.50,145.14 197.98,145.14 198.10,145.14 199.18,145.14 200.20,145.14 200.90,145.14 201.03,145.14 201.19,145.14 202.11,145.14 202.39,145.14 203.57,145.14 204.05,145.14 204.65,145.14 205.51,145.14 208.15,145.13 209.26,145.13 211.52,145.12 211.64,145.12 212.12,145.12 214.79,145.11 215.30,145.10 215.74,145.10 216.89,145.09 217.84,145.09 220.07,145.07 222.64,145.05 223.78,145.04 226.01,145.01 227.53,144.99 228.90,144.98 229.79,144.97 231.03,144.98 231.95,145.00 232.59,145.03 233.03,145.06 233.48,145.09 237.23,145.64 240.44,146.52 242.85,147.14 244.03,147.28 244.89,147.21 245.75,146.91 246.35,146.51 247.18,145.69 247.68,145.01 248.61,143.38 249.12,142.26 249.85,140.37 250.55,138.30 251.50,135.06 251.91,133.53 252.52,131.19 253.09,128.88 253.63,126.64 254.33,123.66 255.06,120.52 255.60,118.21 256.33,115.11 257.06,112.10 257.63,109.83 258.43,106.82 258.84,105.32 259.51,103.02 260.14,100.93 260.72,99.15 261.29,97.45 262.27,94.68 262.53,94.00 263.13,92.43 263.80,90.78 264.21,89.79 265.29,87.41 266.09,85.80 266.66,84.74 267.58,83.18 268.12,82.36 269.58,80.44 270.63,79.31 271.59,78.43 272.06,78.05 272.35,77.82 273.27,77.20 274.06,76.72 276.07,75.74 276.19,75.69 277.75,75.09 279.31,74.59 279.79,74.45 282.07,73.88 284.33,73.47 285.76,73.26 286.46,73.18 287.83,73.03 288.97,72.93 289.67,72.87 290.27,72.82 291.48,72.73 291.96,72.70 292.75,72.65 296.15,72.48 298.95,72.38 303.18,72.25 308.77,72.06 313.51,71.91 319.99,71.71 324.22,71.60 327.49,71.52 332.64,71.41 334.13,71.37 339.63,71.28 346.66,71.18 349.45,71.15 353.68,71.10 357.88,71.07 363.50,71.03 366.30,71.01 367.70,71.01 369.16,71.00 370.21,70.99 371.06,70.99 372.78,70.98 373.86,70.98 374.88,70.98 375.83,70.97 376.75,70.97 377.61,70.97 378.76,70.96 379.84,70.96 380.66,70.96 381.71,70.96 382.60,70.95 383.46,70.95 384.60,70.95 385.81,70.95 386.77,70.94 387.43,70.94 388.74,70.94 389.59,70.94 391.25,70.94 392.61,70.94 393.60,70.93 394.36,70.93 395.76,70.93 397.13,70.93 398.33,70.93 398.84,70.93 399.96,70.92 401.35,70.92 402.63,70.92 403.04,70.92 404.18,70.92 406.41,70.92 406.95,70.92 407.27,70.92 407.61,70.92 407.93,70.92 408.73,70.92 409.52,70.92 411.65,70.91 414.16,70.91 416.80,70.91 417.79,70.91 418.04,70.91 418.48,70.91 418.83,70.91 419.60,70.91 421.03,70.91 421.44,70.91 421.95,70.91 422.39,70.91 423.51,70.91 426.62,70.91 432.21,70.91 434.09,70.90 436.51,70.90 439.24,70.90 440.64,70.90 446.26,70.90 451.86,70.90 457.48,70.90 463.08,70.90 468.70,70.90 475.73,70.90 480.27,70.90 484.12,70.90 489.74,70.90 495.33,70.89 499.18,70.89 503.76,70.89 507.98,70.89 510.75,70.89"/>
<line x1="78" y1="70.88" x2="772" y2="70.88" stroke="#d62728" opacity="0.18" stroke-dasharray="3 4"/>
<polyline fill="none" stroke="#d62728" stroke-width="2.0" points="91.35,70.88 98.05,70.88 106.98,70.88 118.14,70.88 127.07,70.88 135.97,70.88 144.90,70.88 153.83,70.88 162.76,70.88 173.92,70.88 180.62,70.88 182.91,70.88 183.67,70.88 185.55,70.88 187.01,70.88 189.55,70.88 191.21,70.88 191.56,70.88 192.57,70.88 195.18,70.88 198.71,70.88 202.43,70.88 202.62,70.88 203.35,70.88 204.30,70.88 205.67,70.88 208.15,70.88 208.97,70.88 209.64,70.88 211.42,70.88 211.87,70.88 212.41,70.88 213.52,70.88 214.31,70.88 215.01,70.88 215.90,70.88 216.19,70.88 216.76,70.88 218.35,70.88 219.30,70.88 219.78,70.88 220.32,70.88 221.15,70.88 222.45,70.88 223.21,70.88 224.52,70.88 225.15,70.88 225.37,70.88 226.45,70.88 227.60,70.88 229.00,70.88 229.73,70.88 231.03,70.88 232.17,70.89 233.57,70.89 234.59,70.89 236.24,70.90 237.51,70.91 238.28,70.92 239.80,70.93 241.04,70.94 242.28,70.95 243.87,70.97 245.08,70.98 246.95,70.99 248.61,70.96 249.69,70.90 250.04,70.88 250.23,70.86 250.67,70.83 252.29,70.68 253.60,70.55 254.71,70.43 256.52,70.25 257.47,70.17 258.46,70.10 260.65,69.98 263.58,69.89 267.68,69.86 270.66,69.90 276.61,70.00 284.84,70.23 285.22,70.26 285.60,70.28 286.36,70.33 286.49,70.34 287.00,70.38 287.76,70.45 289.51,70.65 292.02,71.05 292.94,71.24 293.29,71.32 294.44,71.60 295.07,71.78 296.15,72.12 298.12,72.84 298.92,73.16 301.14,74.22 304.04,75.83 305.53,76.75 306.51,77.39 309.72,79.63 310.07,79.89 311.09,80.66 311.38,80.88 311.89,81.29 312.65,81.89 314.52,83.47 316.62,85.36 316.97,85.69 317.77,86.44 318.08,86.73 320.05,88.68 322.25,90.93 325.11,93.94 327.20,96.19 329.30,98.45 331.43,100.71 333.59,102.98 334.32,103.73 336.87,106.26 338.87,108.23 341.32,110.49 343.54,112.50 345.80,114.35 348.44,116.51 351.42,118.76 354.60,121.08 357.05,122.54 360.83,124.79 362.10,125.55 364.99,127.12 366.33,127.81 367.76,128.56 371.03,130.06 372.56,130.74 374.75,131.65 376.72,132.41 378.57,133.11 379.61,133.49 380.63,133.82 382.47,134.42 385.40,135.33 389.56,136.48 394.23,137.59 399.35,138.64 401.77,139.09 406.31,139.84 412.45,140.59 414.96,140.90 419.44,141.38 423.98,141.81 427.45,142.10 432.79,142.44 435.08,142.59 436.06,142.66 436.31,142.67 436.70,142.70 436.95,142.71 437.68,142.76 438.73,142.83 438.98,142.84 439.43,142.87 441.75,142.99 443.59,143.08 444.20,143.10 445.44,143.16 446.23,143.20 451.00,143.41 453.25,143.52 457.39,143.64 458.72,143.69 460.22,143.73 461.07,143.76 461.71,143.78 462.44,143.80 463.36,143.83 464.28,143.86 465.01,143.88 466.22,143.92 468.61,143.99 469.30,144.01 469.59,144.01 470.42,144.03 470.83,144.04 471.66,144.05 472.80,144.08 473.53,144.09 474.49,144.11 475.25,144.13 478.71,144.19 481.92,144.26 484.69,144.31 486.94,144.36 489.23,144.39 492.63,144.43 495.33,144.46 498.29,144.50 502.01,144.54 505.28,144.58 508.87,144.63 512.88,144.67 515.58,144.68 519.87,144.71 524.00,144.74 526.96,144.76 531.03,144.78 535.22,144.81 539.16,144.84 544.41,144.86 548.89,144.88 553.34,144.89 557.82,144.90 562.27,144.92 568.98,144.94 575.01,144.96 580.13,144.98 586.84,144.99 591.29,144.99 597.99,145.00 606.92,145.01 613.60,145.02 620.30,145.03 627.01,145.04 633.68,145.05 641.47,145.06 651.55,145.06 658.25,145.06 667.18,145.07 673.86,145.07 682.79,145.08 693.98,145.08 700.65,145.08 709.58,145.09 718.51,145.09 727.44,145.09 736.37,145.09 746.39,145.10 754.24,145.10 758.65,145.11"/>
<line x1="78" y1="266.13" x2="772" y2="266.13" stroke="#2ca02c" opacity="0.18" stroke-dasharray="3 4"/>
<polyline fill="none" stroke="#2ca02c" stroke-width="2.0" points="91.35,266.13 99.80,266.13 108.29,266.13 118.87,266.13 127.32,266.13 135.78,266.13 144.26,266.13 152.72,266.13 161.17,266.13 171.76,266.13 178.11,266.13 179.57,266.13 180.40,266.13 180.88,266.13 181.61,266.13 183.48,266.13 184.47,266.13 185.61,266.13 187.90,266.13 188.95,266.13 189.78,266.13 190.35,266.13 190.86,266.13 191.43,266.13 192.07,266.13 192.76,266.13 193.81,266.13 195.05,266.13 195.94,266.13 196.74,266.13 197.63,266.13 198.77,266.13 199.76,266.13 200.93,266.13 202.08,266.13 203.28,266.13 204.33,266.13 205.48,266.13 206.08,266.13 207.16,266.13 208.34,266.13 209.35,266.13 210.34,266.13 211.33,266.13 211.96,266.13 212.91,266.13 213.68,266.14 214.79,266.14 215.78,266.14 216.66,266.14 217.71,266.14 218.64,266.14 219.49,266.14 220.67,266.14 221.40,266.14 222.13,266.14 223.05,266.14 223.88,266.14 224.67,266.14 225.95,266.14 226.87,266.14 227.88,266.14 228.90,266.14 230.24,266.13 231.22,266.13 232.37,266.12 233.35,266.12 234.62,266.11 235.61,266.10 236.69,266.09 238.05,266.09 239.45,266.08 240.50,266.08 241.49,266.09 242.50,266.10 242.92,266.12 243.62,266.14 244.19,266.17 245.02,266.22 246.67,266.37 247.94,266.48 249.37,266.61 250.35,266.68 251.72,266.78 253.37,266.88 254.45,266.95 255.88,267.02 256.74,267.06 257.98,267.09 258.78,267.09 260.05,267.08 260.75,267.09 261.83,267.13 262.75,267.20 263.42,267.27 264.34,267.38 266.06,267.61 267.45,267.80 268.66,267.95 269.52,268.02 271.20,268.11 272.57,268.14 273.87,268.11 275.84,268.00 278.32,267.80 281.79,267.53 283.82,267.38 285.70,267.20 287.70,266.90 288.94,266.61 290.43,266.17 291.39,265.81 293.74,264.70 295.74,263.58 297.04,262.80 298.47,261.92 300.70,260.52 301.97,259.70 303.30,258.82 305.08,257.59 307.18,256.03 308.33,255.13 310.46,253.29 311.66,252.14 313.54,250.28 314.65,249.11 316.46,247.12 318.02,245.30 319.93,243.03 321.80,240.75 323.68,238.44 326.12,235.42 326.76,234.65 328.67,232.35 329.94,230.84 331.94,228.56 333.85,226.39 335.37,224.77 337.85,222.15 339.12,220.95 341.54,218.67 343.16,217.16 345.92,214.86 347.58,213.48 349.83,211.81 351.65,210.48 354.25,208.78 356.76,207.25 359.43,205.73 362.20,204.35 364.30,203.38 365.95,202.66 367.22,202.12 371.06,200.70 372.78,200.15 377.04,198.89 379.14,198.33 384.00,197.36 387.59,196.68 393.34,195.80 394.30,195.69 396.24,195.49 402.43,194.84 404.79,194.64 409.11,194.32 411.30,194.15 412.99,194.04 417.25,193.83 423.28,193.52 429.93,193.31 436.00,193.11 438.38,193.06 440.51,193.02 442.89,192.97 446.64,192.90 449.12,192.85 451.76,192.79 455.32,192.75 457.93,192.72 461.68,192.68 463.77,192.65 467.40,192.61 470.13,192.58 472.26,192.55 475.09,192.53 476.84,192.52 479.57,192.50 483.35,192.48 484.94,192.47 487.55,192.45 489.17,192.44 492.19,192.42 494.41,192.40 497.02,192.39 499.63,192.38 501.88,192.37 504.87,192.36 506.97,192.35 510.34,192.34 513.01,192.33 515.93,192.32 518.82,192.31 520.92,192.30 525.15,192.28 528.29,192.27 530.04,192.26 533.63,192.26 537.70,192.25 539.32,192.24 544.22,192.23 547.30,192.23 550.54,192.22 554.77,192.21 559.03,192.20 562.62,192.19 567.48,192.18 571.04,192.18 574.86,192.18 580.16,192.17 584.42,192.17 592.11,192.16 597.36,192.15 601.33,192.15 607.69,192.14 614.04,192.13 620.37,192.13 626.72,192.12 633.08,192.11 641.53,192.11 645.35,192.10 652.12,192.10 662.70,192.09 669.06,192.09 675.42,192.09 683.87,192.08 692.32,192.08 700.81,192.07 711.39,192.07 719.85,192.07 724.04,192.03"/>
<line x1="78" y1="266.13" x2="772" y2="266.13" stroke="#9467bd" opacity="0.18" stroke-dasharray="3 4"/>
<polyline fill="none" stroke="#9467bd" stroke-width="2.0" points="91.35,192.01 96.78,192.01 102.22,192.01 108.99,192.01 114.42,192.01 119.86,192.01 125.29,192.01 130.72,192.01 136.16,192.01 142.93,192.01 148.36,192.01 153.80,192.01 159.23,192.01 164.67,192.01 171.44,192.01 175.54,192.01 177.13,192.01 177.99,192.01 178.88,192.01 180.27,192.01 181.29,192.01 181.93,192.01 182.59,192.01 183.33,192.01 184.31,192.01 184.88,192.01 185.45,192.01 185.96,192.01 186.54,192.01 187.04,192.01 187.55,192.01 188.16,192.01 188.82,192.01 189.46,192.01 190.44,192.01 190.89,192.01 191.49,192.01 191.97,192.01 192.48,192.01 193.02,192.01 193.50,192.01 194.07,192.01 194.70,192.01 195.24,192.01 195.88,192.01 196.32,192.01 197.02,192.01 197.60,192.01 198.29,192.01 198.68,192.01 199.12,192.01 199.82,192.01 200.36,192.01 201.22,192.01 201.82,192.01 202.36,192.01 202.90,192.01 203.76,192.00 204.17,192.00 205.03,192.00 205.70,192.00 206.49,192.00 207.35,192.00 208.18,192.00 209.45,192.00 210.72,192.00 211.55,192.00 212.41,192.01 213.30,192.01 214.22,192.01 215.23,192.02 216.25,192.02 217.14,192.03 218.06,192.03 219.02,192.04 220.03,192.04 221.69,192.05 222.77,192.05 223.78,192.06 224.83,192.06 226.90,192.07 229.31,192.08 230.81,192.09 232.94,192.09 234.81,192.08 235.83,192.05 236.82,192.01 238.18,191.93 239.17,191.85 239.71,191.80 241.30,191.60 242.25,191.46 243.39,191.26 244.60,191.03 245.33,190.87 246.64,190.57 248.42,190.13 249.27,189.95 250.23,189.82 251.63,189.87 252.39,190.05 252.93,190.25 253.69,190.65 254.58,191.32 255.47,192.20 256.04,192.89 256.97,194.20 257.60,195.23 258.43,196.75 259.70,199.38 260.21,200.51 261.10,202.57 261.80,204.27 262.40,205.75 263.64,208.87 264.24,210.41 265.45,213.49 266.47,216.08 266.95,217.28 267.83,219.49 268.50,221.13 269.14,222.66 269.81,224.23 270.70,226.26 271.39,227.81 272.19,229.51 273.02,231.22 273.94,233.04 274.64,234.37 275.75,236.37 276.64,237.90 277.56,239.43 278.80,241.35 280.04,243.13 281.25,244.74 281.85,245.51 282.93,246.82 284.52,248.57 285.60,249.68 286.87,250.88 288.21,252.05 290.46,253.88 292.28,255.24 293.61,256.21 294.69,256.97 296.34,258.09 297.71,258.98 299.30,259.95 301.02,260.92 302.73,261.78 304.48,262.54 306.23,263.19 308.48,263.84 310.96,264.39 312.65,264.65 315.35,264.95 317.19,265.09 319.42,265.21 323.07,265.37 327.59,265.51 332.99,265.64 338.42,265.75 343.19,265.82 344.94,265.85 347.64,265.88 349.55,265.90 352.00,265.92 356.25,265.95 360.16,265.98 362.36,265.99 363.88,266.00 365.44,266.01 366.93,266.01 368.30,266.02 369.63,266.02 370.68,266.03 372.21,266.03 373.23,266.04 373.86,266.04 374.97,266.04 375.67,266.04 376.63,266.05 377.80,266.05 379.14,266.05 379.84,266.06 381.11,266.06 382.54,266.06 383.94,266.07 385.30,266.07 386.67,266.07 388.04,266.07 388.67,266.07 390.01,266.08 391.37,266.08 392.26,266.08 393.76,266.08 394.77,266.08 395.82,266.09 396.90,266.09 398.46,266.09 399.51,266.09 400.65,266.09 401.83,266.09 403.71,266.09 404.95,266.10 405.87,266.10 407.11,266.10 409.01,266.10 409.90,266.10 411.81,266.10 414.45,266.10 415.81,266.10 417.18,266.11 419.37,266.11 421.57,266.11 423.60,266.11 425.32,266.11 428.02,266.11 430.21,266.11 432.12,266.11 434.88,266.11 437.78,266.12 440.29,266.12 442.96,266.12 445.34,266.12 448.07,266.12 451.09,266.12 453.19,266.12 456.56,266.12 459.26,266.12 461.96,266.12 464.98,266.12 467.40,266.12 470.13,266.12 473.60,266.12 478.27,266.12 483.70,266.12 489.14,266.12 494.57,266.13 497.24,266.13"/>
<line x1="88" y1="72" x2="110" y2="72" stroke="#1f77b4" stroke-width="2.4"/>
<text x="116" y="76" font-family="Arial, sans-serif" font-size="12">rising #1</text>
<line x1="88" y1="90" x2="110" y2="90" stroke="#d62728" stroke-width="2.4"/>
<text x="116" y="94" font-family="Arial, sans-serif" font-size="12">falling #2</text>
<line x1="88" y1="108" x2="110" y2="108" stroke="#2ca02c" stroke-width="2.4"/>
<text x="116" y="112" font-family="Arial, sans-serif" font-size="12">rising #3</text>
<line x1="88" y1="126" x2="110" y2="126" stroke="#9467bd" stroke-width="2.4"/>
<text x="116" y="130" font-family="Arial, sans-serif" font-size="12">falling #4</text>
<rect x="78" y="342" width="694" height="44" fill="#fffdf7" stroke="#d8c6a1" rx="4"/>
<text x="88" y="359" font-family="Arial, sans-serif" font-size="11" font-weight="700" fill="#4b3b21">Findings needing attention</text>
<rect x="88" y="366" width="7" height="7" fill="#b54708"/>
<text x="102" y="373" font-family="Arial, sans-serif" font-size="11" fill="#333">WARN 5.5.4: Ramp dt versus V-T 20-80% evidence needs review | avg Ramp dt=1.564e-09s, avg V-T 20-80% span=1.080e-...</text>
<text x="425.00" y="322.00" text-anchor="middle" font-family="Arial, sans-serif" font-size="12">Time (s)</text>
<text x="420" y="42" font-family="Arial, sans-serif" font-size="11" fill="#555">solid=V-T voltage, faint horizontal=V_fixture</text>
</svg>