<svg xmlns="http://www.w3.org/2000/svg" width="800" height="450" viewBox="0 0 800 450">
<rect width="100%" height="100%" fill="#ffffff"/>
<text x="78" y="25" font-family="Arial, sans-serif" font-size="16" font-weight="700">E34_GPIO_SPI_1V8_10 V-T Waveforms</text>
<rect x="78" y="54" width="694" height="230" fill="#fbfbfb" stroke="#c8c8c8"/>
<text transform="translate(18 169.00) rotate(-90)" text-anchor="middle" font-family="Arial, sans-serif" font-size="12">Voltage (V)</text>
<line x1="78.00" y1="54" x2="78.00" y2="284" stroke="#ececec"/>
<text x="78.00" y="302" text-anchor="middle" font-family="Arial, sans-serif" font-size="10">-744p</text>
<line x1="216.80" y1="54" x2="216.80" y2="284" stroke="#ececec"/>
<text x="216.80" y="302" text-anchor="middle" font-family="Arial, sans-serif" font-size="10">6.99n</text>
<line x1="355.60" y1="54" x2="355.60" y2="284" stroke="#ececec"/>
<text x="355.60" y="302" text-anchor="middle" font-family="Arial, sans-serif" font-size="10">14.7n</text>
<line x1="494.40" y1="54" x2="494.40" y2="284" stroke="#ececec"/>
<text x="494.40" y="302" text-anchor="middle" font-family="Arial, sans-serif" font-size="10">22.5n</text>
<line x1="633.20" y1="54" x2="633.20" y2="284" stroke="#ececec"/>
<text x="633.20" y="302" text-anchor="middle" font-family="Arial, sans-serif" font-size="10">30.2n</text>
<line x1="772.00" y1="54" x2="772.00" y2="284" stroke="#ececec"/>
<text x="772.00" y="302" text-anchor="middle" font-family="Arial, sans-serif" font-size="10">37.9n</text>
<line x1="78" y1="284.00" x2="772" y2="284.00" stroke="#ececec"/>
<text x="70" y="288.00" text-anchor="end" font-family="Arial, sans-serif" font-size="10">-0.161</text>
<line x1="78" y1="226.50" x2="772" y2="226.50" stroke="#ececec"/>
<text x="70" y="230.50" text-anchor="end" font-family="Arial, sans-serif" font-size="10">0.369</text>
<line x1="78" y1="169.00" x2="772" y2="169.00" stroke="#ececec"/>
<text x="70" y="173.00" text-anchor="end" font-family="Arial, sans-serif" font-size="10">0.9</text>
<line x1="78" y1="111.50" x2="772" y2="111.50" stroke="#ececec"/>
<text x="70" y="115.50" text-anchor="end" font-family="Arial, sans-serif" font-size="10">1.4</text>
<line x1="78" y1="54.00" x2="772" y2="54.00" stroke="#ececec"/>
<text x="70" y="58.00" text-anchor="end" font-family="Arial, sans-serif" font-size="10">2</text>
<line x1="78" y1="71.56" x2="772" y2="71.56" stroke="#1f77b4" opacity="0.18" stroke-dasharray="3 4"/>
<polyline fill="none" stroke="#1f77b4" stroke-width="2.0" points="91.35,230.87 92.62,230.87 93.89,230.87 95.49,230.87 96.76,230.87 97.79,230.88 97.91,230.87 98.06,230.87 98.16,230.87 98.36,230.86 98.50,230.85 98.67,230.84 98.83,230.84 98.95,230.83 99.08,230.83 99.17,230.83 99.26,230.84 99.33,230.84 99.40,230.85 99.47,230.86 99.56,230.87 99.64,230.89 99.72,230.91 99.81,230.94 99.92,230.99 100.03,231.04 100.19,231.14 100.26,231.18 100.33,231.24 100.41,231.29 100.48,231.35 100.57,231.43 100.64,231.49 100.71,231.55 100.78,231.61 100.86,231.66 100.93,231.72 101.02,231.77 101.09,231.82 101.18,231.86 101.25,231.88 101.32,231.88 101.41,231.87 101.48,231.85 101.56,231.81 101.63,231.74 101.72,231.64 101.79,231.53 101.88,231.37 101.95,231.21 102.02,231.03 102.09,230.82 102.18,230.52 102.34,229.86 102.43,229.43 102.54,228.83 102.63,228.27 102.70,227.78 102.78,227.24 102.92,226.03 102.99,225.35 103.12,224.02 103.24,222.50 103.37,220.72 103.56,217.35 103.74,213.48 103.89,209.75 104.05,204.85 104.21,199.22 104.37,192.93 104.52,186.88 104.66,180.49 104.75,176.34 104.87,170.39 105.07,160.79 105.16,156.37 105.32,148.38 105.41,143.95 105.50,139.55 105.65,132.64 105.77,126.77 105.88,121.93 105.99,117.30 106.06,114.33 106.15,110.78 106.22,108.06 106.29,105.46 106.38,102.40 106.47,99.59 106.61,95.56 106.72,92.89 106.90,89.06 107.05,86.48 107.17,84.54 107.28,83.10 107.40,81.62 107.48,80.88 107.58,79.89 107.74,78.63 107.85,77.93 108.03,76.95 108.14,76.46 108.30,75.84 108.48,75.28 108.70,74.76 109.04,74.16 109.18,73.97 109.54,73.61 109.97,73.29 110.44,72.98 111.10,72.60 111.17,72.56 111.94,72.24 112.36,72.11 113.04,71.95 113.49,71.88 113.99,71.82 114.19,71.80 114.28,71.79 114.65,71.76 115.59,71.70 116.23,71.68 116.55,71.67 117.51,71.65 117.83,71.65 118.06,71.64 118.47,71.64 118.74,71.64 118.94,71.63 119.08,71.63 119.34,71.63 119.51,71.63 119.66,71.63 119.87,71.63 120.09,71.62 120.27,71.62 120.50,71.62 120.77,71.62 120.93,71.62 121.09,71.62 121.33,71.62 121.58,71.62 121.78,71.62 122.04,71.61 122.26,71.61 122.39,71.61 122.58,71.61 122.69,71.61 122.98,71.61 123.14,71.61 123.30,71.61 123.55,71.61 123.73,71.61 123.95,71.61 124.14,71.61 124.34,71.61 124.52,71.61 124.74,71.60 124.84,71.60 125.09,71.60 125.31,71.60 125.49,71.60 125.76,71.60 125.88,71.60 126.14,71.60 126.37,71.60 126.66,71.60 126.89,71.60 127.00,71.60 127.25,71.60 127.39,71.60 127.59,71.60 127.79,71.60 128.00,71.60 128.11,71.60 128.41,71.60 128.68,71.60 128.99,71.59 129.20,71.59 129.44,71.59 129.89,71.59 130.53,71.59 131.12,71.59 132.02,71.59 132.76,71.59 133.46,71.59 134.10,71.59 134.75,71.59 135.20,71.59 135.68,71.59 135.93,71.59 136.06,71.59 136.42,71.59 136.54,71.59 136.65,71.59 136.97,71.59 137.92,71.58 138.86,71.58 139.20,71.58 139.70,71.58 139.91,71.58 140.38,71.58 141.44,71.58 142.26,71.58 143.02,71.58 143.66,71.58 144.81,71.58 145.91,71.58 147.18,71.58 148.78,71.58 150.05,71.58 151.00,71.58 151.97,71.57 153.25,71.57 154.84,71.57 156.12,71.57 157.07,71.57 158.34,71.57 159.61,71.57 160.58,71.57 162.18,71.57 163.45,71.57 164.73,71.57 166.00,71.57 167.28,71.57 168.55,71.57 170.15,71.57 171.42,71.57 172.71,71.57 173.99,71.57 175.26,71.57 176.86,71.57 178.13,71.57 179.40,71.57 180.68,71.57 181.95,71.57 183.23,71.57 184.82,71.57 186.10,71.57 186.72,71.56"/>
<line x1="78" y1="71.56" x2="772" y2="71.56" stroke="#d62728" opacity="0.18" stroke-dasharray="3 4"/>
<polyline fill="none" stroke="#d62728" stroke-width="2.0" points="91.35,71.56 93.01,71.56 94.25,71.56 95.92,71.56 96.55,71.56 97.57,71.56 97.81,71.56 98.24,71.56 98.68,71.56 98.99,71.55 99.24,71.55 99.44,71.55 99.65,71.55 99.90,71.56 100.19,71.57 100.35,71.58 100.44,71.59 100.53,71.59 100.60,71.60 100.69,71.61 100.96,71.64 101.11,71.66 101.25,71.68 101.36,71.69 101.47,71.70 101.63,71.71 101.77,71.72 101.90,71.73 102.02,71.73 102.17,71.72 102.33,71.70 102.43,71.67 102.52,71.65 102.67,71.60 102.81,71.53 102.94,71.46 103.12,71.34 103.28,71.21 103.35,71.15 103.44,71.06 103.51,70.99 103.58,70.92 103.67,70.82 103.74,70.75 103.82,70.67 103.89,70.60 103.96,70.52 104.03,70.45 104.12,70.36 104.21,70.27 104.30,70.19 104.39,70.11 104.53,70.00 104.64,69.93 104.71,69.90 104.78,69.87 104.87,69.86 105.00,69.88 105.18,70.02 105.32,70.24 105.45,70.50 105.63,71.08 105.75,71.63 105.86,72.20 106.00,73.09 106.11,73.86 106.24,74.87 106.40,76.40 106.54,77.94 106.67,79.43 106.79,81.07 106.92,82.86 107.01,84.23 107.13,86.27 107.24,88.14 107.46,92.29 107.62,95.73 107.76,99.08 107.89,102.21 108.07,106.97 108.18,109.97 108.39,116.18 108.50,119.38 108.62,123.14 108.84,129.66 108.98,134.01 109.14,138.88 109.36,145.29 109.52,150.03 109.61,152.63 109.75,156.72 109.88,160.25 110.10,166.12 110.26,170.37 110.40,174.02 110.53,177.12 110.63,179.70 110.76,182.62 110.92,186.22 111.06,189.27 111.23,192.53 111.37,195.26 111.53,198.14 111.66,200.24 111.80,202.49 111.98,205.08 112.14,207.21 112.30,209.16 112.45,210.74 112.64,212.69 112.75,213.66 112.93,215.13 113.13,216.57 113.34,217.95 113.65,219.60 113.90,220.76 114.24,222.10 114.46,222.83 114.65,223.43 115.01,224.37 115.32,225.05 115.62,225.63 116.09,226.37 116.25,226.59 116.66,227.09 117.47,227.84 118.01,228.22 118.58,228.57 118.89,228.73 119.16,228.87 119.62,229.10 120.47,229.47 121.65,229.86 122.06,229.97 122.35,230.04 122.85,230.15 123.16,230.21 123.70,230.30 124.29,230.38 124.56,230.42 124.74,230.44 125.00,230.46 125.51,230.51 125.79,230.53 126.05,230.55 126.21,230.56 126.42,230.58 126.64,230.59 126.91,230.61 127.12,230.62 127.37,230.63 127.53,230.64 127.88,230.65 128.11,230.66 128.27,230.67 128.49,230.68 128.70,230.69 128.83,230.69 128.97,230.70 129.19,230.70 129.29,230.71 129.44,230.71 129.71,230.72 129.96,230.72 130.37,230.73 130.67,230.74 131.00,230.75 131.23,230.75 131.39,230.75 131.55,230.76 131.95,230.76 132.31,230.77 132.54,230.77 132.77,230.77 133.10,230.78 133.31,230.78 133.65,230.79 133.94,230.79 134.24,230.79 134.51,230.79 134.93,230.80 135.18,230.80 135.59,230.80 135.84,230.81 136.40,230.81 136.76,230.81 137.10,230.82 137.67,230.82 138.10,230.82 138.53,230.82 138.77,230.82 139.50,230.83 140.17,230.83 140.78,230.83 141.30,230.83 142.00,230.84 142.98,230.84 144.49,230.84 146.14,230.85 147.40,230.85 149.05,230.85 150.72,230.85 151.95,230.85 154.03,230.86 155.69,230.86 157.35,230.86 159.00,230.86 160.67,230.86 162.32,230.86 164.40,230.86 166.07,230.86 167.72,230.86 169.39,230.86 171.04,230.86 173.12,230.86 174.79,230.86 176.44,230.86 178.11,230.86 179.76,230.86 181.43,230.87 183.50,230.87 185.16,230.87 186.83,230.87 188.48,230.87 190.15,230.87 191.80,230.87 193.88,230.87 195.53,230.87 197.20,230.87 198.87,230.87 200.52,230.87 202.60,230.87 204.25,230.87 205.92,230.87 207.57,230.87 209.24,230.87 210.89,230.87 212.97,230.87 214.64,230.87 215.45,230.87"/>
<line x1="78" y1="266.51" x2="772" y2="266.51" stroke="#2ca02c" opacity="0.18" stroke-dasharray="3 4"/>
<polyline fill="none" stroke="#2ca02c" stroke-width="2.0" points="91.35,266.51 97.41,266.51 98.65,266.52 98.88,266.52 99.01,266.51 99.10,266.50 99.19,266.49 99.26,266.49 99.33,266.48 99.42,266.47 99.51,266.46 99.64,266.43 99.71,266.42 99.80,266.41 99.94,266.38 100.08,266.35 100.21,266.33 100.33,266.32 100.44,266.31 100.55,266.31 100.68,266.31 100.82,266.34 100.98,266.39 101.09,266.43 101.23,266.52 101.36,266.61 101.48,266.71 101.56,266.78 101.63,266.85 101.70,266.92 101.77,266.99 101.86,267.08 101.93,267.15 102.00,267.23 102.08,267.30 102.15,267.37 102.22,267.45 102.31,267.53 102.40,267.62 102.52,267.73 102.61,267.81 102.69,267.87 102.78,267.94 102.85,267.99 102.97,268.07 103.13,268.14 103.24,268.13 103.35,268.09 103.55,267.79 103.71,267.32 103.80,266.94 103.89,266.51 104.01,265.74 104.12,264.94 104.23,263.99 104.35,262.70 104.48,261.19 104.59,259.72 104.66,258.63 104.80,256.20 104.93,253.79 105.05,251.09 105.18,248.12 105.29,245.34 105.48,239.78 105.66,234.24 105.84,228.41 105.97,224.24 106.09,220.04 106.27,214.06 106.44,208.74 106.61,202.98 106.79,197.35 106.94,192.97 107.03,190.30 107.15,186.66 107.28,183.13 107.40,179.73 107.53,176.43 107.73,171.49 107.80,169.77 107.94,166.44 108.07,163.67 108.16,161.76 108.28,159.20 108.41,156.77 108.53,154.47 108.64,152.60 108.75,150.83 108.89,148.61 109.02,146.81 109.20,144.45 109.41,141.92 109.59,140.02 109.68,139.14 109.77,138.30 109.88,137.36 110.02,136.20 110.15,135.26 110.24,134.65 110.31,134.17 110.54,132.78 110.83,131.31 110.99,130.59 111.19,129.77 111.49,128.69 111.89,127.54 112.14,126.94 112.82,125.67 113.15,125.23 113.81,124.53 114.13,124.28 114.72,123.93 115.41,123.65 117.27,123.19 117.99,123.00 119.50,122.70 119.95,122.64 120.36,122.59 120.84,122.54 121.15,122.52 121.40,122.50 122.49,122.44 122.85,122.42 123.53,122.40 123.98,122.39 124.31,122.38 124.59,122.37 124.90,122.37 125.15,122.36 125.38,122.36 125.65,122.35 125.92,122.35 126.17,122.35 126.42,122.34 126.76,122.34 127.03,122.34 127.34,122.33 127.68,122.33 128.02,122.33 128.29,122.32 128.61,122.32 128.95,122.32 129.26,122.32 129.42,122.31 129.65,122.31 129.96,122.31 130.12,122.31 130.73,122.30 131.02,122.30 131.19,122.30 131.41,122.30 131.61,122.30 131.82,122.30 132.06,122.30 132.29,122.29 132.63,122.29 132.90,122.29 133.19,122.29 133.71,122.29 133.96,122.28 134.35,122.28 134.78,122.28 135.39,122.28 136.31,122.27 137.19,122.27 137.99,122.26 138.32,122.26 140.63,122.25 143.20,122.24 151.95,122.20 156.06,122.18 162.77,122.15 171.69,122.12 178.38,122.09 187.32,122.06 198.48,122.03 207.41,122.00 216.33,121.98 225.26,121.96 230.04,121.95 240.87,121.93 249.81,121.91 258.74,121.89 267.66,121.87 276.59,121.86 285.51,121.85 296.67,121.83 304.49,121.82 312.30,121.81 318.99,121.80 327.93,121.79 339.09,121.77 348.00,121.76 356.94,121.75 365.87,121.74 374.79,121.73 383.72,121.72 394.88,121.71 403.80,121.70 412.74,121.70 421.65,121.69 430.59,121.68 439.52,121.68 448.44,121.67 457.38,121.66 466.29,121.66 475.23,121.65 484.14,121.65 495.30,121.64 504.24,121.63 513.01,121.63 517.62,121.63 526.56,121.62 537.72,121.62 546.65,121.61 555.57,121.61 564.51,121.60 573.42,121.60 580.80,121.60 591.28,121.59 600.21,121.59 606.90,121.59 615.84,121.58 624.75,121.58 633.69,121.58 644.85,121.57 653.77,121.57 662.70,121.57 671.64,121.57 680.55,121.56 691.71,121.56 700.65,121.56 709.57,121.56 716.28,121.55 725.19,121.55 734.13,121.55 745.29,121.55 754.20,121.55 758.65,121.54"/>
<line x1="78" y1="266.51" x2="772" y2="266.51" stroke="#9467bd" opacity="0.18" stroke-dasharray="3 4"/>
<polyline fill="none" stroke="#9467bd" stroke-width="2.0" points="91.35,121.49 92.17,121.49 92.73,121.49 93.55,121.49 94.40,121.49 94.93,121.49 95.40,121.49 95.80,121.49 96.26,121.49 96.41,121.49 96.71,121.49 96.87,121.49 96.96,121.49 97.20,121.49 97.43,121.49 97.57,121.49 97.64,121.49 97.75,121.49 97.98,121.49 98.16,121.49 98.29,121.49 98.43,121.49 98.54,121.49 98.65,121.49 98.76,121.49 98.94,121.49 99.06,121.49 99.15,121.49 99.22,121.50 99.29,121.50 99.37,121.50 99.46,121.50 99.53,121.51 99.60,121.51 99.72,121.51 99.81,121.52 99.89,121.52 99.99,121.52 100.07,121.53 100.14,121.53 100.23,121.53 100.30,121.53 100.42,121.53 100.50,121.53 100.64,121.53 100.73,121.53 100.80,121.52 100.91,121.51 101.00,121.51 101.09,121.49 101.20,121.47 101.32,121.45 101.39,121.43 101.54,121.39 101.63,121.36 101.73,121.33 101.82,121.29 101.90,121.26 102.00,121.22 102.11,121.17 102.20,121.13 102.31,121.08 102.38,121.05 102.47,121.01 102.58,120.97 102.65,120.94 102.72,120.92 102.81,120.90 102.92,120.90 103.03,120.90 103.15,120.94 103.24,120.99 103.33,121.05 103.42,121.14 103.51,121.25 103.58,121.36 103.67,121.52 103.74,121.68 103.83,121.90 103.92,122.17 104.00,122.41 104.08,122.74 104.17,123.12 104.26,123.55 104.35,124.02 104.48,124.78 104.59,125.53 104.80,127.23 104.98,128.96 105.14,130.79 105.25,132.16 105.38,133.97 105.56,136.95 105.72,140.03 105.90,143.97 106.02,147.04 106.18,151.38 106.29,154.49 106.45,159.43 106.61,164.74 106.79,170.95 106.90,174.83 107.06,180.84 107.24,187.72 107.39,193.36 107.55,199.80 107.67,204.86 107.80,209.92 107.94,215.65 108.12,222.62 108.25,227.28 108.41,232.92 108.59,238.61 108.79,244.08 109.00,249.10 109.18,252.59 109.36,255.46 109.50,257.34 109.65,258.88 109.83,260.42 109.97,261.38 110.10,262.07 110.27,262.84 110.42,263.33 110.56,263.71 110.71,264.02 110.97,264.45 111.55,265.00 112.37,265.39 113.49,265.77 114.58,266.05 115.91,266.24 116.20,266.27 116.29,266.28 116.36,266.28 116.63,266.30 116.79,266.31 116.90,266.32 117.04,266.33 117.16,266.34 117.40,266.35 117.47,266.36 117.83,266.37 117.94,266.38 118.03,266.38 118.19,266.39 118.40,266.39 118.49,266.40 118.71,266.40 118.81,266.41 118.96,266.41 119.07,266.41 119.30,266.42 119.51,266.42 119.73,266.42 120.00,266.43 120.29,266.43 120.52,266.44 120.72,266.44 121.04,266.44 121.33,266.45 121.49,266.45 121.65,266.45 121.95,266.45 122.24,266.46 122.55,266.46 122.73,266.46 122.91,266.46 123.16,266.46 123.35,266.46 123.61,266.47 123.84,266.47 124.09,266.47 124.27,266.47 124.47,266.47 124.70,266.47 124.99,266.47 125.20,266.47 125.38,266.47 125.63,266.47 125.85,266.47 126.05,266.48 126.26,266.48 126.57,266.48 126.76,266.48 126.94,266.48 127.16,266.48 127.37,266.48 127.53,266.48 127.66,266.48 127.89,266.48 128.13,266.48 128.34,266.48 128.56,266.48 128.79,266.48 128.99,266.48 129.22,266.48 129.47,266.49 129.81,266.49 130.08,266.49 130.35,266.49 130.91,266.49 132.02,266.49 133.13,266.49 134.23,266.49 135.34,266.49 136.45,266.50 137.55,266.50 138.66,266.50 140.04,266.50 141.15,266.50 142.26,266.50 143.36,266.50 144.47,266.50 145.85,266.50 146.97,266.50 148.06,266.50 149.17,266.50 150.28,266.50 151.38,266.51 152.78,266.51 153.87,266.51 154.99,266.51 156.10,266.51 157.19,266.51 158.30,266.51 159.69,266.51 160.80,266.51 161.89,266.51 163.01,266.51 164.12,266.51 165.50,266.51 166.61,266.51 167.71,266.51 168.82,266.51 169.93,266.51 171.03,266.51 172.41,266.51 173.52,266.51 174.06,266.51"/>
<line x1="88" y1="72" x2="110" y2="72" stroke="#1f77b4" stroke-width="2.4"/>
<text x="116" y="76" font-family="Arial, sans-serif" font-size="12">rising #1</text>
<line x1="88" y1="90" x2="110" y2="90" stroke="#d62728" stroke-width="2.4"/>
<text x="116" y="94" font-family="Arial, sans-serif" font-size="12">falling #2</text>
<line x1="88" y1="108" x2="110" y2="108" stroke="#2ca02c" stroke-width="2.4"/>
<text x="116" y="112" font-family="Arial, sans-serif" font-size="12">rising #3</text>
<line x1="88" y1="126" x2="110" y2="126" stroke="#9467bd" stroke-width="2.4"/>
<text x="116" y="130" font-family="Arial, sans-serif" font-size="12">falling #4</text>
<rect x="78" y="342" width="694" height="60" fill="#fffdf7" stroke="#d8c6a1" rx="4"/>
<text x="88" y="359" font-family="Arial, sans-serif" font-size="11" font-weight="700" fill="#4b3b21">Findings needing attention</text>
<rect x="88" y="366" width="7" height="7" fill="#b42318"/>
<text x="102" y="373" font-family="Arial, sans-serif" font-size="11" fill="#333">FAIL 5.5.3: [Ramp] dV inconsistent with I-V load-line (1 corner(s)) | Rise dV/max: ramp=0.9779V, expected≈0.8879V (10.1%...</text>
<rect x="88" y="382" width="7" height="7" fill="#b54708"/>
<text x="102" y="389" font-family="Arial, sans-serif" font-size="11" fill="#333">WARN 5.5.4: Ramp dt versus V-T 20-80% evidence needs review | avg Ramp dt=1.911e-10s, avg V-T 20-80% span=1.587e-...</text>
<text x="425.00" y="322.00" text-anchor="middle" font-family="Arial, sans-serif" font-size="12">Time (s)</text>
<text x="420" y="42" font-family="Arial, sans-serif" font-size="11" fill="#555">solid=V-T voltage, faint horizontal=V_fixture</text>
</svg>