<svg xmlns="http://www.w3.org/2000/svg" width="800" height="450" viewBox="0 0 800 450">
<rect width="100%" height="100%" fill="#ffffff"/>
<text x="78" y="25" font-family="Arial, sans-serif" font-size="16" font-weight="700">nfc_ioc15_swp_master_400_typ V-T Waveforms</text>
<rect x="78" y="54" width="694" height="230" fill="#fbfbfb" stroke="#c8c8c8"/>
<text transform="translate(18 169.00) rotate(-90)" text-anchor="middle" font-family="Arial, sans-serif" font-size="12">Voltage (V)</text>
<line x1="78.00" y1="54" x2="78.00" y2="284" stroke="#ececec"/>
<text x="78.00" y="302" text-anchor="middle" font-family="Arial, sans-serif" font-size="10">-1.4n</text>
<line x1="216.80" y1="54" x2="216.80" y2="284" stroke="#ececec"/>
<text x="216.80" y="302" text-anchor="middle" font-family="Arial, sans-serif" font-size="10">13.1n</text>
<line x1="355.60" y1="54" x2="355.60" y2="284" stroke="#ececec"/>
<text x="355.60" y="302" text-anchor="middle" font-family="Arial, sans-serif" font-size="10">27.6n</text>
<line x1="494.40" y1="54" x2="494.40" y2="284" stroke="#ececec"/>
<text x="494.40" y="302" text-anchor="middle" font-family="Arial, sans-serif" font-size="10">42.1n</text>
<line x1="633.20" y1="54" x2="633.20" y2="284" stroke="#ececec"/>
<text x="633.20" y="302" text-anchor="middle" font-family="Arial, sans-serif" font-size="10">56.7n</text>
<line x1="772.00" y1="54" x2="772.00" y2="284" stroke="#ececec"/>
<text x="772.00" y="302" text-anchor="middle" font-family="Arial, sans-serif" font-size="10">71.2n</text>
<line x1="78" y1="284.00" x2="772" y2="284.00" stroke="#ececec"/>
<text x="70" y="288.00" text-anchor="end" font-family="Arial, sans-serif" font-size="10">-0.162</text>
<line x1="78" y1="226.50" x2="772" y2="226.50" stroke="#ececec"/>
<text x="70" y="230.50" text-anchor="end" font-family="Arial, sans-serif" font-size="10">0.375</text>
<line x1="78" y1="169.00" x2="772" y2="169.00" stroke="#ececec"/>
<text x="70" y="173.00" text-anchor="end" font-family="Arial, sans-serif" font-size="10">0.911</text>
<line x1="78" y1="111.50" x2="772" y2="111.50" stroke="#ececec"/>
<text x="70" y="115.50" text-anchor="end" font-family="Arial, sans-serif" font-size="10">1.4</text>
<line x1="78" y1="54.00" x2="772" y2="54.00" stroke="#ececec"/>
<text x="70" y="58.00" text-anchor="end" font-family="Arial, sans-serif" font-size="10">2</text>
<line x1="78" y1="73.76" x2="772" y2="73.76" stroke="#1f77b4" opacity="0.18" stroke-dasharray="3 4"/>
<polyline fill="none" stroke="#1f77b4" stroke-width="2.0" points="91.35,230.99 94.90,230.99 98.46,230.99 102.90,230.97 106.46,230.96 109.98,230.99 113.54,231.02 117.09,231.04 120.65,231.06 125.09,231.08 128.65,231.09 132.21,231.11 135.76,231.12 139.28,231.13 143.72,231.14 146.40,231.13 149.96,231.08 153.52,230.94 157.07,230.65 160.59,230.15 163.20,229.56 165.03,229.00 166.83,228.30 167.71,227.89 169.51,226.89 171.27,225.64 172.26,224.78 173.60,223.44 173.95,223.03 175.06,221.61 176.13,220.01 177.05,218.42 177.77,216.99 178.50,215.38 179.26,213.45 180.22,210.66 180.76,208.87 181.18,207.34 181.60,205.70 182.36,202.46 182.82,200.34 183.36,197.73 183.97,194.57 184.47,191.87 184.81,189.95 185.42,186.40 185.85,183.87 186.19,181.77 186.69,178.67 187.11,176.01 187.45,173.81 188.10,169.64 188.45,167.43 189.02,163.79 189.48,160.87 189.90,158.27 190.36,155.43 190.82,152.69 191.16,150.63 191.70,147.54 192.20,144.75 192.50,143.05 192.96,140.60 193.23,139.20 193.88,135.92 194.34,133.78 194.68,132.17 195.18,129.92 195.41,128.95 195.98,126.51 196.25,125.38 196.94,122.74 197.51,120.54 197.78,119.58 198.28,117.79 198.74,116.23 199.35,114.20 199.69,113.12 200.04,112.05 200.65,110.28 201.34,108.34 201.91,106.79 202.30,105.79 202.53,105.22 202.95,104.16 203.25,103.45 203.56,102.73 204.17,101.36 204.78,100.03 205.85,97.90 206.12,97.42 207.12,95.63 208.00,94.22 208.65,93.18 209.91,91.44 210.37,90.81 211.21,89.82 212.51,88.36 213.31,87.46 213.97,86.88 214.39,86.49 215.11,85.84 215.65,85.35 216.34,84.77 217.45,83.97 218.94,82.88 220.12,82.19 221.08,81.64 221.88,81.17 222.76,80.77 223.22,80.55 224.30,80.06 224.60,79.92 224.87,79.80 228.01,78.66 228.69,78.46 229.88,78.13 231.45,77.70 231.99,77.58 232.90,77.39 233.44,77.27 233.97,77.16 234.82,76.98 235.05,76.93 235.58,76.85 235.81,76.81 236.31,76.73 236.54,76.70 237.15,76.60 239.48,76.26 240.75,76.11 241.97,75.97 243.73,75.79 244.95,75.69 247.44,75.49 248.51,75.42 250.31,75.32 253.18,75.16 254.60,75.11 255.02,75.10 255.48,75.08 256.74,75.03 257.39,75.01 257.62,75.00 258.61,74.97 259.19,74.95 260.03,74.93 261.02,74.91 261.83,74.89 262.94,74.87 263.93,74.85 265.31,74.82 265.96,74.80 266.30,74.80 266.69,74.79 267.07,74.79 267.45,74.78 267.76,74.78 268.06,74.78 268.45,74.77 268.71,74.77 269.21,74.76 269.56,74.76 269.82,74.75 270.32,74.75 270.70,74.74 270.89,74.74 271.31,74.74 271.70,74.73 272.19,74.73 272.39,74.72 272.65,74.72 273.15,74.71 274.26,74.70 275.18,74.70 276.02,74.69 276.94,74.69 277.82,74.68 278.70,74.68 279.58,74.67 280.31,74.67 280.84,74.66 282.41,74.65 283.18,74.65 284.48,74.64 286.69,74.64 288.11,74.63 290.25,74.63 292.05,74.62 294.12,74.62 296.57,74.62 298.98,74.61 302.69,74.61 304.83,74.61 308.00,74.60 311.56,74.60 312.86,74.60 315.12,74.60 318.68,74.59 320.59,74.59 323.12,74.59 326.18,74.59 326.94,74.58 329.32,74.58 330.31,74.57 331.99,74.57 333.41,74.57 334.67,74.56 335.09,74.56 335.93,74.55 336.55,74.54 337.16,74.54 337.77,74.53 338.38,74.53 338.96,74.52 339.99,74.51 340.87,74.51 341.75,74.50 343.32,74.49 343.82,74.48 344.43,74.47 345.04,74.46 346.19,74.45 346.68,74.44 347.14,74.44 348.25,74.42 349.09,74.41 349.75,74.40 350.55,74.39 350.78,74.39 351.54,74.38 352.73,74.36 353.49,74.35 354.26,74.34 354.57,74.33 354.80,74.33 355.33,74.32 356.02,74.31 356.59,74.30 356.82,73.76"/>
<line x1="78" y1="73.76" x2="772" y2="73.76" stroke="#d62728" opacity="0.18" stroke-dasharray="3 4"/>
<polyline fill="none" stroke="#d62728" stroke-width="2.0" points="91.35,73.76 96.43,73.76 99.42,73.77 100.34,73.78 101.68,73.78 102.02,73.77 102.67,73.73 103.70,73.62 106.73,73.32 108.33,73.22 108.68,73.21 109.25,73.19 109.83,73.16 111.36,73.12 112.69,73.08 113.19,73.06 115.37,72.99 116.29,72.95 116.60,72.94 116.75,72.94 117.97,72.88 118.43,72.86 120.73,72.73 122.37,72.62 125.32,72.32 126.66,72.14 128.46,71.80 129.53,71.55 130.03,71.42 130.48,71.29 130.79,71.20 132.02,70.83 133.16,70.49 134.58,70.17 135.15,70.08 136.15,69.96 137.14,69.89 137.72,69.86 139.28,69.86 140.55,69.92 141.01,69.95 142.34,70.06 145.48,70.44 148.58,70.87 150.88,71.18 151.76,71.29 152.18,71.35 153.06,71.46 153.86,71.56 154.43,71.63 155.74,71.79 157.42,71.97 157.99,72.03 158.72,72.10 159.10,72.14 159.33,72.16 159.60,72.19 159.87,72.21 161.21,72.34 163.35,72.52 165.61,72.70 166.14,72.74 166.87,72.79 167.25,72.82 167.71,72.85 168.67,72.92 171.23,73.08 174.86,73.27 175.63,73.31 176.93,73.38 177.58,73.41 178.50,73.45 178.84,73.47 179.49,73.49 179.69,73.50 180.26,73.53 180.83,73.55 181.14,73.56 181.33,73.57 181.64,73.58 182.10,73.60 182.44,73.61 183.13,73.64 184.93,73.71 186.23,73.75 187.99,73.82 189.17,73.88 190.21,73.96 190.74,74.00 191.66,74.14 192.00,74.20 192.43,74.30 193.84,74.69 194.95,75.10 197.55,76.29 199.77,77.51 200.27,77.82 201.19,78.39 202.76,79.41 204.02,80.27 204.36,80.51 204.59,80.66 205.78,81.55 207.88,83.15 208.88,83.96 209.72,84.65 210.33,85.16 210.90,85.67 211.25,85.97 211.75,86.41 212.21,86.82 212.51,87.09 213.54,88.05 215.57,89.98 216.38,90.80 216.61,91.04 216.87,91.31 217.37,91.82 217.71,92.17 218.17,92.64 220.89,95.61 222.54,97.52 222.88,97.92 223.91,99.15 225.90,101.59 227.43,103.57 228.62,105.10 229.04,105.67 230.03,107.02 230.49,107.65 232.10,109.89 233.40,111.74 234.51,113.35 235.89,115.40 236.61,116.49 237.00,117.06 238.30,119.08 238.60,119.55 238.95,120.09 239.22,120.50 239.64,121.15 239.90,121.58 240.75,122.93 241.36,123.92 242.05,125.02 242.85,126.33 243.77,127.85 244.11,128.42 244.61,129.25 244.88,129.69 245.22,130.27 245.61,130.90 246.18,131.88 247.56,134.24 248.36,135.61 249.01,136.73 249.47,137.53 250.20,138.81 250.66,139.62 251.34,140.82 252.07,142.10 253.10,143.94 254.21,145.93 255.36,147.99 257.16,151.24 258.31,153.32 259.15,154.85 259.91,156.24 260.76,157.77 261.48,159.09 263.01,161.87 264.58,164.72 266.11,167.49 267.64,170.23 269.17,172.97 270.09,174.58 272.00,177.84 273.57,180.52 274.83,182.67 275.52,183.77 276.94,186.01 278.89,189.10 280.88,191.90 282.33,193.94 283.52,195.53 285.89,198.45 287.31,200.06 289.30,202.20 290.75,203.58 292.47,205.18 295.46,207.57 297.02,208.65 300.12,210.63 303.22,212.33 305.17,213.26 309.11,214.87 312.52,216.11 315.62,217.15 318.79,217.97 323.35,219.12 325.72,219.71 331.07,220.76 334.17,221.37 340.33,222.25 345.00,222.89 349.63,223.53 355.83,224.25 358.89,224.57 365.09,225.19 372.82,225.80 377.37,226.15 382.11,226.48 388.31,226.84 394.47,227.20 402.20,227.55 406.87,227.74 411.49,227.92 417.69,228.16 423.85,228.40 430.05,228.60 437.78,228.82 443.98,229.00 450.17,229.14 456.33,229.28 460.54,229.38 465.63,229.48 473.36,229.61 479.56,229.72 485.72,229.81 491.91,229.89 498.11,229.98 505.84,230.07 512.04,230.13 518.20,230.20 524.40,230.24 530.59,230.29 536.75,230.33 544.48,230.39 550.68,230.43 553.74,230.99"/>
<line x1="78" y1="266.64" x2="772" y2="266.64" stroke="#2ca02c" opacity="0.18" stroke-dasharray="3 4"/>
<polyline fill="none" stroke="#2ca02c" stroke-width="2.0" points="91.35,266.64 100.26,266.65 109.21,266.64 120.35,266.64 129.30,266.64 138.21,266.64 147.13,266.65 156.08,266.67 164.99,266.73 176.17,266.91 185.08,267.27 194.03,268.09 202.95,268.14 211.86,267.64 223.03,267.29 231.95,267.18 240.90,267.13 249.81,267.13 258.73,267.14 267.68,267.14 278.81,267.11 287.77,266.79 292.20,266.58 296.68,266.01 303.41,264.84 306.44,264.00 310.07,262.67 312.29,261.71 314.55,260.58 317.53,258.85 320.40,256.97 323.46,254.72 325.68,252.94 327.94,251.01 330.16,249.00 332.83,246.44 335.21,244.03 337.20,241.94 339.07,239.93 342.09,236.56 343.97,234.38 346.84,230.99 349.90,227.29 352.50,224.07 354.72,221.28 356.94,218.46 359.16,215.60 361.41,212.68 363.63,209.78 366.39,206.16 368.72,203.08 370.63,200.54 372.93,197.49 375.72,193.78 377.71,191.12 379.93,188.16 381.92,185.50 384.10,182.57 386.13,179.85 388.92,176.09 391.03,173.25 393.13,170.42 395.20,167.67 397.38,164.79 399.44,162.09 401.74,159.12 403.80,156.46 406.06,153.65 407.71,151.61 409.77,149.03 411.80,146.51 412.72,145.38 413.56,144.38 414.10,143.75 414.63,143.11 414.94,142.75 415.44,142.16 415.89,141.61 416.20,141.25 416.74,140.62 417.08,140.21 417.88,139.25 419.45,137.39 420.60,136.03 420.94,135.62 421.56,134.90 422.05,134.31 422.59,133.67 423.39,132.78 424.31,131.78 425.50,130.47 426.80,129.04 427.68,128.08 428.63,127.03 429.21,126.40 430.59,124.89 432.00,123.33 432.54,122.74 433.65,121.52 435.02,120.04 436.40,118.68 437.17,117.92 437.47,117.62 438.43,116.68 439.39,115.73 439.73,115.39 440.65,114.49 441.41,113.73 441.91,113.24 442.91,112.26 443.98,111.34 447.50,108.35 450.02,106.21 452.78,104.37 455.84,102.32 456.41,102.02 457.29,101.56 458.40,100.97 458.78,100.77 459.62,100.33 462.34,99.21 463.14,98.89 465.78,97.84 468.84,96.91 473.01,95.69 475.65,95.06 475.85,95.01 476.00,94.98 476.15,94.94 477.38,94.65 477.53,94.61 477.72,94.57 477.87,94.53 478.03,94.49 478.18,94.46 478.33,94.42 478.49,94.38 478.68,94.34 478.83,94.30 478.98,94.27 483.99,93.29 486.41,92.85 492.83,91.78 494.29,91.59 495.32,91.45 496.28,91.31 497.04,91.21 503.35,90.35 506.49,89.98 508.71,89.76 511.77,89.45 514.53,89.18 518.43,88.79 522.60,88.39 523.90,88.29 526.04,88.14 527.27,88.04 528.80,87.93 529.45,87.88 531.47,87.73 532.62,87.65 533.65,87.57 534.57,87.50 535.49,87.43 537.75,87.26 539.28,87.17 546.55,86.75 548.88,86.61 553.89,86.33 554.20,86.31 555.04,86.28 555.84,86.24 556.42,86.21 557.22,86.18 557.53,86.16 558.37,86.12 558.98,86.10 559.48,86.07 560.55,86.03 561.12,86.00 561.93,85.96 562.27,85.95 562.85,85.92 563.65,85.89 563.96,85.87 564.45,85.85 565.33,85.81 566.10,85.77 566.29,85.77 567.02,85.73 567.59,85.71 568.39,85.67 569.20,85.64 570.08,85.60 570.88,85.56 571.42,85.53 572.56,85.49 573.44,85.46 574.63,85.42 575.66,85.39 576.31,85.36 577.12,85.34 577.96,85.31 578.84,85.28 579.64,85.25 580.14,85.23 580.79,85.21 581.98,85.17 582.47,85.15 583.70,85.11 585.34,85.05 586.22,85.02 587.37,84.98 588.71,84.94 590.74,84.87 591.62,84.84 593.26,84.78 598.01,84.66 606.92,84.42 615.83,84.19 627.01,83.96 631.48,83.86 640.40,83.71 647.09,83.59 656.01,83.46 662.70,83.36 669.40,83.27 675.40,83.20 682.83,83.11 691.74,83.02 698.43,82.96 709.61,82.86 714.04,82.82 722.16,82.76 729.69,82.71 737.84,82.66 743.27,82.62 752.00,82.57 756.47,82.55 758.65,82.00"/>
<line x1="78" y1="266.64" x2="772" y2="266.64" stroke="#9467bd" opacity="0.18" stroke-dasharray="3 4"/>
<polyline fill="none" stroke="#9467bd" stroke-width="2.0" points="91.35,82.00 93.07,82.00 94.79,82.00 96.05,82.00 97.35,82.00 99.04,82.00 99.53,82.00 99.72,82.01 99.88,82.01 100.18,82.01 100.41,82.01 101.10,82.01 101.41,82.01 101.56,82.01 101.98,82.00 102.14,81.99 102.67,81.96 102.94,81.94 103.28,81.92 103.70,81.90 104.20,81.88 104.39,81.88 104.77,81.88 105.04,81.88 105.39,81.90 105.58,81.91 105.96,81.95 106.31,81.99 106.65,82.03 106.99,82.09 107.22,82.13 107.57,82.20 107.72,82.23 107.99,82.29 108.45,82.40 108.60,82.45 108.75,82.49 109.21,82.62 109.71,82.77 110.63,83.09 110.90,83.19 111.20,83.31 111.62,83.48 111.85,83.58 112.08,83.68 112.31,83.78 112.50,83.86 112.77,84.00 113.12,84.17 113.38,84.30 113.69,84.47 113.92,84.60 114.15,84.73 114.42,84.89 114.65,85.02 114.95,85.21 115.18,85.37 115.37,85.50 115.56,85.64 115.83,85.83 116.02,85.97 116.25,86.13 116.44,86.27 116.71,86.49 117.09,86.83 117.40,87.10 117.71,87.37 118.01,87.64 118.20,87.84 118.40,88.04 118.62,88.29 118.82,88.50 119.01,88.70 119.16,88.87 119.31,89.06 119.47,89.25 119.66,89.49 119.85,89.73 120.04,90.00 120.23,90.27 120.42,90.54 120.61,90.83 120.81,91.13 121.00,91.43 121.53,92.37 121.88,93.05 122.14,93.60 122.41,94.18 122.72,94.91 122.95,95.49 123.14,95.99 123.37,96.64 123.75,97.80 123.94,98.44 124.17,99.25 124.36,99.95 124.55,100.71 124.94,102.34 125.17,103.40 125.40,104.52 125.66,105.90 125.86,106.93 126.24,109.09 126.47,110.46 126.70,111.88 126.85,112.84 127.04,114.07 127.27,115.59 127.42,116.63 127.65,118.20 127.84,119.54 128.00,120.63 128.19,122.01 128.50,124.25 128.76,126.25 128.95,127.69 129.18,129.45 129.38,130.93 129.57,132.42 129.72,133.61 130.03,136.03 130.37,138.76 130.64,140.90 130.91,143.05 131.14,144.90 131.29,146.13 131.63,148.90 131.79,150.14 131.98,151.68 132.24,153.83 132.55,156.27 132.93,159.32 133.12,160.83 133.32,162.33 133.58,164.42 133.81,166.19 134.00,167.66 134.31,169.97 134.62,172.25 134.81,173.65 135.15,176.13 135.46,178.26 135.80,180.59 136.11,182.59 136.38,184.27 136.64,185.89 136.95,187.67 137.10,188.53 137.49,190.59 137.72,191.75 138.14,193.77 138.56,195.62 138.83,196.72 139.28,198.45 139.74,200.02 140.09,201.09 140.39,201.97 140.89,203.30 141.08,203.79 141.39,204.58 141.58,205.09 142.23,206.93 142.61,208.11 143.00,209.35 143.38,210.62 143.72,211.77 143.95,212.54 144.45,214.20 144.68,214.96 145.14,216.46 145.56,217.81 145.98,219.12 146.25,219.96 146.63,221.07 147.43,223.41 147.62,223.92 148.24,225.53 148.73,226.83 149.16,227.93 150.03,229.98 150.57,231.23 150.99,232.21 151.30,232.84 151.76,233.77 152.18,234.62 152.48,235.24 153.33,236.93 153.94,237.99 154.40,238.79 154.66,239.25 155.54,240.77 155.77,241.17 156.77,242.63 157.88,244.25 158.41,245.03 158.68,245.37 159.87,246.82 160.86,248.03 161.59,248.86 162.58,249.86 163.73,251.01 164.50,251.78 165.45,252.55 167.14,253.92 168.02,254.62 169.32,255.45 170.58,256.26 171.73,257.00 172.53,257.40 174.44,258.35 175.94,259.09 176.36,259.25 177.85,259.81 179.57,260.45 181.29,261.04 182.55,261.38 184.28,261.84 186.00,262.29 187.26,262.59 188.98,262.89 190.28,263.11 192.00,263.41 193.69,263.70 195.41,264.00 196.29,264.14 197.97,264.35 200.12,264.62 201.42,264.78 202.68,264.94 203.56,265.05 205.28,265.21 207.42,265.42 208.38,265.51 209.99,265.62 211.71,265.73 213.39,265.84 214.69,265.92 216.83,266.01 218.56,266.08 219.36,266.64"/>
<line x1="88" y1="72" x2="110" y2="72" stroke="#1f77b4" stroke-width="2.4"/>
<text x="116" y="76" font-family="Arial, sans-serif" font-size="12">rising #1</text>
<line x1="88" y1="90" x2="110" y2="90" stroke="#d62728" stroke-width="2.4"/>
<text x="116" y="94" font-family="Arial, sans-serif" font-size="12">falling #2</text>
<line x1="88" y1="108" x2="110" y2="108" stroke="#2ca02c" stroke-width="2.4"/>
<text x="116" y="112" font-family="Arial, sans-serif" font-size="12">rising #3</text>
<line x1="88" y1="126" x2="110" y2="126" stroke="#9467bd" stroke-width="2.4"/>
<text x="116" y="130" font-family="Arial, sans-serif" font-size="12">falling #4</text>
<rect x="78" y="342" width="694" height="44" fill="#fffdf7" stroke="#d8c6a1" rx="4"/>
<text x="88" y="359" font-family="Arial, sans-serif" font-size="11" font-weight="700" fill="#4b3b21">Findings needing attention</text>
<rect x="88" y="366" width="7" height="7" fill="#b54708"/>
<text x="102" y="373" font-family="Arial, sans-serif" font-size="11" fill="#333">WARN 5.5.4: Ramp dt versus V-T 20-80% evidence needs review | avg Ramp dt=7.652e-09s, avg V-T 20-80% span=4.916e-...</text>
<text x="425.00" y="322.00" text-anchor="middle" font-family="Arial, sans-serif" font-size="12">Time (s)</text>
<text x="420" y="42" font-family="Arial, sans-serif" font-size="11" fill="#555">solid=V-T voltage, faint horizontal=V_fixture</text>
</svg>