<svg xmlns="http://www.w3.org/2000/svg" width="800" height="450" viewBox="0 0 800 450">
<rect width="100%" height="100%" fill="#ffffff"/>
<text x="78" y="25" font-family="Arial, sans-serif" font-size="16" font-weight="700">E34_GPIO_I2CSCLIN_1V1_00 V-T Waveforms</text>
<rect x="78" y="54" width="694" height="230" fill="#fbfbfb" stroke="#c8c8c8"/>
<text transform="translate(18 169.00) rotate(-90)" text-anchor="middle" font-family="Arial, sans-serif" font-size="12">Voltage (V)</text>
<line x1="78.00" y1="54" x2="78.00" y2="284" stroke="#ececec"/>
<text x="78.00" y="302" text-anchor="middle" font-family="Arial, sans-serif" font-size="10">-346p</text>
<line x1="216.80" y1="54" x2="216.80" y2="284" stroke="#ececec"/>
<text x="216.80" y="302" text-anchor="middle" font-family="Arial, sans-serif" font-size="10">3.25n</text>
<line x1="355.60" y1="54" x2="355.60" y2="284" stroke="#ececec"/>
<text x="355.60" y="302" text-anchor="middle" font-family="Arial, sans-serif" font-size="10">6.84n</text>
<line x1="494.40" y1="54" x2="494.40" y2="284" stroke="#ececec"/>
<text x="494.40" y="302" text-anchor="middle" font-family="Arial, sans-serif" font-size="10">10.4n</text>
<line x1="633.20" y1="54" x2="633.20" y2="284" stroke="#ececec"/>
<text x="633.20" y="302" text-anchor="middle" font-family="Arial, sans-serif" font-size="10">14n</text>
<line x1="772.00" y1="54" x2="772.00" y2="284" stroke="#ececec"/>
<text x="772.00" y="302" text-anchor="middle" font-family="Arial, sans-serif" font-size="10">17.6n</text>
<line x1="78" y1="284.00" x2="772" y2="284.00" stroke="#ececec"/>
<text x="70" y="288.00" text-anchor="end" font-family="Arial, sans-serif" font-size="10">-0.0915</text>
<line x1="78" y1="226.50" x2="772" y2="226.50" stroke="#ececec"/>
<text x="70" y="230.50" text-anchor="end" font-family="Arial, sans-serif" font-size="10">0.229</text>
<line x1="78" y1="169.00" x2="772" y2="169.00" stroke="#ececec"/>
<text x="70" y="173.00" text-anchor="end" font-family="Arial, sans-serif" font-size="10">0.55</text>
<line x1="78" y1="111.50" x2="772" y2="111.50" stroke="#ececec"/>
<text x="70" y="115.50" text-anchor="end" font-family="Arial, sans-serif" font-size="10">0.871</text>
<line x1="78" y1="54.00" x2="772" y2="54.00" stroke="#ececec"/>
<text x="70" y="58.00" text-anchor="end" font-family="Arial, sans-serif" font-size="10">1.2</text>
<line x1="78" y1="70.42" x2="772" y2="70.42" stroke="#1f77b4" opacity="0.18" stroke-dasharray="3 4"/>
<polyline fill="none" stroke="#1f77b4" stroke-width="2.0" points="91.35,84.33 95.44,84.33 98.65,84.33 104.71,84.33 107.14,84.33 112.01,84.33 115.14,84.33 116.03,84.33 120.55,84.32 122.98,84.32 125.76,84.32 126.65,84.32 127.42,84.32 127.85,84.32 129.08,84.32 130.40,84.32 131.24,84.32 131.55,84.32 132.25,84.33 132.75,84.33 133.18,84.33 133.41,84.33 133.91,84.33 134.14,84.33 134.53,84.33 135.03,84.33 135.61,84.33 135.92,84.33 136.19,84.33 136.65,84.33 136.96,84.33 137.39,84.33 137.70,84.33 137.97,84.33 138.20,84.33 138.47,84.33 138.82,84.33 139.24,84.33 139.47,84.33 139.82,84.33 140.13,84.33 140.55,84.33 141.13,84.33 141.52,84.33 141.91,84.33 142.33,84.33 142.99,84.33 143.26,84.33 143.91,84.33 144.53,84.33 145.11,84.33 145.57,84.33 145.88,84.33 146.23,84.33 146.81,84.33 147.66,84.33 149.28,84.33 150.94,84.33 152.45,84.32 154.42,84.30 155.04,84.29 155.50,84.29 156.08,84.28 156.35,84.27 157.39,84.25 157.66,84.25 157.90,84.24 158.13,84.24 159.17,84.21 159.63,84.19 160.10,84.18 160.91,84.17 161.49,84.18 162.14,84.21 162.88,84.29 163.77,84.47 164.54,84.70 165.27,84.98 165.58,85.10 166.16,85.33 166.55,85.47 167.09,85.65 167.63,85.76 168.17,85.77 168.56,85.67 168.90,85.52 169.37,85.19 169.87,84.66 170.14,84.32 170.49,83.81 170.64,83.57 170.99,82.99 171.34,82.36 171.65,81.78 171.95,81.19 172.26,80.59 172.53,80.07 172.92,79.33 173.35,78.55 173.65,78.01 173.92,77.56 174.16,77.20 174.47,76.73 174.93,76.09 175.43,75.47 175.89,74.96 176.24,74.61 176.63,74.26 177.01,73.93 177.48,73.57 177.83,73.33 178.56,72.88 178.83,72.73 179.10,72.59 180.10,72.13 180.45,72.00 181.34,71.72 181.73,71.62 182.27,71.50 183.19,71.33 184.39,71.17 185.01,71.11 186.21,71.01 186.55,70.98 187.02,70.95 187.79,70.91 188.52,70.88 189.26,70.85 189.91,70.83 190.80,70.80 191.88,70.78 193.51,70.75 195.01,70.73 195.90,70.72 197.37,70.70 199.45,70.68 200.38,70.68 201.73,70.67 202.93,70.66 204.94,70.65 205.67,70.65 207.03,70.64 208.11,70.63 209.92,70.62 211.39,70.61 212.90,70.60 213.55,70.60 216.26,70.59 217.65,70.58 219.08,70.58 221.66,70.59 222.71,70.60 223.67,70.61 224.14,70.61 224.79,70.61 225.80,70.62 226.38,70.63 227.34,70.64 227.96,70.64 229.62,70.66 230.86,70.67 232.44,70.67 235.03,70.68 235.95,70.67 236.84,70.67 237.38,70.67 238.04,70.67 238.62,70.66 239.16,70.66 239.62,70.65 240.01,70.65 240.36,70.65 240.74,70.65 241.09,70.64 241.48,70.64 241.94,70.63 242.56,70.63 243.06,70.63 243.45,70.62 244.03,70.62 244.45,70.61 245.11,70.61 245.61,70.61 246.19,70.60 247.04,70.60 247.81,70.59 248.62,70.58 249.47,70.58 250.67,70.57 251.56,70.56 252.29,70.56 252.72,70.56 254.34,70.55 255.92,70.54 257.58,70.53 259.36,70.53 261.64,70.52 264.07,70.51 267.12,70.50 269.75,70.49 271.80,70.48 275.00,70.48 279.87,70.47 284.74,70.46 289.60,70.45 294.47,70.44 298.14,70.44 303.01,70.44 305.44,70.44 310.27,70.43 313.94,70.43 318.26,70.43 322.43,70.43 327.30,70.43 332.90,70.42 337.03,70.42 341.90,70.42 346.77,70.42 351.63,70.42 356.50,70.42 362.60,70.42 367.47,70.42 372.34,70.42 377.20,70.42 382.07,70.42 385.70,70.42 391.76,70.42 396.63,70.42 401.50,70.42 406.36,70.42 411.23,70.42 417.33,70.42 422.20,70.42 427.07,70.42 431.93,70.42 436.80,70.42 441.67,70.42 447.73,70.42 452.60,70.42 454.99,70.42"/>
<line x1="78" y1="70.42" x2="772" y2="70.42" stroke="#d62728" opacity="0.18" stroke-dasharray="3 4"/>
<polyline fill="none" stroke="#d62728" stroke-width="2.0" points="91.35,70.42 98.03,70.42 106.99,70.42 118.11,70.42 127.07,70.42 131.52,70.43 140.44,70.42 142.52,70.42 143.68,70.42 145.88,70.42 147.16,70.42 154.92,70.42 158.71,70.42 160.21,70.42 161.45,70.42 162.92,70.41 164.35,70.41 166.89,70.41 167.47,70.41 167.98,70.41 168.56,70.41 169.48,70.41 170.80,70.41 172.30,70.41 173.46,70.41 173.73,70.41 174.19,70.41 174.93,70.42 176.67,70.43 177.40,70.44 178.21,70.46 178.71,70.46 179.76,70.49 180.49,70.50 180.88,70.51 181.53,70.52 181.77,70.52 183.12,70.49 183.77,70.44 184.78,70.33 185.51,70.24 186.21,70.16 187.10,70.06 188.06,69.97 188.87,69.91 189.45,69.89 189.84,69.87 190.22,69.87 191.23,69.86 192.19,69.88 193.55,69.90 194.78,69.92 196.25,69.94 197.45,69.94 198.72,69.94 199.76,69.93 200.34,69.93 201.70,69.91 202.66,69.91 203.12,69.90 204.01,69.89 206.60,69.90 207.91,69.92 208.84,69.93 209.65,69.95 211.12,69.98 211.93,70.00 212.51,70.02 213.13,70.04 214.44,70.07 215.79,70.11 217.26,70.15 219.19,70.20 223.02,70.32 226.22,70.45 227.15,70.50 228.04,70.55 228.35,70.57 228.81,70.60 229.81,70.69 230.08,70.71 231.13,70.80 231.98,70.88 232.79,70.94 233.17,70.98 233.83,71.04 236.07,71.31 237.19,71.45 238.31,71.60 240.51,71.93 241.75,72.13 243.25,72.40 244.41,72.62 246.46,73.02 247.00,73.14 247.46,73.23 248.16,73.38 248.70,73.50 249.59,73.68 250.17,73.81 250.75,73.94 252.06,74.23 252.49,74.32 253.22,74.48 253.76,74.60 254.84,74.84 255.46,74.97 256.23,75.14 256.81,75.27 257.58,75.44 258.28,75.59 258.74,75.69 259.21,75.79 259.94,75.94 260.75,76.11 261.52,76.28 261.99,76.37 262.61,76.50 263.07,76.60 263.42,76.67 264.03,76.80 265.08,77.01 265.54,77.09 266.97,77.37 267.74,77.52 269.33,77.82 270.95,78.11 272.72,78.40 274.46,78.68 276.24,78.98 278.02,79.26 281.11,79.70 284.23,80.13 286.05,80.35 287.75,80.52 288.60,80.61 290.03,80.76 292.31,80.99 294.47,81.21 295.51,81.31 297.06,81.47 299.68,81.69 300.34,81.74 301.00,81.79 301.31,81.82 301.62,81.84 302.31,81.90 302.62,81.92 305.28,82.13 305.59,82.15 306.52,82.21 307.33,82.26 307.72,82.29 308.57,82.34 308.88,82.36 309.96,82.43 310.27,82.45 311.31,82.52 312.35,82.58 314.98,82.72 319.00,82.92 320.43,82.99 321.28,83.03 325.91,83.17 330.51,83.31 334.29,83.43 337.88,83.53 341.32,83.60 344.18,83.66 348.00,83.74 352.48,83.81 355.15,83.84 358.55,83.87 361.41,83.90 363.38,83.92 364.73,83.94 368.20,83.97 370.17,83.99 372.57,84.02 374.96,84.04 377.78,84.07 381.49,84.09 383.92,84.10 387.59,84.12 390.41,84.13 393.81,84.15 397.13,84.17 400.61,84.18 403.81,84.20 406.98,84.20 410.50,84.21 412.74,84.21 417.22,84.22 421.66,84.23 425.17,84.23 428.84,84.24 432.86,84.25 437.30,84.25 442.94,84.26 447.69,84.27 451.48,84.28 455.22,84.28 459.63,84.28 466.31,84.29 472.10,84.29 477.47,84.30 483.26,84.30 488.63,84.30 495.32,84.30 503.43,84.31 510.80,84.31 517.64,84.31 524.32,84.32 531.04,84.32 539.96,84.32 548.89,84.32 555.57,84.32 564.53,84.32 571.21,84.32 580.13,84.32 591.30,84.32 597.98,84.32 606.94,84.32 615.86,84.32 624.78,84.32 633.71,84.32 644.87,84.33 653.67,84.33 660.47,84.33 669.43,84.33 678.35,84.33 689.52,84.33 698.44,84.33 707.36,84.33 716.28,84.33 725.21,84.33 734.13,84.33 745.29,84.33 754.21,84.33 758.65,84.33"/>
<line x1="78" y1="267.59" x2="772" y2="267.59" stroke="#2ca02c" opacity="0.18" stroke-dasharray="3 4"/>
<polyline fill="none" stroke="#2ca02c" stroke-width="2.0" points="91.35,267.59 99.46,267.59 107.53,267.59 117.65,267.59 125.76,267.58 130.20,267.59 130.82,267.59 131.21,267.59 131.52,267.59 131.98,267.59 133.06,267.59 133.64,267.59 134.33,267.59 134.61,267.59 134.91,267.59 135.15,267.59 135.38,267.59 135.61,267.59 135.88,267.59 136.19,267.59 137.00,267.59 137.31,267.59 137.66,267.59 138.16,267.59 138.51,267.59 138.85,267.59 139.32,267.59 139.66,267.59 139.94,267.59 140.24,267.59 140.55,267.59 140.98,267.59 141.71,267.59 142.18,267.59 142.60,267.59 143.57,267.59 144.61,267.59 146.12,267.59 148.74,267.59 152.10,267.59 156.23,267.59 159.36,267.60 160.75,267.59 161.37,267.59 162.41,267.57 163.69,267.55 164.31,267.54 164.92,267.54 165.39,267.54 166.01,267.54 166.47,267.55 166.97,267.56 167.40,267.58 167.82,267.61 168.36,267.65 168.63,267.68 169.25,267.74 169.68,267.78 170.33,267.85 171.10,267.92 171.65,267.97 171.99,267.99 172.57,268.04 172.92,268.06 173.69,268.10 174.19,268.12 174.47,268.13 174.85,268.14 175.24,268.14 175.51,268.13 176.28,268.10 176.82,268.07 177.21,268.05 177.86,268.00 178.40,267.96 178.98,267.91 179.64,267.86 180.03,267.84 180.30,267.82 180.64,267.80 181.38,267.77 182.15,267.75 182.69,267.74 183.19,267.74 183.70,267.73 184.43,267.73 185.24,267.73 186.52,267.73 187.98,267.73 189.37,267.73 190.53,267.73 192.58,267.73 194.09,267.73 196.33,267.73 197.99,267.73 199.96,267.72 202.70,267.72 204.82,267.71 208.76,267.70 210.66,267.69 214.29,267.68 218.38,267.67 220.39,267.66 222.78,267.64 224.99,267.60 226.41,267.54 227.34,267.47 229.12,267.31 230.78,267.07 231.28,266.98 232.44,266.73 233.06,266.60 233.48,266.51 234.22,266.31 235.03,266.10 235.45,265.98 236.92,265.52 237.58,265.32 238.50,265.00 239.70,264.60 240.47,264.33 241.40,264.00 242.37,263.66 243.22,263.36 243.91,263.12 244.88,262.79 245.69,262.51 246.07,262.37 246.73,262.16 247.73,261.84 248.62,261.55 249.55,261.25 250.94,260.81 251.44,260.66 253.30,260.10 254.15,259.85 254.96,259.61 255.92,259.35 256.66,259.16 257.31,258.98 258.70,258.61 259.67,258.36 261.91,257.86 264.11,257.36 265.66,257.01 267.47,256.68 269.21,256.36 271.53,255.94 273.57,255.64 276.90,255.20 279.64,254.85 282.61,254.46 285.08,254.21 289.72,253.74 292.35,253.55 296.86,253.22 299.88,253.05 305.94,252.79 311.46,252.55 316.06,252.39 320.12,252.28 325.60,252.13 328.23,252.09 332.28,252.04 337.30,251.97 341.51,251.91 344.06,251.88 346.30,251.84 348.47,251.83 350.51,251.82 353.37,251.80 356.00,251.78 358.59,251.77 360.63,251.75 363.53,251.73 364.65,251.73 367.20,251.71 369.09,251.70 370.75,251.69 373.38,251.69 374.81,251.68 377.90,251.68 380.60,251.67 382.57,251.67 384.93,251.66 387.52,251.66 390.33,251.65 392.69,251.65 395.05,251.64 398.14,251.64 401.11,251.63 404.43,251.63 408.10,251.62 411.15,251.61 414.09,251.61 417.06,251.60 418.72,251.60 422.43,251.60 427.41,251.59 431.47,251.59 435.53,251.59 437.53,251.59 441.59,251.58 447.65,251.58 451.71,251.58 455.76,251.58 461.40,251.57 463.88,251.57 469.94,251.57 477.90,251.57 483.15,251.57 486.55,251.57 492.23,251.57 498.29,251.57 505.28,251.57 510.46,251.57 517.91,251.56 524.59,251.56 531.81,251.56 536.02,251.56 544.87,251.56 552.94,251.56 559.04,251.56 567.12,251.56 575.23,251.56 583.34,251.56 593.46,251.56 601.34,251.56 607.63,251.56 615.71,251.56 623.82,251.56 633.94,251.56 642.05,251.56 650.12,251.56 658.23,251.56 666.34,251.56 674.41,251.56 684.53,251.56 692.65,251.56 696.66,251.56"/>
<line x1="78" y1="267.59" x2="772" y2="267.59" stroke="#9467bd" opacity="0.18" stroke-dasharray="3 4"/>
<polyline fill="none" stroke="#9467bd" stroke-width="2.0" points="91.35,251.56 95.71,251.56 100.04,251.56 105.48,251.56 109.85,251.56 114.17,251.56 118.54,251.56 122.90,251.56 127.23,251.56 130.51,251.56 131.59,251.56 134.84,251.56 136.07,251.56 136.69,251.56 138.12,251.56 138.70,251.56 139.12,251.56 139.28,251.56 139.55,251.56 139.86,251.56 140.24,251.56 140.51,251.56 140.78,251.56 141.06,251.56 141.29,251.56 141.52,251.56 141.83,251.56 142.10,251.56 142.37,251.56 142.64,251.56 143.03,251.56 143.33,251.56 143.60,251.56 143.95,251.56 144.26,251.56 144.53,251.56 144.80,251.56 145.19,251.56 145.54,251.56 145.84,251.56 146.12,251.56 146.54,251.56 147.00,251.56 147.39,251.56 147.81,251.56 148.16,251.56 148.47,251.56 148.78,251.56 149.20,251.56 149.63,251.56 149.94,251.56 150.36,251.56 150.71,251.56 151.17,251.56 151.56,251.56 151.95,251.56 152.33,251.56 152.76,251.56 153.22,251.56 153.96,251.56 154.46,251.56 154.88,251.56 155.50,251.56 156.04,251.56 156.78,251.56 157.78,251.56 158.78,251.56 159.52,251.56 160.17,251.56 160.99,251.56 162.03,251.56 162.96,251.57 164.19,251.57 165.31,251.58 167.47,251.59 169.13,251.60 171.84,251.62 172.73,251.63 174.27,251.65 174.85,251.65 175.35,251.65 176.20,251.65 176.47,251.64 176.98,251.63 177.25,251.62 177.71,251.60 178.25,251.55 178.79,251.50 179.14,251.45 179.60,251.38 180.14,251.28 180.64,251.17 180.99,251.08 181.42,250.97 181.84,250.84 182.54,250.63 182.81,250.55 183.27,250.41 184.01,250.27 184.58,250.24 185.20,250.33 185.70,250.50 186.01,250.64 186.52,250.94 186.86,251.20 187.33,251.59 187.71,251.97 188.14,252.42 188.52,252.86 188.99,253.41 189.34,253.84 189.91,254.57 190.46,255.25 190.88,255.79 191.42,256.46 192.04,257.18 192.50,257.72 192.97,258.23 193.47,258.77 193.93,259.25 194.47,259.78 195.01,260.30 195.59,260.83 196.13,261.30 196.79,261.85 197.45,262.37 198.18,262.92 198.91,263.42 199.61,263.87 200.11,264.16 201.04,264.65 202.20,265.16 203.05,265.49 204.09,265.81 204.98,266.02 205.79,266.20 207.72,266.52 209.27,266.72 210.77,266.88 212.47,267.01 214.13,267.11 215.75,267.19 217.53,267.26 219.69,267.32 221.86,267.37 224.06,267.40 225.49,267.42 228.38,267.45 233.83,267.47 237.11,267.48 241.13,267.50 242.52,267.50 243.60,267.50 244.99,267.51 245.96,267.51 247.27,267.51 247.97,267.51 248.86,267.52 249.36,267.52 250.67,267.52 251.79,267.52 252.79,267.52 253.72,267.52 254.84,267.53 255.61,267.53 256.15,267.53 256.97,267.53 257.78,267.53 258.40,267.53 259.32,267.53 260.36,267.54 260.94,267.54 261.49,267.54 262.03,267.54 262.53,267.54 263.11,267.54 263.80,267.54 264.30,267.54 264.92,267.54 265.35,267.54 266.00,267.54 266.82,267.54 267.47,267.55 268.09,267.55 268.63,267.55 269.21,267.55 269.79,267.55 270.56,267.55 271.14,267.55 272.15,267.55 273.00,267.55 273.61,267.55 274.54,267.55 275.54,267.56 276.24,267.56 277.32,267.56 278.44,267.56 279.68,267.56 280.95,267.56 281.69,267.56 282.77,267.56 284.47,267.56 286.05,267.56 287.13,267.57 288.37,267.57 290.38,267.57 291.50,267.57 293.12,267.57 295.13,267.57 297.37,267.57 300.34,267.57 302.39,267.57 305.32,267.58 307.80,267.58 311.04,267.58 313.24,267.58 317.34,267.58 320.58,267.58 324.09,267.58 327.38,267.58 332.82,267.58 337.15,267.58 341.51,267.58 345.88,267.58 350.20,267.59 354.57,267.59 360.02,267.59 364.34,267.59 368.71,267.59 373.07,267.59 377.40,267.59 382.84,267.59 387.21,267.59 391.53,267.59 395.90,267.59 400.26,267.59 404.59,267.59 410.03,267.59 414.40,267.59 416.52,267.59"/>
<line x1="88" y1="72" x2="110" y2="72" stroke="#1f77b4" stroke-width="2.4"/>
<text x="116" y="76" font-family="Arial, sans-serif" font-size="12">rising #1</text>
<line x1="88" y1="90" x2="110" y2="90" stroke="#d62728" stroke-width="2.4"/>
<text x="116" y="94" font-family="Arial, sans-serif" font-size="12">falling #2</text>
<line x1="88" y1="108" x2="110" y2="108" stroke="#2ca02c" stroke-width="2.4"/>
<text x="116" y="112" font-family="Arial, sans-serif" font-size="12">rising #3</text>
<line x1="88" y1="126" x2="110" y2="126" stroke="#9467bd" stroke-width="2.4"/>
<text x="116" y="130" font-family="Arial, sans-serif" font-size="12">falling #4</text>
<rect x="78" y="342" width="694" height="44" fill="#fffdf7" stroke="#d8c6a1" rx="4"/>
<text x="88" y="359" font-family="Arial, sans-serif" font-size="11" font-weight="700" fill="#4b3b21">Findings needing attention</text>
<rect x="88" y="366" width="7" height="7" fill="#b54708"/>
<text x="102" y="373" font-family="Arial, sans-serif" font-size="11" fill="#333">WARN 5.5.4: Ramp dt versus V-T 20-80% evidence needs review | avg Ramp dt=1.173e-09s, avg V-T 20-80% span=6.949e-...</text>
<text x="425.00" y="322.00" text-anchor="middle" font-family="Arial, sans-serif" font-size="12">Time (s)</text>
<text x="420" y="42" font-family="Arial, sans-serif" font-size="11" fill="#555">solid=V-T voltage, faint horizontal=V_fixture</text>
</svg>