<svg xmlns="http://www.w3.org/2000/svg" width="800" height="450" viewBox="0 0 800 450">
<rect width="100%" height="100%" fill="#ffffff"/>
<text x="78" y="25" font-family="Arial, sans-serif" font-size="16" font-weight="700">E34_GPIO_I2CSCLIN_3V3_10_ISOSW V-T Waveforms</text>
<rect x="78" y="54" width="694" height="230" fill="#fbfbfb" stroke="#c8c8c8"/>
<text transform="translate(18 169.00) rotate(-90)" text-anchor="middle" font-family="Arial, sans-serif" font-size="12">Voltage (V)</text>
<line x1="78.00" y1="54" x2="78.00" y2="284" stroke="#ececec"/>
<text x="78.00" y="302" text-anchor="middle" font-family="Arial, sans-serif" font-size="10">-111p</text>
<line x1="216.80" y1="54" x2="216.80" y2="284" stroke="#ececec"/>
<text x="216.80" y="302" text-anchor="middle" font-family="Arial, sans-serif" font-size="10">1.04n</text>
<line x1="355.60" y1="54" x2="355.60" y2="284" stroke="#ececec"/>
<text x="355.60" y="302" text-anchor="middle" font-family="Arial, sans-serif" font-size="10">2.19n</text>
<line x1="494.40" y1="54" x2="494.40" y2="284" stroke="#ececec"/>
<text x="494.40" y="302" text-anchor="middle" font-family="Arial, sans-serif" font-size="10">3.34n</text>
<line x1="633.20" y1="54" x2="633.20" y2="284" stroke="#ececec"/>
<text x="633.20" y="302" text-anchor="middle" font-family="Arial, sans-serif" font-size="10">4.49n</text>
<line x1="772.00" y1="54" x2="772.00" y2="284" stroke="#ececec"/>
<text x="772.00" y="302" text-anchor="middle" font-family="Arial, sans-serif" font-size="10">5.64n</text>
<line x1="78" y1="284.00" x2="772" y2="284.00" stroke="#ececec"/>
<text x="70" y="288.00" text-anchor="end" font-family="Arial, sans-serif" font-size="10">-0.311</text>
<line x1="78" y1="226.50" x2="772" y2="226.50" stroke="#ececec"/>
<text x="70" y="230.50" text-anchor="end" font-family="Arial, sans-serif" font-size="10">0.666</text>
<line x1="78" y1="169.00" x2="772" y2="169.00" stroke="#ececec"/>
<text x="70" y="173.00" text-anchor="end" font-family="Arial, sans-serif" font-size="10">1.6</text>
<line x1="78" y1="111.50" x2="772" y2="111.50" stroke="#ececec"/>
<text x="70" y="115.50" text-anchor="end" font-family="Arial, sans-serif" font-size="10">2.6</text>
<line x1="78" y1="54.00" x2="772" y2="54.00" stroke="#ececec"/>
<text x="70" y="58.00" text-anchor="end" font-family="Arial, sans-serif" font-size="10">3.6</text>
<line x1="78" y1="71.48" x2="772" y2="71.48" stroke="#1f77b4" opacity="0.18" stroke-dasharray="3 4"/>
<polyline fill="none" stroke="#1f77b4" stroke-width="2.0" points="91.35,169.92 98.71,169.92 106.19,169.92 115.36,169.92 122.84,169.92 130.20,169.92 137.55,169.92 145.03,169.92 152.39,169.92 161.68,169.92 169.04,169.92 176.40,169.92 183.88,169.92 191.24,169.92 200.53,169.92 205.72,169.92 206.81,169.92 207.89,169.92 209.46,169.92 210.31,169.92 211.63,169.92 213.93,169.92 214.65,169.92 215.37,169.92 216.10,169.92 216.58,169.92 217.18,169.92 217.67,169.92 218.15,169.92 218.63,169.92 219.35,169.92 220.20,169.92 220.68,169.92 221.41,169.92 221.89,169.92 222.37,169.92 222.85,169.92 223.46,169.92 223.94,169.92 224.54,169.92 225.15,169.92 225.75,169.92 226.59,169.92 227.44,169.92 228.40,169.92 229.13,169.92 229.97,169.92 230.70,169.92 231.54,169.92 232.14,169.92 232.75,169.92 233.71,169.92 234.56,169.92 235.64,169.92 236.73,169.92 237.33,169.92 238.05,169.92 239.02,169.91 240.11,169.91 241.07,169.91 241.92,169.91 242.88,169.91 243.85,169.90 244.93,169.90 246.38,169.89 247.10,169.88 249.40,169.90 251.21,169.97 252.29,170.03 253.50,170.12 256.27,170.34 257.36,170.39 258.20,170.40 259.17,170.36 259.89,170.29 260.50,170.21 261.58,169.98 262.06,169.84 262.55,169.69 263.03,169.50 263.63,169.23 264.48,168.75 265.20,168.24 265.80,167.73 266.53,167.01 267.13,166.30 267.73,165.47 268.70,163.90 269.42,162.50 270.15,160.90 270.99,158.81 271.84,156.47 272.68,153.91 273.53,151.19 274.49,147.88 274.97,146.17 275.94,142.65 277.02,138.58 277.99,134.92 279.08,130.80 280.04,127.16 281.13,123.14 282.69,117.54 283.90,113.38 284.63,110.94 285.47,108.18 286.19,105.90 287.16,102.97 288.12,100.19 288.85,98.23 289.57,96.38 290.54,94.10 291.86,91.32 293.07,89.10 294.88,86.35 296.69,84.12 297.66,83.15 300.43,80.82 301.76,79.94 302.60,79.42 304.53,78.42 305.50,77.99 307.07,77.38 308.15,76.98 309.96,76.42 313.34,75.57 314.18,75.39 315.15,75.21 317.08,74.87 319.01,74.56 321.06,74.28 325.04,73.82 328.18,73.52 329.99,73.36 333.73,73.09 337.35,72.87 342.90,72.60 346.64,72.45 352.19,72.28 354.00,72.23 357.74,72.14 361.48,72.07 365.70,72.00 367.15,71.97 369.08,71.95 374.39,71.88 376.32,71.86 379.94,71.83 383.68,71.80 388.75,71.76 392.97,71.74 398.52,71.71 405.88,71.68 415.17,71.65 420.72,71.64 424.58,71.63 426.63,71.62 428.44,71.62 430.25,71.62 432.30,71.61 433.26,71.61 434.35,71.61 435.68,71.61 436.52,71.60 437.61,71.60 438.45,71.60 439.42,71.60 440.38,71.60 441.35,71.60 442.43,71.60 443.76,71.59 444.48,71.59 445.57,71.59 447.02,71.59 448.47,71.59 449.67,71.59 451.00,71.58 452.45,71.58 453.77,71.58 454.62,71.58 455.95,71.58 457.51,71.58 458.48,71.58 459.69,71.57 461.13,71.57 462.46,71.57 463.67,71.57 465.48,71.57 466.93,71.57 468.25,71.57 469.58,71.56 471.03,71.56 472.60,71.56 474.16,71.56 475.97,71.56 477.90,71.56 479.71,71.56 481.40,71.56 482.61,71.55 485.38,71.55 487.07,71.55 487.92,71.55 489.37,71.55 492.02,71.55 493.83,71.55 495.28,71.55 498.41,71.54 499.98,71.54 501.31,71.54 506.98,71.54 508.91,71.54 511.32,71.54 515.06,71.54 520.61,71.53 523.15,71.53 529.78,71.53 536.90,71.53 538.11,71.53 540.88,71.53 543.54,71.53 545.83,71.53 549.93,71.52 550.41,71.52 551.98,71.52 555.72,71.52 561.27,71.52 566.10,71.52 570.56,71.52 577.92,71.52 580.46,71.52 582.02,71.52 587.21,71.51 594.57,71.51 601.93,71.51 609.41,71.51 616.77,71.51 624.13,71.51 633.42,71.51 640.78,71.51 644.40,71.48"/>
<line x1="78" y1="71.48" x2="772" y2="71.48" stroke="#d62728" opacity="0.18" stroke-dasharray="3 4"/>
<polyline fill="none" stroke="#d62728" stroke-width="2.0" points="91.35,71.48 100.03,71.48 108.72,71.48 119.70,71.48 128.39,71.48 137.07,71.48 145.76,71.48 154.45,71.48 163.25,71.48 174.11,71.48 182.80,71.48 190.52,71.48 193.66,71.48 195.83,71.48 198.00,71.48 201.98,71.48 202.95,71.48 204.03,71.48 205.12,71.48 206.57,71.48 210.43,71.48 211.39,71.48 212.12,71.48 213.20,71.48 213.93,71.48 214.89,71.48 216.70,71.48 218.15,71.48 219.60,71.48 221.04,71.48 221.89,71.48 223.70,71.48 224.66,71.48 226.23,71.48 226.96,71.48 227.92,71.48 229.01,71.49 230.33,71.49 231.30,71.50 231.90,71.50 232.38,71.50 232.99,71.50 234.07,71.51 235.16,71.52 235.64,71.52 236.37,71.53 237.69,71.55 238.30,71.55 239.26,71.56 240.23,71.56 241.55,71.56 242.28,71.55 243.24,71.54 244.09,71.51 244.81,71.49 245.41,71.46 246.14,71.41 246.86,71.36 247.71,71.28 248.55,71.18 249.40,71.06 250.12,70.95 250.72,70.85 251.45,70.73 252.41,70.57 253.26,70.44 253.86,70.34 254.46,70.25 255.07,70.16 255.79,70.07 256.63,69.97 257.36,69.91 258.57,69.86 259.41,69.87 260.62,69.95 261.46,70.06 263.03,70.39 263.87,70.64 264.60,70.90 265.56,71.29 266.53,71.74 267.61,72.32 268.82,73.05 270.15,73.95 271.23,74.77 272.20,75.57 273.28,76.53 274.37,77.56 274.97,78.17 276.30,79.60 277.39,80.87 278.11,81.76 279.68,83.85 281.01,85.80 281.73,86.94 282.69,88.54 283.42,89.81 284.02,90.92 285.23,93.28 286.44,95.82 287.28,97.69 288.37,100.19 289.45,102.80 291.14,107.02 292.35,110.13 293.79,113.93 294.88,116.81 296.09,120.02 297.29,123.22 298.74,127.03 300.19,130.75 301.40,133.76 302.60,136.65 303.45,138.61 304.29,140.49 305.01,142.03 306.46,144.95 307.79,147.42 308.63,148.87 309.72,150.61 310.81,152.20 311.89,153.64 313.10,155.09 314.18,156.26 315.63,157.65 316.84,158.67 318.89,160.16 320.70,161.25 322.63,162.22 324.56,163.03 326.49,163.69 328.66,164.32 331.56,165.01 335.06,165.67 338.19,166.15 344.59,166.91 350.50,167.45 359.19,168.04 365.70,168.37 372.22,168.63 376.80,168.78 380.90,168.89 384.40,168.98 387.42,169.05 391.52,169.13 396.23,169.20 397.91,169.23 401.53,169.28 403.10,169.30 405.27,169.33 406.72,169.35 408.41,169.37 409.74,169.38 410.82,169.40 411.79,169.41 414.20,169.43 417.22,169.46 418.79,169.47 421.44,169.50 423.37,169.51 425.78,169.53 426.75,169.54 427.59,169.54 429.04,169.55 430.85,169.56 432.78,169.58 433.87,169.58 435.32,169.59 436.76,169.60 437.97,169.61 439.78,169.62 440.62,169.62 442.07,169.63 444.12,169.64 445.21,169.64 446.29,169.65 447.50,169.65 448.83,169.66 449.91,169.66 451.24,169.67 452.81,169.68 454.14,169.68 455.71,169.69 457.27,169.69 459.08,169.70 460.53,169.70 461.62,169.71 465.00,169.72 466.44,169.72 468.25,169.73 469.22,169.73 470.18,169.73 471.75,169.74 473.68,169.74 474.41,169.74 475.13,169.75 476.70,169.75 478.03,169.75 479.59,169.76 481.04,169.76 483.21,169.77 485.63,169.77 486.83,169.77 489.25,169.78 493.23,169.78 496.36,169.79 497.81,169.79 500.71,169.80 503.60,169.80 507.22,169.81 511.20,169.81 515.55,169.82 518.68,169.82 524.60,169.83 531.11,169.83 539.19,169.84 546.19,169.85 552.95,169.85 559.46,169.85 568.15,169.86 579.01,169.87 587.82,169.87 594.33,169.87 600.85,169.88 609.53,169.88 618.22,169.88 629.20,169.88 637.88,169.89 646.57,169.89 655.26,169.89 663.94,169.89 674.92,169.89 683.61,169.90 692.30,169.90 700.98,169.90 709.67,169.90 718.36,169.90 729.34,169.90 738.02,169.90 742.25,169.92"/>
<line x1="78" y1="265.67" x2="772" y2="265.67" stroke="#2ca02c" opacity="0.18" stroke-dasharray="3 4"/>
<polyline fill="none" stroke="#2ca02c" stroke-width="2.0" points="91.35,265.67 100.27,265.67 109.20,265.67 120.42,265.67 129.35,265.67 138.28,265.67 147.21,265.67 156.13,265.67 165.06,265.67 176.16,265.67 185.09,265.67 194.02,265.67 202.95,265.67 206.44,265.67 207.77,265.67 208.62,265.67 209.70,265.67 210.67,265.67 214.77,265.67 218.51,265.67 220.80,265.67 221.41,265.67 222.01,265.67 222.85,265.67 223.82,265.67 224.66,265.67 225.75,265.67 226.47,265.67 227.20,265.67 227.68,265.67 228.28,265.67 228.89,265.67 229.37,265.67 229.97,265.67 230.57,265.67 231.18,265.67 232.02,265.67 232.99,265.67 233.95,265.67 234.92,265.67 235.88,265.67 236.73,265.67 238.05,265.66 239.26,265.66 240.11,265.66 241.07,265.65 242.04,265.65 243.00,265.65 244.09,265.64 244.93,265.63 245.90,265.62 246.74,265.61 247.83,265.60 248.79,265.60 249.40,265.60 249.88,265.61 250.48,265.62 250.96,265.64 251.69,265.67 252.29,265.71 252.77,265.74 253.26,265.78 253.74,265.82 254.58,265.91 255.67,266.04 257.00,266.22 258.08,266.38 260.13,266.67 261.46,266.85 262.79,267.03 265.44,267.42 267.13,267.66 268.82,267.87 270.39,268.03 271.60,268.12 272.68,268.14 273.65,268.08 274.37,267.98 275.34,267.77 276.42,267.40 276.90,267.17 278.23,266.34 279.08,265.62 279.92,264.74 280.64,263.83 281.25,262.97 282.09,261.60 283.06,259.80 284.02,257.77 284.75,256.11 285.71,253.72 286.56,251.50 287.64,248.47 288.37,246.37 289.69,242.36 290.78,238.98 291.62,236.30 292.59,233.22 294.16,228.17 295.12,225.08 296.21,221.62 297.05,218.96 298.26,215.23 299.47,211.60 300.19,209.49 301.27,206.39 302.48,203.09 303.45,200.59 304.17,198.79 305.26,196.21 306.22,194.14 307.79,190.92 308.63,189.35 310.08,186.93 311.53,184.79 312.50,183.51 313.46,182.34 314.67,181.02 315.99,179.72 316.84,178.97 317.92,178.08 318.53,177.62 319.49,176.94 321.18,175.89 323.35,174.74 324.80,174.07 327.21,173.08 327.94,172.81 329.99,172.12 332.04,171.51 334.69,170.84 336.50,170.43 338.43,170.04 339.28,169.90 340.49,169.69 342.42,169.37 345.79,168.88 352.55,168.11 356.65,167.74 358.82,167.57 362.81,167.29 367.03,167.05 377.04,166.60 382.59,166.41 388.26,166.26 397.19,166.08 406.12,165.95 415.05,165.85 426.15,165.76 432.90,165.71 439.54,165.68 446.90,165.64 449.55,165.63 452.09,165.62 454.14,165.61 456.19,165.61 458.12,165.60 459.93,165.59 461.86,165.59 463.79,165.58 464.87,165.58 466.32,165.58 467.89,165.57 469.82,165.57 471.87,165.56 473.08,165.56 474.41,165.56 475.37,165.55 477.06,165.55 478.27,165.55 479.71,165.54 481.52,165.54 483.21,165.54 484.90,165.53 487.07,165.53 489.25,165.53 491.42,165.52 492.62,165.52 494.31,165.52 495.52,165.52 496.85,165.51 499.14,165.51 500.59,165.51 502.52,165.51 504.33,165.50 506.50,165.50 507.46,165.50 510.60,165.50 511.44,165.50 511.93,165.49 512.89,165.49 513.74,165.49 515.43,165.49 516.15,165.49 517.48,165.49 519.41,165.49 519.89,165.49 521.10,165.48 523.51,165.48 525.80,165.48 527.01,165.48 528.34,165.48 530.75,165.48 533.89,165.47 537.75,165.47 541.49,165.47 542.93,165.47 546.43,165.46 547.52,165.46 553.43,165.46 560.07,165.45 561.39,165.45 562.72,165.45 564.41,165.45 567.67,165.45 571.29,165.45 573.94,165.45 578.16,165.45 580.21,165.44 582.39,165.44 591.31,165.44 598.07,165.44 607.00,165.43 615.93,165.43 622.56,165.43 631.49,165.43 642.71,165.42 651.64,165.42 660.57,165.42 669.49,165.42 678.42,165.42 689.52,165.41 698.45,165.41 707.38,165.41 716.31,165.41 725.23,165.41 734.16,165.41 745.38,165.41 754.31,165.41 758.65,165.39"/>
<line x1="78" y1="265.67" x2="772" y2="265.67" stroke="#9467bd" opacity="0.18" stroke-dasharray="3 4"/>
<polyline fill="none" stroke="#9467bd" stroke-width="2.0" points="91.35,165.38 96.53,165.38 103.41,165.38 110.53,165.38 115.72,165.38 122.35,165.38 125.85,165.38 129.23,165.38 134.42,165.38 141.29,165.38 146.48,165.38 149.14,165.38 155.05,165.38 161.93,165.38 170.61,165.38 175.80,165.38 182.68,165.38 186.06,165.38 189.55,165.38 191.85,165.38 193.54,165.38 194.38,165.38 194.86,165.38 195.35,165.38 196.55,165.38 198.72,165.38 201.38,165.38 203.19,165.38 204.76,165.38 205.84,165.38 207.41,165.38 208.86,165.38 209.70,165.38 210.55,165.38 211.51,165.38 212.48,165.38 213.32,165.38 214.41,165.38 215.37,165.38 215.98,165.38 216.82,165.38 217.79,165.38 218.87,165.38 219.72,165.38 220.56,165.38 221.65,165.38 222.25,165.38 222.73,165.38 223.58,165.38 224.06,165.38 224.66,165.39 225.27,165.39 225.87,165.39 226.71,165.39 227.44,165.39 227.92,165.39 228.52,165.39 229.49,165.40 230.57,165.40 231.42,165.40 232.02,165.40 232.63,165.41 233.23,165.41 234.19,165.41 235.28,165.41 236.12,165.42 236.97,165.42 237.57,165.42 238.18,165.42 238.90,165.42 239.86,165.42 240.83,165.41 241.80,165.40 242.64,165.38 243.36,165.36 244.09,165.33 244.69,165.30 245.17,165.28 245.78,165.24 246.38,165.21 247.10,165.15 247.95,165.08 248.67,165.01 249.15,164.96 249.76,164.89 250.24,164.84 251.08,164.76 251.69,164.71 252.53,164.65 253.02,164.63 253.50,164.62 254.22,164.62 255.19,164.65 255.79,164.69 256.51,164.78 257.12,164.87 257.60,164.97 258.32,165.14 259.53,165.53 260.74,166.07 261.70,166.63 262.67,167.29 263.75,168.18 264.96,169.36 265.68,170.17 266.65,171.38 267.73,172.93 268.70,174.50 269.66,176.25 270.75,178.46 271.72,180.66 272.56,182.75 273.53,185.36 274.13,187.10 275.21,190.42 275.82,192.37 276.66,195.21 277.39,197.74 278.23,200.79 279.20,204.37 280.40,209.00 281.49,213.25 282.57,217.52 284.14,223.56 285.11,227.10 286.07,230.43 287.52,235.02 288.49,237.77 289.45,240.25 290.42,242.53 291.38,244.58 292.83,247.19 294.28,249.45 296.21,251.96 297.78,253.63 299.95,255.50 303.21,257.69 305.74,259.04 308.15,260.05 310.44,260.85 313.46,261.69 316.96,262.46 320.46,263.05 322.75,263.35 325.53,263.64 330.11,264.02 333.73,264.25 339.40,264.53 345.67,264.76 350.26,264.89 352.31,264.94 354.12,264.99 355.57,265.02 357.14,265.05 359.67,265.09 361.96,265.13 367.87,265.22 368.72,265.23 369.80,265.24 372.10,265.26 375.59,265.30 377.28,265.32 380.18,265.34 382.47,265.36 384.16,265.37 388.14,265.40 390.19,265.41 391.16,265.42 392.97,265.42 393.81,265.43 396.23,265.44 397.55,265.45 400.33,265.46 402.02,265.46 403.83,265.47 404.43,265.47 406.48,265.48 407.32,265.48 408.29,265.49 410.10,265.49 411.43,265.50 412.51,265.50 413.24,265.50 413.84,265.50 415.17,265.51 416.01,265.51 417.46,265.51 418.55,265.52 419.87,265.52 420.84,265.52 422.16,265.52 423.37,265.53 425.06,265.53 426.63,265.53 427.59,265.54 428.92,265.54 430.13,265.54 431.33,265.54 432.90,265.55 433.75,265.55 434.83,265.55 436.16,265.55 437.61,265.55 439.30,265.56 440.74,265.56 442.19,265.56 444.00,265.56 445.69,265.57 447.26,265.57 449.79,265.57 451.84,265.57 454.50,265.58 457.15,265.58 459.93,265.58 462.82,265.58 465.12,265.59 467.77,265.59 471.99,265.59 475.49,265.60 478.87,265.60 482.49,265.60 487.56,265.60 491.66,265.61 496.12,265.61 503.00,265.61 508.19,265.61 516.87,265.62 523.75,265.62 530.63,265.62 537.50,265.62 544.38,265.63 552.95,265.63 559.95,265.63 566.82,265.63 573.70,265.63 580.58,265.64 587.45,265.64 596.02,265.64 602.90,265.64 606.27,265.67"/>
<line x1="88" y1="72" x2="110" y2="72" stroke="#1f77b4" stroke-width="2.4"/>
<text x="116" y="76" font-family="Arial, sans-serif" font-size="12">rising #1</text>
<line x1="88" y1="90" x2="110" y2="90" stroke="#d62728" stroke-width="2.4"/>
<text x="116" y="94" font-family="Arial, sans-serif" font-size="12">falling #2</text>
<line x1="88" y1="108" x2="110" y2="108" stroke="#2ca02c" stroke-width="2.4"/>
<text x="116" y="112" font-family="Arial, sans-serif" font-size="12">rising #3</text>
<line x1="88" y1="126" x2="110" y2="126" stroke="#9467bd" stroke-width="2.4"/>
<text x="116" y="130" font-family="Arial, sans-serif" font-size="12">falling #4</text>
<text x="425.00" y="322.00" text-anchor="middle" font-family="Arial, sans-serif" font-size="12">Time (s)</text>
<text x="420" y="42" font-family="Arial, sans-serif" font-size="11" fill="#555">solid=V-T voltage, faint horizontal=V_fixture</text>
</svg>