<svg xmlns="http://www.w3.org/2000/svg" width="800" height="450" viewBox="0 0 800 450">
<rect width="100%" height="100%" fill="#ffffff"/>
<text x="78" y="25" font-family="Arial, sans-serif" font-size="16" font-weight="700">E34_GPIO_1V1TO1V8_1v8_00 V-T Waveforms</text>
<rect x="78" y="54" width="694" height="230" fill="#fbfbfb" stroke="#c8c8c8"/>
<text transform="translate(18 169.00) rotate(-90)" text-anchor="middle" font-family="Arial, sans-serif" font-size="12">Voltage (V)</text>
<line x1="78.00" y1="54" x2="78.00" y2="284" stroke="#ececec"/>
<text x="78.00" y="302" text-anchor="middle" font-family="Arial, sans-serif" font-size="10">-180p</text>
<line x1="216.80" y1="54" x2="216.80" y2="284" stroke="#ececec"/>
<text x="216.80" y="302" text-anchor="middle" font-family="Arial, sans-serif" font-size="10">1.7n</text>
<line x1="355.60" y1="54" x2="355.60" y2="284" stroke="#ececec"/>
<text x="355.60" y="302" text-anchor="middle" font-family="Arial, sans-serif" font-size="10">3.57n</text>
<line x1="494.40" y1="54" x2="494.40" y2="284" stroke="#ececec"/>
<text x="494.40" y="302" text-anchor="middle" font-family="Arial, sans-serif" font-size="10">5.45n</text>
<line x1="633.20" y1="54" x2="633.20" y2="284" stroke="#ececec"/>
<text x="633.20" y="302" text-anchor="middle" font-family="Arial, sans-serif" font-size="10">7.32n</text>
<line x1="772.00" y1="54" x2="772.00" y2="284" stroke="#ececec"/>
<text x="772.00" y="302" text-anchor="middle" font-family="Arial, sans-serif" font-size="10">9.2n</text>
<line x1="78" y1="284.00" x2="772" y2="284.00" stroke="#ececec"/>
<text x="70" y="288.00" text-anchor="end" font-family="Arial, sans-serif" font-size="10">-0.154</text>
<line x1="78" y1="226.50" x2="772" y2="226.50" stroke="#ececec"/>
<text x="70" y="230.50" text-anchor="end" font-family="Arial, sans-serif" font-size="10">0.374</text>
<line x1="78" y1="169.00" x2="772" y2="169.00" stroke="#ececec"/>
<text x="70" y="173.00" text-anchor="end" font-family="Arial, sans-serif" font-size="10">0.901</text>
<line x1="78" y1="111.50" x2="772" y2="111.50" stroke="#ececec"/>
<text x="70" y="115.50" text-anchor="end" font-family="Arial, sans-serif" font-size="10">1.4</text>
<line x1="78" y1="54.00" x2="772" y2="54.00" stroke="#ececec"/>
<text x="70" y="58.00" text-anchor="end" font-family="Arial, sans-serif" font-size="10">2</text>
<line x1="78" y1="70.99" x2="772" y2="70.99" stroke="#1f77b4" opacity="0.18" stroke-dasharray="3 4"/>
<polyline fill="none" stroke="#1f77b4" stroke-width="2.0" points="91.35,100.64 96.38,100.64 100.15,100.64 106.37,100.64 108.96,100.64 110.59,100.64 112.29,100.64 116.51,100.64 119.02,100.64 121.54,100.63 123.02,100.63 125.61,100.62 127.83,100.63 128.79,100.63 131.75,100.63 132.78,100.63 133.67,100.63 134.41,100.63 135.23,100.63 135.60,100.64 135.97,100.64 136.26,100.64 136.56,100.64 136.85,100.64 137.15,100.64 137.45,100.64 137.82,100.64 138.11,100.64 138.48,100.64 139.00,100.64 139.52,100.64 140.04,100.64 140.48,100.64 140.85,100.64 141.29,100.64 141.74,100.64 142.18,100.64 142.85,100.64 143.44,100.64 144.11,100.64 144.85,100.63 145.51,100.63 146.18,100.63 146.70,100.63 147.14,100.62 147.73,100.62 148.32,100.61 149.06,100.61 149.66,100.60 150.17,100.59 150.69,100.59 151.65,100.59 152.32,100.60 153.28,100.64 153.73,100.68 154.10,100.72 154.47,100.78 155.21,100.94 155.95,101.16 156.76,101.40 157.43,101.55 157.94,101.57 158.39,101.49 158.76,101.34 159.20,101.04 159.50,100.77 159.87,100.34 160.24,99.81 160.53,99.33 160.90,98.64 161.57,97.18 162.09,95.89 162.61,94.50 163.12,93.08 163.57,91.88 164.16,90.34 164.90,88.54 165.42,87.37 165.94,86.30 166.45,85.30 167.12,84.14 167.86,82.94 168.30,82.29 168.97,81.43 169.78,80.44 170.60,79.58 171.63,78.63 172.37,78.00 173.26,77.42 173.85,77.02 174.37,76.68 174.74,76.48 175.41,76.13 176.07,75.78 176.89,75.43 177.78,75.07 178.51,74.78 180.66,74.11 181.92,73.79 182.58,73.63 183.55,73.43 184.43,73.27 185.03,73.16 185.84,73.01 186.28,72.94 186.88,72.85 187.54,72.74 188.21,72.65 189.24,72.51 191.24,72.30 194.50,72.04 196.87,71.91 198.27,71.85 198.79,71.82 200.27,71.77 201.53,71.73 202.49,71.70 204.64,71.64 207.08,71.58 208.34,71.55 209.15,71.53 209.89,71.51 210.48,71.50 211.81,71.47 213.15,71.45 214.40,71.42 216.33,71.39 217.14,71.37 217.73,71.36 218.40,71.35 219.66,71.33 220.62,71.32 221.06,71.31 221.88,71.30 222.47,71.29 223.06,71.28 223.80,71.28 224.76,71.26 225.21,71.26 225.95,71.25 226.47,71.24 227.06,71.24 227.87,71.23 228.46,71.22 228.98,71.22 229.57,71.21 230.24,71.21 230.98,71.20 231.65,71.19 232.24,71.19 232.90,71.18 233.86,71.17 234.46,71.17 235.71,71.16 236.53,71.15 237.49,71.15 238.45,71.14 239.78,71.13 240.75,71.13 242.30,71.12 243.41,71.11 243.85,71.11 245.19,71.10 248.59,71.09 249.63,71.09 250.59,71.08 252.22,71.08 253.77,71.07 257.40,71.06 259.47,71.06 261.17,71.05 263.69,71.05 264.80,71.05 265.83,71.04 266.57,71.04 266.87,71.04 268.72,71.04 269.98,71.04 273.75,71.03 276.27,71.03 278.63,71.03 281.22,71.02 285.22,71.02 287.81,71.02 290.25,71.02 293.65,71.01 296.17,71.01 299.50,71.01 301.35,71.01 306.38,71.01 310.16,71.01 311.64,71.01 312.75,71.01 313.93,71.01 314.82,71.00 316.37,71.00 317.78,71.00 320.22,71.00 323.99,71.00 326.44,71.00 327.92,71.00 330.28,71.00 332.80,71.00 335.91,71.00 337.17,71.00 338.20,71.00 340.05,71.00 340.79,71.00 342.86,71.00 345.38,71.00 347.89,71.00 351.67,71.00 355.37,71.00 359.07,71.00 361.73,71.00 363.21,71.00 366.76,71.00 370.54,71.00 374.31,71.00 378.09,71.00 382.82,71.00 385.12,71.00 388.15,71.00 393.18,71.00 396.96,70.99 401.99,70.99 408.28,70.99 412.05,70.99 415.82,70.99 419.60,70.99 424.63,70.99 430.92,70.99 434.69,70.99 438.47,70.99 443.50,70.99 448.53,70.99 453.56,70.99 459.85,70.99 464.88,70.99 467.33,70.99"/>
<line x1="78" y1="70.99" x2="772" y2="70.99" stroke="#d62728" opacity="0.18" stroke-dasharray="3 4"/>
<polyline fill="none" stroke="#d62728" stroke-width="2.0" points="91.35,70.99 100.30,70.99 109.18,70.99 120.35,70.99 129.31,71.00 135.97,70.99 140.26,70.99 142.11,70.99 144.48,70.99 149.06,70.99 149.95,70.99 151.73,70.98 154.47,70.98 155.43,70.98 157.13,70.98 158.31,70.99 159.57,71.00 160.24,71.02 160.53,71.02 161.87,71.06 162.90,71.09 163.79,71.10 164.46,71.08 165.57,70.97 166.45,70.83 167.19,70.68 168.23,70.48 169.19,70.30 170.01,70.19 171.19,70.06 172.23,69.98 173.26,69.93 174.22,69.90 174.96,69.89 176.15,69.87 177.41,69.86 178.66,69.86 181.18,69.89 182.58,69.91 183.92,69.95 185.40,70.02 186.51,70.11 187.32,70.19 188.50,70.33 189.54,70.47 190.50,70.64 191.24,70.78 192.57,71.09 193.83,71.44 194.87,71.75 196.27,72.23 196.94,72.48 197.31,72.62 198.57,73.13 198.86,73.25 199.97,73.74 200.79,74.11 201.53,74.46 202.93,75.15 204.04,75.72 205.15,76.29 205.97,76.72 207.45,77.50 208.26,77.94 209.74,78.73 210.26,79.01 210.85,79.32 211.37,79.60 211.96,79.91 212.48,80.18 214.26,81.11 215.74,81.86 216.62,82.30 217.96,82.97 218.55,83.27 219.14,83.55 220.77,84.33 221.43,84.64 222.40,85.09 223.06,85.38 224.17,85.87 225.58,86.48 226.10,86.71 227.58,87.30 228.32,87.59 229.72,88.15 231.13,88.70 231.94,88.97 233.05,89.34 234.16,89.71 235.57,90.18 236.08,90.35 237.42,90.80 238.45,91.11 240.75,91.78 242.67,92.33 245.33,93.00 247.63,93.57 250.44,94.18 250.96,94.29 252.66,94.66 254.29,94.96 255.55,95.19 256.43,95.35 257.62,95.57 258.73,95.74 259.84,95.92 260.73,96.06 261.02,96.10 262.06,96.26 263.24,96.43 267.09,96.95 269.01,97.17 270.27,97.32 272.49,97.57 274.34,97.74 276.64,97.96 278.19,98.09 279.52,98.19 279.89,98.21 280.26,98.24 281.74,98.34 283.74,98.48 285.74,98.62 287.74,98.76 288.99,98.82 290.77,98.92 292.25,99.00 293.80,99.08 294.99,99.15 296.84,99.22 298.91,99.29 300.02,99.33 300.83,99.36 301.65,99.39 302.16,99.40 302.76,99.43 304.09,99.47 304.75,99.49 305.72,99.53 306.09,99.54 307.86,99.60 308.90,99.64 309.93,99.67 310.97,99.70 312.30,99.74 312.82,99.75 313.78,99.77 314.82,99.79 315.19,99.80 316.22,99.83 317.41,99.86 318.59,99.88 319.33,99.90 319.92,99.92 320.52,99.93 322.37,99.97 324.66,100.01 327.03,100.04 330.58,100.08 334.28,100.13 336.80,100.16 339.46,100.19 342.79,100.23 343.31,100.24 343.68,100.24 344.42,100.25 345.97,100.27 349.74,100.31 351.37,100.32 354.78,100.35 359.22,100.38 363.66,100.41 365.80,100.43 367.13,100.43 368.47,100.44 370.32,100.44 373.35,100.46 375.20,100.46 377.05,100.47 379.20,100.48 382.08,100.49 385.26,100.50 390.44,100.52 396.22,100.53 399.10,100.54 401.62,100.54 404.35,100.55 405.61,100.55 411.46,100.56 417.82,100.57 418.41,100.57 421.67,100.58 422.41,100.58 424.33,100.58 425.67,100.58 426.33,100.58 427.66,100.58 429.00,100.59 430.62,100.59 433.14,100.59 434.99,100.59 436.77,100.59 439.58,100.59 444.91,100.60 452.97,100.60 459.63,100.61 468.58,100.61 477.46,100.62 486.42,100.62 495.37,100.62 504.25,100.62 513.20,100.63 519.86,100.63 531.04,100.63 539.99,100.63 548.95,100.63 557.83,100.63 566.78,100.63 575.73,100.63 586.83,100.63 595.79,100.63 604.74,100.63 613.62,100.63 622.57,100.63 631.53,100.63 642.63,100.64 651.58,100.64 660.53,100.64 669.41,100.64 678.37,100.64 689.54,100.64 698.49,100.64 707.37,100.64 716.33,100.64 725.28,100.64 734.16,100.64 745.33,100.64 754.29,100.64 758.65,100.64"/>
<line x1="78" y1="267.22" x2="772" y2="267.22" stroke="#2ca02c" opacity="0.18" stroke-dasharray="3 4"/>
<polyline fill="none" stroke="#2ca02c" stroke-width="2.0" points="91.35,267.22 99.71,267.22 108.07,267.22 118.50,267.22 126.86,267.21 131.75,267.21 132.04,267.21 132.34,267.21 132.64,267.21 133.60,267.21 133.89,267.21 134.19,267.21 134.49,267.21 134.78,267.21 135.15,267.22 135.45,267.22 135.74,267.22 136.04,267.22 136.34,267.22 136.63,267.22 137.00,267.22 137.30,267.22 137.89,267.22 139.15,267.22 139.44,267.22 139.74,267.22 140.11,267.22 140.41,267.22 140.85,267.22 141.22,267.22 141.59,267.22 142.26,267.22 143.74,267.22 145.07,267.22 147.81,267.22 149.88,267.22 151.43,267.22 152.99,267.20 154.10,267.18 154.69,267.16 155.21,267.16 155.95,267.16 156.46,267.17 156.76,267.19 157.06,267.21 157.35,267.23 157.65,267.26 157.94,267.29 158.54,267.37 159.50,267.50 160.46,267.63 161.50,267.77 162.61,267.92 163.57,268.04 164.01,268.08 164.53,268.12 165.05,268.14 165.42,268.14 166.01,268.13 166.68,268.10 167.19,268.07 168.08,268.02 168.75,267.98 169.78,267.92 170.82,267.87 171.63,267.83 172.74,267.79 173.93,267.75 174.59,267.73 175.48,267.71 177.11,267.67 178.14,267.65 179.11,267.63 180.51,267.59 181.25,267.57 183.32,267.47 184.43,267.40 185.40,267.33 186.21,267.25 187.69,267.07 188.43,266.95 189.17,266.82 190.13,266.60 191.46,266.23 192.28,265.95 193.17,265.64 193.91,265.33 194.79,264.95 195.90,264.40 196.42,264.12 197.53,263.50 198.05,263.19 199.38,262.35 199.97,261.94 201.16,261.13 201.60,260.80 202.34,260.26 203.67,259.26 205.23,258.06 206.12,257.37 206.56,257.02 207.82,256.03 208.56,255.45 210.56,253.90 211.37,253.27 212.55,252.39 214.26,251.12 215.07,250.52 216.40,249.60 217.29,248.99 218.03,248.48 218.62,248.07 219.07,247.78 219.81,247.32 220.55,246.87 221.36,246.37 222.25,245.82 223.65,244.96 225.13,244.16 225.80,243.79 227.21,243.03 227.95,242.63 228.39,242.43 229.28,242.04 229.94,241.74 230.68,241.41 231.42,241.08 232.31,240.69 233.42,240.19 234.23,239.83 235.64,239.29 237.93,238.41 238.97,238.04 240.30,237.60 241.93,237.06 242.67,236.83 244.30,236.37 246.22,235.82 246.81,235.67 249.03,235.13 250.59,234.76 254.44,233.97 257.99,233.35 260.36,233.02 262.50,232.75 264.72,232.47 266.72,232.22 267.53,232.14 270.94,231.80 272.64,231.63 274.27,231.50 275.67,231.40 277.45,231.27 280.11,231.08 281.67,230.99 283.74,230.87 285.96,230.75 287.29,230.68 289.44,230.59 291.06,230.53 292.25,230.48 293.88,230.41 294.99,230.37 296.69,230.32 298.46,230.27 300.17,230.22 301.35,230.18 303.13,230.13 304.68,230.10 306.60,230.06 308.97,230.02 310.90,229.98 313.26,229.93 314.74,229.91 317.19,229.88 319.18,229.86 321.40,229.83 323.77,229.80 325.55,229.78 327.62,229.76 329.62,229.75 332.80,229.72 335.02,229.71 337.83,229.69 340.20,229.67 342.27,229.66 346.34,229.64 350.63,229.63 353.96,229.61 357.44,229.60 361.14,229.59 363.80,229.58 367.80,229.57 372.98,229.56 375.79,229.56 382.01,229.55 386.23,229.54 390.00,229.54 396.66,229.53 399.10,229.53 407.09,229.52 413.38,229.52 419.82,229.52 428.26,229.51 432.25,229.51 440.61,229.51 446.83,229.50 451.71,229.50 459.41,229.50 467.77,229.50 476.13,229.50 480.35,229.50 488.71,229.50 497.07,229.50 505.44,229.49 513.80,229.49 520.01,229.49 528.45,229.49 536.81,229.49 545.17,229.49 555.61,229.49 563.97,229.49 572.33,229.49 580.69,229.49 589.05,229.49 597.41,229.49 607.85,229.49 616.21,229.49 624.64,229.49 633.01,229.49 641.37,229.49 651.80,229.49 660.16,229.49 668.53,229.49 676.89,229.49 685.25,229.49 693.61,229.49 704.04,229.49 712.41,229.49 716.55,229.48"/>
<line x1="78" y1="267.22" x2="772" y2="267.22" stroke="#9467bd" opacity="0.18" stroke-dasharray="3 4"/>
<polyline fill="none" stroke="#9467bd" stroke-width="2.0" points="91.35,229.48 96.16,229.48 100.97,229.48 106.96,229.48 111.77,229.48 116.58,229.48 121.39,229.48 126.20,229.48 131.01,229.48 135.37,229.48 135.89,229.48 136.19,229.48 136.48,229.48 136.78,229.48 137.15,229.48 137.45,229.48 137.74,229.48 138.04,229.48 138.33,229.48 138.63,229.48 139.00,229.48 139.30,229.48 139.59,229.48 139.89,229.48 140.33,229.48 140.63,229.48 141.00,229.48 141.29,229.48 141.59,229.48 141.89,229.48 142.18,229.48 142.63,229.48 142.92,229.48 143.29,229.48 143.59,229.48 143.96,229.48 144.33,229.48 144.85,229.48 145.29,229.48 145.81,229.48 146.25,229.48 146.70,229.48 147.29,229.48 147.81,229.48 148.10,229.48 148.40,229.48 148.69,229.48 149.29,229.49 150.03,229.49 150.62,229.49 151.28,229.50 151.73,229.50 152.39,229.50 153.28,229.51 153.87,229.51 154.69,229.52 155.35,229.53 156.02,229.53 156.98,229.54 157.80,229.55 158.31,229.55 158.76,229.55 159.28,229.55 159.65,229.54 160.02,229.53 160.31,229.52 160.76,229.50 161.05,229.48 161.35,229.46 161.79,229.42 162.16,229.37 162.46,229.32 162.75,229.27 163.05,229.21 163.35,229.15 163.79,229.04 164.46,228.86 164.75,228.79 165.20,228.68 165.49,228.62 165.79,228.58 166.16,228.56 166.45,228.57 166.75,228.62 167.05,228.69 167.42,228.84 167.86,229.09 168.30,229.43 169.04,230.21 169.78,231.24 170.30,232.05 170.97,233.23 171.78,234.78 172.37,235.98 173.04,237.39 173.63,238.66 174.15,239.79 174.59,240.77 175.33,242.40 175.93,243.70 176.52,244.98 177.18,246.40 177.63,247.33 178.22,248.55 178.96,250.01 179.62,251.27 180.14,252.20 180.51,252.85 181.03,253.70 181.77,254.85 182.36,255.70 183.03,256.59 183.92,257.66 184.43,258.23 185.40,259.19 186.21,259.90 186.73,260.32 187.47,260.88 187.91,261.20 188.80,261.78 189.98,262.47 190.43,262.71 191.46,263.21 192.28,263.56 193.54,264.05 194.79,264.44 196.42,264.90 197.61,265.18 199.68,265.60 201.01,265.82 202.34,266.01 203.82,266.18 205.60,266.35 207.23,266.48 209.45,266.62 212.48,266.75 214.77,266.82 216.03,266.86 216.77,266.88 217.59,266.89 218.18,266.91 218.84,266.92 219.73,266.94 220.32,266.95 220.69,266.95 221.58,266.97 222.17,266.98 222.69,266.98 223.36,266.99 223.88,267.00 224.84,267.01 225.28,267.02 225.80,267.02 226.47,267.03 227.21,267.04 227.80,267.04 228.39,267.05 228.91,267.05 229.50,267.05 230.02,267.06 230.54,267.06 231.50,267.07 232.09,267.07 232.61,267.07 233.42,267.08 234.38,267.09 234.97,267.09 235.79,267.09 236.90,267.10 237.56,267.10 238.53,267.11 239.27,267.11 239.64,267.11 240.60,267.11 241.49,267.12 242.30,267.12 243.34,267.12 244.08,267.13 244.82,267.13 245.48,267.13 246.37,267.13 247.63,267.14 248.59,267.14 249.70,267.14 250.44,267.14 251.62,267.15 252.51,267.15 253.77,267.15 255.25,267.15 256.43,267.16 257.40,267.16 258.58,267.16 260.95,267.16 262.35,267.16 263.69,267.17 265.09,267.17 266.42,267.17 268.20,267.17 270.42,267.17 271.83,267.17 274.19,267.18 276.64,267.18 279.45,267.18 282.56,267.18 285.07,267.19 288.62,267.19 292.25,267.19 295.13,267.19 299.50,267.19 304.31,267.20 307.86,267.20 312.67,267.20 317.48,267.20 322.29,267.20 328.36,267.20 333.17,267.20 337.98,267.20 342.79,267.20 347.60,267.21 352.41,267.21 358.40,267.21 363.21,267.21 368.02,267.21 372.83,267.21 377.64,267.21 382.45,267.21 388.52,267.21 393.33,267.21 398.14,267.21 402.95,267.21 407.76,267.21 413.75,267.21 418.56,267.21 423.37,267.21 428.18,267.21 432.99,267.21 437.80,267.21 443.80,267.21 448.61,267.21 450.97,267.22"/>
<line x1="88" y1="72" x2="110" y2="72" stroke="#1f77b4" stroke-width="2.4"/>
<text x="116" y="76" font-family="Arial, sans-serif" font-size="12">rising #1</text>
<line x1="88" y1="90" x2="110" y2="90" stroke="#d62728" stroke-width="2.4"/>
<text x="116" y="94" font-family="Arial, sans-serif" font-size="12">falling #2</text>
<line x1="88" y1="108" x2="110" y2="108" stroke="#2ca02c" stroke-width="2.4"/>
<text x="116" y="112" font-family="Arial, sans-serif" font-size="12">rising #3</text>
<line x1="88" y1="126" x2="110" y2="126" stroke="#9467bd" stroke-width="2.4"/>
<text x="116" y="130" font-family="Arial, sans-serif" font-size="12">falling #4</text>
<rect x="78" y="342" width="694" height="44" fill="#fffdf7" stroke="#d8c6a1" rx="4"/>
<text x="88" y="359" font-family="Arial, sans-serif" font-size="11" font-weight="700" fill="#4b3b21">Findings needing attention</text>
<rect x="88" y="366" width="7" height="7" fill="#b54708"/>
<text x="102" y="373" font-family="Arial, sans-serif" font-size="11" fill="#333">WARN 5.5.4: Ramp dt versus V-T 20-80% evidence needs review | avg Ramp dt=5.778e-10s, avg V-T 20-80% span=3.718e-...</text>
<text x="425.00" y="322.00" text-anchor="middle" font-family="Arial, sans-serif" font-size="12">Time (s)</text>
<text x="420" y="42" font-family="Arial, sans-serif" font-size="11" fill="#555">solid=V-T voltage, faint horizontal=V_fixture</text>
</svg>