<svg xmlns="http://www.w3.org/2000/svg" width="800" height="450" viewBox="0 0 800 450">
<rect width="100%" height="100%" fill="#ffffff"/>
<text x="78" y="25" font-family="Arial, sans-serif" font-size="16" font-weight="700">E34_GPIO_SPI_I3C_MST_1V8_11 V-T Waveforms</text>
<rect x="78" y="54" width="694" height="230" fill="#fbfbfb" stroke="#c8c8c8"/>
<text transform="translate(18 169.00) rotate(-90)" text-anchor="middle" font-family="Arial, sans-serif" font-size="12">Voltage (V)</text>
<line x1="78.00" y1="54" x2="78.00" y2="284" stroke="#ececec"/>
<text x="78.00" y="302" text-anchor="middle" font-family="Arial, sans-serif" font-size="10">-774p</text>
<line x1="216.80" y1="54" x2="216.80" y2="284" stroke="#ececec"/>
<text x="216.80" y="302" text-anchor="middle" font-family="Arial, sans-serif" font-size="10">7.28n</text>
<line x1="355.60" y1="54" x2="355.60" y2="284" stroke="#ececec"/>
<text x="355.60" y="302" text-anchor="middle" font-family="Arial, sans-serif" font-size="10">15.3n</text>
<line x1="494.40" y1="54" x2="494.40" y2="284" stroke="#ececec"/>
<text x="494.40" y="302" text-anchor="middle" font-family="Arial, sans-serif" font-size="10">23.4n</text>
<line x1="633.20" y1="54" x2="633.20" y2="284" stroke="#ececec"/>
<text x="633.20" y="302" text-anchor="middle" font-family="Arial, sans-serif" font-size="10">31.4n</text>
<line x1="772.00" y1="54" x2="772.00" y2="284" stroke="#ececec"/>
<text x="772.00" y="302" text-anchor="middle" font-family="Arial, sans-serif" font-size="10">39.5n</text>
<line x1="78" y1="284.00" x2="772" y2="284.00" stroke="#ececec"/>
<text x="70" y="288.00" text-anchor="end" font-family="Arial, sans-serif" font-size="10">-0.159</text>
<line x1="78" y1="226.50" x2="772" y2="226.50" stroke="#ececec"/>
<text x="70" y="230.50" text-anchor="end" font-family="Arial, sans-serif" font-size="10">0.373</text>
<line x1="78" y1="169.00" x2="772" y2="169.00" stroke="#ececec"/>
<text x="70" y="173.00" text-anchor="end" font-family="Arial, sans-serif" font-size="10">0.905</text>
<line x1="78" y1="111.50" x2="772" y2="111.50" stroke="#ececec"/>
<text x="70" y="115.50" text-anchor="end" font-family="Arial, sans-serif" font-size="10">1.4</text>
<line x1="78" y1="54.00" x2="772" y2="54.00" stroke="#ececec"/>
<text x="70" y="58.00" text-anchor="end" font-family="Arial, sans-serif" font-size="10">2</text>
<line x1="78" y1="72.16" x2="772" y2="72.16" stroke="#1f77b4" opacity="0.18" stroke-dasharray="3 4"/>
<polyline fill="none" stroke="#1f77b4" stroke-width="2.0" points="91.35,240.38 92.59,240.38 93.81,240.38 95.35,240.38 96.59,240.38 97.81,240.38 97.97,240.38 98.07,240.38 98.21,240.37 98.42,240.37 98.59,240.36 98.73,240.36 98.83,240.36 98.93,240.36 99.04,240.36 99.11,240.36 99.18,240.37 99.24,240.37 99.33,240.38 99.42,240.39 99.54,240.41 99.64,240.44 99.73,240.46 99.83,240.49 99.92,240.52 100.02,240.57 100.18,240.64 100.28,240.69 100.35,240.72 100.42,240.76 100.49,240.80 100.57,240.85 100.66,240.90 100.73,240.94 100.80,240.98 100.87,241.03 100.93,241.06 101.02,241.11 101.11,241.15 101.21,241.20 101.28,241.22 101.35,241.24 101.43,241.25 101.50,241.25 101.59,241.24 101.68,241.22 101.78,241.17 101.85,241.12 101.95,241.01 102.02,240.92 102.09,240.82 102.16,240.70 102.23,240.57 102.33,240.33 102.40,240.14 102.47,239.93 102.56,239.64 102.66,239.23 102.73,238.92 102.87,238.18 103.02,237.08 103.16,235.83 103.37,233.38 103.50,231.23 103.68,227.93 103.80,225.15 103.92,221.88 104.04,218.14 104.16,213.84 104.30,208.22 104.45,201.05 104.59,194.04 104.69,188.45 104.78,183.62 104.90,176.66 105.00,170.53 105.14,162.21 105.23,156.94 105.35,149.54 105.47,142.15 105.56,136.93 105.64,131.82 105.71,127.84 105.78,123.99 105.85,120.27 105.92,116.70 105.99,113.30 106.07,109.29 106.14,106.29 106.23,102.83 106.33,99.06 106.40,96.78 106.49,94.18 106.56,92.30 106.62,90.59 106.71,88.69 106.81,86.74 106.92,85.07 107.02,83.60 107.09,82.74 107.25,81.09 107.33,80.33 107.42,79.65 107.56,78.73 107.64,78.25 107.73,77.81 107.94,76.96 108.11,76.40 108.26,75.99 108.47,75.56 108.71,75.16 109.23,74.58 109.56,74.33 109.75,74.19 110.25,73.86 110.66,73.61 110.97,73.44 111.49,73.19 112.00,73.01 112.35,72.91 112.94,72.77 113.78,72.63 114.20,72.58 114.37,72.56 114.82,72.52 115.11,72.50 116.11,72.44 117.25,72.39 117.75,72.37 118.04,72.36 118.21,72.35 118.73,72.34 119.09,72.33 119.40,72.32 119.70,72.32 119.99,72.31 120.30,72.30 120.59,72.30 120.87,72.29 121.08,72.29 121.27,72.29 121.45,72.28 121.71,72.28 121.92,72.28 122.11,72.27 122.27,72.27 122.40,72.27 122.61,72.27 122.80,72.27 122.96,72.27 123.11,72.26 123.23,72.26 123.42,72.26 123.64,72.26 123.78,72.26 123.94,72.25 124.06,72.25 124.25,72.25 124.37,72.25 124.58,72.25 124.71,72.25 124.83,72.25 125.01,72.24 125.21,72.24 125.44,72.24 125.63,72.24 125.78,72.24 125.94,72.24 126.08,72.24 126.23,72.23 126.40,72.23 126.58,72.23 126.75,72.23 126.85,72.23 127.11,72.23 127.30,72.23 127.49,72.23 127.73,72.23 128.04,72.22 128.32,72.22 128.58,72.22 129.04,72.22 129.65,72.22 130.20,72.21 130.35,72.21 130.42,72.21 130.65,72.21 131.42,72.21 132.34,72.20 132.84,72.20 133.18,72.20 134.20,72.20 135.13,72.20 135.70,72.19 135.92,72.19 136.03,72.19 136.27,72.19 136.34,72.19 136.84,72.19 137.29,72.19 138.22,72.19 139.44,72.19 140.63,72.19 141.39,72.18 142.06,72.18 143.15,72.18 144.37,72.18 145.61,72.18 146.84,72.18 148.39,72.18 149.62,72.18 150.55,72.18 151.77,72.18 152.91,72.18 153.65,72.18 154.86,72.18 155.87,72.18 156.70,72.18 157.63,72.17 158.88,72.17 160.10,72.17 161.03,72.17 162.26,72.17 163.50,72.17 164.72,72.17 165.96,72.17 167.50,72.17 168.74,72.17 169.96,72.17 171.21,72.17 172.43,72.17 173.98,72.17 175.21,72.17 176.45,72.17 177.67,72.17 178.91,72.17 180.14,72.17 181.69,72.17 182.91,72.17 183.52,72.17"/>
<line x1="78" y1="72.16" x2="772" y2="72.16" stroke="#d62728" opacity="0.18" stroke-dasharray="3 4"/>
<polyline fill="none" stroke="#d62728" stroke-width="2.0" points="91.35,72.16 93.21,72.16 95.09,72.16 96.55,72.16 96.83,72.16 97.52,72.17 97.76,72.16 98.23,72.16 98.62,72.16 98.93,72.16 99.61,72.16 99.81,72.17 100.02,72.18 100.12,72.19 100.24,72.20 100.38,72.21 100.45,72.22 100.52,72.23 100.59,72.23 100.66,72.24 100.74,72.24 100.83,72.25 100.95,72.26 101.07,72.27 101.23,72.28 101.38,72.28 101.54,72.28 101.68,72.27 101.80,72.26 101.92,72.23 102.02,72.21 102.18,72.15 102.30,72.10 102.42,72.04 102.57,71.94 102.73,71.83 102.85,71.73 103.06,71.54 103.12,71.48 103.19,71.41 103.26,71.34 103.33,71.27 103.42,71.18 103.49,71.11 103.56,71.05 103.62,70.98 103.69,70.91 103.76,70.85 103.85,70.77 103.93,70.69 104.07,70.57 104.21,70.45 104.28,70.40 104.37,70.33 104.43,70.28 104.50,70.23 104.62,70.14 104.78,70.04 104.95,69.94 105.14,69.87 105.23,69.86 105.38,69.89 105.54,70.04 105.64,70.19 105.81,70.59 105.97,71.16 106.09,71.76 106.18,72.27 106.31,73.26 106.50,74.98 106.68,77.02 106.78,78.44 106.97,81.50 107.21,86.34 107.35,89.58 107.45,92.26 107.64,97.70 107.85,104.28 107.99,108.94 108.18,115.62 108.33,121.24 108.49,126.96 108.64,132.73 108.78,137.86 108.92,142.97 109.11,149.94 109.26,155.57 109.45,162.34 109.63,168.35 109.76,173.05 109.87,176.50 109.97,179.88 110.09,183.73 110.19,186.95 110.26,189.04 110.37,192.11 110.47,195.08 110.57,197.94 110.69,201.14 110.80,203.75 110.94,207.00 111.07,210.01 111.23,213.07 111.44,216.62 111.57,218.71 111.68,220.12 111.75,221.00 111.82,221.83 111.95,223.31 112.23,225.79 112.52,227.89 112.82,229.55 113.09,230.84 113.25,231.47 113.47,232.29 113.61,232.73 113.83,233.39 114.01,233.84 114.21,234.32 114.44,234.79 114.70,235.27 115.95,236.91 116.39,237.31 116.45,237.36 117.01,237.78 117.39,238.04 117.95,238.39 118.89,238.86 119.45,239.09 120.23,239.34 120.33,239.37 121.21,239.57 122.14,239.74 123.08,239.86 123.35,239.89 123.61,239.92 123.90,239.95 124.16,239.97 124.30,239.98 124.49,240.00 124.96,240.03 125.20,240.05 125.52,240.07 125.73,240.08 125.99,240.09 126.32,240.11 126.49,240.12 126.80,240.13 127.06,240.14 127.25,240.15 127.56,240.16 127.78,240.17 128.01,240.17 128.13,240.18 128.28,240.18 128.56,240.19 128.75,240.20 129.11,240.21 129.37,240.21 129.73,240.22 130.08,240.23 130.39,240.23 130.61,240.24 130.85,240.24 131.15,240.25 131.37,240.25 131.58,240.25 131.78,240.26 132.01,240.26 132.22,240.26 132.37,240.26 132.58,240.27 132.73,240.27 132.97,240.27 133.18,240.27 133.42,240.28 133.82,240.28 134.06,240.28 134.35,240.29 134.61,240.29 134.78,240.29 135.06,240.29 135.25,240.29 135.60,240.30 135.99,240.30 136.32,240.30 136.65,240.30 137.53,240.31 138.04,240.31 138.32,240.31 138.94,240.32 139.89,240.32 141.70,240.33 143.15,240.33 144.55,240.34 146.41,240.34 148.29,240.35 149.68,240.35 152.01,240.36 153.89,240.36 155.75,240.36 157.62,240.36 159.48,240.36 161.82,240.37 163.69,240.37 165.55,240.37 167.41,240.37 169.29,240.37 171.15,240.37 173.48,240.37 175.34,240.37 177.22,240.37 179.09,240.38 180.95,240.38 183.29,240.38 185.16,240.38 187.02,240.38 188.88,240.38 190.76,240.38 192.62,240.38 194.95,240.38 196.81,240.38 198.69,240.38 200.56,240.38 202.42,240.38 204.28,240.38 206.63,240.38 208.49,240.38 210.35,240.38 212.21,240.38 214.09,240.38 216.42,240.38 218.28,240.38 220.16,240.38 222.02,240.38 223.89,240.38 225.75,240.38 228.09,240.38 229.96,240.38 230.87,240.38"/>
<line x1="78" y1="266.82" x2="772" y2="266.82" stroke="#2ca02c" opacity="0.18" stroke-dasharray="3 4"/>
<polyline fill="none" stroke="#2ca02c" stroke-width="2.0" points="91.35,266.82 98.19,266.83 98.47,266.83 98.64,266.82 98.76,266.81 98.86,266.81 98.97,266.80 99.04,266.79 99.12,266.79 99.24,266.77 99.31,266.76 99.40,266.75 99.49,266.74 99.59,266.73 99.76,266.70 99.88,266.69 100.04,266.68 100.14,266.67 100.24,266.67 100.35,266.67 100.47,266.68 100.59,266.70 100.73,266.73 100.85,266.78 100.92,266.81 101.04,266.88 101.14,266.94 101.21,266.99 101.28,267.04 101.35,267.10 101.42,267.16 101.50,267.23 101.57,267.29 101.64,267.36 101.71,267.42 101.78,267.48 101.85,267.55 101.97,267.66 102.07,267.75 102.14,267.81 102.21,267.86 102.28,267.92 102.37,267.98 102.49,268.06 102.59,268.11 102.76,268.14 102.87,268.09 102.95,268.02 103.07,267.77 103.18,267.48 103.28,267.10 103.42,266.39 103.56,265.46 103.68,264.47 103.83,262.96 103.93,261.80 104.02,260.72 104.12,259.29 104.30,256.61 104.45,253.81 104.61,250.60 104.69,248.63 104.85,244.66 104.95,241.70 105.18,234.31 105.31,229.10 105.43,224.22 105.59,217.61 105.75,210.84 105.87,205.54 106.02,198.79 106.16,192.90 106.31,186.47 106.38,183.66 106.50,178.92 106.64,173.71 106.78,168.70 106.88,165.11 106.97,162.23 107.06,159.47 107.16,156.29 107.26,153.28 107.33,151.36 107.40,149.51 107.47,147.74 107.54,146.03 107.62,144.00 107.73,141.72 107.83,139.59 107.97,137.00 108.16,133.87 108.28,132.12 108.44,130.07 108.54,128.83 108.61,128.06 108.69,127.16 108.87,125.54 108.99,124.55 109.21,122.95 109.37,121.98 109.61,120.66 109.81,119.69 110.00,118.91 110.23,118.11 110.49,117.33 110.92,116.28 111.44,115.35 112.66,114.07 115.71,112.77 117.87,112.38 118.16,112.35 118.39,112.33 118.63,112.31 121.18,112.20 122.13,112.18 122.39,112.17 122.89,112.17 123.21,112.16 123.42,112.16 123.77,112.15 124.06,112.15 124.28,112.15 124.59,112.15 124.82,112.14 124.97,112.14 125.18,112.14 125.46,112.14 125.75,112.14 125.99,112.13 126.25,112.13 126.44,112.13 126.66,112.13 126.90,112.13 127.23,112.13 127.47,112.12 127.66,112.12 127.89,112.12 128.30,112.12 128.58,112.12 128.75,112.12 129.01,112.11 129.18,112.11 129.42,112.11 129.58,112.11 129.72,112.11 129.85,112.11 130.03,112.11 130.23,112.11 130.72,112.10 131.11,112.10 131.44,112.10 131.65,112.10 131.97,112.10 132.34,112.10 132.77,112.09 133.30,112.09 133.75,112.09 134.04,112.09 134.49,112.08 135.32,112.08 136.08,112.08 136.49,112.07 137.99,112.07 138.13,112.07 139.41,112.06 140.01,112.06 142.68,112.04 143.23,112.04 143.39,112.04 143.80,112.04 147.08,112.02 147.48,112.02 148.25,112.02 149.37,112.01 158.31,111.98 167.22,111.94 178.40,111.90 187.31,111.87 196.24,111.84 205.18,111.82 211.87,111.80 223.02,111.77 231.96,111.74 240.87,111.72 249.81,111.70 258.74,111.68 267.67,111.66 278.83,111.64 287.74,111.63 296.68,111.61 305.61,111.60 314.52,111.58 325.70,111.56 334.61,111.55 343.55,111.54 352.48,111.52 361.39,111.51 370.33,111.50 381.48,111.48 390.42,111.47 399.35,111.46 408.26,111.45 417.20,111.44 428.35,111.43 437.29,111.42 446.22,111.41 455.13,111.40 464.07,111.39 473.00,111.38 484.16,111.37 493.07,111.36 502.01,111.36 510.94,111.35 519.87,111.34 531.03,111.33 539.94,111.32 548.88,111.32 557.81,111.31 566.72,111.30 575.66,111.29 586.81,111.29 595.75,111.28 604.68,111.27 613.59,111.27 622.53,111.26 631.46,111.26 642.62,111.25 651.55,111.24 660.46,111.24 669.40,111.23 678.33,111.22 689.49,111.22 698.42,111.21 707.33,111.21 716.27,111.20 725.20,111.20 734.12,111.19 745.27,111.19 754.20,111.18 758.65,111.17"/>
<line x1="78" y1="266.82" x2="772" y2="266.82" stroke="#9467bd" opacity="0.18" stroke-dasharray="3 4"/>
<polyline fill="none" stroke="#9467bd" stroke-width="2.0" points="91.35,110.61 92.67,110.61 94.00,110.61 95.17,110.61 96.00,110.61 96.57,110.61 96.95,110.61 97.30,110.61 97.47,110.61 97.71,110.61 98.00,110.61 98.33,110.61 98.49,110.61 98.64,110.61 98.81,110.61 98.97,110.61 99.07,110.62 99.23,110.62 99.40,110.63 99.50,110.63 99.62,110.64 99.74,110.64 99.85,110.64 100.02,110.64 100.18,110.64 100.28,110.64 100.43,110.63 100.59,110.62 100.68,110.61 100.80,110.60 100.87,110.58 101.04,110.55 101.14,110.53 101.26,110.49 101.37,110.46 101.50,110.42 101.57,110.39 101.69,110.35 101.76,110.32 101.85,110.29 101.92,110.26 101.99,110.23 102.07,110.20 102.14,110.17 102.21,110.15 102.31,110.13 102.38,110.11 102.45,110.11 102.54,110.11 102.61,110.11 102.69,110.13 102.81,110.18 102.88,110.22 102.97,110.29 103.04,110.36 103.11,110.45 103.18,110.55 103.26,110.69 103.35,110.87 103.43,111.07 103.52,111.31 103.59,111.51 103.68,111.80 103.78,112.20 103.90,112.71 103.99,113.13 104.06,113.49 104.14,113.97 104.23,114.50 104.35,115.31 104.47,116.22 104.54,116.78 104.64,117.69 104.71,118.33 104.81,119.40 105.00,121.55 105.16,123.58 105.28,125.36 105.42,127.60 105.54,129.80 105.75,134.09 105.92,138.24 106.00,140.50 106.16,144.86 106.30,149.10 106.49,155.40 106.62,160.33 106.78,166.14 106.88,170.18 107.00,175.04 107.16,181.51 107.28,186.69 107.40,191.96 107.52,197.32 107.64,202.73 107.78,208.94 107.92,215.12 108.06,221.21 108.23,228.54 108.35,233.34 108.50,238.97 108.66,243.88 108.83,248.46 109.09,253.77 109.23,255.99 109.38,258.01 109.56,259.73 109.69,260.79 109.81,261.54 109.95,262.23 110.13,262.89 110.26,263.31 110.42,263.68 110.63,264.07 110.88,264.43 111.18,264.74 111.35,264.88 111.63,265.06 111.71,265.11 111.99,265.26 112.21,265.36 112.47,265.48 112.71,265.58 113.21,265.78 113.35,265.83 113.56,265.90 114.07,266.05 114.51,266.16 114.68,266.19 115.11,266.27 115.54,266.34 115.88,266.39 116.06,266.40 116.30,266.42 116.61,266.45 116.87,266.48 117.13,266.50 117.42,266.52 117.61,266.53 117.80,266.54 117.95,266.55 118.20,266.57 118.40,266.58 118.52,266.58 118.59,266.58 118.70,266.59 118.95,266.60 119.20,266.61 119.37,266.62 119.61,266.62 119.82,266.63 119.92,266.63 120.02,266.64 120.35,266.65 120.47,266.65 120.71,266.66 120.89,266.66 121.06,266.66 121.27,266.67 121.52,266.68 121.77,266.68 121.96,266.68 122.27,266.69 122.47,266.69 122.73,266.70 122.92,266.70 123.14,266.70 123.39,266.71 123.59,266.71 123.85,266.71 124.16,266.72 124.49,266.72 124.71,266.72 124.96,266.73 125.25,266.73 125.46,266.73 125.85,266.74 126.09,266.74 126.27,266.74 126.52,266.74 126.71,266.74 126.92,266.74 127.13,266.75 127.35,266.75 127.58,266.75 127.80,266.75 127.99,266.75 128.32,266.75 128.53,266.76 128.71,266.76 128.90,266.76 129.09,266.76 129.34,266.76 129.63,266.76 129.90,266.76 130.58,266.77 131.91,266.77 132.91,266.78 134.56,266.78 135.89,266.78 137.22,266.79 138.54,266.79 139.89,266.79 141.54,266.80 142.87,266.80 144.20,266.80 145.53,266.80 146.86,266.80 148.18,266.81 149.86,266.81 151.18,266.81 152.51,266.81 153.84,266.81 155.17,266.81 156.84,266.81 158.17,266.81 159.50,266.81 160.82,266.81 162.15,266.81 163.48,266.82 165.15,266.82 166.48,266.82 167.81,266.82 169.14,266.82 170.46,266.82 171.79,266.82 173.46,266.82 174.79,266.82 176.12,266.82 177.45,266.82 178.78,266.82 180.43,266.82 181.78,266.82 183.10,266.82 184.43,266.82 185.76,266.82 187.09,266.82 188.74,266.82 190.07,266.82 190.73,266.82"/>
<line x1="88" y1="72" x2="110" y2="72" stroke="#1f77b4" stroke-width="2.4"/>
<text x="116" y="76" font-family="Arial, sans-serif" font-size="12">rising #1</text>
<line x1="88" y1="90" x2="110" y2="90" stroke="#d62728" stroke-width="2.4"/>
<text x="116" y="94" font-family="Arial, sans-serif" font-size="12">falling #2</text>
<line x1="88" y1="108" x2="110" y2="108" stroke="#2ca02c" stroke-width="2.4"/>
<text x="116" y="112" font-family="Arial, sans-serif" font-size="12">rising #3</text>
<line x1="88" y1="126" x2="110" y2="126" stroke="#9467bd" stroke-width="2.4"/>
<text x="116" y="130" font-family="Arial, sans-serif" font-size="12">falling #4</text>
<text x="425.00" y="322.00" text-anchor="middle" font-family="Arial, sans-serif" font-size="12">Time (s)</text>
<text x="420" y="42" font-family="Arial, sans-serif" font-size="11" fill="#555">solid=V-T voltage, faint horizontal=V_fixture</text>
</svg>