<svg xmlns="http://www.w3.org/2000/svg" width="800" height="450" viewBox="0 0 800 450">
<rect width="100%" height="100%" fill="#ffffff"/>
<text x="78" y="25" font-family="Arial, sans-serif" font-size="16" font-weight="700">E34_GPIO_I2CSCLIN_1V8_10 V-T Waveforms</text>
<rect x="78" y="54" width="694" height="230" fill="#fbfbfb" stroke="#c8c8c8"/>
<text transform="translate(18 169.00) rotate(-90)" text-anchor="middle" font-family="Arial, sans-serif" font-size="12">Voltage (V)</text>
<line x1="78.00" y1="54" x2="78.00" y2="284" stroke="#ececec"/>
<text x="78.00" y="302" text-anchor="middle" font-family="Arial, sans-serif" font-size="10">-199p</text>
<line x1="216.80" y1="54" x2="216.80" y2="284" stroke="#ececec"/>
<text x="216.80" y="302" text-anchor="middle" font-family="Arial, sans-serif" font-size="10">1.87n</text>
<line x1="355.60" y1="54" x2="355.60" y2="284" stroke="#ececec"/>
<text x="355.60" y="302" text-anchor="middle" font-family="Arial, sans-serif" font-size="10">3.93n</text>
<line x1="494.40" y1="54" x2="494.40" y2="284" stroke="#ececec"/>
<text x="494.40" y="302" text-anchor="middle" font-family="Arial, sans-serif" font-size="10">6n</text>
<line x1="633.20" y1="54" x2="633.20" y2="284" stroke="#ececec"/>
<text x="633.20" y="302" text-anchor="middle" font-family="Arial, sans-serif" font-size="10">8.07n</text>
<line x1="772.00" y1="54" x2="772.00" y2="284" stroke="#ececec"/>
<text x="772.00" y="302" text-anchor="middle" font-family="Arial, sans-serif" font-size="10">10.1n</text>
<line x1="78" y1="284.00" x2="772" y2="284.00" stroke="#ececec"/>
<text x="70" y="288.00" text-anchor="end" font-family="Arial, sans-serif" font-size="10">-0.163</text>
<line x1="78" y1="226.50" x2="772" y2="226.50" stroke="#ececec"/>
<text x="70" y="230.50" text-anchor="end" font-family="Arial, sans-serif" font-size="10">0.367</text>
<line x1="78" y1="169.00" x2="772" y2="169.00" stroke="#ececec"/>
<text x="70" y="173.00" text-anchor="end" font-family="Arial, sans-serif" font-size="10">0.897</text>
<line x1="78" y1="111.50" x2="772" y2="111.50" stroke="#ececec"/>
<text x="70" y="115.50" text-anchor="end" font-family="Arial, sans-serif" font-size="10">1.4</text>
<line x1="78" y1="54.00" x2="772" y2="54.00" stroke="#ececec"/>
<text x="70" y="58.00" text-anchor="end" font-family="Arial, sans-serif" font-size="10">2</text>
<line x1="78" y1="70.98" x2="772" y2="70.98" stroke="#1f77b4" opacity="0.18" stroke-dasharray="3 4"/>
<polyline fill="none" stroke="#1f77b4" stroke-width="2.0" points="91.35,154.04 97.46,154.04 103.64,154.04 110.96,154.04 114.38,154.04 120.03,154.03 125.13,154.03 129.77,154.03 131.65,154.03 132.18,154.04 132.52,154.04 132.86,154.04 133.26,154.04 133.66,154.04 134.13,154.04 134.60,154.04 135.07,154.04 135.48,154.04 135.95,154.04 136.28,154.04 137.02,154.04 137.42,154.04 137.76,154.04 138.30,154.04 138.90,154.04 139.30,154.04 139.91,154.04 140.51,154.03 141.18,154.03 141.72,154.03 142.19,154.03 142.73,154.03 143.20,154.03 143.74,154.02 144.34,154.02 144.95,154.02 145.68,154.02 146.56,154.02 147.16,154.03 147.43,154.03 148.10,154.07 148.57,154.10 149.31,154.19 149.85,154.28 150.32,154.36 151.06,154.48 151.53,154.52 152.00,154.50 152.54,154.37 152.94,154.19 153.54,153.75 153.95,153.34 154.35,152.81 154.89,151.93 155.22,151.27 155.69,150.18 156.16,148.90 156.70,147.19 157.10,145.72 157.64,143.57 158.11,141.50 158.72,138.59 159.05,136.90 159.66,133.70 160.39,129.61 160.86,126.95 161.47,123.50 161.94,120.82 162.48,117.79 163.08,114.49 163.89,110.32 164.42,107.68 165.10,104.63 165.77,101.92 166.64,98.58 167.18,96.73 167.72,95.03 168.19,93.63 168.59,92.52 169.33,90.63 169.93,89.29 170.47,88.14 170.87,87.34 171.21,86.70 172.08,85.19 172.95,83.81 173.83,82.59 174.16,82.14 175.04,81.04 175.37,80.65 176.45,79.46 177.39,78.51 178.33,77.70 179.07,77.07 179.94,76.44 180.54,76.01 181.89,75.20 182.16,75.06 182.83,74.71 184.31,74.09 185.85,73.58 186.46,73.42 187.33,73.20 188.40,72.98 189.88,72.71 191.43,72.49 191.96,72.42 192.97,72.31 194.05,72.19 195.25,72.09 196.06,72.02 196.66,71.98 198.08,71.89 199.28,71.81 200.69,71.74 201.57,71.70 202.78,71.64 203.58,71.61 204.99,71.57 205.66,71.54 207.34,71.49 208.08,71.47 208.49,71.46 208.96,71.45 209.43,71.44 210.17,71.42 211.04,71.40 211.31,71.39 211.78,71.38 212.45,71.37 213.05,71.36 213.73,71.34 214.40,71.33 215.14,71.32 215.81,71.31 216.55,71.30 217.28,71.29 218.49,71.27 219.23,71.26 219.70,71.25 220.37,71.24 221.11,71.23 221.65,71.23 222.32,71.22 222.93,71.22 223.53,71.21 224.14,71.20 224.67,71.20 225.35,71.19 225.61,71.19 226.02,71.18 226.35,71.18 226.76,71.18 227.56,71.17 228.17,71.17 229.04,71.16 229.71,71.16 230.92,71.15 231.66,71.14 232.53,71.14 233.54,71.13 234.14,71.13 234.75,71.13 236.09,71.12 237.23,71.11 238.51,71.11 239.52,71.10 240.26,71.10 240.66,71.10 241.87,71.10 244.35,71.09 246.50,71.08 248.92,71.08 251.07,71.07 254.16,71.06 255.97,71.06 257.52,71.06 260.27,71.05 263.36,71.05 268.00,71.04 268.94,71.04 269.54,71.04 271.35,71.04 271.89,71.04 273.37,71.04 274.78,71.04 276.26,71.03 277.74,71.03 278.81,71.03 280.02,71.03 281.77,71.03 284.86,71.03 289.49,71.03 293.39,71.02 294.39,71.02 300.24,71.02 304.80,71.02 309.44,71.02 314.07,71.02 318.64,71.01 321.73,71.01 324.82,71.01 327.84,71.01 335.57,71.01 340.67,71.01 344.77,71.01 350.88,71.01 355.52,71.01 361.63,71.01 369.35,71.00 373.92,71.00 380.10,71.00 386.21,71.00 390.85,71.00 397.63,71.00 403.14,71.00 409.25,71.00 415.43,71.00 420.00,71.00 424.97,71.00 432.29,71.00 438.47,71.00 444.58,71.00 450.76,71.00 456.87,71.00 463.05,71.00 470.71,71.00 476.82,71.00 483.00,71.00 489.11,71.00 495.29,71.00 502.95,71.00 509.13,71.00 515.24,71.00 521.42,71.00 527.53,71.00 533.64,71.00 541.37,70.99 547.48,70.99 550.50,70.99"/>
<line x1="78" y1="70.98" x2="772" y2="70.98" stroke="#d62728" opacity="0.18" stroke-dasharray="3 4"/>
<polyline fill="none" stroke="#d62728" stroke-width="2.0" points="91.35,70.98 100.28,70.98 109.21,70.98 120.36,70.99 129.30,70.99 135.34,70.99 138.16,70.99 143.13,70.98 144.27,70.98 146.22,70.98 146.49,70.98 146.89,70.98 147.90,70.98 148.77,70.98 149.65,70.98 151.13,70.98 152.07,70.99 152.80,70.99 153.54,71.00 154.42,71.02 154.89,71.02 155.22,71.03 155.96,71.05 156.36,71.05 157.44,71.04 158.04,71.00 158.85,70.91 159.79,70.76 160.53,70.63 161.27,70.49 162.01,70.36 163.08,70.22 164.09,70.11 164.89,70.05 165.57,70.00 166.30,69.96 167.11,69.93 167.78,69.90 168.32,69.89 168.79,69.88 169.53,69.86 170.07,69.86 170.87,69.87 171.28,69.88 171.61,69.90 172.28,69.94 173.16,70.02 173.76,70.11 174.57,70.27 175.04,70.38 175.57,70.53 176.45,70.83 177.19,71.15 178.19,71.68 178.60,71.92 179.20,72.31 180.28,73.12 181.08,73.84 181.69,74.44 182.69,75.57 183.50,76.58 185.04,78.80 185.85,80.11 186.79,81.76 188.07,84.19 188.87,85.81 189.54,87.21 190.08,88.34 191.29,90.95 192.84,94.33 194.31,97.57 195.79,100.78 196.66,102.64 197.87,105.20 199.15,107.80 200.16,109.85 201.23,111.93 202.11,113.62 202.98,115.22 203.99,117.04 205.19,119.19 207.01,122.25 208.49,124.62 209.63,126.37 210.77,128.08 212.31,130.26 212.72,130.81 215.07,133.82 216.48,135.47 217.15,136.22 218.09,137.22 218.56,137.71 220.71,139.76 221.99,140.86 223.87,142.33 225.28,143.31 226.29,143.96 227.96,144.94 229.71,145.83 231.32,146.56 232.73,147.13 233.54,147.43 234.41,147.74 235.96,148.24 237.97,148.81 238.44,148.93 239.18,149.12 239.65,149.23 243.01,149.97 245.36,150.42 247.58,150.80 248.85,151.01 249.79,151.15 250.94,151.32 253.29,151.63 255.10,151.84 256.24,151.95 256.78,152.00 257.92,152.11 258.59,152.18 260.74,152.36 261.68,152.43 262.35,152.48 263.23,152.54 265.44,152.66 266.32,152.71 268.33,152.82 270.01,152.91 271.29,152.97 272.16,153.00 273.77,153.07 275.79,153.15 276.80,153.18 277.80,153.21 278.81,153.23 280.56,153.28 280.96,153.29 281.90,153.31 282.37,153.33 283.51,153.36 284.92,153.39 286.47,153.43 288.08,153.47 289.62,153.50 290.97,153.52 292.24,153.55 294.46,153.59 295.40,153.61 296.74,153.62 298.69,153.65 301.18,153.68 303.66,153.71 305.48,153.73 308.10,153.75 310.11,153.76 312.86,153.79 314.48,153.80 316.76,153.81 320.05,153.84 323.54,153.86 325.36,153.87 325.76,153.87 328.58,153.88 331.47,153.90 332.95,153.90 334.83,153.91 338.12,153.92 340.94,153.92 343.56,153.93 347.66,153.94 351.02,153.95 352.16,153.95 354.78,153.96 357.53,153.96 363.44,153.97 365.59,153.97 368.75,153.98 369.82,153.98 370.56,153.98 376.27,153.98 382.38,153.99 387.62,153.99 389.23,154.00 392.66,154.00 396.62,154.00 398.64,154.00 399.38,154.00 400.38,154.00 406.09,154.00 406.63,154.00 407.10,154.01 407.50,154.01 407.97,154.01 408.38,154.01 408.78,154.01 409.05,154.01 409.65,154.01 410.12,154.01 411.87,154.01 414.02,154.01 416.64,154.01 418.85,154.01 420.94,154.01 430.61,154.01 437.33,154.02 446.26,154.02 455.19,154.02 464.12,154.02 472.99,154.02 484.21,154.02 493.14,154.02 502.01,154.02 510.94,154.02 519.87,154.03 531.02,154.03 539.96,154.03 548.89,154.03 557.82,154.03 566.76,154.03 575.69,154.03 586.84,154.03 595.77,154.03 604.71,154.03 613.64,154.03 622.57,154.03 631.51,154.03 642.66,154.03 651.59,154.03 660.52,154.03 669.46,154.03 678.39,154.03 689.54,154.03 698.47,154.03 707.41,154.03 716.34,154.03 725.27,154.03 734.14,154.03 745.35,154.03 754.29,154.03 758.65,154.04"/>
<line x1="78" y1="266.28" x2="772" y2="266.28" stroke="#2ca02c" opacity="0.18" stroke-dasharray="3 4"/>
<polyline fill="none" stroke="#2ca02c" stroke-width="2.0" points="91.35,266.28 99.27,266.28 107.20,266.28 117.07,266.28 125.00,266.27 129.77,266.27 130.17,266.27 130.44,266.27 130.71,266.27 131.18,266.27 131.45,266.27 131.85,266.27 132.45,266.28 133.06,266.28 134.94,266.28 135.88,266.28 137.96,266.28 139.64,266.28 140.58,266.28 141.05,266.28 142.26,266.28 142.80,266.28 143.33,266.28 144.07,266.28 144.81,266.28 145.62,266.28 146.56,266.27 147.16,266.26 147.97,266.25 148.64,266.24 149.11,266.23 149.71,266.23 150.12,266.24 150.59,266.26 150.99,266.28 151.39,266.32 151.86,266.37 152.74,266.47 153.21,266.52 153.95,266.61 154.82,266.70 155.76,266.80 156.63,266.91 157.57,267.03 158.24,267.12 158.78,267.20 159.32,267.27 159.79,267.34 160.33,267.42 160.73,267.47 161.13,267.53 161.54,267.59 161.94,267.65 162.48,267.73 162.81,267.78 163.22,267.84 163.62,267.90 164.02,267.95 164.36,267.99 164.89,268.05 165.43,268.09 165.97,268.12 166.51,268.14 167.31,268.11 167.92,268.07 168.45,268.01 168.92,267.94 169.26,267.87 169.60,267.80 169.86,267.73 170.20,267.64 170.74,267.46 171.54,267.13 172.08,266.87 173.36,266.09 174.03,265.59 174.77,264.95 175.78,263.94 176.51,263.09 177.19,262.22 178.26,260.69 179.07,259.41 180.34,257.14 181.15,255.60 182.09,253.69 182.83,252.13 183.90,249.75 185.18,246.81 186.39,243.94 187.26,241.84 188.27,239.40 189.01,237.61 190.28,234.53 190.96,232.92 191.83,230.87 192.90,228.35 194.05,225.78 195.19,223.21 195.93,221.65 196.73,219.95 198.01,217.31 199.28,214.78 200.22,212.98 201.03,211.47 201.97,209.76 202.98,208.01 203.72,206.77 204.32,205.80 205.06,204.65 205.93,203.34 206.34,202.76 206.94,201.92 207.48,201.20 208.08,200.41 208.82,199.50 209.70,198.48 210.64,197.45 211.64,196.42 212.18,195.91 213.66,194.61 214.87,193.66 216.28,192.67 217.49,191.91 218.49,191.34 219.70,190.71 221.31,189.97 222.86,189.34 225.01,188.59 226.15,188.22 227.43,187.85 227.90,187.72 229.58,187.29 230.45,187.08 231.86,186.78 233.07,186.55 234.68,186.26 236.09,186.05 237.84,185.81 240.39,185.52 241.94,185.35 243.75,185.19 245.76,185.02 247.71,184.88 249.66,184.75 251.34,184.64 252.55,184.58 253.76,184.52 255.10,184.45 256.31,184.40 257.59,184.35 259.67,184.26 260.54,184.24 262.22,184.18 264.17,184.12 265.24,184.09 265.98,184.08 267.53,184.04 269.41,183.99 271.42,183.96 274.71,183.90 276.66,183.87 278.47,183.84 279.95,183.83 281.97,183.80 284.05,183.78 285.33,183.77 287.34,183.75 289.15,183.74 291.24,183.72 292.31,183.71 295.20,183.69 296.61,183.69 299.16,183.68 300.64,183.67 303.12,183.66 304.33,183.65 306.48,183.65 308.57,183.64 310.58,183.63 312.46,183.63 313.80,183.62 316.36,183.61 318.24,183.61 320.92,183.60 323.28,183.60 325.22,183.59 327.24,183.59 329.52,183.59 331.94,183.58 334.89,183.58 336.98,183.58 339.13,183.57 342.69,183.57 344.77,183.57 348.66,183.56 350.61,183.56 354.58,183.56 358.54,183.56 364.52,183.55 370.43,183.55 374.05,183.55 378.35,183.55 383.79,183.55 392.19,183.54 400.11,183.54 407.03,183.54 413.95,183.54 421.88,183.54 429.80,183.53 439.68,183.53 447.60,183.53 455.53,183.53 463.45,183.53 471.38,183.53 481.25,183.53 489.18,183.53 497.10,183.53 505.03,183.53 512.96,183.53 520.88,183.53 530.76,183.53 538.68,183.53 546.61,183.52 554.53,183.52 562.39,183.52 570.32,183.52 580.26,183.52 588.18,183.52 596.04,183.52 603.97,183.52 611.89,183.52 621.77,183.52 629.69,183.52 637.62,183.52 645.54,183.52 653.47,183.52 661.40,183.52 671.27,183.52 679.19,183.52 683.09,183.51"/>
<line x1="78" y1="266.28" x2="772" y2="266.28" stroke="#9467bd" opacity="0.18" stroke-dasharray="3 4"/>
<polyline fill="none" stroke="#9467bd" stroke-width="2.0" points="91.35,183.51 96.59,183.51 101.89,183.51 108.47,183.51 113.78,183.51 119.02,183.51 124.33,183.51 129.56,183.51 133.33,183.51 133.66,183.51 133.93,183.51 134.20,183.51 134.47,183.51 134.74,183.51 135.07,183.51 135.34,183.51 135.61,183.51 135.88,183.51 136.28,183.51 136.68,183.51 137.02,183.51 137.29,183.51 137.62,183.51 137.89,183.51 138.30,183.51 138.56,183.51 138.97,183.51 139.30,183.51 139.64,183.51 140.04,183.51 140.45,183.51 140.98,183.51 141.59,183.51 142.12,183.51 142.53,183.51 142.93,183.51 143.27,183.51 143.87,183.52 144.34,183.52 144.88,183.52 145.55,183.52 146.15,183.52 146.83,183.52 147.36,183.52 148.10,183.52 148.57,183.52 149.11,183.52 149.65,183.53 150.32,183.53 150.92,183.53 151.53,183.53 152.13,183.53 152.54,183.53 153.27,183.53 153.61,183.53 154.08,183.53 154.48,183.53 154.95,183.52 155.29,183.51 155.69,183.49 155.96,183.48 156.23,183.46 156.50,183.44 156.77,183.42 157.10,183.39 157.44,183.36 157.71,183.33 157.98,183.29 158.31,183.25 158.65,183.22 158.98,183.19 159.32,183.17 159.79,183.18 160.19,183.22 160.46,183.26 160.93,183.38 161.40,183.56 161.80,183.77 162.54,184.28 162.95,184.63 163.69,185.41 164.63,186.62 165.43,187.88 166.04,188.93 166.51,189.82 167.18,191.20 168.05,193.17 168.72,194.80 169.13,195.83 169.60,197.08 170.00,198.18 170.60,199.88 171.14,201.44 171.61,202.84 172.08,204.27 172.48,205.52 173.02,207.20 173.69,209.35 174.23,211.09 174.70,212.63 175.44,215.07 175.84,216.42 176.38,218.22 177.05,220.48 177.79,222.98 178.19,224.35 178.80,226.40 179.60,229.14 180.07,230.73 180.61,232.55 181.15,234.37 182.22,237.96 182.69,239.51 183.50,242.09 184.71,245.80 185.51,248.08 186.25,250.00 187.13,252.13 188.07,254.18 189.07,256.04 190.22,257.81 191.49,259.47 192.57,260.66 194.11,261.85 194.85,262.41 196.53,263.35 198.61,264.14 200.49,264.65 202.84,265.04 204.05,265.21 205.19,265.35 206.00,265.43 206.74,265.49 207.14,265.53 207.68,265.57 208.22,265.60 208.62,265.63 209.36,265.68 210.10,265.72 210.50,265.74 211.04,265.76 211.51,265.78 212.58,265.83 213.05,265.84 213.73,265.87 213.99,265.88 214.53,265.89 215.07,265.91 215.74,265.93 216.28,265.94 216.95,265.96 217.49,265.97 218.09,265.98 218.83,265.99 219.64,266.01 220.31,266.02 220.84,266.02 221.85,266.04 222.39,266.05 223.33,266.06 224.34,266.07 225.35,266.08 226.15,266.09 227.09,266.09 228.43,266.10 229.64,266.11 230.79,266.12 231.39,266.13 232.40,266.13 233.67,266.14 234.95,266.15 235.35,266.15 236.49,266.15 237.64,266.16 238.58,266.16 239.65,266.17 240.86,266.17 242.07,266.18 243.01,266.18 244.22,266.18 245.56,266.19 246.57,266.19 248.05,266.19 248.99,266.20 250.80,266.20 252.08,266.20 253.56,266.21 254.97,266.21 256.98,266.21 258.53,266.21 260.68,266.22 262.02,266.22 263.97,266.22 266.45,266.22 267.93,266.23 270.62,266.23 272.70,266.23 275.72,266.23 279.82,266.24 282.44,266.24 284.18,266.24 287.74,266.24 290.63,266.24 295.40,266.25 299.56,266.25 303.53,266.25 307.02,266.25 311.45,266.25 316.69,266.25 323.28,266.25 328.58,266.26 333.82,266.26 339.13,266.26 344.37,266.26 351.02,266.26 356.25,266.26 361.56,266.26 366.80,266.26 372.11,266.26 377.34,266.26 383.93,266.26 389.23,266.26 394.47,266.26 399.78,266.26 405.02,266.26 410.32,266.27 416.91,266.27 422.15,266.27 427.45,266.27 432.69,266.27 438.00,266.27 444.58,266.27 449.82,266.27 455.12,266.27 460.36,266.27 465.67,266.27 470.91,266.27 477.49,266.27 482.80,266.27 485.35,266.28"/>
<line x1="88" y1="72" x2="110" y2="72" stroke="#1f77b4" stroke-width="2.4"/>
<text x="116" y="76" font-family="Arial, sans-serif" font-size="12">rising #1</text>
<line x1="88" y1="90" x2="110" y2="90" stroke="#d62728" stroke-width="2.4"/>
<text x="116" y="94" font-family="Arial, sans-serif" font-size="12">falling #2</text>
<line x1="88" y1="108" x2="110" y2="108" stroke="#2ca02c" stroke-width="2.4"/>
<text x="116" y="112" font-family="Arial, sans-serif" font-size="12">rising #3</text>
<line x1="88" y1="126" x2="110" y2="126" stroke="#9467bd" stroke-width="2.4"/>
<text x="116" y="130" font-family="Arial, sans-serif" font-size="12">falling #4</text>
<rect x="78" y="342" width="694" height="44" fill="#fffdf7" stroke="#d8c6a1" rx="4"/>
<text x="88" y="359" font-family="Arial, sans-serif" font-size="11" font-weight="700" fill="#4b3b21">Findings needing attention</text>
<rect x="88" y="366" width="7" height="7" fill="#b54708"/>
<text x="102" y="373" font-family="Arial, sans-serif" font-size="11" fill="#333">WARN 5.5.4: Ramp dt versus V-T 20-80% evidence needs review | avg Ramp dt=3.946e-10s, avg V-T 20-80% span=2.988e-...</text>
<text x="425.00" y="322.00" text-anchor="middle" font-family="Arial, sans-serif" font-size="12">Time (s)</text>
<text x="420" y="42" font-family="Arial, sans-serif" font-size="11" fill="#555">solid=V-T voltage, faint horizontal=V_fixture</text>
</svg>