<svg xmlns="http://www.w3.org/2000/svg" width="800" height="450" viewBox="0 0 800 450">
<rect width="100%" height="100%" fill="#ffffff"/>
<text x="78" y="25" font-family="Arial, sans-serif" font-size="16" font-weight="700">E34_GPIO_1V1TO1V8_1v2_01 V-T Waveforms</text>
<rect x="78" y="54" width="694" height="230" fill="#fbfbfb" stroke="#c8c8c8"/>
<text transform="translate(18 169.00) rotate(-90)" text-anchor="middle" font-family="Arial, sans-serif" font-size="12">Voltage (V)</text>
<line x1="78.00" y1="54" x2="78.00" y2="284" stroke="#ececec"/>
<text x="78.00" y="302" text-anchor="middle" font-family="Arial, sans-serif" font-size="10">-510p</text>
<line x1="216.80" y1="54" x2="216.80" y2="284" stroke="#ececec"/>
<text x="216.80" y="302" text-anchor="middle" font-family="Arial, sans-serif" font-size="10">4.8n</text>
<line x1="355.60" y1="54" x2="355.60" y2="284" stroke="#ececec"/>
<text x="355.60" y="302" text-anchor="middle" font-family="Arial, sans-serif" font-size="10">10.1n</text>
<line x1="494.40" y1="54" x2="494.40" y2="284" stroke="#ececec"/>
<text x="494.40" y="302" text-anchor="middle" font-family="Arial, sans-serif" font-size="10">15.4n</text>
<line x1="633.20" y1="54" x2="633.20" y2="284" stroke="#ececec"/>
<text x="633.20" y="302" text-anchor="middle" font-family="Arial, sans-serif" font-size="10">20.7n</text>
<line x1="772.00" y1="54" x2="772.00" y2="284" stroke="#ececec"/>
<text x="772.00" y="302" text-anchor="middle" font-family="Arial, sans-serif" font-size="10">26n</text>
<line x1="78" y1="284.00" x2="772" y2="284.00" stroke="#ececec"/>
<text x="70" y="288.00" text-anchor="end" font-family="Arial, sans-serif" font-size="10">-0.101</text>
<line x1="78" y1="226.50" x2="772" y2="226.50" stroke="#ececec"/>
<text x="70" y="230.50" text-anchor="end" font-family="Arial, sans-serif" font-size="10">0.249</text>
<line x1="78" y1="169.00" x2="772" y2="169.00" stroke="#ececec"/>
<text x="70" y="173.00" text-anchor="end" font-family="Arial, sans-serif" font-size="10">0.6</text>
<line x1="78" y1="111.50" x2="772" y2="111.50" stroke="#ececec"/>
<text x="70" y="115.50" text-anchor="end" font-family="Arial, sans-serif" font-size="10">0.951</text>
<line x1="78" y1="54.00" x2="772" y2="54.00" stroke="#ececec"/>
<text x="70" y="58.00" text-anchor="end" font-family="Arial, sans-serif" font-size="10">1.3</text>
<line x1="78" y1="70.58" x2="772" y2="70.58" stroke="#1f77b4" opacity="0.18" stroke-dasharray="3 4"/>
<polyline fill="none" stroke="#1f77b4" stroke-width="2.0" points="91.35,111.22 95.27,111.22 99.19,111.22 104.08,111.22 108.01,111.21 111.93,111.20 115.28,111.21 115.62,111.21 116.09,111.21 116.72,111.21 116.90,111.21 117.16,111.21 117.35,111.21 117.53,111.21 117.77,111.22 117.92,111.22 118.13,111.22 118.31,111.22 118.58,111.22 118.79,111.22 119.10,111.22 119.36,111.22 119.57,111.22 119.78,111.22 120.01,111.22 120.30,111.22 120.67,111.22 120.93,111.22 121.14,111.22 121.38,111.22 121.56,111.22 121.82,111.22 122.06,111.22 122.32,111.22 122.55,111.22 122.81,111.22 123.00,111.22 123.47,111.22 123.81,111.22 124.23,111.22 124.36,111.21 124.67,111.21 125.30,111.21 125.93,111.20 126.42,111.19 126.63,111.19 127.08,111.18 127.57,111.16 128.91,111.11 130.03,111.04 131.55,111.15 132.00,111.32 132.75,111.82 133.64,112.63 134.22,113.02 134.53,113.05 134.77,112.96 135.00,112.72 135.24,112.34 135.63,111.38 135.94,110.33 136.21,109.28 136.57,107.57 136.83,106.21 137.12,104.59 137.41,102.87 137.54,102.06 137.83,100.26 138.09,98.61 138.35,96.97 138.64,95.20 138.95,93.33 139.21,91.85 139.45,90.58 139.79,88.82 140.08,87.42 140.34,86.20 140.55,85.27 140.84,84.06 141.12,82.92 141.39,81.95 141.73,80.79 142.01,79.89 142.38,78.86 142.67,78.16 143.11,77.17 143.50,76.42 143.95,75.68 144.24,75.27 144.58,74.82 145.34,74.00 146.28,73.24 146.93,72.83 147.17,72.70 147.93,72.37 148.11,72.28 148.55,72.14 148.84,72.05 149.31,71.90 149.78,71.81 150.44,71.68 151.06,71.56 151.33,71.52 151.87,71.45 152.48,71.38 152.97,71.32 153.42,71.29 154.10,71.24 154.57,71.21 155.96,71.13 156.77,71.10 157.50,71.08 159.02,71.03 160.19,71.01 160.79,71.00 161.71,70.98 162.94,70.96 164.72,70.94 165.87,70.93 166.86,70.92 168.83,70.90 169.79,70.89 170.53,70.88 171.75,70.87 172.23,70.87 172.67,70.87 173.22,70.86 173.85,70.86 174.61,70.86 174.92,70.87 175.26,70.87 175.65,70.87 176.02,70.87 176.46,70.87 176.83,70.87 177.20,70.88 177.59,70.88 177.98,70.88 178.32,70.88 178.63,70.88 179.00,70.89 179.29,70.89 179.73,70.89 179.97,70.89 180.44,70.89 180.70,70.89 181.12,70.90 181.46,70.90 182.01,70.90 182.48,70.90 182.79,70.90 183.26,70.90 183.92,70.90 184.70,70.90 185.17,70.90 185.80,70.90 186.38,70.89 187.29,70.89 188.02,70.88 189.18,70.87 189.75,70.87 190.43,70.86 191.03,70.86 191.45,70.85 192.37,70.84 193.26,70.83 193.36,70.83 193.47,70.83 193.70,70.83 194.04,70.83 194.62,70.82 195.30,70.82 195.74,70.81 196.45,70.81 197.18,70.80 197.86,70.79 198.72,70.79 199.09,70.78 199.51,70.78 200.21,70.77 201.73,70.76 203.14,70.75 205.11,70.74 206.94,70.73 207.72,70.72 209.00,70.72 210.99,70.71 214.50,70.69 216.88,70.68 219.78,70.67 221.64,70.66 222.24,70.66 224.72,70.65 226.97,70.65 229.25,70.64 231.13,70.64 233.54,70.63 235.50,70.63 238.46,70.62 242.38,70.62 245.31,70.61 248.27,70.61 250.96,70.61 254.15,70.60 258.07,70.60 260.04,70.60 262.97,70.60 266.89,70.59 270.81,70.59 275.71,70.59 279.63,70.59 283.55,70.59 286.51,70.59 290.38,70.59 293.68,70.59 297.29,70.59 300.24,70.59 303.17,70.59 307.09,70.58 311.02,70.58 315.94,70.58 319.86,70.58 323.78,70.58 327.68,70.58 331.60,70.58 334.56,70.58 338.48,70.58 342.41,70.58 346.33,70.58 349.26,70.58 353.18,70.58 358.10,70.58 361.03,70.58 364.96,70.58 368.88,70.58 370.84,70.58 374.24,70.58 378.69,70.58 382.61,70.58 384.55,70.58"/>
<line x1="78" y1="70.58" x2="772" y2="70.58" stroke="#d62728" opacity="0.18" stroke-dasharray="3 4"/>
<polyline fill="none" stroke="#d62728" stroke-width="2.0" points="91.35,70.58 100.27,70.58 109.21,70.58 119.49,70.58 121.82,70.58 122.11,70.58 122.60,70.58 124.12,70.58 129.30,70.58 134.77,70.57 135.32,70.57 136.91,70.57 138.61,70.59 139.03,70.60 140.44,70.66 141.28,70.68 142.04,70.65 142.41,70.60 142.67,70.56 143.61,70.36 144.50,70.17 145.34,70.02 145.99,69.94 146.25,69.92 146.56,69.90 147.45,69.86 149.26,69.88 149.68,69.89 150.17,69.91 151.25,69.94 151.98,69.95 152.71,69.96 153.84,69.97 155.17,69.96 156.06,69.95 157.32,69.93 158.31,69.91 159.96,69.90 160.64,69.91 161.66,69.91 162.76,69.93 164.27,69.96 165.82,70.00 166.71,70.03 167.44,70.06 169.09,70.13 170.71,70.22 171.70,70.29 172.67,70.35 173.93,70.46 174.08,70.47 174.50,70.51 174.74,70.54 175.00,70.56 175.60,70.63 175.86,70.66 176.54,70.74 177.20,70.83 177.95,70.95 178.82,71.10 180.62,71.46 182.69,71.97 183.42,72.17 184.21,72.41 184.70,72.56 184.83,72.60 184.96,72.65 185.33,72.77 185.67,72.89 185.96,72.99 186.22,73.08 187.53,73.57 189.33,74.35 189.54,74.44 191.37,75.35 192.63,76.06 194.64,77.29 196.24,78.34 197.65,79.31 198.04,79.58 198.62,79.99 199.59,80.67 200.21,81.12 200.66,81.44 201.16,81.80 201.50,82.04 202.02,82.42 202.46,82.74 202.96,83.09 203.56,83.51 204.22,83.97 205.24,84.69 206.44,85.53 207.72,86.39 209.63,87.67 211.49,88.84 212.25,89.30 213.61,90.12 214.97,90.94 216.09,91.62 216.62,91.90 217.14,92.18 217.71,92.50 218.08,92.69 218.60,92.98 218.86,93.12 219.44,93.43 219.94,93.70 220.51,94.01 221.01,94.28 222.81,95.08 224.72,95.91 226.61,96.73 229.46,97.98 232.65,99.22 235.55,100.31 236.42,100.59 238.17,101.16 238.64,101.31 240.73,101.99 241.44,102.19 242.04,102.36 243.03,102.63 243.71,102.82 244.32,102.99 245.02,103.18 245.62,103.35 249.08,104.18 250.18,104.44 251.22,104.69 252.84,105.01 254.23,105.29 254.91,105.43 255.59,105.56 256.01,105.65 256.43,105.72 257.08,105.82 257.76,105.92 258.23,105.99 258.73,106.06 259.20,106.13 259.62,106.19 260.17,106.27 260.56,106.33 261.11,106.41 261.58,106.48 262.86,106.67 263.46,106.76 266.21,107.16 267.54,107.32 269.82,107.58 270.63,107.67 271.47,107.76 272.23,107.85 273.32,107.97 274.55,108.11 276.59,108.28 278.82,108.43 282.04,108.65 285.20,108.87 287.76,109.05 289.99,109.20 292.50,109.37 295.69,109.52 298.91,109.67 302.26,109.83 305.63,109.97 307.98,110.04 309.29,110.07 310.44,110.11 312.30,110.16 312.98,110.18 314.52,110.22 316.56,110.27 317.56,110.30 318.32,110.32 319.91,110.37 321.06,110.40 321.22,110.40 322.32,110.43 323.39,110.46 324.78,110.49 325.93,110.51 326.56,110.52 329.77,110.57 333.36,110.62 336.91,110.68 342.30,110.76 345.78,110.80 350.25,110.84 354.70,110.87 359.17,110.91 365.45,110.96 370.34,111.00 375.03,111.01 381.49,111.04 386.43,111.05 392.66,111.08 400.79,111.11 407.64,111.12 414.97,111.13 421.66,111.14 428.36,111.15 437.28,111.16 445.15,111.17 452.92,111.17 461.84,111.18 468.54,111.18 477.46,111.18 486.41,111.19 495.32,111.19 504.24,111.19 513.16,111.20 522.11,111.20 531.03,111.20 539.95,111.20 548.90,111.20 557.82,111.20 566.74,111.20 575.65,111.21 586.82,111.21 595.74,111.21 604.69,111.21 613.61,111.21 622.53,111.21 631.48,111.21 642.62,111.21 651.54,111.21 660.48,111.21 669.40,111.21 678.32,111.21 689.49,111.21 698.41,111.21 707.36,111.21 716.28,111.21 725.20,111.21 734.12,111.21 745.29,111.21 754.21,111.21 758.65,111.21"/>
<line x1="78" y1="267.41" x2="772" y2="267.41" stroke="#2ca02c" opacity="0.18" stroke-dasharray="3 4"/>
<polyline fill="none" stroke="#2ca02c" stroke-width="2.0" points="91.35,267.41 99.11,267.41 106.91,267.41 114.36,267.41 114.68,267.41 115.65,267.41 115.99,267.41 116.20,267.41 116.35,267.41 116.54,267.41 116.75,267.41 116.98,267.41 117.16,267.41 117.61,267.41 117.87,267.41 118.13,267.41 118.42,267.41 118.81,267.41 119.91,267.41 120.28,267.41 120.98,267.41 121.51,267.41 122.00,267.41 122.40,267.41 122.63,267.41 122.89,267.41 123.39,267.41 124.41,267.41 125.85,267.41 126.71,267.41 129.12,267.42 132.62,267.36 133.09,267.35 133.38,267.36 133.72,267.37 133.98,267.39 134.22,267.42 134.51,267.46 135.03,267.55 135.68,267.67 135.94,267.71 136.15,267.75 136.63,267.82 136.91,267.85 137.33,267.90 137.83,267.95 138.17,267.98 138.40,268.00 138.95,268.03 139.11,268.04 139.69,268.05 139.97,268.05 140.55,268.05 140.97,268.05 141.41,268.07 141.91,268.09 142.43,268.12 143.03,268.14 143.32,268.14 143.87,268.12 144.55,268.08 145.20,268.03 145.86,267.98 146.83,267.91 147.74,267.85 148.66,267.80 149.55,267.76 150.15,267.74 150.72,267.72 151.93,267.69 152.87,267.67 153.84,267.66 154.49,267.65 155.54,267.64 156.19,267.63 157.29,267.62 158.28,267.62 159.43,267.61 160.90,267.60 161.37,267.60 163.28,267.58 164.30,267.57 166.03,267.55 167.33,267.52 168.25,267.50 169.30,267.47 170.71,267.42 171.10,267.41 171.70,267.38 172.30,267.34 172.62,267.32 173.25,267.27 174.08,267.18 174.84,267.07 175.13,267.03 175.94,266.87 176.36,266.78 177.01,266.62 177.59,266.47 178.63,266.13 179.58,265.79 180.02,265.60 180.67,265.32 181.46,264.95 181.80,264.78 182.77,264.28 183.34,263.96 184.00,263.59 184.34,263.38 185.30,262.80 185.75,262.51 186.74,261.86 188.00,260.98 188.60,260.55 189.10,260.19 190.04,259.48 190.82,258.89 191.77,258.17 192.92,257.27 193.86,256.52 194.90,255.69 195.87,254.92 196.94,254.08 197.81,253.40 198.44,252.92 200.08,251.66 201.52,250.60 202.28,250.07 204.16,248.73 205.73,247.66 206.36,247.24 208.64,245.75 210.00,244.96 210.91,244.43 212.98,243.23 213.89,242.74 215.33,242.02 217.77,240.82 219.73,239.93 221.79,239.09 224.49,238.01 225.98,237.45 229.46,236.36 231.89,235.59 233.33,235.18 235.29,234.74 237.23,234.30 240.42,233.59 242.77,233.06 244.47,232.78 246.30,232.48 248.89,232.07 250.86,231.75 253.39,231.41 255.38,231.18 256.69,231.02 258.62,230.80 260.56,230.58 262.02,230.44 264.46,230.24 265.77,230.13 267.41,230.00 269.19,229.85 270.24,229.77 273.43,229.58 274.42,229.52 277.38,229.35 279.26,229.24 280.28,229.21 282.17,229.15 285.85,229.03 287.79,228.97 289.75,228.91 292.32,228.82 294.17,228.76 297.42,228.66 300.82,228.60 303.35,228.55 306.23,228.49 309.19,228.44 311.88,228.38 313.35,228.37 315.96,228.35 318.92,228.32 320.88,228.30 324.70,228.27 327.92,228.24 332.55,228.20 334.61,228.18 338.35,228.15 341.36,228.14 344.21,228.13 348.89,228.11 351.98,228.10 357.81,228.08 361.71,228.06 365.71,228.05 369.11,228.04 375.34,228.03 379.21,228.03 385.07,228.02 390.90,228.01 394.77,228.00 402.57,228.00 409.11,227.99 414.24,227.99 422.00,227.99 427.84,227.98 435.63,227.98 442.07,227.98 447.30,227.98 455.09,227.98 460.93,227.97 468.70,227.97 476.49,227.97 484.26,227.97 492.03,227.97 499.64,227.97 505.66,227.97 513.43,227.97 523.16,227.97 530.95,227.97 538.72,227.97 546.52,227.97 554.28,227.97 562.05,227.97 571.78,227.97 579.58,227.97 587.35,227.96 595.14,227.96 602.91,227.96 612.64,227.96 620.41,227.96 628.21,227.96 635.97,227.96 643.77,227.96 651.54,227.96 661.27,227.96 669.04,227.96 672.91,227.96"/>
<line x1="78" y1="267.41" x2="772" y2="267.41" stroke="#9467bd" opacity="0.18" stroke-dasharray="3 4"/>
<polyline fill="none" stroke="#9467bd" stroke-width="2.0" points="91.35,227.96 94.77,227.96 98.17,227.96 102.44,227.96 105.86,227.96 109.26,227.96 112.69,227.96 116.09,227.94 118.21,227.94 118.58,227.94 118.73,227.94 119.02,227.94 119.26,227.94 119.41,227.94 119.60,227.94 119.73,227.94 119.91,227.95 120.07,227.95 120.22,227.95 120.38,227.95 120.70,227.95 120.90,227.95 121.06,227.95 121.27,227.95 121.45,227.95 121.58,227.95 121.77,227.95 121.92,227.95 122.06,227.95 122.26,227.95 122.53,227.95 122.92,227.95 123.26,227.95 123.57,227.95 123.89,227.96 124.28,227.96 124.54,227.96 124.80,227.96 125.14,227.96 125.48,227.96 125.74,227.96 126.01,227.96 126.35,227.96 126.66,227.96 126.92,227.96 127.21,227.96 127.52,227.96 127.81,227.96 128.15,227.96 128.49,227.96 128.86,227.96 129.22,227.96 129.54,227.96 129.93,227.96 130.43,227.96 130.77,227.96 131.16,227.97 131.58,227.97 132.28,227.98 132.83,227.99 133.17,227.99 133.88,228.00 134.58,228.01 135.21,228.02 136.18,228.04 137.15,228.06 137.80,228.07 138.25,228.07 138.43,228.06 138.67,228.05 139.19,228.00 139.35,227.98 139.76,227.89 140.05,227.81 140.31,227.73 140.57,227.62 140.81,227.52 141.05,227.40 141.18,227.33 141.52,227.13 141.83,226.94 142.17,226.75 142.48,226.61 142.64,226.57 142.93,226.54 143.27,226.62 143.53,226.77 143.79,227.01 144.05,227.33 144.26,227.65 144.47,228.03 144.66,228.39 144.92,228.99 145.23,229.80 145.65,231.01 145.91,231.83 146.17,232.69 146.51,233.85 146.83,234.96 147.06,235.79 147.45,237.21 147.77,238.34 148.06,239.38 148.47,240.88 148.81,242.08 149.21,243.42 149.42,244.10 149.81,245.38 150.20,246.60 150.59,247.79 150.88,248.62 151.25,249.65 151.61,250.65 151.95,251.54 152.56,253.03 152.95,253.95 153.29,254.71 153.68,255.55 154.33,256.86 154.78,257.67 155.48,258.82 156.22,259.88 156.66,260.48 157.32,261.27 158.10,262.11 158.78,262.77 159.64,263.50 160.48,264.13 161.13,264.55 162.23,265.16 163.33,265.62 164.69,266.03 165.71,266.27 167.33,266.53 168.25,266.65 170.73,266.86 172.43,266.96 174.16,267.03 175.86,267.08 176.80,267.11 177.56,267.12 178.32,267.14 178.84,267.15 179.37,267.16 180.13,267.17 180.70,267.18 181.17,267.19 182.27,267.20 182.95,267.21 183.42,267.21 183.87,267.22 184.39,267.22 184.91,267.23 185.49,267.23 185.93,267.24 186.30,267.24 186.61,267.24 187.06,267.25 187.34,267.25 187.74,267.25 188.13,267.25 188.63,267.26 189.04,267.26 189.52,267.26 189.93,267.26 190.43,267.27 191.11,267.27 191.45,267.27 191.97,267.27 192.50,267.28 193.05,267.28 193.60,267.28 193.96,267.28 194.54,267.28 194.96,267.28 195.38,267.29 196.06,267.29 196.45,267.29 197.05,267.29 197.65,267.29 198.30,267.30 199.01,267.30 199.77,267.30 200.58,267.30 201.39,267.31 202.15,267.31 202.91,267.31 203.64,267.32 204.22,267.32 205.18,267.32 206.28,267.32 206.91,267.33 208.24,267.33 209.00,267.33 209.92,267.34 211.12,267.34 212.46,267.34 213.42,267.35 215.12,267.35 216.72,267.35 218.55,267.36 220.25,267.36 221.95,267.36 223.65,267.37 226.21,267.37 228.78,267.37 230.50,267.38 233.91,267.38 237.33,267.38 241.60,267.39 245.00,267.39 248.42,267.39 251.82,267.39 255.25,267.39 259.51,267.40 262.94,267.40 266.34,267.40 269.77,267.40 273.17,267.40 276.59,267.40 280.86,267.40 284.28,267.40 287.69,267.40 291.11,267.40 294.51,267.40 297.94,267.40 302.20,267.40 305.60,267.41 309.03,267.41 312.46,267.41 315.86,267.41 320.12,267.41 323.55,267.41 326.95,267.41 330.37,267.41 333.78,267.41 337.20,267.41 341.47,267.41 344.89,267.41 346.57,267.41"/>
<line x1="88" y1="72" x2="110" y2="72" stroke="#1f77b4" stroke-width="2.4"/>
<text x="116" y="76" font-family="Arial, sans-serif" font-size="12">rising #1</text>
<line x1="88" y1="90" x2="110" y2="90" stroke="#d62728" stroke-width="2.4"/>
<text x="116" y="94" font-family="Arial, sans-serif" font-size="12">falling #2</text>
<line x1="88" y1="108" x2="110" y2="108" stroke="#2ca02c" stroke-width="2.4"/>
<text x="116" y="112" font-family="Arial, sans-serif" font-size="12">rising #3</text>
<line x1="88" y1="126" x2="110" y2="126" stroke="#9467bd" stroke-width="2.4"/>
<text x="116" y="130" font-family="Arial, sans-serif" font-size="12">falling #4</text>
<rect x="78" y="342" width="694" height="44" fill="#fffdf7" stroke="#d8c6a1" rx="4"/>
<text x="88" y="359" font-family="Arial, sans-serif" font-size="11" font-weight="700" fill="#4b3b21">Findings needing attention</text>
<rect x="88" y="366" width="7" height="7" fill="#b54708"/>
<text x="102" y="373" font-family="Arial, sans-serif" font-size="11" fill="#333">WARN 5.5.4: Ramp dt versus V-T 20-80% evidence needs review | avg Ramp dt=1.701e-09s, avg V-T 20-80% span=9.836e-...</text>
<text x="425.00" y="322.00" text-anchor="middle" font-family="Arial, sans-serif" font-size="12">Time (s)</text>
<text x="420" y="42" font-family="Arial, sans-serif" font-size="11" fill="#555">solid=V-T voltage, faint horizontal=V_fixture</text>
</svg>