<svg xmlns="http://www.w3.org/2000/svg" width="800" height="450" viewBox="0 0 800 450">
<rect width="100%" height="100%" fill="#ffffff"/>
<text x="78" y="25" font-family="Arial, sans-serif" font-size="16" font-weight="700">E34_GPIO_SPI_I3C_MST_1V8_01 V-T Waveforms</text>
<rect x="78" y="54" width="694" height="230" fill="#fbfbfb" stroke="#c8c8c8"/>
<text transform="translate(18 169.00) rotate(-90)" text-anchor="middle" font-family="Arial, sans-serif" font-size="12">Voltage (V)</text>
<line x1="78.00" y1="54" x2="78.00" y2="284" stroke="#ececec"/>
<text x="78.00" y="302" text-anchor="middle" font-family="Arial, sans-serif" font-size="10">-616p</text>
<line x1="216.80" y1="54" x2="216.80" y2="284" stroke="#ececec"/>
<text x="216.80" y="302" text-anchor="middle" font-family="Arial, sans-serif" font-size="10">5.79n</text>
<line x1="355.60" y1="54" x2="355.60" y2="284" stroke="#ececec"/>
<text x="355.60" y="302" text-anchor="middle" font-family="Arial, sans-serif" font-size="10">12.2n</text>
<line x1="494.40" y1="54" x2="494.40" y2="284" stroke="#ececec"/>
<text x="494.40" y="302" text-anchor="middle" font-family="Arial, sans-serif" font-size="10">18.6n</text>
<line x1="633.20" y1="54" x2="633.20" y2="284" stroke="#ececec"/>
<text x="633.20" y="302" text-anchor="middle" font-family="Arial, sans-serif" font-size="10">25n</text>
<line x1="772.00" y1="54" x2="772.00" y2="284" stroke="#ececec"/>
<text x="772.00" y="302" text-anchor="middle" font-family="Arial, sans-serif" font-size="10">31.4n</text>
<line x1="78" y1="284.00" x2="772" y2="284.00" stroke="#ececec"/>
<text x="70" y="288.00" text-anchor="end" font-family="Arial, sans-serif" font-size="10">-0.157</text>
<line x1="78" y1="226.50" x2="772" y2="226.50" stroke="#ececec"/>
<text x="70" y="230.50" text-anchor="end" font-family="Arial, sans-serif" font-size="10">0.373</text>
<line x1="78" y1="169.00" x2="772" y2="169.00" stroke="#ececec"/>
<text x="70" y="173.00" text-anchor="end" font-family="Arial, sans-serif" font-size="10">0.902</text>
<line x1="78" y1="111.50" x2="772" y2="111.50" stroke="#ececec"/>
<text x="70" y="115.50" text-anchor="end" font-family="Arial, sans-serif" font-size="10">1.4</text>
<line x1="78" y1="54.00" x2="772" y2="54.00" stroke="#ececec"/>
<text x="70" y="58.00" text-anchor="end" font-family="Arial, sans-serif" font-size="10">2</text>
<line x1="78" y1="71.57" x2="772" y2="71.57" stroke="#1f77b4" opacity="0.18" stroke-dasharray="3 4"/>
<polyline fill="none" stroke="#1f77b4" stroke-width="2.0" points="91.35,209.49 93.04,209.49 94.70,209.49 96.81,209.49 98.50,209.50 99.19,209.49 99.34,209.49 99.51,209.49 99.64,209.48 99.80,209.48 100.03,209.46 100.23,209.45 100.45,209.45 100.66,209.44 100.81,209.44 100.92,209.45 101.01,209.46 101.10,209.46 101.18,209.48 101.29,209.49 101.42,209.52 101.53,209.56 101.64,209.59 101.79,209.66 101.94,209.74 102.07,209.82 102.22,209.93 102.33,210.02 102.50,210.17 102.63,210.29 102.72,210.37 102.83,210.47 102.94,210.57 103.07,210.68 103.24,210.82 103.41,210.94 103.50,210.99 103.65,211.05 103.80,211.06 103.91,211.04 104.04,210.98 104.17,210.86 104.30,210.70 104.39,210.55 104.48,210.37 104.58,210.11 104.69,209.79 104.78,209.49 104.89,209.06 105.02,208.47 105.13,207.90 105.21,207.40 105.36,206.40 105.52,205.21 105.60,204.45 105.71,203.43 105.82,202.29 105.97,200.51 106.12,198.44 106.34,194.98 106.47,192.60 106.71,187.62 107.03,179.65 107.18,175.51 107.42,168.56 107.55,164.56 107.73,159.04 107.96,151.18 108.12,146.08 108.29,140.21 108.53,132.19 108.64,128.60 108.77,124.40 108.90,120.34 109.03,116.46 109.16,112.79 109.29,109.34 109.42,106.14 109.59,102.32 109.76,98.81 109.94,95.62 110.13,92.48 110.35,89.48 110.50,87.65 110.65,86.04 110.80,84.61 110.93,83.52 111.15,81.95 111.30,81.01 111.43,80.29 111.63,79.35 111.84,78.47 111.99,77.94 112.28,77.13 112.47,76.66 112.58,76.43 112.84,75.96 113.23,75.41 113.64,74.95 113.77,74.82 113.90,74.70 114.07,74.54 114.42,74.24 115.05,73.76 115.63,73.39 116.37,73.02 116.54,72.94 117.50,72.61 117.84,72.52 118.69,72.34 119.53,72.21 119.66,72.19 120.03,72.14 120.44,72.10 120.79,72.07 121.01,72.05 121.18,72.04 121.40,72.02 121.51,72.01 121.96,71.98 122.29,71.96 122.55,71.94 122.89,71.92 123.69,71.89 123.95,71.88 124.24,71.86 124.58,71.85 124.73,71.85 124.91,71.84 125.10,71.83 125.34,71.83 125.60,71.82 125.86,71.81 126.03,71.81 126.32,71.80 126.49,71.79 126.81,71.79 127.14,71.78 127.38,71.77 127.62,71.77 127.85,71.76 128.03,71.76 128.31,71.75 128.59,71.75 128.85,71.74 129.13,71.74 129.26,71.74 129.52,71.73 129.78,71.73 129.93,71.73 130.17,71.72 130.32,71.72 130.52,71.72 130.84,71.71 131.06,71.71 131.21,71.71 131.34,71.71 131.54,71.71 131.71,71.70 132.01,71.70 132.23,71.70 132.51,71.69 132.66,71.69 132.97,71.69 133.29,71.69 133.53,71.68 133.90,71.68 134.20,71.68 134.44,71.67 135.00,71.67 135.48,71.67 135.94,71.66 136.43,71.66 136.85,71.66 137.45,71.65 137.95,71.65 138.47,71.65 139.10,71.64 139.60,71.64 139.90,71.64 140.59,71.64 141.83,71.63 142.26,71.63 143.09,71.63 144.36,71.62 144.84,71.62 145.73,71.62 146.03,71.62 146.25,71.62 146.75,71.61 147.31,71.61 148.00,71.61 148.37,71.61 149.82,71.61 151.08,71.61 151.86,71.60 152.25,71.60 152.77,71.60 153.81,71.60 154.87,71.60 156.13,71.60 157.41,71.60 158.34,71.60 159.92,71.59 161.18,71.59 162.87,71.59 164.56,71.59 166.23,71.59 167.55,71.59 169.61,71.59 171.27,71.59 172.96,71.59 174.65,71.59 175.91,71.58 177.60,71.58 178.84,71.58 180.11,71.58 181.33,71.58 182.09,71.58 183.06,71.58 185.16,71.58 186.85,71.58 188.11,71.58 189.80,71.58 191.47,71.58 193.16,71.58 195.26,71.58 196.95,71.58 198.64,71.58 200.31,71.58 202.00,71.58 204.10,71.58 205.79,71.58 207.46,71.58 209.15,71.58 210.84,71.58 212.51,71.58 214.61,71.58 216.30,71.58 217.12,71.57"/>
<line x1="78" y1="71.57" x2="772" y2="71.57" stroke="#d62728" opacity="0.18" stroke-dasharray="3 4"/>
<polyline fill="none" stroke="#d62728" stroke-width="2.0" points="91.35,71.57 95.59,71.57 97.80,71.57 98.91,71.57 99.60,71.57 99.88,71.57 100.66,71.56 101.29,71.56 101.72,71.56 102.14,71.58 102.24,71.59 102.33,71.60 102.46,71.61 102.81,71.64 103.07,71.67 103.33,71.71 103.48,71.72 103.67,71.74 103.85,71.76 103.96,71.77 104.17,71.78 104.35,71.78 104.43,71.78 104.65,71.76 104.82,71.74 105.00,71.71 105.15,71.67 105.39,71.59 105.60,71.50 105.75,71.43 105.97,71.31 106.17,71.19 106.27,71.12 106.43,71.02 106.56,70.93 106.69,70.85 106.84,70.75 106.95,70.68 107.03,70.62 107.12,70.57 107.25,70.49 107.36,70.42 107.47,70.36 107.55,70.31 107.64,70.26 107.73,70.21 107.81,70.17 107.92,70.11 108.12,70.02 108.27,69.95 108.40,69.91 108.64,69.87 108.72,69.86 108.85,69.91 108.98,69.97 109.09,70.03 109.22,70.21 109.37,70.41 109.50,70.70 109.74,71.35 109.85,71.72 110.00,72.34 110.15,73.09 110.33,74.09 110.56,75.72 110.69,76.77 110.82,77.91 110.95,79.13 111.15,81.17 111.28,82.63 111.45,84.75 111.63,87.04 111.76,88.88 111.86,90.45 112.04,93.08 112.19,95.46 112.34,97.92 112.56,101.51 112.67,103.33 112.82,105.89 113.08,110.32 113.36,115.11 113.49,117.31 113.75,121.65 113.99,125.57 114.25,129.76 114.53,134.15 114.85,139.09 115.11,142.91 115.40,146.92 115.53,148.72 115.79,152.23 115.98,154.76 116.15,156.95 116.33,159.08 116.52,161.39 116.76,164.11 117.00,166.72 117.26,169.42 117.61,172.79 117.93,175.74 118.13,177.39 118.34,179.15 118.80,182.54 118.91,183.28 119.21,185.27 119.43,186.61 119.69,188.14 119.95,189.57 120.29,191.31 120.77,193.46 121.09,194.77 121.51,196.25 122.31,198.65 123.15,200.62 123.61,201.52 124.15,202.46 124.50,202.99 124.84,203.47 125.15,203.85 125.45,204.21 125.77,204.55 126.12,204.89 126.34,205.09 127.31,205.84 127.46,205.94 127.88,206.20 128.85,206.70 130.02,207.14 131.60,207.54 132.12,207.63 132.58,207.71 132.69,207.73 132.86,207.76 132.97,207.77 133.18,207.81 133.57,207.87 134.27,207.99 134.51,208.03 134.87,208.09 135.20,208.15 135.44,208.19 136.07,208.30 136.26,208.33 136.54,208.38 136.98,208.45 137.32,208.51 137.63,208.55 138.23,208.62 138.73,208.68 139.06,208.72 139.51,208.77 139.92,208.81 140.23,208.84 140.53,208.86 140.83,208.89 141.16,208.91 141.61,208.94 141.98,208.96 142.33,208.98 142.67,209.00 142.96,209.02 143.26,209.03 143.65,209.05 144.23,209.07 144.95,209.10 145.34,209.11 145.77,209.13 146.44,209.14 147.09,209.16 147.72,209.18 148.46,209.19 149.02,209.20 149.76,209.22 150.63,209.23 151.60,209.24 153.07,209.26 155.26,209.29 156.37,209.30 157.47,209.31 158.58,209.32 161.26,209.34 164.08,209.35 167.42,209.37 171.79,209.39 175.11,209.40 179.51,209.42 185.03,209.43 189.43,209.44 193.85,209.45 198.25,209.45 202.65,209.46 208.17,209.46 212.57,209.46 216.99,209.47 221.39,209.47 225.81,209.47 230.21,209.47 235.71,209.48 240.13,209.48 244.53,209.48 248.95,209.48 253.35,209.48 258.87,209.48 263.27,209.48 267.69,209.48 272.09,209.48 276.51,209.48 280.91,209.48 286.41,209.48 290.83,209.48 295.23,209.48 299.65,209.48 304.05,209.48 309.57,209.48 313.97,209.48 318.37,209.48 322.79,209.49 327.19,209.49 331.61,209.49 337.11,209.49 341.53,209.49 345.93,209.49 350.35,209.49 354.75,209.49 359.14,209.49 364.67,209.49 369.07,209.49 373.49,209.49 377.89,209.49 382.31,209.49 387.81,209.49 392.21,209.49 396.63,209.49 401.03,209.49 404.34,209.49 408.74,209.49 414.26,209.49 418.66,209.49 420.85,209.49"/>
<line x1="78" y1="266.93" x2="772" y2="266.93" stroke="#2ca02c" opacity="0.18" stroke-dasharray="3 4"/>
<polyline fill="none" stroke="#2ca02c" stroke-width="2.0" points="91.35,266.93 99.97,266.95 100.23,266.94 100.47,266.94 100.62,266.93 100.75,266.93 100.90,266.92 100.99,266.91 101.07,266.90 101.23,266.89 101.31,266.87 101.42,266.86 101.53,266.84 101.66,266.82 101.88,266.79 102.03,266.76 102.20,266.73 102.37,266.71 102.53,266.69 102.68,266.68 102.85,266.68 103.05,266.70 103.22,266.73 103.37,266.77 103.54,266.84 103.70,266.92 103.89,267.04 104.04,267.14 104.13,267.20 104.22,267.27 104.30,267.34 104.41,267.42 104.50,267.49 104.58,267.55 104.67,267.62 104.76,267.68 104.84,267.75 104.95,267.82 105.04,267.88 105.13,267.94 105.21,267.99 105.34,268.06 105.58,268.14 105.71,268.12 105.80,268.10 105.88,268.02 105.97,267.94 106.06,267.79 106.21,267.49 106.40,266.90 106.60,266.10 106.75,265.32 106.92,264.26 107.21,262.15 107.38,260.60 107.51,259.31 107.66,257.66 107.77,256.38 107.88,255.03 108.07,252.37 108.25,249.77 108.42,246.95 108.59,243.93 108.83,239.46 109.00,236.04 109.16,232.98 109.31,229.89 109.44,227.24 109.65,222.87 109.89,218.19 110.11,214.06 110.33,210.07 110.54,206.24 110.76,202.58 110.93,199.77 111.17,196.09 111.41,192.65 111.63,189.67 111.73,188.23 111.82,187.11 111.97,185.21 112.21,182.38 112.38,180.44 112.58,178.36 112.73,176.82 112.88,175.36 113.01,174.15 113.23,172.25 113.47,170.31 113.64,168.99 113.81,167.74 114.03,166.28 114.31,164.55 114.49,163.57 114.68,162.54 115.01,160.94 115.35,159.41 115.55,158.63 115.79,157.74 116.11,156.65 116.63,155.15 117.45,153.27 117.69,152.84 118.04,152.23 118.43,151.68 119.23,150.68 119.56,150.32 119.99,149.91 120.29,149.64 120.64,149.38 121.42,148.86 123.80,147.87 124.73,147.62 125.71,147.43 127.05,147.23 127.23,147.21 128.70,147.07 128.98,147.05 129.26,147.04 130.02,147.00 130.54,146.99 131.06,146.98 131.43,146.97 131.71,146.97 132.04,146.98 132.32,146.98 132.79,146.98 133.21,146.98 133.55,146.99 133.90,146.99 134.29,146.98 134.70,146.96 135.03,146.95 135.22,146.93 135.61,146.90 135.89,146.87 136.17,146.84 136.52,146.80 136.76,146.77 137.13,146.73 137.45,146.69 137.84,146.64 138.30,146.59 138.80,146.54 139.14,146.50 139.51,146.47 139.90,146.43 140.31,146.40 140.57,146.38 140.77,146.37 141.24,146.33 141.37,146.32 141.79,146.30 142.11,146.28 142.26,146.27 142.67,146.25 143.06,146.22 143.74,146.19 144.28,146.17 145.30,146.12 146.18,146.09 147.18,146.06 148.31,146.02 151.60,145.93 155.78,145.83 158.95,145.76 160.79,145.72 164.99,145.64 172.73,145.50 176.15,145.45 183.84,145.35 191.77,145.25 198.47,145.18 202.95,145.14 205.18,145.12 210.53,145.08 214.11,145.05 217.66,145.02 221.95,144.99 227.50,144.96 236.43,144.90 243.12,144.87 249.82,144.84 256.51,144.81 265.44,144.78 274.36,144.75 283.29,144.72 294.45,144.69 301.14,144.68 307.84,144.66 316.76,144.65 325.69,144.63 336.85,144.62 345.78,144.61 354.70,144.60 363.63,144.59 372.56,144.58 379.25,144.58 388.18,144.57 397.10,144.57 406.03,144.56 414.96,144.56 421.65,144.55 432.83,144.55 441.76,144.54 450.69,144.54 459.61,144.54 468.54,144.53 477.47,144.53 488.62,144.53 497.55,144.53 506.48,144.52 514.17,144.52 522.10,144.52 533.26,144.52 539.95,144.52 548.88,144.52 557.81,144.52 566.73,144.52 575.66,144.51 586.82,144.51 595.74,144.51 604.67,144.51 613.60,144.51 622.52,144.51 631.45,144.51 642.61,144.51 651.56,144.51 660.48,144.51 669.41,144.51 678.34,144.51 689.49,144.51 698.42,144.51 707.35,144.51 716.27,144.51 725.20,144.51 734.13,144.51 745.29,144.51 754.21,144.51 758.65,144.50"/>
<line x1="78" y1="266.93" x2="772" y2="266.93" stroke="#9467bd" opacity="0.18" stroke-dasharray="3 4"/>
<polyline fill="none" stroke="#9467bd" stroke-width="2.0" points="91.35,144.50 91.97,144.50 93.17,144.50 93.77,144.50 94.81,144.50 95.92,144.50 96.29,144.50 96.72,144.50 96.94,144.50 97.28,144.50 97.39,144.50 97.50,144.50 97.78,144.50 97.89,144.50 98.00,144.50 98.08,144.50 98.21,144.50 98.47,144.50 98.65,144.50 98.73,144.50 98.97,144.50 99.12,144.50 99.30,144.50 99.45,144.50 99.58,144.50 99.69,144.50 99.80,144.50 99.99,144.50 100.16,144.50 100.29,144.50 100.40,144.50 100.51,144.50 100.60,144.50 100.68,144.51 100.77,144.51 100.86,144.51 100.94,144.51 101.05,144.52 101.14,144.52 101.25,144.52 101.33,144.52 101.42,144.53 101.57,144.53 101.68,144.54 101.79,144.54 101.90,144.55 102.01,144.55 102.09,144.55 102.20,144.55 102.29,144.55 102.37,144.55 102.46,144.55 102.55,144.55 102.70,144.54 102.81,144.53 102.92,144.52 103.00,144.51 103.11,144.49 103.20,144.48 103.33,144.45 103.41,144.43 103.50,144.41 103.63,144.37 103.72,144.34 103.85,144.29 103.96,144.25 104.04,144.21 104.17,144.15 104.28,144.10 104.39,144.05 104.54,143.98 104.67,143.93 104.78,143.89 104.89,143.86 105.00,143.84 105.08,143.84 105.23,143.85 105.36,143.88 105.45,143.93 105.54,143.99 105.65,144.08 105.78,144.23 105.91,144.43 105.99,144.59 106.08,144.78 106.17,144.99 106.25,145.24 106.36,145.59 106.49,146.06 106.58,146.41 106.66,146.80 106.75,147.22 106.88,147.91 106.99,148.54 107.10,149.23 107.18,149.83 107.27,150.46 107.38,151.30 107.55,152.76 107.64,153.55 107.73,154.37 107.81,155.24 107.90,156.14 108.01,157.32 108.16,159.06 108.35,161.46 108.57,164.32 108.85,168.34 109.09,171.99 109.37,176.60 109.59,180.40 109.78,184.00 110.07,189.54 110.17,191.73 110.48,198.22 110.63,201.57 110.80,205.49 111.00,210.00 111.17,214.07 111.39,219.16 111.65,225.19 111.80,228.60 111.99,232.85 112.23,237.69 112.43,241.37 112.64,245.09 112.86,248.38 113.03,250.68 113.21,252.72 113.38,254.49 113.55,256.03 113.79,257.79 113.97,258.86 114.14,259.76 114.42,260.95 114.59,261.55 114.81,262.16 115.05,262.72 115.27,263.13 115.57,263.58 117.41,265.03 118.93,265.70 121.07,266.23 122.44,266.40 123.63,266.50 123.93,266.52 124.17,266.54 124.56,266.56 125.04,266.58 125.54,266.61 125.69,266.61 126.03,266.63 126.29,266.64 126.64,266.65 126.97,266.66 127.18,266.67 127.53,266.68 127.83,266.69 128.05,266.69 128.46,266.70 128.81,266.71 129.05,266.71 129.28,266.72 129.65,266.73 130.06,266.74 130.37,266.74 130.76,266.75 131.13,266.75 131.47,266.76 131.80,266.76 132.21,266.77 132.53,266.77 132.95,266.78 133.29,266.78 133.62,266.79 134.01,266.79 134.35,266.79 134.64,266.80 134.94,266.80 135.24,266.80 135.48,266.81 135.72,266.81 136.15,266.81 136.43,266.81 136.61,266.81 136.80,266.82 137.15,266.82 137.52,266.82 137.91,266.82 138.25,266.83 138.51,266.83 139.25,266.83 140.27,266.84 141.63,266.85 143.45,266.86 144.84,266.86 146.66,266.87 148.50,266.87 150.78,266.88 152.60,266.89 154.44,266.89 156.26,266.89 158.10,266.90 160.38,266.90 162.22,266.90 164.04,266.91 165.86,266.91 167.70,266.91 169.52,266.91 171.82,266.91 173.64,266.91 175.46,266.92 177.30,266.92 179.12,266.92 181.41,266.92 183.23,266.92 185.08,266.92 186.90,266.92 188.72,266.92 190.56,266.92 192.83,266.92 194.67,266.92 196.49,266.93 198.31,266.93 200.16,266.93 201.98,266.93 204.27,266.93 206.09,266.93 207.93,266.93 209.75,266.93 211.57,266.93 213.87,266.93 215.69,266.93 217.53,266.93 219.35,266.93 221.17,266.93 223.01,266.93 225.29,266.93 227.13,266.93 228.02,266.93"/>
<line x1="88" y1="72" x2="110" y2="72" stroke="#1f77b4" stroke-width="2.4"/>
<text x="116" y="76" font-family="Arial, sans-serif" font-size="12">rising #1</text>
<line x1="88" y1="90" x2="110" y2="90" stroke="#d62728" stroke-width="2.4"/>
<text x="116" y="94" font-family="Arial, sans-serif" font-size="12">falling #2</text>
<line x1="88" y1="108" x2="110" y2="108" stroke="#2ca02c" stroke-width="2.4"/>
<text x="116" y="112" font-family="Arial, sans-serif" font-size="12">rising #3</text>
<line x1="88" y1="126" x2="110" y2="126" stroke="#9467bd" stroke-width="2.4"/>
<text x="116" y="130" font-family="Arial, sans-serif" font-size="12">falling #4</text>
<rect x="78" y="342" width="694" height="44" fill="#fffdf7" stroke="#d8c6a1" rx="4"/>
<text x="88" y="359" font-family="Arial, sans-serif" font-size="11" font-weight="700" fill="#4b3b21">Findings needing attention</text>
<rect x="88" y="366" width="7" height="7" fill="#b54708"/>
<text x="102" y="373" font-family="Arial, sans-serif" font-size="11" fill="#333">WARN 5.5.4: Ramp dt versus V-T 20-80% evidence needs review | avg Ramp dt=2.598e-10s, avg V-T 20-80% span=2.037e-...</text>
<text x="425.00" y="322.00" text-anchor="middle" font-family="Arial, sans-serif" font-size="12">Time (s)</text>
<text x="420" y="42" font-family="Arial, sans-serif" font-size="11" fill="#555">solid=V-T voltage, faint horizontal=V_fixture</text>
</svg>