<svg xmlns="http://www.w3.org/2000/svg" width="800" height="450" viewBox="0 0 800 450">
<rect width="100%" height="100%" fill="#ffffff"/>
<text x="78" y="25" font-family="Arial, sans-serif" font-size="16" font-weight="700">E34_GPIO_I3C_I2C_SLV_1V8_01 V-T Waveforms</text>
<rect x="78" y="54" width="694" height="230" fill="#fbfbfb" stroke="#c8c8c8"/>
<text transform="translate(18 169.00) rotate(-90)" text-anchor="middle" font-family="Arial, sans-serif" font-size="12">Voltage (V)</text>
<line x1="78.00" y1="54" x2="78.00" y2="284" stroke="#ececec"/>
<text x="78.00" y="302" text-anchor="middle" font-family="Arial, sans-serif" font-size="10">-434p</text>
<line x1="216.80" y1="54" x2="216.80" y2="284" stroke="#ececec"/>
<text x="216.80" y="302" text-anchor="middle" font-family="Arial, sans-serif" font-size="10">4.08n</text>
<line x1="355.60" y1="54" x2="355.60" y2="284" stroke="#ececec"/>
<text x="355.60" y="302" text-anchor="middle" font-family="Arial, sans-serif" font-size="10">8.59n</text>
<line x1="494.40" y1="54" x2="494.40" y2="284" stroke="#ececec"/>
<text x="494.40" y="302" text-anchor="middle" font-family="Arial, sans-serif" font-size="10">13.1n</text>
<line x1="633.20" y1="54" x2="633.20" y2="284" stroke="#ececec"/>
<text x="633.20" y="302" text-anchor="middle" font-family="Arial, sans-serif" font-size="10">17.6n</text>
<line x1="772.00" y1="54" x2="772.00" y2="284" stroke="#ececec"/>
<text x="772.00" y="302" text-anchor="middle" font-family="Arial, sans-serif" font-size="10">22.1n</text>
<line x1="78" y1="284.00" x2="772" y2="284.00" stroke="#ececec"/>
<text x="70" y="288.00" text-anchor="end" font-family="Arial, sans-serif" font-size="10">-0.157</text>
<line x1="78" y1="226.50" x2="772" y2="226.50" stroke="#ececec"/>
<text x="70" y="230.50" text-anchor="end" font-family="Arial, sans-serif" font-size="10">0.372</text>
<line x1="78" y1="169.00" x2="772" y2="169.00" stroke="#ececec"/>
<text x="70" y="173.00" text-anchor="end" font-family="Arial, sans-serif" font-size="10">0.902</text>
<line x1="78" y1="111.50" x2="772" y2="111.50" stroke="#ececec"/>
<text x="70" y="115.50" text-anchor="end" font-family="Arial, sans-serif" font-size="10">1.4</text>
<line x1="78" y1="54.00" x2="772" y2="54.00" stroke="#ececec"/>
<text x="70" y="58.00" text-anchor="end" font-family="Arial, sans-serif" font-size="10">2</text>
<line x1="78" y1="71.61" x2="772" y2="71.61" stroke="#1f77b4" opacity="0.18" stroke-dasharray="3 4"/>
<polyline fill="none" stroke="#1f77b4" stroke-width="2.0" points="91.35,209.49 93.62,209.49 95.90,209.49 98.76,209.49 101.04,209.49 101.65,209.47 101.90,209.47 102.14,209.46 102.45,209.45 102.79,209.44 103.07,209.44 103.37,209.45 103.65,209.47 103.90,209.50 104.14,209.55 104.33,209.60 104.54,209.67 104.73,209.74 104.91,209.82 105.07,209.89 105.25,210.00 105.37,210.07 105.53,210.16 105.68,210.26 105.84,210.37 106.05,210.51 106.33,210.69 106.54,210.82 106.67,210.88 106.79,210.94 107.01,211.03 107.22,211.08 107.34,211.09 107.56,211.06 107.68,211.02 107.84,210.94 107.99,210.82 108.17,210.62 108.33,210.41 108.48,210.14 108.64,209.82 108.76,209.52 108.94,209.01 109.07,208.60 109.19,208.15 109.31,207.67 109.50,206.84 109.65,206.05 109.80,205.21 109.96,204.23 110.14,202.94 110.27,202.00 110.39,200.97 110.60,198.97 110.73,197.67 110.91,195.57 111.10,193.23 111.28,190.66 111.59,185.83 111.93,179.81 112.17,174.98 112.45,169.21 112.64,165.18 112.82,161.01 113.10,154.55 113.22,151.62 113.53,144.20 113.77,138.21 113.90,135.22 114.14,129.29 114.36,124.24 114.54,120.04 114.82,114.09 115.10,108.64 115.31,104.79 115.47,102.23 115.83,96.75 116.11,93.22 116.36,90.47 116.51,88.93 116.67,87.51 116.91,85.49 117.10,84.15 117.31,82.77 117.50,81.72 117.77,80.35 117.90,79.82 118.20,78.65 118.39,78.04 118.60,77.43 118.76,77.04 118.91,76.68 119.28,75.96 119.46,75.66 119.65,75.39 120.11,74.84 120.60,74.41 120.97,74.15 121.68,73.73 122.14,73.49 122.73,73.22 122.97,73.11 123.22,73.01 124.45,72.59 125.09,72.42 125.93,72.25 126.69,72.13 127.28,72.05 128.20,71.96 129.00,71.90 129.34,71.88 129.65,71.86 129.99,71.84 130.36,71.83 130.72,71.81 130.97,71.80 131.22,71.79 131.37,71.78 131.62,71.77 131.83,71.77 132.17,71.76 132.51,71.75 132.79,71.75 133.12,71.75 133.34,71.74 133.55,71.74 134.05,71.73 134.32,71.73 134.79,71.72 135.28,71.72 135.59,71.72 136.11,71.71 136.42,71.71 136.72,71.71 137.12,71.70 137.46,71.70 137.71,71.70 138.11,71.70 138.32,71.69 138.63,71.69 138.94,71.69 139.15,71.69 139.58,71.69 139.80,71.69 140.11,71.69 140.42,71.68 140.75,71.68 140.97,71.68 141.37,71.68 141.61,71.68 142.05,71.68 142.32,71.68 142.57,71.68 142.81,71.68 143.31,71.67 143.74,71.67 144.05,71.67 144.41,71.67 144.78,71.67 145.15,71.67 145.61,71.67 146.11,71.67 146.41,71.67 146.69,71.67 147.46,71.66 148.08,71.66 148.97,71.66 150.11,71.66 150.81,71.66 151.34,71.66 152.04,71.66 152.54,71.65 153.06,71.65 153.49,71.65 154.07,71.65 155.24,71.65 156.38,71.65 157.03,71.65 157.70,71.65 158.29,71.65 158.97,71.65 159.37,71.65 159.83,71.65 160.23,71.65 160.38,71.64 161.52,71.64 162.78,71.64 164.44,71.64 165.40,71.64 165.64,71.64 166.87,71.64 168.69,71.64 170.66,71.64 172.13,71.64 172.84,71.63 173.46,71.63 174.66,71.63 176.35,71.63 178.07,71.63 179.36,71.63 181.42,71.63 182.62,71.63 184.04,71.63 186.04,71.63 188.35,71.63 190.62,71.63 192.90,71.63 194.62,71.63 196.90,71.63 199.17,71.63 201.45,71.63 203.17,71.62 205.45,71.62 207.17,71.62 208.87,71.62 210.59,71.62 212.87,71.62 215.14,71.62 217.42,71.62 219.14,71.62 222.00,71.62 224.28,71.62 226.00,71.62 228.19,71.62 229.42,71.62 231.69,71.62 234.55,71.62 236.83,71.62 239.11,71.62 241.38,71.62 243.11,71.62 245.97,71.62 247.69,71.62 249.97,71.62 252.24,71.62 254.52,71.62 256.80,71.62 259.29,71.62 260.80,71.62 261.90,71.61"/>
<line x1="78" y1="71.61" x2="772" y2="71.61" stroke="#d62728" opacity="0.18" stroke-dasharray="3 4"/>
<polyline fill="none" stroke="#d62728" stroke-width="2.0" points="91.35,71.61 95.41,71.61 97.99,71.61 99.47,71.61 100.54,71.61 101.65,71.61 102.51,71.60 103.25,71.60 103.84,71.60 104.42,71.60 105.25,71.64 105.50,71.65 105.68,71.67 105.87,71.68 106.24,71.71 106.54,71.74 106.67,71.75 107.01,71.78 107.34,71.80 107.53,71.81 107.90,71.83 108.17,71.83 108.30,71.82 108.57,71.81 108.88,71.77 109.07,71.74 109.37,71.68 109.53,71.65 109.74,71.59 109.96,71.51 110.14,71.45 110.39,71.34 110.64,71.24 110.88,71.12 111.13,71.01 111.44,70.86 111.65,70.76 111.87,70.66 112.14,70.53 112.36,70.44 112.57,70.35 112.70,70.30 112.85,70.24 112.97,70.19 113.10,70.15 113.22,70.10 113.37,70.05 113.62,69.97 113.83,69.92 114.02,69.88 114.17,69.87 114.33,69.86 114.51,69.91 114.70,69.98 114.85,70.05 115.03,70.23 115.16,70.34 115.28,70.49 115.40,70.68 115.71,71.26 115.87,71.61 116.02,72.06 116.23,72.75 116.45,73.55 116.88,75.57 117.16,77.14 117.40,78.74 117.65,80.51 117.86,82.22 118.11,84.32 118.36,86.61 118.57,88.75 118.73,90.34 118.94,92.66 119.19,95.43 119.34,97.21 119.62,100.49 119.80,102.70 120.14,106.83 120.36,109.48 120.76,114.41 121.22,120.04 121.56,124.11 121.93,128.44 122.30,132.66 122.66,136.80 122.88,139.16 123.16,142.15 123.37,144.42 123.65,147.29 123.80,148.86 123.93,150.09 124.29,153.70 124.54,156.03 124.88,159.11 125.13,161.28 125.43,163.90 125.71,166.16 126.08,169.04 126.26,170.43 126.63,173.08 126.97,175.39 127.28,177.37 127.59,179.26 127.86,180.87 128.20,182.74 128.51,184.33 128.72,185.39 129.06,186.98 129.46,188.72 129.80,190.11 130.05,191.05 130.17,191.51 130.60,193.01 130.88,193.91 131.25,195.04 131.77,196.51 132.02,197.15 132.51,198.31 132.85,199.05 133.19,199.70 133.89,200.95 134.39,201.68 135.00,202.52 135.46,203.08 136.17,203.85 136.85,204.48 137.89,205.31 139.46,206.24 141.06,206.93 142.11,207.27 142.57,207.40 143.21,207.56 144.38,207.79 144.97,207.88 145.37,207.94 145.58,207.96 146.08,208.02 146.32,208.05 146.60,208.07 147.03,208.12 147.74,208.18 148.48,208.25 149.12,208.31 149.31,208.33 149.74,208.37 150.17,208.42 150.29,208.43 150.91,208.49 151.34,208.54 151.77,208.59 152.26,208.64 152.84,208.69 153.55,208.76 154.04,208.82 154.47,208.86 154.72,208.87 154.94,208.89 155.34,208.92 155.95,208.96 156.29,208.99 156.57,209.01 157.18,209.05 157.61,209.07 158.20,209.10 158.81,209.13 159.37,209.16 159.83,209.17 160.20,209.19 160.81,209.21 161.40,209.22 162.07,209.24 162.60,209.25 163.40,209.27 163.83,209.28 164.72,209.30 165.70,209.31 166.69,209.33 167.49,209.34 168.29,209.34 169.52,209.36 170.53,209.36 172.32,209.38 174.38,209.39 176.10,209.40 177.64,209.40 179.67,209.41 181.89,209.42 184.75,209.42 186.78,209.43 189.98,209.44 193.88,209.44 198.04,209.45 202.01,209.45 206.07,209.46 210.13,209.46 214.19,209.46 218.25,209.46 223.32,209.47 227.39,209.47 231.45,209.47 235.51,209.47 239.57,209.47 244.61,209.47 248.67,209.47 252.74,209.48 256.80,209.48 260.86,209.48 264.92,209.48 269.99,209.48 274.06,209.48 278.12,209.48 282.18,209.48 286.24,209.48 291.31,209.48 295.37,209.48 299.44,209.48 303.50,209.48 307.56,209.48 311.62,209.48 316.69,209.48 320.76,209.48 324.82,209.48 328.88,209.48 332.94,209.48 337.00,209.48 342.07,209.48 346.14,209.48 350.20,209.48 354.26,209.48 358.32,209.48 363.39,209.48 367.46,209.48 371.52,209.48 375.58,209.48 379.64,209.48 383.70,209.48 388.78,209.48 392.84,209.48 394.84,209.49"/>
<line x1="78" y1="266.91" x2="772" y2="266.91" stroke="#2ca02c" opacity="0.18" stroke-dasharray="3 4"/>
<polyline fill="none" stroke="#2ca02c" stroke-width="2.0" points="91.35,266.91 100.27,266.91 102.88,266.91 103.19,266.90 103.56,266.88 103.99,266.84 104.27,266.81 104.51,266.78 104.70,266.76 104.88,266.73 105.01,266.72 105.19,266.70 105.34,266.69 105.47,266.68 105.65,266.66 105.81,266.66 105.99,266.66 106.17,266.66 106.45,266.69 106.67,266.73 106.97,266.81 107.19,266.89 107.37,266.96 107.59,267.06 107.77,267.16 107.96,267.26 108.30,267.44 108.42,267.51 108.60,267.61 108.73,267.68 108.85,267.74 109.00,267.82 109.13,267.88 109.25,267.94 109.37,267.99 109.50,268.04 109.62,268.08 109.77,268.12 109.90,268.14 110.02,268.13 110.17,268.10 110.42,267.96 110.73,267.57 110.88,267.28 111.00,267.02 111.13,266.70 111.25,266.35 111.40,265.83 111.68,264.72 111.93,263.53 112.14,262.34 112.39,260.79 112.67,258.83 112.94,256.61 113.16,254.70 113.37,252.65 113.56,250.74 113.77,248.36 113.93,246.55 114.11,244.28 114.36,241.06 114.54,238.53 114.82,234.59 114.97,232.36 115.28,227.84 115.68,221.98 115.93,218.44 116.17,214.98 116.48,210.80 116.73,207.57 117.13,202.59 117.40,199.32 117.77,195.20 117.96,193.22 118.14,191.30 118.36,189.11 118.63,186.42 118.88,184.14 119.19,181.45 119.43,179.40 119.62,177.93 119.93,175.61 120.08,174.50 120.39,172.39 120.60,171.00 120.91,169.14 121.13,167.91 121.40,166.42 121.71,164.88 121.86,164.16 122.08,163.20 122.36,162.04 122.60,161.07 122.94,159.83 123.34,158.47 123.77,157.16 124.02,156.47 124.42,155.45 124.69,154.80 124.91,154.35 125.49,153.20 126.20,152.01 127.22,150.69 127.89,149.95 128.76,149.18 129.28,148.80 130.29,148.14 131.52,147.54 133.06,147.00 133.92,146.77 134.57,146.63 134.94,146.55 135.99,146.38 136.72,146.28 137.83,146.16 138.29,146.12 138.45,146.11 139.28,146.05 139.46,146.04 139.65,146.03 140.29,145.99 140.72,145.98 141.15,145.96 141.65,145.95 142.20,145.94 142.69,145.93 143.03,145.93 143.34,145.93 143.77,145.93 144.35,145.94 144.91,145.95 145.49,145.96 145.89,145.97 146.54,145.98 146.84,145.99 147.40,146.00 147.83,146.00 148.54,146.00 149.15,145.99 149.37,145.98 149.71,145.96 149.89,145.95 150.26,145.93 150.57,145.91 150.88,145.90 151.43,145.86 151.83,145.83 152.57,145.78 153.21,145.73 153.67,145.70 154.14,145.67 154.44,145.65 154.87,145.62 155.43,145.59 155.70,145.57 155.92,145.56 156.50,145.53 156.81,145.51 157.06,145.50 157.27,145.49 158.29,145.45 158.97,145.43 160.01,145.40 161.09,145.37 162.78,145.34 164.35,145.31 166.96,145.27 171.70,145.21 178.38,145.14 184.59,145.08 191.21,145.03 196.13,145.00 200.71,144.97 203.91,144.95 209.73,144.92 211.88,144.91 217.23,144.88 223.02,144.86 229.94,144.83 238.18,144.80 243.11,144.78 252.03,144.75 258.73,144.74 267.66,144.71 276.61,144.69 285.53,144.68 289.99,144.67 296.67,144.66 305.62,144.65 310.08,144.64 319.00,144.63 327.92,144.62 339.09,144.61 348.01,144.60 356.93,144.60 363.64,144.59 372.56,144.59 381.48,144.58 388.19,144.57 397.11,144.57 406.03,144.57 414.99,144.56 421.66,144.56 430.58,144.56 437.78,144.55 446.21,144.55 455.13,144.55 464.09,144.55 473.01,144.55 484.18,144.54 493.10,144.54 502.02,144.54 510.94,144.54 519.86,144.54 531.03,144.54 539.95,144.54 548.87,144.53 557.82,144.53 566.75,144.53 575.67,144.53 586.84,144.53 595.76,144.53 604.68,144.53 613.60,144.53 622.55,144.53 631.47,144.53 642.61,144.53 651.56,144.53 660.49,144.53 669.41,144.53 678.33,144.53 689.50,144.52 698.42,144.52 707.34,144.52 716.29,144.52 725.21,144.52 734.13,144.52 745.30,144.52 754.22,144.52 758.65,144.52"/>
<line x1="78" y1="266.91" x2="772" y2="266.91" stroke="#9467bd" opacity="0.18" stroke-dasharray="3 4"/>
<polyline fill="none" stroke="#9467bd" stroke-width="2.0" points="91.35,144.52 93.28,144.52 94.73,144.52 96.15,144.52 97.31,144.52 97.68,144.52 98.11,144.52 98.70,144.52 98.88,144.52 99.04,144.52 99.41,144.52 99.56,144.52 99.68,144.52 99.81,144.52 99.96,144.52 100.27,144.52 100.48,144.52 100.64,144.52 100.76,144.52 101.16,144.52 101.41,144.52 101.62,144.52 101.78,144.52 101.93,144.52 102.08,144.52 102.39,144.52 102.61,144.52 102.73,144.52 102.88,144.52 103.01,144.52 103.13,144.53 103.28,144.53 103.41,144.53 103.56,144.54 103.68,144.54 103.87,144.54 103.99,144.55 104.17,144.55 104.36,144.56 104.48,144.56 104.67,144.57 104.79,144.57 104.94,144.57 105.19,144.57 105.31,144.57 105.44,144.57 105.56,144.57 105.71,144.56 105.87,144.56 105.99,144.55 106.11,144.54 106.30,144.52 106.42,144.50 106.61,144.48 106.73,144.46 106.85,144.43 107.01,144.40 107.13,144.37 107.25,144.34 107.41,144.30 107.53,144.26 107.74,144.19 107.90,144.14 108.02,144.10 108.17,144.05 108.30,144.01 108.48,143.95 108.67,143.90 108.82,143.86 108.94,143.84 109.16,143.82 109.31,143.83 109.47,143.85 109.62,143.89 109.74,143.95 109.90,144.03 110.11,144.20 110.30,144.40 110.48,144.65 110.67,144.96 110.85,145.33 111.04,145.77 111.19,146.20 111.31,146.57 111.44,146.97 111.59,147.53 111.71,148.01 111.90,148.79 112.02,149.36 112.17,150.13 112.33,150.95 112.45,151.66 112.60,152.59 112.73,153.38 112.88,154.41 113.07,155.74 113.25,157.16 113.37,158.16 113.56,159.71 113.77,161.61 113.99,163.64 114.11,164.83 114.30,166.69 114.57,169.61 114.76,171.64 114.97,174.10 115.31,178.19 115.62,182.14 115.90,185.88 116.23,190.69 116.60,196.21 116.88,200.55 117.19,205.52 117.50,210.63 117.80,215.82 118.05,219.98 118.30,224.11 118.51,227.67 118.79,232.08 119.06,236.22 119.40,241.02 119.65,244.23 119.83,246.44 120.08,249.13 120.36,251.80 120.60,253.87 120.85,255.67 121.10,257.21 121.31,258.38 121.56,259.53 121.80,260.49 122.14,261.58 122.39,262.23 122.63,262.77 122.85,263.17 123.06,263.52 123.28,263.82 123.59,264.17 123.77,264.35 124.02,264.56 124.20,264.69 124.54,264.90 125.03,265.14 126.48,265.65 127.43,265.92 129.37,266.30 130.02,266.39 130.45,266.44 131.00,266.50 131.49,266.55 131.83,266.58 132.29,266.61 132.69,266.63 133.06,266.65 133.43,266.67 133.71,266.68 134.17,266.70 134.72,266.72 135.22,266.73 135.62,266.75 136.11,266.76 136.51,266.77 136.78,266.77 137.22,266.78 137.65,266.78 137.95,266.79 138.20,266.79 138.75,266.80 139.06,266.80 139.37,266.81 139.74,266.81 140.14,266.81 140.69,266.82 141.12,266.82 141.68,266.83 141.92,266.83 142.51,266.83 142.97,266.84 143.43,266.84 143.80,266.84 144.20,266.84 144.75,266.85 145.09,266.85 145.65,266.85 146.17,266.85 146.54,266.85 146.97,266.85 147.52,266.86 148.08,266.86 148.63,266.86 149.15,266.86 150.01,266.86 151.03,266.87 151.49,266.87 152.26,266.87 153.43,266.87 153.89,266.87 154.87,266.87 156.32,266.88 157.27,266.88 158.72,266.88 160.17,266.88 161.61,266.88 164.01,266.88 165.95,266.89 167.86,266.89 169.80,266.89 171.70,266.89 173.64,266.89 176.04,266.89 177.98,266.90 179.89,266.90 181.82,266.90 183.73,266.90 186.16,266.90 188.07,266.90 190.01,266.90 191.91,266.90 193.85,266.90 195.76,266.90 198.19,266.90 200.10,266.90 202.04,266.90 203.94,266.90 205.88,266.90 207.79,266.91 210.22,266.91 212.13,266.91 214.06,266.91 215.97,266.91 217.91,266.91 220.31,266.91 222.25,266.91 224.16,266.91 226.09,266.91 228.00,266.91 229.94,266.91 232.34,266.91 234.28,266.91 235.20,266.91"/>
<line x1="88" y1="72" x2="110" y2="72" stroke="#1f77b4" stroke-width="2.4"/>
<text x="116" y="76" font-family="Arial, sans-serif" font-size="12">rising #1</text>
<line x1="88" y1="90" x2="110" y2="90" stroke="#d62728" stroke-width="2.4"/>
<text x="116" y="94" font-family="Arial, sans-serif" font-size="12">falling #2</text>
<line x1="88" y1="108" x2="110" y2="108" stroke="#2ca02c" stroke-width="2.4"/>
<text x="116" y="112" font-family="Arial, sans-serif" font-size="12">rising #3</text>
<line x1="88" y1="126" x2="110" y2="126" stroke="#9467bd" stroke-width="2.4"/>
<text x="116" y="130" font-family="Arial, sans-serif" font-size="12">falling #4</text>
<rect x="78" y="342" width="694" height="44" fill="#fffdf7" stroke="#d8c6a1" rx="4"/>
<text x="88" y="359" font-family="Arial, sans-serif" font-size="11" font-weight="700" fill="#4b3b21">Findings needing attention</text>
<rect x="88" y="366" width="7" height="7" fill="#b54708"/>
<text x="102" y="373" font-family="Arial, sans-serif" font-size="11" fill="#333">WARN 5.5.4: Ramp dt versus V-T 20-80% evidence needs review | avg Ramp dt=2.473e-10s, avg V-T 20-80% span=1.955e-...</text>
<text x="425.00" y="322.00" text-anchor="middle" font-family="Arial, sans-serif" font-size="12">Time (s)</text>
<text x="420" y="42" font-family="Arial, sans-serif" font-size="11" fill="#555">solid=V-T voltage, faint horizontal=V_fixture</text>
</svg>