<svg xmlns="http://www.w3.org/2000/svg" width="800" height="450" viewBox="0 0 800 450">
<rect width="100%" height="100%" fill="#ffffff"/>
<text x="78" y="25" font-family="Arial, sans-serif" font-size="16" font-weight="700">E34_GPIO_I2CSCLIN_1V1_10 V-T Waveforms</text>
<rect x="78" y="54" width="694" height="230" fill="#fbfbfb" stroke="#c8c8c8"/>
<text transform="translate(18 169.00) rotate(-90)" text-anchor="middle" font-family="Arial, sans-serif" font-size="12">Voltage (V)</text>
<line x1="78.00" y1="54" x2="78.00" y2="284" stroke="#ececec"/>
<text x="78.00" y="302" text-anchor="middle" font-family="Arial, sans-serif" font-size="10">-343p</text>
<line x1="216.80" y1="54" x2="216.80" y2="284" stroke="#ececec"/>
<text x="216.80" y="302" text-anchor="middle" font-family="Arial, sans-serif" font-size="10">3.22n</text>
<line x1="355.60" y1="54" x2="355.60" y2="284" stroke="#ececec"/>
<text x="355.60" y="302" text-anchor="middle" font-family="Arial, sans-serif" font-size="10">6.79n</text>
<line x1="494.40" y1="54" x2="494.40" y2="284" stroke="#ececec"/>
<text x="494.40" y="302" text-anchor="middle" font-family="Arial, sans-serif" font-size="10">10.4n</text>
<line x1="633.20" y1="54" x2="633.20" y2="284" stroke="#ececec"/>
<text x="633.20" y="302" text-anchor="middle" font-family="Arial, sans-serif" font-size="10">13.9n</text>
<line x1="772.00" y1="54" x2="772.00" y2="284" stroke="#ececec"/>
<text x="772.00" y="302" text-anchor="middle" font-family="Arial, sans-serif" font-size="10">17.5n</text>
<line x1="78" y1="284.00" x2="772" y2="284.00" stroke="#ececec"/>
<text x="70" y="288.00" text-anchor="end" font-family="Arial, sans-serif" font-size="10">-0.0942</text>
<line x1="78" y1="226.50" x2="772" y2="226.50" stroke="#ececec"/>
<text x="70" y="230.50" text-anchor="end" font-family="Arial, sans-serif" font-size="10">0.227</text>
<line x1="78" y1="169.00" x2="772" y2="169.00" stroke="#ececec"/>
<text x="70" y="173.00" text-anchor="end" font-family="Arial, sans-serif" font-size="10">0.549</text>
<line x1="78" y1="111.50" x2="772" y2="111.50" stroke="#ececec"/>
<text x="70" y="115.50" text-anchor="end" font-family="Arial, sans-serif" font-size="10">0.871</text>
<line x1="78" y1="54.00" x2="772" y2="54.00" stroke="#ececec"/>
<text x="70" y="58.00" text-anchor="end" font-family="Arial, sans-serif" font-size="10">1.2</text>
<line x1="78" y1="70.52" x2="772" y2="70.52" stroke="#1f77b4" opacity="0.18" stroke-dasharray="3 4"/>
<polyline fill="none" stroke="#1f77b4" stroke-width="2.0" points="91.35,116.78 96.44,116.79 101.58,116.78 107.97,116.79 113.06,116.79 118.20,116.78 123.30,116.77 128.44,116.78 132.25,116.78 134.82,116.78 135.37,116.78 135.68,116.78 136.03,116.78 136.42,116.78 136.96,116.78 137.43,116.78 137.74,116.78 138.17,116.78 138.60,116.78 138.95,116.78 139.38,116.78 139.80,116.78 140.08,116.78 140.46,116.79 140.85,116.79 141.28,116.79 142.14,116.79 142.53,116.79 142.96,116.79 143.38,116.79 143.70,116.79 144.20,116.79 144.63,116.79 145.06,116.79 145.41,116.79 145.76,116.79 146.38,116.79 147.04,116.79 147.43,116.79 147.90,116.79 148.40,116.79 148.87,116.79 149.30,116.79 149.88,116.78 150.23,116.78 150.86,116.78 151.75,116.78 152.53,116.77 153.50,116.77 154.55,116.76 154.87,116.75 156.54,116.73 158.80,116.67 160.59,116.61 162.96,116.68 163.70,116.80 163.93,116.86 164.44,117.00 165.18,117.26 166.15,117.69 166.93,118.04 167.75,118.35 168.22,118.45 168.57,118.47 169.15,118.33 169.50,118.13 170.12,117.49 170.63,116.74 171.06,115.92 171.52,114.85 172.03,113.51 172.30,112.72 172.81,111.17 173.04,110.40 173.31,109.48 173.70,108.12 173.98,107.13 174.44,105.39 174.68,104.51 175.14,102.72 175.49,101.37 175.92,99.72 176.43,97.79 176.86,96.19 177.13,95.19 177.60,93.54 177.99,92.22 178.80,89.64 179.39,87.97 179.81,86.81 180.36,85.41 180.94,84.01 181.96,81.82 182.58,80.61 183.01,79.84 183.40,79.19 184.06,78.20 184.52,77.56 185.19,76.76 185.96,75.95 186.35,75.60 187.01,75.07 187.48,74.72 188.92,73.89 189.78,73.49 190.63,73.17 191.18,72.99 191.72,72.82 192.07,72.73 192.39,72.65 193.09,72.48 193.67,72.37 194.95,72.15 195.89,72.02 196.40,71.96 197.48,71.83 198.46,71.74 198.85,71.70 199.35,71.66 199.98,71.61 201.30,71.52 202.43,71.45 203.67,71.38 205.15,71.31 205.54,71.30 207.02,71.25 208.31,71.23 209.24,71.22 210.25,71.21 211.81,71.20 212.70,71.20 214.80,71.19 216.63,71.20 217.92,71.20 219.83,71.21 223.25,71.21 224.89,71.20 226.95,71.18 228.15,71.16 229.09,71.14 229.56,71.14 230.45,71.12 231.31,71.10 231.62,71.10 232.24,71.08 233.25,71.06 233.76,71.05 234.07,71.05 234.93,71.03 235.63,71.01 236.13,71.00 236.83,70.99 237.30,70.98 237.96,70.96 238.59,70.95 239.09,70.94 239.52,70.93 239.79,70.93 240.34,70.92 241.00,70.90 241.31,70.90 241.86,70.89 242.21,70.88 242.71,70.88 243.49,70.86 244.03,70.86 244.58,70.85 245.12,70.84 245.55,70.83 246.06,70.83 246.84,70.82 247.34,70.81 248.00,70.80 248.63,70.80 249.44,70.78 250.11,70.78 251.16,70.76 251.82,70.76 252.60,70.75 253.18,70.75 253.80,70.74 254.82,70.73 255.75,70.72 256.76,70.71 257.54,70.71 258.63,70.70 258.94,70.70 260.34,70.68 261.00,70.68 261.67,70.67 262.41,70.67 263.92,70.66 264.78,70.65 265.32,70.65 267.78,70.64 270.35,70.63 271.63,70.62 274.43,70.61 278.01,70.60 281.87,70.59 285.68,70.58 288.25,70.57 291.75,70.57 295.92,70.56 300.78,70.56 303.58,70.55 307.44,70.55 309.97,70.55 314.95,70.54 318.92,70.54 324.06,70.54 329.16,70.54 334.25,70.54 339.39,70.54 345.78,70.54 350.87,70.54 356.01,70.53 358.97,70.53 363.68,70.53 368.78,70.53 375.20,70.53 380.30,70.53 385.40,70.53 390.54,70.53 395.63,70.53 400.77,70.53 407.15,70.53 412.25,70.53 417.39,70.53 422.49,70.53 427.59,70.53 434.01,70.53 439.11,70.53 444.21,70.53 449.35,70.53 454.44,70.53 459.58,70.53 465.96,70.53 471.06,70.53 473.59,70.53"/>
<line x1="78" y1="70.52" x2="772" y2="70.52" stroke="#d62728" opacity="0.18" stroke-dasharray="3 4"/>
<polyline fill="none" stroke="#d62728" stroke-width="2.0" points="91.35,70.52 93.29,70.52 97.38,70.53 106.95,70.52 111.86,70.52 113.65,70.52 120.34,70.52 127.00,70.53 132.56,70.53 139.57,70.53 140.11,70.53 140.97,70.53 141.98,70.53 142.41,70.53 142.72,70.53 144.79,70.52 147.86,70.52 148.21,70.52 151.05,70.52 152.53,70.52 154.01,70.52 154.71,70.52 155.37,70.52 156.07,70.52 158.49,70.52 159.03,70.52 159.77,70.52 160.55,70.52 161.25,70.52 161.95,70.52 162.88,70.52 163.86,70.52 164.67,70.52 165.41,70.52 166.15,70.52 166.62,70.52 166.81,70.52 168.49,70.52 168.72,70.52 169.77,70.52 170.12,70.52 170.63,70.52 171.52,70.52 172.38,70.52 172.93,70.52 173.47,70.52 174.05,70.52 174.72,70.52 175.18,70.52 175.61,70.52 176.16,70.53 176.93,70.53 177.60,70.54 178.37,70.55 179.19,70.56 179.85,70.56 180.28,70.57 180.67,70.58 180.94,70.58 181.33,70.59 181.88,70.59 182.85,70.60 183.71,70.57 184.72,70.51 185.38,70.44 186.08,70.37 186.43,70.33 187.33,70.24 188.18,70.15 188.92,70.08 189.27,70.05 189.70,70.02 190.25,69.99 191.80,69.92 192.54,69.90 194.37,69.87 195.31,69.86 196.40,69.86 197.84,69.87 199.04,69.88 199.59,69.89 200.52,69.91 201.10,69.92 201.26,69.92 201.73,69.93 202.35,69.94 202.86,69.95 203.36,69.96 203.79,69.97 204.34,69.97 205.15,69.98 206.55,69.99 207.84,69.99 209.63,70.01 210.76,70.01 211.50,70.02 212.24,70.04 212.66,70.05 213.79,70.07 215.97,70.17 216.13,70.18 216.32,70.19 217.02,70.24 218.74,70.40 220.53,70.65 221.38,70.80 221.93,70.92 222.51,71.04 223.72,71.35 224.38,71.52 225.27,71.80 225.82,71.98 226.29,72.14 226.87,72.34 227.92,72.74 229.32,73.33 230.53,73.88 231.19,74.20 231.70,74.47 231.93,74.59 232.67,74.99 233.02,75.19 233.45,75.44 234.30,75.97 235.47,76.74 236.33,77.36 236.99,77.84 237.65,78.36 237.89,78.55 238.24,78.83 238.66,79.17 238.94,79.39 239.64,79.98 240.53,80.76 241.19,81.33 242.52,82.53 243.02,82.99 243.57,83.48 245.36,85.13 246.64,86.31 247.15,86.76 247.58,87.14 247.81,87.35 248.36,87.84 248.86,88.29 249.80,89.12 251.39,90.49 253.10,91.93 255.44,93.78 257.35,95.21 259.18,96.57 261.39,98.02 263.22,99.22 265.21,100.35 267.66,101.61 269.92,102.76 272.21,103.94 274.63,104.98 276.96,105.99 280.85,107.40 283.31,108.24 286.81,109.27 290.43,110.22 296.70,111.59 302.73,112.56 307.83,113.24 312.30,113.77 319.00,114.42 323.47,114.68 327.60,114.91 332.39,115.17 336.05,115.37 339.12,115.51 343.52,115.67 346.05,115.76 348.27,115.84 352.43,115.95 354.73,116.00 357.14,116.05 359.79,116.11 362.43,116.17 365.86,116.24 368.12,116.27 370.45,116.30 372.55,116.32 375.12,116.35 377.96,116.38 381.51,116.43 383.96,116.45 387.19,116.49 390.42,116.51 393.38,116.52 397.35,116.54 401.32,116.57 404.39,116.58 408.28,116.60 412.68,116.63 416.42,116.64 421.67,116.65 428.37,116.67 432.84,116.68 437.28,116.69 443.97,116.71 450.67,116.72 457.36,116.72 462.54,116.73 468.73,116.74 477.06,116.74 484.18,116.75 493.09,116.75 499.79,116.76 508.70,116.76 515.39,116.76 524.35,116.76 535.32,116.77 542.21,116.77 551.12,116.77 560.04,116.77 568.99,116.77 575.68,116.77 586.82,116.77 595.77,116.77 604.68,116.77 613.63,116.77 622.55,116.77 631.46,116.77 642.63,116.77 651.54,116.77 660.49,116.78 669.41,116.78 678.36,116.78 689.49,116.78 698.44,116.78 707.36,116.78 716.27,116.78 725.22,116.78 734.13,116.78 745.30,116.78 754.22,116.78 758.65,116.78"/>
<line x1="78" y1="267.17" x2="772" y2="267.17" stroke="#2ca02c" opacity="0.18" stroke-dasharray="3 4"/>
<polyline fill="none" stroke="#2ca02c" stroke-width="2.0" points="91.35,267.17 100.03,267.17 108.71,267.17 119.53,267.16 128.20,267.16 131.75,267.17 133.77,267.17 134.47,267.17 134.86,267.17 135.21,267.17 135.52,267.17 135.83,267.17 136.30,267.17 136.96,267.17 137.39,267.17 137.86,267.17 138.17,267.17 138.48,267.17 138.79,267.17 139.61,267.17 141.13,267.17 141.87,267.17 142.29,267.17 142.57,267.17 143.38,267.17 144.32,267.17 145.14,267.17 145.72,267.17 146.38,267.17 147.24,267.17 148.02,267.17 148.99,267.17 150.66,267.17 152.80,267.17 154.83,267.17 155.68,267.17 156.50,267.17 157.55,267.17 158.56,267.17 159.15,267.17 160.39,267.17 161.05,267.17 162.34,267.16 163.00,267.15 163.70,267.14 164.48,267.13 165.34,267.13 165.96,267.12 166.62,267.13 167.20,267.14 167.59,267.15 168.10,267.17 168.57,267.20 169.23,267.25 170.32,267.35 170.90,267.40 171.52,267.45 171.95,267.48 172.54,267.52 173.20,267.56 173.70,267.59 174.17,267.61 175.11,267.65 175.65,267.67 176.62,267.70 177.17,267.71 177.71,267.72 178.76,267.73 179.93,267.74 180.67,267.75 181.37,267.77 181.92,267.80 182.46,267.83 182.77,267.86 183.75,267.95 184.68,268.03 185.50,268.08 186.24,268.12 186.82,268.13 187.99,268.14 188.73,268.13 189.39,268.11 190.60,268.08 191.41,268.05 193.48,267.96 194.80,267.91 196.04,267.86 197.45,267.81 198.57,267.77 199.82,267.72 201.22,267.67 201.96,267.65 204.26,267.59 205.54,267.57 206.86,267.55 208.31,267.51 209.04,267.49 209.98,267.44 211.73,267.30 212.70,267.18 213.72,267.03 214.96,266.77 216.36,266.39 218.19,265.75 219.09,265.38 219.67,265.13 221.30,264.32 222.71,263.56 223.60,263.05 225.00,262.18 226.60,261.10 227.42,260.49 228.86,259.39 230.14,258.32 231.15,257.47 232.59,256.17 233.60,255.23 234.50,254.38 235.04,253.87 235.63,253.30 237.11,251.88 238.12,250.90 239.40,249.68 240.34,248.78 241.15,248.04 242.17,247.13 243.33,246.07 244.93,244.67 246.60,243.26 248.04,242.06 249.02,241.34 251.86,239.27 253.34,238.19 255.13,237.05 256.61,236.11 257.97,235.25 258.67,234.90 260.54,233.96 262.99,232.73 264.86,231.80 265.64,231.45 267.04,230.87 269.22,229.96 270.62,229.41 273.54,228.46 276.53,227.48 278.48,227.00 282.53,226.04 286.54,225.18 290.90,224.45 294.44,223.87 299.58,223.34 306.04,222.69 308.26,222.47 311.10,222.28 313.24,222.13 316.43,221.92 319.08,221.75 320.87,221.68 323.47,221.58 327.64,221.44 329.39,221.37 331.02,221.32 333.20,221.24 335.89,221.14 337.56,221.08 338.73,221.06 341.61,221.00 342.93,220.97 345.97,220.90 347.96,220.86 350.87,220.80 351.85,220.78 354.61,220.75 355.97,220.74 358.19,220.71 361.77,220.68 364.46,220.65 365.35,220.64 368.16,220.61 370.72,220.59 372.94,220.56 375.39,220.54 377.65,220.53 379.01,220.52 381.97,220.51 384.58,220.49 387.07,220.48 390.65,220.46 393.77,220.45 396.53,220.43 399.33,220.42 403.69,220.41 405.83,220.41 410.07,220.40 414.08,220.39 416.77,220.39 421.01,220.38 426.65,220.37 431.01,220.36 434.05,220.36 440.55,220.35 444.87,220.35 451.37,220.34 457.91,220.34 464.41,220.33 470.91,220.33 475.23,220.33 481.77,220.32 490.45,220.32 499.09,220.32 501.27,220.32 509.95,220.32 518.63,220.31 527.30,220.31 533.34,220.31 540.30,220.31 548.98,220.31 557.66,220.31 564.16,220.31 575.02,220.31 582.85,220.31 590.20,220.31 598.88,220.31 607.56,220.31 616.24,220.31 627.06,220.31 635.74,220.31 644.42,220.31 653.10,220.31 661.78,220.31 672.64,220.31 681.28,220.31 689.96,220.31 698.64,220.31 707.32,220.31 716.00,220.31 726.86,220.31 735.53,220.31 739.82,220.30"/>
<line x1="78" y1="267.17" x2="772" y2="267.17" stroke="#9467bd" opacity="0.18" stroke-dasharray="3 4"/>
<polyline fill="none" stroke="#9467bd" stroke-width="2.0" points="91.35,220.30 96.13,220.30 100.92,220.30 106.88,220.30 111.66,220.30 116.45,220.30 121.24,220.30 126.03,220.30 130.81,220.29 136.81,220.27 139.38,220.27 139.80,220.28 140.19,220.28 140.50,220.28 140.97,220.28 141.32,220.28 141.59,220.28 141.87,220.28 142.22,220.28 142.49,220.28 142.80,220.29 143.23,220.29 143.73,220.29 144.05,220.29 144.40,220.29 144.79,220.29 145.10,220.29 145.37,220.29 145.68,220.29 145.91,220.29 146.38,220.29 147.04,220.30 147.47,220.30 147.94,220.30 148.48,220.30 149.07,220.30 149.61,220.30 150.31,220.30 150.82,220.30 151.32,220.30 151.99,220.30 152.37,220.30 153.04,220.30 153.54,220.30 154.09,220.30 154.55,220.30 154.94,220.30 155.33,220.30 156.11,220.30 156.50,220.30 156.93,220.30 157.47,220.30 158.25,220.30 158.72,220.30 159.23,220.30 159.73,220.30 160.55,220.30 161.13,220.30 161.75,220.30 162.53,220.30 163.23,220.31 163.90,220.31 164.60,220.31 165.37,220.32 166.50,220.32 167.01,220.32 168.10,220.33 169.11,220.33 169.97,220.34 170.71,220.34 171.99,220.35 172.73,220.35 174.21,220.37 175.14,220.37 176.39,220.37 177.21,220.36 177.71,220.35 178.45,220.31 178.76,220.28 179.23,220.24 179.78,220.18 180.36,220.10 180.79,220.03 181.25,219.94 181.72,219.84 182.15,219.73 182.62,219.61 183.59,219.35 184.33,219.19 184.72,219.14 185.19,219.14 185.81,219.24 186.43,219.49 186.90,219.78 187.17,219.98 187.64,220.39 187.99,220.76 188.61,221.51 189.31,222.52 189.86,223.39 190.56,224.62 191.26,225.93 191.96,227.33 192.66,228.75 193.20,229.88 193.79,231.10 194.49,232.58 194.95,233.55 195.66,235.02 196.32,236.39 196.98,237.75 197.76,239.31 197.99,239.77 198.73,241.21 199.47,242.61 200.13,243.81 200.79,244.98 201.49,246.15 202.35,247.51 203.05,248.57 203.95,249.85 204.96,251.20 205.54,251.94 206.44,253.02 207.33,254.03 207.95,254.69 209.28,256.03 210.10,256.78 211.57,258.03 212.20,258.51 213.33,259.31 215.16,260.43 216.01,260.91 217.53,261.70 218.66,262.24 220.49,263.04 221.69,263.53 223.83,264.32 225.20,264.76 226.99,265.25 228.86,265.65 230.06,265.86 231.85,266.12 232.98,266.24 235.36,266.42 237.26,266.53 239.68,266.63 242.01,266.70 245.63,266.80 248.00,266.85 249.21,266.88 250.42,266.89 251.59,266.91 252.75,266.93 254.86,266.96 256.37,266.97 257.07,266.98 257.89,266.99 258.79,267.00 259.80,267.01 260.73,267.02 261.28,267.02 262.06,267.02 262.95,267.03 264.47,267.04 265.01,267.04 265.95,267.05 266.41,267.05 267.15,267.06 267.62,267.06 268.44,267.06 269.41,267.07 270.07,267.07 270.93,267.07 271.94,267.08 272.99,267.08 274.04,267.09 274.78,267.09 275.87,267.09 276.77,267.10 277.90,267.10 278.87,267.10 280.08,267.10 280.89,267.11 281.83,267.11 282.68,267.11 283.54,267.11 285.10,267.12 285.99,267.12 287.43,267.12 288.68,267.12 290.08,267.12 291.52,267.13 292.80,267.13 294.28,267.13 295.06,267.13 296.73,267.13 298.25,267.14 299.85,267.14 301.83,267.14 303.74,267.14 304.95,267.14 306.62,267.14 309.23,267.14 311.41,267.14 313.78,267.15 316.16,267.15 318.45,267.15 319.78,267.15 323.01,267.15 324.56,267.15 326.63,267.15 329.23,267.15 332.11,267.15 335.23,267.15 338.50,267.15 340.09,267.15 343.67,267.16 347.25,267.16 352.04,267.16 356.83,267.16 361.62,267.16 366.40,267.16 371.19,267.16 375.98,267.16 380.77,267.16 386.72,267.16 391.51,267.16 396.30,267.16 401.08,267.16 405.87,267.16 411.86,267.16 416.61,267.16 421.40,267.16 426.19,267.16 430.97,267.16 435.76,267.16 441.76,267.16 446.54,267.16 448.88,267.17"/>
<line x1="88" y1="72" x2="110" y2="72" stroke="#1f77b4" stroke-width="2.4"/>
<text x="116" y="76" font-family="Arial, sans-serif" font-size="12">rising #1</text>
<line x1="88" y1="90" x2="110" y2="90" stroke="#d62728" stroke-width="2.4"/>
<text x="116" y="94" font-family="Arial, sans-serif" font-size="12">falling #2</text>
<line x1="88" y1="108" x2="110" y2="108" stroke="#2ca02c" stroke-width="2.4"/>
<text x="116" y="112" font-family="Arial, sans-serif" font-size="12">rising #3</text>
<line x1="88" y1="126" x2="110" y2="126" stroke="#9467bd" stroke-width="2.4"/>
<text x="116" y="130" font-family="Arial, sans-serif" font-size="12">falling #4</text>
<rect x="78" y="342" width="694" height="44" fill="#fffdf7" stroke="#d8c6a1" rx="4"/>
<text x="88" y="359" font-family="Arial, sans-serif" font-size="11" font-weight="700" fill="#4b3b21">Findings needing attention</text>
<rect x="88" y="366" width="7" height="7" fill="#b54708"/>
<text x="102" y="373" font-family="Arial, sans-serif" font-size="11" fill="#333">WARN 5.5.4: Ramp dt versus V-T 20-80% evidence needs review | avg Ramp dt=1.040e-09s, avg V-T 20-80% span=6.958e-...</text>
<text x="425.00" y="322.00" text-anchor="middle" font-family="Arial, sans-serif" font-size="12">Time (s)</text>
<text x="420" y="42" font-family="Arial, sans-serif" font-size="11" fill="#555">solid=V-T voltage, faint horizontal=V_fixture</text>
</svg>