<svg xmlns="http://www.w3.org/2000/svg" width="800" height="450" viewBox="0 0 800 450">
<rect width="100%" height="100%" fill="#ffffff"/>
<text x="78" y="25" font-family="Arial, sans-serif" font-size="16" font-weight="700">E34_GPIO_SPI_I3C_MST_1V1_10 V-T Waveforms</text>
<rect x="78" y="54" width="694" height="230" fill="#fbfbfb" stroke="#c8c8c8"/>
<text transform="translate(18 169.00) rotate(-90)" text-anchor="middle" font-family="Arial, sans-serif" font-size="12">Voltage (V)</text>
<line x1="78.00" y1="54" x2="78.00" y2="284" stroke="#ececec"/>
<text x="78.00" y="302" text-anchor="middle" font-family="Arial, sans-serif" font-size="10">-784p</text>
<line x1="216.80" y1="54" x2="216.80" y2="284" stroke="#ececec"/>
<text x="216.80" y="302" text-anchor="middle" font-family="Arial, sans-serif" font-size="10">7.37n</text>
<line x1="355.60" y1="54" x2="355.60" y2="284" stroke="#ececec"/>
<text x="355.60" y="302" text-anchor="middle" font-family="Arial, sans-serif" font-size="10">15.5n</text>
<line x1="494.40" y1="54" x2="494.40" y2="284" stroke="#ececec"/>
<text x="494.40" y="302" text-anchor="middle" font-family="Arial, sans-serif" font-size="10">23.7n</text>
<line x1="633.20" y1="54" x2="633.20" y2="284" stroke="#ececec"/>
<text x="633.20" y="302" text-anchor="middle" font-family="Arial, sans-serif" font-size="10">31.8n</text>
<line x1="772.00" y1="54" x2="772.00" y2="284" stroke="#ececec"/>
<text x="772.00" y="302" text-anchor="middle" font-family="Arial, sans-serif" font-size="10">40n</text>
<line x1="78" y1="284.00" x2="772" y2="284.00" stroke="#ececec"/>
<text x="70" y="288.00" text-anchor="end" font-family="Arial, sans-serif" font-size="10">-0.0963</text>
<line x1="78" y1="226.50" x2="772" y2="226.50" stroke="#ececec"/>
<text x="70" y="230.50" text-anchor="end" font-family="Arial, sans-serif" font-size="10">0.228</text>
<line x1="78" y1="169.00" x2="772" y2="169.00" stroke="#ececec"/>
<text x="70" y="173.00" text-anchor="end" font-family="Arial, sans-serif" font-size="10">0.552</text>
<line x1="78" y1="111.50" x2="772" y2="111.50" stroke="#ececec"/>
<text x="70" y="115.50" text-anchor="end" font-family="Arial, sans-serif" font-size="10">0.876</text>
<line x1="78" y1="54.00" x2="772" y2="54.00" stroke="#ececec"/>
<text x="70" y="58.00" text-anchor="end" font-family="Arial, sans-serif" font-size="10">1.2</text>
<line x1="78" y1="71.68" x2="772" y2="71.68" stroke="#1f77b4" opacity="0.18" stroke-dasharray="3 4"/>
<polyline fill="none" stroke="#1f77b4" stroke-width="2.0" points="91.35,195.55 92.79,195.55 94.22,195.55 96.03,195.55 97.48,195.57 98.92,195.58 100.00,195.53 100.95,195.45 101.12,195.43 101.58,195.40 101.80,195.38 102.04,195.36 102.38,195.33 102.76,195.32 103.08,195.34 103.30,195.37 103.51,195.43 103.62,195.47 103.79,195.55 103.97,195.66 104.15,195.80 104.31,195.93 104.42,196.04 104.60,196.22 104.77,196.42 104.90,196.59 105.12,196.88 105.29,197.13 105.45,197.35 105.65,197.66 105.82,197.92 106.01,198.20 106.13,198.38 106.26,198.58 106.38,198.76 106.54,198.98 106.69,199.20 106.84,199.42 106.98,199.60 107.13,199.79 107.29,199.98 107.42,200.13 107.64,200.34 107.73,200.41 107.85,200.49 107.97,200.55 108.09,200.60 108.26,200.61 108.41,200.57 108.50,200.53 108.63,200.44 108.82,200.22 109.02,199.88 109.13,199.63 109.24,199.35 109.47,198.65 109.53,198.38 109.72,197.62 109.99,196.22 110.25,194.63 110.45,193.13 110.61,191.90 110.81,190.11 111.03,187.96 111.22,185.93 111.36,184.38 111.54,182.15 111.71,179.95 111.92,177.21 112.11,174.60 112.39,170.33 112.60,167.17 112.77,164.48 112.99,160.91 113.25,156.70 113.40,154.13 113.67,149.52 113.77,147.78 114.08,142.52 114.30,138.72 114.46,136.08 114.80,130.28 115.02,126.54 115.22,123.15 115.46,119.25 115.68,115.69 115.85,113.01 116.21,107.55 116.31,106.05 116.50,103.35 116.67,100.99 116.77,99.61 116.98,96.97 117.11,95.29 117.28,93.29 117.40,91.97 117.61,89.84 117.74,88.52 117.91,87.00 118.10,85.46 118.32,83.83 118.39,83.38 118.54,82.40 118.75,81.23 118.85,80.71 119.00,79.97 119.14,79.38 119.26,78.91 119.38,78.48 119.53,77.96 119.67,77.55 119.79,77.23 120.01,76.69 120.21,76.26 120.50,75.75 120.89,75.19 121.18,74.86 121.64,74.45 121.86,74.29 122.02,74.19 122.32,74.00 122.54,73.89 122.73,73.79 122.99,73.66 123.09,73.61 123.21,73.56 123.38,73.48 123.62,73.37 123.92,73.24 124.25,73.11 124.54,73.00 125.25,72.76 125.44,72.70 126.00,72.55 126.10,72.53 126.72,72.40 127.04,72.34 127.40,72.28 127.48,72.27 127.77,72.23 128.15,72.18 128.50,72.14 129.20,72.07 129.39,72.06 129.58,72.04 129.83,72.02 130.19,72.00 130.43,71.98 130.82,71.96 131.08,71.95 131.23,71.94 131.47,71.93 131.64,71.93 131.91,71.91 132.08,71.91 132.42,71.89 132.71,71.89 132.83,71.88 133.17,71.87 133.41,71.86 133.72,71.85 134.11,71.84 134.28,71.84 134.47,71.84 134.96,71.83 135.23,71.82 135.42,71.82 135.71,71.81 135.84,71.81 136.10,71.81 136.51,71.80 136.90,71.79 137.28,71.79 137.65,71.79 138.01,71.78 138.26,71.78 138.64,71.78 139.00,71.77 139.37,71.77 139.69,71.76 140.05,71.76 140.41,71.76 140.80,71.76 141.19,71.75 141.57,71.75 141.91,71.75 142.35,71.75 142.83,71.74 143.15,71.74 143.64,71.74 144.02,71.74 144.26,71.74 144.73,71.73 145.09,71.73 145.38,71.73 145.93,71.73 146.33,71.73 146.69,71.73 147.27,71.72 147.83,71.72 148.31,71.72 149.06,71.72 149.43,71.72 150.51,71.71 151.02,71.71 151.95,71.71 153.03,71.71 154.48,71.71 155.57,71.71 157.00,71.70 157.73,71.70 159.18,71.70 160.61,71.70 162.05,71.70 163.86,71.70 164.57,71.70 166.02,71.70 167.47,71.69 168.88,71.69 169.99,71.69 171.79,71.69 173.24,71.69 174.67,71.69 176.12,71.69 177.57,71.69 178.66,71.69 180.45,71.69 181.89,71.69 183.34,71.69 184.79,71.69 186.22,71.69 188.02,71.69 189.47,71.69 190.92,71.69 192.37,71.69 193.80,71.68 195.24,71.68 197.05,71.68 198.50,71.68 199.20,71.68"/>
<line x1="78" y1="71.68" x2="772" y2="71.68" stroke="#d62728" opacity="0.18" stroke-dasharray="3 4"/>
<polyline fill="none" stroke="#d62728" stroke-width="2.0" points="91.35,71.68 94.36,71.68 96.61,71.68 98.12,71.68 99.55,71.68 100.05,71.68 100.39,71.68 101.17,71.68 101.85,71.68 102.07,71.68 102.30,71.67 102.69,71.67 103.18,71.67 103.62,71.67 104.15,71.67 104.48,71.67 104.70,71.67 105.31,71.67 105.62,71.67 105.79,71.67 106.30,71.67 106.57,71.67 106.84,71.67 107.01,71.67 107.46,71.68 107.64,71.68 107.81,71.69 107.98,71.70 108.07,71.70 108.15,71.70 108.29,71.71 108.38,71.71 108.44,71.71 108.56,71.72 108.70,71.73 108.85,71.74 108.97,71.74 109.11,71.75 109.21,71.76 109.35,71.76 109.41,71.76 109.53,71.77 109.62,71.78 109.74,71.78 109.91,71.79 109.98,71.79 110.10,71.79 110.20,71.80 110.35,71.80 110.42,71.80 110.49,71.80 110.57,71.81 110.78,71.81 110.98,71.81 111.05,71.82 111.20,71.82 111.42,71.82 111.66,71.82 111.90,71.82 112.07,71.81 112.21,71.81 112.33,71.80 112.50,71.78 112.65,71.76 112.79,71.74 112.97,71.71 113.16,71.67 113.45,71.59 113.62,71.54 113.79,71.48 113.93,71.43 114.01,71.40 114.11,71.37 114.18,71.34 114.35,71.28 114.47,71.23 114.63,71.18 114.74,71.13 114.83,71.10 114.90,71.08 115.03,71.03 115.19,70.97 115.31,70.93 115.44,70.89 115.66,70.81 115.90,70.74 116.12,70.67 116.26,70.63 116.45,70.58 116.58,70.55 116.79,70.49 116.92,70.46 117.15,70.41 117.35,70.36 117.57,70.31 117.83,70.26 117.98,70.23 118.18,70.19 118.41,70.15 118.64,70.10 118.80,70.08 118.93,70.05 119.05,70.03 119.31,69.98 119.50,69.95 119.67,69.92 119.79,69.90 120.08,69.87 120.26,69.86 120.50,69.87 120.62,69.87 120.89,69.93 121.06,69.98 121.40,70.16 121.61,70.32 121.74,70.46 122.07,70.91 122.20,71.14 122.29,71.30 123.14,73.64 123.65,75.62 123.89,76.71 124.23,78.41 124.49,79.79 124.86,81.98 124.96,82.64 125.24,84.38 125.78,88.11 126.04,89.98 126.53,93.68 126.87,96.30 127.50,101.27 128.13,106.30 128.45,108.88 129.00,113.19 129.58,117.68 129.99,120.82 130.58,125.20 130.92,127.67 131.47,131.43 132.01,135.09 132.63,139.00 133.03,141.52 133.68,145.32 134.35,149.04 135.01,152.56 135.78,156.38 136.42,159.40 137.05,162.15 137.53,164.10 138.19,166.66 139.27,170.39 140.09,172.93 141.48,176.71 142.57,179.22 143.85,181.72 144.80,183.33 146.32,185.50 148.51,188.02 150.08,189.43 151.58,190.53 153.10,191.43 153.85,191.81 154.87,192.25 155.94,192.66 156.79,192.94 157.61,193.15 158.55,193.40 159.45,193.60 160.30,193.76 161.37,193.97 162.16,194.08 162.94,194.18 163.72,194.28 164.39,194.36 165.14,194.45 166.09,194.54 167.20,194.63 168.05,194.70 168.90,194.77 169.65,194.82 170.81,194.87 171.83,194.92 172.54,194.96 173.41,195.00 174.18,195.03 175.46,195.08 176.87,195.12 177.94,195.15 179.00,195.18 180.31,195.22 181.71,195.24 183.20,195.26 184.72,195.29 186.41,195.31 188.40,195.33 189.98,195.35 192.11,195.37 194.49,195.38 196.76,195.40 199.02,195.41 201.27,195.42 203.54,195.42 206.60,195.43 209.57,195.43 212.32,195.44 214.83,195.44 217.84,195.43 220.86,195.43 223.87,195.42 226.89,195.40 229.88,195.39 232.90,195.39 235.91,195.39 239.67,195.40 242.69,195.41 245.70,195.42 248.72,195.44 251.73,195.47 254.73,195.49 258.51,195.50 261.51,195.50 264.52,195.51 267.54,195.51 270.55,195.52 273.56,195.52 277.33,195.52 280.34,195.52 283.36,195.52 286.35,195.52 289.37,195.53 293.13,195.53 296.14,195.53 299.16,195.53 302.17,195.53 305.19,195.53 308.20,195.53 311.97,195.53 314.98,195.53 316.46,195.55"/>
<line x1="78" y1="266.91" x2="772" y2="266.91" stroke="#2ca02c" opacity="0.18" stroke-dasharray="3 4"/>
<polyline fill="none" stroke="#2ca02c" stroke-width="2.0" points="91.35,266.91 97.82,266.91 99.54,266.91 99.95,266.91 100.15,266.91 100.27,266.91 100.37,266.91 100.51,266.91 100.68,266.91 101.41,266.91 101.94,266.91 102.26,266.91 102.60,266.91 103.01,266.90 103.71,266.86 103.97,266.84 104.32,266.81 104.56,266.80 104.75,266.79 104.88,266.78 105.02,266.77 105.12,266.77 105.21,266.77 105.29,266.77 105.38,266.76 105.48,266.76 105.60,266.76 105.70,266.76 105.82,266.76 105.97,266.76 106.13,266.76 106.38,266.77 106.49,266.77 106.67,266.78 106.76,266.78 106.86,266.79 106.96,266.79 107.15,266.81 107.32,266.83 107.47,266.85 107.66,266.89 107.81,266.92 108.05,266.98 108.26,267.05 108.43,267.10 108.67,267.18 108.87,267.25 109.04,267.31 109.23,267.38 109.36,267.43 109.53,267.49 109.69,267.54 109.79,267.57 110.01,267.64 110.18,267.69 110.39,267.75 110.57,267.81 110.78,267.86 110.95,267.91 111.32,268.00 111.46,268.03 111.65,268.07 111.83,268.10 112.00,268.12 112.16,268.13 112.36,268.14 112.63,268.07 112.85,268.01 113.40,267.55 113.67,267.09 114.35,265.52 114.73,264.17 114.88,263.49 115.10,262.44 115.29,261.45 115.56,259.84 115.75,258.59 115.92,257.38 116.11,255.95 116.26,254.71 116.40,253.57 116.60,251.77 116.74,250.53 116.96,248.45 117.08,247.31 117.28,245.32 117.49,243.30 117.74,240.77 117.90,239.26 118.05,237.75 118.20,236.26 118.37,234.63 118.59,232.53 118.83,230.33 119.00,228.78 119.19,227.11 119.33,225.92 119.46,224.74 119.65,223.17 119.87,221.36 120.18,218.99 120.40,217.31 120.65,215.45 121.06,212.72 121.34,210.94 121.69,208.71 122.17,206.06 122.53,204.12 122.97,201.88 123.75,198.40 124.43,195.71 124.83,194.36 125.34,192.64 125.97,190.73 126.72,188.71 127.16,187.65 127.96,185.95 128.49,184.96 129.29,183.65 129.87,182.81 130.85,181.60 131.42,181.00 132.29,180.22 133.27,179.46 134.02,178.98 135.33,178.30 137.34,177.53 138.21,177.30 139.15,177.05 140.66,176.73 140.78,176.71 141.75,176.55 142.21,176.48 142.79,176.39 143.17,176.34 143.61,176.28 143.97,176.24 144.41,176.19 144.73,176.15 145.18,176.11 145.57,176.07 145.77,176.05 146.32,176.00 146.85,175.95 147.36,175.91 147.80,175.87 148.34,175.83 148.99,175.78 149.50,175.75 149.84,175.73 150.56,175.68 150.93,175.66 151.38,175.64 151.72,175.62 152.13,175.59 152.47,175.58 152.81,175.56 153.42,175.53 153.83,175.51 154.48,175.48 155.22,175.45 156.08,175.41 156.71,175.39 157.71,175.35 159.07,175.30 160.13,175.27 161.17,175.23 162.94,175.18 164.35,175.14 165.14,175.11 167.37,175.05 170.01,174.98 172.97,174.90 176.15,174.83 179.07,174.76 184.53,174.64 189.56,174.53 194.02,174.45 200.71,174.33 207.40,174.22 216.33,174.08 227.48,173.94 236.42,173.82 243.11,173.75 252.04,173.66 260.96,173.58 267.65,173.52 278.83,173.43 287.75,173.37 296.67,173.32 305.60,173.26 314.54,173.21 325.69,173.16 334.62,173.11 343.54,173.07 352.48,173.04 361.40,173.01 370.33,172.98 381.48,172.94 390.42,172.91 399.34,172.89 408.27,172.87 417.19,172.85 428.36,172.83 437.29,172.81 446.21,172.79 455.13,172.78 464.06,172.77 473.00,172.75 484.15,172.74 493.08,172.73 502.00,172.72 510.94,172.71 519.86,172.69 531.02,172.68 539.94,172.68 548.88,172.67 557.81,172.66 566.73,172.66 575.65,172.65 586.82,172.64 595.75,172.64 604.67,172.63 613.60,172.63 622.54,172.62 631.46,172.62 642.61,172.61 651.54,172.61 660.46,172.61 669.40,172.60 678.32,172.60 689.48,172.59 698.40,172.59 707.34,172.59 716.27,172.58 725.19,172.58 734.11,172.58 745.29,172.58 754.21,172.58 758.65,172.57"/>
<line x1="78" y1="266.91" x2="772" y2="266.91" stroke="#9467bd" opacity="0.18" stroke-dasharray="3 4"/>
<polyline fill="none" stroke="#9467bd" stroke-width="2.0" points="91.35,172.54 92.96,172.54 94.56,172.54 96.59,172.54 98.19,172.54 99.81,172.54 100.68,172.54 100.95,172.54 101.12,172.54 101.43,172.53 101.60,172.53 102.19,172.53 103.03,172.54 103.15,172.54 103.28,172.54 103.39,172.54 103.51,172.55 103.62,172.55 103.76,172.55 103.90,172.55 104.10,172.56 104.32,172.57 104.53,172.58 104.65,172.58 104.83,172.59 105.06,172.60 105.31,172.61 105.45,172.61 105.60,172.62 105.70,172.62 105.86,172.63 106.03,172.63 106.13,172.64 106.23,172.64 106.30,172.64 106.38,172.64 106.49,172.65 106.60,172.65 106.71,172.65 106.84,172.66 107.00,172.66 107.13,172.66 107.34,172.66 107.44,172.66 107.56,172.66 107.69,172.66 107.80,172.66 107.93,172.65 108.10,172.63 108.27,172.61 108.41,172.59 108.53,172.57 108.67,172.54 108.84,172.49 109.01,172.43 109.14,172.38 109.35,172.29 109.47,172.24 109.64,172.15 109.82,172.04 109.94,171.97 110.11,171.86 110.23,171.77 110.40,171.65 110.54,171.54 110.71,171.41 110.85,171.30 111.07,171.11 111.20,170.99 111.41,170.80 111.70,170.53 111.88,170.36 112.07,170.19 112.24,170.04 112.31,169.99 112.39,169.92 112.53,169.83 112.68,169.74 112.85,169.68 113.04,169.66 113.16,169.70 113.30,169.76 113.43,169.87 113.60,170.08 113.76,170.31 113.88,170.57 114.01,170.88 114.22,171.49 114.35,171.96 114.56,172.75 114.76,173.70 114.92,174.49 115.12,175.63 115.41,177.45 115.75,179.85 116.01,181.83 116.26,183.96 116.41,185.30 116.72,188.08 116.82,189.03 117.10,191.65 117.33,194.00 117.54,196.06 117.84,199.20 118.00,200.79 118.27,203.65 118.46,205.64 118.75,208.72 118.87,209.99 119.09,212.36 119.31,214.72 119.50,216.71 119.60,217.79 119.73,219.23 119.96,221.54 120.21,224.16 120.40,226.06 120.59,227.93 120.89,230.90 121.17,233.47 121.32,234.88 121.45,236.11 121.61,237.46 121.86,239.63 122.10,241.58 122.36,243.58 122.61,245.48 122.89,247.40 123.16,249.21 123.53,251.48 123.86,253.25 124.21,255.01 124.40,255.84 124.74,257.21 125.01,258.18 125.32,259.16 125.61,259.97 125.93,260.78 126.26,261.48 126.72,262.32 126.87,262.57 127.11,262.92 127.35,263.23 127.62,263.56 127.99,263.94 128.13,264.07 128.59,264.45 128.93,264.70 129.34,264.96 129.83,265.24 130.22,265.43 131.64,265.93 132.06,266.04 133.66,266.32 134.23,266.40 134.86,266.46 135.45,266.51 135.83,266.54 136.41,266.60 136.90,266.61 137.29,266.62 137.70,266.64 138.11,266.66 138.52,266.67 139.15,266.69 139.59,266.71 139.91,266.72 140.27,266.72 140.65,266.73 141.07,266.74 141.53,266.75 141.81,266.76 142.09,266.76 142.50,266.77 142.79,266.78 142.98,266.78 143.59,266.79 144.00,266.79 144.39,266.80 144.67,266.80 145.02,266.80 145.36,266.81 145.76,266.81 146.16,266.81 146.57,266.82 146.97,266.82 147.37,266.82 147.87,266.83 148.17,266.83 148.58,266.83 149.08,266.83 149.54,266.84 150.20,266.84 150.59,266.84 151.21,266.85 151.80,266.85 152.40,266.85 153.11,266.85 153.83,266.86 154.48,266.86 155.16,266.86 155.84,266.86 156.25,266.86 157.08,266.86 157.85,266.87 158.66,266.87 159.36,266.87 160.01,266.87 161.08,266.87 162.68,266.87 164.30,266.88 165.92,266.88 167.13,266.88 168.73,266.88 170.76,266.88 172.36,266.88 173.97,266.89 175.59,266.89 177.19,266.89 178.81,266.89 180.82,266.89 182.44,266.89 184.06,266.89 185.67,266.89 187.27,266.89 188.89,266.89 190.90,266.90 192.52,266.90 194.14,266.90 195.74,266.90 197.36,266.90 199.37,266.90 200.98,266.90 202.60,266.90 204.20,266.90 205.82,266.90 207.44,266.90 209.45,266.90 211.06,266.90 211.85,266.91"/>
<line x1="88" y1="72" x2="110" y2="72" stroke="#1f77b4" stroke-width="2.4"/>
<text x="116" y="76" font-family="Arial, sans-serif" font-size="12">rising #1</text>
<line x1="88" y1="90" x2="110" y2="90" stroke="#d62728" stroke-width="2.4"/>
<text x="116" y="94" font-family="Arial, sans-serif" font-size="12">falling #2</text>
<line x1="88" y1="108" x2="110" y2="108" stroke="#2ca02c" stroke-width="2.4"/>
<text x="116" y="112" font-family="Arial, sans-serif" font-size="12">rising #3</text>
<line x1="88" y1="126" x2="110" y2="126" stroke="#9467bd" stroke-width="2.4"/>
<text x="116" y="130" font-family="Arial, sans-serif" font-size="12">falling #4</text>
<rect x="78" y="342" width="694" height="44" fill="#fffdf7" stroke="#d8c6a1" rx="4"/>
<text x="88" y="359" font-family="Arial, sans-serif" font-size="11" font-weight="700" fill="#4b3b21">Findings needing attention</text>
<rect x="88" y="366" width="7" height="7" fill="#b54708"/>
<text x="102" y="373" font-family="Arial, sans-serif" font-size="11" fill="#333">WARN 5.5.4: Ramp dt versus V-T 20-80% evidence needs review | avg Ramp dt=6.230e-10s, avg V-T 20-80% span=4.666e-...</text>
<text x="425.00" y="322.00" text-anchor="middle" font-family="Arial, sans-serif" font-size="12">Time (s)</text>
<text x="420" y="42" font-family="Arial, sans-serif" font-size="11" fill="#555">solid=V-T voltage, faint horizontal=V_fixture</text>
</svg>