<svg xmlns="http://www.w3.org/2000/svg" width="800" height="450" viewBox="0 0 800 450">
<rect width="100%" height="100%" fill="#ffffff"/>
<text x="78" y="25" font-family="Arial, sans-serif" font-size="16" font-weight="700">E34_GPIO_I2CSCLIN_1V8_10_ISOSW V-T Waveforms</text>
<rect x="78" y="54" width="694" height="230" fill="#fbfbfb" stroke="#c8c8c8"/>
<text transform="translate(18 169.00) rotate(-90)" text-anchor="middle" font-family="Arial, sans-serif" font-size="12">Voltage (V)</text>
<line x1="78.00" y1="54" x2="78.00" y2="284" stroke="#ececec"/>
<text x="78.00" y="302" text-anchor="middle" font-family="Arial, sans-serif" font-size="10">-205p</text>
<line x1="216.80" y1="54" x2="216.80" y2="284" stroke="#ececec"/>
<text x="216.80" y="302" text-anchor="middle" font-family="Arial, sans-serif" font-size="10">1.93n</text>
<line x1="355.60" y1="54" x2="355.60" y2="284" stroke="#ececec"/>
<text x="355.60" y="302" text-anchor="middle" font-family="Arial, sans-serif" font-size="10">4.06n</text>
<line x1="494.40" y1="54" x2="494.40" y2="284" stroke="#ececec"/>
<text x="494.40" y="302" text-anchor="middle" font-family="Arial, sans-serif" font-size="10">6.19n</text>
<line x1="633.20" y1="54" x2="633.20" y2="284" stroke="#ececec"/>
<text x="633.20" y="302" text-anchor="middle" font-family="Arial, sans-serif" font-size="10">8.32n</text>
<line x1="772.00" y1="54" x2="772.00" y2="284" stroke="#ececec"/>
<text x="772.00" y="302" text-anchor="middle" font-family="Arial, sans-serif" font-size="10">10.5n</text>
<line x1="78" y1="284.00" x2="772" y2="284.00" stroke="#ececec"/>
<text x="70" y="288.00" text-anchor="end" font-family="Arial, sans-serif" font-size="10">-0.176</text>
<line x1="78" y1="226.50" x2="772" y2="226.50" stroke="#ececec"/>
<text x="70" y="230.50" text-anchor="end" font-family="Arial, sans-serif" font-size="10">0.358</text>
<line x1="78" y1="169.00" x2="772" y2="169.00" stroke="#ececec"/>
<text x="70" y="173.00" text-anchor="end" font-family="Arial, sans-serif" font-size="10">0.893</text>
<line x1="78" y1="111.50" x2="772" y2="111.50" stroke="#ececec"/>
<text x="70" y="115.50" text-anchor="end" font-family="Arial, sans-serif" font-size="10">1.4</text>
<line x1="78" y1="54.00" x2="772" y2="54.00" stroke="#ececec"/>
<text x="70" y="58.00" text-anchor="end" font-family="Arial, sans-serif" font-size="10">2</text>
<line x1="78" y1="71.45" x2="772" y2="71.45" stroke="#1f77b4" opacity="0.18" stroke-dasharray="3 4"/>
<polyline fill="none" stroke="#1f77b4" stroke-width="2.0" points="91.35,160.22 97.27,160.22 103.20,160.22 110.56,160.22 116.49,160.22 122.41,160.22 128.34,160.22 134.27,160.22 140.19,160.22 147.55,160.22 153.48,160.22 159.41,160.22 165.33,160.22 171.19,160.22 178.62,160.22 184.55,160.22 188.00,160.22 188.78,160.22 189.36,160.22 190.02,160.22 190.73,160.22 191.97,160.22 192.62,160.22 193.14,160.22 193.79,160.22 194.38,160.22 194.84,160.22 195.42,160.22 195.94,160.22 196.53,160.22 197.05,160.22 197.77,160.22 198.16,160.22 198.81,160.22 199.46,160.22 200.24,160.22 200.83,160.22 201.41,160.22 202.06,160.22 202.72,160.22 203.24,160.22 204.08,160.22 204.87,160.22 205.58,160.22 206.36,160.22 207.28,160.22 208.19,160.22 208.77,160.22 209.68,160.22 210.66,160.22 211.38,160.22 212.22,160.22 213.46,160.21 214.50,160.21 215.42,160.21 216.07,160.21 217.11,160.21 217.96,160.21 218.54,160.21 220.17,160.20 221.54,160.20 223.62,160.20 225.06,160.20 225.90,160.20 227.99,160.21 228.90,160.22 230.20,160.24 232.28,160.30 234.82,160.45 236.00,160.55 239.77,160.88 241.08,160.86 242.25,160.66 242.64,160.54 243.55,160.14 244.01,159.87 245.57,158.51 246.55,157.25 247.46,155.74 248.18,154.30 248.89,152.63 249.87,149.98 250.52,148.00 251.11,146.07 251.89,143.35 252.87,139.70 253.65,136.65 254.75,132.19 255.54,128.99 256.25,126.05 257.16,122.35 257.75,120.02 258.47,117.24 258.99,115.29 259.44,113.62 259.96,111.80 260.68,109.39 261.40,107.14 261.98,105.39 262.57,103.72 262.89,102.84 263.29,101.82 264.39,99.14 265.63,96.47 266.54,94.72 267.39,93.23 268.37,91.67 269.15,90.52 269.86,89.53 271.30,87.73 272.14,86.74 273.19,85.61 273.97,84.80 274.75,84.04 276.25,82.68 277.94,81.31 279.18,80.41 280.68,79.42 282.17,78.51 283.67,77.69 286.67,76.32 287.71,75.93 288.10,75.79 289.53,75.36 290.57,75.06 291.03,74.95 292.33,74.64 295.00,74.14 296.37,73.92 297.41,73.78 298.46,73.64 301.71,73.29 303.08,73.16 305.10,73.00 308.81,72.75 312.98,72.52 315.32,72.42 318.51,72.30 320.60,72.23 322.55,72.17 323.46,72.15 324.38,72.12 325.29,72.09 326.53,72.06 327.96,72.03 328.22,72.02 329.65,71.99 330.95,71.96 332.45,71.93 335.45,71.88 341.31,71.79 347.24,71.73 353.16,71.68 355.90,71.66 357.59,71.65 359.68,71.64 363.13,71.62 365.02,71.61 365.99,71.61 367.10,71.61 368.47,71.60 372.31,71.59 373.87,71.58 375.89,71.57 377.91,71.57 378.69,71.57 379.93,71.56 380.97,71.56 381.88,71.56 383.25,71.56 384.23,71.55 385.14,71.55 385.79,71.55 386.83,71.55 387.29,71.55 388.27,71.55 389.50,71.54 390.55,71.54 391.65,71.54 392.37,71.54 392.70,71.54 393.35,71.54 394.58,71.54 395.89,71.53 396.86,71.53 397.52,71.53 398.62,71.53 399.66,71.53 400.51,71.53 401.81,71.53 402.79,71.52 403.70,71.52 405.07,71.52 406.44,71.52 407.81,71.52 408.85,71.52 410.22,71.52 411.00,71.52 411.78,71.52 413.15,71.51 414.91,71.51 416.40,71.51 417.97,71.51 419.72,71.51 422.79,71.51 425.39,71.50 427.41,71.50 428.58,71.50 430.80,71.50 435.29,71.50 437.50,71.50 441.93,71.49 442.52,71.49 444.08,71.49 446.36,71.49 447.86,71.49 452.29,71.49 456.72,71.49 459.19,71.49 461.21,71.49 466.55,71.48 468.31,71.48 469.42,71.48 469.87,71.48 470.98,71.48 471.50,71.48 473.85,71.48 475.28,71.48 476.26,71.48 478.86,71.48 481.86,71.48 489.28,71.48 493.71,71.48 499.64,71.48 505.50,71.48 511.43,71.47 517.35,71.47 524.78,71.47 530.70,71.47 533.57,71.45"/>
<line x1="78" y1="71.45" x2="772" y2="71.45" stroke="#d62728" opacity="0.18" stroke-dasharray="3 4"/>
<polyline fill="none" stroke="#d62728" stroke-width="2.0" points="91.35,71.45 100.27,71.45 109.19,71.45 120.39,71.45 129.32,71.45 138.24,71.45 147.16,71.45 156.08,71.45 165.01,71.45 176.14,71.45 182.27,71.45 187.09,71.45 189.23,71.45 190.60,71.45 194.18,71.45 196.46,71.45 197.51,71.45 199.00,71.45 201.48,71.45 203.82,71.45 205.32,71.45 206.69,71.45 207.67,71.45 208.77,71.45 209.62,71.45 210.73,71.45 211.96,71.45 212.81,71.45 213.85,71.45 214.90,71.45 216.00,71.45 216.78,71.45 217.70,71.45 218.54,71.45 219.19,71.45 220.37,71.45 221.21,71.45 222.12,71.45 223.04,71.45 223.62,71.46 224.53,71.46 225.77,71.47 226.88,71.48 227.66,71.48 228.83,71.50 229.68,71.51 230.46,71.52 231.96,71.54 233.91,71.56 234.89,71.56 235.93,71.56 237.30,71.55 237.89,71.53 239.25,71.46 240.36,71.37 241.21,71.27 241.92,71.18 242.90,71.03 244.72,70.74 246.29,70.50 247.79,70.30 249.93,70.09 252.08,69.95 254.17,69.87 258.34,69.86 260.09,69.95 263.22,70.37 266.67,71.32 268.82,72.22 270.06,72.88 272.14,74.22 273.51,75.25 274.36,75.96 276.38,77.81 277.61,79.10 278.85,80.49 280.02,81.92 281.07,83.28 282.43,85.18 284.26,87.94 285.89,90.57 286.54,91.66 287.45,93.22 288.03,94.23 289.99,97.66 290.84,99.16 292.14,101.48 293.77,104.39 294.68,106.01 296.18,108.66 298.26,112.30 299.30,114.09 300.28,115.76 301.13,117.19 303.08,120.42 304.25,122.28 305.94,124.93 307.12,126.74 308.75,129.18 309.59,130.35 310.24,131.25 310.76,131.97 311.61,133.13 312.98,134.91 314.54,136.88 316.82,139.40 318.12,140.83 319.43,142.12 320.34,143.02 322.55,144.87 324.83,146.66 327.05,148.20 329.00,149.37 331.35,150.60 334.67,152.02 338.70,153.40 340.46,153.90 341.44,154.15 343.78,154.71 345.80,155.13 350.23,155.90 352.64,156.26 355.70,156.65 358.05,156.92 359.35,157.05 360.78,157.19 361.50,157.26 363.65,157.45 367.62,157.76 374.85,158.23 377.07,158.34 378.82,158.44 385.01,158.72 390.74,158.94 393.67,159.04 397.12,159.15 403.25,159.31 406.37,159.38 410.54,159.47 414.77,159.54 417.71,159.59 420.51,159.63 423.89,159.67 425.85,159.70 427.87,159.72 430.60,159.74 432.16,159.75 435.09,159.78 436.66,159.80 438.22,159.81 441.22,159.84 442.39,159.84 444.93,159.86 447.86,159.88 450.66,159.90 452.94,159.92 454.37,159.92 455.55,159.93 457.37,159.94 459.65,159.95 460.50,159.95 462.06,159.96 465.05,159.97 467.14,159.98 470.79,160.00 473.65,160.01 477.30,160.02 479.71,160.03 480.62,160.03 481.34,160.03 483.03,160.04 483.94,160.04 484.20,160.04 486.42,160.05 487.98,160.05 488.63,160.05 490.85,160.06 492.15,160.06 495.34,160.07 499.70,160.08 503.35,160.08 506.28,160.09 508.76,160.10 513.18,160.10 517.09,160.11 522.11,160.12 524.39,160.12 526.60,160.12 528.55,160.13 531.03,160.13 535.13,160.13 536.44,160.14 537.74,160.14 540.02,160.14 542.10,160.14 547.44,160.14 553.50,160.15 555.39,160.15 557.21,160.15 559.03,160.15 561.64,160.16 563.79,160.16 569.00,160.16 577.92,160.17 582.42,160.17 585.02,160.17 589.06,160.17 592.77,160.17 594.53,160.18 598.05,160.18 600.13,160.18 602.54,160.18 604.69,160.18 605.67,160.18 608.73,160.18 609.18,160.18 612.18,160.18 612.64,160.18 613.61,160.18 616.09,160.18 617.00,160.18 619.60,160.18 622.54,160.18 624.81,160.19 627.03,160.19 633.74,160.19 644.87,160.19 653.80,160.19 662.72,160.19 671.64,160.20 678.35,160.20 689.55,160.20 698.48,160.20 707.40,160.20 716.32,160.20 725.24,160.20 734.17,160.20 745.30,160.20 754.23,160.20 758.65,160.21"/>
<line x1="78" y1="265.02" x2="772" y2="265.02" stroke="#2ca02c" opacity="0.18" stroke-dasharray="3 4"/>
<polyline fill="none" stroke="#2ca02c" stroke-width="2.0" points="91.35,265.02 99.68,265.02 107.95,265.02 118.37,265.02 126.71,265.02 134.98,265.02 143.32,265.02 151.66,265.02 159.93,265.02 170.35,265.02 178.68,265.02 186.95,265.02 195.29,265.02 199.52,265.02 202.78,265.02 203.76,265.02 204.74,265.02 205.71,265.02 206.62,265.02 207.60,265.02 208.38,265.02 209.10,265.02 210.01,265.02 211.05,265.02 211.64,265.02 212.49,265.02 213.59,265.02 214.24,265.02 215.09,265.02 215.94,265.02 216.78,265.02 217.63,265.02 218.15,265.02 218.87,265.02 219.65,265.02 220.43,265.02 221.54,265.02 222.71,265.02 223.69,265.02 224.47,265.02 225.38,265.02 226.49,265.01 227.73,265.01 228.57,265.01 229.68,265.00 230.66,264.99 231.57,264.98 232.87,264.97 234.43,264.95 235.61,264.94 236.32,264.94 237.17,264.95 238.02,264.97 239.32,265.05 240.56,265.16 241.40,265.26 242.64,265.42 243.29,265.50 245.18,265.74 246.94,265.94 248.96,266.16 250.19,266.28 250.72,266.33 251.76,266.45 254.23,266.76 255.14,266.88 257.29,267.19 259.70,267.59 260.88,267.78 261.79,267.91 263.61,268.09 264.65,268.14 265.43,268.14 266.67,268.07 267.19,268.02 267.71,267.96 269.15,267.71 270.58,267.32 272.86,266.31 274.29,265.39 275.53,264.40 276.57,263.43 277.16,262.81 277.68,262.25 278.46,261.32 279.05,260.57 279.63,259.81 280.81,258.16 281.98,256.40 283.28,254.33 284.06,253.03 284.78,251.83 285.89,249.90 286.73,248.40 287.77,246.51 289.01,244.23 289.92,242.52 290.84,240.79 291.68,239.18 292.33,237.93 292.98,236.67 294.03,234.65 295.07,232.63 296.50,229.85 297.15,228.59 298.39,226.21 299.37,224.34 300.34,222.48 301.19,220.90 302.30,218.84 302.95,217.63 303.67,216.35 304.32,215.19 305.36,213.34 306.60,211.20 307.51,209.68 308.29,208.38 309.14,206.97 309.40,206.54 310.31,205.15 311.48,203.35 312.33,202.05 313.17,200.90 313.76,200.10 314.35,199.31 315.32,197.99 315.91,197.23 316.30,196.76 317.34,195.51 317.99,194.73 318.45,194.22 319.56,193.09 320.60,192.02 321.19,191.45 322.10,190.62 322.94,189.87 323.59,189.34 324.90,188.33 325.61,187.80 326.66,187.10 328.35,186.08 329.20,185.62 330.76,184.83 332.26,184.17 333.30,183.75 334.60,183.27 335.32,183.02 337.01,182.49 339.75,181.75 342.42,181.14 343.91,180.85 346.59,180.39 350.56,179.83 355.38,179.29 357.20,179.12 359.29,178.94 362.61,178.69 365.93,178.47 368.14,178.34 371.92,178.14 375.70,177.98 377.20,177.93 380.32,177.82 382.02,177.77 386.57,177.65 392.76,177.53 396.47,177.47 399.01,177.43 403.18,177.38 408.00,177.32 413.02,177.28 417.71,177.24 423.63,177.20 426.04,177.18 428.19,177.17 431.58,177.15 434.51,177.14 437.44,177.12 439.46,177.11 442.65,177.10 444.54,177.09 446.62,177.09 448.90,177.08 450.79,177.07 452.35,177.07 455.15,177.06 458.15,177.05 461.41,177.04 463.75,177.04 466.49,177.03 469.22,177.02 471.11,177.02 473.52,177.01 475.93,177.01 478.60,177.00 480.49,177.00 483.49,177.00 485.50,176.99 488.44,176.99 490.52,176.98 492.41,176.98 494.62,176.98 497.49,176.97 499.90,176.97 502.96,176.97 506.35,176.96 509.47,176.96 513.38,176.95 515.46,176.95 521.06,176.95 523.08,176.95 527.32,176.94 529.99,176.94 532.59,176.94 537.54,176.93 540.67,176.93 544.58,176.93 548.68,176.93 554.93,176.92 561.18,176.92 567.44,176.92 573.62,176.91 581.96,176.91 588.21,176.91 596.48,176.90 602.15,176.90 608.99,176.90 617.32,176.90 625.60,176.89 633.93,176.89 640.18,176.89 650.54,176.89 658.88,176.89 667.21,176.88 675.48,176.88 683.82,176.88 692.16,176.88 700.43,176.88 708.77,176.88 712.87,176.86"/>
<line x1="78" y1="265.02" x2="772" y2="265.02" stroke="#9467bd" opacity="0.18" stroke-dasharray="3 4"/>
<polyline fill="none" stroke="#9467bd" stroke-width="2.0" points="91.35,176.86 96.95,176.86 99.75,176.86 103.98,176.86 109.58,176.86 112.38,176.86 116.62,176.86 122.22,176.86 127.82,176.86 132.90,176.86 137.59,176.86 143.25,176.86 146.05,176.86 150.22,176.86 154.46,176.86 160.06,176.86 164.23,176.86 168.07,176.86 168.85,176.86 170.02,176.86 171.19,176.86 172.11,176.86 172.69,176.86 173.41,176.86 174.06,176.86 174.65,176.86 175.43,176.86 175.95,176.86 176.47,176.86 176.99,176.86 177.51,176.86 178.10,176.86 178.62,176.86 179.92,176.86 180.31,176.86 180.70,176.86 181.09,176.86 182.14,176.86 182.46,176.86 183.18,176.86 183.83,176.86 184.35,176.86 184.94,176.86 185.26,176.86 186.04,176.86 186.69,176.86 187.15,176.86 188.13,176.86 188.58,176.86 189.10,176.86 189.43,176.86 190.02,176.86 190.41,176.86 190.93,176.86 191.19,176.86 191.45,176.86 191.77,176.86 192.10,176.86 192.43,176.86 192.82,176.86 193.34,176.86 193.60,176.86 193.92,176.86 194.25,176.86 194.77,176.86 195.03,176.86 195.42,176.86 195.68,176.86 196.20,176.86 196.72,176.85 197.25,176.85 197.83,176.85 198.74,176.85 199.66,176.85 200.44,176.85 201.02,176.85 202.00,176.85 202.52,176.85 203.30,176.85 204.02,176.85 204.80,176.85 205.58,176.85 206.36,176.85 207.14,176.86 207.73,176.86 208.45,176.86 209.10,176.86 210.01,176.86 210.53,176.86 211.38,176.86 211.90,176.86 212.36,176.86 213.27,176.86 213.85,176.86 214.70,176.87 215.55,176.87 216.20,176.87 216.91,176.87 218.22,176.87 218.93,176.87 220.37,176.88 221.73,176.88 223.17,176.88 224.60,176.88 227.40,176.88 228.77,176.86 231.76,176.80 233.39,176.74 235.74,176.62 238.54,176.41 240.88,176.22 241.66,176.19 242.57,176.19 243.23,176.22 244.59,176.39 245.57,176.63 247.00,177.20 248.31,177.97 249.80,179.16 250.72,180.04 251.56,180.98 252.60,182.32 253.26,183.25 254.62,185.42 255.47,186.93 257.23,190.40 258.47,193.07 259.44,195.28 260.42,197.56 261.14,199.27 262.11,201.63 263.35,204.68 264.00,206.31 264.98,208.76 265.83,210.91 266.87,213.56 268.04,216.56 269.41,220.08 270.65,223.27 271.69,225.95 272.73,228.63 273.45,230.45 274.62,233.43 275.20,234.88 276.31,237.61 277.42,240.20 278.20,241.98 279.31,244.37 280.81,247.27 282.04,249.40 283.41,251.48 284.84,253.38 285.89,254.64 287.71,256.48 289.53,258.00 291.29,259.21 293.24,260.30 296.05,261.46 298.85,262.31 301.65,262.91 303.93,263.24 307.25,263.61 310.70,263.88 314.28,264.08 318.51,264.25 324.12,264.43 329.72,264.55 335.32,264.64 340.92,264.71 346.52,264.77 352.12,264.81 357.72,264.83 360.85,264.85 362.93,264.86 364.63,264.87 365.93,264.87 367.56,264.88 368.60,264.88 370.16,264.89 371.14,264.89 372.25,264.89 374.00,264.90 375.83,264.91 377.07,264.91 378.30,264.91 379.15,264.91 380.39,264.92 382.15,264.92 383.19,264.92 384.49,264.93 385.99,264.93 387.55,264.93 389.70,264.94 391.26,264.94 392.44,264.94 394.06,264.94 395.17,264.94 396.41,264.95 398.43,264.95 399.73,264.95 401.23,264.95 402.60,264.95 404.03,264.96 405.85,264.96 407.15,264.96 408.46,264.96 409.76,264.96 411.13,264.96 412.43,264.96 413.86,264.97 415.23,264.97 416.73,264.97 418.36,264.97 420.18,264.97 422.13,264.97 424.02,264.97 425.13,264.97 427.47,264.97 429.88,264.98 431.84,264.98 435.03,264.98 436.98,264.98 438.55,264.98 440.50,264.98 442.32,264.98 444.80,264.98 447.47,264.98 450.86,264.99 454.57,264.99 458.67,264.99 462.90,264.99 468.51,264.99 472.74,264.99 478.34,264.99 483.94,265.00 489.54,265.00 495.14,265.00 502.18,265.00 507.78,265.00 510.51,265.02"/>
<line x1="88" y1="72" x2="110" y2="72" stroke="#1f77b4" stroke-width="2.4"/>
<text x="116" y="76" font-family="Arial, sans-serif" font-size="12">rising #1</text>
<line x1="88" y1="90" x2="110" y2="90" stroke="#d62728" stroke-width="2.4"/>
<text x="116" y="94" font-family="Arial, sans-serif" font-size="12">falling #2</text>
<line x1="88" y1="108" x2="110" y2="108" stroke="#2ca02c" stroke-width="2.4"/>
<text x="116" y="112" font-family="Arial, sans-serif" font-size="12">rising #3</text>
<line x1="88" y1="126" x2="110" y2="126" stroke="#9467bd" stroke-width="2.4"/>
<text x="116" y="130" font-family="Arial, sans-serif" font-size="12">falling #4</text>
<rect x="78" y="342" width="694" height="44" fill="#fffdf7" stroke="#d8c6a1" rx="4"/>
<text x="88" y="359" font-family="Arial, sans-serif" font-size="11" font-weight="700" fill="#4b3b21">Findings needing attention</text>
<rect x="88" y="366" width="7" height="7" fill="#b54708"/>
<text x="102" y="373" font-family="Arial, sans-serif" font-size="11" fill="#333">WARN 5.5.4: Ramp dt versus V-T 20-80% evidence needs review | avg Ramp dt=5.038e-10s, avg V-T 20-80% span=4.045e-...</text>
<text x="425.00" y="322.00" text-anchor="middle" font-family="Arial, sans-serif" font-size="12">Time (s)</text>
<text x="420" y="42" font-family="Arial, sans-serif" font-size="11" fill="#555">solid=V-T voltage, faint horizontal=V_fixture</text>
</svg>