<svg xmlns="http://www.w3.org/2000/svg" width="800" height="450" viewBox="0 0 800 450">
<rect width="100%" height="100%" fill="#ffffff"/>
<text x="78" y="25" font-family="Arial, sans-serif" font-size="16" font-weight="700">E34_GPIO_I3C_I2C_SLV_1V2_10 V-T Waveforms</text>
<rect x="78" y="54" width="694" height="230" fill="#fbfbfb" stroke="#c8c8c8"/>
<text transform="translate(18 169.00) rotate(-90)" text-anchor="middle" font-family="Arial, sans-serif" font-size="12">Voltage (V)</text>
<line x1="78.00" y1="54" x2="78.00" y2="284" stroke="#ececec"/>
<text x="78.00" y="302" text-anchor="middle" font-family="Arial, sans-serif" font-size="10">-762p</text>
<line x1="216.80" y1="54" x2="216.80" y2="284" stroke="#ececec"/>
<text x="216.80" y="302" text-anchor="middle" font-family="Arial, sans-serif" font-size="10">7.17n</text>
<line x1="355.60" y1="54" x2="355.60" y2="284" stroke="#ececec"/>
<text x="355.60" y="302" text-anchor="middle" font-family="Arial, sans-serif" font-size="10">15.1n</text>
<line x1="494.40" y1="54" x2="494.40" y2="284" stroke="#ececec"/>
<text x="494.40" y="302" text-anchor="middle" font-family="Arial, sans-serif" font-size="10">23n</text>
<line x1="633.20" y1="54" x2="633.20" y2="284" stroke="#ececec"/>
<text x="633.20" y="302" text-anchor="middle" font-family="Arial, sans-serif" font-size="10">31n</text>
<line x1="772.00" y1="54" x2="772.00" y2="284" stroke="#ececec"/>
<text x="772.00" y="302" text-anchor="middle" font-family="Arial, sans-serif" font-size="10">38.9n</text>
<line x1="78" y1="284.00" x2="772" y2="284.00" stroke="#ececec"/>
<text x="70" y="288.00" text-anchor="end" font-family="Arial, sans-serif" font-size="10">-0.105</text>
<line x1="78" y1="226.50" x2="772" y2="226.50" stroke="#ececec"/>
<text x="70" y="230.50" text-anchor="end" font-family="Arial, sans-serif" font-size="10">0.248</text>
<line x1="78" y1="169.00" x2="772" y2="169.00" stroke="#ececec"/>
<text x="70" y="173.00" text-anchor="end" font-family="Arial, sans-serif" font-size="10">0.602</text>
<line x1="78" y1="111.50" x2="772" y2="111.50" stroke="#ececec"/>
<text x="70" y="115.50" text-anchor="end" font-family="Arial, sans-serif" font-size="10">0.956</text>
<line x1="78" y1="54.00" x2="772" y2="54.00" stroke="#ececec"/>
<text x="70" y="58.00" text-anchor="end" font-family="Arial, sans-serif" font-size="10">1.3</text>
<line x1="78" y1="71.75" x2="772" y2="71.75" stroke="#1f77b4" opacity="0.18" stroke-dasharray="3 4"/>
<polyline fill="none" stroke="#1f77b4" stroke-width="2.0" points="91.35,207.35 92.52,207.35 93.71,207.35 95.18,207.35 96.05,207.35 97.25,207.37 98.12,207.35 99.29,207.28 99.75,207.25 100.03,207.23 100.22,207.22 100.59,207.20 100.89,207.19 101.15,207.21 101.39,207.24 101.62,207.31 101.81,207.39 102.01,207.50 102.15,207.59 102.32,207.73 102.48,207.86 102.62,208.00 102.78,208.17 102.90,208.30 103.04,208.47 103.18,208.64 103.39,208.90 103.53,209.08 103.67,209.26 103.79,209.42 103.97,209.64 104.09,209.80 104.19,209.93 104.30,210.05 104.42,210.19 104.53,210.31 104.63,210.41 104.79,210.56 104.86,210.62 104.97,210.70 105.11,210.79 105.23,210.85 105.35,210.89 105.47,210.90 105.56,210.89 105.67,210.86 105.79,210.81 105.93,210.69 106.10,210.48 106.24,210.24 106.31,210.10 106.44,209.82 106.58,209.43 106.70,209.02 106.84,208.50 107.03,207.65 107.24,206.52 107.31,206.09 107.52,204.71 107.84,202.17 108.08,199.84 108.22,198.38 108.40,196.35 108.62,193.44 108.83,190.47 109.06,186.96 109.27,183.46 109.45,180.36 109.60,177.45 109.73,175.15 109.94,171.01 110.06,168.51 110.22,165.27 110.44,160.44 110.62,156.66 110.81,152.43 111.00,148.16 111.18,144.24 111.42,138.73 111.62,134.40 111.69,132.83 111.97,126.59 112.12,123.13 112.30,119.33 112.51,114.86 112.68,111.22 112.81,108.75 112.95,105.98 113.09,103.32 113.19,101.38 113.44,97.13 113.58,94.89 113.74,92.53 113.93,89.89 114.21,86.57 114.38,84.77 114.59,82.89 114.66,82.33 114.84,81.04 114.91,80.58 115.24,78.70 115.54,77.41 115.66,76.97 116.01,75.96 116.19,75.55 116.34,75.24 116.47,75.02 116.80,74.54 116.94,74.37 117.34,73.98 117.41,73.92 117.85,73.64 118.06,73.53 118.53,73.32 118.92,73.16 119.21,73.04 120.18,72.69 121.07,72.43 121.28,72.38 121.68,72.30 122.19,72.21 122.38,72.18 122.75,72.13 123.01,72.10 123.45,72.05 123.85,72.02 124.45,71.98 124.61,71.97 124.69,71.96 124.90,71.95 125.15,71.94 125.43,71.93 125.64,71.92 125.81,71.91 125.97,71.90 126.15,71.90 126.44,71.89 126.76,71.87 127.02,71.86 127.28,71.85 127.62,71.85 127.91,71.85 128.16,71.84 128.39,71.84 128.60,71.84 128.84,71.84 129.05,71.83 129.28,71.83 129.51,71.83 129.84,71.83 130.17,71.82 130.49,71.82 130.82,71.82 131.26,71.82 131.47,71.82 131.92,71.81 132.13,71.81 132.50,71.81 132.85,71.81 133.17,71.81 133.48,71.80 133.80,71.80 134.06,71.80 134.41,71.80 134.69,71.80 135.16,71.80 135.49,71.80 135.86,71.80 136.12,71.79 136.44,71.79 136.72,71.79 137.16,71.79 137.37,71.79 137.59,71.79 137.89,71.79 138.05,71.79 138.47,71.79 138.77,71.79 139.17,71.79 139.55,71.79 139.69,71.78 139.89,71.78 140.15,71.78 140.43,71.78 140.83,71.78 141.62,71.78 142.30,71.78 142.99,71.78 143.72,71.78 144.18,71.78 144.47,71.78 144.67,71.78 145.16,71.78 145.47,71.78 145.77,71.77 146.08,71.77 146.71,71.77 147.61,71.77 147.99,71.77 148.59,71.77 149.13,71.77 149.36,71.77 149.67,71.77 149.95,71.77 150.25,71.77 150.55,71.77 150.71,71.77 150.88,71.77 151.14,71.77 151.70,71.77 152.21,71.77 152.61,71.77 153.19,71.77 154.08,71.77 155.55,71.77 156.73,71.76 157.32,71.76 158.25,71.76 158.83,71.76 159.60,71.76 160.26,71.76 161.16,71.76 162.03,71.76 162.63,71.76 163.22,71.76 164.18,71.76 165.57,71.76 166.74,71.76 167.93,71.76 169.10,71.76 170.00,71.76 171.47,71.76 171.94,71.76 172.94,71.76 174.11,71.76 175.00,71.76 176.18,71.76 177.65,71.76 178.82,71.76 179.40,71.75"/>
<line x1="78" y1="71.75" x2="772" y2="71.75" stroke="#d62728" opacity="0.18" stroke-dasharray="3 4"/>
<polyline fill="none" stroke="#d62728" stroke-width="2.0" points="91.35,71.75 94.11,71.75 96.81,71.75 98.10,71.75 98.94,71.75 99.42,71.75 99.52,71.75 99.78,71.75 101.08,71.74 101.64,71.74 102.22,71.74 102.78,71.74 103.07,71.74 103.35,71.74 104.16,71.75 104.46,71.75 104.88,71.77 104.95,71.77 105.04,71.77 105.18,71.78 105.37,71.79 105.60,71.81 105.70,71.81 105.86,71.82 105.96,71.83 106.10,71.84 106.30,71.85 106.47,71.86 106.59,71.87 106.66,71.87 106.79,71.87 106.93,71.88 107.01,71.88 107.14,71.88 107.28,71.89 107.40,71.89 107.57,71.89 107.75,71.90 107.98,71.90 108.20,71.89 108.33,71.89 108.41,71.88 108.64,71.86 108.73,71.85 108.89,71.83 109.08,71.79 109.22,71.75 109.39,71.70 109.69,71.60 109.87,71.53 110.02,71.46 110.23,71.37 110.44,71.27 110.71,71.15 110.88,71.07 111.04,71.00 111.32,70.88 111.46,70.82 111.63,70.75 111.84,70.67 112.04,70.60 112.18,70.55 112.39,70.48 112.56,70.42 112.74,70.37 112.89,70.32 113.03,70.28 113.26,70.22 113.42,70.17 113.72,70.10 113.93,70.05 114.12,70.00 114.31,69.96 114.61,69.91 114.84,69.88 115.12,69.86 115.42,69.88 115.61,69.91 115.87,70.00 116.19,70.21 116.45,70.48 116.76,70.96 116.92,71.28 117.01,71.49 117.18,71.95 117.39,72.61 117.74,73.98 118.13,75.91 118.55,78.51 118.71,79.61 118.99,81.71 119.28,84.13 119.69,87.70 119.98,90.54 120.40,94.75 120.65,97.30 120.98,100.81 121.16,102.68 121.56,107.02 121.80,109.66 122.22,114.18 122.45,116.60 122.91,121.41 123.38,126.25 123.68,129.29 124.20,134.40 124.47,136.93 124.96,141.42 125.25,144.12 125.85,149.27 126.25,152.61 126.62,155.56 127.07,159.07 127.37,161.26 127.88,164.85 127.95,165.33 128.19,166.97 128.32,167.77 128.44,168.56 128.53,169.11 128.79,170.75 129.40,174.33 129.91,177.08 130.05,177.81 130.31,179.12 130.54,180.22 130.73,181.12 130.92,181.99 131.31,183.66 131.38,183.95 131.71,185.29 131.92,186.10 132.10,186.75 132.59,188.47 132.89,189.45 133.25,190.58 133.45,191.13 133.97,192.58 134.30,193.44 135.41,195.95 135.86,196.84 136.65,198.22 137.51,199.52 137.91,200.05 138.96,201.27 139.64,201.91 140.22,202.39 140.52,202.62 140.71,202.77 140.90,202.92 141.41,203.25 142.37,203.82 142.85,204.08 143.32,204.30 143.58,204.43 143.83,204.54 144.23,204.70 144.56,204.83 144.93,204.96 145.45,205.14 145.59,205.19 146.03,205.32 146.15,205.36 146.43,205.44 146.59,205.48 146.75,205.52 147.31,205.66 147.92,205.80 148.62,205.94 149.22,206.05 150.01,206.18 150.69,206.28 151.37,206.36 152.07,206.44 152.75,206.51 153.45,206.57 154.35,206.63 155.08,206.68 155.87,206.73 156.67,206.77 157.52,206.81 158.43,206.84 159.37,206.88 160.35,206.92 161.12,206.94 162.29,206.98 163.13,207.01 164.48,207.06 165.58,207.09 166.71,207.14 168.61,207.18 170.01,207.21 171.83,207.24 173.46,207.26 175.07,207.27 176.91,207.28 178.98,207.29 181.04,207.30 183.81,207.31 185.87,207.31 187.96,207.32 190.70,207.32 192.77,207.32 196.24,207.32 198.98,207.33 201.05,207.33 203.82,207.33 206.58,207.33 209.33,207.33 212.80,207.33 215.54,207.33 218.31,207.33 221.08,207.33 223.82,207.34 227.27,207.34 230.04,207.34 232.80,207.34 235.55,207.34 238.32,207.34 241.08,207.34 244.53,207.34 247.28,207.34 250.05,207.34 252.81,207.34 255.56,207.34 258.33,207.34 261.77,207.34 264.54,207.34 267.31,207.34 270.05,207.34 272.82,207.34 276.27,207.34 279.03,207.34 281.78,207.34 284.55,207.34 287.31,207.34 290.06,207.34 293.51,207.34 296.28,207.34 297.64,207.35"/>
<line x1="78" y1="266.87" x2="772" y2="266.87" stroke="#2ca02c" opacity="0.18" stroke-dasharray="3 4"/>
<polyline fill="none" stroke="#2ca02c" stroke-width="2.0" points="91.35,266.87 98.03,266.87 98.94,266.88 99.17,266.88 99.31,266.88 99.49,266.88 100.33,266.87 100.85,266.87 101.32,266.84 101.94,266.79 102.13,266.77 102.44,266.75 102.72,266.73 102.95,266.72 103.13,266.71 103.25,266.71 103.35,266.71 103.44,266.71 103.53,266.71 103.60,266.71 103.70,266.71 103.79,266.71 103.90,266.71 104.00,266.72 104.11,266.72 104.23,266.73 104.40,266.74 104.58,266.77 104.75,266.79 104.84,266.81 105.00,266.85 105.12,266.88 105.23,266.91 105.33,266.95 105.47,267.00 105.63,267.06 105.81,267.13 106.07,267.25 106.19,267.30 106.35,267.37 106.47,267.43 106.59,267.48 106.77,267.55 106.87,267.60 107.00,267.64 107.10,267.69 107.22,267.73 107.33,267.77 107.50,267.83 107.64,267.88 107.82,267.94 107.92,267.97 108.15,268.03 108.41,268.10 108.52,268.11 108.66,268.13 108.75,268.14 108.85,268.13 108.97,268.11 109.11,268.08 109.31,267.96 109.50,267.84 109.97,267.12 110.23,266.44 110.44,265.80 110.67,264.96 110.93,263.73 111.13,262.63 111.23,262.01 111.48,260.33 111.67,258.82 111.83,257.50 111.97,256.25 112.12,254.74 112.28,253.15 112.44,251.46 112.61,249.47 112.74,248.03 112.88,246.32 113.03,244.34 113.16,242.77 113.30,240.95 113.42,239.33 113.54,237.71 113.75,234.92 113.95,232.37 114.09,230.54 114.30,227.82 114.45,225.82 114.65,223.42 114.82,221.29 115.05,218.60 115.33,215.39 115.49,213.64 115.77,210.63 115.96,208.63 116.19,206.39 116.47,203.74 116.82,200.63 117.17,197.70 117.53,194.82 117.95,191.88 118.20,190.18 118.62,187.47 119.02,185.04 119.27,183.66 119.60,181.89 119.88,180.48 120.28,178.61 120.67,176.96 121.07,175.38 121.42,174.12 121.73,173.06 122.14,171.82 122.59,170.55 122.89,169.78 123.40,168.61 123.78,167.80 124.55,166.41 124.82,166.01 126.18,164.19 126.50,163.84 127.04,163.28 127.60,162.77 128.18,162.31 128.84,161.84 129.58,161.41 130.78,160.87 131.59,160.57 132.36,160.34 132.87,160.20 133.66,160.05 134.16,159.95 134.74,159.83 135.11,159.77 135.51,159.72 135.88,159.67 136.28,159.62 136.68,159.57 137.07,159.52 137.42,159.48 137.79,159.45 138.29,159.40 138.80,159.36 139.13,159.33 139.43,159.31 139.73,159.29 140.03,159.27 140.48,159.24 140.85,159.22 141.20,159.20 141.57,159.17 141.95,159.16 142.37,159.14 142.78,159.12 143.23,159.10 143.74,159.08 144.32,159.06 144.93,159.04 145.44,159.02 146.28,159.00 146.70,158.98 147.17,158.97 147.83,158.95 148.97,158.93 149.71,158.91 150.88,158.89 152.07,158.87 153.49,158.85 154.52,158.83 157.15,158.79 159.06,158.77 160.98,158.74 163.75,158.71 167.23,158.67 169.45,158.65 177.23,158.57 185.09,158.50 194.01,158.42 202.94,158.35 211.87,158.30 223.02,158.22 231.95,158.18 240.87,158.13 249.80,158.09 258.73,158.06 267.66,158.03 278.82,157.98 287.75,157.95 296.68,157.93 305.61,157.90 314.53,157.88 325.69,157.85 334.61,157.83 343.54,157.81 352.47,157.80 361.40,157.78 370.32,157.77 381.49,157.75 390.42,157.73 399.35,157.72 408.27,157.71 417.20,157.70 428.35,157.69 437.28,157.68 446.21,157.67 455.13,157.67 464.06,157.66 472.99,157.66 484.16,157.65 493.09,157.64 502.01,157.63 510.94,157.63 519.87,157.62 531.02,157.62 539.95,157.61 548.87,157.61 557.80,157.61 566.73,157.60 575.66,157.60 586.82,157.60 595.75,157.59 604.68,157.59 613.61,157.59 622.54,157.59 631.46,157.58 642.61,157.58 651.54,157.58 660.47,157.58 669.40,157.58 678.32,157.57 689.49,157.57 698.42,157.57 707.35,157.57 716.27,157.57 725.20,157.57 734.13,157.57 745.28,157.56 754.21,157.56 758.65,157.56"/>
<line x1="78" y1="266.87" x2="772" y2="266.87" stroke="#9467bd" opacity="0.18" stroke-dasharray="3 4"/>
<polyline fill="none" stroke="#9467bd" stroke-width="2.0" points="91.35,157.55 92.62,157.55 93.90,157.55 95.49,157.55 96.77,157.55 98.05,157.55 99.05,157.54 99.28,157.54 99.40,157.54 99.57,157.54 99.73,157.54 99.89,157.54 100.05,157.54 100.19,157.54 100.33,157.54 100.54,157.54 100.75,157.54 101.24,157.55 101.32,157.55 101.41,157.55 101.50,157.56 101.59,157.56 101.69,157.56 101.81,157.57 101.90,157.57 101.99,157.57 102.13,157.58 102.27,157.59 102.46,157.59 102.67,157.60 102.83,157.61 103.11,157.62 103.28,157.63 103.49,157.64 103.65,157.64 103.91,157.65 104.12,157.65 104.37,157.66 104.47,157.66 104.60,157.65 104.72,157.65 104.82,157.64 104.95,157.63 105.09,157.62 105.21,157.60 105.32,157.58 105.40,157.56 105.49,157.54 105.60,157.52 105.68,157.49 105.77,157.46 105.86,157.43 105.93,157.40 106.05,157.35 106.14,157.31 106.23,157.27 106.35,157.20 106.44,157.15 106.54,157.09 106.68,157.00 106.80,156.92 106.91,156.85 107.05,156.74 107.19,156.63 107.35,156.51 107.49,156.39 107.59,156.30 107.70,156.21 107.85,156.07 108.03,155.91 108.26,155.70 108.43,155.55 108.54,155.47 108.66,155.38 108.76,155.31 108.85,155.26 109.03,155.19 109.20,155.17 109.31,155.18 109.43,155.24 109.57,155.35 109.73,155.52 109.85,155.74 109.94,155.89 110.09,156.27 110.23,156.68 110.36,157.08 110.51,157.71 110.67,158.42 110.81,159.11 110.95,159.90 111.13,160.99 111.27,161.93 111.37,162.69 111.48,163.49 111.58,164.32 111.69,165.20 111.86,166.74 112.02,168.20 112.21,170.10 112.40,172.10 112.60,174.19 112.89,177.58 113.17,180.92 113.37,183.29 113.58,185.91 113.70,187.49 113.95,190.65 114.14,193.18 114.47,197.58 114.80,202.02 115.07,205.54 115.31,208.83 115.56,212.11 115.66,213.51 115.73,214.45 115.89,216.54 116.01,218.16 116.24,221.15 116.43,223.65 116.57,225.45 116.69,227.01 116.87,229.21 117.04,231.38 117.22,233.51 117.41,235.80 117.67,238.83 117.83,240.59 118.09,243.40 118.25,245.02 118.43,246.73 118.69,249.15 118.88,250.79 119.09,252.48 119.20,253.27 119.35,254.41 119.49,255.33 119.70,256.63 119.90,257.69 120.11,258.73 120.39,259.89 120.70,260.96 121.07,262.05 121.42,262.87 121.66,263.35 122.07,264.03 122.36,264.40 122.73,264.81 123.45,265.37 123.80,265.58 124.20,265.77 124.85,266.00 125.24,266.12 125.66,266.20 126.01,266.28 126.46,266.34 126.90,266.40 127.07,266.42 127.55,266.47 128.05,266.52 128.33,266.54 129.00,266.58 129.40,266.61 129.66,266.62 130.28,266.64 130.59,266.66 130.85,266.67 131.21,266.68 131.63,266.69 132.01,266.70 132.36,266.71 132.50,266.72 132.83,266.72 133.15,266.73 133.52,266.74 133.90,266.75 134.25,266.75 134.43,266.76 134.86,266.76 135.18,266.77 135.37,266.77 135.72,266.77 136.09,266.78 136.58,266.78 136.82,266.79 137.23,266.79 137.51,266.79 137.93,266.80 138.33,266.80 138.66,266.80 139.13,266.81 139.45,266.81 140.01,266.81 140.48,266.82 140.78,266.82 141.24,266.82 141.64,266.82 142.08,266.82 142.90,266.83 143.35,266.83 143.90,266.83 144.63,266.83 144.95,266.83 145.68,266.84 146.43,266.84 147.15,266.84 147.50,266.84 148.29,266.84 149.10,266.84 150.06,266.85 150.69,266.85 151.34,266.85 152.28,266.85 153.16,266.85 154.38,266.85 155.48,266.85 156.76,266.85 158.04,266.86 159.30,266.86 160.58,266.86 162.17,266.86 163.45,266.86 164.73,266.86 166.00,266.86 167.28,266.86 168.56,266.86 170.15,266.86 171.43,266.86 172.71,266.86 173.99,266.86 175.27,266.86 176.86,266.86 178.14,266.86 179.41,266.86 180.69,266.86 181.97,266.86 183.23,266.86 184.84,266.86 186.12,266.86 186.73,266.87"/>
<line x1="88" y1="72" x2="110" y2="72" stroke="#1f77b4" stroke-width="2.4"/>
<text x="116" y="76" font-family="Arial, sans-serif" font-size="12">rising #1</text>
<line x1="88" y1="90" x2="110" y2="90" stroke="#d62728" stroke-width="2.4"/>
<text x="116" y="94" font-family="Arial, sans-serif" font-size="12">falling #2</text>
<line x1="88" y1="108" x2="110" y2="108" stroke="#2ca02c" stroke-width="2.4"/>
<text x="116" y="112" font-family="Arial, sans-serif" font-size="12">rising #3</text>
<line x1="88" y1="126" x2="110" y2="126" stroke="#9467bd" stroke-width="2.4"/>
<text x="116" y="130" font-family="Arial, sans-serif" font-size="12">falling #4</text>
<rect x="78" y="342" width="694" height="44" fill="#fffdf7" stroke="#d8c6a1" rx="4"/>
<text x="88" y="359" font-family="Arial, sans-serif" font-size="11" font-weight="700" fill="#4b3b21">Findings needing attention</text>
<rect x="88" y="366" width="7" height="7" fill="#b54708"/>
<text x="102" y="373" font-family="Arial, sans-serif" font-size="11" fill="#333">WARN 5.5.4: Ramp dt versus V-T 20-80% evidence needs review | avg Ramp dt=4.816e-10s, avg V-T 20-80% span=3.705e-...</text>
<text x="425.00" y="322.00" text-anchor="middle" font-family="Arial, sans-serif" font-size="12">Time (s)</text>
<text x="420" y="42" font-family="Arial, sans-serif" font-size="11" fill="#555">solid=V-T voltage, faint horizontal=V_fixture</text>
</svg>