<svg xmlns="http://www.w3.org/2000/svg" width="800" height="450" viewBox="0 0 800 450">
<rect width="100%" height="100%" fill="#ffffff"/>
<text x="78" y="25" font-family="Arial, sans-serif" font-size="16" font-weight="700">nfc_ioc15_swp_master_700_worst V-T Waveforms</text>
<rect x="78" y="54" width="694" height="230" fill="#fbfbfb" stroke="#c8c8c8"/>
<text transform="translate(18 169.00) rotate(-90)" text-anchor="middle" font-family="Arial, sans-serif" font-size="12">Voltage (V)</text>
<line x1="78.00" y1="54" x2="78.00" y2="284" stroke="#ececec"/>
<text x="78.00" y="302" text-anchor="middle" font-family="Arial, sans-serif" font-size="10">-2.41n</text>
<line x1="216.80" y1="54" x2="216.80" y2="284" stroke="#ececec"/>
<text x="216.80" y="302" text-anchor="middle" font-family="Arial, sans-serif" font-size="10">22.6n</text>
<line x1="355.60" y1="54" x2="355.60" y2="284" stroke="#ececec"/>
<text x="355.60" y="302" text-anchor="middle" font-family="Arial, sans-serif" font-size="10">47.6n</text>
<line x1="494.40" y1="54" x2="494.40" y2="284" stroke="#ececec"/>
<text x="494.40" y="302" text-anchor="middle" font-family="Arial, sans-serif" font-size="10">72.7n</text>
<line x1="633.20" y1="54" x2="633.20" y2="284" stroke="#ececec"/>
<text x="633.20" y="302" text-anchor="middle" font-family="Arial, sans-serif" font-size="10">97.7n</text>
<line x1="772.00" y1="54" x2="772.00" y2="284" stroke="#ececec"/>
<text x="772.00" y="302" text-anchor="middle" font-family="Arial, sans-serif" font-size="10">123n</text>
<line x1="78" y1="284.00" x2="772" y2="284.00" stroke="#ececec"/>
<text x="70" y="288.00" text-anchor="end" font-family="Arial, sans-serif" font-size="10">-0.144</text>
<line x1="78" y1="226.50" x2="772" y2="226.50" stroke="#ececec"/>
<text x="70" y="230.50" text-anchor="end" font-family="Arial, sans-serif" font-size="10">0.337</text>
<line x1="78" y1="169.00" x2="772" y2="169.00" stroke="#ececec"/>
<text x="70" y="173.00" text-anchor="end" font-family="Arial, sans-serif" font-size="10">0.819</text>
<line x1="78" y1="111.50" x2="772" y2="111.50" stroke="#ececec"/>
<text x="70" y="115.50" text-anchor="end" font-family="Arial, sans-serif" font-size="10">1.3</text>
<line x1="78" y1="54.00" x2="772" y2="54.00" stroke="#ececec"/>
<text x="70" y="58.00" text-anchor="end" font-family="Arial, sans-serif" font-size="10">1.8</text>
<line x1="78" y1="73.26" x2="772" y2="73.26" stroke="#1f77b4" opacity="0.18" stroke-dasharray="3 4"/>
<polyline fill="none" stroke="#1f77b4" stroke-width="2.0" points="91.35,225.85 94.98,225.85 98.62,225.85 103.17,225.84 106.81,225.82 110.45,225.84 114.11,225.88 117.75,225.90 121.38,225.92 125.93,225.94 129.57,225.96 133.21,225.97 136.85,225.98 140.49,225.99 144.12,225.99 147.76,225.97 151.40,225.95 155.04,225.90 158.68,225.80 162.34,225.62 166.89,225.20 170.53,224.63 172.34,224.23 175.98,223.13 177.80,222.38 179.73,221.42 182.06,219.90 182.35,219.69 183.99,218.28 185.41,216.82 186.68,215.30 187.76,213.78 188.72,212.28 189.58,210.74 190.43,209.04 191.38,206.87 191.73,205.95 192.36,204.29 192.93,202.62 193.64,200.34 194.17,198.46 194.57,196.97 195.08,194.98 195.71,192.40 196.13,190.54 196.48,188.93 196.97,186.64 197.35,184.79 197.81,182.47 198.35,179.72 198.72,177.73 199.21,175.13 199.63,172.84 200.25,169.45 200.63,167.37 201.18,164.32 201.63,161.88 202.21,158.74 202.60,156.56 203.27,153.02 203.71,150.66 204.18,148.26 204.60,146.10 204.89,144.65 205.40,142.14 205.93,139.57 206.40,137.38 206.66,136.14 207.09,134.27 207.40,132.89 207.64,131.83 208.00,130.35 208.53,128.13 208.75,127.27 209.13,125.83 209.55,124.21 209.99,122.60 210.44,121.10 210.92,119.44 211.35,118.02 211.57,117.27 212.48,114.52 213.30,112.07 213.50,111.51 213.79,110.70 214.07,109.88 214.61,108.50 215.74,105.66 215.98,105.06 216.25,104.44 216.51,103.83 217.07,102.59 217.45,101.79 217.67,101.33 217.80,101.04 217.96,100.72 218.40,99.85 218.62,99.41 219.40,97.95 219.82,97.19 220.53,95.98 221.06,95.10 221.35,94.63 222.24,93.31 222.59,92.78 223.21,91.94 223.68,91.33 224.10,90.77 224.30,90.50 224.99,89.72 225.32,89.34 225.83,88.76 226.03,88.53 226.81,87.74 227.21,87.37 227.59,87.02 228.38,86.27 229.09,85.61 230.34,84.68 231.31,83.96 232.02,83.44 232.64,83.01 233.64,82.43 234.13,82.15 234.64,81.85 235.19,81.53 235.88,81.13 236.24,80.97 236.57,80.82 236.95,80.65 237.48,80.41 238.01,80.17 238.52,79.94 239.10,79.68 239.43,79.53 239.68,79.44 240.03,79.32 241.12,78.94 241.98,78.64 242.18,78.57 242.72,78.39 243.56,78.12 244.22,77.95 244.80,77.80 246.91,77.24 247.35,77.14 247.80,77.06 248.37,76.94 249.08,76.80 249.48,76.72 249.90,76.64 250.37,76.55 250.61,76.50 251.17,76.39 251.46,76.35 251.63,76.32 252.23,76.24 252.77,76.16 253.34,76.07 254.70,75.88 255.09,75.82 256.07,75.70 257.16,75.58 258.80,75.41 260.04,75.28 260.51,75.24 260.97,75.21 261.08,75.20 261.62,75.16 262.13,75.12 262.44,75.10 262.77,75.08 263.26,75.04 263.81,75.00 263.95,74.99 264.39,74.96 264.57,74.94 265.17,74.90 267.03,74.80 269.71,74.67 271.53,74.59 273.35,74.53 274.82,74.48 276.08,74.44 277.12,74.41 278.19,74.38 278.92,74.37 279.88,74.35 280.70,74.33 281.36,74.32 282.34,74.30 282.76,74.29 283.51,74.27 284.42,74.26 285.78,74.24 286.49,74.23 286.89,74.23 289.06,74.20 290.64,74.18 291.57,74.17 293.05,74.16 294.16,74.15 295.18,74.15 297.93,74.13 300.53,74.11 301.57,74.11 303.39,74.10 304.50,74.10 306.34,74.09 308.52,74.08 309.94,74.08 312.49,74.07 314.31,74.07 317.32,74.07 319.76,74.06 322.40,74.06 324.31,74.05 325.22,74.05 327.42,74.05 329.77,74.04 332.50,74.04 335.23,74.03 337.96,74.03 341.62,74.01 343.48,74.00 345.26,73.99 346.68,73.98 347.98,73.97 349.12,73.96 350.45,73.95 351.62,73.95 353.44,73.94 354.40,73.93 356.61,73.92 358.74,73.90 360.03,73.89 360.92,73.88 361.63,73.87 362.58,73.87 363.43,73.26"/>
<line x1="78" y1="73.26" x2="772" y2="73.26" stroke="#d62728" opacity="0.18" stroke-dasharray="3 4"/>
<polyline fill="none" stroke="#d62728" stroke-width="2.0" points="91.35,73.26 97.09,73.26 102.82,73.27 105.30,73.18 105.70,73.15 105.90,73.13 105.99,73.13 106.72,73.07 107.25,73.02 107.36,73.01 107.92,72.97 108.56,72.92 109.12,72.89 114.31,72.68 117.77,72.58 122.89,72.38 125.53,72.23 125.89,72.20 126.51,72.16 126.64,72.15 126.89,72.13 127.51,72.08 127.75,72.06 128.02,72.04 128.24,72.02 128.42,72.00 131.46,71.64 132.94,71.40 135.83,70.82 139.11,70.18 141.02,69.96 141.46,69.93 144.41,69.86 146.88,69.97 147.23,69.99 147.61,70.02 147.74,70.03 147.85,70.04 148.38,70.08 148.72,70.11 148.98,70.13 149.89,70.22 153.64,70.64 154.57,70.74 157.10,71.03 157.41,71.07 160.23,71.37 160.67,71.42 161.41,71.49 162.78,71.62 163.00,71.64 163.16,71.66 163.38,71.68 163.67,71.70 163.89,71.72 164.11,71.74 164.34,71.77 164.56,71.79 164.78,71.81 164.89,71.81 165.09,71.83 165.51,71.87 165.71,71.88 165.91,71.90 166.35,71.94 166.55,71.96 166.75,71.97 167.00,71.99 167.26,72.01 167.35,72.02 168.08,72.08 168.26,72.09 168.40,72.10 168.57,72.11 169.04,72.15 169.84,72.21 170.28,72.24 170.66,72.27 171.08,72.30 172.19,72.37 173.01,72.42 174.19,72.50 174.74,72.53 178.84,72.75 183.61,72.98 186.01,73.07 189.87,73.26 190.82,73.33 191.29,73.37 191.84,73.42 193.20,73.61 193.91,73.75 195.17,74.05 195.97,74.30 196.28,74.39 196.99,74.65 198.30,75.18 198.90,75.45 199.88,75.91 200.39,76.16 203.16,77.68 203.51,77.89 204.20,78.31 204.89,78.73 205.62,79.18 205.82,79.31 206.09,79.49 206.98,80.09 207.24,80.26 207.53,80.46 207.84,80.67 210.15,82.33 212.19,83.89 214.14,85.46 216.14,87.19 217.89,88.77 220.44,91.20 221.46,92.24 222.46,93.26 223.92,94.81 226.10,97.19 226.39,97.53 226.74,97.94 226.92,98.15 227.05,98.30 227.41,98.71 227.63,98.97 227.87,99.26 228.36,99.83 230.49,102.42 231.65,103.85 232.58,105.06 233.35,106.08 234.60,107.70 234.68,107.83 234.80,107.98 235.26,108.62 235.44,108.86 235.88,109.47 235.97,109.59 236.46,110.26 236.55,110.38 236.86,110.81 237.10,111.14 237.19,111.27 237.28,111.39 237.72,112.02 239.01,113.87 240.19,115.56 241.96,118.22 243.40,120.40 245.00,122.89 246.35,125.00 248.31,128.16 249.86,130.69 251.17,132.87 252.68,135.38 253.48,136.73 253.81,137.30 253.99,137.60 254.32,138.17 254.87,139.12 256.32,141.58 256.83,142.45 257.73,144.03 258.02,144.53 258.51,145.37 258.87,145.99 259.49,147.06 260.40,148.63 262.04,151.45 263.48,153.92 264.92,156.38 266.32,158.77 267.23,160.33 268.78,162.82 270.65,165.81 272.09,168.12 273.69,170.68 274.95,172.71 276.39,174.89 278.12,177.50 279.25,179.20 281.05,181.74 282.45,183.72 283.60,185.27 285.71,188.03 287.29,189.98 289.30,192.38 290.75,193.98 292.54,195.91 294.16,197.49 296.12,199.33 297.96,200.88 299.93,202.44 302.06,204.01 304.48,205.57 307.16,207.13 310.42,208.69 313.69,210.15 316.55,211.23 319.32,212.24 322.96,213.24 328.04,214.63 330.90,215.27 336.18,216.39 339.51,216.94 345.26,217.79 348.12,218.22 355.28,219.18 359.08,219.60 363.89,220.14 369.64,220.63 375.36,221.08 379.66,221.42 385.41,221.82 391.16,222.15 396.88,222.48 401.18,222.70 405.49,222.89 412.68,223.20 418.40,223.43 424.15,223.62 429.87,223.81 435.62,223.97 441.36,224.12 447.26,224.27 451.39,224.36 457.14,224.47 462.88,224.59 468.60,224.68 475.79,224.77 481.52,224.84 487.26,224.91 492.99,224.99 498.73,225.06 504.48,225.11 511.64,225.17 517.39,225.22 520.23,225.84"/>
<line x1="78" y1="266.81" x2="772" y2="266.81" stroke="#2ca02c" opacity="0.18" stroke-dasharray="3 4"/>
<polyline fill="none" stroke="#2ca02c" stroke-width="2.0" points="91.35,266.81 100.26,266.81 109.21,266.80 120.36,266.80 129.28,266.80 138.22,266.80 147.14,266.81 156.06,266.81 165.00,266.83 176.16,266.89 185.08,266.98 194.02,267.17 202.94,267.62 211.88,268.14 220.80,267.98 229.72,267.60 238.66,267.39 247.57,267.29 256.51,267.25 265.43,267.24 276.59,267.23 285.51,267.21 294.45,267.11 303.37,266.80 311.58,266.31 316.77,265.67 324.09,264.45 330.15,262.79 334.63,261.18 336.85,260.20 341.31,257.98 346.05,255.13 349.03,253.11 351.60,251.22 354.71,248.77 358.19,245.80 360.54,243.69 364.20,240.21 366.38,238.05 369.70,234.61 371.77,232.40 374.78,229.10 377.02,226.56 379.75,223.43 381.75,221.09 384.48,217.84 386.45,215.45 389.07,212.25 392.09,208.51 394.06,206.03 396.53,202.91 398.52,200.38 400.87,197.34 403.76,193.61 405.80,190.96 408.04,188.01 410.08,185.33 412.28,182.40 414.34,179.66 417.16,175.89 419.24,173.10 421.39,170.24 423.46,167.50 425.65,164.60 428.36,161.08 430.60,158.19 432.93,155.18 435.06,152.44 437.37,149.53 439.52,146.82 441.87,143.87 442.91,142.59 443.85,141.45 444.13,141.10 445.07,139.96 445.89,138.95 446.55,138.13 447.48,136.99 448.44,135.84 450.68,133.18 452.92,130.53 455.67,127.32 457.67,125.06 459.71,122.75 461.84,120.44 463.21,119.03 466.30,115.87 468.67,113.44 471.31,110.74 472.29,109.90 473.91,108.51 475.26,107.35 476.86,105.98 477.46,105.49 478.21,104.97 479.14,104.33 479.70,103.95 480.39,103.48 482.40,102.24 484.16,101.33 485.87,100.44 487.09,99.84 489.55,98.88 490.46,98.52 492.94,97.54 493.21,97.46 493.52,97.37 493.79,97.29 494.18,97.17 494.52,97.07 494.92,96.95 495.23,96.86 495.47,96.79 495.74,96.71 496.14,96.59 496.47,96.49 496.87,96.37 497.18,96.28 497.45,96.20 497.69,96.12 498.16,95.98 498.42,95.90 498.82,95.79 499.15,95.69 499.64,95.54 500.11,95.40 501.77,95.01 502.35,94.88 503.35,94.66 504.57,94.38 505.57,94.15 506.56,93.92 507.45,93.72 509.03,93.36 510.78,93.04 515.39,92.26 522.09,91.13 523.58,90.92 526.15,90.62 528.99,90.29 531.03,90.05 533.01,89.82 534.45,89.65 535.85,89.49 537.71,89.27 539.95,89.01 541.31,88.85 542.70,88.68 543.10,88.65 543.72,88.60 543.81,88.59 544.17,88.56 544.54,88.53 544.99,88.50 545.34,88.47 545.54,88.45 545.63,88.44 546.32,88.39 546.67,88.36 547.07,88.33 547.16,88.32 547.36,88.30 547.72,88.28 548.09,88.25 548.47,88.21 548.56,88.21 548.94,88.18 549.58,88.12 549.94,88.10 550.31,88.06 550.69,88.04 551.09,88.00 551.38,87.98 551.73,87.95 552.09,87.92 552.18,87.91 552.86,87.86 553.11,87.84 553.35,87.82 553.53,87.80 553.93,87.77 554.31,87.74 554.68,87.71 555.30,87.66 555.57,87.64 555.73,87.63 556.10,87.60 556.48,87.57 556.84,87.54 557.12,87.51 557.48,87.48 557.57,87.48 558.21,87.42 558.30,87.42 558.68,87.39 558.88,87.37 559.25,87.34 559.36,87.33 560.03,87.28 560.12,87.27 560.47,87.24 561.09,87.19 561.80,87.13 561.92,87.12 562.27,87.10 562.87,87.05 563.40,87.01 564.51,86.95 565.13,86.91 568.57,86.71 569.53,86.65 570.30,86.61 571.28,86.55 573.43,86.42 575.20,86.32 577.65,86.18 578.64,86.12 580.13,86.03 581.35,85.96 584.59,85.80 592.29,85.47 600.21,85.13 609.15,84.78 618.07,84.50 626.98,84.21 635.93,83.99 647.08,83.72 652.65,83.60 660.48,83.44 669.40,83.29 678.32,83.14 689.48,82.99 698.42,82.87 707.34,82.77 716.28,82.67 725.20,82.59 734.12,82.51 745.28,82.43 754.22,82.36 758.65,81.74"/>
<line x1="78" y1="266.81" x2="772" y2="266.81" stroke="#9467bd" opacity="0.18" stroke-dasharray="3 4"/>
<polyline fill="none" stroke="#9467bd" stroke-width="2.0" points="91.35,81.72 93.10,81.72 94.85,81.72 96.60,81.72 98.36,81.72 100.11,81.72 100.46,81.72 100.77,81.73 101.42,81.73 102.31,81.73 102.70,81.72 102.99,81.72 103.26,81.72 103.39,81.72 103.59,81.71 103.73,81.71 103.86,81.71 103.99,81.70 104.10,81.70 104.24,81.69 104.37,81.69 104.48,81.69 104.66,81.68 104.83,81.67 104.95,81.67 105.10,81.67 105.21,81.66 105.39,81.66 105.57,81.66 105.79,81.65 106.19,81.65 106.45,81.66 106.74,81.66 106.96,81.67 107.50,81.70 107.85,81.73 108.10,81.76 108.43,81.80 108.54,81.81 108.65,81.83 109.18,81.91 109.40,81.95 109.74,82.02 110.18,82.11 110.34,82.15 110.54,82.19 110.71,82.24 111.09,82.34 111.45,82.44 111.62,82.49 112.22,82.68 112.47,82.76 112.64,82.82 112.80,82.88 113.24,83.04 113.40,83.10 113.49,83.14 113.62,83.19 113.73,83.24 113.91,83.31 114.04,83.36 114.33,83.49 114.53,83.58 114.88,83.74 115.15,83.87 115.44,84.01 115.71,84.14 115.88,84.23 115.99,84.29 116.19,84.40 116.35,84.49 116.46,84.55 116.55,84.60 116.64,84.65 116.75,84.71 116.90,84.80 117.01,84.86 117.19,84.98 117.32,85.06 117.55,85.21 117.75,85.34 117.99,85.51 118.12,85.59 118.28,85.70 118.50,85.85 118.79,86.07 119.30,86.49 119.54,86.69 119.90,86.98 120.16,87.20 120.48,87.49 120.83,87.85 121.70,88.73 122.01,89.11 122.23,89.38 122.43,89.63 122.83,90.13 123.00,90.35 123.16,90.58 123.36,90.88 123.51,91.11 123.67,91.34 123.78,91.50 123.98,91.81 124.38,92.50 124.62,92.92 125.07,93.78 125.60,94.90 125.73,95.20 125.93,95.66 126.18,96.27 126.55,97.24 126.75,97.82 126.98,98.47 127.15,99.02 127.31,99.53 127.53,100.26 127.64,100.66 127.73,100.99 127.86,101.47 128.06,102.24 128.33,103.31 128.53,104.18 128.66,104.75 128.84,105.57 128.97,106.19 129.11,106.84 129.22,107.38 129.35,108.04 129.68,109.78 129.86,110.74 129.97,111.34 130.06,111.84 130.17,112.47 130.30,113.23 130.41,113.88 130.77,115.99 131.12,118.18 131.21,118.73 131.35,119.58 131.48,120.43 131.72,122.02 132.01,123.93 132.30,125.87 132.50,127.24 132.68,128.46 132.94,130.32 133.21,132.19 133.65,135.35 133.85,136.78 134.07,138.38 134.34,140.32 134.59,142.09 134.74,143.23 134.90,144.36 135.27,147.12 135.69,150.21 136.03,152.65 136.56,156.53 137.07,160.22 137.58,163.87 138.00,166.84 138.40,169.63 138.67,171.46 139.09,174.31 139.64,177.97 140.24,181.77 140.55,183.68 141.17,187.31 141.48,189.04 141.84,190.94 142.15,192.53 142.57,194.57 143.02,196.60 143.46,198.47 143.86,200.04 144.39,201.95 144.97,203.81 145.54,205.46 145.88,206.32 146.39,207.56 147.41,209.98 148.07,211.69 148.58,213.12 149.23,214.99 150.03,217.35 150.91,219.92 151.65,221.94 152.33,223.79 153.09,225.68 153.95,227.82 154.84,229.77 156.06,232.45 157.04,234.33 157.90,236.00 158.57,237.20 159.65,238.98 160.65,240.62 161.94,242.50 163.16,244.21 163.67,244.93 164.91,246.36 166.22,247.88 167.11,248.88 168.42,250.13 169.73,251.38 170.61,252.15 172.37,253.48 173.23,254.14 174.98,255.35 175.87,255.89 177.62,256.95 178.56,257.46 179.80,258.02 181.99,259.03 182.86,259.42 184.19,259.95 185.94,260.55 187.70,261.16 188.56,261.46 190.31,261.95 192.07,262.41 193.82,262.88 194.86,263.10 196.44,263.39 198.19,263.72 200.39,264.13 202.14,264.45 203.89,264.68 205.64,264.89 206.51,265.00 208.71,265.27 210.46,265.48 212.21,265.60 213.96,265.70 215.72,265.81 217.47,265.92 219.67,266.05 221.42,266.16 222.26,266.81"/>
<line x1="88" y1="72" x2="110" y2="72" stroke="#1f77b4" stroke-width="2.4"/>
<text x="116" y="76" font-family="Arial, sans-serif" font-size="12">rising #1</text>
<line x1="88" y1="90" x2="110" y2="90" stroke="#d62728" stroke-width="2.4"/>
<text x="116" y="94" font-family="Arial, sans-serif" font-size="12">falling #2</text>
<line x1="88" y1="108" x2="110" y2="108" stroke="#2ca02c" stroke-width="2.4"/>
<text x="116" y="112" font-family="Arial, sans-serif" font-size="12">rising #3</text>
<line x1="88" y1="126" x2="110" y2="126" stroke="#9467bd" stroke-width="2.4"/>
<text x="116" y="130" font-family="Arial, sans-serif" font-size="12">falling #4</text>
<rect x="78" y="342" width="694" height="44" fill="#fffdf7" stroke="#d8c6a1" rx="4"/>
<text x="88" y="359" font-family="Arial, sans-serif" font-size="11" font-weight="700" fill="#4b3b21">Findings needing attention</text>
<rect x="88" y="366" width="7" height="7" fill="#b54708"/>
<text x="102" y="373" font-family="Arial, sans-serif" font-size="11" fill="#333">WARN 5.5.4: Ramp dt versus V-T 20-80% evidence needs review | avg Ramp dt=1.350e-08s, avg V-T 20-80% span=8.786e-...</text>
<text x="425.00" y="322.00" text-anchor="middle" font-family="Arial, sans-serif" font-size="12">Time (s)</text>
<text x="420" y="42" font-family="Arial, sans-serif" font-size="11" fill="#555">solid=V-T voltage, faint horizontal=V_fixture</text>
</svg>