<svg xmlns="http://www.w3.org/2000/svg" width="800" height="450" viewBox="0 0 800 450">
<rect width="100%" height="100%" fill="#ffffff"/>
<text x="78" y="25" font-family="Arial, sans-serif" font-size="16" font-weight="700">E34_GPIO_1V1TO1V8_1v8_10 V-T Waveforms</text>
<rect x="78" y="54" width="694" height="230" fill="#fbfbfb" stroke="#c8c8c8"/>
<text transform="translate(18 169.00) rotate(-90)" text-anchor="middle" font-family="Arial, sans-serif" font-size="12">Voltage (V)</text>
<line x1="78.00" y1="54" x2="78.00" y2="284" stroke="#ececec"/>
<text x="78.00" y="302" text-anchor="middle" font-family="Arial, sans-serif" font-size="10">-199p</text>
<line x1="216.80" y1="54" x2="216.80" y2="284" stroke="#ececec"/>
<text x="216.80" y="302" text-anchor="middle" font-family="Arial, sans-serif" font-size="10">1.87n</text>
<line x1="355.60" y1="54" x2="355.60" y2="284" stroke="#ececec"/>
<text x="355.60" y="302" text-anchor="middle" font-family="Arial, sans-serif" font-size="10">3.93n</text>
<line x1="494.40" y1="54" x2="494.40" y2="284" stroke="#ececec"/>
<text x="494.40" y="302" text-anchor="middle" font-family="Arial, sans-serif" font-size="10">6n</text>
<line x1="633.20" y1="54" x2="633.20" y2="284" stroke="#ececec"/>
<text x="633.20" y="302" text-anchor="middle" font-family="Arial, sans-serif" font-size="10">8.06n</text>
<line x1="772.00" y1="54" x2="772.00" y2="284" stroke="#ececec"/>
<text x="772.00" y="302" text-anchor="middle" font-family="Arial, sans-serif" font-size="10">10.1n</text>
<line x1="78" y1="284.00" x2="772" y2="284.00" stroke="#ececec"/>
<text x="70" y="288.00" text-anchor="end" font-family="Arial, sans-serif" font-size="10">-0.163</text>
<line x1="78" y1="226.50" x2="772" y2="226.50" stroke="#ececec"/>
<text x="70" y="230.50" text-anchor="end" font-family="Arial, sans-serif" font-size="10">0.367</text>
<line x1="78" y1="169.00" x2="772" y2="169.00" stroke="#ececec"/>
<text x="70" y="173.00" text-anchor="end" font-family="Arial, sans-serif" font-size="10">0.897</text>
<line x1="78" y1="111.50" x2="772" y2="111.50" stroke="#ececec"/>
<text x="70" y="115.50" text-anchor="end" font-family="Arial, sans-serif" font-size="10">1.4</text>
<line x1="78" y1="54.00" x2="772" y2="54.00" stroke="#ececec"/>
<text x="70" y="58.00" text-anchor="end" font-family="Arial, sans-serif" font-size="10">2</text>
<line x1="78" y1="70.98" x2="772" y2="70.98" stroke="#1f77b4" opacity="0.18" stroke-dasharray="3 4"/>
<polyline fill="none" stroke="#1f77b4" stroke-width="2.0" points="91.35,154.04 97.46,154.04 103.58,154.04 111.17,154.04 117.29,154.03 120.38,154.03 125.29,154.03 129.52,154.03 131.67,154.03 132.21,154.03 132.55,154.03 132.88,154.03 133.29,154.03 133.69,154.03 134.16,154.03 134.77,154.03 135.24,154.03 135.64,154.03 136.04,154.04 136.38,154.04 137.05,154.04 137.59,154.04 137.99,154.03 138.60,154.03 139.07,154.03 139.74,154.03 140.28,154.03 140.75,154.03 141.22,154.03 141.82,154.03 142.36,154.03 143.03,154.02 143.44,154.02 144.11,154.02 144.78,154.02 145.19,154.01 145.92,154.01 146.53,154.02 146.93,154.02 147.60,154.04 148.28,154.07 149.15,154.16 149.69,154.24 150.16,154.32 150.43,154.37 151.03,154.47 151.37,154.51 151.91,154.51 152.44,154.42 152.98,154.19 153.52,153.81 153.92,153.41 154.33,152.90 155.00,151.80 155.54,150.65 155.87,149.82 156.34,148.47 156.88,146.69 157.22,145.44 157.89,142.66 158.36,140.51 158.83,138.21 159.57,134.35 160.04,131.79 160.64,128.40 161.12,125.72 161.52,123.41 162.06,120.34 162.59,117.32 162.93,115.48 163.60,111.92 164.27,108.56 164.81,106.05 165.55,102.87 166.16,100.44 166.49,99.18 167.10,97.08 167.70,95.10 168.24,93.50 168.78,92.03 169.65,89.91 170.73,87.60 171.60,86.02 172.07,85.20 172.68,84.22 173.82,82.58 174.49,81.69 175.36,80.64 176.31,79.59 176.71,79.16 178.12,77.83 179.06,77.08 179.67,76.60 179.94,76.41 180.20,76.23 181.28,75.53 182.02,75.10 183.30,74.48 186.05,73.51 187.13,73.24 187.60,73.13 188.87,72.87 189.82,72.70 190.56,72.60 191.63,72.45 191.90,72.41 192.50,72.34 193.24,72.27 194.12,72.17 196.47,71.98 196.87,71.95 197.61,71.91 199.70,71.79 200.50,71.75 201.58,71.70 202.32,71.66 202.86,71.64 203.59,71.61 204.74,71.57 205.01,71.56 206.35,71.51 207.49,71.48 208.84,71.44 209.11,71.44 209.64,71.42 210.18,71.41 210.92,71.39 211.19,71.39 211.53,71.38 211.93,71.37 212.53,71.36 213.54,71.34 214.42,71.32 215.22,71.31 215.76,71.30 216.63,71.29 217.44,71.28 218.11,71.27 218.92,71.26 219.79,71.25 220.40,71.24 221.20,71.23 222.08,71.22 222.82,71.21 223.42,71.21 224.23,71.20 224.97,71.19 225.64,71.19 226.51,71.18 227.12,71.17 227.59,71.17 228.26,71.17 228.87,71.16 229.88,71.16 230.88,71.15 231.69,71.14 232.63,71.14 233.77,71.13 234.78,71.13 236.13,71.12 237.81,71.11 239.82,71.10 242.58,71.09 243.18,71.09 245.60,71.08 248.29,71.08 250.24,71.07 251.65,71.07 253.33,71.06 257.84,71.06 260.93,71.05 262.74,71.05 264.56,71.05 267.05,71.04 268.26,71.04 268.99,71.04 270.34,71.04 270.74,71.04 271.28,71.04 271.75,71.04 273.23,71.04 274.64,71.04 276.19,71.03 277.06,71.03 279.28,71.03 282.30,71.03 283.85,71.03 289.97,71.03 294.54,71.02 300.05,71.02 305.22,71.02 306.77,71.02 308.79,71.02 311.34,71.02 312.95,71.02 317.46,71.01 320.08,71.01 322.36,71.01 326.60,71.01 329.69,71.01 335.27,71.01 338.83,71.01 340.38,71.01 345.75,71.01 349.52,71.01 355.63,71.01 361.75,71.01 366.66,71.01 370.89,71.00 377.01,71.00 380.10,71.00 386.22,71.00 392.33,71.00 396.90,71.00 401.47,71.00 406.05,71.00 410.62,71.00 416.73,71.00 422.58,71.00 427.42,71.00 435.08,71.00 441.20,71.00 447.32,71.00 453.43,71.00 458.00,71.00 464.12,71.00 470.24,71.00 476.35,71.00 482.47,71.00 488.59,71.00 494.63,71.00 502.30,71.00 506.87,71.00 512.98,71.00 519.10,71.00 525.22,71.00 531.33,71.00 539.00,70.99 545.11,70.99 548.07,70.98"/>
<line x1="78" y1="70.98" x2="772" y2="70.98" stroke="#d62728" opacity="0.18" stroke-dasharray="3 4"/>
<polyline fill="none" stroke="#d62728" stroke-width="2.0" points="91.35,70.98 100.29,70.98 109.23,70.98 120.38,70.99 129.32,70.99 135.10,70.99 136.31,70.99 139.34,70.98 142.70,70.98 144.11,70.98 145.25,70.98 146.40,70.98 147.07,70.98 148.21,70.98 149.55,70.98 150.29,70.98 150.90,70.98 151.77,70.98 152.31,70.99 153.18,71.00 153.92,71.01 154.39,71.01 155.20,71.03 155.74,71.04 156.21,71.05 156.95,71.05 158.02,71.01 158.63,70.95 159.57,70.81 160.31,70.68 160.91,70.56 161.99,70.38 162.80,70.26 163.47,70.18 164.41,70.09 165.15,70.03 165.75,69.99 166.90,69.94 167.43,69.92 167.77,69.90 168.04,69.90 168.37,69.89 169.11,69.87 169.92,69.86 170.59,69.87 171.33,69.88 171.87,69.91 172.68,69.97 173.62,70.08 174.22,70.18 174.76,70.30 175.70,70.55 176.78,70.95 177.65,71.35 178.39,71.76 178.99,72.14 179.80,72.71 180.61,73.37 181.21,73.91 182.29,75.03 182.89,75.74 183.36,76.33 184.04,77.24 185.04,78.72 185.58,79.59 185.92,80.14 186.72,81.54 187.26,82.54 187.80,83.56 189.35,86.69 189.75,87.53 190.15,88.39 190.69,89.54 191.03,90.26 191.76,91.88 193.24,95.12 194.59,98.06 195.60,100.26 196.34,101.84 197.55,104.41 198.35,106.08 199.16,107.73 200.23,109.90 200.70,110.81 201.71,112.77 202.92,115.03 204.47,117.84 205.48,119.58 207.43,122.85 208.23,124.14 209.58,126.23 210.79,128.03 212.47,130.40 213.74,132.10 214.69,133.29 215.69,134.51 216.63,135.59 217.58,136.63 219.39,138.48 220.73,139.74 221.74,140.61 224.03,142.41 225.84,143.65 227.72,144.77 229.34,145.62 231.15,146.47 233.24,147.30 234.45,147.73 236.40,148.35 239.02,149.06 240.90,149.51 242.38,149.83 243.12,149.98 243.99,150.15 246.54,150.62 248.76,150.99 250.65,151.27 251.25,151.36 252.06,151.47 254.21,151.74 256.43,151.98 257.43,152.07 259.38,152.24 259.99,152.29 261.26,152.39 262.14,152.46 263.01,152.52 264.02,152.59 266.31,152.71 268.46,152.82 270.47,152.92 272.42,153.01 273.50,153.06 274.37,153.09 275.92,153.14 277.33,153.20 278.20,153.23 279.08,153.25 279.95,153.27 280.76,153.29 281.83,153.32 282.44,153.33 283.58,153.36 283.92,153.37 284.39,153.38 285.46,153.41 286.13,153.42 286.94,153.44 287.75,153.46 289.09,153.49 289.83,153.51 291.38,153.53 292.12,153.54 293.19,153.56 295.14,153.59 296.75,153.62 297.56,153.64 299.78,153.66 302.80,153.69 305.63,153.72 307.84,153.75 311.07,153.78 315.10,153.80 317.79,153.82 320.35,153.84 323.84,153.86 326.66,153.87 330.16,153.88 330.97,153.88 334.66,153.90 338.09,153.91 341.52,153.92 344.21,153.93 349.25,153.94 350.39,153.94 354.36,153.95 361.41,153.97 362.96,153.97 363.83,153.97 364.91,153.97 365.65,153.97 369.08,153.98 373.65,153.98 379.29,153.98 383.80,153.99 387.09,153.99 389.31,153.99 394.35,154.00 397.11,154.00 400.20,154.00 402.08,154.00 403.49,154.00 404.30,154.00 406.45,154.00 406.85,154.00 407.39,154.00 408.20,154.00 409.00,154.00 410.55,154.01 412.77,154.01 416.33,154.01 418.41,154.01 420.90,154.01 430.65,154.01 437.30,154.01 446.24,154.01 455.18,154.02 464.12,154.02 472.99,154.02 484.15,154.02 493.09,154.02 502.03,154.02 510.97,154.02 519.91,154.02 531.06,154.02 540.00,154.02 548.94,154.02 557.82,154.02 566.76,154.02 575.70,154.02 586.85,154.02 595.79,154.03 604.73,154.03 613.67,154.03 622.54,154.03 631.48,154.03 642.64,154.03 651.58,154.03 660.52,154.03 669.46,154.03 678.40,154.03 689.56,154.03 698.43,154.03 707.37,154.03 716.31,154.03 725.25,154.03 734.19,154.03 745.35,154.03 754.28,154.03 758.65,154.04"/>
<line x1="78" y1="266.27" x2="772" y2="266.27" stroke="#2ca02c" opacity="0.18" stroke-dasharray="3 4"/>
<polyline fill="none" stroke="#2ca02c" stroke-width="2.0" points="91.35,266.27 99.34,266.27 107.28,266.27 117.22,266.27 125.22,266.26 129.79,266.27 130.13,266.27 130.40,266.27 130.67,266.27 131.00,266.27 131.34,266.27 131.61,266.27 132.15,266.27 132.62,266.27 133.36,266.27 135.24,266.27 137.05,266.27 138.53,266.27 140.14,266.27 141.02,266.27 141.96,266.27 142.97,266.28 143.37,266.28 144.04,266.28 144.85,266.27 145.66,266.27 146.60,266.27 147.47,266.25 148.01,266.25 148.68,266.23 149.35,266.22 149.82,266.22 150.29,266.24 150.63,266.25 151.17,266.29 151.64,266.33 152.11,266.39 152.78,266.46 153.65,266.57 154.26,266.63 154.93,266.70 155.81,266.80 156.61,266.90 157.08,266.96 157.96,267.07 158.49,267.15 159.17,267.24 159.70,267.31 160.38,267.41 160.78,267.47 161.18,267.53 161.59,267.59 162.06,267.66 162.53,267.73 162.93,267.79 163.27,267.83 163.67,267.89 164.07,267.94 164.48,268.00 165.08,268.06 165.69,268.10 166.09,268.13 166.49,268.14 167.10,268.13 167.77,268.10 168.24,268.05 168.78,267.97 169.05,267.93 169.45,267.84 169.72,267.79 170.19,267.66 170.66,267.50 171.26,267.28 172.14,266.87 173.01,266.36 173.82,265.80 175.03,264.75 176.10,263.63 176.78,262.82 177.25,262.21 178.46,260.47 179.33,259.04 180.14,257.63 181.08,255.84 181.95,254.09 183.03,251.81 184.04,249.56 184.98,247.39 185.85,245.34 186.93,242.77 187.66,240.99 188.54,238.87 189.61,236.27 190.76,233.52 191.36,232.08 192.24,230.04 193.45,227.22 194.86,224.08 195.66,222.29 196.40,220.74 197.61,218.22 198.89,215.66 199.90,213.68 200.97,211.67 201.98,209.83 202.72,208.54 203.33,207.51 204.40,205.75 205.48,204.09 206.22,203.01 206.75,202.25 207.49,201.24 207.96,200.63 208.50,199.95 209.44,198.82 210.38,197.77 211.26,196.85 212.27,195.88 213.27,194.97 214.35,194.09 215.63,193.14 216.97,192.25 218.65,191.27 220.00,190.60 221.00,190.13 222.89,189.35 224.83,188.66 226.58,188.10 227.79,187.76 228.87,187.47 229.74,187.26 231.09,186.95 231.56,186.85 232.83,186.60 233.64,186.44 234.85,186.24 236.13,186.05 237.61,185.85 239.96,185.56 241.23,185.42 243.39,185.21 245.54,185.02 248.16,184.83 249.50,184.74 250.78,184.66 253.20,184.53 254.48,184.46 255.69,184.41 257.97,184.31 258.91,184.28 260.73,184.22 262.14,184.17 263.42,184.14 264.89,184.10 266.44,184.07 267.52,184.04 268.86,184.01 270.20,183.98 272.22,183.94 274.71,183.90 276.46,183.87 278.07,183.85 278.74,183.85 280.35,183.83 281.70,183.82 282.98,183.80 284.66,183.78 286.27,183.77 288.08,183.75 289.29,183.74 292.45,183.72 294.13,183.71 296.49,183.69 298.57,183.68 301.19,183.67 302.60,183.66 305.49,183.65 307.71,183.64 310.06,183.63 311.27,183.63 313.89,183.62 316.52,183.61 318.67,183.61 320.55,183.60 323.37,183.60 325.86,183.59 328.48,183.59 331.44,183.58 333.39,183.58 336.48,183.58 338.43,183.57 341.05,183.57 344.41,183.57 346.76,183.57 349.59,183.56 354.42,183.56 356.64,183.56 362.22,183.55 368.34,183.55 371.09,183.55 377.41,183.55 382.32,183.54 386.28,183.54 394.28,183.54 402.21,183.54 408.20,183.53 416.19,183.53 424.13,183.53 432.12,183.53 442.07,183.53 450.07,183.53 458.00,183.53 466.00,183.53 474.00,183.53 483.95,183.52 491.88,183.52 499.88,183.52 507.88,183.52 515.81,183.52 523.81,183.52 533.75,183.52 541.75,183.52 549.68,183.52 557.68,183.52 565.61,183.52 573.61,183.52 583.56,183.52 591.56,183.52 599.49,183.52 607.49,183.52 615.49,183.52 625.43,183.52 633.37,183.52 641.36,183.52 649.36,183.52 657.29,183.52 665.29,183.52 675.24,183.52 683.24,183.52 687.14,183.51"/>
<line x1="78" y1="266.27" x2="772" y2="266.27" stroke="#9467bd" opacity="0.18" stroke-dasharray="3 4"/>
<polyline fill="none" stroke="#9467bd" stroke-width="2.0" points="91.35,183.51 96.66,183.51 101.90,183.51 108.49,183.51 113.80,183.51 119.11,183.51 124.35,183.51 129.66,183.51 133.29,183.51 133.62,183.51 133.89,183.51 134.16,183.51 134.43,183.51 134.70,183.51 135.04,183.51 135.30,183.51 135.57,183.51 135.84,183.51 136.11,183.51 136.51,183.51 136.85,183.51 137.12,183.51 137.39,183.51 137.72,183.51 138.06,183.51 138.33,183.51 138.73,183.51 139.07,183.51 139.40,183.51 139.74,183.51 140.08,183.51 140.61,183.51 141.09,183.51 141.69,183.51 142.16,183.51 142.56,183.51 142.83,183.51 143.17,183.51 143.44,183.51 143.98,183.51 144.65,183.51 145.25,183.51 145.99,183.51 146.53,183.52 147.00,183.52 147.60,183.52 148.34,183.52 148.88,183.52 149.62,183.52 150.23,183.52 150.76,183.53 151.23,183.53 151.84,183.53 152.44,183.53 152.91,183.53 153.39,183.53 153.79,183.53 154.19,183.53 154.53,183.52 154.93,183.51 155.33,183.50 155.60,183.49 155.87,183.48 156.14,183.47 156.54,183.44 156.81,183.42 157.08,183.40 157.35,183.37 157.75,183.32 158.22,183.27 158.63,183.22 158.90,183.19 159.23,183.17 159.64,183.17 160.04,183.19 160.38,183.23 160.78,183.32 161.18,183.44 161.52,183.59 162.06,183.88 162.66,184.34 163.47,185.11 164.14,185.90 164.88,186.93 165.28,187.55 165.95,188.69 166.63,189.96 167.37,191.51 167.90,192.72 168.44,193.99 169.18,195.85 169.65,197.10 170.26,198.76 170.73,200.10 171.26,201.66 171.67,202.87 172.14,204.30 172.54,205.55 173.21,207.67 173.68,209.17 174.09,210.47 174.63,212.23 175.10,213.78 175.57,215.34 176.31,217.81 176.84,219.62 177.31,221.20 177.92,223.25 178.52,225.31 179.46,228.50 180.07,230.55 180.88,233.28 181.28,234.64 181.62,235.77 182.29,238.01 182.83,239.77 183.77,242.78 184.44,244.83 184.84,246.04 185.51,247.94 186.52,250.55 187.46,252.76 188.34,254.59 189.35,256.45 190.89,258.73 192.44,260.49 194.52,262.12 195.66,262.83 197.01,263.51 198.49,264.09 200.44,264.62 203.12,265.09 204.94,265.31 205.54,265.37 206.28,265.43 206.82,265.47 207.76,265.55 208.37,265.59 208.84,265.62 209.71,265.67 210.25,265.70 210.79,265.73 211.59,265.77 212.87,265.82 213.14,265.83 213.81,265.85 214.35,265.87 214.89,265.89 215.49,265.90 216.10,265.92 216.70,265.93 217.37,265.95 217.91,265.96 218.65,265.98 219.52,265.99 220.60,266.01 221.41,266.02 222.21,266.04 223.42,266.05 224.50,266.06 225.37,266.07 226.31,266.08 227.32,266.09 228.26,266.10 229.27,266.11 230.14,266.11 231.29,266.12 232.50,266.13 233.17,266.13 234.24,266.14 235.25,266.14 236.33,266.15 237.34,266.15 238.14,266.16 239.35,266.16 240.16,266.16 241.37,266.17 242.51,266.17 243.45,266.17 244.53,266.18 245.74,266.18 247.28,266.19 248.49,266.19 249.77,266.19 251.12,266.19 252.80,266.20 253.87,266.20 255.28,266.20 257.03,266.20 259.05,266.21 260.12,266.21 262.07,266.21 264.36,266.21 265.63,266.22 268.19,266.22 271.35,266.22 274.30,266.22 277.53,266.23 281.29,266.23 284.12,266.23 285.46,266.23 288.62,266.23 293.39,266.24 297.36,266.24 299.98,266.24 304.69,266.24 307.91,266.24 311.88,266.24 317.12,266.25 323.77,266.25 329.02,266.25 334.33,266.25 339.57,266.25 344.88,266.25 351.47,266.25 356.78,266.25 362.02,266.26 367.33,266.26 372.57,266.26 377.88,266.26 384.47,266.26 389.78,266.26 395.02,266.26 400.33,266.26 405.64,266.26 410.88,266.26 417.47,266.26 422.78,266.26 428.09,266.26 433.33,266.26 438.64,266.26 445.23,266.26 450.54,266.26 455.78,266.26 461.09,266.26 466.34,266.26 471.65,266.26 478.23,266.26 483.54,266.26 486.10,266.27"/>
<line x1="88" y1="72" x2="110" y2="72" stroke="#1f77b4" stroke-width="2.4"/>
<text x="116" y="76" font-family="Arial, sans-serif" font-size="12">rising #1</text>
<line x1="88" y1="90" x2="110" y2="90" stroke="#d62728" stroke-width="2.4"/>
<text x="116" y="94" font-family="Arial, sans-serif" font-size="12">falling #2</text>
<line x1="88" y1="108" x2="110" y2="108" stroke="#2ca02c" stroke-width="2.4"/>
<text x="116" y="112" font-family="Arial, sans-serif" font-size="12">rising #3</text>
<line x1="88" y1="126" x2="110" y2="126" stroke="#9467bd" stroke-width="2.4"/>
<text x="116" y="130" font-family="Arial, sans-serif" font-size="12">falling #4</text>
<rect x="78" y="342" width="694" height="44" fill="#fffdf7" stroke="#d8c6a1" rx="4"/>
<text x="88" y="359" font-family="Arial, sans-serif" font-size="11" font-weight="700" fill="#4b3b21">Findings needing attention</text>
<rect x="88" y="366" width="7" height="7" fill="#b54708"/>
<text x="102" y="373" font-family="Arial, sans-serif" font-size="11" fill="#333">WARN 5.5.4: Ramp dt versus V-T 20-80% evidence needs review | avg Ramp dt=3.943e-10s, avg V-T 20-80% span=2.984e-...</text>
<text x="425.00" y="322.00" text-anchor="middle" font-family="Arial, sans-serif" font-size="12">Time (s)</text>
<text x="420" y="42" font-family="Arial, sans-serif" font-size="11" fill="#555">solid=V-T voltage, faint horizontal=V_fixture</text>
</svg>