<svg xmlns="http://www.w3.org/2000/svg" width="800" height="450" viewBox="0 0 800 450">
<rect width="100%" height="100%" fill="#ffffff"/>
<text x="78" y="25" font-family="Arial, sans-serif" font-size="16" font-weight="700">E34_GPIO_I3C_I2C_SLV_1V2_00 V-T Waveforms</text>
<rect x="78" y="54" width="694" height="230" fill="#fbfbfb" stroke="#c8c8c8"/>
<text transform="translate(18 169.00) rotate(-90)" text-anchor="middle" font-family="Arial, sans-serif" font-size="12">Voltage (V)</text>
<line x1="78.00" y1="54" x2="78.00" y2="284" stroke="#ececec"/>
<text x="78.00" y="302" text-anchor="middle" font-family="Arial, sans-serif" font-size="10">-162p</text>
<line x1="216.80" y1="54" x2="216.80" y2="284" stroke="#ececec"/>
<text x="216.80" y="302" text-anchor="middle" font-family="Arial, sans-serif" font-size="10">1.52n</text>
<line x1="355.60" y1="54" x2="355.60" y2="284" stroke="#ececec"/>
<text x="355.60" y="302" text-anchor="middle" font-family="Arial, sans-serif" font-size="10">3.2n</text>
<line x1="494.40" y1="54" x2="494.40" y2="284" stroke="#ececec"/>
<text x="494.40" y="302" text-anchor="middle" font-family="Arial, sans-serif" font-size="10">4.88n</text>
<line x1="633.20" y1="54" x2="633.20" y2="284" stroke="#ececec"/>
<text x="633.20" y="302" text-anchor="middle" font-family="Arial, sans-serif" font-size="10">6.57n</text>
<line x1="772.00" y1="54" x2="772.00" y2="284" stroke="#ececec"/>
<text x="772.00" y="302" text-anchor="middle" font-family="Arial, sans-serif" font-size="10">8.25n</text>
<line x1="78" y1="284.00" x2="772" y2="284.00" stroke="#ececec"/>
<text x="70" y="288.00" text-anchor="end" font-family="Arial, sans-serif" font-size="10">-0.102</text>
<line x1="78" y1="226.50" x2="772" y2="226.50" stroke="#ececec"/>
<text x="70" y="230.50" text-anchor="end" font-family="Arial, sans-serif" font-size="10">0.249</text>
<line x1="78" y1="169.00" x2="772" y2="169.00" stroke="#ececec"/>
<text x="70" y="173.00" text-anchor="end" font-family="Arial, sans-serif" font-size="10">0.6</text>
<line x1="78" y1="111.50" x2="772" y2="111.50" stroke="#ececec"/>
<text x="70" y="115.50" text-anchor="end" font-family="Arial, sans-serif" font-size="10">0.952</text>
<line x1="78" y1="54.00" x2="772" y2="54.00" stroke="#ececec"/>
<text x="70" y="58.00" text-anchor="end" font-family="Arial, sans-serif" font-size="10">1.3</text>
<line x1="78" y1="70.83" x2="772" y2="70.83" stroke="#1f77b4" opacity="0.18" stroke-dasharray="3 4"/>
<polyline fill="none" stroke="#1f77b4" stroke-width="2.0" points="91.35,115.17 96.30,115.17 101.17,115.17 107.27,115.17 112.22,115.17 117.09,115.18 122.04,115.18 125.76,115.17 129.22,115.14 130.21,115.13 131.20,115.13 132.11,115.12 133.18,115.11 134.17,115.10 135.08,115.09 136.07,115.08 136.90,115.08 138.05,115.09 138.96,115.10 139.37,115.10 140.44,115.13 141.19,115.17 141.85,115.20 142.51,115.24 143.08,115.29 143.83,115.35 144.49,115.42 145.15,115.50 145.72,115.58 146.38,115.67 146.96,115.75 147.70,115.87 148.36,115.99 148.94,116.09 149.44,116.18 150.02,116.29 150.51,116.39 151.50,116.58 152.00,116.67 152.82,116.82 153.32,116.91 153.73,116.99 154.55,117.12 155.30,117.23 156.12,117.33 156.70,117.38 157.28,117.42 158.02,117.44 159.42,117.35 159.92,117.28 160.33,117.21 161.15,117.01 161.98,116.73 163.47,116.02 164.21,115.57 165.20,114.87 166.35,113.90 167.51,112.77 168.42,111.80 169.74,110.21 170.89,108.68 171.63,107.64 172.54,106.34 173.37,105.09 174.36,103.57 174.85,102.78 175.35,101.99 175.76,101.33 176.26,100.53 176.92,99.45 177.58,98.37 178.48,96.89 179.31,95.54 180.13,94.20 181.04,92.76 181.54,91.98 182.86,89.95 183.52,88.98 184.26,87.89 184.92,86.92 185.83,85.73 186.90,84.31 187.56,83.49 187.89,83.09 188.47,82.40 189.54,81.20 190.61,80.10 191.93,78.89 193.25,77.83 194.57,76.91 194.99,76.64 195.48,76.34 196.55,75.75 197.05,75.51 198.95,74.67 199.28,74.54 200.43,74.13 200.93,73.97 202.25,73.60 203.07,73.39 204.15,73.14 206.37,72.69 208.02,72.43 209.67,72.21 211.65,72.00 214.13,71.80 216.61,71.63 219.25,71.50 222.22,71.37 223.95,71.31 226.26,71.25 227.42,71.21 228.90,71.18 231.29,71.13 233.27,71.10 235.34,71.07 236.90,71.05 238.22,71.03 238.80,71.03 240.45,71.01 241.11,71.00 242.19,71.00 242.60,70.99 244.00,70.98 245.24,70.98 246.39,70.97 248.70,70.95 249.69,70.95 250.93,70.94 252.58,70.94 254.07,70.93 256.05,70.93 257.29,70.92 259.43,70.92 260.50,70.91 261.99,70.91 262.98,70.91 264.38,70.90 265.70,70.90 266.94,70.90 268.51,70.89 270.32,70.89 271.81,70.89 273.54,70.89 274.45,70.89 275.52,70.88 276.18,70.88 276.84,70.88 278.41,70.88 279.81,70.88 281.22,70.88 282.37,70.88 283.20,70.88 284.10,70.88 284.52,70.88 285.51,70.88 286.58,70.87 287.57,70.87 288.56,70.87 289.96,70.87 290.95,70.87 292.03,70.87 293.51,70.87 294.58,70.87 295.33,70.87 296.40,70.87 297.64,70.87 298.96,70.87 300.11,70.87 301.27,70.87 303.74,70.86 307.04,70.86 309.52,70.86 311.09,70.86 313.07,70.86 314.63,70.86 316.70,70.86 320.91,70.86 322.47,70.86 323.38,70.86 324.62,70.86 325.69,70.86 326.02,70.86 327.18,70.86 328.00,70.86 329.90,70.86 331.72,70.85 333.78,70.85 335.18,70.85 336.83,70.85 337.99,70.85 338.73,70.85 340.38,70.85 341.37,70.85 341.87,70.85 343.68,70.85 344.59,70.85 345.74,70.85 347.39,70.85 348.55,70.85 349.46,70.85 350.45,70.85 351.68,70.85 354.41,70.85 357.13,70.85 358.20,70.85 360.10,70.85 361.50,70.85 362.33,70.85 363.90,70.85 365.05,70.85 365.88,70.85 368.35,70.85 370.09,70.85 371.32,70.85 372.48,70.85 375.28,70.85 377.51,70.85 379.90,70.85 381.72,70.85 383.87,70.85 386.75,70.85 389.72,70.85 392.61,70.85 395.50,70.85 398.31,70.85 404.41,70.85 409.36,70.85 412.99,70.84 415.47,70.84 419.10,70.84 422.81,70.84 427.76,70.84 431.48,70.84 436.35,70.84 440.06,70.84 444.93,70.84 451.12,70.84 455.98,70.84 458.38,70.84"/>
<line x1="78" y1="70.83" x2="772" y2="70.83" stroke="#d62728" opacity="0.18" stroke-dasharray="3 4"/>
<polyline fill="none" stroke="#d62728" stroke-width="2.0" points="91.35,70.83 100.26,70.83 109.17,70.83 115.94,70.83 117.50,70.83 122.62,70.83 127.16,70.84 127.65,70.84 129.55,70.84 131.53,70.84 132.93,70.83 133.76,70.83 135.90,70.83 138.88,70.83 140.20,70.82 141.52,70.82 143.17,70.82 146.22,70.82 147.13,70.82 150.26,70.82 152.41,70.83 154.22,70.84 155.05,70.85 156.04,70.87 157.69,70.90 158.43,70.92 159.42,70.94 160.25,70.96 160.82,70.97 161.32,70.99 161.81,71.00 162.64,71.02 163.22,71.03 163.88,71.05 164.62,71.06 165.28,71.08 166.35,71.10 167.26,71.11 168.17,71.13 169.16,71.14 169.90,71.15 170.64,71.15 171.88,71.15 172.54,71.15 173.53,71.14 174.19,71.13 175.10,71.11 175.51,71.10 176.34,71.07 177.16,71.04 177.91,71.00 178.57,70.97 179.14,70.94 180.46,70.86 181.21,70.81 181.70,70.78 182.61,70.72 183.02,70.70 183.76,70.65 185.25,70.55 186.90,70.44 187.56,70.40 189.29,70.30 190.53,70.23 191.77,70.17 192.84,70.12 194.24,70.06 195.65,70.01 196.22,69.99 197.05,69.96 198.12,69.93 198.86,69.91 201.18,69.87 202.50,69.86 203.65,69.87 205.22,69.90 206.62,69.97 207.53,70.04 208.60,70.16 209.76,70.34 211.32,70.68 212.48,71.00 213.22,71.25 214.30,71.67 215.20,72.08 216.44,72.71 217.35,73.24 218.83,74.19 220.24,75.20 221.47,76.17 222.05,76.64 222.96,77.41 223.87,78.20 224.36,78.64 225.68,79.86 226.59,80.72 227.42,81.51 227.83,81.90 228.65,82.70 229.31,83.34 230.06,84.06 231.21,85.16 231.95,85.87 233.60,87.43 234.92,88.66 236.08,89.71 236.66,90.22 237.65,91.10 238.14,91.54 238.97,92.19 239.96,92.98 240.45,93.37 241.69,94.35 242.93,95.34 243.42,95.70 244.08,96.18 245.16,96.95 245.90,97.49 246.89,98.16 247.96,98.84 249.45,99.79 250.11,100.21 251.84,101.14 252.91,101.69 254.32,102.41 255.88,103.22 257.12,103.83 258.52,104.42 259.76,104.94 260.92,105.42 262.48,106.07 264.13,106.56 267.19,107.47 268.67,107.91 270.65,108.50 273.79,109.30 275.69,109.73 281.05,110.79 282.95,111.09 285.51,111.50 286.83,111.71 288.64,111.95 293.68,112.45 296.32,112.72 298.96,112.98 300.03,113.09 301.27,113.16 304.73,113.36 309.93,113.67 312.32,113.81 315.79,113.97 316.78,114.00 318.18,114.05 320.49,114.12 322.47,114.18 325.44,114.27 326.85,114.31 328.33,114.35 332.38,114.48 334.93,114.53 336.25,114.55 337.74,114.58 339.14,114.60 340.71,114.62 342.69,114.65 343.19,114.66 344.51,114.68 346.98,114.72 347.72,114.73 349.29,114.75 351.68,114.79 354.08,114.82 356.14,114.84 358.04,114.85 360.35,114.86 362.74,114.87 364.23,114.88 365.63,114.89 366.04,114.89 367.61,114.90 368.11,114.91 369.10,114.91 369.59,114.92 370.83,114.92 371.90,114.93 372.56,114.93 373.96,114.94 376.03,114.95 377.02,114.96 379.24,114.97 381.56,114.99 384.28,115.00 388.24,115.02 391.62,115.03 395.09,115.04 398.88,115.05 403.09,115.07 406.15,115.07 411.26,115.09 415.06,115.09 421.82,115.10 427.27,115.11 432.88,115.12 439.56,115.12 446.25,115.13 452.93,115.13 460.36,115.14 468.53,115.14 475.29,115.14 486.43,115.15 495.34,115.15 504.26,115.15 513.17,115.15 519.93,115.15 531.07,115.16 539.99,115.16 548.90,115.16 557.81,115.16 566.80,115.16 575.72,115.16 586.86,115.16 595.77,115.16 604.76,115.16 613.67,115.16 622.58,115.16 631.50,115.16 642.64,115.16 651.63,115.17 660.54,115.17 669.45,115.17 678.37,115.17 689.51,115.17 698.50,115.17 707.41,115.17 716.32,115.17 725.23,115.17 734.15,115.17 745.37,115.17 754.28,115.17 758.65,115.17"/>
<line x1="78" y1="267.23" x2="772" y2="267.23" stroke="#2ca02c" opacity="0.18" stroke-dasharray="3 4"/>
<polyline fill="none" stroke="#2ca02c" stroke-width="2.0" points="91.35,267.23 99.35,267.23 107.44,267.23 116.18,267.23 116.84,267.23 117.75,267.23 118.49,267.23 118.99,267.23 119.48,267.23 120.39,267.23 121.79,267.24 122.70,267.24 123.44,267.24 123.94,267.24 124.35,267.24 124.68,267.24 125.26,267.24 125.59,267.25 125.92,267.25 126.25,267.25 126.66,267.25 126.99,267.25 127.32,267.25 127.65,267.25 127.98,267.25 128.31,267.25 128.73,267.25 129.14,267.25 129.55,267.25 129.96,267.25 130.46,267.25 131.53,267.25 134.01,267.25 135.33,267.24 136.15,267.24 136.98,267.23 137.89,267.22 138.79,267.21 139.62,267.19 140.86,267.16 142.34,267.11 144.49,267.04 145.39,267.01 146.30,266.98 146.96,266.97 147.54,266.96 147.87,266.95 148.20,266.94 148.69,266.93 149.02,266.93 149.35,266.92 149.69,266.92 150.10,266.92 150.51,266.91 151.01,266.91 151.42,266.91 151.83,266.91 152.57,266.91 153.15,266.91 153.73,266.92 154.39,266.93 155.05,266.95 155.71,266.97 156.12,266.99 156.70,267.02 157.28,267.05 157.77,267.08 158.68,267.14 159.42,267.20 160.00,267.25 160.99,267.33 161.98,267.41 162.72,267.47 163.47,267.53 164.37,267.61 165.69,267.71 166.60,267.77 167.67,267.84 168.99,267.92 169.65,267.96 170.48,268.00 171.72,268.06 172.95,268.10 174.60,268.13 175.60,268.14 176.67,268.08 177.99,268.01 180.22,267.62 181.37,267.34 183.19,266.74 183.68,266.53 185.58,265.61 187.15,264.66 187.97,264.10 188.39,263.81 189.13,263.26 189.79,262.75 190.61,262.07 191.85,260.98 192.68,260.23 193.42,259.52 194.24,258.72 194.99,257.99 196.31,256.67 197.21,255.76 197.87,255.10 198.78,254.18 199.44,253.52 200.02,252.95 201.42,251.58 202.25,250.79 203.40,249.70 204.15,249.02 204.97,248.27 205.88,247.46 206.95,246.53 207.86,245.77 208.44,245.31 209.26,244.65 210.83,243.48 211.90,242.71 213.64,241.54 215.04,240.71 215.86,240.23 217.35,239.37 219.00,238.51 220.32,237.85 222.30,236.99 224.20,236.18 226.92,235.17 227.75,234.87 231.13,233.82 232.28,233.51 234.51,232.93 236.00,232.58 237.15,232.33 238.64,232.01 240.21,231.72 242.43,231.32 243.51,231.15 245.16,230.90 246.48,230.70 252.09,230.10 253.90,229.91 256.63,229.69 258.11,229.58 260.34,229.40 263.89,229.23 266.94,229.09 271.07,228.90 273.29,228.79 278.25,228.64 281.96,228.53 284.27,228.46 288.23,228.41 290.95,228.37 294.75,228.31 298.05,228.26 299.53,228.24 301.84,228.20 303.74,228.18 304.90,228.16 306.38,228.14 307.79,228.13 309.85,228.11 310.92,228.10 313.23,228.08 314.55,228.07 316.37,228.06 318.43,228.04 319.92,228.03 321.24,228.02 323.13,228.00 324.04,228.00 325.28,227.99 326.93,227.99 328.74,227.98 330.56,227.97 332.46,227.96 334.52,227.96 336.67,227.95 339.14,227.94 341.29,227.93 343.43,227.92 346.57,227.91 348.55,227.90 350.36,227.89 352.59,227.89 354.41,227.88 355.15,227.88 357.63,227.87 359.44,227.87 362.91,227.86 365.79,227.85 369.01,227.84 372.64,227.83 377.18,227.82 380.73,227.82 386.75,227.81 391.29,227.80 394.84,227.80 400.78,227.79 404.82,227.79 412.83,227.77 417.37,227.77 422.90,227.76 430.90,227.76 435.19,227.75 442.95,227.75 449.05,227.74 457.06,227.74 463.08,227.73 469.10,227.73 477.11,227.73 487.18,227.72 495.26,227.72 503.27,227.72 511.27,227.71 519.36,227.71 527.36,227.71 537.43,227.70 545.43,227.70 553.52,227.70 561.52,227.70 569.61,227.69 577.61,227.69 587.68,227.69 595.68,227.69 603.77,227.69 611.78,227.69 619.78,227.69 629.85,227.68 637.93,227.68 645.94,227.68 653.94,227.68 662.03,227.68 670.03,227.68 680.10,227.68 688.10,227.68 692.06,227.67"/>
<line x1="78" y1="267.23" x2="772" y2="267.23" stroke="#9467bd" opacity="0.18" stroke-dasharray="3 4"/>
<polyline fill="none" stroke="#9467bd" stroke-width="2.0" points="91.35,227.67 96.71,227.67 101.99,227.67 108.67,227.66 113.96,227.67 119.32,227.67 124.60,227.67 127.65,227.66 128.64,227.66 129.55,227.66 129.96,227.66 130.38,227.66 131.12,227.66 131.45,227.66 132.11,227.66 132.69,227.66 133.18,227.66 133.68,227.66 134.01,227.66 134.34,227.66 134.83,227.66 135.16,227.66 135.66,227.66 136.56,227.66 137.14,227.66 137.47,227.66 137.89,227.66 138.22,227.66 138.55,227.66 138.88,227.66 139.21,227.66 139.95,227.67 140.44,227.67 141.02,227.67 141.68,227.67 142.18,227.67 142.75,227.68 144.16,227.68 144.98,227.69 145.72,227.69 146.38,227.69 147.21,227.70 148.20,227.70 148.94,227.70 149.93,227.71 150.84,227.71 151.50,227.72 152.57,227.72 153.56,227.72 154.31,227.73 154.97,227.73 155.63,227.73 156.20,227.72 156.86,227.72 157.36,227.72 157.77,227.71 158.18,227.71 158.60,227.70 159.01,227.69 159.50,227.68 159.83,227.67 160.49,227.65 160.99,227.64 161.48,227.62 162.14,227.59 162.56,227.57 163.14,227.54 163.63,227.51 163.96,227.49 164.29,227.47 164.70,227.44 165.03,227.42 165.45,227.39 165.86,227.35 166.44,227.31 167.01,227.26 168.09,227.15 169.16,227.05 169.98,226.96 170.89,226.87 171.47,226.81 172.46,226.73 173.37,226.66 174.19,226.63 175.02,226.63 175.68,226.65 176.67,226.73 178.15,226.99 178.65,227.11 179.80,227.47 180.88,227.91 181.62,228.25 182.86,228.95 183.68,229.47 184.51,230.04 185.50,230.79 186.07,231.27 187.15,232.19 188.47,233.42 189.29,234.24 189.79,234.74 190.70,235.69 191.77,236.85 192.76,237.96 193.83,239.19 195.07,240.63 196.14,241.89 196.97,242.86 197.96,244.04 199.19,245.49 200.18,246.65 200.76,247.31 202.25,249.00 203.16,250.01 204.06,251.00 204.81,251.79 205.80,252.83 206.62,253.66 207.36,254.39 208.35,255.33 208.93,255.86 209.84,256.66 210.66,257.35 211.32,257.88 212.15,258.52 212.64,258.89 213.88,259.75 214.38,260.07 215.45,260.73 216.28,261.20 216.94,261.56 218.50,262.32 219.58,262.78 220.57,263.17 221.56,263.52 221.97,263.66 222.71,263.90 223.70,264.20 224.44,264.40 225.52,264.66 226.43,264.86 228.16,265.19 230.72,265.58 231.62,265.71 232.45,265.80 233.77,265.95 235.09,266.08 236.41,266.19 237.65,266.29 238.88,266.37 239.79,266.42 241.77,266.53 242.68,266.57 245.24,266.68 247.05,266.74 249.78,266.82 251.43,266.86 252.42,266.88 254.32,266.92 255.64,266.94 257.45,266.97 258.11,266.98 260.42,267.01 261.74,267.02 263.72,267.04 265.79,267.06 268.34,267.07 269.66,267.08 270.98,267.09 272.55,267.10 274.12,267.11 275.36,267.11 276.92,267.12 278.82,267.12 279.90,267.13 281.22,267.13 283.03,267.14 284.02,267.14 285.34,267.15 286.74,267.15 287.73,267.15 289.30,267.16 290.87,267.16 292.36,267.16 292.93,267.16 294.50,267.16 296.07,267.17 297.64,267.17 299.20,267.17 300.36,267.17 301.84,267.18 303.25,267.18 304.65,267.18 306.96,267.18 308.28,267.18 310.34,267.18 311.75,267.19 313.64,267.19 316.29,267.19 318.10,267.19 320.41,267.19 322.97,267.19 324.29,267.19 328.00,267.20 329.57,267.20 333.12,267.20 335.76,267.20 338.23,267.20 341.62,267.20 344.26,267.20 347.39,267.20 351.27,267.21 354.90,267.21 358.86,267.21 364.23,267.21 366.62,267.21 370.83,267.21 373.55,267.21 378.34,267.21 382.38,267.21 386.84,267.21 392.12,267.21 397.48,267.22 402.84,267.22 408.13,267.22 413.49,267.22 420.09,267.22 425.45,267.22 430.73,267.22 436.10,267.22 441.38,267.22 448.06,267.22 453.34,267.22 458.71,267.22 464.07,267.22 469.35,267.22 474.72,267.22 481.32,267.22 486.68,267.23 489.24,267.23"/>
<line x1="88" y1="72" x2="110" y2="72" stroke="#1f77b4" stroke-width="2.4"/>
<text x="116" y="76" font-family="Arial, sans-serif" font-size="12">rising #1</text>
<line x1="88" y1="90" x2="110" y2="90" stroke="#d62728" stroke-width="2.4"/>
<text x="116" y="94" font-family="Arial, sans-serif" font-size="12">falling #2</text>
<line x1="88" y1="108" x2="110" y2="108" stroke="#2ca02c" stroke-width="2.4"/>
<text x="116" y="112" font-family="Arial, sans-serif" font-size="12">rising #3</text>
<line x1="88" y1="126" x2="110" y2="126" stroke="#9467bd" stroke-width="2.4"/>
<text x="116" y="130" font-family="Arial, sans-serif" font-size="12">falling #4</text>
<rect x="78" y="342" width="694" height="44" fill="#fffdf7" stroke="#d8c6a1" rx="4"/>
<text x="88" y="359" font-family="Arial, sans-serif" font-size="11" font-weight="700" fill="#4b3b21">Findings needing attention</text>
<rect x="88" y="366" width="7" height="7" fill="#b54708"/>
<text x="102" y="373" font-family="Arial, sans-serif" font-size="11" fill="#333">WARN 5.5.4: Ramp dt versus V-T 20-80% evidence needs review | avg Ramp dt=4.238e-10s, avg V-T 20-80% span=3.365e-...</text>
<text x="425.00" y="322.00" text-anchor="middle" font-family="Arial, sans-serif" font-size="12">Time (s)</text>
<text x="420" y="42" font-family="Arial, sans-serif" font-size="11" fill="#555">solid=V-T voltage, faint horizontal=V_fixture</text>
</svg>