<svg xmlns="http://www.w3.org/2000/svg" width="800" height="450" viewBox="0 0 800 450">
<rect width="100%" height="100%" fill="#ffffff"/>
<text x="78" y="25" font-family="Arial, sans-serif" font-size="16" font-weight="700">E34_GPIO_I2CSCLIN_1V8_11 V-T Waveforms</text>
<rect x="78" y="54" width="694" height="230" fill="#fbfbfb" stroke="#c8c8c8"/>
<text transform="translate(18 169.00) rotate(-90)" text-anchor="middle" font-family="Arial, sans-serif" font-size="12">Voltage (V)</text>
<line x1="78.00" y1="54" x2="78.00" y2="284" stroke="#ececec"/>
<text x="78.00" y="302" text-anchor="middle" font-family="Arial, sans-serif" font-size="10">-203p</text>
<line x1="216.80" y1="54" x2="216.80" y2="284" stroke="#ececec"/>
<text x="216.80" y="302" text-anchor="middle" font-family="Arial, sans-serif" font-size="10">1.91n</text>
<line x1="355.60" y1="54" x2="355.60" y2="284" stroke="#ececec"/>
<text x="355.60" y="302" text-anchor="middle" font-family="Arial, sans-serif" font-size="10">4.03n</text>
<line x1="494.40" y1="54" x2="494.40" y2="284" stroke="#ececec"/>
<text x="494.40" y="302" text-anchor="middle" font-family="Arial, sans-serif" font-size="10">6.14n</text>
<line x1="633.20" y1="54" x2="633.20" y2="284" stroke="#ececec"/>
<text x="633.20" y="302" text-anchor="middle" font-family="Arial, sans-serif" font-size="10">8.25n</text>
<line x1="772.00" y1="54" x2="772.00" y2="284" stroke="#ececec"/>
<text x="772.00" y="302" text-anchor="middle" font-family="Arial, sans-serif" font-size="10">10.4n</text>
<line x1="78" y1="284.00" x2="772" y2="284.00" stroke="#ececec"/>
<text x="70" y="288.00" text-anchor="end" font-family="Arial, sans-serif" font-size="10">-0.163</text>
<line x1="78" y1="226.50" x2="772" y2="226.50" stroke="#ececec"/>
<text x="70" y="230.50" text-anchor="end" font-family="Arial, sans-serif" font-size="10">0.366</text>
<line x1="78" y1="169.00" x2="772" y2="169.00" stroke="#ececec"/>
<text x="70" y="173.00" text-anchor="end" font-family="Arial, sans-serif" font-size="10">0.896</text>
<line x1="78" y1="111.50" x2="772" y2="111.50" stroke="#ececec"/>
<text x="70" y="115.50" text-anchor="end" font-family="Arial, sans-serif" font-size="10">1.4</text>
<line x1="78" y1="54.00" x2="772" y2="54.00" stroke="#ececec"/>
<text x="70" y="58.00" text-anchor="end" font-family="Arial, sans-serif" font-size="10">2</text>
<line x1="78" y1="70.90" x2="772" y2="70.90" stroke="#1f77b4" opacity="0.18" stroke-dasharray="3 4"/>
<polyline fill="none" stroke="#1f77b4" stroke-width="2.0" points="91.35,162.11 97.52,162.11 103.69,162.11 111.43,162.11 117.61,162.11 123.78,162.10 129.95,162.11 131.19,162.11 131.65,162.11 132.24,162.11 132.70,162.11 133.29,162.11 133.62,162.11 134.08,162.11 134.67,162.11 135.20,162.11 135.72,162.11 136.18,162.11 136.58,162.11 137.04,162.11 137.76,162.11 138.22,162.11 138.74,162.11 139.20,162.11 139.73,162.11 140.32,162.11 140.91,162.11 141.44,162.11 141.96,162.10 142.22,162.10 142.75,162.10 143.47,162.10 144.00,162.10 144.59,162.10 145.37,162.10 146.03,162.10 146.49,162.11 147.21,162.14 147.93,162.19 148.59,162.27 149.44,162.37 149.84,162.41 150.43,162.43 150.95,162.39 151.28,162.32 151.74,162.16 152.27,161.89 152.66,161.62 153.19,161.15 153.58,160.73 153.97,160.23 154.43,159.54 154.96,158.61 155.75,156.85 156.14,155.80 156.47,154.82 157.06,152.83 157.45,151.33 157.78,149.99 158.57,146.43 159.23,143.14 159.62,141.07 160.21,137.84 160.74,134.86 161.26,131.83 161.52,130.30 162.05,127.22 162.77,122.98 163.36,119.57 163.82,116.98 164.41,113.76 165.07,110.37 165.79,106.88 166.38,104.21 166.91,102.04 167.37,100.28 168.02,97.88 168.68,95.72 169.34,93.79 169.86,92.31 170.32,91.12 170.91,89.70 171.63,88.12 172.42,86.59 173.01,85.58 173.73,84.39 174.26,83.60 174.98,82.55 176.82,80.26 177.21,79.81 177.87,79.12 179.31,77.73 180.04,77.09 180.76,76.54 181.22,76.19 181.61,75.93 183.12,75.02 183.65,74.73 185.94,73.78 187.06,73.44 188.96,72.98 190.34,72.73 193.17,72.33 193.89,72.25 194.15,72.23 194.81,72.16 196.38,72.03 197.10,71.98 198.09,71.91 198.55,71.87 199.47,71.82 200.85,71.74 202.49,71.66 204.46,71.59 206.03,71.53 206.49,71.51 207.15,71.49 207.67,71.48 208.33,71.46 208.86,71.44 209.64,71.42 210.23,71.40 210.63,71.40 210.96,71.39 211.28,71.38 211.55,71.37 211.88,71.37 212.27,71.36 212.73,71.35 213.25,71.34 213.58,71.33 214.37,71.31 215.09,71.30 215.95,71.29 216.40,71.28 217.00,71.27 217.98,71.25 218.83,71.24 219.49,71.23 220.28,71.22 221.00,71.21 221.53,71.20 222.38,71.19 222.84,71.18 223.82,71.17 224.28,71.17 224.94,71.16 225.46,71.15 225.79,71.15 226.58,71.14 227.17,71.14 227.63,71.13 227.96,71.13 228.55,71.12 229.21,71.12 230.26,71.11 231.24,71.10 231.83,71.10 232.55,71.09 233.41,71.09 234.92,71.08 235.90,71.07 236.82,71.07 237.48,71.06 239.12,71.05 239.51,71.05 240.76,71.05 241.48,71.04 242.14,71.04 243.19,71.04 244.83,71.03 246.87,71.02 248.38,71.01 249.75,71.01 252.38,71.00 255.33,71.00 258.22,70.99 259.14,70.99 261.57,70.98 264.26,70.98 268.40,70.97 269.32,70.97 269.58,70.97 271.68,70.97 273.52,70.96 275.03,70.96 278.11,70.96 284.28,70.95 285.86,70.95 289.27,70.95 293.54,70.95 296.17,70.94 301.29,70.94 305.95,70.94 309.03,70.94 310.54,70.94 312.84,70.94 316.78,70.94 322.95,70.93 325.51,70.93 329.06,70.93 332.14,70.93 338.31,70.93 341.59,70.93 347.57,70.93 353.81,70.93 358.40,70.93 364.57,70.92 370.74,70.92 377.64,70.92 383.08,70.92 386.17,70.92 392.34,70.92 397.00,70.92 403.17,70.92 406.26,70.92 410.92,70.92 417.09,70.92 421.68,70.92 427.86,70.92 435.60,70.92 441.77,70.92 447.94,70.92 454.11,70.92 460.29,70.92 466.46,70.92 474.20,70.92 480.37,70.92 486.54,70.91 492.72,70.91 498.89,70.91 506.63,70.91 512.80,70.91 517.40,70.91 523.57,70.91 529.74,70.91 535.91,70.91 543.66,70.91 549.83,70.91 552.85,70.90"/>
<line x1="78" y1="70.90" x2="772" y2="70.90" stroke="#d62728" opacity="0.18" stroke-dasharray="3 4"/>
<polyline fill="none" stroke="#d62728" stroke-width="2.0" points="91.35,70.90 100.27,70.90 109.20,70.90 120.36,70.91 129.29,70.91 131.98,70.91 133.36,70.91 134.35,70.90 135.13,70.90 136.51,70.90 138.68,70.90 140.98,70.90 142.81,70.90 144.91,70.90 146.29,70.90 147.02,70.90 147.41,70.90 148.66,70.90 149.38,70.90 149.90,70.90 150.95,70.91 151.54,70.91 152.07,70.92 152.40,70.92 152.86,70.93 153.45,70.94 154.11,70.96 154.96,70.97 155.48,70.96 156.01,70.95 156.86,70.89 157.65,70.78 158.37,70.67 158.77,70.60 159.49,70.47 160.28,70.35 160.87,70.27 161.85,70.16 162.44,70.11 163.03,70.07 163.69,70.03 164.28,70.00 165.20,69.96 165.92,69.93 166.51,69.92 167.04,69.90 167.30,69.90 167.76,69.89 168.88,69.87 169.53,69.86 170.19,69.86 171.04,69.87 171.44,69.88 172.29,69.92 172.75,69.95 173.27,70.00 174.00,70.08 174.85,70.21 175.64,70.37 176.49,70.60 177.08,70.78 177.80,71.04 178.33,71.26 179.12,71.63 179.71,71.97 180.17,72.25 180.63,72.56 181.28,73.05 182.79,74.41 183.12,74.74 184.04,75.76 185.09,77.10 185.62,77.83 186.99,79.98 187.52,80.89 188.50,82.72 190.34,86.50 191.20,88.38 192.38,91.07 193.30,93.20 194.02,94.89 195.53,98.45 196.71,101.24 197.89,104.01 198.75,105.99 199.14,106.90 200.32,109.59 201.96,113.26 203.21,115.98 204.52,118.74 205.84,121.48 206.75,123.32 208.20,126.16 208.99,127.67 209.64,128.90 210.17,129.88 211.61,132.48 212.27,133.62 213.32,135.40 214.11,136.68 215.62,139.03 216.21,139.91 217.32,141.51 218.70,143.35 219.36,144.18 220.41,145.43 221.46,146.60 222.18,147.35 223.56,148.68 224.15,149.21 225.27,150.13 227.50,151.73 229.40,152.87 231.96,154.14 235.11,155.39 237.28,156.12 238.66,156.54 239.91,156.89 241.55,157.33 242.20,157.49 243.65,157.83 246.60,158.42 249.82,158.96 252.05,159.26 254.28,159.54 256.45,159.77 259.34,160.05 260.91,160.16 262.03,160.23 263.80,160.35 264.79,160.41 266.56,160.53 267.74,160.61 269.97,160.73 272.14,160.85 274.37,160.96 276.60,161.04 279.56,161.16 281.07,161.21 283.30,161.28 284.74,161.32 285.01,161.33 286.25,161.37 286.78,161.38 287.04,161.39 289.40,161.44 291.37,161.49 293.54,161.54 296.17,161.59 298.79,161.64 301.16,161.67 303.58,161.71 305.75,161.74 306.80,161.75 308.71,161.77 310.35,161.79 310.61,161.79 311.20,161.80 311.99,161.81 314.55,161.83 316.91,161.85 319.47,161.87 321.24,161.89 323.67,161.90 325.71,161.91 330.17,161.94 332.27,161.95 335.42,161.96 337.98,161.97 340.81,161.98 343.56,161.99 348.03,162.01 349.60,162.01 354.72,162.02 356.96,162.02 360.30,162.03 362.80,162.03 367.92,162.04 371.86,162.05 374.42,162.05 377.04,162.05 378.69,162.06 379.01,162.06 380.39,162.06 383.74,162.06 390.44,162.07 397.13,162.07 401.60,162.08 403.83,162.08 405.34,162.08 410.52,162.08 415.38,162.08 416.50,162.08 417.09,162.08 418.93,162.08 419.52,162.08 419.78,162.08 421.62,162.08 423.06,162.08 425.30,162.09 426.15,162.09 427.59,162.09 428.38,162.09 430.61,162.09 439.54,162.09 446.24,162.09 455.17,162.09 464.09,162.09 473.02,162.10 484.18,162.10 493.11,162.10 502.04,162.10 510.97,162.10 519.89,162.10 531.05,162.10 539.98,162.10 548.91,162.10 557.84,162.10 566.77,162.10 575.69,162.10 586.85,162.10 595.78,162.10 604.71,162.10 613.64,162.10 622.57,162.10 631.49,162.10 642.65,162.10 651.58,162.10 660.51,162.10 669.44,162.10 678.37,162.10 689.53,162.10 698.46,162.10 707.38,162.10 716.31,162.10 725.24,162.10 734.17,162.10 745.33,162.10 754.26,162.10 758.65,162.11"/>
<line x1="78" y1="266.27" x2="772" y2="266.27" stroke="#2ca02c" opacity="0.18" stroke-dasharray="3 4"/>
<polyline fill="none" stroke="#2ca02c" stroke-width="2.0" points="91.35,266.27 99.42,266.28 107.50,266.27 117.61,266.27 125.68,266.27 133.75,266.27 139.99,266.27 141.70,266.28 142.55,266.28 143.40,266.28 144.13,266.27 144.78,266.27 145.64,266.26 146.16,266.26 147.47,266.23 148.00,266.23 148.92,266.24 149.51,266.27 150.17,266.33 150.89,266.41 151.81,266.51 152.46,266.57 153.12,266.63 153.78,266.69 154.43,266.76 155.29,266.85 156.34,266.97 157.13,267.05 157.91,267.14 158.50,267.20 159.62,267.31 160.28,267.38 160.67,267.43 161.20,267.49 161.72,267.55 162.25,267.62 162.64,267.67 163.16,267.74 163.69,267.81 164.48,267.92 165.20,268.00 165.86,268.07 166.58,268.12 167.10,268.14 167.89,268.10 168.29,268.08 168.81,268.02 169.20,267.96 169.73,267.86 170.39,267.68 171.11,267.44 171.70,267.19 172.42,266.84 174.00,265.82 175.05,264.97 176.03,263.99 176.69,263.27 177.74,261.95 179.05,260.07 179.90,258.68 180.76,257.18 181.61,255.58 182.53,253.73 182.99,252.75 183.84,250.90 184.50,249.43 185.09,248.05 186.01,245.87 186.47,244.76 186.80,243.96 187.26,242.83 187.72,241.68 188.05,240.87 188.57,239.55 189.10,238.22 189.36,237.56 190.01,235.89 190.87,233.73 192.31,230.09 193.03,228.27 194.08,225.69 194.81,223.92 195.27,222.80 195.79,221.57 196.78,219.24 197.56,217.41 198.02,216.38 199.60,212.86 200.58,210.72 201.70,208.38 202.68,206.38 203.28,205.21 204.39,203.09 204.98,202.01 205.64,200.85 206.56,199.29 206.82,198.86 207.35,198.02 208.20,196.71 208.59,196.13 209.51,194.84 210.69,193.31 211.81,191.99 213.39,190.33 213.91,189.83 214.30,189.47 214.70,189.12 215.03,188.84 215.29,188.62 215.88,188.15 216.80,187.47 217.52,186.97 219.23,185.91 220.28,185.34 221.85,184.55 222.64,184.19 223.49,183.83 224.41,183.46 225.40,183.09 226.05,182.86 226.84,182.60 227.43,182.41 228.22,182.18 229.34,181.87 230.45,181.59 231.18,181.42 231.90,181.27 232.36,181.17 232.69,181.10 233.34,180.96 233.60,180.92 234.65,180.75 235.05,180.69 235.64,180.60 236.30,180.50 237.02,180.38 237.81,180.26 239.05,180.08 240.37,179.92 241.22,179.82 242.14,179.71 242.99,179.61 244.76,179.45 246.14,179.34 247.65,179.21 248.83,179.11 249.69,179.04 250.74,178.98 252.51,178.87 252.97,178.84 254.15,178.76 255.01,178.71 255.99,178.66 256.71,178.63 258.29,178.55 260.13,178.47 261.11,178.42 262.56,178.37 263.93,178.32 265.51,178.27 266.49,178.24 268.00,178.19 269.38,178.16 271.55,178.10 273.06,178.06 274.44,178.04 276.41,177.99 277.92,177.97 280.02,177.93 281.53,177.91 284.22,177.87 286.39,177.84 288.29,177.82 289.86,177.80 291.24,177.79 292.82,177.77 295.25,177.75 297.28,177.74 299.25,177.72 301.35,177.71 303.32,177.70 305.49,177.69 307.85,177.68 311.07,177.66 313.43,177.65 317.24,177.64 319.47,177.63 323.15,177.63 326.56,177.62 329.65,177.61 332.73,177.61 335.23,177.60 340.87,177.59 345.73,177.59 349.80,177.58 355.84,177.58 358.79,177.57 365.49,177.57 371.99,177.57 378.03,177.56 386.10,177.56 392.21,177.56 400.28,177.55 406.32,177.55 413.41,177.55 420.44,177.55 428.51,177.55 436.59,177.55 444.66,177.55 450.77,177.54 458.84,177.54 466.92,177.54 474.99,177.54 483.07,177.54 493.11,177.54 501.18,177.54 509.26,177.54 517.33,177.54 525.47,177.54 533.55,177.54 543.59,177.54 551.67,177.54 559.74,177.54 567.82,177.54 573.92,177.54 582.00,177.54 592.04,177.54 600.11,177.54 608.19,177.54 616.33,177.54 624.40,177.54 634.45,177.54 641.34,177.54 648.63,177.54 656.70,177.54 664.78,177.54 672.85,177.54 682.90,177.54 690.97,177.54 694.98,177.53"/>
<line x1="78" y1="266.27" x2="772" y2="266.27" stroke="#9467bd" opacity="0.18" stroke-dasharray="3 4"/>
<polyline fill="none" stroke="#9467bd" stroke-width="2.0" points="91.35,177.53 94.43,177.53 95.88,177.53 98.17,177.53 100.93,177.53 104.41,177.53 106.45,177.53 108.74,177.53 109.92,177.53 111.17,177.53 113.14,177.53 114.26,177.53 115.04,177.53 120.17,177.53 126.99,177.52 128.70,177.52 129.36,177.52 129.82,177.52 130.21,177.52 130.54,177.52 130.87,177.52 131.13,177.52 131.39,177.52 131.65,177.52 131.98,177.53 132.24,177.53 132.97,177.53 133.36,177.53 133.89,177.53 134.48,177.53 135.07,177.53 135.72,177.53 136.18,177.53 136.45,177.53 136.77,177.53 137.10,177.53 137.37,177.53 137.89,177.53 138.28,177.53 138.55,177.53 138.88,177.53 139.20,177.53 139.79,177.53 140.19,177.53 140.45,177.53 140.91,177.53 141.17,177.53 141.50,177.53 141.83,177.53 142.09,177.53 142.35,177.53 143.01,177.53 143.67,177.53 144.59,177.53 145.05,177.53 145.77,177.53 146.42,177.53 147.02,177.53 147.61,177.53 148.46,177.54 148.98,177.54 149.64,177.54 150.30,177.54 150.69,177.54 151.54,177.55 152.00,177.55 152.46,177.55 152.99,177.54 153.51,177.54 153.84,177.53 154.30,177.52 154.63,177.51 155.02,177.49 155.35,177.47 155.75,177.43 156.07,177.40 156.53,177.36 157.06,177.30 157.32,177.27 157.65,177.25 158.04,177.24 158.44,177.24 158.77,177.27 159.03,177.30 159.42,177.37 159.82,177.47 160.47,177.73 161.26,178.17 161.98,178.71 162.64,179.27 163.43,180.05 164.08,180.81 164.94,181.92 165.59,182.87 166.18,183.81 166.84,184.93 167.50,186.14 167.96,187.06 168.61,188.44 169.14,189.62 169.73,191.02 170.32,192.50 170.91,194.05 171.50,195.66 172.16,197.52 172.55,198.66 173.14,200.42 173.60,201.81 174.13,203.43 174.98,206.12 175.70,208.45 176.16,209.94 177.02,212.75 177.54,214.50 178.13,216.48 178.72,218.47 179.12,219.80 179.71,221.80 179.97,222.70 181.02,226.27 181.81,228.95 182.20,230.29 183.12,233.39 183.84,235.81 184.57,238.18 185.42,240.98 185.94,242.61 186.99,245.85 187.59,247.56 188.31,249.54 189.03,251.42 190.21,254.11 191.59,256.70 192.90,258.70 194.22,260.17 195.53,261.44 196.45,262.20 198.94,263.54 200.58,264.17 202.42,264.67 205.18,265.14 206.69,265.32 207.35,265.38 208.33,265.46 210.56,265.62 211.02,265.64 211.55,265.67 212.07,265.70 212.79,265.74 213.19,265.75 213.78,265.78 214.44,265.80 215.03,265.82 215.95,265.85 216.40,265.86 217.46,265.89 218.44,265.91 219.10,265.93 220.15,265.95 221.20,265.97 222.77,266.00 223.89,266.01 224.55,266.02 225.86,266.04 227.30,266.06 228.55,266.07 229.80,266.08 230.58,266.09 231.50,266.09 232.75,266.10 234.52,266.12 236.16,266.12 237.02,266.13 238.27,266.14 239.45,266.14 240.76,266.15 242.27,266.15 243.58,266.16 244.96,266.16 246.34,266.17 247.46,266.17 249.03,266.18 249.89,266.18 251.20,266.18 252.77,266.19 253.89,266.19 255.53,266.19 257.30,266.19 258.22,266.20 259.99,266.20 261.37,266.20 262.88,266.20 265.44,266.21 268.27,266.21 269.64,266.21 272.34,266.22 275.09,266.22 278.05,266.22 282.25,266.23 285.40,266.23 288.81,266.23 291.57,266.23 294.33,266.24 299.78,266.24 303.91,266.24 309.36,266.24 314.88,266.24 320.39,266.25 325.84,266.25 332.73,266.25 338.18,266.25 343.70,266.25 349.14,266.25 354.66,266.25 361.49,266.26 367.00,266.26 372.45,266.26 377.96,266.26 383.41,266.26 388.93,266.26 395.75,266.26 401.27,266.26 406.78,266.26 412.23,266.26 417.75,266.26 423.19,266.26 430.09,266.26 435.54,266.26 441.05,266.26 446.50,266.26 452.01,266.26 458.84,266.26 464.36,266.26 469.87,266.26 475.32,266.26 480.83,266.26 486.28,266.26 493.18,266.26 498.62,266.26 501.32,266.27"/>
<line x1="88" y1="72" x2="110" y2="72" stroke="#1f77b4" stroke-width="2.4"/>
<text x="116" y="76" font-family="Arial, sans-serif" font-size="12">rising #1</text>
<line x1="88" y1="90" x2="110" y2="90" stroke="#d62728" stroke-width="2.4"/>
<text x="116" y="94" font-family="Arial, sans-serif" font-size="12">falling #2</text>
<line x1="88" y1="108" x2="110" y2="108" stroke="#2ca02c" stroke-width="2.4"/>
<text x="116" y="112" font-family="Arial, sans-serif" font-size="12">rising #3</text>
<line x1="88" y1="126" x2="110" y2="126" stroke="#9467bd" stroke-width="2.4"/>
<text x="116" y="130" font-family="Arial, sans-serif" font-size="12">falling #4</text>
<rect x="78" y="342" width="694" height="44" fill="#fffdf7" stroke="#d8c6a1" rx="4"/>
<text x="88" y="359" font-family="Arial, sans-serif" font-size="11" font-weight="700" fill="#4b3b21">Findings needing attention</text>
<rect x="88" y="366" width="7" height="7" fill="#b54708"/>
<text x="102" y="373" font-family="Arial, sans-serif" font-size="11" fill="#333">WARN 5.5.4: Ramp dt versus V-T 20-80% evidence needs review | avg Ramp dt=3.952e-10s, avg V-T 20-80% span=3.066e-...</text>
<text x="425.00" y="322.00" text-anchor="middle" font-family="Arial, sans-serif" font-size="12">Time (s)</text>
<text x="420" y="42" font-family="Arial, sans-serif" font-size="11" fill="#555">solid=V-T voltage, faint horizontal=V_fixture</text>
</svg>