<svg xmlns="http://www.w3.org/2000/svg" width="800" height="450" viewBox="0 0 800 450">
<rect width="100%" height="100%" fill="#ffffff"/>
<text x="78" y="25" font-family="Arial, sans-serif" font-size="16" font-weight="700">E34_GPIO_SPI_I3C_MST_1V8_00 V-T Waveforms</text>
<rect x="78" y="54" width="694" height="230" fill="#fbfbfb" stroke="#c8c8c8"/>
<text transform="translate(18 169.00) rotate(-90)" text-anchor="middle" font-family="Arial, sans-serif" font-size="12">Voltage (V)</text>
<line x1="78.00" y1="54" x2="78.00" y2="284" stroke="#ececec"/>
<text x="78.00" y="302" text-anchor="middle" font-family="Arial, sans-serif" font-size="10">-422p</text>
<line x1="216.80" y1="54" x2="216.80" y2="284" stroke="#ececec"/>
<text x="216.80" y="302" text-anchor="middle" font-family="Arial, sans-serif" font-size="10">3.97n</text>
<line x1="355.60" y1="54" x2="355.60" y2="284" stroke="#ececec"/>
<text x="355.60" y="302" text-anchor="middle" font-family="Arial, sans-serif" font-size="10">8.36n</text>
<line x1="494.40" y1="54" x2="494.40" y2="284" stroke="#ececec"/>
<text x="494.40" y="302" text-anchor="middle" font-family="Arial, sans-serif" font-size="10">12.8n</text>
<line x1="633.20" y1="54" x2="633.20" y2="284" stroke="#ececec"/>
<text x="633.20" y="302" text-anchor="middle" font-family="Arial, sans-serif" font-size="10">17.1n</text>
<line x1="772.00" y1="54" x2="772.00" y2="284" stroke="#ececec"/>
<text x="772.00" y="302" text-anchor="middle" font-family="Arial, sans-serif" font-size="10">21.5n</text>
<line x1="78" y1="284.00" x2="772" y2="284.00" stroke="#ececec"/>
<text x="70" y="288.00" text-anchor="end" font-family="Arial, sans-serif" font-size="10">-0.154</text>
<line x1="78" y1="226.50" x2="772" y2="226.50" stroke="#ececec"/>
<text x="70" y="230.50" text-anchor="end" font-family="Arial, sans-serif" font-size="10">0.374</text>
<line x1="78" y1="169.00" x2="772" y2="169.00" stroke="#ececec"/>
<text x="70" y="173.00" text-anchor="end" font-family="Arial, sans-serif" font-size="10">0.901</text>
<line x1="78" y1="111.50" x2="772" y2="111.50" stroke="#ececec"/>
<text x="70" y="115.50" text-anchor="end" font-family="Arial, sans-serif" font-size="10">1.4</text>
<line x1="78" y1="54.00" x2="772" y2="54.00" stroke="#ececec"/>
<text x="70" y="58.00" text-anchor="end" font-family="Arial, sans-serif" font-size="10">2</text>
<line x1="78" y1="70.97" x2="772" y2="70.97" stroke="#1f77b4" opacity="0.18" stroke-dasharray="3 4"/>
<polyline fill="none" stroke="#1f77b4" stroke-width="2.0" points="91.35,144.08 93.59,144.08 95.80,144.08 98.61,144.08 100.29,144.08 102.41,144.08 102.60,144.08 102.82,144.08 102.98,144.08 103.20,144.07 103.39,144.07 103.61,144.07 103.96,144.06 104.14,144.05 104.46,144.04 104.75,144.04 104.97,144.04 105.12,144.04 105.28,144.04 105.47,144.05 105.63,144.05 105.76,144.06 105.95,144.08 106.10,144.10 106.26,144.13 106.45,144.17 106.77,144.26 106.96,144.32 107.24,144.44 107.49,144.56 107.78,144.71 108.00,144.83 108.16,144.92 108.41,145.06 108.70,145.19 108.89,145.27 109.11,145.32 109.39,145.34 109.64,145.28 109.83,145.19 110.15,144.91 110.40,144.56 110.81,143.72 111.07,143.03 111.35,142.07 111.63,140.94 111.98,139.33 112.30,137.63 112.49,136.49 112.87,134.03 113.03,132.89 113.18,131.73 113.44,129.74 113.66,127.88 113.88,125.93 114.13,123.58 114.38,121.11 114.61,118.86 114.73,117.53 115.08,113.80 115.33,111.02 115.52,108.92 115.74,106.49 115.90,104.79 116.12,102.45 116.41,99.58 116.53,98.36 116.66,97.19 116.91,94.95 117.13,93.13 117.35,91.44 117.58,89.89 117.89,87.88 118.14,86.47 118.59,84.24 118.87,82.98 119.12,81.96 119.28,81.37 119.50,80.60 119.76,79.80 119.91,79.34 120.23,78.50 120.45,77.97 120.83,77.20 121.30,76.35 121.68,75.78 121.91,75.49 122.25,75.06 122.60,74.68 122.92,74.37 123.33,74.03 123.74,73.75 124.28,73.42 124.47,73.31 124.78,73.14 125.48,72.84 125.82,72.71 126.14,72.60 126.58,72.46 126.80,72.40 127.28,72.29 128.10,72.11 128.83,71.99 129.52,71.89 130.03,71.83 130.66,71.76 131.01,71.72 131.32,71.69 132.59,71.58 132.90,71.56 133.35,71.53 133.79,71.51 134.10,71.49 134.58,71.46 134.80,71.45 135.40,71.42 135.78,71.40 136.60,71.37 137.30,71.34 138.18,71.31 138.84,71.29 139.35,71.28 139.92,71.26 140.08,71.26 140.46,71.25 140.87,71.24 141.18,71.24 141.31,71.23 141.69,71.23 142.19,71.22 142.38,71.22 142.95,71.21 143.24,71.20 143.46,71.20 143.74,71.19 144.25,71.18 144.56,71.18 144.91,71.17 145.32,71.17 145.58,71.16 145.95,71.16 146.27,71.15 146.74,71.15 147.19,71.14 147.53,71.14 147.98,71.13 148.32,71.13 148.80,71.12 149.27,71.12 149.62,71.12 149.90,71.11 150.28,71.11 150.66,71.11 150.92,71.10 151.17,71.10 151.67,71.10 151.90,71.10 152.02,71.09 152.15,71.09 152.43,71.09 152.97,71.09 153.41,71.09 153.92,71.08 154.42,71.08 155.09,71.08 155.94,71.07 156.51,71.07 156.67,71.07 156.86,71.07 157.08,71.06 157.93,71.06 158.28,71.06 158.94,71.06 159.48,71.05 160.11,71.05 160.43,71.05 160.78,71.05 160.90,71.05 161.72,71.04 162.26,71.04 162.64,71.04 163.40,71.04 163.65,71.04 164.63,71.03 166.15,71.03 166.72,71.03 167.89,71.03 169.56,71.02 169.85,71.02 170.51,71.02 170.70,71.02 171.71,71.02 173.45,71.01 175.12,71.01 176.55,71.01 177.02,71.01 177.94,71.01 179.04,71.00 180.34,71.00 181.44,71.00 182.04,71.00 182.96,71.00 184.64,71.00 187.42,71.00 189.34,71.00 190.77,70.99 193.01,70.99 195.25,70.99 196.20,70.99 197.37,70.99 198.51,70.99 200.28,70.99 201.38,70.99 203.06,70.99 205.84,70.99 208.08,70.98 209.22,70.98 211.43,70.98 213.11,70.98 214.25,70.98 217.03,70.98 218.70,70.98 220.85,70.98 222.05,70.98 224.30,70.98 226.51,70.98 229.32,70.98 231.56,70.98 233.78,70.98 236.02,70.98 238.26,70.98 241.04,70.98 243.29,70.98 245.50,70.98 247.74,70.98 249.99,70.98 252.23,70.98 255.01,70.98 257.26,70.98 258.33,70.97"/>
<line x1="78" y1="70.97" x2="772" y2="70.97" stroke="#d62728" opacity="0.18" stroke-dasharray="3 4"/>
<polyline fill="none" stroke="#d62728" stroke-width="2.0" points="91.35,70.97 100.29,70.97 102.85,70.97 104.56,70.96 105.06,70.95 105.82,70.95 106.23,70.95 107.08,70.97 107.49,71.00 108.03,71.04 108.47,71.09 108.92,71.15 109.26,71.19 109.64,71.23 109.93,71.26 110.24,71.28 110.40,71.29 110.84,71.30 111.10,71.30 111.35,71.29 111.60,71.27 111.82,71.24 112.14,71.19 112.42,71.13 112.77,71.04 113.06,70.95 113.40,70.83 113.66,70.75 113.85,70.68 114.07,70.60 114.26,70.53 114.57,70.42 114.83,70.33 115.11,70.24 115.43,70.13 115.71,70.05 116.00,69.97 116.28,69.91 116.50,69.87 116.88,69.86 117.01,69.88 117.32,69.96 117.80,70.30 118.05,70.61 118.27,70.91 118.59,71.47 118.90,72.20 119.19,72.97 119.50,73.98 119.79,75.01 120.07,76.17 120.20,76.73 120.33,77.30 120.61,78.67 120.77,79.45 121.05,80.96 121.18,81.63 121.46,83.24 121.72,84.70 122.22,87.69 122.54,89.59 122.95,92.07 123.33,94.32 123.77,96.91 124.18,99.27 124.56,101.37 124.97,103.59 125.41,105.92 125.63,107.04 125.89,108.31 126.20,109.86 126.52,111.35 126.77,112.51 127.06,113.79 127.47,115.55 127.72,116.60 128.16,118.35 128.51,119.66 128.70,120.35 129.08,121.67 129.39,122.72 129.81,124.01 130.19,125.14 130.75,126.72 131.26,128.01 131.58,128.76 132.11,129.96 132.87,131.50 133.41,132.48 133.82,133.18 134.64,134.43 135.37,135.40 135.87,136.02 136.51,136.71 137.01,137.22 137.20,137.40 137.90,138.01 138.21,138.27 138.88,138.76 139.54,139.20 140.27,139.63 141.25,140.12 142.07,140.49 142.35,140.60 143.24,140.92 143.49,141.01 143.87,141.14 144.00,141.18 144.12,141.21 144.69,141.38 144.82,141.42 147.25,141.98 147.79,142.08 148.48,142.20 149.37,142.34 149.87,142.42 150.06,142.45 151.61,142.65 151.93,142.69 152.43,142.75 152.75,142.79 153.44,142.86 154.42,142.97 155.02,143.03 155.50,143.07 155.91,143.11 156.23,143.13 156.54,143.16 156.95,143.19 157.36,143.22 157.71,143.24 158.31,143.28 158.82,143.32 159.16,143.34 159.42,143.35 160.08,143.38 160.59,143.40 161.06,143.43 161.22,143.44 161.44,143.45 161.63,143.46 161.82,143.46 162.51,143.49 163.21,143.51 164.09,143.54 165.01,143.58 165.52,143.59 166.65,143.61 167.85,143.64 168.83,143.66 169.50,143.67 170.41,143.69 172.09,143.72 173.23,143.73 173.92,143.74 174.97,143.76 176.29,143.77 177.34,143.78 178.66,143.79 180.62,143.80 182.14,143.82 182.87,143.82 185.49,143.84 186.82,143.84 188.59,143.85 189.57,143.86 192.19,143.86 194.65,143.87 195.35,143.88 196.23,143.88 198.48,143.89 198.92,143.89 199.77,143.89 200.15,143.89 200.78,143.89 201.38,143.89 201.92,143.90 202.81,143.90 205.18,143.90 209.63,143.91 216.33,143.92 227.49,143.93 236.43,143.94 244.71,143.95 252.04,143.96 260.99,143.96 269.90,143.97 279.73,143.97 287.75,143.98 296.70,143.98 305.61,143.99 314.55,143.99 325.71,144.00 334.62,144.00 343.56,144.00 352.47,144.01 361.42,144.01 370.33,144.01 381.48,144.02 390.43,144.02 399.34,144.02 408.28,144.02 417.19,144.03 428.35,144.03 437.29,144.03 446.20,144.03 455.15,144.04 464.06,144.04 473.00,144.04 484.16,144.04 493.10,144.04 502.01,144.05 510.96,144.05 519.87,144.05 531.02,144.05 539.97,144.05 548.88,144.05 557.82,144.05 566.73,144.06 575.68,144.06 586.83,144.06 595.75,144.06 604.69,144.06 613.60,144.06 622.54,144.06 631.46,144.06 642.61,144.06 651.55,144.06 660.47,144.06 669.41,144.06 678.32,144.06 689.51,144.07 698.42,144.07 707.36,144.07 716.28,144.07 725.22,144.07 734.13,144.07 745.29,144.07 754.23,144.07 758.65,144.07"/>
<line x1="78" y1="267.25" x2="772" y2="267.25" stroke="#2ca02c" opacity="0.18" stroke-dasharray="3 4"/>
<polyline fill="none" stroke="#2ca02c" stroke-width="2.0" points="91.35,267.25 95.93,267.25 99.75,267.25 100.07,267.25 100.26,267.25 100.48,267.25 101.52,267.25 101.65,267.25 101.77,267.25 101.93,267.25 102.06,267.25 102.19,267.25 102.31,267.25 102.44,267.25 102.60,267.26 102.72,267.26 102.94,267.26 103.13,267.26 103.32,267.26 103.54,267.27 104.14,267.27 104.46,267.27 104.75,267.26 104.97,267.26 105.16,267.25 105.28,267.24 105.47,267.23 105.60,267.22 105.73,267.21 105.88,267.20 106.01,267.18 106.20,267.16 106.39,267.13 106.58,267.11 106.83,267.07 107.18,267.01 107.37,266.98 107.68,266.93 107.81,266.92 107.97,266.90 108.13,266.88 108.32,266.87 108.51,266.86 108.66,266.87 108.85,266.88 109.11,266.92 109.26,266.95 109.45,267.00 109.64,267.07 109.86,267.15 110.12,267.25 110.43,267.40 110.72,267.53 111.13,267.71 111.29,267.78 111.57,267.90 111.76,267.97 111.95,268.03 112.08,268.07 112.33,268.13 112.52,268.14 112.68,268.13 112.87,268.08 113.06,268.00 113.28,267.85 113.44,267.70 113.59,267.52 113.75,267.29 113.94,266.97 114.07,266.73 114.29,266.24 114.45,265.83 114.64,265.29 114.86,264.57 115.05,263.89 115.30,262.89 115.62,261.47 115.87,260.21 116.09,259.02 116.28,257.94 116.50,256.62 116.69,255.42 116.88,254.19 117.04,253.14 117.23,251.85 117.39,250.76 117.61,249.22 117.99,246.60 118.24,244.86 118.62,242.28 118.81,241.01 119.16,238.73 119.38,237.31 119.79,234.75 120.01,233.41 120.39,231.20 120.77,229.12 120.99,227.95 121.46,225.55 121.84,223.75 122.16,222.32 122.66,220.26 123.11,218.54 123.52,217.04 124.34,214.42 124.50,213.94 124.94,212.64 125.38,211.44 125.95,210.01 126.30,209.20 126.87,207.98 127.18,207.35 127.72,206.36 128.00,205.87 128.86,204.55 129.17,204.11 129.77,203.34 130.69,202.31 131.10,201.91 131.80,201.28 132.62,200.63 133.12,200.28 134.10,199.69 135.34,199.06 136.09,198.74 137.30,198.28 138.21,197.99 138.75,197.83 139.54,197.63 140.49,197.40 140.96,197.30 141.50,197.19 141.91,197.11 143.39,196.85 144.34,196.71 145.07,196.61 145.86,196.51 147.03,196.38 147.79,196.30 148.48,196.25 148.89,196.21 149.62,196.15 150.35,196.10 150.88,196.06 151.36,196.03 151.86,196.00 152.34,195.97 152.91,195.94 153.54,195.90 153.98,195.88 154.42,195.86 155.09,195.83 155.47,195.81 156.16,195.78 156.57,195.76 157.24,195.73 157.84,195.71 158.37,195.68 158.78,195.67 159.57,195.64 160.24,195.61 160.68,195.60 161.19,195.58 161.95,195.55 162.74,195.53 163.43,195.50 164.06,195.49 164.69,195.47 165.39,195.45 166.05,195.43 167.03,195.41 167.92,195.38 168.64,195.37 169.34,195.35 170.48,195.32 171.33,195.31 172.50,195.28 173.64,195.26 174.78,195.24 176.26,195.21 177.05,195.20 178.95,195.17 180.50,195.15 181.32,195.13 183.40,195.10 185.55,195.07 187.70,195.04 190.77,195.00 194.43,194.96 197.81,194.93 202.21,194.89 206.79,194.85 212.48,194.81 217.06,194.78 221.64,194.76 225.05,194.74 229.64,194.72 234.19,194.70 239.91,194.68 244.49,194.67 249.07,194.66 253.62,194.65 258.20,194.64 263.92,194.62 268.48,194.62 273.06,194.61 277.64,194.60 282.19,194.60 286.77,194.59 292.49,194.59 297.04,194.58 301.63,194.58 306.21,194.57 310.76,194.57 316.48,194.57 321.06,194.57 325.64,194.56 330.19,194.56 334.78,194.56 339.36,194.56 345.05,194.55 349.63,194.55 354.21,194.55 358.76,194.55 363.34,194.55 367.93,194.55 373.62,194.55 378.20,194.55 382.78,194.55 387.33,194.55 391.91,194.55 397.63,194.54 402.21,194.54 406.77,194.54 411.35,194.54 415.93,194.54 420.48,194.54 426.20,194.54 430.78,194.54 433.03,194.53"/>
<line x1="78" y1="267.25" x2="772" y2="267.25" stroke="#9467bd" opacity="0.18" stroke-dasharray="3 4"/>
<polyline fill="none" stroke="#9467bd" stroke-width="2.0" points="91.35,194.53 94.00,194.53 96.66,194.53 99.94,194.53 102.12,194.53 102.38,194.53 102.60,194.53 102.75,194.53 102.94,194.53 103.26,194.53 103.61,194.53 103.73,194.53 103.86,194.53 103.99,194.53 104.14,194.53 104.30,194.53 104.43,194.53 104.56,194.53 104.68,194.53 104.81,194.53 105.03,194.53 105.28,194.54 105.54,194.54 105.76,194.54 105.98,194.55 106.20,194.55 106.52,194.56 106.83,194.57 107.08,194.57 107.37,194.58 107.65,194.58 107.97,194.58 108.16,194.57 108.38,194.56 108.57,194.55 108.73,194.53 108.95,194.51 109.14,194.48 109.26,194.46 109.52,194.41 109.68,194.38 109.83,194.34 110.12,194.27 110.34,194.21 110.50,194.17 110.69,194.13 110.81,194.11 110.97,194.09 111.16,194.08 111.38,194.09 111.51,194.11 111.70,194.16 111.82,194.22 112.01,194.33 112.14,194.43 112.27,194.54 112.42,194.71 112.58,194.92 112.71,195.12 112.90,195.46 113.03,195.71 113.18,196.06 113.34,196.45 113.47,196.80 113.63,197.27 113.78,197.77 113.91,198.20 114.04,198.66 114.16,199.15 114.29,199.66 114.45,200.32 114.57,200.88 114.70,201.47 114.86,202.23 115.02,203.03 115.14,203.68 115.33,204.71 115.49,205.60 115.62,206.34 115.74,207.08 115.87,207.85 116.03,208.83 116.15,209.64 116.28,210.44 116.44,211.49 116.63,212.76 116.75,213.63 116.91,214.74 117.04,215.62 117.16,216.54 117.29,217.47 117.42,218.39 117.58,219.58 117.70,220.55 117.83,221.53 117.96,222.50 118.08,223.52 118.21,224.54 118.56,227.41 118.81,229.54 118.97,230.90 119.09,232.00 119.22,233.10 119.54,235.85 119.82,238.31 120.14,240.97 120.48,243.75 120.80,246.13 121.15,248.55 121.59,251.26 122.00,253.42 122.32,254.84 122.73,256.56 123.14,257.94 123.80,259.73 124.18,260.66 124.72,261.72 125.19,262.50 125.98,263.52 126.46,264.01 127.02,264.50 127.40,264.77 127.75,264.98 128.07,265.16 128.45,265.34 128.98,265.56 129.65,265.79 130.22,265.95 131.07,266.14 131.73,266.26 132.37,266.36 133.66,266.51 134.39,266.58 135.05,266.64 135.72,266.68 137.07,266.76 137.42,266.77 137.86,266.79 138.18,266.81 138.46,266.82 138.88,266.84 139.22,266.85 139.70,266.86 140.04,266.88 140.39,266.89 140.68,266.89 141.06,266.91 141.47,266.92 142.13,266.93 142.35,266.94 142.73,266.95 143.08,266.95 143.49,266.96 143.81,266.97 144.28,266.98 144.56,266.98 144.97,266.99 145.35,267.00 145.67,267.00 146.05,267.01 146.30,267.01 146.59,267.02 146.97,267.02 147.44,267.03 147.82,267.03 148.20,267.04 148.58,267.04 148.96,267.05 149.24,267.05 149.62,267.05 150.22,267.06 150.63,267.06 150.95,267.07 151.61,267.07 151.99,267.08 152.40,267.08 153.38,267.09 153.82,267.09 154.27,267.09 154.80,267.10 155.40,267.10 156.13,267.11 156.92,267.11 157.43,267.12 157.99,267.12 158.91,267.12 159.73,267.13 160.87,267.13 161.69,267.14 162.86,267.14 163.53,267.15 165.14,267.15 166.18,267.16 167.51,267.16 168.83,267.17 170.83,267.17 172.15,267.17 174.14,267.18 177.43,267.19 180.08,267.19 182.74,267.20 185.39,267.20 188.05,267.21 191.33,267.21 193.99,267.22 196.64,267.22 199.30,267.22 201.95,267.22 204.61,267.23 207.89,267.23 210.55,267.23 213.20,267.23 215.86,267.23 218.51,267.23 221.80,267.24 224.45,267.24 227.11,267.24 229.76,267.24 232.42,267.24 235.07,267.24 238.36,267.24 241.01,267.24 243.67,267.24 246.32,267.24 248.98,267.24 251.60,267.24 254.92,267.25 257.57,267.25 260.23,267.25 262.88,267.25 265.54,267.25 268.82,267.25 271.48,267.25 274.13,267.25 276.79,267.25 279.44,267.25 282.06,267.25 285.38,267.25 288.04,267.25 289.33,267.25"/>
<line x1="88" y1="72" x2="110" y2="72" stroke="#1f77b4" stroke-width="2.4"/>
<text x="116" y="76" font-family="Arial, sans-serif" font-size="12">rising #1</text>
<line x1="88" y1="90" x2="110" y2="90" stroke="#d62728" stroke-width="2.4"/>
<text x="116" y="94" font-family="Arial, sans-serif" font-size="12">falling #2</text>
<line x1="88" y1="108" x2="110" y2="108" stroke="#2ca02c" stroke-width="2.4"/>
<text x="116" y="112" font-family="Arial, sans-serif" font-size="12">rising #3</text>
<line x1="88" y1="126" x2="110" y2="126" stroke="#9467bd" stroke-width="2.4"/>
<text x="116" y="130" font-family="Arial, sans-serif" font-size="12">falling #4</text>
<rect x="78" y="342" width="694" height="44" fill="#fffdf7" stroke="#d8c6a1" rx="4"/>
<text x="88" y="359" font-family="Arial, sans-serif" font-size="11" font-weight="700" fill="#4b3b21">Findings needing attention</text>
<rect x="88" y="366" width="7" height="7" fill="#b54708"/>
<text x="102" y="373" font-family="Arial, sans-serif" font-size="11" fill="#333">WARN 5.5.4: Ramp dt versus V-T 20-80% evidence needs review | avg Ramp dt=3.049e-10s, avg V-T 20-80% span=2.366e-...</text>
<text x="425.00" y="322.00" text-anchor="middle" font-family="Arial, sans-serif" font-size="12">Time (s)</text>
<text x="420" y="42" font-family="Arial, sans-serif" font-size="11" fill="#555">solid=V-T voltage, faint horizontal=V_fixture</text>
</svg>