<svg xmlns="http://www.w3.org/2000/svg" width="800" height="450" viewBox="0 0 800 450">
<rect width="100%" height="100%" fill="#ffffff"/>
<text x="78" y="25" font-family="Arial, sans-serif" font-size="16" font-weight="700">E34_GPIO_I2CSCLIN_1V2_01_ISOSW V-T Waveforms</text>
<rect x="78" y="54" width="694" height="230" fill="#fbfbfb" stroke="#c8c8c8"/>
<text transform="translate(18 169.00) rotate(-90)" text-anchor="middle" font-family="Arial, sans-serif" font-size="12">Voltage (V)</text>
<line x1="78.00" y1="54" x2="78.00" y2="284" stroke="#ececec"/>
<text x="78.00" y="302" text-anchor="middle" font-family="Arial, sans-serif" font-size="10">-343p</text>
<line x1="216.80" y1="54" x2="216.80" y2="284" stroke="#ececec"/>
<text x="216.80" y="302" text-anchor="middle" font-family="Arial, sans-serif" font-size="10">3.22n</text>
<line x1="355.60" y1="54" x2="355.60" y2="284" stroke="#ececec"/>
<text x="355.60" y="302" text-anchor="middle" font-family="Arial, sans-serif" font-size="10">6.79n</text>
<line x1="494.40" y1="54" x2="494.40" y2="284" stroke="#ececec"/>
<text x="494.40" y="302" text-anchor="middle" font-family="Arial, sans-serif" font-size="10">10.3n</text>
<line x1="633.20" y1="54" x2="633.20" y2="284" stroke="#ececec"/>
<text x="633.20" y="302" text-anchor="middle" font-family="Arial, sans-serif" font-size="10">13.9n</text>
<line x1="772.00" y1="54" x2="772.00" y2="284" stroke="#ececec"/>
<text x="772.00" y="302" text-anchor="middle" font-family="Arial, sans-serif" font-size="10">17.5n</text>
<line x1="78" y1="284.00" x2="772" y2="284.00" stroke="#ececec"/>
<text x="70" y="288.00" text-anchor="end" font-family="Arial, sans-serif" font-size="10">-0.104</text>
<line x1="78" y1="226.50" x2="772" y2="226.50" stroke="#ececec"/>
<text x="70" y="230.50" text-anchor="end" font-family="Arial, sans-serif" font-size="10">0.248</text>
<line x1="78" y1="169.00" x2="772" y2="169.00" stroke="#ececec"/>
<text x="70" y="173.00" text-anchor="end" font-family="Arial, sans-serif" font-size="10">0.6</text>
<line x1="78" y1="111.50" x2="772" y2="111.50" stroke="#ececec"/>
<text x="70" y="115.50" text-anchor="end" font-family="Arial, sans-serif" font-size="10">0.951</text>
<line x1="78" y1="54.00" x2="772" y2="54.00" stroke="#ececec"/>
<text x="70" y="58.00" text-anchor="end" font-family="Arial, sans-serif" font-size="10">1.3</text>
<line x1="78" y1="70.84" x2="772" y2="70.84" stroke="#1f77b4" opacity="0.18" stroke-dasharray="3 4"/>
<polyline fill="none" stroke="#1f77b4" stroke-width="2.0" points="91.35,111.03 97.62,111.03 103.89,111.03 111.71,111.03 117.98,111.03 124.22,111.03 130.49,111.03 136.76,111.03 143.03,111.03 150.85,111.03 157.12,111.03 163.39,111.03 169.62,111.03 175.89,111.03 183.72,111.03 189.99,111.03 194.70,111.04 197.55,111.04 199.38,111.04 200.39,111.04 201.29,111.04 201.75,111.04 202.26,111.04 202.77,111.04 203.15,111.04 203.66,111.04 204.09,111.04 204.67,111.04 205.37,111.04 205.73,111.04 206.15,111.04 206.62,111.04 207.17,111.04 207.52,111.04 208.02,111.04 208.57,111.05 209.07,111.05 209.78,111.05 210.28,111.05 210.79,111.05 211.14,111.05 211.49,111.05 211.88,111.05 212.31,111.05 212.85,111.05 213.32,111.05 213.67,111.05 214.21,111.05 215.03,111.05 215.38,111.05 215.97,111.05 216.71,111.05 217.49,111.05 218.42,111.05 219.74,111.05 220.21,111.05 221.77,111.05 222.70,111.05 224.26,111.05 224.61,111.05 226.21,111.05 228.16,111.05 229.71,111.05 231.78,111.05 233.14,111.05 233.57,111.05 234.23,111.04 235.75,111.04 237.27,111.03 238.01,111.03 240.66,111.02 243.23,111.00 244.16,111.00 246.38,110.98 247.59,110.97 247.94,110.97 248.21,110.97 248.41,110.97 249.65,110.96 250.67,110.95 251.06,110.95 253.74,110.92 254.44,110.91 255.22,110.90 257.48,110.86 262.43,110.84 264.34,110.90 268.27,111.35 271.58,112.17 274.54,113.22 276.49,113.91 278.43,114.33 280.07,114.13 280.81,113.76 281.39,113.34 282.13,112.59 282.87,111.63 283.46,110.71 284.31,109.13 284.94,107.84 285.52,106.53 285.91,105.62 286.61,103.90 287.47,101.72 288.13,100.01 288.79,98.30 289.49,96.52 290.04,95.17 290.62,93.77 291.52,91.71 292.10,90.46 292.77,89.11 293.35,87.98 293.82,87.12 294.25,86.36 294.91,85.28 295.49,84.34 296.35,83.05 296.70,82.56 297.36,81.67 298.30,80.50 299.23,79.44 299.39,79.27 300.36,78.31 300.94,77.78 301.92,77.01 302.73,76.44 303.36,76.05 305.07,75.19 305.93,74.85 306.28,74.73 309.00,73.96 310.17,73.71 310.99,73.56 313.68,73.14 316.29,72.81 318.00,72.62 319.95,72.44 320.80,72.38 321.58,72.32 321.78,72.31 322.17,72.29 324.66,72.18 327.78,72.10 329.68,72.06 334.05,71.99 335.88,71.96 340.32,71.88 346.59,71.71 349.35,71.64 350.44,71.61 351.92,71.57 354.92,71.51 357.65,71.45 358.19,71.44 359.55,71.42 362.59,71.38 363.64,71.37 364.73,71.35 368.51,71.31 370.77,71.28 373.18,71.25 376.34,71.21 378.40,71.19 384.17,71.13 388.84,71.09 395.11,71.03 399.82,71.00 404.50,70.98 409.21,70.95 413.92,70.93 417.66,70.92 421.71,70.91 425.29,70.90 429.07,70.90 430.86,70.89 432.26,70.89 433.16,70.89 434.25,70.89 435.03,70.89 435.85,70.88 437.13,70.88 437.95,70.88 438.96,70.88 439.82,70.88 440.56,70.88 441.57,70.88 442.86,70.88 443.63,70.88 444.41,70.87 445.31,70.87 446.40,70.87 447.30,70.87 448.35,70.87 449.09,70.87 449.90,70.87 451.23,70.87 452.16,70.87 452.98,70.87 454.19,70.87 454.97,70.87 456.17,70.87 457.77,70.86 459.37,70.86 461.43,70.86 462.68,70.86 462.99,70.86 464.12,70.86 465.25,70.86 467.16,70.86 470.19,70.86 471.05,70.86 471.91,70.86 473.43,70.86 473.86,70.86 474.17,70.86 474.98,70.86 475.41,70.86 478.10,70.86 480.51,70.86 481.76,70.85 482.89,70.85 484.37,70.85 487.49,70.85 489.55,70.85 492.20,70.85 496.91,70.85 500.03,70.85 504.74,70.85 511.01,70.85 517.24,70.85 525.07,70.85 531.34,70.85 535.04,70.85 540.76,70.85 543.88,70.85 546.99,70.85 553.26,70.85 556.42,70.85 559.49,70.84"/>
<line x1="78" y1="70.84" x2="772" y2="70.84" stroke="#d62728" opacity="0.18" stroke-dasharray="3 4"/>
<polyline fill="none" stroke="#d62728" stroke-width="2.0" points="91.35,70.84 100.26,70.84 109.18,70.84 120.36,70.84 129.28,70.84 138.23,70.84 147.15,70.84 156.07,70.84 164.99,70.84 176.17,70.84 185.08,70.84 193.46,70.84 198.48,70.84 205.18,70.84 206.93,70.84 208.76,70.84 209.66,70.84 210.40,70.84 211.88,70.84 213.12,70.84 216.32,70.84 223.52,70.84 223.99,70.84 225.28,70.84 226.75,70.84 228.04,70.84 230.42,70.84 232.40,70.84 234.19,70.84 235.44,70.84 236.76,70.84 237.54,70.84 238.44,70.84 240.07,70.84 241.13,70.84 241.98,70.84 243.11,70.84 244.16,70.84 244.67,70.84 245.33,70.84 246.66,70.84 248.14,70.84 250.04,70.84 251.29,70.84 252.46,70.84 253.90,70.84 254.87,70.84 256.51,70.84 258.46,70.84 259.39,70.84 260.71,70.84 262.47,70.84 263.60,70.84 264.84,70.84 265.23,70.85 266.09,70.85 266.52,70.85 267.02,70.85 268.04,70.86 270.02,70.87 272.12,70.89 272.83,70.90 275.51,70.92 277.77,70.94 281.51,70.97 283.30,70.96 285.76,70.85 286.07,70.83 288.25,70.65 289.26,70.55 290.00,70.47 291.91,70.27 294.44,70.05 294.79,70.02 295.88,69.96 298.92,69.86 303.40,69.88 310.02,69.95 313.17,69.99 320.57,70.15 321.27,70.20 323.02,70.32 323.76,70.38 327.89,70.95 328.36,71.04 328.91,71.14 329.68,71.30 330.42,71.47 331.13,71.64 333.19,72.21 334.28,72.55 334.86,72.75 335.53,72.98 336.03,73.15 339.11,74.38 341.95,75.63 344.60,76.85 345.50,77.27 346.12,77.57 347.21,78.09 348.26,78.59 348.73,78.81 349.27,79.07 349.78,79.32 350.64,79.73 351.53,80.16 352.31,80.53 352.78,80.76 353.28,81.00 354.10,81.39 354.69,81.68 355.31,81.98 355.97,82.30 356.67,82.65 357.26,82.94 358.35,83.48 359.40,84.01 359.94,84.29 361.42,85.06 361.70,85.20 363.68,86.27 364.66,86.79 366.06,87.55 368.12,88.68 370.34,89.89 372.09,90.85 373.65,91.68 374.28,92.01 375.21,92.50 376.03,92.93 376.73,93.29 377.66,93.73 379.26,94.48 380.00,94.83 381.29,95.43 382.14,95.83 383.93,96.62 387.87,98.26 390.44,99.24 392.66,100.01 393.44,100.25 394.88,100.69 395.89,101.00 398.15,101.70 399.00,101.97 402.12,102.79 404.30,103.36 406.05,103.74 411.35,104.86 416.14,105.68 421.67,106.48 425.02,106.91 428.64,107.32 433.20,107.73 437.75,108.15 443.99,108.58 450.18,108.97 455.16,109.18 461.04,109.38 466.30,109.56 473.00,109.80 479.70,109.98 484.18,110.08 490.52,110.23 492.04,110.25 494.89,110.29 495.31,110.30 496.21,110.31 497.07,110.32 498.00,110.34 498.43,110.34 498.82,110.35 499.21,110.35 499.60,110.36 500.22,110.37 501.00,110.38 504.04,110.42 505.98,110.45 507.70,110.47 508.71,110.48 510.11,110.50 513.54,110.54 517.63,110.57 519.89,110.59 522.73,110.61 524.33,110.62 527.05,110.64 531.30,110.67 534.14,110.70 536.94,110.72 539.36,110.73 541.11,110.75 545.20,110.76 546.53,110.77 548.59,110.78 551.12,110.79 552.87,110.79 555.60,110.80 558.33,110.81 559.61,110.82 560.74,110.82 561.60,110.83 562.73,110.83 564.91,110.84 566.74,110.84 567.24,110.85 568.57,110.85 571.22,110.86 573.44,110.87 575.66,110.88 578.50,110.88 582.35,110.89 585.35,110.89 589.05,110.90 593.53,110.91 598.01,110.91 601.71,110.92 605.80,110.92 610.08,110.93 614.76,110.94 620.32,110.95 625.97,110.96 631.46,110.96 636.80,110.97 642.64,110.97 649.34,110.98 657.24,110.98 664.95,110.99 671.65,110.99 678.35,111.00 685.05,111.00 696.19,111.00 702.89,111.00 711.80,111.00 718.50,111.01 727.46,111.01 736.38,111.01 745.30,111.01 754.21,111.01 758.65,111.03"/>
<line x1="78" y1="267.06" x2="772" y2="267.06" stroke="#2ca02c" opacity="0.18" stroke-dasharray="3 4"/>
<polyline fill="none" stroke="#2ca02c" stroke-width="2.0" points="91.35,267.06 100.15,267.06 108.95,267.06 119.93,267.06 128.73,267.06 137.53,267.06 146.34,267.06 155.10,267.06 163.90,267.06 174.92,267.06 183.68,267.06 192.48,267.06 198.33,267.06 199.53,267.06 200.39,267.06 200.86,267.06 201.32,267.06 202.03,267.06 202.53,267.06 203.51,267.06 206.00,267.06 207.05,267.06 207.91,267.06 208.41,267.06 209.11,267.06 209.58,267.06 210.90,267.06 211.64,267.06 212.27,267.06 212.81,267.06 213.40,267.06 214.29,267.06 214.64,267.06 216.16,267.06 217.02,267.06 218.42,267.06 219.47,267.06 221.11,267.06 222.94,267.06 225.20,267.06 226.56,267.06 227.57,267.06 228.78,267.06 229.87,267.06 231.12,267.06 231.93,267.06 232.75,267.06 233.69,267.06 235.28,267.06 236.06,267.06 236.80,267.06 237.78,267.06 238.75,267.06 239.96,267.06 240.89,267.06 242.37,267.06 243.42,267.06 245.10,267.06 246.42,267.06 247.59,267.06 248.56,267.06 249.50,267.06 250.90,267.06 252.30,267.06 254.13,267.06 255.22,267.06 256.47,267.06 257.91,267.06 259.43,267.06 260.79,267.06 262.58,267.05 263.71,267.05 265.50,267.04 266.87,267.03 269.01,267.01 270.53,267.00 272.83,266.99 274.03,266.99 275.40,266.99 277.07,267.03 278.04,267.06 278.90,267.11 279.76,267.17 280.81,267.26 281.47,267.33 284.86,267.67 287.04,267.87 288.56,267.99 290.04,268.09 291.29,268.14 291.79,268.14 292.30,268.13 293.62,268.07 296.23,267.94 297.52,267.90 298.26,267.89 299.54,267.88 300.36,267.89 302.58,267.95 305.42,268.05 306.16,268.06 308.93,268.08 310.95,268.07 312.74,268.03 313.72,268.00 317.61,267.86 320.03,267.78 322.21,267.73 324.43,267.70 326.92,267.62 328.83,267.46 330.66,267.17 331.98,266.85 333.23,266.47 335.25,265.66 336.42,265.14 337.82,264.44 339.42,263.59 340.51,263.00 342.03,262.17 343.98,261.11 344.76,260.70 346.39,259.86 348.07,259.03 349.82,258.20 351.69,257.33 353.95,256.29 356.01,255.31 357.41,254.64 358.54,254.08 360.29,253.20 362.59,252.00 364.85,250.78 366.37,249.93 368.39,248.80 370.61,247.55 371.67,246.96 374.51,245.39 376.07,244.56 378.52,243.32 380.16,242.49 381.83,241.65 385.14,240.08 386.27,239.58 388.41,238.64 390.40,237.84 392.27,237.10 394.80,236.17 396.98,235.44 399.20,234.77 402.82,233.80 404.89,233.25 408.04,232.56 412.36,231.74 415.21,231.32 420.03,230.59 421.44,230.37 424.28,230.05 427.01,229.75 429.97,229.43 434.37,229.11 438.77,228.79 442.35,228.53 444.88,228.42 447.57,228.29 449.98,228.18 452.44,228.07 456.21,227.90 459.64,227.80 462.68,227.71 468.68,227.54 473.08,227.45 476.85,227.38 482.73,227.27 490.76,227.18 495.24,227.12 504.74,227.06 508.40,227.04 510.42,227.03 513.54,227.01 515.72,227.00 519.73,226.97 521.60,226.96 523.16,226.95 525.57,226.95 527.56,226.94 530.13,226.93 533.87,226.92 536.63,226.91 539.55,226.90 542.12,226.89 544.31,226.88 548.28,226.88 550.89,226.87 554.04,226.87 557.04,226.86 559.73,226.86 563.47,226.85 566.31,226.85 569.19,226.85 570.71,226.84 573.94,226.84 576.75,226.84 580.45,226.83 584.15,226.83 586.09,226.82 589.21,226.82 591.86,226.82 594.54,226.82 598.71,226.81 601.51,226.81 603.70,226.81 607.51,226.81 609.07,226.81 614.09,226.80 616.86,226.80 621.26,226.80 623.44,226.79 627.76,226.79 629.98,226.79 634.97,226.79 637.62,226.79 643.26,226.79 645.44,226.79 651.21,226.79 656.46,226.79 660.87,226.78 667.45,226.78 670.17,226.78 678.43,226.78 685.05,226.78 692.99,226.78 696.85,226.78 704.83,226.77 711.41,226.77 718.04,226.77 726.80,226.77 735.60,226.77 744.40,226.77 748.76,226.76"/>
<line x1="78" y1="267.06" x2="772" y2="267.06" stroke="#9467bd" opacity="0.18" stroke-dasharray="3 4"/>
<polyline fill="none" stroke="#9467bd" stroke-width="2.0" points="91.35,226.76 97.42,226.76 103.50,226.76 111.09,226.76 117.21,226.76 123.28,226.76 129.36,226.76 135.43,226.76 141.51,226.76 149.10,226.76 155.21,226.76 161.29,226.76 167.37,226.76 173.44,226.76 181.03,226.76 186.68,226.76 191.67,226.76 193.26,226.76 194.00,226.76 194.74,226.76 195.60,226.76 196.26,226.76 196.96,226.76 197.78,226.76 198.40,226.76 199.07,226.76 200.12,226.76 200.62,226.76 200.93,226.76 201.40,226.76 201.95,226.76 202.45,226.76 202.96,226.76 204.09,226.76 204.56,226.76 205.06,226.76 205.61,226.76 206.54,226.76 207.09,226.76 207.63,226.76 208.10,226.76 208.57,226.76 209.35,226.76 209.93,226.76 210.48,226.76 211.02,226.76 211.53,226.76 212.11,226.76 212.66,226.76 213.20,226.76 213.83,226.76 214.37,226.76 214.99,226.76 215.58,226.76 215.97,226.76 216.40,226.76 216.94,226.76 217.45,226.76 217.95,226.76 218.89,226.76 219.43,226.76 220.17,226.76 220.68,226.76 221.30,226.75 222.08,226.75 222.70,226.75 223.48,226.75 224.26,226.75 225.12,226.75 226.01,226.75 227.18,226.75 228.20,226.75 229.68,226.75 231.19,226.75 232.36,226.75 233.22,226.75 234.93,226.75 235.91,226.75 237.31,226.75 238.83,226.75 240.15,226.75 241.36,226.76 242.61,226.76 244.05,226.77 246.38,226.79 247.47,226.79 250.55,226.81 253.24,226.82 255.65,226.83 259.70,226.86 262.47,226.87 264.96,226.87 267.06,226.85 268.81,226.81 269.98,226.75 271.11,226.68 272.09,226.59 273.57,226.43 274.93,226.23 276.10,226.04 277.15,225.84 278.36,225.58 279.45,225.32 280.77,224.98 281.71,224.71 283.15,224.28 284.12,224.00 284.55,223.89 285.48,223.68 286.96,223.54 288.09,223.67 288.99,223.94 290.00,224.41 290.58,224.78 291.25,225.28 292.06,226.00 292.69,226.65 293.54,227.64 294.09,228.32 294.75,229.21 295.96,230.95 296.58,231.89 297.36,233.09 298.22,234.44 299.31,236.17 300.13,237.45 300.98,238.79 301.84,240.09 302.62,241.26 303.44,242.44 304.21,243.54 305.54,245.32 306.20,246.19 307.21,247.47 308.34,248.80 308.73,249.25 309.82,250.46 311.19,251.86 312.08,252.71 313.29,253.79 314.61,254.88 315.51,255.57 316.91,256.54 318.47,257.49 320.92,258.74 322.44,259.41 323.96,260.05 325.21,260.53 327.15,261.23 329.06,261.86 331.01,262.46 332.92,263.00 334.86,263.52 336.97,264.03 339.03,264.48 342.19,265.07 343.74,265.32 346.74,265.71 348.26,265.88 352.19,266.21 354.02,266.32 357.37,266.46 359.16,266.51 363.06,266.59 368.04,266.66 374.12,266.74 380.19,266.80 386.27,266.85 392.35,266.90 396.90,266.92 400.87,266.94 404.11,266.95 406.40,266.96 408.82,266.97 411.12,266.98 414.86,266.99 417.78,267.00 421.24,267.00 423.27,267.01 424.28,267.01 426.77,267.01 428.60,267.02 429.61,267.02 430.90,267.02 432.30,267.02 433.39,267.02 434.76,267.02 435.85,267.02 437.09,267.03 438.22,267.03 439.47,267.03 440.75,267.03 442.15,267.03 442.58,267.03 443.63,267.03 444.76,267.03 446.05,267.03 447.33,267.03 448.62,267.03 449.52,267.03 450.84,267.04 451.66,267.04 452.32,267.04 454.11,267.04 455.20,267.04 456.21,267.04 457.69,267.04 458.82,267.04 460.03,267.04 461.70,267.04 463.61,267.04 464.28,267.04 466.14,267.04 467.08,267.04 468.79,267.04 471.09,267.05 471.99,267.05 474.32,267.05 475.96,267.05 477.48,267.05 480.05,267.05 482.70,267.05 485.11,267.05 488.23,267.05 490.29,267.05 492.70,267.05 497.26,267.05 500.30,267.05 503.34,267.05 507.89,267.05 510.93,267.05 515.49,267.05 518.52,267.05 522.77,267.05 527.21,267.05 529.20,267.05 533.75,267.05 538.31,267.05 542.86,267.05 545.86,267.06"/>
<line x1="88" y1="72" x2="110" y2="72" stroke="#1f77b4" stroke-width="2.4"/>
<text x="116" y="76" font-family="Arial, sans-serif" font-size="12">rising #1</text>
<line x1="88" y1="90" x2="110" y2="90" stroke="#d62728" stroke-width="2.4"/>
<text x="116" y="94" font-family="Arial, sans-serif" font-size="12">falling #2</text>
<line x1="88" y1="108" x2="110" y2="108" stroke="#2ca02c" stroke-width="2.4"/>
<text x="116" y="112" font-family="Arial, sans-serif" font-size="12">rising #3</text>
<line x1="88" y1="126" x2="110" y2="126" stroke="#9467bd" stroke-width="2.4"/>
<text x="116" y="130" font-family="Arial, sans-serif" font-size="12">falling #4</text>
<rect x="78" y="342" width="694" height="44" fill="#fffdf7" stroke="#d8c6a1" rx="4"/>
<text x="88" y="359" font-family="Arial, sans-serif" font-size="11" font-weight="700" fill="#4b3b21">Findings needing attention</text>
<rect x="88" y="366" width="7" height="7" fill="#b54708"/>
<text x="102" y="373" font-family="Arial, sans-serif" font-size="11" fill="#333">WARN 5.5.4: Ramp dt versus V-T 20-80% evidence needs review | avg Ramp dt=1.346e-09s, avg V-T 20-80% span=9.033e-...</text>
<text x="425.00" y="322.00" text-anchor="middle" font-family="Arial, sans-serif" font-size="12">Time (s)</text>
<text x="420" y="42" font-family="Arial, sans-serif" font-size="11" fill="#555">solid=V-T voltage, faint horizontal=V_fixture</text>
</svg>