<svg xmlns="http://www.w3.org/2000/svg" width="800" height="450" viewBox="0 0 800 450">
<rect width="100%" height="100%" fill="#ffffff"/>
<text x="78" y="25" font-family="Arial, sans-serif" font-size="16" font-weight="700">E34_GPIO_1V1TO1V8_1v8_01 V-T Waveforms</text>
<rect x="78" y="54" width="694" height="230" fill="#fbfbfb" stroke="#c8c8c8"/>
<text transform="translate(18 169.00) rotate(-90)" text-anchor="middle" font-family="Arial, sans-serif" font-size="12">Voltage (V)</text>
<line x1="78.00" y1="54" x2="78.00" y2="284" stroke="#ececec"/>
<text x="78.00" y="302" text-anchor="middle" font-family="Arial, sans-serif" font-size="10">-303p</text>
<line x1="216.80" y1="54" x2="216.80" y2="284" stroke="#ececec"/>
<text x="216.80" y="302" text-anchor="middle" font-family="Arial, sans-serif" font-size="10">2.85n</text>
<line x1="355.60" y1="54" x2="355.60" y2="284" stroke="#ececec"/>
<text x="355.60" y="302" text-anchor="middle" font-family="Arial, sans-serif" font-size="10">6n</text>
<line x1="494.40" y1="54" x2="494.40" y2="284" stroke="#ececec"/>
<text x="494.40" y="302" text-anchor="middle" font-family="Arial, sans-serif" font-size="10">9.15n</text>
<line x1="633.20" y1="54" x2="633.20" y2="284" stroke="#ececec"/>
<text x="633.20" y="302" text-anchor="middle" font-family="Arial, sans-serif" font-size="10">12.3n</text>
<line x1="772.00" y1="54" x2="772.00" y2="284" stroke="#ececec"/>
<text x="772.00" y="302" text-anchor="middle" font-family="Arial, sans-serif" font-size="10">15.5n</text>
<line x1="78" y1="284.00" x2="772" y2="284.00" stroke="#ececec"/>
<text x="70" y="288.00" text-anchor="end" font-family="Arial, sans-serif" font-size="10">-0.157</text>
<line x1="78" y1="226.50" x2="772" y2="226.50" stroke="#ececec"/>
<text x="70" y="230.50" text-anchor="end" font-family="Arial, sans-serif" font-size="10">0.371</text>
<line x1="78" y1="169.00" x2="772" y2="169.00" stroke="#ececec"/>
<text x="70" y="173.00" text-anchor="end" font-family="Arial, sans-serif" font-size="10">0.899</text>
<line x1="78" y1="111.50" x2="772" y2="111.50" stroke="#ececec"/>
<text x="70" y="115.50" text-anchor="end" font-family="Arial, sans-serif" font-size="10">1.4</text>
<line x1="78" y1="54.00" x2="772" y2="54.00" stroke="#ececec"/>
<text x="70" y="58.00" text-anchor="end" font-family="Arial, sans-serif" font-size="10">2</text>
<line x1="78" y1="71.00" x2="772" y2="71.00" stroke="#1f77b4" opacity="0.18" stroke-dasharray="3 4"/>
<polyline fill="none" stroke="#1f77b4" stroke-width="2.0" points="91.35,139.39 95.53,139.39 99.71,139.39 102.62,139.39 104.95,139.39 109.18,139.39 113.10,139.38 115.43,139.38 116.31,139.39 117.59,139.39 117.85,139.39 118.03,139.39 118.21,139.39 118.38,139.39 118.60,139.39 118.82,139.39 119.04,139.39 119.26,139.39 119.57,139.39 119.83,139.39 120.10,139.39 120.45,139.39 120.80,139.39 121.16,139.39 121.42,139.39 121.73,139.39 122.08,139.39 122.39,139.39 122.74,139.39 123.09,139.39 123.45,139.38 123.93,139.38 124.33,139.38 124.59,139.37 124.94,139.37 125.29,139.36 125.82,139.35 126.35,139.34 126.92,139.34 127.63,139.34 128.02,139.37 128.20,139.38 128.55,139.44 128.91,139.52 129.13,139.59 129.65,139.82 130.09,140.05 130.58,140.27 130.98,140.34 131.24,140.28 131.59,140.03 131.90,139.61 132.16,139.09 132.52,138.16 132.78,137.28 133.00,136.42 133.18,135.66 133.40,134.60 133.66,133.19 134.10,130.52 134.37,128.78 134.63,126.93 134.85,125.32 135.16,122.99 135.47,120.59 135.77,118.16 135.95,116.76 136.30,113.97 136.66,111.21 136.96,108.86 137.32,106.28 137.58,104.40 137.80,102.89 138.24,100.07 138.50,98.47 138.81,96.72 139.39,93.78 139.69,92.35 140.05,90.86 140.40,89.47 140.97,87.42 141.32,86.29 141.81,84.88 142.12,84.06 142.29,83.61 142.69,82.72 142.86,82.32 143.30,81.43 143.70,80.73 144.36,79.66 144.67,79.20 145.11,78.61 145.46,78.15 145.95,77.64 146.65,76.89 147.18,76.45 147.88,75.86 148.06,75.75 149.38,74.91 150.00,74.62 151.10,74.10 151.89,73.82 152.24,73.70 152.64,73.56 152.95,73.47 154.22,73.13 155.24,72.91 156.34,72.69 157.35,72.54 158.41,72.39 159.33,72.27 160.08,72.18 160.52,72.13 161.67,72.02 163.34,71.89 164.04,71.84 164.70,71.81 165.28,71.78 166.24,71.74 166.51,71.73 166.99,71.71 167.57,71.69 168.09,71.67 168.31,71.66 168.67,71.65 169.11,71.64 169.42,71.63 169.64,71.62 170.12,71.61 170.65,71.60 170.87,71.59 171.26,71.58 171.70,71.57 172.10,71.57 172.32,71.56 172.72,71.55 173.11,71.55 173.64,71.53 174.08,71.53 174.43,71.52 174.83,71.51 175.18,71.51 175.71,71.50 176.15,71.49 176.55,71.48 177.03,71.47 177.43,71.47 177.83,71.46 178.31,71.45 178.88,71.44 179.28,71.44 179.72,71.43 180.38,71.42 180.95,71.41 181.30,71.40 181.66,71.40 182.32,71.39 182.62,71.38 183.15,71.38 184.25,71.36 185.00,71.35 185.66,71.34 186.15,71.34 186.76,71.33 187.95,71.31 188.75,71.30 189.32,71.30 190.24,71.29 191.96,71.27 194.25,71.25 197.20,71.22 198.52,71.21 199.27,71.20 201.34,71.19 201.87,71.18 202.62,71.18 203.01,71.18 203.50,71.17 204.51,71.17 208.74,71.14 210.01,71.13 211.82,71.13 213.49,71.12 214.99,71.11 217.10,71.10 219.83,71.09 222.34,71.09 225.47,71.08 227.80,71.07 229.83,71.07 233.88,71.06 238.06,71.05 241.19,71.05 243.30,71.05 246.43,71.04 249.60,71.04 252.68,71.04 255.85,71.04 257.96,71.03 259.24,71.03 260.21,71.03 262.50,71.03 264.22,71.03 267.39,71.03 271.57,71.03 275.80,71.03 278.92,71.03 282.14,71.02 286.28,71.02 288.52,71.02 292.00,71.02 295.66,71.02 297.77,71.02 299.88,71.02 305.12,71.02 307.59,71.02 311.42,71.02 315.60,71.02 319.79,71.02 323.97,71.02 327.14,71.02 330.66,71.02 334.45,71.02 338.67,71.01 342.86,71.01 345.98,71.01 351.22,71.01 355.41,71.01 359.63,71.01 363.82,71.01 366.94,71.01 372.18,71.01 376.37,71.01 380.59,71.01 384.78,71.01 388.96,71.01 393.14,71.01 398.38,71.01 402.57,71.01 404.64,71.00"/>
<line x1="78" y1="71.00" x2="772" y2="71.00" stroke="#d62728" opacity="0.18" stroke-dasharray="3 4"/>
<polyline fill="none" stroke="#d62728" stroke-width="2.0" points="91.35,71.00 100.28,71.00 109.22,71.00 120.36,71.01 121.90,71.00 122.83,71.00 124.72,71.00 126.44,71.00 126.75,71.00 130.09,71.00 131.50,71.01 132.91,71.05 133.57,71.09 134.28,71.10 135.33,71.01 135.69,70.94 136.44,70.73 137.05,70.54 138.02,70.28 138.28,70.22 139.43,70.04 140.18,69.97 141.01,69.91 141.90,69.88 142.69,69.87 143.30,69.86 144.23,69.87 145.33,69.87 146.69,69.89 147.75,69.90 148.81,69.90 149.91,69.92 150.61,69.94 151.05,69.95 151.45,69.98 152.20,70.02 152.99,70.09 154.18,70.24 155.41,70.48 156.07,70.63 156.69,70.80 157.57,71.09 158.32,71.38 159.16,71.74 160.34,72.35 161.36,72.96 161.89,73.30 162.81,73.94 164.04,74.91 165.23,75.93 166.47,77.09 167.57,78.20 168.53,79.23 169.28,80.05 169.50,80.30 170.74,81.71 171.66,82.82 172.15,83.40 172.54,83.88 173.03,84.48 173.91,85.57 175.27,87.26 176.37,88.65 177.47,90.03 178.31,91.08 179.10,92.07 179.98,93.17 180.82,94.21 181.92,95.57 182.49,96.27 183.73,97.75 185.09,99.39 185.80,100.20 186.81,101.37 187.42,102.08 188.04,102.78 188.48,103.26 189.19,104.02 190.42,105.34 191.21,106.20 192.31,107.30 193.10,108.08 193.85,108.81 194.56,109.50 195.35,110.28 196.76,111.58 198.48,113.13 200.15,114.55 201.56,115.74 203.45,117.24 205.17,118.54 207.11,119.93 208.30,120.75 208.91,121.16 209.62,121.62 210.59,122.23 211.38,122.72 213.54,123.98 214.90,124.74 215.96,125.30 216.66,125.66 219.04,126.82 219.52,127.04 220.71,127.58 221.42,127.88 222.83,128.47 224.10,128.98 225.91,129.66 226.92,130.02 228.07,130.41 229.12,130.75 229.92,131.00 230.09,131.05 230.44,131.16 231.41,131.45 231.90,131.59 232.60,131.79 234.19,132.22 235.38,132.53 236.74,132.86 238.63,133.29 240.22,133.63 241.23,133.83 242.11,134.00 243.04,134.17 244.89,134.50 246.74,134.81 249.42,135.22 249.99,135.30 250.70,135.40 251.32,135.49 252.06,135.59 252.33,135.62 253.16,135.74 254.27,135.87 256.03,136.08 257.96,136.30 259.28,136.44 261.97,136.71 265.10,137.00 267.65,137.21 269.02,137.32 272.01,137.54 272.98,137.61 273.77,137.66 275.44,137.76 277.87,137.90 278.84,137.95 280.60,138.02 282.27,138.09 282.84,138.12 285.09,138.21 286.58,138.27 289.98,138.37 292.22,138.44 293.32,138.47 293.94,138.49 295.61,138.54 298.91,138.61 300.50,138.64 300.85,138.65 302.74,138.68 303.05,138.69 303.67,138.70 305.17,138.73 307.68,138.77 312.17,138.86 316.79,138.91 320.97,138.97 321.68,138.97 324.58,139.01 327.93,139.04 330.13,139.06 331.19,139.06 332.03,139.07 332.38,139.07 333.39,139.08 333.88,139.08 337.35,139.11 339.07,139.12 345.81,139.17 353.03,139.20 356.38,139.21 358.27,139.22 359.55,139.23 362.76,139.24 366.68,139.25 374.78,139.27 379.40,139.28 381.52,139.29 383.68,139.29 384.34,139.30 384.78,139.30 385.97,139.30 388.26,139.30 389.31,139.31 390.41,139.31 394.11,139.32 394.90,139.32 398.78,139.32 403.80,139.33 412.74,139.34 421.68,139.35 430.61,139.35 439.51,139.36 448.45,139.36 457.39,139.36 464.08,139.37 473.02,139.37 484.16,139.37 493.10,139.37 502.03,139.37 510.97,139.38 519.87,139.38 531.05,139.38 539.95,139.38 548.88,139.38 557.82,139.38 566.76,139.38 575.70,139.38 586.84,139.38 595.78,139.38 604.67,139.38 613.61,139.38 622.55,139.38 631.49,139.38 642.63,139.38 651.57,139.38 660.51,139.38 669.40,139.38 678.34,139.38 689.52,139.38 698.42,139.38 707.36,139.38 716.29,139.38 725.23,139.39 734.13,139.39 745.31,139.39 754.25,139.39 758.65,139.39"/>
<line x1="78" y1="266.88" x2="772" y2="266.88" stroke="#2ca02c" opacity="0.18" stroke-dasharray="3 4"/>
<polyline fill="none" stroke="#2ca02c" stroke-width="2.0" points="91.35,266.88 98.52,266.88 105.66,266.88 114.64,266.87 116.66,266.87 116.84,266.87 117.02,266.87 117.19,266.87 117.37,266.87 117.59,266.87 117.77,266.87 117.99,266.87 118.25,266.87 121.68,266.88 122.34,266.88 122.79,266.88 123.23,266.88 123.58,266.88 123.84,266.88 124.15,266.88 124.59,266.88 125.25,266.88 128.38,266.85 129.52,266.81 129.79,266.82 129.96,266.82 130.40,266.86 130.71,266.90 131.15,266.98 132.16,267.18 132.82,267.31 133.97,267.51 135.07,267.71 135.77,267.83 136.26,267.90 136.52,267.94 137.01,268.01 137.54,268.07 137.93,268.10 138.33,268.13 138.99,268.14 139.52,268.12 139.78,268.11 140.44,268.05 141.28,267.96 141.98,267.88 142.60,267.81 143.08,267.76 144.05,267.67 144.98,267.60 145.24,267.58 146.39,267.50 147.00,267.47 147.84,267.42 148.81,267.35 149.29,267.32 150.31,267.23 150.92,267.18 151.27,267.13 152.20,266.98 152.82,266.89 153.12,266.84 153.56,266.75 154.14,266.62 154.66,266.49 155.06,266.39 155.41,266.29 155.85,266.16 156.16,266.05 156.51,265.93 157.04,265.72 157.53,265.51 157.83,265.36 158.28,265.13 158.67,264.93 159.07,264.68 159.73,264.28 160.17,263.97 160.78,263.53 161.18,263.21 161.75,262.75 162.41,262.16 163.03,261.59 163.65,260.97 164.09,260.52 164.53,260.03 165.01,259.50 165.58,258.83 166.16,258.15 166.42,257.83 166.73,257.43 167.26,256.76 167.74,256.13 168.36,255.30 168.62,254.94 170.08,252.90 170.91,251.70 171.97,250.14 172.45,249.43 173.86,247.31 174.74,245.99 175.71,244.53 177.08,242.48 178.57,240.27 179.15,239.42 179.45,238.98 180.42,237.59 181.39,236.21 181.79,235.65 182.49,234.69 183.95,232.73 185.27,231.01 186.10,229.95 187.42,228.28 188.35,227.20 190.15,225.09 190.81,224.35 191.92,223.14 192.66,222.34 193.59,221.36 195.22,219.73 196.10,218.88 197.33,217.73 198.17,216.99 198.96,216.30 199.80,215.60 201.03,214.62 201.82,214.01 202.48,213.52 203.50,212.79 204.73,211.95 205.70,211.32 206.36,210.91 207.11,210.46 207.90,210.00 209.40,209.18 210.23,208.75 211.33,208.21 212.79,207.54 213.71,207.14 214.64,206.76 215.30,206.50 216.00,206.24 217.37,205.75 218.64,205.32 220.32,204.81 220.98,204.62 222.12,204.30 223.79,203.86 224.90,203.60 225.82,203.39 227.27,203.07 228.37,202.85 230.80,202.41 231.46,202.29 232.87,202.06 234.32,201.83 236.43,201.54 238.24,201.30 240.00,201.09 241.80,200.90 243.57,200.73 245.37,200.58 247.18,200.44 248.81,200.33 250.74,200.21 252.55,200.10 254.00,200.01 254.88,199.97 257.61,199.85 260.39,199.73 262.28,199.66 263.60,199.62 266.29,199.55 268.66,199.48 270.60,199.43 274.12,199.34 276.46,199.29 277.69,199.27 281.21,199.20 283.33,199.16 287.25,199.11 290.15,199.08 292.71,199.05 295.30,199.02 297.02,199.00 300.90,198.98 305.03,198.95 308.56,198.93 311.68,198.90 313.44,198.90 317.06,198.88 320.62,198.87 324.19,198.86 327.89,198.84 331.98,198.83 336.56,198.82 340.44,198.82 345.68,198.81 350.04,198.80 354.92,198.79 360.03,198.79 363.91,198.78 370.77,198.78 376.15,198.77 381.52,198.77 388.70,198.77 393.41,198.76 399.44,198.76 408.38,198.76 415.56,198.76 422.73,198.76 428.10,198.76 435.24,198.75 444.22,198.75 451.35,198.75 458.53,198.75 465.71,198.75 472.88,198.75 480.02,198.75 489.00,198.75 496.13,198.75 503.31,198.75 510.49,198.75 517.67,198.75 524.80,198.75 533.78,198.75 540.91,198.75 548.09,198.75 555.27,198.75 562.45,198.75 571.38,198.75 578.56,198.75 585.70,198.75 592.87,198.75 600.05,198.75 607.23,198.75 616.17,198.75 623.34,198.75 626.87,198.74"/>
<line x1="78" y1="266.88" x2="772" y2="266.88" stroke="#9467bd" opacity="0.18" stroke-dasharray="3 4"/>
<polyline fill="none" stroke="#9467bd" stroke-width="2.0" points="91.35,198.74 94.25,198.74 97.16,198.74 102.05,198.74 105.92,198.74 108.83,198.74 112.70,198.74 115.61,198.73 118.43,198.73 118.69,198.73 118.87,198.73 119.04,198.73 119.22,198.73 119.39,198.73 119.61,198.73 119.79,198.74 119.97,198.74 120.14,198.74 120.32,198.74 120.50,198.74 120.80,198.74 120.98,198.74 121.16,198.74 121.33,198.74 121.51,198.74 121.73,198.74 121.95,198.74 122.12,198.74 122.34,198.74 122.56,198.74 122.74,198.74 123.05,198.74 123.31,198.74 123.58,198.74 123.93,198.74 124.24,198.74 124.55,198.74 124.94,198.74 125.16,198.74 125.43,198.74 125.82,198.74 126.18,198.74 126.62,198.75 127.01,198.75 127.32,198.75 127.67,198.75 128.11,198.76 128.47,198.76 129.04,198.77 129.48,198.77 129.92,198.78 130.31,198.78 130.89,198.79 131.33,198.79 131.64,198.79 131.94,198.79 132.16,198.79 132.52,198.77 132.69,198.76 133.04,198.73 133.26,198.71 133.53,198.67 133.79,198.62 133.97,198.58 134.19,198.52 134.37,198.47 134.54,198.42 134.76,198.34 135.07,198.24 135.29,198.17 135.55,198.10 135.73,198.07 135.91,198.05 136.08,198.06 136.30,198.10 136.48,198.16 136.79,198.34 137.01,198.52 137.32,198.88 137.58,199.28 138.02,200.12 138.46,201.19 138.90,202.46 139.34,203.90 139.74,205.35 140.18,207.09 140.49,208.39 141.01,210.70 141.28,211.89 141.59,213.30 141.98,215.16 142.47,217.47 142.86,219.38 143.30,221.50 143.57,222.78 143.88,224.26 144.18,225.74 144.54,227.41 144.98,229.47 145.33,231.09 145.64,232.49 145.86,233.47 146.25,235.20 146.61,236.70 146.91,237.98 147.31,239.57 147.62,240.77 147.97,242.10 148.50,244.00 148.90,245.36 149.42,247.09 149.82,248.31 150.17,249.35 150.57,250.46 151.32,252.39 151.93,253.81 152.51,255.02 153.34,256.56 154.18,257.95 155.15,259.30 155.72,260.02 156.51,260.90 157.79,262.07 158.32,262.50 159.33,263.19 160.30,263.76 161.27,264.24 162.50,264.74 163.34,265.03 164.79,265.42 165.23,265.52 166.16,265.69 166.64,265.78 166.95,265.83 167.30,265.88 167.79,265.95 168.14,266.00 168.71,266.07 169.06,266.11 169.42,266.15 169.68,266.17 169.94,266.19 170.74,266.27 171.09,266.29 171.44,266.31 171.75,266.34 172.10,266.36 172.41,266.38 172.81,266.40 173.11,266.42 173.51,266.44 173.77,266.45 174.17,266.47 174.61,266.48 175.01,266.50 175.54,266.52 176.24,266.54 176.77,266.56 177.16,266.57 177.74,266.58 178.27,266.59 178.84,266.60 179.50,266.62 180.07,266.62 180.86,266.64 181.57,266.65 182.05,266.65 182.45,266.66 183.15,266.67 183.64,266.67 184.52,266.68 184.96,266.69 185.66,266.69 186.28,266.70 187.03,266.70 187.78,266.71 188.44,266.72 189.10,266.72 190.29,266.73 190.95,266.73 191.52,266.73 192.93,266.74 193.46,266.74 194.29,266.75 195.35,266.75 196.76,266.76 197.95,266.76 199.14,266.77 200.24,266.77 202.04,266.78 203.72,266.78 205.83,266.79 207.55,266.79 209.84,266.80 211.69,266.80 214.33,266.81 216.35,266.81 218.56,266.81 220.49,266.82 222.43,266.82 225.34,266.83 229.21,266.83 233.09,266.83 237.97,266.84 241.85,266.84 245.72,266.85 249.60,266.85 253.47,266.85 257.39,266.85 262.24,266.85 266.11,266.86 269.98,266.86 273.86,266.86 277.78,266.86 282.62,266.86 286.50,266.86 290.37,266.86 294.25,266.86 298.17,266.86 302.04,266.86 306.88,266.86 310.76,266.86 314.68,266.87 318.55,266.87 322.43,266.87 326.30,266.87 331.15,266.87 335.06,266.87 338.94,266.87 342.81,266.87 346.69,266.87 351.53,266.87 355.45,266.87 359.33,266.87 363.20,266.87 367.08,266.87 370.95,266.87 375.84,266.87 379.71,266.87 381.61,266.88"/>
<line x1="88" y1="72" x2="110" y2="72" stroke="#1f77b4" stroke-width="2.4"/>
<text x="116" y="76" font-family="Arial, sans-serif" font-size="12">rising #1</text>
<line x1="88" y1="90" x2="110" y2="90" stroke="#d62728" stroke-width="2.4"/>
<text x="116" y="94" font-family="Arial, sans-serif" font-size="12">falling #2</text>
<line x1="88" y1="108" x2="110" y2="108" stroke="#2ca02c" stroke-width="2.4"/>
<text x="116" y="112" font-family="Arial, sans-serif" font-size="12">rising #3</text>
<line x1="88" y1="126" x2="110" y2="126" stroke="#9467bd" stroke-width="2.4"/>
<text x="116" y="130" font-family="Arial, sans-serif" font-size="12">falling #4</text>
<rect x="78" y="342" width="694" height="44" fill="#fffdf7" stroke="#d8c6a1" rx="4"/>
<text x="88" y="359" font-family="Arial, sans-serif" font-size="11" font-weight="700" fill="#4b3b21">Findings needing attention</text>
<rect x="88" y="366" width="7" height="7" fill="#b54708"/>
<text x="102" y="373" font-family="Arial, sans-serif" font-size="11" fill="#333">WARN 5.5.4: Ramp dt versus V-T 20-80% evidence needs review | avg Ramp dt=8.840e-10s, avg V-T 20-80% span=5.407e-...</text>
<text x="425.00" y="322.00" text-anchor="middle" font-family="Arial, sans-serif" font-size="12">Time (s)</text>
<text x="420" y="42" font-family="Arial, sans-serif" font-size="11" fill="#555">solid=V-T voltage, faint horizontal=V_fixture</text>
</svg>