<svg xmlns="http://www.w3.org/2000/svg" width="800" height="450" viewBox="0 0 800 450">
<rect width="100%" height="100%" fill="#ffffff"/>
<text x="78" y="25" font-family="Arial, sans-serif" font-size="16" font-weight="700">E34_GPIO_SPI_1V1_11 V-T Waveforms</text>
<rect x="78" y="54" width="694" height="230" fill="#fbfbfb" stroke="#c8c8c8"/>
<text transform="translate(18 169.00) rotate(-90)" text-anchor="middle" font-family="Arial, sans-serif" font-size="12">Voltage (V)</text>
<line x1="78.00" y1="54" x2="78.00" y2="284" stroke="#ececec"/>
<text x="78.00" y="302" text-anchor="middle" font-family="Arial, sans-serif" font-size="10">-766p</text>
<line x1="216.80" y1="54" x2="216.80" y2="284" stroke="#ececec"/>
<text x="216.80" y="302" text-anchor="middle" font-family="Arial, sans-serif" font-size="10">7.2n</text>
<line x1="355.60" y1="54" x2="355.60" y2="284" stroke="#ececec"/>
<text x="355.60" y="302" text-anchor="middle" font-family="Arial, sans-serif" font-size="10">15.2n</text>
<line x1="494.40" y1="54" x2="494.40" y2="284" stroke="#ececec"/>
<text x="494.40" y="302" text-anchor="middle" font-family="Arial, sans-serif" font-size="10">23.1n</text>
<line x1="633.20" y1="54" x2="633.20" y2="284" stroke="#ececec"/>
<text x="633.20" y="302" text-anchor="middle" font-family="Arial, sans-serif" font-size="10">31.1n</text>
<line x1="772.00" y1="54" x2="772.00" y2="284" stroke="#ececec"/>
<text x="772.00" y="302" text-anchor="middle" font-family="Arial, sans-serif" font-size="10">39.1n</text>
<line x1="78" y1="284.00" x2="772" y2="284.00" stroke="#ececec"/>
<text x="70" y="288.00" text-anchor="end" font-family="Arial, sans-serif" font-size="10">-0.1</text>
<line x1="78" y1="226.50" x2="772" y2="226.50" stroke="#ececec"/>
<text x="70" y="230.50" text-anchor="end" font-family="Arial, sans-serif" font-size="10">0.225</text>
<line x1="78" y1="169.00" x2="772" y2="169.00" stroke="#ececec"/>
<text x="70" y="173.00" text-anchor="end" font-family="Arial, sans-serif" font-size="10">0.55</text>
<line x1="78" y1="111.50" x2="772" y2="111.50" stroke="#ececec"/>
<text x="70" y="115.50" text-anchor="end" font-family="Arial, sans-serif" font-size="10">0.874</text>
<line x1="78" y1="54.00" x2="772" y2="54.00" stroke="#ececec"/>
<text x="70" y="58.00" text-anchor="end" font-family="Arial, sans-serif" font-size="10">1.2</text>
<line x1="78" y1="71.59" x2="772" y2="71.59" stroke="#1f77b4" opacity="0.18" stroke-dasharray="3 4"/>
<polyline fill="none" stroke="#1f77b4" stroke-width="2.0" points="91.35,215.45 92.71,215.45 94.08,215.45 95.77,215.45 97.15,215.46 98.51,215.47 99.87,215.44 100.77,215.38 101.00,215.36 101.17,215.35 101.33,215.34 101.66,215.32 101.92,215.30 102.10,215.29 102.62,215.26 102.81,215.25 103.07,215.25 103.23,215.26 103.44,215.28 103.56,215.31 103.77,215.36 103.91,215.41 104.03,215.47 104.22,215.58 104.41,215.71 104.55,215.82 104.71,215.95 104.89,216.12 105.01,216.25 105.20,216.46 105.39,216.68 105.55,216.87 105.65,217.00 105.81,217.19 105.91,217.32 106.04,217.47 106.21,217.67 106.42,217.91 106.59,218.11 106.75,218.27 106.84,218.36 106.94,218.45 107.08,218.58 107.19,218.66 107.34,218.77 107.48,218.84 107.62,218.89 107.69,218.90 107.83,218.90 107.93,218.87 108.07,218.80 108.18,218.72 108.27,218.62 108.44,218.39 108.54,218.21 108.65,217.98 108.72,217.83 108.86,217.44 108.96,217.13 109.26,215.99 109.42,215.25 109.64,214.01 109.78,213.16 110.03,211.39 110.18,210.06 110.34,208.64 110.64,205.55 110.88,202.60 111.04,200.50 111.14,199.02 111.38,195.29 111.56,192.38 111.65,190.88 111.84,187.44 111.98,184.81 112.08,182.83 112.31,178.36 112.57,173.06 112.73,169.80 112.99,164.34 113.20,159.95 113.48,154.08 113.65,150.44 113.86,146.11 114.05,142.19 114.21,139.02 114.42,134.89 114.63,130.86 114.82,127.27 114.94,125.04 115.08,122.56 115.20,120.43 115.39,117.21 115.57,114.40 115.72,111.94 115.90,109.32 116.05,107.04 116.21,104.84 116.37,102.72 116.51,100.89 116.72,98.27 116.94,95.58 117.12,93.62 117.40,90.68 117.66,88.17 117.83,86.63 117.92,85.90 118.06,84.79 118.22,83.63 118.48,81.89 118.70,80.56 119.00,79.08 119.23,78.13 119.40,77.48 119.73,76.45 120.05,75.68 120.29,75.21 120.69,74.59 120.99,74.23 121.06,74.16 121.33,73.90 121.89,73.52 122.17,73.38 122.36,73.29 122.94,73.06 123.25,72.95 123.51,72.85 123.69,72.79 123.93,72.71 124.42,72.56 124.70,72.48 125.45,72.28 125.93,72.18 126.20,72.14 126.37,72.11 126.51,72.08 126.98,72.02 127.43,71.96 128.06,71.90 128.51,71.86 128.78,71.84 129.19,71.82 129.37,71.81 129.54,71.80 129.66,71.79 129.84,71.78 130.12,71.77 130.24,71.76 130.40,71.76 130.47,71.76 130.59,71.75 130.73,71.75 130.88,71.74 131.21,71.73 131.41,71.73 131.67,71.72 131.91,71.71 132.21,71.70 132.33,71.70 132.61,71.69 132.77,71.69 133.01,71.69 133.18,71.68 133.51,71.68 133.81,71.67 134.02,71.67 134.37,71.66 134.65,71.66 134.94,71.66 135.14,71.66 135.45,71.65 135.75,71.65 136.20,71.65 136.55,71.65 136.90,71.64 137.24,71.64 137.59,71.64 137.92,71.64 138.17,71.64 138.39,71.64 138.74,71.64 139.02,71.64 139.40,71.63 139.77,71.63 140.05,71.63 140.45,71.63 140.78,71.63 141.23,71.63 141.55,71.63 141.72,71.62 142.14,71.62 142.49,71.62 143.03,71.62 143.38,71.62 143.87,71.62 144.20,71.62 144.42,71.62 144.88,71.62 145.35,71.62 145.90,71.62 146.29,71.62 146.62,71.62 147.61,71.62 148.97,71.61 149.32,71.61 150.68,71.61 151.71,71.61 153.07,71.61 154.09,71.61 154.93,71.61 156.13,71.61 157.25,71.61 158.52,71.61 159.88,71.61 160.91,71.60 161.59,71.60 162.95,71.60 164.32,71.60 165.68,71.60 167.04,71.60 168.07,71.60 169.43,71.60 170.79,71.60 172.16,71.60 173.17,71.60 174.55,71.60 176.26,71.60 177.62,71.60 178.98,71.60 180.34,71.60 181.71,71.60 183.42,71.60 184.78,71.60 186.14,71.60 187.50,71.60 188.87,71.60 190.23,71.60 191.26,71.59 192.62,71.59 193.28,71.59"/>
<line x1="78" y1="71.59" x2="772" y2="71.59" stroke="#d62728" opacity="0.18" stroke-dasharray="3 4"/>
<polyline fill="none" stroke="#d62728" stroke-width="2.0" points="91.35,71.59 94.08,71.59 96.21,71.59 97.57,71.59 98.40,71.59 99.55,71.59 100.09,71.59 100.32,71.59 100.60,71.59 101.14,71.59 101.82,71.59 101.92,71.59 102.06,71.59 102.34,71.59 102.97,71.58 103.16,71.58 103.46,71.58 103.56,71.58 103.93,71.58 104.12,71.58 104.45,71.58 104.83,71.58 105.06,71.58 105.34,71.58 105.63,71.58 105.76,71.58 106.11,71.58 106.68,71.58 106.96,71.58 107.05,71.58 107.22,71.58 107.43,71.59 107.52,71.59 107.66,71.59 107.83,71.59 107.95,71.59 108.04,71.59 108.16,71.60 108.23,71.60 108.34,71.60 108.46,71.61 108.61,71.61 108.72,71.62 108.86,71.62 108.93,71.63 109.02,71.63 109.12,71.63 109.28,71.64 109.40,71.65 109.49,71.65 109.61,71.66 109.78,71.66 109.94,71.67 110.08,71.67 110.23,71.68 110.39,71.68 110.53,71.69 110.74,71.69 110.93,71.69 111.18,71.70 111.32,71.70 111.51,71.70 111.65,71.70 111.87,71.71 112.13,71.71 112.34,71.70 112.53,71.70 112.71,71.69 112.90,71.68 113.09,71.65 113.39,71.60 113.49,71.58 113.58,71.55 113.69,71.52 113.82,71.48 113.95,71.43 114.12,71.36 114.26,71.30 114.40,71.24 114.50,71.19 114.59,71.15 114.77,71.07 114.90,71.00 115.03,70.95 115.15,70.89 115.29,70.82 115.41,70.77 115.65,70.67 115.83,70.60 115.97,70.55 116.11,70.50 116.25,70.45 116.54,70.35 116.66,70.32 116.87,70.26 117.03,70.21 117.19,70.18 117.40,70.12 117.62,70.07 117.97,69.99 118.30,69.93 118.95,69.86 119.24,69.87 119.68,69.95 120.08,70.15 120.32,70.33 120.55,70.57 120.81,70.94 121.02,71.31 121.18,71.64 121.28,71.87 121.39,72.14 121.46,72.32 121.65,72.88 121.87,73.65 122.08,74.49 122.33,75.64 122.68,77.54 122.87,78.77 123.08,80.16 123.22,81.17 123.32,81.93 123.51,83.43 123.81,85.87 124.09,88.30 124.47,91.87 125.05,97.58 125.32,100.44 125.74,104.83 126.23,110.04 126.68,114.90 127.24,120.84 127.61,124.70 128.08,129.58 128.36,132.42 128.95,138.33 129.40,142.65 129.82,146.60 130.34,151.29 130.69,154.36 131.08,157.64 131.56,161.65 132.10,165.90 132.70,170.32 133.08,173.03 133.72,177.33 134.11,179.73 134.47,181.92 135.14,185.61 135.81,189.06 136.22,190.93 136.84,193.60 137.35,195.55 138.53,199.44 139.23,201.36 140.28,203.80 141.29,205.70 142.96,208.17 144.30,209.63 146.10,211.08 148.13,212.25 149.01,212.64 150.87,213.31 151.88,213.59 152.93,213.84 153.68,213.99 154.44,214.13 155.23,214.25 156.05,214.37 156.79,214.46 157.67,214.55 158.40,214.62 159.08,214.68 159.76,214.74 160.47,214.79 161.20,214.84 162.18,214.90 162.93,214.94 163.68,214.98 164.44,215.02 165.23,215.06 166.05,215.10 167.20,215.15 167.98,215.17 168.73,215.20 169.71,215.23 170.72,215.26 171.90,215.29 172.74,215.31 173.52,215.32 174.57,215.34 175.49,215.35 176.87,215.37 178.24,215.38 179.60,215.39 180.98,215.40 182.34,215.40 184.03,215.41 186.45,215.41 188.51,215.42 190.55,215.42 192.52,215.42 194.66,215.43 197.39,215.43 199.45,215.43 201.51,215.43 204.24,215.43 206.56,215.43 209.02,215.43 212.45,215.43 215.19,215.44 217.24,215.44 219.98,215.44 222.71,215.44 226.13,215.44 228.86,215.44 231.60,215.44 234.34,215.44 237.07,215.44 239.81,215.44 243.24,215.44 245.98,215.44 248.71,215.44 251.45,215.44 254.18,215.44 256.92,215.44 260.33,215.44 263.07,215.44 265.81,215.44 268.54,215.44 271.28,215.44 274.71,215.44 277.45,215.44 280.18,215.44 282.92,215.44 285.65,215.44 288.39,215.44 291.80,215.44 294.54,215.44 295.90,215.45"/>
<line x1="78" y1="266.26" x2="772" y2="266.26" stroke="#2ca02c" opacity="0.18" stroke-dasharray="3 4"/>
<polyline fill="none" stroke="#2ca02c" stroke-width="2.0" points="91.35,266.26 98.04,266.26 99.99,266.27 100.22,266.27 100.42,266.27 100.53,266.27 100.65,266.27 100.83,266.26 101.54,266.26 102.50,266.26 103.37,266.24 104.03,266.20 104.29,266.18 104.57,266.16 104.82,266.15 105.01,266.14 105.15,266.13 105.25,266.13 105.36,266.13 105.44,266.12 105.55,266.12 105.63,266.12 105.72,266.12 105.83,266.12 106.02,266.12 106.11,266.12 106.30,266.13 106.42,266.13 106.58,266.14 106.70,266.14 106.82,266.15 106.99,266.16 107.10,266.17 107.22,266.18 107.36,266.20 107.53,266.24 107.64,266.26 107.80,266.30 107.99,266.35 108.13,266.40 108.32,266.47 108.42,266.51 108.61,266.59 108.75,266.65 108.88,266.70 109.00,266.75 109.12,266.81 109.24,266.86 109.38,266.92 109.52,266.98 109.66,267.04 109.80,267.09 109.97,267.16 110.17,267.24 110.41,267.33 110.64,267.41 110.74,267.45 110.88,267.50 111.00,267.54 111.14,267.59 111.33,267.66 111.54,267.73 111.98,267.88 112.41,268.02 112.76,268.08 113.11,268.14 113.44,267.87 113.62,267.73 113.93,267.47 114.24,267.01 114.57,266.25 114.73,265.83 115.03,264.77 115.34,263.24 115.57,261.92 115.78,260.51 115.95,259.20 116.09,258.07 116.25,256.72 116.40,255.28 116.51,254.29 116.68,252.55 116.86,250.74 117.00,249.25 117.14,247.72 117.31,245.76 117.50,243.57 117.81,239.92 118.13,236.22 118.42,232.72 118.62,230.47 119.00,226.03 119.26,223.06 119.59,219.36 119.87,216.32 120.01,214.83 120.24,212.47 120.36,211.22 120.83,206.60 121.21,203.07 121.49,200.66 121.93,196.99 122.52,192.42 123.04,188.76 123.39,186.40 123.95,182.89 124.35,180.52 124.66,178.78 124.91,177.48 125.38,175.14 125.64,173.92 126.02,172.24 126.54,170.11 126.79,169.19 127.28,167.48 127.75,165.97 128.29,164.40 128.86,162.91 129.44,161.58 129.89,160.64 130.78,159.05 131.53,157.93 132.33,156.89 133.20,155.93 133.64,155.50 133.86,155.29 134.84,154.49 135.34,154.14 136.84,153.30 138.41,152.69 140.45,152.15 141.79,151.89 142.28,151.81 143.10,151.71 143.81,151.61 144.16,151.57 144.49,151.53 145.05,151.49 145.57,151.46 146.08,151.42 146.50,151.40 147.02,151.36 147.35,151.34 147.72,151.31 148.41,151.27 148.76,151.24 148.94,151.23 149.37,151.21 150.16,151.18 150.68,151.16 151.38,151.13 151.78,151.11 152.30,151.10 152.87,151.08 153.26,151.07 153.83,151.05 154.29,151.04 154.95,151.03 155.64,151.01 156.66,150.99 157.21,150.98 158.12,150.97 159.16,150.96 160.54,150.94 161.46,150.93 162.77,150.92 163.96,150.91 165.04,150.90 166.76,150.89 167.93,150.88 169.64,150.87 171.15,150.86 172.76,150.86 174.48,150.85 178.38,150.83 180.61,150.82 185.09,150.80 189.55,150.78 194.01,150.76 202.94,150.72 211.87,150.68 223.03,150.64 231.95,150.61 240.89,150.58 249.81,150.57 258.73,150.56 267.67,150.57 278.82,150.55 287.74,150.47 296.68,150.40 305.60,150.36 314.53,150.33 325.69,150.30 334.62,150.28 343.54,150.26 352.48,150.24 361.40,150.22 370.32,150.20 381.49,150.18 390.41,150.16 399.35,150.15 408.27,150.13 417.19,150.12 428.36,150.10 437.28,150.08 446.21,150.07 455.15,150.06 464.07,150.05 472.99,150.03 484.16,150.02 493.08,150.01 502.00,149.99 510.94,149.98 519.86,149.97 531.01,149.96 539.95,149.95 548.87,149.94 557.80,149.93 566.73,149.92 575.66,149.91 586.83,149.90 595.75,149.89 604.67,149.88 613.61,149.88 622.53,149.87 631.45,149.86 642.62,149.85 651.54,149.84 660.46,149.84 669.40,149.83 678.32,149.83 689.48,149.82 698.42,149.81 707.34,149.81 716.26,149.80 725.20,149.79 734.12,149.79 745.27,149.78 754.21,149.77 758.65,149.75"/>
<line x1="78" y1="266.26" x2="772" y2="266.26" stroke="#9467bd" opacity="0.18" stroke-dasharray="3 4"/>
<polyline fill="none" stroke="#9467bd" stroke-width="2.0" points="91.35,149.55 92.79,149.55 94.22,149.55 96.03,149.55 97.46,149.55 98.91,149.56 100.35,149.55 100.91,149.55 101.12,149.55 101.37,149.55 101.57,149.55 101.78,149.55 102.03,149.54 102.52,149.54 103.49,149.55 103.61,149.56 103.74,149.56 103.86,149.56 103.98,149.56 104.12,149.57 104.29,149.57 104.47,149.58 104.68,149.58 104.94,149.59 105.20,149.60 105.44,149.61 105.69,149.62 105.91,149.63 106.07,149.64 106.21,149.64 106.33,149.65 106.45,149.65 106.54,149.65 106.63,149.66 106.70,149.66 106.77,149.66 106.85,149.66 106.96,149.67 107.06,149.67 107.17,149.67 107.27,149.67 107.39,149.67 107.57,149.68 107.69,149.68 107.80,149.68 107.88,149.68 107.95,149.68 108.06,149.67 108.23,149.67 108.37,149.66 108.53,149.64 108.65,149.63 108.77,149.61 108.95,149.58 109.03,149.56 109.15,149.53 109.35,149.47 109.47,149.43 109.56,149.40 109.68,149.35 109.80,149.29 109.90,149.24 109.99,149.20 110.15,149.12 110.32,149.02 110.43,148.95 110.55,148.88 110.69,148.78 110.88,148.65 111.02,148.55 111.25,148.38 111.35,148.30 111.51,148.17 111.63,148.07 111.84,147.90 112.01,147.75 112.20,147.59 112.36,147.45 112.57,147.28 112.73,147.15 112.83,147.07 112.95,146.98 113.09,146.88 113.23,146.81 113.35,146.75 113.56,146.70 113.74,146.71 113.89,146.75 114.05,146.84 114.23,147.02 114.40,147.27 114.59,147.64 114.78,148.13 115.06,149.07 115.34,150.28 115.71,152.27 115.95,153.90 116.19,155.72 116.56,158.76 116.80,161.01 117.17,164.64 117.40,167.04 117.64,169.71 117.99,173.69 118.13,175.32 118.35,178.02 118.53,180.14 118.72,182.50 119.02,186.22 119.19,188.43 119.37,190.67 119.54,192.92 119.70,194.97 119.87,197.25 120.11,200.46 120.39,204.15 120.65,207.62 120.88,210.63 121.16,214.32 121.30,216.16 121.53,219.14 121.70,221.42 121.91,224.13 122.12,226.81 122.41,230.54 122.68,233.71 123.01,237.59 123.25,240.38 123.51,243.21 123.76,245.73 124.04,248.40 124.44,251.85 124.59,253.06 124.84,254.80 125.01,255.91 125.34,257.76 125.62,259.07 125.93,260.28 126.14,260.97 126.49,261.90 127.00,262.89 127.36,263.42 127.61,263.71 127.83,263.93 128.08,264.14 128.37,264.36 128.53,264.45 128.79,264.60 129.14,264.76 129.40,264.87 129.68,264.97 129.94,265.06 130.60,265.26 131.08,265.38 131.69,265.53 132.77,265.73 134.19,265.90 135.27,265.98 135.64,266.01 136.35,266.04 136.72,266.06 136.96,266.07 137.44,266.09 137.82,266.10 138.52,266.12 138.88,266.13 139.25,266.14 139.60,266.15 140.08,266.16 140.57,266.16 140.97,266.17 141.41,266.17 141.79,266.18 142.12,266.18 142.40,266.19 142.78,266.19 143.15,266.19 143.39,266.20 143.73,266.20 144.09,266.20 144.56,266.21 144.91,266.21 145.24,266.21 145.66,266.21 145.85,266.21 146.20,266.22 146.62,266.22 146.95,266.22 147.32,266.22 147.73,266.22 148.10,266.22 148.47,266.22 148.95,266.23 149.28,266.23 149.69,266.23 150.05,266.23 150.54,266.23 151.11,266.23 151.72,266.23 152.16,266.23 152.65,266.24 153.27,266.24 153.69,266.24 154.72,266.24 155.44,266.24 156.05,266.24 156.64,266.24 157.39,266.24 157.96,266.24 158.75,266.24 159.41,266.24 159.98,266.24 160.49,266.24 161.12,266.25 162.65,266.25 163.73,266.25 165.16,266.25 166.60,266.25 168.05,266.25 169.48,266.25 171.29,266.25 172.72,266.25 174.17,266.25 175.61,266.25 177.04,266.25 178.49,266.25 180.28,266.25 181.73,266.25 183.18,266.25 184.60,266.25 186.05,266.25 187.85,266.25 189.29,266.25 190.74,266.25 192.17,266.25 193.61,266.25 195.06,266.25 196.85,266.25 198.30,266.25 199.00,266.26"/>
<line x1="88" y1="72" x2="110" y2="72" stroke="#1f77b4" stroke-width="2.4"/>
<text x="116" y="76" font-family="Arial, sans-serif" font-size="12">rising #1</text>
<line x1="88" y1="90" x2="110" y2="90" stroke="#d62728" stroke-width="2.4"/>
<text x="116" y="94" font-family="Arial, sans-serif" font-size="12">falling #2</text>
<line x1="88" y1="108" x2="110" y2="108" stroke="#2ca02c" stroke-width="2.4"/>
<text x="116" y="112" font-family="Arial, sans-serif" font-size="12">rising #3</text>
<line x1="88" y1="126" x2="110" y2="126" stroke="#9467bd" stroke-width="2.4"/>
<text x="116" y="130" font-family="Arial, sans-serif" font-size="12">falling #4</text>
<rect x="78" y="342" width="694" height="44" fill="#fffdf7" stroke="#d8c6a1" rx="4"/>
<text x="88" y="359" font-family="Arial, sans-serif" font-size="11" font-weight="700" fill="#4b3b21">Findings needing attention</text>
<rect x="88" y="366" width="7" height="7" fill="#b54708"/>
<text x="102" y="373" font-family="Arial, sans-serif" font-size="11" fill="#333">WARN 5.5.4: Ramp dt versus V-T 20-80% evidence needs review | avg Ramp dt=5.250e-10s, avg V-T 20-80% span=4.094e-...</text>
<text x="425.00" y="322.00" text-anchor="middle" font-family="Arial, sans-serif" font-size="12">Time (s)</text>
<text x="420" y="42" font-family="Arial, sans-serif" font-size="11" fill="#555">solid=V-T voltage, faint horizontal=V_fixture</text>
</svg>