<svg xmlns="http://www.w3.org/2000/svg" width="800" height="450" viewBox="0 0 800 450">
<rect width="100%" height="100%" fill="#ffffff"/>
<text x="78" y="25" font-family="Arial, sans-serif" font-size="16" font-weight="700">E34_GPIO_SPI_1V2_01 V-T Waveforms</text>
<rect x="78" y="54" width="694" height="230" fill="#fbfbfb" stroke="#c8c8c8"/>
<text transform="translate(18 169.00) rotate(-90)" text-anchor="middle" font-family="Arial, sans-serif" font-size="12">Voltage (V)</text>
<line x1="78.00" y1="54" x2="78.00" y2="284" stroke="#ececec"/>
<text x="78.00" y="302" text-anchor="middle" font-family="Arial, sans-serif" font-size="10">-468p</text>
<line x1="216.80" y1="54" x2="216.80" y2="284" stroke="#ececec"/>
<text x="216.80" y="302" text-anchor="middle" font-family="Arial, sans-serif" font-size="10">4.4n</text>
<line x1="355.60" y1="54" x2="355.60" y2="284" stroke="#ececec"/>
<text x="355.60" y="302" text-anchor="middle" font-family="Arial, sans-serif" font-size="10">9.27n</text>
<line x1="494.40" y1="54" x2="494.40" y2="284" stroke="#ececec"/>
<text x="494.40" y="302" text-anchor="middle" font-family="Arial, sans-serif" font-size="10">14.1n</text>
<line x1="633.20" y1="54" x2="633.20" y2="284" stroke="#ececec"/>
<text x="633.20" y="302" text-anchor="middle" font-family="Arial, sans-serif" font-size="10">19n</text>
<line x1="772.00" y1="54" x2="772.00" y2="284" stroke="#ececec"/>
<text x="772.00" y="302" text-anchor="middle" font-family="Arial, sans-serif" font-size="10">23.9n</text>
<line x1="78" y1="284.00" x2="772" y2="284.00" stroke="#ececec"/>
<text x="70" y="288.00" text-anchor="end" font-family="Arial, sans-serif" font-size="10">-0.107</text>
<line x1="78" y1="226.50" x2="772" y2="226.50" stroke="#ececec"/>
<text x="70" y="230.50" text-anchor="end" font-family="Arial, sans-serif" font-size="10">0.246</text>
<line x1="78" y1="169.00" x2="772" y2="169.00" stroke="#ececec"/>
<text x="70" y="173.00" text-anchor="end" font-family="Arial, sans-serif" font-size="10">0.599</text>
<line x1="78" y1="111.50" x2="772" y2="111.50" stroke="#ececec"/>
<text x="70" y="115.50" text-anchor="end" font-family="Arial, sans-serif" font-size="10">0.952</text>
<line x1="78" y1="54.00" x2="772" y2="54.00" stroke="#ececec"/>
<text x="70" y="58.00" text-anchor="end" font-family="Arial, sans-serif" font-size="10">1.3</text>
<line x1="78" y1="71.13" x2="772" y2="71.13" stroke="#1f77b4" opacity="0.18" stroke-dasharray="3 4"/>
<polyline fill="none" stroke="#1f77b4" stroke-width="2.0" points="91.35,169.32 93.28,169.32 95.22,169.32 97.64,169.32 99.58,169.32 101.52,169.34 103.37,169.35 104.65,169.30 104.94,169.28 105.08,169.27 105.25,169.26 105.42,169.25 105.57,169.24 105.82,169.22 106.08,169.21 106.48,169.18 106.76,169.16 106.99,169.14 107.30,169.12 107.59,169.10 107.87,169.08 108.16,169.07 108.33,169.07 108.67,169.08 108.90,169.10 109.16,169.13 109.50,169.22 109.75,169.31 109.98,169.41 110.30,169.60 110.55,169.78 110.84,170.02 111.07,170.25 111.29,170.50 111.55,170.80 111.75,171.06 112.01,171.41 112.35,171.89 112.66,172.35 112.86,172.63 113.09,172.95 113.32,173.26 113.57,173.59 113.80,173.85 114.00,174.05 114.20,174.22 114.40,174.34 114.63,174.43 114.85,174.41 115.11,174.29 115.34,174.10 115.48,173.90 115.71,173.50 116.02,172.77 116.22,172.17 116.59,170.83 116.88,169.56 117.19,167.93 117.33,167.09 117.73,164.55 118.02,162.51 118.36,159.86 118.73,156.76 119.07,153.70 119.47,149.95 119.73,147.45 120.07,144.01 120.21,142.55 120.55,139.02 120.92,135.14 121.41,130.07 121.75,126.54 121.98,124.20 122.32,120.78 122.46,119.38 122.75,116.59 123.29,111.63 123.46,110.08 123.83,107.01 124.23,103.71 124.49,101.71 124.71,99.95 124.89,98.67 125.06,97.43 125.20,96.41 125.43,94.83 125.77,92.55 126.14,90.24 126.40,88.73 126.60,87.62 126.97,85.68 127.28,84.18 127.59,82.81 127.76,82.11 127.91,81.56 128.22,80.44 128.45,79.69 128.68,79.01 128.85,78.56 129.02,78.11 129.25,77.55 129.53,76.93 129.96,76.10 130.27,75.58 130.50,75.23 131.18,74.38 131.67,73.93 132.44,73.37 132.86,73.11 133.09,73.00 133.41,72.85 133.92,72.64 134.35,72.51 134.66,72.41 135.09,72.27 135.54,72.16 136.43,71.98 137.39,71.81 137.85,71.75 138.36,71.69 139.79,71.55 139.90,71.54 140.07,71.53 140.56,71.50 141.75,71.43 143.21,71.37 144.21,71.34 144.66,71.32 145.43,71.31 145.89,71.29 146.31,71.29 147.03,71.28 147.54,71.27 147.85,71.26 148.51,71.25 148.99,71.25 149.99,71.24 150.87,71.23 151.24,71.22 151.70,71.22 152.38,71.22 152.87,71.21 153.47,71.21 153.95,71.21 154.46,71.20 154.78,71.20 155.15,71.20 155.40,71.20 156.00,71.19 156.60,71.19 157.03,71.19 157.48,71.19 157.94,71.19 158.45,71.19 158.85,71.18 159.51,71.18 160.02,71.18 160.36,71.18 160.88,71.18 161.27,71.18 161.84,71.18 162.47,71.17 163.07,71.17 163.55,71.17 164.07,71.17 164.55,71.17 165.06,71.17 165.52,71.17 165.66,71.17 166.00,71.17 166.72,71.17 167.23,71.17 167.74,71.16 168.06,71.16 168.31,71.16 168.65,71.16 169.37,71.16 169.77,71.16 170.45,71.16 170.85,71.16 171.45,71.16 172.19,71.16 172.79,71.16 173.38,71.16 173.76,71.16 174.13,71.16 174.70,71.16 175.69,71.16 176.66,71.16 178.11,71.16 179.08,71.15 179.57,71.15 180.54,71.15 180.82,71.15 181.02,71.15 181.39,71.15 181.93,71.15 182.39,71.15 183.27,71.15 184.47,71.15 185.04,71.15 185.38,71.15 186.83,71.15 187.38,71.15 187.92,71.15 188.29,71.15 188.83,71.15 189.26,71.15 189.74,71.15 190.77,71.15 191.68,71.15 193.02,71.15 193.62,71.15 195.07,71.15 197.49,71.15 198.77,71.15 199.91,71.14 200.80,71.14 202.34,71.14 203.13,71.14 204.76,71.14 205.47,71.14 206.21,71.14 207.66,71.14 209.60,71.14 211.54,71.14 213.02,71.14 214.96,71.14 215.93,71.14 217.87,71.14 219.80,71.14 222.23,71.14 224.16,71.14 226.10,71.14 228.04,71.14 229.98,71.14 231.43,71.14 233.37,71.14 235.31,71.14 236.25,71.13"/>
<line x1="78" y1="71.13" x2="772" y2="71.13" stroke="#d62728" opacity="0.18" stroke-dasharray="3 4"/>
<polyline fill="none" stroke="#d62728" stroke-width="2.0" points="91.35,71.13 95.88,71.13 99.30,71.13 101.03,71.13 102.32,71.13 103.83,71.13 104.63,71.13 105.17,71.13 106.33,71.13 107.33,71.13 107.93,71.12 108.22,71.12 108.93,71.12 109.33,71.12 109.67,71.12 110.32,71.12 110.87,71.12 111.75,71.12 112.46,71.12 113.00,71.12 113.69,71.12 113.86,71.13 114.11,71.13 114.31,71.13 114.51,71.14 114.68,71.14 114.85,71.15 115.03,71.15 115.23,71.16 115.51,71.17 115.85,71.19 116.14,71.20 116.42,71.22 116.71,71.23 116.88,71.24 117.19,71.26 117.48,71.27 117.82,71.29 118.13,71.31 118.27,71.31 118.56,71.32 118.90,71.33 119.19,71.34 119.30,71.34 119.47,71.35 119.73,71.35 120.10,71.36 120.53,71.35 120.87,71.34 121.24,71.32 121.44,71.31 121.95,71.24 122.29,71.18 122.49,71.14 122.78,71.08 123.09,71.00 123.49,70.89 123.86,70.78 124.34,70.64 124.66,70.55 125.00,70.46 125.23,70.40 125.46,70.34 125.63,70.30 126.14,70.19 126.57,70.10 126.97,70.03 127.19,70.00 127.71,69.93 128.19,69.88 128.73,69.86 129.10,69.92 129.50,69.98 129.76,70.04 130.10,70.17 130.27,70.23 130.56,70.39 130.90,70.61 131.01,70.71 131.24,70.91 131.50,71.18 131.95,71.77 132.24,72.21 132.58,72.83 132.89,73.48 133.09,73.94 133.43,74.81 133.83,75.95 134.20,77.14 134.43,77.93 134.66,78.76 135.17,80.79 135.66,82.90 136.11,84.99 136.71,87.89 136.94,89.04 137.48,91.81 137.85,93.73 138.62,97.74 139.10,100.25 139.33,101.42 139.67,103.14 140.10,105.28 140.47,107.14 141.04,109.88 141.41,111.65 142.07,114.63 142.50,116.55 143.21,119.62 143.75,121.84 144.32,124.18 144.72,125.64 145.52,128.57 146.00,130.31 146.68,132.50 147.23,134.24 147.71,135.79 148.31,137.50 149.14,139.87 149.76,141.47 150.96,144.42 151.44,145.56 152.58,148.02 153.27,149.38 154.15,151.00 154.52,151.65 155.01,152.46 155.58,153.36 156.57,154.82 157.31,155.82 157.91,156.58 158.40,157.15 159.62,158.50 161.45,160.21 161.79,160.50 162.21,160.84 162.44,161.02 162.98,161.43 163.10,161.51 163.78,161.99 164.04,162.16 165.86,163.25 166.83,163.76 167.71,164.16 168.48,164.50 169.57,164.93 170.71,165.32 171.90,165.71 174.13,166.30 175.58,166.63 176.38,166.79 176.92,166.89 177.83,167.06 178.23,167.13 178.71,167.22 179.08,167.28 179.40,167.33 179.60,167.36 180.08,167.44 180.54,167.51 181.02,167.58 181.73,167.68 182.42,167.78 182.76,167.82 183.04,167.86 183.42,167.90 184.01,167.98 184.50,168.03 184.70,168.05 184.98,168.09 185.98,168.19 186.92,168.28 187.72,168.35 188.86,168.44 190.00,168.52 191.11,168.59 192.25,168.65 193.39,168.71 194.53,168.76 195.67,168.80 196.78,168.85 198.49,168.89 199.91,168.93 201.34,168.97 202.54,169.00 204.33,169.03 205.87,169.05 208.12,169.09 210.40,169.11 212.40,169.13 214.62,169.15 217.21,169.17 220.57,169.19 222.88,169.20 226.27,169.22 229.66,169.23 233.08,169.23 236.47,169.24 241.00,169.25 245.54,169.26 248.95,169.26 253.49,169.26 258.02,169.27 262.55,169.27 267.08,169.27 271.61,169.27 276.17,169.28 280.70,169.28 285.23,169.28 290.90,169.28 295.43,169.28 299.96,169.28 304.49,169.29 309.05,169.29 314.69,169.29 319.25,169.29 323.78,169.29 328.31,169.29 332.85,169.29 337.38,169.29 343.05,169.29 347.58,169.30 352.14,169.30 356.67,169.30 361.20,169.30 365.73,169.30 371.40,169.30 375.93,169.30 380.46,169.30 384.99,169.30 389.55,169.30 395.22,169.30 399.75,169.30 404.28,169.30 408.81,169.30 413.35,169.30 417.88,169.30 423.55,169.30 428.08,169.30 430.33,169.32"/>
<line x1="78" y1="266.56" x2="772" y2="266.56" stroke="#2ca02c" opacity="0.18" stroke-dasharray="3 4"/>
<polyline fill="none" stroke="#2ca02c" stroke-width="2.0" points="91.35,266.56 100.27,266.56 101.32,266.56 101.69,266.56 103.17,266.56 103.57,266.56 103.80,266.56 104.00,266.57 104.11,266.57 104.25,266.57 104.37,266.57 104.48,266.57 104.60,266.57 104.71,266.57 104.85,266.57 104.97,266.57 105.08,266.57 105.28,266.57 105.48,266.57 106.19,266.57 106.88,266.57 107.10,266.57 107.59,266.57 108.22,266.56 108.64,266.55 109.27,266.52 109.87,266.48 110.24,266.45 110.47,266.43 110.67,266.41 110.84,266.40 111.01,266.39 111.12,266.38 111.24,266.37 111.35,266.37 111.49,266.36 111.61,266.35 111.78,266.34 111.95,266.34 112.12,266.33 112.32,266.33 112.60,266.32 112.97,266.32 113.17,266.33 113.32,266.33 113.49,266.34 113.69,266.35 113.91,266.36 114.23,266.39 114.43,266.42 114.77,266.48 115.05,266.54 115.28,266.60 115.60,266.69 115.80,266.75 116.05,266.83 116.42,266.96 116.79,267.08 117.11,267.18 117.53,267.32 117.70,267.37 117.90,267.43 118.19,267.51 118.47,267.59 118.64,267.64 118.93,267.71 119.16,267.77 119.39,267.82 119.61,267.87 119.90,267.94 120.21,268.00 120.55,268.07 120.73,268.09 121.12,268.11 121.49,268.14 121.95,267.98 122.52,267.76 122.86,267.40 123.38,266.83 123.57,266.47 123.95,265.80 124.40,264.68 124.71,263.76 124.97,262.92 125.17,262.20 125.37,261.43 125.63,260.36 125.91,259.09 126.08,258.28 126.28,257.30 126.54,256.00 126.79,254.64 127.08,253.08 127.31,251.80 127.62,250.02 128.05,247.55 128.30,246.05 128.59,244.39 129.16,241.10 129.36,239.97 129.70,238.04 129.96,236.60 130.33,234.57 130.64,232.89 131.01,230.96 131.50,228.54 131.81,227.02 132.15,225.44 132.86,222.32 133.63,219.22 133.92,218.23 134.83,215.09 135.57,212.73 136.00,211.42 137.05,208.58 137.57,207.47 138.45,205.57 139.25,203.97 140.19,202.26 141.13,200.84 142.58,198.82 143.44,197.82 144.32,196.90 145.17,196.11 146.91,194.77 147.31,194.52 147.91,194.15 149.36,193.38 150.87,192.73 152.04,192.31 153.35,191.92 156.06,191.32 158.31,190.96 158.60,190.92 161.16,190.63 162.47,190.53 163.55,190.45 164.84,190.35 165.38,190.32 165.95,190.29 166.57,190.26 167.40,190.21 168.03,190.18 168.51,190.15 169.02,190.13 169.62,190.11 170.08,190.09 170.79,190.06 171.56,190.03 171.79,190.02 172.19,190.01 172.87,189.98 173.76,189.96 174.61,189.94 175.38,189.92 176.15,189.90 176.72,189.88 177.46,189.86 178.20,189.84 178.97,189.83 179.51,189.81 180.31,189.80 180.79,189.78 181.56,189.77 182.53,189.75 183.22,189.74 183.96,189.72 185.18,189.70 186.44,189.68 187.58,189.66 189.54,189.64 191.79,189.60 193.19,189.58 196.24,189.55 198.57,189.52 200.71,189.50 205.39,189.45 209.18,189.42 211.88,189.39 216.50,189.35 220.80,189.32 227.50,189.28 234.05,189.25 240.89,189.21 249.81,189.18 258.73,189.15 267.68,189.12 278.82,189.10 287.77,189.08 296.68,189.06 305.60,189.05 314.52,189.04 325.69,189.02 334.61,189.02 343.56,189.01 352.48,189.00 361.40,189.00 370.35,188.99 381.49,188.99 390.41,188.98 399.35,188.98 408.27,188.98 417.19,188.97 428.36,188.97 437.28,188.97 446.23,188.97 455.15,188.96 464.07,188.96 472.99,188.96 484.16,188.96 493.08,188.96 502.02,188.96 510.94,188.96 519.86,188.96 531.03,188.96 539.95,188.95 548.90,188.95 557.82,188.95 566.74,188.95 575.66,188.95 586.83,188.95 595.75,188.95 604.69,188.95 613.61,188.95 622.53,188.95 631.48,188.95 642.62,188.95 651.54,188.95 660.49,188.95 669.41,188.95 678.33,188.95 689.50,188.95 698.41,188.95 707.36,188.95 716.28,188.95 725.20,188.95 734.12,188.95 745.29,188.95 754.21,188.95 758.65,188.95"/>
<line x1="78" y1="266.56" x2="772" y2="266.56" stroke="#9467bd" opacity="0.18" stroke-dasharray="3 4"/>
<polyline fill="none" stroke="#9467bd" stroke-width="2.0" points="91.35,188.95 93.40,188.95 95.42,188.95 97.99,188.95 100.04,188.95 102.09,188.95 104.11,188.95 104.85,188.95 105.14,188.94 105.48,188.94 105.71,188.94 105.94,188.94 106.14,188.94 106.28,188.94 106.56,188.94 106.82,188.94 107.08,188.94 107.28,188.94 107.56,188.94 107.73,188.94 108.41,188.94 108.56,188.94 108.67,188.94 108.79,188.94 108.90,188.95 109.04,188.95 109.33,188.95 109.50,188.95 109.73,188.96 109.98,188.96 110.32,188.97 110.75,188.98 111.15,188.99 111.49,189.00 111.95,189.01 112.26,189.02 112.55,189.02 112.95,189.03 113.26,189.04 113.52,189.04 113.74,189.05 113.91,189.05 114.11,189.05 114.26,189.05 114.37,189.05 114.54,189.05 114.66,189.05 114.77,189.04 114.94,189.04 115.08,189.04 115.25,189.03 115.42,189.02 115.60,189.01 115.88,188.98 116.08,188.96 116.22,188.94 116.37,188.92 116.54,188.89 116.74,188.85 116.91,188.81 117.13,188.76 117.33,188.70 117.53,188.64 117.76,188.57 118.10,188.45 118.30,188.37 118.47,188.30 118.67,188.21 118.90,188.11 119.19,187.97 119.33,187.90 119.61,187.76 119.87,187.62 120.13,187.49 120.38,187.35 120.64,187.21 120.87,187.10 121.01,187.03 121.15,186.97 121.32,186.90 121.52,186.83 121.89,186.76 122.04,186.75 122.26,186.77 122.49,186.83 122.66,186.91 122.86,187.03 123.12,187.24 123.32,187.45 123.52,187.71 123.75,188.07 124.03,188.61 124.34,189.32 124.63,190.08 124.97,191.12 125.37,192.51 125.74,193.98 126.08,195.47 126.37,196.76 126.77,198.72 127.08,200.33 127.42,202.15 127.68,203.58 128.08,205.84 128.50,208.36 128.90,210.78 129.27,213.05 129.67,215.58 130.04,217.94 130.38,220.15 130.76,222.57 131.15,225.21 131.35,226.54 131.55,227.88 131.87,230.00 132.21,232.31 132.52,234.44 132.78,236.17 133.06,238.08 133.32,239.78 133.58,241.45 133.89,243.45 134.15,245.03 134.37,246.39 134.69,248.19 134.97,249.74 135.29,251.34 135.71,253.36 135.91,254.23 136.20,255.40 136.40,256.16 136.80,257.53 137.17,258.65 137.45,259.42 137.88,260.42 138.28,261.21 138.51,261.61 139.02,262.39 139.36,262.82 139.70,263.19 140.10,263.56 140.47,263.85 141.10,264.27 141.41,264.44 141.93,264.69 142.44,264.91 142.95,265.10 143.41,265.25 143.98,265.41 144.49,265.54 145.03,265.66 145.52,265.75 146.20,265.85 147.57,266.03 148.59,266.12 150.10,266.22 151.64,266.30 152.73,266.34 153.69,266.37 154.44,266.39 155.23,266.40 155.77,266.41 156.26,266.42 156.66,266.43 157.43,266.44 158.00,266.45 158.54,266.45 159.05,266.46 159.56,266.46 160.05,266.47 160.56,266.47 161.02,266.48 161.50,266.48 161.99,266.48 162.39,266.49 162.90,266.49 163.41,266.49 163.92,266.49 164.41,266.49 164.78,266.50 165.32,266.50 165.95,266.50 166.46,266.50 166.97,266.50 167.49,266.51 168.17,266.51 168.74,266.51 169.31,266.51 169.88,266.51 170.39,266.51 170.85,266.52 171.45,266.52 171.93,266.52 172.59,266.52 173.16,266.52 173.84,266.52 174.58,266.52 175.15,266.52 175.92,266.52 176.69,266.53 177.66,266.53 178.29,266.53 179.23,266.53 180.25,266.53 180.77,266.53 181.76,266.53 183.07,266.53 183.84,266.53 184.90,266.53 186.41,266.54 187.92,266.54 188.74,266.54 189.88,266.54 191.25,266.54 193.05,266.54 194.07,266.54 196.10,266.54 198.15,266.54 200.20,266.54 202.22,266.54 204.79,266.55 206.84,266.55 208.89,266.55 210.91,266.55 212.96,266.55 215.02,266.55 217.55,266.55 219.60,266.55 221.66,266.55 223.71,266.55 225.73,266.55 228.30,266.55 230.35,266.55 232.40,266.55 234.42,266.55 236.47,266.55 238.53,266.55 241.06,266.55 243.11,266.55 244.11,266.56"/>
<line x1="88" y1="72" x2="110" y2="72" stroke="#1f77b4" stroke-width="2.4"/>
<text x="116" y="76" font-family="Arial, sans-serif" font-size="12">rising #1</text>
<line x1="88" y1="90" x2="110" y2="90" stroke="#d62728" stroke-width="2.4"/>
<text x="116" y="94" font-family="Arial, sans-serif" font-size="12">falling #2</text>
<line x1="88" y1="108" x2="110" y2="108" stroke="#2ca02c" stroke-width="2.4"/>
<text x="116" y="112" font-family="Arial, sans-serif" font-size="12">rising #3</text>
<line x1="88" y1="126" x2="110" y2="126" stroke="#9467bd" stroke-width="2.4"/>
<text x="116" y="130" font-family="Arial, sans-serif" font-size="12">falling #4</text>
<rect x="78" y="342" width="694" height="44" fill="#fffdf7" stroke="#d8c6a1" rx="4"/>
<text x="88" y="359" font-family="Arial, sans-serif" font-size="11" font-weight="700" fill="#4b3b21">Findings needing attention</text>
<rect x="88" y="366" width="7" height="7" fill="#b54708"/>
<text x="102" y="373" font-family="Arial, sans-serif" font-size="11" fill="#333">WARN 5.5.4: Ramp dt versus V-T 20-80% evidence needs review | avg Ramp dt=4.857e-10s, avg V-T 20-80% span=3.652e-...</text>
<text x="425.00" y="322.00" text-anchor="middle" font-family="Arial, sans-serif" font-size="12">Time (s)</text>
<text x="420" y="42" font-family="Arial, sans-serif" font-size="11" fill="#555">solid=V-T voltage, faint horizontal=V_fixture</text>
</svg>