<svg xmlns="http://www.w3.org/2000/svg" width="800" height="450" viewBox="0 0 800 450">
<rect width="100%" height="100%" fill="#ffffff"/>
<text x="78" y="25" font-family="Arial, sans-serif" font-size="16" font-weight="700">E34_GPIO_I2CSCLIN_1V1_00_ISOSW V-T Waveforms</text>
<rect x="78" y="54" width="694" height="230" fill="#fbfbfb" stroke="#c8c8c8"/>
<text transform="translate(18 169.00) rotate(-90)" text-anchor="middle" font-family="Arial, sans-serif" font-size="12">Voltage (V)</text>
<line x1="78.00" y1="54" x2="78.00" y2="284" stroke="#ececec"/>
<text x="78.00" y="302" text-anchor="middle" font-family="Arial, sans-serif" font-size="10">-311p</text>
<line x1="216.80" y1="54" x2="216.80" y2="284" stroke="#ececec"/>
<text x="216.80" y="302" text-anchor="middle" font-family="Arial, sans-serif" font-size="10">2.93n</text>
<line x1="355.60" y1="54" x2="355.60" y2="284" stroke="#ececec"/>
<text x="355.60" y="302" text-anchor="middle" font-family="Arial, sans-serif" font-size="10">6.17n</text>
<line x1="494.40" y1="54" x2="494.40" y2="284" stroke="#ececec"/>
<text x="494.40" y="302" text-anchor="middle" font-family="Arial, sans-serif" font-size="10">9.41n</text>
<line x1="633.20" y1="54" x2="633.20" y2="284" stroke="#ececec"/>
<text x="633.20" y="302" text-anchor="middle" font-family="Arial, sans-serif" font-size="10">12.6n</text>
<line x1="772.00" y1="54" x2="772.00" y2="284" stroke="#ececec"/>
<text x="772.00" y="302" text-anchor="middle" font-family="Arial, sans-serif" font-size="10">15.9n</text>
<line x1="78" y1="284.00" x2="772" y2="284.00" stroke="#ececec"/>
<text x="70" y="288.00" text-anchor="end" font-family="Arial, sans-serif" font-size="10">-0.0939</text>
<line x1="78" y1="226.50" x2="772" y2="226.50" stroke="#ececec"/>
<text x="70" y="230.50" text-anchor="end" font-family="Arial, sans-serif" font-size="10">0.228</text>
<line x1="78" y1="169.00" x2="772" y2="169.00" stroke="#ececec"/>
<text x="70" y="173.00" text-anchor="end" font-family="Arial, sans-serif" font-size="10">0.549</text>
<line x1="78" y1="111.50" x2="772" y2="111.50" stroke="#ececec"/>
<text x="70" y="115.50" text-anchor="end" font-family="Arial, sans-serif" font-size="10">0.871</text>
<line x1="78" y1="54.00" x2="772" y2="54.00" stroke="#ececec"/>
<text x="70" y="58.00" text-anchor="end" font-family="Arial, sans-serif" font-size="10">1.2</text>
<line x1="78" y1="70.52" x2="772" y2="70.52" stroke="#1f77b4" opacity="0.18" stroke-dasharray="3 4"/>
<polyline fill="none" stroke="#1f77b4" stroke-width="2.0" points="91.35,84.21 97.99,84.21 104.59,84.21 112.90,84.21 119.54,84.21 126.14,84.21 132.78,84.21 139.42,84.21 146.06,84.21 152.66,84.21 159.30,84.21 165.94,84.21 172.58,84.21 179.18,84.21 187.49,84.21 194.13,84.21 200.73,84.21 206.90,84.21 210.67,84.21 211.83,84.21 214.10,84.21 215.64,84.21 219.49,84.21 221.47,84.21 223.95,84.21 227.29,84.21 228.62,84.21 229.73,84.21 232.22,84.21 232.91,84.21 234.32,84.21 235.56,84.21 237.28,84.21 238.86,84.21 239.50,84.21 240.27,84.21 240.83,84.21 241.47,84.21 242.07,84.21 242.37,84.21 242.85,84.21 243.27,84.21 243.83,84.21 244.39,84.21 244.77,84.21 245.12,84.21 245.50,84.21 245.89,84.21 246.49,84.21 246.79,84.21 247.26,84.21 247.82,84.21 248.20,84.21 248.84,84.21 249.23,84.21 249.83,84.21 250.26,84.21 250.51,84.21 251.33,84.21 252.14,84.21 252.44,84.21 253.26,84.21 254.41,84.21 255.01,84.21 256.56,84.21 257.63,84.21 258.78,84.21 259.00,84.21 259.25,84.21 260.28,84.21 261.23,84.21 264.35,84.21 266.88,84.22 268.21,84.22 268.98,84.22 270.99,84.22 272.02,84.22 275.71,84.22 276.86,84.22 279.61,84.22 280.68,84.22 281.75,84.21 282.26,84.21 282.91,84.21 283.51,84.21 285.39,84.21 288.26,84.21 290.23,84.20 290.53,84.20 290.87,84.20 291.47,84.20 291.86,84.20 294.82,84.19 298.54,84.18 301.84,84.18 304.50,84.17 306.81,84.16 308.57,84.15 312.34,84.14 313.45,84.13 315.04,84.12 315.77,84.12 317.91,84.10 318.85,84.10 321.21,84.08 322.54,84.07 325.06,84.07 328.36,84.11 330.68,84.20 331.92,84.27 332.26,84.29 332.69,84.32 333.33,84.37 335.39,84.57 337.62,84.85 338.82,85.03 340.36,85.29 341.69,85.52 342.63,85.70 343.49,85.86 344.09,85.97 344.99,86.13 345.54,86.23 347.00,86.45 348.93,86.60 350.43,86.52 351.59,86.27 352.61,85.88 353.21,85.57 353.90,85.15 354.54,84.69 354.97,84.34 355.70,83.71 356.38,83.06 357.03,82.41 357.46,81.96 357.84,81.56 358.10,81.28 358.48,80.87 358.74,80.60 359.17,80.14 359.34,79.96 359.90,79.38 360.33,78.94 361.05,78.24 361.61,77.73 362.13,77.27 362.90,76.64 363.75,75.99 364.74,75.35 365.55,74.87 366.62,74.32 367.52,73.90 369.19,73.26 369.41,73.18 370.22,72.93 370.74,72.77 371.47,72.57 371.85,72.48 372.84,72.26 373.44,72.13 374.34,71.95 374.94,71.86 376.05,71.69 377.59,71.49 377.81,71.47 379.39,71.32 380.68,71.24 382.78,71.15 383.80,71.13 384.70,71.12 391.35,71.12 394.64,71.09 396.32,71.07 397.64,71.05 399.10,71.03 401.29,71.02 405.48,71.04 409.60,71.10 412.55,71.14 416.20,71.18 424.51,71.19 427.81,71.14 432.78,71.04 434.58,70.99 437.06,70.93 438.09,70.91 440.32,70.86 442.72,70.81 445.76,70.75 449.36,70.71 451.76,70.68 457.67,70.63 462.94,70.60 465.94,70.58 472.58,70.56 476.65,70.55 482.52,70.55 489.16,70.54 495.76,70.53 501.16,70.53 505.70,70.53 512.34,70.53 517.31,70.53 520.69,70.53 525.19,70.52 528.88,70.52 532.18,70.52 535.35,70.52 539.07,70.52 543.83,70.52 547.51,70.52 549.61,70.52 551.11,70.52 552.61,70.52 553.77,70.52 554.76,70.52 555.57,70.52 556.60,70.52 557.33,70.52 558.53,70.52 559.47,70.52 560.37,70.52 561.10,70.52 562.04,70.52 562.77,70.52 563.75,70.52 564.82,70.52 565.64,70.52 566.84,70.52 567.78,70.52 569.19,70.52 570.39,70.52 572.02,70.52 573.69,70.52 576.05,70.52 578.66,70.52 581.96,70.52 585.26,70.52 586.89,70.52"/>
<line x1="78" y1="70.52" x2="772" y2="70.52" stroke="#d62728" opacity="0.18" stroke-dasharray="3 4"/>
<polyline fill="none" stroke="#d62728" stroke-width="2.0" points="91.35,70.52 100.26,70.52 109.21,70.52 120.35,70.52 129.31,70.52 138.22,70.52 147.13,70.52 156.08,70.52 165.00,70.52 176.18,70.52 185.09,70.52 194.00,70.52 202.96,70.52 211.87,70.52 223.05,70.52 229.82,70.52 236.42,70.52 240.06,70.52 244.47,70.52 247.60,70.52 249.49,70.52 251.93,70.52 253.30,70.52 254.28,70.52 260.93,70.52 265.42,70.52 267.87,70.52 269.54,70.52 271.29,70.52 272.28,70.52 273.27,70.52 274.16,70.52 274.68,70.52 275.24,70.52 276.09,70.52 276.86,70.52 278.19,70.52 278.96,70.52 279.73,70.52 280.93,70.52 281.83,70.52 282.73,70.52 283.98,70.52 284.62,70.52 285.86,70.52 287.02,70.52 287.83,70.52 288.95,70.52 289.97,70.52 290.49,70.52 292.03,70.52 292.63,70.52 292.89,70.52 293.74,70.52 294.22,70.52 294.69,70.52 295.12,70.52 296.70,70.51 298.29,70.51 299.49,70.51 300.90,70.51 302.66,70.51 303.81,70.51 305.61,70.51 307.88,70.51 308.95,70.51 310.33,70.52 311.35,70.52 312.30,70.52 313.28,70.52 314.31,70.52 316.02,70.52 318.42,70.52 320.99,70.51 321.72,70.51 323.74,70.51 324.81,70.51 325.15,70.51 326.01,70.51 327.08,70.51 327.68,70.51 328.96,70.51 329.78,70.52 330.12,70.52 331.19,70.52 331.66,70.52 334.92,70.53 339.07,70.54 343.57,70.57 344.56,70.57 348.03,70.59 352.49,70.62 359.17,70.60 361.35,70.52 362.64,70.45 363.50,70.39 363.67,70.38 364.44,70.33 364.65,70.32 365.25,70.28 366.15,70.22 366.88,70.17 367.27,70.15 367.87,70.11 368.38,70.07 368.64,70.06 369.19,70.03 369.54,70.01 370.48,69.96 377.04,69.86 384.40,69.89 388.17,69.90 394.90,69.91 399.36,69.95 400.64,69.98 401.59,70.04 402.27,70.09 402.70,70.11 403.56,70.16 403.73,70.17 404.76,70.24 407.41,70.49 408.65,70.66 410.80,71.00 411.57,71.15 412.94,71.43 414.31,71.75 415.17,71.95 416.97,72.43 417.78,72.65 418.17,72.76 419.97,73.30 420.91,73.58 421.85,73.87 422.71,74.13 423.74,74.45 425.11,74.87 426.61,75.33 427.93,75.73 428.92,76.03 430.42,76.46 431.96,76.89 434.02,77.46 434.62,77.60 435.69,77.86 436.16,77.97 437.45,78.28 438.22,78.46 439.55,78.78 440.10,78.91 441.35,79.16 442.25,79.34 443.62,79.61 444.64,79.82 445.54,80.00 447.51,80.33 450.17,80.76 452.91,81.16 455.36,81.48 458.40,81.83 459.04,81.90 459.60,81.96 461.87,82.19 462.81,82.27 463.97,82.35 464.74,82.40 465.85,82.47 466.20,82.49 466.97,82.54 467.78,82.60 468.85,82.67 469.67,82.72 470.05,82.75 470.82,82.80 471.21,82.82 472.02,82.87 473.09,82.95 475.24,83.04 476.18,83.09 478.79,83.20 481.92,83.34 485.52,83.43 488.26,83.49 493.19,83.60 497.56,83.69 501.80,83.77 504.24,83.80 514.65,83.92 522.11,83.97 528.79,84.00 537.75,84.04 544.34,84.06 551.11,84.09 556.51,84.10 562.30,84.11 568.85,84.13 573.44,84.13 580.16,84.14 591.30,84.15 600.21,84.16 609.00,84.16 613.62,84.17 620.31,84.17 625.71,84.17 630.59,84.18 633.72,84.18 636.59,84.18 639.67,84.18 642.33,84.18 644.94,84.18 647.34,84.18 649.74,84.18 652.06,84.18 654.33,84.18 657.45,84.19 659.77,84.19 662.12,84.19 664.70,84.19 667.18,84.19 669.41,84.19 672.49,84.19 675.32,84.19 678.15,84.19 680.59,84.19 683.80,84.19 687.15,84.19 691.34,84.19 694.17,84.19 698.41,84.19 702.91,84.19 707.37,84.19 713.97,84.19 718.51,84.19 723.01,84.19 728.45,84.19 734.15,84.20 740.83,84.20 749.70,84.20 756.47,84.20 758.65,84.20"/>
<line x1="78" y1="267.22" x2="772" y2="267.22" stroke="#2ca02c" opacity="0.18" stroke-dasharray="3 4"/>
<polyline fill="none" stroke="#2ca02c" stroke-width="2.0" points="91.35,267.22 100.17,267.22 109.00,267.21 120.05,267.21 128.88,267.22 137.70,267.22 146.53,267.22 155.36,267.22 164.18,267.22 175.24,267.21 184.06,267.21 192.89,267.21 201.71,267.21 210.54,267.22 221.59,267.22 225.49,267.21 228.19,267.21 233.63,267.21 234.83,267.21 236.12,267.21 237.45,267.21 238.18,267.21 238.78,267.21 239.25,267.21 239.63,267.21 240.45,267.21 241.30,267.21 241.65,267.21 242.63,267.21 244.47,267.21 245.76,267.21 246.79,267.21 247.56,267.21 248.29,267.21 249.06,267.21 249.96,267.21 250.60,267.21 252.31,267.21 253.04,267.21 254.33,267.21 255.06,267.21 255.74,267.21 256.68,267.21 257.07,267.21 257.80,267.21 258.57,267.21 259.38,267.21 260.28,267.21 261.78,267.21 263.20,267.21 263.75,267.21 265.72,267.21 267.52,267.21 268.98,267.21 270.14,267.21 272.37,267.21 273.91,267.21 274.89,267.21 276.31,267.21 277.68,267.21 278.58,267.21 279.31,267.21 279.95,267.21 280.89,267.22 281.79,267.22 282.31,267.22 283.21,267.22 283.68,267.22 284.58,267.22 285.26,267.22 286.20,267.22 287.15,267.22 287.62,267.22 288.39,267.22 289.03,267.22 290.02,267.22 291.43,267.22 292.07,267.22 293.06,267.22 293.87,267.22 294.99,267.22 296.74,267.22 297.64,267.22 299.31,267.22 300.64,267.22 302.83,267.22 305.36,267.22 307.54,267.22 309.98,267.22 312.08,267.22 316.50,267.22 320.91,267.22 325.32,267.21 331.96,267.19 338.56,267.16 343.92,267.15 345.67,267.16 348.37,267.21 349.53,267.25 350.56,267.30 351.84,267.38 353.13,267.47 356.13,267.70 358.23,267.85 359.21,267.92 360.67,268.02 362.77,268.12 364.31,268.14 365.08,268.12 367.27,268.01 368.12,267.96 369.49,267.87 371.81,267.71 373.91,267.59 376.09,267.48 377.55,267.43 378.88,267.39 380.51,267.37 382.05,267.37 383.46,267.38 388.43,267.46 391.26,267.49 393.74,267.50 395.97,267.49 400.39,267.47 401.63,267.47 404.37,267.49 409.21,267.54 411.44,267.55 414.40,267.48 416.62,267.30 419.11,266.89 420.52,266.58 422.02,266.15 422.49,266.01 424.12,265.45 424.89,265.17 426.69,264.46 427.38,264.18 428.75,263.62 430.12,263.05 431.28,262.57 432.52,262.06 433.59,261.63 434.45,261.29 435.69,260.81 436.59,260.47 437.92,260.00 438.95,259.64 440.27,259.22 441.17,258.93 442.63,258.51 444.30,258.09 446.74,257.52 448.84,257.10 451.07,256.68 453.30,256.39 456.68,255.97 458.65,255.72 462.30,255.40 464.57,255.20 469.19,254.98 475.02,254.69 477.63,254.61 485.35,254.41 488.69,254.35 496.91,254.27 504.16,254.20 509.94,254.14 515.17,254.12 526.22,254.07 530.63,254.06 537.23,254.05 541.64,254.04 544.30,254.04 546.06,254.04 548.41,254.04 550.51,254.03 555.40,254.03 558.57,254.03 561.52,254.02 565.25,254.02 568.17,254.01 570.35,254.01 573.52,254.01 575.58,254.01 581.40,254.01 585.82,254.00 588.00,254.00 590.23,254.00 592.76,254.00 595.24,254.00 599.06,254.00 605.70,254.00 613.24,254.00 621.12,253.99 629.95,253.99 636.59,253.99 645.50,253.99 649.83,253.99 652.91,253.99 655.87,253.99 659.00,253.99 661.44,253.99 664.78,253.99 665.68,253.99 668.12,253.99 669.71,253.99 671.72,253.99 673.99,253.99 675.75,253.99 677.03,253.99 678.62,253.99 680.29,253.99 682.48,253.99 683.85,253.99 685.13,253.99 687.15,253.99 688.95,253.99 690.57,253.99 692.72,253.99 694.64,253.99 696.19,253.99 698.37,253.99 700.60,253.99 703.08,253.99 705.01,253.99 707.54,253.99 709.43,253.99 711.87,253.99 713.84,253.99 718.25,253.99 721.42,253.99 725.41,253.99 728.23,253.99 733.68,253.99 738.13,253.99 743.70,253.99 749.14,253.99 751.33,253.98"/>
<line x1="78" y1="267.22" x2="772" y2="267.22" stroke="#9467bd" opacity="0.18" stroke-dasharray="3 4"/>
<polyline fill="none" stroke="#9467bd" stroke-width="2.0" points="91.35,253.98 98.59,253.98 105.87,253.98 114.95,253.98 122.19,253.98 129.44,253.98 136.72,253.98 143.96,253.98 151.24,253.98 160.28,253.98 167.57,253.98 174.81,253.98 182.09,253.98 189.33,253.98 198.42,253.98 204.29,253.98 209.30,253.98 216.54,253.98 223.82,253.98 227.98,253.98 229.43,253.98 230.51,253.98 231.41,253.98 232.35,253.98 233.21,253.98 233.68,253.98 234.70,253.98 235.56,253.98 236.55,253.98 237.58,253.98 238.30,253.98 238.95,253.98 239.85,253.98 240.23,253.98 240.92,253.98 241.56,253.98 241.99,253.98 243.02,253.98 243.75,253.98 244.47,253.98 245.07,253.98 245.67,253.98 246.57,253.98 247.26,253.98 247.64,253.98 248.42,253.98 249.10,253.98 249.49,253.98 250.04,253.98 250.51,253.98 251.03,253.98 251.33,253.98 251.97,253.98 252.44,253.98 252.91,253.98 253.43,253.98 254.16,253.98 254.67,253.98 255.06,253.98 255.83,253.98 256.38,253.98 256.81,253.98 257.24,253.98 257.71,253.98 258.36,253.98 259.00,253.98 259.60,253.98 260.11,253.98 260.71,253.98 261.53,253.98 262.55,253.98 263.24,253.98 263.84,253.98 264.74,253.98 265.85,253.98 267.05,253.98 268.77,253.98 270.01,253.98 270.99,253.98 272.19,253.98 273.44,253.98 276.14,253.98 277.89,253.98 279.48,253.98 281.49,253.98 283.63,253.98 287.32,253.98 291.00,253.98 292.89,253.98 296.57,253.98 300.26,253.99 303.64,254.00 312.73,254.02 316.37,254.02 321.81,254.03 329.05,254.04 331.88,254.04 334.49,254.03 336.63,254.01 338.30,253.97 339.97,253.92 341.73,253.84 343.36,253.75 345.16,253.63 346.14,253.56 347.99,253.39 349.49,253.25 350.86,253.09 352.10,252.95 353.38,252.78 354.46,252.62 355.87,252.41 356.64,252.28 357.97,252.06 358.78,251.94 359.73,251.80 360.33,251.73 361.48,251.64 362.64,251.63 363.54,251.69 364.61,251.84 365.64,252.09 366.67,252.42 367.44,252.72 368.21,253.06 368.98,253.44 369.67,253.81 370.22,254.12 371.04,254.59 371.55,254.90 372.19,255.29 373.31,255.99 374.08,256.46 374.68,256.83 375.36,257.24 375.88,257.54 376.74,258.02 377.59,258.49 378.15,258.79 379.05,259.25 379.86,259.65 380.68,260.04 381.71,260.52 382.73,260.97 383.85,261.45 385.00,261.92 386.25,262.41 387.10,262.72 388.86,263.32 389.97,263.68 390.92,263.94 392.20,264.30 394.00,264.72 396.19,265.14 397.99,265.40 399.83,265.62 402.66,265.87 405.27,266.05 407.88,266.20 410.58,266.33 413.32,266.44 416.15,266.54 418.81,266.63 422.79,266.75 428.83,266.88 432.48,266.94 437.92,267.02 442.29,267.06 447.00,267.09 452.44,267.13 461.53,267.16 468.77,267.18 476.01,267.19 483.29,267.19 490.53,267.20 497.81,267.20 506.26,267.20 508.70,267.21 512.30,267.21 515.64,267.21 517.78,267.21 521.38,267.21 523.86,267.21 526.82,267.21 529.35,267.21 531.75,267.21 534.10,267.21 536.59,267.21 539.76,267.21 543.49,267.21 545.63,267.21 547.21,267.21 549.36,267.21 551.54,267.21 552.70,267.21 554.07,267.21 555.87,267.21 557.24,267.21 558.57,267.21 559.51,267.21 560.24,267.21 561.44,267.21 562.60,267.21 563.50,267.21 564.35,267.21 565.42,267.21 566.67,267.21 567.57,267.21 568.77,267.21 570.39,267.21 572.02,267.21 572.88,267.21 574.08,267.21 575.58,267.21 576.56,267.21 578.06,267.21 579.43,267.21 580.33,267.21 581.92,267.21 583.08,267.21 585.56,267.21 586.85,267.21 588.17,267.21 589.12,267.21 590.96,267.21 592.16,267.21 595.54,267.21 597.21,267.21 599.40,267.21 601.11,267.21 603.47,267.21 606.68,267.21 609.04,267.21 612.12,267.21 615.72,267.21 618.08,267.21 623.01,267.21 627.42,267.21 630.25,267.21 633.85,267.21"/>
<line x1="88" y1="72" x2="110" y2="72" stroke="#1f77b4" stroke-width="2.4"/>
<text x="116" y="76" font-family="Arial, sans-serif" font-size="12">rising #1</text>
<line x1="88" y1="90" x2="110" y2="90" stroke="#d62728" stroke-width="2.4"/>
<text x="116" y="94" font-family="Arial, sans-serif" font-size="12">falling #2</text>
<line x1="88" y1="108" x2="110" y2="108" stroke="#2ca02c" stroke-width="2.4"/>
<text x="116" y="112" font-family="Arial, sans-serif" font-size="12">rising #3</text>
<line x1="88" y1="126" x2="110" y2="126" stroke="#9467bd" stroke-width="2.4"/>
<text x="116" y="130" font-family="Arial, sans-serif" font-size="12">falling #4</text>
<rect x="78" y="342" width="694" height="44" fill="#fffdf7" stroke="#d8c6a1" rx="4"/>
<text x="88" y="359" font-family="Arial, sans-serif" font-size="11" font-weight="700" fill="#4b3b21">Findings needing attention</text>
<rect x="88" y="366" width="7" height="7" fill="#b54708"/>
<text x="102" y="373" font-family="Arial, sans-serif" font-size="11" fill="#333">WARN 5.5.4: Ramp dt versus V-T 20-80% evidence needs review | avg Ramp dt=7.051e-10s, avg V-T 20-80% span=5.292e-...</text>
<text x="425.00" y="322.00" text-anchor="middle" font-family="Arial, sans-serif" font-size="12">Time (s)</text>
<text x="420" y="42" font-family="Arial, sans-serif" font-size="11" fill="#555">solid=V-T voltage, faint horizontal=V_fixture</text>
</svg>