<svg xmlns="http://www.w3.org/2000/svg" width="800" height="450" viewBox="0 0 800 450">
<rect width="100%" height="100%" fill="#ffffff"/>
<text x="78" y="25" font-family="Arial, sans-serif" font-size="16" font-weight="700">E34_GPIO_SPI_1V1_00 V-T Waveforms</text>
<rect x="78" y="54" width="694" height="230" fill="#fbfbfb" stroke="#c8c8c8"/>
<text transform="translate(18 169.00) rotate(-90)" text-anchor="middle" font-family="Arial, sans-serif" font-size="12">Voltage (V)</text>
<line x1="78.00" y1="54" x2="78.00" y2="284" stroke="#ececec"/>
<text x="78.00" y="302" text-anchor="middle" font-family="Arial, sans-serif" font-size="10">-160p</text>
<line x1="216.80" y1="54" x2="216.80" y2="284" stroke="#ececec"/>
<text x="216.80" y="302" text-anchor="middle" font-family="Arial, sans-serif" font-size="10">1.51n</text>
<line x1="355.60" y1="54" x2="355.60" y2="284" stroke="#ececec"/>
<text x="355.60" y="302" text-anchor="middle" font-family="Arial, sans-serif" font-size="10">3.17n</text>
<line x1="494.40" y1="54" x2="494.40" y2="284" stroke="#ececec"/>
<text x="494.40" y="302" text-anchor="middle" font-family="Arial, sans-serif" font-size="10">4.84n</text>
<line x1="633.20" y1="54" x2="633.20" y2="284" stroke="#ececec"/>
<text x="633.20" y="302" text-anchor="middle" font-family="Arial, sans-serif" font-size="10">6.51n</text>
<line x1="772.00" y1="54" x2="772.00" y2="284" stroke="#ececec"/>
<text x="772.00" y="302" text-anchor="middle" font-family="Arial, sans-serif" font-size="10">8.18n</text>
<line x1="78" y1="284.00" x2="772" y2="284.00" stroke="#ececec"/>
<text x="70" y="288.00" text-anchor="end" font-family="Arial, sans-serif" font-size="10">-0.0947</text>
<line x1="78" y1="226.50" x2="772" y2="226.50" stroke="#ececec"/>
<text x="70" y="230.50" text-anchor="end" font-family="Arial, sans-serif" font-size="10">0.227</text>
<line x1="78" y1="169.00" x2="772" y2="169.00" stroke="#ececec"/>
<text x="70" y="173.00" text-anchor="end" font-family="Arial, sans-serif" font-size="10">0.549</text>
<line x1="78" y1="111.50" x2="772" y2="111.50" stroke="#ececec"/>
<text x="70" y="115.50" text-anchor="end" font-family="Arial, sans-serif" font-size="10">0.871</text>
<line x1="78" y1="54.00" x2="772" y2="54.00" stroke="#ececec"/>
<text x="70" y="58.00" text-anchor="end" font-family="Arial, sans-serif" font-size="10">1.2</text>
<line x1="78" y1="70.66" x2="772" y2="70.66" stroke="#1f77b4" opacity="0.18" stroke-dasharray="3 4"/>
<polyline fill="none" stroke="#1f77b4" stroke-width="2.0" points="91.35,108.27 97.09,108.27 102.92,108.27 110.16,108.27 115.91,108.27 121.65,108.27 127.48,108.28 130.31,108.28 134.64,108.25 135.72,108.24 136.39,108.24 136.89,108.23 137.47,108.23 138.14,108.22 138.97,108.21 139.97,108.20 140.63,108.20 141.72,108.19 142.38,108.18 143.38,108.17 144.21,108.16 144.88,108.16 145.55,108.15 146.30,108.15 147.13,108.14 147.96,108.14 149.04,108.14 149.71,108.15 150.54,108.17 151.04,108.18 151.79,108.21 152.54,108.25 153.21,108.29 153.71,108.32 154.12,108.36 154.71,108.41 155.37,108.48 156.04,108.56 156.54,108.62 157.04,108.69 157.70,108.79 158.29,108.88 159.28,109.05 159.95,109.18 160.62,109.30 161.03,109.38 161.87,109.55 162.20,109.62 163.20,109.82 164.03,109.98 164.70,110.10 165.61,110.26 166.19,110.36 167.03,110.47 168.19,110.59 168.69,110.61 169.36,110.62 170.19,110.59 170.69,110.54 171.36,110.43 172.11,110.27 172.86,110.04 173.35,109.85 173.69,109.72 174.27,109.43 174.77,109.18 175.69,108.62 176.60,107.98 177.77,107.04 178.43,106.42 179.27,105.62 180.18,104.67 181.43,103.26 182.10,102.45 182.85,101.54 183.51,100.69 184.51,99.39 185.34,98.28 185.93,97.49 186.84,96.25 187.76,95.01 188.67,93.77 189.42,92.76 190.42,91.48 191.42,90.19 192.00,89.44 192.75,88.54 194.17,86.94 194.50,86.56 195.25,85.72 195.92,84.97 196.67,84.27 197.50,83.49 198.08,82.95 198.83,82.25 199.50,81.69 200.16,81.22 200.83,80.75 201.50,80.27 202.24,79.74 202.74,79.39 203.24,79.03 203.66,78.77 204.49,78.24 205.08,77.90 205.49,77.67 206.07,77.34 206.74,76.99 207.74,76.50 209.07,75.89 209.74,75.61 210.57,75.28 211.24,75.03 213.57,74.27 214.98,73.87 216.40,73.52 217.31,73.31 217.81,73.21 218.48,73.07 219.90,72.82 220.81,72.67 223.14,72.35 223.89,72.26 224.47,72.19 225.64,72.07 227.14,71.92 228.72,71.79 229.97,71.70 231.72,71.59 234.05,71.46 236.63,71.34 238.38,71.28 239.79,71.23 240.29,71.22 241.63,71.17 242.79,71.14 243.29,71.13 245.87,71.07 248.79,71.01 249.45,70.99 250.53,70.98 252.45,70.95 253.53,70.93 254.11,70.92 254.95,70.91 255.78,70.90 256.20,70.90 257.03,70.89 257.69,70.88 258.36,70.87 258.86,70.87 259.44,70.86 260.61,70.85 262.52,70.83 263.44,70.83 264.35,70.82 265.19,70.81 266.35,70.80 267.02,70.80 267.85,70.79 269.02,70.79 270.85,70.78 272.10,70.77 273.35,70.77 275.34,70.76 277.43,70.75 279.92,70.74 280.76,70.74 282.01,70.74 283.67,70.73 285.00,70.73 286.25,70.73 287.33,70.72 288.17,70.72 289.50,70.72 291.83,70.72 293.41,70.71 294.49,70.71 295.49,70.71 296.58,70.71 298.41,70.71 300.24,70.70 301.65,70.70 303.07,70.70 304.07,70.70 305.48,70.70 306.57,70.70 307.98,70.70 309.48,70.70 310.98,70.69 311.81,70.69 313.14,70.69 314.89,70.69 316.39,70.69 317.97,70.69 319.55,70.69 321.39,70.69 322.72,70.69 325.30,70.69 326.80,70.69 328.88,70.69 331.13,70.68 333.96,70.68 336.87,70.68 340.37,70.68 342.78,70.68 347.03,70.68 349.86,70.68 354.19,70.68 360.02,70.68 365.76,70.68 368.68,70.67 374.42,70.67 380.25,70.67 383.58,70.67 387.41,70.67 393.24,70.67 398.98,70.67 404.73,70.67 409.14,70.67 414.88,70.67 420.63,70.67 423.54,70.67 429.29,70.67 435.12,70.67 440.86,70.67 448.10,70.67 453.85,70.67 459.68,70.67 465.42,70.67 471.17,70.67 478.41,70.67 484.24,70.67 489.98,70.67 495.73,70.67 501.56,70.67 507.30,70.67 514.54,70.67 520.29,70.67 523.12,70.66"/>
<line x1="78" y1="70.66" x2="772" y2="70.66" stroke="#d62728" opacity="0.18" stroke-dasharray="3 4"/>
<polyline fill="none" stroke="#d62728" stroke-width="2.0" points="91.35,70.66 100.25,70.66 103.50,70.66 113.66,70.66 118.16,70.66 121.74,70.66 124.65,70.66 125.98,70.66 127.56,70.66 131.89,70.66 133.39,70.66 133.89,70.66 134.89,70.66 136.72,70.66 137.47,70.66 139.30,70.66 139.80,70.66 140.80,70.66 141.97,70.66 142.88,70.66 144.46,70.66 145.30,70.66 145.71,70.66 147.63,70.66 149.04,70.66 150.63,70.65 151.71,70.65 153.04,70.65 153.87,70.65 155.45,70.65 156.37,70.65 157.04,70.65 157.87,70.65 158.37,70.65 159.28,70.65 160.53,70.65 161.03,70.65 162.45,70.65 162.95,70.65 163.53,70.65 164.70,70.65 165.03,70.65 166.94,70.65 167.69,70.65 168.44,70.65 168.94,70.65 169.69,70.66 170.36,70.66 171.27,70.67 171.61,70.67 172.02,70.67 172.36,70.67 172.77,70.68 173.35,70.69 173.94,70.69 174.52,70.70 174.85,70.71 175.44,70.72 176.35,70.74 177.35,70.75 177.85,70.77 178.60,70.78 179.18,70.79 179.68,70.80 180.76,70.83 181.85,70.85 182.60,70.87 183.18,70.88 183.60,70.89 184.01,70.89 184.76,70.91 185.43,70.92 186.09,70.93 187.01,70.94 187.59,70.95 188.01,70.95 188.67,70.96 189.26,70.97 189.84,70.97 190.59,70.98 191.50,70.98 193.00,70.98 194.00,70.98 194.42,70.97 195.00,70.96 196.00,70.95 197.08,70.92 197.67,70.90 198.91,70.85 200.16,70.79 200.66,70.77 201.50,70.72 202.41,70.67 203.33,70.61 204.99,70.51 207.07,70.38 207.91,70.34 208.32,70.31 208.91,70.28 209.57,70.25 210.82,70.19 211.99,70.13 213.82,70.06 214.57,70.03 215.82,69.99 216.15,69.98 217.31,69.95 219.06,69.90 220.89,69.87 221.98,69.86 223.06,69.86 223.73,69.87 225.89,69.93 227.39,70.02 229.47,70.22 230.39,70.35 230.97,70.45 232.63,70.78 233.88,71.09 234.88,71.37 235.63,71.61 237.13,72.15 238.30,72.64 239.54,73.22 240.46,73.70 241.13,74.06 242.71,74.98 243.96,75.74 244.96,76.40 246.37,77.34 247.79,78.31 249.62,79.61 250.62,80.31 251.78,81.14 252.62,81.74 253.12,82.10 253.70,82.51 255.03,83.46 255.86,84.04 256.61,84.56 257.03,84.85 257.53,85.20 259.19,86.34 259.94,86.83 260.77,87.37 261.27,87.70 261.94,88.13 263.19,88.95 265.35,90.24 267.27,91.35 268.60,92.13 270.77,93.27 273.10,94.45 276.59,95.99 279.51,97.14 281.42,97.90 284.50,99.04 287.75,100.13 290.00,100.80 293.41,101.74 296.66,102.54 300.16,103.28 303.40,103.84 307.90,104.51 312.31,105.10 316.81,105.60 321.30,105.96 327.21,106.34 332.38,106.68 339.12,106.99 348.03,107.35 355.02,107.48 361.43,107.59 368.01,107.70 374.34,107.81 377.09,107.86 380.83,107.89 384.50,107.92 388.24,107.96 391.32,107.99 394.74,108.02 397.73,108.04 400.73,108.05 403.81,108.07 406.14,108.08 408.81,108.09 411.39,108.10 414.80,108.11 417.22,108.12 419.46,108.13 421.71,108.14 424.29,108.15 428.37,108.16 430.79,108.16 433.78,108.17 436.86,108.17 439.53,108.18 442.53,108.18 446.27,108.19 450.27,108.20 453.18,108.20 457.43,108.21 461.59,108.21 466.34,108.21 470.83,108.22 475.25,108.22 480.16,108.22 486.40,108.23 491.23,108.23 499.81,108.24 506.55,108.24 513.21,108.24 519.87,108.24 526.62,108.24 535.86,108.25 544.43,108.25 553.34,108.25 560.09,108.25 568.99,108.25 577.90,108.25 587.73,108.25 595.80,108.25 604.71,108.25 613.62,108.26 622.61,108.26 631.52,108.26 642.68,108.26 651.58,108.26 660.49,108.26 669.49,108.26 678.39,108.26 689.55,108.26 698.46,108.26 707.37,108.26 716.36,108.26 725.27,108.26 734.18,108.26 745.33,108.26 754.24,108.26 758.65,108.27"/>
<line x1="78" y1="267.09" x2="772" y2="267.09" stroke="#2ca02c" opacity="0.18" stroke-dasharray="3 4"/>
<polyline fill="none" stroke="#2ca02c" stroke-width="2.0" points="91.35,267.09 99.76,267.09 108.16,267.09 118.74,267.09 121.82,267.09 122.65,267.09 123.57,267.09 124.15,267.09 124.90,267.09 125.81,267.09 127.98,267.09 128.81,267.09 129.31,267.09 129.73,267.09 130.14,267.10 130.73,267.10 131.06,267.10 131.73,267.10 132.06,267.10 132.64,267.10 133.06,267.10 133.39,267.10 133.72,267.10 134.06,267.10 134.39,267.10 134.72,267.10 135.14,267.10 135.47,267.10 135.81,267.10 136.22,267.10 136.72,267.10 137.30,267.10 137.97,267.10 139.30,267.10 140.30,267.11 141.88,267.11 143.05,267.11 146.13,267.10 147.54,267.09 148.21,267.09 149.88,267.07 150.54,267.05 152.21,267.01 153.12,266.99 154.71,266.94 155.54,266.92 156.37,266.90 156.87,266.88 157.62,266.86 158.12,266.85 158.53,266.84 158.95,266.83 159.28,266.83 159.78,266.82 160.20,266.81 160.70,266.80 161.37,266.79 161.95,266.79 162.70,266.78 163.61,266.77 164.53,266.77 165.20,266.77 165.69,266.77 166.11,266.77 166.69,266.78 167.28,266.78 167.94,266.80 168.44,266.81 169.11,266.83 170.02,266.86 170.77,266.90 171.77,266.96 172.94,267.03 173.35,267.06 174.19,267.12 174.94,267.18 177.10,267.35 178.02,267.42 179.27,267.51 179.93,267.56 181.01,267.63 181.93,267.69 183.26,267.77 184.01,267.81 184.93,267.86 186.34,267.92 188.01,267.99 189.34,268.04 191.34,268.10 192.75,268.14 194.25,268.14 196.50,268.13 198.75,267.94 202.08,267.46 204.58,266.89 205.58,266.61 206.82,266.18 207.82,265.79 209.32,265.11 210.49,264.51 211.32,264.05 212.32,263.46 212.99,263.05 213.98,262.40 214.82,261.84 215.48,261.38 216.23,260.85 216.90,260.37 217.65,259.83 218.56,259.15 219.81,258.22 221.06,257.28 222.48,256.22 223.73,255.29 225.14,254.25 225.81,253.77 226.81,253.05 227.56,252.52 228.30,252.00 230.05,250.83 231.22,250.08 232.72,249.17 234.47,248.15 235.80,247.40 237.55,246.52 238.96,245.80 241.29,244.75 242.87,244.08 245.12,243.26 247.45,242.41 249.29,241.81 253.03,240.69 254.28,240.36 257.78,239.51 259.86,239.05 263.44,238.37 264.94,238.12 267.94,237.65 270.35,237.33 271.76,237.15 274.35,236.90 277.01,236.64 279.09,236.44 281.76,236.24 285.00,236.00 285.75,235.94 287.25,235.88 293.58,235.59 297.74,235.40 299.82,235.33 301.99,235.26 306.07,235.14 309.40,235.04 313.89,234.97 316.72,234.93 320.89,234.87 327.38,234.77 331.38,234.72 333.96,234.70 337.79,234.67 339.79,234.65 341.53,234.64 343.12,234.62 345.78,234.60 347.78,234.59 349.28,234.57 350.78,234.56 352.52,234.55 354.44,234.55 356.35,234.54 358.44,234.53 360.10,234.52 361.77,234.51 363.51,234.50 365.35,234.50 367.34,234.49 369.68,234.48 371.51,234.47 373.51,234.46 375.67,234.46 377.34,234.45 379.67,234.45 382.00,234.44 384.25,234.44 386.24,234.43 387.91,234.43 389.32,234.42 391.07,234.42 393.40,234.41 396.40,234.41 397.73,234.41 400.90,234.40 403.98,234.40 405.73,234.40 409.39,234.39 411.47,234.39 415.72,234.38 419.88,234.38 424.29,234.37 426.46,234.37 431.20,234.36 434.87,234.36 438.86,234.36 445.19,234.35 448.35,234.35 453.60,234.34 460.76,234.34 464.59,234.33 470.50,234.33 478.91,234.33 485.24,234.32 491.56,234.32 497.81,234.32 506.30,234.31 512.63,234.31 518.87,234.31 527.36,234.30 533.69,234.30 542.10,234.30 550.51,234.30 558.92,234.29 567.33,234.29 575.74,234.29 584.23,234.29 592.64,234.29 601.05,234.29 611.62,234.28 620.03,234.28 628.44,234.28 636.85,234.28 645.26,234.28 655.83,234.28 664.24,234.28 672.65,234.28 681.06,234.28 689.55,234.27 697.96,234.27 708.45,234.27 716.86,234.27 721.02,234.26"/>
<line x1="78" y1="267.09" x2="772" y2="267.09" stroke="#9467bd" opacity="0.18" stroke-dasharray="3 4"/>
<polyline fill="none" stroke="#9467bd" stroke-width="2.0" points="91.35,234.26 97.34,234.26 103.42,234.26 110.91,234.26 116.91,234.26 122.98,234.26 127.56,234.26 131.98,234.26 136.22,234.26 137.39,234.26 138.39,234.26 138.97,234.26 139.80,234.26 140.47,234.26 141.13,234.26 141.47,234.26 142.05,234.26 142.63,234.26 142.97,234.26 143.30,234.26 143.88,234.26 144.46,234.26 145.13,234.26 145.80,234.26 146.38,234.26 146.80,234.26 147.88,234.26 148.21,234.26 148.54,234.26 148.88,234.26 149.21,234.26 149.63,234.26 150.04,234.26 150.46,234.26 151.21,234.26 151.87,234.26 152.46,234.26 153.46,234.26 154.21,234.27 154.95,234.27 155.79,234.27 156.54,234.27 157.79,234.28 159.03,234.28 160.20,234.28 160.87,234.29 161.70,234.29 162.36,234.29 163.03,234.30 163.53,234.30 163.95,234.30 164.28,234.30 164.70,234.30 165.11,234.30 165.53,234.30 166.03,234.31 166.44,234.31 166.94,234.31 167.44,234.31 168.28,234.31 168.94,234.32 169.52,234.32 170.02,234.32 170.36,234.32 170.77,234.32 171.19,234.32 171.86,234.32 172.61,234.32 173.27,234.32 173.85,234.32 174.60,234.32 175.19,234.32 175.77,234.32 176.52,234.31 177.10,234.30 178.02,234.29 179.18,234.26 180.10,234.23 180.43,234.22 181.26,234.19 182.43,234.14 183.26,234.10 184.51,234.03 185.43,233.97 187.01,233.85 188.01,233.77 189.01,233.69 190.09,233.59 191.75,233.44 192.92,233.33 193.67,233.27 194.25,233.23 195.42,233.16 196.33,233.13 197.83,233.13 199.00,233.20 199.91,233.29 201.16,233.50 202.41,233.79 203.74,234.19 204.58,234.51 205.33,234.83 206.74,235.52 208.74,236.67 209.99,237.51 210.99,238.22 212.32,239.23 213.23,239.96 214.73,241.21 215.98,242.27 216.90,243.07 217.56,243.66 218.65,244.62 219.48,245.37 220.73,246.50 221.14,246.88 222.06,247.72 223.23,248.78 223.89,249.39 224.72,250.14 225.81,251.12 226.64,251.86 227.31,252.45 227.89,252.96 228.55,253.53 229.30,254.17 230.55,255.21 231.30,255.82 232.05,256.41 233.13,257.23 233.97,257.84 234.97,258.54 235.80,259.10 236.46,259.53 237.13,259.95 237.88,260.39 238.96,260.99 241.04,261.98 243.29,262.87 244.79,263.36 247.04,264.01 249.37,264.51 252.37,265.04 254.86,265.39 257.61,265.71 261.36,266.01 263.11,266.13 265.77,266.29 268.93,266.42 270.60,266.49 273.43,266.58 274.60,266.62 276.43,266.65 279.42,266.72 281.26,266.75 283.42,266.79 285.00,266.81 285.92,266.83 287.00,266.84 290.00,266.87 291.66,266.89 295.99,266.92 298.99,266.94 300.66,266.95 303.49,266.96 305.73,266.97 307.57,266.98 308.40,266.99 309.56,266.99 312.23,267.00 314.06,267.00 317.56,267.01 319.55,267.01 320.97,267.02 322.14,267.02 323.97,267.02 325.72,267.03 326.96,267.03 328.88,267.03 330.29,267.03 331.63,267.03 333.21,267.04 334.87,267.04 335.71,267.04 337.29,267.04 338.45,267.04 340.79,267.04 341.95,267.04 343.70,267.05 345.36,267.05 347.11,267.05 348.69,267.05 350.53,267.05 351.86,267.05 353.77,267.05 355.60,267.05 357.60,267.06 359.19,267.06 361.85,267.06 363.01,267.06 364.93,267.06 366.68,267.06 369.01,267.06 371.09,267.06 373.17,267.06 376.34,267.06 378.75,267.06 381.75,267.07 384.75,267.07 389.32,267.07 393.49,267.07 396.82,267.07 400.65,267.07 404.31,267.07 408.56,267.07 410.89,267.07 413.14,267.07 415.22,267.07 419.05,267.07 422.63,267.07 428.37,267.07 434.45,267.08 438.95,267.08 444.94,267.08 451.02,267.08 455.51,267.08 463.01,267.08 469.00,267.08 475.08,267.08 481.07,267.08 487.07,267.08 494.64,267.08 500.64,267.08 506.63,267.08 512.71,267.08 518.71,267.08 524.70,267.08 532.28,267.08 538.27,267.08 541.19,267.09"/>
<line x1="88" y1="72" x2="110" y2="72" stroke="#1f77b4" stroke-width="2.4"/>
<text x="116" y="76" font-family="Arial, sans-serif" font-size="12">rising #1</text>
<line x1="88" y1="90" x2="110" y2="90" stroke="#d62728" stroke-width="2.4"/>
<text x="116" y="94" font-family="Arial, sans-serif" font-size="12">falling #2</text>
<line x1="88" y1="108" x2="110" y2="108" stroke="#2ca02c" stroke-width="2.4"/>
<text x="116" y="112" font-family="Arial, sans-serif" font-size="12">rising #3</text>
<line x1="88" y1="126" x2="110" y2="126" stroke="#9467bd" stroke-width="2.4"/>
<text x="116" y="130" font-family="Arial, sans-serif" font-size="12">falling #4</text>
<rect x="78" y="342" width="694" height="44" fill="#fffdf7" stroke="#d8c6a1" rx="4"/>
<text x="88" y="359" font-family="Arial, sans-serif" font-size="11" font-weight="700" fill="#4b3b21">Findings needing attention</text>
<rect x="88" y="366" width="7" height="7" fill="#b54708"/>
<text x="102" y="373" font-family="Arial, sans-serif" font-size="11" fill="#333">WARN 5.5.4: Ramp dt versus V-T 20-80% evidence needs review | avg Ramp dt=4.687e-10s, avg V-T 20-80% span=3.693e-...</text>
<text x="425.00" y="322.00" text-anchor="middle" font-family="Arial, sans-serif" font-size="12">Time (s)</text>
<text x="420" y="42" font-family="Arial, sans-serif" font-size="11" fill="#555">solid=V-T voltage, faint horizontal=V_fixture</text>
</svg>