<svg xmlns="http://www.w3.org/2000/svg" width="800" height="450" viewBox="0 0 800 450">
<rect width="100%" height="100%" fill="#ffffff"/>
<text x="78" y="25" font-family="Arial, sans-serif" font-size="16" font-weight="700">E34_GPIO_I3C_I2C_SLV_1V8_10 V-T Waveforms</text>
<rect x="78" y="54" width="694" height="230" fill="#fbfbfb" stroke="#c8c8c8"/>
<text transform="translate(18 169.00) rotate(-90)" text-anchor="middle" font-family="Arial, sans-serif" font-size="12">Voltage (V)</text>
<line x1="78.00" y1="54" x2="78.00" y2="284" stroke="#ececec"/>
<text x="78.00" y="302" text-anchor="middle" font-family="Arial, sans-serif" font-size="10">-748p</text>
<line x1="216.80" y1="54" x2="216.80" y2="284" stroke="#ececec"/>
<text x="216.80" y="302" text-anchor="middle" font-family="Arial, sans-serif" font-size="10">7.03n</text>
<line x1="355.60" y1="54" x2="355.60" y2="284" stroke="#ececec"/>
<text x="355.60" y="302" text-anchor="middle" font-family="Arial, sans-serif" font-size="10">14.8n</text>
<line x1="494.40" y1="54" x2="494.40" y2="284" stroke="#ececec"/>
<text x="494.40" y="302" text-anchor="middle" font-family="Arial, sans-serif" font-size="10">22.6n</text>
<line x1="633.20" y1="54" x2="633.20" y2="284" stroke="#ececec"/>
<text x="633.20" y="302" text-anchor="middle" font-family="Arial, sans-serif" font-size="10">30.4n</text>
<line x1="772.00" y1="54" x2="772.00" y2="284" stroke="#ececec"/>
<text x="772.00" y="302" text-anchor="middle" font-family="Arial, sans-serif" font-size="10">38.1n</text>
<line x1="78" y1="284.00" x2="772" y2="284.00" stroke="#ececec"/>
<text x="70" y="288.00" text-anchor="end" font-family="Arial, sans-serif" font-size="10">-0.158</text>
<line x1="78" y1="226.50" x2="772" y2="226.50" stroke="#ececec"/>
<text x="70" y="230.50" text-anchor="end" font-family="Arial, sans-serif" font-size="10">0.373</text>
<line x1="78" y1="169.00" x2="772" y2="169.00" stroke="#ececec"/>
<text x="70" y="173.00" text-anchor="end" font-family="Arial, sans-serif" font-size="10">0.904</text>
<line x1="78" y1="111.50" x2="772" y2="111.50" stroke="#ececec"/>
<text x="70" y="115.50" text-anchor="end" font-family="Arial, sans-serif" font-size="10">1.4</text>
<line x1="78" y1="54.00" x2="772" y2="54.00" stroke="#ececec"/>
<text x="70" y="58.00" text-anchor="end" font-family="Arial, sans-serif" font-size="10">2</text>
<line x1="78" y1="71.95" x2="772" y2="71.95" stroke="#1f77b4" opacity="0.18" stroke-dasharray="3 4"/>
<polyline fill="none" stroke="#1f77b4" stroke-width="2.0" points="91.35,231.22 92.56,231.22 93.79,231.22 95.31,231.22 96.52,231.22 97.38,231.21 97.58,231.20 97.68,231.20 97.77,231.19 97.97,231.18 98.13,231.18 98.33,231.19 98.50,231.20 98.65,231.22 98.81,231.26 98.93,231.29 99.06,231.34 99.18,231.39 99.25,231.43 99.33,231.46 99.41,231.51 99.50,231.57 99.58,231.62 99.68,231.69 99.79,231.76 99.88,231.83 99.97,231.89 100.04,231.94 100.11,232.00 100.18,232.04 100.25,232.09 100.36,232.16 100.43,232.19 100.50,232.23 100.57,232.25 100.65,232.27 100.72,232.28 100.81,232.28 100.88,232.27 100.97,232.23 101.04,232.19 101.11,232.13 101.20,232.04 101.31,231.88 101.43,231.64 101.52,231.43 101.59,231.23 101.66,231.02 101.79,230.57 101.86,230.28 101.93,229.95 102.00,229.60 102.07,229.19 102.16,228.66 102.23,228.14 102.31,227.61 102.40,226.83 102.48,225.97 102.59,224.79 102.70,223.40 102.81,221.80 102.93,219.60 103.06,217.06 103.16,214.54 103.34,209.62 103.47,205.65 103.63,199.87 103.79,193.41 103.89,188.78 103.97,185.58 104.14,177.21 104.22,173.75 104.31,169.34 104.45,162.15 104.54,157.59 104.64,152.09 104.77,145.65 104.89,139.25 104.97,135.65 105.04,132.10 105.13,127.77 105.25,121.96 105.32,118.78 105.43,114.22 105.54,109.94 105.63,106.61 105.72,103.49 105.82,100.03 105.89,97.92 106.04,94.13 106.16,91.26 106.32,88.07 106.47,85.64 106.55,84.33 106.66,82.92 106.77,81.68 106.88,80.61 107.02,79.39 107.14,78.49 107.25,77.83 107.32,77.44 107.48,76.68 107.61,76.20 107.84,75.48 107.95,75.21 108.18,74.74 108.46,74.32 108.80,73.97 109.02,73.80 109.30,73.61 109.64,73.40 110.25,73.05 110.57,72.89 111.34,72.58 111.66,72.49 111.93,72.42 112.50,72.31 113.28,72.20 113.57,72.18 113.69,72.17 113.78,72.16 113.98,72.14 114.21,72.13 114.52,72.11 114.71,72.10 115.14,72.08 115.41,72.07 115.52,72.06 115.77,72.06 116.10,72.05 116.34,72.05 116.64,72.04 116.85,72.04 117.18,72.04 117.41,72.03 117.60,72.03 117.85,72.03 118.14,72.03 118.37,72.02 118.53,72.02 118.75,72.02 118.87,72.02 119.16,72.02 119.37,72.02 119.53,72.02 119.71,72.01 119.87,72.01 120.05,72.01 120.28,72.01 120.46,72.01 120.60,72.01 120.80,72.01 120.98,72.01 121.19,72.01 121.46,72.01 121.66,72.00 121.82,72.00 121.99,72.00 122.16,72.00 122.37,72.00 122.49,72.00 122.60,72.00 122.80,72.00 122.94,72.00 123.10,72.00 123.21,72.00 123.39,72.00 123.58,72.00 123.78,72.00 123.94,72.00 124.28,72.00 124.49,72.00 124.69,72.00 124.85,72.00 124.96,72.00 125.17,71.99 125.39,71.99 125.71,71.99 126.06,71.99 126.39,71.99 126.85,71.99 126.94,71.99 127.08,71.99 127.90,71.99 128.53,71.99 129.13,71.99 129.44,71.99 130.65,71.98 131.49,71.98 131.63,71.98 132.08,71.98 132.35,71.98 132.79,71.98 133.17,71.98 134.01,71.98 134.61,71.98 135.24,71.98 135.85,71.98 136.74,71.98 137.22,71.98 137.67,71.98 138.88,71.97 139.81,71.97 140.17,71.97 140.72,71.97 141.63,71.97 142.77,71.97 143.77,71.97 144.68,71.97 146.20,71.97 147.43,71.97 148.64,71.97 149.86,71.97 151.07,71.97 152.61,71.97 153.55,71.97 154.43,71.97 155.66,71.97 156.87,71.97 157.52,71.96 159.00,71.96 160.23,71.96 161.44,71.96 162.66,71.96 163.89,71.96 165.10,71.96 166.62,71.96 167.83,71.96 169.07,71.96 170.28,71.96 171.49,71.96 173.03,71.96 174.24,71.96 175.46,71.96 176.69,71.96 177.90,71.96 179.12,71.96 180.65,71.96 181.86,71.96 182.45,71.96"/>
<line x1="78" y1="71.95" x2="772" y2="71.95" stroke="#d62728" opacity="0.18" stroke-dasharray="3 4"/>
<polyline fill="none" stroke="#d62728" stroke-width="2.0" points="91.35,71.95 92.97,71.95 94.61,71.95 95.42,71.95 96.15,71.96 96.34,71.96 97.22,71.95 97.86,71.95 98.29,71.94 98.74,71.95 99.24,71.97 99.54,71.99 99.72,72.01 99.86,72.03 100.09,72.05 100.18,72.06 100.29,72.07 100.43,72.09 100.59,72.10 100.72,72.11 100.90,72.11 101.02,72.11 101.16,72.09 101.27,72.08 101.41,72.05 101.57,72.00 101.73,71.93 101.88,71.86 102.04,71.77 102.18,71.67 102.36,71.53 102.48,71.42 102.63,71.29 102.75,71.18 102.90,71.05 103.04,70.92 103.13,70.84 103.22,70.76 103.29,70.70 103.36,70.64 103.43,70.58 103.50,70.53 103.59,70.46 103.66,70.40 103.73,70.35 103.81,70.30 103.88,70.25 103.95,70.20 104.06,70.13 104.16,70.06 104.29,69.99 104.39,69.94 104.48,69.90 104.57,69.88 104.64,69.86 104.72,69.86 104.79,69.88 104.88,69.91 104.95,69.97 105.11,70.20 105.25,70.46 105.39,70.83 105.55,71.43 105.64,71.85 105.79,72.65 105.89,73.35 106.02,74.32 106.16,75.63 106.30,77.17 106.47,79.18 106.59,80.95 106.68,82.32 106.80,84.42 106.91,86.38 107.04,88.87 107.25,93.59 107.39,97.03 107.59,102.08 107.79,107.37 107.88,109.85 108.07,115.39 108.23,120.00 108.45,126.19 108.57,129.80 108.77,135.45 108.93,140.02 109.07,144.03 109.32,150.95 109.55,157.21 109.68,160.51 109.86,165.12 110.07,170.47 110.25,174.76 110.36,177.27 110.45,179.31 110.55,181.71 110.70,184.81 110.80,187.05 110.96,190.30 111.11,193.04 111.25,195.65 111.41,198.43 111.59,201.29 111.75,203.67 111.91,205.88 112.03,207.48 112.16,208.97 112.28,210.37 112.43,211.83 112.59,213.34 112.78,215.00 112.94,216.20 113.09,217.19 113.30,218.51 113.57,219.93 113.71,220.61 113.94,221.59 114.18,222.46 114.39,223.17 114.59,223.75 115.09,225.00 115.60,226.01 116.03,226.68 116.21,226.92 117.03,227.81 117.44,228.16 118.41,228.80 118.60,228.92 118.78,229.01 119.00,229.13 119.89,229.57 120.39,229.78 120.50,229.82 120.69,229.90 120.96,229.99 121.51,230.17 121.99,230.31 122.44,230.41 122.80,230.48 123.16,230.55 123.40,230.59 123.64,230.63 123.90,230.67 124.10,230.70 124.32,230.73 124.57,230.76 124.78,230.78 124.85,230.79 125.15,230.82 125.39,230.84 125.67,230.86 125.92,230.88 126.17,230.90 126.40,230.92 126.69,230.93 126.85,230.94 126.99,230.95 127.21,230.96 127.42,230.97 127.74,230.99 128.03,231.00 128.42,231.02 128.78,231.03 129.10,231.04 129.37,231.05 129.63,231.06 129.83,231.07 130.06,231.07 130.40,231.08 130.53,231.08 130.87,231.09 131.08,231.10 131.33,231.10 131.54,231.10 131.78,231.11 132.01,231.11 132.33,231.12 132.58,231.12 132.85,231.12 133.20,231.13 133.44,231.13 133.85,231.14 134.15,231.14 134.35,231.14 134.60,231.14 134.79,231.15 135.35,231.15 136.01,231.16 136.27,231.16 136.76,231.16 137.31,231.16 138.01,231.17 138.63,231.17 139.51,231.17 140.26,231.18 140.83,231.18 141.90,231.18 143.11,231.19 144.86,231.19 146.38,231.19 148.00,231.20 149.64,231.20 150.86,231.20 152.89,231.20 154.54,231.20 156.16,231.20 157.78,231.20 159.43,231.21 161.05,231.21 163.09,231.21 164.73,231.21 166.35,231.21 167.98,231.21 169.62,231.21 171.65,231.21 173.28,231.21 174.90,231.21 176.54,231.21 178.17,231.21 179.79,231.21 181.85,231.21 183.47,231.21 185.09,231.21 186.74,231.21 188.36,231.21 189.99,231.21 192.04,231.21 193.66,231.21 195.29,231.21 196.93,231.21 198.55,231.21 200.59,231.21 202.21,231.21 203.86,231.21 205.48,231.21 207.10,231.21 208.75,231.21 210.78,231.21 212.41,231.21 213.21,231.22"/>
<line x1="78" y1="266.85" x2="772" y2="266.85" stroke="#2ca02c" opacity="0.18" stroke-dasharray="3 4"/>
<polyline fill="none" stroke="#2ca02c" stroke-width="2.0" points="91.35,266.85 98.00,266.85 98.16,266.84 98.43,266.81 98.61,266.79 98.77,266.77 98.93,266.74 99.04,266.72 99.15,266.71 99.24,266.69 99.34,266.68 99.41,266.67 99.49,266.67 99.58,266.66 99.66,266.66 99.79,266.66 99.90,266.67 100.02,266.69 100.15,266.73 100.29,266.79 100.45,266.88 100.57,266.96 100.75,267.10 100.91,267.24 101.00,267.32 101.09,267.40 101.18,267.48 101.25,267.55 101.32,267.61 101.40,267.68 101.47,267.74 101.56,267.81 101.63,267.87 101.70,267.92 101.77,267.98 101.84,268.02 101.95,268.09 102.09,268.14 102.20,268.13 102.27,268.10 102.34,268.04 102.41,267.97 102.50,267.78 102.63,267.46 102.77,266.94 102.90,266.33 103.06,265.29 103.18,264.32 103.31,263.19 103.43,261.89 103.54,260.64 103.64,259.27 103.72,258.31 103.84,256.46 103.97,254.44 104.11,251.87 104.27,248.68 104.38,246.32 104.52,242.92 104.61,240.61 104.73,237.15 104.84,234.01 104.98,229.57 105.07,226.68 105.23,221.31 105.32,218.28 105.45,214.00 105.59,209.13 105.70,205.50 105.84,200.74 106.04,194.37 106.20,189.39 106.39,183.56 106.55,178.99 106.68,175.57 106.79,172.76 106.93,169.17 107.04,166.60 107.13,164.54 107.23,162.16 107.34,159.90 107.43,158.09 107.54,156.01 107.63,154.36 107.75,152.18 107.86,150.41 108.04,147.69 108.32,143.90 108.39,143.05 108.57,141.07 108.71,139.61 108.87,138.12 109.14,135.95 109.27,135.07 109.41,134.14 109.50,133.59 109.64,132.79 109.77,132.14 109.95,131.29 110.18,130.31 110.43,129.38 110.59,128.85 110.84,128.12 111.39,126.83 111.61,126.43 111.91,125.95 112.34,125.39 113.66,124.33 113.82,124.25 115.89,123.66 116.68,123.46 117.09,123.35 117.91,123.18 118.23,123.12 118.94,123.01 119.44,122.95 119.66,122.93 119.83,122.91 119.91,122.91 120.10,122.89 120.33,122.87 120.58,122.85 120.80,122.84 120.98,122.83 121.16,122.81 121.42,122.80 121.69,122.79 121.92,122.79 122.24,122.78 122.57,122.77 122.76,122.76 123.07,122.75 123.35,122.75 123.53,122.74 123.80,122.74 124.14,122.73 124.42,122.73 124.82,122.72 125.01,122.72 125.15,122.72 125.56,122.71 125.80,122.71 126.08,122.71 126.31,122.70 126.55,122.70 126.71,122.70 126.87,122.70 127.06,122.70 127.49,122.69 127.72,122.69 128.06,122.69 128.26,122.68 128.62,122.68 129.17,122.68 129.51,122.68 130.15,122.67 130.94,122.67 131.63,122.66 132.60,122.66 133.24,122.65 133.92,122.65 135.86,122.64 140.45,122.61 146.63,122.59 151.36,122.56 152.64,122.56 157.11,122.54 158.98,122.53 165.00,122.51 169.46,122.49 178.38,122.46 187.31,122.43 194.02,122.41 200.71,122.40 208.37,122.38 216.33,122.36 225.26,122.33 234.18,122.31 242.18,122.30 249.69,122.28 256.50,122.27 265.44,122.25 272.13,122.24 281.06,122.23 289.98,122.21 298.84,122.20 302.08,122.20 310.06,122.18 316.76,122.17 323.45,122.17 332.39,122.15 341.32,122.14 352.48,122.13 359.49,122.12 368.09,122.11 377.02,122.10 383.71,122.10 390.41,122.09 401.58,122.08 409.20,122.07 417.20,122.07 421.66,122.06 430.59,122.06 441.74,122.05 450.67,122.04 459.61,122.03 468.54,122.03 477.46,122.02 484.16,122.02 495.31,122.01 504.24,122.01 513.16,122.00 522.09,122.00 531.03,121.99 542.19,121.99 551.11,121.98 560.04,121.98 568.96,121.98 577.89,121.97 586.81,121.97 595.75,121.96 604.68,121.96 613.60,121.96 622.53,121.95 631.45,121.95 638.15,121.95 649.30,121.95 658.23,121.94 665.69,121.94 673.44,121.94 680.56,121.94 691.72,121.93 700.64,121.93 709.57,121.93 718.49,121.93 727.43,121.93 735.98,121.92 745.28,121.92 754.21,121.92 758.65,121.91"/>
<line x1="78" y1="266.85" x2="772" y2="266.85" stroke="#9467bd" opacity="0.18" stroke-dasharray="3 4"/>
<polyline fill="none" stroke="#9467bd" stroke-width="2.0" points="91.35,121.86 92.40,121.86 93.45,121.86 94.77,121.86 94.99,121.86 95.27,121.86 95.56,121.86 95.67,121.86 95.84,121.86 96.09,121.86 96.20,121.86 96.49,121.86 96.59,121.86 96.67,121.86 96.88,121.86 97.20,121.86 97.40,121.86 97.47,121.86 97.54,121.86 97.67,121.86 97.77,121.86 97.91,121.86 97.99,121.87 98.08,121.87 98.15,121.87 98.22,121.87 98.33,121.87 98.40,121.88 98.50,121.88 98.63,121.89 98.72,121.89 98.84,121.89 98.93,121.90 99.00,121.90 99.08,121.90 99.18,121.90 99.25,121.91 99.40,121.91 99.49,121.91 99.56,121.91 99.66,121.90 99.75,121.90 99.86,121.89 99.99,121.87 100.06,121.86 100.15,121.85 100.22,121.83 100.34,121.80 100.47,121.77 100.56,121.74 100.66,121.70 100.75,121.67 100.82,121.64 100.93,121.59 101.00,121.56 101.09,121.52 101.16,121.49 101.25,121.45 101.32,121.41 101.41,121.38 101.49,121.35 101.57,121.32 101.65,121.30 101.72,121.29 101.82,121.29 101.95,121.30 102.06,121.34 102.16,121.41 102.23,121.46 102.31,121.54 102.40,121.65 102.48,121.79 102.57,121.96 102.70,122.26 102.82,122.63 102.93,123.00 103.02,123.34 103.11,123.73 103.18,124.07 103.27,124.54 103.34,124.95 103.45,125.61 103.54,126.21 103.61,126.74 103.68,127.30 103.75,127.88 103.82,128.51 103.95,129.70 104.02,130.44 104.09,131.21 104.18,132.24 104.27,133.35 104.41,135.26 104.54,137.07 104.72,139.93 104.81,141.47 104.91,143.43 105.02,145.54 105.18,148.91 105.30,151.73 105.41,154.30 105.52,156.99 105.61,159.34 105.80,164.76 106.00,170.62 106.14,175.09 106.27,179.15 106.41,183.97 106.57,189.55 106.77,196.59 106.91,201.84 107.02,205.81 107.18,211.80 107.34,217.76 107.52,224.25 107.66,229.16 107.84,235.00 107.98,239.27 108.14,243.66 108.29,247.15 108.50,251.55 108.64,254.05 108.79,256.16 108.93,257.91 109.05,259.20 109.23,260.68 109.37,261.62 109.55,262.54 109.70,263.13 109.98,263.98 110.20,264.43 110.61,264.99 111.12,265.40 111.98,265.79 112.09,265.83 112.20,265.87 112.36,265.93 112.80,266.08 112.94,266.12 113.02,266.15 113.11,266.17 113.28,266.22 113.59,266.30 113.69,266.32 113.87,266.36 114.03,266.39 114.19,266.42 114.32,266.44 114.50,266.47 114.69,266.50 114.80,266.51 114.89,266.52 115.03,266.54 115.23,266.57 115.41,266.59 115.62,266.61 116.12,266.64 116.41,266.66 116.68,266.68 116.94,266.69 117.25,266.70 117.50,266.71 117.75,266.72 117.98,266.73 118.30,266.74 118.59,266.74 118.87,266.75 119.23,266.76 119.57,266.76 119.82,266.77 120.10,266.77 120.37,266.78 120.62,266.78 120.89,266.78 121.16,266.78 121.42,266.79 121.73,266.79 121.98,266.79 122.21,266.79 122.58,266.80 122.92,266.80 123.26,266.80 123.37,266.80 123.55,266.80 123.73,266.80 123.87,266.80 124.10,266.81 124.33,266.81 124.57,266.81 124.82,266.81 125.05,266.81 125.26,266.81 125.51,266.81 125.85,266.81 126.08,266.81 126.26,266.81 126.42,266.82 126.73,266.82 127.08,266.82 127.35,266.82 128.01,266.82 129.06,266.82 129.87,266.82 131.19,266.83 132.24,266.83 133.29,266.83 134.35,266.83 135.40,266.83 136.45,266.83 137.77,266.83 138.83,266.83 139.88,266.84 140.95,266.84 142.00,266.84 143.33,266.84 144.38,266.84 145.43,266.84 146.49,266.84 147.54,266.84 148.59,266.84 149.91,266.84 150.97,266.84 152.02,266.84 153.07,266.84 154.12,266.84 155.20,266.84 156.50,266.84 157.57,266.84 158.62,266.84 159.68,266.84 160.73,266.84 162.05,266.84 163.10,266.84 164.16,266.84 165.21,266.84 166.26,266.84 167.32,266.85 168.64,266.85 169.69,266.85 170.21,266.85"/>
<line x1="88" y1="72" x2="110" y2="72" stroke="#1f77b4" stroke-width="2.4"/>
<text x="116" y="76" font-family="Arial, sans-serif" font-size="12">rising #1</text>
<line x1="88" y1="90" x2="110" y2="90" stroke="#d62728" stroke-width="2.4"/>
<text x="116" y="94" font-family="Arial, sans-serif" font-size="12">falling #2</text>
<line x1="88" y1="108" x2="110" y2="108" stroke="#2ca02c" stroke-width="2.4"/>
<text x="116" y="112" font-family="Arial, sans-serif" font-size="12">rising #3</text>
<line x1="88" y1="126" x2="110" y2="126" stroke="#9467bd" stroke-width="2.4"/>
<text x="116" y="130" font-family="Arial, sans-serif" font-size="12">falling #4</text>
<text x="425.00" y="322.00" text-anchor="middle" font-family="Arial, sans-serif" font-size="12">Time (s)</text>
<text x="420" y="42" font-family="Arial, sans-serif" font-size="11" fill="#555">solid=V-T voltage, faint horizontal=V_fixture</text>
</svg>