<svg xmlns="http://www.w3.org/2000/svg" width="800" height="450" viewBox="0 0 800 450">
<rect width="100%" height="100%" fill="#ffffff"/>
<text x="78" y="25" font-family="Arial, sans-serif" font-size="16" font-weight="700">E34_GPIO_I2CSCLIN_1V1_01 V-T Waveforms</text>
<rect x="78" y="54" width="694" height="230" fill="#fbfbfb" stroke="#c8c8c8"/>
<text transform="translate(18 169.00) rotate(-90)" text-anchor="middle" font-family="Arial, sans-serif" font-size="12">Voltage (V)</text>
<line x1="78.00" y1="54" x2="78.00" y2="284" stroke="#ececec"/>
<text x="78.00" y="302" text-anchor="middle" font-family="Arial, sans-serif" font-size="10">-576p</text>
<line x1="216.80" y1="54" x2="216.80" y2="284" stroke="#ececec"/>
<text x="216.80" y="302" text-anchor="middle" font-family="Arial, sans-serif" font-size="10">5.41n</text>
<line x1="355.60" y1="54" x2="355.60" y2="284" stroke="#ececec"/>
<text x="355.60" y="302" text-anchor="middle" font-family="Arial, sans-serif" font-size="10">11.4n</text>
<line x1="494.40" y1="54" x2="494.40" y2="284" stroke="#ececec"/>
<text x="494.40" y="302" text-anchor="middle" font-family="Arial, sans-serif" font-size="10">17.4n</text>
<line x1="633.20" y1="54" x2="633.20" y2="284" stroke="#ececec"/>
<text x="633.20" y="302" text-anchor="middle" font-family="Arial, sans-serif" font-size="10">23.4n</text>
<line x1="772.00" y1="54" x2="772.00" y2="284" stroke="#ececec"/>
<text x="772.00" y="302" text-anchor="middle" font-family="Arial, sans-serif" font-size="10">29.4n</text>
<line x1="78" y1="284.00" x2="772" y2="284.00" stroke="#ececec"/>
<text x="70" y="288.00" text-anchor="end" font-family="Arial, sans-serif" font-size="10">-0.0917</text>
<line x1="78" y1="226.50" x2="772" y2="226.50" stroke="#ececec"/>
<text x="70" y="230.50" text-anchor="end" font-family="Arial, sans-serif" font-size="10">0.229</text>
<line x1="78" y1="169.00" x2="772" y2="169.00" stroke="#ececec"/>
<text x="70" y="173.00" text-anchor="end" font-family="Arial, sans-serif" font-size="10">0.55</text>
<line x1="78" y1="111.50" x2="772" y2="111.50" stroke="#ececec"/>
<text x="70" y="115.50" text-anchor="end" font-family="Arial, sans-serif" font-size="10">0.871</text>
<line x1="78" y1="54.00" x2="772" y2="54.00" stroke="#ececec"/>
<text x="70" y="58.00" text-anchor="end" font-family="Arial, sans-serif" font-size="10">1.2</text>
<line x1="78" y1="70.48" x2="772" y2="70.48" stroke="#1f77b4" opacity="0.18" stroke-dasharray="3 4"/>
<polyline fill="none" stroke="#1f77b4" stroke-width="2.0" points="91.35,104.27 95.38,104.27 99.39,104.27 104.42,104.27 108.46,104.26 112.47,104.26 116.04,104.26 116.44,104.26 116.88,104.27 117.64,104.27 117.83,104.27 118.11,104.27 118.29,104.27 118.55,104.27 118.76,104.27 118.99,104.27 119.17,104.27 119.40,104.27 119.68,104.27 119.85,104.27 120.10,104.27 120.29,104.27 120.52,104.27 120.73,104.27 120.98,104.27 121.19,104.27 121.47,104.27 121.68,104.27 121.79,104.27 121.98,104.27 122.16,104.27 122.47,104.27 122.65,104.27 122.86,104.27 123.07,104.27 123.35,104.27 123.60,104.27 123.88,104.27 124.07,104.27 124.32,104.27 124.69,104.27 125.04,104.27 125.50,104.27 125.83,104.27 126.45,104.27 126.57,104.27 127.17,104.26 127.64,104.26 128.17,104.25 128.56,104.24 129.96,104.21 130.47,104.19 131.02,104.16 131.56,104.13 132.48,104.06 133.43,104.04 134.11,104.13 134.64,104.31 135.36,104.75 136.63,105.84 137.21,106.17 137.52,106.17 137.82,106.00 138.21,105.47 138.65,104.41 138.93,103.51 139.21,102.45 139.42,101.53 139.65,100.48 139.88,99.36 140.14,98.06 140.41,96.58 140.65,95.32 140.88,94.05 141.13,92.66 141.41,91.16 141.76,89.35 141.97,88.31 142.20,87.19 142.48,85.93 142.73,84.85 143.01,83.73 143.31,82.62 143.47,82.04 143.73,81.17 144.10,79.99 144.43,79.03 144.91,77.72 145.26,76.90 145.68,76.03 146.12,75.24 146.49,74.69 147.16,73.86 147.79,73.26 148.58,72.68 149.11,72.38 149.64,72.12 150.18,71.91 150.73,71.73 151.13,71.61 151.59,71.50 151.75,71.46 152.43,71.33 152.61,71.30 152.80,71.28 152.98,71.25 153.26,71.22 153.45,71.20 153.56,71.18 153.82,71.15 154.19,71.11 154.56,71.08 154.81,71.06 154.95,71.04 155.30,71.02 155.56,71.00 155.97,70.99 156.53,70.96 156.88,70.95 157.09,70.94 157.48,70.92 157.76,70.91 158.27,70.89 158.62,70.88 159.10,70.87 159.68,70.85 159.99,70.85 160.77,70.83 161.24,70.83 161.77,70.82 162.19,70.82 163.00,70.80 163.49,70.80 163.90,70.80 165.25,70.78 166.27,70.78 168.22,70.77 169.86,70.76 171.65,70.74 172.28,70.74 172.90,70.73 173.25,70.73 173.90,70.72 174.50,70.72 175.24,70.71 176.08,70.71 177.28,70.70 178.28,70.69 179.00,70.69 179.39,70.69 179.84,70.69 180.14,70.69 180.51,70.69 180.95,70.69 181.37,70.70 181.76,70.70 182.06,70.70 182.46,70.70 182.87,70.70 183.15,70.70 183.57,70.71 183.92,70.71 184.31,70.71 184.77,70.71 185.24,70.72 185.70,70.72 186.05,70.72 186.51,70.73 186.79,70.73 187.12,70.73 187.95,70.73 188.41,70.74 189.13,70.74 189.95,70.75 190.27,70.75 191.13,70.75 192.19,70.75 193.96,70.75 194.98,70.75 196.58,70.74 197.74,70.73 199.85,70.72 200.64,70.71 201.03,70.71 202.03,70.70 204.04,70.69 206.04,70.67 208.96,70.65 210.28,70.64 211.72,70.63 214.11,70.62 218.12,70.60 222.15,70.59 224.24,70.58 225.26,70.57 227.19,70.57 229.18,70.56 231.20,70.56 234.38,70.55 238.25,70.54 240.85,70.53 243.28,70.53 246.29,70.52 250.33,70.52 253.34,70.51 257.38,70.51 260.39,70.51 263.41,70.50 267.42,70.50 272.45,70.50 276.49,70.50 280.52,70.49 284.53,70.49 288.57,70.49 293.60,70.49 297.61,70.49 301.65,70.49 305.66,70.49 308.84,70.49 312.71,70.49 317.74,70.49 321.77,70.49 325.79,70.49 329.82,70.49 333.83,70.49 337.87,70.49 340.88,70.49 344.92,70.49 348.93,70.49 352.96,70.49 356.98,70.49 361.01,70.48 365.02,70.48 369.06,70.48 373.09,70.48 377.10,70.48 381.14,70.48 386.17,70.48 390.18,70.48 392.18,70.48"/>
<line x1="78" y1="70.48" x2="772" y2="70.48" stroke="#d62728" opacity="0.18" stroke-dasharray="3 4"/>
<polyline fill="none" stroke="#d62728" stroke-width="2.0" points="91.35,70.48 100.27,70.48 106.98,70.48 115.90,70.49 120.98,70.48 121.40,70.48 122.30,70.48 123.11,70.48 124.34,70.48 125.43,70.48 125.69,70.48 125.78,70.48 127.87,70.48 128.70,70.48 130.74,70.48 132.53,70.48 135.98,70.48 138.26,70.48 139.37,70.48 139.58,70.48 140.18,70.48 140.51,70.48 141.90,70.48 143.41,70.52 144.01,70.54 144.40,70.55 145.65,70.58 146.47,70.54 147.14,70.45 147.58,70.37 147.72,70.34 148.44,70.20 149.36,70.04 149.60,70.01 149.76,69.99 149.85,69.98 150.01,69.96 150.22,69.94 150.64,69.91 151.73,69.87 152.77,69.86 153.84,69.89 155.00,69.94 155.30,69.95 155.70,69.96 156.07,69.97 156.62,69.97 157.48,69.98 158.90,69.98 159.24,69.98 159.57,69.98 160.15,69.97 160.68,69.97 161.14,69.96 161.77,69.95 162.12,69.94 162.54,69.94 163.14,69.92 163.46,69.92 164.07,69.91 164.86,69.91 165.25,69.91 166.57,69.91 167.85,69.92 169.26,69.93 170.26,69.95 171.23,69.97 172.04,69.99 173.37,70.03 174.73,70.07 176.15,70.12 177.93,70.18 178.63,70.21 179.95,70.27 180.62,70.30 181.71,70.36 184.01,70.51 184.52,70.55 185.19,70.60 185.31,70.61 185.45,70.63 185.61,70.65 185.75,70.66 185.89,70.68 186.03,70.69 186.17,70.71 186.30,70.72 186.47,70.74 186.61,70.76 186.75,70.77 186.88,70.79 187.02,70.80 187.19,70.82 187.33,70.84 187.46,70.85 187.60,70.87 187.74,70.88 187.88,70.90 188.30,70.95 189.50,71.13 189.88,71.18 190.55,71.30 190.83,71.35 191.75,71.51 192.13,71.58 193.01,71.77 193.75,71.92 195.21,72.27 195.91,72.44 196.88,72.71 197.74,72.95 199.45,73.51 199.85,73.64 200.13,73.74 201.66,74.33 202.17,74.55 202.93,74.90 203.49,75.14 204.14,75.45 204.62,75.69 205.18,75.97 205.60,76.18 205.81,76.29 206.04,76.40 207.41,77.13 209.63,78.36 210.42,78.81 210.93,79.10 211.23,79.27 211.70,79.53 212.23,79.84 212.74,80.13 213.32,80.46 213.81,80.74 214.02,80.86 215.24,81.55 215.87,81.90 216.96,82.51 217.89,83.03 218.91,83.59 220.25,84.31 221.64,85.05 223.01,85.77 224.52,86.50 225.49,86.97 226.19,87.30 227.49,87.92 228.58,88.44 231.76,89.81 233.38,90.50 236.42,91.69 238.64,92.52 240.89,93.31 244.97,94.64 247.57,95.37 249.82,96.00 252.60,96.70 256.50,97.61 258.79,98.07 263.20,98.91 266.35,99.45 269.90,99.91 274.35,100.47 277.23,100.82 281.05,101.19 284.53,101.51 287.76,101.79 289.98,101.91 293.48,102.10 295.97,102.24 299.49,102.43 301.74,102.55 305.06,102.74 307.84,102.85 310.06,102.93 312.73,103.03 316.77,103.17 318.99,103.25 321.75,103.33 325.32,103.40 327.92,103.44 332.40,103.53 335.15,103.58 338.22,103.63 341.32,103.69 345.43,103.77 348.51,103.80 353.29,103.84 356.93,103.88 361.40,103.92 364.28,103.95 368.50,103.99 374.78,104.02 379.26,104.04 383.71,104.06 388.67,104.08 394.89,104.11 399.34,104.13 406.60,104.15 412.74,104.16 419.42,104.17 426.12,104.18 432.83,104.19 441.75,104.21 448.46,104.22 457.11,104.22 464.06,104.23 470.76,104.23 479.69,104.23 488.62,104.24 497.55,104.24 506.47,104.24 513.18,104.25 522.10,104.25 533.26,104.25 542.19,104.25 551.11,104.25 560.04,104.26 566.74,104.26 575.67,104.26 586.82,104.26 595.75,104.26 604.68,104.26 613.61,104.26 622.53,104.26 631.46,104.26 642.62,104.26 651.54,104.26 660.47,104.26 669.40,104.26 678.33,104.26 689.48,104.26 698.41,104.26 707.34,104.26 716.26,104.26 725.19,104.26 734.12,104.26 745.30,104.26 754.22,104.26 758.65,104.27"/>
<line x1="78" y1="267.56" x2="772" y2="267.56" stroke="#2ca02c" opacity="0.18" stroke-dasharray="3 4"/>
<polyline fill="none" stroke="#2ca02c" stroke-width="2.0" points="91.35,267.56 99.46,267.56 107.58,267.56 114.98,267.56 115.28,267.56 115.67,267.56 116.60,267.56 116.85,267.56 117.16,267.56 117.34,267.56 117.50,267.56 117.74,267.56 117.90,267.56 118.11,267.56 118.83,267.56 119.01,267.56 119.36,267.56 119.73,267.56 119.94,267.56 120.24,267.56 120.59,267.56 120.89,267.56 121.07,267.56 121.38,267.56 121.75,267.56 122.05,267.56 122.74,267.56 123.14,267.56 123.49,267.56 123.86,267.56 124.58,267.56 126.22,267.56 127.89,267.56 129.93,267.56 131.95,267.57 135.31,267.51 136.01,267.51 136.61,267.53 136.91,267.54 137.24,267.58 137.54,267.62 137.84,267.66 138.67,267.80 138.91,267.83 139.35,267.89 139.79,267.95 140.16,267.99 140.48,268.02 140.95,268.06 141.20,268.08 141.55,268.10 141.87,268.11 142.18,268.12 142.83,268.13 143.22,268.12 143.82,268.10 144.43,268.09 144.75,268.08 145.07,268.09 145.56,268.11 146.07,268.13 146.35,268.14 146.56,268.14 147.07,268.14 147.79,268.11 148.18,268.10 148.67,268.07 149.85,268.00 150.22,267.98 151.01,267.93 151.96,267.89 152.26,267.87 153.14,267.84 154.10,267.82 154.72,267.80 155.32,267.79 156.30,267.77 157.23,267.76 158.34,267.75 159.06,267.75 159.96,267.74 161.42,267.73 162.23,267.73 163.46,267.72 164.55,267.72 165.67,267.72 167.10,267.71 168.50,267.70 170.51,267.69 172.46,267.67 173.92,267.66 175.38,267.65 176.19,267.64 177.10,267.63 178.07,267.62 179.28,267.60 179.93,267.58 180.67,267.56 181.99,267.49 182.22,267.47 183.38,267.37 184.73,267.20 185.49,267.08 186.75,266.83 187.86,266.56 189.02,266.22 190.25,265.81 191.10,265.49 191.52,265.33 192.84,264.79 194.07,264.26 194.88,263.88 195.74,263.48 196.95,262.89 198.92,261.84 199.50,261.51 200.66,260.84 201.40,260.41 202.72,259.61 203.21,259.32 204.48,258.52 205.69,257.77 207.06,256.91 208.20,256.20 209.35,255.50 211.12,254.43 212.39,253.67 213.76,252.88 214.94,252.20 216.17,251.55 218.05,250.55 220.00,249.56 221.55,248.83 223.29,248.00 224.24,247.57 225.91,246.91 228.44,245.91 230.11,245.25 231.41,244.79 234.05,243.92 236.56,243.09 238.39,242.59 240.96,241.90 242.58,241.46 245.62,240.79 248.57,240.14 251.56,239.60 254.57,239.07 256.31,238.82 259.42,238.38 260.60,238.21 261.88,238.09 263.89,237.90 267.95,237.52 270.46,237.28 272.01,237.14 273.84,237.00 276.25,236.84 278.94,236.67 281.59,236.49 283.44,236.39 284.74,236.35 287.25,236.26 288.41,236.22 290.84,236.14 294.02,236.03 296.20,235.96 297.24,235.92 300.32,235.81 302.37,235.74 304.50,235.69 307.35,235.64 309.37,235.59 311.39,235.55 314.47,235.49 316.35,235.45 318.71,235.41 320.96,235.39 324.28,235.36 325.48,235.35 328.85,235.32 331.54,235.29 332.91,235.28 336.99,235.24 339.86,235.22 343.06,235.19 345.10,235.17 349.09,235.15 352.34,235.14 354.29,235.13 358.34,235.12 362.40,235.10 365.76,235.09 369.45,235.07 374.44,235.06 379.45,235.04 381.63,235.04 386.47,235.03 393.17,235.03 397.74,235.02 402.22,235.01 406.88,235.01 412.10,235.00 418.50,234.99 422.23,234.99 428.33,234.99 436.44,234.99 442.54,234.98 448.02,234.98 456.76,234.98 462.83,234.98 470.95,234.97 477.05,234.97 485.16,234.97 493.28,234.97 501.40,234.97 509.54,234.97 517.65,234.97 525.63,234.97 531.87,234.97 542.00,234.97 550.12,234.97 558.26,234.96 566.37,234.96 574.49,234.96 582.60,234.96 592.76,234.96 600.88,234.96 608.99,234.96 617.11,234.96 625.22,234.96 635.38,234.96 643.50,234.96 651.64,234.96 659.75,234.96 667.87,234.96 675.99,234.96 686.14,234.96 694.26,234.96 698.29,234.96"/>
<line x1="78" y1="267.56" x2="772" y2="267.56" stroke="#9467bd" opacity="0.18" stroke-dasharray="3 4"/>
<polyline fill="none" stroke="#9467bd" stroke-width="2.0" points="91.35,234.96 94.82,234.96 98.33,234.96 102.69,234.96 106.19,234.96 109.67,234.96 113.17,234.96 116.65,234.95 119.27,234.94 119.78,234.94 120.03,234.94 120.22,234.94 120.45,234.94 120.63,234.94 120.89,234.94 121.05,234.94 121.21,234.94 121.35,234.95 121.51,234.95 121.65,234.95 121.89,234.95 122.05,234.95 122.23,234.95 122.42,234.95 122.60,234.95 122.81,234.95 123.09,234.95 123.25,234.95 123.42,234.95 123.58,234.95 123.76,234.95 124.11,234.95 124.44,234.95 124.65,234.95 124.92,234.96 125.20,234.96 125.39,234.96 125.74,234.96 126.01,234.96 126.25,234.96 126.45,234.96 126.78,234.96 127.08,234.96 127.38,234.96 127.59,234.96 127.87,234.96 128.05,234.96 128.33,234.96 128.70,234.96 128.91,234.96 129.24,234.96 129.56,234.96 129.79,234.96 130.19,234.96 130.44,234.96 130.67,234.96 130.95,234.96 131.28,234.96 131.79,234.96 132.25,234.96 132.60,234.96 133.04,234.96 133.48,234.96 133.97,234.96 134.80,234.97 135.50,234.98 136.24,234.99 136.94,235.00 137.75,235.01 138.79,235.02 140.21,235.05 141.06,235.07 141.67,235.08 142.18,235.08 142.52,235.07 142.78,235.05 143.22,235.01 143.52,234.96 143.71,234.93 144.03,234.85 144.36,234.75 144.63,234.65 144.91,234.54 145.17,234.42 145.42,234.29 145.70,234.13 146.28,233.79 146.56,233.65 146.88,233.52 147.19,233.47 147.42,233.48 147.79,233.63 148.11,233.87 148.41,234.20 148.62,234.50 148.88,234.91 149.23,235.58 149.48,236.14 149.81,236.95 150.13,237.81 150.45,238.72 150.76,239.62 151.08,240.60 151.52,241.97 151.75,242.69 152.08,243.70 152.43,244.78 152.63,245.42 152.94,246.33 153.42,247.77 153.79,248.82 154.12,249.71 154.56,250.83 154.84,251.53 155.28,252.59 155.67,253.49 156.04,254.28 156.53,255.29 156.79,255.79 157.25,256.67 157.81,257.66 158.43,258.69 158.90,259.39 159.36,260.05 159.82,260.65 160.26,261.18 161.21,262.18 161.75,262.67 162.26,263.09 162.91,263.58 163.77,264.15 164.92,264.83 165.74,265.23 166.57,265.60 168.12,266.14 169.38,266.46 170.95,266.72 173.34,266.97 175.10,267.09 176.47,267.16 178.19,267.22 179.86,267.27 182.39,267.32 183.31,267.34 184.17,267.35 184.70,267.36 185.33,267.37 185.91,267.37 186.54,267.38 187.30,267.39 187.77,267.39 188.62,267.40 189.55,267.40 190.55,267.41 191.08,267.41 191.66,267.42 192.24,267.42 192.84,267.43 193.24,267.43 193.84,267.43 194.35,267.43 194.68,267.43 195.02,267.43 195.30,267.44 196.00,267.44 196.48,267.44 196.90,267.44 197.53,267.44 198.06,267.45 198.66,267.45 199.24,267.45 199.78,267.45 200.31,267.45 200.68,267.45 201.42,267.45 202.05,267.45 202.70,267.45 203.16,267.46 204.14,267.46 204.65,267.46 205.18,267.46 205.90,267.46 206.66,267.46 207.29,267.46 207.96,267.46 208.50,267.46 209.31,267.47 210.14,267.47 210.91,267.47 211.70,267.47 212.51,267.48 213.37,267.48 214.43,267.48 215.64,267.49 216.40,267.49 217.24,267.49 218.35,267.49 219.49,267.50 221.34,267.50 223.08,267.50 224.08,267.51 225.70,267.51 227.44,267.51 229.18,267.52 231.76,267.52 234.31,267.52 236.16,267.52 238.78,267.53 240.52,267.53 244.88,267.53 248.38,267.54 251.86,267.54 255.36,267.54 258.84,267.54 263.22,267.54 266.70,267.55 270.20,267.55 273.68,267.55 277.18,267.55 280.66,267.55 285.02,267.55 288.52,267.55 292.00,267.55 295.50,267.55 298.98,267.55 302.48,267.55 306.84,267.55 310.32,267.55 313.82,267.56 317.30,267.56 320.80,267.56 325.16,267.56 328.64,267.56 332.14,267.56 335.62,267.56 339.12,267.56 342.60,267.56 346.96,267.56 350.46,267.56 352.18,267.56"/>
<line x1="88" y1="72" x2="110" y2="72" stroke="#1f77b4" stroke-width="2.4"/>
<text x="116" y="76" font-family="Arial, sans-serif" font-size="12">rising #1</text>
<line x1="88" y1="90" x2="110" y2="90" stroke="#d62728" stroke-width="2.4"/>
<text x="116" y="94" font-family="Arial, sans-serif" font-size="12">falling #2</text>
<line x1="88" y1="108" x2="110" y2="108" stroke="#2ca02c" stroke-width="2.4"/>
<text x="116" y="112" font-family="Arial, sans-serif" font-size="12">rising #3</text>
<line x1="88" y1="126" x2="110" y2="126" stroke="#9467bd" stroke-width="2.4"/>
<text x="116" y="130" font-family="Arial, sans-serif" font-size="12">falling #4</text>
<rect x="78" y="342" width="694" height="44" fill="#fffdf7" stroke="#d8c6a1" rx="4"/>
<text x="88" y="359" font-family="Arial, sans-serif" font-size="11" font-weight="700" fill="#4b3b21">Findings needing attention</text>
<rect x="88" y="366" width="7" height="7" fill="#b54708"/>
<text x="102" y="373" font-family="Arial, sans-serif" font-size="11" fill="#333">WARN 5.5.4: Ramp dt versus V-T 20-80% evidence needs review | avg Ramp dt=1.953e-09s, avg V-T 20-80% span=1.124e-...</text>
<text x="425.00" y="322.00" text-anchor="middle" font-family="Arial, sans-serif" font-size="12">Time (s)</text>
<text x="420" y="42" font-family="Arial, sans-serif" font-size="11" fill="#555">solid=V-T voltage, faint horizontal=V_fixture</text>
</svg>