<svg xmlns="http://www.w3.org/2000/svg" width="800" height="450" viewBox="0 0 800 450">
<rect width="100%" height="100%" fill="#ffffff"/>
<text x="78" y="25" font-family="Arial, sans-serif" font-size="16" font-weight="700">E34_GPIO_I2CSCLIN_3V3_01_ISOSW V-T Waveforms</text>
<rect x="78" y="54" width="694" height="230" fill="#fbfbfb" stroke="#c8c8c8"/>
<text transform="translate(18 169.00) rotate(-90)" text-anchor="middle" font-family="Arial, sans-serif" font-size="12">Voltage (V)</text>
<line x1="78.00" y1="54" x2="78.00" y2="284" stroke="#ececec"/>
<text x="78.00" y="302" text-anchor="middle" font-family="Arial, sans-serif" font-size="10">-113p</text>
<line x1="216.80" y1="54" x2="216.80" y2="284" stroke="#ececec"/>
<text x="216.80" y="302" text-anchor="middle" font-family="Arial, sans-serif" font-size="10">1.06n</text>
<line x1="355.60" y1="54" x2="355.60" y2="284" stroke="#ececec"/>
<text x="355.60" y="302" text-anchor="middle" font-family="Arial, sans-serif" font-size="10">2.23n</text>
<line x1="494.40" y1="54" x2="494.40" y2="284" stroke="#ececec"/>
<text x="494.40" y="302" text-anchor="middle" font-family="Arial, sans-serif" font-size="10">3.4n</text>
<line x1="633.20" y1="54" x2="633.20" y2="284" stroke="#ececec"/>
<text x="633.20" y="302" text-anchor="middle" font-family="Arial, sans-serif" font-size="10">4.57n</text>
<line x1="772.00" y1="54" x2="772.00" y2="284" stroke="#ececec"/>
<text x="772.00" y="302" text-anchor="middle" font-family="Arial, sans-serif" font-size="10">5.74n</text>
<line x1="78" y1="284.00" x2="772" y2="284.00" stroke="#ececec"/>
<text x="70" y="288.00" text-anchor="end" font-family="Arial, sans-serif" font-size="10">-0.315</text>
<line x1="78" y1="226.50" x2="772" y2="226.50" stroke="#ececec"/>
<text x="70" y="230.50" text-anchor="end" font-family="Arial, sans-serif" font-size="10">0.664</text>
<line x1="78" y1="169.00" x2="772" y2="169.00" stroke="#ececec"/>
<text x="70" y="173.00" text-anchor="end" font-family="Arial, sans-serif" font-size="10">1.6</text>
<line x1="78" y1="111.50" x2="772" y2="111.50" stroke="#ececec"/>
<text x="70" y="115.50" text-anchor="end" font-family="Arial, sans-serif" font-size="10">2.6</text>
<line x1="78" y1="54.00" x2="772" y2="54.00" stroke="#ececec"/>
<text x="70" y="58.00" text-anchor="end" font-family="Arial, sans-serif" font-size="10">3.6</text>
<line x1="78" y1="71.61" x2="772" y2="71.61" stroke="#1f77b4" opacity="0.18" stroke-dasharray="3 4"/>
<polyline fill="none" stroke="#1f77b4" stroke-width="2.0" points="91.35,161.09 98.58,161.09 105.69,161.09 114.70,161.09 121.93,161.09 129.16,161.09 136.27,161.09 143.50,161.09 150.73,161.09 159.62,161.09 166.85,161.09 174.08,161.09 181.19,161.09 188.42,161.09 197.43,161.09 203.35,161.09 204.54,161.09 205.37,161.09 206.79,161.09 207.86,161.09 209.52,161.09 210.23,161.09 210.82,161.09 211.41,161.09 211.89,161.09 212.36,161.09 212.95,161.09 213.43,161.09 213.90,161.09 214.38,161.09 214.85,161.09 215.44,161.09 216.04,161.09 216.51,161.09 217.34,161.09 217.93,161.09 218.41,161.09 219.12,161.09 219.83,161.09 220.42,161.09 221.01,161.09 221.73,161.09 222.67,161.09 223.50,161.09 224.33,161.09 224.81,161.09 225.64,161.09 226.47,161.09 227.77,161.09 228.60,161.09 229.67,161.09 230.62,161.09 231.21,161.09 232.63,161.08 233.58,161.08 234.53,161.08 235.48,161.08 236.19,161.08 237.25,161.08 238.79,161.08 239.98,161.08 241.28,161.08 242.35,161.08 243.42,161.08 245.19,161.09 246.26,161.11 248.04,161.19 249.11,161.26 250.88,161.40 252.42,161.50 253.49,161.52 254.20,161.48 255.03,161.36 255.62,161.23 256.22,161.03 256.81,160.76 257.64,160.24 258.35,159.64 258.94,159.03 259.54,158.32 260.01,157.66 260.84,156.30 261.43,155.18 261.91,154.19 262.62,152.57 263.33,150.78 263.92,149.18 264.51,147.51 265.46,144.68 266.41,141.73 267.24,139.08 268.07,136.39 268.66,134.47 269.37,132.17 269.97,130.26 270.56,128.38 272.10,123.61 273.05,120.78 274.11,117.68 274.83,115.68 275.89,112.77 276.96,109.95 278.14,106.92 278.97,104.87 280.16,102.07 281.35,99.42 282.17,97.68 283.00,96.00 283.72,94.63 284.90,92.49 285.38,91.69 286.56,89.78 288.34,87.27 289.05,86.35 292.01,83.20 292.96,82.39 294.03,81.52 295.81,80.29 297.35,79.36 298.41,78.81 300.90,77.68 302.92,76.98 303.87,76.68 305.88,76.11 307.66,75.67 309.08,75.36 312.52,74.75 314.06,74.52 314.89,74.40 316.43,74.20 317.26,74.10 318.09,74.01 319.98,73.81 321.76,73.64 324.37,73.43 324.96,73.38 326.86,73.24 332.19,72.92 335.87,72.75 341.91,72.51 348.43,72.33 352.70,72.24 355.66,72.18 359.22,72.12 361.00,72.10 363.84,72.06 366.45,72.03 372.85,71.96 375.69,71.94 379.84,71.91 382.57,71.89 389.80,71.85 396.91,71.82 405.92,71.79 413.15,71.77 416.70,71.76 418.13,71.76 419.55,71.76 420.38,71.76 421.68,71.75 422.87,71.75 424.05,71.75 424.76,71.75 426.19,71.74 427.37,71.74 428.79,71.74 429.74,71.74 430.81,71.74 431.52,71.74 432.47,71.73 433.77,71.73 434.84,71.73 435.90,71.73 437.09,71.73 438.28,71.73 439.34,71.73 440.53,71.72 441.59,71.72 442.42,71.72 443.37,71.72 444.08,71.72 445.51,71.72 446.93,71.72 448.23,71.71 449.18,71.71 450.72,71.71 452.26,71.71 454.16,71.71 455.34,71.71 456.05,71.71 457.12,71.71 458.78,71.70 459.85,71.70 461.03,71.70 463.52,71.70 465.54,71.70 468.03,71.70 470.16,71.70 472.41,71.69 473.83,71.69 475.26,71.69 478.69,71.69 480.83,71.69 483.32,71.69 485.69,71.68 486.63,71.68 488.65,71.68 489.72,71.68 493.98,71.68 499.67,71.68 502.99,71.68 505.84,71.67 507.49,71.67 509.27,71.67 510.58,71.67 513.78,71.67 519.23,71.67 524.68,71.67 530.96,71.66 535.35,71.66 536.65,71.66 539.02,71.66 540.80,71.66 545.07,71.66 547.91,71.66 551.35,71.66 555.14,71.66 562.02,71.66 563.68,71.65 565.93,71.65 569.48,71.65 576.71,71.65 580.27,71.65 587.50,71.65 594.73,71.65 601.84,71.65 609.07,71.65 618.08,71.64 625.31,71.64 628.75,71.62"/>
<line x1="78" y1="71.61" x2="772" y2="71.61" stroke="#d62728" opacity="0.18" stroke-dasharray="3 4"/>
<polyline fill="none" stroke="#d62728" stroke-width="2.0" points="91.35,71.61 100.00,71.61 108.65,71.61 119.44,71.61 128.09,71.61 136.74,71.61 145.28,71.61 153.93,71.61 162.58,71.61 173.37,71.62 182.02,71.61 189.37,71.61 192.45,71.62 194.23,71.62 195.29,71.62 196.72,71.62 198.97,71.62 201.46,71.62 202.88,71.62 203.59,71.62 205.01,71.62 206.79,71.61 207.86,71.61 208.93,71.61 209.40,71.61 209.87,71.61 210.82,71.61 211.65,71.61 212.60,71.61 213.78,71.61 214.26,71.61 215.44,71.61 216.63,71.61 218.05,71.61 219.59,71.61 220.42,71.61 221.84,71.61 223.62,71.61 224.45,71.62 225.04,71.62 226.23,71.62 227.30,71.63 228.48,71.63 229.19,71.64 230.02,71.64 231.09,71.65 231.68,71.66 232.87,71.67 234.17,71.69 235.36,71.70 236.07,71.71 236.78,71.72 237.85,71.73 238.79,71.73 240.10,71.71 240.81,71.70 241.52,71.67 242.47,71.63 243.06,71.60 244.01,71.52 244.72,71.45 245.31,71.38 246.02,71.28 246.85,71.15 247.80,70.98 248.63,70.82 249.46,70.66 250.05,70.54 250.53,70.45 251.48,70.28 252.31,70.15 253.25,70.01 254.08,69.93 254.68,69.88 255.15,69.86 256.10,69.87 257.05,69.94 257.76,70.03 258.47,70.16 259.54,70.42 260.37,70.68 261.91,71.29 262.74,71.69 263.45,72.08 264.40,72.64 265.11,73.10 266.29,73.94 267.24,74.67 268.07,75.37 268.78,76.00 269.61,76.78 270.20,77.37 271.63,78.89 272.10,79.42 273.40,81.00 274.59,82.53 275.77,84.18 276.84,85.74 277.91,87.40 278.86,88.94 279.45,89.94 280.99,92.65 282.17,94.85 284.31,98.98 285.97,102.30 287.03,104.46 288.46,107.37 289.76,110.04 291.06,112.70 292.25,115.09 293.43,117.46 295.21,120.93 296.64,123.61 297.70,125.59 299.48,128.78 301.38,132.00 302.92,134.48 304.46,136.83 305.64,138.54 306.83,140.16 308.25,141.98 309.32,143.26 310.62,144.70 311.93,146.02 313.23,147.23 313.94,147.84 315.72,149.23 317.14,150.22 318.33,150.96 319.75,151.76 321.64,152.69 323.30,153.40 326.39,154.49 328.87,155.18 331.36,155.78 335.39,156.57 339.66,157.25 343.93,157.79 349.38,158.35 356.97,158.95 361.23,159.20 363.37,159.32 365.50,159.42 371.66,159.69 372.73,159.73 375.46,159.82 378.89,159.93 380.67,159.99 384.58,160.09 387.90,160.17 389.80,160.21 393.59,160.29 395.84,160.34 397.98,160.37 399.87,160.40 402.24,160.44 404.14,160.47 406.63,160.50 408.29,160.52 410.90,160.56 411.84,160.56 412.91,160.58 415.28,160.60 416.23,160.61 419.31,160.64 420.97,160.65 422.04,160.66 423.81,160.68 424.64,160.68 426.07,160.69 427.73,160.71 428.56,160.71 430.22,160.72 431.40,160.73 433.06,160.74 434.36,160.75 436.38,160.76 437.80,160.77 439.70,160.78 440.17,160.78 441.36,160.79 443.49,160.80 444.32,160.80 446.33,160.81 448.47,160.82 449.77,160.83 451.43,160.83 453.68,160.84 456.17,160.85 457.59,160.86 459.85,160.87 461.74,160.87 464.71,160.88 466.60,160.89 468.26,160.89 469.21,160.90 471.34,160.90 472.88,160.91 475.14,160.91 477.63,160.92 480.12,160.92 482.13,160.93 484.26,160.93 486.52,160.94 488.41,160.94 490.78,160.95 493.15,160.95 496.71,160.96 499.44,160.96 503.82,160.97 506.55,160.97 511.29,160.98 516.62,160.99 523.02,160.99 531.79,161.00 538.31,161.01 544.83,161.01 549.10,161.02 557.75,161.02 564.62,161.03 572.80,161.03 581.46,161.04 590.11,161.04 598.76,161.04 605.28,161.05 613.93,161.05 624.72,161.05 633.37,161.05 641.90,161.06 650.56,161.06 659.21,161.06 670.00,161.06 678.65,161.06 687.30,161.06 695.95,161.07 704.61,161.07 713.26,161.07 724.04,161.07 732.70,161.07 736.84,161.09"/>
<line x1="78" y1="265.49" x2="772" y2="265.49" stroke="#2ca02c" opacity="0.18" stroke-dasharray="3 4"/>
<polyline fill="none" stroke="#2ca02c" stroke-width="2.0" points="91.35,265.49 100.24,265.49 109.24,265.49 120.39,265.49 129.27,265.49 138.16,265.49 147.17,265.49 156.06,265.49 164.95,265.49 176.21,265.49 185.10,265.49 193.99,265.49 203.00,265.49 204.54,265.49 205.61,265.49 206.32,265.49 207.15,265.49 207.62,265.49 208.33,265.49 209.64,265.49 215.09,265.49 216.39,265.49 219.24,265.49 220.30,265.49 220.90,265.49 221.49,265.49 222.56,265.49 223.27,265.49 223.98,265.49 224.69,265.49 225.40,265.49 226.35,265.49 227.18,265.49 228.01,265.49 228.84,265.49 229.67,265.49 230.73,265.49 232.16,265.49 233.58,265.48 234.41,265.48 235.24,265.48 235.95,265.48 237.13,265.47 238.32,265.47 239.27,265.47 240.22,265.46 241.28,265.45 242.35,265.44 243.18,265.43 244.01,265.42 245.31,265.40 246.26,265.40 247.21,265.41 248.63,265.47 249.22,265.50 249.94,265.56 250.41,265.60 251.12,265.68 251.71,265.75 252.54,265.87 253.25,265.99 253.97,266.11 254.68,266.23 255.74,266.42 256.81,266.61 257.76,266.78 259.06,267.00 260.48,267.25 261.79,267.46 262.62,267.59 264.63,267.83 266.06,267.98 267.36,268.08 268.43,268.13 269.14,268.14 269.85,268.11 271.03,267.97 272.22,267.67 273.40,267.18 274.47,266.56 275.42,265.85 276.60,264.71 277.43,263.77 278.62,262.20 279.69,260.59 280.63,259.02 281.46,257.54 282.41,255.74 283.36,253.84 284.66,251.08 285.97,248.20 286.80,246.31 287.98,243.55 289.29,240.47 290.35,237.92 291.54,235.07 292.96,231.66 293.91,229.39 295.57,225.47 296.75,222.73 298.41,218.97 299.72,216.11 301.02,213.34 302.44,210.41 303.51,208.31 304.58,206.25 305.88,203.85 307.78,200.62 309.44,198.00 310.98,195.74 312.16,194.14 313.11,192.95 313.94,191.97 315.24,190.55 316.90,188.94 317.85,188.11 319.16,187.06 319.87,186.53 320.93,185.79 322.47,184.81 324.61,183.63 326.74,182.61 328.28,181.96 330.77,181.02 332.43,180.47 333.85,180.03 335.63,179.53 336.93,179.20 339.07,178.71 341.32,178.25 345.82,177.47 350.33,176.86 354.59,176.37 356.97,176.13 358.62,175.98 360.17,175.87 364.91,175.51 367.63,175.33 372.61,175.06 379.25,174.76 386.95,174.49 390.39,174.40 397.15,174.24 403.90,174.11 407.70,174.06 412.79,173.99 417.30,173.94 422.16,173.89 426.19,173.86 429.39,173.84 430.81,173.82 432.35,173.81 435.07,173.79 439.82,173.77 442.30,173.75 444.68,173.74 446.22,173.73 447.64,173.73 449.65,173.72 451.67,173.71 453.33,173.70 454.39,173.70 456.17,173.69 458.07,173.68 459.61,173.68 461.27,173.67 462.57,173.67 464.11,173.66 466.25,173.66 468.03,173.65 470.87,173.64 472.88,173.64 474.78,173.63 476.09,173.63 478.10,173.63 480.00,173.62 483.32,173.62 484.62,173.61 486.40,173.61 488.65,173.60 490.07,173.60 492.20,173.60 494.34,173.59 495.41,173.59 497.66,173.59 498.96,173.59 502.04,173.58 504.29,173.58 506.55,173.57 508.44,173.57 510.70,173.57 512.59,173.57 514.84,173.56 516.03,173.56 517.93,173.56 519.11,173.56 522.07,173.56 524.09,173.55 526.46,173.55 528.47,173.55 530.73,173.55 533.33,173.54 535.59,173.54 539.85,173.54 543.05,173.54 546.73,173.53 550.52,173.53 553.60,173.53 557.99,173.53 562.61,173.52 566.28,173.52 568.77,173.52 573.99,173.52 578.49,173.51 584.66,173.51 589.87,173.51 593.55,173.51 602.55,173.50 609.19,173.50 612.75,173.50 620.33,173.50 627.44,173.49 633.73,173.49 642.73,173.49 649.37,173.49 654.71,173.49 658.38,173.49 662.53,173.49 665.02,173.49 669.52,173.48 678.41,173.48 689.55,173.48 698.56,173.48 707.45,173.48 716.34,173.48 725.35,173.48 734.24,173.47 745.38,173.47 754.27,173.47 758.65,173.45"/>
<line x1="78" y1="265.49" x2="772" y2="265.49" stroke="#9467bd" opacity="0.18" stroke-dasharray="3 4"/>
<polyline fill="none" stroke="#9467bd" stroke-width="2.0" points="91.35,173.45 94.66,173.45 100.47,173.45 107.82,173.45 114.46,173.45 121.10,173.45 127.73,173.45 132.59,173.45 139.23,173.45 144.21,173.45 147.88,173.45 150.25,173.45 155.82,173.45 162.34,173.45 167.32,173.45 172.30,173.45 175.14,173.45 180.60,173.45 185.10,173.45 186.76,173.45 188.54,173.45 189.01,173.45 192.69,173.45 193.40,173.45 194.23,173.45 194.70,173.45 197.78,173.45 199.21,173.45 201.34,173.45 202.64,173.45 203.35,173.45 204.30,173.45 205.84,173.45 206.55,173.45 207.38,173.45 208.21,173.45 209.16,173.45 209.75,173.45 210.47,173.45 211.41,173.45 212.01,173.45 212.84,173.45 213.78,173.45 214.61,173.45 215.33,173.45 216.04,173.45 216.75,173.45 217.34,173.45 218.17,173.45 218.64,173.45 219.47,173.45 220.54,173.45 221.13,173.45 221.96,173.45 222.56,173.45 223.27,173.46 223.74,173.46 224.33,173.46 224.93,173.46 226.11,173.46 226.70,173.47 227.42,173.47 228.24,173.47 228.96,173.47 230.02,173.48 230.50,173.48 231.33,173.48 232.16,173.48 232.63,173.48 233.22,173.48 234.41,173.48 235.12,173.48 236.07,173.48 237.13,173.47 238.32,173.44 239.62,173.40 241.40,173.32 242.71,173.24 243.30,173.20 244.72,173.08 245.31,173.03 246.50,172.90 247.45,172.81 248.28,172.74 249.11,172.71 249.82,172.71 250.29,172.73 251.59,172.85 252.66,173.06 253.61,173.34 254.44,173.66 255.39,174.14 256.34,174.76 256.93,175.23 257.52,175.76 258.11,176.35 258.82,177.15 259.54,178.05 260.72,179.79 261.67,181.39 262.14,182.27 262.74,183.44 263.21,184.44 264.28,186.85 264.99,188.61 265.82,190.79 266.65,193.11 268.07,197.36 268.90,199.97 270.09,203.86 270.80,206.27 271.98,210.37 272.69,212.88 273.88,217.10 275.30,222.14 276.13,225.02 277.08,228.20 278.03,231.24 279.09,234.44 279.92,236.74 281.58,240.91 282.89,243.72 283.95,245.79 285.49,248.43 287.03,250.65 288.69,252.69 290.59,254.58 292.72,256.24 294.38,257.35 297.82,259.13 299.72,259.90 303.63,261.18 306.24,261.83 308.01,262.21 310.98,262.74 315.72,263.33 318.92,263.63 322.59,263.91 327.57,264.20 333.50,264.46 335.51,264.54 338.48,264.63 341.56,264.72 344.05,264.78 345.71,264.82 347.36,264.86 347.96,264.87 349.97,264.91 351.51,264.94 352.46,264.95 357.44,265.03 358.27,265.04 359.45,265.05 360.88,265.07 363.25,265.09 363.72,265.10 365.50,265.12 367.04,265.13 368.82,265.15 370.83,265.17 373.91,265.19 375.46,265.20 375.93,265.20 377.12,265.21 379.72,265.23 380.67,265.23 382.09,265.24 383.04,265.25 384.58,265.25 385.89,265.26 388.26,265.27 389.32,265.27 390.63,265.28 391.58,265.28 392.52,265.29 393.00,265.29 394.06,265.29 394.78,265.30 395.96,265.30 396.79,265.30 397.86,265.31 398.57,265.31 399.40,265.31 400.23,265.32 401.18,265.32 401.77,265.32 402.84,265.32 404.02,265.33 404.97,265.33 405.92,265.33 407.34,265.34 408.64,265.34 410.30,265.34 411.61,265.35 412.79,265.35 414.33,265.35 415.87,265.35 417.53,265.36 419.43,265.36 421.09,265.36 422.75,265.37 424.17,265.37 425.12,265.37 427.01,265.37 428.20,265.38 429.98,265.38 431.52,265.38 432.70,265.38 433.77,265.38 436.02,265.39 438.16,265.39 440.05,265.39 443.25,265.40 445.51,265.40 448.23,265.40 451.79,265.40 454.75,265.41 458.07,265.41 461.39,265.41 464.83,265.41 468.03,265.42 472.88,265.42 476.20,265.42 481.18,265.42 486.28,265.43 492.80,265.43 499.32,265.43 505.95,265.44 512.59,265.44 519.23,265.44 525.75,265.44 534.04,265.45 540.68,265.45 547.20,265.45 553.84,265.45 560.48,265.45 567.11,265.45 575.29,265.46 581.93,265.46 585.13,265.48"/>
<line x1="88" y1="72" x2="110" y2="72" stroke="#1f77b4" stroke-width="2.4"/>
<text x="116" y="76" font-family="Arial, sans-serif" font-size="12">rising #1</text>
<line x1="88" y1="90" x2="110" y2="90" stroke="#d62728" stroke-width="2.4"/>
<text x="116" y="94" font-family="Arial, sans-serif" font-size="12">falling #2</text>
<line x1="88" y1="108" x2="110" y2="108" stroke="#2ca02c" stroke-width="2.4"/>
<text x="116" y="112" font-family="Arial, sans-serif" font-size="12">rising #3</text>
<line x1="88" y1="126" x2="110" y2="126" stroke="#9467bd" stroke-width="2.4"/>
<text x="116" y="130" font-family="Arial, sans-serif" font-size="12">falling #4</text>
<text x="425.00" y="322.00" text-anchor="middle" font-family="Arial, sans-serif" font-size="12">Time (s)</text>
<text x="420" y="42" font-family="Arial, sans-serif" font-size="11" fill="#555">solid=V-T voltage, faint horizontal=V_fixture</text>
</svg>