<svg xmlns="http://www.w3.org/2000/svg" width="800" height="450" viewBox="0 0 800 450">
<rect width="100%" height="100%" fill="#ffffff"/>
<text x="78" y="25" font-family="Arial, sans-serif" font-size="16" font-weight="700">E34_GPIO_I2CSCLIN_1V1_01_ISOSW V-T Waveforms</text>
<rect x="78" y="54" width="694" height="230" fill="#fbfbfb" stroke="#c8c8c8"/>
<text transform="translate(18 169.00) rotate(-90)" text-anchor="middle" font-family="Arial, sans-serif" font-size="12">Voltage (V)</text>
<line x1="78.00" y1="54" x2="78.00" y2="284" stroke="#ececec"/>
<text x="78.00" y="302" text-anchor="middle" font-family="Arial, sans-serif" font-size="10">-403p</text>
<line x1="216.80" y1="54" x2="216.80" y2="284" stroke="#ececec"/>
<text x="216.80" y="302" text-anchor="middle" font-family="Arial, sans-serif" font-size="10">3.79n</text>
<line x1="355.60" y1="54" x2="355.60" y2="284" stroke="#ececec"/>
<text x="355.60" y="302" text-anchor="middle" font-family="Arial, sans-serif" font-size="10">7.98n</text>
<line x1="494.40" y1="54" x2="494.40" y2="284" stroke="#ececec"/>
<text x="494.40" y="302" text-anchor="middle" font-family="Arial, sans-serif" font-size="10">12.2n</text>
<line x1="633.20" y1="54" x2="633.20" y2="284" stroke="#ececec"/>
<text x="633.20" y="302" text-anchor="middle" font-family="Arial, sans-serif" font-size="10">16.4n</text>
<line x1="772.00" y1="54" x2="772.00" y2="284" stroke="#ececec"/>
<text x="772.00" y="302" text-anchor="middle" font-family="Arial, sans-serif" font-size="10">20.6n</text>
<line x1="78" y1="284.00" x2="772" y2="284.00" stroke="#ececec"/>
<text x="70" y="288.00" text-anchor="end" font-family="Arial, sans-serif" font-size="10">-0.094</text>
<line x1="78" y1="226.50" x2="772" y2="226.50" stroke="#ececec"/>
<text x="70" y="230.50" text-anchor="end" font-family="Arial, sans-serif" font-size="10">0.228</text>
<line x1="78" y1="169.00" x2="772" y2="169.00" stroke="#ececec"/>
<text x="70" y="173.00" text-anchor="end" font-family="Arial, sans-serif" font-size="10">0.55</text>
<line x1="78" y1="111.50" x2="772" y2="111.50" stroke="#ececec"/>
<text x="70" y="115.50" text-anchor="end" font-family="Arial, sans-serif" font-size="10">0.872</text>
<line x1="78" y1="54.00" x2="772" y2="54.00" stroke="#ececec"/>
<text x="70" y="58.00" text-anchor="end" font-family="Arial, sans-serif" font-size="10">1.2</text>
<line x1="78" y1="70.70" x2="772" y2="70.70" stroke="#1f77b4" opacity="0.18" stroke-dasharray="3 4"/>
<polyline fill="none" stroke="#1f77b4" stroke-width="2.0" points="91.35,102.80 97.67,102.80 104.00,102.80 111.91,102.80 118.23,102.80 124.56,102.80 130.88,102.80 137.21,102.80 143.53,102.80 151.41,102.80 157.74,102.80 164.06,102.80 170.39,102.80 176.71,102.80 184.63,102.80 189.36,102.80 195.69,102.80 199.86,102.81 202.01,102.81 203.67,102.81 205.19,102.81 205.85,102.81 206.58,102.81 206.88,102.81 207.41,102.81 208.04,102.81 208.63,102.81 209.07,102.81 209.43,102.81 209.79,102.81 210.16,102.81 210.62,102.81 211.12,102.81 211.52,102.81 211.91,102.81 212.41,102.81 212.81,102.81 213.27,102.81 213.67,102.81 213.97,102.81 214.40,102.81 214.73,102.81 215.26,102.81 215.52,102.81 215.92,102.81 216.35,102.81 216.81,102.81 217.44,102.81 217.94,102.81 218.37,102.81 218.64,102.81 219.13,102.82 219.60,102.82 220.13,102.82 220.36,102.82 220.62,102.82 221.25,102.82 222.01,102.82 222.58,102.82 223.47,102.82 224.30,102.82 225.69,102.82 226.19,102.82 227.84,102.82 228.90,102.82 229.63,102.82 231.28,102.82 232.11,102.82 235.03,102.82 235.92,102.82 239.70,102.82 240.26,102.82 241.38,102.82 242.41,102.81 243.14,102.81 243.97,102.81 244.70,102.81 245.39,102.80 245.66,102.80 246.09,102.80 246.48,102.80 247.34,102.80 247.68,102.79 247.81,102.79 248.11,102.79 248.24,102.79 248.74,102.79 249.07,102.79 249.30,102.79 249.50,102.79 249.70,102.79 250.49,102.78 251.05,102.78 252.71,102.77 256.05,102.75 257.31,102.74 258.93,102.73 260.46,102.72 261.98,102.70 263.41,102.69 264.70,102.67 266.72,102.64 267.91,102.62 270.99,102.58 272.25,102.58 274.56,102.62 276.02,102.69 277.08,102.78 279.50,103.10 282.68,103.81 284.23,104.26 287.35,105.27 290.56,105.97 291.98,105.84 292.91,105.47 293.74,104.89 294.40,104.26 295.29,103.15 295.76,102.47 296.22,101.74 296.88,100.57 297.55,99.30 298.24,97.88 298.67,96.98 299.23,95.75 299.86,94.37 300.53,92.91 301.15,91.54 301.82,90.14 302.51,88.71 303.14,87.49 303.64,86.56 304.43,85.17 305.10,84.08 305.79,83.04 306.59,81.94 307.25,81.08 307.78,80.43 308.61,79.51 309.20,78.88 310.00,78.09 311.12,77.08 311.68,76.62 311.85,76.49 312.71,75.85 313.11,75.58 313.87,75.09 314.76,74.59 317.31,73.52 318.61,73.17 320.39,72.82 321.49,72.66 323.37,72.45 324.20,72.37 325.36,72.28 325.73,72.25 326.52,72.20 327.22,72.15 327.61,72.12 328.34,72.07 328.80,72.04 330.96,71.91 333.27,71.77 335.13,71.68 337.31,71.60 339.60,71.56 344.33,71.54 350.66,71.53 355.79,71.50 357.71,71.48 360.13,71.45 361.32,71.43 362.61,71.40 363.67,71.38 365.16,71.36 366.45,71.33 367.91,71.31 369.37,71.28 371.16,71.25 371.72,71.24 374.37,71.20 377.91,71.16 383.54,71.10 388.54,71.06 389.80,71.05 394.07,71.01 399.67,70.96 404.40,70.92 410.73,70.88 414.83,70.85 417.75,70.83 420.23,70.82 423.97,70.80 426.69,70.79 430.99,70.78 434.47,70.77 437.62,70.76 442.35,70.75 445.53,70.74 447.12,70.74 448.68,70.74 450.13,70.74 451.13,70.73 452.25,70.73 453.38,70.73 454.17,70.73 455.00,70.73 455.93,70.73 456.69,70.73 457.92,70.72 458.94,70.72 459.77,70.72 460.80,70.72 461.62,70.72 462.92,70.72 464.11,70.72 465.17,70.72 466.33,70.72 467.65,70.72 469.24,70.72 471.13,70.72 473.05,70.72 475.23,70.71 477.15,70.71 479.84,70.71 482.35,70.71 486.62,70.71 491.39,70.71 496.13,70.71 502.45,70.71 507.19,70.71 515.10,70.70 521.43,70.70 527.75,70.70 534.08,70.70 540.40,70.70 546.73,70.70 554.64,70.70 560.96,70.70 564.08,70.70"/>
<line x1="78" y1="70.70" x2="772" y2="70.70" stroke="#d62728" opacity="0.18" stroke-dasharray="3 4"/>
<polyline fill="none" stroke="#d62728" stroke-width="2.0" points="91.35,70.70 100.29,70.70 109.19,70.70 120.35,70.70 129.29,70.70 138.20,70.70 147.14,70.70 156.08,70.70 164.99,70.70 176.15,70.70 182.84,70.70 191.78,70.70 198.47,70.70 200.42,70.70 201.25,70.70 201.65,70.70 202.28,70.70 203.17,70.70 203.70,70.70 204.20,70.70 205.06,70.70 206.25,70.70 207.41,70.70 211.02,70.70 212.58,70.70 213.87,70.70 215.19,70.70 215.56,70.70 216.32,70.70 217.77,70.70 218.11,70.70 219.89,70.70 222.54,70.70 225.26,70.70 227.48,70.70 229.73,70.70 230.85,70.70 231.95,70.70 234.66,70.70 235.56,70.70 236.65,70.70 238.04,70.70 238.70,70.70 239.27,70.70 240.89,70.70 242.71,70.70 243.24,70.70 244.46,70.70 245.36,70.70 245.95,70.70 246.91,70.70 247.91,70.70 248.80,70.70 249.36,70.69 249.80,70.69 251.05,70.69 252.05,70.69 253.97,70.69 254.86,70.69 255.56,70.69 256.48,70.69 257.64,70.69 258.37,70.69 259.17,70.69 260.09,70.69 260.62,70.69 261.52,70.69 262.35,70.69 263.07,70.69 264.17,70.69 265.26,70.69 266.02,70.69 267.05,70.69 267.54,70.69 267.91,70.69 268.60,70.69 269.23,70.69 269.80,70.69 270.33,70.69 271.48,70.69 273.34,70.69 275.36,70.69 277.35,70.70 279.10,70.71 281.25,70.72 282.38,70.72 283.51,70.73 286.65,70.75 289.10,70.77 292.21,70.79 294.47,70.81 296.85,70.81 299.30,70.74 300.96,70.63 301.35,70.60 302.18,70.54 302.41,70.52 302.78,70.49 303.11,70.46 303.24,70.45 304.04,70.38 304.30,70.36 304.80,70.32 305.56,70.25 305.89,70.22 306.25,70.19 306.82,70.15 307.08,70.13 307.35,70.11 307.91,70.07 310.06,69.94 313.51,69.86 317.45,69.89 321.42,69.94 323.47,69.96 327.94,70.00 330.16,70.02 335.63,70.07 337.81,70.12 339.60,70.19 341.75,70.31 342.28,70.35 342.91,70.39 344.67,70.57 345.92,70.72 346.69,70.82 348.21,71.06 350.53,71.51 351.22,71.66 352.12,71.88 353.21,72.17 354.57,72.55 356.52,73.15 357.55,73.48 359.17,74.04 360.43,74.47 361.79,74.95 362.65,75.26 363.24,75.47 364.57,75.94 365.79,76.38 366.42,76.60 366.89,76.77 367.81,77.09 368.31,77.26 368.71,77.40 369.10,77.54 369.77,77.77 370.73,78.10 371.09,78.22 371.95,78.52 373.57,79.07 374.80,79.49 377.02,80.25 378.77,80.88 380.03,81.34 381.85,82.04 383.64,82.75 384.54,83.13 386.03,83.75 386.95,84.14 388.14,84.65 390.43,85.64 391.26,86.00 393.54,86.99 394.90,87.58 397.12,88.53 399.34,89.41 402.42,90.61 405.20,91.60 408.28,92.62 411.66,93.58 414.97,94.51 417.75,95.22 421.66,96.14 425.13,96.87 430.60,97.85 435.07,98.53 440.07,99.17 444.64,99.67 450.70,100.16 456.59,100.60 461.86,100.92 468.45,101.19 475.23,101.45 481.92,101.68 488.61,101.85 499.77,102.05 506.06,102.14 513.18,102.24 519.87,102.33 524.34,102.36 531.03,102.42 535.50,102.45 537.72,102.47 542.19,102.51 545.47,102.52 548.88,102.53 553.35,102.55 557.62,102.56 560.67,102.57 564.51,102.59 568.38,102.60 572.89,102.62 575.77,102.63 579.84,102.64 582.46,102.65 586.26,102.66 589.05,102.67 593.45,102.68 595.80,102.68 599.41,102.69 602.46,102.69 605.64,102.70 609.48,102.71 613.62,102.71 616.63,102.72 620.30,102.72 624.78,102.73 628.38,102.73 633.72,102.73 638.15,102.74 642.62,102.74 647.09,102.74 652.33,102.75 658.25,102.75 664.94,102.76 670.07,102.76 676.10,102.76 682.79,102.77 689.51,102.77 698.42,102.77 705.11,102.77 711.83,102.78 720.74,102.78 727.43,102.78 736.37,102.78 745.31,102.78 754.22,102.79 758.65,102.80"/>
<line x1="78" y1="267.21" x2="772" y2="267.21" stroke="#2ca02c" opacity="0.18" stroke-dasharray="3 4"/>
<polyline fill="none" stroke="#2ca02c" stroke-width="2.0" points="91.35,267.21 100.22,267.21 109.13,267.21 120.22,267.21 129.13,267.21 138.00,267.21 146.88,267.21 155.79,267.21 164.66,267.21 175.79,267.21 184.66,267.21 193.54,267.21 202.05,267.21 202.58,267.21 204.20,267.21 204.66,267.21 205.16,267.21 205.85,267.21 206.35,267.21 206.88,267.21 209.13,267.21 210.62,267.21 211.45,267.21 212.31,267.21 213.07,267.21 213.57,267.21 214.60,267.21 215.75,267.21 216.75,267.21 217.51,267.21 218.14,267.21 219.00,267.21 219.63,267.21 220.22,267.21 221.55,267.21 222.31,267.21 223.40,267.21 225.16,267.21 226.78,267.21 227.31,267.21 229.50,267.21 230.85,267.21 232.18,267.21 233.70,267.21 234.89,267.21 236.32,267.21 237.51,267.21 238.50,267.21 239.96,267.21 240.56,267.21 241.65,267.21 242.44,267.21 243.14,267.21 244.56,267.21 245.23,267.22 246.55,267.22 247.61,267.22 248.74,267.22 249.30,267.22 251.05,267.22 251.65,267.22 253.54,267.22 254.43,267.22 255.76,267.22 257.01,267.22 257.97,267.22 259.27,267.22 260.19,267.22 261.72,267.22 263.11,267.22 264.53,267.22 265.95,267.22 266.88,267.22 268.47,267.22 269.37,267.22 271.32,267.21 273.67,267.21 275.72,267.20 276.58,267.19 278.67,267.18 280.19,267.17 282.58,267.16 284.63,267.15 286.88,267.16 288.17,267.17 289.10,267.18 290.19,267.22 291.58,267.29 292.41,267.34 292.98,267.39 294.07,267.48 296.78,267.72 297.94,267.81 299.73,267.94 301.62,268.06 302.81,268.11 304.37,268.14 304.93,268.13 306.12,268.08 309.10,267.94 310.59,267.89 312.25,267.85 313.54,267.85 315.76,267.88 318.44,267.95 320.20,267.98 322.55,268.01 324.63,268.01 326.69,267.99 329.07,267.93 332.94,267.81 335.13,267.75 337.98,267.70 342.25,267.68 343.54,267.66 345.39,267.59 346.82,267.48 348.97,267.15 350.46,266.82 351.62,266.49 353.57,265.83 355.16,265.21 356.02,264.85 357.58,264.18 359.07,263.52 360.20,263.03 362.42,262.09 364.60,261.22 365.49,260.89 366.85,260.39 368.54,259.81 370.63,259.13 372.98,258.37 375.33,257.59 376.29,257.26 378.14,256.61 380.26,255.81 382.42,254.93 384.63,254.00 386.22,253.31 388.48,252.32 390.69,251.34 393.51,250.09 395.23,249.35 397.52,248.37 399.20,247.71 401.75,246.72 403.74,245.95 406.22,245.07 407.95,244.46 410.23,243.75 412.58,243.01 415.93,242.10 418.54,241.44 421.69,240.71 424.64,240.12 428.54,239.47 433.08,238.81 435.40,238.48 439.37,238.04 441.42,237.82 442.98,237.65 445.46,237.49 450.53,237.16 455.73,236.82 459.37,236.61 462.15,236.50 464.57,236.40 467.48,236.28 470.99,236.14 474.31,236.05 477.95,235.96 482.39,235.84 486.82,235.75 491.39,235.68 496.43,235.59 502.39,235.55 507.98,235.50 515.37,235.44 521.92,235.39 529.04,235.36 533.48,235.34 535.70,235.33 538.45,235.32 541.33,235.31 544.04,235.30 546.96,235.29 549.31,235.29 551.63,235.29 554.24,235.28 556.76,235.28 560.14,235.27 562.39,235.27 564.61,235.27 567.99,235.26 571.26,235.26 573.48,235.25 576.03,235.25 580.87,235.24 583.78,235.24 586.83,235.23 589.74,235.23 592.95,235.23 597.16,235.23 598.52,235.22 602.36,235.22 603.71,235.22 606.83,235.22 609.97,235.22 613.72,235.21 616.26,235.21 620.11,235.21 621.43,235.21 624.58,235.21 629.01,235.21 631.30,235.20 635.70,235.20 638.68,235.20 642.36,235.20 646.80,235.20 651.23,235.20 653.48,235.20 657.92,235.20 662.06,235.20 666.80,235.20 671.23,235.20 675.70,235.20 681.76,235.19 684.58,235.19 690.80,235.19 693.62,235.19 702.36,235.19 709.02,235.19 714.61,235.19 721.24,235.19 729.02,235.19 733.39,235.19 742.33,235.19 751.24,235.19 755.64,235.18"/>
<line x1="78" y1="267.21" x2="772" y2="267.21" stroke="#9467bd" opacity="0.18" stroke-dasharray="3 4"/>
<polyline fill="none" stroke="#9467bd" stroke-width="2.0" points="91.35,235.18 97.64,235.18 103.93,235.18 111.81,235.18 118.10,235.18 124.39,235.18 130.69,235.18 136.98,235.18 143.27,235.18 151.15,235.18 157.44,235.18 163.73,235.18 170.02,235.18 176.32,235.18 184.20,235.18 190.49,235.18 195.19,235.18 198.34,235.18 198.90,235.18 199.96,235.18 200.65,235.18 201.35,235.18 202.05,235.18 202.77,235.18 203.20,235.18 204.00,235.18 204.99,235.18 205.59,235.18 205.89,235.18 206.38,235.18 207.21,235.18 207.77,235.18 208.30,235.18 208.90,235.18 209.50,235.18 210.29,235.18 210.85,235.18 211.48,235.18 212.15,235.18 212.74,235.18 213.24,235.18 213.77,235.18 214.30,235.18 214.73,235.18 215.13,235.18 215.56,235.18 216.05,235.18 216.71,235.18 217.31,235.18 217.87,235.18 218.37,235.18 218.83,235.18 219.43,235.18 219.99,235.18 220.39,235.18 220.92,235.18 221.28,235.18 221.85,235.18 222.21,235.18 223.07,235.18 223.54,235.18 224.13,235.18 224.79,235.18 225.39,235.18 226.25,235.18 226.81,235.18 227.64,235.18 228.57,235.18 229.23,235.18 229.96,235.18 231.19,235.18 232.15,235.17 233.17,235.17 234.53,235.17 235.62,235.17 236.78,235.17 238.30,235.17 239.53,235.17 240.76,235.17 241.75,235.17 242.81,235.17 244.83,235.17 246.15,235.17 247.74,235.17 249.76,235.17 251.65,235.18 252.81,235.18 254.96,235.20 257.05,235.21 259.73,235.22 262.88,235.23 267.58,235.25 273.90,235.28 277.41,235.29 279.73,235.27 281.05,235.24 282.98,235.16 284.23,235.08 286.25,234.90 287.68,234.72 289.53,234.43 290.92,234.18 291.49,234.07 293.04,233.73 294.43,233.39 295.46,233.12 297.48,232.55 298.34,232.33 299.13,232.15 300.62,231.98 301.95,232.06 302.58,232.20 303.64,232.59 304.10,232.82 305.00,233.38 305.49,233.74 306.29,234.39 306.92,234.99 307.51,235.60 308.17,236.33 308.90,237.18 309.63,238.08 310.36,239.02 310.89,239.72 311.68,240.78 312.71,242.17 313.51,243.24 314.04,243.94 314.80,244.94 315.69,246.08 316.39,246.95 317.41,248.18 318.11,248.98 318.97,249.94 319.63,250.66 320.29,251.34 321.12,252.17 322.12,253.13 322.94,253.89 324.10,254.89 324.53,255.24 325.89,256.30 327.51,257.43 328.97,258.34 329.70,258.75 330.76,259.33 332.28,260.06 333.67,260.62 335.39,261.23 337.68,261.93 339.00,262.28 340.46,262.63 343.11,263.20 346.32,263.82 348.44,264.19 350.99,264.61 354.14,265.09 355.73,265.32 358.87,265.71 362.02,266.05 363.57,266.18 366.72,266.41 368.41,266.51 371.12,266.63 373.01,266.70 376.62,266.78 382.48,266.85 387.18,266.89 393.48,266.94 399.77,266.99 407.65,267.05 412.71,267.08 417.55,267.10 421.49,267.12 424.97,267.13 427.62,267.14 431.26,267.15 434.67,267.16 439.11,267.17 441.49,267.17 443.44,267.17 445.43,267.18 447.42,267.18 448.54,267.18 450.66,267.18 451.79,267.18 452.88,267.18 454.87,267.19 455.53,267.19 456.42,267.19 457.72,267.19 458.41,267.19 459.57,267.19 460.70,267.19 461.43,267.19 462.68,267.19 463.41,267.19 464.37,267.19 466.03,267.19 466.89,267.19 467.98,267.20 469.01,267.20 470.60,267.20 471.76,267.20 473.05,267.20 473.74,267.20 475.30,267.20 476.89,267.20 478.02,267.20 479.17,267.20 480.23,267.20 481.69,267.20 483.02,267.20 484.14,267.20 486.33,267.20 487.49,267.20 489.34,267.20 491.06,267.20 492.62,267.20 495.13,267.20 497.35,267.20 498.91,267.21 501.86,267.21 503.65,267.21 506.23,267.21 508.61,267.21 511.86,267.21 515.10,267.21 519.37,267.21 523.68,267.21 527.32,267.21 531.96,267.21 535.20,267.21 539.71,267.21 543.65,267.21 547.69,267.21 550.83,267.21 555.57,267.21 560.20,267.21 561.83,267.21"/>
<line x1="88" y1="72" x2="110" y2="72" stroke="#1f77b4" stroke-width="2.4"/>
<text x="116" y="76" font-family="Arial, sans-serif" font-size="12">rising #1</text>
<line x1="88" y1="90" x2="110" y2="90" stroke="#d62728" stroke-width="2.4"/>
<text x="116" y="94" font-family="Arial, sans-serif" font-size="12">falling #2</text>
<line x1="88" y1="108" x2="110" y2="108" stroke="#2ca02c" stroke-width="2.4"/>
<text x="116" y="112" font-family="Arial, sans-serif" font-size="12">rising #3</text>
<line x1="88" y1="126" x2="110" y2="126" stroke="#9467bd" stroke-width="2.4"/>
<text x="116" y="130" font-family="Arial, sans-serif" font-size="12">falling #4</text>
<rect x="78" y="342" width="694" height="44" fill="#fffdf7" stroke="#d8c6a1" rx="4"/>
<text x="88" y="359" font-family="Arial, sans-serif" font-size="11" font-weight="700" fill="#4b3b21">Findings needing attention</text>
<rect x="88" y="366" width="7" height="7" fill="#b54708"/>
<text x="102" y="373" font-family="Arial, sans-serif" font-size="11" fill="#333">WARN 5.5.4: Ramp dt versus V-T 20-80% evidence needs review | avg Ramp dt=1.617e-09s, avg V-T 20-80% span=1.065e-...</text>
<text x="425.00" y="322.00" text-anchor="middle" font-family="Arial, sans-serif" font-size="12">Time (s)</text>
<text x="420" y="42" font-family="Arial, sans-serif" font-size="11" fill="#555">solid=V-T voltage, faint horizontal=V_fixture</text>
</svg>