<svg xmlns="http://www.w3.org/2000/svg" width="800" height="450" viewBox="0 0 800 450">
<rect width="100%" height="100%" fill="#ffffff"/>
<text x="78" y="25" font-family="Arial, sans-serif" font-size="16" font-weight="700">E34_GPIO_SPI_I3C_MST_1V2_00 V-T Waveforms</text>
<rect x="78" y="54" width="694" height="230" fill="#fbfbfb" stroke="#c8c8c8"/>
<text transform="translate(18 169.00) rotate(-90)" text-anchor="middle" font-family="Arial, sans-serif" font-size="12">Voltage (V)</text>
<line x1="78.00" y1="54" x2="78.00" y2="284" stroke="#ececec"/>
<text x="78.00" y="302" text-anchor="middle" font-family="Arial, sans-serif" font-size="10">-232p</text>
<line x1="216.80" y1="54" x2="216.80" y2="284" stroke="#ececec"/>
<text x="216.80" y="302" text-anchor="middle" font-family="Arial, sans-serif" font-size="10">2.19n</text>
<line x1="355.60" y1="54" x2="355.60" y2="284" stroke="#ececec"/>
<text x="355.60" y="302" text-anchor="middle" font-family="Arial, sans-serif" font-size="10">4.6n</text>
<line x1="494.40" y1="54" x2="494.40" y2="284" stroke="#ececec"/>
<text x="494.40" y="302" text-anchor="middle" font-family="Arial, sans-serif" font-size="10">7.02n</text>
<line x1="633.20" y1="54" x2="633.20" y2="284" stroke="#ececec"/>
<text x="633.20" y="302" text-anchor="middle" font-family="Arial, sans-serif" font-size="10">9.44n</text>
<line x1="772.00" y1="54" x2="772.00" y2="284" stroke="#ececec"/>
<text x="772.00" y="302" text-anchor="middle" font-family="Arial, sans-serif" font-size="10">11.9n</text>
<line x1="78" y1="284.00" x2="772" y2="284.00" stroke="#ececec"/>
<text x="70" y="288.00" text-anchor="end" font-family="Arial, sans-serif" font-size="10">-0.102</text>
<line x1="78" y1="226.50" x2="772" y2="226.50" stroke="#ececec"/>
<text x="70" y="230.50" text-anchor="end" font-family="Arial, sans-serif" font-size="10">0.249</text>
<line x1="78" y1="169.00" x2="772" y2="169.00" stroke="#ececec"/>
<text x="70" y="173.00" text-anchor="end" font-family="Arial, sans-serif" font-size="10">0.6</text>
<line x1="78" y1="111.50" x2="772" y2="111.50" stroke="#ececec"/>
<text x="70" y="115.50" text-anchor="end" font-family="Arial, sans-serif" font-size="10">0.952</text>
<line x1="78" y1="54.00" x2="772" y2="54.00" stroke="#ececec"/>
<text x="70" y="58.00" text-anchor="end" font-family="Arial, sans-serif" font-size="10">1.3</text>
<line x1="78" y1="70.81" x2="772" y2="70.81" stroke="#1f77b4" opacity="0.18" stroke-dasharray="3 4"/>
<polyline fill="none" stroke="#1f77b4" stroke-width="2.0" points="91.35,115.18 95.54,115.18 99.67,115.18 104.90,115.18 109.09,115.18 113.28,115.19 116.38,115.19 119.02,115.17 120.28,115.15 120.80,115.15 121.37,115.14 122.12,115.13 122.58,115.12 123.44,115.11 124.19,115.10 124.99,115.09 125.62,115.09 126.20,115.09 126.77,115.09 127.52,115.11 128.09,115.12 128.72,115.15 129.12,115.18 129.70,115.22 129.98,115.25 130.50,115.30 130.85,115.35 131.36,115.42 131.76,115.49 132.22,115.57 132.86,115.69 133.49,115.83 133.95,115.94 134.35,116.04 134.92,116.19 135.44,116.32 135.90,116.44 136.42,116.58 136.93,116.72 137.56,116.87 138.25,117.03 138.71,117.13 139.46,117.24 139.97,117.30 140.49,117.32 141.07,117.31 141.41,117.27 141.98,117.17 142.67,116.98 143.13,116.78 143.76,116.45 144.17,116.18 144.85,115.65 145.54,115.00 146.06,114.45 146.81,113.52 147.61,112.39 148.30,111.30 148.87,110.32 149.68,108.86 150.42,107.42 150.88,106.47 151.57,105.04 152.15,103.79 152.89,102.15 153.58,100.59 153.98,99.68 154.61,98.24 155.25,96.79 156.05,94.98 156.97,92.92 157.37,92.04 157.94,90.79 158.35,89.93 158.98,88.61 159.61,87.32 160.47,85.65 161.22,84.30 161.73,83.41 162.14,82.75 162.65,81.95 163.28,81.04 163.74,80.42 164.43,79.56 164.95,78.96 165.47,78.41 165.70,78.18 166.33,77.58 166.79,77.18 167.07,76.94 167.53,76.59 167.82,76.39 168.57,75.90 169.43,75.38 170.17,74.97 171.55,74.32 172.01,74.14 172.87,73.82 173.45,73.63 174.02,73.46 175.23,73.15 175.86,72.99 177.92,72.61 179.30,72.40 179.76,72.33 181.08,72.17 182.75,71.98 184.18,71.86 186.31,71.71 188.66,71.58 190.21,71.49 190.67,71.47 191.36,71.44 191.93,71.41 192.51,71.39 193.14,71.37 193.83,71.34 194.63,71.31 196.70,71.25 199.17,71.19 201.35,71.14 202.38,71.12 203.42,71.11 204.05,71.10 206.11,71.07 207.72,71.05 209.33,71.03 211.68,71.01 212.95,71.00 214.09,70.99 215.24,70.98 216.39,70.98 217.14,70.97 218.11,70.96 219.38,70.95 220.35,70.95 220.93,70.95 222.13,70.94 222.88,70.94 223.97,70.93 225.00,70.93 225.92,70.92 227.30,70.92 228.28,70.91 229.08,70.91 229.88,70.91 230.51,70.91 231.84,70.90 232.81,70.90 233.04,70.90 233.73,70.90 234.25,70.90 234.48,70.90 235.16,70.90 236.20,70.89 237.29,70.89 238.15,70.89 238.78,70.89 239.53,70.89 240.50,70.88 241.60,70.88 242.69,70.88 243.78,70.88 245.33,70.87 245.90,70.87 246.59,70.87 247.39,70.87 248.08,70.87 250.32,70.87 251.70,70.86 254.00,70.86 255.03,70.86 256.18,70.86 257.84,70.85 258.88,70.85 260.37,70.85 262.44,70.85 263.12,70.85 265.54,70.85 267.03,70.85 267.66,70.85 268.92,70.85 269.73,70.85 271.85,70.84 272.89,70.84 274.95,70.84 275.99,70.84 279.72,70.84 280.58,70.84 281.84,70.84 283.79,70.84 285.11,70.84 286.55,70.83 287.64,70.83 288.62,70.83 289.13,70.83 289.88,70.83 290.80,70.83 293.04,70.83 294.76,70.83 296.31,70.83 297.63,70.83 298.61,70.83 299.98,70.83 301.59,70.83 302.34,70.83 304.17,70.83 305.21,70.83 307.28,70.83 310.43,70.83 313.53,70.83 314.62,70.83 316.69,70.83 318.47,70.83 320.19,70.83 320.88,70.82 323.52,70.82 325.02,70.82 328.17,70.82 331.27,70.82 334.43,70.82 336.50,70.82 339.66,70.82 343.79,70.82 346.95,70.82 351.08,70.82 355.62,70.82 357.34,70.82 361.24,70.82 363.42,70.82 366.75,70.82 371.98,70.82 375.42,70.82 379.27,70.82 383.46,70.82 387.60,70.82 391.79,70.82 397.01,70.82 401.20,70.82 403.21,70.81"/>
<line x1="78" y1="70.81" x2="772" y2="70.81" stroke="#d62728" opacity="0.18" stroke-dasharray="3 4"/>
<polyline fill="none" stroke="#d62728" stroke-width="2.0" points="91.35,70.81 98.01,70.81 104.72,70.81 109.60,70.81 111.38,70.81 116.09,70.81 117.12,70.81 118.04,70.81 121.14,70.81 122.75,70.81 124.76,70.81 125.85,70.81 127.00,70.80 128.09,70.80 129.76,70.80 130.79,70.80 131.48,70.80 132.57,70.80 134.18,70.80 134.86,70.80 136.24,70.80 137.51,70.81 137.97,70.82 139.11,70.83 139.63,70.84 140.20,70.86 140.89,70.88 141.58,70.90 142.16,70.92 142.67,70.94 143.13,70.95 144.11,70.99 144.74,71.01 145.54,71.03 146.40,71.06 147.27,71.08 148.13,71.10 148.93,71.11 149.28,71.11 149.68,71.12 150.25,71.12 150.83,71.12 151.63,71.11 152.20,71.10 152.78,71.08 153.41,71.06 153.81,71.04 154.39,71.00 155.42,70.93 156.34,70.86 157.03,70.81 157.83,70.73 158.46,70.68 159.55,70.58 160.36,70.50 161.68,70.39 162.94,70.29 163.23,70.27 163.74,70.23 164.15,70.20 164.95,70.15 165.87,70.09 166.61,70.05 167.93,69.98 168.45,69.96 168.80,69.95 169.43,69.92 170.81,69.88 171.72,69.86 172.53,69.86 173.96,69.90 174.82,69.97 176.55,70.24 177.35,70.45 177.92,70.63 178.90,71.03 180.11,71.67 180.51,71.93 181.20,72.40 182.06,73.08 183.03,73.93 183.95,74.83 184.87,75.82 185.73,76.82 186.54,77.80 187.05,78.45 187.63,79.20 188.49,80.32 189.35,81.45 189.87,82.14 190.96,83.59 191.88,84.80 192.56,85.72 193.08,86.38 193.66,87.11 194.23,87.85 194.63,88.36 195.44,89.36 196.53,90.65 197.04,91.26 197.73,92.07 198.36,92.81 199.17,93.65 199.91,94.43 200.37,94.91 201.23,95.80 202.04,96.60 203.24,97.66 203.88,98.21 204.39,98.66 205.48,99.62 206.40,100.37 207.43,101.11 207.84,101.40 209.04,102.25 209.90,102.87 210.48,103.28 211.45,103.81 212.49,104.37 213.29,104.80 216.33,106.44 217.77,107.02 218.74,107.42 219.78,107.84 221.62,108.59 223.28,109.12 225.29,109.74 226.73,110.18 228.28,110.56 230.11,110.99 231.95,111.42 236.66,112.25 238.55,112.52 239.99,112.71 241.65,112.94 242.46,113.03 243.15,113.10 243.89,113.18 245.21,113.31 246.65,113.45 248.31,113.57 249.40,113.64 250.09,113.68 250.55,113.71 251.18,113.75 252.56,113.83 253.77,113.91 255.66,114.03 256.69,114.09 257.56,114.13 258.47,114.17 260.02,114.23 261.69,114.30 263.87,114.39 264.68,114.42 265.54,114.45 266.91,114.49 270.01,114.55 271.45,114.58 272.14,114.59 273.00,114.61 273.40,114.62 273.86,114.63 274.95,114.65 275.64,114.67 276.22,114.68 277.71,114.71 279.20,114.74 280.12,114.76 280.69,114.77 281.67,114.79 282.07,114.79 283.39,114.81 284.94,114.83 286.26,114.84 287.35,114.85 288.27,114.86 289.99,114.88 291.66,114.90 293.04,114.92 294.41,114.94 296.08,114.94 297.40,114.95 298.26,114.96 299.47,114.96 301.42,114.97 302.45,114.98 304.35,114.99 305.44,114.99 306.93,115.00 309.00,115.01 311.24,115.02 313.59,115.04 316.17,115.05 318.47,115.06 321.05,115.06 323.47,115.07 326.80,115.08 330.13,115.09 333.51,115.10 338.51,115.11 341.84,115.11 346.55,115.12 351.88,115.12 356.88,115.13 361.87,115.13 366.87,115.14 373.53,115.14 378.58,115.14 385.59,115.15 391.96,115.15 398.62,115.15 405.28,115.16 412.00,115.16 420.32,115.16 426.98,115.16 433.70,115.16 440.36,115.16 447.08,115.16 453.74,115.16 462.06,115.16 468.78,115.17 475.44,115.17 482.10,115.17 488.81,115.17 495.47,115.17 503.80,115.17 510.52,115.17 517.18,115.17 523.89,115.17 530.55,115.17 538.88,115.17 545.60,115.17 552.26,115.17 558.92,115.17 565.63,115.17 572.29,115.17 580.62,115.17 587.33,115.17 590.61,115.17"/>
<line x1="78" y1="267.33" x2="772" y2="267.33" stroke="#2ca02c" opacity="0.18" stroke-dasharray="3 4"/>
<polyline fill="none" stroke="#2ca02c" stroke-width="2.0" points="91.35,267.33 100.30,267.33 109.20,267.33 110.64,267.33 111.15,267.33 111.79,267.33 112.30,267.33 112.76,267.33 113.28,267.33 115.00,267.33 115.57,267.33 115.92,267.33 116.32,267.33 116.67,267.33 116.95,267.33 117.18,267.34 117.41,267.34 117.64,267.34 117.87,267.34 118.10,267.34 118.39,267.34 118.62,267.34 118.85,267.34 119.19,267.34 119.48,267.34 119.71,267.34 120.00,267.34 120.40,267.34 121.03,267.34 122.58,267.34 123.73,267.34 125.33,267.34 126.02,267.33 126.77,267.32 127.46,267.30 128.03,267.28 128.66,267.26 129.58,267.22 130.04,267.20 130.44,267.18 130.79,267.17 131.08,267.15 131.36,267.14 131.65,267.13 131.88,267.12 132.17,267.10 132.45,267.09 132.74,267.08 133.14,267.07 133.54,267.06 133.83,267.05 134.23,267.04 134.52,267.03 135.09,267.02 135.38,267.01 135.96,267.01 136.30,267.01 136.70,267.00 137.33,267.01 137.91,267.01 138.37,267.02 138.88,267.04 139.40,267.06 139.97,267.09 140.72,267.15 141.24,267.19 141.98,267.26 142.50,267.31 142.85,267.35 143.42,267.41 144.85,267.57 145.37,267.62 145.95,267.68 146.69,267.75 147.21,267.80 148.59,267.92 149.96,268.03 151.17,268.11 151.92,268.14 153.35,268.14 154.21,268.08 155.82,267.85 156.62,267.66 157.49,267.34 158.29,266.98 159.09,266.55 159.72,266.13 160.59,265.48 160.93,265.19 161.45,264.71 162.02,264.14 162.54,263.59 163.11,262.94 163.63,262.33 164.15,261.68 164.55,261.17 164.89,260.72 165.24,260.26 165.98,259.24 166.56,258.44 167.13,257.63 167.71,256.82 168.28,256.01 169.43,254.40 169.89,253.76 170.58,252.80 171.49,251.56 171.84,251.09 172.53,250.19 173.73,248.65 174.31,247.95 175.34,246.76 176.20,245.79 177.24,244.69 178.56,243.44 180.28,241.86 181.20,241.10 182.12,240.34 183.32,239.47 184.70,238.52 185.85,237.84 187.80,236.70 188.95,236.13 190.73,235.26 192.79,234.51 195.49,233.52 198.48,232.66 199.86,232.32 202.90,231.66 204.33,231.38 205.94,231.14 207.43,230.91 209.39,230.62 209.90,230.54 210.25,230.51 212.03,230.34 216.28,229.95 218.86,229.71 220.87,229.59 223.40,229.45 227.30,229.22 228.91,229.15 232.12,229.04 234.71,228.95 238.09,228.83 239.13,228.80 240.85,228.77 243.20,228.72 245.27,228.68 246.59,228.66 247.68,228.64 248.77,228.61 249.92,228.59 251.76,228.56 252.91,228.53 253.94,228.52 255.55,228.50 256.52,228.49 257.44,228.48 258.82,228.46 260.25,228.45 261.63,228.43 263.07,228.42 264.22,228.40 266.00,228.38 267.49,228.37 269.04,228.35 270.13,228.34 271.39,228.32 272.31,228.32 273.46,228.31 274.38,228.31 275.81,228.30 276.62,228.29 277.77,228.28 279.09,228.28 281.04,228.26 283.10,228.25 284.60,228.24 286.43,228.23 289.76,228.21 292.35,228.19 295.91,228.17 297.80,228.16 300.85,228.15 303.26,228.14 306.76,228.12 310.09,228.11 314.57,228.09 319.16,228.07 325.30,228.05 330.18,228.03 339.08,228.01 347.41,227.99 352.46,227.97 361.42,227.95 366.58,227.94 374.79,227.93 385.99,227.91 393.85,227.89 401.60,227.88 408.26,227.87 417.22,227.86 428.36,227.85 437.32,227.84 446.21,227.83 455.17,227.83 464.07,227.82 473.03,227.82 484.16,227.81 493.12,227.80 502.02,227.80 510.98,227.79 519.87,227.79 531.07,227.78 539.97,227.78 548.93,227.78 557.82,227.78 566.78,227.77 575.68,227.77 586.88,227.77 595.77,227.77 604.73,227.76 613.63,227.76 622.59,227.76 631.48,227.76 642.62,227.76 651.58,227.76 660.48,227.76 669.43,227.75 678.33,227.75 689.53,227.75 698.43,227.75 707.38,227.75 716.28,227.75 725.24,227.75 734.14,227.75 745.33,227.75 754.23,227.75 758.65,227.74"/>
<line x1="78" y1="267.33" x2="772" y2="267.33" stroke="#9467bd" opacity="0.18" stroke-dasharray="3 4"/>
<polyline fill="none" stroke="#9467bd" stroke-width="2.0" points="91.35,227.74 96.17,227.74 100.99,227.74 107.08,227.74 111.90,227.74 116.72,227.74 118.50,227.74 119.13,227.74 119.77,227.74 120.17,227.74 120.40,227.73 120.63,227.73 120.91,227.73 121.14,227.73 121.43,227.73 121.66,227.73 122.00,227.73 122.41,227.73 122.81,227.73 123.21,227.73 123.84,227.73 124.30,227.73 125.10,227.73 125.33,227.73 125.56,227.73 125.79,227.73 126.08,227.73 126.31,227.73 126.60,227.73 126.88,227.73 127.23,227.73 127.69,227.74 128.15,227.74 128.61,227.74 129.35,227.74 130.04,227.75 130.79,227.75 131.65,227.75 132.40,227.76 133.03,227.76 133.54,227.77 134.00,227.77 134.86,227.78 135.32,227.78 135.73,227.78 136.24,227.78 136.70,227.79 137.10,227.79 137.56,227.79 137.85,227.79 138.08,227.79 138.37,227.79 138.65,227.79 139.06,227.79 139.40,227.79 139.75,227.79 140.09,227.79 140.43,227.78 140.72,227.78 141.30,227.77 141.75,227.75 142.04,227.74 142.33,227.73 142.67,227.72 143.07,227.70 143.36,227.68 143.76,227.66 144.05,227.64 144.40,227.62 144.74,227.59 145.37,227.53 146.06,227.46 146.52,227.41 147.15,227.34 147.73,227.27 148.24,227.20 149.33,227.05 149.62,227.01 150.42,226.90 150.83,226.86 151.40,226.80 152.32,226.76 152.95,226.77 153.98,226.90 154.73,227.08 155.13,227.22 156.17,227.68 156.91,228.13 157.43,228.50 157.94,228.90 158.58,229.45 159.15,229.99 160.18,231.10 160.82,231.85 161.27,232.42 161.73,233.02 162.42,233.96 163.05,234.86 163.86,236.05 164.26,236.67 165.01,237.83 165.93,239.30 166.44,240.15 167.42,241.75 168.16,242.98 168.91,244.22 169.60,245.36 170.29,246.48 170.98,247.60 171.67,248.70 172.30,249.69 172.64,250.22 173.50,251.52 173.85,252.02 174.42,252.85 174.77,253.33 175.34,254.11 175.92,254.87 176.43,255.53 177.06,256.30 178.04,257.42 178.44,257.86 178.84,258.28 179.36,258.80 179.82,259.23 180.85,260.15 181.66,260.79 182.29,261.26 182.75,261.58 183.44,262.04 183.95,262.35 184.53,262.68 185.73,263.27 186.82,263.74 188.20,264.22 189.18,264.53 190.56,264.90 192.79,265.38 194.69,265.70 197.27,266.04 198.88,266.20 199.86,266.29 201.87,266.45 202.38,266.48 203.47,266.55 204.28,266.60 206.00,266.68 207.20,266.74 208.53,266.79 209.50,266.82 211.28,266.88 213.18,266.93 214.73,266.96 216.22,266.99 218.00,267.02 218.92,267.03 220.30,267.05 220.75,267.06 221.85,267.07 223.22,267.09 224.14,267.10 225.40,267.11 226.61,267.12 227.87,267.13 229.60,267.14 230.69,267.15 232.01,267.16 233.16,267.16 234.07,267.17 235.05,267.17 236.37,267.18 237.52,267.19 238.49,267.19 239.30,267.19 240.10,267.20 241.14,267.20 242.34,267.20 243.55,267.21 244.75,267.21 245.96,267.21 247.05,267.22 248.37,267.22 249.40,267.22 250.44,267.23 251.07,267.23 252.33,267.23 253.19,267.23 254.63,267.24 255.60,267.24 256.81,267.24 258.07,267.24 259.68,267.24 261.69,267.25 262.90,267.25 265.08,267.25 266.51,267.26 268.92,267.26 270.13,267.26 273.57,267.26 276.16,267.27 277.36,267.27 280.06,267.27 282.19,267.27 285.80,267.27 288.67,267.28 291.60,267.28 294.53,267.28 297.92,267.28 300.10,267.28 303.95,267.29 308.77,267.29 313.59,267.29 318.47,267.29 323.29,267.30 329.32,267.30 334.14,267.30 338.97,267.30 343.79,267.30 348.67,267.30 353.49,267.30 359.52,267.31 364.34,267.31 369.17,267.31 373.99,267.31 378.87,267.31 383.69,267.31 389.72,267.31 394.54,267.31 399.37,267.31 404.19,267.31 409.07,267.31 415.10,267.32 419.92,267.32 424.74,267.32 429.56,267.32 434.39,267.32 439.27,267.32 445.30,267.32 450.12,267.32 452.47,267.33"/>
<line x1="88" y1="72" x2="110" y2="72" stroke="#1f77b4" stroke-width="2.4"/>
<text x="116" y="76" font-family="Arial, sans-serif" font-size="12">rising #1</text>
<line x1="88" y1="90" x2="110" y2="90" stroke="#d62728" stroke-width="2.4"/>
<text x="116" y="94" font-family="Arial, sans-serif" font-size="12">falling #2</text>
<line x1="88" y1="108" x2="110" y2="108" stroke="#2ca02c" stroke-width="2.4"/>
<text x="116" y="112" font-family="Arial, sans-serif" font-size="12">rising #3</text>
<line x1="88" y1="126" x2="110" y2="126" stroke="#9467bd" stroke-width="2.4"/>
<text x="116" y="130" font-family="Arial, sans-serif" font-size="12">falling #4</text>
<rect x="78" y="342" width="694" height="44" fill="#fffdf7" stroke="#d8c6a1" rx="4"/>
<text x="88" y="359" font-family="Arial, sans-serif" font-size="11" font-weight="700" fill="#4b3b21">Findings needing attention</text>
<rect x="88" y="366" width="7" height="7" fill="#b54708"/>
<text x="102" y="373" font-family="Arial, sans-serif" font-size="11" fill="#333">WARN 5.5.4: Ramp dt versus V-T 20-80% evidence needs review | avg Ramp dt=4.541e-10s, avg V-T 20-80% span=3.567e-...</text>
<text x="425.00" y="322.00" text-anchor="middle" font-family="Arial, sans-serif" font-size="12">Time (s)</text>
<text x="420" y="42" font-family="Arial, sans-serif" font-size="11" fill="#555">solid=V-T voltage, faint horizontal=V_fixture</text>
</svg>