<svg xmlns="http://www.w3.org/2000/svg" width="800" height="450" viewBox="0 0 800 450">
<rect width="100%" height="100%" fill="#ffffff"/>
<text x="78" y="25" font-family="Arial, sans-serif" font-size="16" font-weight="700">E34_GPIO_1V1TO1V8_1v8_11 V-T Waveforms</text>
<rect x="78" y="54" width="694" height="230" fill="#fbfbfb" stroke="#c8c8c8"/>
<text transform="translate(18 169.00) rotate(-90)" text-anchor="middle" font-family="Arial, sans-serif" font-size="12">Voltage (V)</text>
<line x1="78.00" y1="54" x2="78.00" y2="284" stroke="#ececec"/>
<text x="78.00" y="302" text-anchor="middle" font-family="Arial, sans-serif" font-size="10">-204p</text>
<line x1="216.80" y1="54" x2="216.80" y2="284" stroke="#ececec"/>
<text x="216.80" y="302" text-anchor="middle" font-family="Arial, sans-serif" font-size="10">1.91n</text>
<line x1="355.60" y1="54" x2="355.60" y2="284" stroke="#ececec"/>
<text x="355.60" y="302" text-anchor="middle" font-family="Arial, sans-serif" font-size="10">4.03n</text>
<line x1="494.40" y1="54" x2="494.40" y2="284" stroke="#ececec"/>
<text x="494.40" y="302" text-anchor="middle" font-family="Arial, sans-serif" font-size="10">6.15n</text>
<line x1="633.20" y1="54" x2="633.20" y2="284" stroke="#ececec"/>
<text x="633.20" y="302" text-anchor="middle" font-family="Arial, sans-serif" font-size="10">8.26n</text>
<line x1="772.00" y1="54" x2="772.00" y2="284" stroke="#ececec"/>
<text x="772.00" y="302" text-anchor="middle" font-family="Arial, sans-serif" font-size="10">10.4n</text>
<line x1="78" y1="284.00" x2="772" y2="284.00" stroke="#ececec"/>
<text x="70" y="288.00" text-anchor="end" font-family="Arial, sans-serif" font-size="10">-0.163</text>
<line x1="78" y1="226.50" x2="772" y2="226.50" stroke="#ececec"/>
<text x="70" y="230.50" text-anchor="end" font-family="Arial, sans-serif" font-size="10">0.366</text>
<line x1="78" y1="169.00" x2="772" y2="169.00" stroke="#ececec"/>
<text x="70" y="173.00" text-anchor="end" font-family="Arial, sans-serif" font-size="10">0.896</text>
<line x1="78" y1="111.50" x2="772" y2="111.50" stroke="#ececec"/>
<text x="70" y="115.50" text-anchor="end" font-family="Arial, sans-serif" font-size="10">1.4</text>
<line x1="78" y1="54.00" x2="772" y2="54.00" stroke="#ececec"/>
<text x="70" y="58.00" text-anchor="end" font-family="Arial, sans-serif" font-size="10">2</text>
<line x1="78" y1="70.90" x2="772" y2="70.90" stroke="#1f77b4" opacity="0.18" stroke-dasharray="3 4"/>
<polyline fill="none" stroke="#1f77b4" stroke-width="2.0" points="91.35,162.12 97.45,162.12 103.61,162.11 111.28,162.12 117.38,162.11 123.55,162.10 129.65,162.11 131.16,162.11 131.61,162.11 132.20,162.11 132.66,162.11 133.25,162.11 133.58,162.11 134.11,162.11 134.83,162.11 135.35,162.11 135.88,162.11 136.27,162.11 136.73,162.11 137.25,162.11 138.04,162.11 138.37,162.11 138.89,162.11 139.29,162.11 139.88,162.11 140.53,162.11 141.19,162.11 141.65,162.11 142.17,162.11 142.70,162.10 143.29,162.10 143.94,162.10 144.60,162.10 145.12,162.10 145.71,162.10 146.11,162.11 146.63,162.12 147.68,162.18 148.21,162.23 149.06,162.34 149.78,162.42 150.24,162.44 150.90,162.39 151.29,162.30 151.62,162.19 151.94,162.04 152.47,161.72 152.93,161.34 153.52,160.72 153.98,160.13 154.44,159.43 154.96,158.47 155.42,157.48 155.81,156.51 156.27,155.20 156.73,153.73 157.26,151.81 157.78,149.68 158.11,148.22 158.70,145.43 159.29,142.41 160.01,138.50 160.47,135.92 160.93,133.29 161.72,128.68 162.18,125.98 162.83,122.14 163.23,119.86 163.62,117.61 164.14,114.71 164.80,111.27 165.39,108.34 166.11,105.01 166.50,103.28 167.03,101.15 167.42,99.70 168.21,96.94 168.67,95.46 169.26,93.66 169.65,92.56 170.24,91.01 171.03,89.21 172.34,86.53 173.06,85.22 173.92,83.90 174.44,83.10 175.16,82.09 175.82,81.25 176.28,80.67 177.52,79.28 178.57,78.23 179.10,77.76 179.62,77.30 180.01,76.96 180.34,76.71 181.19,76.07 181.92,75.61 182.44,75.28 184.87,74.10 186.05,73.67 187.82,73.18 190.05,72.74 191.03,72.58 192.61,72.37 193.59,72.25 194.77,72.14 195.36,72.09 196.48,72.00 197.13,71.95 199.16,71.82 199.43,71.81 200.35,71.75 201.66,71.69 203.03,71.63 203.89,71.60 205.33,71.54 206.64,71.50 206.90,71.49 207.49,71.48 208.02,71.46 208.74,71.44 209.26,71.43 209.66,71.42 210.05,71.41 210.45,71.40 210.77,71.39 211.49,71.37 212.48,71.35 212.87,71.34 213.40,71.33 213.66,71.33 214.84,71.30 215.10,71.30 215.49,71.29 216.35,71.28 216.94,71.27 217.46,71.26 218.51,71.24 219.17,71.23 219.82,71.22 220.74,71.21 221.59,71.20 222.58,71.19 223.17,71.18 223.89,71.17 224.61,71.16 225.33,71.15 226.12,71.15 227.30,71.14 227.82,71.13 228.74,71.12 229.46,71.12 230.51,71.11 231.43,71.10 232.22,71.09 233.20,71.09 233.86,71.08 235.30,71.07 236.09,71.07 236.48,71.06 237.07,71.06 237.60,71.06 239.30,71.05 240.48,71.05 242.45,71.04 243.11,71.03 245.01,71.02 247.63,71.02 250.71,71.01 252.16,71.00 253.99,71.00 256.88,70.99 258.12,70.99 258.45,70.99 261.40,70.98 263.37,70.98 264.22,70.98 264.68,70.97 267.17,70.97 268.68,70.97 269.34,70.97 272.09,70.96 274.13,70.96 276.03,70.96 278.91,70.96 282.85,70.95 287.90,70.95 292.03,70.95 295.11,70.95 301.21,70.94 304.29,70.94 307.38,70.94 311.31,70.94 313.48,70.94 317.87,70.93 320.30,70.93 321.41,70.93 325.74,70.93 328.36,70.93 333.41,70.93 338.00,70.93 340.23,70.93 343.51,70.93 347.19,70.93 353.35,70.93 357.94,70.93 362.53,70.92 367.12,70.92 371.71,70.92 376.30,70.92 380.90,70.92 385.49,70.92 390.08,70.92 394.73,70.92 399.32,70.92 405.42,70.92 411.52,70.92 417.69,70.92 423.79,70.92 429.95,70.92 436.05,70.92 442.22,70.92 448.31,70.92 454.48,70.92 457.50,70.92 463.66,70.92 471.33,70.92 477.43,70.92 483.53,70.91 489.70,70.91 495.80,70.91 503.47,70.91 509.63,70.91 515.73,70.91 521.83,70.91 528.00,70.91 534.10,70.91 541.77,70.91 546.36,70.91 549.38,70.90"/>
<line x1="78" y1="70.90" x2="772" y2="70.90" stroke="#d62728" opacity="0.18" stroke-dasharray="3 4"/>
<polyline fill="none" stroke="#d62728" stroke-width="2.0" points="91.35,70.90 100.27,70.90 109.18,70.90 120.33,70.91 129.32,70.91 132.07,70.91 133.78,70.90 135.48,70.90 138.24,70.90 142.70,70.90 143.88,70.90 145.12,70.90 146.17,70.90 147.16,70.90 148.53,70.90 149.78,70.90 150.50,70.90 151.55,70.91 152.47,70.92 153.06,70.93 153.85,70.95 154.31,70.96 155.03,70.97 155.62,70.96 156.01,70.95 156.67,70.90 157.39,70.81 157.98,70.72 158.44,70.65 159.36,70.48 160.27,70.34 160.93,70.25 161.45,70.19 162.18,70.13 162.57,70.10 163.29,70.05 164.14,70.00 164.80,69.97 165.85,69.94 166.64,69.91 167.23,69.90 167.82,69.89 168.80,69.87 169.65,69.86 170.11,69.86 170.70,69.87 171.23,69.88 171.88,69.90 172.47,69.94 172.93,69.97 173.59,70.04 174.18,70.11 174.44,70.15 175.55,70.37 176.15,70.52 177.00,70.78 177.52,70.96 178.11,71.20 179.03,71.64 179.95,72.16 180.60,72.60 181.52,73.32 182.64,74.34 183.36,75.09 184.87,76.91 185.26,77.46 185.85,78.31 187.03,80.21 188.02,81.96 188.80,83.49 190.25,86.51 191.10,88.39 191.88,90.17 192.80,92.29 193.46,93.82 194.64,96.61 196.21,100.34 197.00,102.19 198.18,104.95 199.36,107.68 200.15,109.48 201.79,113.15 202.71,115.15 203.95,117.83 205.20,120.42 206.38,122.84 207.10,124.27 208.15,126.33 209.53,128.94 210.58,130.87 211.56,132.63 211.95,133.32 212.28,133.88 213.72,136.29 215.36,138.87 216.09,139.94 217.40,141.81 218.58,143.38 219.63,144.69 221.00,146.27 221.92,147.25 223.04,148.34 225.07,150.10 226.05,150.86 227.69,151.96 229.73,153.14 231.10,153.82 231.96,154.21 232.87,154.60 233.33,154.79 235.69,155.66 237.79,156.34 238.58,156.57 241.07,157.26 243.11,157.75 246.06,158.36 247.43,158.61 249.66,158.98 251.17,159.17 253.40,159.46 256.29,159.78 258.06,159.96 259.70,160.08 261.80,160.23 262.98,160.31 264.75,160.44 265.93,160.53 267.31,160.61 268.95,160.70 270.52,160.79 271.37,160.83 273.47,160.93 275.70,161.02 277.86,161.11 280.03,161.18 281.54,161.22 283.31,161.27 284.75,161.31 285.41,161.32 286.59,161.36 287.57,161.38 289.14,161.43 292.23,161.50 294.13,161.53 294.98,161.55 296.10,161.57 298.92,161.62 301.34,161.66 304.95,161.71 306.00,161.73 307.31,161.74 309.87,161.77 310.33,161.78 311.38,161.79 312.89,161.80 314.20,161.82 316.76,161.84 320.10,161.87 321.94,161.88 324.89,161.90 326.07,161.91 328.23,161.92 332.43,161.95 334.66,161.96 336.69,161.96 339.12,161.98 340.82,161.98 342.07,161.99 342.79,161.99 345.94,162.00 348.04,162.01 349.42,162.01 352.69,162.02 358.93,162.03 359.58,162.03 360.56,162.03 367.32,162.04 370.34,162.05 372.57,162.05 374.80,162.06 375.52,162.06 377.55,162.06 378.53,162.06 379.26,162.06 382.01,162.06 388.18,162.07 394.86,162.07 399.39,162.08 401.62,162.08 406.08,162.08 406.67,162.08 412.57,162.08 413.69,162.08 415.00,162.08 416.57,162.08 418.34,162.09 418.61,162.09 419.26,162.09 421.16,162.09 421.75,162.09 422.93,162.09 426.15,162.09 429.30,162.09 431.13,162.09 439.53,162.09 446.22,162.09 455.14,162.09 464.12,162.10 473.04,162.10 484.19,162.10 493.11,162.10 502.03,162.10 510.95,162.10 519.87,162.10 531.08,162.10 540.00,162.10 548.92,162.10 557.84,162.10 566.76,162.10 575.68,162.10 586.83,162.10 595.81,162.10 604.73,162.10 613.65,162.10 622.57,162.10 631.49,162.10 642.64,162.10 651.56,162.11 660.54,162.11 669.46,162.11 678.38,162.11 689.53,162.11 698.45,162.11 707.37,162.11 716.29,162.11 725.21,162.11 734.19,162.11 745.34,162.11 754.26,162.11 758.65,162.11"/>
<line x1="78" y1="266.28" x2="772" y2="266.28" stroke="#2ca02c" opacity="0.18" stroke-dasharray="3 4"/>
<polyline fill="none" stroke="#2ca02c" stroke-width="2.0" points="91.35,266.28 99.41,266.28 107.48,266.28 117.51,266.27 125.58,266.27 133.65,266.28 139.68,266.28 141.65,266.28 142.57,266.28 143.62,266.28 144.34,266.28 144.80,266.27 145.65,266.27 146.44,266.25 147.42,266.24 147.94,266.23 148.53,266.24 149.39,266.27 149.85,266.31 150.63,266.39 151.35,266.47 151.94,266.53 152.67,266.60 153.39,266.67 153.91,266.72 154.76,266.81 155.81,266.92 156.54,267.00 157.19,267.07 157.91,267.15 158.77,267.24 159.75,267.34 160.54,267.43 161.26,267.51 161.78,267.57 162.18,267.62 162.57,267.67 163.09,267.74 163.62,267.82 164.01,267.87 164.41,267.92 165.06,268.00 165.72,268.07 166.18,268.11 167.03,268.14 167.75,268.12 168.14,268.09 168.67,268.04 169.19,267.94 169.72,267.84 170.50,267.63 171.23,267.37 172.01,267.01 173.06,266.41 173.98,265.77 174.77,265.13 175.42,264.53 176.28,263.64 177.46,262.22 178.31,261.05 179.16,259.75 179.56,259.11 179.95,258.46 180.60,257.29 181.39,255.82 182.51,253.59 183.03,252.47 183.49,251.48 184.08,250.15 184.61,248.97 185.79,246.18 186.44,244.58 187.16,242.82 188.08,240.52 188.67,239.04 190.05,235.54 191.10,232.88 192.08,230.40 192.87,228.42 193.46,226.95 194.38,224.71 195.10,222.94 195.36,222.31 196.21,220.30 196.74,219.07 197.46,217.38 197.72,216.79 198.25,215.61 199.03,213.85 199.36,213.11 199.75,212.26 200.54,210.55 201.39,208.76 202.05,207.41 202.64,206.22 203.43,204.68 204.15,203.31 204.54,202.58 205.20,201.40 205.53,200.82 206.25,199.59 206.84,198.62 207.43,197.68 208.15,196.58 209.07,195.27 209.46,194.73 210.18,193.78 210.84,192.97 211.36,192.34 212.28,191.32 213.07,190.51 213.79,189.81 214.31,189.33 214.90,188.82 215.63,188.24 216.28,187.74 216.87,187.32 218.25,186.41 220.15,185.32 221.20,184.79 222.71,184.10 223.56,183.74 224.55,183.35 225.27,183.09 226.32,182.73 226.71,182.60 227.69,182.30 228.28,182.13 228.74,182.00 230.05,181.65 230.64,181.51 231.30,181.37 232.02,181.22 232.48,181.12 233.14,180.98 233.40,180.93 234.32,180.77 235.43,180.58 236.48,180.39 237.40,180.28 240.48,179.90 241.86,179.73 243.04,179.60 244.48,179.46 245.66,179.35 246.38,179.29 247.43,179.19 248.55,179.12 250.45,179.00 251.63,178.93 252.55,178.87 253.93,178.78 255.11,178.71 256.75,178.63 258.98,178.53 260.62,178.45 261.93,178.40 262.78,178.38 264.42,178.32 266.13,178.27 267.70,178.22 268.68,178.19 270.72,178.14 272.88,178.09 274.26,178.06 275.63,178.03 277.73,177.99 279.11,177.97 281.21,177.93 282.78,177.91 285.47,177.87 287.70,177.84 289.21,177.83 290.72,177.81 292.69,177.79 294.72,177.77 296.82,177.76 298.13,177.75 300.82,177.73 302.65,177.71 304.95,177.70 306.98,177.69 309.02,177.68 310.98,177.67 313.02,177.66 315.05,177.65 317.08,177.65 319.84,177.64 322.85,177.63 325.15,177.62 329.15,177.62 331.18,177.61 334.92,177.60 339.25,177.60 344.10,177.59 348.10,177.59 353.35,177.58 358.47,177.58 365.42,177.57 373.48,177.57 379.52,177.56 387.58,177.56 391.65,177.56 401.69,177.56 407.72,177.55 413.82,177.55 421.88,177.55 429.89,177.55 437.95,177.55 448.05,177.55 456.12,177.55 464.19,177.55 472.25,177.54 478.29,177.54 488.39,177.54 496.45,177.54 504.45,177.54 512.52,177.54 520.59,177.54 528.65,177.54 538.75,177.54 546.82,177.54 554.89,177.54 562.95,177.54 571.02,177.54 579.02,177.54 589.12,177.54 597.19,177.54 605.26,177.54 613.32,177.54 621.39,177.54 631.42,177.54 639.49,177.54 647.56,177.54 655.62,177.54 663.69,177.54 671.76,177.54 681.86,177.54 689.92,177.54 693.86,177.53"/>
<line x1="78" y1="266.28" x2="772" y2="266.28" stroke="#9467bd" opacity="0.18" stroke-dasharray="3 4"/>
<polyline fill="none" stroke="#9467bd" stroke-width="2.0" points="91.35,177.53 94.43,177.53 96.79,177.53 100.92,177.53 104.53,177.53 106.36,177.53 108.73,177.53 109.91,177.53 111.15,177.53 112.86,177.53 113.71,177.53 114.96,177.53 118.69,177.53 124.14,177.53 128.27,177.53 129.12,177.53 129.65,177.53 130.04,177.53 130.37,177.53 130.70,177.53 131.02,177.53 131.29,177.53 131.55,177.53 131.81,177.53 132.14,177.53 132.47,177.53 133.52,177.53 133.98,177.53 134.50,177.53 135.02,177.53 135.42,177.53 135.75,177.53 136.07,177.53 136.40,177.53 136.73,177.53 136.99,177.53 137.25,177.53 137.65,177.53 138.04,177.53 138.43,177.53 138.76,177.53 139.35,177.53 139.75,177.53 140.14,177.53 140.53,177.53 140.93,177.53 141.25,177.53 141.58,177.53 141.98,177.53 142.24,177.53 142.63,177.53 143.29,177.53 144.14,177.53 144.86,177.53 145.65,177.53 146.30,177.53 147.03,177.54 147.62,177.54 148.27,177.54 149.06,177.54 149.58,177.54 150.11,177.54 150.50,177.55 151.16,177.55 151.75,177.55 152.27,177.55 152.73,177.55 153.32,177.54 153.91,177.53 154.24,177.52 154.70,177.50 155.03,177.49 155.29,177.47 155.62,177.44 155.95,177.41 156.21,177.39 156.80,177.32 157.13,177.29 157.45,177.26 157.78,177.24 158.11,177.24 158.50,177.25 158.83,177.28 159.29,177.36 159.68,177.46 160.21,177.65 160.73,177.90 161.32,178.26 161.91,178.71 162.77,179.45 163.23,179.91 164.08,180.90 165.19,182.40 165.98,183.60 166.64,184.70 167.42,186.15 168.08,187.47 168.47,188.31 169.32,190.25 169.72,191.20 170.24,192.51 171.10,194.77 171.69,196.41 172.34,198.30 172.87,199.84 173.32,201.23 173.92,203.04 174.44,204.69 175.36,207.62 176.01,209.75 176.47,211.26 177.19,213.65 177.85,215.84 178.31,217.39 178.83,219.16 179.56,221.61 180.15,223.62 180.60,225.19 181.46,228.10 181.98,229.88 182.97,233.21 183.29,234.31 184.41,238.03 185.13,240.35 186.05,243.31 186.77,245.48 187.29,247.07 188.21,249.64 189.20,252.11 189.85,253.56 190.84,255.54 192.54,258.30 193.92,259.99 195.36,261.43 196.93,262.61 199.23,263.73 201.00,264.35 203.49,264.90 206.05,265.26 206.84,265.34 208.02,265.45 208.94,265.53 210.71,265.65 211.17,265.67 211.69,265.69 212.22,265.72 213.00,265.75 213.59,265.78 214.31,265.80 214.84,265.82 215.56,265.84 216.35,265.87 217.13,265.89 218.12,265.91 218.97,265.93 219.89,265.95 220.87,265.97 221.73,265.98 222.84,266.00 224.09,266.02 225.27,266.03 226.64,266.05 227.96,266.06 228.41,266.07 229.66,266.08 230.51,266.09 231.69,266.09 232.61,266.10 233.73,266.11 234.91,266.12 236.42,266.13 237.73,266.13 239.04,266.14 240.29,266.15 241.20,266.15 242.52,266.15 243.96,266.16 244.94,266.16 246.38,266.17 247.24,266.17 248.61,266.18 249.93,266.18 251.17,266.18 252.61,266.19 253.86,266.19 254.91,266.19 256.35,266.20 258.06,266.20 258.91,266.20 260.88,266.20 261.86,266.21 263.76,266.21 266.13,266.21 267.57,266.22 269.60,266.22 271.83,266.22 273.86,266.22 277.34,266.23 280.03,266.23 283.70,266.23 286.85,266.24 289.60,266.24 292.36,266.24 297.80,266.24 303.31,266.24 308.75,266.25 314.20,266.25 319.71,266.25 325.15,266.25 332.04,266.25 337.48,266.26 342.92,266.26 348.43,266.26 353.88,266.26 360.70,266.26 366.20,266.26 371.65,266.26 377.16,266.26 382.60,266.26 388.04,266.26 394.93,266.26 400.37,266.26 405.82,266.26 411.33,266.26 416.77,266.26 422.28,266.27 429.10,266.27 434.54,266.27 440.05,266.27 445.49,266.27 450.94,266.27 457.82,266.27 463.27,266.27 468.71,266.27 474.22,266.27 479.66,266.27 485.17,266.27 491.99,266.27 497.44,266.27 500.13,266.28"/>
<line x1="88" y1="72" x2="110" y2="72" stroke="#1f77b4" stroke-width="2.4"/>
<text x="116" y="76" font-family="Arial, sans-serif" font-size="12">rising #1</text>
<line x1="88" y1="90" x2="110" y2="90" stroke="#d62728" stroke-width="2.4"/>
<text x="116" y="94" font-family="Arial, sans-serif" font-size="12">falling #2</text>
<line x1="88" y1="108" x2="110" y2="108" stroke="#2ca02c" stroke-width="2.4"/>
<text x="116" y="112" font-family="Arial, sans-serif" font-size="12">rising #3</text>
<line x1="88" y1="126" x2="110" y2="126" stroke="#9467bd" stroke-width="2.4"/>
<text x="116" y="130" font-family="Arial, sans-serif" font-size="12">falling #4</text>
<rect x="78" y="342" width="694" height="44" fill="#fffdf7" stroke="#d8c6a1" rx="4"/>
<text x="88" y="359" font-family="Arial, sans-serif" font-size="11" font-weight="700" fill="#4b3b21">Findings needing attention</text>
<rect x="88" y="366" width="7" height="7" fill="#b54708"/>
<text x="102" y="373" font-family="Arial, sans-serif" font-size="11" fill="#333">WARN 5.5.4: Ramp dt versus V-T 20-80% evidence needs review | avg Ramp dt=3.949e-10s, avg V-T 20-80% span=3.064e-...</text>
<text x="425.00" y="322.00" text-anchor="middle" font-family="Arial, sans-serif" font-size="12">Time (s)</text>
<text x="420" y="42" font-family="Arial, sans-serif" font-size="11" fill="#555">solid=V-T voltage, faint horizontal=V_fixture</text>
</svg>