<svg xmlns="http://www.w3.org/2000/svg" width="800" height="450" viewBox="0 0 800 450">
<rect width="100%" height="100%" fill="#ffffff"/>
<text x="78" y="25" font-family="Arial, sans-serif" font-size="16" font-weight="700">E34_GPIO_I2CSCLIN_1V1_11 V-T Waveforms</text>
<rect x="78" y="54" width="694" height="230" fill="#fbfbfb" stroke="#c8c8c8"/>
<text transform="translate(18 169.00) rotate(-90)" text-anchor="middle" font-family="Arial, sans-serif" font-size="12">Voltage (V)</text>
<line x1="78.00" y1="54" x2="78.00" y2="284" stroke="#ececec"/>
<text x="78.00" y="302" text-anchor="middle" font-family="Arial, sans-serif" font-size="10">-398p</text>
<line x1="216.80" y1="54" x2="216.80" y2="284" stroke="#ececec"/>
<text x="216.80" y="302" text-anchor="middle" font-family="Arial, sans-serif" font-size="10">3.74n</text>
<line x1="355.60" y1="54" x2="355.60" y2="284" stroke="#ececec"/>
<text x="355.60" y="302" text-anchor="middle" font-family="Arial, sans-serif" font-size="10">7.89n</text>
<line x1="494.40" y1="54" x2="494.40" y2="284" stroke="#ececec"/>
<text x="494.40" y="302" text-anchor="middle" font-family="Arial, sans-serif" font-size="10">12n</text>
<line x1="633.20" y1="54" x2="633.20" y2="284" stroke="#ececec"/>
<text x="633.20" y="302" text-anchor="middle" font-family="Arial, sans-serif" font-size="10">16.2n</text>
<line x1="772.00" y1="54" x2="772.00" y2="284" stroke="#ececec"/>
<text x="772.00" y="302" text-anchor="middle" font-family="Arial, sans-serif" font-size="10">20.3n</text>
<line x1="78" y1="284.00" x2="772" y2="284.00" stroke="#ececec"/>
<text x="70" y="288.00" text-anchor="end" font-family="Arial, sans-serif" font-size="10">-0.0952</text>
<line x1="78" y1="226.50" x2="772" y2="226.50" stroke="#ececec"/>
<text x="70" y="230.50" text-anchor="end" font-family="Arial, sans-serif" font-size="10">0.227</text>
<line x1="78" y1="169.00" x2="772" y2="169.00" stroke="#ececec"/>
<text x="70" y="173.00" text-anchor="end" font-family="Arial, sans-serif" font-size="10">0.549</text>
<line x1="78" y1="111.50" x2="772" y2="111.50" stroke="#ececec"/>
<text x="70" y="115.50" text-anchor="end" font-family="Arial, sans-serif" font-size="10">0.87</text>
<line x1="78" y1="54.00" x2="772" y2="54.00" stroke="#ececec"/>
<text x="70" y="58.00" text-anchor="end" font-family="Arial, sans-serif" font-size="10">1.2</text>
<line x1="78" y1="70.49" x2="772" y2="70.49" stroke="#1f77b4" opacity="0.18" stroke-dasharray="3 4"/>
<polyline fill="none" stroke="#1f77b4" stroke-width="2.0" points="91.35,128.80 96.14,128.80 100.96,128.80 106.96,128.80 111.75,128.80 116.54,128.79 121.33,128.79 126.16,128.79 129.14,128.80 129.74,128.80 130.14,128.80 130.48,128.80 130.88,128.80 131.15,128.80 131.52,128.80 131.92,128.80 132.19,128.80 132.46,128.80 132.76,128.80 133.06,128.80 133.49,128.80 133.86,128.80 134.27,128.80 134.63,128.80 135.00,128.80 135.37,128.80 135.77,128.80 136.07,128.80 136.34,128.80 136.64,128.80 136.95,128.80 137.31,128.80 137.72,128.80 137.98,128.80 138.25,128.80 138.65,128.80 138.99,128.80 139.43,128.80 139.79,128.80 140.36,128.80 140.87,128.80 141.23,128.80 141.94,128.80 142.41,128.80 142.81,128.79 143.38,128.79 144.15,128.79 144.58,128.78 144.99,128.78 145.42,128.77 146.23,128.76 146.96,128.75 148.24,128.72 149.81,128.67 150.75,128.63 152.26,128.62 152.66,128.65 153.73,128.84 154.80,129.23 155.51,129.57 156.14,129.90 156.55,130.10 156.78,130.20 157.01,130.29 157.79,130.43 158.36,130.25 158.82,129.83 159.36,129.07 159.76,128.27 160.33,126.80 160.97,124.79 161.24,123.84 161.60,122.45 162.01,120.82 162.41,119.10 162.81,117.30 163.35,114.79 163.82,112.53 164.22,110.56 164.69,108.25 164.99,106.77 165.26,105.46 165.66,103.52 166.03,101.77 166.23,100.84 166.43,99.92 166.87,97.99 167.27,96.29 167.57,95.07 168.04,93.24 168.34,92.12 168.91,90.14 169.58,88.02 169.95,86.92 170.45,85.51 170.82,84.53 171.35,83.17 171.76,82.22 172.73,80.14 173.16,79.32 173.67,78.47 174.17,77.69 174.94,76.65 175.74,75.75 176.55,75.01 176.98,74.68 178.02,73.98 178.83,73.56 178.99,73.48 179.33,73.33 180.57,72.87 181.21,72.68 181.51,72.60 181.88,72.52 182.55,72.36 182.78,72.31 183.42,72.20 184.69,72.00 186.53,71.78 187.30,71.70 187.87,71.65 188.17,71.63 188.31,71.62 188.51,71.60 188.68,71.59 188.88,71.58 189.35,71.54 189.75,71.51 190.89,71.44 191.49,71.41 193.53,71.31 195.61,71.24 196.95,71.21 198.26,71.20 199.46,71.19 200.34,71.18 201.74,71.18 204.29,71.18 205.36,71.18 206.27,71.19 207.98,71.21 209.55,71.22 210.76,71.22 211.90,71.21 212.93,71.20 213.94,71.19 214.68,71.17 215.11,71.16 215.98,71.14 216.52,71.13 217.19,71.12 217.49,71.11 218.13,71.09 218.66,71.08 219.13,71.07 219.74,71.05 220.47,71.03 220.94,71.02 221.48,71.01 221.88,71.00 222.15,70.99 222.58,70.98 222.88,70.97 223.32,70.96 223.96,70.95 224.56,70.93 224.89,70.92 225.43,70.91 225.70,70.91 225.97,70.90 226.74,70.89 227.34,70.87 227.91,70.86 228.28,70.86 228.95,70.84 229.38,70.84 230.52,70.82 230.99,70.81 231.76,70.80 232.53,70.79 233.10,70.78 233.84,70.77 234.51,70.76 235.68,70.75 236.62,70.74 237.76,70.73 239.03,70.71 240.88,70.70 242.55,70.68 244.03,70.67 244.96,70.66 246.14,70.66 248.55,70.64 249.72,70.63 250.99,70.62 253.34,70.61 255.75,70.60 258.13,70.59 261.38,70.58 265.27,70.56 267.75,70.56 270.16,70.55 274.95,70.54 279.74,70.54 283.36,70.53 286.95,70.53 291.74,70.52 295.35,70.52 300.15,70.52 306.14,70.51 310.93,70.51 314.55,70.51 319.34,70.51 322.93,70.51 328.96,70.51 333.75,70.51 338.54,70.50 343.33,70.50 348.16,70.50 352.95,70.50 358.95,70.50 363.74,70.50 368.56,70.50 373.35,70.50 378.14,70.50 382.94,70.50 388.93,70.50 393.76,70.50 397.34,70.50 402.13,70.50 406.96,70.50 412.96,70.50 417.75,70.50 422.54,70.50 427.33,70.50 432.15,70.50 436.94,70.50 442.94,70.50 447.73,70.50 450.11,70.49"/>
<line x1="78" y1="70.49" x2="772" y2="70.49" stroke="#d62728" opacity="0.18" stroke-dasharray="3 4"/>
<polyline fill="none" stroke="#d62728" stroke-width="2.0" points="91.35,70.49 95.80,70.49 104.75,70.49 109.07,70.49 113.09,70.49 115.90,70.49 122.10,70.49 127.06,70.50 130.21,70.50 132.56,70.49 133.09,70.49 133.36,70.49 133.63,70.49 135.24,70.49 136.41,70.49 137.41,70.49 137.82,70.49 138.42,70.49 138.92,70.49 139.86,70.49 140.70,70.49 141.23,70.49 142.21,70.49 142.71,70.49 143.18,70.49 143.41,70.49 147.13,70.49 148.71,70.49 149.58,70.49 150.38,70.49 151.99,70.49 152.29,70.49 153.63,70.49 154.80,70.49 155.00,70.49 155.67,70.49 155.94,70.49 157.52,70.49 158.46,70.49 159.19,70.49 159.46,70.49 160.43,70.49 161.37,70.49 161.77,70.49 162.54,70.49 162.84,70.49 163.41,70.49 163.72,70.49 164.15,70.49 164.59,70.50 165.32,70.50 165.83,70.51 166.06,70.51 166.33,70.51 166.90,70.52 167.60,70.53 167.87,70.54 169.01,70.55 169.48,70.56 170.32,70.56 170.92,70.53 171.29,70.51 171.56,70.49 171.82,70.46 172.59,70.38 173.26,70.30 173.70,70.25 174.14,70.20 174.94,70.11 175.24,70.08 175.54,70.06 176.15,70.01 176.58,69.99 177.69,69.94 178.16,69.93 178.52,69.92 179.23,69.90 180.10,69.89 180.43,69.88 181.04,69.88 181.51,69.87 182.85,69.86 183.95,69.86 184.49,69.86 185.43,69.87 186.63,69.88 187.34,69.89 188.91,69.92 189.88,69.94 190.62,69.95 191.16,69.96 192.13,69.96 194.71,69.97 195.68,69.98 196.25,69.98 197.15,69.99 198.49,70.00 200.00,70.01 200.74,70.03 201.07,70.03 201.31,70.04 201.51,70.04 201.74,70.05 202.04,70.06 202.45,70.07 203.59,70.13 204.62,70.20 205.09,70.24 205.50,70.28 206.23,70.37 206.84,70.45 208.71,70.81 209.65,71.03 210.02,71.14 210.29,71.21 210.59,71.30 210.79,71.36 211.12,71.46 211.46,71.57 211.93,71.73 213.10,72.16 214.11,72.58 214.61,72.81 214.94,72.96 215.82,73.40 216.62,73.83 217.36,74.25 218.86,75.22 220.34,76.31 221.08,76.93 221.24,77.07 222.01,77.71 223.05,78.67 223.69,79.26 224.39,79.96 225.26,80.84 226.17,81.79 227.37,83.08 228.21,83.99 229.82,85.79 230.86,86.95 231.90,88.12 234.01,90.47 235.62,92.24 236.59,93.31 238.40,95.19 240.11,96.96 241.31,98.14 243.82,100.51 245.33,101.89 247.58,103.77 249.79,105.61 252.03,107.18 255.12,109.34 256.93,110.52 259.94,112.30 262.02,113.47 265.44,115.00 268.62,116.42 272.94,118.18 276.39,119.46 279.98,120.54 284.26,121.72 289.29,122.90 295.49,124.08 299.07,124.67 304.17,125.26 307.85,125.67 311.84,126.09 315.29,126.37 319.51,126.71 323.13,126.93 325.34,127.06 327.92,127.21 330.33,127.34 333.15,127.46 336.83,127.60 338.64,127.67 341.32,127.77 343.57,127.85 345.91,127.90 349.67,127.99 352.48,128.06 354.72,128.11 357.64,128.18 359.68,128.21 363.10,128.26 366.52,128.30 370.34,128.35 374.46,128.41 377.24,128.45 381.49,128.47 385.95,128.51 390.07,128.53 394.59,128.56 399.35,128.60 403.81,128.62 408.26,128.63 414.97,128.65 419.42,128.67 424.98,128.69 430.61,128.70 437.28,128.71 445.35,128.72 452.32,128.73 459.29,128.74 466.29,128.75 473.00,128.75 479.70,128.76 490.85,128.76 497.55,128.77 506.47,128.77 513.97,128.77 522.11,128.77 533.27,128.77 542.18,128.78 551.13,128.78 557.83,128.78 566.74,128.78 575.69,128.78 586.84,128.78 595.76,128.78 604.70,128.78 613.61,128.78 622.53,128.78 631.47,128.78 642.63,128.78 651.54,128.78 660.49,128.78 669.40,128.78 678.34,128.78 689.50,128.79 698.41,128.79 707.36,128.79 716.27,128.79 725.22,128.79 734.13,128.79 745.29,128.79 754.23,128.79 758.65,128.79"/>
<line x1="78" y1="266.99" x2="772" y2="266.99" stroke="#2ca02c" opacity="0.18" stroke-dasharray="3 4"/>
<polyline fill="none" stroke="#2ca02c" stroke-width="2.0" points="91.35,266.99 99.72,266.99 108.06,266.99 118.55,266.99 126.89,266.99 127.93,266.99 128.30,266.99 128.77,266.99 129.17,266.99 129.61,266.99 129.98,266.99 130.51,266.99 131.05,266.99 131.32,266.99 131.95,266.99 132.49,266.99 133.93,266.99 134.40,266.99 134.77,266.99 135.17,266.99 135.64,266.99 136.14,266.99 136.88,266.99 137.41,266.99 138.29,266.99 138.99,266.99 139.93,266.99 140.70,266.99 141.44,266.99 142.37,266.99 143.65,266.99 146.90,266.99 148.27,267.00 148.97,267.00 149.81,267.00 150.31,267.00 151.22,266.99 152.16,266.99 153.26,266.97 153.90,266.96 154.60,266.96 155.31,266.95 156.01,266.96 156.18,266.96 156.78,266.97 157.42,267.00 157.68,267.02 158.25,267.07 158.96,267.13 159.59,267.19 160.16,267.24 160.53,267.27 161.04,267.31 161.91,267.36 162.48,267.39 163.31,267.42 164.05,267.45 164.79,267.47 165.69,267.50 166.56,267.52 167.43,267.53 168.10,267.54 168.67,267.56 169.01,267.57 169.71,267.62 170.05,267.65 170.82,267.72 171.29,267.78 172.36,267.91 173.13,267.99 173.93,268.06 174.77,268.11 175.48,268.13 176.11,268.14 176.95,268.12 177.52,268.11 178.56,268.06 179.56,268.02 180.64,267.96 181.41,267.92 182.61,267.85 183.48,267.81 184.19,267.77 185.53,267.71 186.57,267.66 187.57,267.61 188.61,267.56 189.82,267.51 191.49,267.46 192.50,267.43 193.84,267.40 194.81,267.37 196.22,267.31 197.35,267.24 198.02,267.18 199.60,267.00 200.03,266.95 201.88,266.60 202.85,266.35 203.95,266.00 204.79,265.67 206.07,265.09 206.77,264.73 208.24,263.87 208.98,263.39 209.52,263.02 210.59,262.24 211.29,261.66 212.43,260.72 213.64,259.62 214.24,259.04 215.15,258.14 215.78,257.51 216.85,256.36 218.06,255.05 218.93,254.06 219.87,253.00 220.74,251.98 221.85,250.69 223.12,249.20 224.46,247.64 225.43,246.53 226.94,244.80 227.44,244.24 229.38,242.11 230.22,241.20 232.30,239.12 234.01,237.41 234.88,236.61 235.88,235.70 236.52,235.13 238.40,233.45 240.74,231.71 242.45,230.44 244.03,229.27 244.66,228.79 246.14,227.85 248.21,226.52 249.55,225.71 252.13,224.31 253.91,223.36 255.79,222.61 260.07,220.90 262.35,219.99 264.97,219.15 267.71,218.26 270.76,217.49 273.78,216.72 279.61,215.72 283.80,215.01 286.54,214.64 287.98,214.46 290.53,214.15 292.31,213.93 294.25,213.75 296.33,213.57 298.44,213.38 300.51,213.20 302.66,213.05 305.10,212.91 307.68,212.75 309.09,212.67 311.50,212.53 313.08,212.47 315.36,212.38 317.20,212.31 319.34,212.23 321.42,212.15 323.57,212.07 325.61,212.02 329.03,211.95 329.93,211.93 332.58,211.87 335.22,211.81 337.00,211.77 338.37,211.74 340.62,211.71 343.37,211.68 344.44,211.67 347.15,211.63 349.67,211.60 352.21,211.57 354.89,211.54 357.14,211.51 359.08,211.50 362.36,211.48 364.68,211.47 367.79,211.45 371.64,211.43 375.30,211.41 377.57,211.39 380.19,211.38 385.48,211.36 387.53,211.35 391.75,211.34 394.33,211.34 398.82,211.32 402.74,211.31 407.19,211.30 411.18,211.30 414.63,211.29 419.76,211.29 426.02,211.28 434.36,211.27 440.60,211.26 442.74,211.26 449.81,211.26 457.42,211.25 463.68,211.25 469.95,211.25 476.21,211.25 484.59,211.24 490.85,211.24 497.15,211.24 507.61,211.24 515.98,211.24 524.32,211.24 530.22,211.24 536.89,211.24 545.26,211.24 555.72,211.24 564.09,211.24 572.44,211.23 580.81,211.23 589.19,211.23 597.53,211.23 608.02,211.23 616.36,211.23 624.74,211.23 633.11,211.23 641.46,211.23 651.94,211.23 660.28,211.23 668.66,211.23 677.04,211.23 685.41,211.23 693.76,211.23 704.21,211.23 712.59,211.23 716.74,211.23"/>
<line x1="78" y1="266.99" x2="772" y2="266.99" stroke="#9467bd" opacity="0.18" stroke-dasharray="3 4"/>
<polyline fill="none" stroke="#9467bd" stroke-width="2.0" points="91.35,211.22 95.80,211.22 100.26,211.22 105.85,211.22 110.31,211.22 114.77,211.22 119.26,211.22 123.71,211.22 128.17,211.20 132.69,211.19 133.16,211.19 133.53,211.19 133.80,211.20 134.16,211.20 134.50,211.20 134.80,211.20 135.04,211.20 135.37,211.20 135.64,211.20 135.97,211.21 136.44,211.21 136.74,211.21 137.01,211.21 137.28,211.21 137.52,211.21 137.75,211.21 138.12,211.21 138.32,211.21 138.79,211.21 139.29,211.22 140.06,211.22 140.56,211.22 141.07,211.22 141.60,211.22 142.17,211.22 142.64,211.22 142.98,211.22 143.68,211.22 144.22,211.22 144.69,211.22 145.19,211.22 145.76,211.22 146.33,211.22 146.83,211.22 147.27,211.22 147.67,211.22 148.10,211.22 148.50,211.22 149.04,211.22 149.44,211.22 150.05,211.22 150.75,211.22 151.22,211.22 152.06,211.22 152.53,211.23 152.96,211.23 153.56,211.23 154.03,211.23 154.94,211.24 155.67,211.24 156.34,211.25 156.95,211.25 158.19,211.26 158.89,211.26 159.63,211.26 160.53,211.27 161.64,211.28 162.61,211.29 163.28,211.30 164.02,211.30 164.99,211.29 165.46,211.28 165.89,211.26 166.33,211.23 166.87,211.18 167.23,211.14 167.74,211.06 167.97,211.02 168.37,210.94 168.77,210.85 169.31,210.72 169.71,210.60 170.52,210.36 170.95,210.23 171.39,210.14 171.76,210.10 172.13,210.10 172.69,210.23 173.16,210.46 173.47,210.66 173.83,210.97 174.24,211.38 174.77,212.06 175.14,212.60 175.68,213.51 176.15,214.37 176.68,215.45 176.98,216.09 177.85,218.05 178.59,219.79 179.06,220.92 179.66,222.41 180.20,223.74 181.10,225.99 181.71,227.49 182.28,228.89 182.91,230.47 183.68,232.32 184.22,233.61 185.06,235.58 185.33,236.20 186.10,237.95 186.63,239.13 187.30,240.58 187.97,241.97 188.54,243.11 189.35,244.66 189.95,245.76 190.65,246.96 191.09,247.67 192.16,249.34 192.86,250.37 193.77,251.62 194.20,252.20 195.11,253.33 196.25,254.67 197.12,255.61 197.69,256.19 198.90,257.33 200.10,258.36 201.21,259.21 202.01,259.79 203.89,261.01 204.89,261.61 205.93,262.19 207.00,262.74 208.14,263.29 209.38,263.82 210.62,264.30 212.97,265.03 214.64,265.43 216.02,265.68 218.19,265.98 219.30,266.09 220.77,266.21 223.02,266.34 225.10,266.43 226.74,266.49 228.01,266.53 228.58,266.55 229.85,266.59 231.56,266.63 233.27,266.67 234.18,266.69 234.75,266.70 235.48,266.71 236.32,266.73 237.16,266.74 237.63,266.75 238.56,266.76 239.17,266.77 240.01,266.78 240.84,266.79 241.78,266.80 242.79,266.81 243.29,266.81 243.79,266.82 244.49,266.83 245.16,266.83 245.90,266.84 246.94,266.85 247.98,266.85 248.95,266.86 249.79,266.87 250.89,266.87 251.83,266.88 252.94,266.88 254.04,266.89 254.98,266.89 255.99,266.90 256.82,266.90 258.33,266.91 258.90,266.91 259.81,266.91 260.95,266.92 262.19,266.92 263.79,266.92 265.40,266.93 266.17,266.93 267.45,266.93 268.75,266.94 269.69,266.94 271.13,266.94 272.77,266.94 273.71,266.95 275.02,266.95 276.49,266.95 277.63,266.95 279.00,266.95 280.65,266.96 283.19,266.96 284.77,266.96 286.68,266.96 289.96,266.97 291.07,266.97 293.28,266.97 294.42,266.97 296.43,266.97 298.71,266.97 301.28,266.97 303.66,266.97 306.41,266.97 309.63,266.98 311.14,266.98 314.49,266.98 317.84,266.98 321.19,266.98 324.54,266.98 328.99,266.98 333.45,266.98 339.04,266.98 343.50,266.98 347.96,266.98 352.41,266.98 356.90,266.98 361.36,266.98 366.92,266.98 371.41,266.98 375.87,266.98 380.32,266.99 384.78,266.99 390.37,266.99 394.83,266.99 399.29,266.99 403.74,266.99 408.20,266.99 412.69,266.99 418.25,266.99 422.70,266.99 424.92,266.99"/>
<line x1="88" y1="72" x2="110" y2="72" stroke="#1f77b4" stroke-width="2.4"/>
<text x="116" y="76" font-family="Arial, sans-serif" font-size="12">rising #1</text>
<line x1="88" y1="90" x2="110" y2="90" stroke="#d62728" stroke-width="2.4"/>
<text x="116" y="94" font-family="Arial, sans-serif" font-size="12">falling #2</text>
<line x1="88" y1="108" x2="110" y2="108" stroke="#2ca02c" stroke-width="2.4"/>
<text x="116" y="112" font-family="Arial, sans-serif" font-size="12">rising #3</text>
<line x1="88" y1="126" x2="110" y2="126" stroke="#9467bd" stroke-width="2.4"/>
<text x="116" y="130" font-family="Arial, sans-serif" font-size="12">falling #4</text>
<rect x="78" y="342" width="694" height="44" fill="#fffdf7" stroke="#d8c6a1" rx="4"/>
<text x="88" y="359" font-family="Arial, sans-serif" font-size="11" font-weight="700" fill="#4b3b21">Findings needing attention</text>
<rect x="88" y="366" width="7" height="7" fill="#b54708"/>
<text x="102" y="373" font-family="Arial, sans-serif" font-size="11" fill="#333">WARN 5.5.4: Ramp dt versus V-T 20-80% evidence needs review | avg Ramp dt=1.235e-09s, avg V-T 20-80% span=8.162e-...</text>
<text x="425.00" y="322.00" text-anchor="middle" font-family="Arial, sans-serif" font-size="12">Time (s)</text>
<text x="420" y="42" font-family="Arial, sans-serif" font-size="11" fill="#555">solid=V-T voltage, faint horizontal=V_fixture</text>
</svg>