<svg xmlns="http://www.w3.org/2000/svg" width="800" height="450" viewBox="0 0 800 450">
<rect width="100%" height="100%" fill="#ffffff"/>
<text x="78" y="25" font-family="Arial, sans-serif" font-size="16" font-weight="700">E34_GPIO_1V1TO1V8_1v1_00 V-T Waveforms</text>
<rect x="78" y="54" width="694" height="230" fill="#fbfbfb" stroke="#c8c8c8"/>
<text transform="translate(18 169.00) rotate(-90)" text-anchor="middle" font-family="Arial, sans-serif" font-size="12">Voltage (V)</text>
<line x1="78.00" y1="54" x2="78.00" y2="284" stroke="#ececec"/>
<text x="78.00" y="302" text-anchor="middle" font-family="Arial, sans-serif" font-size="10">-353p</text>
<line x1="216.80" y1="54" x2="216.80" y2="284" stroke="#ececec"/>
<text x="216.80" y="302" text-anchor="middle" font-family="Arial, sans-serif" font-size="10">3.32n</text>
<line x1="355.60" y1="54" x2="355.60" y2="284" stroke="#ececec"/>
<text x="355.60" y="302" text-anchor="middle" font-family="Arial, sans-serif" font-size="10">6.98n</text>
<line x1="494.40" y1="54" x2="494.40" y2="284" stroke="#ececec"/>
<text x="494.40" y="302" text-anchor="middle" font-family="Arial, sans-serif" font-size="10">10.7n</text>
<line x1="633.20" y1="54" x2="633.20" y2="284" stroke="#ececec"/>
<text x="633.20" y="302" text-anchor="middle" font-family="Arial, sans-serif" font-size="10">14.3n</text>
<line x1="772.00" y1="54" x2="772.00" y2="284" stroke="#ececec"/>
<text x="772.00" y="302" text-anchor="middle" font-family="Arial, sans-serif" font-size="10">18n</text>
<line x1="78" y1="284.00" x2="772" y2="284.00" stroke="#ececec"/>
<text x="70" y="288.00" text-anchor="end" font-family="Arial, sans-serif" font-size="10">-0.0916</text>
<line x1="78" y1="226.50" x2="772" y2="226.50" stroke="#ececec"/>
<text x="70" y="230.50" text-anchor="end" font-family="Arial, sans-serif" font-size="10">0.229</text>
<line x1="78" y1="169.00" x2="772" y2="169.00" stroke="#ececec"/>
<text x="70" y="173.00" text-anchor="end" font-family="Arial, sans-serif" font-size="10">0.55</text>
<line x1="78" y1="111.50" x2="772" y2="111.50" stroke="#ececec"/>
<text x="70" y="115.50" text-anchor="end" font-family="Arial, sans-serif" font-size="10">0.871</text>
<line x1="78" y1="54.00" x2="772" y2="54.00" stroke="#ececec"/>
<text x="70" y="58.00" text-anchor="end" font-family="Arial, sans-serif" font-size="10">1.2</text>
<line x1="78" y1="70.41" x2="772" y2="70.41" stroke="#1f77b4" opacity="0.18" stroke-dasharray="3 4"/>
<polyline fill="none" stroke="#1f77b4" stroke-width="2.0" points="91.35,84.33 96.11,84.33 98.54,84.33 104.51,84.33 108.11,84.33 112.88,84.33 115.26,84.33 117.30,84.32 118.70,84.32 122.45,84.31 125.63,84.31 126.19,84.31 126.61,84.32 126.91,84.32 127.33,84.32 127.67,84.32 129.64,84.32 130.77,84.32 131.49,84.32 132.25,84.32 132.78,84.32 133.19,84.32 133.69,84.33 134.07,84.33 134.25,84.33 134.71,84.33 135.01,84.33 135.24,84.33 135.58,84.33 136.03,84.33 136.34,84.33 136.64,84.33 136.90,84.33 137.17,84.33 137.43,84.33 137.74,84.33 138.00,84.33 138.38,84.33 138.79,84.33 139.02,84.33 139.32,84.33 139.82,84.33 140.08,84.33 140.23,84.33 140.46,84.33 140.99,84.33 141.48,84.33 141.71,84.33 142.16,84.33 142.50,84.33 142.77,84.33 143.15,84.33 143.98,84.33 144.77,84.33 145.61,84.33 146.36,84.33 146.89,84.33 147.16,84.33 148.78,84.33 149.96,84.32 151.17,84.32 153.44,84.30 154.31,84.28 154.72,84.28 155.07,84.27 155.56,84.26 155.90,84.26 156.43,84.24 156.81,84.23 156.96,84.23 157.26,84.22 158.32,84.19 158.77,84.18 159.00,84.17 159.79,84.17 160.51,84.19 161.19,84.26 161.99,84.40 162.82,84.62 163.73,84.95 163.88,85.01 164.15,85.12 164.45,85.25 164.64,85.32 165.05,85.48 165.62,85.67 166.19,85.77 166.68,85.76 166.87,85.72 167.36,85.51 167.63,85.33 167.97,85.02 168.27,84.68 168.65,84.18 168.91,83.78 169.18,83.34 169.44,82.88 169.78,82.24 170.20,81.44 170.39,81.06 170.65,80.54 171.03,79.79 171.34,79.21 171.71,78.50 172.17,77.70 172.58,77.03 172.89,76.57 173.19,76.15 173.57,75.66 174.06,75.09 174.51,74.61 175.01,74.15 175.31,73.90 175.65,73.63 176.07,73.33 176.41,73.11 176.78,72.88 177.09,72.71 177.47,72.51 177.84,72.33 178.26,72.15 178.68,71.98 179.47,71.73 180.00,71.59 181.06,71.37 181.89,71.24 182.69,71.14 183.90,71.03 184.28,71.00 184.99,70.95 186.55,70.87 187.15,70.85 188.02,70.82 188.36,70.81 188.82,70.80 190.33,70.76 191.20,70.75 193.02,70.72 193.70,70.71 195.89,70.70 197.78,70.68 199.37,70.67 203.46,70.64 204.59,70.64 205.47,70.63 207.36,70.62 208.57,70.61 209.36,70.60 211.18,70.59 212.05,70.59 215.11,70.58 216.97,70.58 219.12,70.59 220.94,70.60 221.47,70.61 222.49,70.61 223.48,70.62 224.42,70.63 225.41,70.64 226.50,70.65 228.05,70.66 230.10,70.67 232.48,70.67 233.12,70.67 234.11,70.67 234.79,70.66 235.24,70.66 235.62,70.66 236.04,70.66 236.42,70.65 237.02,70.65 237.36,70.65 237.82,70.64 238.31,70.64 238.65,70.63 239.14,70.63 239.67,70.63 240.12,70.62 240.65,70.62 241.07,70.61 241.68,70.61 242.32,70.60 242.92,70.60 243.64,70.60 244.44,70.59 245.19,70.58 246.18,70.58 247.65,70.57 248.45,70.56 249.24,70.56 250.38,70.55 251.63,70.55 253.06,70.54 255.11,70.53 256.39,70.52 258.44,70.51 261.20,70.50 263.58,70.49 266.08,70.49 268.69,70.48 270.77,70.48 274.90,70.47 277.92,70.46 282.73,70.45 286.32,70.45 291.09,70.44 294.69,70.44 298.28,70.44 301.95,70.43 307.85,70.43 311.45,70.43 313.83,70.43 318.60,70.42 323.41,70.42 328.29,70.42 332.98,70.42 337.75,70.42 342.55,70.42 347.32,70.42 352.09,70.42 358.06,70.42 362.87,70.42 367.64,70.42 372.44,70.42 377.21,70.42 380.81,70.42 386.78,70.42 391.59,70.42 396.36,70.42 401.16,70.42 405.93,70.42 411.91,70.42 416.68,70.42 421.48,70.42 426.25,70.42 431.05,70.42 435.82,70.42 441.80,70.42 446.61,70.42 448.95,70.41"/>
<line x1="78" y1="70.41" x2="772" y2="70.41" stroke="#d62728" opacity="0.18" stroke-dasharray="3 4"/>
<polyline fill="none" stroke="#d62728" stroke-width="2.0" points="91.35,70.41 100.28,70.41 109.21,70.41 119.01,70.41 127.07,70.42 133.76,70.43 139.97,70.42 140.54,70.42 142.16,70.42 143.37,70.42 144.92,70.42 145.87,70.41 151.62,70.42 156.09,70.42 157.60,70.41 157.98,70.41 158.21,70.41 158.89,70.41 159.04,70.41 159.45,70.41 160.17,70.41 162.78,70.41 165.09,70.41 165.74,70.41 166.27,70.41 166.98,70.41 169.48,70.41 171.56,70.41 172.21,70.41 173.30,70.41 174.44,70.42 175.54,70.44 176.14,70.45 176.71,70.46 177.24,70.47 177.73,70.48 177.99,70.49 178.52,70.50 179.13,70.51 179.36,70.51 180.53,70.51 180.76,70.51 181.02,70.50 181.67,70.46 182.16,70.41 182.80,70.34 183.07,70.31 183.90,70.21 185.18,70.05 186.24,69.95 186.47,69.94 187.68,69.88 189.16,69.86 190.59,69.88 191.77,69.91 193.17,69.93 194.27,69.94 196.04,69.94 198.24,69.92 200.43,69.90 201.53,69.89 202.40,69.89 204.03,69.89 205.16,69.91 206.79,69.94 207.39,69.95 207.77,69.96 208.15,69.97 209.63,70.01 210.31,70.03 211.63,70.06 212.05,70.07 213.03,70.10 213.71,70.12 215.38,70.17 219.24,70.28 221.58,70.37 222.26,70.40 222.79,70.42 223.21,70.44 223.36,70.44 223.59,70.46 223.85,70.47 224.27,70.50 224.54,70.51 225.25,70.55 226.28,70.62 226.58,70.65 227.22,70.71 227.86,70.77 228.09,70.79 228.70,70.84 229.04,70.87 229.91,70.95 230.32,70.99 230.78,71.03 231.46,71.11 232.86,71.28 234.18,71.45 235.02,71.56 236.42,71.77 238.08,72.04 239.67,72.32 241.94,72.76 243.11,73.00 244.02,73.19 244.63,73.32 245.35,73.47 245.61,73.53 246.33,73.69 246.67,73.76 247.50,73.95 247.99,74.06 248.52,74.18 249.85,74.48 250.53,74.63 251.74,74.90 252.50,75.07 253.29,75.25 254.20,75.45 254.54,75.53 255.49,75.74 256.28,75.91 256.55,75.97 257.00,76.06 257.53,76.18 258.02,76.28 258.78,76.45 259.12,76.52 259.80,76.66 260.97,76.91 263.39,77.39 264.76,77.65 265.44,77.78 266.35,77.96 268.69,78.36 270.66,78.68 274.18,79.27 276.60,79.62 279.21,79.99 281.25,80.27 284.81,80.66 285.98,80.79 289.31,81.14 292.23,81.44 293.25,81.53 294.08,81.60 294.99,81.67 296.69,81.82 297.60,81.90 298.47,81.97 299.76,82.07 301.46,82.17 303.28,82.28 303.62,82.30 304.22,82.34 305.74,82.43 306.64,82.48 308.01,82.56 308.61,82.60 309.22,82.63 310.09,82.68 310.50,82.71 311.07,82.74 316.78,82.99 321.10,83.17 325.22,83.31 329.16,83.43 332.41,83.52 336.04,83.61 341.42,83.69 345.77,83.76 348.34,83.80 350.91,83.83 352.58,83.86 354.74,83.89 359.16,83.95 362.87,83.98 365.67,84.01 368.17,84.03 370.32,84.05 374.26,84.08 377.02,84.10 380.28,84.12 383.87,84.13 387.50,84.14 390.42,84.15 394.88,84.17 397.64,84.18 400.41,84.18 403.81,84.19 407.33,84.21 412.02,84.22 415.31,84.23 419.44,84.24 423.56,84.25 427.46,84.25 431.39,84.26 437.30,84.26 441.76,84.27 446.23,84.28 451.56,84.28 457.09,84.29 463.48,84.29 468.55,84.30 474.23,84.30 479.71,84.30 486.41,84.30 493.11,84.30 499.99,84.31 507.41,84.31 515.39,84.31 522.09,84.31 528.79,84.32 539.95,84.32 546.65,84.32 555.58,84.32 562.28,84.32 571.21,84.32 580.14,84.32 589.06,84.32 597.99,84.32 606.92,84.32 615.85,84.32 624.78,84.32 632.99,84.32 642.64,84.32 651.57,84.32 660.50,84.32 669.43,84.32 678.32,84.32 689.49,84.32 698.42,84.32 707.35,84.33 716.28,84.33 725.21,84.33 734.13,84.33 745.30,84.33 754.23,84.33 758.65,84.33"/>
<line x1="78" y1="267.59" x2="772" y2="267.59" stroke="#2ca02c" opacity="0.18" stroke-dasharray="3 4"/>
<polyline fill="none" stroke="#2ca02c" stroke-width="2.0" points="91.35,267.59 99.48,267.59 107.62,267.59 117.76,267.59 125.89,267.58 129.71,267.58 130.28,267.58 130.70,267.58 130.92,267.58 131.98,267.59 132.36,267.59 132.82,267.59 133.46,267.59 133.72,267.59 134.03,267.59 134.25,267.59 134.48,267.59 134.71,267.59 134.97,267.59 135.28,267.59 136.07,267.59 136.49,267.59 136.71,267.59 137.24,267.59 137.74,267.59 138.04,267.59 138.49,267.59 138.83,267.59 139.21,267.59 139.55,267.59 139.93,267.59 140.50,267.59 140.95,267.59 141.52,267.59 142.09,267.59 143.37,267.59 144.17,267.59 146.21,267.59 150.26,267.59 154.76,267.59 156.92,267.59 158.92,267.59 159.76,267.58 160.97,267.57 162.22,267.55 162.82,267.54 163.47,267.53 164.15,267.53 164.90,267.54 165.47,267.56 165.89,267.58 166.08,267.59 166.68,267.64 167.02,267.67 167.32,267.70 167.89,267.76 168.31,267.81 168.72,267.85 169.10,267.88 169.97,267.96 170.24,267.98 170.69,268.02 171.26,268.06 171.71,268.08 172.28,268.11 172.77,268.13 173.04,268.14 173.45,268.14 173.64,268.14 174.06,268.12 174.67,268.10 175.12,268.07 175.65,268.03 176.07,268.00 176.71,267.95 177.47,267.89 178.11,267.84 178.52,267.82 179.21,267.78 179.96,267.76 180.49,267.75 181.29,267.73 181.74,267.73 182.50,267.73 183.18,267.73 184.09,267.72 185.07,267.72 186.89,267.73 188.44,267.73 190.14,267.73 191.24,267.73 193.43,267.72 195.70,267.72 198.81,267.72 201.08,267.71 203.12,267.71 206.49,267.70 208.26,267.69 213.34,267.67 216.14,267.66 218.44,267.66 219.88,267.64 221.39,267.62 223.44,267.54 224.38,267.49 225.71,267.38 227.26,267.19 228.36,266.98 229.57,266.75 230.17,266.59 231.01,266.38 231.57,266.23 231.91,266.14 232.18,266.07 233.58,265.65 234.11,265.48 235.55,264.99 236.04,264.82 236.98,264.49 237.66,264.24 238.69,263.88 239.75,263.50 240.43,263.25 241.30,262.94 241.71,262.80 242.36,262.58 243.23,262.29 243.76,262.11 245.04,261.67 245.99,261.35 246.56,261.17 248.11,260.68 249.70,260.18 250.72,259.88 251.74,259.59 252.23,259.45 253.41,259.11 254.16,258.90 254.81,258.74 255.94,258.46 257.08,258.19 257.98,257.96 259.99,257.47 262.18,257.03 264.61,256.53 266.31,256.20 269.26,255.70 270.24,255.54 272.40,255.20 275.99,254.71 278.30,254.42 281.71,254.04 283.30,253.88 288.44,253.42 290.49,253.30 294.84,253.05 298.62,252.83 300.82,252.72 306.76,252.48 310.81,252.34 316.75,252.22 322.99,252.09 327.08,252.00 331.12,251.95 335.21,251.90 337.22,251.88 339.26,251.85 341.68,251.83 344.56,251.79 347.39,251.78 349.55,251.77 352.99,251.75 355.15,251.75 357.54,251.74 359.01,251.73 360.75,251.72 363.55,251.71 365.67,251.70 367.75,251.69 369.76,251.68 372.14,251.67 375.24,251.66 376.72,251.65 378.72,251.65 381.56,251.64 383.98,251.64 385.57,251.63 388.79,251.63 391.93,251.62 394.12,251.62 396.89,251.61 400.22,251.61 403.24,251.60 406.31,251.60 410.39,251.59 412.14,251.59 415.81,251.59 419.70,251.59 424.62,251.59 428.67,251.58 430.71,251.58 434.76,251.58 439.19,251.58 444.94,251.58 451.03,251.57 454.63,251.57 459.17,251.57 465.26,251.57 469.31,251.57 477.44,251.57 479.49,251.57 486.68,251.56 493.71,251.56 499.81,251.56 505.37,251.56 511.99,251.56 519.41,251.56 524.89,251.56 530.26,251.56 538.40,251.56 546.54,251.56 554.67,251.56 562.81,251.56 570.64,251.56 577.03,251.56 583.12,251.56 593.26,251.56 601.40,251.56 609.54,251.56 617.67,251.56 625.81,251.56 635.95,251.56 644.08,251.56 652.22,251.56 660.35,251.56 668.45,251.56 676.58,251.56 686.76,251.56 694.90,251.56 698.91,251.56"/>
<line x1="78" y1="267.59" x2="772" y2="267.59" stroke="#9467bd" opacity="0.18" stroke-dasharray="3 4"/>
<polyline fill="none" stroke="#9467bd" stroke-width="2.0" points="91.35,251.56 95.62,251.56 99.86,251.55 105.19,251.55 109.47,251.56 113.71,251.56 117.98,251.56 122.26,251.56 126.50,251.56 130.17,251.56 131.83,251.56 134.59,251.56 135.47,251.55 137.17,251.55 137.62,251.55 137.92,251.55 138.30,251.55 138.57,251.55 138.83,251.55 139.10,251.55 139.44,251.55 139.70,251.55 140.04,251.55 140.27,251.55 140.57,251.55 140.80,251.55 141.18,251.55 141.44,251.55 141.75,251.55 142.01,251.55 142.28,251.55 142.65,251.55 142.99,251.55 143.26,251.56 143.52,251.56 143.79,251.56 144.09,251.56 144.47,251.56 144.74,251.56 145.04,251.56 145.42,251.56 145.76,251.56 146.21,251.56 146.63,251.56 146.89,251.56 147.31,251.56 147.61,251.56 147.91,251.56 148.41,251.56 148.75,251.56 149.16,251.56 149.50,251.56 149.84,251.56 150.45,251.56 150.83,251.56 151.21,251.56 151.62,251.56 152.08,251.56 152.64,251.56 153.17,251.56 153.78,251.56 154.27,251.56 155.10,251.56 155.82,251.55 156.99,251.55 157.64,251.55 158.32,251.55 158.96,251.56 160.21,251.56 160.89,251.56 162.10,251.57 163.39,251.57 164.87,251.58 166.98,251.60 168.42,251.60 170.99,251.63 172.58,251.64 173.38,251.65 173.76,251.65 174.29,251.65 174.67,251.64 175.23,251.63 175.54,251.62 175.84,251.60 176.25,251.57 176.75,251.53 177.16,251.48 177.65,251.40 178.07,251.33 178.52,251.24 178.83,251.17 179.36,251.03 179.81,250.90 180.27,250.76 180.95,250.54 181.21,250.46 181.67,250.34 182.19,250.25 183.03,250.27 183.63,250.43 183.90,250.54 184.16,250.67 184.58,250.93 185.03,251.28 185.41,251.62 185.75,251.96 186.17,252.41 186.55,252.85 186.92,253.31 187.34,253.83 187.91,254.56 188.44,255.25 188.85,255.78 189.38,256.45 189.99,257.18 190.44,257.72 190.90,258.23 191.43,258.81 191.96,259.37 192.56,259.97 193.24,260.62 193.66,261.00 194.23,261.50 194.87,262.04 195.55,262.58 196.23,263.08 196.99,263.60 197.52,263.94 198.43,264.46 199.15,264.82 200.02,265.19 201.38,265.68 202.17,265.91 203.23,266.16 205.35,266.52 206.41,266.67 207.47,266.79 209.63,266.98 210.95,267.07 213.86,267.21 214.96,267.25 217.08,267.32 220.26,267.38 222.61,267.41 225.59,267.44 227.75,267.45 230.93,267.47 235.21,267.49 239.41,267.50 240.50,267.50 241.90,267.50 242.85,267.51 243.76,267.51 244.74,267.51 245.84,267.51 246.71,267.51 247.46,267.52 248.22,267.52 248.71,267.52 249.96,267.52 251.17,267.52 251.63,267.52 252.38,267.53 253.22,267.53 254.12,267.53 254.99,267.53 255.75,267.53 256.47,267.53 257.04,267.53 257.64,267.53 258.59,267.54 259.12,267.54 259.69,267.54 260.10,267.54 260.78,267.54 261.43,267.54 262.11,267.54 262.68,267.54 263.28,267.54 263.70,267.54 264.30,267.54 264.95,267.54 265.29,267.54 266.04,267.55 266.50,267.55 267.10,267.55 268.01,267.55 268.77,267.55 269.64,267.55 270.24,267.55 270.92,267.55 271.49,267.55 272.82,267.55 273.91,267.55 274.75,267.56 275.69,267.56 276.26,267.56 277.58,267.56 278.95,267.56 279.93,267.56 280.84,267.56 282.09,267.56 282.96,267.56 284.70,267.56 286.32,267.56 287.65,267.57 289.20,267.57 291.58,267.57 293.63,267.57 295.44,267.57 297.22,267.57 299.11,267.57 301.27,267.57 303.39,267.57 306.57,267.57 308.72,267.58 311.90,267.58 314.48,267.58 318.30,267.58 322.57,267.58 327.91,267.58 332.15,267.58 336.42,267.58 340.70,267.58 344.94,267.58 349.21,267.58 354.55,267.58 358.78,267.58 363.06,267.58 367.34,267.58 371.57,267.58 376.91,267.58 381.18,267.58 385.42,267.58 389.70,267.58 393.97,267.59 398.21,267.59 403.55,267.59 407.82,267.59 409.90,267.59"/>
<line x1="88" y1="72" x2="110" y2="72" stroke="#1f77b4" stroke-width="2.4"/>
<text x="116" y="76" font-family="Arial, sans-serif" font-size="12">rising #1</text>
<line x1="88" y1="90" x2="110" y2="90" stroke="#d62728" stroke-width="2.4"/>
<text x="116" y="94" font-family="Arial, sans-serif" font-size="12">falling #2</text>
<line x1="88" y1="108" x2="110" y2="108" stroke="#2ca02c" stroke-width="2.4"/>
<text x="116" y="112" font-family="Arial, sans-serif" font-size="12">rising #3</text>
<line x1="88" y1="126" x2="110" y2="126" stroke="#9467bd" stroke-width="2.4"/>
<text x="116" y="130" font-family="Arial, sans-serif" font-size="12">falling #4</text>
<rect x="78" y="342" width="694" height="44" fill="#fffdf7" stroke="#d8c6a1" rx="4"/>
<text x="88" y="359" font-family="Arial, sans-serif" font-size="11" font-weight="700" fill="#4b3b21">Findings needing attention</text>
<rect x="88" y="366" width="7" height="7" fill="#b54708"/>
<text x="102" y="373" font-family="Arial, sans-serif" font-size="11" fill="#333">WARN 5.5.4: Ramp dt versus V-T 20-80% evidence needs review | avg Ramp dt=1.159e-09s, avg V-T 20-80% span=6.876e-...</text>
<text x="425.00" y="322.00" text-anchor="middle" font-family="Arial, sans-serif" font-size="12">Time (s)</text>
<text x="420" y="42" font-family="Arial, sans-serif" font-size="11" fill="#555">solid=V-T voltage, faint horizontal=V_fixture</text>
</svg>