<svg xmlns="http://www.w3.org/2000/svg" width="800" height="450" viewBox="0 0 800 450">
<rect width="100%" height="100%" fill="#ffffff"/>
<text x="78" y="25" font-family="Arial, sans-serif" font-size="16" font-weight="700">E34_GPIO_SPI_I3C_MST_1V2_10 V-T Waveforms</text>
<rect x="78" y="54" width="694" height="230" fill="#fbfbfb" stroke="#c8c8c8"/>
<text transform="translate(18 169.00) rotate(-90)" text-anchor="middle" font-family="Arial, sans-serif" font-size="12">Voltage (V)</text>
<line x1="78.00" y1="54" x2="78.00" y2="284" stroke="#ececec"/>
<text x="78.00" y="302" text-anchor="middle" font-family="Arial, sans-serif" font-size="10">-780p</text>
<line x1="216.80" y1="54" x2="216.80" y2="284" stroke="#ececec"/>
<text x="216.80" y="302" text-anchor="middle" font-family="Arial, sans-serif" font-size="10">7.33n</text>
<line x1="355.60" y1="54" x2="355.60" y2="284" stroke="#ececec"/>
<text x="355.60" y="302" text-anchor="middle" font-family="Arial, sans-serif" font-size="10">15.4n</text>
<line x1="494.40" y1="54" x2="494.40" y2="284" stroke="#ececec"/>
<text x="494.40" y="302" text-anchor="middle" font-family="Arial, sans-serif" font-size="10">23.5n</text>
<line x1="633.20" y1="54" x2="633.20" y2="284" stroke="#ececec"/>
<text x="633.20" y="302" text-anchor="middle" font-family="Arial, sans-serif" font-size="10">31.7n</text>
<line x1="772.00" y1="54" x2="772.00" y2="284" stroke="#ececec"/>
<text x="772.00" y="302" text-anchor="middle" font-family="Arial, sans-serif" font-size="10">39.8n</text>
<line x1="78" y1="284.00" x2="772" y2="284.00" stroke="#ececec"/>
<text x="70" y="288.00" text-anchor="end" font-family="Arial, sans-serif" font-size="10">-0.105</text>
<line x1="78" y1="226.50" x2="772" y2="226.50" stroke="#ececec"/>
<text x="70" y="230.50" text-anchor="end" font-family="Arial, sans-serif" font-size="10">0.248</text>
<line x1="78" y1="169.00" x2="772" y2="169.00" stroke="#ececec"/>
<text x="70" y="173.00" text-anchor="end" font-family="Arial, sans-serif" font-size="10">0.602</text>
<line x1="78" y1="111.50" x2="772" y2="111.50" stroke="#ececec"/>
<text x="70" y="115.50" text-anchor="end" font-family="Arial, sans-serif" font-size="10">0.955</text>
<line x1="78" y1="54.00" x2="772" y2="54.00" stroke="#ececec"/>
<text x="70" y="58.00" text-anchor="end" font-family="Arial, sans-serif" font-size="10">1.3</text>
<line x1="78" y1="71.74" x2="772" y2="71.74" stroke="#1f77b4" opacity="0.18" stroke-dasharray="3 4"/>
<polyline fill="none" stroke="#1f77b4" stroke-width="2.0" points="91.35,207.35 92.72,207.35 94.08,207.35 95.78,207.35 96.81,207.35 97.83,207.37 99.20,207.34 100.01,207.29 100.16,207.27 100.54,207.25 100.90,207.22 101.19,207.21 101.36,207.20 101.58,207.20 101.84,207.21 101.98,207.23 102.22,207.29 102.32,207.32 102.47,207.38 102.61,207.46 102.78,207.56 102.92,207.66 103.02,207.74 103.12,207.83 103.24,207.95 103.33,208.04 103.48,208.20 103.62,208.36 103.79,208.57 103.93,208.74 104.03,208.87 104.20,209.09 104.30,209.22 104.41,209.35 104.49,209.46 104.58,209.57 104.73,209.77 104.89,209.95 105.01,210.09 105.13,210.23 105.31,210.42 105.45,210.55 105.66,210.70 105.78,210.77 105.91,210.82 106.03,210.84 106.20,210.83 106.29,210.80 106.44,210.71 106.58,210.58 106.73,210.37 106.91,210.05 107.01,209.80 107.25,209.11 107.45,208.33 107.74,206.89 107.90,206.00 108.14,204.36 108.27,203.25 108.62,200.14 108.82,197.93 109.04,195.24 109.25,192.47 109.51,188.63 109.78,184.14 109.92,181.76 110.11,178.33 110.31,174.39 110.38,173.04 110.57,169.26 110.77,164.98 110.98,160.62 111.18,156.17 111.36,152.40 111.54,148.21 111.73,144.00 111.97,138.62 112.16,134.40 112.35,130.20 112.57,125.30 112.69,122.70 112.83,119.76 112.95,117.22 113.12,113.66 113.27,110.55 113.38,108.53 113.48,106.55 113.70,102.46 113.87,99.51 114.04,96.77 114.21,94.20 114.44,91.18 114.61,89.08 114.74,87.56 114.93,85.67 115.05,84.59 115.19,83.47 115.29,82.70 115.55,81.02 115.74,79.99 115.93,79.11 116.13,78.29 116.27,77.81 116.44,77.29 116.83,76.33 116.97,76.05 117.31,75.48 117.89,74.79 118.20,74.52 118.75,74.15 119.33,73.81 119.55,73.69 119.85,73.54 120.74,73.13 121.40,72.87 122.21,72.63 122.58,72.54 123.35,72.39 123.51,72.37 123.68,72.34 123.83,72.32 124.48,72.23 125.15,72.16 126.25,72.08 126.61,72.06 127.00,72.03 127.51,72.01 127.82,71.99 128.20,71.98 128.51,71.97 128.90,71.95 129.17,71.94 129.53,71.93 129.88,71.93 130.27,71.92 130.63,71.91 130.90,71.90 131.26,71.89 131.64,71.89 131.79,71.89 132.07,71.88 132.27,71.88 132.67,71.87 132.92,71.87 133.25,71.86 133.57,71.86 134.02,71.85 134.12,71.85 134.45,71.85 134.72,71.84 135.06,71.84 135.39,71.84 135.68,71.83 136.07,71.83 136.41,71.83 136.76,71.83 137.13,71.82 137.44,71.82 137.78,71.82 138.13,71.82 138.42,71.81 138.74,71.81 139.15,71.81 139.46,71.81 139.91,71.81 140.42,71.80 140.81,71.80 141.05,71.80 141.12,71.80 141.19,71.80 141.28,71.80 141.53,71.80 141.82,71.80 142.23,71.79 142.42,71.79 142.63,71.79 142.82,71.79 143.14,71.79 143.41,71.79 143.59,71.79 143.95,71.79 144.27,71.79 144.90,71.78 145.30,71.78 145.64,71.78 145.78,71.78 146.77,71.78 147.69,71.78 148.04,71.78 148.48,71.77 148.62,71.77 149.05,71.77 149.54,71.77 149.71,71.77 149.78,71.77 149.88,71.77 150.21,71.77 150.57,71.77 151.78,71.77 152.47,71.77 153.12,71.77 153.84,71.76 154.76,71.76 155.53,71.76 156.22,71.76 156.49,71.76 157.16,71.76 157.93,71.76 158.61,71.76 159.30,71.76 159.76,71.76 160.82,71.76 161.35,71.76 162.38,71.76 164.07,71.75 165.10,71.75 165.87,71.75 166.81,71.75 167.50,71.75 168.18,71.75 169.55,71.75 170.56,71.75 171.59,71.75 172.96,71.75 174.02,71.75 175.35,71.75 177.05,71.75 178.42,71.75 179.79,71.75 181.16,71.75 182.53,71.75 183.88,71.75 185.25,71.75 186.27,71.75 187.64,71.75 189.01,71.75 190.37,71.75 191.55,71.75 192.76,71.75 193.43,71.74"/>
<line x1="78" y1="71.74" x2="772" y2="71.74" stroke="#d62728" opacity="0.18" stroke-dasharray="3 4"/>
<polyline fill="none" stroke="#d62728" stroke-width="2.0" points="91.35,71.74 96.10,71.74 99.01,71.74 99.73,71.74 100.09,71.74 100.88,71.74 101.92,71.73 102.66,71.73 103.52,71.73 104.46,71.73 105.24,71.75 105.43,71.75 105.67,71.76 105.83,71.77 105.95,71.78 106.05,71.79 106.19,71.80 106.34,71.81 106.43,71.81 106.53,71.82 106.65,71.82 106.75,71.83 106.97,71.84 107.13,71.85 107.23,71.86 107.40,71.86 107.66,71.87 107.83,71.88 107.97,71.88 108.10,71.88 108.34,71.89 108.62,71.89 108.72,71.88 108.91,71.88 109.08,71.87 109.28,71.84 109.39,71.83 109.63,71.78 109.88,71.72 110.11,71.64 110.33,71.56 110.47,71.50 110.67,71.41 110.84,71.33 110.98,71.27 111.30,71.12 111.51,71.03 111.65,70.97 111.90,70.86 112.02,70.81 112.16,70.75 112.30,70.70 112.43,70.65 112.66,70.57 112.79,70.52 112.95,70.47 113.20,70.39 113.46,70.31 113.61,70.27 113.85,70.20 114.13,70.13 114.32,70.08 114.56,70.03 114.92,69.95 115.17,69.90 115.38,69.88 115.65,69.86 116.03,69.90 116.34,70.02 116.64,70.25 116.85,70.48 117.04,70.75 117.29,71.25 117.60,72.06 117.98,73.42 118.34,75.07 118.58,76.37 118.75,77.41 118.99,79.00 119.18,80.37 119.57,83.56 119.95,86.89 120.19,89.14 120.39,91.11 120.75,94.71 121.27,100.05 121.78,105.53 122.33,111.42 122.64,114.72 123.01,118.74 123.47,123.56 123.73,126.19 124.19,130.85 124.57,134.48 125.01,138.68 125.46,142.70 125.77,145.44 126.09,148.24 126.59,152.36 127.00,155.64 127.39,158.66 128.04,163.37 128.42,165.93 128.95,169.35 129.31,171.54 129.84,174.57 130.32,177.13 130.66,178.85 130.75,179.26 130.92,180.08 131.01,180.48 131.23,181.50 131.48,182.63 131.86,184.19 132.15,185.34 132.53,186.75 132.65,187.17 132.79,187.65 133.28,189.29 133.66,190.44 133.92,191.17 133.98,191.36 134.24,192.07 134.36,192.39 134.63,193.10 134.74,193.35 134.87,193.69 135.01,194.02 135.15,194.34 135.49,195.10 135.90,195.95 136.36,196.85 136.64,197.33 137.78,199.11 139.02,200.69 139.85,201.52 140.08,201.74 140.97,202.48 142.06,203.23 142.83,203.69 143.19,203.88 143.55,204.06 144.27,204.39 144.66,204.56 145.45,204.85 146.34,205.15 146.62,205.23 146.86,205.30 147.03,205.35 147.27,205.41 147.47,205.46 147.73,205.53 148.07,205.61 148.43,205.69 148.76,205.76 149.01,205.81 149.35,205.87 149.73,205.94 150.04,205.99 150.93,206.13 151.68,206.23 152.37,206.31 153.26,206.40 153.92,206.46 154.83,206.53 155.69,206.59 156.47,206.63 157.21,206.67 158.08,206.71 159.04,206.76 160.17,206.80 161.10,206.84 162.07,206.87 163.05,206.91 164.04,206.95 165.22,207.00 166.47,207.04 167.96,207.08 169.71,207.12 171.18,207.15 173.37,207.19 175.95,207.21 178.33,207.22 180.71,207.24 184.27,207.25 186.96,207.26 190.42,207.27 195.26,207.28 199.78,207.29 203.68,207.29 208.13,207.30 212.89,207.30 218.85,207.31 223.62,207.31 228.38,207.32 233.16,207.32 237.92,207.32 242.69,207.32 248.65,207.33 253.41,207.33 258.18,207.33 262.94,207.33 267.72,207.33 273.67,207.33 278.43,207.34 283.21,207.34 287.96,207.34 292.74,207.34 297.50,207.34 303.46,207.34 308.23,207.34 312.99,207.34 317.76,207.34 322.52,207.34 328.48,207.34 333.26,207.34 338.01,207.34 342.79,207.34 347.55,207.34 351.12,207.34 357.08,207.34 361.84,207.34 366.62,207.34 371.37,207.34 376.15,207.34 380.91,207.34 386.86,207.34 391.64,207.34 396.40,207.34 401.17,207.35 405.93,207.35 411.89,207.35 416.66,207.35 421.42,207.35 426.20,207.35 430.96,207.35 435.73,207.35 441.69,207.35 446.45,207.36 447.63,207.35"/>
<line x1="78" y1="266.88" x2="772" y2="266.88" stroke="#2ca02c" opacity="0.18" stroke-dasharray="3 4"/>
<polyline fill="none" stroke="#2ca02c" stroke-width="2.0" points="91.35,266.88 98.04,266.88 99.19,266.88 99.32,266.88 99.44,266.88 99.55,266.88 99.66,266.88 99.96,266.88 100.88,266.88 101.44,266.87 101.79,266.86 102.22,266.84 102.40,266.82 102.66,266.80 102.83,266.78 102.97,266.77 103.07,266.76 103.16,266.75 103.24,266.75 103.31,266.74 103.41,266.74 103.50,266.73 103.58,266.73 103.67,266.73 103.77,266.72 103.89,266.72 104.05,266.72 104.20,266.71 104.39,266.72 104.49,266.72 104.65,266.72 104.87,266.73 104.99,266.74 105.14,266.76 105.31,266.79 105.45,266.81 105.60,266.85 105.83,266.91 105.98,266.96 106.15,267.03 106.31,267.09 106.49,267.17 106.68,267.25 106.82,267.31 106.94,267.37 107.06,267.42 107.18,267.47 107.28,267.52 107.45,267.59 107.57,267.64 107.69,267.69 107.83,267.74 107.98,267.79 108.27,267.90 108.45,267.95 108.69,268.02 108.82,268.06 108.92,268.08 109.06,268.11 109.34,268.14 109.47,268.12 109.90,267.92 110.14,267.73 110.47,267.16 110.69,266.64 110.94,265.90 111.24,264.76 111.46,263.70 111.63,262.76 111.82,261.59 111.97,260.52 112.13,259.35 112.30,257.92 112.45,256.53 112.60,255.04 112.74,253.62 112.90,251.95 113.02,250.59 113.12,249.38 113.31,247.09 113.41,245.81 113.56,243.84 113.75,241.38 113.89,239.57 113.99,238.21 114.23,235.06 114.39,233.04 114.59,230.38 114.74,228.41 114.92,226.25 115.05,224.55 115.19,222.89 115.48,219.46 115.65,217.50 115.87,215.04 116.15,212.15 116.52,208.43 116.76,206.20 117.26,201.79 117.52,199.68 117.81,197.38 118.10,195.21 118.60,191.84 118.99,189.33 119.28,187.58 119.74,185.00 119.98,183.76 120.36,181.93 120.62,180.75 121.03,179.01 121.42,177.49 121.71,176.44 122.28,174.60 122.58,173.69 123.22,172.01 123.70,170.90 124.24,169.77 124.86,168.67 125.44,167.78 126.47,166.47 127.05,165.83 127.91,165.03 128.34,164.67 129.29,163.99 130.58,163.28 131.43,162.91 132.72,162.48 134.03,162.15 134.57,162.05 135.10,161.96 135.88,161.83 136.35,161.76 136.76,161.69 137.06,161.65 137.63,161.59 138.07,161.53 138.49,161.48 138.91,161.43 139.24,161.41 139.58,161.38 139.92,161.36 140.28,161.33 140.64,161.30 141.02,161.27 141.45,161.24 142.01,161.20 142.44,161.16 142.85,161.14 143.36,161.11 143.84,161.08 144.37,161.05 144.90,161.02 145.35,161.00 145.79,160.98 146.15,160.97 146.55,160.95 146.98,160.93 147.44,160.91 148.16,160.88 149.03,160.84 149.53,160.82 150.16,160.80 150.86,160.78 151.61,160.75 152.93,160.70 153.94,160.67 155.11,160.64 156.30,160.60 157.59,160.56 158.91,160.52 160.53,160.48 163.39,160.40 166.25,160.33 169.40,160.25 172.10,160.19 176.16,160.10 185.08,159.92 191.79,159.79 198.48,159.68 207.40,159.53 216.33,159.41 227.49,159.26 236.41,159.15 243.12,159.08 252.04,159.00 260.97,158.91 269.89,158.83 281.05,158.74 287.74,158.69 296.68,158.63 305.61,158.56 314.53,158.51 325.69,158.44 334.62,158.40 343.54,158.36 352.48,158.32 361.39,158.28 370.33,158.25 381.49,158.20 390.41,158.16 399.34,158.14 408.28,158.11 417.19,158.08 428.35,158.04 437.29,158.02 446.21,158.00 455.14,157.98 464.06,157.96 472.99,157.94 484.15,157.91 493.07,157.90 502.01,157.88 510.94,157.87 519.86,157.86 531.02,157.84 539.96,157.82 548.87,157.81 557.81,157.80 566.73,157.79 575.66,157.78 586.82,157.76 595.74,157.75 604.67,157.74 613.61,157.73 622.53,157.72 631.46,157.72 642.62,157.71 651.54,157.70 660.47,157.70 669.39,157.69 678.33,157.69 689.49,157.68 698.40,157.68 707.34,157.67 716.27,157.66 725.19,157.66 734.13,157.65 745.29,157.65 754.20,157.64 758.65,157.63"/>
<line x1="78" y1="266.88" x2="772" y2="266.88" stroke="#9467bd" opacity="0.18" stroke-dasharray="3 4"/>
<polyline fill="none" stroke="#9467bd" stroke-width="2.0" points="91.35,157.54 92.90,157.54 94.44,157.54 96.38,157.54 97.94,157.54 99.37,157.54 99.58,157.54 99.84,157.54 99.97,157.54 100.26,157.54 100.52,157.54 100.73,157.54 100.97,157.54 101.63,157.54 101.79,157.54 101.91,157.55 102.01,157.55 102.11,157.55 102.28,157.56 102.47,157.56 102.71,157.57 102.92,157.58 103.04,157.59 103.24,157.59 103.40,157.60 103.70,157.61 103.98,157.63 104.15,157.63 104.41,157.64 104.53,157.64 104.65,157.65 104.82,157.65 104.94,157.65 105.04,157.65 105.13,157.65 105.21,157.65 105.28,157.65 105.38,157.64 105.47,157.64 105.55,157.63 105.66,157.62 105.76,157.61 105.90,157.59 106.05,157.56 106.17,157.53 106.32,157.48 106.39,157.46 106.49,157.43 106.58,157.39 106.68,157.35 106.77,157.31 106.87,157.26 106.97,157.20 107.09,157.14 107.18,157.09 107.28,157.02 107.45,156.90 107.59,156.81 107.73,156.70 107.92,156.55 108.05,156.44 108.17,156.34 108.31,156.22 108.51,156.04 108.79,155.80 108.92,155.68 109.03,155.59 109.20,155.46 109.37,155.35 109.51,155.29 109.66,155.25 109.78,155.26 109.90,155.28 110.02,155.35 110.14,155.46 110.28,155.62 110.40,155.82 110.57,156.19 110.74,156.66 110.88,157.11 110.96,157.44 111.12,158.08 111.30,159.01 111.41,159.58 111.51,160.17 111.61,160.82 111.71,161.49 111.82,162.22 111.94,163.11 112.09,164.32 112.23,165.49 112.33,166.39 112.67,169.66 112.91,172.14 113.10,174.20 113.31,176.53 113.58,179.75 113.73,181.62 113.99,184.80 114.21,187.62 114.47,190.93 114.64,193.16 114.98,197.66 115.33,202.21 115.57,205.40 115.75,207.90 115.82,208.81 115.99,211.09 116.17,213.35 116.35,215.83 116.52,218.07 116.78,221.39 116.97,223.80 117.11,225.52 117.31,228.08 117.48,230.17 117.64,232.02 117.77,233.64 118.05,236.78 118.24,238.88 118.46,241.28 118.63,243.06 118.77,244.43 118.89,245.59 119.26,248.97 119.55,251.31 119.85,253.40 120.03,254.62 120.26,255.93 120.53,257.37 120.82,258.68 121.13,259.86 121.30,260.42 121.61,261.32 121.97,262.17 122.12,262.49 122.36,262.92 122.62,263.32 122.77,263.54 122.94,263.75 123.34,264.17 123.54,264.36 123.90,264.64 124.16,264.82 124.45,265.00 124.76,265.18 125.07,265.34 125.46,265.52 126.23,265.81 127.02,266.02 128.11,266.24 128.57,266.31 129.11,266.38 129.72,266.44 129.94,266.46 130.25,266.50 130.65,266.53 131.07,266.55 131.55,266.57 131.96,266.59 132.37,266.61 132.84,266.63 133.26,266.64 133.62,266.66 133.98,266.67 134.38,266.68 134.77,266.69 134.98,266.70 135.28,266.70 135.63,266.71 135.99,266.72 136.31,266.73 136.65,266.73 137.01,266.74 137.25,266.74 137.63,266.75 138.11,266.75 138.49,266.76 138.64,266.76 139.03,266.76 139.36,266.77 139.72,266.77 140.01,266.77 140.42,266.78 140.71,266.78 141.16,266.78 141.45,266.79 142.13,266.79 142.51,266.79 143.06,266.80 143.67,266.80 144.07,266.80 144.75,266.81 145.23,266.81 145.93,266.81 146.39,266.81 147.16,266.82 147.75,266.82 148.52,266.82 149.29,266.82 150.18,266.83 150.74,266.83 151.44,266.83 152.56,266.83 153.09,266.83 153.75,266.83 154.92,266.84 156.24,266.84 157.64,266.84 159.57,266.84 161.13,266.85 162.67,266.85 164.23,266.85 165.79,266.85 167.72,266.85 169.26,266.85 170.82,266.86 172.38,266.86 173.92,266.86 175.47,266.86 177.41,266.86 178.97,266.86 180.51,266.86 182.06,266.86 183.60,266.86 185.16,266.86 187.10,266.86 188.65,266.86 190.19,266.87 191.75,266.87 193.31,266.87 195.24,266.87 196.78,266.87 198.34,266.87 199.90,266.87 201.44,266.87 203.00,266.87 204.93,266.87 206.49,266.87 207.24,266.87"/>
<line x1="88" y1="72" x2="110" y2="72" stroke="#1f77b4" stroke-width="2.4"/>
<text x="116" y="76" font-family="Arial, sans-serif" font-size="12">rising #1</text>
<line x1="88" y1="90" x2="110" y2="90" stroke="#d62728" stroke-width="2.4"/>
<text x="116" y="94" font-family="Arial, sans-serif" font-size="12">falling #2</text>
<line x1="88" y1="108" x2="110" y2="108" stroke="#2ca02c" stroke-width="2.4"/>
<text x="116" y="112" font-family="Arial, sans-serif" font-size="12">rising #3</text>
<line x1="88" y1="126" x2="110" y2="126" stroke="#9467bd" stroke-width="2.4"/>
<text x="116" y="130" font-family="Arial, sans-serif" font-size="12">falling #4</text>
<rect x="78" y="342" width="694" height="44" fill="#fffdf7" stroke="#d8c6a1" rx="4"/>
<text x="88" y="359" font-family="Arial, sans-serif" font-size="11" font-weight="700" fill="#4b3b21">Findings needing attention</text>
<rect x="88" y="366" width="7" height="7" fill="#b54708"/>
<text x="102" y="373" font-family="Arial, sans-serif" font-size="11" fill="#333">WARN 5.5.4: Ramp dt versus V-T 20-80% evidence needs review | avg Ramp dt=5.036e-10s, avg V-T 20-80% span=3.859e-...</text>
<text x="425.00" y="322.00" text-anchor="middle" font-family="Arial, sans-serif" font-size="12">Time (s)</text>
<text x="420" y="42" font-family="Arial, sans-serif" font-size="11" fill="#555">solid=V-T voltage, faint horizontal=V_fixture</text>
</svg>