<svg xmlns="http://www.w3.org/2000/svg" width="800" height="450" viewBox="0 0 800 450">
<rect width="100%" height="100%" fill="#ffffff"/>
<text x="78" y="25" font-family="Arial, sans-serif" font-size="16" font-weight="700">E34_GPIO_I2CSCLIN_1V2_00_ISOSW V-T Waveforms</text>
<rect x="78" y="54" width="694" height="230" fill="#fbfbfb" stroke="#c8c8c8"/>
<text transform="translate(18 169.00) rotate(-90)" text-anchor="middle" font-family="Arial, sans-serif" font-size="12">Voltage (V)</text>
<line x1="78.00" y1="54" x2="78.00" y2="284" stroke="#ececec"/>
<text x="78.00" y="302" text-anchor="middle" font-family="Arial, sans-serif" font-size="10">-255p</text>
<line x1="216.80" y1="54" x2="216.80" y2="284" stroke="#ececec"/>
<text x="216.80" y="302" text-anchor="middle" font-family="Arial, sans-serif" font-size="10">2.4n</text>
<line x1="355.60" y1="54" x2="355.60" y2="284" stroke="#ececec"/>
<text x="355.60" y="302" text-anchor="middle" font-family="Arial, sans-serif" font-size="10">5.06n</text>
<line x1="494.40" y1="54" x2="494.40" y2="284" stroke="#ececec"/>
<text x="494.40" y="302" text-anchor="middle" font-family="Arial, sans-serif" font-size="10">7.72n</text>
<line x1="633.20" y1="54" x2="633.20" y2="284" stroke="#ececec"/>
<text x="633.20" y="302" text-anchor="middle" font-family="Arial, sans-serif" font-size="10">10.4n</text>
<line x1="772.00" y1="54" x2="772.00" y2="284" stroke="#ececec"/>
<text x="772.00" y="302" text-anchor="middle" font-family="Arial, sans-serif" font-size="10">13n</text>
<line x1="78" y1="284.00" x2="772" y2="284.00" stroke="#ececec"/>
<text x="70" y="288.00" text-anchor="end" font-family="Arial, sans-serif" font-size="10">-0.104</text>
<line x1="78" y1="226.50" x2="772" y2="226.50" stroke="#ececec"/>
<text x="70" y="230.50" text-anchor="end" font-family="Arial, sans-serif" font-size="10">0.248</text>
<line x1="78" y1="169.00" x2="772" y2="169.00" stroke="#ececec"/>
<text x="70" y="173.00" text-anchor="end" font-family="Arial, sans-serif" font-size="10">0.599</text>
<line x1="78" y1="111.50" x2="772" y2="111.50" stroke="#ececec"/>
<text x="70" y="115.50" text-anchor="end" font-family="Arial, sans-serif" font-size="10">0.95</text>
<line x1="78" y1="54.00" x2="772" y2="54.00" stroke="#ececec"/>
<text x="70" y="58.00" text-anchor="end" font-family="Arial, sans-serif" font-size="10">1.3</text>
<line x1="78" y1="70.66" x2="772" y2="70.66" stroke="#1f77b4" opacity="0.18" stroke-dasharray="3 4"/>
<polyline fill="none" stroke="#1f77b4" stroke-width="2.0" points="91.35,87.85 99.18,87.85 107.02,87.85 116.84,87.85 124.67,87.85 132.51,87.85 140.35,87.85 146.35,87.85 152.10,87.85 161.87,87.85 169.71,87.85 177.54,87.85 185.38,87.85 193.21,87.85 203.03,87.85 208.89,87.85 212.80,87.85 215.68,87.85 218.34,87.85 219.33,87.85 222.62,87.86 226.91,87.86 230.46,87.86 232.29,87.86 234.22,87.86 236.31,87.86 236.83,87.86 237.46,87.86 238.82,87.86 239.60,87.86 240.18,87.86 240.75,87.86 241.33,87.86 241.95,87.86 242.42,87.86 243.00,87.86 243.57,87.86 244.15,87.86 244.62,87.86 245.14,87.86 245.77,87.86 246.08,87.86 246.81,87.86 247.07,87.86 247.44,87.86 247.96,87.86 248.53,87.86 249.11,87.86 249.79,87.86 250.78,87.86 251.72,87.86 252.40,87.86 252.87,87.86 253.92,87.86 254.96,87.86 255.90,87.86 257.78,87.86 259.09,87.86 259.98,87.86 261.96,87.86 262.27,87.86 262.48,87.86 263.37,87.86 265.67,87.86 267.08,87.86 269.64,87.86 274.29,87.86 277.48,87.86 279.41,87.86 281.39,87.86 283.59,87.86 284.53,87.85 288.08,87.85 289.96,87.84 292.89,87.83 293.72,87.83 294.51,87.83 295.86,87.83 296.13,87.83 297.07,87.82 297.69,87.82 298.21,87.82 300.98,87.81 304.90,87.80 306.89,87.79 312.74,87.75 318.64,87.73 324.13,87.83 324.54,87.85 327.00,88.01 329.24,88.24 330.66,88.42 332.64,88.73 334.21,89.01 336.25,89.43 339.01,90.00 341.52,90.36 342.57,90.40 344.92,90.02 345.86,89.63 346.59,89.22 347.48,88.60 348.05,88.13 348.68,87.55 349.20,87.04 349.93,86.25 350.40,85.73 351.13,84.87 351.81,84.06 352.28,83.49 352.96,82.68 353.64,81.89 354.16,81.30 354.89,80.50 355.83,79.55 356.25,79.15 356.78,78.66 357.35,78.18 358.08,77.58 358.66,77.15 359.28,76.71 360.12,76.17 360.75,75.80 361.74,75.26 362.94,74.70 363.83,74.32 365.19,73.82 365.81,73.61 367.12,73.23 367.59,73.11 368.74,72.83 371.09,72.38 371.72,72.29 373.91,72.04 375.42,71.92 376.78,71.85 377.98,71.79 381.33,71.69 385.25,71.60 391.72,71.45 396.74,71.44 398.72,71.46 401.70,71.50 406.77,71.53 412.67,71.53 417.58,71.45 424.43,71.26 428.87,71.14 434.19,71.01 436.75,70.96 438.11,70.94 438.58,70.93 440.67,70.89 445.95,70.83 450.55,70.79 455.77,70.76 462.51,70.73 469.46,70.71 477.29,70.70 487.11,70.69 493.02,70.68 500.85,70.68 505.50,70.67 510.62,70.67 516.52,70.67 518.46,70.67 519.08,70.67 521.64,70.67 522.32,70.67 522.84,70.67 525.51,70.67 527.44,70.67 528.28,70.67 530.47,70.67 531.41,70.67 533.19,70.67 534.13,70.67 535.07,70.67 537.26,70.67 539.09,70.67 541.13,70.67 541.49,70.67 542.28,70.67 544.37,70.67 545.05,70.67 546.20,70.67 547.03,70.67 547.87,70.67 548.76,70.67 549.43,70.67 550.37,70.67 551.16,70.67 551.79,70.67 552.26,70.67 552.88,70.67 553.93,70.67 554.66,70.67 555.65,70.67 556.64,70.67 557.48,70.67 558.16,70.67 559.15,70.67 559.93,70.67 561.24,70.67 561.76,70.67 562.86,70.66 563.54,70.66 564.90,70.66 565.79,70.66 567.40,70.66 568.87,70.66 570.43,70.66 571.17,70.66 571.74,70.66 573.36,70.66 575.29,70.66 577.07,70.66 578.32,70.66 581.20,70.66 581.77,70.66 583.08,70.66 583.34,70.66 584.38,70.66 584.96,70.66 587.05,70.66 590.29,70.66 596.82,70.66 604.65,70.66 612.49,70.66 618.39,70.66 626.23,70.66 636.00,70.66 641.90,70.66 647.38,70.66 651.93,70.66 655.59,70.66 663.42,70.66 667.55,70.66 673.24,70.66 677.11,70.66"/>
<line x1="78" y1="70.66" x2="772" y2="70.66" stroke="#d62728" opacity="0.18" stroke-dasharray="3 4"/>
<polyline fill="none" stroke="#d62728" stroke-width="2.0" points="91.35,70.66 100.28,70.66 109.21,70.66 120.34,70.66 129.27,70.66 138.21,70.66 147.14,70.66 156.07,70.66 165.00,70.66 176.18,70.66 185.06,70.66 194.00,70.66 202.93,70.66 211.86,70.66 223.04,70.66 231.97,70.66 240.91,70.66 245.35,70.66 246.81,70.66 249.37,70.66 252.03,70.66 252.87,70.66 258.72,70.66 263.79,70.66 264.36,70.66 265.77,70.66 267.76,70.66 268.86,70.66 269.80,70.66 270.11,70.66 270.42,70.66 270.84,70.66 271.21,70.66 272.09,70.66 273.45,70.66 274.18,70.66 274.65,70.66 275.59,70.66 276.07,70.66 276.64,70.66 277.95,70.66 278.94,70.66 280.56,70.66 281.50,70.66 282.18,70.66 282.80,70.66 283.38,70.66 284.58,70.66 285.68,70.66 287.19,70.66 287.82,70.66 288.29,70.66 288.76,70.66 289.75,70.66 290.33,70.66 290.85,70.66 291.53,70.66 292.21,70.66 292.83,70.66 294.45,70.66 295.13,70.66 297.07,70.66 299.00,70.66 300.46,70.66 303.39,70.66 304.74,70.66 306.10,70.66 307.62,70.66 308.61,70.66 310.07,70.66 314.30,70.66 317.33,70.66 319.06,70.66 322.09,70.66 323.60,70.66 325.54,70.67 327.21,70.67 329.14,70.68 330.19,70.69 331.18,70.69 332.95,70.70 334.10,70.71 335.41,70.72 336.09,70.72 337.81,70.73 338.49,70.73 340.95,70.75 341.68,70.76 343.40,70.77 344.08,70.77 344.81,70.78 346.33,70.78 351.60,70.70 352.49,70.66 354.74,70.51 356.25,70.40 359.18,70.17 360.69,70.06 363.67,69.91 368.11,69.86 377.04,69.88 385.98,69.91 389.01,69.99 389.48,70.02 390.68,70.08 391.41,70.12 394.91,70.49 397.10,70.82 399.40,71.30 401.49,71.82 403.37,72.37 405.10,72.91 406.72,73.46 407.55,73.76 408.44,74.08 409.43,74.44 410.53,74.84 412.15,75.44 413.61,75.98 414.50,76.30 415.39,76.61 416.01,76.83 416.75,77.09 417.37,77.32 417.90,77.50 418.42,77.69 419.10,77.93 420.25,78.32 421.81,78.85 423.90,79.53 425.78,80.12 427.82,80.72 428.92,81.04 429.13,81.09 429.81,81.27 430.12,81.35 430.90,81.56 433.78,82.28 434.51,82.45 436.96,82.99 438.90,83.38 439.89,83.55 440.99,83.73 442.08,83.92 442.97,84.07 444.12,84.26 445.79,84.50 446.84,84.64 448.46,84.86 449.29,84.97 450.28,85.10 452.84,85.33 454.93,85.51 457.75,85.76 460.42,85.99 463.92,86.23 466.32,86.38 468.67,86.52 471.70,86.66 474.94,86.77 477.50,86.86 480.11,86.95 481.94,87.01 485.70,87.13 493.12,87.27 502.05,87.43 509.68,87.49 517.67,87.55 526.61,87.61 535.49,87.67 542.23,87.69 548.13,87.71 553.35,87.73 560.04,87.75 566.78,87.76 575.66,87.77 586.84,87.78 595.77,87.79 602.46,87.80 609.04,87.81 611.13,87.81 611.65,87.81 611.97,87.81 613.79,87.81 614.79,87.81 615.67,87.81 618.08,87.81 622.20,87.81 623.30,87.81 623.98,87.81 626.44,87.81 629.26,87.82 632.76,87.82 635.21,87.82 637.67,87.82 640.02,87.82 642.42,87.82 644.77,87.82 647.17,87.82 649.58,87.83 652.09,87.83 654.59,87.83 657.20,87.83 660.50,87.83 662.74,87.83 665.67,87.83 667.86,87.83 669.74,87.83 671.00,87.83 673.03,87.83 674.97,87.83 676.12,87.83 678.47,87.83 680.97,87.83 684.68,87.83 686.30,87.83 686.72,87.83 687.35,87.83 688.60,87.83 690.85,87.83 691.94,87.83 693.25,87.83 693.98,87.83 695.03,87.83 696.02,87.83 696.70,87.83 698.42,87.83 699.68,87.83 701.14,87.83 701.82,87.83 702.91,87.84 709.50,87.84 714.04,87.84 719.94,87.84 725.22,87.84 731.91,87.84 738.59,87.84 747.53,87.84 754.27,87.84 758.65,87.85"/>
<line x1="78" y1="267.04" x2="772" y2="267.04" stroke="#2ca02c" opacity="0.18" stroke-dasharray="3 4"/>
<polyline fill="none" stroke="#2ca02c" stroke-width="2.0" points="91.35,267.04 100.28,267.04 109.21,267.04 120.34,267.04 129.27,267.04 138.21,267.04 147.14,267.04 156.07,267.04 164.95,267.04 176.13,267.04 185.06,267.04 194.00,267.04 202.88,267.04 211.81,267.04 222.99,267.04 226.28,267.04 227.43,267.04 233.80,267.04 235.79,267.04 236.83,267.04 237.51,267.04 238.09,267.04 238.87,267.04 239.39,267.04 239.92,267.04 240.49,267.04 241.12,267.04 241.80,267.04 243.05,267.04 244.15,267.04 245.40,267.04 246.71,267.04 247.39,267.04 247.80,267.04 248.53,267.04 249.42,267.04 250.42,267.04 251.25,267.04 252.61,267.04 253.34,267.04 254.02,267.04 254.65,267.04 255.59,267.04 256.32,267.04 257.05,267.04 257.89,267.04 259.14,267.04 261.02,267.04 262.43,267.04 265.09,267.04 266.14,267.04 267.60,267.04 269.85,267.04 271.21,267.04 272.98,267.04 274.29,267.04 275.12,267.04 276.54,267.04 277.53,267.04 278.52,267.04 278.94,267.04 279.72,267.04 280.82,267.04 281.55,267.04 282.80,267.04 283.54,267.04 284.32,267.04 285.31,267.04 286.04,267.04 286.98,267.04 288.13,267.04 288.97,267.04 289.96,267.04 290.74,267.04 292.00,267.04 292.89,267.04 294.40,267.04 296.02,267.04 296.86,267.04 298.74,267.04 299.68,267.04 302.29,267.04 303.70,267.04 306.05,267.04 308.35,267.04 313.47,267.04 315.30,267.04 321.15,267.03 325.48,267.01 330.92,266.98 334.52,266.97 338.23,266.97 339.54,266.99 341.05,267.02 341.94,267.05 342.62,267.08 344.03,267.16 344.97,267.23 346.01,267.31 347.95,267.48 351.50,267.78 353.22,267.93 354.16,268.00 355.94,268.11 356.78,268.14 358.13,268.13 359.07,268.09 360.48,268.01 361.69,267.92 364.77,267.68 367.80,267.48 368.89,267.43 369.78,267.39 370.36,267.37 372.45,267.32 373.39,267.32 375.42,267.32 376.94,267.33 382.01,267.39 383.84,267.40 389.95,267.38 391.83,267.38 393.55,267.39 396.37,267.41 398.51,267.43 400.97,267.43 403.69,267.32 405.72,267.07 406.82,266.89 408.49,266.53 409.80,266.17 411.37,265.65 412.72,265.10 413.56,264.76 414.87,264.16 415.86,263.71 417.11,263.10 418.84,262.26 419.93,261.72 421.40,261.01 422.18,260.63 423.69,259.92 424.84,259.39 426.04,258.87 427.35,258.30 428.60,257.79 430.01,257.23 431.95,256.54 433.57,256.00 435.29,255.45 437.17,254.93 438.63,254.57 441.14,254.04 443.39,253.56 445.95,253.14 447.99,252.81 450.55,252.55 455.04,252.09 457.23,251.86 463.92,251.41 466.16,251.30 472.85,251.08 479.54,250.86 481.78,250.81 491.45,250.64 495.16,250.58 504.09,250.53 513.02,250.48 519.71,250.43 526.40,250.41 533.40,250.39 537.68,250.38 539.98,250.37 542.02,250.36 544.68,250.36 546.51,250.35 553.20,250.35 556.54,250.34 559.52,250.34 562.60,250.34 565.89,250.34 568.82,250.33 570.90,250.33 573.26,250.33 577.75,250.33 580.52,250.32 582.76,250.32 585.95,250.32 588.88,250.32 591.75,250.32 597.81,250.31 606.64,250.31 613.43,250.31 622.26,250.30 626.80,250.30 635.16,250.30 639.44,250.30 641.90,250.30 644.67,250.30 647.70,250.30 651.30,250.30 652.61,250.30 655.48,250.30 658.04,250.30 659.56,250.30 661.54,250.30 663.47,250.30 665.35,250.30 666.97,250.30 669.22,250.30 670.68,250.30 672.41,250.30 673.66,250.30 675.91,250.30 678.10,250.30 679.77,250.30 680.76,250.30 682.70,250.30 684.73,250.29 686.30,250.29 688.39,250.29 689.59,250.29 691.74,250.29 694.45,250.29 696.12,250.29 698.47,250.29 701.45,250.29 704.79,250.29 707.77,250.29 711.32,250.29 713.83,250.29 718.43,250.29 721.09,250.29 727.21,250.29 731.65,250.29 736.14,250.29 742.83,250.29 747.27,250.29 754.00,250.29 758.39,250.29"/>
<line x1="78" y1="267.04" x2="772" y2="267.04" stroke="#9467bd" opacity="0.18" stroke-dasharray="3 4"/>
<polyline fill="none" stroke="#9467bd" stroke-width="2.0" points="91.35,250.28 98.66,250.28 105.92,250.28 115.06,250.28 122.38,250.28 129.69,250.28 136.95,250.28 144.26,250.28 151.58,250.28 160.67,250.28 167.98,250.28 175.30,250.28 182.61,250.28 189.87,250.28 199.01,250.28 206.33,250.28 213.64,250.28 220.90,250.28 226.39,250.28 228.21,250.28 229.62,250.28 230.88,250.28 231.71,250.28 232.24,250.28 233.12,250.28 233.70,250.28 235.06,250.28 235.89,250.28 236.99,250.28 237.41,250.28 238.35,250.28 239.03,250.28 239.45,250.28 240.12,250.28 240.80,250.28 241.22,250.28 242.32,250.28 243.10,250.28 243.52,250.28 243.99,250.28 244.62,250.28 245.24,250.28 246.29,250.28 246.65,250.28 247.39,250.28 247.91,250.28 248.38,250.28 249.01,250.28 249.58,250.28 250.21,250.28 250.78,250.28 251.41,250.28 251.93,250.28 252.61,250.28 253.29,250.28 253.76,250.28 254.28,250.28 254.86,250.28 255.33,250.28 255.95,250.28 256.53,250.28 257.00,250.28 257.68,250.28 258.25,250.28 258.98,250.28 259.98,250.28 260.76,250.28 261.33,250.28 262.22,250.28 263.01,250.28 264.10,250.28 264.73,250.28 265.83,250.28 266.56,250.28 267.65,250.28 268.86,250.28 270.32,250.28 271.73,250.28 273.09,250.28 274.45,250.28 276.01,250.28 277.95,250.28 279.98,250.28 281.76,250.28 283.54,250.28 285.36,250.28 287.14,250.28 290.27,250.28 292.52,250.29 295.76,250.30 298.48,250.30 302.71,250.32 306.68,250.33 312.16,250.34 317.65,250.35 323.13,250.35 326.63,250.34 328.25,250.31 330.39,250.27 332.12,250.21 333.69,250.13 334.52,250.08 336.19,249.97 338.02,249.82 339.54,249.68 340.89,249.53 342.15,249.39 343.35,249.24 344.76,249.04 346.01,248.85 347.22,248.66 348.94,248.38 350.51,248.13 351.08,248.06 352.28,247.94 353.22,247.89 354.37,247.93 355.63,248.09 356.36,248.24 357.72,248.66 359.07,249.24 359.70,249.55 360.33,249.88 361.16,250.37 362.16,250.99 362.89,251.47 363.72,252.04 364.45,252.55 365.08,252.99 365.76,253.46 366.44,253.92 367.43,254.59 368.32,255.17 368.89,255.54 369.84,256.13 370.46,256.52 371.30,257.02 372.39,257.66 373.81,258.44 374.48,258.81 375.58,259.39 376.31,259.77 377.72,260.46 378.72,260.92 379.55,261.29 380.96,261.89 381.90,262.24 383.31,262.75 385.14,263.33 386.76,263.78 388.80,264.22 390.52,264.55 391.72,264.74 394.28,265.09 396.11,265.30 398.46,265.53 400.55,265.71 403.43,265.91 406.14,266.08 410.69,266.31 414.76,266.46 418.00,266.56 421.66,266.65 427.14,266.75 433.62,266.84 439.89,266.90 445.37,266.93 450.86,266.96 458.17,266.98 465.43,267.00 474.58,267.01 481.89,267.01 489.15,267.02 496.46,267.02 501.95,267.02 504.25,267.03 507.90,267.03 510.78,267.03 513.81,267.03 515.43,267.03 518.35,267.03 522.01,267.03 524.05,267.03 527.49,267.03 531.15,267.03 534.81,267.03 537.05,267.03 539.56,267.03 540.61,267.03 542.59,267.03 543.90,267.03 545.78,267.03 547.55,267.03 548.60,267.03 550.11,267.03 551.21,267.03 551.99,267.03 553.20,267.03 554.55,267.03 555.60,267.03 556.70,267.03 557.37,267.03 558.26,267.03 559.26,267.03 560.40,267.03 562.02,267.03 563.38,267.03 564.01,267.03 565.32,267.03 566.52,267.03 567.98,267.03 569.60,267.03 570.96,267.03 572.11,267.03 573.26,267.03 574.41,267.03 575.50,267.04 576.65,267.04 577.80,267.04 579.05,267.04 580.41,267.04 582.24,267.04 584.07,267.04 585.90,267.04 587.41,267.04 589.55,267.04 591.85,267.04 594.78,267.04 596.14,267.04 598.64,267.04 602.30,267.04 605.96,267.04 608.99,267.04 612.33,267.04 615.10,267.04 620.58,267.04 622.47,267.04 629.62,267.04 633.33,267.04 636.94,267.04"/>
<line x1="88" y1="72" x2="110" y2="72" stroke="#1f77b4" stroke-width="2.4"/>
<text x="116" y="76" font-family="Arial, sans-serif" font-size="12">rising #1</text>
<line x1="88" y1="90" x2="110" y2="90" stroke="#d62728" stroke-width="2.4"/>
<text x="116" y="94" font-family="Arial, sans-serif" font-size="12">falling #2</text>
<line x1="88" y1="108" x2="110" y2="108" stroke="#2ca02c" stroke-width="2.4"/>
<text x="116" y="112" font-family="Arial, sans-serif" font-size="12">rising #3</text>
<line x1="88" y1="126" x2="110" y2="126" stroke="#9467bd" stroke-width="2.4"/>
<text x="116" y="130" font-family="Arial, sans-serif" font-size="12">falling #4</text>
<rect x="78" y="342" width="694" height="44" fill="#fffdf7" stroke="#d8c6a1" rx="4"/>
<text x="88" y="359" font-family="Arial, sans-serif" font-size="11" font-weight="700" fill="#4b3b21">Findings needing attention</text>
<rect x="88" y="366" width="7" height="7" fill="#b54708"/>
<text x="102" y="373" font-family="Arial, sans-serif" font-size="11" fill="#333">WARN 5.5.4: Ramp dt versus V-T 20-80% evidence needs review | avg Ramp dt=6.102e-10s, avg V-T 20-80% span=4.646e-...</text>
<text x="425.00" y="322.00" text-anchor="middle" font-family="Arial, sans-serif" font-size="12">Time (s)</text>
<text x="420" y="42" font-family="Arial, sans-serif" font-size="11" fill="#555">solid=V-T voltage, faint horizontal=V_fixture</text>
</svg>