<svg xmlns="http://www.w3.org/2000/svg" width="800" height="450" viewBox="0 0 800 450">
<rect width="100%" height="100%" fill="#ffffff"/>
<text x="78" y="25" font-family="Arial, sans-serif" font-size="16" font-weight="700">E34_GPIO_COMBO_5V0 V-T Waveforms</text>
<rect x="78" y="54" width="694" height="230" fill="#fbfbfb" stroke="#c8c8c8"/>
<text transform="translate(18 169.00) rotate(-90)" text-anchor="middle" font-family="Arial, sans-serif" font-size="12">Voltage (V)</text>
<line x1="78.00" y1="54" x2="78.00" y2="284" stroke="#ececec"/>
<text x="78.00" y="302" text-anchor="middle" font-family="Arial, sans-serif" font-size="10">-254p</text>
<line x1="216.80" y1="54" x2="216.80" y2="284" stroke="#ececec"/>
<text x="216.80" y="302" text-anchor="middle" font-family="Arial, sans-serif" font-size="10">2.39n</text>
<line x1="355.60" y1="54" x2="355.60" y2="284" stroke="#ececec"/>
<text x="355.60" y="302" text-anchor="middle" font-family="Arial, sans-serif" font-size="10">5.03n</text>
<line x1="494.40" y1="54" x2="494.40" y2="284" stroke="#ececec"/>
<text x="494.40" y="302" text-anchor="middle" font-family="Arial, sans-serif" font-size="10">7.67n</text>
<line x1="633.20" y1="54" x2="633.20" y2="284" stroke="#ececec"/>
<text x="633.20" y="302" text-anchor="middle" font-family="Arial, sans-serif" font-size="10">10.3n</text>
<line x1="772.00" y1="54" x2="772.00" y2="284" stroke="#ececec"/>
<text x="772.00" y="302" text-anchor="middle" font-family="Arial, sans-serif" font-size="10">13n</text>
<line x1="78" y1="284.00" x2="772" y2="284.00" stroke="#ececec"/>
<text x="70" y="288.00" text-anchor="end" font-family="Arial, sans-serif" font-size="10">-0.308</text>
<line x1="78" y1="226.50" x2="772" y2="226.50" stroke="#ececec"/>
<text x="70" y="230.50" text-anchor="end" font-family="Arial, sans-serif" font-size="10">0.77</text>
<line x1="78" y1="169.00" x2="772" y2="169.00" stroke="#ececec"/>
<text x="70" y="173.00" text-anchor="end" font-family="Arial, sans-serif" font-size="10">1.8</text>
<line x1="78" y1="111.50" x2="772" y2="111.50" stroke="#ececec"/>
<text x="70" y="115.50" text-anchor="end" font-family="Arial, sans-serif" font-size="10">2.9</text>
<line x1="78" y1="54.00" x2="772" y2="54.00" stroke="#ececec"/>
<text x="70" y="58.00" text-anchor="end" font-family="Arial, sans-serif" font-size="10">4</text>
<line x1="78" y1="70.24" x2="772" y2="70.24" stroke="#1f77b4" opacity="0.18" stroke-dasharray="3 4"/>
<polyline fill="none" stroke="#1f77b4" stroke-width="2.0" points="91.35,78.81 92.61,78.81 95.71,78.81 100.12,78.81 103.59,78.81 107.11,78.81 109.74,78.81 113.26,78.81 116.78,78.81 119.83,78.81 122.09,78.81 124.45,78.81 126.40,78.81 127.55,78.81 129.92,78.81 131.65,78.81 133.39,78.81 135.12,78.81 135.60,78.81 136.33,78.81 137.28,78.81 137.59,78.81 137.80,78.81 138.75,78.81 139.17,78.81 139.75,78.81 140.48,78.81 141.01,78.81 141.59,78.81 141.85,78.81 142.43,78.81 143.11,78.81 143.64,78.81 144.11,78.81 144.63,78.81 145.37,78.81 145.58,78.81 146.11,78.81 146.42,78.81 147.05,78.81 147.47,78.81 147.84,78.81 148.21,78.81 148.68,78.81 149.21,78.81 149.63,78.81 149.84,78.81 150.10,78.81 150.73,78.82 151.26,78.82 151.73,78.82 152.25,78.82 152.78,78.82 153.46,78.82 153.88,78.82 154.30,78.82 154.57,78.82 155.20,78.82 155.62,78.82 156.20,78.82 156.83,78.82 157.14,78.82 157.46,78.82 158.09,78.82 158.72,78.82 159.30,78.82 159.72,78.82 160.35,78.82 160.82,78.82 161.14,78.82 162.24,78.82 162.71,78.82 163.18,78.81 163.76,78.81 164.34,78.81 164.76,78.81 165.08,78.81 165.76,78.81 167.60,78.82 167.86,78.82 168.18,78.82 168.86,78.83 169.33,78.83 169.91,78.84 170.28,78.85 171.96,78.88 172.85,78.89 173.96,78.88 174.43,78.86 174.75,78.84 175.06,78.82 175.43,78.80 176.01,78.74 176.74,78.65 177.22,78.58 177.64,78.51 178.37,78.37 178.79,78.28 179.84,78.01 180.68,77.77 181.47,77.51 181.84,77.38 182.05,77.30 182.52,77.12 182.73,77.04 183.15,76.88 183.42,76.78 183.84,76.61 184.42,76.36 185.20,76.02 185.99,75.68 186.52,75.44 187.10,75.18 187.67,74.92 187.99,74.77 188.46,74.56 188.83,74.40 189.46,74.12 189.93,73.91 190.35,73.74 190.72,73.58 191.20,73.39 191.56,73.25 191.83,73.15 192.25,72.99 192.77,72.80 193.19,72.66 193.77,72.47 194.19,72.34 194.56,72.24 195.14,72.07 195.71,71.92 196.29,71.79 196.66,71.71 197.19,71.60 197.71,71.50 198.29,71.40 199.03,71.28 199.66,71.19 200.34,71.10 200.76,71.05 201.08,71.01 201.81,70.94 202.65,70.86 203.97,70.77 204.60,70.73 205.17,70.69 206.17,70.65 206.80,70.62 207.59,70.59 207.91,70.58 208.80,70.56 209.80,70.53 211.38,70.50 212.11,70.48 212.85,70.47 213.21,70.46 213.85,70.46 214.63,70.44 217.52,70.42 218.42,70.41 220.15,70.40 222.78,70.38 224.57,70.37 227.19,70.36 230.03,70.34 232.45,70.33 234.18,70.33 236.81,70.32 239.44,70.31 242.07,70.30 245.59,70.29 247.32,70.29 250.84,70.28 254.36,70.27 256.10,70.27 260.46,70.26 263.09,70.26 266.61,70.26 270.13,70.26 272.76,70.25 277.12,70.25 280.64,70.25 284.16,70.25 287.63,70.25 290.26,70.25 292.04,70.24 295.14,70.24 298.14,70.24 298.93,70.24 299.93,70.24 301.08,70.24 301.71,70.24 302.71,70.24 303.60,70.24 304.39,70.24 306.02,70.24 306.34,70.24 307.18,70.24 307.81,70.24 309.07,70.24 309.65,70.24 310.44,70.24 312.01,70.24 313.06,70.24 313.96,70.24 315.06,70.24 316.16,70.24 317.27,70.24 318.37,70.24 319.42,70.24 320.53,70.24 321.63,70.24 322.68,70.24 323.84,70.24 324.99,70.24 326.15,70.24 327.10,70.24 328.20,70.24 329.41,70.24 330.35,70.24 331.46,70.24 332.77,70.24 333.24,70.24 333.77,70.24 334.93,70.24 336.45,70.24 337.50,70.24 338.29,70.24 338.81,70.24 339.60,70.24 340.76,70.24 341.97,70.24 343.75,70.24 344.60,70.24 345.91,70.24 346.85,70.24 349.01,70.24 351.64,70.24 353.32,70.24"/>
<line x1="78" y1="70.24" x2="772" y2="70.24" stroke="#d62728" opacity="0.18" stroke-dasharray="3 4"/>
<polyline fill="none" stroke="#d62728" stroke-width="2.0" points="91.35,70.24 98.02,70.24 106.95,70.24 113.68,70.24 122.61,70.24 125.56,70.24 129.29,70.24 133.44,70.24 135.54,70.24 136.80,70.24 137.12,70.24 138.22,70.23 139.85,70.24 141.74,70.24 144.90,70.24 145.90,70.24 147.26,70.24 148.47,70.24 149.57,70.24 151.52,70.23 153.46,70.23 157.19,70.23 158.72,70.23 161.77,70.23 162.08,70.23 162.66,70.23 163.82,70.23 164.71,70.24 165.71,70.24 166.55,70.24 168.81,70.25 169.86,70.25 170.38,70.25 172.22,70.23 173.54,70.20 174.33,70.18 176.01,70.13 177.22,70.09 177.95,70.06 178.95,70.03 180.79,69.97 181.84,69.95 183.05,69.92 184.99,69.88 186.10,69.87 187.46,69.86 189.36,69.86 190.62,69.87 192.56,69.90 193.88,69.93 194.45,69.95 195.24,69.97 196.03,69.99 198.08,70.04 200.34,70.09 202.70,70.12 203.55,70.13 205.23,70.15 207.01,70.17 207.85,70.17 209.85,70.18 213.16,70.20 216.32,70.21 217.26,70.21 218.58,70.22 219.63,70.22 220.78,70.22 222.88,70.22 223.83,70.23 226.25,70.30 228.03,70.40 229.72,70.50 230.19,70.53 231.98,70.65 234.18,70.80 235.02,70.86 236.44,70.96 237.49,71.03 237.91,71.06 238.23,71.08 238.65,71.11 239.12,71.15 240.54,71.25 241.80,71.35 244.27,71.53 245.38,71.62 247.58,71.79 249.69,71.97 250.79,72.06 252.37,72.19 253.47,72.28 255.47,72.45 257.67,72.64 258.67,72.72 260.77,72.91 261.83,73.00 262.56,73.06 263.19,73.11 265.56,73.31 267.66,73.49 269.18,73.62 271.34,73.80 272.07,73.86 272.70,73.91 273.54,73.98 273.86,74.01 274.75,74.08 275.91,74.17 276.70,74.23 278.85,74.41 281.06,74.58 283.42,74.76 284.16,74.81 285.53,74.91 286.89,75.01 288.52,75.13 290.05,75.23 292.67,75.41 295.41,75.59 297.67,75.73 301.13,75.94 303.03,76.05 304.34,76.12 305.60,76.19 307.86,76.31 310.54,76.45 311.17,76.48 311.91,76.52 312.43,76.54 313.38,76.59 314.01,76.62 314.64,76.65 314.90,76.66 315.38,76.68 315.95,76.71 316.58,76.74 317.01,76.76 317.64,76.78 318.37,76.81 318.90,76.84 319.37,76.86 320.11,76.89 321.21,76.93 322.58,76.99 323.89,77.04 325.47,77.10 326.10,77.12 326.94,77.15 328.78,77.22 330.72,77.29 331.82,77.32 332.77,77.35 333.61,77.38 334.61,77.41 335.19,77.43 336.55,77.47 337.29,77.49 339.18,77.55 340.50,77.58 342.13,77.63 343.75,77.67 345.80,77.72 348.01,77.77 351.37,77.84 354.69,77.91 356.94,77.95 360.20,78.01 362.88,78.05 365.88,78.10 370.98,78.18 374.81,78.23 378.91,78.28 384.17,78.33 387.95,78.37 391.00,78.40 396.25,78.44 401.61,78.47 407.55,78.51 412.76,78.54 416.22,78.56 420.01,78.58 427.21,78.61 430.62,78.63 435.09,78.64 439.56,78.66 444.02,78.67 448.44,78.68 455.16,78.70 459.63,78.71 464.10,78.72 468.57,78.72 471.35,78.73 475.92,78.74 480.55,78.74 485.22,78.75 488.64,78.75 493.11,78.76 497.57,78.76 502.04,78.77 506.51,78.77 511.03,78.77 515.81,78.78 520.64,78.78 526.58,78.78 531.05,78.78 535.89,78.78 541.25,78.79 546.61,78.79 551.13,78.79 557.85,78.79 562.32,78.80 567.57,78.80 573.46,78.80 577.93,78.80 584.76,78.80 591.33,78.80 595.79,78.80 600.31,78.80 606.94,78.80 613.35,78.81 620.34,78.81 627.01,78.81 633.74,78.81 639.36,78.81 645.67,78.81 652.18,78.81 660.49,78.81 667.21,78.81 674.26,78.81 682.82,78.81 689.50,78.81 698.43,78.81 705.16,78.81 714.09,78.81 720.76,78.81 728.96,78.81 736.37,78.81 745.31,78.81 754.24,78.81 758.65,78.81"/>
<line x1="78" y1="267.57" x2="772" y2="267.57" stroke="#2ca02c" opacity="0.18" stroke-dasharray="3 4"/>
<polyline fill="none" stroke="#2ca02c" stroke-width="2.0" points="91.35,267.57 94.08,267.57 99.60,267.57 106.48,267.57 111.95,267.57 117.46,267.57 122.98,267.57 128.45,267.57 133.97,267.57 135.28,267.57 135.70,267.57 135.96,267.57 136.49,267.57 136.70,267.57 137.01,267.57 137.22,267.57 137.43,267.57 137.70,267.57 137.91,267.57 138.12,267.57 138.38,267.57 138.59,267.57 138.80,267.57 139.01,267.57 139.22,267.57 139.43,267.57 139.69,267.57 139.90,267.57 140.11,267.57 140.32,267.57 140.54,267.57 140.80,267.57 141.06,267.57 141.38,267.57 141.69,267.57 142.43,267.57 143.32,267.57 144.32,267.57 144.95,267.57 145.47,267.57 145.90,267.57 146.37,267.57 147.42,267.57 148.05,267.57 148.73,267.57 149.57,267.57 150.57,267.57 151.83,267.57 153.04,267.57 153.57,267.57 154.36,267.57 154.72,267.57 155.25,267.57 155.83,267.57 156.46,267.57 156.83,267.57 157.46,267.57 157.88,267.57 158.61,267.57 159.14,267.57 159.82,267.57 160.19,267.57 160.77,267.57 161.40,267.57 162.08,267.57 162.87,267.57 163.66,267.57 164.24,267.57 165.02,267.57 165.76,267.57 166.86,267.56 167.55,267.56 168.34,267.55 169.23,267.55 169.75,267.55 170.17,267.55 170.86,267.55 171.23,267.55 171.80,267.56 172.01,267.56 172.33,267.56 172.80,267.57 173.17,267.58 173.59,267.59 173.91,267.60 174.22,267.61 174.75,267.63 175.27,267.65 176.17,267.68 177.43,267.73 178.21,267.76 179.27,267.80 180.21,267.84 180.90,267.87 181.58,267.89 182.84,267.94 183.73,267.97 184.42,267.99 185.68,268.03 186.94,268.06 187.73,268.08 188.94,268.11 190.14,268.13 191.30,268.14 192.30,268.14 193.56,268.11 194.66,268.07 195.66,268.01 196.35,267.96 197.82,267.83 198.45,267.75 199.55,267.60 200.60,267.44 201.44,267.30 202.34,267.14 203.33,266.96 203.97,266.84 205.02,266.64 205.65,266.52 206.75,266.30 207.91,266.07 208.33,265.99 209.54,265.75 210.32,265.59 211.43,265.37 212.53,265.15 213.32,265.00 214.21,264.83 215.05,264.67 216.11,264.48 217.47,264.23 219.15,263.95 220.57,263.71 221.94,263.49 222.41,263.42 223.62,263.24 225.20,263.02 226.77,262.81 227.61,262.71 228.93,262.55 230.24,262.40 231.56,262.26 233.29,262.09 234.97,261.94 235.86,261.86 237.86,261.71 239.86,261.56 241.33,261.47 243.96,261.32 245.27,261.26 247.11,261.18 249.48,261.09 252.16,261.00 254.89,260.92 257.31,260.86 261.09,260.79 263.14,260.76 267.03,260.70 271.39,260.66 274.12,260.63 279.06,260.60 281.06,260.59 286.52,260.56 289.26,260.55 291.99,260.54 293.83,260.54 296.14,260.53 297.40,260.53 300.24,260.52 304.39,260.52 308.49,260.51 312.64,260.51 316.74,260.50 320.89,260.50 324.99,260.50 329.14,260.50 333.24,260.49 337.03,260.49 339.87,260.49 342.34,260.49 344.96,260.49 347.75,260.49 349.85,260.49 351.58,260.49 353.84,260.49 355.95,260.49 357.63,260.49 360.41,260.49 362.10,260.49 364.35,260.49 366.82,260.49 368.98,260.49 371.71,260.49 373.71,260.49 375.86,260.49 377.91,260.49 380.23,260.49 382.75,260.49 384.96,260.49 386.90,260.49 389.58,260.49 391.79,260.49 394.73,260.48 397.62,260.48 399.20,260.48 401.72,260.48 403.82,260.48 406.08,260.48 408.60,260.48 411.44,260.48 413.75,260.48 414.91,260.48 417.49,260.48 420.11,260.48 423.42,260.48 425.42,260.48 428.10,260.48 430.83,260.48 432.20,260.48 434.93,260.48 437.72,260.48 440.45,260.48 441.92,260.48 445.55,260.48 447.65,260.48 451.43,260.48 454.80,260.48 457.53,260.48 461.05,260.48 463.26,260.48 466.62,260.48 470.67,260.48 474.14,260.48 478.39,260.48 483.07,260.48 485.80,260.48 489.95,260.48 495.42,260.48 499.57,260.48 502.25,260.48"/>
<line x1="78" y1="267.57" x2="772" y2="267.57" stroke="#9467bd" opacity="0.18" stroke-dasharray="3 4"/>
<polyline fill="none" stroke="#9467bd" stroke-width="2.0" points="91.35,260.48 93.71,260.48 96.92,260.48 100.91,260.48 104.12,260.48 107.27,260.48 110.48,260.48 113.63,260.48 116.83,260.48 120.83,260.48 123.98,260.48 127.19,260.48 130.39,260.48 133.55,260.48 134.12,260.48 134.39,260.48 134.65,260.48 134.96,260.48 135.17,260.48 135.38,260.48 135.65,260.48 135.86,260.48 136.49,260.48 136.80,260.48 137.01,260.48 137.33,260.48 137.59,260.48 137.80,260.48 138.01,260.48 138.22,260.48 138.43,260.48 138.70,260.48 138.91,260.48 139.12,260.48 139.33,260.48 139.59,260.48 139.80,260.48 140.06,260.48 140.27,260.48 140.48,260.48 140.69,260.48 140.90,260.48 141.17,260.48 141.43,260.48 141.69,260.48 142.01,260.48 142.22,260.48 142.48,260.48 143.00,260.48 143.37,260.48 143.79,260.48 144.16,260.48 144.58,260.48 145.05,260.48 145.37,260.48 145.69,260.48 146.00,260.48 146.53,260.48 146.95,260.48 147.37,260.48 147.79,260.48 148.21,260.48 148.52,260.48 148.89,260.48 149.36,260.48 149.78,260.48 150.20,260.48 150.68,260.48 151.26,260.48 151.62,260.48 152.10,260.48 152.73,260.48 153.15,260.48 153.57,260.48 153.99,260.48 154.36,260.48 154.88,260.48 155.41,260.48 156.35,260.48 157.09,260.48 157.56,260.48 158.25,260.48 159.09,260.48 159.87,260.48 161.29,260.48 162.24,260.48 163.29,260.48 165.18,260.48 165.60,260.48 166.08,260.48 166.55,260.48 167.07,260.48 167.60,260.47 168.12,260.47 168.76,260.46 169.28,260.45 170.07,260.43 170.75,260.42 171.33,260.42 171.91,260.41 172.43,260.42 172.80,260.42 173.12,260.43 173.43,260.44 173.80,260.46 174.06,260.47 174.33,260.49 174.59,260.51 174.85,260.54 175.17,260.57 175.43,260.60 175.69,260.64 176.01,260.68 176.27,260.72 176.64,260.79 176.95,260.86 177.37,260.95 177.64,261.01 178.06,261.12 178.43,261.23 178.85,261.36 179.21,261.48 179.53,261.59 179.95,261.74 180.63,262.01 181.05,262.18 181.58,262.41 182.10,262.64 182.58,262.86 182.94,263.03 183.37,263.23 183.94,263.50 184.36,263.70 184.84,263.92 185.36,264.16 185.78,264.35 186.26,264.56 186.94,264.85 187.57,265.10 188.04,265.27 188.52,265.44 189.09,265.64 189.78,265.85 190.09,265.93 190.77,266.11 191.20,266.21 191.83,266.35 192.40,266.46 193.30,266.62 194.03,266.73 194.87,266.83 195.56,266.91 196.50,267.00 197.50,267.08 198.39,267.14 199.71,267.21 200.71,267.25 202.07,267.29 203.12,267.32 204.91,267.34 206.02,267.35 207.12,267.36 208.22,267.36 209.22,267.35 211.64,267.35 213.06,267.35 214.00,267.35 215.79,267.36 218.79,267.38 221.04,267.39 223.57,267.40 225.98,267.41 228.35,267.42 231.24,267.42 233.13,267.43 236.34,267.43 240.28,267.44 243.48,267.44 246.69,267.45 249.84,267.45 253.05,267.45 257.04,267.46 260.20,267.46 263.40,267.46 266.61,267.47 269.76,267.47 272.97,267.47 276.12,267.48 278.54,267.48 280.90,267.48 283.63,267.49 284.90,267.49 286.21,267.49 287.31,267.49 288.26,267.49 289.47,267.49 290.47,267.49 291.25,267.50 292.10,267.50 292.99,267.50 294.15,267.50 294.78,267.50 295.46,267.50 296.14,267.50 296.88,267.50 297.61,267.50 298.45,267.50 299.35,267.50 300.24,267.50 301.19,267.51 301.77,267.51 302.61,267.51 303.34,267.51 304.02,267.51 304.81,267.51 305.60,267.51 306.39,267.51 307.18,267.51 307.97,267.51 308.33,267.51 309.60,267.51 310.02,267.51 310.80,267.51 311.54,267.52 312.33,267.52 313.27,267.52 314.33,267.52 315.01,267.52 315.95,267.52 316.95,267.52 317.95,267.52 319.16,267.52 320.63,267.52 321.31,267.52 322.52,267.52 323.68,267.52 325.52,267.53 327.04,267.53 328.57,267.53 329.46,267.57"/>
<line x1="88" y1="72" x2="110" y2="72" stroke="#1f77b4" stroke-width="2.4"/>
<text x="116" y="76" font-family="Arial, sans-serif" font-size="12">rising #1</text>
<line x1="88" y1="90" x2="110" y2="90" stroke="#d62728" stroke-width="2.4"/>
<text x="116" y="94" font-family="Arial, sans-serif" font-size="12">falling #2</text>
<line x1="88" y1="108" x2="110" y2="108" stroke="#2ca02c" stroke-width="2.4"/>
<text x="116" y="112" font-family="Arial, sans-serif" font-size="12">rising #3</text>
<line x1="88" y1="126" x2="110" y2="126" stroke="#9467bd" stroke-width="2.4"/>
<text x="116" y="130" font-family="Arial, sans-serif" font-size="12">falling #4</text>
<rect x="78" y="342" width="694" height="44" fill="#fffdf7" stroke="#d8c6a1" rx="4"/>
<text x="88" y="359" font-family="Arial, sans-serif" font-size="11" font-weight="700" fill="#4b3b21">Findings needing attention</text>
<rect x="88" y="366" width="7" height="7" fill="#b54708"/>
<text x="102" y="373" font-family="Arial, sans-serif" font-size="11" fill="#333">WARN 5.5.4: Ramp dt versus V-T 20-80% evidence needs review | avg Ramp dt=9.877e-10s, avg V-T 20-80% span=6.060e-...</text>
<text x="425.00" y="322.00" text-anchor="middle" font-family="Arial, sans-serif" font-size="12">Time (s)</text>
<text x="420" y="42" font-family="Arial, sans-serif" font-size="11" fill="#555">solid=V-T voltage, faint horizontal=V_fixture</text>
</svg>