<svg xmlns="http://www.w3.org/2000/svg" width="800" height="450" viewBox="0 0 800 450">
<rect width="100%" height="100%" fill="#ffffff"/>
<text x="78" y="25" font-family="Arial, sans-serif" font-size="16" font-weight="700">E34_GPIO_I3C_I2C_SLV_1V1_01 V-T Waveforms</text>
<rect x="78" y="54" width="694" height="230" fill="#fbfbfb" stroke="#c8c8c8"/>
<text transform="translate(18 169.00) rotate(-90)" text-anchor="middle" font-family="Arial, sans-serif" font-size="12">Voltage (V)</text>
<line x1="78.00" y1="54" x2="78.00" y2="284" stroke="#ececec"/>
<text x="78.00" y="302" text-anchor="middle" font-family="Arial, sans-serif" font-size="10">-417p</text>
<line x1="216.80" y1="54" x2="216.80" y2="284" stroke="#ececec"/>
<text x="216.80" y="302" text-anchor="middle" font-family="Arial, sans-serif" font-size="10">3.92n</text>
<line x1="355.60" y1="54" x2="355.60" y2="284" stroke="#ececec"/>
<text x="355.60" y="302" text-anchor="middle" font-family="Arial, sans-serif" font-size="10">8.26n</text>
<line x1="494.40" y1="54" x2="494.40" y2="284" stroke="#ececec"/>
<text x="494.40" y="302" text-anchor="middle" font-family="Arial, sans-serif" font-size="10">12.6n</text>
<line x1="633.20" y1="54" x2="633.20" y2="284" stroke="#ececec"/>
<text x="633.20" y="302" text-anchor="middle" font-family="Arial, sans-serif" font-size="10">16.9n</text>
<line x1="772.00" y1="54" x2="772.00" y2="284" stroke="#ececec"/>
<text x="772.00" y="302" text-anchor="middle" font-family="Arial, sans-serif" font-size="10">21.3n</text>
<line x1="78" y1="284.00" x2="772" y2="284.00" stroke="#ececec"/>
<text x="70" y="288.00" text-anchor="end" font-family="Arial, sans-serif" font-size="10">-0.0956</text>
<line x1="78" y1="226.50" x2="772" y2="226.50" stroke="#ececec"/>
<text x="70" y="230.50" text-anchor="end" font-family="Arial, sans-serif" font-size="10">0.228</text>
<line x1="78" y1="169.00" x2="772" y2="169.00" stroke="#ececec"/>
<text x="70" y="173.00" text-anchor="end" font-family="Arial, sans-serif" font-size="10">0.551</text>
<line x1="78" y1="111.50" x2="772" y2="111.50" stroke="#ececec"/>
<text x="70" y="115.50" text-anchor="end" font-family="Arial, sans-serif" font-size="10">0.874</text>
<line x1="78" y1="54.00" x2="772" y2="54.00" stroke="#ececec"/>
<text x="70" y="58.00" text-anchor="end" font-family="Arial, sans-serif" font-size="10">1.2</text>
<line x1="78" y1="71.30" x2="772" y2="71.30" stroke="#1f77b4" opacity="0.18" stroke-dasharray="3 4"/>
<polyline fill="none" stroke="#1f77b4" stroke-width="2.0" points="91.35,155.69 93.55,155.69 95.79,155.69 98.58,155.69 100.78,155.70 102.99,155.72 105.10,155.70 106.41,155.65 107.76,155.59 108.17,155.57 108.49,155.56 108.78,155.54 109.10,155.53 109.64,155.50 110.22,155.47 110.60,155.46 110.92,155.45 111.34,155.45 111.56,155.45 111.85,155.46 112.14,155.49 112.43,155.52 112.71,155.57 113.00,155.64 113.26,155.71 113.54,155.81 113.90,155.95 114.15,156.08 114.47,156.25 114.82,156.47 115.11,156.66 115.43,156.89 115.78,157.17 116.14,157.46 116.33,157.62 116.55,157.82 116.81,158.05 117.19,158.40 117.42,158.60 117.58,158.75 117.74,158.90 117.93,159.07 118.12,159.25 118.31,159.42 118.57,159.66 118.69,159.77 118.89,159.94 119.08,160.10 119.49,160.45 119.75,160.64 119.94,160.78 120.17,160.92 120.45,161.08 120.71,161.19 121.06,161.29 121.32,161.31 121.57,161.30 121.93,161.20 122.18,161.06 122.53,160.77 122.69,160.61 122.92,160.32 123.11,160.05 123.46,159.43 123.72,158.87 124.00,158.20 124.20,157.67 124.77,155.90 125.19,154.38 125.51,153.11 125.96,151.15 126.28,149.59 126.63,147.82 126.98,145.93 127.43,143.39 127.75,141.50 128.19,138.74 128.42,137.32 128.87,134.42 129.15,132.49 129.54,129.91 129.83,127.93 130.18,125.51 130.47,123.52 130.85,120.85 131.30,117.75 131.55,115.99 131.91,113.56 132.42,110.13 132.83,107.34 133.12,105.50 133.25,104.69 133.50,103.06 133.63,102.24 133.86,100.82 134.27,98.38 134.46,97.25 134.75,95.56 135.01,94.14 135.26,92.77 135.52,91.41 135.84,89.78 136.13,88.37 136.64,86.05 136.93,84.84 137.18,83.84 137.44,82.89 137.82,81.59 138.17,80.51 138.40,79.88 138.69,79.13 138.97,78.45 139.20,77.96 139.61,77.14 139.84,76.75 140.09,76.34 140.51,75.74 140.77,75.42 141.12,75.01 141.41,74.72 141.82,74.35 142.24,74.02 142.78,73.66 143.80,73.11 144.00,73.03 144.32,72.90 144.83,72.72 145.05,72.65 145.40,72.55 145.72,72.47 146.94,72.22 147.64,72.11 148.03,72.05 148.51,71.99 149.05,71.93 150.07,71.83 150.23,71.82 150.49,71.80 150.71,71.78 151.93,71.71 153.43,71.63 153.88,71.61 154.14,71.60 154.62,71.58 155.03,71.56 155.29,71.55 155.48,71.55 155.83,71.54 155.99,71.53 156.34,71.52 156.76,71.51 157.33,71.50 157.78,71.49 158.07,71.48 158.42,71.48 158.74,71.47 159.00,71.46 159.25,71.46 159.48,71.46 160.28,71.45 160.60,71.44 160.89,71.44 161.53,71.43 162.07,71.42 162.52,71.42 163.12,71.41 163.48,71.41 164.18,71.40 164.60,71.40 165.14,71.39 165.72,71.39 166.26,71.38 166.55,71.38 167.06,71.38 167.47,71.38 167.92,71.38 168.66,71.37 169.14,71.37 169.78,71.37 170.23,71.37 170.80,71.36 171.25,71.36 171.86,71.36 172.50,71.36 173.17,71.35 173.46,71.35 174.26,71.35 174.70,71.35 175.41,71.35 175.70,71.35 176.40,71.35 176.81,71.34 177.71,71.34 178.29,71.34 178.86,71.34 179.57,71.34 180.53,71.34 180.91,71.34 181.93,71.34 182.70,71.34 183.56,71.33 184.56,71.33 185.32,71.33 186.28,71.33 187.34,71.33 188.59,71.33 190.12,71.33 191.78,71.33 193.99,71.32 195.43,71.32 197.32,71.32 198.98,71.32 200.87,71.32 201.76,71.32 204.55,71.32 205.67,71.32 207.87,71.32 209.54,71.32 211.74,71.32 213.82,71.32 216.19,71.31 218.43,71.31 220.28,71.31 222.30,71.31 224.51,71.31 226.75,71.31 228.95,71.31 231.19,71.31 233.40,71.31 235.61,71.31 237.85,71.31 240.63,71.31 242.32,71.31 244.50,71.31 246.71,71.31 248.94,71.31 251.15,71.31 253.93,71.31 256.14,71.31 257.23,71.30"/>
<line x1="78" y1="71.30" x2="772" y2="71.30" stroke="#d62728" opacity="0.18" stroke-dasharray="3 4"/>
<polyline fill="none" stroke="#d62728" stroke-width="2.0" points="91.35,71.30 96.02,71.30 99.21,71.30 101.87,71.30 103.05,71.30 105.39,71.30 106.83,71.30 107.02,71.30 107.95,71.30 108.68,71.30 109.03,71.30 109.16,71.30 109.35,71.30 110.95,71.29 112.20,71.29 112.33,71.29 113.32,71.29 113.58,71.29 114.41,71.29 114.70,71.29 114.86,71.29 115.11,71.29 115.78,71.29 116.07,71.29 116.46,71.29 117.03,71.29 117.67,71.29 118.12,71.29 118.44,71.29 118.89,71.29 119.21,71.30 119.78,71.30 120.04,71.30 120.29,71.31 120.49,71.31 120.74,71.32 120.87,71.32 121.22,71.33 121.45,71.34 121.61,71.34 121.83,71.35 122.09,71.36 122.41,71.37 122.57,71.37 122.73,71.38 123.01,71.39 123.17,71.40 123.36,71.40 123.56,71.41 123.68,71.42 123.84,71.42 124.04,71.43 124.23,71.43 124.48,71.44 124.61,71.45 124.77,71.45 125.00,71.46 125.41,71.47 125.76,71.47 126.15,71.48 126.37,71.49 126.66,71.49 126.85,71.49 127.24,71.50 127.49,71.50 127.97,71.50 128.51,71.49 128.77,71.49 129.09,71.48 129.35,71.46 129.54,71.45 129.95,71.43 130.47,71.38 130.91,71.32 131.23,71.28 131.59,71.23 131.97,71.17 132.35,71.10 132.77,71.03 133.50,70.90 134.18,70.78 134.62,70.71 134.88,70.67 135.42,70.58 135.81,70.52 136.06,70.49 136.38,70.44 136.64,70.41 136.96,70.37 137.47,70.31 138.14,70.23 138.49,70.20 138.97,70.15 139.10,70.14 139.52,70.10 139.77,70.08 140.03,70.06 140.16,70.05 140.54,70.02 140.80,70.00 141.15,69.97 141.34,69.96 141.69,69.94 142.56,69.89 142.94,69.87 143.29,69.86 143.68,69.87 144.09,69.88 144.54,69.92 144.89,69.98 145.24,70.06 145.85,70.26 146.24,70.43 146.52,70.59 147.26,71.11 147.64,71.46 147.90,71.72 148.41,72.33 149.02,73.23 149.31,73.70 149.85,74.74 150.36,75.79 150.52,76.15 151.00,77.24 151.35,78.10 152.03,79.81 152.28,80.52 152.79,81.95 153.02,82.58 153.37,83.64 154.01,85.55 154.36,86.66 154.58,87.37 155.06,88.87 155.83,91.36 156.60,93.85 157.40,96.45 158.33,99.41 159.19,102.16 159.86,104.21 160.69,106.72 161.53,109.17 162.71,112.48 163.44,114.47 164.47,117.06 165.36,119.33 166.29,121.39 167.44,123.94 168.75,126.53 169.71,128.32 170.83,130.40 172.05,132.27 173.33,134.25 175.57,137.25 176.75,138.75 177.90,140.02 179.47,141.69 180.69,142.82 182.64,144.52 187.27,147.72 189.61,148.96 191.94,150.01 195.46,151.27 197.64,151.90 199.56,152.37 201.44,152.78 203.27,153.11 204.80,153.37 206.02,153.54 207.23,153.71 208.87,153.90 209.89,154.02 211.30,154.17 212.67,154.28 213.98,154.38 215.29,154.49 216.54,154.57 217.82,154.64 219.07,154.71 220.38,154.78 221.34,154.83 223.00,154.91 224.38,154.96 225.82,155.01 227.03,155.05 228.35,155.10 229.94,155.14 231.74,155.19 233.56,155.23 235.22,155.27 236.95,155.30 238.74,155.32 241.08,155.35 243.41,155.39 245.75,155.42 248.11,155.44 250.45,155.46 252.78,155.48 256.30,155.50 259.79,155.52 262.38,155.53 265.64,155.54 269.16,155.56 273.83,155.57 277.35,155.58 281.22,155.59 285.54,155.61 289.06,155.62 293.73,155.63 298.88,155.64 303.10,155.65 307.77,155.65 312.44,155.66 316.88,155.66 321.81,155.66 326.48,155.66 331.15,155.66 335.85,155.67 340.52,155.67 345.19,155.67 351.05,155.67 355.72,155.67 360.42,155.67 365.09,155.67 369.76,155.67 374.43,155.67 380.28,155.67 384.98,155.67 389.65,155.67 394.32,155.67 398.99,155.67 404.85,155.67 409.55,155.67 414.22,155.67 418.89,155.67 423.56,155.67 428.26,155.67 434.12,155.67 438.79,155.67 441.09,155.69"/>
<line x1="78" y1="266.99" x2="772" y2="266.99" stroke="#2ca02c" opacity="0.18" stroke-dasharray="3 4"/>
<polyline fill="none" stroke="#2ca02c" stroke-width="2.0" points="91.35,266.99 100.27,266.99 102.41,266.99 102.86,266.99 103.28,266.99 104.62,266.99 105.04,266.99 106.06,267.00 106.28,267.00 106.54,267.00 106.67,267.00 106.80,267.00 106.92,267.00 107.05,267.00 107.21,267.00 107.40,267.00 107.53,267.00 107.76,267.00 108.08,267.00 108.27,267.00 108.71,267.00 109.55,267.00 110.31,267.00 110.92,266.99 111.59,266.98 112.39,266.95 113.42,266.90 114.18,266.87 114.70,266.84 115.18,266.82 115.50,266.81 115.88,266.81 116.17,266.80 116.42,266.80 116.71,266.79 117.00,266.79 117.19,266.79 117.38,266.79 117.54,266.79 117.86,266.79 118.06,266.80 118.25,266.80 118.60,266.81 118.82,266.81 119.11,266.82 119.37,266.84 119.62,266.85 119.81,266.87 120.07,266.89 120.29,266.92 120.52,266.94 120.77,266.98 120.97,267.01 121.45,267.08 121.83,267.15 122.44,267.27 123.01,267.38 123.52,267.48 123.88,267.54 124.36,267.63 124.80,267.70 125.12,267.75 125.57,267.82 126.15,267.90 126.66,267.97 126.85,268.00 127.14,268.03 127.43,268.06 127.94,268.11 128.16,268.13 128.74,268.14 129.03,268.13 129.63,268.05 129.95,267.97 130.37,267.79 130.91,267.54 131.71,266.83 132.32,266.10 133.12,264.83 133.47,264.19 134.02,262.95 134.50,261.70 134.82,260.83 135.20,259.65 135.52,258.65 135.97,257.14 136.26,256.13 136.64,254.75 136.96,253.56 137.18,252.71 137.54,251.35 137.76,250.48 138.17,248.84 138.49,247.58 138.78,246.45 139.20,244.83 139.58,243.34 139.77,242.61 140.16,241.16 140.45,240.09 140.83,238.69 141.31,236.98 141.47,236.43 141.95,234.80 142.56,232.83 142.94,231.63 143.16,230.94 143.52,229.88 143.84,228.94 144.54,226.98 144.96,225.87 145.31,224.97 145.98,223.36 146.56,222.06 147.42,220.32 148.47,218.33 148.86,217.67 150.49,215.18 151.64,213.65 152.79,212.34 154.84,210.35 155.74,209.63 156.89,208.85 157.75,208.27 158.29,207.91 160.37,206.80 162.77,205.85 163.32,205.64 165.36,205.03 166.96,204.63 168.21,204.36 169.59,204.09 171.70,203.76 172.91,203.59 175.22,203.35 176.62,203.20 178.38,203.08 179.79,202.99 181.36,202.88 182.19,202.84 182.99,202.81 184.11,202.76 185.13,202.72 185.99,202.68 186.89,202.64 187.50,202.61 188.17,202.60 188.91,202.58 190.03,202.55 190.76,202.53 191.40,202.52 192.01,202.50 192.94,202.48 193.83,202.46 194.15,202.45 195.11,202.42 195.62,202.41 195.94,202.41 196.61,202.40 197.41,202.38 198.25,202.37 199.05,202.36 200.04,202.34 201.19,202.33 202.95,202.30 203.59,202.29 204.74,202.27 205.22,202.27 206.15,202.26 206.79,202.25 207.97,202.24 209.22,202.23 210.24,202.22 212.29,202.20 214.11,202.19 216.32,202.17 219.33,202.14 223.00,202.12 227.26,202.09 229.82,202.07 234.74,202.05 240.88,202.02 245.36,201.99 249.94,201.98 257.45,201.95 265.45,201.92 272.14,201.91 281.06,201.89 289.98,201.86 298.91,201.85 307.83,201.83 316.76,201.82 327.92,201.80 336.84,201.80 345.77,201.79 354.73,201.78 363.65,201.77 372.57,201.77 383.74,201.76 392.66,201.75 401.59,201.75 410.51,201.74 419.43,201.74 430.60,201.74 439.52,201.73 448.45,201.73 457.37,201.73 466.29,201.73 475.22,201.72 486.38,201.72 495.31,201.72 504.26,201.72 513.19,201.72 522.11,201.72 533.28,201.72 542.20,201.71 551.12,201.71 560.05,201.71 568.97,201.71 577.90,201.71 589.06,201.71 597.98,201.71 606.91,201.71 615.83,201.71 624.76,201.71 633.71,201.71 644.84,201.71 653.80,201.71 662.73,201.71 671.65,201.71 680.57,201.71 691.74,201.71 700.66,201.71 709.59,201.71 718.51,201.71 727.43,201.71 736.36,201.71 747.52,201.71 756.03,201.71 758.65,201.71"/>
<line x1="78" y1="266.99" x2="772" y2="266.99" stroke="#9467bd" opacity="0.18" stroke-dasharray="3 4"/>
<polyline fill="none" stroke="#9467bd" stroke-width="2.0" points="91.35,201.71 93.84,201.71 96.37,201.71 99.50,201.70 102.00,201.71 104.49,201.71 106.73,201.70 107.05,201.70 107.31,201.70 107.66,201.70 108.01,201.70 108.40,201.70 108.65,201.70 108.97,201.70 109.32,201.70 109.58,201.70 109.83,201.70 110.09,201.70 110.31,201.70 110.47,201.70 110.67,201.70 110.79,201.70 111.02,201.70 111.27,201.70 111.43,201.70 111.95,201.70 112.20,201.71 112.33,201.71 112.59,201.71 112.71,201.71 112.87,201.71 113.07,201.71 113.32,201.72 113.54,201.72 113.90,201.72 114.25,201.73 114.50,201.73 114.98,201.74 115.43,201.75 115.78,201.76 116.20,201.76 116.49,201.77 117.06,201.78 117.48,201.78 117.93,201.79 118.15,201.79 118.47,201.80 118.85,201.80 119.14,201.81 119.30,201.81 119.46,201.81 119.59,201.81 119.75,201.81 119.94,201.81 120.17,201.81 120.33,201.81 120.49,201.81 120.65,201.80 120.81,201.80 121.03,201.79 121.29,201.78 121.51,201.77 121.80,201.75 121.99,201.73 122.31,201.70 122.63,201.66 122.89,201.62 123.11,201.59 123.33,201.55 123.65,201.48 123.97,201.41 124.32,201.32 124.61,201.24 124.87,201.16 125.16,201.07 125.57,200.93 125.83,200.84 126.02,200.77 126.24,200.69 126.53,200.58 126.85,200.45 127.36,200.23 127.97,199.97 128.23,199.86 128.51,199.74 128.83,199.61 129.19,199.48 129.57,199.38 129.83,199.32 130.37,199.31 130.82,199.39 131.20,199.57 131.91,200.11 132.39,200.67 133.22,202.06 133.54,202.71 134.11,204.04 134.56,205.22 135.07,206.71 135.42,207.82 135.62,208.44 136.03,209.87 136.51,211.60 137.06,213.67 137.57,215.69 138.01,217.53 138.49,219.54 138.94,221.44 139.45,223.65 140.09,226.42 140.54,228.37 140.86,229.77 141.31,231.71 141.69,233.37 142.08,235.01 142.43,236.49 142.68,237.56 142.94,238.61 143.16,239.53 143.36,240.30 143.68,241.56 144.00,242.80 144.35,244.13 144.54,244.84 144.76,245.66 145.15,247.01 145.63,248.64 145.98,249.78 146.43,251.15 146.75,252.10 147.10,253.10 147.51,254.23 147.83,255.06 148.28,256.13 148.92,257.52 149.50,258.62 149.91,259.36 150.59,260.34 151.10,261.06 152.03,262.14 152.47,262.57 153.14,263.20 153.69,263.59 154.33,264.05 154.94,264.37 155.67,264.76 155.86,264.83 156.50,265.08 157.21,265.34 158.23,265.63 158.84,265.78 159.64,265.95 160.50,266.08 161.40,266.21 162.29,266.31 163.38,266.41 164.15,266.47 164.72,266.51 166.45,266.60 167.22,266.64 167.89,266.66 168.79,266.69 169.43,266.71 170.10,266.73 170.90,266.75 172.11,266.78 172.75,266.79 173.49,266.80 174.03,266.81 174.93,266.83 175.66,266.84 176.18,266.84 176.65,266.85 177.29,266.86 178.06,266.86 178.57,266.87 179.31,266.88 179.69,266.88 180.14,266.88 180.97,266.89 181.55,266.89 182.41,266.90 182.89,266.90 183.60,266.91 184.08,266.91 184.72,266.91 185.32,266.91 185.93,266.92 186.57,266.92 187.21,266.92 187.82,266.93 188.46,266.93 189.45,266.93 189.93,266.93 190.70,266.94 191.59,266.94 192.04,266.94 192.84,266.94 194.09,266.94 194.73,266.95 195.97,266.95 197.09,266.95 197.64,266.95 199.11,266.95 200.90,266.96 202.24,266.96 203.17,266.96 204.61,266.96 206.63,266.96 209.12,266.96 210.30,266.97 211.78,266.97 213.50,266.97 214.14,266.97 216.00,266.97 217.89,266.97 220.41,266.97 222.27,266.97 224.79,266.97 227.29,266.97 230.42,266.98 232.92,266.98 235.45,266.98 237.94,266.98 240.44,266.98 242.96,266.98 246.10,266.98 248.59,266.98 251.09,266.98 253.61,266.98 256.11,266.98 259.24,266.98 261.74,266.98 264.27,266.98 266.76,266.98 269.26,266.98 271.78,266.98 274.89,266.98 277.41,266.98 278.63,266.99"/>
<line x1="88" y1="72" x2="110" y2="72" stroke="#1f77b4" stroke-width="2.4"/>
<text x="116" y="76" font-family="Arial, sans-serif" font-size="12">rising #1</text>
<line x1="88" y1="90" x2="110" y2="90" stroke="#d62728" stroke-width="2.4"/>
<text x="116" y="94" font-family="Arial, sans-serif" font-size="12">falling #2</text>
<line x1="88" y1="108" x2="110" y2="108" stroke="#2ca02c" stroke-width="2.4"/>
<text x="116" y="112" font-family="Arial, sans-serif" font-size="12">rising #3</text>
<line x1="88" y1="126" x2="110" y2="126" stroke="#9467bd" stroke-width="2.4"/>
<text x="116" y="130" font-family="Arial, sans-serif" font-size="12">falling #4</text>
<rect x="78" y="342" width="694" height="44" fill="#fffdf7" stroke="#d8c6a1" rx="4"/>
<text x="88" y="359" font-family="Arial, sans-serif" font-size="11" font-weight="700" fill="#4b3b21">Findings needing attention</text>
<rect x="88" y="366" width="7" height="7" fill="#b54708"/>
<text x="102" y="373" font-family="Arial, sans-serif" font-size="11" fill="#333">WARN 5.5.4: Ramp dt versus V-T 20-80% evidence needs review | avg Ramp dt=5.612e-10s, avg V-T 20-80% span=4.217e-...</text>
<text x="425.00" y="322.00" text-anchor="middle" font-family="Arial, sans-serif" font-size="12">Time (s)</text>
<text x="420" y="42" font-family="Arial, sans-serif" font-size="11" fill="#555">solid=V-T voltage, faint horizontal=V_fixture</text>
</svg>