<svg xmlns="http://www.w3.org/2000/svg" width="800" height="450" viewBox="0 0 800 450">
<rect width="100%" height="100%" fill="#ffffff"/>
<text x="78" y="25" font-family="Arial, sans-serif" font-size="16" font-weight="700">E34_GPIO_SPI_1V2_00 V-T Waveforms</text>
<rect x="78" y="54" width="694" height="230" fill="#fbfbfb" stroke="#c8c8c8"/>
<text transform="translate(18 169.00) rotate(-90)" text-anchor="middle" font-family="Arial, sans-serif" font-size="12">Voltage (V)</text>
<line x1="78.00" y1="54" x2="78.00" y2="284" stroke="#ececec"/>
<text x="78.00" y="302" text-anchor="middle" font-family="Arial, sans-serif" font-size="10">-168p</text>
<line x1="216.80" y1="54" x2="216.80" y2="284" stroke="#ececec"/>
<text x="216.80" y="302" text-anchor="middle" font-family="Arial, sans-serif" font-size="10">1.58n</text>
<line x1="355.60" y1="54" x2="355.60" y2="284" stroke="#ececec"/>
<text x="355.60" y="302" text-anchor="middle" font-family="Arial, sans-serif" font-size="10">3.32n</text>
<line x1="494.40" y1="54" x2="494.40" y2="284" stroke="#ececec"/>
<text x="494.40" y="302" text-anchor="middle" font-family="Arial, sans-serif" font-size="10">5.07n</text>
<line x1="633.20" y1="54" x2="633.20" y2="284" stroke="#ececec"/>
<text x="633.20" y="302" text-anchor="middle" font-family="Arial, sans-serif" font-size="10">6.81n</text>
<line x1="772.00" y1="54" x2="772.00" y2="284" stroke="#ececec"/>
<text x="772.00" y="302" text-anchor="middle" font-family="Arial, sans-serif" font-size="10">8.56n</text>
<line x1="78" y1="284.00" x2="772" y2="284.00" stroke="#ececec"/>
<text x="70" y="288.00" text-anchor="end" font-family="Arial, sans-serif" font-size="10">-0.104</text>
<line x1="78" y1="226.50" x2="772" y2="226.50" stroke="#ececec"/>
<text x="70" y="230.50" text-anchor="end" font-family="Arial, sans-serif" font-size="10">0.248</text>
<line x1="78" y1="169.00" x2="772" y2="169.00" stroke="#ececec"/>
<text x="70" y="173.00" text-anchor="end" font-family="Arial, sans-serif" font-size="10">0.599</text>
<line x1="78" y1="111.50" x2="772" y2="111.50" stroke="#ececec"/>
<text x="70" y="115.50" text-anchor="end" font-family="Arial, sans-serif" font-size="10">0.95</text>
<line x1="78" y1="54.00" x2="772" y2="54.00" stroke="#ececec"/>
<text x="70" y="58.00" text-anchor="end" font-family="Arial, sans-serif" font-size="10">1.3</text>
<line x1="78" y1="70.67" x2="772" y2="70.67" stroke="#1f77b4" opacity="0.18" stroke-dasharray="3 4"/>
<polyline fill="none" stroke="#1f77b4" stroke-width="2.0" points="91.35,115.00 96.36,115.00 101.45,115.00 107.73,115.00 112.74,115.00 117.83,115.00 122.84,115.01 125.94,115.01 128.72,114.99 129.44,114.99 129.76,114.98 130.47,114.98 130.79,114.97 131.43,114.96 132.22,114.96 132.94,114.95 133.81,114.94 134.61,114.93 135.48,114.92 136.28,114.91 137.47,114.90 138.03,114.89 138.82,114.89 139.46,114.89 140.18,114.89 140.81,114.90 141.53,114.92 142.16,114.94 142.72,114.97 143.12,114.99 143.91,115.05 144.79,115.13 145.27,115.19 145.98,115.29 146.62,115.39 147.33,115.51 147.89,115.62 148.45,115.74 148.92,115.85 149.72,116.03 150.28,116.16 150.75,116.28 151.79,116.53 152.42,116.67 153.06,116.81 153.93,116.98 154.81,117.11 155.76,117.19 156.64,117.20 157.19,117.15 158.23,116.95 158.86,116.75 159.50,116.49 160.69,115.81 161.81,114.99 162.36,114.48 162.92,113.94 163.56,113.27 164.35,112.34 165.15,111.31 165.70,110.54 166.58,109.27 167.53,107.78 168.25,106.59 169.12,105.11 169.68,104.13 170.71,102.30 171.43,101.01 172.22,99.57 173.26,97.70 174.21,95.99 174.93,94.77 175.64,93.54 176.28,92.45 177.16,91.09 178.35,89.27 179.54,87.55 180.73,86.00 181.69,84.76 182.25,84.13 182.88,83.41 183.44,82.78 184.15,82.02 184.79,81.37 185.82,80.37 186.78,79.52 188.37,78.25 189.64,77.35 190.36,76.89 191.39,76.28 193.22,75.34 193.86,75.05 195.53,74.38 196.80,73.96 197.28,73.81 197.83,73.65 198.79,73.39 199.34,73.25 201.01,72.87 202.29,72.63 202.84,72.53 204.11,72.34 206.18,72.07 208.57,71.84 211.43,71.60 214.21,71.43 214.85,71.40 218.67,71.22 221.77,71.12 222.72,71.09 223.20,71.07 224.24,71.05 224.95,71.03 226.22,71.00 231.23,70.92 233.54,70.89 234.18,70.88 235.37,70.87 237.60,70.85 238.15,70.84 240.06,70.83 242.61,70.81 244.67,70.79 245.47,70.79 247.62,70.78 249.52,70.77 251.43,70.77 252.63,70.76 254.61,70.75 256.13,70.75 257.72,70.75 259.70,70.74 260.82,70.74 262.33,70.73 263.76,70.73 264.63,70.73 265.99,70.73 267.66,70.73 268.85,70.73 270.12,70.72 270.92,70.72 272.11,70.72 273.30,70.72 274.73,70.72 275.69,70.72 276.64,70.71 277.92,70.71 279.03,70.71 280.22,70.71 281.34,70.71 282.29,70.71 283.08,70.71 283.72,70.71 285.39,70.71 286.50,70.71 287.62,70.71 288.73,70.70 289.29,70.70 290.08,70.70 291.51,70.70 292.71,70.70 293.74,70.70 295.57,70.70 296.76,70.70 297.80,70.70 299.31,70.70 300.02,70.70 301.14,70.70 301.69,70.70 303.13,70.70 304.40,70.70 306.55,70.70 307.26,70.70 308.45,70.70 309.57,70.70 311.95,70.69 315.13,70.69 316.96,70.69 318.24,70.69 319.51,70.69 321.97,70.69 323.48,70.69 324.68,70.69 326.27,70.69 327.38,70.69 328.34,70.69 329.61,70.69 331.68,70.69 333.74,70.69 336.77,70.69 338.44,70.69 339.39,70.69 341.22,70.69 342.57,70.69 343.37,70.69 344.00,70.69 345.43,70.69 345.99,70.69 348.22,70.69 348.77,70.69 349.41,70.69 350.28,70.69 351.48,70.69 353.47,70.69 355.06,70.69 355.77,70.69 357.28,70.69 359.83,70.69 362.21,70.69 363.57,70.69 365.95,70.69 367.38,70.69 369.93,70.69 371.92,70.69 374.30,70.69 376.21,70.69 379.55,70.69 382.73,70.68 385.04,70.68 386.87,70.68 390.37,70.68 391.32,70.68 395.14,70.68 396.65,70.68 400.94,70.68 405.24,70.68 411.52,70.68 415.26,70.68 420.35,70.68 424.09,70.68 429.18,70.68 434.19,70.68 438.24,70.68 441.74,70.68 446.83,70.68 449.30,70.68 454.39,70.68 460.67,70.68 465.68,70.68 468.14,70.67"/>
<line x1="78" y1="70.67" x2="772" y2="70.67" stroke="#d62728" opacity="0.18" stroke-dasharray="3 4"/>
<polyline fill="none" stroke="#d62728" stroke-width="2.0" points="91.35,70.67 100.25,70.67 109.24,70.67 113.69,70.67 119.98,70.67 124.83,70.67 126.58,70.67 128.49,70.67 131.51,70.67 134.69,70.67 135.56,70.67 136.28,70.67 138.98,70.67 139.62,70.67 140.97,70.66 142.88,70.66 143.52,70.66 145.03,70.66 147.49,70.66 148.76,70.66 150.12,70.66 151.79,70.66 152.74,70.66 153.70,70.66 154.25,70.67 155.37,70.67 156.72,70.69 157.51,70.70 158.07,70.71 158.71,70.72 159.34,70.73 160.14,70.75 160.85,70.77 161.33,70.78 161.81,70.79 162.44,70.81 163.16,70.83 163.72,70.85 164.03,70.86 164.59,70.87 165.31,70.89 166.50,70.92 167.45,70.94 168.33,70.96 168.96,70.97 169.92,70.99 170.87,71.00 171.75,71.01 172.62,71.02 173.82,71.01 174.45,71.01 175.64,70.99 176.52,70.96 177.31,70.93 177.95,70.90 178.67,70.87 179.78,70.80 180.73,70.73 182.88,70.56 184.71,70.41 185.98,70.31 187.33,70.21 189.16,70.09 189.48,70.07 190.99,69.99 192.42,69.93 194.01,69.88 195.37,69.86 196.72,69.86 198.39,69.91 200.46,70.09 201.49,70.23 202.76,70.47 203.80,70.73 205.31,71.21 206.42,71.66 207.38,72.10 208.33,72.61 209.20,73.13 210.80,74.20 212.23,75.30 213.74,76.59 214.77,77.53 216.20,78.89 217.08,79.75 218.27,80.96 218.91,81.61 220.34,83.09 220.82,83.59 221.61,84.42 222.80,85.64 224.16,87.00 225.67,88.50 227.34,90.13 228.85,91.53 229.80,92.41 230.12,92.68 230.60,93.10 230.99,93.45 231.63,94.01 232.19,94.48 233.54,95.59 234.33,96.24 236.64,98.00 238.63,99.41 239.66,100.09 240.38,100.56 241.17,101.08 242.45,101.84 244.04,102.76 245.87,103.76 247.62,104.55 248.73,105.05 250.24,105.73 252.07,106.46 253.98,107.19 256.05,107.82 258.75,108.59 260.98,109.23 263.20,109.76 267.66,110.71 269.72,111.04 270.76,111.21 271.55,111.34 272.11,111.42 274.73,111.84 277.52,112.17 278.87,112.31 280.38,112.48 282.77,112.74 285.63,112.97 288.41,113.13 289.77,113.21 290.96,113.27 292.23,113.35 295.25,113.52 297.88,113.67 300.26,113.81 301.14,113.86 301.93,113.89 303.36,113.94 305.35,114.01 307.82,114.09 310.68,114.19 315.21,114.32 317.68,114.37 320.14,114.41 321.18,114.43 321.66,114.44 323.09,114.46 323.72,114.47 325.15,114.50 326.51,114.52 327.54,114.54 328.02,114.55 328.97,114.56 329.29,114.57 330.72,114.59 331.52,114.61 331.99,114.61 332.79,114.63 333.43,114.63 334.22,114.64 335.02,114.65 336.92,114.67 339.15,114.68 340.58,114.70 341.46,114.70 342.41,114.71 343.84,114.73 345.83,114.74 347.90,114.76 349.01,114.77 350.52,114.78 351.24,114.79 352.51,114.80 353.39,114.80 354.74,114.81 356.09,114.81 356.65,114.81 357.28,114.82 359.19,114.82 360.86,114.83 362.37,114.83 364.68,114.84 366.35,114.85 368.73,114.86 370.40,114.86 372.55,114.87 375.73,114.88 378.52,114.89 381.54,114.90 385.91,114.91 388.30,114.91 392.20,114.92 395.06,114.92 399.35,114.93 403.33,114.94 408.26,114.95 412.79,114.95 417.64,114.95 423.93,114.95 430.61,114.96 438.56,114.96 445.72,114.97 452.95,114.97 459.63,114.97 468.54,114.98 475.30,114.98 486.43,114.98 495.34,114.98 502.02,114.98 511.01,114.98 519.91,114.98 531.05,114.99 539.96,114.99 548.94,114.99 557.85,114.99 566.76,114.99 575.74,114.99 586.88,114.99 595.78,114.99 604.69,114.99 613.68,114.99 622.58,114.99 631.49,114.99 642.70,114.99 651.61,114.99 660.52,114.99 669.43,114.99 678.41,114.99 689.55,114.99 698.45,114.99 707.36,114.99 716.35,114.99 725.25,114.99 734.16,114.99 745.37,114.99 754.28,114.99 758.65,115.00"/>
<line x1="78" y1="267.02" x2="772" y2="267.02" stroke="#2ca02c" opacity="0.18" stroke-dasharray="3 4"/>
<polyline fill="none" stroke="#2ca02c" stroke-width="2.0" points="91.35,267.02 99.38,267.02 107.49,267.02 117.43,267.01 118.07,267.01 118.78,267.01 119.42,267.01 119.90,267.01 120.37,267.01 121.25,267.01 123.32,267.02 124.03,267.02 124.59,267.02 125.14,267.02 125.70,267.02 126.34,267.02 126.74,267.02 127.05,267.02 127.37,267.03 127.69,267.03 128.09,267.03 128.41,267.03 128.72,267.03 129.04,267.03 129.36,267.03 129.68,267.03 130.23,267.03 130.55,267.03 130.87,267.03 131.19,267.03 133.34,267.03 135.01,267.03 136.28,267.03 138.03,267.03 139.22,267.02 139.94,267.01 141.29,266.98 142.64,266.95 143.20,266.93 143.83,266.90 144.47,266.88 145.03,266.86 145.74,266.83 146.14,266.82 146.46,266.81 146.78,266.79 147.09,266.78 147.41,266.77 147.97,266.75 148.37,266.74 148.84,266.73 149.32,266.72 149.88,266.70 150.67,266.69 151.39,266.68 151.79,266.67 152.34,266.67 152.98,266.66 153.54,266.66 153.93,266.67 154.57,266.67 155.21,266.69 156.00,266.71 156.64,266.74 157.35,266.79 158.07,266.84 158.94,266.91 159.50,266.96 160.06,267.01 160.61,267.07 161.89,267.20 162.68,267.28 163.87,267.40 165.31,267.54 165.94,267.59 166.66,267.66 168.41,267.79 169.12,267.84 170.16,267.91 171.91,268.01 174.05,268.11 176.04,268.13 177.00,268.14 179.78,267.73 181.37,267.49 182.40,267.26 183.52,266.92 184.39,266.58 185.43,266.09 186.38,265.57 186.86,265.28 187.73,264.69 188.53,264.11 189.24,263.55 189.88,263.02 190.52,262.47 190.99,262.04 191.63,261.46 192.27,260.85 192.74,260.39 193.38,259.75 194.17,258.95 194.97,258.13 196.24,256.80 196.64,256.38 197.83,255.13 199.03,253.88 199.58,253.30 200.30,252.56 201.09,251.74 201.81,251.02 202.52,250.31 203.88,249.00 204.99,247.96 206.58,246.57 207.45,245.81 208.49,244.97 210.08,243.75 211.43,242.80 213.02,241.69 214.85,240.51 216.12,239.72 217.63,238.88 220.02,237.64 221.93,236.71 223.60,236.01 225.59,235.21 227.89,234.37 229.09,233.99 230.84,233.44 233.70,232.66 237.12,231.95 239.58,231.44 242.61,230.95 244.59,230.63 247.62,230.31 248.65,230.20 251.35,229.92 252.86,229.76 254.69,229.58 256.76,229.43 258.75,229.28 262.81,229.01 265.51,228.90 268.85,228.75 270.84,228.67 274.58,228.51 276.88,228.44 280.94,228.34 284.44,228.26 288.65,228.16 291.04,228.12 293.34,228.10 295.33,228.07 298.43,228.04 300.02,228.02 301.46,228.01 303.13,227.99 304.88,227.97 307.02,227.94 308.53,227.93 309.89,227.91 311.71,227.89 312.75,227.88 314.26,227.86 315.21,227.86 316.88,227.85 318.24,227.84 319.59,227.83 321.26,227.82 322.85,227.81 324.76,227.80 326.51,227.79 328.65,227.78 329.37,227.77 331.36,227.76 333.35,227.75 335.33,227.74 335.97,227.74 338.12,227.73 340.18,227.72 342.57,227.72 343.45,227.71 345.51,227.71 347.02,227.70 349.41,227.70 351.56,227.69 354.26,227.68 356.81,227.67 359.59,227.66 361.58,227.66 365.32,227.65 369.69,227.64 371.68,227.64 375.73,227.63 378.99,227.62 381.78,227.62 386.39,227.61 391.00,227.60 395.93,227.60 401.26,227.59 403.97,227.59 410.01,227.58 416.61,227.57 420.35,227.57 428.14,227.56 432.20,227.56 440.23,227.55 445.40,227.55 454.39,227.54 462.42,227.54 468.54,227.53 476.57,227.53 482.62,227.53 490.17,227.52 496.77,227.52 504.80,227.52 512.84,227.51 520.95,227.51 528.98,227.51 539.08,227.51 547.19,227.51 555.22,227.50 563.34,227.50 571.37,227.50 579.40,227.50 589.50,227.50 597.61,227.50 605.64,227.49 613.76,227.49 621.79,227.49 631.89,227.49 639.92,227.49 648.03,227.49 656.06,227.49 664.18,227.49 672.21,227.49 682.31,227.49 690.34,227.49 694.32,229.11"/>
<line x1="78" y1="267.02" x2="772" y2="267.02" stroke="#9467bd" opacity="0.18" stroke-dasharray="3 4"/>
<polyline fill="none" stroke="#9467bd" stroke-width="2.0" points="91.35,229.11 96.59,227.48 101.92,227.48 108.52,227.48 113.85,227.48 119.10,227.48 121.73,227.48 124.35,227.48 128.64,227.48 129.36,227.48 129.92,227.48 130.55,227.48 131.11,227.48 131.59,227.48 132.14,227.48 132.46,227.48 132.78,227.48 133.10,227.48 133.42,227.48 133.73,227.47 134.21,227.47 134.85,227.47 135.32,227.47 135.88,227.47 136.44,227.47 136.84,227.47 137.39,227.47 138.27,227.47 138.58,227.47 138.90,227.47 139.22,227.47 139.62,227.47 139.94,227.47 140.26,227.47 140.65,227.47 141.21,227.47 141.77,227.48 142.32,227.48 143.04,227.48 143.83,227.48 144.87,227.48 145.58,227.49 146.86,227.49 148.05,227.50 149.16,227.50 150.12,227.51 150.83,227.51 151.55,227.52 152.42,227.52 153.14,227.53 153.77,227.53 154.33,227.53 154.73,227.53 155.21,227.53 155.60,227.54 155.92,227.54 156.24,227.54 156.64,227.54 157.04,227.54 157.59,227.54 157.99,227.54 158.31,227.54 159.02,227.54 159.50,227.53 160.22,227.53 160.69,227.52 161.01,227.51 161.33,227.51 161.65,227.50 162.28,227.49 163.16,227.46 163.72,227.44 164.19,227.42 165.07,227.37 165.54,227.35 166.50,227.28 166.98,227.25 167.53,227.21 168.17,227.15 169.20,227.06 169.84,227.00 170.63,226.92 171.91,226.78 172.78,226.69 173.18,226.65 173.74,226.60 174.29,226.55 175.56,226.47 176.20,226.45 177.23,226.46 177.95,226.51 178.83,226.61 180.10,226.86 180.65,227.00 181.45,227.27 182.25,227.58 183.04,227.96 183.92,228.44 185.19,229.28 186.14,229.99 187.10,230.78 188.13,231.72 189.16,232.74 190.60,234.22 191.71,235.47 192.66,236.55 193.70,237.78 194.81,239.10 196.08,240.68 197.20,242.05 198.31,243.46 199.34,244.76 199.90,245.47 200.85,246.68 201.89,248.00 202.37,248.60 202.84,249.21 203.64,250.21 204.51,251.29 204.99,251.88 206.02,253.13 206.74,253.96 207.53,254.87 208.17,255.57 208.97,256.41 209.76,257.21 211.11,258.48 212.15,259.37 212.94,259.99 213.66,260.51 214.53,261.10 215.57,261.74 216.28,262.14 217.08,262.55 217.63,262.82 218.59,263.24 219.22,263.49 220.42,263.90 222.17,264.39 224.79,264.97 226.14,265.21 227.58,265.44 230.52,265.80 233.46,266.07 235.45,266.21 237.44,266.32 238.63,266.38 240.70,266.47 242.76,266.54 244.43,266.59 245.31,266.62 246.98,266.65 248.65,266.69 251.27,266.73 252.94,266.75 255.17,266.79 256.52,266.80 258.83,266.82 260.50,266.84 263.12,266.86 264.79,266.87 266.15,266.88 267.42,266.88 268.69,266.89 271.08,266.90 272.43,266.91 274.65,266.92 275.29,266.92 276.64,266.92 278.95,266.93 280.54,266.93 281.97,266.93 283.40,266.94 284.75,266.94 286.35,266.94 288.25,266.95 289.61,266.95 290.88,266.95 292.39,266.95 293.58,266.95 294.85,266.96 296.45,266.96 298.04,266.96 299.07,266.96 300.50,266.96 302.01,266.97 302.81,266.97 304.48,266.97 306.15,266.97 307.50,266.97 309.01,266.97 310.28,266.97 311.71,266.97 313.38,266.97 314.90,266.97 316.33,266.98 318.16,266.98 319.43,266.98 321.73,266.98 323.96,266.98 325.47,266.98 327.78,266.98 329.85,266.98 332.23,266.98 334.54,266.98 337.16,266.98 339.79,266.99 341.78,266.99 344.48,266.99 347.74,266.99 351.72,266.99 354.50,266.99 358.32,266.99 360.94,266.99 365.47,266.99 368.89,266.99 371.52,266.99 374.14,267.00 377.64,267.00 380.82,267.00 384.72,267.00 390.05,267.00 395.30,267.00 400.63,267.00 405.87,267.00 411.20,267.00 417.80,267.00 423.05,267.00 428.38,267.00 433.63,267.00 438.96,267.00 445.56,267.00 450.81,267.01 456.13,267.01 461.38,267.01 466.71,267.01 471.96,267.01 478.56,267.01 483.89,267.01 486.43,267.02"/>
<line x1="88" y1="72" x2="110" y2="72" stroke="#1f77b4" stroke-width="2.4"/>
<text x="116" y="76" font-family="Arial, sans-serif" font-size="12">rising #1</text>
<line x1="88" y1="90" x2="110" y2="90" stroke="#d62728" stroke-width="2.4"/>
<text x="116" y="94" font-family="Arial, sans-serif" font-size="12">falling #2</text>
<line x1="88" y1="108" x2="110" y2="108" stroke="#2ca02c" stroke-width="2.4"/>
<text x="116" y="112" font-family="Arial, sans-serif" font-size="12">rising #3</text>
<line x1="88" y1="126" x2="110" y2="126" stroke="#9467bd" stroke-width="2.4"/>
<text x="116" y="130" font-family="Arial, sans-serif" font-size="12">falling #4</text>
<rect x="78" y="342" width="694" height="44" fill="#fffdf7" stroke="#d8c6a1" rx="4"/>
<text x="88" y="359" font-family="Arial, sans-serif" font-size="11" font-weight="700" fill="#4b3b21">Findings needing attention</text>
<rect x="88" y="366" width="7" height="7" fill="#b54708"/>
<text x="102" y="373" font-family="Arial, sans-serif" font-size="11" fill="#333">WARN 5.5.4: Ramp dt versus V-T 20-80% evidence needs review | avg Ramp dt=4.115e-10s, avg V-T 20-80% span=3.154e-...</text>
<text x="425.00" y="322.00" text-anchor="middle" font-family="Arial, sans-serif" font-size="12">Time (s)</text>
<text x="420" y="42" font-family="Arial, sans-serif" font-size="11" fill="#555">solid=V-T voltage, faint horizontal=V_fixture</text>
</svg>