<svg xmlns="http://www.w3.org/2000/svg" width="800" height="450" viewBox="0 0 800 450">
<rect width="100%" height="100%" fill="#ffffff"/>
<text x="78" y="25" font-family="Arial, sans-serif" font-size="16" font-weight="700">E34_GPIO_SPI_I3C_MST_1V2_11 V-T Waveforms</text>
<rect x="78" y="54" width="694" height="230" fill="#fbfbfb" stroke="#c8c8c8"/>
<text transform="translate(18 169.00) rotate(-90)" text-anchor="middle" font-family="Arial, sans-serif" font-size="12">Voltage (V)</text>
<line x1="78.00" y1="54" x2="78.00" y2="284" stroke="#ececec"/>
<text x="78.00" y="302" text-anchor="middle" font-family="Arial, sans-serif" font-size="10">-788p</text>
<line x1="216.80" y1="54" x2="216.80" y2="284" stroke="#ececec"/>
<text x="216.80" y="302" text-anchor="middle" font-family="Arial, sans-serif" font-size="10">7.4n</text>
<line x1="355.60" y1="54" x2="355.60" y2="284" stroke="#ececec"/>
<text x="355.60" y="302" text-anchor="middle" font-family="Arial, sans-serif" font-size="10">15.6n</text>
<line x1="494.40" y1="54" x2="494.40" y2="284" stroke="#ececec"/>
<text x="494.40" y="302" text-anchor="middle" font-family="Arial, sans-serif" font-size="10">23.8n</text>
<line x1="633.20" y1="54" x2="633.20" y2="284" stroke="#ececec"/>
<text x="633.20" y="302" text-anchor="middle" font-family="Arial, sans-serif" font-size="10">32n</text>
<line x1="772.00" y1="54" x2="772.00" y2="284" stroke="#ececec"/>
<text x="772.00" y="302" text-anchor="middle" font-family="Arial, sans-serif" font-size="10">40.2n</text>
<line x1="78" y1="284.00" x2="772" y2="284.00" stroke="#ececec"/>
<text x="70" y="288.00" text-anchor="end" font-family="Arial, sans-serif" font-size="10">-0.106</text>
<line x1="78" y1="226.50" x2="772" y2="226.50" stroke="#ececec"/>
<text x="70" y="230.50" text-anchor="end" font-family="Arial, sans-serif" font-size="10">0.248</text>
<line x1="78" y1="169.00" x2="772" y2="169.00" stroke="#ececec"/>
<text x="70" y="173.00" text-anchor="end" font-family="Arial, sans-serif" font-size="10">0.603</text>
<line x1="78" y1="111.50" x2="772" y2="111.50" stroke="#ececec"/>
<text x="70" y="115.50" text-anchor="end" font-family="Arial, sans-serif" font-size="10">0.957</text>
<line x1="78" y1="54.00" x2="772" y2="54.00" stroke="#ececec"/>
<text x="70" y="58.00" text-anchor="end" font-family="Arial, sans-serif" font-size="10">1.3</text>
<line x1="78" y1="72.06" x2="772" y2="72.06" stroke="#1f77b4" opacity="0.18" stroke-dasharray="3 4"/>
<polyline fill="none" stroke="#1f77b4" stroke-width="2.0" points="91.35,223.66 92.74,223.66 94.13,223.66 95.87,223.65 97.26,223.66 98.67,223.66 99.97,223.61 100.16,223.60 100.45,223.58 100.80,223.57 101.06,223.56 101.23,223.55 101.53,223.56 101.73,223.57 101.96,223.59 102.16,223.64 102.34,223.69 102.50,223.75 102.62,223.80 102.77,223.88 102.92,223.97 103.01,224.02 103.09,224.08 103.18,224.14 103.26,224.20 103.34,224.27 103.46,224.36 103.60,224.47 103.77,224.62 103.89,224.72 104.07,224.88 104.23,225.01 104.36,225.13 104.50,225.24 104.63,225.36 104.72,225.42 104.79,225.48 104.92,225.58 105.02,225.66 105.09,225.70 105.16,225.75 105.23,225.79 105.34,225.86 105.45,225.92 105.60,225.99 105.67,226.01 105.79,226.04 105.90,226.06 106.02,226.06 106.17,226.03 106.29,225.99 106.43,225.91 106.53,225.82 106.72,225.61 106.90,225.31 107.04,225.04 107.28,224.45 107.41,224.02 107.62,223.28 107.87,222.17 108.02,221.38 108.23,220.21 108.48,218.47 108.73,216.40 108.82,215.60 108.99,213.96 109.17,211.93 109.46,208.20 109.62,205.97 109.82,202.66 110.07,198.02 110.16,196.32 110.26,194.26 110.50,189.05 110.63,185.94 110.84,181.03 111.07,175.05 111.24,170.65 111.41,166.16 111.58,161.60 111.75,156.99 111.92,152.34 112.09,147.67 112.33,141.14 112.43,138.36 112.63,132.84 112.77,129.21 112.95,124.29 113.12,119.91 113.31,115.23 113.50,110.72 113.65,107.19 113.85,102.78 114.00,99.68 114.19,96.26 114.29,94.49 114.53,90.79 114.68,88.70 114.87,86.45 115.00,85.02 115.11,84.05 115.22,83.03 115.34,82.11 115.51,80.96 115.72,79.80 115.80,79.38 116.00,78.49 116.31,77.43 116.56,76.75 116.78,76.27 117.22,75.53 117.48,75.20 117.63,75.03 118.44,74.38 118.87,74.14 119.56,73.81 119.85,73.68 119.94,73.64 120.26,73.50 121.41,73.08 122.36,72.83 123.19,72.66 123.43,72.63 123.58,72.61 123.72,72.59 123.80,72.58 124.17,72.53 124.80,72.46 125.73,72.39 126.19,72.36 126.63,72.34 127.24,72.31 127.63,72.29 128.22,72.27 128.60,72.26 128.92,72.25 129.32,72.24 129.73,72.23 130.22,72.22 130.43,72.21 130.80,72.21 131.10,72.20 131.48,72.19 131.76,72.19 132.05,72.18 132.31,72.18 132.53,72.18 132.80,72.17 133.17,72.17 133.49,72.16 133.83,72.16 134.15,72.16 134.37,72.16 134.80,72.15 135.24,72.15 135.58,72.14 135.92,72.14 136.26,72.14 136.49,72.14 136.73,72.14 137.04,72.13 137.36,72.13 137.68,72.13 138.00,72.13 138.37,72.12 138.80,72.12 139.14,72.12 139.53,72.12 139.78,72.12 140.02,72.12 140.39,72.11 140.54,72.11 140.81,72.11 141.46,72.11 141.87,72.11 142.07,72.11 142.56,72.10 143.26,72.10 143.70,72.10 144.31,72.10 144.64,72.10 144.95,72.10 145.49,72.10 146.05,72.10 147.12,72.09 147.51,72.09 147.61,72.09 148.02,72.09 148.83,72.09 149.17,72.09 149.31,72.09 149.41,72.09 149.53,72.09 149.86,72.09 150.22,72.09 150.56,72.09 151.97,72.08 153.02,72.08 153.71,72.08 154.42,72.08 154.95,72.08 156.03,72.08 156.44,72.08 156.91,72.08 157.52,72.08 158.03,72.08 158.68,72.08 159.37,72.08 159.76,72.08 160.24,72.08 160.78,72.07 161.98,72.07 162.74,72.07 163.47,72.07 164.93,72.07 165.91,72.07 166.51,72.07 167.05,72.07 168.34,72.07 168.96,72.07 170.12,72.07 171.13,72.07 172.52,72.07 173.91,72.07 175.32,72.07 176.71,72.07 178.10,72.07 179.49,72.07 180.54,72.07 181.93,72.07 183.32,72.07 185.06,72.07 186.45,72.07 187.86,72.07 189.25,72.06 190.64,72.06 192.03,72.06 193.44,72.06 194.82,72.06 195.50,72.06"/>
<line x1="78" y1="72.06" x2="772" y2="72.06" stroke="#d62728" opacity="0.18" stroke-dasharray="3 4"/>
<polyline fill="none" stroke="#d62728" stroke-width="2.0" points="91.35,72.06 95.38,72.06 98.89,72.06 100.41,72.06 101.43,72.05 101.79,72.05 102.57,72.05 103.43,72.05 104.09,72.05 104.73,72.06 105.19,72.07 105.48,72.08 105.63,72.09 105.80,72.10 105.95,72.10 106.11,72.11 106.23,72.12 106.34,72.12 106.50,72.13 106.63,72.14 106.90,72.15 107.04,72.15 107.17,72.16 107.40,72.16 107.58,72.16 107.80,72.17 108.02,72.17 108.21,72.17 108.39,72.17 108.53,72.17 108.70,72.16 108.89,72.15 109.09,72.12 109.17,72.11 109.39,72.07 109.51,72.04 109.73,71.98 109.95,71.90 110.04,71.86 110.21,71.79 110.46,71.67 110.53,71.63 110.73,71.53 110.82,71.49 111.00,71.39 111.11,71.34 111.23,71.28 111.38,71.21 111.56,71.11 111.73,71.04 111.84,70.99 112.00,70.91 112.12,70.86 112.33,70.78 112.41,70.75 112.60,70.68 112.78,70.61 112.89,70.57 113.07,70.51 113.26,70.44 113.43,70.39 113.70,70.31 114.02,70.21 114.41,70.09 114.89,69.97 115.02,69.94 115.24,69.89 115.67,69.86 116.07,69.95 116.41,70.17 116.58,70.36 116.99,71.07 117.09,71.32 117.31,71.97 117.55,72.87 117.83,74.26 118.14,76.05 118.41,77.97 118.55,79.02 118.80,81.22 118.90,82.19 119.19,85.07 119.48,88.24 119.61,89.84 119.99,94.37 120.24,97.63 120.56,101.90 120.80,105.12 121.14,109.83 121.53,115.31 121.90,120.58 122.34,126.79 122.70,131.75 123.00,135.92 123.36,140.70 123.60,143.84 123.94,148.21 124.24,152.08 124.61,156.68 125.07,162.11 125.49,166.97 125.78,170.14 126.07,173.21 126.49,177.54 126.71,179.69 127.14,183.65 127.34,185.47 127.75,188.93 128.17,192.27 128.46,194.40 128.63,195.58 128.90,197.40 129.31,199.90 129.56,201.34 129.99,203.53 130.10,204.11 130.24,204.74 130.43,205.59 130.78,207.07 131.10,208.30 131.58,209.91 132.21,211.73 132.68,212.91 133.22,214.10 133.39,214.44 134.26,215.96 134.41,216.20 134.68,216.60 134.92,216.93 134.98,217.02 135.61,217.79 135.73,217.92 136.19,218.40 136.29,218.50 136.51,218.71 136.88,219.04 137.19,219.29 137.65,219.63 138.39,220.12 139.71,220.82 140.05,220.97 140.78,221.26 141.34,221.46 141.48,221.51 141.83,221.62 141.90,221.64 142.73,221.88 143.73,222.12 144.39,222.26 144.78,222.33 145.14,222.40 145.64,222.49 146.07,222.57 146.83,222.69 147.39,222.77 147.54,222.79 147.78,222.82 147.92,222.84 148.15,222.87 148.81,222.95 149.54,223.03 150.00,223.07 150.80,223.15 151.54,223.19 152.39,223.24 153.24,223.29 153.88,223.32 154.75,223.36 155.41,223.38 156.08,223.40 157.03,223.43 157.85,223.45 158.83,223.47 159.41,223.48 160.27,223.49 161.20,223.51 162.20,223.52 162.93,223.53 164.08,223.54 165.37,223.55 166.83,223.56 168.93,223.57 170.51,223.58 172.10,223.58 174.00,223.59 176.25,223.59 179.01,223.60 182.03,223.61 185.06,223.61 188.08,223.62 191.10,223.62 195.13,223.62 199.93,223.63 203.20,223.63 207.23,223.63 211.26,223.64 215.28,223.64 219.31,223.64 224.35,223.64 228.38,223.64 232.41,223.64 236.45,223.64 240.48,223.65 245.51,223.65 249.55,223.65 253.58,223.65 257.61,223.65 261.63,223.65 265.66,223.65 270.71,223.65 274.73,223.65 278.76,223.65 282.80,223.65 286.83,223.65 291.86,223.65 295.90,223.65 299.93,223.65 303.96,223.65 308.00,223.65 312.01,223.65 317.06,223.65 321.08,223.65 325.11,223.65 329.15,223.65 333.18,223.65 337.21,223.65 342.25,223.65 344.69,223.65 348.30,223.65 352.33,223.65 356.36,223.65 361.40,223.65 365.43,223.65 369.45,223.65 373.48,223.65 377.51,223.65 381.55,223.65 386.58,223.65 390.61,223.65 392.61,223.66"/>
<line x1="78" y1="266.81" x2="772" y2="266.81" stroke="#2ca02c" opacity="0.18" stroke-dasharray="3 4"/>
<polyline fill="none" stroke="#2ca02c" stroke-width="2.0" points="91.35,266.81 98.04,266.81 101.48,266.80 102.04,266.77 102.40,266.75 102.62,266.73 102.75,266.72 102.89,266.71 103.01,266.70 103.12,266.70 103.21,266.69 103.29,266.69 103.38,266.68 103.46,266.68 103.58,266.68 103.68,266.68 103.82,266.68 103.97,266.68 104.12,266.68 104.26,266.68 104.46,266.68 104.62,266.69 104.73,266.70 104.85,266.71 105.01,266.73 105.16,266.75 105.36,266.79 105.51,266.82 105.67,266.87 105.85,266.93 106.02,266.99 106.23,267.08 106.33,267.12 106.45,267.17 106.55,267.22 106.68,267.28 106.82,267.34 107.02,267.43 107.16,267.49 107.31,267.55 107.55,267.65 107.75,267.73 107.94,267.80 108.07,267.85 108.28,267.92 108.58,268.02 108.89,268.10 109.16,268.14 109.50,268.10 109.84,267.89 109.95,267.74 110.29,267.19 110.43,266.84 110.73,265.92 110.95,265.04 111.11,264.28 111.33,263.04 111.48,262.04 111.68,260.50 111.80,259.49 112.04,257.22 112.16,255.96 112.36,253.59 112.46,252.31 112.73,248.59 112.87,246.58 113.06,243.67 113.22,240.90 113.46,236.93 113.67,233.48 113.92,229.18 114.16,225.22 114.39,221.35 114.63,217.57 114.89,213.65 115.00,211.86 115.26,208.14 115.43,205.77 115.56,203.90 115.72,201.84 115.95,198.82 116.09,197.10 116.39,193.41 116.67,190.30 116.77,189.18 116.90,187.75 117.16,185.05 117.43,182.32 117.68,179.87 118.21,175.15 118.41,173.44 118.70,171.16 118.92,169.50 119.26,167.10 119.63,164.66 119.99,162.52 120.36,160.47 120.58,159.34 120.85,158.04 121.19,156.54 121.38,155.77 121.80,154.16 122.26,152.64 123.04,150.37 123.72,148.74 124.36,147.44 125.43,145.76 126.29,144.76 127.05,144.06 128.68,142.98 130.34,142.24 132.95,141.58 134.68,141.32 135.48,141.24 136.09,141.18 136.80,141.13 137.17,141.10 137.51,141.08 137.83,141.06 138.22,141.04 138.80,141.02 139.14,141.00 139.63,140.99 140.05,140.97 140.48,140.96 140.98,140.95 141.39,140.94 141.90,140.93 142.39,140.93 142.81,140.92 143.12,140.92 143.95,140.91 144.48,140.91 145.02,140.90 145.59,140.90 145.85,140.90 146.42,140.90 147.12,140.90 147.59,140.89 148.39,140.89 148.97,140.89 149.58,140.89 150.98,140.89 151.76,140.89 152.98,140.88 154.24,140.87 156.27,140.82 158.30,140.75 162.76,140.63 165.00,140.59 171.69,140.50 174.32,140.47 178.69,140.43 183.11,140.39 187.32,140.35 193.72,140.29 196.25,140.27 200.71,140.23 204.67,140.20 211.87,140.14 218.79,140.09 225.96,140.04 229.72,140.01 236.41,139.96 243.11,139.92 252.02,139.86 255.61,139.84 263.21,139.79 270.21,139.75 278.81,139.70 285.53,139.66 289.10,139.64 293.08,139.62 296.68,139.60 303.37,139.57 310.06,139.54 316.83,139.50 323.45,139.47 330.15,139.44 337.82,139.41 345.77,139.38 352.75,139.35 361.40,139.31 368.09,139.29 375.43,139.26 381.48,139.24 388.19,139.21 394.89,139.19 398.17,139.18 403.80,139.16 410.49,139.13 415.05,139.12 426.12,139.08 430.59,139.07 439.46,139.04 444.62,139.02 450.67,139.01 455.13,138.99 464.06,138.96 470.76,138.94 478.16,138.93 481.93,138.92 488.62,138.90 497.55,138.88 502.92,138.86 508.70,138.85 515.40,138.83 519.62,138.82 526.56,138.80 535.48,138.78 542.19,138.76 548.66,138.75 551.71,138.74 557.80,138.73 568.97,138.70 577.90,138.68 584.59,138.67 591.35,138.65 600.22,138.64 609.13,138.62 619.59,138.60 626.99,138.59 633.69,138.58 642.62,138.56 651.55,138.54 656.01,138.53 664.94,138.52 671.63,138.51 680.56,138.49 687.26,138.48 692.36,138.47 699.24,138.46 707.34,138.45 716.27,138.43 725.20,138.42 731.89,138.41 740.81,138.39 749.06,138.38 754.21,138.37 758.65,138.35"/>
<line x1="78" y1="266.81" x2="772" y2="266.81" stroke="#9467bd" opacity="0.18" stroke-dasharray="3 4"/>
<polyline fill="none" stroke="#9467bd" stroke-width="2.0" points="91.35,137.33 92.48,137.33 93.24,137.33 93.70,137.33 94.74,137.33 95.85,137.33 96.29,137.33 96.67,137.33 97.41,137.33 97.62,137.33 97.75,137.33 97.85,137.33 97.96,137.33 98.04,137.33 98.14,137.33 98.23,137.33 98.33,137.33 98.41,137.33 98.50,137.33 98.58,137.33 98.70,137.33 98.80,137.33 98.90,137.33 99.02,137.33 99.24,137.33 99.38,137.33 99.50,137.33 99.63,137.33 99.73,137.33 99.84,137.33 99.97,137.33 100.18,137.33 100.24,137.33 100.41,137.33 100.50,137.33 100.75,137.33 100.85,137.33 100.96,137.33 101.14,137.33 101.24,137.33 101.34,137.33 101.43,137.33 101.58,137.33 101.68,137.33 101.80,137.34 101.97,137.34 102.09,137.34 102.16,137.34 102.26,137.35 102.41,137.35 102.51,137.35 102.63,137.36 102.75,137.36 102.85,137.37 102.99,137.37 103.12,137.38 103.28,137.38 103.40,137.39 103.55,137.39 103.63,137.39 103.73,137.40 103.80,137.40 104.06,137.41 104.26,137.41 104.48,137.42 104.63,137.42 104.75,137.42 104.92,137.42 105.04,137.42 105.12,137.41 105.26,137.41 105.38,137.40 105.48,137.39 105.58,137.38 105.68,137.37 105.80,137.35 106.01,137.31 106.11,137.29 106.21,137.26 106.41,137.19 106.53,137.15 106.77,137.05 106.92,136.98 107.11,136.89 107.28,136.79 107.43,136.71 107.63,136.58 107.84,136.45 108.01,136.34 108.11,136.27 108.24,136.18 108.43,136.05 108.63,135.91 108.78,135.80 108.94,135.71 109.11,135.61 109.24,135.55 109.36,135.51 109.63,135.49 109.78,135.53 109.94,135.62 110.09,135.76 110.24,135.97 110.39,136.25 110.61,136.78 110.75,137.19 110.94,137.85 111.12,138.66 111.34,139.78 111.85,143.16 112.09,145.10 112.29,146.97 112.51,149.19 112.73,151.60 113.04,155.26 113.34,159.19 113.53,161.70 113.78,165.26 114.09,169.70 114.34,173.51 114.61,177.63 114.78,180.24 114.95,182.87 115.19,186.58 115.44,190.58 115.70,194.60 116.11,201.04 116.39,205.57 116.70,210.33 117.04,215.52 117.29,219.35 117.66,224.80 117.92,228.41 118.04,230.06 118.31,233.75 118.53,236.64 118.68,238.58 119.05,243.02 119.31,245.83 119.48,247.58 119.70,249.70 119.85,251.08 120.19,253.84 120.46,255.74 120.61,256.69 120.95,258.53 121.12,259.32 121.34,260.21 121.70,261.41 121.99,262.18 122.29,262.84 122.56,263.32 123.05,263.99 124.38,265.03 125.41,265.51 126.65,265.92 127.80,266.16 128.93,266.32 129.54,266.39 130.26,266.45 130.53,266.47 131.21,266.52 131.60,266.53 131.99,266.55 132.65,266.57 133.04,266.59 133.41,266.60 133.87,266.61 134.14,266.62 134.51,266.63 134.88,266.64 135.21,266.65 135.46,266.65 135.87,266.66 136.14,266.67 136.49,266.67 136.90,266.68 137.29,266.69 137.66,266.69 138.04,266.70 138.43,266.70 138.80,266.70 139.20,266.71 139.56,266.71 139.93,266.71 140.32,266.72 140.71,266.72 141.19,266.72 141.61,266.73 141.88,266.73 142.17,266.73 142.49,266.73 142.98,266.74 143.36,266.74 143.92,266.74 144.22,266.74 144.75,266.75 145.03,266.75 145.64,266.75 146.39,266.75 147.15,266.75 147.53,266.76 148.29,266.76 149.81,266.76 150.95,266.76 152.08,266.77 153.61,266.77 155.12,266.77 156.27,266.77 158.17,266.78 159.68,266.78 161.20,266.78 162.71,266.78 164.24,266.78 166.13,266.79 167.66,266.79 169.17,266.79 170.69,266.79 172.20,266.79 173.73,266.79 175.62,266.79 177.15,266.79 178.66,266.79 180.18,266.79 181.71,266.79 183.22,266.80 185.11,266.80 186.64,266.80 188.15,266.80 189.67,266.80 191.20,266.80 193.10,266.80 194.60,266.80 196.13,266.80 197.64,266.80 199.16,266.80 200.69,266.80 202.59,266.80 204.09,266.80 204.84,266.80"/>
<line x1="88" y1="72" x2="110" y2="72" stroke="#1f77b4" stroke-width="2.4"/>
<text x="116" y="76" font-family="Arial, sans-serif" font-size="12">rising #1</text>
<line x1="88" y1="90" x2="110" y2="90" stroke="#d62728" stroke-width="2.4"/>
<text x="116" y="94" font-family="Arial, sans-serif" font-size="12">falling #2</text>
<line x1="88" y1="108" x2="110" y2="108" stroke="#2ca02c" stroke-width="2.4"/>
<text x="116" y="112" font-family="Arial, sans-serif" font-size="12">rising #3</text>
<line x1="88" y1="126" x2="110" y2="126" stroke="#9467bd" stroke-width="2.4"/>
<text x="116" y="130" font-family="Arial, sans-serif" font-size="12">falling #4</text>
<rect x="78" y="342" width="694" height="44" fill="#fffdf7" stroke="#d8c6a1" rx="4"/>
<text x="88" y="359" font-family="Arial, sans-serif" font-size="11" font-weight="700" fill="#4b3b21">Findings needing attention</text>
<rect x="88" y="366" width="7" height="7" fill="#b54708"/>
<text x="102" y="373" font-family="Arial, sans-serif" font-size="11" fill="#333">WARN 5.5.4: Ramp dt versus V-T 20-80% evidence needs review | avg Ramp dt=4.200e-10s, avg V-T 20-80% span=3.399e-...</text>
<text x="425.00" y="322.00" text-anchor="middle" font-family="Arial, sans-serif" font-size="12">Time (s)</text>
<text x="420" y="42" font-family="Arial, sans-serif" font-size="11" fill="#555">solid=V-T voltage, faint horizontal=V_fixture</text>
</svg>