<svg xmlns="http://www.w3.org/2000/svg" width="800" height="450" viewBox="0 0 800 450">
<rect width="100%" height="100%" fill="#ffffff"/>
<text x="78" y="25" font-family="Arial, sans-serif" font-size="16" font-weight="700">E34_GPIO_SPI_1V1_01 V-T Waveforms</text>
<rect x="78" y="54" width="694" height="230" fill="#fbfbfb" stroke="#c8c8c8"/>
<text transform="translate(18 169.00) rotate(-90)" text-anchor="middle" font-family="Arial, sans-serif" font-size="12">Voltage (V)</text>
<line x1="78.00" y1="54" x2="78.00" y2="284" stroke="#ececec"/>
<text x="78.00" y="302" text-anchor="middle" font-family="Arial, sans-serif" font-size="10">-413p</text>
<line x1="216.80" y1="54" x2="216.80" y2="284" stroke="#ececec"/>
<text x="216.80" y="302" text-anchor="middle" font-family="Arial, sans-serif" font-size="10">3.88n</text>
<line x1="355.60" y1="54" x2="355.60" y2="284" stroke="#ececec"/>
<text x="355.60" y="302" text-anchor="middle" font-family="Arial, sans-serif" font-size="10">8.17n</text>
<line x1="494.40" y1="54" x2="494.40" y2="284" stroke="#ececec"/>
<text x="494.40" y="302" text-anchor="middle" font-family="Arial, sans-serif" font-size="10">12.5n</text>
<line x1="633.20" y1="54" x2="633.20" y2="284" stroke="#ececec"/>
<text x="633.20" y="302" text-anchor="middle" font-family="Arial, sans-serif" font-size="10">16.8n</text>
<line x1="772.00" y1="54" x2="772.00" y2="284" stroke="#ececec"/>
<text x="772.00" y="302" text-anchor="middle" font-family="Arial, sans-serif" font-size="10">21n</text>
<line x1="78" y1="284.00" x2="772" y2="284.00" stroke="#ececec"/>
<text x="70" y="288.00" text-anchor="end" font-family="Arial, sans-serif" font-size="10">-0.0979</text>
<line x1="78" y1="226.50" x2="772" y2="226.50" stroke="#ececec"/>
<text x="70" y="230.50" text-anchor="end" font-family="Arial, sans-serif" font-size="10">0.226</text>
<line x1="78" y1="169.00" x2="772" y2="169.00" stroke="#ececec"/>
<text x="70" y="173.00" text-anchor="end" font-family="Arial, sans-serif" font-size="10">0.549</text>
<line x1="78" y1="111.50" x2="772" y2="111.50" stroke="#ececec"/>
<text x="70" y="115.50" text-anchor="end" font-family="Arial, sans-serif" font-size="10">0.873</text>
<line x1="78" y1="54.00" x2="772" y2="54.00" stroke="#ececec"/>
<text x="70" y="58.00" text-anchor="end" font-family="Arial, sans-serif" font-size="10">1.2</text>
<line x1="78" y1="71.07" x2="772" y2="71.07" stroke="#1f77b4" opacity="0.18" stroke-dasharray="3 4"/>
<polyline fill="none" stroke="#1f77b4" stroke-width="2.0" points="91.35,155.40 93.71,155.40 96.10,155.40 99.04,155.39 101.44,155.40 103.80,155.42 105.06,155.42 106.77,155.41 108.07,155.35 108.45,155.33 108.71,155.32 108.94,155.31 109.10,155.30 109.36,155.29 109.68,155.27 110.10,155.24 110.46,155.23 110.81,155.21 111.11,155.19 111.46,155.17 111.91,155.14 112.17,155.13 112.63,155.11 112.92,155.10 113.27,155.10 113.53,155.11 114.05,155.15 114.44,155.22 114.70,155.28 115.05,155.39 115.37,155.53 115.86,155.79 116.15,155.98 116.44,156.19 116.83,156.51 117.25,156.90 117.51,157.15 117.87,157.53 118.12,157.81 118.38,158.10 118.61,158.36 118.80,158.58 119.09,158.91 119.29,159.13 119.58,159.45 119.87,159.77 120.06,159.97 120.39,160.28 120.74,160.58 121.10,160.82 121.29,160.92 121.49,160.99 121.65,161.02 121.91,161.03 122.13,160.96 122.36,160.84 122.62,160.64 122.85,160.37 123.07,160.05 123.52,159.17 123.95,158.10 124.20,157.31 124.43,156.56 124.75,155.33 124.92,154.68 125.30,152.96 125.66,151.18 126.01,149.27 126.34,147.44 126.76,144.90 127.05,143.02 127.47,140.25 127.86,137.60 128.25,134.84 128.57,132.52 128.80,130.87 129.09,128.74 129.48,125.89 129.83,123.28 130.09,121.39 130.45,118.80 130.83,116.08 131.22,113.37 131.64,110.56 131.97,108.47 132.19,107.02 132.61,104.42 133.00,102.20 133.23,100.90 133.74,98.13 134.29,95.40 134.62,93.86 135.10,91.79 135.49,90.13 135.75,89.10 136.01,88.11 136.30,87.01 136.56,86.08 137.01,84.54 137.27,83.71 137.66,82.53 138.08,81.36 138.30,80.77 138.85,79.45 139.11,78.89 139.44,78.23 139.76,77.62 140.24,76.80 140.60,76.28 141.05,75.67 141.57,75.08 141.89,74.75 142.31,74.38 142.70,74.07 143.09,73.79 143.35,73.62 143.54,73.50 143.74,73.38 144.48,73.01 144.84,72.86 145.68,72.56 145.94,72.49 147.07,72.22 147.65,72.10 148.65,71.94 149.40,71.84 150.37,71.73 150.59,71.71 150.72,71.70 151.14,71.66 151.27,71.65 151.85,71.60 152.31,71.57 152.82,71.53 153.60,71.48 154.15,71.45 154.77,71.42 155.67,71.38 155.99,71.37 156.22,71.36 156.67,71.34 157.16,71.32 157.51,71.31 157.90,71.30 158.10,71.30 158.32,71.29 158.68,71.28 158.90,71.28 159.33,71.26 159.49,71.26 159.88,71.25 160.10,71.25 160.52,71.24 160.97,71.23 161.62,71.22 162.01,71.22 162.33,71.21 162.69,71.21 163.24,71.20 163.66,71.20 164.66,71.19 165.21,71.18 165.44,71.18 165.99,71.17 166.67,71.17 167.28,71.16 167.64,71.16 168.12,71.16 168.61,71.16 168.93,71.15 169.58,71.15 169.90,71.15 170.29,71.15 170.81,71.15 171.26,71.14 171.68,71.14 172.46,71.14 173.04,71.14 173.39,71.13 173.98,71.13 174.53,71.13 175.30,71.13 175.92,71.13 176.63,71.13 177.11,71.12 177.76,71.12 178.31,71.12 178.63,71.12 179.38,71.12 179.80,71.12 180.57,71.12 181.41,71.12 182.25,71.11 182.64,71.11 183.55,71.11 184.03,71.11 184.65,71.11 185.46,71.11 186.39,71.11 187.43,71.11 188.21,71.11 188.72,71.11 189.76,71.10 191.54,71.10 193.25,71.10 194.51,71.10 195.68,71.10 197.45,71.10 199.85,71.10 201.46,71.10 203.40,71.10 204.67,71.10 206.96,71.09 208.74,71.09 211.68,71.09 213.46,71.09 215.86,71.09 218.22,71.09 220.00,71.09 222.36,71.09 225.33,71.09 227.01,71.09 228.89,71.09 231.25,71.09 233.61,71.09 236.00,71.09 238.95,71.08 240.73,71.08 243.12,71.08 245.48,71.08 247.84,71.08 250.30,71.08 252.59,71.08 254.96,71.08 257.35,71.08 259.71,71.08 262.07,71.08 265.05,71.08 267.41,71.08 268.57,71.08"/>
<line x1="78" y1="71.07" x2="772" y2="71.07" stroke="#d62728" opacity="0.18" stroke-dasharray="3 4"/>
<polyline fill="none" stroke="#d62728" stroke-width="2.0" points="91.35,71.07 95.68,71.07 98.30,71.07 102.70,71.07 103.34,71.07 104.41,71.07 106.38,71.07 107.45,71.07 107.94,71.08 108.42,71.08 109.29,71.08 109.42,71.08 109.88,71.08 110.65,71.08 111.36,71.08 112.17,71.07 112.56,71.07 113.11,71.07 113.76,71.07 114.34,71.07 114.92,71.07 115.54,71.07 115.67,71.07 116.73,71.07 117.22,71.07 118.09,71.07 118.87,71.07 119.13,71.07 119.42,71.07 119.97,71.07 120.36,71.07 120.87,71.07 121.20,71.07 121.45,71.07 121.78,71.07 121.97,71.08 122.17,71.08 122.46,71.08 122.72,71.09 122.91,71.09 123.14,71.10 123.27,71.10 123.52,71.11 123.69,71.12 123.88,71.12 124.07,71.13 124.27,71.14 124.53,71.15 124.82,71.16 124.98,71.16 125.27,71.18 125.47,71.18 125.59,71.19 125.79,71.20 126.05,71.21 126.34,71.22 126.50,71.22 126.76,71.23 127.05,71.24 127.57,71.25 127.79,71.26 127.99,71.26 128.18,71.27 128.51,71.27 128.89,71.28 129.28,71.29 129.51,71.29 129.86,71.29 130.57,71.29 130.90,71.28 131.12,71.28 131.45,71.26 131.67,71.25 132.13,71.22 132.77,71.14 133.42,71.05 133.91,70.96 134.29,70.88 134.68,70.81 134.84,70.77 135.17,70.71 135.43,70.65 135.65,70.61 135.78,70.58 135.94,70.55 136.10,70.52 136.43,70.46 136.72,70.41 136.95,70.37 137.53,70.27 137.69,70.25 137.98,70.21 138.50,70.14 138.82,70.10 139.08,70.07 139.37,70.04 139.63,70.01 139.89,69.99 140.24,69.96 140.60,69.93 141.15,69.89 141.73,69.87 142.02,69.86 142.48,69.87 142.70,69.89 143.12,69.92 143.45,69.97 143.83,70.06 144.35,70.21 144.93,70.47 145.35,70.71 145.71,70.96 146.32,71.50 146.84,72.06 147.68,73.18 147.84,73.43 148.20,74.03 148.52,74.62 148.85,75.27 149.24,76.12 149.75,77.36 150.17,78.42 150.40,79.02 150.82,80.19 151.11,81.00 151.37,81.76 151.85,83.22 152.15,84.10 152.40,84.92 152.63,85.64 152.82,86.25 153.25,87.60 153.83,89.50 154.60,92.06 155.02,93.45 155.90,96.33 156.96,99.82 157.51,101.56 158.52,104.71 159.16,106.66 159.84,108.66 160.68,111.13 161.56,113.48 162.53,116.09 163.21,117.78 164.31,120.40 165.05,122.17 165.83,123.77 167.47,127.14 167.93,128.01 169.93,131.44 171.00,133.17 172.39,135.11 173.85,137.14 174.82,138.28 176.50,140.25 178.18,141.91 179.80,143.41 181.90,145.13 183.97,146.58 186.30,147.97 189.24,149.40 192.09,150.52 194.38,151.26 199.04,152.42 200.91,152.78 202.37,153.02 204.41,153.33 205.96,153.52 207.29,153.68 209.00,153.85 210.52,153.99 211.75,154.10 212.91,154.18 214.14,154.26 215.44,154.34 217.08,154.44 218.31,154.51 219.54,154.55 220.77,154.60 222.03,154.65 223.36,154.70 224.65,154.75 226.04,154.80 227.47,154.84 228.99,154.88 230.28,154.91 232.25,154.96 233.77,154.98 235.36,155.00 237.23,155.03 238.91,155.06 241.34,155.09 243.22,155.11 246.39,155.14 247.65,155.16 251.14,155.18 253.08,155.19 256.51,155.21 258.51,155.22 261.55,155.24 265.01,155.25 268.51,155.26 272.39,155.28 275.46,155.29 278.92,155.30 283.54,155.31 288.17,155.32 291.66,155.33 297.45,155.34 300.91,155.35 305.54,155.35 310.19,155.36 314.82,155.36 319.44,155.36 324.07,155.37 328.72,155.37 333.35,155.37 337.97,155.37 342.60,155.37 348.39,155.37 353.01,155.37 357.67,155.37 362.29,155.37 366.92,155.37 371.54,155.37 377.33,155.38 381.96,155.38 386.61,155.38 391.24,155.38 395.86,155.38 401.65,155.38 406.28,155.38 410.93,155.38 415.56,155.38 420.18,155.38 424.81,155.38 430.59,155.38 435.22,155.38 437.52,155.39"/>
<line x1="78" y1="266.59" x2="772" y2="266.59" stroke="#2ca02c" opacity="0.18" stroke-dasharray="3 4"/>
<polyline fill="none" stroke="#2ca02c" stroke-width="2.0" points="91.35,266.59 100.27,266.59 103.34,266.59 103.83,266.59 104.19,266.59 106.00,266.60 106.51,266.60 106.77,266.60 107.03,266.60 107.39,266.60 107.58,266.60 107.71,266.60 107.84,266.60 107.97,266.60 108.13,266.60 108.26,266.60 108.39,266.60 108.52,266.60 108.68,266.60 108.87,266.60 109.17,266.60 109.46,266.60 110.33,266.60 110.78,266.60 111.43,266.60 112.40,266.60 113.63,266.58 114.47,266.55 115.05,266.52 115.57,266.49 116.02,266.46 116.38,266.44 116.70,266.43 116.96,266.42 117.19,266.41 117.35,266.40 117.51,266.40 117.70,266.39 117.90,266.39 118.06,266.38 118.29,266.38 118.48,266.38 118.74,266.38 119.09,266.38 119.35,266.38 119.68,266.38 119.87,266.39 120.10,266.39 120.45,266.40 120.71,266.42 120.97,266.43 121.26,266.46 121.42,266.47 121.84,266.53 122.13,266.57 122.62,266.66 122.94,266.72 123.33,266.81 123.98,266.96 124.82,267.15 125.11,267.22 125.59,267.33 126.31,267.47 126.63,267.54 127.05,267.61 127.37,267.67 127.73,267.73 128.02,267.78 128.47,267.85 128.76,267.90 129.25,267.97 129.73,268.04 130.06,268.06 130.64,268.10 131.19,268.14 131.45,268.08 132.09,267.91 132.84,267.70 133.65,267.01 134.07,266.66 134.88,265.56 135.59,264.25 135.94,263.44 136.23,262.75 136.59,261.83 136.91,260.93 137.40,259.47 137.79,258.22 138.05,257.35 138.37,256.22 138.66,255.18 138.85,254.47 139.18,253.28 139.50,252.06 139.86,250.70 140.18,249.46 140.54,248.09 140.79,247.10 141.25,245.36 141.54,244.25 141.96,242.67 142.25,241.59 142.83,239.47 143.25,237.98 143.58,236.84 144.00,235.41 144.64,233.28 145.00,232.16 145.58,230.40 146.23,228.55 146.91,226.77 147.26,225.84 148.20,223.58 149.04,221.80 149.59,220.64 150.63,218.72 151.60,217.07 152.31,215.93 153.63,214.06 154.51,212.98 155.93,211.40 156.58,210.75 157.61,209.80 158.94,208.74 160.52,207.69 162.37,206.73 162.95,206.43 164.69,205.71 165.34,205.46 167.73,204.72 170.58,204.06 173.91,203.49 175.53,203.28 178.50,202.95 181.70,202.72 183.26,202.60 185.13,202.52 186.78,202.44 187.53,202.41 188.37,202.37 189.14,202.34 189.98,202.31 190.70,202.29 191.67,202.27 192.41,202.25 193.02,202.23 193.61,202.21 194.19,202.20 195.03,202.18 195.64,202.16 196.23,202.14 196.81,202.13 197.45,202.12 198.55,202.10 199.43,202.08 200.01,202.07 200.88,202.06 201.30,202.05 202.43,202.03 203.08,202.02 203.79,202.01 204.70,202.00 205.18,201.99 206.06,201.97 206.80,201.97 207.42,201.96 208.45,201.95 209.48,201.94 210.07,201.93 211.52,201.92 213.14,201.90 214.27,201.89 216.44,201.87 218.54,201.85 220.80,201.83 222.39,201.82 225.85,201.80 227.50,201.78 230.12,201.77 233.97,201.74 236.42,201.73 240.89,201.71 245.58,201.68 252.04,201.66 256.51,201.64 265.47,201.61 272.13,201.59 281.05,201.57 289.98,201.55 298.91,201.53 307.83,201.51 316.76,201.50 327.91,201.49 336.84,201.48 345.80,201.47 354.72,201.46 363.65,201.45 372.58,201.44 383.73,201.44 392.66,201.43 401.59,201.43 410.51,201.42 419.44,201.42 430.59,201.41 439.52,201.41 448.45,201.41 457.37,201.41 466.30,201.40 475.22,201.40 486.38,201.40 495.31,201.40 504.23,201.40 513.19,201.40 522.12,201.40 533.27,201.39 542.20,201.39 551.13,201.39 560.05,201.39 568.98,201.39 577.90,201.39 589.06,201.39 597.99,201.39 606.91,201.39 615.84,201.39 624.77,201.39 633.69,201.39 644.85,201.39 653.77,201.39 662.70,201.39 671.63,201.39 680.58,201.39 691.74,201.39 700.67,201.39 709.59,201.39 718.52,201.39 727.45,201.39 736.37,201.39 747.53,201.39 754.22,201.39 758.65,201.39"/>
<line x1="78" y1="266.59" x2="772" y2="266.59" stroke="#9467bd" opacity="0.18" stroke-dasharray="3 4"/>
<polyline fill="none" stroke="#9467bd" stroke-width="2.0" points="91.35,201.38 93.90,201.38 96.46,201.38 99.63,201.38 102.18,201.38 104.73,201.38 107.29,201.38 108.55,201.38 108.94,201.38 109.49,201.38 109.72,201.38 110.07,201.38 110.33,201.38 110.56,201.38 110.78,201.38 111.04,201.38 111.30,201.38 111.46,201.38 111.69,201.38 111.88,201.38 112.24,201.38 112.63,201.38 113.31,201.38 113.53,201.38 113.66,201.38 113.79,201.38 113.95,201.38 114.11,201.38 114.28,201.38 114.47,201.39 114.73,201.39 115.05,201.39 115.34,201.39 115.57,201.40 115.86,201.40 116.25,201.41 116.64,201.41 117.09,201.42 117.51,201.43 118.03,201.44 118.29,201.44 118.61,201.45 119.00,201.45 119.19,201.46 119.39,201.46 119.58,201.46 119.71,201.47 119.90,201.47 120.06,201.47 120.23,201.47 120.39,201.47 120.55,201.48 120.74,201.48 121.03,201.48 121.29,201.49 121.68,201.49 121.88,201.49 122.07,201.49 122.26,201.49 122.46,201.49 122.68,201.49 122.88,201.48 123.23,201.47 123.56,201.46 123.91,201.44 124.17,201.42 124.37,201.40 124.69,201.37 124.98,201.33 125.21,201.29 125.56,201.23 125.85,201.18 126.08,201.13 126.31,201.07 126.56,201.01 126.82,200.94 127.08,200.87 127.34,200.79 127.57,200.72 127.76,200.65 128.05,200.55 128.28,200.47 128.63,200.33 128.83,200.25 129.22,200.10 129.51,199.98 129.83,199.84 130.32,199.63 130.64,199.49 130.87,199.40 131.09,199.31 131.32,199.22 131.61,199.12 131.87,199.05 132.09,199.00 132.39,198.96 132.68,198.96 132.84,198.97 133.19,199.04 133.55,199.17 133.97,199.43 134.20,199.61 134.65,200.09 135.26,200.96 135.72,201.78 136.01,202.41 136.20,202.83 136.59,203.79 137.04,205.04 137.88,207.64 138.30,209.08 138.89,211.17 139.40,213.13 139.76,214.53 140.28,216.60 140.76,218.60 141.25,220.63 141.70,222.56 142.22,224.79 142.54,226.19 142.99,228.17 143.58,230.73 144.03,232.72 144.51,234.86 144.87,236.41 145.13,237.54 145.68,239.91 146.07,241.56 146.39,242.92 146.78,244.51 147.07,245.69 147.39,246.97 147.62,247.85 147.91,248.96 148.20,250.02 148.49,251.06 148.94,252.57 149.56,254.43 150.30,256.41 150.63,257.18 151.34,258.76 151.95,259.80 153.18,261.59 153.89,262.45 155.09,263.47 156.35,264.25 157.03,264.56 158.26,265.03 159.55,265.38 160.65,265.61 161.46,265.72 162.49,265.86 163.34,265.94 164.27,266.03 166.34,266.16 166.93,266.20 168.48,266.27 169.29,266.30 171.42,266.36 172.94,266.39 174.20,266.42 174.95,266.43 175.62,266.44 176.11,266.44 177.40,266.46 178.02,266.47 178.83,266.47 179.51,266.48 180.12,266.48 181.25,266.49 181.96,266.50 182.67,266.50 183.39,266.51 184.13,266.51 184.55,266.51 185.04,266.52 185.81,266.52 186.33,266.52 186.81,266.53 187.59,266.53 188.14,266.53 189.11,266.53 189.56,266.54 190.27,266.54 190.89,266.54 191.41,266.54 192.05,266.54 192.83,266.55 193.35,266.55 194.09,266.55 194.93,266.55 195.38,266.55 196.45,266.55 197.16,266.55 197.78,266.55 198.49,266.56 199.69,266.56 200.82,266.56 201.95,266.56 202.47,266.56 203.53,266.56 204.80,266.56 205.73,266.57 206.70,266.57 208.09,266.57 209.06,266.57 209.97,266.57 211.39,266.57 212.46,266.57 214.11,266.57 215.08,266.57 215.95,266.57 216.92,266.57 218.31,266.57 219.74,266.58 221.10,266.58 222.65,266.58 225.20,266.58 227.11,266.58 229.67,266.58 232.83,266.58 235.39,266.58 237.94,266.58 240.50,266.58 243.05,266.58 245.61,266.58 248.78,266.58 251.33,266.58 253.89,266.58 256.44,266.59 258.97,266.59 262.17,266.59 264.72,266.59 267.28,266.59 269.83,266.59 272.35,266.59 274.91,266.59 278.11,266.59 280.67,266.59 281.89,266.59"/>
<line x1="88" y1="72" x2="110" y2="72" stroke="#1f77b4" stroke-width="2.4"/>
<text x="116" y="76" font-family="Arial, sans-serif" font-size="12">rising #1</text>
<line x1="88" y1="90" x2="110" y2="90" stroke="#d62728" stroke-width="2.4"/>
<text x="116" y="94" font-family="Arial, sans-serif" font-size="12">falling #2</text>
<line x1="88" y1="108" x2="110" y2="108" stroke="#2ca02c" stroke-width="2.4"/>
<text x="116" y="112" font-family="Arial, sans-serif" font-size="12">rising #3</text>
<line x1="88" y1="126" x2="110" y2="126" stroke="#9467bd" stroke-width="2.4"/>
<text x="116" y="130" font-family="Arial, sans-serif" font-size="12">falling #4</text>
<rect x="78" y="342" width="694" height="44" fill="#fffdf7" stroke="#d8c6a1" rx="4"/>
<text x="88" y="359" font-family="Arial, sans-serif" font-size="11" font-weight="700" fill="#4b3b21">Findings needing attention</text>
<rect x="88" y="366" width="7" height="7" fill="#b54708"/>
<text x="102" y="373" font-family="Arial, sans-serif" font-size="11" fill="#333">WARN 5.5.4: Ramp dt versus V-T 20-80% evidence needs review | avg Ramp dt=5.557e-10s, avg V-T 20-80% span=4.159e-...</text>
<text x="425.00" y="322.00" text-anchor="middle" font-family="Arial, sans-serif" font-size="12">Time (s)</text>
<text x="420" y="42" font-family="Arial, sans-serif" font-size="11" fill="#555">solid=V-T voltage, faint horizontal=V_fixture</text>
</svg>