<svg xmlns="http://www.w3.org/2000/svg" width="800" height="450" viewBox="0 0 800 450">
<rect width="100%" height="100%" fill="#ffffff"/>
<text x="78" y="25" font-family="Arial, sans-serif" font-size="16" font-weight="700">E34_GPIO_I3C_I2C_SLV_1V1_11 V-T Waveforms</text>
<rect x="78" y="54" width="694" height="230" fill="#fbfbfb" stroke="#c8c8c8"/>
<text transform="translate(18 169.00) rotate(-90)" text-anchor="middle" font-family="Arial, sans-serif" font-size="12">Voltage (V)</text>
<line x1="78.00" y1="54" x2="78.00" y2="284" stroke="#ececec"/>
<text x="78.00" y="302" text-anchor="middle" font-family="Arial, sans-serif" font-size="10">-764p</text>
<line x1="216.80" y1="54" x2="216.80" y2="284" stroke="#ececec"/>
<text x="216.80" y="302" text-anchor="middle" font-family="Arial, sans-serif" font-size="10">7.18n</text>
<line x1="355.60" y1="54" x2="355.60" y2="284" stroke="#ececec"/>
<text x="355.60" y="302" text-anchor="middle" font-family="Arial, sans-serif" font-size="10">15.1n</text>
<line x1="494.40" y1="54" x2="494.40" y2="284" stroke="#ececec"/>
<text x="494.40" y="302" text-anchor="middle" font-family="Arial, sans-serif" font-size="10">23.1n</text>
<line x1="633.20" y1="54" x2="633.20" y2="284" stroke="#ececec"/>
<text x="633.20" y="302" text-anchor="middle" font-family="Arial, sans-serif" font-size="10">31n</text>
<line x1="772.00" y1="54" x2="772.00" y2="284" stroke="#ececec"/>
<text x="772.00" y="302" text-anchor="middle" font-family="Arial, sans-serif" font-size="10">39n</text>
<line x1="78" y1="284.00" x2="772" y2="284.00" stroke="#ececec"/>
<text x="70" y="288.00" text-anchor="end" font-family="Arial, sans-serif" font-size="10">-0.0969</text>
<line x1="78" y1="226.50" x2="772" y2="226.50" stroke="#ececec"/>
<text x="70" y="230.50" text-anchor="end" font-family="Arial, sans-serif" font-size="10">0.228</text>
<line x1="78" y1="169.00" x2="772" y2="169.00" stroke="#ececec"/>
<text x="70" y="173.00" text-anchor="end" font-family="Arial, sans-serif" font-size="10">0.553</text>
<line x1="78" y1="111.50" x2="772" y2="111.50" stroke="#ececec"/>
<text x="70" y="115.50" text-anchor="end" font-family="Arial, sans-serif" font-size="10">0.877</text>
<line x1="78" y1="54.00" x2="772" y2="54.00" stroke="#ececec"/>
<text x="70" y="58.00" text-anchor="end" font-family="Arial, sans-serif" font-size="10">1.2</text>
<line x1="78" y1="72.06" x2="772" y2="72.06" stroke="#1f77b4" opacity="0.18" stroke-dasharray="3 4"/>
<polyline fill="none" stroke="#1f77b4" stroke-width="2.0" points="91.35,216.00 92.66,216.00 93.95,216.00 95.57,215.99 96.88,216.01 98.17,216.01 99.48,215.96 100.67,215.89 100.93,215.88 101.41,215.85 101.72,215.84 102.03,215.83 102.23,215.84 102.61,215.87 102.84,215.91 103.06,215.98 103.29,216.07 103.43,216.14 103.64,216.26 103.76,216.34 103.92,216.46 104.06,216.57 104.27,216.74 104.39,216.85 104.57,217.01 104.72,217.16 104.97,217.40 105.13,217.55 105.26,217.69 105.40,217.82 105.56,217.97 105.74,218.14 105.84,218.23 105.96,218.34 106.07,218.43 106.21,218.55 106.33,218.65 106.45,218.75 106.56,218.84 106.64,218.90 106.73,218.97 106.80,219.02 106.89,219.08 107.01,219.15 107.15,219.23 107.29,219.30 107.43,219.34 107.55,219.37 107.71,219.38 107.83,219.38 107.90,219.36 107.99,219.34 108.13,219.26 108.29,219.15 108.39,219.05 108.60,218.79 108.67,218.67 108.91,218.20 109.07,217.83 109.28,217.22 109.40,216.80 109.60,216.09 109.77,215.30 109.91,214.63 110.12,213.47 110.31,212.26 110.49,211.09 110.59,210.27 110.75,209.03 110.89,207.77 111.25,204.13 111.43,202.10 111.59,200.15 111.74,198.10 111.95,195.10 112.06,193.49 112.37,188.43 112.51,186.04 112.69,182.97 112.79,181.03 113.02,176.79 113.23,172.75 113.37,169.98 113.51,167.20 113.68,163.65 113.91,158.99 114.12,154.66 114.38,149.21 114.56,145.57 114.70,142.66 114.89,138.67 115.04,135.42 115.18,132.55 115.43,127.59 115.64,123.41 115.78,120.66 116.09,114.64 116.30,110.75 116.49,107.29 116.63,104.84 116.84,101.30 117.04,98.23 117.31,94.09 117.45,92.18 117.72,88.93 117.84,87.56 118.01,85.77 118.21,84.02 118.36,82.75 118.62,80.93 118.80,79.90 118.99,78.92 119.17,78.16 119.34,77.50 119.59,76.73 119.69,76.43 119.99,75.75 120.20,75.36 120.49,74.91 120.93,74.42 121.45,74.00 121.68,73.87 122.13,73.65 122.34,73.57 122.59,73.49 122.96,73.38 123.39,73.25 123.69,73.17 124.20,73.02 124.44,72.96 124.77,72.87 124.93,72.83 125.24,72.76 125.77,72.65 126.20,72.57 126.38,72.54 126.59,72.51 126.85,72.48 127.16,72.44 127.51,72.40 127.95,72.36 128.32,72.33 128.51,72.31 128.67,72.30 128.79,72.29 128.89,72.29 129.05,72.28 129.12,72.28 129.43,72.26 129.52,72.25 129.68,72.25 129.91,72.24 129.99,72.23 130.20,72.23 130.36,72.22 130.46,72.22 130.73,72.21 130.88,72.20 130.99,72.20 131.22,72.19 131.51,72.19 131.76,72.18 131.98,72.18 132.18,72.17 132.39,72.17 132.58,72.16 132.68,72.15 132.91,72.14 133.10,72.14 133.47,72.14 133.92,72.14 134.06,72.14 134.57,72.13 134.95,72.13 135.28,72.13 135.46,72.13 135.70,72.12 136.21,72.12 136.49,72.12 136.84,72.12 137.08,72.12 137.35,72.12 137.76,72.11 138.01,72.11 138.43,72.11 138.71,72.11 138.93,72.11 139.42,72.11 139.81,72.11 139.93,72.11 140.21,72.11 140.58,72.11 140.96,72.10 141.26,72.10 141.73,72.10 142.04,72.10 142.36,72.10 142.71,72.10 143.25,72.10 143.42,72.10 143.84,72.10 144.44,72.09 145.05,72.09 145.48,72.09 146.15,72.09 146.69,72.09 147.67,72.09 148.63,72.09 149.94,72.09 150.92,72.09 152.21,72.08 153.52,72.08 154.83,72.08 155.79,72.08 157.43,72.08 158.08,72.08 159.38,72.08 160.68,72.08 161.99,72.08 162.97,72.08 164.59,72.08 165.88,72.08 167.19,72.08 168.48,72.08 169.46,72.07 170.77,72.07 172.40,72.07 173.71,72.07 174.39,72.07 175.64,72.07 176.95,72.07 178.58,72.07 179.89,72.07 181.18,72.07 182.49,72.07 183.78,72.07 185.09,72.07 186.72,72.07 188.03,72.07 188.65,72.06"/>
<line x1="78" y1="72.06" x2="772" y2="72.06" stroke="#d62728" opacity="0.18" stroke-dasharray="3 4"/>
<polyline fill="none" stroke="#d62728" stroke-width="2.0" points="91.35,72.06 94.12,72.06 96.22,72.06 97.62,72.06 98.12,72.06 99.08,72.06 99.75,72.06 100.27,72.06 100.95,72.06 101.37,72.06 101.49,72.06 101.67,72.06 102.37,72.06 103.03,72.06 103.29,72.05 103.52,72.05 104.25,72.05 104.79,72.05 105.18,72.06 105.39,72.06 105.95,72.06 106.09,72.06 106.40,72.06 106.50,72.06 106.70,72.06 106.91,72.06 107.10,72.07 107.26,72.07 107.36,72.08 107.48,72.08 107.55,72.08 107.76,72.09 107.85,72.09 107.92,72.10 108.02,72.10 108.13,72.11 108.25,72.11 108.37,72.12 108.51,72.12 108.65,72.13 108.72,72.13 108.88,72.14 109.00,72.14 109.16,72.14 109.33,72.15 109.49,72.15 109.65,72.16 109.84,72.16 110.01,72.16 110.15,72.16 110.31,72.17 110.49,72.17 110.57,72.17 110.77,72.17 110.98,72.17 111.20,72.17 111.43,72.17 111.57,72.16 111.81,72.15 112.13,72.12 112.37,72.09 112.67,72.03 112.81,71.99 113.04,71.92 113.21,71.87 113.32,71.83 113.40,71.80 113.56,71.74 113.73,71.67 113.89,71.61 114.14,71.51 114.35,71.43 114.54,71.35 114.64,71.31 114.77,71.26 114.92,71.20 115.08,71.14 115.15,71.12 115.25,71.08 115.39,71.03 115.57,70.97 115.71,70.93 115.92,70.86 116.18,70.78 116.32,70.74 116.41,70.72 116.51,70.69 116.70,70.64 116.77,70.62 116.90,70.59 117.09,70.54 117.26,70.50 117.42,70.46 117.68,70.40 117.77,70.38 117.89,70.35 118.03,70.32 118.31,70.26 118.59,70.20 118.80,70.15 119.01,70.10 119.18,70.06 119.39,70.01 119.86,69.91 119.97,69.89 120.23,69.86 120.58,69.86 120.84,69.91 120.98,69.96 121.28,70.15 121.70,70.56 121.91,70.87 122.05,71.11 122.38,71.85 122.59,72.45 122.82,73.21 123.20,74.82 123.55,76.56 123.65,77.16 123.93,78.79 124.34,81.47 124.54,83.00 124.84,85.30 125.10,87.43 125.26,88.79 125.45,90.45 126.06,96.16 126.29,98.35 126.73,102.73 127.08,106.31 127.55,111.21 128.21,118.12 128.63,122.45 129.07,126.93 129.50,131.30 129.94,135.63 130.40,139.95 131.04,145.92 131.57,150.62 132.04,154.66 132.39,157.57 132.74,160.42 133.49,166.26 133.82,168.71 134.31,172.18 134.74,175.12 135.41,179.33 135.93,182.42 136.61,186.14 137.10,188.60 137.76,191.66 138.34,194.06 138.97,196.41 139.70,198.83 140.59,201.37 141.47,203.47 142.65,205.82 143.62,207.36 145.66,209.85 147.74,211.54 148.44,211.99 149.83,212.74 151.07,213.28 152.14,213.66 153.31,214.01 154.08,214.21 154.93,214.40 155.68,214.55 156.52,214.69 157.29,214.81 158.16,214.92 158.88,215.01 159.58,215.09 160.29,215.16 161.06,215.22 161.83,215.29 162.84,215.36 163.61,215.41 164.40,215.46 165.15,215.50 165.85,215.54 166.89,215.59 167.79,215.63 168.62,215.67 169.37,215.70 170.39,215.74 171.42,215.77 172.24,215.82 173.50,215.83 174.40,215.85 175.36,215.87 176.41,215.88 178.11,215.90 179.36,215.92 180.76,215.93 182.33,215.94 183.94,215.95 185.34,215.95 187.43,215.96 189.51,215.96 191.87,215.97 193.81,215.97 196.16,215.97 199.05,215.98 201.35,215.98 203.43,215.98 206.22,215.98 208.58,215.98 211.10,215.98 214.57,215.98 217.36,215.98 219.44,215.98 222.24,215.99 225.01,215.99 228.51,215.99 231.28,215.99 234.08,215.99 236.85,215.99 239.65,215.99 242.43,215.99 245.90,215.99 248.69,215.99 251.47,215.99 254.27,215.99 257.04,215.99 259.84,215.99 263.31,215.99 266.09,215.99 268.88,215.99 271.66,215.99 274.45,215.99 277.93,215.99 280.72,215.99 283.50,215.99 286.29,215.99 289.07,215.99 291.85,215.99 295.34,215.99 298.12,215.99 299.50,215.99"/>
<line x1="78" y1="266.83" x2="772" y2="266.83" stroke="#2ca02c" opacity="0.18" stroke-dasharray="3 4"/>
<polyline fill="none" stroke="#2ca02c" stroke-width="2.0" points="91.35,266.83 98.03,266.83 99.90,266.84 100.25,266.84 100.39,266.84 100.67,266.84 101.84,266.84 102.52,266.82 102.94,266.79 103.48,266.76 103.83,266.74 104.04,266.73 104.34,266.72 104.50,266.72 104.78,266.72 104.93,266.72 105.07,266.71 105.23,266.72 105.33,266.72 105.44,266.72 105.56,266.72 105.65,266.72 105.75,266.72 105.86,266.73 106.00,266.73 106.10,266.73 106.24,266.74 106.38,266.75 106.49,266.76 106.70,266.78 106.87,266.80 107.03,266.83 107.15,266.85 107.27,266.88 107.38,266.90 107.52,266.94 107.64,266.97 107.85,267.04 108.02,267.09 108.16,267.14 108.29,267.18 108.43,267.23 108.62,267.30 108.74,267.34 108.86,267.38 108.98,267.42 109.11,267.46 109.25,267.51 109.49,267.59 109.67,267.64 109.88,267.70 110.05,267.75 110.31,267.82 110.45,267.86 110.56,267.89 110.68,267.92 110.85,267.96 111.06,268.01 111.32,268.07 111.69,268.13 112.08,268.14 112.27,268.08 112.58,267.98 112.77,267.79 113.16,267.40 113.39,266.95 113.59,266.53 113.75,266.12 113.98,265.43 114.21,264.58 114.47,263.41 114.70,262.24 114.97,260.49 115.17,259.08 115.27,258.30 115.55,255.93 115.78,253.80 115.94,252.21 116.14,249.99 116.32,248.03 116.49,246.00 116.72,243.27 116.91,240.91 117.11,238.52 117.40,234.81 117.56,232.85 117.70,231.13 117.91,228.56 118.03,227.09 118.28,224.18 118.45,222.14 118.66,219.74 118.97,216.27 119.24,213.45 119.50,210.74 119.67,208.97 119.95,206.20 120.13,204.53 120.35,202.42 120.65,199.76 120.93,197.40 121.37,193.85 121.86,190.28 122.36,186.79 122.59,185.32 123.11,182.08 123.46,180.06 123.72,178.63 124.44,175.03 124.89,172.98 125.26,171.45 125.59,170.14 125.87,169.11 126.31,167.60 126.80,166.06 127.08,165.24 127.62,163.78 128.25,162.28 128.61,161.50 129.00,160.74 129.98,159.07 131.29,157.32 131.81,156.73 132.60,155.93 133.47,155.18 134.32,154.56 135.70,153.80 136.70,153.39 137.85,153.00 138.83,152.72 139.28,152.63 140.17,152.46 140.86,152.33 141.33,152.25 141.96,152.18 142.51,152.11 142.93,152.05 143.42,151.99 143.67,151.97 144.19,151.94 144.56,151.91 145.03,151.88 145.85,151.83 146.29,151.80 146.69,151.77 147.04,151.75 147.33,151.73 147.74,151.71 148.10,151.69 148.66,151.66 149.05,151.65 149.45,151.63 150.06,151.60 150.64,151.58 151.16,151.57 151.65,151.55 152.42,151.53 152.89,151.52 153.48,151.50 154.01,151.49 154.39,151.49 155.04,151.48 156.01,151.46 156.52,151.45 157.88,151.43 158.90,151.42 160.03,151.41 161.08,151.40 162.77,151.38 163.89,151.37 166.89,151.36 168.54,151.35 170.32,151.34 172.26,151.33 174.44,151.32 177.41,151.30 183.94,151.27 189.54,151.25 196.25,151.22 205.17,151.19 214.10,151.16 225.26,151.12 234.18,151.09 243.11,151.07 252.05,151.06 260.97,151.06 269.90,151.06 281.05,151.01 289.98,150.94 298.90,150.88 307.84,150.85 316.77,150.82 327.93,150.80 336.85,150.77 345.78,150.75 354.70,150.73 363.64,150.72 372.57,150.70 383.72,150.68 392.65,150.66 401.57,150.64 410.50,150.63 419.44,150.61 430.58,150.60 439.52,150.58 448.45,150.57 457.37,150.56 466.29,150.54 475.22,150.53 486.38,150.52 495.32,150.50 504.24,150.49 513.17,150.48 522.09,150.47 533.25,150.46 542.17,150.45 551.11,150.44 560.04,150.43 568.96,150.42 577.89,150.41 589.05,150.40 597.97,150.39 606.91,150.38 615.84,150.37 624.76,150.36 633.68,150.36 642.61,150.35 651.55,150.34 660.47,150.34 669.40,150.33 678.32,150.32 689.48,150.31 698.40,150.31 707.35,150.30 716.27,150.29 725.19,150.29 734.12,150.28 745.28,150.28 754.20,150.27 758.65,150.25"/>
<line x1="78" y1="266.83" x2="772" y2="266.83" stroke="#9467bd" opacity="0.18" stroke-dasharray="3 4"/>
<polyline fill="none" stroke="#9467bd" stroke-width="2.0" points="91.35,150.06 92.80,150.06 94.25,150.06 96.04,150.06 97.49,150.06 98.93,150.06 100.31,150.05 100.58,150.05 100.78,150.05 101.11,150.05 101.35,150.05 101.56,150.05 102.87,150.07 103.01,150.07 103.15,150.07 103.27,150.08 103.45,150.08 103.61,150.09 103.76,150.09 103.99,150.10 104.29,150.11 104.50,150.12 104.74,150.13 105.00,150.14 105.18,150.15 105.39,150.15 105.67,150.16 105.82,150.17 105.98,150.17 106.12,150.17 106.26,150.18 106.40,150.18 106.50,150.18 106.61,150.18 106.70,150.18 106.77,150.18 106.85,150.18 106.98,150.18 107.06,150.18 107.17,150.17 107.33,150.17 107.45,150.16 107.60,150.14 107.74,150.12 107.87,150.10 107.97,150.08 108.08,150.06 108.15,150.04 108.25,150.01 108.36,149.98 108.48,149.94 108.65,149.87 108.77,149.82 108.91,149.75 109.07,149.67 109.19,149.61 109.37,149.51 109.51,149.42 109.63,149.34 109.84,149.20 109.96,149.11 110.14,148.99 110.31,148.85 110.52,148.69 110.75,148.50 110.91,148.37 111.06,148.24 111.27,148.06 111.48,147.89 111.67,147.73 111.81,147.62 111.97,147.50 112.06,147.44 112.18,147.37 112.34,147.29 112.46,147.26 112.69,147.24 112.79,147.27 112.97,147.34 113.09,147.46 113.23,147.60 113.42,147.91 113.53,148.12 113.72,148.58 113.84,148.96 114.00,149.46 114.22,150.39 114.43,151.39 114.56,152.01 114.83,153.67 115.11,155.58 115.43,158.02 115.76,160.89 115.95,162.71 116.20,165.13 116.55,168.81 116.65,169.96 116.91,172.90 117.24,176.78 117.58,180.79 117.77,183.15 118.05,186.62 118.24,189.03 118.47,191.90 118.62,193.90 118.82,196.36 119.17,200.83 119.31,202.62 119.38,203.52 119.65,207.08 119.83,209.30 119.92,210.40 120.09,212.59 120.25,214.54 120.41,216.48 120.60,218.82 120.81,221.33 120.98,223.38 121.23,226.18 121.44,228.53 121.77,232.15 121.94,233.99 122.08,235.43 122.24,237.01 122.40,238.55 122.64,240.83 123.01,244.07 123.27,246.25 123.62,248.92 123.85,250.54 124.04,251.83 124.47,254.45 124.74,255.85 124.95,256.86 125.23,258.09 125.40,258.78 125.61,259.54 125.84,260.28 126.06,260.95 126.31,261.59 126.54,262.11 126.76,262.57 127.11,263.18 127.25,263.40 127.48,263.71 127.71,263.99 127.88,264.18 128.19,264.48 128.53,264.75 128.77,264.92 129.03,265.08 129.28,265.21 129.61,265.37 130.26,265.64 130.67,265.78 131.09,265.91 131.72,266.08 132.18,266.18 132.56,266.25 132.94,266.31 133.35,266.36 133.96,266.43 134.52,266.48 135.22,266.54 135.74,266.57 136.26,266.60 136.59,266.61 137.03,266.63 137.42,266.65 137.82,266.68 138.34,266.68 138.67,266.69 139.04,266.69 139.44,266.70 139.76,266.71 140.02,266.71 140.40,266.72 140.73,266.73 141.15,266.73 141.43,266.74 141.83,266.74 142.29,266.75 142.65,266.75 143.06,266.76 143.37,266.76 143.74,266.77 144.10,266.77 144.51,266.77 145.12,266.78 145.33,266.78 145.76,266.78 146.25,266.79 146.62,266.79 147.00,266.79 147.58,266.79 148.07,266.79 148.71,266.80 148.99,266.80 149.83,266.80 150.43,266.80 150.97,266.80 151.68,266.81 152.12,266.81 153.20,266.81 153.85,266.81 154.43,266.81 155.30,266.81 156.01,266.81 156.75,266.82 157.83,266.82 158.30,266.82 159.00,266.82 160.00,266.82 161.08,266.82 162.53,266.82 163.96,266.82 165.41,266.82 166.86,266.82 168.31,266.82 169.76,266.82 171.56,266.83 173.01,266.83 174.44,266.83 175.89,266.83 177.34,266.83 178.79,266.83 180.59,266.83 182.04,266.83 183.48,266.83 184.92,266.83 186.37,266.83 188.18,266.83 189.61,266.83 191.06,266.83 192.51,266.83 193.96,266.83 195.40,266.83 197.21,266.83 198.66,266.83 199.36,266.83"/>
<line x1="88" y1="72" x2="110" y2="72" stroke="#1f77b4" stroke-width="2.4"/>
<text x="116" y="76" font-family="Arial, sans-serif" font-size="12">rising #1</text>
<line x1="88" y1="90" x2="110" y2="90" stroke="#d62728" stroke-width="2.4"/>
<text x="116" y="94" font-family="Arial, sans-serif" font-size="12">falling #2</text>
<line x1="88" y1="108" x2="110" y2="108" stroke="#2ca02c" stroke-width="2.4"/>
<text x="116" y="112" font-family="Arial, sans-serif" font-size="12">rising #3</text>
<line x1="88" y1="126" x2="110" y2="126" stroke="#9467bd" stroke-width="2.4"/>
<text x="116" y="130" font-family="Arial, sans-serif" font-size="12">falling #4</text>
<rect x="78" y="342" width="694" height="44" fill="#fffdf7" stroke="#d8c6a1" rx="4"/>
<text x="88" y="359" font-family="Arial, sans-serif" font-size="11" font-weight="700" fill="#4b3b21">Findings needing attention</text>
<rect x="88" y="366" width="7" height="7" fill="#b54708"/>
<text x="102" y="373" font-family="Arial, sans-serif" font-size="11" fill="#333">WARN 5.5.4: Ramp dt versus V-T 20-80% evidence needs review | avg Ramp dt=5.251e-10s, avg V-T 20-80% span=4.115e-...</text>
<text x="425.00" y="322.00" text-anchor="middle" font-family="Arial, sans-serif" font-size="12">Time (s)</text>
<text x="420" y="42" font-family="Arial, sans-serif" font-size="11" fill="#555">solid=V-T voltage, faint horizontal=V_fixture</text>
</svg>