<svg xmlns="http://www.w3.org/2000/svg" width="800" height="450" viewBox="0 0 800 450">
<rect width="100%" height="100%" fill="#ffffff"/>
<text x="78" y="25" font-family="Arial, sans-serif" font-size="16" font-weight="700">E34_GPIO_I3C_I2C_SLV_1V2_11 V-T Waveforms</text>
<rect x="78" y="54" width="694" height="230" fill="#fbfbfb" stroke="#c8c8c8"/>
<text transform="translate(18 169.00) rotate(-90)" text-anchor="middle" font-family="Arial, sans-serif" font-size="12">Voltage (V)</text>
<line x1="78.00" y1="54" x2="78.00" y2="284" stroke="#ececec"/>
<text x="78.00" y="302" text-anchor="middle" font-family="Arial, sans-serif" font-size="10">-770p</text>
<line x1="216.80" y1="54" x2="216.80" y2="284" stroke="#ececec"/>
<text x="216.80" y="302" text-anchor="middle" font-family="Arial, sans-serif" font-size="10">7.24n</text>
<line x1="355.60" y1="54" x2="355.60" y2="284" stroke="#ececec"/>
<text x="355.60" y="302" text-anchor="middle" font-family="Arial, sans-serif" font-size="10">15.3n</text>
<line x1="494.40" y1="54" x2="494.40" y2="284" stroke="#ececec"/>
<text x="494.40" y="302" text-anchor="middle" font-family="Arial, sans-serif" font-size="10">23.3n</text>
<line x1="633.20" y1="54" x2="633.20" y2="284" stroke="#ececec"/>
<text x="633.20" y="302" text-anchor="middle" font-family="Arial, sans-serif" font-size="10">31.3n</text>
<line x1="772.00" y1="54" x2="772.00" y2="284" stroke="#ececec"/>
<text x="772.00" y="302" text-anchor="middle" font-family="Arial, sans-serif" font-size="10">39.3n</text>
<line x1="78" y1="284.00" x2="772" y2="284.00" stroke="#ececec"/>
<text x="70" y="288.00" text-anchor="end" font-family="Arial, sans-serif" font-size="10">-0.106</text>
<line x1="78" y1="226.50" x2="772" y2="226.50" stroke="#ececec"/>
<text x="70" y="230.50" text-anchor="end" font-family="Arial, sans-serif" font-size="10">0.248</text>
<line x1="78" y1="169.00" x2="772" y2="169.00" stroke="#ececec"/>
<text x="70" y="173.00" text-anchor="end" font-family="Arial, sans-serif" font-size="10">0.603</text>
<line x1="78" y1="111.50" x2="772" y2="111.50" stroke="#ececec"/>
<text x="70" y="115.50" text-anchor="end" font-family="Arial, sans-serif" font-size="10">0.957</text>
<line x1="78" y1="54.00" x2="772" y2="54.00" stroke="#ececec"/>
<text x="70" y="58.00" text-anchor="end" font-family="Arial, sans-serif" font-size="10">1.3</text>
<line x1="78" y1="72.06" x2="772" y2="72.06" stroke="#1f77b4" opacity="0.18" stroke-dasharray="3 4"/>
<polyline fill="none" stroke="#1f77b4" stroke-width="2.0" points="91.35,223.67 92.52,223.67 93.72,223.67 95.21,223.66 96.39,223.67 97.57,223.68 98.76,223.64 99.68,223.59 99.94,223.58 100.37,223.56 100.55,223.56 100.77,223.56 100.94,223.56 101.26,223.60 101.53,223.66 101.74,223.72 101.88,223.78 102.09,223.89 102.26,223.99 102.36,224.05 102.52,224.16 102.64,224.25 102.78,224.36 102.94,224.49 103.07,224.60 103.18,224.69 103.32,224.81 103.44,224.92 103.58,225.04 103.70,225.14 103.85,225.27 104.01,225.40 104.15,225.51 104.27,225.60 104.34,225.65 104.43,225.71 104.53,225.78 104.62,225.84 104.72,225.90 104.81,225.95 104.88,225.98 104.95,226.01 105.05,226.05 105.15,226.08 105.29,226.10 105.38,226.10 105.50,226.09 105.62,226.06 105.72,226.01 105.85,225.93 105.95,225.84 106.09,225.69 106.19,225.54 106.38,225.21 106.59,224.74 106.73,224.36 106.94,223.68 107.32,222.10 107.56,220.82 107.75,219.60 107.92,218.39 108.25,215.68 108.44,213.83 108.58,212.36 108.84,209.17 109.12,205.20 109.19,204.09 109.33,201.77 109.50,198.62 109.67,195.21 109.88,190.79 110.09,186.07 110.28,181.53 110.45,177.24 110.70,171.00 110.82,167.82 110.99,163.17 111.11,159.88 111.23,156.58 111.32,154.20 111.46,150.39 111.67,144.66 111.81,140.84 112.01,135.14 112.19,130.44 112.36,125.80 112.53,121.23 112.71,116.76 112.83,113.70 112.98,109.87 113.16,105.78 113.26,103.43 113.52,97.97 113.62,95.96 113.75,93.77 113.92,90.93 114.06,88.88 114.18,87.25 114.33,85.35 114.44,84.23 114.56,83.03 114.79,81.14 115.04,79.41 115.20,78.55 115.32,77.98 115.62,76.86 115.89,76.05 116.02,75.76 116.27,75.25 116.67,74.66 117.14,74.18 117.44,73.96 117.78,73.76 118.34,73.52 118.86,73.34 119.22,73.22 119.81,73.02 120.40,72.85 121.06,72.68 121.87,72.52 122.06,72.49 122.48,72.43 122.72,72.40 123.01,72.37 123.38,72.34 123.76,72.31 124.19,72.28 124.49,72.26 124.80,72.24 124.97,72.24 125.21,72.23 125.68,72.21 125.89,72.20 126.05,72.20 126.32,72.19 126.65,72.18 127.02,72.16 127.29,72.15 127.52,72.15 127.83,72.15 128.12,72.15 128.42,72.14 128.71,72.14 129.01,72.14 129.27,72.14 129.58,72.13 129.80,72.13 130.03,72.13 130.36,72.13 130.67,72.13 131.00,72.13 131.26,72.12 131.54,72.12 131.97,72.12 132.20,72.12 132.54,72.12 132.85,72.11 133.17,72.11 133.46,72.11 133.98,72.11 134.20,72.11 134.52,72.11 134.83,72.11 135.23,72.11 135.71,72.10 135.99,72.10 136.20,72.10 136.42,72.10 136.63,72.10 136.84,72.10 137.15,72.10 137.48,72.10 137.81,72.10 138.03,72.10 138.31,72.10 138.64,72.10 138.97,72.10 139.30,72.10 139.45,72.10 139.68,72.10 140.27,72.10 140.70,72.09 140.89,72.09 141.10,72.09 141.24,72.09 141.67,72.09 142.05,72.09 142.92,72.09 143.27,72.09 143.96,72.09 144.13,72.09 144.72,72.09 145.19,72.09 145.43,72.09 145.60,72.09 146.19,72.09 146.80,72.09 147.39,72.09 147.98,72.09 148.27,72.09 149.02,72.08 149.33,72.08 149.71,72.08 150.26,72.08 150.44,72.08 150.77,72.08 151.20,72.08 151.55,72.08 151.86,72.08 152.13,72.08 152.71,72.08 153.02,72.08 153.92,72.08 154.80,72.08 155.67,72.08 156.10,72.08 156.73,72.08 157.47,72.08 158.35,72.08 159.25,72.08 160.48,72.08 161.33,72.08 161.92,72.08 162.88,72.08 163.97,72.08 164.89,72.08 166.06,72.07 167.26,72.07 168.44,72.07 169.34,72.07 170.52,72.07 171.99,72.07 172.59,72.07 173.53,72.07 174.67,72.07 175.85,72.07 177.05,72.07 178.22,72.07 179.42,72.07 179.99,72.06"/>
<line x1="78" y1="72.06" x2="772" y2="72.06" stroke="#d62728" opacity="0.18" stroke-dasharray="3 4"/>
<polyline fill="none" stroke="#d62728" stroke-width="2.0" points="91.35,72.06 93.84,72.06 96.35,72.06 98.12,72.06 98.57,72.06 100.13,72.06 101.36,72.06 101.76,72.05 102.19,72.05 102.40,72.05 103.44,72.06 103.75,72.06 104.48,72.07 104.98,72.09 105.19,72.10 105.27,72.11 105.45,72.12 105.60,72.12 105.72,72.13 105.88,72.14 105.98,72.14 106.07,72.15 106.19,72.15 106.37,72.16 106.49,72.16 106.57,72.16 106.73,72.17 106.80,72.17 106.87,72.17 106.97,72.17 107.16,72.17 107.28,72.18 107.35,72.18 107.51,72.18 107.61,72.18 107.82,72.17 107.99,72.17 108.18,72.16 108.41,72.14 108.62,72.11 108.84,72.07 108.93,72.05 109.19,71.98 109.31,71.93 109.50,71.86 109.59,71.82 109.83,71.71 109.99,71.63 110.16,71.55 110.26,71.49 110.44,71.41 110.59,71.33 110.80,71.23 111.06,71.10 111.18,71.04 111.35,70.97 111.44,70.93 111.61,70.85 111.79,70.78 112.00,70.70 112.19,70.63 112.38,70.56 112.50,70.52 112.58,70.49 112.71,70.45 112.90,70.39 113.04,70.35 113.21,70.30 113.31,70.26 113.54,70.20 113.95,70.08 114.14,70.03 114.49,69.95 115.08,69.86 115.27,69.87 115.72,69.98 116.22,70.43 116.52,70.92 116.92,71.97 117.11,72.65 117.49,74.42 117.76,76.07 117.97,77.51 118.25,79.71 118.51,82.06 118.84,85.31 118.99,86.96 119.19,89.07 119.38,91.30 119.64,94.50 119.79,96.48 120.12,100.81 120.45,105.29 120.78,109.86 121.18,115.47 121.37,118.17 121.77,123.80 122.01,127.19 122.32,131.54 122.65,136.01 122.93,139.77 123.26,144.07 123.55,147.92 123.95,152.95 124.19,155.93 124.50,159.70 124.85,163.78 125.11,166.75 125.37,169.64 125.68,173.00 125.82,174.45 126.11,177.45 126.37,180.01 126.60,182.16 126.96,185.47 127.21,187.58 127.40,189.18 127.76,192.09 127.92,193.27 128.30,196.01 128.85,199.60 129.32,202.25 129.67,204.00 130.13,206.15 130.74,208.57 131.26,210.33 131.43,210.86 131.61,211.37 131.95,212.31 132.18,212.88 132.26,213.09 132.80,214.28 132.89,214.45 132.97,214.61 133.08,214.80 133.25,215.12 133.53,215.62 133.79,216.05 134.01,216.39 134.20,216.68 134.48,217.06 134.72,217.38 135.14,217.88 135.30,218.06 135.83,218.62 136.09,218.86 136.30,219.05 136.56,219.27 137.84,220.18 138.28,220.44 138.67,220.65 138.81,220.72 139.32,220.96 139.54,221.06 140.15,221.30 140.77,221.53 141.52,221.76 141.74,221.83 142.17,221.95 142.97,222.14 143.27,222.21 143.91,222.34 144.01,222.36 144.32,222.42 144.93,222.53 145.40,222.61 145.78,222.67 146.21,222.74 146.59,222.80 147.08,222.87 147.98,222.98 148.65,223.06 149.29,223.12 149.93,223.18 150.78,223.26 151.41,223.29 152.12,223.33 152.79,223.36 153.28,223.39 153.95,223.42 154.53,223.44 155.67,223.48 156.21,223.49 157.02,223.51 157.66,223.53 158.51,223.54 159.48,223.56 160.80,223.57 161.71,223.58 162.67,223.59 163.46,223.60 164.54,223.61 166.12,223.61 167.40,223.62 168.87,223.63 170.17,223.63 171.55,223.63 173.30,223.64 175.80,223.64 177.69,223.64 179.56,223.65 181.43,223.65 183.94,223.65 187.06,223.65 188.95,223.65 191.44,223.65 193.95,223.65 196.45,223.65 198.32,223.66 201.46,223.66 203.95,223.66 206.46,223.66 208.96,223.66 211.47,223.66 214.59,223.66 217.10,223.66 219.59,223.66 222.11,223.66 224.60,223.66 227.11,223.66 230.23,223.66 232.74,223.66 235.24,223.66 237.75,223.66 240.24,223.66 242.76,223.66 245.87,223.66 248.39,223.66 250.88,223.66 253.37,223.66 255.89,223.66 259.00,223.66 261.52,223.66 264.01,223.66 266.52,223.66 269.02,223.66 271.53,223.66 274.65,223.66 277.16,223.66 278.39,223.66"/>
<line x1="78" y1="266.82" x2="772" y2="266.82" stroke="#2ca02c" opacity="0.18" stroke-dasharray="3 4"/>
<polyline fill="none" stroke="#2ca02c" stroke-width="2.0" points="91.35,266.82 98.03,266.82 101.20,266.79 101.79,266.75 102.14,266.72 102.29,266.71 102.50,266.70 102.62,266.70 102.80,266.69 102.97,266.69 103.11,266.69 103.21,266.68 103.30,266.68 103.40,266.68 103.52,266.69 103.61,266.69 103.70,266.69 103.84,266.69 103.99,266.70 104.15,266.71 104.39,266.74 104.53,266.76 104.65,266.78 104.77,266.81 104.88,266.83 105.03,266.88 105.21,266.93 105.34,266.98 105.48,267.04 105.64,267.10 105.81,267.17 105.97,267.24 106.09,267.30 106.19,267.34 106.31,267.40 106.42,267.44 106.56,267.50 106.69,267.56 106.80,267.60 106.94,267.65 107.09,267.71 107.35,267.81 107.47,267.85 107.61,267.90 107.75,267.94 107.91,267.99 108.15,268.06 108.51,268.14 108.77,268.14 109.02,268.06 109.22,267.97 109.43,267.70 109.50,267.61 109.71,267.30 109.81,267.05 109.92,266.80 110.13,266.21 110.32,265.53 110.54,264.51 110.80,263.06 110.97,261.90 111.10,261.03 111.18,260.31 111.37,258.66 111.48,257.65 111.56,256.80 111.84,253.70 111.94,252.44 112.12,250.19 112.33,247.26 112.50,244.65 112.67,241.91 112.81,239.64 113.14,234.11 113.31,231.16 113.59,226.47 113.88,221.58 114.07,218.49 114.25,215.75 114.40,213.34 114.51,211.76 114.59,210.45 114.66,209.43 114.75,208.16 114.92,205.66 115.08,203.45 115.32,200.13 115.55,197.15 115.67,195.59 115.91,192.56 116.14,189.88 116.36,187.30 116.57,185.00 116.64,184.27 116.73,183.37 116.90,181.56 117.11,179.48 117.25,178.13 117.52,175.53 117.64,174.43 117.73,173.66 117.89,172.31 117.99,171.44 118.15,170.16 118.27,169.19 118.42,167.98 118.53,167.20 118.63,166.43 118.77,165.44 119.08,163.31 119.25,162.19 119.41,161.22 119.64,159.88 119.86,158.62 120.09,157.42 120.22,156.72 120.40,155.87 120.66,154.68 120.97,153.35 121.32,152.00 121.66,150.79 122.08,149.47 122.49,148.26 123.15,146.61 123.72,145.41 124.40,144.23 125.37,142.93 125.92,142.32 126.62,141.68 128.64,140.42 129.28,140.15 131.47,139.48 132.35,139.30 132.91,139.21 133.43,139.13 133.75,139.09 134.38,139.02 134.98,138.96 135.40,138.93 135.73,138.90 136.04,138.88 136.63,138.85 137.34,138.81 137.89,138.79 138.33,138.78 138.90,138.76 139.40,138.75 139.80,138.74 140.42,138.73 141.10,138.73 141.83,138.72 142.35,138.72 142.78,138.72 143.42,138.72 143.96,138.72 144.82,138.72 145.22,138.72 145.86,138.72 146.63,138.73 147.54,138.73 148.69,138.74 149.57,138.74 151.13,138.72 153.11,138.68 156.07,138.60 160.45,138.54 164.99,138.51 173.93,138.47 180.62,138.45 189.55,138.43 200.71,138.41 207.40,138.39 216.34,138.37 225.26,138.35 229.73,138.35 238.65,138.33 249.81,138.31 258.73,138.29 267.67,138.27 276.59,138.26 285.51,138.24 296.68,138.22 301.60,138.21 310.07,138.20 319.00,138.19 327.92,138.17 332.39,138.16 343.54,138.15 352.47,138.13 361.40,138.12 370.33,138.11 379.25,138.10 388.19,138.08 397.11,138.07 406.03,138.06 412.73,138.05 421.66,138.04 430.60,138.03 441.75,138.01 450.67,138.00 459.60,137.99 467.93,137.98 472.99,137.98 484.16,137.96 493.08,137.95 497.55,137.95 506.47,137.94 515.39,137.93 524.33,137.92 531.02,137.91 539.94,137.91 548.88,137.90 557.80,137.89 566.72,137.88 577.90,137.87 584.83,137.86 591.29,137.86 600.21,137.85 609.13,137.84 615.84,137.84 626.99,137.83 630.30,137.83 631.10,137.82 631.46,137.82 634.53,137.82 642.62,137.82 653.78,137.81 662.70,137.80 671.64,137.79 678.72,137.79 685.03,137.78 696.18,137.77 705.11,137.77 711.81,137.76 720.73,137.76 729.65,137.75 738.59,137.74 745.28,137.74 754.20,137.73 758.65,137.72"/>
<line x1="78" y1="266.82" x2="772" y2="266.82" stroke="#9467bd" opacity="0.18" stroke-dasharray="3 4"/>
<polyline fill="none" stroke="#9467bd" stroke-width="2.0" points="91.35,137.34 91.99,137.34 92.61,137.34 93.56,137.34 94.40,137.34 95.45,137.34 95.88,137.34 96.16,137.34 96.79,137.34 97.13,137.34 97.29,137.34 97.39,137.34 97.50,137.34 97.60,137.34 97.70,137.34 97.79,137.34 97.89,137.34 97.98,137.34 98.07,137.34 98.15,137.34 98.28,137.34 98.36,137.34 98.45,137.34 98.55,137.34 98.67,137.34 98.86,137.34 99.04,137.34 99.12,137.34 99.32,137.33 99.45,137.33 99.56,137.33 99.68,137.33 99.80,137.33 99.89,137.33 100.09,137.33 100.18,137.33 100.42,137.33 100.51,137.33 100.80,137.34 100.91,137.34 100.98,137.34 101.05,137.34 101.13,137.34 101.22,137.35 101.45,137.35 101.67,137.36 101.74,137.36 101.84,137.36 102.00,137.37 102.10,137.37 102.19,137.38 102.28,137.38 102.36,137.38 102.52,137.39 102.59,137.39 102.69,137.39 102.81,137.40 102.94,137.40 103.07,137.41 103.21,137.41 103.30,137.41 103.39,137.42 103.47,137.42 103.59,137.42 103.82,137.43 104.10,137.43 104.30,137.43 104.48,137.42 104.69,137.41 104.84,137.40 105.05,137.38 105.17,137.36 105.27,137.34 105.38,137.32 105.48,137.29 105.57,137.27 105.69,137.23 105.79,137.20 105.98,137.12 106.16,137.05 106.24,137.01 106.47,136.90 106.57,136.84 106.75,136.74 106.92,136.64 107.08,136.54 107.23,136.44 107.46,136.29 107.60,136.19 107.75,136.09 107.86,136.01 108.08,135.86 108.27,135.73 108.46,135.61 108.69,135.51 108.84,135.45 109.00,135.43 109.10,135.45 109.28,135.50 109.38,135.56 109.55,135.72 109.71,135.94 109.81,136.11 110.02,136.57 110.19,137.07 110.35,137.61 110.54,138.39 110.68,139.02 110.84,139.84 110.97,140.66 111.18,142.02 111.44,143.96 111.65,145.73 111.87,147.87 112.19,151.17 112.55,155.44 112.81,158.77 113.04,161.82 113.31,165.71 113.57,169.48 113.85,173.62 114.11,177.58 114.35,181.33 114.61,185.40 114.85,189.23 115.10,193.08 115.39,197.77 115.69,202.46 115.93,206.30 116.19,210.39 116.52,215.51 116.69,218.16 116.97,222.34 117.25,226.41 117.40,228.65 117.59,231.34 117.78,233.96 118.04,237.42 118.23,239.83 118.58,243.99 118.82,246.70 118.93,247.81 119.15,250.09 119.31,251.53 119.55,253.61 119.81,255.58 119.96,256.64 120.21,258.11 120.48,259.55 120.76,260.75 121.02,261.68 121.32,262.53 121.47,262.91 121.80,263.58 122.18,264.18 122.44,264.49 122.98,264.97 124.24,265.63 125.20,265.94 126.15,266.18 126.79,266.30 127.17,266.35 127.67,266.42 128.02,266.45 128.51,266.50 128.99,266.54 129.32,266.56 129.67,266.58 130.08,266.60 130.36,266.62 130.79,266.65 131.14,266.65 131.45,266.66 131.74,266.67 132.00,266.67 132.32,266.68 132.59,266.69 132.97,266.70 133.43,266.71 133.75,266.71 134.12,266.72 134.62,266.73 134.98,266.73 135.33,266.74 135.64,266.74 135.95,266.75 136.28,266.75 136.61,266.75 136.99,266.76 137.27,266.76 137.83,266.76 137.96,266.76 138.48,266.77 138.88,266.77 139.19,266.77 139.71,266.77 139.94,266.77 140.48,266.78 141.07,266.78 141.62,266.78 142.14,266.78 142.43,266.78 143.13,266.79 143.56,266.79 144.39,266.79 145.05,266.79 145.45,266.79 146.40,266.79 147.04,266.79 147.98,266.80 148.83,266.80 149.88,266.80 151.15,266.80 152.10,266.80 153.68,266.80 154.94,266.80 156.21,266.80 157.47,266.80 158.74,266.81 160.00,266.81 161.59,266.81 162.86,266.81 164.12,266.81 165.39,266.81 166.65,266.81 167.92,266.81 169.49,266.81 170.76,266.81 172.02,266.81 173.29,266.81 174.55,266.81 176.15,266.81 177.41,266.81 178.67,266.81 179.94,266.81 181.20,266.81 182.47,266.81 184.05,266.81 185.31,266.81 185.93,266.81"/>
<line x1="88" y1="72" x2="110" y2="72" stroke="#1f77b4" stroke-width="2.4"/>
<text x="116" y="76" font-family="Arial, sans-serif" font-size="12">rising #1</text>
<line x1="88" y1="90" x2="110" y2="90" stroke="#d62728" stroke-width="2.4"/>
<text x="116" y="94" font-family="Arial, sans-serif" font-size="12">falling #2</text>
<line x1="88" y1="108" x2="110" y2="108" stroke="#2ca02c" stroke-width="2.4"/>
<text x="116" y="112" font-family="Arial, sans-serif" font-size="12">rising #3</text>
<line x1="88" y1="126" x2="110" y2="126" stroke="#9467bd" stroke-width="2.4"/>
<text x="116" y="130" font-family="Arial, sans-serif" font-size="12">falling #4</text>
<rect x="78" y="342" width="694" height="44" fill="#fffdf7" stroke="#d8c6a1" rx="4"/>
<text x="88" y="359" font-family="Arial, sans-serif" font-size="11" font-weight="700" fill="#4b3b21">Findings needing attention</text>
<rect x="88" y="366" width="7" height="7" fill="#b54708"/>
<text x="102" y="373" font-family="Arial, sans-serif" font-size="11" fill="#333">WARN 5.5.4: Ramp dt versus V-T 20-80% evidence needs review | avg Ramp dt=4.043e-10s, avg V-T 20-80% span=3.281e-...</text>
<text x="425.00" y="322.00" text-anchor="middle" font-family="Arial, sans-serif" font-size="12">Time (s)</text>
<text x="420" y="42" font-family="Arial, sans-serif" font-size="11" fill="#555">solid=V-T voltage, faint horizontal=V_fixture</text>
</svg>