<svg xmlns="http://www.w3.org/2000/svg" width="800" height="450" viewBox="0 0 800 450">
<rect width="100%" height="100%" fill="#ffffff"/>
<text x="78" y="25" font-family="Arial, sans-serif" font-size="16" font-weight="700">E34_GPIO_I2CSCLIN_1V8_01 V-T Waveforms</text>
<rect x="78" y="54" width="694" height="230" fill="#fbfbfb" stroke="#c8c8c8"/>
<text transform="translate(18 169.00) rotate(-90)" text-anchor="middle" font-family="Arial, sans-serif" font-size="12">Voltage (V)</text>
<line x1="78.00" y1="54" x2="78.00" y2="284" stroke="#ececec"/>
<text x="78.00" y="302" text-anchor="middle" font-family="Arial, sans-serif" font-size="10">-305p</text>
<line x1="216.80" y1="54" x2="216.80" y2="284" stroke="#ececec"/>
<text x="216.80" y="302" text-anchor="middle" font-family="Arial, sans-serif" font-size="10">2.87n</text>
<line x1="355.60" y1="54" x2="355.60" y2="284" stroke="#ececec"/>
<text x="355.60" y="302" text-anchor="middle" font-family="Arial, sans-serif" font-size="10">6.04n</text>
<line x1="494.40" y1="54" x2="494.40" y2="284" stroke="#ececec"/>
<text x="494.40" y="302" text-anchor="middle" font-family="Arial, sans-serif" font-size="10">9.21n</text>
<line x1="633.20" y1="54" x2="633.20" y2="284" stroke="#ececec"/>
<text x="633.20" y="302" text-anchor="middle" font-family="Arial, sans-serif" font-size="10">12.4n</text>
<line x1="772.00" y1="54" x2="772.00" y2="284" stroke="#ececec"/>
<text x="772.00" y="302" text-anchor="middle" font-family="Arial, sans-serif" font-size="10">15.5n</text>
<line x1="78" y1="284.00" x2="772" y2="284.00" stroke="#ececec"/>
<text x="70" y="288.00" text-anchor="end" font-family="Arial, sans-serif" font-size="10">-0.157</text>
<line x1="78" y1="226.50" x2="772" y2="226.50" stroke="#ececec"/>
<text x="70" y="230.50" text-anchor="end" font-family="Arial, sans-serif" font-size="10">0.371</text>
<line x1="78" y1="169.00" x2="772" y2="169.00" stroke="#ececec"/>
<text x="70" y="173.00" text-anchor="end" font-family="Arial, sans-serif" font-size="10">0.899</text>
<line x1="78" y1="111.50" x2="772" y2="111.50" stroke="#ececec"/>
<text x="70" y="115.50" text-anchor="end" font-family="Arial, sans-serif" font-size="10">1.4</text>
<line x1="78" y1="54.00" x2="772" y2="54.00" stroke="#ececec"/>
<text x="70" y="58.00" text-anchor="end" font-family="Arial, sans-serif" font-size="10">2</text>
<line x1="78" y1="71.00" x2="772" y2="71.00" stroke="#1f77b4" opacity="0.18" stroke-dasharray="3 4"/>
<polyline fill="none" stroke="#1f77b4" stroke-width="2.0" points="91.35,139.40 95.55,139.40 99.75,139.40 102.12,139.40 102.99,139.40 107.06,139.39 110.22,139.38 114.42,139.38 116.39,139.39 117.40,139.39 117.66,139.39 117.84,139.39 118.01,139.39 118.19,139.39 118.40,139.39 118.62,139.39 118.84,139.39 119.06,139.39 119.28,139.39 119.63,139.39 120.07,139.39 120.42,139.39 120.81,139.39 121.16,139.39 121.43,139.39 121.73,139.39 122.13,139.39 122.30,139.39 122.61,139.39 122.83,139.39 123.13,139.39 123.53,139.38 123.88,139.38 124.10,139.38 124.53,139.37 124.84,139.37 125.10,139.36 125.63,139.36 125.94,139.35 126.37,139.34 126.94,139.34 127.38,139.35 127.73,139.36 128.39,139.45 128.96,139.61 129.22,139.72 129.88,140.06 130.40,140.29 130.80,140.33 131.10,140.23 131.32,140.06 131.58,139.73 131.85,139.25 132.11,138.63 132.28,138.13 132.50,137.40 132.72,136.56 133.03,135.20 133.20,134.32 133.55,132.37 133.86,130.47 134.04,129.31 134.21,128.12 134.52,125.92 134.82,123.62 135.17,120.89 135.52,118.11 135.87,115.33 136.09,113.59 136.44,110.85 136.71,108.84 137.10,105.94 137.36,104.09 137.54,102.88 137.71,101.72 138.06,99.52 138.37,97.71 138.72,95.79 138.94,94.65 139.38,92.55 139.73,91.01 139.99,89.94 140.21,89.09 140.43,88.29 140.82,86.94 141.22,85.74 141.61,84.63 142.09,83.46 142.40,82.74 143.05,81.39 143.67,80.28 144.15,79.57 144.81,78.63 145.90,77.36 146.64,76.68 147.00,76.37 147.17,76.21 147.83,75.75 148.62,75.20 149.49,74.74 150.50,74.25 150.67,74.18 151.24,73.96 151.99,73.68 152.25,73.60 152.86,73.42 153.08,73.36 153.65,73.20 153.83,73.16 154.26,73.06 154.57,72.99 155.18,72.86 156.01,72.71 156.54,72.63 157.81,72.43 158.60,72.33 160.04,72.15 160.39,72.11 161.58,72.00 163.06,71.89 163.68,71.85 164.25,71.82 164.73,71.79 165.47,71.76 166.83,71.70 167.35,71.68 167.75,71.67 168.23,71.65 168.45,71.65 168.80,71.64 169.06,71.63 169.32,71.62 169.68,71.62 169.89,71.61 170.38,71.60 170.77,71.59 171.08,71.58 171.65,71.57 172.26,71.56 172.61,71.55 173.13,71.54 173.57,71.53 174.05,71.52 174.49,71.51 174.89,71.51 175.28,71.50 175.67,71.49 176.20,71.48 176.81,71.47 177.34,71.46 177.78,71.46 178.08,71.45 178.56,71.44 178.96,71.44 179.44,71.43 180.05,71.42 180.45,71.41 181.02,71.40 181.54,71.40 181.93,71.39 182.42,71.38 182.81,71.38 183.16,71.37 183.38,71.37 184.08,71.36 184.56,71.35 185.70,71.34 185.96,71.33 186.88,71.32 187.71,71.31 188.41,71.30 189.12,71.30 189.90,71.29 192.00,71.26 193.89,71.25 194.41,71.24 195.07,71.23 196.21,71.22 198.31,71.21 200.37,71.19 202.47,71.18 204.57,71.16 208.25,71.14 209.82,71.14 212.98,71.12 215.56,71.11 218.23,71.10 220.29,71.09 222.39,71.09 224.49,71.08 227.69,71.07 230.80,71.07 234.74,71.06 237.10,71.06 241.26,71.05 244.41,71.05 247.57,71.04 251.77,71.04 255.97,71.04 258.07,71.04 260.70,71.03 263.28,71.03 264.64,71.03 268.54,71.03 272.74,71.03 276.95,71.03 280.97,71.03 284.26,71.02 286.36,71.02 289.51,71.02 291.70,71.02 295.82,71.02 297.74,71.02 298.92,71.02 304.18,71.02 306.28,71.02 310.48,71.02 314.69,71.02 318.85,71.02 323.05,71.02 328.30,71.02 332.51,71.02 336.67,71.02 340.87,71.02 345.07,71.02 348.23,71.02 353.48,71.02 357.64,71.01 361.84,71.01 364.99,71.01 369.20,71.01 374.45,71.01 378.57,71.01 381.76,71.01 385.97,71.01 390.17,71.01 394.37,71.01 398.53,71.01 402.74,71.01 404.79,71.00"/>
<line x1="78" y1="71.00" x2="772" y2="71.00" stroke="#d62728" opacity="0.18" stroke-dasharray="3 4"/>
<polyline fill="none" stroke="#d62728" stroke-width="2.0" points="91.35,71.00 100.28,71.00 109.21,71.00 118.27,71.01 120.46,71.01 122.08,71.01 123.61,71.00 126.59,71.00 129.31,71.00 132.20,71.04 133.20,71.08 133.77,71.10 134.52,71.09 135.31,70.97 136.31,70.68 136.84,70.52 137.32,70.39 137.80,70.27 138.24,70.18 138.76,70.09 139.77,69.97 140.38,69.93 141.00,69.90 141.74,69.87 142.44,69.86 142.97,69.86 143.93,69.87 144.98,69.87 146.03,69.89 146.73,69.89 147.70,69.90 149.05,69.91 149.62,69.92 150.37,69.94 150.85,69.96 151.50,70.00 152.29,70.05 153.48,70.19 154.22,70.30 155.40,70.56 156.28,70.79 157.55,71.22 158.29,71.53 159.04,71.88 160.39,72.61 160.70,72.80 161.49,73.30 162.54,74.04 163.59,74.86 164.25,75.43 165.08,76.17 166.13,77.16 166.83,77.88 167.84,78.93 168.80,79.98 169.46,80.74 170.29,81.70 170.73,82.22 171.25,82.86 172.00,83.75 172.70,84.62 172.92,84.89 173.70,85.87 174.23,86.52 175.59,88.23 176.24,89.06 177.38,90.50 177.82,91.05 178.39,91.77 179.79,93.52 180.80,94.78 181.50,95.65 182.59,96.98 183.73,98.36 184.56,99.36 185.52,100.48 187.32,102.55 188.59,103.94 189.64,105.07 190.52,106.02 191.17,106.72 191.79,107.32 192.22,107.75 192.92,108.44 193.62,109.13 194.11,109.60 195.20,110.67 196.91,112.22 198.40,113.57 198.75,113.86 200.41,115.26 202.73,117.14 205.18,119.00 206.10,119.66 207.46,120.60 208.16,121.07 210.04,122.29 212.58,123.81 214.68,124.98 217.05,126.19 217.62,126.47 218.84,127.04 220.42,127.75 221.25,128.11 223.05,128.84 224.58,129.43 225.19,129.66 225.85,129.89 226.29,130.05 227.21,130.36 228.96,130.93 229.48,131.10 230.01,131.26 230.49,131.40 231.10,131.58 231.98,131.83 233.51,132.25 234.61,132.53 236.58,133.00 238.24,133.37 240.39,133.82 241.31,134.00 243.14,134.34 244.98,134.66 246.87,134.96 247.96,135.13 249.32,135.32 250.24,135.46 250.85,135.54 251.46,135.62 251.99,135.69 253.04,135.83 253.78,135.92 255.14,136.08 256.50,136.24 259.04,136.51 261.05,136.71 265.17,137.09 267.23,137.26 268.54,137.36 270.77,137.53 272.04,137.61 274.45,137.76 276.60,137.88 278.52,137.98 279.75,138.03 282.59,138.15 285.53,138.27 288.94,138.38 290.12,138.41 292.23,138.48 293.93,138.53 294.28,138.54 297.57,138.61 298.18,138.62 298.49,138.62 298.79,138.63 298.97,138.63 299.14,138.64 299.63,138.65 301.16,138.68 301.68,138.69 301.86,138.69 302.03,138.69 302.34,138.70 302.69,138.71 305.54,138.76 307.86,138.81 312.32,138.87 316.79,138.93 319.46,138.97 321.91,139.00 323.49,139.02 325.55,139.03 328.17,139.05 331.54,139.08 334.08,139.09 335.62,139.11 339.07,139.13 345.77,139.18 351.33,139.20 353.65,139.21 356.46,139.22 359.17,139.23 362.45,139.25 365.21,139.26 372.61,139.27 374.80,139.28 377.03,139.28 380.06,139.29 381.50,139.30 382.51,139.30 384.04,139.30 384.35,139.30 385.84,139.31 386.49,139.31 389.08,139.31 393.54,139.32 395.56,139.32 397.13,139.32 403.83,139.33 412.76,139.34 420.51,139.35 430.58,139.35 439.51,139.36 448.45,139.36 457.38,139.37 464.08,139.37 473.01,139.37 484.17,139.37 493.11,139.37 502.04,139.38 510.97,139.38 519.90,139.38 531.02,139.38 539.95,139.38 548.89,139.38 557.82,139.38 566.75,139.38 575.68,139.38 586.85,139.38 595.78,139.38 604.71,139.38 613.64,139.38 622.53,139.38 631.46,139.38 642.63,139.38 651.56,139.38 660.49,139.39 669.42,139.39 678.35,139.39 689.52,139.39 698.45,139.39 707.38,139.39 716.27,139.39 725.20,139.39 734.13,139.39 745.30,139.39 754.23,139.39 758.65,139.39"/>
<line x1="78" y1="266.88" x2="772" y2="266.88" stroke="#2ca02c" opacity="0.18" stroke-dasharray="3 4"/>
<polyline fill="none" stroke="#2ca02c" stroke-width="2.0" points="91.35,266.88 98.35,266.88 105.40,266.88 114.16,266.87 116.52,266.87 116.70,266.87 116.87,266.87 117.05,266.87 117.22,266.87 117.44,266.87 117.62,266.87 117.84,266.87 119.46,266.88 121.86,266.88 122.56,266.88 123.00,266.88 123.53,266.88 123.92,266.88 124.40,266.88 126.46,266.88 128.69,266.83 129.26,266.82 129.53,266.82 129.79,266.83 129.96,266.84 130.27,266.87 130.71,266.94 131.63,267.12 132.28,267.25 133.16,267.41 134.08,267.57 135.31,267.79 135.92,267.89 136.49,267.97 137.01,268.04 137.49,268.09 137.84,268.11 138.41,268.14 138.76,268.14 139.11,268.13 139.64,268.10 140.12,268.05 140.78,267.98 141.70,267.88 142.40,267.80 143.23,267.72 143.62,267.68 144.28,267.63 144.98,267.58 145.81,267.52 146.91,267.46 147.56,267.42 148.26,267.37 149.10,267.31 149.80,267.26 150.50,267.18 151.07,267.11 151.59,267.04 152.03,266.99 152.69,266.86 152.99,266.79 153.74,266.64 154.00,266.59 154.48,266.46 155.01,266.32 155.45,266.18 155.88,266.04 156.23,265.90 156.63,265.75 157.07,265.55 157.59,265.31 157.85,265.17 158.38,264.87 158.82,264.62 159.25,264.33 159.87,263.92 160.48,263.46 160.96,263.08 161.62,262.52 162.01,262.17 163.06,261.16 163.68,260.51 164.16,260.00 164.51,259.60 164.73,259.34 165.30,258.68 165.69,258.20 166.17,257.60 166.61,257.05 166.96,256.59 167.57,255.78 168.01,255.19 169.11,253.66 169.68,252.85 170.59,251.51 171.56,250.08 172.30,248.97 173.40,247.32 174.32,245.92 175.24,244.53 176.16,243.15 177.42,241.24 177.99,240.40 179.22,238.61 179.79,237.77 180.40,236.90 180.93,236.17 181.58,235.25 182.59,233.84 184.30,231.59 185.00,230.66 185.52,229.98 186.84,228.38 187.80,227.21 188.98,225.81 190.74,223.81 191.17,223.34 192.75,221.65 193.58,220.78 194.81,219.56 196.43,218.02 197.26,217.26 198.48,216.20 199.45,215.39 200.89,214.25 201.77,213.59 202.56,213.01 203.74,212.19 204.48,211.70 205.40,211.11 206.15,210.65 206.89,210.21 207.68,209.76 208.64,209.24 209.65,208.71 210.26,208.41 211.09,208.01 212.54,207.35 213.46,206.96 213.85,206.80 214.95,206.37 216.30,205.88 217.79,205.37 218.58,205.12 219.54,204.83 220.81,204.46 221.91,204.16 223.31,203.80 224.84,203.44 225.72,203.24 226.90,202.99 228.35,202.70 230.10,202.38 231.59,202.12 233.47,201.83 235.26,201.57 236.58,201.40 237.10,201.33 238.90,201.12 240.65,200.93 242.05,200.79 244.15,200.60 245.42,200.50 247.65,200.34 249.45,200.21 250.94,200.13 252.91,200.02 253.96,199.97 255.75,199.87 257.94,199.80 260.40,199.71 263.28,199.61 264.25,199.58 266.96,199.48 268.71,199.44 269.90,199.41 273.09,199.33 275.54,199.27 277.95,199.23 280.62,199.19 283.38,199.14 286.23,199.10 289.25,199.07 291.57,199.05 293.71,199.03 296.82,199.00 299.80,198.97 302.12,198.96 305.49,198.94 308.51,198.92 311.05,198.90 313.72,198.89 316.79,198.88 320.60,198.87 324.45,198.85 328.44,198.84 332.55,198.83 336.80,198.82 340.74,198.81 345.99,198.81 349.54,198.80 353.61,198.79 358.30,198.79 363.59,198.78 370.60,198.78 374.32,198.78 381.15,198.77 388.16,198.77 393.45,198.77 402.21,198.76 409.26,198.76 416.27,198.76 421.52,198.76 428.57,198.76 437.33,198.76 444.37,198.76 451.38,198.75 458.43,198.75 465.43,198.75 472.48,198.75 481.24,198.75 488.29,198.75 495.29,198.75 502.34,198.75 509.35,198.75 516.40,198.75 525.16,198.75 532.20,198.75 539.21,198.75 546.22,198.75 553.26,198.75 562.02,198.75 569.07,198.75 576.08,198.75 583.12,198.75 590.13,198.75 597.18,198.75 605.94,198.75 612.99,198.75 616.44,198.74"/>
<line x1="78" y1="266.88" x2="772" y2="266.88" stroke="#9467bd" opacity="0.18" stroke-dasharray="3 4"/>
<polyline fill="none" stroke="#9467bd" stroke-width="2.0" points="91.35,198.74 94.45,198.74 97.13,198.74 101.94,198.74 105.79,198.74 109.03,198.74 112.54,198.74 115.38,198.73 118.27,198.74 118.49,198.74 118.67,198.74 118.84,198.74 119.02,198.74 119.19,198.74 119.41,198.74 119.59,198.74 119.76,198.74 119.94,198.74 120.11,198.74 120.29,198.74 120.59,198.74 120.77,198.74 120.94,198.74 121.12,198.74 121.29,198.74 121.47,198.74 121.78,198.74 121.95,198.74 122.17,198.74 122.35,198.74 122.56,198.74 122.87,198.74 123.13,198.74 123.40,198.74 123.70,198.74 124.05,198.74 124.32,198.74 124.75,198.74 124.97,198.74 125.19,198.74 125.54,198.74 125.94,198.75 126.64,198.75 126.94,198.75 127.38,198.76 127.69,198.76 128.17,198.76 128.61,198.77 129.22,198.77 129.66,198.78 130.23,198.79 130.66,198.79 131.10,198.79 131.54,198.79 131.76,198.79 132.02,198.78 132.37,198.77 132.59,198.76 132.81,198.74 133.12,198.70 133.29,198.67 133.47,198.64 133.64,198.60 133.82,198.56 134.08,198.49 134.34,198.40 134.52,198.34 134.74,198.27 134.91,198.21 135.17,198.13 135.44,198.08 135.61,198.06 135.87,198.07 136.05,198.10 136.27,198.18 136.44,198.28 136.75,198.53 137.06,198.88 137.49,199.59 137.76,200.12 138.15,201.08 138.63,202.46 139.07,203.90 139.42,205.19 139.90,207.09 140.25,208.58 140.52,209.71 141.08,212.28 141.43,213.91 141.87,215.98 142.18,217.45 142.44,218.72 142.88,220.85 143.14,222.12 143.49,223.82 143.67,224.66 144.06,226.55 144.41,228.21 144.89,230.46 145.29,232.26 145.55,233.44 145.99,235.36 146.29,236.67 146.86,239.02 147.17,240.24 147.56,241.74 148.00,243.35 148.57,245.33 149.05,246.91 149.49,248.28 149.84,249.32 150.19,250.31 150.72,251.69 151.07,252.57 151.94,254.53 152.25,255.17 152.95,256.50 153.65,257.64 154.31,258.64 155.36,259.98 156.23,260.95 157.11,261.79 158.38,262.76 159.43,263.43 160.52,264.02 161.53,264.47 162.58,264.87 164.55,265.43 165.21,265.56 165.73,265.66 166.22,265.75 166.83,265.85 167.18,265.90 167.79,265.99 168.23,266.04 168.45,266.07 168.89,266.12 169.19,266.15 169.37,266.17 169.76,266.21 170.42,266.27 170.77,266.29 171.12,266.32 171.47,266.34 171.82,266.36 172.17,266.38 172.48,266.40 172.92,266.42 173.31,266.45 173.70,266.46 174.10,266.48 174.49,266.49 174.84,266.51 175.41,266.53 176.02,266.55 176.55,266.56 176.90,266.57 177.51,266.58 177.99,266.60 178.78,266.61 179.00,266.62 179.57,266.63 180.18,266.63 180.84,266.64 181.54,266.65 181.93,266.66 182.55,266.67 182.94,266.67 183.55,266.68 184.21,266.69 184.87,266.69 185.48,266.70 186.01,266.70 186.62,266.71 187.32,266.71 187.76,266.71 188.59,266.72 189.51,266.73 190.38,266.73 190.95,266.73 191.79,266.74 192.88,266.75 193.54,266.75 194.63,266.75 195.29,266.76 196.78,266.76 197.87,266.77 199.54,266.77 201.07,266.78 202.51,266.78 203.96,266.79 205.58,266.79 207.85,266.80 209.74,266.80 211.27,266.81 213.55,266.81 215.47,266.81 217.75,266.82 219.50,266.82 222.87,266.83 225.24,266.83 228.00,266.83 231.85,266.84 236.66,266.84 240.52,266.84 244.37,266.85 248.22,266.85 252.08,266.85 255.93,266.85 260.70,266.86 264.55,266.86 268.41,266.86 272.26,266.86 276.11,266.86 280.93,266.86 284.78,266.86 288.64,266.86 292.49,266.86 296.34,266.87 300.19,266.87 305.01,266.87 308.82,266.87 312.67,266.87 316.53,266.87 320.38,266.87 324.23,266.87 329.05,266.87 332.90,266.87 336.75,266.87 340.61,266.87 344.46,266.87 349.28,266.87 353.13,266.87 356.94,266.87 360.79,266.87 364.64,266.87 368.50,266.87 373.31,266.87 377.17,266.87 379.05,266.88"/>
<line x1="88" y1="72" x2="110" y2="72" stroke="#1f77b4" stroke-width="2.4"/>
<text x="116" y="76" font-family="Arial, sans-serif" font-size="12">rising #1</text>
<line x1="88" y1="90" x2="110" y2="90" stroke="#d62728" stroke-width="2.4"/>
<text x="116" y="94" font-family="Arial, sans-serif" font-size="12">falling #2</text>
<line x1="88" y1="108" x2="110" y2="108" stroke="#2ca02c" stroke-width="2.4"/>
<text x="116" y="112" font-family="Arial, sans-serif" font-size="12">rising #3</text>
<line x1="88" y1="126" x2="110" y2="126" stroke="#9467bd" stroke-width="2.4"/>
<text x="116" y="130" font-family="Arial, sans-serif" font-size="12">falling #4</text>
<rect x="78" y="342" width="694" height="44" fill="#fffdf7" stroke="#d8c6a1" rx="4"/>
<text x="88" y="359" font-family="Arial, sans-serif" font-size="11" font-weight="700" fill="#4b3b21">Findings needing attention</text>
<rect x="88" y="366" width="7" height="7" fill="#b54708"/>
<text x="102" y="373" font-family="Arial, sans-serif" font-size="11" fill="#333">WARN 5.5.4: Ramp dt versus V-T 20-80% evidence needs review | avg Ramp dt=8.843e-10s, avg V-T 20-80% span=5.409e-...</text>
<text x="425.00" y="322.00" text-anchor="middle" font-family="Arial, sans-serif" font-size="12">Time (s)</text>
<text x="420" y="42" font-family="Arial, sans-serif" font-size="11" fill="#555">solid=V-T voltage, faint horizontal=V_fixture</text>
</svg>