<svg xmlns="http://www.w3.org/2000/svg" width="800" height="450" viewBox="0 0 800 450">
<rect width="100%" height="100%" fill="#ffffff"/>
<text x="78" y="25" font-family="Arial, sans-serif" font-size="16" font-weight="700">nfc_ioc15_swp_master_200_best V-T Waveforms</text>
<rect x="78" y="54" width="694" height="230" fill="#fbfbfb" stroke="#c8c8c8"/>
<text transform="translate(18 169.00) rotate(-90)" text-anchor="middle" font-family="Arial, sans-serif" font-size="12">Voltage (V)</text>
<line x1="78.00" y1="54" x2="78.00" y2="284" stroke="#ececec"/>
<text x="78.00" y="302" text-anchor="middle" font-family="Arial, sans-serif" font-size="10">-855p</text>
<line x1="216.80" y1="54" x2="216.80" y2="284" stroke="#ececec"/>
<text x="216.80" y="302" text-anchor="middle" font-family="Arial, sans-serif" font-size="10">8.04n</text>
<line x1="355.60" y1="54" x2="355.60" y2="284" stroke="#ececec"/>
<text x="355.60" y="302" text-anchor="middle" font-family="Arial, sans-serif" font-size="10">16.9n</text>
<line x1="494.40" y1="54" x2="494.40" y2="284" stroke="#ececec"/>
<text x="494.40" y="302" text-anchor="middle" font-family="Arial, sans-serif" font-size="10">25.8n</text>
<line x1="633.20" y1="54" x2="633.20" y2="284" stroke="#ececec"/>
<text x="633.20" y="302" text-anchor="middle" font-family="Arial, sans-serif" font-size="10">34.7n</text>
<line x1="772.00" y1="54" x2="772.00" y2="284" stroke="#ececec"/>
<text x="772.00" y="302" text-anchor="middle" font-family="Arial, sans-serif" font-size="10">43.6n</text>
<line x1="78" y1="284.00" x2="772" y2="284.00" stroke="#ececec"/>
<text x="70" y="288.00" text-anchor="end" font-family="Arial, sans-serif" font-size="10">-0.18</text>
<line x1="78" y1="226.50" x2="772" y2="226.50" stroke="#ececec"/>
<text x="70" y="230.50" text-anchor="end" font-family="Arial, sans-serif" font-size="10">0.41</text>
<line x1="78" y1="169.00" x2="772" y2="169.00" stroke="#ececec"/>
<text x="70" y="173.00" text-anchor="end" font-family="Arial, sans-serif" font-size="10">1</text>
<line x1="78" y1="111.50" x2="772" y2="111.50" stroke="#ececec"/>
<text x="70" y="115.50" text-anchor="end" font-family="Arial, sans-serif" font-size="10">1.6</text>
<line x1="78" y1="54.00" x2="772" y2="54.00" stroke="#ececec"/>
<text x="70" y="58.00" text-anchor="end" font-family="Arial, sans-serif" font-size="10">2.2</text>
<line x1="78" y1="73.46" x2="772" y2="73.46" stroke="#1f77b4" opacity="0.18" stroke-dasharray="3 4"/>
<polyline fill="none" stroke="#1f77b4" stroke-width="2.0" points="91.35,228.51 94.41,228.51 97.53,228.51 101.40,228.51 104.46,228.48 107.58,228.50 110.64,228.53 113.70,228.55 116.83,228.57 120.70,228.59 123.76,228.61 126.82,228.63 129.94,228.65 133.00,228.66 136.12,228.67 139.18,228.64 142.31,228.54 144.62,228.39 146.37,228.22 148.49,227.90 150.80,227.39 152.30,226.95 154.11,226.26 155.05,225.82 155.92,225.35 157.67,224.21 159.23,222.90 160.04,222.07 161.04,220.91 162.17,219.36 163.79,216.52 165.17,213.41 165.79,211.73 166.41,209.82 167.35,206.50 167.85,204.46 168.29,202.52 168.97,199.15 169.35,197.17 169.91,194.03 170.41,191.06 170.91,187.95 171.66,183.05 172.10,180.06 172.47,177.45 172.91,174.35 173.35,171.17 173.72,168.44 174.03,166.13 174.53,162.45 174.97,159.24 175.41,156.06 175.91,152.46 176.41,148.96 176.78,146.37 177.16,143.86 177.59,140.97 178.03,138.16 178.53,135.07 179.03,132.10 179.28,130.68 179.72,128.26 180.28,125.28 180.72,123.16 181.22,120.74 181.47,119.61 181.90,117.69 182.28,116.05 182.65,114.51 182.96,113.23 183.34,111.81 183.65,110.62 183.90,109.71 184.46,107.73 185.40,104.72 186.09,102.64 186.84,100.54 187.52,98.75 188.27,96.93 188.65,96.09 189.02,95.26 189.33,94.60 190.02,93.21 190.40,92.51 190.83,91.73 191.40,90.74 192.46,89.07 193.14,88.11 193.58,87.54 194.02,86.96 194.52,86.30 194.89,85.90 195.52,85.24 196.08,84.65 196.58,84.12 197.08,83.65 197.45,83.35 197.95,82.95 198.33,82.65 198.95,82.14 199.45,81.74 199.89,81.40 200.45,81.06 201.51,80.42 202.07,80.08 202.64,79.74 202.95,79.56 203.64,79.25 204.45,78.88 205.26,78.51 205.82,78.25 206.32,78.07 207.13,77.79 207.88,77.53 208.88,77.20 209.51,77.03 210.51,76.77 211.19,76.59 211.76,76.45 212.38,76.33 212.94,76.22 213.57,76.10 213.94,76.03 214.19,75.98 214.57,75.90 217.13,75.53 218.19,75.38 218.50,75.35 219.00,75.30 219.37,75.27 219.81,75.22 220.37,75.17 220.81,75.12 221.31,75.08 221.75,75.03 222.25,74.99 222.75,74.96 223.25,74.93 223.75,74.89 224.87,74.82 225.87,74.75 226.62,74.71 227.93,74.66 228.43,74.64 229.05,74.61 229.49,74.59 230.12,74.56 230.99,74.53 232.05,74.50 232.43,74.49 233.11,74.47 233.55,74.46 234.11,74.45 234.99,74.42 235.55,74.41 236.49,74.39 237.99,74.36 239.11,74.35 240.92,74.32 242.61,74.30 242.98,74.29 243.23,74.29 243.61,74.29 244.04,74.29 244.54,74.28 244.92,74.28 245.29,74.28 245.73,74.28 246.10,74.27 246.48,74.27 246.79,74.27 247.23,74.26 247.60,74.26 248.04,74.26 248.41,74.26 248.85,74.25 249.16,74.25 249.60,74.25 249.98,74.24 250.91,74.24 251.29,74.24 252.66,74.24 253.29,74.23 254.22,74.23 254.97,74.23 255.60,74.23 256.53,74.23 257.53,74.22 258.03,74.22 258.84,74.22 260.03,74.22 262.22,74.22 264.22,74.21 266.53,74.21 268.09,74.21 271.15,74.21 274.27,74.21 277.33,74.21 281.20,74.21 284.26,74.21 287.39,74.21 290.45,74.21 293.57,74.21 294.32,74.21 295.07,74.21 295.75,74.20 296.44,74.20 296.75,74.20 297.44,74.19 298.31,74.19 298.94,74.19 299.56,74.19 300.25,74.18 300.69,74.18 301.56,74.18 302.12,74.18 302.81,74.17 303.50,74.17 304.19,74.17 304.68,74.16 305.56,74.16 306.18,74.15 306.81,74.14 307.43,74.14 307.93,74.13 308.56,74.12 309.18,74.12 309.68,74.11 310.31,74.10 310.93,74.10 311.30,74.09 312.05,74.08 312.68,74.08 313.43,74.07 314.80,74.05 315.93,74.03 316.93,74.02 318.55,73.99 320.74,73.96 322.05,73.46"/>
<line x1="78" y1="73.46" x2="772" y2="73.46" stroke="#d62728" opacity="0.18" stroke-dasharray="3 4"/>
<polyline fill="none" stroke="#d62728" stroke-width="2.0" points="91.35,73.46 97.53,73.46 100.28,73.46 101.53,73.47 102.53,73.47 103.15,73.42 103.90,73.33 104.34,73.27 104.90,73.19 106.02,73.06 107.27,72.96 108.08,72.91 109.21,72.86 110.46,72.82 111.89,72.78 112.64,72.76 113.95,72.72 114.52,72.71 117.01,72.63 117.89,72.60 118.89,72.56 119.51,72.54 120.95,72.47 121.26,72.45 121.95,72.42 123.01,72.35 123.76,72.30 125.45,72.15 126.82,72.01 128.07,71.84 129.01,71.68 130.19,71.44 131.13,71.21 132.19,70.90 132.81,70.71 133.25,70.57 134.50,70.22 135.94,69.98 136.94,69.89 137.75,69.86 138.75,69.87 140.43,69.95 141.31,70.02 142.00,70.09 142.68,70.17 143.12,70.23 143.87,70.33 145.93,70.61 147.43,70.83 147.99,70.91 148.62,71.01 149.55,71.14 151.30,71.39 151.86,71.46 153.55,71.68 154.55,71.80 155.36,71.89 156.42,72.01 156.80,72.05 157.86,72.15 159.98,72.35 160.67,72.41 161.67,72.50 162.42,72.56 164.79,72.73 165.48,72.78 167.48,72.91 168.60,72.98 169.22,73.01 170.10,73.06 170.47,73.08 170.85,73.10 171.29,73.12 172.47,73.18 174.28,73.27 175.35,73.31 176.22,73.35 176.59,73.36 176.97,73.37 177.41,73.39 178.41,73.43 180.65,73.54 181.15,73.57 182.15,73.68 182.90,73.83 183.46,73.94 184.09,74.10 185.77,74.67 186.52,74.97 187.52,75.40 188.34,75.78 190.08,76.67 191.83,77.64 192.21,77.86 193.08,78.39 194.08,78.99 194.58,79.30 195.21,79.71 197.02,80.91 197.27,81.07 197.95,81.57 198.76,82.15 199.51,82.69 200.20,83.19 201.20,83.97 202.07,84.66 203.57,85.87 205.26,87.29 207.07,88.91 208.76,90.46 210.63,92.27 211.94,93.59 213.19,94.88 214.57,96.34 215.19,97.02 216.50,98.45 217.06,99.09 217.50,99.59 218.06,100.24 218.44,100.67 218.94,101.24 219.87,102.36 220.81,103.49 221.75,104.62 222.18,105.16 223.25,106.50 224.81,108.48 225.37,109.22 225.81,109.79 226.56,110.78 226.99,111.35 227.74,112.35 228.43,113.29 229.55,114.83 230.43,116.03 231.37,117.35 232.18,118.50 233.68,120.63 235.11,122.74 236.74,125.12 237.36,126.06 238.36,127.57 239.48,129.26 240.48,130.79 241.23,131.95 241.92,133.01 243.11,134.84 244.23,136.60 245.17,138.08 245.79,139.07 246.60,140.35 247.48,141.73 248.48,143.33 249.41,144.84 250.54,146.64 251.48,148.14 252.35,149.55 253.10,150.76 253.60,151.57 255.10,153.99 256.03,155.50 256.47,156.20 257.22,157.41 257.53,157.92 259.03,160.28 260.03,161.86 260.66,162.85 261.84,164.72 262.28,165.41 263.90,167.97 265.71,170.83 267.09,172.97 268.90,175.67 270.27,177.71 272.08,180.40 273.52,182.50 275.77,185.55 277.46,187.83 278.27,188.83 280.64,191.69 281.64,192.88 283.89,195.18 285.89,197.23 287.57,198.71 290.20,200.98 292.69,202.66 295.38,204.47 297.75,205.93 300.88,207.67 302.81,208.57 305.81,209.94 308.24,210.88 311.30,212.00 316.36,213.49 319.74,214.48 323.11,215.31 326.54,216.13 331.60,217.14 336.66,218.08 341.72,218.87 345.15,219.35 351.90,220.29 354.40,220.58 362.02,221.37 368.20,222.02 370.51,222.19 377.25,222.68 384.06,223.17 390.81,223.65 395.87,223.96 402.67,224.34 409.42,224.69 416.16,224.99 422.97,225.28 428.03,225.47 434.77,225.70 441.58,225.93 448.33,226.12 455.07,226.31 461.88,226.47 470.31,226.66 477.12,226.80 483.05,226.91 487.23,226.99 493.98,227.09 500.79,227.20 509.22,227.32 516.02,227.41 522.77,227.48 529.51,227.54 536.32,227.60 544.75,227.68 551.56,227.74 558.31,227.79 565.05,227.84 571.86,227.88 578.60,227.93 587.03,227.97 593.84,228.01 597.15,228.51"/>
<line x1="78" y1="266.44" x2="772" y2="266.44" stroke="#2ca02c" opacity="0.18" stroke-dasharray="3 4"/>
<polyline fill="none" stroke="#2ca02c" stroke-width="2.0" points="91.35,266.44 100.28,266.45 109.21,266.44 120.39,266.44 129.32,266.44 138.25,266.45 147.12,266.48 156.05,266.58 164.98,266.77 173.91,267.34 182.84,268.14 187.34,267.96 196.27,267.34 205.20,267.03 216.31,266.89 225.24,266.87 234.18,266.87 243.11,266.88 251.48,266.88 258.72,266.73 263.97,266.49 265.71,266.27 271.27,265.34 273.96,264.60 276.58,263.66 279.02,262.59 282.45,260.75 285.26,258.98 287.57,257.32 289.82,255.55 290.38,255.08 294.44,251.49 296.57,249.44 298.19,247.80 300.00,245.94 301.94,243.85 305.00,240.43 307.87,237.10 309.74,234.87 312.37,231.70 314.55,228.97 316.80,226.15 319.05,223.28 321.55,220.06 323.48,217.54 325.79,214.52 327.92,211.72 330.17,208.76 332.79,205.29 335.60,201.56 337.47,199.08 339.78,196.02 341.72,193.46 344.59,189.67 346.78,186.82 348.84,184.12 351.71,180.38 354.65,176.59 356.77,173.85 359.21,170.73 361.14,168.26 361.89,167.31 363.83,164.85 365.89,162.25 366.70,161.23 367.32,160.45 369.39,157.92 370.20,156.92 371.76,155.00 372.45,154.19 374.26,152.03 375.57,150.47 376.51,149.36 376.82,149.00 377.13,148.64 377.75,147.94 378.63,146.95 379.25,146.24 379.69,145.74 380.44,144.90 381.13,144.12 382.13,142.99 383.06,141.93 383.94,140.94 384.44,140.37 385.87,138.74 387.62,136.86 390.00,134.33 391.06,133.20 392.68,131.46 393.99,130.06 394.74,129.26 396.37,127.65 396.99,127.03 399.36,124.69 400.11,123.95 401.61,122.46 403.30,120.79 404.80,119.46 407.48,117.10 408.29,116.39 410.23,114.69 412.23,112.93 414.98,110.84 418.35,108.27 419.54,107.54 421.66,106.24 423.53,105.10 425.28,104.03 426.16,103.54 430.59,101.43 432.84,100.58 434.77,99.87 436.96,99.07 438.77,98.56 439.46,98.36 441.39,97.81 442.08,97.61 442.89,97.38 443.70,97.15 445.08,96.84 447.76,96.24 449.95,95.74 452.45,95.21 453.70,94.99 455.13,94.74 457.32,94.36 459.32,94.01 460.63,93.77 462.13,93.51 462.50,93.46 463.81,93.28 464.06,93.25 464.31,93.22 464.56,93.19 464.81,93.15 465.69,93.04 466.00,92.99 466.25,92.96 469.06,92.59 470.81,92.35 471.06,92.32 471.37,92.28 471.62,92.25 472.25,92.16 472.50,92.13 472.75,92.10 472.99,92.06 473.31,92.02 474.68,91.84 475.24,91.76 478.55,91.39 479.74,91.27 484.74,90.77 486.42,90.60 488.67,90.37 491.67,90.08 493.17,89.96 494.67,89.84 496.85,89.67 499.79,89.43 504.97,89.03 508.72,88.79 511.28,88.63 515.40,88.36 519.90,88.10 525.33,87.81 531.08,87.51 533.45,87.40 537.13,87.25 540.01,87.13 542.32,87.03 544.38,86.94 547.63,86.81 549.56,86.73 554.00,86.59 557.81,86.46 564.55,86.24 570.05,86.06 570.92,86.04 572.42,86.00 573.48,85.97 574.86,85.94 575.60,85.92 577.17,85.88 579.04,85.83 580.16,85.80 581.73,85.76 582.41,85.74 583.35,85.72 583.85,85.71 585.22,85.67 586.16,85.65 587.53,85.61 588.03,85.60 588.78,85.58 589.91,85.55 591.22,85.52 592.72,85.49 593.97,85.46 594.34,85.46 595.78,85.43 597.09,85.40 598.40,85.37 599.71,85.34 600.96,85.32 602.52,85.28 603.77,85.26 604.71,85.24 605.71,85.22 609.14,85.15 611.39,85.11 613.58,85.07 615.89,85.03 618.14,84.99 619.82,84.96 624.82,84.88 631.50,84.78 638.18,84.69 642.37,84.63 645.93,84.59 650.30,84.53 656.04,84.46 662.73,84.39 667.22,84.34 676.15,84.26 684.40,84.18 689.52,84.14 694.02,84.10 700.70,84.05 707.38,84.00 714.00,83.96 718.93,83.93 725.24,83.89 729.68,83.87 734.17,83.84 740.85,83.81 747.54,83.78 754.28,83.75 758.65,83.25"/>
<line x1="78" y1="266.44" x2="772" y2="266.44" stroke="#9467bd" opacity="0.18" stroke-dasharray="3 4"/>
<polyline fill="none" stroke="#9467bd" stroke-width="2.0" points="91.35,83.25 92.91,83.25 94.53,83.25 96.47,83.25 98.09,83.25 99.22,83.25 100.03,83.25 100.59,83.25 101.15,83.26 101.71,83.26 102.40,83.25 102.71,83.24 103.15,83.21 103.40,83.19 103.77,83.16 104.46,83.11 104.77,83.09 105.46,83.09 105.96,83.11 106.40,83.15 106.77,83.19 107.27,83.27 107.58,83.32 108.21,83.45 109.08,83.67 109.58,83.81 109.96,83.93 110.71,84.18 111.02,84.30 111.33,84.41 111.58,84.51 111.89,84.64 112.39,84.85 112.83,85.05 113.20,85.23 113.52,85.38 113.77,85.51 114.14,85.72 114.45,85.88 114.70,86.03 115.14,86.31 115.58,86.58 116.26,87.05 116.70,87.36 117.01,87.60 117.33,87.85 117.89,88.33 118.33,88.73 118.83,89.23 119.14,89.57 119.57,90.06 120.14,90.76 120.64,91.44 121.20,92.29 121.45,92.70 121.82,93.35 122.20,94.05 122.57,94.81 122.88,95.51 123.20,96.25 123.45,96.89 123.82,97.94 124.07,98.70 124.32,99.51 124.63,100.62 125.07,102.36 125.32,103.45 125.63,104.93 125.88,106.19 126.19,107.87 126.51,109.66 126.88,111.93 127.19,113.93 127.63,116.86 128.01,119.51 128.32,121.80 128.76,125.11 129.25,129.04 129.50,131.05 129.75,133.10 130.13,136.21 130.50,139.37 131.00,143.66 131.32,146.36 131.69,149.63 132.13,153.47 132.69,158.42 133.06,161.70 133.31,163.88 133.56,166.03 133.81,168.17 134.13,170.80 134.44,173.36 134.88,176.83 135.31,180.13 135.69,182.81 136.00,184.92 136.31,186.91 136.75,189.51 137.06,191.21 137.44,193.10 137.75,194.54 138.06,195.89 138.56,197.93 139.12,200.29 139.68,202.82 140.18,205.16 140.75,207.81 141.18,209.85 141.75,212.40 142.43,215.36 142.74,216.63 143.12,218.12 143.43,219.37 144.12,221.88 144.56,223.46 145.06,225.16 145.62,226.97 146.12,228.57 146.55,229.85 147.55,232.68 147.80,233.38 148.55,235.24 149.61,237.85 150.49,239.70 151.30,241.41 151.93,242.59 152.92,244.39 153.17,244.84 153.42,245.29 153.67,245.69 154.17,246.45 154.67,247.20 155.17,247.96 155.98,249.11 156.67,249.98 157.92,251.55 158.92,252.60 159.86,253.57 160.61,254.33 161.17,254.80 161.61,255.16 162.11,255.57 162.73,256.09 163.29,256.56 163.60,256.77 163.92,256.98 164.35,257.26 164.85,257.59 165.48,258.00 166.35,258.57 166.60,258.71 167.23,259.02 167.73,259.27 168.04,259.43 168.66,259.74 169.47,260.15 170.22,260.49 170.54,260.60 171.10,260.81 171.54,260.98 171.85,261.09 172.16,261.21 172.41,261.30 172.85,261.47 173.10,261.56 173.78,261.82 174.47,262.00 175.28,262.22 175.72,262.34 176.34,262.50 177.22,262.74 177.97,262.94 178.53,263.08 178.90,263.15 179.28,263.21 179.78,263.30 180.03,263.35 180.28,263.39 180.59,263.45 180.97,263.52 181.28,263.57 181.53,263.62 181.78,263.66 182.03,263.71 182.34,263.76 182.59,263.81 182.90,263.86 183.21,263.92 183.46,263.96 183.71,264.01 183.96,264.05 184.84,264.16 185.59,264.24 186.77,264.37 187.84,264.48 188.90,264.59 189.27,264.63 190.71,264.79 192.08,264.93 193.08,265.04 193.52,265.08 194.33,265.14 195.45,265.23 195.95,265.27 196.70,265.33 197.45,265.39 197.95,265.43 198.39,265.46 199.01,265.49 199.39,265.51 199.83,265.54 200.26,265.57 200.58,265.58 201.20,265.62 201.51,265.64 201.95,265.66 202.45,265.69 202.89,265.72 203.20,265.73 203.57,265.75 203.89,265.76 204.14,265.77 204.45,265.79 204.70,265.80 204.95,265.81 205.26,265.82 205.57,265.83 205.82,265.85 206.13,265.86 206.45,265.87 206.76,265.89 207.07,265.90 207.32,265.91 207.63,265.92 207.95,265.93 208.26,265.93 208.63,265.94 208.94,265.95 209.19,266.44"/>
<line x1="88" y1="72" x2="110" y2="72" stroke="#1f77b4" stroke-width="2.4"/>
<text x="116" y="76" font-family="Arial, sans-serif" font-size="12">rising #1</text>
<line x1="88" y1="90" x2="110" y2="90" stroke="#d62728" stroke-width="2.4"/>
<text x="116" y="94" font-family="Arial, sans-serif" font-size="12">falling #2</text>
<line x1="88" y1="108" x2="110" y2="108" stroke="#2ca02c" stroke-width="2.4"/>
<text x="116" y="112" font-family="Arial, sans-serif" font-size="12">rising #3</text>
<line x1="88" y1="126" x2="110" y2="126" stroke="#9467bd" stroke-width="2.4"/>
<text x="116" y="130" font-family="Arial, sans-serif" font-size="12">falling #4</text>
<rect x="78" y="342" width="694" height="44" fill="#fffdf7" stroke="#d8c6a1" rx="4"/>
<text x="88" y="359" font-family="Arial, sans-serif" font-size="11" font-weight="700" fill="#4b3b21">Findings needing attention</text>
<rect x="88" y="366" width="7" height="7" fill="#b54708"/>
<text x="102" y="373" font-family="Arial, sans-serif" font-size="11" fill="#333">WARN 5.5.4: Ramp dt versus V-T 20-80% evidence needs review | avg Ramp dt=4.963e-09s, avg V-T 20-80% span=3.037e-...</text>
<text x="425.00" y="322.00" text-anchor="middle" font-family="Arial, sans-serif" font-size="12">Time (s)</text>
<text x="420" y="42" font-family="Arial, sans-serif" font-size="11" fill="#555">solid=V-T voltage, faint horizontal=V_fixture</text>
</svg>