<svg xmlns="http://www.w3.org/2000/svg" width="900" height="620" viewBox="0 0 900 620">
<rect width="100%" height="100%" fill="#ffffff"/>
<text x="72" y="26" font-family="Arial, sans-serif" font-size="16" font-weight="700">E34_GPIO_SPI_I3C_MST_1V2_10 Zout Load-Line Curves</text>
<text x="72" y="45" font-family="Arial, sans-serif" font-size="11" fill="#555">Rload=50 ohm; solid=device I-V, dashed=load line, circles=operating points</text>
<rect x="72.00" y="62.00" width="380.00" height="286.00" fill="#fbfbfb" stroke="#c8c8c8"/>
<text x="80.00" y="50.00" font-family="Arial, sans-serif" font-size="13" font-weight="700">[Pulldown] Rload to Vdd</text>
<line x1="72.00" y1="62.00" x2="72.00" y2="348.00" stroke="#ececec"/>
<text x="72.00" y="366.00" text-anchor="middle" font-family="Arial, sans-serif" font-size="10">-1.3</text>
<line x1="167.00" y1="62.00" x2="167.00" y2="348.00" stroke="#ececec"/>
<text x="167.00" y="366.00" text-anchor="middle" font-family="Arial, sans-serif" font-size="10">-0.372</text>
<line x1="262.00" y1="62.00" x2="262.00" y2="348.00" stroke="#ececec"/>
<text x="262.00" y="366.00" text-anchor="middle" font-family="Arial, sans-serif" font-size="10">0.6</text>
<line x1="357.00" y1="62.00" x2="357.00" y2="348.00" stroke="#ececec"/>
<text x="357.00" y="366.00" text-anchor="middle" font-family="Arial, sans-serif" font-size="10">1.6</text>
<line x1="452.00" y1="62.00" x2="452.00" y2="348.00" stroke="#ececec"/>
<text x="452.00" y="366.00" text-anchor="middle" font-family="Arial, sans-serif" font-size="10">2.5</text>
<line x1="72.00" y1="348.00" x2="452.00" y2="348.00" stroke="#ececec"/>
<text x="65.00" y="352.00" text-anchor="end" font-family="Arial, sans-serif" font-size="10">-86</text>
<line x1="72.00" y1="276.50" x2="452.00" y2="276.50" stroke="#ececec"/>
<text x="65.00" y="280.50" text-anchor="end" font-family="Arial, sans-serif" font-size="10">-46</text>
<line x1="72.00" y1="205.00" x2="452.00" y2="205.00" stroke="#ececec"/>
<text x="65.00" y="209.00" text-anchor="end" font-family="Arial, sans-serif" font-size="10">-6.2</text>
<line x1="72.00" y1="133.50" x2="452.00" y2="133.50" stroke="#ececec"/>
<text x="65.00" y="137.50" text-anchor="end" font-family="Arial, sans-serif" font-size="10">34</text>
<line x1="72.00" y1="62.00" x2="452.00" y2="62.00" stroke="#ececec"/>
<text x="65.00" y="66.00" text-anchor="end" font-family="Arial, sans-serif" font-size="10">74</text>
<line x1="203.36" y1="62" x2="203.36" y2="348" stroke="#777" stroke-dasharray="4 4"/>
<line x1="72.0" y1="193.94" x2="452.0" y2="193.94" stroke="#777" stroke-dasharray="4 4"/>
<polyline fill="none" stroke="#1f77b4" stroke-width="1.8" points="86.07,286.33 91.94,286.33 96.83,286.33 102.69,286.33 108.55,286.33 113.44,286.33 118.33,286.33 119.30,286.33 120.28,286.33 121.26,286.33 122.24,286.33 123.21,286.20 124.19,285.96 125.17,285.64 126.15,285.26 127.12,284.84 128.10,284.37 129.08,283.87 130.06,283.34 131.03,282.79 132.01,282.21 132.99,281.61 135.92,279.66 140.81,275.93 142.76,274.25 143.74,273.37 144.72,272.46 145.69,271.52 146.67,270.56 147.65,269.57 148.63,268.55 149.60,267.51 150.58,266.44 151.56,265.34 152.53,264.21 153.51,263.06 154.49,261.89 155.47,260.69 157.42,258.22 163.29,250.35 169.15,241.99 174.04,234.84 179.90,226.22 185.77,217.70 190.65,210.75 196.52,202.72 201.40,196.38 203.36,193.94 207.27,189.28 213.13,182.86 218.02,178.08 223.88,173.11 226.81,170.95 227.79,170.27 229.75,169.00 230.72,168.40 231.70,167.82 234.63,166.23 239.52,164.06 240.50,163.69 246.36,161.92 251.25,160.92 257.11,160.12 260.05,159.82 262.98,159.56 267.86,159.19 273.73,158.80 278.62,158.52 284.48,158.21 290.34,157.92 295.23,157.70 301.09,157.44 306.96,157.20 308.91,157.12 311.85,157.01 317.71,156.79 320.64,156.68 323.57,156.57 328.46,156.40 332.37,156.26 334.33,156.20 339.21,156.03 345.08,155.84 350.94,155.64 355.83,155.48 361.69,155.23 367.56,154.87 372.44,154.41 378.31,153.56 384.17,152.31 389.06,150.92 394.92,148.79 400.79,146.16 405.67,143.59 411.54,140.09 416.42,136.85 422.29,132.61 428.15,127.99 433.04,123.89 437.93,119.57"/>
<polyline fill="none" stroke="#ff7f0e" stroke-width="1.8" stroke-dasharray="5 4" points="86.07,252.87 91.94,252.87 96.83,252.87 102.69,252.87 108.55,252.87 113.44,252.87 118.33,252.87 119.30,252.87 120.28,252.87 121.26,252.87 122.24,252.87 123.21,252.87 124.19,252.87 125.17,252.87 126.15,252.87 127.12,252.87 128.10,252.84 129.08,252.71 130.06,252.50 131.03,252.21 132.01,251.87 132.99,251.48 135.92,250.11 140.81,247.34 142.76,246.10 143.74,245.46 144.72,244.79 145.69,244.12 146.67,243.42 147.65,242.71 148.63,241.98 149.60,241.24 150.58,240.48 151.56,239.71 152.53,238.92 153.51,238.12 154.49,237.31 155.47,236.48 157.42,234.79 163.29,229.45 169.15,223.86 174.04,219.13 179.90,213.52 185.77,208.12 190.65,203.84 196.52,199.03 201.40,195.33 203.36,193.94 207.27,191.31 213.13,187.76 218.02,185.18 223.88,182.55 226.81,181.43 227.79,181.09 229.75,180.44 230.72,180.14 231.70,179.85 234.63,179.07 239.52,178.04 240.50,177.87 246.36,177.09 251.25,176.68 257.11,176.35 260.05,176.22 262.98,176.10 267.86,175.93 273.73,175.74 278.62,175.60 284.48,175.44 290.34,175.29 295.23,175.17 301.09,175.04 306.96,174.91 308.91,174.88 311.85,174.82 317.71,174.70 320.64,174.64 323.57,174.58 328.46,174.49 332.37,174.41 334.33,174.37 339.21,174.27 345.08,174.10 350.94,173.85 355.83,173.54 361.69,172.99 367.56,172.21 372.44,171.35 378.31,170.04 384.17,168.42 389.06,166.83 394.92,164.64 400.79,162.14 405.67,159.83 411.54,156.79 416.42,154.06 422.29,150.75 428.15,147.45 433.04,144.69 437.93,141.94"/>
<polyline fill="none" stroke="#2ca02c" stroke-width="1.8" stroke-dasharray="2 4" points="86.07,320.32 91.94,320.32 96.83,320.32 102.69,320.32 108.55,320.32 113.44,320.32 118.33,320.32 119.30,320.16 120.28,319.91 121.26,319.59 122.24,319.22 123.21,318.82 124.19,318.39 125.17,317.93 126.15,317.45 127.12,316.95 128.10,316.43 129.08,315.88 130.06,315.32 131.03,314.73 132.01,314.11 132.99,313.47 135.92,311.39 140.81,307.31 142.76,305.43 143.74,304.43 144.72,303.39 145.69,302.31 146.67,301.19 147.65,300.03 148.63,298.82 149.60,297.57 150.58,296.28 151.56,294.94 152.53,293.56 153.51,292.14 154.49,290.68 155.47,289.18 157.42,286.05 163.29,275.85 169.15,264.70 174.04,254.95 179.90,242.90 185.77,230.58 190.65,220.24 196.52,207.90 201.40,197.86 203.36,193.94 207.27,186.35 213.13,175.68 218.02,167.61 223.88,159.06 226.81,155.29 227.79,154.10 229.75,151.85 230.72,150.78 231.70,149.75 234.63,146.87 239.52,142.82 240.50,142.11 246.36,138.58 251.25,136.44 257.11,134.64 260.05,133.97 262.98,133.41 267.86,132.64 273.73,131.90 278.62,131.38 284.48,130.83 290.34,130.34 295.23,129.96 301.09,129.53 306.96,129.13 308.91,129.00 311.85,128.81 317.71,128.45 320.64,128.27 323.57,128.09 328.46,127.81 332.37,127.59 334.33,127.48 339.21,127.21 345.08,126.89 350.94,126.58 355.83,126.33 361.69,126.03 367.56,125.73 372.44,125.46 378.31,125.02 384.17,124.33 389.06,123.42 394.92,121.79 400.79,119.44 405.67,116.91 411.54,113.19 416.42,109.60 422.29,104.76 428.15,99.43 433.04,94.68 437.93,89.68"/>
<polyline fill="none" stroke="#1f77b4" stroke-width="1.1" stroke-dasharray="6 4" points="72.00,103.22 76.81,104.97 81.62,106.73 86.43,108.48 91.24,110.24 96.05,111.99 100.86,113.75 105.67,115.50 110.48,117.26 115.29,119.01 120.10,120.77 124.91,122.52 129.72,124.28 134.53,126.03 139.34,127.79 144.15,129.54 148.96,131.30 153.77,133.06 158.58,134.81 163.39,136.57 168.20,138.32 173.01,140.08 177.82,141.83 182.63,143.59 187.44,145.34 192.25,147.10 197.06,148.85 201.87,150.61 206.68,152.36 211.49,154.12 216.30,155.87 221.11,157.63 225.92,159.38 230.73,161.14 235.54,162.89 240.35,164.65 245.16,166.40 249.97,168.16 254.78,169.91 259.59,171.67 264.41,173.42 269.22,175.18 274.03,176.93 278.84,178.69 283.65,180.44 288.46,182.20 293.27,183.95 298.08,185.71 302.89,187.46 307.70,189.22 312.51,190.97 317.32,192.73 322.13,194.48 326.94,196.24 331.75,197.99 336.56,199.75 341.37,201.50 346.18,203.26 350.99,205.01 355.80,206.77 360.61,208.52 365.42,210.28 370.23,212.03 375.04,213.79 379.85,215.55 384.66,217.30 389.47,219.06 394.28,220.81 399.09,222.57 403.90,224.32 408.71,226.08 413.52,227.83 418.33,229.59 423.14,231.34 427.95,233.10 432.76,234.85 437.57,236.61 442.38,238.36 447.19,240.12 452.00,241.87"/>
<circle cx="239.17" cy="164.21" r="4.6" fill="#ffffff" stroke="#1f77b4" stroke-width="2"/>
<text x="245.17" y="158.21" font-family="Arial, sans-serif" font-size="10" fill="#1f77b4">typ 22 ohm</text>
<polyline fill="none" stroke="#ff7f0e" stroke-width="1.1" stroke-dasharray="6 4" points="72.00,107.50 76.81,109.25 81.62,111.01 86.43,112.76 91.24,114.52 96.05,116.27 100.86,118.03 105.67,119.78 110.48,121.54 115.29,123.29 120.10,125.05 124.91,126.80 129.72,128.56 134.53,130.31 139.34,132.07 144.15,133.82 148.96,135.58 153.77,137.33 158.58,139.09 163.39,140.84 168.20,142.60 173.01,144.35 177.82,146.11 182.63,147.87 187.44,149.62 192.25,151.38 197.06,153.13 201.87,154.89 206.68,156.64 211.49,158.40 216.30,160.15 221.11,161.91 225.92,163.66 230.73,165.42 235.54,167.17 240.35,168.93 245.16,170.68 249.97,172.44 254.78,174.19 259.59,175.95 264.41,177.70 269.22,179.46 274.03,181.21 278.84,182.97 283.65,184.72 288.46,186.48 293.27,188.23 298.08,189.99 302.89,191.74 307.70,193.50 312.51,195.25 317.32,197.01 322.13,198.76 326.94,200.52 331.75,202.27 336.56,204.03 341.37,205.78 346.18,207.54 350.99,209.29 355.80,211.05 360.61,212.80 365.42,214.56 370.23,216.31 375.04,218.07 379.85,219.82 384.66,221.58 389.47,223.33 394.28,225.09 399.09,226.84 403.90,228.60 408.71,230.36 413.52,232.11 418.33,233.87 423.14,235.62 427.95,237.38 432.76,239.13 437.57,240.89 442.38,242.64 447.19,244.40 452.00,246.15"/>
<circle cx="260.31" cy="176.21" r="4.6" fill="#ffffff" stroke="#ff7f0e" stroke-width="2"/>
<text x="266.31" y="170.21" font-family="Arial, sans-serif" font-size="10" fill="#ff7f0e">min 58.6 ohm</text>
<polyline fill="none" stroke="#2ca02c" stroke-width="1.1" stroke-dasharray="6 4" points="72.00,98.94 76.81,100.69 81.62,102.45 86.43,104.20 91.24,105.96 96.05,107.71 100.86,109.47 105.67,111.22 110.48,112.98 115.29,114.73 120.10,116.49 124.91,118.24 129.72,120.00 134.53,121.76 139.34,123.51 144.15,125.27 148.96,127.02 153.77,128.78 158.58,130.53 163.39,132.29 168.20,134.04 173.01,135.80 177.82,137.55 182.63,139.31 187.44,141.06 192.25,142.82 197.06,144.57 201.87,146.33 206.68,148.08 211.49,149.84 216.30,151.59 221.11,153.35 225.92,155.10 230.73,156.86 235.54,158.61 240.35,160.37 245.16,162.12 249.97,163.88 254.78,165.63 259.59,167.39 264.41,169.14 269.22,170.90 274.03,172.65 278.84,174.41 283.65,176.16 288.46,177.92 293.27,179.67 298.08,181.43 302.89,183.18 307.70,184.94 312.51,186.69 317.32,188.45 322.13,190.20 326.94,191.96 331.75,193.71 336.56,195.47 341.37,197.22 346.18,198.98 350.99,200.74 355.80,202.49 360.61,204.25 365.42,206.00 370.23,207.76 375.04,209.51 379.85,211.27 384.66,213.02 389.47,214.78 394.28,216.53 399.09,218.29 403.90,220.04 408.71,221.80 413.52,223.55 418.33,225.31 423.14,227.06 427.95,228.82 432.76,230.57 437.57,232.33 442.38,234.08 447.19,235.84 452.00,237.59"/>
<circle cx="226.73" cy="155.40" r="4.6" fill="#ffffff" stroke="#2ca02c" stroke-width="2"/>
<text x="232.73" y="149.40" font-family="Arial, sans-serif" font-size="10" fill="#2ca02c">max 11.1 ohm</text>
<line x1="82.00" y1="80.00" x2="104.00" y2="80.00" stroke="#1f77b4" stroke-width="2"/>
<text x="110.00" y="84.00" font-family="Arial, sans-serif" font-size="11">typ</text>
<line x1="82.00" y1="97.00" x2="104.00" y2="97.00" stroke="#ff7f0e" stroke-width="2" stroke-dasharray="5 4"/>
<text x="110.00" y="101.00" font-family="Arial, sans-serif" font-size="11">min</text>
<line x1="82.00" y1="114.00" x2="104.00" y2="114.00" stroke="#2ca02c" stroke-width="2" stroke-dasharray="2 4"/>
<text x="110.00" y="118.00" font-family="Arial, sans-serif" font-size="11">max</text>
<text x="262.00" y="386.00" text-anchor="middle" font-family="Arial, sans-serif" font-size="11">Output voltage (V)</text>
<text transform="translate(22.00 205.00) rotate(-90)" text-anchor="middle" font-family="Arial, sans-serif" font-size="11">Current (mA)</text>
<rect x="492.00" y="62.00" width="380.00" height="286.00" fill="#fbfbfb" stroke="#c8c8c8"/>
<text x="500.00" y="50.00" font-family="Arial, sans-serif" font-size="13" font-weight="700">[Pullup] Rload to GND</text>
<line x1="492.00" y1="62.00" x2="492.00" y2="348.00" stroke="#ececec"/>
<text x="492.00" y="366.00" text-anchor="middle" font-family="Arial, sans-serif" font-size="10">-1.3</text>
<line x1="587.00" y1="62.00" x2="587.00" y2="348.00" stroke="#ececec"/>
<text x="587.00" y="366.00" text-anchor="middle" font-family="Arial, sans-serif" font-size="10">-0.372</text>
<line x1="682.00" y1="62.00" x2="682.00" y2="348.00" stroke="#ececec"/>
<text x="682.00" y="366.00" text-anchor="middle" font-family="Arial, sans-serif" font-size="10">0.6</text>
<line x1="777.00" y1="62.00" x2="777.00" y2="348.00" stroke="#ececec"/>
<text x="777.00" y="366.00" text-anchor="middle" font-family="Arial, sans-serif" font-size="10">1.6</text>
<line x1="872.00" y1="62.00" x2="872.00" y2="348.00" stroke="#ececec"/>
<text x="872.00" y="366.00" text-anchor="middle" font-family="Arial, sans-serif" font-size="10">2.5</text>
<line x1="492.00" y1="348.00" x2="872.00" y2="348.00" stroke="#ececec"/>
<text x="485.00" y="352.00" text-anchor="end" font-family="Arial, sans-serif" font-size="10">-91</text>
<line x1="492.00" y1="276.50" x2="872.00" y2="276.50" stroke="#ececec"/>
<text x="485.00" y="280.50" text-anchor="end" font-family="Arial, sans-serif" font-size="10">-40</text>
<line x1="492.00" y1="205.00" x2="872.00" y2="205.00" stroke="#ececec"/>
<text x="485.00" y="209.00" text-anchor="end" font-family="Arial, sans-serif" font-size="10">11</text>
<line x1="492.00" y1="133.50" x2="872.00" y2="133.50" stroke="#ececec"/>
<text x="485.00" y="137.50" text-anchor="end" font-family="Arial, sans-serif" font-size="10">62</text>
<line x1="492.00" y1="62.00" x2="872.00" y2="62.00" stroke="#ececec"/>
<text x="485.00" y="66.00" text-anchor="end" font-family="Arial, sans-serif" font-size="10">1.1e+02</text>
<line x1="623.36" y1="62" x2="623.36" y2="348" stroke="#777" stroke-dasharray="4 4"/>
<line x1="492.0" y1="221.01" x2="872.0" y2="221.01" stroke="#777" stroke-dasharray="4 4"/>
<polyline fill="none" stroke="#1f77b4" stroke-width="1.8" points="506.07,118.70 511.94,124.79 516.83,129.80 522.69,135.74 528.55,141.59 533.44,146.41 539.30,152.10 544.19,156.76 550.06,162.27 555.92,167.66 560.81,172.07 566.67,177.26 572.53,182.33 577.42,186.47 583.29,191.33 589.15,196.07 594.04,199.92 599.90,204.43 605.77,208.81 610.65,212.34 615.54,215.76 616.52,216.43 621.40,219.72 623.36,221.01 627.27,223.47 632.15,226.29 633.13,226.82 638.02,229.33 643.88,232.00 649.75,234.30 654.63,235.90 658.54,236.99 660.50,237.47 666.36,238.66 671.25,239.41 675.16,239.87 677.11,240.07 682.98,240.56 687.86,240.90 691.77,241.13 693.73,241.24 698.62,241.24 702.52,241.24 704.48,241.24 710.34,241.24 715.23,241.24 721.09,241.24 726.96,241.24 728.91,241.24 731.85,241.24 737.71,241.24 740.64,241.24 743.57,241.24 748.46,241.24 752.37,241.24 754.33,241.24 759.21,241.24 760.19,241.89 765.08,247.50 770.94,254.27 773.87,257.65 774.85,258.77 781.69,266.40 787.56,272.50 792.44,277.11 798.31,281.97 799.28,282.71 800.26,283.42 801.24,284.11 802.22,284.78 803.19,285.43 804.17,286.06 805.15,286.67 806.13,287.26 807.10,287.82 808.08,288.37 809.06,288.90 810.03,289.41 811.01,289.90 811.99,290.38 812.97,290.83 813.94,291.26 814.92,291.68 816.88,292.44 817.85,292.77 818.83,293.07 819.81,293.32 820.79,293.51 821.76,293.61 825.67,293.61 831.54,293.61 833.49,293.61 834.47,293.61 835.45,293.61 836.42,293.61 837.40,293.61 842.29,293.61 848.15,293.61 853.04,293.61 857.93,293.61"/>
<polyline fill="none" stroke="#ff7f0e" stroke-width="1.8" stroke-dasharray="5 4" points="506.07,148.36 511.94,153.02 516.83,156.90 522.69,161.53 528.55,166.04 533.44,169.71 539.30,174.00 544.19,177.48 550.06,181.55 555.92,185.48 560.81,188.65 566.67,192.34 572.53,195.89 577.42,198.74 583.29,202.04 589.15,205.20 594.04,207.73 599.90,210.65 605.77,213.43 610.65,215.64 615.54,217.76 616.52,218.18 621.40,220.22 623.36,221.01 627.27,222.50 632.15,224.18 633.13,224.49 638.02,225.94 643.88,227.43 649.75,228.65 654.63,229.48 658.54,230.00 660.50,230.23 666.36,230.75 671.25,231.05 675.16,231.23 677.11,231.30 682.98,231.50 687.86,231.64 691.77,231.74 693.73,231.79 698.62,231.90 702.52,231.98 704.48,232.02 710.34,232.13 715.23,232.22 721.09,232.31 726.96,232.40 728.91,232.43 731.85,232.48 737.71,232.56 740.64,232.60 743.57,232.64 748.46,232.70 752.37,232.75 754.33,232.77 759.21,232.83 760.19,232.84 765.08,232.90 770.94,232.96 773.87,233.00 774.85,233.01 781.69,233.08 787.56,233.14 792.44,233.19 798.31,233.25 799.28,233.26 800.26,233.27 801.24,233.28 802.22,233.29 803.19,233.30 804.17,233.30 805.15,233.31 806.13,233.32 807.10,233.32 808.08,233.34 809.06,233.34 810.03,233.34 811.01,233.34 811.99,233.34 812.97,233.34 813.94,233.34 814.92,233.34 816.88,233.34 817.85,233.34 818.83,233.34 819.81,233.34 820.79,233.34 821.76,233.34 825.67,233.34 831.54,233.34 833.49,233.34 834.47,233.34 835.45,233.34 836.42,233.34 837.40,233.34 842.29,233.34 848.15,233.34 853.04,233.34 857.93,233.34"/>
<polyline fill="none" stroke="#2ca02c" stroke-width="1.8" stroke-dasharray="2 4" points="506.07,89.68 511.94,96.56 516.83,102.27 522.69,109.10 528.55,115.91 533.44,121.55 539.30,128.29 544.19,133.88 550.06,140.54 555.92,147.15 560.81,152.62 566.67,159.16 572.53,165.66 577.42,171.07 583.29,177.56 589.15,184.03 594.04,189.41 599.90,195.87 605.77,202.29 610.65,207.56 615.54,212.62 616.52,213.67 621.40,218.95 623.36,221.01 627.27,224.98 632.15,229.59 633.13,230.44 638.02,234.45 643.88,238.88 649.75,242.78 654.63,245.59 658.54,247.57 660.50,248.46 666.36,250.79 671.25,252.36 675.16,253.40 677.11,253.86 682.98,255.02 687.86,255.79 691.77,256.31 693.73,256.55 698.62,257.08 702.52,257.46 704.48,257.46 710.34,257.46 715.23,257.46 721.09,257.46 726.96,257.46 728.91,257.46 731.85,257.46 737.71,257.46 740.64,257.46 743.57,257.46 748.46,257.46 752.37,257.46 754.33,257.46 759.21,257.46 760.19,257.46 765.08,257.46 770.94,257.46 773.87,257.46 774.85,257.88 781.69,268.95 787.56,278.11 792.44,285.37 798.31,293.39 799.28,294.63 800.26,295.85 801.24,297.03 802.22,298.18 803.19,299.29 804.17,300.38 805.15,301.43 806.13,302.44 807.10,303.43 808.08,304.37 809.06,305.29 810.03,306.17 811.01,307.02 811.99,307.83 812.97,308.62 813.94,309.37 814.92,310.10 816.88,311.46 817.85,312.10 818.83,312.71 819.81,313.31 820.79,313.87 821.76,314.42 825.67,316.39 831.54,318.80 833.49,319.46 834.47,319.75 835.45,320.00 836.42,320.20 837.40,320.32 842.29,320.32 848.15,320.32 853.04,320.32 857.93,320.32"/>
<polyline fill="none" stroke="#1f77b4" stroke-width="1.1" stroke-dasharray="6 4" points="492.00,292.30 496.81,290.92 501.62,289.54 506.43,288.16 511.24,286.79 516.05,285.41 520.86,284.03 525.67,282.65 530.48,281.27 535.29,279.89 540.10,278.51 544.91,277.13 549.72,275.75 554.53,274.37 559.34,272.99 564.15,271.61 568.96,270.23 573.77,268.86 578.58,267.48 583.39,266.10 588.20,264.72 593.01,263.34 597.82,261.96 602.63,260.58 607.44,259.20 612.25,257.82 617.06,256.44 621.87,255.06 626.68,253.68 631.49,252.30 636.30,250.93 641.11,249.55 645.92,248.17 650.73,246.79 655.54,245.41 660.35,244.03 665.16,242.65 669.97,241.27 674.78,239.89 679.59,238.51 684.41,237.13 689.22,235.75 694.03,234.37 698.84,233.00 703.65,231.62 708.46,230.24 713.27,228.86 718.08,227.48 722.89,226.10 727.70,224.72 732.51,223.34 737.32,221.96 742.13,220.58 746.94,219.20 751.75,217.82 756.56,216.44 761.37,215.07 766.18,213.69 770.99,212.31 775.80,210.93 780.61,209.55 785.42,208.17 790.23,206.79 795.04,205.41 799.85,204.03 804.66,202.65 809.47,201.27 814.28,199.89 819.09,198.51 823.90,197.13 828.71,195.76 833.52,194.38 838.33,193.00 843.14,191.62 847.95,190.24 852.76,188.86 857.57,187.48 862.38,186.10 867.19,184.72 872.00,183.34"/>
<circle cx="674.95" cy="239.84" r="4.6" fill="#ffffff" stroke="#1f77b4" stroke-width="2"/>
<text x="680.95" y="233.84" font-family="Arial, sans-serif" font-size="10" fill="#1f77b4">typ 39.3 ohm</text>
<polyline fill="none" stroke="#ff7f0e" stroke-width="1.1" stroke-dasharray="6 4" points="492.00,288.94 496.81,287.56 501.62,286.18 506.43,284.80 511.24,283.42 516.05,282.04 520.86,280.66 525.67,279.28 530.48,277.91 535.29,276.53 540.10,275.15 544.91,273.77 549.72,272.39 554.53,271.01 559.34,269.63 564.15,268.25 568.96,266.87 573.77,265.49 578.58,264.11 583.39,262.73 588.20,261.35 593.01,259.98 597.82,258.60 602.63,257.22 607.44,255.84 612.25,254.46 617.06,253.08 621.87,251.70 626.68,250.32 631.49,248.94 636.30,247.56 641.11,246.18 645.92,244.80 650.73,243.42 655.54,242.05 660.35,240.67 665.16,239.29 669.97,237.91 674.78,236.53 679.59,235.15 684.41,233.77 689.22,232.39 694.03,231.01 698.84,229.63 703.65,228.25 708.46,226.87 713.27,225.49 718.08,224.12 722.89,222.74 727.70,221.36 732.51,219.98 737.32,218.60 742.13,217.22 746.94,215.84 751.75,214.46 756.56,213.08 761.37,211.70 766.18,210.32 770.99,208.94 775.80,207.56 780.61,206.19 785.42,204.81 790.23,203.43 795.04,202.05 799.85,200.67 804.66,199.29 809.47,197.91 814.28,196.53 819.09,195.15 823.90,193.77 828.71,192.39 833.52,191.01 838.33,189.63 843.14,188.26 847.95,186.88 852.76,185.50 857.57,184.12 862.38,182.74 867.19,181.36 872.00,179.98"/>
<circle cx="691.49" cy="231.74" r="4.6" fill="#ffffff" stroke="#ff7f0e" stroke-width="2"/>
<text x="697.49" y="225.74" font-family="Arial, sans-serif" font-size="10" fill="#ff7f0e">min 91 ohm</text>
<polyline fill="none" stroke="#2ca02c" stroke-width="1.1" stroke-dasharray="6 4" points="492.00,295.67 496.81,294.29 501.62,292.91 506.43,291.53 511.24,290.15 516.05,288.77 520.86,287.39 525.67,286.01 530.48,284.63 535.29,283.25 540.10,281.87 544.91,280.49 549.72,279.11 554.53,277.74 559.34,276.36 564.15,274.98 568.96,273.60 573.77,272.22 578.58,270.84 583.39,269.46 588.20,268.08 593.01,266.70 597.82,265.32 602.63,263.94 607.44,262.56 612.25,261.18 617.06,259.81 621.87,258.43 626.68,257.05 631.49,255.67 636.30,254.29 641.11,252.91 645.92,251.53 650.73,250.15 655.54,248.77 660.35,247.39 665.16,246.01 669.97,244.63 674.78,243.25 679.59,241.87 684.41,240.50 689.22,239.12 694.03,237.74 698.84,236.36 703.65,234.98 708.46,233.60 713.27,232.22 718.08,230.84 722.89,229.46 727.70,228.08 732.51,226.70 737.32,225.32 742.13,223.94 746.94,222.57 751.75,221.19 756.56,219.81 761.37,218.43 766.18,217.05 770.99,215.67 775.80,214.29 780.61,212.91 785.42,211.53 790.23,210.15 795.04,208.77 799.85,207.39 804.66,206.01 809.47,204.64 814.28,203.26 819.09,201.88 823.90,200.50 828.71,199.12 833.52,197.74 838.33,196.36 843.14,194.98 847.95,193.60 852.76,192.22 857.57,190.84 862.38,189.46 867.19,188.08 872.00,186.71"/>
<circle cx="659.01" cy="247.78" r="4.6" fill="#ffffff" stroke="#2ca02c" stroke-width="2"/>
<text x="665.01" y="241.78" font-family="Arial, sans-serif" font-size="10" fill="#2ca02c">max 19.1 ohm</text>
<line x1="502.00" y1="80.00" x2="524.00" y2="80.00" stroke="#1f77b4" stroke-width="2"/>
<text x="530.00" y="84.00" font-family="Arial, sans-serif" font-size="11">typ</text>
<line x1="502.00" y1="97.00" x2="524.00" y2="97.00" stroke="#ff7f0e" stroke-width="2" stroke-dasharray="5 4"/>
<text x="530.00" y="101.00" font-family="Arial, sans-serif" font-size="11">min</text>
<line x1="502.00" y1="114.00" x2="524.00" y2="114.00" stroke="#2ca02c" stroke-width="2" stroke-dasharray="2 4"/>
<text x="530.00" y="118.00" font-family="Arial, sans-serif" font-size="11">max</text>
<text x="682.00" y="386.00" text-anchor="middle" font-family="Arial, sans-serif" font-size="11">Vcc-relative table voltage (V)</text>
<text transform="translate(442.00 205.00) rotate(-90)" text-anchor="middle" font-family="Arial, sans-serif" font-size="11">Current (mA)</text>
<rect x="72.00" y="418.00" width="800.00" height="144.00" fill="#ffffff" stroke="#c8c8c8"/>
<text x="82.00" y="436.00" font-family="Arial, sans-serif" font-size="12" font-weight="700">Operating-point summary</text>
<text x="82.00" y="454.00" font-family="Arial, sans-serif" font-size="10" font-weight="700" fill="#333">Table</text>
<text x="174.00" y="454.00" font-family="Arial, sans-serif" font-size="10" font-weight="700" fill="#333">Corner</text>
<text x="242.00" y="454.00" font-family="Arial, sans-serif" font-size="10" font-weight="700" fill="#333">Vout</text>
<text x="332.00" y="454.00" font-family="Arial, sans-serif" font-size="10" font-weight="700" fill="#333">Iop</text>
<text x="422.00" y="454.00" font-family="Arial, sans-serif" font-size="10" font-weight="700" fill="#333">Zout</text>
<text x="512.00" y="454.00" font-family="Arial, sans-serif" font-size="10" font-weight="700" fill="#333">Rseries</text>
<text x="82.00" y="473.00" font-family="Arial, sans-serif" font-size="10" fill="#1f77b4">pulldown</text>
<text x="174.00" y="473.00" font-family="Arial, sans-serif" font-size="10" fill="#1f77b4">typ</text>
<text x="242.00" y="473.00" font-family="Arial, sans-serif" font-size="10" fill="#1f77b4">0.3664 V</text>
<text x="332.00" y="473.00" font-family="Arial, sans-serif" font-size="10" fill="#1f77b4">17 mA</text>
<text x="422.00" y="473.00" font-family="Arial, sans-serif" font-size="10" fill="#1f77b4">22 ohm</text>
<text x="512.00" y="473.00" font-family="Arial, sans-serif" font-size="10" fill="#1f77b4">28 ohm</text>
<text x="82.00" y="492.00" font-family="Arial, sans-serif" font-size="10" fill="#ff7f0e">pulldown</text>
<text x="174.00" y="492.00" font-family="Arial, sans-serif" font-size="10" fill="#ff7f0e">min</text>
<text x="242.00" y="492.00" font-family="Arial, sans-serif" font-size="10" fill="#ff7f0e">0.5827 V</text>
<text x="332.00" y="492.00" font-family="Arial, sans-serif" font-size="10" fill="#ff7f0e">9.9 mA</text>
<text x="422.00" y="492.00" font-family="Arial, sans-serif" font-size="10" fill="#ff7f0e">58.6 ohm</text>
<text x="512.00" y="492.00" font-family="Arial, sans-serif" font-size="10" fill="#ff7f0e">-8.588 ohm</text>
<text x="82.00" y="511.00" font-family="Arial, sans-serif" font-size="10" fill="#2ca02c">pulldown</text>
<text x="174.00" y="511.00" font-family="Arial, sans-serif" font-size="10" fill="#2ca02c">max</text>
<text x="242.00" y="511.00" font-family="Arial, sans-serif" font-size="10" fill="#2ca02c">0.2391 V</text>
<text x="332.00" y="511.00" font-family="Arial, sans-serif" font-size="10" fill="#2ca02c">22 mA</text>
<text x="422.00" y="511.00" font-family="Arial, sans-serif" font-size="10" fill="#2ca02c">11.1 ohm</text>
<text x="512.00" y="511.00" font-family="Arial, sans-serif" font-size="10" fill="#2ca02c">38.9 ohm</text>
<text x="82.00" y="530.00" font-family="Arial, sans-serif" font-size="10" fill="#1f77b4">pullup</text>
<text x="174.00" y="530.00" font-family="Arial, sans-serif" font-size="10" fill="#1f77b4">typ</text>
<text x="242.00" y="530.00" font-family="Arial, sans-serif" font-size="10" fill="#1f77b4">0.6722 V</text>
<text x="332.00" y="530.00" font-family="Arial, sans-serif" font-size="10" fill="#1f77b4">-13 mA</text>
<text x="422.00" y="530.00" font-family="Arial, sans-serif" font-size="10" fill="#1f77b4">39.3 ohm</text>
<text x="512.00" y="530.00" font-family="Arial, sans-serif" font-size="10" fill="#1f77b4">10.7 ohm</text>
<text x="82.00" y="549.00" font-family="Arial, sans-serif" font-size="10" fill="#ff7f0e">pullup</text>
<text x="174.00" y="549.00" font-family="Arial, sans-serif" font-size="10" fill="#ff7f0e">min</text>
<text x="242.00" y="549.00" font-family="Arial, sans-serif" font-size="10" fill="#ff7f0e">0.3829 V</text>
<text x="332.00" y="549.00" font-family="Arial, sans-serif" font-size="10" fill="#ff7f0e">-7.7 mA</text>
<text x="422.00" y="549.00" font-family="Arial, sans-serif" font-size="10" fill="#ff7f0e">91 ohm</text>
<text x="512.00" y="549.00" font-family="Arial, sans-serif" font-size="10" fill="#ff7f0e">-41 ohm</text>
<text x="82.00" y="568.00" font-family="Arial, sans-serif" font-size="10" fill="#2ca02c">pullup</text>
<text x="174.00" y="568.00" font-family="Arial, sans-serif" font-size="10" fill="#2ca02c">max</text>
<text x="242.00" y="568.00" font-family="Arial, sans-serif" font-size="10" fill="#2ca02c">0.9553 V</text>
<text x="332.00" y="568.00" font-family="Arial, sans-serif" font-size="10" fill="#2ca02c">-19 mA</text>
<text x="422.00" y="568.00" font-family="Arial, sans-serif" font-size="10" fill="#2ca02c">19.1 ohm</text>
<text x="512.00" y="568.00" font-family="Arial, sans-serif" font-size="10" fill="#2ca02c">30.9 ohm</text>
</svg>