<svg xmlns="http://www.w3.org/2000/svg" width="900" height="620" viewBox="0 0 900 620">
<rect width="100%" height="100%" fill="#ffffff"/>
<text x="72" y="26" font-family="Arial, sans-serif" font-size="16" font-weight="700">E34_GPIO_I2CSCLIN_3V3_00_ISOSW Zout Load-Line Curves</text>
<text x="72" y="45" font-family="Arial, sans-serif" font-size="11" fill="#555">Rload=50 ohm; solid=device I-V, dashed=load line, circles=operating points</text>
<rect x="72.00" y="62.00" width="380.00" height="286.00" fill="#fbfbfb" stroke="#c8c8c8"/>
<text x="80.00" y="50.00" font-family="Arial, sans-serif" font-size="13" font-weight="700">[Pulldown] Rload to Vdd</text>
<line x1="72.00" y1="62.00" x2="72.00" y2="348.00" stroke="#ececec"/>
<text x="72.00" y="366.00" text-anchor="middle" font-family="Arial, sans-serif" font-size="10">-3.7</text>
<line x1="167.00" y1="62.00" x2="167.00" y2="348.00" stroke="#ececec"/>
<text x="167.00" y="366.00" text-anchor="middle" font-family="Arial, sans-serif" font-size="10">-1</text>
<line x1="262.00" y1="62.00" x2="262.00" y2="348.00" stroke="#ececec"/>
<text x="262.00" y="366.00" text-anchor="middle" font-family="Arial, sans-serif" font-size="10">1.7</text>
<line x1="357.00" y1="62.00" x2="357.00" y2="348.00" stroke="#ececec"/>
<text x="357.00" y="366.00" text-anchor="middle" font-family="Arial, sans-serif" font-size="10">4.3</text>
<line x1="452.00" y1="62.00" x2="452.00" y2="348.00" stroke="#ececec"/>
<text x="452.00" y="366.00" text-anchor="middle" font-family="Arial, sans-serif" font-size="10">7</text>
<line x1="72.00" y1="348.00" x2="452.00" y2="348.00" stroke="#ececec"/>
<text x="65.00" y="352.00" text-anchor="end" font-family="Arial, sans-serif" font-size="10">-97</text>
<line x1="72.00" y1="276.50" x2="452.00" y2="276.50" stroke="#ececec"/>
<text x="65.00" y="280.50" text-anchor="end" font-family="Arial, sans-serif" font-size="10">-32</text>
<line x1="72.00" y1="205.00" x2="452.00" y2="205.00" stroke="#ececec"/>
<text x="65.00" y="209.00" text-anchor="end" font-family="Arial, sans-serif" font-size="10">33</text>
<line x1="72.00" y1="133.50" x2="452.00" y2="133.50" stroke="#ececec"/>
<text x="65.00" y="137.50" text-anchor="end" font-family="Arial, sans-serif" font-size="10">98</text>
<line x1="72.00" y1="62.00" x2="452.00" y2="62.00" stroke="#ececec"/>
<text x="65.00" y="66.00" text-anchor="end" font-family="Arial, sans-serif" font-size="10">1.6e+02</text>
<line x1="203.36" y1="62" x2="203.36" y2="348" stroke="#777" stroke-dasharray="4 4"/>
<line x1="72.0" y1="241.24" x2="452.0" y2="241.24" stroke="#777" stroke-dasharray="4 4"/>
<polyline fill="none" stroke="#1f77b4" stroke-width="1.8" points="86.07,248.30 91.41,248.30 97.09,248.30 102.42,248.30 108.11,248.30 113.44,248.30 119.13,248.30 124.46,248.30 130.14,248.30 135.48,248.30 141.16,248.30 146.49,248.30 152.18,248.30 157.51,248.30 163.20,248.30 168.53,248.30 174.21,248.30 178.12,248.24 179.55,248.17 180.61,248.10 180.97,248.07 181.32,248.03 181.68,248.00 182.03,247.96 182.39,247.92 182.74,247.87 183.10,247.82 183.46,247.77 183.81,247.71 184.17,247.65 184.52,247.59 184.88,247.52 185.23,247.44 185.59,247.37 185.94,247.29 186.30,247.20 186.65,247.11 187.01,247.02 187.36,246.92 187.72,246.82 188.08,246.72 190.56,245.91 196.25,243.84 201.58,241.89 203.36,241.24 207.27,239.83 212.60,237.92 218.29,235.92 223.62,234.10 229.30,232.22 234.63,230.53 240.32,228.82 245.65,227.33 251.34,225.86 256.67,224.61 262.36,223.44 267.69,222.50 273.02,221.73 278.70,221.09 284.04,220.65 286.88,220.47 287.23,220.45 289.72,220.32 295.05,220.10 300.74,219.94 306.07,219.82 309.98,219.76 311.76,219.73 317.09,219.66 320.64,219.62 322.77,219.60 328.11,219.55 331.30,219.53 333.79,219.51 339.12,219.47 344.81,219.40 350.14,219.29 355.83,219.13 361.16,218.94 366.84,218.64 372.18,218.05 377.15,217.07 377.51,216.99 377.86,216.90 378.22,216.81 383.19,215.40 387.10,214.11 387.81,213.86 388.88,213.86 393.86,213.86 394.57,213.86 397.77,213.86 399.90,213.86 405.23,213.86 410.92,213.86 416.25,213.86 421.93,213.86 427.26,213.86 432.95,213.86 437.93,213.86"/>
<polyline fill="none" stroke="#ff7f0e" stroke-width="1.8" stroke-dasharray="5 4" points="86.07,246.30 91.41,246.30 97.09,246.30 102.42,246.30 108.11,246.30 113.44,246.30 119.13,246.30 124.46,246.30 130.14,246.30 135.48,246.30 141.16,246.30 146.49,246.30 152.18,246.30 157.51,246.30 163.20,246.30 168.53,246.30 174.21,246.30 178.12,246.27 179.55,246.22 180.61,246.16 180.97,246.14 181.32,246.11 181.68,246.09 182.03,246.06 182.39,246.03 182.74,246.00 183.10,245.97 183.46,245.93 183.81,245.90 184.17,245.86 184.52,245.82 184.88,245.77 185.23,245.73 185.59,245.68 185.94,245.63 186.30,245.57 186.65,245.52 187.01,245.46 187.36,245.40 187.72,245.33 188.08,245.26 190.56,244.73 196.25,243.21 201.58,241.73 203.36,241.24 207.27,240.18 212.60,238.76 218.29,237.30 223.62,235.97 229.30,234.63 234.63,233.43 240.32,232.25 245.65,231.23 251.34,230.26 256.67,229.47 262.36,228.76 267.69,228.23 273.02,227.83 278.70,227.53 284.04,227.33 286.88,227.25 287.23,227.24 289.72,227.18 295.05,227.08 300.74,227.00 306.07,226.95 309.98,226.91 311.76,226.90 317.09,226.86 320.64,226.83 322.77,226.82 328.11,226.78 331.30,226.74 333.79,226.71 339.12,226.62 344.81,226.48 350.14,226.21 355.83,225.61 361.16,224.70 366.84,223.44 372.18,222.05 377.15,220.60 377.51,220.50 377.86,220.39 378.22,220.28 383.19,220.28 387.10,220.28 387.81,220.28 388.88,220.28 393.86,220.28 394.57,220.28 397.77,220.28 399.90,220.28 405.23,220.28 410.92,220.28 416.25,220.28 421.93,220.28 427.26,220.28 432.95,220.28 437.93,220.28"/>
<polyline fill="none" stroke="#2ca02c" stroke-width="1.8" stroke-dasharray="2 4" points="86.07,249.57 91.41,249.57 97.09,249.57 102.42,249.57 108.11,249.57 113.44,249.57 119.13,249.57 124.46,249.57 130.14,249.57 135.48,249.57 141.16,249.57 146.49,249.57 152.18,249.57 157.51,249.57 163.20,249.57 168.53,249.57 174.21,249.57 178.12,249.56 179.55,249.53 180.61,249.47 180.97,249.44 181.32,249.41 181.68,249.37 182.03,249.33 182.39,249.29 182.74,249.24 183.10,249.18 183.46,249.12 183.81,249.06 184.17,248.98 184.52,248.91 184.88,248.82 185.23,248.73 185.59,248.64 185.94,248.54 186.30,248.43 186.65,248.32 187.01,248.20 187.36,248.08 187.72,247.95 188.08,247.82 190.56,246.81 196.25,244.35 201.58,242.02 203.36,241.24 207.27,239.53 212.60,237.21 218.29,234.76 223.62,232.49 229.30,230.13 234.63,227.99 240.32,225.80 245.65,223.84 251.34,221.89 256.67,220.19 262.36,218.55 267.69,217.19 273.02,216.00 278.70,214.95 284.04,214.16 286.88,213.81 287.23,213.77 289.72,213.52 295.05,213.08 300.74,212.75 306.07,212.53 309.98,212.41 311.76,212.36 317.09,212.24 320.64,212.17 322.77,212.14 328.11,212.06 331.30,212.02 333.79,212.00 339.12,211.94 344.81,211.89 350.14,211.85 355.83,211.76 361.16,211.62 366.84,211.41 372.18,211.17 377.15,210.90 377.51,210.88 377.86,210.86 378.22,210.83 383.19,210.39 387.10,209.74 387.81,209.58 388.88,209.33 393.86,207.82 394.57,207.57 397.77,206.33 399.90,206.33 405.23,206.33 410.92,206.33 416.25,206.33 421.93,206.33 427.26,206.33 432.95,206.33 437.93,206.33"/>
<polyline fill="none" stroke="#1f77b4" stroke-width="1.1" stroke-dasharray="6 4" points="72.00,87.57 76.81,90.54 81.62,93.51 86.43,96.49 91.24,99.46 96.05,102.43 100.86,105.41 105.67,108.38 110.48,111.35 115.29,114.33 120.10,117.30 124.91,120.27 129.72,123.24 134.53,126.22 139.34,129.19 144.15,132.16 148.96,135.14 153.77,138.11 158.58,141.08 163.39,144.05 168.20,147.03 173.01,150.00 177.82,152.97 182.63,155.95 187.44,158.92 192.25,161.89 197.06,164.87 201.87,167.84 206.68,170.81 211.49,173.78 216.30,176.76 221.11,179.73 225.92,182.70 230.73,185.68 235.54,188.65 240.35,191.62 245.16,194.59 249.97,197.57 254.78,200.54 259.59,203.51 264.41,206.49 269.22,209.46 274.03,212.43 278.84,215.41 283.65,218.38 288.46,221.35 293.27,224.32 298.08,227.30 302.89,230.27 307.70,233.24 312.51,236.22 317.32,239.19 322.13,242.16 326.94,245.13 331.75,248.11 336.56,251.08 341.37,254.05 346.18,257.03 350.99,260.00 355.80,262.97 360.61,265.95 365.42,268.92 370.23,271.89 375.04,274.86 379.85,277.84 384.66,280.81 389.47,283.78 394.28,286.76 399.09,289.73 403.90,292.70 408.71,295.67 413.52,298.65 418.33,301.62 423.14,304.59 427.95,307.57 432.76,310.54 437.57,313.51 442.38,316.49 447.19,319.46 452.00,322.43"/>
<circle cx="287.02" cy="220.46" r="4.6" fill="#ffffff" stroke="#1f77b4" stroke-width="2"/>
<text x="293.02" y="214.46" font-family="Arial, sans-serif" font-size="10" fill="#1f77b4">typ 124 ohm</text>
<polyline fill="none" stroke="#ff7f0e" stroke-width="1.1" stroke-dasharray="6 4" points="72.00,94.16 76.81,97.13 81.62,100.10 86.43,103.08 91.24,106.05 96.05,109.02 100.86,112.00 105.67,114.97 110.48,117.94 115.29,120.92 120.10,123.89 124.91,126.86 129.72,129.83 134.53,132.81 139.34,135.78 144.15,138.75 148.96,141.73 153.77,144.70 158.58,147.67 163.39,150.64 168.20,153.62 173.01,156.59 177.82,159.56 182.63,162.54 187.44,165.51 192.25,168.48 197.06,171.46 201.87,174.43 206.68,177.40 211.49,180.37 216.30,183.35 221.11,186.32 225.92,189.29 230.73,192.27 235.54,195.24 240.35,198.21 245.16,201.18 249.97,204.16 254.78,207.13 259.59,210.10 264.41,213.08 269.22,216.05 274.03,219.02 278.84,222.00 283.65,224.97 288.46,227.94 293.27,230.91 298.08,233.89 302.89,236.86 307.70,239.83 312.51,242.81 317.32,245.78 322.13,248.75 326.94,251.72 331.75,254.70 336.56,257.67 341.37,260.64 346.18,263.62 350.99,266.59 355.80,269.56 360.61,272.54 365.42,275.51 370.23,278.48 375.04,281.45 379.85,284.43 384.66,287.40 389.47,290.37 394.28,293.35 399.09,296.32 403.90,299.29 408.71,302.26 413.52,305.24 418.33,308.21 423.14,311.18 427.95,314.16 432.76,317.13 437.57,320.10 442.38,323.08 447.19,326.05 452.00,329.02"/>
<circle cx="287.32" cy="227.24" r="4.6" fill="#ffffff" stroke="#ff7f0e" stroke-width="2"/>
<text x="293.32" y="221.24" font-family="Arial, sans-serif" font-size="10" fill="#ff7f0e">min 185 ohm</text>
<polyline fill="none" stroke="#2ca02c" stroke-width="1.1" stroke-dasharray="6 4" points="72.00,80.98 76.81,83.95 81.62,86.92 86.43,89.90 91.24,92.87 96.05,95.84 100.86,98.82 105.67,101.79 110.48,104.76 115.29,107.74 120.10,110.71 124.91,113.68 129.72,116.65 134.53,119.63 139.34,122.60 144.15,125.57 148.96,128.55 153.77,131.52 158.58,134.49 163.39,137.46 168.20,140.44 173.01,143.41 177.82,146.38 182.63,149.36 187.44,152.33 192.25,155.30 197.06,158.28 201.87,161.25 206.68,164.22 211.49,167.19 216.30,170.17 221.11,173.14 225.92,176.11 230.73,179.09 235.54,182.06 240.35,185.03 245.16,188.00 249.97,190.98 254.78,193.95 259.59,196.92 264.41,199.90 269.22,202.87 274.03,205.84 278.84,208.82 283.65,211.79 288.46,214.76 293.27,217.73 298.08,220.71 302.89,223.68 307.70,226.65 312.51,229.63 317.32,232.60 322.13,235.57 326.94,238.54 331.75,241.52 336.56,244.49 341.37,247.46 346.18,250.44 350.99,253.41 355.80,256.38 360.61,259.36 365.42,262.33 370.23,265.30 375.04,268.27 379.85,271.25 384.66,274.22 389.47,277.19 394.28,280.17 399.09,283.14 403.90,286.11 408.71,289.08 413.52,292.06 418.33,295.03 423.14,298.00 427.95,300.98 432.76,303.95 437.57,306.92 442.38,309.90 447.19,312.87 452.00,315.84"/>
<circle cx="286.92" cy="213.81" r="4.6" fill="#ffffff" stroke="#2ca02c" stroke-width="2"/>
<text x="292.92" y="207.81" font-family="Arial, sans-serif" font-size="10" fill="#2ca02c">max 94.1 ohm</text>
<line x1="82.00" y1="80.00" x2="104.00" y2="80.00" stroke="#1f77b4" stroke-width="2"/>
<text x="110.00" y="84.00" font-family="Arial, sans-serif" font-size="11">typ</text>
<line x1="82.00" y1="97.00" x2="104.00" y2="97.00" stroke="#ff7f0e" stroke-width="2" stroke-dasharray="5 4"/>
<text x="110.00" y="101.00" font-family="Arial, sans-serif" font-size="11">min</text>
<line x1="82.00" y1="114.00" x2="104.00" y2="114.00" stroke="#2ca02c" stroke-width="2" stroke-dasharray="2 4"/>
<text x="110.00" y="118.00" font-family="Arial, sans-serif" font-size="11">max</text>
<text x="262.00" y="386.00" text-anchor="middle" font-family="Arial, sans-serif" font-size="11">Output voltage (V)</text>
<text transform="translate(22.00 205.00) rotate(-90)" text-anchor="middle" font-family="Arial, sans-serif" font-size="11">Current (mA)</text>
<rect x="492.00" y="62.00" width="380.00" height="286.00" fill="#fbfbfb" stroke="#c8c8c8"/>
<text x="500.00" y="50.00" font-family="Arial, sans-serif" font-size="13" font-weight="700">[Pullup] Rload to GND</text>
<line x1="492.00" y1="62.00" x2="492.00" y2="348.00" stroke="#ececec"/>
<text x="492.00" y="366.00" text-anchor="middle" font-family="Arial, sans-serif" font-size="10">-3.7</text>
<line x1="587.00" y1="62.00" x2="587.00" y2="348.00" stroke="#ececec"/>
<text x="587.00" y="366.00" text-anchor="middle" font-family="Arial, sans-serif" font-size="10">-1</text>
<line x1="682.00" y1="62.00" x2="682.00" y2="348.00" stroke="#ececec"/>
<text x="682.00" y="366.00" text-anchor="middle" font-family="Arial, sans-serif" font-size="10">1.7</text>
<line x1="777.00" y1="62.00" x2="777.00" y2="348.00" stroke="#ececec"/>
<text x="777.00" y="366.00" text-anchor="middle" font-family="Arial, sans-serif" font-size="10">4.3</text>
<line x1="872.00" y1="62.00" x2="872.00" y2="348.00" stroke="#ececec"/>
<text x="872.00" y="366.00" text-anchor="middle" font-family="Arial, sans-serif" font-size="10">7</text>
<line x1="492.00" y1="348.00" x2="872.00" y2="348.00" stroke="#ececec"/>
<text x="485.00" y="352.00" text-anchor="end" font-family="Arial, sans-serif" font-size="10">-1.6e+02</text>
<line x1="492.00" y1="276.50" x2="872.00" y2="276.50" stroke="#ececec"/>
<text x="485.00" y="280.50" text-anchor="end" font-family="Arial, sans-serif" font-size="10">-98</text>
<line x1="492.00" y1="205.00" x2="872.00" y2="205.00" stroke="#ececec"/>
<text x="485.00" y="209.00" text-anchor="end" font-family="Arial, sans-serif" font-size="10">-33</text>
<line x1="492.00" y1="133.50" x2="872.00" y2="133.50" stroke="#ececec"/>
<text x="485.00" y="137.50" text-anchor="end" font-family="Arial, sans-serif" font-size="10">32</text>
<line x1="492.00" y1="62.00" x2="872.00" y2="62.00" stroke="#ececec"/>
<text x="485.00" y="66.00" text-anchor="end" font-family="Arial, sans-serif" font-size="10">97</text>
<line x1="623.36" y1="62" x2="623.36" y2="348" stroke="#777" stroke-dasharray="4 4"/>
<line x1="492.0" y1="168.76" x2="872.0" y2="168.76" stroke="#777" stroke-dasharray="4 4"/>
<polyline fill="none" stroke="#1f77b4" stroke-width="1.8" points="506.07,140.84 511.41,140.84 517.09,140.84 522.42,140.84 528.11,140.84 533.44,140.84 539.13,140.84 544.46,140.84 550.14,140.84 555.12,140.84 555.48,140.84 555.83,140.84 556.19,140.84 556.54,141.01 556.90,141.18 557.96,141.70 558.32,141.87 558.67,142.04 559.38,142.38 559.74,142.55 560.10,142.72 560.45,142.89 561.16,143.23 566.49,145.74 567.56,146.24 572.18,148.35 577.51,150.73 583.20,153.18 588.53,155.39 594.21,157.67 599.55,159.75 605.23,161.91 610.56,163.91 616.25,166.05 617.67,166.59 618.03,166.72 621.58,168.07 623.36,168.76 627.27,170.24 630.11,171.30 630.47,171.43 632.60,172.22 638.29,174.29 643.62,176.17 649.30,178.13 654.63,179.89 660.32,181.71 665.65,183.34 671.34,184.99 676.67,186.46 678.80,187.03 682.36,187.94 687.69,189.22 693.02,190.41 698.70,191.56 700.48,191.90 701.19,192.03 701.90,192.16 702.61,192.28 703.32,192.41 704.04,192.53 709.72,193.43 714.70,194.09 715.05,194.13 715.41,194.17 720.74,194.73 724.29,195.03 726.07,195.16 726.43,195.19 727.14,195.24 729.62,195.40 729.98,195.42 731.76,195.52 737.09,195.78 740.64,195.92 742.77,196.00 748.11,196.17 748.82,196.19 751.30,196.25 753.44,196.29 759.12,196.29 764.81,196.29 765.52,196.29 770.14,196.29 775.83,196.29 781.16,196.29 786.84,196.29 792.18,196.29 797.86,196.29 803.19,196.29 808.88,196.29 814.21,196.29 819.90,196.29 825.23,196.29 830.92,196.29 836.25,196.29 841.93,196.29 847.26,196.29 852.95,196.29 857.93,196.29"/>
<polyline fill="none" stroke="#ff7f0e" stroke-width="1.8" stroke-dasharray="5 4" points="506.07,145.94 511.41,145.94 517.09,145.94 522.42,145.94 528.11,145.94 533.44,145.94 539.13,145.94 544.46,145.94 550.14,145.94 555.12,145.94 555.48,146.09 555.83,146.23 556.19,146.37 556.54,146.52 556.90,146.66 557.96,147.08 558.32,147.22 558.67,147.36 559.38,147.64 559.74,147.78 560.10,147.92 560.45,148.05 561.16,148.33 566.49,150.39 567.56,150.79 572.18,152.53 577.51,154.48 583.20,156.49 588.53,158.30 594.21,160.15 599.55,161.81 605.23,163.51 610.56,165.06 616.25,166.70 617.67,167.11 618.03,167.21 621.58,168.24 623.36,168.76 627.27,169.88 630.11,170.67 630.47,170.77 632.60,171.36 638.29,172.90 643.62,174.29 649.30,175.72 654.63,177.00 660.32,178.30 665.65,179.45 671.34,180.60 676.67,181.60 678.80,181.97 682.36,182.57 687.69,183.38 693.02,184.10 698.70,184.75 700.48,184.92 701.19,184.99 701.90,185.06 702.61,185.12 703.32,185.18 704.04,185.24 709.72,185.65 714.70,185.91 715.05,185.93 715.41,185.95 720.74,186.16 724.29,186.28 726.07,186.33 726.43,186.34 727.14,186.36 729.62,186.42 729.98,186.43 731.76,186.47 737.09,186.59 740.64,186.63 742.77,186.63 748.11,186.63 748.82,186.63 751.30,186.63 753.44,186.63 759.12,186.63 764.81,186.63 765.52,186.63 770.14,186.63 775.83,186.63 781.16,186.63 786.84,186.63 792.18,186.63 797.86,186.63 803.19,186.63 808.88,186.63 814.21,186.63 819.90,186.63 825.23,186.63 830.92,186.63 836.25,186.63 841.93,186.63 847.26,186.63 852.95,186.63 857.93,186.63"/>
<polyline fill="none" stroke="#2ca02c" stroke-width="1.8" stroke-dasharray="2 4" points="506.07,135.13 511.41,135.13 517.09,135.13 522.42,135.13 528.11,135.13 533.44,135.13 539.13,135.13 544.46,135.13 550.14,135.13 555.12,135.13 555.48,135.13 555.83,135.13 556.19,135.13 556.54,135.13 556.90,135.13 557.96,135.76 558.32,135.96 558.67,136.17 559.38,136.58 559.74,136.79 560.10,136.99 560.45,137.20 561.16,137.61 566.49,140.64 567.56,141.24 572.18,143.78 577.51,146.62 583.20,149.55 588.53,152.21 594.21,154.98 599.55,157.52 605.23,160.19 610.56,162.67 616.25,165.31 617.67,165.97 618.03,166.14 621.58,167.89 623.36,168.76 627.27,170.66 630.11,172.02 630.47,172.19 632.60,173.15 638.29,175.78 643.62,178.19 649.30,180.69 654.63,182.96 660.32,185.30 665.65,187.40 671.34,189.54 676.67,191.46 678.80,192.20 682.36,193.40 687.69,195.11 693.02,196.72 698.70,198.31 700.48,198.79 701.19,198.97 701.90,199.16 702.61,199.34 703.32,199.52 704.04,199.70 709.72,201.04 714.70,202.10 715.05,202.17 715.41,202.24 720.74,203.21 724.29,203.77 726.07,204.01 726.43,204.06 727.14,204.16 729.62,204.46 729.98,204.50 731.76,204.69 737.09,205.19 740.64,205.45 742.77,205.60 748.11,205.90 748.82,205.93 751.30,206.05 753.44,206.14 759.12,206.36 764.81,206.54 765.52,206.54 770.14,206.54 775.83,206.54 781.16,206.54 786.84,206.54 792.18,206.54 797.86,206.54 803.19,206.54 808.88,206.54 814.21,206.54 819.90,206.54 825.23,206.54 830.92,206.54 836.25,206.54 841.93,206.54 847.26,206.54 852.95,206.54 857.93,206.54"/>
<polyline fill="none" stroke="#1f77b4" stroke-width="1.1" stroke-dasharray="6 4" points="492.00,322.43 496.81,319.46 501.62,316.49 506.43,313.51 511.24,310.54 516.05,307.57 520.86,304.59 525.67,301.62 530.48,298.65 535.29,295.67 540.10,292.70 544.91,289.73 549.72,286.76 554.53,283.78 559.34,280.81 564.15,277.84 568.96,274.86 573.77,271.89 578.58,268.92 583.39,265.95 588.20,262.97 593.01,260.00 597.82,257.03 602.63,254.05 607.44,251.08 612.25,248.11 617.06,245.13 621.87,242.16 626.68,239.19 631.49,236.22 636.30,233.24 641.11,230.27 645.92,227.30 650.73,224.32 655.54,221.35 660.35,218.38 665.16,215.41 669.97,212.43 674.78,209.46 679.59,206.49 684.41,203.51 689.22,200.54 694.03,197.57 698.84,194.59 703.65,191.62 708.46,188.65 713.27,185.68 718.08,182.70 722.89,179.73 727.70,176.76 732.51,173.78 737.32,170.81 742.13,167.84 746.94,164.87 751.75,161.89 756.56,158.92 761.37,155.95 766.18,152.97 770.99,150.00 775.80,147.03 780.61,144.05 785.42,141.08 790.23,138.11 795.04,135.14 799.85,132.16 804.66,129.19 809.47,126.22 814.28,123.24 819.09,120.27 823.90,117.30 828.71,114.33 833.52,111.35 838.33,108.38 843.14,105.41 847.95,102.43 852.76,99.46 857.57,96.49 862.38,93.51 867.19,90.54 872.00,87.57"/>
<circle cx="702.58" cy="192.28" r="4.6" fill="#ffffff" stroke="#1f77b4" stroke-width="2"/>
<text x="708.58" y="186.28" font-family="Arial, sans-serif" font-size="10" fill="#1f77b4">typ 104 ohm</text>
<polyline fill="none" stroke="#ff7f0e" stroke-width="1.1" stroke-dasharray="6 4" points="492.00,315.84 496.81,312.87 501.62,309.90 506.43,306.92 511.24,303.95 516.05,300.98 520.86,298.00 525.67,295.03 530.48,292.06 535.29,289.08 540.10,286.11 544.91,283.14 549.72,280.17 554.53,277.19 559.34,274.22 564.15,271.25 568.96,268.27 573.77,265.30 578.58,262.33 583.39,259.36 588.20,256.38 593.01,253.41 597.82,250.44 602.63,247.46 607.44,244.49 612.25,241.52 617.06,238.54 621.87,235.57 626.68,232.60 631.49,229.63 636.30,226.65 641.11,223.68 645.92,220.71 650.73,217.73 655.54,214.76 660.35,211.79 665.16,208.82 669.97,205.84 674.78,202.87 679.59,199.90 684.41,196.92 689.22,193.95 694.03,190.98 698.84,188.00 703.65,185.03 708.46,182.06 713.27,179.09 718.08,176.11 722.89,173.14 727.70,170.17 732.51,167.19 737.32,164.22 742.13,161.25 746.94,158.28 751.75,155.30 756.56,152.33 761.37,149.36 766.18,146.38 770.99,143.41 775.80,140.44 780.61,137.46 785.42,134.49 790.23,131.52 795.04,128.55 799.85,125.57 804.66,122.60 809.47,119.63 814.28,116.65 819.09,113.68 823.90,110.71 828.71,107.74 833.52,104.76 838.33,101.79 843.14,98.82 847.95,95.84 852.76,92.87 857.57,89.90 862.38,86.92 867.19,83.95 872.00,80.98"/>
<circle cx="703.40" cy="185.19" r="4.6" fill="#ffffff" stroke="#ff7f0e" stroke-width="2"/>
<text x="709.40" y="179.19" font-family="Arial, sans-serif" font-size="10" fill="#ff7f0e">min 151 ohm</text>
<polyline fill="none" stroke="#2ca02c" stroke-width="1.1" stroke-dasharray="6 4" points="492.00,329.02 496.81,326.05 501.62,323.08 506.43,320.10 511.24,317.13 516.05,314.16 520.86,311.18 525.67,308.21 530.48,305.24 535.29,302.26 540.10,299.29 544.91,296.32 549.72,293.35 554.53,290.37 559.34,287.40 564.15,284.43 568.96,281.45 573.77,278.48 578.58,275.51 583.39,272.54 588.20,269.56 593.01,266.59 597.82,263.62 602.63,260.64 607.44,257.67 612.25,254.70 617.06,251.72 621.87,248.75 626.68,245.78 631.49,242.81 636.30,239.83 641.11,236.86 645.92,233.89 650.73,230.91 655.54,227.94 660.35,224.97 665.16,222.00 669.97,219.02 674.78,216.05 679.59,213.08 684.41,210.10 689.22,207.13 694.03,204.16 698.84,201.18 703.65,198.21 708.46,195.24 713.27,192.27 718.08,189.29 722.89,186.32 727.70,183.35 732.51,180.37 737.32,177.40 742.13,174.43 746.94,171.46 751.75,168.48 756.56,165.51 761.37,162.54 766.18,159.56 770.99,156.59 775.80,153.62 780.61,150.64 785.42,147.67 790.23,144.70 795.04,141.73 799.85,138.75 804.66,135.78 809.47,132.81 814.28,129.83 819.09,126.86 823.90,123.89 828.71,120.92 833.52,117.94 838.33,114.97 843.14,112.00 847.95,109.02 852.76,106.05 857.57,103.08 862.38,100.10 867.19,97.13 872.00,94.16"/>
<circle cx="702.05" cy="199.20" r="4.6" fill="#ffffff" stroke="#2ca02c" stroke-width="2"/>
<text x="708.05" y="193.20" font-family="Arial, sans-serif" font-size="10" fill="#2ca02c">max 79.9 ohm</text>
<line x1="502.00" y1="80.00" x2="524.00" y2="80.00" stroke="#1f77b4" stroke-width="2"/>
<text x="530.00" y="84.00" font-family="Arial, sans-serif" font-size="11">typ</text>
<line x1="502.00" y1="97.00" x2="524.00" y2="97.00" stroke="#ff7f0e" stroke-width="2" stroke-dasharray="5 4"/>
<text x="530.00" y="101.00" font-family="Arial, sans-serif" font-size="11">min</text>
<line x1="502.00" y1="114.00" x2="524.00" y2="114.00" stroke="#2ca02c" stroke-width="2" stroke-dasharray="2 4"/>
<text x="530.00" y="118.00" font-family="Arial, sans-serif" font-size="11">max</text>
<text x="682.00" y="386.00" text-anchor="middle" font-family="Arial, sans-serif" font-size="11">Vcc-relative table voltage (V)</text>
<text transform="translate(442.00 205.00) rotate(-90)" text-anchor="middle" font-family="Arial, sans-serif" font-size="11">Current (mA)</text>
<rect x="72.00" y="418.00" width="800.00" height="144.00" fill="#ffffff" stroke="#c8c8c8"/>
<text x="82.00" y="436.00" font-family="Arial, sans-serif" font-size="12" font-weight="700">Operating-point summary</text>
<text x="82.00" y="454.00" font-family="Arial, sans-serif" font-size="10" font-weight="700" fill="#333">Table</text>
<text x="174.00" y="454.00" font-family="Arial, sans-serif" font-size="10" font-weight="700" fill="#333">Corner</text>
<text x="242.00" y="454.00" font-family="Arial, sans-serif" font-size="10" font-weight="700" fill="#333">Vout</text>
<text x="332.00" y="454.00" font-family="Arial, sans-serif" font-size="10" font-weight="700" fill="#333">Iop</text>
<text x="422.00" y="454.00" font-family="Arial, sans-serif" font-size="10" font-weight="700" fill="#333">Zout</text>
<text x="512.00" y="454.00" font-family="Arial, sans-serif" font-size="10" font-weight="700" fill="#333">Rseries</text>
<text x="82.00" y="473.00" font-family="Arial, sans-serif" font-size="10" fill="#1f77b4">pulldown</text>
<text x="174.00" y="473.00" font-family="Arial, sans-serif" font-size="10" fill="#1f77b4">typ</text>
<text x="242.00" y="473.00" font-family="Arial, sans-serif" font-size="10" fill="#1f77b4">2.354 V</text>
<text x="332.00" y="473.00" font-family="Arial, sans-serif" font-size="10" fill="#1f77b4">19 mA</text>
<text x="422.00" y="473.00" font-family="Arial, sans-serif" font-size="10" fill="#1f77b4">124 ohm</text>
<text x="512.00" y="473.00" font-family="Arial, sans-serif" font-size="10" fill="#1f77b4">-74.4 ohm</text>
<text x="82.00" y="492.00" font-family="Arial, sans-serif" font-size="10" fill="#ff7f0e">pulldown</text>
<text x="174.00" y="492.00" font-family="Arial, sans-serif" font-size="10" fill="#ff7f0e">min</text>
<text x="242.00" y="492.00" font-family="Arial, sans-serif" font-size="10" fill="#ff7f0e">2.362 V</text>
<text x="332.00" y="492.00" font-family="Arial, sans-serif" font-size="10" fill="#ff7f0e">13 mA</text>
<text x="422.00" y="492.00" font-family="Arial, sans-serif" font-size="10" fill="#ff7f0e">185 ohm</text>
<text x="512.00" y="492.00" font-family="Arial, sans-serif" font-size="10" fill="#ff7f0e">-135 ohm</text>
<text x="82.00" y="511.00" font-family="Arial, sans-serif" font-size="10" fill="#2ca02c">pulldown</text>
<text x="174.00" y="511.00" font-family="Arial, sans-serif" font-size="10" fill="#2ca02c">max</text>
<text x="242.00" y="511.00" font-family="Arial, sans-serif" font-size="10" fill="#2ca02c">2.351 V</text>
<text x="332.00" y="511.00" font-family="Arial, sans-serif" font-size="10" fill="#2ca02c">25 mA</text>
<text x="422.00" y="511.00" font-family="Arial, sans-serif" font-size="10" fill="#2ca02c">94.1 ohm</text>
<text x="512.00" y="511.00" font-family="Arial, sans-serif" font-size="10" fill="#2ca02c">-44.1 ohm</text>
<text x="82.00" y="530.00" font-family="Arial, sans-serif" font-size="10" fill="#1f77b4">pullup</text>
<text x="174.00" y="530.00" font-family="Arial, sans-serif" font-size="10" fill="#1f77b4">typ</text>
<text x="242.00" y="530.00" font-family="Arial, sans-serif" font-size="10" fill="#1f77b4">1.071 V</text>
<text x="332.00" y="530.00" font-family="Arial, sans-serif" font-size="10" fill="#1f77b4">-21 mA</text>
<text x="422.00" y="530.00" font-family="Arial, sans-serif" font-size="10" fill="#1f77b4">104 ohm</text>
<text x="512.00" y="530.00" font-family="Arial, sans-serif" font-size="10" fill="#1f77b4">-54.1 ohm</text>
<text x="82.00" y="549.00" font-family="Arial, sans-serif" font-size="10" fill="#ff7f0e">pullup</text>
<text x="174.00" y="549.00" font-family="Arial, sans-serif" font-size="10" fill="#ff7f0e">min</text>
<text x="242.00" y="549.00" font-family="Arial, sans-serif" font-size="10" fill="#ff7f0e">0.748 V</text>
<text x="332.00" y="549.00" font-family="Arial, sans-serif" font-size="10" fill="#ff7f0e">-15 mA</text>
<text x="422.00" y="549.00" font-family="Arial, sans-serif" font-size="10" fill="#ff7f0e">151 ohm</text>
<text x="512.00" y="549.00" font-family="Arial, sans-serif" font-size="10" fill="#ff7f0e">-101 ohm</text>
<text x="82.00" y="568.00" font-family="Arial, sans-serif" font-size="10" fill="#2ca02c">pullup</text>
<text x="174.00" y="568.00" font-family="Arial, sans-serif" font-size="10" fill="#2ca02c">max</text>
<text x="242.00" y="568.00" font-family="Arial, sans-serif" font-size="10" fill="#2ca02c">1.386 V</text>
<text x="332.00" y="568.00" font-family="Arial, sans-serif" font-size="10" fill="#2ca02c">-28 mA</text>
<text x="422.00" y="568.00" font-family="Arial, sans-serif" font-size="10" fill="#2ca02c">79.9 ohm</text>
<text x="512.00" y="568.00" font-family="Arial, sans-serif" font-size="10" fill="#2ca02c">-29.9 ohm</text>
</svg>