<svg xmlns="http://www.w3.org/2000/svg" width="900" height="620" viewBox="0 0 900 620">
<rect width="100%" height="100%" fill="#ffffff"/>
<text x="72" y="26" font-family="Arial, sans-serif" font-size="16" font-weight="700">E34_GPIO_I2CSCLIN_1V1_10 Zout Load-Line Curves</text>
<text x="72" y="45" font-family="Arial, sans-serif" font-size="11" fill="#555">Rload=50 ohm; solid=device I-V, dashed=load line, circles=operating points</text>
<rect x="72.00" y="62.00" width="380.00" height="286.00" fill="#fbfbfb" stroke="#c8c8c8"/>
<text x="80.00" y="50.00" font-family="Arial, sans-serif" font-size="13" font-weight="700">[Pulldown] Rload to Vdd</text>
<line x1="72.00" y1="62.00" x2="72.00" y2="348.00" stroke="#ececec"/>
<text x="72.00" y="366.00" text-anchor="middle" font-family="Arial, sans-serif" font-size="10">-1.2</text>
<line x1="167.00" y1="62.00" x2="167.00" y2="348.00" stroke="#ececec"/>
<text x="167.00" y="366.00" text-anchor="middle" font-family="Arial, sans-serif" font-size="10">-0.341</text>
<line x1="262.00" y1="62.00" x2="262.00" y2="348.00" stroke="#ececec"/>
<text x="262.00" y="366.00" text-anchor="middle" font-family="Arial, sans-serif" font-size="10">0.55</text>
<line x1="357.00" y1="62.00" x2="357.00" y2="348.00" stroke="#ececec"/>
<text x="357.00" y="366.00" text-anchor="middle" font-family="Arial, sans-serif" font-size="10">1.4</text>
<line x1="452.00" y1="62.00" x2="452.00" y2="348.00" stroke="#ececec"/>
<text x="452.00" y="366.00" text-anchor="middle" font-family="Arial, sans-serif" font-size="10">2.3</text>
<line x1="72.00" y1="348.00" x2="452.00" y2="348.00" stroke="#ececec"/>
<text x="65.00" y="352.00" text-anchor="end" font-family="Arial, sans-serif" font-size="10">-33</text>
<line x1="72.00" y1="276.50" x2="452.00" y2="276.50" stroke="#ececec"/>
<text x="65.00" y="280.50" text-anchor="end" font-family="Arial, sans-serif" font-size="10">-11</text>
<line x1="72.00" y1="205.00" x2="452.00" y2="205.00" stroke="#ececec"/>
<text x="65.00" y="209.00" text-anchor="end" font-family="Arial, sans-serif" font-size="10">11</text>
<line x1="72.00" y1="133.50" x2="452.00" y2="133.50" stroke="#ececec"/>
<text x="65.00" y="137.50" text-anchor="end" font-family="Arial, sans-serif" font-size="10">33</text>
<line x1="72.00" y1="62.00" x2="452.00" y2="62.00" stroke="#ececec"/>
<text x="65.00" y="66.00" text-anchor="end" font-family="Arial, sans-serif" font-size="10">55</text>
<line x1="203.36" y1="62" x2="203.36" y2="348" stroke="#777" stroke-dasharray="4 4"/>
<line x1="72.0" y1="241.04" x2="452.0" y2="241.04" stroke="#777" stroke-dasharray="4 4"/>
<polyline fill="none" stroke="#1f77b4" stroke-width="1.8" points="86.07,270.47 91.41,270.47 96.74,270.47 99.93,270.47 103.13,270.47 106.33,270.47 108.46,270.35 114.86,269.86 115.93,269.76 116.99,269.66 119.13,269.43 121.26,269.19 122.33,269.06 124.46,268.78 126.59,268.48 127.66,268.32 129.79,267.98 132.99,267.41 135.12,267.00 136.19,266.78 137.25,266.55 139.38,266.06 140.45,265.80 141.52,265.54 142.58,265.26 143.65,264.97 144.72,264.67 145.78,264.36 146.85,264.04 147.91,263.71 148.98,263.37 150.05,263.02 151.11,262.66 152.18,262.29 153.25,261.90 154.31,261.51 155.38,261.11 156.44,260.70 157.51,260.28 162.84,258.08 169.24,255.31 174.57,252.99 179.90,250.68 185.23,248.41 190.56,246.18 195.89,244.00 202.29,241.45 203.36,241.04 207.62,239.41 212.95,237.44 218.29,235.55 223.62,233.77 228.95,232.10 235.34,230.27 240.68,228.91 246.01,227.72 251.34,226.73 256.67,225.95 263.07,225.29 266.26,225.06 268.40,224.94 269.46,224.88 270.53,224.83 273.73,224.69 279.06,224.50 282.26,224.39 284.39,224.33 289.72,224.17 292.92,224.09 295.05,224.03 296.12,224.01 301.45,223.88 306.78,223.76 308.91,223.71 312.11,223.65 317.44,223.54 320.64,223.48 322.77,223.43 329.17,223.32 332.37,223.26 334.50,223.22 339.83,223.13 345.16,223.04 350.50,222.95 355.83,222.86 362.22,222.76 367.56,222.67 372.89,222.58 378.22,222.47 383.55,222.34 388.88,222.17 395.28,221.88 400.61,221.55 405.94,221.12 411.27,220.58 416.60,219.93 421.93,219.17 428.33,218.13 433.66,217.16 437.93,216.33"/>
<polyline fill="none" stroke="#ff7f0e" stroke-width="1.8" stroke-dasharray="5 4" points="86.07,260.07 91.41,260.07 96.74,260.07 99.93,260.07 103.13,260.07 106.33,260.07 108.46,260.07 114.86,260.07 115.93,260.04 116.99,260.04 119.13,259.95 121.26,259.84 122.33,259.77 124.46,259.62 126.59,259.43 127.66,259.33 129.79,259.11 132.99,258.75 135.12,258.47 136.19,258.33 137.25,258.18 139.38,257.86 140.45,257.69 141.52,257.51 142.58,257.33 143.65,257.15 144.72,256.95 145.78,256.75 146.85,256.55 147.91,256.34 148.98,256.12 150.05,255.89 151.11,255.66 152.18,255.42 153.25,255.17 154.31,254.92 155.38,254.66 156.44,254.39 157.51,254.12 162.84,252.68 169.24,250.80 174.57,249.19 179.90,247.57 185.23,245.99 190.56,244.46 195.89,242.99 202.29,241.31 203.36,241.04 207.62,239.99 212.95,238.76 218.29,237.62 223.62,236.59 228.95,235.67 235.34,234.73 240.68,234.10 246.01,233.62 251.34,233.29 256.67,233.08 263.07,232.92 266.26,232.86 268.40,232.82 269.46,232.80 270.53,232.79 273.73,232.74 279.06,232.66 282.26,232.62 284.39,232.59 289.72,232.53 292.92,232.49 295.05,232.47 296.12,232.45 301.45,232.40 306.78,232.34 308.91,232.32 312.11,232.29 317.44,232.24 320.64,232.21 322.77,232.19 329.17,232.14 332.37,232.11 334.50,232.09 339.83,232.04 345.16,232.00 350.50,231.94 355.83,231.87 362.22,231.74 367.56,231.59 372.89,231.37 378.22,231.07 383.55,230.70 388.88,230.27 395.28,229.65 400.61,229.07 405.94,228.43 411.27,227.74 416.60,227.00 421.93,226.26 428.33,225.37 433.66,224.62 437.93,224.03"/>
<polyline fill="none" stroke="#2ca02c" stroke-width="1.8" stroke-dasharray="2 4" points="86.07,281.81 91.41,281.81 96.74,281.81 99.93,281.81 103.13,281.59 106.33,281.33 108.46,281.14 114.86,280.45 115.93,280.32 116.99,280.19 119.13,279.90 121.26,279.58 122.33,279.42 124.46,279.06 126.59,278.67 127.66,278.47 129.79,278.03 132.99,277.29 135.12,276.75 136.19,276.46 137.25,276.15 139.38,275.51 140.45,275.16 141.52,274.81 142.58,274.43 143.65,274.04 144.72,273.64 145.78,273.22 146.85,272.78 147.91,272.33 148.98,271.87 150.05,271.38 151.11,270.88 152.18,270.37 153.25,269.84 154.31,269.30 155.38,268.74 156.44,268.17 157.51,267.60 162.84,264.57 169.24,260.82 174.57,257.68 179.90,254.54 185.23,251.42 190.56,248.32 195.89,245.26 202.29,241.64 203.36,241.04 207.62,238.67 212.95,235.76 218.29,232.92 223.62,230.17 228.95,227.51 235.34,224.47 240.68,222.08 246.01,219.84 251.34,217.78 256.67,215.92 263.07,214.00 266.26,213.18 268.40,212.69 269.46,212.46 270.53,212.24 273.73,211.66 279.06,210.88 282.26,210.53 284.39,210.32 289.72,209.90 292.92,209.69 295.05,209.56 296.12,209.50 301.45,209.21 306.78,208.96 308.91,208.86 312.11,208.73 317.44,208.51 320.64,208.39 322.77,208.31 329.17,208.08 332.37,207.97 334.50,207.90 339.83,207.73 345.16,207.56 350.50,207.40 355.83,207.24 362.22,207.06 367.56,206.91 372.89,206.77 378.22,206.62 383.55,206.47 388.88,206.31 395.28,206.08 400.61,205.88 405.94,205.65 411.27,205.39 416.60,205.09 421.93,204.71 428.33,204.13 433.66,203.50 437.93,202.88"/>
<polyline fill="none" stroke="#1f77b4" stroke-width="1.1" stroke-dasharray="6 4" points="72.00,88.24 76.81,91.19 81.62,94.15 86.43,97.10 91.24,100.06 96.05,103.02 100.86,105.97 105.67,108.93 110.48,111.88 115.29,114.84 120.10,117.80 124.91,120.75 129.72,123.71 134.53,126.66 139.34,129.62 144.15,132.58 148.96,135.53 153.77,138.49 158.58,141.44 163.39,144.40 168.20,147.36 173.01,150.31 177.82,153.27 182.63,156.23 187.44,159.18 192.25,162.14 197.06,165.09 201.87,168.05 206.68,171.01 211.49,173.96 216.30,176.92 221.11,179.87 225.92,182.83 230.73,185.79 235.54,188.74 240.35,191.70 245.16,194.65 249.97,197.61 254.78,200.57 259.59,203.52 264.41,206.48 269.22,209.43 274.03,212.39 278.84,215.35 283.65,218.30 288.46,221.26 293.27,224.21 298.08,227.17 302.89,230.13 307.70,233.08 312.51,236.04 317.32,238.99 322.13,241.95 326.94,244.91 331.75,247.86 336.56,250.82 341.37,253.77 346.18,256.73 350.99,259.69 355.80,262.64 360.61,265.60 365.42,268.56 370.23,271.51 375.04,274.47 379.85,277.42 384.66,280.38 389.47,283.34 394.28,286.29 399.09,289.25 403.90,292.20 408.71,295.16 413.52,298.12 418.33,301.07 423.14,304.03 427.95,306.98 432.76,309.94 437.57,312.90 442.38,315.85 447.19,318.81 452.00,321.76"/>
<circle cx="293.06" cy="224.09" r="4.6" fill="#ffffff" stroke="#1f77b4" stroke-width="2"/>
<text x="299.06" y="218.09" font-family="Arial, sans-serif" font-size="10" fill="#1f77b4">typ 163 ohm</text>
<polyline fill="none" stroke="#ff7f0e" stroke-width="1.1" stroke-dasharray="6 4" points="72.00,95.44 76.81,98.40 81.62,101.36 86.43,104.31 91.24,107.27 96.05,110.22 100.86,113.18 105.67,116.14 110.48,119.09 115.29,122.05 120.10,125.00 124.91,127.96 129.72,130.92 134.53,133.87 139.34,136.83 144.15,139.78 148.96,142.74 153.77,145.70 158.58,148.65 163.39,151.61 168.20,154.56 173.01,157.52 177.82,160.48 182.63,163.43 187.44,166.39 192.25,169.34 197.06,172.30 201.87,175.26 206.68,178.21 211.49,181.17 216.30,184.13 221.11,187.08 225.92,190.04 230.73,192.99 235.54,195.95 240.35,198.91 245.16,201.86 249.97,204.82 254.78,207.77 259.59,210.73 264.41,213.69 269.22,216.64 274.03,219.60 278.84,222.55 283.65,225.51 288.46,228.47 293.27,231.42 298.08,234.38 302.89,237.33 307.70,240.29 312.51,243.25 317.32,246.20 322.13,249.16 326.94,252.11 331.75,255.07 336.56,258.03 341.37,260.98 346.18,263.94 350.99,266.89 355.80,269.85 360.61,272.81 365.42,275.76 370.23,278.72 375.04,281.67 379.85,284.63 384.66,287.59 389.47,290.54 394.28,293.50 399.09,296.46 403.90,299.41 408.71,302.37 413.52,305.32 418.33,308.28 423.14,311.24 427.95,314.19 432.76,317.15 437.57,320.10 442.38,323.06 447.19,326.02 452.00,328.97"/>
<circle cx="294.97" cy="232.47" r="4.6" fill="#ffffff" stroke="#ff7f0e" stroke-width="2"/>
<text x="300.97" y="226.47" font-family="Arial, sans-serif" font-size="10" fill="#ff7f0e">min 328 ohm</text>
<polyline fill="none" stroke="#2ca02c" stroke-width="1.1" stroke-dasharray="6 4" points="72.00,81.03 76.81,83.98 81.62,86.94 86.43,89.90 91.24,92.85 96.05,95.81 100.86,98.76 105.67,101.72 110.48,104.68 115.29,107.63 120.10,110.59 124.91,113.54 129.72,116.50 134.53,119.46 139.34,122.41 144.15,125.37 148.96,128.33 153.77,131.28 158.58,134.24 163.39,137.19 168.20,140.15 173.01,143.11 177.82,146.06 182.63,149.02 187.44,151.97 192.25,154.93 197.06,157.89 201.87,160.84 206.68,163.80 211.49,166.75 216.30,169.71 221.11,172.67 225.92,175.62 230.73,178.58 235.54,181.53 240.35,184.49 245.16,187.45 249.97,190.40 254.78,193.36 259.59,196.31 264.41,199.27 269.22,202.23 274.03,205.18 278.84,208.14 283.65,211.09 288.46,214.05 293.27,217.01 298.08,219.96 302.89,222.92 307.70,225.87 312.51,228.83 317.32,231.79 322.13,234.74 326.94,237.70 331.75,240.66 336.56,243.61 341.37,246.57 346.18,249.52 350.99,252.48 355.80,255.44 360.61,258.39 365.42,261.35 370.23,264.30 375.04,267.26 379.85,270.22 384.66,273.17 389.47,276.13 394.28,279.08 399.09,282.04 403.90,285.00 408.71,287.95 413.52,290.91 418.33,293.86 423.14,296.82 427.95,299.78 432.76,302.73 437.57,305.69 442.38,308.64 447.19,311.60 452.00,314.56"/>
<circle cx="282.66" cy="210.49" r="4.6" fill="#ffffff" stroke="#2ca02c" stroke-width="2"/>
<text x="288.66" y="204.49" font-family="Arial, sans-serif" font-size="10" fill="#2ca02c">max 79.8 ohm</text>
<line x1="82.00" y1="80.00" x2="104.00" y2="80.00" stroke="#1f77b4" stroke-width="2"/>
<text x="110.00" y="84.00" font-family="Arial, sans-serif" font-size="11">typ</text>
<line x1="82.00" y1="97.00" x2="104.00" y2="97.00" stroke="#ff7f0e" stroke-width="2" stroke-dasharray="5 4"/>
<text x="110.00" y="101.00" font-family="Arial, sans-serif" font-size="11">min</text>
<line x1="82.00" y1="114.00" x2="104.00" y2="114.00" stroke="#2ca02c" stroke-width="2" stroke-dasharray="2 4"/>
<text x="110.00" y="118.00" font-family="Arial, sans-serif" font-size="11">max</text>
<text x="262.00" y="386.00" text-anchor="middle" font-family="Arial, sans-serif" font-size="11">Output voltage (V)</text>
<text transform="translate(22.00 205.00) rotate(-90)" text-anchor="middle" font-family="Arial, sans-serif" font-size="11">Current (mA)</text>
<rect x="492.00" y="62.00" width="380.00" height="286.00" fill="#fbfbfb" stroke="#c8c8c8"/>
<text x="500.00" y="50.00" font-family="Arial, sans-serif" font-size="13" font-weight="700">[Pullup] Rload to GND</text>
<line x1="492.00" y1="62.00" x2="492.00" y2="348.00" stroke="#ececec"/>
<text x="492.00" y="366.00" text-anchor="middle" font-family="Arial, sans-serif" font-size="10">-1.2</text>
<line x1="587.00" y1="62.00" x2="587.00" y2="348.00" stroke="#ececec"/>
<text x="587.00" y="366.00" text-anchor="middle" font-family="Arial, sans-serif" font-size="10">-0.341</text>
<line x1="682.00" y1="62.00" x2="682.00" y2="348.00" stroke="#ececec"/>
<text x="682.00" y="366.00" text-anchor="middle" font-family="Arial, sans-serif" font-size="10">0.55</text>
<line x1="777.00" y1="62.00" x2="777.00" y2="348.00" stroke="#ececec"/>
<text x="777.00" y="366.00" text-anchor="middle" font-family="Arial, sans-serif" font-size="10">1.4</text>
<line x1="872.00" y1="62.00" x2="872.00" y2="348.00" stroke="#ececec"/>
<text x="872.00" y="366.00" text-anchor="middle" font-family="Arial, sans-serif" font-size="10">2.3</text>
<line x1="492.00" y1="348.00" x2="872.00" y2="348.00" stroke="#ececec"/>
<text x="485.00" y="352.00" text-anchor="end" font-family="Arial, sans-serif" font-size="10">-55</text>
<line x1="492.00" y1="276.50" x2="872.00" y2="276.50" stroke="#ececec"/>
<text x="485.00" y="280.50" text-anchor="end" font-family="Arial, sans-serif" font-size="10">-33</text>
<line x1="492.00" y1="205.00" x2="872.00" y2="205.00" stroke="#ececec"/>
<text x="485.00" y="209.00" text-anchor="end" font-family="Arial, sans-serif" font-size="10">-11</text>
<line x1="492.00" y1="133.50" x2="872.00" y2="133.50" stroke="#ececec"/>
<text x="485.00" y="137.50" text-anchor="end" font-family="Arial, sans-serif" font-size="10">11</text>
<line x1="492.00" y1="62.00" x2="872.00" y2="62.00" stroke="#ececec"/>
<text x="485.00" y="66.00" text-anchor="end" font-family="Arial, sans-serif" font-size="10">33</text>
<line x1="623.36" y1="62" x2="623.36" y2="348" stroke="#777" stroke-dasharray="4 4"/>
<line x1="492.0" y1="168.96" x2="872.0" y2="168.96" stroke="#777" stroke-dasharray="4 4"/>
<polyline fill="none" stroke="#1f77b4" stroke-width="1.8" points="506.07,123.24 508.21,123.95 511.41,125.04 516.74,126.94 518.87,127.73 519.93,128.12 521.00,128.52 522.07,128.92 523.13,129.32 524.20,129.73 525.27,130.14 528.46,131.37 533.80,133.46 539.13,135.58 544.46,137.74 549.79,139.91 556.19,142.53 561.52,144.72 566.85,146.90 572.18,149.07 577.51,151.23 582.84,153.37 589.24,155.89 594.57,157.98 599.90,160.05 605.23,162.10 610.56,164.14 614.83,165.75 615.89,166.16 622.29,168.56 623.36,168.96 627.62,170.53 631.89,172.03 632.95,172.40 634.02,172.76 638.29,174.18 643.62,175.87 648.95,177.47 655.34,179.24 660.68,180.58 666.01,181.77 671.34,182.80 673.47,183.17 674.54,183.34 676.67,183.66 678.80,183.95 679.87,184.09 680.93,184.21 682.00,184.33 683.07,184.45 684.13,184.55 685.20,184.66 686.26,184.75 687.33,184.84 688.40,184.93 689.46,185.01 690.53,185.08 691.60,185.15 692.66,185.22 693.73,185.29 694.79,185.35 695.86,185.41 696.93,185.46 697.99,185.52 703.32,185.77 704.39,185.81 709.72,186.03 712.92,186.15 713.99,186.18 716.12,186.26 721.45,186.43 726.78,186.59 728.91,186.65 732.11,186.74 737.44,186.88 740.64,186.96 742.77,187.01 749.17,187.16 752.37,187.23 754.50,187.28 759.83,187.39 765.16,187.49 770.50,187.59 775.83,187.67 782.22,187.70 787.56,187.70 792.89,187.70 796.09,187.70 798.22,187.70 803.55,187.70 808.88,187.70 815.28,187.70 820.61,187.70 825.94,187.70 831.27,187.70 836.60,187.70 841.93,187.70 848.33,187.70 853.66,187.70 857.93,187.70"/>
<polyline fill="none" stroke="#ff7f0e" stroke-width="1.8" stroke-dasharray="5 4" points="506.07,138.97 508.21,139.30 511.41,139.78 516.74,140.59 518.87,140.91 519.93,141.09 521.00,141.27 522.07,141.47 523.13,141.67 524.20,141.89 525.27,142.11 528.46,142.81 533.80,144.09 539.13,145.47 544.46,146.91 549.79,148.40 556.19,150.23 561.52,151.78 566.85,153.34 572.18,154.91 577.51,156.46 582.84,158.00 589.24,159.81 594.57,161.30 599.90,162.76 605.23,164.20 610.56,165.62 614.83,166.74 615.89,167.02 622.29,168.69 623.36,168.96 627.62,170.02 631.89,171.03 632.95,171.27 634.02,171.50 638.29,172.41 643.62,173.46 648.95,174.41 655.34,175.40 660.68,176.09 666.01,176.65 671.34,177.06 673.47,177.19 674.54,177.25 676.67,177.36 678.80,177.45 679.87,177.49 680.93,177.52 682.00,177.56 683.07,177.59 684.13,177.62 685.20,177.65 686.26,177.68 687.33,177.71 688.40,177.74 689.46,177.76 690.53,177.79 691.60,177.81 692.66,177.83 693.73,177.86 694.79,177.88 695.86,177.90 696.93,177.92 697.99,177.94 703.32,178.04 704.39,178.06 709.72,178.15 712.92,178.20 713.99,178.21 716.12,178.24 721.45,178.32 726.78,178.39 728.91,178.41 732.11,178.45 737.44,178.51 740.64,178.55 742.77,178.57 749.17,178.64 752.37,178.66 754.50,178.68 759.83,178.70 765.16,178.70 770.50,178.70 775.83,178.70 782.22,178.70 787.56,178.70 792.89,178.70 796.09,178.70 798.22,178.70 803.55,178.70 808.88,178.70 815.28,178.70 820.61,178.70 825.94,178.70 831.27,178.70 836.60,178.70 841.93,178.70 848.33,178.70 853.66,178.70 857.93,178.70"/>
<polyline fill="none" stroke="#2ca02c" stroke-width="1.8" stroke-dasharray="2 4" points="506.07,105.93 508.21,107.02 511.41,108.68 516.74,111.46 518.87,112.58 519.93,113.14 521.00,113.71 522.07,114.28 523.13,114.84 524.20,115.41 525.27,115.98 528.46,117.70 533.80,120.57 539.13,123.47 544.46,126.38 549.79,129.30 556.19,132.81 561.52,135.74 566.85,138.66 572.18,141.57 577.51,144.47 582.84,147.35 589.24,150.79 594.57,153.64 599.90,156.50 605.23,159.34 610.56,162.16 614.83,164.37 615.89,164.94 622.29,168.39 623.36,168.96 627.62,171.22 631.89,173.42 632.95,173.96 634.02,174.49 638.29,176.55 643.62,179.10 648.95,181.57 655.34,184.41 660.68,186.65 666.01,188.76 671.34,190.74 673.47,191.49 674.54,191.85 676.67,192.56 678.80,193.24 679.87,193.57 680.93,193.89 682.00,194.21 683.07,194.52 684.13,194.81 685.20,195.11 686.26,195.39 687.33,195.67 688.40,195.93 689.46,196.19 690.53,196.44 691.60,196.68 692.66,196.92 693.73,197.14 694.79,197.36 695.86,197.57 696.93,197.77 697.99,197.96 703.32,198.82 704.39,198.97 709.72,199.64 712.92,199.99 713.99,200.09 716.12,200.30 721.45,200.76 726.78,201.17 728.91,201.32 732.11,201.53 737.44,201.86 740.64,202.04 742.77,202.16 749.17,202.49 752.37,202.64 754.50,202.75 759.83,202.99 765.16,203.21 770.50,203.42 775.83,203.63 782.22,203.86 787.56,204.04 792.89,204.18 796.09,204.22 798.22,204.22 803.55,204.22 808.88,204.22 815.28,204.22 820.61,204.22 825.94,204.22 831.27,204.22 836.60,204.22 841.93,204.22 848.33,204.22 853.66,204.22 857.93,204.22"/>
<polyline fill="none" stroke="#1f77b4" stroke-width="1.1" stroke-dasharray="6 4" points="492.00,321.76 496.81,318.81 501.62,315.85 506.43,312.90 511.24,309.94 516.05,306.98 520.86,304.03 525.67,301.07 530.48,298.12 535.29,295.16 540.10,292.20 544.91,289.25 549.72,286.29 554.53,283.34 559.34,280.38 564.15,277.42 568.96,274.47 573.77,271.51 578.58,268.56 583.39,265.60 588.20,262.64 593.01,259.69 597.82,256.73 602.63,253.77 607.44,250.82 612.25,247.86 617.06,244.91 621.87,241.95 626.68,238.99 631.49,236.04 636.30,233.08 641.11,230.13 645.92,227.17 650.73,224.21 655.54,221.26 660.35,218.30 665.16,215.35 669.97,212.39 674.78,209.43 679.59,206.48 684.41,203.52 689.22,200.57 694.03,197.61 698.84,194.65 703.65,191.70 708.46,188.74 713.27,185.79 718.08,182.83 722.89,179.87 727.70,176.92 732.51,173.96 737.32,171.01 742.13,168.05 746.94,165.09 751.75,162.14 756.56,159.18 761.37,156.23 766.18,153.27 770.99,150.31 775.80,147.36 780.61,144.40 785.42,141.44 790.23,138.49 795.04,135.53 799.85,132.58 804.66,129.62 809.47,126.66 814.28,123.71 819.09,120.75 823.90,117.80 828.71,114.84 833.52,111.88 838.33,108.93 843.14,105.97 847.95,103.02 852.76,100.06 857.57,97.10 862.38,94.15 867.19,91.19 872.00,88.24"/>
<circle cx="712.69" cy="186.14" r="4.6" fill="#ffffff" stroke="#1f77b4" stroke-width="2"/>
<text x="718.69" y="180.14" font-family="Arial, sans-serif" font-size="10" fill="#1f77b4">typ 160 ohm</text>
<polyline fill="none" stroke="#ff7f0e" stroke-width="1.1" stroke-dasharray="6 4" points="492.00,314.56 496.81,311.60 501.62,308.64 506.43,305.69 511.24,302.73 516.05,299.78 520.86,296.82 525.67,293.86 530.48,290.91 535.29,287.95 540.10,285.00 544.91,282.04 549.72,279.08 554.53,276.13 559.34,273.17 564.15,270.22 568.96,267.26 573.77,264.30 578.58,261.35 583.39,258.39 588.20,255.44 593.01,252.48 597.82,249.52 602.63,246.57 607.44,243.61 612.25,240.66 617.06,237.70 621.87,234.74 626.68,231.79 631.49,228.83 636.30,225.87 641.11,222.92 645.92,219.96 650.73,217.01 655.54,214.05 660.35,211.09 665.16,208.14 669.97,205.18 674.78,202.23 679.59,199.27 684.41,196.31 689.22,193.36 694.03,190.40 698.84,187.45 703.65,184.49 708.46,181.53 713.27,178.58 718.08,175.62 722.89,172.67 727.70,169.71 732.51,166.75 737.32,163.80 742.13,160.84 746.94,157.89 751.75,154.93 756.56,151.97 761.37,149.02 766.18,146.06 770.99,143.11 775.80,140.15 780.61,137.19 785.42,134.24 790.23,131.28 795.04,128.33 799.85,125.37 804.66,122.41 809.47,119.46 814.28,116.50 819.09,113.54 823.90,110.59 828.71,107.63 833.52,104.68 838.33,101.72 843.14,98.76 847.95,95.81 852.76,92.85 857.57,89.90 862.38,86.94 867.19,83.98 872.00,81.03"/>
<circle cx="713.86" cy="178.21" r="4.6" fill="#ffffff" stroke="#ff7f0e" stroke-width="2"/>
<text x="719.86" y="172.21" font-family="Arial, sans-serif" font-size="10" fill="#ff7f0e">min 301 ohm</text>
<polyline fill="none" stroke="#2ca02c" stroke-width="1.1" stroke-dasharray="6 4" points="492.00,328.97 496.81,326.02 501.62,323.06 506.43,320.10 511.24,317.15 516.05,314.19 520.86,311.24 525.67,308.28 530.48,305.32 535.29,302.37 540.10,299.41 544.91,296.46 549.72,293.50 554.53,290.54 559.34,287.59 564.15,284.63 568.96,281.67 573.77,278.72 578.58,275.76 583.39,272.81 588.20,269.85 593.01,266.89 597.82,263.94 602.63,260.98 607.44,258.03 612.25,255.07 617.06,252.11 621.87,249.16 626.68,246.20 631.49,243.25 636.30,240.29 641.11,237.33 645.92,234.38 650.73,231.42 655.54,228.47 660.35,225.51 665.16,222.55 669.97,219.60 674.78,216.64 679.59,213.69 684.41,210.73 689.22,207.77 694.03,204.82 698.84,201.86 703.65,198.91 708.46,195.95 713.27,192.99 718.08,190.04 722.89,187.08 727.70,184.13 732.51,181.17 737.32,178.21 742.13,175.26 746.94,172.30 751.75,169.34 756.56,166.39 761.37,163.43 766.18,160.48 770.99,157.52 775.80,154.56 780.61,151.61 785.42,148.65 790.23,145.70 795.04,142.74 799.85,139.78 804.66,136.83 809.47,133.87 814.28,130.92 819.09,127.96 823.90,125.00 828.71,122.05 833.52,119.09 838.33,116.14 843.14,113.18 847.95,110.22 852.76,107.27 857.57,104.31 862.38,101.36 867.19,98.40 872.00,95.44"/>
<circle cx="703.70" cy="198.87" r="4.6" fill="#ffffff" stroke="#2ca02c" stroke-width="2"/>
<text x="709.70" y="192.87" font-family="Arial, sans-serif" font-size="10" fill="#2ca02c">max 82.5 ohm</text>
<line x1="502.00" y1="80.00" x2="524.00" y2="80.00" stroke="#1f77b4" stroke-width="2"/>
<text x="530.00" y="84.00" font-family="Arial, sans-serif" font-size="11">typ</text>
<line x1="502.00" y1="97.00" x2="524.00" y2="97.00" stroke="#ff7f0e" stroke-width="2" stroke-dasharray="5 4"/>
<text x="530.00" y="101.00" font-family="Arial, sans-serif" font-size="11">min</text>
<line x1="502.00" y1="114.00" x2="524.00" y2="114.00" stroke="#2ca02c" stroke-width="2" stroke-dasharray="2 4"/>
<text x="530.00" y="118.00" font-family="Arial, sans-serif" font-size="11">max</text>
<text x="682.00" y="386.00" text-anchor="middle" font-family="Arial, sans-serif" font-size="11">Vcc-relative table voltage (V)</text>
<text transform="translate(442.00 205.00) rotate(-90)" text-anchor="middle" font-family="Arial, sans-serif" font-size="11">Current (mA)</text>
<rect x="72.00" y="418.00" width="800.00" height="144.00" fill="#ffffff" stroke="#c8c8c8"/>
<text x="82.00" y="436.00" font-family="Arial, sans-serif" font-size="12" font-weight="700">Operating-point summary</text>
<text x="82.00" y="454.00" font-family="Arial, sans-serif" font-size="10" font-weight="700" fill="#333">Table</text>
<text x="174.00" y="454.00" font-family="Arial, sans-serif" font-size="10" font-weight="700" fill="#333">Corner</text>
<text x="242.00" y="454.00" font-family="Arial, sans-serif" font-size="10" font-weight="700" fill="#333">Vout</text>
<text x="332.00" y="454.00" font-family="Arial, sans-serif" font-size="10" font-weight="700" fill="#333">Iop</text>
<text x="422.00" y="454.00" font-family="Arial, sans-serif" font-size="10" font-weight="700" fill="#333">Zout</text>
<text x="512.00" y="454.00" font-family="Arial, sans-serif" font-size="10" font-weight="700" fill="#333">Rseries</text>
<text x="82.00" y="473.00" font-family="Arial, sans-serif" font-size="10" fill="#1f77b4">pulldown</text>
<text x="174.00" y="473.00" font-family="Arial, sans-serif" font-size="10" fill="#1f77b4">typ</text>
<text x="242.00" y="473.00" font-family="Arial, sans-serif" font-size="10" fill="#1f77b4">0.8413 V</text>
<text x="332.00" y="473.00" font-family="Arial, sans-serif" font-size="10" fill="#1f77b4">5.2 mA</text>
<text x="422.00" y="473.00" font-family="Arial, sans-serif" font-size="10" fill="#1f77b4">163 ohm</text>
<text x="512.00" y="473.00" font-family="Arial, sans-serif" font-size="10" fill="#1f77b4">-113 ohm</text>
<text x="82.00" y="492.00" font-family="Arial, sans-serif" font-size="10" fill="#ff7f0e">pulldown</text>
<text x="174.00" y="492.00" font-family="Arial, sans-serif" font-size="10" fill="#ff7f0e">min</text>
<text x="242.00" y="492.00" font-family="Arial, sans-serif" font-size="10" fill="#ff7f0e">0.8592 V</text>
<text x="332.00" y="492.00" font-family="Arial, sans-serif" font-size="10" fill="#ff7f0e">2.6 mA</text>
<text x="422.00" y="492.00" font-family="Arial, sans-serif" font-size="10" fill="#ff7f0e">328 ohm</text>
<text x="512.00" y="492.00" font-family="Arial, sans-serif" font-size="10" fill="#ff7f0e">-278 ohm</text>
<text x="82.00" y="511.00" font-family="Arial, sans-serif" font-size="10" fill="#2ca02c">pulldown</text>
<text x="174.00" y="511.00" font-family="Arial, sans-serif" font-size="10" fill="#2ca02c">max</text>
<text x="242.00" y="511.00" font-family="Arial, sans-serif" font-size="10" fill="#2ca02c">0.7438 V</text>
<text x="332.00" y="511.00" font-family="Arial, sans-serif" font-size="10" fill="#2ca02c">9.3 mA</text>
<text x="422.00" y="511.00" font-family="Arial, sans-serif" font-size="10" fill="#2ca02c">79.8 ohm</text>
<text x="512.00" y="511.00" font-family="Arial, sans-serif" font-size="10" fill="#2ca02c">-29.8 ohm</text>
<text x="82.00" y="530.00" font-family="Arial, sans-serif" font-size="10" fill="#1f77b4">pullup</text>
<text x="174.00" y="530.00" font-family="Arial, sans-serif" font-size="10" fill="#1f77b4">typ</text>
<text x="242.00" y="530.00" font-family="Arial, sans-serif" font-size="10" fill="#1f77b4">0.2621 V</text>
<text x="332.00" y="530.00" font-family="Arial, sans-serif" font-size="10" fill="#1f77b4">-5.2 mA</text>
<text x="422.00" y="530.00" font-family="Arial, sans-serif" font-size="10" fill="#1f77b4">160 ohm</text>
<text x="512.00" y="530.00" font-family="Arial, sans-serif" font-size="10" fill="#1f77b4">-110 ohm</text>
<text x="82.00" y="549.00" font-family="Arial, sans-serif" font-size="10" fill="#ff7f0e">pullup</text>
<text x="174.00" y="549.00" font-family="Arial, sans-serif" font-size="10" fill="#ff7f0e">min</text>
<text x="242.00" y="549.00" font-family="Arial, sans-serif" font-size="10" fill="#ff7f0e">0.1411 V</text>
<text x="332.00" y="549.00" font-family="Arial, sans-serif" font-size="10" fill="#ff7f0e">-2.8 mA</text>
<text x="422.00" y="549.00" font-family="Arial, sans-serif" font-size="10" fill="#ff7f0e">301 ohm</text>
<text x="512.00" y="549.00" font-family="Arial, sans-serif" font-size="10" fill="#ff7f0e">-251 ohm</text>
<text x="82.00" y="568.00" font-family="Arial, sans-serif" font-size="10" fill="#2ca02c">pullup</text>
<text x="174.00" y="568.00" font-family="Arial, sans-serif" font-size="10" fill="#2ca02c">max</text>
<text x="242.00" y="568.00" font-family="Arial, sans-serif" font-size="10" fill="#2ca02c">0.4565 V</text>
<text x="332.00" y="568.00" font-family="Arial, sans-serif" font-size="10" fill="#2ca02c">-9.1 mA</text>
<text x="422.00" y="568.00" font-family="Arial, sans-serif" font-size="10" fill="#2ca02c">82.5 ohm</text>
<text x="512.00" y="568.00" font-family="Arial, sans-serif" font-size="10" fill="#2ca02c">-32.5 ohm</text>
</svg>