<svg xmlns="http://www.w3.org/2000/svg" width="900" height="620" viewBox="0 0 900 620">
<rect width="100%" height="100%" fill="#ffffff"/>
<text x="72" y="26" font-family="Arial, sans-serif" font-size="16" font-weight="700">E34_GPIO_I3C_I2C_SLV_1V2_10 Zout Load-Line Curves</text>
<text x="72" y="45" font-family="Arial, sans-serif" font-size="11" fill="#555">Rload=50 ohm; solid=device I-V, dashed=load line, circles=operating points</text>
<rect x="72.00" y="62.00" width="380.00" height="286.00" fill="#fbfbfb" stroke="#c8c8c8"/>
<text x="80.00" y="50.00" font-family="Arial, sans-serif" font-size="13" font-weight="700">[Pulldown] Rload to Vdd</text>
<line x1="72.00" y1="62.00" x2="72.00" y2="348.00" stroke="#ececec"/>
<text x="72.00" y="366.00" text-anchor="middle" font-family="Arial, sans-serif" font-size="10">-1.3</text>
<line x1="167.00" y1="62.00" x2="167.00" y2="348.00" stroke="#ececec"/>
<text x="167.00" y="366.00" text-anchor="middle" font-family="Arial, sans-serif" font-size="10">-0.372</text>
<line x1="262.00" y1="62.00" x2="262.00" y2="348.00" stroke="#ececec"/>
<text x="262.00" y="366.00" text-anchor="middle" font-family="Arial, sans-serif" font-size="10">0.6</text>
<line x1="357.00" y1="62.00" x2="357.00" y2="348.00" stroke="#ececec"/>
<text x="357.00" y="366.00" text-anchor="middle" font-family="Arial, sans-serif" font-size="10">1.6</text>
<line x1="452.00" y1="62.00" x2="452.00" y2="348.00" stroke="#ececec"/>
<text x="452.00" y="366.00" text-anchor="middle" font-family="Arial, sans-serif" font-size="10">2.5</text>
<line x1="72.00" y1="348.00" x2="452.00" y2="348.00" stroke="#ececec"/>
<text x="65.00" y="352.00" text-anchor="end" font-family="Arial, sans-serif" font-size="10">-86</text>
<line x1="72.00" y1="276.50" x2="452.00" y2="276.50" stroke="#ececec"/>
<text x="65.00" y="280.50" text-anchor="end" font-family="Arial, sans-serif" font-size="10">-46</text>
<line x1="72.00" y1="205.00" x2="452.00" y2="205.00" stroke="#ececec"/>
<text x="65.00" y="209.00" text-anchor="end" font-family="Arial, sans-serif" font-size="10">-6.2</text>
<line x1="72.00" y1="133.50" x2="452.00" y2="133.50" stroke="#ececec"/>
<text x="65.00" y="137.50" text-anchor="end" font-family="Arial, sans-serif" font-size="10">34</text>
<line x1="72.00" y1="62.00" x2="452.00" y2="62.00" stroke="#ececec"/>
<text x="65.00" y="66.00" text-anchor="end" font-family="Arial, sans-serif" font-size="10">74</text>
<line x1="203.36" y1="62" x2="203.36" y2="348" stroke="#777" stroke-dasharray="4 4"/>
<line x1="72.0" y1="193.94" x2="452.0" y2="193.94" stroke="#777" stroke-dasharray="4 4"/>
<polyline fill="none" stroke="#1f77b4" stroke-width="1.8" points="86.07,286.33 91.94,286.33 96.83,286.33 102.69,286.33 108.55,286.33 113.44,286.33 118.33,286.33 119.30,286.33 120.28,286.33 121.26,286.33 122.24,286.33 123.21,286.20 124.19,285.96 125.17,285.64 126.15,285.26 127.12,284.84 128.10,284.37 129.08,283.87 130.06,283.35 131.03,282.79 132.01,282.22 132.99,281.61 135.92,279.67 140.81,275.93 142.76,274.25 143.74,273.37 144.72,272.46 145.69,271.53 146.67,270.56 147.65,269.57 148.63,268.56 149.60,267.51 150.58,266.44 151.56,265.34 152.53,264.21 153.51,263.06 154.49,261.89 155.47,260.69 157.42,258.22 163.29,250.36 169.15,241.99 174.04,234.84 179.90,226.22 185.77,217.70 190.65,210.75 196.52,202.72 201.40,196.38 203.36,193.94 207.27,189.28 213.13,182.86 218.02,178.08 223.88,173.11 226.81,170.95 227.79,170.27 229.75,169.00 230.72,168.40 231.70,167.82 234.63,166.23 239.52,164.06 240.50,163.69 246.36,161.92 251.25,160.92 257.11,160.12 260.05,159.82 262.98,159.56 267.86,159.19 273.73,158.80 278.62,158.52 284.48,158.21 290.34,157.92 295.23,157.69 301.09,157.44 306.96,157.20 308.91,157.12 311.85,157.01 317.71,156.79 320.64,156.68 323.57,156.57 328.46,156.40 332.37,156.26 334.33,156.20 339.21,156.03 345.08,155.84 350.94,155.64 355.83,155.47 361.69,155.23 367.56,154.87 372.44,154.41 378.31,153.56 384.17,152.31 389.06,150.92 394.92,148.79 400.79,146.15 405.67,143.59 411.54,140.09 416.42,136.85 422.29,132.61 428.15,128.00 433.04,123.90 437.93,119.59"/>
<polyline fill="none" stroke="#ff7f0e" stroke-width="1.8" stroke-dasharray="5 4" points="86.07,252.87 91.94,252.87 96.83,252.87 102.69,252.87 108.55,252.87 113.44,252.87 118.33,252.87 119.30,252.87 120.28,252.87 121.26,252.87 122.24,252.87 123.21,252.87 124.19,252.87 125.17,252.87 126.15,252.87 127.12,252.87 128.10,252.84 129.08,252.72 130.06,252.50 131.03,252.22 132.01,251.87 132.99,251.49 135.92,250.11 140.81,247.34 142.76,246.10 143.74,245.46 144.72,244.79 145.69,244.12 146.67,243.42 147.65,242.71 148.63,241.98 149.60,241.24 150.58,240.48 151.56,239.71 152.53,238.92 153.51,238.12 154.49,237.31 155.47,236.48 157.42,234.79 163.29,229.46 169.15,223.86 174.04,219.13 179.90,213.52 185.77,208.12 190.65,203.84 196.52,199.03 201.40,195.33 203.36,193.94 207.27,191.31 213.13,187.76 218.02,185.18 223.88,182.55 226.81,181.43 227.79,181.09 229.75,180.44 230.72,180.14 231.70,179.85 234.63,179.07 239.52,178.04 240.50,177.87 246.36,177.09 251.25,176.68 257.11,176.35 260.05,176.22 262.98,176.10 267.86,175.93 273.73,175.74 278.62,175.60 284.48,175.44 290.34,175.29 295.23,175.17 301.09,175.04 306.96,174.91 308.91,174.87 311.85,174.81 317.71,174.70 320.64,174.64 323.57,174.58 328.46,174.49 332.37,174.41 334.33,174.37 339.21,174.27 345.08,174.10 350.94,173.85 355.83,173.54 361.69,172.99 367.56,172.21 372.44,171.35 378.31,170.04 384.17,168.42 389.06,166.84 394.92,164.65 400.79,162.15 405.67,159.84 411.54,156.81 416.42,154.10 422.29,150.81 428.15,147.53 433.04,144.79 437.93,142.05"/>
<polyline fill="none" stroke="#2ca02c" stroke-width="1.8" stroke-dasharray="2 4" points="86.07,320.32 91.94,320.32 96.83,320.32 102.69,320.32 108.55,320.32 113.44,320.32 118.33,320.32 119.30,320.17 120.28,319.91 121.26,319.59 122.24,319.22 123.21,318.82 124.19,318.39 125.17,317.93 126.15,317.45 127.12,316.95 128.10,316.43 129.08,315.88 130.06,315.32 131.03,314.73 132.01,314.11 132.99,313.48 135.92,311.39 140.81,307.31 142.76,305.43 143.74,304.43 144.72,303.39 145.69,302.31 146.67,301.19 147.65,300.03 148.63,298.82 149.60,297.57 150.58,296.28 151.56,294.95 152.53,293.57 153.51,292.14 154.49,290.68 155.47,289.18 157.42,286.05 163.29,275.85 169.15,264.70 174.04,254.95 179.90,242.90 185.77,230.59 190.65,220.24 196.52,207.90 201.40,197.86 203.36,193.94 207.27,186.34 213.13,175.68 218.02,167.61 223.88,159.06 226.81,155.29 227.79,154.10 229.75,151.85 230.72,150.78 231.70,149.75 234.63,146.87 239.52,142.82 240.50,142.11 246.36,138.58 251.25,136.44 257.11,134.64 260.05,133.97 262.98,133.40 267.86,132.64 273.73,131.90 278.62,131.38 284.48,130.83 290.34,130.34 295.23,129.96 301.09,129.53 306.96,129.13 308.91,129.00 311.85,128.81 317.71,128.44 320.64,128.27 323.57,128.09 328.46,127.81 332.37,127.58 334.33,127.48 339.21,127.21 345.08,126.89 350.94,126.58 355.83,126.33 361.69,126.03 367.56,125.73 372.44,125.46 378.31,125.02 384.17,124.33 389.06,123.42 394.92,121.79 400.79,119.44 405.67,116.90 411.54,113.19 416.42,109.59 422.29,104.75 428.15,99.43 433.04,94.68 437.93,89.68"/>
<polyline fill="none" stroke="#1f77b4" stroke-width="1.1" stroke-dasharray="6 4" points="72.00,103.22 76.81,104.97 81.62,106.73 86.43,108.48 91.24,110.24 96.05,111.99 100.86,113.75 105.67,115.50 110.48,117.26 115.29,119.01 120.10,120.77 124.91,122.52 129.72,124.28 134.53,126.03 139.34,127.79 144.15,129.54 148.96,131.30 153.77,133.05 158.58,134.81 163.39,136.56 168.20,138.32 173.01,140.07 177.82,141.83 182.63,143.58 187.44,145.34 192.25,147.10 197.06,148.85 201.87,150.61 206.68,152.36 211.49,154.12 216.30,155.87 221.11,157.63 225.92,159.38 230.73,161.14 235.54,162.89 240.35,164.65 245.16,166.40 249.97,168.16 254.78,169.91 259.59,171.67 264.41,173.42 269.22,175.18 274.03,176.93 278.84,178.69 283.65,180.44 288.46,182.20 293.27,183.95 298.08,185.71 302.89,187.46 307.70,189.22 312.51,190.97 317.32,192.73 322.13,194.48 326.94,196.24 331.75,197.99 336.56,199.75 341.37,201.50 346.18,203.26 350.99,205.01 355.80,206.77 360.61,208.52 365.42,210.28 370.23,212.04 375.04,213.79 379.85,215.55 384.66,217.30 389.47,219.06 394.28,220.81 399.09,222.57 403.90,224.32 408.71,226.08 413.52,227.83 418.33,229.59 423.14,231.34 427.95,233.10 432.76,234.85 437.57,236.61 442.38,238.36 447.19,240.12 452.00,241.87"/>
<circle cx="239.17" cy="164.21" r="4.6" fill="#ffffff" stroke="#1f77b4" stroke-width="2"/>
<text x="245.17" y="158.21" font-family="Arial, sans-serif" font-size="10" fill="#1f77b4">typ 22 ohm</text>
<polyline fill="none" stroke="#ff7f0e" stroke-width="1.1" stroke-dasharray="6 4" points="72.00,107.50 76.81,109.25 81.62,111.01 86.43,112.76 91.24,114.52 96.05,116.27 100.86,118.03 105.67,119.78 110.48,121.54 115.29,123.29 120.10,125.05 124.91,126.80 129.72,128.56 134.53,130.31 139.34,132.07 144.15,133.82 148.96,135.58 153.77,137.33 158.58,139.09 163.39,140.84 168.20,142.60 173.01,144.35 177.82,146.11 182.63,147.86 187.44,149.62 192.25,151.37 197.06,153.13 201.87,154.88 206.68,156.64 211.49,158.40 216.30,160.15 221.11,161.91 225.92,163.66 230.73,165.42 235.54,167.17 240.35,168.93 245.16,170.68 249.97,172.44 254.78,174.19 259.59,175.95 264.41,177.70 269.22,179.46 274.03,181.21 278.84,182.97 283.65,184.72 288.46,186.48 293.27,188.23 298.08,189.99 302.89,191.74 307.70,193.50 312.51,195.25 317.32,197.01 322.13,198.76 326.94,200.52 331.75,202.27 336.56,204.03 341.37,205.78 346.18,207.54 350.99,209.29 355.80,211.05 360.61,212.80 365.42,214.56 370.23,216.31 375.04,218.07 379.85,219.82 384.66,221.58 389.47,223.34 394.28,225.09 399.09,226.85 403.90,228.60 408.71,230.36 413.52,232.11 418.33,233.87 423.14,235.62 427.95,237.38 432.76,239.13 437.57,240.89 442.38,242.64 447.19,244.40 452.00,246.15"/>
<circle cx="260.31" cy="176.21" r="4.6" fill="#ffffff" stroke="#ff7f0e" stroke-width="2"/>
<text x="266.31" y="170.21" font-family="Arial, sans-serif" font-size="10" fill="#ff7f0e">min 58.6 ohm</text>
<polyline fill="none" stroke="#2ca02c" stroke-width="1.1" stroke-dasharray="6 4" points="72.00,98.94 76.81,100.69 81.62,102.45 86.43,104.20 91.24,105.96 96.05,107.71 100.86,109.47 105.67,111.22 110.48,112.98 115.29,114.73 120.10,116.49 124.91,118.24 129.72,120.00 134.53,121.75 139.34,123.51 144.15,125.26 148.96,127.02 153.77,128.77 158.58,130.53 163.39,132.28 168.20,134.04 173.01,135.80 177.82,137.55 182.63,139.31 187.44,141.06 192.25,142.82 197.06,144.57 201.87,146.33 206.68,148.08 211.49,149.84 216.30,151.59 221.11,153.35 225.92,155.10 230.73,156.86 235.54,158.61 240.35,160.37 245.16,162.12 249.97,163.88 254.78,165.63 259.59,167.39 264.41,169.14 269.22,170.90 274.03,172.65 278.84,174.41 283.65,176.16 288.46,177.92 293.27,179.67 298.08,181.43 302.89,183.18 307.70,184.94 312.51,186.69 317.32,188.45 322.13,190.20 326.94,191.96 331.75,193.71 336.56,195.47 341.37,197.22 346.18,198.98 350.99,200.73 355.80,202.49 360.61,204.25 365.42,206.00 370.23,207.76 375.04,209.51 379.85,211.27 384.66,213.02 389.47,214.78 394.28,216.53 399.09,218.29 403.90,220.04 408.71,221.80 413.52,223.55 418.33,225.31 423.14,227.06 427.95,228.82 432.76,230.57 437.57,232.33 442.38,234.08 447.19,235.84 452.00,237.59"/>
<circle cx="226.73" cy="155.40" r="4.6" fill="#ffffff" stroke="#2ca02c" stroke-width="2"/>
<text x="232.73" y="149.40" font-family="Arial, sans-serif" font-size="10" fill="#2ca02c">max 11.1 ohm</text>
<line x1="82.00" y1="80.00" x2="104.00" y2="80.00" stroke="#1f77b4" stroke-width="2"/>
<text x="110.00" y="84.00" font-family="Arial, sans-serif" font-size="11">typ</text>
<line x1="82.00" y1="97.00" x2="104.00" y2="97.00" stroke="#ff7f0e" stroke-width="2" stroke-dasharray="5 4"/>
<text x="110.00" y="101.00" font-family="Arial, sans-serif" font-size="11">min</text>
<line x1="82.00" y1="114.00" x2="104.00" y2="114.00" stroke="#2ca02c" stroke-width="2" stroke-dasharray="2 4"/>
<text x="110.00" y="118.00" font-family="Arial, sans-serif" font-size="11">max</text>
<text x="262.00" y="386.00" text-anchor="middle" font-family="Arial, sans-serif" font-size="11">Output voltage (V)</text>
<text transform="translate(22.00 205.00) rotate(-90)" text-anchor="middle" font-family="Arial, sans-serif" font-size="11">Current (mA)</text>
<rect x="492.00" y="62.00" width="380.00" height="286.00" fill="#fbfbfb" stroke="#c8c8c8"/>
<text x="500.00" y="50.00" font-family="Arial, sans-serif" font-size="13" font-weight="700">[Pullup] Rload to GND</text>
<line x1="492.00" y1="62.00" x2="492.00" y2="348.00" stroke="#ececec"/>
<text x="492.00" y="366.00" text-anchor="middle" font-family="Arial, sans-serif" font-size="10">-1.3</text>
<line x1="587.00" y1="62.00" x2="587.00" y2="348.00" stroke="#ececec"/>
<text x="587.00" y="366.00" text-anchor="middle" font-family="Arial, sans-serif" font-size="10">-0.372</text>
<line x1="682.00" y1="62.00" x2="682.00" y2="348.00" stroke="#ececec"/>
<text x="682.00" y="366.00" text-anchor="middle" font-family="Arial, sans-serif" font-size="10">0.6</text>
<line x1="777.00" y1="62.00" x2="777.00" y2="348.00" stroke="#ececec"/>
<text x="777.00" y="366.00" text-anchor="middle" font-family="Arial, sans-serif" font-size="10">1.6</text>
<line x1="872.00" y1="62.00" x2="872.00" y2="348.00" stroke="#ececec"/>
<text x="872.00" y="366.00" text-anchor="middle" font-family="Arial, sans-serif" font-size="10">2.5</text>
<line x1="492.00" y1="348.00" x2="872.00" y2="348.00" stroke="#ececec"/>
<text x="485.00" y="352.00" text-anchor="end" font-family="Arial, sans-serif" font-size="10">-68</text>
<line x1="492.00" y1="276.50" x2="872.00" y2="276.50" stroke="#ececec"/>
<text x="485.00" y="280.50" text-anchor="end" font-family="Arial, sans-serif" font-size="10">-23</text>
<line x1="492.00" y1="205.00" x2="872.00" y2="205.00" stroke="#ececec"/>
<text x="485.00" y="209.00" text-anchor="end" font-family="Arial, sans-serif" font-size="10">22</text>
<line x1="492.00" y1="133.50" x2="872.00" y2="133.50" stroke="#ececec"/>
<text x="485.00" y="137.50" text-anchor="end" font-family="Arial, sans-serif" font-size="10">66</text>
<line x1="492.00" y1="62.00" x2="872.00" y2="62.00" stroke="#ececec"/>
<text x="485.00" y="66.00" text-anchor="end" font-family="Arial, sans-serif" font-size="10">1.1e+02</text>
<line x1="623.36" y1="62" x2="623.36" y2="348" stroke="#777" stroke-dasharray="4 4"/>
<line x1="492.0" y1="239.66" x2="872.0" y2="239.66" stroke="#777" stroke-dasharray="4 4"/>
<polyline fill="none" stroke="#1f77b4" stroke-width="1.8" points="506.07,122.84 511.94,129.77 516.83,135.49 522.69,142.27 528.55,148.96 533.44,154.46 539.30,160.96 544.19,166.29 550.06,172.57 555.92,178.74 560.81,183.77 566.67,189.70 572.53,195.49 577.42,200.22 583.29,205.77 589.15,211.18 594.04,215.58 599.90,220.73 605.77,225.73 610.65,229.77 612.61,231.34 615.54,233.67 616.52,234.43 621.40,238.19 623.36,239.66 627.27,242.47 628.24,243.14 629.22,243.80 630.20,244.44 631.18,245.07 632.15,245.69 633.13,246.30 638.02,249.17 640.95,250.75 641.93,251.25 642.91,251.74 643.88,252.22 644.86,252.69 645.84,253.14 646.81,253.59 648.77,254.43 649.75,254.84 650.72,255.23 651.70,255.61 652.68,255.98 653.66,256.33 654.63,256.68 655.61,257.01 656.59,257.32 658.54,257.92 659.52,258.20 661.48,258.72 662.45,258.97 663.43,259.20 665.38,259.63 666.36,259.83 669.29,260.36 671.25,260.68 675.16,261.21 677.11,261.43 682.98,262.00 687.86,262.38 691.77,262.65 693.73,262.77 698.62,263.05 704.48,263.35 710.34,263.63 715.23,263.83 721.09,264.07 726.96,264.28 728.91,264.35 731.85,264.45 737.71,264.64 740.64,264.73 743.57,264.82 748.46,264.97 752.37,265.08 754.33,265.13 759.21,265.26 765.08,265.42 770.94,265.57 775.83,265.69 781.69,265.83 787.56,265.97 792.44,266.08 798.31,266.21 804.17,266.33 808.08,266.42 809.06,266.44 814.92,266.56 820.79,266.68 825.67,266.78 827.63,266.81 831.54,266.81 836.42,266.81 842.29,266.81 845.22,266.81 848.15,266.81 853.04,266.81 857.93,266.81"/>
<polyline fill="none" stroke="#ff7f0e" stroke-width="1.8" stroke-dasharray="5 4" points="506.07,156.76 511.94,162.06 516.83,166.48 522.69,171.75 528.55,176.90 533.44,181.08 539.30,185.98 544.19,189.95 550.06,194.59 555.92,199.08 560.81,202.71 566.67,206.92 572.53,210.97 577.42,214.23 583.29,218.00 589.15,221.61 594.04,224.50 599.90,227.83 605.77,231.01 610.65,233.53 612.61,234.52 615.54,235.96 616.52,236.44 621.40,238.76 623.36,239.66 627.27,241.37 628.24,241.77 629.22,242.16 630.20,242.55 631.18,242.92 632.15,243.29 633.13,243.64 638.02,245.29 640.95,246.18 641.93,246.46 642.91,246.73 643.88,246.99 644.86,247.25 645.84,247.49 646.81,247.73 648.77,248.18 649.75,248.40 650.72,248.60 651.70,248.80 652.68,248.98 653.66,249.16 654.63,249.33 655.61,249.50 656.59,249.65 658.54,249.94 659.52,250.07 661.48,250.31 662.45,250.41 663.43,250.52 665.38,250.70 666.36,250.78 669.29,251.00 671.25,251.13 675.16,251.33 677.11,251.42 682.98,251.65 687.86,251.81 691.77,251.92 693.73,251.98 698.62,252.10 704.48,252.24 710.34,252.37 715.23,252.47 721.09,252.58 726.96,252.68 728.91,252.71 731.85,252.76 737.71,252.85 740.64,252.90 743.57,252.94 748.46,253.02 752.37,253.07 754.33,253.10 759.21,253.16 765.08,253.24 770.94,253.32 775.83,253.38 781.69,253.45 787.56,253.52 792.44,253.58 798.31,253.64 804.17,253.71 808.08,253.75 809.06,253.75 814.92,253.75 820.79,253.75 825.67,253.75 827.63,253.75 831.54,253.75 836.42,253.75 842.29,253.75 845.22,253.75 848.15,253.75 853.04,253.75 857.93,253.75"/>
<polyline fill="none" stroke="#2ca02c" stroke-width="1.8" stroke-dasharray="2 4" points="506.07,89.68 511.94,97.53 516.83,104.05 522.69,111.85 528.55,119.63 533.44,126.07 539.30,133.77 544.19,140.15 550.06,147.75 555.92,155.30 560.81,161.56 566.67,169.02 572.53,176.45 577.42,182.63 583.29,190.04 589.15,197.43 594.04,203.58 599.90,210.95 605.77,218.28 610.65,224.31 612.61,226.67 615.54,230.11 616.52,231.30 621.40,237.32 623.36,239.66 627.27,244.19 628.24,245.29 629.22,246.36 630.20,247.42 631.18,248.45 632.15,249.45 633.13,250.41 638.02,255.01 640.95,257.62 641.93,258.45 642.91,259.27 643.88,260.08 644.86,260.86 645.84,261.63 646.81,262.38 648.77,263.83 649.75,264.52 650.72,265.20 651.70,265.86 652.68,266.51 653.66,267.13 654.63,267.74 655.61,268.33 656.59,268.90 658.54,270.00 659.52,270.52 661.48,271.51 662.45,271.97 663.43,272.43 665.38,273.28 666.36,273.68 669.29,274.80 671.25,275.47 675.16,276.66 677.11,277.18 682.98,278.51 687.86,279.39 691.77,279.99 693.73,280.26 698.62,280.87 704.48,281.49 710.34,282.04 715.23,282.44 721.09,282.88 726.96,283.29 728.91,283.41 731.85,283.60 737.71,283.94 740.64,284.11 743.57,284.27 748.46,284.53 752.37,284.72 754.33,284.82 759.21,285.05 765.08,285.32 770.94,285.58 775.83,285.79 781.69,286.03 787.56,286.27 792.44,286.46 798.31,286.68 804.17,286.89 808.08,287.03 809.06,287.07 814.92,287.27 820.79,287.47 825.67,287.64 827.63,287.70 831.54,287.83 836.42,287.99 842.29,288.18 845.22,288.27 848.15,288.27 853.04,288.27 857.93,288.27"/>
<polyline fill="none" stroke="#1f77b4" stroke-width="1.1" stroke-dasharray="6 4" points="492.00,321.09 496.81,319.52 501.62,317.94 506.43,316.36 511.24,314.79 516.05,313.21 520.86,311.64 525.67,310.06 530.48,308.49 535.29,306.91 540.10,305.34 544.91,303.76 549.72,302.19 554.53,300.61 559.34,299.04 564.15,297.46 568.96,295.89 573.77,294.31 578.58,292.74 583.39,291.16 588.20,289.59 593.01,288.01 597.82,286.43 602.63,284.86 607.44,283.28 612.25,281.71 617.06,280.13 621.87,278.56 626.68,276.98 631.49,275.41 636.30,273.83 641.11,272.26 645.92,270.68 650.73,269.11 655.54,267.53 660.35,265.96 665.16,264.38 669.97,262.81 674.78,261.23 679.59,259.65 684.41,258.08 689.22,256.50 694.03,254.93 698.84,253.35 703.65,251.78 708.46,250.20 713.27,248.63 718.08,247.05 722.89,245.48 727.70,243.90 732.51,242.33 737.32,240.75 742.13,239.18 746.94,237.60 751.75,236.03 756.56,234.45 761.37,232.87 766.18,231.30 770.99,229.72 775.80,228.15 780.61,226.57 785.42,225.00 790.23,223.42 795.04,221.85 799.85,220.27 804.66,218.70 809.47,217.12 814.28,215.55 819.09,213.97 823.90,212.40 828.71,210.82 833.52,209.25 838.33,207.67 843.14,206.10 847.95,204.52 852.76,202.94 857.57,201.37 862.38,199.79 867.19,198.22 872.00,196.64"/>
<circle cx="674.95" cy="261.18" r="4.6" fill="#ffffff" stroke="#1f77b4" stroke-width="2"/>
<text x="680.95" y="255.18" font-family="Arial, sans-serif" font-size="10" fill="#1f77b4">typ 39.3 ohm</text>
<polyline fill="none" stroke="#ff7f0e" stroke-width="1.1" stroke-dasharray="6 4" points="492.00,317.25 496.81,315.67 501.62,314.10 506.43,312.52 511.24,310.95 516.05,309.37 520.86,307.80 525.67,306.22 530.48,304.65 535.29,303.07 540.10,301.50 544.91,299.92 549.72,298.35 554.53,296.77 559.34,295.20 564.15,293.62 568.96,292.05 573.77,290.47 578.58,288.89 583.39,287.32 588.20,285.74 593.01,284.17 597.82,282.59 602.63,281.02 607.44,279.44 612.25,277.87 617.06,276.29 621.87,274.72 626.68,273.14 631.49,271.57 636.30,269.99 641.11,268.42 645.92,266.84 650.73,265.27 655.54,263.69 660.35,262.11 665.16,260.54 669.97,258.96 674.78,257.39 679.59,255.81 684.41,254.24 689.22,252.66 694.03,251.09 698.84,249.51 703.65,247.94 708.46,246.36 713.27,244.79 718.08,243.21 722.89,241.64 727.70,240.06 732.51,238.49 737.32,236.91 742.13,235.34 746.94,233.76 751.75,232.18 756.56,230.61 761.37,229.03 766.18,227.46 770.99,225.88 775.80,224.31 780.61,222.73 785.42,221.16 790.23,219.58 795.04,218.01 799.85,216.43 804.66,214.86 809.47,213.28 814.28,211.71 819.09,210.13 823.90,208.56 828.71,206.98 833.52,205.40 838.33,203.83 843.14,202.25 847.95,200.68 852.76,199.10 857.57,197.53 862.38,195.95 867.19,194.38 872.00,192.80"/>
<circle cx="691.49" cy="251.92" r="4.6" fill="#ffffff" stroke="#ff7f0e" stroke-width="2"/>
<text x="697.49" y="245.92" font-family="Arial, sans-serif" font-size="10" fill="#ff7f0e">min 91 ohm</text>
<polyline fill="none" stroke="#2ca02c" stroke-width="1.1" stroke-dasharray="6 4" points="492.00,324.93 496.81,323.36 501.62,321.78 506.43,320.21 511.24,318.63 516.05,317.06 520.86,315.48 525.67,313.90 530.48,312.33 535.29,310.75 540.10,309.18 544.91,307.60 549.72,306.03 554.53,304.45 559.34,302.88 564.15,301.30 568.96,299.73 573.77,298.15 578.58,296.58 583.39,295.00 588.20,293.43 593.01,291.85 597.82,290.28 602.63,288.70 607.44,287.12 612.25,285.55 617.06,283.97 621.87,282.40 626.68,280.82 631.49,279.25 636.30,277.67 641.11,276.10 645.92,274.52 650.73,272.95 655.54,271.37 660.35,269.80 665.16,268.22 669.97,266.65 674.78,265.07 679.59,263.50 684.41,261.92 689.22,260.35 694.03,258.77 698.84,257.19 703.65,255.62 708.46,254.04 713.27,252.47 718.08,250.89 722.89,249.32 727.70,247.74 732.51,246.17 737.32,244.59 742.13,243.02 746.94,241.44 751.75,239.87 756.56,238.29 761.37,236.72 766.18,235.14 770.99,233.57 775.80,231.99 780.61,230.41 785.42,228.84 790.23,227.26 795.04,225.69 799.85,224.11 804.66,222.54 809.47,220.96 814.28,219.39 819.09,217.81 823.90,216.24 828.71,214.66 833.52,213.09 838.33,211.51 843.14,209.94 847.95,208.36 852.76,206.79 857.57,205.21 862.38,203.64 867.19,202.06 872.00,200.48"/>
<circle cx="659.00" cy="270.24" r="4.6" fill="#ffffff" stroke="#2ca02c" stroke-width="2"/>
<text x="665.00" y="264.24" font-family="Arial, sans-serif" font-size="10" fill="#2ca02c">max 19.1 ohm</text>
<line x1="502.00" y1="80.00" x2="524.00" y2="80.00" stroke="#1f77b4" stroke-width="2"/>
<text x="530.00" y="84.00" font-family="Arial, sans-serif" font-size="11">typ</text>
<line x1="502.00" y1="97.00" x2="524.00" y2="97.00" stroke="#ff7f0e" stroke-width="2" stroke-dasharray="5 4"/>
<text x="530.00" y="101.00" font-family="Arial, sans-serif" font-size="11">min</text>
<line x1="502.00" y1="114.00" x2="524.00" y2="114.00" stroke="#2ca02c" stroke-width="2" stroke-dasharray="2 4"/>
<text x="530.00" y="118.00" font-family="Arial, sans-serif" font-size="11">max</text>
<text x="682.00" y="386.00" text-anchor="middle" font-family="Arial, sans-serif" font-size="11">Vcc-relative table voltage (V)</text>
<text transform="translate(442.00 205.00) rotate(-90)" text-anchor="middle" font-family="Arial, sans-serif" font-size="11">Current (mA)</text>
<rect x="72.00" y="418.00" width="800.00" height="144.00" fill="#ffffff" stroke="#c8c8c8"/>
<text x="82.00" y="436.00" font-family="Arial, sans-serif" font-size="12" font-weight="700">Operating-point summary</text>
<text x="82.00" y="454.00" font-family="Arial, sans-serif" font-size="10" font-weight="700" fill="#333">Table</text>
<text x="174.00" y="454.00" font-family="Arial, sans-serif" font-size="10" font-weight="700" fill="#333">Corner</text>
<text x="242.00" y="454.00" font-family="Arial, sans-serif" font-size="10" font-weight="700" fill="#333">Vout</text>
<text x="332.00" y="454.00" font-family="Arial, sans-serif" font-size="10" font-weight="700" fill="#333">Iop</text>
<text x="422.00" y="454.00" font-family="Arial, sans-serif" font-size="10" font-weight="700" fill="#333">Zout</text>
<text x="512.00" y="454.00" font-family="Arial, sans-serif" font-size="10" font-weight="700" fill="#333">Rseries</text>
<text x="82.00" y="473.00" font-family="Arial, sans-serif" font-size="10" fill="#1f77b4">pulldown</text>
<text x="174.00" y="473.00" font-family="Arial, sans-serif" font-size="10" fill="#1f77b4">typ</text>
<text x="242.00" y="473.00" font-family="Arial, sans-serif" font-size="10" fill="#1f77b4">0.3664 V</text>
<text x="332.00" y="473.00" font-family="Arial, sans-serif" font-size="10" fill="#1f77b4">17 mA</text>
<text x="422.00" y="473.00" font-family="Arial, sans-serif" font-size="10" fill="#1f77b4">22 ohm</text>
<text x="512.00" y="473.00" font-family="Arial, sans-serif" font-size="10" fill="#1f77b4">28 ohm</text>
<text x="82.00" y="492.00" font-family="Arial, sans-serif" font-size="10" fill="#ff7f0e">pulldown</text>
<text x="174.00" y="492.00" font-family="Arial, sans-serif" font-size="10" fill="#ff7f0e">min</text>
<text x="242.00" y="492.00" font-family="Arial, sans-serif" font-size="10" fill="#ff7f0e">0.5827 V</text>
<text x="332.00" y="492.00" font-family="Arial, sans-serif" font-size="10" fill="#ff7f0e">9.9 mA</text>
<text x="422.00" y="492.00" font-family="Arial, sans-serif" font-size="10" fill="#ff7f0e">58.6 ohm</text>
<text x="512.00" y="492.00" font-family="Arial, sans-serif" font-size="10" fill="#ff7f0e">-8.588 ohm</text>
<text x="82.00" y="511.00" font-family="Arial, sans-serif" font-size="10" fill="#2ca02c">pulldown</text>
<text x="174.00" y="511.00" font-family="Arial, sans-serif" font-size="10" fill="#2ca02c">max</text>
<text x="242.00" y="511.00" font-family="Arial, sans-serif" font-size="10" fill="#2ca02c">0.2391 V</text>
<text x="332.00" y="511.00" font-family="Arial, sans-serif" font-size="10" fill="#2ca02c">22 mA</text>
<text x="422.00" y="511.00" font-family="Arial, sans-serif" font-size="10" fill="#2ca02c">11.1 ohm</text>
<text x="512.00" y="511.00" font-family="Arial, sans-serif" font-size="10" fill="#2ca02c">38.9 ohm</text>
<text x="82.00" y="530.00" font-family="Arial, sans-serif" font-size="10" fill="#1f77b4">pullup</text>
<text x="174.00" y="530.00" font-family="Arial, sans-serif" font-size="10" fill="#1f77b4">typ</text>
<text x="242.00" y="530.00" font-family="Arial, sans-serif" font-size="10" fill="#1f77b4">0.6722 V</text>
<text x="332.00" y="530.00" font-family="Arial, sans-serif" font-size="10" fill="#1f77b4">-13 mA</text>
<text x="422.00" y="530.00" font-family="Arial, sans-serif" font-size="10" fill="#1f77b4">39.3 ohm</text>
<text x="512.00" y="530.00" font-family="Arial, sans-serif" font-size="10" fill="#1f77b4">10.7 ohm</text>
<text x="82.00" y="549.00" font-family="Arial, sans-serif" font-size="10" fill="#ff7f0e">pullup</text>
<text x="174.00" y="549.00" font-family="Arial, sans-serif" font-size="10" fill="#ff7f0e">min</text>
<text x="242.00" y="549.00" font-family="Arial, sans-serif" font-size="10" fill="#ff7f0e">0.3829 V</text>
<text x="332.00" y="549.00" font-family="Arial, sans-serif" font-size="10" fill="#ff7f0e">-7.7 mA</text>
<text x="422.00" y="549.00" font-family="Arial, sans-serif" font-size="10" fill="#ff7f0e">91 ohm</text>
<text x="512.00" y="549.00" font-family="Arial, sans-serif" font-size="10" fill="#ff7f0e">-41 ohm</text>
<text x="82.00" y="568.00" font-family="Arial, sans-serif" font-size="10" fill="#2ca02c">pullup</text>
<text x="174.00" y="568.00" font-family="Arial, sans-serif" font-size="10" fill="#2ca02c">max</text>
<text x="242.00" y="568.00" font-family="Arial, sans-serif" font-size="10" fill="#2ca02c">0.9553 V</text>
<text x="332.00" y="568.00" font-family="Arial, sans-serif" font-size="10" fill="#2ca02c">-19 mA</text>
<text x="422.00" y="568.00" font-family="Arial, sans-serif" font-size="10" fill="#2ca02c">19.1 ohm</text>
<text x="512.00" y="568.00" font-family="Arial, sans-serif" font-size="10" fill="#2ca02c">30.9 ohm</text>
</svg>