<svg xmlns="http://www.w3.org/2000/svg" width="900" height="620" viewBox="0 0 900 620">
<rect width="100%" height="100%" fill="#ffffff"/>
<text x="72" y="26" font-family="Arial, sans-serif" font-size="16" font-weight="700">E34_GPIO_COMBO_1V8 Zout Load-Line Curves</text>
<text x="72" y="45" font-family="Arial, sans-serif" font-size="11" fill="#555">Rload=50 ohm; solid=device I-V, dashed=load line, circles=operating points</text>
<rect x="72.00" y="62.00" width="380.00" height="286.00" fill="#fbfbfb" stroke="#c8c8c8"/>
<text x="80.00" y="50.00" font-family="Arial, sans-serif" font-size="13" font-weight="700">[Pulldown] Rload to Vdd</text>
<line x1="72.00" y1="62.00" x2="72.00" y2="348.00" stroke="#ececec"/>
<text x="72.00" y="366.00" text-anchor="middle" font-family="Arial, sans-serif" font-size="10">-2</text>
<line x1="167.00" y1="62.00" x2="167.00" y2="348.00" stroke="#ececec"/>
<text x="167.00" y="366.00" text-anchor="middle" font-family="Arial, sans-serif" font-size="10">-0.558</text>
<line x1="262.00" y1="62.00" x2="262.00" y2="348.00" stroke="#ececec"/>
<text x="262.00" y="366.00" text-anchor="middle" font-family="Arial, sans-serif" font-size="10">0.9</text>
<line x1="357.00" y1="62.00" x2="357.00" y2="348.00" stroke="#ececec"/>
<text x="357.00" y="366.00" text-anchor="middle" font-family="Arial, sans-serif" font-size="10">2.4</text>
<line x1="452.00" y1="62.00" x2="452.00" y2="348.00" stroke="#ececec"/>
<text x="452.00" y="366.00" text-anchor="middle" font-family="Arial, sans-serif" font-size="10">3.8</text>
<line x1="72.00" y1="348.00" x2="452.00" y2="348.00" stroke="#ececec"/>
<text x="65.00" y="352.00" text-anchor="end" font-family="Arial, sans-serif" font-size="10">-53</text>
<line x1="72.00" y1="276.50" x2="452.00" y2="276.50" stroke="#ececec"/>
<text x="65.00" y="280.50" text-anchor="end" font-family="Arial, sans-serif" font-size="10">-18</text>
<line x1="72.00" y1="205.00" x2="452.00" y2="205.00" stroke="#ececec"/>
<text x="65.00" y="209.00" text-anchor="end" font-family="Arial, sans-serif" font-size="10">18</text>
<line x1="72.00" y1="133.50" x2="452.00" y2="133.50" stroke="#ececec"/>
<text x="65.00" y="137.50" text-anchor="end" font-family="Arial, sans-serif" font-size="10">54</text>
<line x1="72.00" y1="62.00" x2="452.00" y2="62.00" stroke="#ececec"/>
<text x="65.00" y="66.00" text-anchor="end" font-family="Arial, sans-serif" font-size="10">89</text>
<line x1="203.36" y1="62" x2="203.36" y2="348" stroke="#777" stroke-dasharray="4 4"/>
<line x1="72.0" y1="241.04" x2="452.0" y2="241.04" stroke="#777" stroke-dasharray="4 4"/>
<polyline fill="none" stroke="#1f77b4" stroke-width="1.8" points="86.07,248.59 91.29,248.59 97.15,248.59 102.36,248.59 108.23,248.59 113.44,248.59 119.30,248.59 124.52,248.59 130.38,248.59 135.59,248.59 141.46,248.59 146.67,248.59 150.58,248.59 151.23,248.59 152.53,248.59 153.19,248.59 153.84,248.58 154.49,248.56 155.14,248.54 155.79,248.51 156.44,248.47 157.10,248.43 157.75,248.38 158.40,248.34 159.05,248.28 159.70,248.23 160.35,248.17 161.01,248.11 161.66,248.05 162.31,247.98 162.96,247.91 163.61,247.84 164.26,247.77 164.91,247.69 165.57,247.61 166.22,247.53 166.87,247.45 167.52,247.36 168.17,247.27 168.82,247.18 169.48,247.09 170.13,246.99 170.78,246.90 171.43,246.80 172.08,246.69 174.04,246.37 179.90,245.34 185.11,244.36 190.98,243.27 196.19,242.31 202.05,241.27 203.36,241.04 207.27,240.36 212.48,239.49 218.34,238.55 223.56,237.76 229.42,236.91 234.63,236.21 240.50,235.48 245.71,234.87 251.57,234.24 256.79,233.73 262.65,233.22 267.86,232.83 273.08,232.49 278.94,232.19 284.15,231.97 290.02,231.79 295.23,231.67 301.09,231.56 305.00,231.51 306.31,231.49 308.26,231.46 308.91,231.46 312.17,231.42 317.38,231.37 320.64,231.34 322.60,231.32 328.46,231.28 332.37,231.25 333.67,231.24 339.54,231.21 344.75,231.20 350.61,231.20 355.83,231.20 361.69,231.20 366.90,231.20 372.77,231.20 377.98,231.20 383.19,231.20 389.06,231.20 394.27,231.20 400.13,231.20 405.35,231.20 411.21,231.20 416.42,231.20 422.29,231.20 427.50,231.20 433.36,231.20 437.93,231.20"/>
<polyline fill="none" stroke="#ff7f0e" stroke-width="1.8" stroke-dasharray="5 4" points="86.07,244.94 91.29,244.94 97.15,244.94 102.36,244.94 108.23,244.94 113.44,244.94 119.30,244.94 124.52,244.94 130.38,244.94 135.59,244.94 141.46,244.94 146.67,244.94 150.58,244.94 151.23,244.94 152.53,244.93 153.19,244.93 153.84,244.92 154.49,244.91 155.14,244.90 155.79,244.88 156.44,244.86 157.10,244.84 157.75,244.81 158.40,244.79 159.05,244.76 159.70,244.73 160.35,244.70 161.01,244.67 161.66,244.64 162.31,244.60 162.96,244.57 163.61,244.53 164.26,244.49 164.91,244.46 165.57,244.42 166.22,244.38 166.87,244.34 167.52,244.30 168.17,244.25 168.82,244.21 169.48,244.17 170.13,244.12 170.78,244.07 171.43,244.03 172.08,243.98 174.04,243.82 179.90,243.31 185.11,242.80 190.98,242.21 196.19,241.70 202.05,241.16 203.36,241.04 207.27,240.69 212.48,240.26 218.34,239.79 223.56,239.41 229.42,239.01 234.63,238.68 240.50,238.34 245.71,238.05 251.57,237.75 256.79,237.51 262.65,237.26 267.86,237.06 273.08,236.88 278.94,236.71 284.15,236.58 290.02,236.45 295.23,236.36 301.09,236.26 305.00,236.20 306.31,236.17 308.26,236.14 308.91,236.13 312.17,236.08 317.38,236.01 320.64,235.96 322.60,235.93 328.46,235.87 332.37,235.86 333.67,235.85 339.54,235.85 344.75,235.85 350.61,235.85 355.83,235.85 361.69,235.85 366.90,235.85 372.77,235.85 377.98,235.85 383.19,235.85 389.06,235.85 394.27,235.85 400.13,235.85 405.35,235.85 411.21,235.85 416.42,235.85 422.29,235.85 427.50,235.85 433.36,235.85 437.93,235.85"/>
<polyline fill="none" stroke="#2ca02c" stroke-width="1.8" stroke-dasharray="2 4" points="86.07,253.10 91.29,253.10 97.15,253.10 102.36,253.10 108.23,253.10 113.44,253.10 119.30,253.10 124.52,253.10 130.38,253.10 135.59,253.10 141.46,253.10 146.67,253.10 150.58,253.10 151.23,253.10 152.53,253.10 153.19,253.10 153.84,253.09 154.49,253.06 155.14,253.02 155.79,252.97 156.44,252.91 157.10,252.84 157.75,252.77 158.40,252.69 159.05,252.61 159.70,252.52 160.35,252.43 161.01,252.34 161.66,252.24 162.31,252.13 162.96,252.03 163.61,251.92 164.26,251.80 164.91,251.68 165.57,251.56 166.22,251.43 166.87,251.30 167.52,251.17 168.17,251.03 168.82,250.89 169.48,250.74 170.13,250.59 170.78,250.44 171.43,250.28 172.08,250.12 174.04,249.61 179.90,247.97 185.11,246.44 190.98,244.70 196.19,243.15 202.05,241.42 203.36,241.04 207.27,239.91 212.48,238.43 218.34,236.83 223.56,235.48 229.42,234.04 234.63,232.86 240.50,231.64 245.71,230.66 251.57,229.68 256.79,228.93 262.65,228.22 267.86,227.72 273.08,227.33 278.94,227.01 284.15,226.81 290.02,226.63 295.23,226.52 301.09,226.41 305.00,226.35 306.31,226.33 308.26,226.30 308.91,226.29 312.17,226.25 317.38,226.18 320.64,226.15 322.60,226.13 328.46,226.06 332.37,226.03 333.67,226.01 339.54,225.96 344.75,225.92 350.61,225.87 355.83,225.84 361.69,225.84 366.90,225.84 372.77,225.84 377.98,225.84 383.19,225.84 389.06,225.84 394.27,225.84 400.13,225.84 405.35,225.84 411.21,225.84 416.42,225.84 422.29,225.84 427.50,225.84 433.36,225.84 437.93,225.84"/>
<polyline fill="none" stroke="#1f77b4" stroke-width="1.1" stroke-dasharray="6 4" points="72.00,88.24 76.81,91.19 81.62,94.15 86.43,97.10 91.24,100.06 96.05,103.02 100.86,105.97 105.67,108.93 110.48,111.88 115.29,114.84 120.10,117.80 124.91,120.75 129.72,123.71 134.53,126.66 139.34,129.62 144.15,132.58 148.96,135.53 153.77,138.49 158.58,141.44 163.39,144.40 168.20,147.36 173.01,150.31 177.82,153.27 182.63,156.23 187.44,159.18 192.25,162.14 197.06,165.09 201.87,168.05 206.68,171.01 211.49,173.96 216.30,176.92 221.11,179.87 225.92,182.83 230.73,185.79 235.54,188.74 240.35,191.70 245.16,194.65 249.97,197.61 254.78,200.57 259.59,203.52 264.41,206.48 269.22,209.43 274.03,212.39 278.84,215.35 283.65,218.30 288.46,221.26 293.27,224.21 298.08,227.17 302.89,230.13 307.70,233.08 312.51,236.04 317.32,238.99 322.13,241.95 326.94,244.91 331.75,247.86 336.56,250.82 341.37,253.77 346.18,256.73 350.99,259.69 355.80,262.64 360.61,265.60 365.42,268.56 370.23,271.51 375.04,274.47 379.85,277.42 384.66,280.38 389.47,283.34 394.28,286.29 399.09,289.25 403.90,292.20 408.71,295.16 413.52,298.12 418.33,301.07 423.14,304.03 427.95,306.98 432.76,309.94 437.57,312.90 442.38,315.85 447.19,318.81 452.00,321.76"/>
<circle cx="305.13" cy="231.50" r="4.6" fill="#ffffff" stroke="#1f77b4" stroke-width="2"/>
<text x="311.13" y="225.50" font-family="Arial, sans-serif" font-size="10" fill="#1f77b4">typ 328 ohm</text>
<polyline fill="none" stroke="#ff7f0e" stroke-width="1.1" stroke-dasharray="6 4" points="72.00,95.44 76.81,98.40 81.62,101.36 86.43,104.31 91.24,107.27 96.05,110.22 100.86,113.18 105.67,116.14 110.48,119.09 115.29,122.05 120.10,125.00 124.91,127.96 129.72,130.92 134.53,133.87 139.34,136.83 144.15,139.78 148.96,142.74 153.77,145.70 158.58,148.65 163.39,151.61 168.20,154.56 173.01,157.52 177.82,160.48 182.63,163.43 187.44,166.39 192.25,169.34 197.06,172.30 201.87,175.26 206.68,178.21 211.49,181.17 216.30,184.13 221.11,187.08 225.92,190.04 230.73,192.99 235.54,195.95 240.35,198.91 245.16,201.86 249.97,204.82 254.78,207.77 259.59,210.73 264.41,213.69 269.22,216.64 274.03,219.60 278.84,222.55 283.65,225.51 288.46,228.47 293.27,231.42 298.08,234.38 302.89,237.33 307.70,240.29 312.51,243.25 317.32,246.20 322.13,249.16 326.94,252.11 331.75,255.07 336.56,258.03 341.37,260.98 346.18,263.94 350.99,266.89 355.80,269.85 360.61,272.81 365.42,275.76 370.23,278.72 375.04,281.67 379.85,284.63 384.66,287.59 389.47,290.54 394.28,293.50 399.09,296.46 403.90,299.41 408.71,302.37 413.52,305.32 418.33,308.28 423.14,311.24 427.95,314.19 432.76,317.15 437.57,320.10 442.38,323.06 447.19,326.02 452.00,328.97"/>
<circle cx="301.13" cy="236.26" r="4.6" fill="#ffffff" stroke="#ff7f0e" stroke-width="2"/>
<text x="307.13" y="230.26" font-family="Arial, sans-serif" font-size="10" fill="#ff7f0e">min 628 ohm</text>
<polyline fill="none" stroke="#2ca02c" stroke-width="1.1" stroke-dasharray="6 4" points="72.00,81.03 76.81,83.98 81.62,86.94 86.43,89.90 91.24,92.85 96.05,95.81 100.86,98.76 105.67,101.72 110.48,104.68 115.29,107.63 120.10,110.59 124.91,113.54 129.72,116.50 134.53,119.46 139.34,122.41 144.15,125.37 148.96,128.33 153.77,131.28 158.58,134.24 163.39,137.19 168.20,140.15 173.01,143.11 177.82,146.06 182.63,149.02 187.44,151.97 192.25,154.93 197.06,157.89 201.87,160.84 206.68,163.80 211.49,166.75 216.30,169.71 221.11,172.67 225.92,175.62 230.73,178.58 235.54,181.53 240.35,184.49 245.16,187.45 249.97,190.40 254.78,193.36 259.59,196.31 264.41,199.27 269.22,202.23 274.03,205.18 278.84,208.14 283.65,211.09 288.46,214.05 293.27,217.01 298.08,219.96 302.89,222.92 307.70,225.87 312.51,228.83 317.32,231.79 322.13,234.74 326.94,237.70 331.75,240.66 336.56,243.61 341.37,246.57 346.18,249.52 350.99,252.48 355.80,255.44 360.61,258.39 365.42,261.35 370.23,264.30 375.04,267.26 379.85,270.22 384.66,273.17 389.47,276.13 394.28,279.08 399.09,282.04 403.90,285.00 408.71,287.95 413.52,290.91 418.33,293.86 423.14,296.82 427.95,299.78 432.76,302.73 437.57,305.69 442.38,308.64 447.19,311.60 452.00,314.56"/>
<circle cx="308.38" cy="226.30" r="4.6" fill="#ffffff" stroke="#2ca02c" stroke-width="2"/>
<text x="314.38" y="220.30" font-family="Arial, sans-serif" font-size="10" fill="#2ca02c">max 219 ohm</text>
<line x1="82.00" y1="80.00" x2="104.00" y2="80.00" stroke="#1f77b4" stroke-width="2"/>
<text x="110.00" y="84.00" font-family="Arial, sans-serif" font-size="11">typ</text>
<line x1="82.00" y1="97.00" x2="104.00" y2="97.00" stroke="#ff7f0e" stroke-width="2" stroke-dasharray="5 4"/>
<text x="110.00" y="101.00" font-family="Arial, sans-serif" font-size="11">min</text>
<line x1="82.00" y1="114.00" x2="104.00" y2="114.00" stroke="#2ca02c" stroke-width="2" stroke-dasharray="2 4"/>
<text x="110.00" y="118.00" font-family="Arial, sans-serif" font-size="11">max</text>
<text x="262.00" y="386.00" text-anchor="middle" font-family="Arial, sans-serif" font-size="11">Output voltage (V)</text>
<text transform="translate(22.00 205.00) rotate(-90)" text-anchor="middle" font-family="Arial, sans-serif" font-size="11">Current (mA)</text>
<rect x="492.00" y="62.00" width="380.00" height="286.00" fill="#fbfbfb" stroke="#c8c8c8"/>
<text x="500.00" y="50.00" font-family="Arial, sans-serif" font-size="13" font-weight="700">[Pullup] Rload to GND</text>
<line x1="492.00" y1="62.00" x2="492.00" y2="348.00" stroke="#ececec"/>
<text x="492.00" y="366.00" text-anchor="middle" font-family="Arial, sans-serif" font-size="10">-2</text>
<line x1="587.00" y1="62.00" x2="587.00" y2="348.00" stroke="#ececec"/>
<text x="587.00" y="366.00" text-anchor="middle" font-family="Arial, sans-serif" font-size="10">-0.558</text>
<line x1="682.00" y1="62.00" x2="682.00" y2="348.00" stroke="#ececec"/>
<text x="682.00" y="366.00" text-anchor="middle" font-family="Arial, sans-serif" font-size="10">0.9</text>
<line x1="777.00" y1="62.00" x2="777.00" y2="348.00" stroke="#ececec"/>
<text x="777.00" y="366.00" text-anchor="middle" font-family="Arial, sans-serif" font-size="10">2.4</text>
<line x1="872.00" y1="62.00" x2="872.00" y2="348.00" stroke="#ececec"/>
<text x="872.00" y="366.00" text-anchor="middle" font-family="Arial, sans-serif" font-size="10">3.8</text>
<line x1="492.00" y1="348.00" x2="872.00" y2="348.00" stroke="#ececec"/>
<text x="485.00" y="352.00" text-anchor="end" font-family="Arial, sans-serif" font-size="10">-89</text>
<line x1="492.00" y1="276.50" x2="872.00" y2="276.50" stroke="#ececec"/>
<text x="485.00" y="280.50" text-anchor="end" font-family="Arial, sans-serif" font-size="10">-54</text>
<line x1="492.00" y1="205.00" x2="872.00" y2="205.00" stroke="#ececec"/>
<text x="485.00" y="209.00" text-anchor="end" font-family="Arial, sans-serif" font-size="10">-18</text>
<line x1="492.00" y1="133.50" x2="872.00" y2="133.50" stroke="#ececec"/>
<text x="485.00" y="137.50" text-anchor="end" font-family="Arial, sans-serif" font-size="10">18</text>
<line x1="492.00" y1="62.00" x2="872.00" y2="62.00" stroke="#ececec"/>
<text x="485.00" y="66.00" text-anchor="end" font-family="Arial, sans-serif" font-size="10">53</text>
<line x1="623.36" y1="62" x2="623.36" y2="348" stroke="#777" stroke-dasharray="4 4"/>
<line x1="492.0" y1="168.96" x2="872.0" y2="168.96" stroke="#777" stroke-dasharray="4 4"/>
<polyline fill="none" stroke="#1f77b4" stroke-width="1.8" points="506.07,164.16 511.29,164.16 517.15,164.16 522.36,164.16 528.23,164.16 533.44,164.16 539.30,164.16 544.52,164.16 550.38,164.17 555.59,164.21 557.55,164.23 558.20,164.23 558.85,164.24 559.50,164.25 560.16,164.25 560.81,164.26 566.67,164.33 571.88,164.39 577.75,164.50 581.01,164.59 582.31,164.63 582.96,164.65 583.61,164.68 584.26,164.70 584.91,164.73 585.57,164.76 586.22,164.79 586.87,164.82 587.52,164.85 588.17,164.88 588.82,164.92 589.48,164.96 590.13,165.00 590.78,165.04 591.43,165.08 592.08,165.13 592.73,165.18 593.39,165.23 594.04,165.28 594.69,165.34 595.34,165.39 599.90,165.85 605.11,166.47 610.98,167.23 616.19,167.94 622.05,168.77 623.36,168.96 627.27,169.54 632.48,170.32 638.34,171.22 643.56,172.03 649.42,172.95 654.63,173.76 660.50,174.67 665.71,175.47 671.57,176.35 676.79,177.11 682.65,177.94 687.86,178.64 693.08,179.31 698.94,180.02 704.15,180.60 710.02,181.19 715.23,181.64 717.84,181.85 718.49,181.90 719.79,181.99 720.44,182.04 721.75,182.13 723.05,182.21 724.35,182.30 726.31,182.41 728.91,182.55 730.22,182.62 732.17,182.71 737.38,182.93 740.64,183.05 742.60,183.12 748.46,183.30 752.37,183.40 753.67,183.43 759.54,183.57 764.75,183.66 770.61,183.68 775.83,183.68 781.69,183.68 786.90,183.68 792.77,183.68 797.98,183.68 803.19,183.68 809.06,183.68 814.27,183.68 820.13,183.68 825.35,183.68 831.21,183.68 836.42,183.68 842.29,183.68 847.50,183.68 853.36,183.68 857.93,183.68"/>
<polyline fill="none" stroke="#ff7f0e" stroke-width="1.8" stroke-dasharray="5 4" points="506.07,167.32 511.29,167.32 517.15,167.32 522.36,167.32 528.23,167.32 533.44,167.32 539.30,167.32 544.52,167.32 550.38,167.32 555.59,167.32 557.55,167.33 558.20,167.33 558.85,167.33 559.50,167.34 560.16,167.34 560.81,167.34 566.67,167.38 571.88,167.44 577.75,167.51 581.01,167.57 582.31,167.59 582.96,167.61 583.61,167.62 584.26,167.63 584.91,167.64 585.57,167.66 586.22,167.67 586.87,167.69 587.52,167.70 588.17,167.72 588.82,167.73 589.48,167.75 590.13,167.76 590.78,167.78 591.43,167.79 592.08,167.81 592.73,167.83 593.39,167.84 594.04,167.86 594.69,167.88 595.34,167.89 599.90,168.03 605.11,168.20 610.98,168.42 616.19,168.64 622.05,168.90 623.36,168.96 627.27,169.16 632.48,169.44 638.34,169.78 643.56,170.12 649.42,170.52 654.63,170.90 660.50,171.34 665.71,171.74 671.57,172.19 676.79,172.58 682.65,173.03 687.86,173.43 693.08,173.83 698.94,174.29 704.15,174.69 710.02,175.14 715.23,175.53 717.84,175.71 718.49,175.76 719.79,175.85 720.44,175.89 721.75,175.98 723.05,176.06 724.35,176.14 726.31,176.25 728.91,176.39 730.22,176.46 732.17,176.55 737.38,176.75 740.64,176.86 742.60,176.91 748.46,177.04 752.37,177.08 753.67,177.09 759.54,177.09 764.75,177.09 770.61,177.09 775.83,177.09 781.69,177.09 786.90,177.09 792.77,177.09 797.98,177.09 803.19,177.09 809.06,177.09 814.27,177.09 820.13,177.09 825.35,177.09 831.21,177.09 836.42,177.09 842.29,177.09 847.50,177.09 853.36,177.09 857.93,177.09"/>
<polyline fill="none" stroke="#2ca02c" stroke-width="1.8" stroke-dasharray="2 4" points="506.07,155.74 511.29,155.74 517.15,155.74 522.36,155.74 528.23,155.74 533.44,155.74 539.30,155.74 544.52,155.74 550.38,155.74 555.59,155.74 557.55,155.74 558.20,155.74 558.85,155.75 559.50,155.76 560.16,155.79 560.81,155.81 566.67,156.15 571.88,156.57 577.75,157.18 581.01,157.61 582.31,157.80 582.96,157.90 583.61,158.00 584.26,158.11 584.91,158.22 585.57,158.34 586.22,158.46 586.87,158.58 587.52,158.70 588.17,158.83 588.82,158.97 589.48,159.11 590.13,159.25 590.78,159.40 591.43,159.55 592.08,159.70 592.73,159.86 593.39,160.03 594.04,160.19 594.69,160.36 595.34,160.54 599.90,161.82 605.11,163.38 610.98,165.16 616.19,166.76 622.05,168.56 623.36,168.96 627.27,170.16 632.48,171.74 638.34,173.49 643.56,175.01 649.42,176.67 654.63,178.09 660.50,179.62 665.71,180.92 671.57,182.29 676.79,183.44 682.65,184.64 687.86,185.61 693.08,186.51 698.94,187.41 704.15,188.12 710.02,188.82 715.23,189.35 717.84,189.59 718.49,189.64 719.79,189.75 720.44,189.80 721.75,189.91 723.05,190.00 724.35,190.10 726.31,190.23 728.91,190.40 730.22,190.47 732.17,190.58 737.38,190.85 740.64,191.00 742.60,191.08 748.46,191.30 752.37,191.44 753.67,191.48 759.54,191.65 764.75,191.79 770.61,191.94 775.83,192.05 781.69,192.10 786.90,192.10 792.77,192.10 797.98,192.10 803.19,192.10 809.06,192.10 814.27,192.10 820.13,192.10 825.35,192.10 831.21,192.10 836.42,192.10 842.29,192.10 847.50,192.10 853.36,192.10 857.93,192.10"/>
<polyline fill="none" stroke="#1f77b4" stroke-width="1.1" stroke-dasharray="6 4" points="492.00,321.76 496.81,318.81 501.62,315.85 506.43,312.90 511.24,309.94 516.05,306.98 520.86,304.03 525.67,301.07 530.48,298.12 535.29,295.16 540.10,292.20 544.91,289.25 549.72,286.29 554.53,283.34 559.34,280.38 564.15,277.42 568.96,274.47 573.77,271.51 578.58,268.56 583.39,265.60 588.20,262.64 593.01,259.69 597.82,256.73 602.63,253.77 607.44,250.82 612.25,247.86 617.06,244.91 621.87,241.95 626.68,238.99 631.49,236.04 636.30,233.08 641.11,230.13 645.92,227.17 650.73,224.21 655.54,221.26 660.35,218.30 665.16,215.35 669.97,212.39 674.78,209.43 679.59,206.48 684.41,203.52 689.22,200.57 694.03,197.61 698.84,194.65 703.65,191.70 708.46,188.74 713.27,185.79 718.08,182.83 722.89,179.87 727.70,176.92 732.51,173.96 737.32,171.01 742.13,168.05 746.94,165.09 751.75,162.14 756.56,159.18 761.37,156.23 766.18,153.27 770.99,150.31 775.80,147.36 780.61,144.40 785.42,141.44 790.23,138.49 795.04,135.53 799.85,132.58 804.66,129.62 809.47,126.66 814.28,123.71 819.09,120.75 823.90,117.80 828.71,114.84 833.52,111.88 838.33,108.93 843.14,105.97 847.95,103.02 852.76,100.06 857.57,97.10 862.38,94.15 867.19,91.19 872.00,88.24"/>
<circle cx="719.47" cy="181.97" r="4.6" fill="#ffffff" stroke="#1f77b4" stroke-width="2"/>
<text x="725.47" y="175.97" font-family="Arial, sans-serif" font-size="10" fill="#1f77b4">typ 227 ohm</text>
<polyline fill="none" stroke="#ff7f0e" stroke-width="1.1" stroke-dasharray="6 4" points="492.00,314.56 496.81,311.60 501.62,308.64 506.43,305.69 511.24,302.73 516.05,299.78 520.86,296.82 525.67,293.86 530.48,290.91 535.29,287.95 540.10,285.00 544.91,282.04 549.72,279.08 554.53,276.13 559.34,273.17 564.15,270.22 568.96,267.26 573.77,264.30 578.58,261.35 583.39,258.39 588.20,255.44 593.01,252.48 597.82,249.52 602.63,246.57 607.44,243.61 612.25,240.66 617.06,237.70 621.87,234.74 626.68,231.79 631.49,228.83 636.30,225.87 641.11,222.92 645.92,219.96 650.73,217.01 655.54,214.05 660.35,211.09 665.16,208.14 669.97,205.18 674.78,202.23 679.59,199.27 684.41,196.31 689.22,193.36 694.03,190.40 698.84,187.45 703.65,184.49 708.46,181.53 713.27,178.58 718.08,175.62 722.89,172.67 727.70,169.71 732.51,166.75 737.32,163.80 742.13,160.84 746.94,157.89 751.75,154.93 756.56,151.97 761.37,149.02 766.18,146.06 770.99,143.11 775.80,140.15 780.61,137.19 785.42,134.24 790.23,131.28 795.04,128.33 799.85,125.37 804.66,122.41 809.47,119.46 814.28,116.50 819.09,113.54 823.90,110.59 828.71,107.63 833.52,104.68 838.33,101.72 843.14,98.76 847.95,95.81 852.76,92.85 857.57,89.90 862.38,86.94 867.19,83.98 872.00,81.03"/>
<circle cx="717.92" cy="175.72" r="4.6" fill="#ffffff" stroke="#ff7f0e" stroke-width="2"/>
<text x="723.92" y="169.72" font-family="Arial, sans-serif" font-size="10" fill="#ff7f0e">min 430 ohm</text>
<polyline fill="none" stroke="#2ca02c" stroke-width="1.1" stroke-dasharray="6 4" points="492.00,328.97 496.81,326.02 501.62,323.06 506.43,320.10 511.24,317.15 516.05,314.19 520.86,311.24 525.67,308.28 530.48,305.32 535.29,302.37 540.10,299.41 544.91,296.46 549.72,293.50 554.53,290.54 559.34,287.59 564.15,284.63 568.96,281.67 573.77,278.72 578.58,275.76 583.39,272.81 588.20,269.85 593.01,266.89 597.82,263.94 602.63,260.98 607.44,258.03 612.25,255.07 617.06,252.11 621.87,249.16 626.68,246.20 631.49,243.25 636.30,240.29 641.11,237.33 645.92,234.38 650.73,231.42 655.54,228.47 660.35,225.51 665.16,222.55 669.97,219.60 674.78,216.64 679.59,213.69 684.41,210.73 689.22,207.77 694.03,204.82 698.84,201.86 703.65,198.91 708.46,195.95 713.27,192.99 718.08,190.04 722.89,187.08 727.70,184.13 732.51,181.17 737.32,178.21 742.13,175.26 746.94,172.30 751.75,169.34 756.56,166.39 761.37,163.43 766.18,160.48 770.99,157.52 775.80,154.56 780.61,151.61 785.42,148.65 790.23,145.70 795.04,142.74 799.85,139.78 804.66,136.83 809.47,133.87 814.28,130.92 819.09,127.96 823.90,125.00 828.71,122.05 833.52,119.09 838.33,116.14 843.14,113.18 847.95,110.22 852.76,107.27 857.57,104.31 862.38,101.36 867.19,98.40 872.00,95.44"/>
<circle cx="718.69" cy="189.66" r="4.6" fill="#ffffff" stroke="#2ca02c" stroke-width="2"/>
<text x="724.69" y="183.66" font-family="Arial, sans-serif" font-size="10" fill="#2ca02c">max 142 ohm</text>
<line x1="502.00" y1="80.00" x2="524.00" y2="80.00" stroke="#1f77b4" stroke-width="2"/>
<text x="530.00" y="84.00" font-family="Arial, sans-serif" font-size="11">typ</text>
<line x1="502.00" y1="97.00" x2="524.00" y2="97.00" stroke="#ff7f0e" stroke-width="2" stroke-dasharray="5 4"/>
<text x="530.00" y="101.00" font-family="Arial, sans-serif" font-size="11">min</text>
<line x1="502.00" y1="114.00" x2="524.00" y2="114.00" stroke="#2ca02c" stroke-width="2" stroke-dasharray="2 4"/>
<text x="530.00" y="118.00" font-family="Arial, sans-serif" font-size="11">max</text>
<text x="682.00" y="386.00" text-anchor="middle" font-family="Arial, sans-serif" font-size="11">Vcc-relative table voltage (V)</text>
<text transform="translate(442.00 205.00) rotate(-90)" text-anchor="middle" font-family="Arial, sans-serif" font-size="11">Current (mA)</text>
<rect x="72.00" y="418.00" width="800.00" height="144.00" fill="#ffffff" stroke="#c8c8c8"/>
<text x="82.00" y="436.00" font-family="Arial, sans-serif" font-size="12" font-weight="700">Operating-point summary</text>
<text x="82.00" y="454.00" font-family="Arial, sans-serif" font-size="10" font-weight="700" fill="#333">Table</text>
<text x="174.00" y="454.00" font-family="Arial, sans-serif" font-size="10" font-weight="700" fill="#333">Corner</text>
<text x="242.00" y="454.00" font-family="Arial, sans-serif" font-size="10" font-weight="700" fill="#333">Vout</text>
<text x="332.00" y="454.00" font-family="Arial, sans-serif" font-size="10" font-weight="700" fill="#333">Iop</text>
<text x="422.00" y="454.00" font-family="Arial, sans-serif" font-size="10" font-weight="700" fill="#333">Zout</text>
<text x="512.00" y="454.00" font-family="Arial, sans-serif" font-size="10" font-weight="700" fill="#333">Rseries</text>
<text x="82.00" y="473.00" font-family="Arial, sans-serif" font-size="10" fill="#1f77b4">pulldown</text>
<text x="174.00" y="473.00" font-family="Arial, sans-serif" font-size="10" fill="#1f77b4">typ</text>
<text x="242.00" y="473.00" font-family="Arial, sans-serif" font-size="10" fill="#1f77b4">1.562 V</text>
<text x="332.00" y="473.00" font-family="Arial, sans-serif" font-size="10" fill="#1f77b4">4.8 mA</text>
<text x="422.00" y="473.00" font-family="Arial, sans-serif" font-size="10" fill="#1f77b4">328 ohm</text>
<text x="512.00" y="473.00" font-family="Arial, sans-serif" font-size="10" fill="#1f77b4">-278 ohm</text>
<text x="82.00" y="492.00" font-family="Arial, sans-serif" font-size="10" fill="#ff7f0e">pulldown</text>
<text x="174.00" y="492.00" font-family="Arial, sans-serif" font-size="10" fill="#ff7f0e">min</text>
<text x="242.00" y="492.00" font-family="Arial, sans-serif" font-size="10" fill="#ff7f0e">1.501 V</text>
<text x="332.00" y="492.00" font-family="Arial, sans-serif" font-size="10" fill="#ff7f0e">2.4 mA</text>
<text x="422.00" y="492.00" font-family="Arial, sans-serif" font-size="10" fill="#ff7f0e">628 ohm</text>
<text x="512.00" y="492.00" font-family="Arial, sans-serif" font-size="10" fill="#ff7f0e">-578 ohm</text>
<text x="82.00" y="511.00" font-family="Arial, sans-serif" font-size="10" fill="#2ca02c">pulldown</text>
<text x="174.00" y="511.00" font-family="Arial, sans-serif" font-size="10" fill="#2ca02c">max</text>
<text x="242.00" y="511.00" font-family="Arial, sans-serif" font-size="10" fill="#2ca02c">1.612 V</text>
<text x="332.00" y="511.00" font-family="Arial, sans-serif" font-size="10" fill="#2ca02c">7.4 mA</text>
<text x="422.00" y="511.00" font-family="Arial, sans-serif" font-size="10" fill="#2ca02c">219 ohm</text>
<text x="512.00" y="511.00" font-family="Arial, sans-serif" font-size="10" fill="#2ca02c">-169 ohm</text>
<text x="82.00" y="530.00" font-family="Arial, sans-serif" font-size="10" fill="#1f77b4">pullup</text>
<text x="174.00" y="530.00" font-family="Arial, sans-serif" font-size="10" fill="#1f77b4">typ</text>
<text x="242.00" y="530.00" font-family="Arial, sans-serif" font-size="10" fill="#1f77b4">0.3249 V</text>
<text x="332.00" y="530.00" font-family="Arial, sans-serif" font-size="10" fill="#1f77b4">-6.5 mA</text>
<text x="422.00" y="530.00" font-family="Arial, sans-serif" font-size="10" fill="#1f77b4">227 ohm</text>
<text x="512.00" y="530.00" font-family="Arial, sans-serif" font-size="10" fill="#1f77b4">-177 ohm</text>
<text x="82.00" y="549.00" font-family="Arial, sans-serif" font-size="10" fill="#ff7f0e">pullup</text>
<text x="174.00" y="549.00" font-family="Arial, sans-serif" font-size="10" fill="#ff7f0e">min</text>
<text x="242.00" y="549.00" font-family="Arial, sans-serif" font-size="10" fill="#ff7f0e">0.1687 V</text>
<text x="332.00" y="549.00" font-family="Arial, sans-serif" font-size="10" fill="#ff7f0e">-3.4 mA</text>
<text x="422.00" y="549.00" font-family="Arial, sans-serif" font-size="10" fill="#ff7f0e">430 ohm</text>
<text x="512.00" y="549.00" font-family="Arial, sans-serif" font-size="10" fill="#ff7f0e">-380 ohm</text>
<text x="82.00" y="568.00" font-family="Arial, sans-serif" font-size="10" fill="#2ca02c">pullup</text>
<text x="174.00" y="568.00" font-family="Arial, sans-serif" font-size="10" fill="#2ca02c">max</text>
<text x="242.00" y="568.00" font-family="Arial, sans-serif" font-size="10" fill="#2ca02c">0.5169 V</text>
<text x="332.00" y="568.00" font-family="Arial, sans-serif" font-size="10" fill="#2ca02c">-10 mA</text>
<text x="422.00" y="568.00" font-family="Arial, sans-serif" font-size="10" fill="#2ca02c">142 ohm</text>
<text x="512.00" y="568.00" font-family="Arial, sans-serif" font-size="10" fill="#2ca02c">-91.5 ohm</text>
</svg>