<svg xmlns="http://www.w3.org/2000/svg" width="900" height="620" viewBox="0 0 900 620">
<rect width="100%" height="100%" fill="#ffffff"/>
<text x="72" y="26" font-family="Arial, sans-serif" font-size="16" font-weight="700">E34_GPIO_1V1TO1V8_1v1_01 Zout Load-Line Curves</text>
<text x="72" y="45" font-family="Arial, sans-serif" font-size="11" fill="#555">Rload=50 ohm; solid=device I-V, dashed=load line, circles=operating points</text>
<rect x="72.00" y="62.00" width="380.00" height="286.00" fill="#fbfbfb" stroke="#c8c8c8"/>
<text x="80.00" y="50.00" font-family="Arial, sans-serif" font-size="13" font-weight="700">[Pulldown] Rload to Vdd</text>
<line x1="72.00" y1="62.00" x2="72.00" y2="348.00" stroke="#ececec"/>
<text x="72.00" y="366.00" text-anchor="middle" font-family="Arial, sans-serif" font-size="10">-1.2</text>
<line x1="167.00" y1="62.00" x2="167.00" y2="348.00" stroke="#ececec"/>
<text x="167.00" y="366.00" text-anchor="middle" font-family="Arial, sans-serif" font-size="10">-0.341</text>
<line x1="262.00" y1="62.00" x2="262.00" y2="348.00" stroke="#ececec"/>
<text x="262.00" y="366.00" text-anchor="middle" font-family="Arial, sans-serif" font-size="10">0.55</text>
<line x1="357.00" y1="62.00" x2="357.00" y2="348.00" stroke="#ececec"/>
<text x="357.00" y="366.00" text-anchor="middle" font-family="Arial, sans-serif" font-size="10">1.4</text>
<line x1="452.00" y1="62.00" x2="452.00" y2="348.00" stroke="#ececec"/>
<text x="452.00" y="366.00" text-anchor="middle" font-family="Arial, sans-serif" font-size="10">2.3</text>
<line x1="72.00" y1="348.00" x2="452.00" y2="348.00" stroke="#ececec"/>
<text x="65.00" y="352.00" text-anchor="end" font-family="Arial, sans-serif" font-size="10">-33</text>
<line x1="72.00" y1="276.50" x2="452.00" y2="276.50" stroke="#ececec"/>
<text x="65.00" y="280.50" text-anchor="end" font-family="Arial, sans-serif" font-size="10">-11</text>
<line x1="72.00" y1="205.00" x2="452.00" y2="205.00" stroke="#ececec"/>
<text x="65.00" y="209.00" text-anchor="end" font-family="Arial, sans-serif" font-size="10">11</text>
<line x1="72.00" y1="133.50" x2="452.00" y2="133.50" stroke="#ececec"/>
<text x="65.00" y="137.50" text-anchor="end" font-family="Arial, sans-serif" font-size="10">33</text>
<line x1="72.00" y1="62.00" x2="452.00" y2="62.00" stroke="#ececec"/>
<text x="65.00" y="66.00" text-anchor="end" font-family="Arial, sans-serif" font-size="10">55</text>
<line x1="203.36" y1="62" x2="203.36" y2="348" stroke="#777" stroke-dasharray="4 4"/>
<line x1="72.0" y1="241.04" x2="452.0" y2="241.04" stroke="#777" stroke-dasharray="4 4"/>
<polyline fill="none" stroke="#1f77b4" stroke-width="1.8" points="86.07,263.59 91.41,263.59 96.74,263.59 103.13,263.59 108.46,263.58 113.80,263.48 116.99,263.37 118.06,263.33 119.13,263.28 120.19,263.23 121.26,263.17 124.46,262.97 129.79,262.54 130.86,262.43 132.99,262.20 134.05,262.07 136.19,261.80 137.25,261.64 138.32,261.48 139.38,261.32 140.45,261.14 141.52,260.95 142.58,260.75 143.65,260.54 144.72,260.33 145.78,260.10 146.85,259.86 147.91,259.61 148.98,259.35 150.05,259.08 151.11,258.80 152.18,258.50 153.25,258.20 154.31,257.89 155.38,257.57 156.44,257.24 157.51,256.90 158.58,256.55 162.84,255.10 169.24,252.80 174.57,250.87 179.90,248.96 185.23,247.08 190.56,245.24 195.89,243.45 202.29,241.37 203.36,241.04 207.62,239.72 212.95,238.15 218.29,236.67 223.62,235.29 228.95,234.03 235.34,232.68 240.68,231.73 246.01,230.93 251.34,230.32 256.67,229.87 258.80,229.74 260.93,229.63 262.00,229.58 263.07,229.53 264.13,229.49 268.40,229.35 273.73,229.20 279.06,229.08 284.39,228.97 289.72,228.87 295.05,228.77 296.12,228.76 299.32,228.70 300.38,228.69 301.45,228.67 306.78,228.59 308.91,228.56 312.11,228.51 317.44,228.44 320.64,228.39 322.77,228.36 329.17,228.28 332.37,228.24 334.50,228.21 339.83,228.15 345.16,228.09 350.50,228.02 355.83,227.96 362.22,227.89 367.56,227.83 372.89,227.75 378.22,227.65 383.55,227.50 388.88,227.28 395.28,226.88 400.61,226.42 405.94,225.84 411.27,225.15 416.60,224.35 421.93,223.45 428.33,222.25 433.66,221.17 437.93,220.25"/>
<polyline fill="none" stroke="#ff7f0e" stroke-width="1.8" stroke-dasharray="5 4" points="86.07,255.52 91.41,255.52 96.74,255.52 103.13,255.52 108.46,255.52 113.80,255.52 116.99,255.52 118.06,255.51 119.13,255.50 120.19,255.50 121.26,255.48 124.46,255.38 129.79,255.11 130.86,255.04 132.99,254.88 134.05,254.80 136.19,254.62 137.25,254.52 138.32,254.41 139.38,254.31 140.45,254.19 141.52,254.07 142.58,253.95 143.65,253.81 144.72,253.68 145.78,253.53 146.85,253.38 147.91,253.23 148.98,253.07 150.05,252.90 151.11,252.73 152.18,252.55 153.25,252.36 154.31,252.17 155.38,251.97 156.44,251.76 157.51,251.55 158.58,251.33 162.84,250.41 169.24,248.90 174.57,247.58 179.90,246.27 185.23,244.99 190.56,243.76 195.89,242.58 202.29,241.25 203.36,241.04 207.62,240.22 212.95,239.27 218.29,238.41 223.62,237.64 228.95,236.97 235.34,236.32 240.68,235.90 246.01,235.60 251.34,235.40 256.67,235.28 258.80,235.25 260.93,235.21 262.00,235.20 263.07,235.18 264.13,235.17 268.40,235.12 273.73,235.06 279.06,235.01 284.39,234.96 289.72,234.92 295.05,234.88 296.12,234.87 299.32,234.84 300.38,234.84 301.45,234.83 306.78,234.79 308.91,234.77 312.11,234.75 317.44,234.72 320.64,234.70 322.77,234.68 329.17,234.64 332.37,234.62 334.50,234.61 339.83,234.58 345.16,234.54 350.50,234.49 355.83,234.41 362.22,234.26 367.56,234.07 372.89,233.80 378.22,233.45 383.55,233.03 388.88,232.54 395.28,231.86 400.61,231.23 405.94,230.54 411.27,229.81 416.60,229.04 421.93,228.26 428.33,227.33 433.66,226.55 437.93,225.93"/>
<polyline fill="none" stroke="#2ca02c" stroke-width="1.8" stroke-dasharray="2 4" points="86.07,272.15 91.41,272.15 96.74,272.15 103.13,272.15 108.46,272.10 113.80,271.99 116.99,271.88 118.06,271.84 119.13,271.79 120.19,271.74 121.26,271.68 124.46,271.46 129.79,270.96 130.86,270.83 132.99,270.54 134.05,270.38 136.19,270.03 137.25,269.83 138.32,269.62 139.38,269.40 140.45,269.16 141.52,268.91 142.58,268.64 143.65,268.36 144.72,268.06 145.78,267.75 146.85,267.42 147.91,267.07 148.98,266.71 150.05,266.33 151.11,265.94 152.18,265.53 153.25,265.10 154.31,264.66 155.38,264.21 156.44,263.75 157.51,263.27 158.58,262.79 162.84,260.76 169.24,257.62 174.57,254.98 179.90,252.34 185.23,249.72 190.56,247.12 195.89,244.56 202.29,241.53 203.36,241.04 207.62,239.08 212.95,236.68 218.29,234.37 223.62,232.16 228.95,230.05 235.34,227.70 240.68,225.90 246.01,224.28 251.34,222.85 256.67,221.63 258.80,221.21 260.93,220.83 262.00,220.65 263.07,220.49 264.13,220.33 268.40,219.79 273.73,219.28 279.06,218.92 284.39,218.64 289.72,218.41 295.05,218.21 296.12,218.18 299.32,218.07 300.38,218.03 301.45,218.00 306.78,217.84 308.91,217.78 312.11,217.69 317.44,217.55 320.64,217.46 322.77,217.41 329.17,217.26 332.37,217.18 334.50,217.14 339.83,217.02 345.16,216.91 350.50,216.79 355.83,216.69 362.22,216.56 367.56,216.46 372.89,216.36 378.22,216.25 383.55,216.14 388.88,216.02 395.28,215.84 400.61,215.66 405.94,215.43 411.27,215.11 416.60,214.66 421.93,214.06 428.33,213.11 433.66,212.13 437.93,211.22"/>
<polyline fill="none" stroke="#1f77b4" stroke-width="1.1" stroke-dasharray="6 4" points="72.00,88.24 76.81,91.19 81.62,94.15 86.43,97.10 91.24,100.06 96.05,103.02 100.86,105.97 105.67,108.93 110.48,111.88 115.29,114.84 120.10,117.80 124.91,120.75 129.72,123.71 134.53,126.66 139.34,129.62 144.15,132.58 148.96,135.53 153.77,138.49 158.58,141.44 163.39,144.40 168.20,147.36 173.01,150.31 177.82,153.27 182.63,156.23 187.44,159.18 192.25,162.14 197.06,165.09 201.87,168.05 206.68,171.01 211.49,173.96 216.30,176.92 221.11,179.87 225.92,182.83 230.73,185.79 235.54,188.74 240.35,191.70 245.16,194.65 249.97,197.61 254.78,200.57 259.59,203.52 264.41,206.48 269.22,209.43 274.03,212.39 278.84,215.35 283.65,218.30 288.46,221.26 293.27,224.21 298.08,227.17 302.89,230.13 307.70,233.08 312.51,236.04 317.32,238.99 322.13,241.95 326.94,244.91 331.75,247.86 336.56,250.82 341.37,253.77 346.18,256.73 350.99,259.69 355.80,262.64 360.61,265.60 365.42,268.56 370.23,271.51 375.04,274.47 379.85,277.42 384.66,280.38 389.47,283.34 394.28,286.29 399.09,289.25 403.90,292.20 408.71,295.16 413.52,298.12 418.33,301.07 423.14,304.03 427.95,306.98 432.76,309.94 437.57,312.90 442.38,315.85 447.19,318.81 452.00,321.76"/>
<circle cx="300.54" cy="228.68" r="4.6" fill="#ffffff" stroke="#1f77b4" stroke-width="2"/>
<text x="306.54" y="222.68" font-family="Arial, sans-serif" font-size="10" fill="#1f77b4">typ 242 ohm</text>
<polyline fill="none" stroke="#ff7f0e" stroke-width="1.1" stroke-dasharray="6 4" points="72.00,95.44 76.81,98.40 81.62,101.36 86.43,104.31 91.24,107.27 96.05,110.22 100.86,113.18 105.67,116.14 110.48,119.09 115.29,122.05 120.10,125.00 124.91,127.96 129.72,130.92 134.53,133.87 139.34,136.83 144.15,139.78 148.96,142.74 153.77,145.70 158.58,148.65 163.39,151.61 168.20,154.56 173.01,157.52 177.82,160.48 182.63,163.43 187.44,166.39 192.25,169.34 197.06,172.30 201.87,175.26 206.68,178.21 211.49,181.17 216.30,184.13 221.11,187.08 225.92,190.04 230.73,192.99 235.54,195.95 240.35,198.91 245.16,201.86 249.97,204.82 254.78,207.77 259.59,210.73 264.41,213.69 269.22,216.64 274.03,219.60 278.84,222.55 283.65,225.51 288.46,228.47 293.27,231.42 298.08,234.38 302.89,237.33 307.70,240.29 312.51,243.25 317.32,246.20 322.13,249.16 326.94,252.11 331.75,255.07 336.56,258.03 341.37,260.98 346.18,263.94 350.99,266.89 355.80,269.85 360.61,272.81 365.42,275.76 370.23,278.72 375.04,281.67 379.85,284.63 384.66,287.59 389.47,290.54 394.28,293.50 399.09,296.46 403.90,299.41 408.71,302.37 413.52,305.32 418.33,308.28 423.14,311.24 427.95,314.19 432.76,317.15 437.57,320.10 442.38,323.06 447.19,326.02 452.00,328.97"/>
<circle cx="298.84" cy="234.85" r="4.6" fill="#ffffff" stroke="#ff7f0e" stroke-width="2"/>
<text x="304.84" y="228.85" font-family="Arial, sans-serif" font-size="10" fill="#ff7f0e">min 474 ohm</text>
<polyline fill="none" stroke="#2ca02c" stroke-width="1.1" stroke-dasharray="6 4" points="72.00,81.03 76.81,83.98 81.62,86.94 86.43,89.90 91.24,92.85 96.05,95.81 100.86,98.76 105.67,101.72 110.48,104.68 115.29,107.63 120.10,110.59 124.91,113.54 129.72,116.50 134.53,119.46 139.34,122.41 144.15,125.37 148.96,128.33 153.77,131.28 158.58,134.24 163.39,137.19 168.20,140.15 173.01,143.11 177.82,146.06 182.63,149.02 187.44,151.97 192.25,154.93 197.06,157.89 201.87,160.84 206.68,163.80 211.49,166.75 216.30,169.71 221.11,172.67 225.92,175.62 230.73,178.58 235.54,181.53 240.35,184.49 245.16,187.45 249.97,190.40 254.78,193.36 259.59,196.31 264.41,199.27 269.22,202.23 274.03,205.18 278.84,208.14 283.65,211.09 288.46,214.05 293.27,217.01 298.08,219.96 302.89,222.92 307.70,225.87 312.51,228.83 317.32,231.79 322.13,234.74 326.94,237.70 331.75,240.66 336.56,243.61 341.37,246.57 346.18,249.52 350.99,252.48 355.80,255.44 360.61,258.39 365.42,261.35 370.23,264.30 375.04,267.26 379.85,270.22 384.66,273.17 389.47,276.13 394.28,279.08 399.09,282.04 403.90,285.00 408.71,287.95 413.52,290.91 418.33,293.86 423.14,296.82 427.95,299.78 432.76,302.73 437.57,305.69 442.38,308.64 447.19,311.60 452.00,314.56"/>
<circle cx="295.22" cy="218.21" r="4.6" fill="#ffffff" stroke="#2ca02c" stroke-width="2"/>
<text x="301.22" y="212.21" font-family="Arial, sans-serif" font-size="10" fill="#2ca02c">max 124 ohm</text>
<line x1="82.00" y1="80.00" x2="104.00" y2="80.00" stroke="#1f77b4" stroke-width="2"/>
<text x="110.00" y="84.00" font-family="Arial, sans-serif" font-size="11">typ</text>
<line x1="82.00" y1="97.00" x2="104.00" y2="97.00" stroke="#ff7f0e" stroke-width="2" stroke-dasharray="5 4"/>
<text x="110.00" y="101.00" font-family="Arial, sans-serif" font-size="11">min</text>
<line x1="82.00" y1="114.00" x2="104.00" y2="114.00" stroke="#2ca02c" stroke-width="2" stroke-dasharray="2 4"/>
<text x="110.00" y="118.00" font-family="Arial, sans-serif" font-size="11">max</text>
<text x="262.00" y="386.00" text-anchor="middle" font-family="Arial, sans-serif" font-size="11">Output voltage (V)</text>
<text transform="translate(22.00 205.00) rotate(-90)" text-anchor="middle" font-family="Arial, sans-serif" font-size="11">Current (mA)</text>
<rect x="492.00" y="62.00" width="380.00" height="286.00" fill="#fbfbfb" stroke="#c8c8c8"/>
<text x="500.00" y="50.00" font-family="Arial, sans-serif" font-size="13" font-weight="700">[Pullup] Rload to GND</text>
<line x1="492.00" y1="62.00" x2="492.00" y2="348.00" stroke="#ececec"/>
<text x="492.00" y="366.00" text-anchor="middle" font-family="Arial, sans-serif" font-size="10">-1.2</text>
<line x1="587.00" y1="62.00" x2="587.00" y2="348.00" stroke="#ececec"/>
<text x="587.00" y="366.00" text-anchor="middle" font-family="Arial, sans-serif" font-size="10">-0.341</text>
<line x1="682.00" y1="62.00" x2="682.00" y2="348.00" stroke="#ececec"/>
<text x="682.00" y="366.00" text-anchor="middle" font-family="Arial, sans-serif" font-size="10">0.55</text>
<line x1="777.00" y1="62.00" x2="777.00" y2="348.00" stroke="#ececec"/>
<text x="777.00" y="366.00" text-anchor="middle" font-family="Arial, sans-serif" font-size="10">1.4</text>
<line x1="872.00" y1="62.00" x2="872.00" y2="348.00" stroke="#ececec"/>
<text x="872.00" y="366.00" text-anchor="middle" font-family="Arial, sans-serif" font-size="10">2.3</text>
<line x1="492.00" y1="348.00" x2="872.00" y2="348.00" stroke="#ececec"/>
<text x="485.00" y="352.00" text-anchor="end" font-family="Arial, sans-serif" font-size="10">-55</text>
<line x1="492.00" y1="276.50" x2="872.00" y2="276.50" stroke="#ececec"/>
<text x="485.00" y="280.50" text-anchor="end" font-family="Arial, sans-serif" font-size="10">-33</text>
<line x1="492.00" y1="205.00" x2="872.00" y2="205.00" stroke="#ececec"/>
<text x="485.00" y="209.00" text-anchor="end" font-family="Arial, sans-serif" font-size="10">-11</text>
<line x1="492.00" y1="133.50" x2="872.00" y2="133.50" stroke="#ececec"/>
<text x="485.00" y="137.50" text-anchor="end" font-family="Arial, sans-serif" font-size="10">11</text>
<line x1="492.00" y1="62.00" x2="872.00" y2="62.00" stroke="#ececec"/>
<text x="485.00" y="66.00" text-anchor="end" font-family="Arial, sans-serif" font-size="10">33</text>
<line x1="623.36" y1="62" x2="623.36" y2="348" stroke="#777" stroke-dasharray="4 4"/>
<line x1="492.0" y1="168.96" x2="872.0" y2="168.96" stroke="#777" stroke-dasharray="4 4"/>
<polyline fill="none" stroke="#1f77b4" stroke-width="1.8" points="506.07,137.94 508.21,137.94 511.41,137.94 513.54,137.94 514.60,137.95 515.67,138.00 516.74,138.09 517.80,138.19 518.87,138.32 519.93,138.47 521.00,138.64 522.07,138.82 523.13,139.01 524.20,139.22 525.27,139.43 526.33,139.66 527.40,139.89 528.46,140.14 529.53,140.38 533.80,141.45 534.86,141.72 535.93,142.01 536.99,142.30 538.06,142.59 539.13,142.89 540.19,143.19 541.26,143.49 542.33,143.80 543.39,144.11 544.46,144.42 549.79,146.03 556.19,148.03 561.52,149.73 566.85,151.46 572.18,153.19 577.51,154.92 582.84,156.63 589.24,158.66 594.57,160.33 599.90,161.97 605.23,163.60 610.56,165.20 614.83,166.47 615.89,166.78 622.29,168.65 623.36,168.96 627.62,170.16 631.89,171.31 632.95,171.59 638.29,172.92 643.62,174.17 648.95,175.32 655.34,176.56 660.68,177.47 666.01,178.23 671.34,178.86 674.54,179.16 676.67,179.34 677.74,179.42 679.87,179.57 682.00,179.69 683.07,179.75 686.26,179.91 688.40,180.00 693.73,180.19 699.06,180.36 704.39,180.51 709.72,180.64 716.12,180.78 717.19,180.80 718.25,180.82 721.45,180.89 726.78,180.99 728.91,181.03 732.11,181.08 737.44,181.17 740.64,181.22 742.77,181.25 749.17,181.35 752.37,181.40 754.50,181.42 759.83,181.50 765.16,181.57 770.50,181.63 775.83,181.67 782.22,181.68 787.56,181.68 792.89,181.68 798.22,181.68 803.55,181.68 808.88,181.68 815.28,181.68 820.61,181.68 825.94,181.68 831.27,181.68 836.60,181.68 841.93,181.68 848.33,181.68 853.66,181.68 857.93,181.68"/>
<polyline fill="none" stroke="#ff7f0e" stroke-width="1.8" stroke-dasharray="5 4" points="506.07,151.30 508.21,151.30 511.41,151.30 513.54,151.30 514.60,151.30 515.67,151.30 516.74,151.30 517.80,151.30 518.87,151.30 519.93,151.30 521.00,151.30 522.07,151.30 523.13,151.30 524.20,151.30 525.27,151.30 526.33,151.30 527.40,151.30 528.46,151.30 529.53,151.30 533.80,151.31 534.86,151.34 535.93,151.40 536.99,151.48 538.06,151.58 539.13,151.69 540.19,151.82 541.26,151.95 542.33,152.10 543.39,152.25 544.46,152.42 549.79,153.33 556.19,154.58 561.52,155.71 566.85,156.88 572.18,158.08 577.51,159.28 582.84,160.49 589.24,161.91 594.57,163.07 599.90,164.21 605.23,165.33 610.56,166.42 614.83,167.28 615.89,167.50 622.29,168.76 623.36,168.96 627.62,169.75 631.89,170.49 632.95,170.67 638.29,171.50 643.62,172.24 648.95,172.90 655.34,173.56 660.68,174.00 666.01,174.33 671.34,174.57 674.54,174.67 676.67,174.73 677.74,174.75 679.87,174.80 682.00,174.84 683.07,174.86 686.26,174.91 688.40,174.95 693.73,175.02 699.06,175.09 704.39,175.15 709.72,175.21 716.12,175.27 717.19,175.28 718.25,175.29 721.45,175.32 726.78,175.36 728.91,175.38 732.11,175.40 737.44,175.44 740.64,175.47 742.77,175.48 749.17,175.52 752.37,175.54 754.50,175.55 759.83,175.56 765.16,175.56 770.50,175.56 775.83,175.56 782.22,175.56 787.56,175.56 792.89,175.56 798.22,175.56 803.55,175.56 808.88,175.56 815.28,175.56 820.61,175.56 825.94,175.56 831.27,175.56 836.60,175.56 841.93,175.56 848.33,175.56 853.66,175.56 857.93,175.56"/>
<polyline fill="none" stroke="#2ca02c" stroke-width="1.8" stroke-dasharray="2 4" points="506.07,120.73 508.21,121.34 511.41,122.33 513.54,123.02 514.60,123.37 515.67,123.73 516.74,124.10 517.80,124.47 518.87,124.84 519.93,125.22 521.00,125.61 522.07,126.00 523.13,126.39 524.20,126.78 525.27,127.18 526.33,127.59 527.40,127.99 528.46,128.40 529.53,128.82 533.80,130.50 534.86,130.92 535.93,131.35 536.99,131.78 538.06,132.22 539.13,132.65 540.19,133.09 541.26,133.53 542.33,133.98 543.39,134.42 544.46,134.87 549.79,137.12 556.19,139.88 561.52,142.20 566.85,144.55 572.18,146.90 577.51,149.24 582.84,151.58 589.24,154.37 594.57,156.68 599.90,158.98 605.23,161.27 610.56,163.54 614.83,165.31 615.89,165.76 622.29,168.51 623.36,168.96 627.62,170.75 631.89,172.48 632.95,172.90 638.29,174.90 643.62,176.86 648.95,178.72 655.34,180.81 660.68,182.42 666.01,183.89 671.34,185.23 674.54,185.95 676.67,186.40 677.74,186.61 679.87,187.02 682.00,187.40 683.07,187.58 686.26,188.08 688.40,188.38 693.73,189.02 699.06,189.53 704.39,189.94 709.72,190.29 716.12,190.64 717.19,190.70 718.25,190.75 721.45,190.90 726.78,191.13 728.91,191.22 732.11,191.34 737.44,191.54 740.64,191.65 742.77,191.72 749.17,191.92 752.37,192.01 754.50,192.07 759.83,192.22 765.16,192.36 770.50,192.50 775.83,192.62 782.22,192.77 787.56,192.88 792.89,192.96 798.22,192.97 803.55,192.97 808.88,192.97 815.28,192.97 820.61,192.97 825.94,192.97 831.27,192.97 836.60,192.97 841.93,192.97 848.33,192.97 853.66,192.97 857.93,192.97"/>
<polyline fill="none" stroke="#1f77b4" stroke-width="1.1" stroke-dasharray="6 4" points="492.00,321.76 496.81,318.81 501.62,315.85 506.43,312.90 511.24,309.94 516.05,306.98 520.86,304.03 525.67,301.07 530.48,298.12 535.29,295.16 540.10,292.20 544.91,289.25 549.72,286.29 554.53,283.34 559.34,280.38 564.15,277.42 568.96,274.47 573.77,271.51 578.58,268.56 583.39,265.60 588.20,262.64 593.01,259.69 597.82,256.73 602.63,253.77 607.44,250.82 612.25,247.86 617.06,244.91 621.87,241.95 626.68,238.99 631.49,236.04 636.30,233.08 641.11,230.13 645.92,227.17 650.73,224.21 655.54,221.26 660.35,218.30 665.16,215.35 669.97,212.39 674.78,209.43 679.59,206.48 684.41,203.52 689.22,200.57 694.03,197.61 698.84,194.65 703.65,191.70 708.46,188.74 713.27,185.79 718.08,182.83 722.89,179.87 727.70,176.92 732.51,173.96 737.32,171.01 742.13,168.05 746.94,165.09 751.75,162.14 756.56,159.18 761.37,156.23 766.18,153.27 770.99,150.31 775.80,147.36 780.61,144.40 785.42,141.44 790.23,138.49 795.04,135.53 799.85,132.58 804.66,129.62 809.47,126.66 814.28,123.71 819.09,120.75 823.90,117.80 828.71,114.84 833.52,111.88 838.33,108.93 843.14,105.97 847.95,103.02 852.76,100.06 857.57,97.10 862.38,94.15 867.19,91.19 872.00,88.24"/>
<circle cx="721.24" cy="180.88" r="4.6" fill="#ffffff" stroke="#1f77b4" stroke-width="2"/>
<text x="727.24" y="174.88" font-family="Arial, sans-serif" font-size="10" fill="#1f77b4">typ 252 ohm</text>
<polyline fill="none" stroke="#ff7f0e" stroke-width="1.1" stroke-dasharray="6 4" points="492.00,314.56 496.81,311.60 501.62,308.64 506.43,305.69 511.24,302.73 516.05,299.78 520.86,296.82 525.67,293.86 530.48,290.91 535.29,287.95 540.10,285.00 544.91,282.04 549.72,279.08 554.53,276.13 559.34,273.17 564.15,270.22 568.96,267.26 573.77,264.30 578.58,261.35 583.39,258.39 588.20,255.44 593.01,252.48 597.82,249.52 602.63,246.57 607.44,243.61 612.25,240.66 617.06,237.70 621.87,234.74 626.68,231.79 631.49,228.83 636.30,225.87 641.11,222.92 645.92,219.96 650.73,217.01 655.54,214.05 660.35,211.09 665.16,208.14 669.97,205.18 674.78,202.23 679.59,199.27 684.41,196.31 689.22,193.36 694.03,190.40 698.84,187.45 703.65,184.49 708.46,181.53 713.27,178.58 718.08,175.62 722.89,172.67 727.70,169.71 732.51,166.75 737.32,163.80 742.13,160.84 746.94,157.89 751.75,154.93 756.56,151.97 761.37,149.02 766.18,146.06 770.99,143.11 775.80,140.15 780.61,137.19 785.42,134.24 790.23,131.28 795.04,128.33 799.85,125.37 804.66,122.41 809.47,119.46 814.28,116.50 819.09,113.54 823.90,110.59 828.71,107.63 833.52,104.68 838.33,101.72 843.14,98.76 847.95,95.81 852.76,92.85 857.57,89.90 862.38,86.94 867.19,83.98 872.00,81.03"/>
<circle cx="718.62" cy="175.29" r="4.6" fill="#ffffff" stroke="#ff7f0e" stroke-width="2"/>
<text x="724.62" y="169.29" font-family="Arial, sans-serif" font-size="10" fill="#ff7f0e">min 463 ohm</text>
<polyline fill="none" stroke="#2ca02c" stroke-width="1.1" stroke-dasharray="6 4" points="492.00,328.97 496.81,326.02 501.62,323.06 506.43,320.10 511.24,317.15 516.05,314.19 520.86,311.24 525.67,308.28 530.48,305.32 535.29,302.37 540.10,299.41 544.91,296.46 549.72,293.50 554.53,290.54 559.34,287.59 564.15,284.63 568.96,281.67 573.77,278.72 578.58,275.76 583.39,272.81 588.20,269.85 593.01,266.89 597.82,263.94 602.63,260.98 607.44,258.03 612.25,255.07 617.06,252.11 621.87,249.16 626.68,246.20 631.49,243.25 636.30,240.29 641.11,237.33 645.92,234.38 650.73,231.42 655.54,228.47 660.35,225.51 665.16,222.55 669.97,219.60 674.78,216.64 679.59,213.69 684.41,210.73 689.22,207.77 694.03,204.82 698.84,201.86 703.65,198.91 708.46,195.95 713.27,192.99 718.08,190.04 722.89,187.08 727.70,184.13 732.51,181.17 737.32,178.21 742.13,175.26 746.94,172.30 751.75,169.34 756.56,166.39 761.37,163.43 766.18,160.48 770.99,157.52 775.80,154.56 780.61,151.61 785.42,148.65 790.23,145.70 795.04,142.74 799.85,139.78 804.66,136.83 809.47,133.87 814.28,130.92 819.09,127.96 823.90,125.00 828.71,122.05 833.52,119.09 838.33,116.14 843.14,113.18 847.95,110.22 852.76,107.27 857.57,104.31 862.38,101.36 867.19,98.40 872.00,95.44"/>
<circle cx="717.02" cy="190.69" r="4.6" fill="#ffffff" stroke="#2ca02c" stroke-width="2"/>
<text x="723.02" y="184.69" font-family="Arial, sans-serif" font-size="10" fill="#2ca02c">max 132 ohm</text>
<line x1="502.00" y1="80.00" x2="524.00" y2="80.00" stroke="#1f77b4" stroke-width="2"/>
<text x="530.00" y="84.00" font-family="Arial, sans-serif" font-size="11">typ</text>
<line x1="502.00" y1="97.00" x2="524.00" y2="97.00" stroke="#ff7f0e" stroke-width="2" stroke-dasharray="5 4"/>
<text x="530.00" y="101.00" font-family="Arial, sans-serif" font-size="11">min</text>
<line x1="502.00" y1="114.00" x2="524.00" y2="114.00" stroke="#2ca02c" stroke-width="2" stroke-dasharray="2 4"/>
<text x="530.00" y="118.00" font-family="Arial, sans-serif" font-size="11">max</text>
<text x="682.00" y="386.00" text-anchor="middle" font-family="Arial, sans-serif" font-size="11">Vcc-relative table voltage (V)</text>
<text transform="translate(442.00 205.00) rotate(-90)" text-anchor="middle" font-family="Arial, sans-serif" font-size="11">Current (mA)</text>
<rect x="72.00" y="418.00" width="800.00" height="144.00" fill="#ffffff" stroke="#c8c8c8"/>
<text x="82.00" y="436.00" font-family="Arial, sans-serif" font-size="12" font-weight="700">Operating-point summary</text>
<text x="82.00" y="454.00" font-family="Arial, sans-serif" font-size="10" font-weight="700" fill="#333">Table</text>
<text x="174.00" y="454.00" font-family="Arial, sans-serif" font-size="10" font-weight="700" fill="#333">Corner</text>
<text x="242.00" y="454.00" font-family="Arial, sans-serif" font-size="10" font-weight="700" fill="#333">Vout</text>
<text x="332.00" y="454.00" font-family="Arial, sans-serif" font-size="10" font-weight="700" fill="#333">Iop</text>
<text x="422.00" y="454.00" font-family="Arial, sans-serif" font-size="10" font-weight="700" fill="#333">Zout</text>
<text x="512.00" y="454.00" font-family="Arial, sans-serif" font-size="10" font-weight="700" fill="#333">Rseries</text>
<text x="82.00" y="473.00" font-family="Arial, sans-serif" font-size="10" fill="#1f77b4">pulldown</text>
<text x="174.00" y="473.00" font-family="Arial, sans-serif" font-size="10" fill="#1f77b4">typ</text>
<text x="242.00" y="473.00" font-family="Arial, sans-serif" font-size="10" fill="#1f77b4">0.9115 V</text>
<text x="332.00" y="473.00" font-family="Arial, sans-serif" font-size="10" fill="#1f77b4">3.8 mA</text>
<text x="422.00" y="473.00" font-family="Arial, sans-serif" font-size="10" fill="#1f77b4">242 ohm</text>
<text x="512.00" y="473.00" font-family="Arial, sans-serif" font-size="10" fill="#1f77b4">-192 ohm</text>
<text x="82.00" y="492.00" font-family="Arial, sans-serif" font-size="10" fill="#ff7f0e">pulldown</text>
<text x="174.00" y="492.00" font-family="Arial, sans-serif" font-size="10" fill="#ff7f0e">min</text>
<text x="242.00" y="492.00" font-family="Arial, sans-serif" font-size="10" fill="#ff7f0e">0.8955 V</text>
<text x="332.00" y="492.00" font-family="Arial, sans-serif" font-size="10" fill="#ff7f0e">1.9 mA</text>
<text x="422.00" y="492.00" font-family="Arial, sans-serif" font-size="10" fill="#ff7f0e">474 ohm</text>
<text x="512.00" y="492.00" font-family="Arial, sans-serif" font-size="10" fill="#ff7f0e">-424 ohm</text>
<text x="82.00" y="511.00" font-family="Arial, sans-serif" font-size="10" fill="#2ca02c">pulldown</text>
<text x="174.00" y="511.00" font-family="Arial, sans-serif" font-size="10" fill="#2ca02c">max</text>
<text x="242.00" y="511.00" font-family="Arial, sans-serif" font-size="10" fill="#2ca02c">0.8616 V</text>
<text x="332.00" y="511.00" font-family="Arial, sans-serif" font-size="10" fill="#2ca02c">7 mA</text>
<text x="422.00" y="511.00" font-family="Arial, sans-serif" font-size="10" fill="#2ca02c">124 ohm</text>
<text x="512.00" y="511.00" font-family="Arial, sans-serif" font-size="10" fill="#2ca02c">-73.6 ohm</text>
<text x="82.00" y="530.00" font-family="Arial, sans-serif" font-size="10" fill="#1f77b4">pullup</text>
<text x="174.00" y="530.00" font-family="Arial, sans-serif" font-size="10" fill="#1f77b4">typ</text>
<text x="242.00" y="530.00" font-family="Arial, sans-serif" font-size="10" fill="#1f77b4">0.1819 V</text>
<text x="332.00" y="530.00" font-family="Arial, sans-serif" font-size="10" fill="#1f77b4">-3.6 mA</text>
<text x="422.00" y="530.00" font-family="Arial, sans-serif" font-size="10" fill="#1f77b4">252 ohm</text>
<text x="512.00" y="530.00" font-family="Arial, sans-serif" font-size="10" fill="#1f77b4">-202 ohm</text>
<text x="82.00" y="549.00" font-family="Arial, sans-serif" font-size="10" fill="#ff7f0e">pullup</text>
<text x="174.00" y="549.00" font-family="Arial, sans-serif" font-size="10" fill="#ff7f0e">min</text>
<text x="242.00" y="549.00" font-family="Arial, sans-serif" font-size="10" fill="#ff7f0e">0.09658 V</text>
<text x="332.00" y="549.00" font-family="Arial, sans-serif" font-size="10" fill="#ff7f0e">-1.9 mA</text>
<text x="422.00" y="549.00" font-family="Arial, sans-serif" font-size="10" fill="#ff7f0e">463 ohm</text>
<text x="512.00" y="549.00" font-family="Arial, sans-serif" font-size="10" fill="#ff7f0e">-413 ohm</text>
<text x="82.00" y="568.00" font-family="Arial, sans-serif" font-size="10" fill="#2ca02c">pullup</text>
<text x="174.00" y="568.00" font-family="Arial, sans-serif" font-size="10" fill="#2ca02c">max</text>
<text x="242.00" y="568.00" font-family="Arial, sans-serif" font-size="10" fill="#2ca02c">0.3316 V</text>
<text x="332.00" y="568.00" font-family="Arial, sans-serif" font-size="10" fill="#2ca02c">-6.6 mA</text>
<text x="422.00" y="568.00" font-family="Arial, sans-serif" font-size="10" fill="#2ca02c">132 ohm</text>
<text x="512.00" y="568.00" font-family="Arial, sans-serif" font-size="10" fill="#2ca02c">-82.5 ohm</text>
</svg>