<svg xmlns="http://www.w3.org/2000/svg" width="900" height="620" viewBox="0 0 900 620">
<rect width="100%" height="100%" fill="#ffffff"/>
<text x="72" y="26" font-family="Arial, sans-serif" font-size="16" font-weight="700">E34_GPIO_I2CSCLIN_1V2_01_ISOSW Zout Load-Line Curves</text>
<text x="72" y="45" font-family="Arial, sans-serif" font-size="11" fill="#555">Rload=50 ohm; solid=device I-V, dashed=load line, circles=operating points</text>
<rect x="72.00" y="62.00" width="380.00" height="286.00" fill="#fbfbfb" stroke="#c8c8c8"/>
<text x="80.00" y="50.00" font-family="Arial, sans-serif" font-size="13" font-weight="700">[Pulldown] Rload to Vdd</text>
<line x1="72.00" y1="62.00" x2="72.00" y2="348.00" stroke="#ececec"/>
<text x="72.00" y="366.00" text-anchor="middle" font-family="Arial, sans-serif" font-size="10">-1.3</text>
<line x1="167.00" y1="62.00" x2="167.00" y2="348.00" stroke="#ececec"/>
<text x="167.00" y="366.00" text-anchor="middle" font-family="Arial, sans-serif" font-size="10">-0.372</text>
<line x1="262.00" y1="62.00" x2="262.00" y2="348.00" stroke="#ececec"/>
<text x="262.00" y="366.00" text-anchor="middle" font-family="Arial, sans-serif" font-size="10">0.6</text>
<line x1="357.00" y1="62.00" x2="357.00" y2="348.00" stroke="#ececec"/>
<text x="357.00" y="366.00" text-anchor="middle" font-family="Arial, sans-serif" font-size="10">1.6</text>
<line x1="452.00" y1="62.00" x2="452.00" y2="348.00" stroke="#ececec"/>
<text x="452.00" y="366.00" text-anchor="middle" font-family="Arial, sans-serif" font-size="10">2.5</text>
<line x1="72.00" y1="348.00" x2="452.00" y2="348.00" stroke="#ececec"/>
<text x="65.00" y="352.00" text-anchor="end" font-family="Arial, sans-serif" font-size="10">-36</text>
<line x1="72.00" y1="276.50" x2="452.00" y2="276.50" stroke="#ececec"/>
<text x="65.00" y="280.50" text-anchor="end" font-family="Arial, sans-serif" font-size="10">-12</text>
<line x1="72.00" y1="205.00" x2="452.00" y2="205.00" stroke="#ececec"/>
<text x="65.00" y="209.00" text-anchor="end" font-family="Arial, sans-serif" font-size="10">12</text>
<line x1="72.00" y1="133.50" x2="452.00" y2="133.50" stroke="#ececec"/>
<text x="65.00" y="137.50" text-anchor="end" font-family="Arial, sans-serif" font-size="10">36</text>
<line x1="72.00" y1="62.00" x2="452.00" y2="62.00" stroke="#ececec"/>
<text x="65.00" y="66.00" text-anchor="end" font-family="Arial, sans-serif" font-size="10">60</text>
<line x1="203.36" y1="62" x2="203.36" y2="348" stroke="#777" stroke-dasharray="4 4"/>
<line x1="72.0" y1="241.04" x2="452.0" y2="241.04" stroke="#777" stroke-dasharray="4 4"/>
<polyline fill="none" stroke="#1f77b4" stroke-width="1.8" points="86.07,264.92 91.94,264.92 96.83,264.92 102.69,264.92 108.55,264.92 114.42,264.92 117.35,264.86 119.30,264.79 124.19,264.55 126.15,264.43 127.12,264.36 130.06,264.13 133.97,263.74 135.92,263.52 137.87,263.27 139.83,262.99 141.78,262.68 142.76,262.51 143.74,262.34 144.72,262.16 145.69,261.97 146.67,261.76 147.65,261.55 148.63,261.33 149.60,261.10 150.58,260.86 151.56,260.61 152.53,260.35 153.51,260.08 154.49,259.80 155.47,259.51 156.44,259.21 157.42,258.90 158.40,258.57 159.38,258.24 160.35,257.90 161.33,257.55 162.31,257.19 163.29,256.82 169.15,254.50 174.04,252.48 179.90,250.08 185.77,247.72 190.65,245.79 196.52,243.55 201.40,241.75 203.36,241.04 207.27,239.65 213.13,237.66 218.02,236.08 223.88,234.30 229.75,232.66 234.63,231.42 240.50,230.09 246.36,228.96 251.25,228.20 257.11,227.52 261.02,227.19 262.98,227.06 263.95,227.00 267.86,226.82 269.82,226.75 273.73,226.63 278.62,226.53 284.48,226.43 287.41,226.39 290.34,226.35 295.23,226.29 296.21,226.28 297.19,226.27 301.09,226.23 306.96,226.18 308.91,226.16 311.85,226.14 317.71,226.09 320.64,226.07 323.57,226.05 328.46,226.02 332.37,225.99 334.33,225.98 339.21,225.95 345.08,225.92 350.94,225.89 355.83,225.86 361.69,225.83 367.56,225.80 372.44,225.77 378.31,225.71 384.17,225.61 389.06,225.46 394.92,225.15 400.79,224.67 405.67,224.14 411.54,223.35 416.42,222.57 422.29,221.49 426.20,220.70 428.15,220.28 433.04,219.18 437.93,218.01"/>
<polyline fill="none" stroke="#ff7f0e" stroke-width="1.8" stroke-dasharray="5 4" points="86.07,255.89 91.94,255.89 96.83,255.89 102.69,255.89 108.55,255.89 114.42,255.89 117.35,255.89 119.30,255.89 124.19,255.89 126.15,255.89 127.12,255.88 130.06,255.80 133.97,255.61 135.92,255.49 137.87,255.34 139.83,255.18 141.78,255.00 142.76,254.90 143.74,254.80 144.72,254.69 145.69,254.58 146.67,254.46 147.65,254.34 148.63,254.21 149.60,254.07 150.58,253.93 151.56,253.79 152.53,253.63 153.51,253.48 154.49,253.31 155.47,253.14 156.44,252.96 157.42,252.78 158.40,252.59 159.38,252.39 160.35,252.18 161.33,251.97 162.31,251.76 163.29,251.53 169.15,250.08 174.04,248.75 179.90,247.12 185.77,245.50 190.65,244.19 196.52,242.69 201.40,241.50 203.36,241.04 207.27,240.15 213.13,238.91 218.02,237.95 223.88,236.92 229.75,236.02 234.63,235.38 240.50,234.76 246.36,234.32 251.25,234.07 257.11,233.88 261.02,233.81 262.98,233.78 263.95,233.76 267.86,233.72 269.82,233.70 273.73,233.67 278.62,233.63 284.48,233.60 287.41,233.58 290.34,233.56 295.23,233.54 296.21,233.54 297.19,233.53 301.09,233.51 306.96,233.49 308.91,233.48 311.85,233.47 317.71,233.45 320.64,233.44 323.57,233.43 328.46,233.42 332.37,233.40 334.33,233.40 339.21,233.38 345.08,233.36 350.94,233.33 355.83,233.27 361.69,233.16 367.56,232.95 372.44,232.70 378.31,232.28 384.17,231.75 389.06,231.22 394.92,230.50 400.79,229.68 405.67,228.95 411.54,228.00 416.42,227.16 422.29,226.15 426.20,225.48 428.15,225.14 433.04,224.30 437.93,223.45"/>
<polyline fill="none" stroke="#2ca02c" stroke-width="1.8" stroke-dasharray="2 4" points="86.07,275.09 91.94,275.09 96.83,275.09 102.69,275.09 108.55,275.09 114.42,274.94 117.35,274.82 119.30,274.71 124.19,274.37 126.15,274.20 127.12,274.10 130.06,273.78 133.97,273.23 135.92,272.91 137.87,272.55 139.83,272.15 141.78,271.70 142.76,271.45 143.74,271.20 144.72,270.93 145.69,270.65 146.67,270.36 147.65,270.05 148.63,269.73 149.60,269.39 150.58,269.04 151.56,268.68 152.53,268.29 153.51,267.90 154.49,267.49 155.47,267.06 156.44,266.62 157.42,266.16 158.40,265.69 159.38,265.21 160.35,264.71 161.33,264.21 162.31,263.69 163.29,263.16 169.15,259.89 174.04,257.11 179.90,253.80 185.77,250.53 190.65,247.84 196.52,244.67 201.40,242.06 203.36,241.04 207.27,239.01 213.13,236.04 218.02,233.64 223.88,230.85 229.75,228.19 234.63,226.08 240.50,223.71 246.36,221.51 251.25,219.86 257.11,218.10 261.02,217.08 262.98,216.63 263.95,216.41 267.86,215.64 269.82,215.31 273.73,214.76 278.62,214.23 284.48,213.81 287.41,213.65 290.34,213.52 295.23,213.35 296.21,213.32 297.19,213.29 301.09,213.19 306.96,213.06 308.91,213.02 311.85,212.96 317.71,212.86 320.64,212.81 323.57,212.77 328.46,212.70 332.37,212.65 334.33,212.63 339.21,212.57 345.08,212.50 350.94,212.44 355.83,212.40 361.69,212.34 367.56,212.29 372.44,212.25 378.31,212.20 384.17,212.15 389.06,212.09 394.92,212.01 400.79,211.90 405.67,211.78 411.54,211.57 416.42,211.30 422.29,210.81 426.20,210.35 428.15,210.08 433.04,209.28 437.93,208.31"/>
<polyline fill="none" stroke="#1f77b4" stroke-width="1.1" stroke-dasharray="6 4" points="72.00,88.24 76.81,91.19 81.62,94.15 86.43,97.10 91.24,100.06 96.05,103.02 100.86,105.97 105.67,108.93 110.48,111.88 115.29,114.84 120.10,117.80 124.91,120.75 129.72,123.71 134.53,126.66 139.34,129.62 144.15,132.58 148.96,135.53 153.77,138.49 158.58,141.44 163.39,144.40 168.20,147.36 173.01,150.31 177.82,153.27 182.63,156.23 187.44,159.18 192.25,162.14 197.06,165.09 201.87,168.05 206.68,171.01 211.49,173.96 216.30,176.92 221.11,179.87 225.92,182.83 230.73,185.79 235.54,188.74 240.35,191.70 245.16,194.65 249.97,197.61 254.78,200.57 259.59,203.52 264.41,206.48 269.22,209.43 274.03,212.39 278.84,215.35 283.65,218.30 288.46,221.26 293.27,224.21 298.08,227.17 302.89,230.13 307.70,233.08 312.51,236.04 317.32,238.99 322.13,241.95 326.94,244.91 331.75,247.86 336.56,250.82 341.37,253.77 346.18,256.73 350.99,259.69 355.80,262.64 360.61,265.60 365.42,268.56 370.23,271.51 375.04,274.47 379.85,277.42 384.66,280.38 389.47,283.34 394.28,286.29 399.09,289.25 403.90,292.20 408.71,295.16 413.52,298.12 418.33,301.07 423.14,304.03 427.95,306.98 432.76,309.94 437.57,312.90 442.38,315.85 447.19,318.81 452.00,321.76"/>
<circle cx="296.62" cy="226.28" r="4.6" fill="#ffffff" stroke="#1f77b4" stroke-width="2"/>
<text x="302.62" y="220.28" font-family="Arial, sans-serif" font-size="10" fill="#1f77b4">typ 194 ohm</text>
<polyline fill="none" stroke="#ff7f0e" stroke-width="1.1" stroke-dasharray="6 4" points="72.00,95.44 76.81,98.40 81.62,101.36 86.43,104.31 91.24,107.27 96.05,110.22 100.86,113.18 105.67,116.14 110.48,119.09 115.29,122.05 120.10,125.00 124.91,127.96 129.72,130.92 134.53,133.87 139.34,136.83 144.15,139.78 148.96,142.74 153.77,145.70 158.58,148.65 163.39,151.61 168.20,154.56 173.01,157.52 177.82,160.48 182.63,163.43 187.44,166.39 192.25,169.34 197.06,172.30 201.87,175.26 206.68,178.21 211.49,181.17 216.30,184.13 221.11,187.08 225.92,190.04 230.73,192.99 235.54,195.95 240.35,198.91 245.16,201.86 249.97,204.82 254.78,207.77 259.59,210.73 264.41,213.69 269.22,216.64 274.03,219.60 278.84,222.55 283.65,225.51 288.46,228.47 293.27,231.42 298.08,234.38 302.89,237.33 307.70,240.29 312.51,243.25 317.32,246.20 322.13,249.16 326.94,252.11 331.75,255.07 336.56,258.03 341.37,260.98 346.18,263.94 350.99,266.89 355.80,269.85 360.61,272.81 365.42,275.76 370.23,278.72 375.04,281.67 379.85,284.63 384.66,287.59 389.47,290.54 394.28,293.50 399.09,296.46 403.90,299.41 408.71,302.37 413.52,305.32 418.33,308.28 423.14,311.24 427.95,314.19 432.76,317.15 437.57,320.10 442.38,323.06 447.19,326.02 452.00,328.97"/>
<circle cx="296.70" cy="233.53" r="4.6" fill="#ffffff" stroke="#ff7f0e" stroke-width="2"/>
<text x="302.70" y="227.53" font-family="Arial, sans-serif" font-size="10" fill="#ff7f0e">min 382 ohm</text>
<polyline fill="none" stroke="#2ca02c" stroke-width="1.1" stroke-dasharray="6 4" points="72.00,81.03 76.81,83.98 81.62,86.94 86.43,89.90 91.24,92.85 96.05,95.81 100.86,98.76 105.67,101.72 110.48,104.68 115.29,107.63 120.10,110.59 124.91,113.54 129.72,116.50 134.53,119.46 139.34,122.41 144.15,125.37 148.96,128.33 153.77,131.28 158.58,134.24 163.39,137.19 168.20,140.15 173.01,143.11 177.82,146.06 182.63,149.02 187.44,151.97 192.25,154.93 197.06,157.89 201.87,160.84 206.68,163.80 211.49,166.75 216.30,169.71 221.11,172.67 225.92,175.62 230.73,178.58 235.54,181.53 240.35,184.49 245.16,187.45 249.97,190.40 254.78,193.36 259.59,196.31 264.41,199.27 269.22,202.23 274.03,205.18 278.84,208.14 283.65,211.09 288.46,214.05 293.27,217.01 298.08,219.96 302.89,222.92 307.70,225.87 312.51,228.83 317.32,231.79 322.13,234.74 326.94,237.70 331.75,240.66 336.56,243.61 341.37,246.57 346.18,249.52 350.99,252.48 355.80,255.44 360.61,258.39 365.42,261.35 370.23,264.30 375.04,267.26 379.85,270.22 384.66,273.17 389.47,276.13 394.28,279.08 399.09,282.04 403.90,285.00 408.71,287.95 413.52,290.91 418.33,293.86 423.14,296.82 427.95,299.78 432.76,302.73 437.57,305.69 442.38,308.64 447.19,311.60 452.00,314.56"/>
<circle cx="287.78" cy="213.64" r="4.6" fill="#ffffff" stroke="#2ca02c" stroke-width="2"/>
<text x="293.78" y="207.64" font-family="Arial, sans-serif" font-size="10" fill="#2ca02c">max 94.7 ohm</text>
<line x1="82.00" y1="80.00" x2="104.00" y2="80.00" stroke="#1f77b4" stroke-width="2"/>
<text x="110.00" y="84.00" font-family="Arial, sans-serif" font-size="11">typ</text>
<line x1="82.00" y1="97.00" x2="104.00" y2="97.00" stroke="#ff7f0e" stroke-width="2" stroke-dasharray="5 4"/>
<text x="110.00" y="101.00" font-family="Arial, sans-serif" font-size="11">min</text>
<line x1="82.00" y1="114.00" x2="104.00" y2="114.00" stroke="#2ca02c" stroke-width="2" stroke-dasharray="2 4"/>
<text x="110.00" y="118.00" font-family="Arial, sans-serif" font-size="11">max</text>
<text x="262.00" y="386.00" text-anchor="middle" font-family="Arial, sans-serif" font-size="11">Output voltage (V)</text>
<text transform="translate(22.00 205.00) rotate(-90)" text-anchor="middle" font-family="Arial, sans-serif" font-size="11">Current (mA)</text>
<rect x="492.00" y="62.00" width="380.00" height="286.00" fill="#fbfbfb" stroke="#c8c8c8"/>
<text x="500.00" y="50.00" font-family="Arial, sans-serif" font-size="13" font-weight="700">[Pullup] Rload to GND</text>
<line x1="492.00" y1="62.00" x2="492.00" y2="348.00" stroke="#ececec"/>
<text x="492.00" y="366.00" text-anchor="middle" font-family="Arial, sans-serif" font-size="10">-1.3</text>
<line x1="587.00" y1="62.00" x2="587.00" y2="348.00" stroke="#ececec"/>
<text x="587.00" y="366.00" text-anchor="middle" font-family="Arial, sans-serif" font-size="10">-0.372</text>
<line x1="682.00" y1="62.00" x2="682.00" y2="348.00" stroke="#ececec"/>
<text x="682.00" y="366.00" text-anchor="middle" font-family="Arial, sans-serif" font-size="10">0.6</text>
<line x1="777.00" y1="62.00" x2="777.00" y2="348.00" stroke="#ececec"/>
<text x="777.00" y="366.00" text-anchor="middle" font-family="Arial, sans-serif" font-size="10">1.6</text>
<line x1="872.00" y1="62.00" x2="872.00" y2="348.00" stroke="#ececec"/>
<text x="872.00" y="366.00" text-anchor="middle" font-family="Arial, sans-serif" font-size="10">2.5</text>
<line x1="492.00" y1="348.00" x2="872.00" y2="348.00" stroke="#ececec"/>
<text x="485.00" y="352.00" text-anchor="end" font-family="Arial, sans-serif" font-size="10">-60</text>
<line x1="492.00" y1="276.50" x2="872.00" y2="276.50" stroke="#ececec"/>
<text x="485.00" y="280.50" text-anchor="end" font-family="Arial, sans-serif" font-size="10">-36</text>
<line x1="492.00" y1="205.00" x2="872.00" y2="205.00" stroke="#ececec"/>
<text x="485.00" y="209.00" text-anchor="end" font-family="Arial, sans-serif" font-size="10">-12</text>
<line x1="492.00" y1="133.50" x2="872.00" y2="133.50" stroke="#ececec"/>
<text x="485.00" y="137.50" text-anchor="end" font-family="Arial, sans-serif" font-size="10">12</text>
<line x1="492.00" y1="62.00" x2="872.00" y2="62.00" stroke="#ececec"/>
<text x="485.00" y="66.00" text-anchor="end" font-family="Arial, sans-serif" font-size="10">36</text>
<line x1="623.36" y1="62" x2="623.36" y2="348" stroke="#777" stroke-dasharray="4 4"/>
<line x1="492.0" y1="168.96" x2="872.0" y2="168.96" stroke="#777" stroke-dasharray="4 4"/>
<polyline fill="none" stroke="#1f77b4" stroke-width="1.8" points="506.07,123.11 511.94,125.59 516.83,127.66 522.69,130.14 528.55,132.61 533.44,134.66 539.30,137.10 544.19,139.12 550.06,141.53 555.92,143.90 560.81,145.86 566.67,148.17 572.53,150.44 577.42,152.31 583.29,154.51 589.15,156.68 594.04,158.47 599.90,160.60 604.79,162.37 605.77,162.72 609.67,164.12 610.65,164.47 611.63,164.81 612.61,165.16 616.52,166.54 621.40,168.27 623.36,168.96 627.27,170.31 633.13,172.23 636.06,173.14 637.04,173.44 638.02,173.73 639.00,174.03 639.97,174.32 641.93,174.89 643.88,175.44 649.75,177.03 654.63,178.24 660.50,179.55 666.36,180.69 671.25,181.47 672.23,181.61 674.18,181.87 676.14,182.11 677.11,182.22 678.09,182.32 680.05,182.50 681.02,182.58 682.00,182.66 682.98,182.73 683.95,182.79 684.93,182.85 685.91,182.91 686.89,182.96 687.86,183.01 688.84,183.05 689.82,183.09 690.80,183.13 691.77,183.17 692.75,183.20 693.73,183.23 694.71,183.26 695.68,183.29 696.66,183.32 697.64,183.35 698.62,183.38 704.48,183.52 708.39,183.61 710.34,183.65 715.23,183.74 716.21,183.76 721.09,183.84 726.96,183.93 728.91,183.95 731.85,183.99 737.71,184.07 740.64,184.10 743.57,184.14 748.46,184.19 752.37,184.23 754.33,184.25 759.21,184.30 765.08,184.36 770.94,184.40 775.83,184.40 781.69,184.40 787.56,184.40 792.44,184.40 798.31,184.40 804.17,184.40 809.06,184.40 814.92,184.40 820.79,184.40 825.67,184.40 831.54,184.40 836.42,184.40 842.29,184.40 848.15,184.40 853.04,184.40 857.93,184.40"/>
<polyline fill="none" stroke="#ff7f0e" stroke-width="1.8" stroke-dasharray="5 4" points="506.07,135.99 511.94,137.74 516.83,139.21 522.69,140.97 528.55,142.74 533.44,144.22 539.30,146.00 544.19,147.48 550.06,149.24 555.92,150.98 560.81,152.42 566.67,154.12 572.53,155.79 577.42,157.16 583.29,158.76 589.15,160.33 594.04,161.61 599.90,163.12 604.79,164.37 605.77,164.61 609.67,165.59 610.65,165.84 611.63,166.08 612.61,166.32 616.52,167.29 621.40,168.49 623.36,168.96 627.27,169.88 633.13,171.16 636.06,171.75 637.04,171.94 638.02,172.13 639.00,172.31 639.97,172.49 641.93,172.85 643.88,173.19 649.75,174.12 654.63,174.80 660.50,175.47 666.36,175.98 671.25,176.27 672.23,176.32 674.18,176.40 676.14,176.46 677.11,176.49 678.09,176.52 680.05,176.56 681.02,176.58 682.00,176.60 682.98,176.62 683.95,176.64 684.93,176.65 685.91,176.67 686.89,176.68 687.86,176.70 688.84,176.71 689.82,176.72 690.80,176.74 691.77,176.75 692.75,176.76 693.73,176.77 694.71,176.78 695.68,176.80 696.66,176.81 697.64,176.82 698.62,176.83 704.48,176.88 708.39,176.92 710.34,176.94 715.23,176.97 716.21,176.98 721.09,177.02 726.96,177.05 728.91,177.07 731.85,177.08 737.71,177.12 740.64,177.13 743.57,177.15 748.46,177.17 752.37,177.18 754.33,177.18 759.21,177.18 765.08,177.18 770.94,177.18 775.83,177.18 781.69,177.18 787.56,177.18 792.44,177.18 798.31,177.18 804.17,177.18 809.06,177.18 814.92,177.18 820.79,177.18 825.67,177.18 831.54,177.18 836.42,177.18 842.29,177.18 848.15,177.18 853.04,177.18 857.93,177.18"/>
<polyline fill="none" stroke="#2ca02c" stroke-width="1.8" stroke-dasharray="2 4" points="506.07,107.25 511.94,110.55 516.83,113.30 522.69,116.58 528.55,119.85 533.44,122.57 539.30,125.80 544.19,128.47 550.06,131.65 555.92,134.79 560.81,137.38 566.67,140.46 572.53,143.49 577.42,145.99 583.29,148.96 589.15,151.92 594.04,154.37 599.90,157.30 604.79,159.70 605.77,160.17 609.67,162.00 610.65,162.47 611.63,162.95 612.61,163.44 616.52,165.46 621.40,167.97 623.36,168.96 627.27,170.92 633.13,173.78 636.06,175.17 637.04,175.62 638.02,176.06 639.00,176.48 639.97,176.88 641.93,177.68 643.88,178.50 649.75,180.95 654.63,182.92 660.50,185.16 666.36,187.24 671.25,188.85 672.23,189.15 674.18,189.75 676.14,190.32 677.11,190.60 678.09,190.87 680.05,191.39 681.02,191.64 682.00,191.89 682.98,192.12 683.95,192.35 684.93,192.58 685.91,192.79 686.89,193.00 687.86,193.20 688.84,193.40 689.82,193.58 690.80,193.76 691.77,193.93 692.75,194.09 693.73,194.25 694.71,194.39 695.68,194.53 696.66,194.67 697.64,194.79 698.62,194.91 704.48,195.49 708.39,195.79 710.34,195.92 715.23,196.20 716.21,196.25 721.09,196.47 726.96,196.71 728.91,196.78 731.85,196.88 737.71,197.07 740.64,197.15 743.57,197.23 748.46,197.36 752.37,197.45 754.33,197.49 759.21,197.60 765.08,197.72 770.94,197.83 775.83,197.92 781.69,198.02 787.56,198.10 792.44,198.11 798.31,198.11 804.17,198.11 809.06,198.11 814.92,198.11 820.79,198.11 825.67,198.11 831.54,198.11 836.42,198.11 842.29,198.11 848.15,198.11 853.04,198.11 857.93,198.11"/>
<polyline fill="none" stroke="#1f77b4" stroke-width="1.1" stroke-dasharray="6 4" points="492.00,321.76 496.81,318.81 501.62,315.85 506.43,312.90 511.24,309.94 516.05,306.98 520.86,304.03 525.67,301.07 530.48,298.12 535.29,295.16 540.10,292.20 544.91,289.25 549.72,286.29 554.53,283.34 559.34,280.38 564.15,277.42 568.96,274.47 573.77,271.51 578.58,268.56 583.39,265.60 588.20,262.64 593.01,259.69 597.82,256.73 602.63,253.77 607.44,250.82 612.25,247.86 617.06,244.91 621.87,241.95 626.68,238.99 631.49,236.04 636.30,233.08 641.11,230.13 645.92,227.17 650.73,224.21 655.54,221.26 660.35,218.30 665.16,215.35 669.97,212.39 674.78,209.43 679.59,206.48 684.41,203.52 689.22,200.57 694.03,197.61 698.84,194.65 703.65,191.70 708.46,188.74 713.27,185.79 718.08,182.83 722.89,179.87 727.70,176.92 732.51,173.96 737.32,171.01 742.13,168.05 746.94,165.09 751.75,162.14 756.56,159.18 761.37,156.23 766.18,153.27 770.99,150.31 775.80,147.36 780.61,144.40 785.42,141.44 790.23,138.49 795.04,135.53 799.85,132.58 804.66,129.62 809.47,126.66 814.28,123.71 819.09,120.75 823.90,117.80 828.71,114.84 833.52,111.88 838.33,108.93 843.14,105.97 847.95,103.02 852.76,100.06 857.57,97.10 862.38,94.15 867.19,91.19 872.00,88.24"/>
<circle cx="716.56" cy="183.76" r="4.6" fill="#ffffff" stroke="#1f77b4" stroke-width="2"/>
<text x="722.56" y="177.76" font-family="Arial, sans-serif" font-size="10" fill="#1f77b4">typ 193 ohm</text>
<polyline fill="none" stroke="#ff7f0e" stroke-width="1.1" stroke-dasharray="6 4" points="492.00,314.56 496.81,311.60 501.62,308.64 506.43,305.69 511.24,302.73 516.05,299.78 520.86,296.82 525.67,293.86 530.48,290.91 535.29,287.95 540.10,285.00 544.91,282.04 549.72,279.08 554.53,276.13 559.34,273.17 564.15,270.22 568.96,267.26 573.77,264.30 578.58,261.35 583.39,258.39 588.20,255.44 593.01,252.48 597.82,249.52 602.63,246.57 607.44,243.61 612.25,240.66 617.06,237.70 621.87,234.74 626.68,231.79 631.49,228.83 636.30,225.87 641.11,222.92 645.92,219.96 650.73,217.01 655.54,214.05 660.35,211.09 665.16,208.14 669.97,205.18 674.78,202.23 679.59,199.27 684.41,196.31 689.22,193.36 694.03,190.40 698.84,187.45 703.65,184.49 708.46,181.53 713.27,178.58 718.08,175.62 722.89,172.67 727.70,169.71 732.51,166.75 737.32,163.80 742.13,160.84 746.94,157.89 751.75,154.93 756.56,151.97 761.37,149.02 766.18,146.06 770.99,143.11 775.80,140.15 780.61,137.19 785.42,134.24 790.23,131.28 795.04,128.33 799.85,125.37 804.66,122.41 809.47,119.46 814.28,116.50 819.09,113.54 823.90,110.59 828.71,107.63 833.52,104.68 838.33,101.72 843.14,98.76 847.95,95.81 852.76,92.85 857.57,89.90 862.38,86.94 867.19,83.98 872.00,81.03"/>
<circle cx="715.87" cy="176.98" r="4.6" fill="#ffffff" stroke="#ff7f0e" stroke-width="2"/>
<text x="721.87" y="170.98" font-family="Arial, sans-serif" font-size="10" fill="#ff7f0e">min 355 ohm</text>
<polyline fill="none" stroke="#2ca02c" stroke-width="1.1" stroke-dasharray="6 4" points="492.00,328.97 496.81,326.02 501.62,323.06 506.43,320.10 511.24,317.15 516.05,314.19 520.86,311.24 525.67,308.28 530.48,305.32 535.29,302.37 540.10,299.41 544.91,296.46 549.72,293.50 554.53,290.54 559.34,287.59 564.15,284.63 568.96,281.67 573.77,278.72 578.58,275.76 583.39,272.81 588.20,269.85 593.01,266.89 597.82,263.94 602.63,260.98 607.44,258.03 612.25,255.07 617.06,252.11 621.87,249.16 626.68,246.20 631.49,243.25 636.30,240.29 641.11,237.33 645.92,234.38 650.73,231.42 655.54,228.47 660.35,225.51 665.16,222.55 669.97,219.60 674.78,216.64 679.59,213.69 684.41,210.73 689.22,207.77 694.03,204.82 698.84,201.86 703.65,198.91 708.46,195.95 713.27,192.99 718.08,190.04 722.89,187.08 727.70,184.13 732.51,181.17 737.32,178.21 742.13,175.26 746.94,172.30 751.75,169.34 756.56,166.39 761.37,163.43 766.18,160.48 770.99,157.52 775.80,154.56 780.61,151.61 785.42,148.65 790.23,145.70 795.04,142.74 799.85,139.78 804.66,136.83 809.47,133.87 814.28,130.92 819.09,127.96 823.90,125.00 828.71,122.05 833.52,119.09 838.33,116.14 843.14,113.18 847.95,110.22 852.76,107.27 857.57,104.31 862.38,101.36 867.19,98.40 872.00,95.44"/>
<circle cx="708.69" cy="195.81" r="4.6" fill="#ffffff" stroke="#2ca02c" stroke-width="2"/>
<text x="714.69" y="189.81" font-family="Arial, sans-serif" font-size="10" fill="#2ca02c">max 97.7 ohm</text>
<line x1="502.00" y1="80.00" x2="524.00" y2="80.00" stroke="#1f77b4" stroke-width="2"/>
<text x="530.00" y="84.00" font-family="Arial, sans-serif" font-size="11">typ</text>
<line x1="502.00" y1="97.00" x2="524.00" y2="97.00" stroke="#ff7f0e" stroke-width="2" stroke-dasharray="5 4"/>
<text x="530.00" y="101.00" font-family="Arial, sans-serif" font-size="11">min</text>
<line x1="502.00" y1="114.00" x2="524.00" y2="114.00" stroke="#2ca02c" stroke-width="2" stroke-dasharray="2 4"/>
<text x="530.00" y="118.00" font-family="Arial, sans-serif" font-size="11">max</text>
<text x="682.00" y="386.00" text-anchor="middle" font-family="Arial, sans-serif" font-size="11">Vcc-relative table voltage (V)</text>
<text transform="translate(442.00 205.00) rotate(-90)" text-anchor="middle" font-family="Arial, sans-serif" font-size="11">Current (mA)</text>
<rect x="72.00" y="418.00" width="800.00" height="144.00" fill="#ffffff" stroke="#c8c8c8"/>
<text x="82.00" y="436.00" font-family="Arial, sans-serif" font-size="12" font-weight="700">Operating-point summary</text>
<text x="82.00" y="454.00" font-family="Arial, sans-serif" font-size="10" font-weight="700" fill="#333">Table</text>
<text x="174.00" y="454.00" font-family="Arial, sans-serif" font-size="10" font-weight="700" fill="#333">Corner</text>
<text x="242.00" y="454.00" font-family="Arial, sans-serif" font-size="10" font-weight="700" fill="#333">Vout</text>
<text x="332.00" y="454.00" font-family="Arial, sans-serif" font-size="10" font-weight="700" fill="#333">Iop</text>
<text x="422.00" y="454.00" font-family="Arial, sans-serif" font-size="10" font-weight="700" fill="#333">Zout</text>
<text x="512.00" y="454.00" font-family="Arial, sans-serif" font-size="10" font-weight="700" fill="#333">Rseries</text>
<text x="82.00" y="473.00" font-family="Arial, sans-serif" font-size="10" fill="#1f77b4">pulldown</text>
<text x="174.00" y="473.00" font-family="Arial, sans-serif" font-size="10" fill="#1f77b4">typ</text>
<text x="242.00" y="473.00" font-family="Arial, sans-serif" font-size="10" fill="#1f77b4">0.9543 V</text>
<text x="332.00" y="473.00" font-family="Arial, sans-serif" font-size="10" fill="#1f77b4">4.9 mA</text>
<text x="422.00" y="473.00" font-family="Arial, sans-serif" font-size="10" fill="#1f77b4">194 ohm</text>
<text x="512.00" y="473.00" font-family="Arial, sans-serif" font-size="10" fill="#1f77b4">-144 ohm</text>
<text x="82.00" y="492.00" font-family="Arial, sans-serif" font-size="10" fill="#ff7f0e">pulldown</text>
<text x="174.00" y="492.00" font-family="Arial, sans-serif" font-size="10" fill="#ff7f0e">min</text>
<text x="242.00" y="492.00" font-family="Arial, sans-serif" font-size="10" fill="#ff7f0e">0.955 V</text>
<text x="332.00" y="492.00" font-family="Arial, sans-serif" font-size="10" fill="#ff7f0e">2.5 mA</text>
<text x="422.00" y="492.00" font-family="Arial, sans-serif" font-size="10" fill="#ff7f0e">382 ohm</text>
<text x="512.00" y="492.00" font-family="Arial, sans-serif" font-size="10" fill="#ff7f0e">-332 ohm</text>
<text x="82.00" y="511.00" font-family="Arial, sans-serif" font-size="10" fill="#2ca02c">pulldown</text>
<text x="174.00" y="511.00" font-family="Arial, sans-serif" font-size="10" fill="#2ca02c">max</text>
<text x="242.00" y="511.00" font-family="Arial, sans-serif" font-size="10" fill="#2ca02c">0.8638 V</text>
<text x="332.00" y="511.00" font-family="Arial, sans-serif" font-size="10" fill="#2ca02c">9.1 mA</text>
<text x="422.00" y="511.00" font-family="Arial, sans-serif" font-size="10" fill="#2ca02c">94.7 ohm</text>
<text x="512.00" y="511.00" font-family="Arial, sans-serif" font-size="10" fill="#2ca02c">-44.7 ohm</text>
<text x="82.00" y="530.00" font-family="Arial, sans-serif" font-size="10" fill="#1f77b4">pullup</text>
<text x="174.00" y="530.00" font-family="Arial, sans-serif" font-size="10" fill="#1f77b4">typ</text>
<text x="242.00" y="530.00" font-family="Arial, sans-serif" font-size="10" fill="#1f77b4">0.2464 V</text>
<text x="332.00" y="530.00" font-family="Arial, sans-serif" font-size="10" fill="#1f77b4">-4.9 mA</text>
<text x="422.00" y="530.00" font-family="Arial, sans-serif" font-size="10" fill="#1f77b4">193 ohm</text>
<text x="512.00" y="530.00" font-family="Arial, sans-serif" font-size="10" fill="#1f77b4">-143 ohm</text>
<text x="82.00" y="549.00" font-family="Arial, sans-serif" font-size="10" fill="#ff7f0e">pullup</text>
<text x="174.00" y="549.00" font-family="Arial, sans-serif" font-size="10" fill="#ff7f0e">min</text>
<text x="242.00" y="549.00" font-family="Arial, sans-serif" font-size="10" fill="#ff7f0e">0.1335 V</text>
<text x="332.00" y="549.00" font-family="Arial, sans-serif" font-size="10" fill="#ff7f0e">-2.7 mA</text>
<text x="422.00" y="549.00" font-family="Arial, sans-serif" font-size="10" fill="#ff7f0e">355 ohm</text>
<text x="512.00" y="549.00" font-family="Arial, sans-serif" font-size="10" fill="#ff7f0e">-305 ohm</text>
<text x="82.00" y="568.00" font-family="Arial, sans-serif" font-size="10" fill="#2ca02c">pullup</text>
<text x="174.00" y="568.00" font-family="Arial, sans-serif" font-size="10" fill="#2ca02c">max</text>
<text x="242.00" y="568.00" font-family="Arial, sans-serif" font-size="10" fill="#2ca02c">0.447 V</text>
<text x="332.00" y="568.00" font-family="Arial, sans-serif" font-size="10" fill="#2ca02c">-8.9 mA</text>
<text x="422.00" y="568.00" font-family="Arial, sans-serif" font-size="10" fill="#2ca02c">97.7 ohm</text>
<text x="512.00" y="568.00" font-family="Arial, sans-serif" font-size="10" fill="#2ca02c">-47.7 ohm</text>
</svg>