<svg xmlns="http://www.w3.org/2000/svg" width="900" height="620" viewBox="0 0 900 620">
<rect width="100%" height="100%" fill="#ffffff"/>
<text x="72" y="26" font-family="Arial, sans-serif" font-size="16" font-weight="700">E34_GPIO_SPI_I3C_MST_1V1_10 Zout Load-Line Curves</text>
<text x="72" y="45" font-family="Arial, sans-serif" font-size="11" fill="#555">Rload=50 ohm; solid=device I-V, dashed=load line, circles=operating points</text>
<rect x="72.00" y="62.00" width="380.00" height="286.00" fill="#fbfbfb" stroke="#c8c8c8"/>
<text x="80.00" y="50.00" font-family="Arial, sans-serif" font-size="13" font-weight="700">[Pulldown] Rload to Vdd</text>
<line x1="72.00" y1="62.00" x2="72.00" y2="348.00" stroke="#ececec"/>
<text x="72.00" y="366.00" text-anchor="middle" font-family="Arial, sans-serif" font-size="10">-1.2</text>
<line x1="167.00" y1="62.00" x2="167.00" y2="348.00" stroke="#ececec"/>
<text x="167.00" y="366.00" text-anchor="middle" font-family="Arial, sans-serif" font-size="10">-0.341</text>
<line x1="262.00" y1="62.00" x2="262.00" y2="348.00" stroke="#ececec"/>
<text x="262.00" y="366.00" text-anchor="middle" font-family="Arial, sans-serif" font-size="10">0.55</text>
<line x1="357.00" y1="62.00" x2="357.00" y2="348.00" stroke="#ececec"/>
<text x="357.00" y="366.00" text-anchor="middle" font-family="Arial, sans-serif" font-size="10">1.4</text>
<line x1="452.00" y1="62.00" x2="452.00" y2="348.00" stroke="#ececec"/>
<text x="452.00" y="366.00" text-anchor="middle" font-family="Arial, sans-serif" font-size="10">2.3</text>
<line x1="72.00" y1="348.00" x2="452.00" y2="348.00" stroke="#ececec"/>
<text x="65.00" y="352.00" text-anchor="end" font-family="Arial, sans-serif" font-size="10">-79</text>
<line x1="72.00" y1="276.50" x2="452.00" y2="276.50" stroke="#ececec"/>
<text x="65.00" y="280.50" text-anchor="end" font-family="Arial, sans-serif" font-size="10">-44</text>
<line x1="72.00" y1="205.00" x2="452.00" y2="205.00" stroke="#ececec"/>
<text x="65.00" y="209.00" text-anchor="end" font-family="Arial, sans-serif" font-size="10">-9.6</text>
<line x1="72.00" y1="133.50" x2="452.00" y2="133.50" stroke="#ececec"/>
<text x="65.00" y="137.50" text-anchor="end" font-family="Arial, sans-serif" font-size="10">25</text>
<line x1="72.00" y1="62.00" x2="452.00" y2="62.00" stroke="#ececec"/>
<text x="65.00" y="66.00" text-anchor="end" font-family="Arial, sans-serif" font-size="10">60</text>
<line x1="203.36" y1="62" x2="203.36" y2="348" stroke="#777" stroke-dasharray="4 4"/>
<line x1="72.0" y1="185.35" x2="452.0" y2="185.35" stroke="#777" stroke-dasharray="4 4"/>
<polyline fill="none" stroke="#1f77b4" stroke-width="1.8" points="86.07,283.62 91.41,283.62 96.74,283.62 103.13,283.62 108.46,283.62 110.60,283.62 111.66,283.62 112.73,283.62 113.80,283.62 114.86,283.62 115.93,283.49 116.99,283.25 118.06,282.91 119.13,282.52 121.26,281.58 122.33,281.06 123.39,280.50 124.46,279.92 125.52,279.30 129.79,276.59 136.19,271.70 137.25,270.78 138.32,269.84 139.38,268.86 140.45,267.85 141.52,266.81 142.58,265.75 143.65,264.65 144.72,263.52 145.78,262.36 146.85,261.17 147.91,259.96 148.98,258.71 150.05,257.44 151.11,256.14 152.18,254.82 157.51,247.86 162.84,240.47 169.24,231.30 174.57,223.59 179.90,215.95 185.23,208.47 190.56,201.23 195.89,194.32 202.29,186.57 203.36,185.35 207.62,180.67 212.95,175.33 218.29,170.62 221.48,168.10 223.62,166.56 225.75,165.12 226.81,164.45 228.95,163.18 230.01,162.58 231.08,162.01 233.21,160.95 234.28,160.46 235.34,160.00 238.54,158.77 240.68,158.07 246.01,156.73 251.34,155.84 256.67,155.24 263.07,154.73 268.40,154.38 273.73,154.07 279.06,153.79 284.39,153.53 289.72,153.28 296.12,153.01 301.45,152.79 306.78,152.58 308.91,152.50 312.11,152.38 317.44,152.19 320.64,152.08 322.77,152.00 329.17,151.78 332.37,151.67 334.50,151.60 339.83,151.43 345.16,151.26 350.50,151.09 355.83,150.92 362.22,150.69 367.56,150.44 372.89,150.06 378.22,149.50 383.55,148.67 388.88,147.53 395.28,145.66 400.61,143.67 405.94,141.28 411.27,138.49 416.60,135.33 421.93,131.82 428.33,127.16 433.66,122.95 437.93,119.38"/>
<polyline fill="none" stroke="#ff7f0e" stroke-width="1.8" stroke-dasharray="5 4" points="86.07,247.73 91.41,247.73 96.74,247.73 103.13,247.73 108.46,247.73 110.60,247.73 111.66,247.73 112.73,247.73 113.80,247.73 114.86,247.73 115.93,247.73 116.99,247.73 118.06,247.73 119.13,247.73 121.26,247.71 122.33,247.58 123.39,247.36 124.46,247.06 125.52,246.70 129.79,244.82 136.19,241.21 137.25,240.54 138.32,239.84 139.38,239.13 140.45,238.40 141.52,237.66 142.58,236.89 143.65,236.11 144.72,235.31 145.78,234.50 146.85,233.66 147.91,232.82 148.98,231.95 150.05,231.08 151.11,230.18 152.18,229.28 157.51,224.56 162.84,219.62 169.24,213.55 174.57,208.51 179.90,203.62 185.23,198.95 190.56,194.55 195.89,190.47 202.29,186.03 203.36,185.35 207.62,182.75 212.95,179.87 218.29,177.38 221.48,176.08 223.62,175.29 225.75,174.57 226.81,174.24 228.95,173.61 230.01,173.32 231.08,173.05 233.21,172.55 234.28,172.32 235.34,172.11 238.54,171.56 240.68,171.26 246.01,170.70 251.34,170.36 256.67,170.12 263.07,169.90 268.40,169.74 273.73,169.59 279.06,169.46 284.39,169.33 289.72,169.21 296.12,169.08 301.45,168.97 306.78,168.87 308.91,168.83 312.11,168.77 317.44,168.67 320.64,168.62 322.77,168.58 329.17,168.47 332.37,168.41 334.50,168.37 339.83,168.27 345.16,168.15 350.50,167.97 355.83,167.72 362.22,167.26 367.56,166.69 372.89,165.94 378.22,164.95 383.55,163.74 388.88,162.27 395.28,160.18 400.61,158.17 405.94,155.90 411.27,153.40 416.60,150.68 421.93,147.94 428.33,144.65 433.66,141.91 437.93,139.71"/>
<polyline fill="none" stroke="#2ca02c" stroke-width="1.8" stroke-dasharray="2 4" points="86.07,320.32 91.41,320.32 96.74,320.32 103.13,320.32 108.46,320.32 110.60,320.32 111.66,320.18 112.73,319.93 113.80,319.61 114.86,319.23 115.93,318.82 116.99,318.37 118.06,317.90 119.13,317.40 121.26,316.34 122.33,315.77 123.39,315.18 124.46,314.57 125.52,313.92 129.79,311.07 136.19,305.76 137.25,304.74 138.32,303.67 139.38,302.56 140.45,301.41 141.52,300.21 142.58,298.96 143.65,297.66 144.72,296.31 145.78,294.92 146.85,293.48 147.91,291.99 148.98,290.46 150.05,288.87 151.11,287.25 152.18,285.58 157.51,276.63 162.84,266.86 169.24,254.44 174.57,243.74 179.90,232.83 185.23,221.81 190.56,210.80 195.89,199.95 202.29,187.37 203.36,185.35 207.62,177.49 212.95,168.33 218.29,160.05 221.48,155.55 223.62,152.75 225.75,150.12 226.81,148.87 228.95,146.50 230.01,145.37 231.08,144.29 233.21,142.26 234.28,141.31 235.34,140.40 238.54,137.91 240.68,136.46 246.01,133.49 251.34,131.35 256.67,129.86 263.07,128.63 268.40,127.87 273.73,127.25 279.06,126.71 284.39,126.22 289.72,125.78 296.12,125.28 301.45,124.90 306.78,124.53 308.91,124.39 312.11,124.18 317.44,123.84 320.64,123.65 322.77,123.52 329.17,123.14 332.37,122.96 334.50,122.83 339.83,122.53 345.16,122.24 350.50,121.95 355.83,121.67 362.22,121.34 367.56,121.06 372.89,120.78 378.22,120.45 383.55,120.00 388.88,119.32 395.28,118.02 400.61,116.41 405.94,114.23 411.27,111.45 416.60,108.07 421.93,104.14 428.33,98.79 433.66,93.87 437.93,89.68"/>
<polyline fill="none" stroke="#1f77b4" stroke-width="1.1" stroke-dasharray="6 4" points="72.00,89.56 76.81,91.42 81.62,93.27 86.43,95.12 91.24,96.97 96.05,98.83 100.86,100.68 105.67,102.53 110.48,104.39 115.29,106.24 120.10,108.09 124.91,109.95 129.72,111.80 134.53,113.65 139.34,115.50 144.15,117.36 148.96,119.21 153.77,121.06 158.58,122.92 163.39,124.77 168.20,126.62 173.01,128.48 177.82,130.33 182.63,132.18 187.44,134.03 192.25,135.89 197.06,137.74 201.87,139.59 206.68,141.45 211.49,143.30 216.30,145.15 221.11,147.01 225.92,148.86 230.73,150.71 235.54,152.56 240.35,154.42 245.16,156.27 249.97,158.12 254.78,159.98 259.59,161.83 264.41,163.68 269.22,165.54 274.03,167.39 278.84,169.24 283.65,171.09 288.46,172.95 293.27,174.80 298.08,176.65 302.89,178.51 307.70,180.36 312.51,182.21 317.32,184.07 322.13,185.92 326.94,187.77 331.75,189.63 336.56,191.48 341.37,193.33 346.18,195.18 350.99,197.04 355.80,198.89 360.61,200.74 365.42,202.60 370.23,204.45 375.04,206.30 379.85,208.16 384.66,210.01 389.47,211.86 394.28,213.71 399.09,215.57 403.90,217.42 408.71,219.27 413.52,221.13 418.33,222.98 423.14,224.83 427.95,226.69 432.76,228.54 437.57,230.39 442.38,232.24 447.19,234.10 452.00,235.95"/>
<circle cx="246.25" cy="156.69" r="4.6" fill="#ffffff" stroke="#1f77b4" stroke-width="2"/>
<text x="252.25" y="150.69" font-family="Arial, sans-serif" font-size="10" fill="#1f77b4">typ 28.8 ohm</text>
<polyline fill="none" stroke="#ff7f0e" stroke-width="1.1" stroke-dasharray="6 4" points="72.00,94.08 76.81,95.93 81.62,97.79 86.43,99.64 91.24,101.49 96.05,103.35 100.86,105.20 105.67,107.05 110.48,108.90 115.29,110.76 120.10,112.61 124.91,114.46 129.72,116.32 134.53,118.17 139.34,120.02 144.15,121.88 148.96,123.73 153.77,125.58 158.58,127.43 163.39,129.29 168.20,131.14 173.01,132.99 177.82,134.85 182.63,136.70 187.44,138.55 192.25,140.41 197.06,142.26 201.87,144.11 206.68,145.96 211.49,147.82 216.30,149.67 221.11,151.52 225.92,153.38 230.73,155.23 235.54,157.08 240.35,158.94 245.16,160.79 249.97,162.64 254.78,164.49 259.59,166.35 264.41,168.20 269.22,170.05 274.03,171.91 278.84,173.76 283.65,175.61 288.46,177.47 293.27,179.32 298.08,181.17 302.89,183.03 307.70,184.88 312.51,186.73 317.32,188.58 322.13,190.44 326.94,192.29 331.75,194.14 336.56,196.00 341.37,197.85 346.18,199.70 350.99,201.56 355.80,203.41 360.61,205.26 365.42,207.11 370.23,208.97 375.04,210.82 379.85,212.67 384.66,214.53 389.47,216.38 394.28,218.23 399.09,220.09 403.90,221.94 408.71,223.79 413.52,225.64 418.33,227.50 423.14,229.35 427.95,231.20 432.76,233.06 437.57,234.91 442.38,236.76 447.19,238.62 452.00,240.47"/>
<circle cx="268.40" cy="169.74" r="4.6" fill="#ffffff" stroke="#ff7f0e" stroke-width="2"/>
<text x="274.40" y="163.74" font-family="Arial, sans-serif" font-size="10" fill="#ff7f0e">min 80.3 ohm</text>
<polyline fill="none" stroke="#2ca02c" stroke-width="1.1" stroke-dasharray="6 4" points="72.00,85.04 76.81,86.90 81.62,88.75 86.43,90.60 91.24,92.46 96.05,94.31 100.86,96.16 105.67,98.02 110.48,99.87 115.29,101.72 120.10,103.57 124.91,105.43 129.72,107.28 134.53,109.13 139.34,110.99 144.15,112.84 148.96,114.69 153.77,116.55 158.58,118.40 163.39,120.25 168.20,122.10 173.01,123.96 177.82,125.81 182.63,127.66 187.44,129.52 192.25,131.37 197.06,133.22 201.87,135.08 206.68,136.93 211.49,138.78 216.30,140.63 221.11,142.49 225.92,144.34 230.73,146.19 235.54,148.05 240.35,149.90 245.16,151.75 249.97,153.61 254.78,155.46 259.59,157.31 264.41,159.16 269.22,161.02 274.03,162.87 278.84,164.72 283.65,166.58 288.46,168.43 293.27,170.28 298.08,172.14 302.89,173.99 307.70,175.84 312.51,177.69 317.32,179.55 322.13,181.40 326.94,183.25 331.75,185.11 336.56,186.96 341.37,188.81 346.18,190.67 350.99,192.52 355.80,194.37 360.61,196.22 365.42,198.08 370.23,199.93 375.04,201.78 379.85,203.64 384.66,205.49 389.47,207.34 394.28,209.20 399.09,211.05 403.90,212.90 408.71,214.76 413.52,216.61 418.33,218.46 423.14,220.31 427.95,222.17 432.76,224.02 437.57,225.87 442.38,227.73 447.19,229.58 452.00,231.43"/>
<circle cx="229.64" cy="145.77" r="4.6" fill="#ffffff" stroke="#2ca02c" stroke-width="2"/>
<text x="235.64" y="139.77" font-family="Arial, sans-serif" font-size="10" fill="#2ca02c">max 12.8 ohm</text>
<line x1="82.00" y1="80.00" x2="104.00" y2="80.00" stroke="#1f77b4" stroke-width="2"/>
<text x="110.00" y="84.00" font-family="Arial, sans-serif" font-size="11">typ</text>
<line x1="82.00" y1="97.00" x2="104.00" y2="97.00" stroke="#ff7f0e" stroke-width="2" stroke-dasharray="5 4"/>
<text x="110.00" y="101.00" font-family="Arial, sans-serif" font-size="11">min</text>
<line x1="82.00" y1="114.00" x2="104.00" y2="114.00" stroke="#2ca02c" stroke-width="2" stroke-dasharray="2 4"/>
<text x="110.00" y="118.00" font-family="Arial, sans-serif" font-size="11">max</text>
<text x="262.00" y="386.00" text-anchor="middle" font-family="Arial, sans-serif" font-size="11">Output voltage (V)</text>
<text transform="translate(22.00 205.00) rotate(-90)" text-anchor="middle" font-family="Arial, sans-serif" font-size="11">Current (mA)</text>
<rect x="492.00" y="62.00" width="380.00" height="286.00" fill="#fbfbfb" stroke="#c8c8c8"/>
<text x="500.00" y="50.00" font-family="Arial, sans-serif" font-size="13" font-weight="700">[Pullup] Rload to GND</text>
<line x1="492.00" y1="62.00" x2="492.00" y2="348.00" stroke="#ececec"/>
<text x="492.00" y="366.00" text-anchor="middle" font-family="Arial, sans-serif" font-size="10">-1.2</text>
<line x1="587.00" y1="62.00" x2="587.00" y2="348.00" stroke="#ececec"/>
<text x="587.00" y="366.00" text-anchor="middle" font-family="Arial, sans-serif" font-size="10">-0.341</text>
<line x1="682.00" y1="62.00" x2="682.00" y2="348.00" stroke="#ececec"/>
<text x="682.00" y="366.00" text-anchor="middle" font-family="Arial, sans-serif" font-size="10">0.55</text>
<line x1="777.00" y1="62.00" x2="777.00" y2="348.00" stroke="#ececec"/>
<text x="777.00" y="366.00" text-anchor="middle" font-family="Arial, sans-serif" font-size="10">1.4</text>
<line x1="872.00" y1="62.00" x2="872.00" y2="348.00" stroke="#ececec"/>
<text x="872.00" y="366.00" text-anchor="middle" font-family="Arial, sans-serif" font-size="10">2.3</text>
<line x1="492.00" y1="348.00" x2="872.00" y2="348.00" stroke="#ececec"/>
<text x="485.00" y="352.00" text-anchor="end" font-family="Arial, sans-serif" font-size="10">-83</text>
<line x1="492.00" y1="276.50" x2="872.00" y2="276.50" stroke="#ececec"/>
<text x="485.00" y="280.50" text-anchor="end" font-family="Arial, sans-serif" font-size="10">-38</text>
<line x1="492.00" y1="205.00" x2="872.00" y2="205.00" stroke="#ececec"/>
<text x="485.00" y="209.00" text-anchor="end" font-family="Arial, sans-serif" font-size="10">7.6</text>
<line x1="492.00" y1="133.50" x2="872.00" y2="133.50" stroke="#ececec"/>
<text x="485.00" y="137.50" text-anchor="end" font-family="Arial, sans-serif" font-size="10">53</text>
<line x1="492.00" y1="62.00" x2="872.00" y2="62.00" stroke="#ececec"/>
<text x="485.00" y="66.00" text-anchor="end" font-family="Arial, sans-serif" font-size="10">98</text>
<line x1="623.36" y1="62" x2="623.36" y2="348" stroke="#777" stroke-dasharray="4 4"/>
<line x1="492.0" y1="216.93" x2="872.0" y2="216.93" stroke="#777" stroke-dasharray="4 4"/>
<polyline fill="none" stroke="#1f77b4" stroke-width="1.8" points="506.07,119.66 511.41,125.09 516.74,130.44 523.13,136.75 528.46,141.93 533.80,147.02 539.13,152.02 544.46,156.92 549.79,161.73 556.19,167.36 561.52,171.94 566.85,176.41 572.18,180.78 577.51,185.04 582.84,189.20 589.24,194.04 594.57,197.95 599.90,201.75 605.23,205.43 610.56,208.98 614.83,211.71 615.89,212.38 622.29,216.30 623.36,216.93 627.62,219.34 631.89,221.54 632.95,222.06 638.29,224.48 643.62,226.60 648.95,228.41 655.34,230.18 660.68,231.30 663.87,231.84 666.01,232.15 671.34,232.76 676.67,233.20 683.07,233.61 684.13,233.66 688.40,233.88 693.73,234.12 697.99,234.12 699.06,234.12 702.26,234.12 704.39,234.12 709.72,234.12 716.12,234.12 721.45,234.12 726.78,234.12 728.91,234.12 732.11,234.12 737.44,234.12 740.64,234.12 742.77,234.12 749.17,234.12 752.37,234.12 754.50,234.12 757.70,234.12 758.77,234.64 765.16,241.54 770.50,247.40 772.63,249.76 773.69,250.95 775.83,253.31 782.22,260.31 787.56,265.91 792.89,271.16 798.22,275.92 803.55,280.13 804.62,280.90 805.68,281.65 806.75,282.37 807.81,283.07 808.88,283.75 809.95,284.41 811.01,285.04 812.08,285.66 813.14,286.25 814.21,286.82 815.28,287.37 816.34,287.90 817.41,288.41 818.48,288.90 819.54,289.37 820.61,289.82 821.67,290.24 823.81,291.02 824.87,291.37 825.94,291.67 827.01,291.92 828.07,292.11 829.14,292.21 831.27,292.21 836.60,292.21 841.93,292.21 843.00,292.21 844.07,292.21 845.13,292.21 848.33,292.21 853.66,292.21 857.93,292.21"/>
<polyline fill="none" stroke="#ff7f0e" stroke-width="1.8" stroke-dasharray="5 4" points="506.07,149.04 511.41,153.08 516.74,157.13 523.13,161.94 528.46,165.84 533.80,169.64 539.13,173.33 544.46,176.92 549.79,180.39 556.19,184.42 561.52,187.65 566.85,190.76 572.18,193.77 577.51,196.65 582.84,199.43 589.24,202.61 594.57,205.13 599.90,207.55 605.23,209.86 610.56,212.05 614.83,213.73 615.89,214.15 622.29,216.55 623.36,216.93 627.62,218.38 631.89,219.67 632.95,219.97 638.29,221.34 643.62,222.49 648.95,223.45 655.34,224.32 660.68,224.83 663.87,225.06 666.01,225.19 671.34,225.42 676.67,225.60 683.07,225.77 684.13,225.79 688.40,225.88 693.73,225.99 697.99,226.07 699.06,226.09 702.26,226.14 704.39,226.18 709.72,226.26 716.12,226.35 721.45,226.43 726.78,226.49 728.91,226.52 732.11,226.56 737.44,226.62 740.64,226.66 742.77,226.68 749.17,226.75 752.37,226.79 754.50,226.81 757.70,226.84 758.77,226.85 765.16,226.92 770.50,226.97 772.63,226.99 773.69,227.00 775.83,227.02 782.22,227.08 787.56,227.12 792.89,227.17 798.22,227.22 803.55,227.26 804.62,227.27 805.68,227.28 806.75,227.29 807.81,227.30 808.88,227.31 809.95,227.31 811.01,227.32 812.08,227.33 813.14,227.34 814.21,227.36 815.28,227.36 816.34,227.36 817.41,227.36 818.48,227.36 819.54,227.36 820.61,227.36 821.67,227.36 823.81,227.36 824.87,227.36 825.94,227.36 827.01,227.36 828.07,227.36 829.14,227.36 831.27,227.36 836.60,227.36 841.93,227.36 843.00,227.36 844.07,227.36 845.13,227.36 848.33,227.36 853.66,227.36 857.93,227.36"/>
<polyline fill="none" stroke="#2ca02c" stroke-width="1.8" stroke-dasharray="2 4" points="506.07,89.68 511.41,95.92 516.74,102.14 523.13,109.56 528.46,115.70 533.80,121.79 539.13,127.83 544.46,133.82 549.79,139.76 556.19,146.82 561.52,152.64 566.85,158.42 572.18,164.15 577.51,169.86 582.84,175.54 589.24,182.31 594.57,187.91 599.90,193.48 605.23,198.98 610.56,204.35 614.83,208.44 615.89,209.50 622.29,215.90 623.36,216.93 627.62,220.91 631.89,224.62 632.95,225.48 638.29,229.43 643.62,233.06 648.95,236.28 655.34,239.56 660.68,241.81 663.87,242.95 666.01,243.63 671.34,245.06 676.67,246.18 683.07,247.20 684.13,247.35 688.40,247.87 693.73,248.43 697.99,248.82 699.06,248.91 702.26,249.16 704.39,249.16 709.72,249.16 716.12,249.16 721.45,249.16 726.78,249.16 728.91,249.16 732.11,249.16 737.44,249.16 740.64,249.16 742.77,249.16 749.17,249.16 752.37,249.16 754.50,249.16 757.70,249.16 758.77,249.16 765.16,249.16 770.50,249.16 772.63,249.16 773.69,249.93 775.83,253.30 782.22,263.31 787.56,271.47 792.89,279.37 798.22,286.85 803.55,293.71 804.62,294.99 805.68,296.23 806.75,297.44 807.81,298.62 808.88,299.76 809.95,300.86 811.01,301.93 812.08,302.96 813.14,303.95 814.21,304.91 815.28,305.83 816.34,306.72 817.41,307.57 818.48,308.38 819.54,309.17 820.61,309.92 821.67,310.64 823.81,311.99 824.87,312.62 825.94,313.23 827.01,313.81 828.07,314.37 829.14,314.91 831.27,315.91 836.60,318.09 841.93,319.78 843.00,320.02 844.07,320.21 845.13,320.32 848.33,320.32 853.66,320.32 857.93,320.32"/>
<polyline fill="none" stroke="#1f77b4" stroke-width="1.1" stroke-dasharray="6 4" points="492.00,290.30 496.81,288.88 501.62,287.46 506.43,286.04 511.24,284.62 516.05,283.20 520.86,281.78 525.67,280.37 530.48,278.95 535.29,277.53 540.10,276.11 544.91,274.69 549.72,273.27 554.53,271.85 559.34,270.43 564.15,269.01 568.96,267.59 573.77,266.17 578.58,264.75 583.39,263.33 588.20,261.91 593.01,260.49 597.82,259.07 602.63,257.65 607.44,256.23 612.25,254.82 617.06,253.40 621.87,251.98 626.68,250.56 631.49,249.14 636.30,247.72 641.11,246.30 645.92,244.88 650.73,243.46 655.54,242.04 660.35,240.62 665.16,239.20 669.97,237.78 674.78,236.36 679.59,234.94 684.41,233.52 689.22,232.10 694.03,230.68 698.84,229.27 703.65,227.85 708.46,226.43 713.27,225.01 718.08,223.59 722.89,222.17 727.70,220.75 732.51,219.33 737.32,217.91 742.13,216.49 746.94,215.07 751.75,213.65 756.56,212.23 761.37,210.81 766.18,209.39 770.99,207.97 775.80,206.55 780.61,205.13 785.42,203.72 790.23,202.30 795.04,200.88 799.85,199.46 804.66,198.04 809.47,196.62 814.28,195.20 819.09,193.78 823.90,192.36 828.71,190.94 833.52,189.52 838.33,188.10 843.14,186.68 847.95,185.26 852.76,183.84 857.57,182.42 862.38,181.00 867.19,179.58 872.00,178.17"/>
<circle cx="683.96" cy="233.65" r="4.6" fill="#ffffff" stroke="#1f77b4" stroke-width="2"/>
<text x="689.96" y="227.65" font-family="Arial, sans-serif" font-size="10" fill="#1f77b4">typ 53.5 ohm</text>
<polyline fill="none" stroke="#ff7f0e" stroke-width="1.1" stroke-dasharray="6 4" points="492.00,286.84 496.81,285.42 501.62,284.00 506.43,282.58 511.24,281.16 516.05,279.74 520.86,278.32 525.67,276.90 530.48,275.49 535.29,274.07 540.10,272.65 544.91,271.23 549.72,269.81 554.53,268.39 559.34,266.97 564.15,265.55 568.96,264.13 573.77,262.71 578.58,261.29 583.39,259.87 588.20,258.45 593.01,257.03 597.82,255.61 602.63,254.19 607.44,252.77 612.25,251.35 617.06,249.94 621.87,248.52 626.68,247.10 631.49,245.68 636.30,244.26 641.11,242.84 645.92,241.42 650.73,240.00 655.54,238.58 660.35,237.16 665.16,235.74 669.97,234.32 674.78,232.90 679.59,231.48 684.41,230.06 689.22,228.64 694.03,227.22 698.84,225.80 703.65,224.39 708.46,222.97 713.27,221.55 718.08,220.13 722.89,218.71 727.70,217.29 732.51,215.87 737.32,214.45 742.13,213.03 746.94,211.61 751.75,210.19 756.56,208.77 761.37,207.35 766.18,205.93 770.99,204.51 775.80,203.09 780.61,201.67 785.42,200.25 790.23,198.84 795.04,197.42 799.85,196.00 804.66,194.58 809.47,193.16 814.28,191.74 819.09,190.32 823.90,188.90 828.71,187.48 833.52,186.06 838.33,184.64 843.14,183.22 847.95,181.80 852.76,180.38 857.57,178.96 862.38,177.54 867.19,176.12 872.00,174.70"/>
<circle cx="697.94" cy="226.07" r="4.6" fill="#ffffff" stroke="#ff7f0e" stroke-width="2"/>
<text x="703.94" y="220.07" font-family="Arial, sans-serif" font-size="10" fill="#ff7f0e">min 120 ohm</text>
<polyline fill="none" stroke="#2ca02c" stroke-width="1.1" stroke-dasharray="6 4" points="492.00,293.76 496.81,292.34 501.62,290.92 506.43,289.50 511.24,288.08 516.05,286.67 520.86,285.25 525.67,283.83 530.48,282.41 535.29,280.99 540.10,279.57 544.91,278.15 549.72,276.73 554.53,275.31 559.34,273.89 564.15,272.47 568.96,271.05 573.77,269.63 578.58,268.21 583.39,266.79 588.20,265.37 593.01,263.95 597.82,262.53 602.63,261.12 607.44,259.70 612.25,258.28 617.06,256.86 621.87,255.44 626.68,254.02 631.49,252.60 636.30,251.18 641.11,249.76 645.92,248.34 650.73,246.92 655.54,245.50 660.35,244.08 665.16,242.66 669.97,241.24 674.78,239.82 679.59,238.40 684.41,236.98 689.22,235.57 694.03,234.15 698.84,232.73 703.65,231.31 708.46,229.89 713.27,228.47 718.08,227.05 722.89,225.63 727.70,224.21 732.51,222.79 737.32,221.37 742.13,219.95 746.94,218.53 751.75,217.11 756.56,215.69 761.37,214.27 766.18,212.85 770.99,211.43 775.80,210.02 780.61,208.60 785.42,207.18 790.23,205.76 795.04,204.34 799.85,202.92 804.66,201.50 809.47,200.08 814.28,198.66 819.09,197.24 823.90,195.82 828.71,194.40 833.52,192.98 838.33,191.56 843.14,190.14 847.95,188.72 852.76,187.30 857.57,185.88 862.38,184.47 867.19,183.05 872.00,181.63"/>
<circle cx="664.03" cy="243.00" r="4.6" fill="#ffffff" stroke="#2ca02c" stroke-width="2"/>
<text x="670.03" y="237.00" font-family="Arial, sans-serif" font-size="10" fill="#2ca02c">max 23 ohm</text>
<line x1="502.00" y1="80.00" x2="524.00" y2="80.00" stroke="#1f77b4" stroke-width="2"/>
<text x="530.00" y="84.00" font-family="Arial, sans-serif" font-size="11">typ</text>
<line x1="502.00" y1="97.00" x2="524.00" y2="97.00" stroke="#ff7f0e" stroke-width="2" stroke-dasharray="5 4"/>
<text x="530.00" y="101.00" font-family="Arial, sans-serif" font-size="11">min</text>
<line x1="502.00" y1="114.00" x2="524.00" y2="114.00" stroke="#2ca02c" stroke-width="2" stroke-dasharray="2 4"/>
<text x="530.00" y="118.00" font-family="Arial, sans-serif" font-size="11">max</text>
<text x="682.00" y="386.00" text-anchor="middle" font-family="Arial, sans-serif" font-size="11">Vcc-relative table voltage (V)</text>
<text transform="translate(442.00 205.00) rotate(-90)" text-anchor="middle" font-family="Arial, sans-serif" font-size="11">Current (mA)</text>
<rect x="72.00" y="418.00" width="800.00" height="144.00" fill="#ffffff" stroke="#c8c8c8"/>
<text x="82.00" y="436.00" font-family="Arial, sans-serif" font-size="12" font-weight="700">Operating-point summary</text>
<text x="82.00" y="454.00" font-family="Arial, sans-serif" font-size="10" font-weight="700" fill="#333">Table</text>
<text x="174.00" y="454.00" font-family="Arial, sans-serif" font-size="10" font-weight="700" fill="#333">Corner</text>
<text x="242.00" y="454.00" font-family="Arial, sans-serif" font-size="10" font-weight="700" fill="#333">Vout</text>
<text x="332.00" y="454.00" font-family="Arial, sans-serif" font-size="10" font-weight="700" fill="#333">Iop</text>
<text x="422.00" y="454.00" font-family="Arial, sans-serif" font-size="10" font-weight="700" fill="#333">Zout</text>
<text x="512.00" y="454.00" font-family="Arial, sans-serif" font-size="10" font-weight="700" fill="#333">Rseries</text>
<text x="82.00" y="473.00" font-family="Arial, sans-serif" font-size="10" fill="#1f77b4">pulldown</text>
<text x="174.00" y="473.00" font-family="Arial, sans-serif" font-size="10" fill="#1f77b4">typ</text>
<text x="242.00" y="473.00" font-family="Arial, sans-serif" font-size="10" fill="#1f77b4">0.4023 V</text>
<text x="332.00" y="473.00" font-family="Arial, sans-serif" font-size="10" fill="#1f77b4">14 mA</text>
<text x="422.00" y="473.00" font-family="Arial, sans-serif" font-size="10" fill="#1f77b4">28.8 ohm</text>
<text x="512.00" y="473.00" font-family="Arial, sans-serif" font-size="10" fill="#1f77b4">21.2 ohm</text>
<text x="82.00" y="492.00" font-family="Arial, sans-serif" font-size="10" fill="#ff7f0e">pulldown</text>
<text x="174.00" y="492.00" font-family="Arial, sans-serif" font-size="10" fill="#ff7f0e">min</text>
<text x="242.00" y="492.00" font-family="Arial, sans-serif" font-size="10" fill="#ff7f0e">0.61 V</text>
<text x="332.00" y="492.00" font-family="Arial, sans-serif" font-size="10" fill="#ff7f0e">7.6 mA</text>
<text x="422.00" y="492.00" font-family="Arial, sans-serif" font-size="10" fill="#ff7f0e">80.3 ohm</text>
<text x="512.00" y="492.00" font-family="Arial, sans-serif" font-size="10" fill="#ff7f0e">-30.3 ohm</text>
<text x="82.00" y="511.00" font-family="Arial, sans-serif" font-size="10" fill="#2ca02c">pulldown</text>
<text x="174.00" y="511.00" font-family="Arial, sans-serif" font-size="10" fill="#2ca02c">max</text>
<text x="242.00" y="511.00" font-family="Arial, sans-serif" font-size="10" fill="#2ca02c">0.2465 V</text>
<text x="332.00" y="511.00" font-family="Arial, sans-serif" font-size="10" fill="#2ca02c">19 mA</text>
<text x="422.00" y="511.00" font-family="Arial, sans-serif" font-size="10" fill="#2ca02c">12.8 ohm</text>
<text x="512.00" y="511.00" font-family="Arial, sans-serif" font-size="10" fill="#2ca02c">37.2 ohm</text>
<text x="82.00" y="530.00" font-family="Arial, sans-serif" font-size="10" fill="#1f77b4">pullup</text>
<text x="174.00" y="530.00" font-family="Arial, sans-serif" font-size="10" fill="#1f77b4">typ</text>
<text x="242.00" y="530.00" font-family="Arial, sans-serif" font-size="10" fill="#1f77b4">0.5316 V</text>
<text x="332.00" y="530.00" font-family="Arial, sans-serif" font-size="10" fill="#1f77b4">-11 mA</text>
<text x="422.00" y="530.00" font-family="Arial, sans-serif" font-size="10" fill="#1f77b4">53.5 ohm</text>
<text x="512.00" y="530.00" font-family="Arial, sans-serif" font-size="10" fill="#1f77b4">-3.461 ohm</text>
<text x="82.00" y="549.00" font-family="Arial, sans-serif" font-size="10" fill="#ff7f0e">pullup</text>
<text x="174.00" y="549.00" font-family="Arial, sans-serif" font-size="10" fill="#ff7f0e">min</text>
<text x="242.00" y="549.00" font-family="Arial, sans-serif" font-size="10" fill="#ff7f0e">0.2905 V</text>
<text x="332.00" y="549.00" font-family="Arial, sans-serif" font-size="10" fill="#ff7f0e">-5.8 mA</text>
<text x="422.00" y="549.00" font-family="Arial, sans-serif" font-size="10" fill="#ff7f0e">120 ohm</text>
<text x="512.00" y="549.00" font-family="Arial, sans-serif" font-size="10" fill="#ff7f0e">-70.4 ohm</text>
<text x="82.00" y="568.00" font-family="Arial, sans-serif" font-size="10" fill="#2ca02c">pullup</text>
<text x="174.00" y="568.00" font-family="Arial, sans-serif" font-size="10" fill="#2ca02c">max</text>
<text x="242.00" y="568.00" font-family="Arial, sans-serif" font-size="10" fill="#2ca02c">0.8285 V</text>
<text x="332.00" y="568.00" font-family="Arial, sans-serif" font-size="10" fill="#2ca02c">-17 mA</text>
<text x="422.00" y="568.00" font-family="Arial, sans-serif" font-size="10" fill="#2ca02c">23 ohm</text>
<text x="512.00" y="568.00" font-family="Arial, sans-serif" font-size="10" fill="#2ca02c">27 ohm</text>
</svg>