<svg xmlns="http://www.w3.org/2000/svg" width="900" height="620" viewBox="0 0 900 620">
<rect width="100%" height="100%" fill="#ffffff"/>
<text x="72" y="26" font-family="Arial, sans-serif" font-size="16" font-weight="700">E34_GPIO_I2CSCLIN_1V2_00 Zout Load-Line Curves</text>
<text x="72" y="45" font-family="Arial, sans-serif" font-size="11" fill="#555">Rload=50 ohm; solid=device I-V, dashed=load line, circles=operating points</text>
<rect x="72.00" y="62.00" width="380.00" height="286.00" fill="#fbfbfb" stroke="#c8c8c8"/>
<text x="80.00" y="50.00" font-family="Arial, sans-serif" font-size="13" font-weight="700">[Pulldown] Rload to Vdd</text>
<line x1="72.00" y1="62.00" x2="72.00" y2="348.00" stroke="#ececec"/>
<text x="72.00" y="366.00" text-anchor="middle" font-family="Arial, sans-serif" font-size="10">-1.3</text>
<line x1="167.00" y1="62.00" x2="167.00" y2="348.00" stroke="#ececec"/>
<text x="167.00" y="366.00" text-anchor="middle" font-family="Arial, sans-serif" font-size="10">-0.372</text>
<line x1="262.00" y1="62.00" x2="262.00" y2="348.00" stroke="#ececec"/>
<text x="262.00" y="366.00" text-anchor="middle" font-family="Arial, sans-serif" font-size="10">0.6</text>
<line x1="357.00" y1="62.00" x2="357.00" y2="348.00" stroke="#ececec"/>
<text x="357.00" y="366.00" text-anchor="middle" font-family="Arial, sans-serif" font-size="10">1.6</text>
<line x1="452.00" y1="62.00" x2="452.00" y2="348.00" stroke="#ececec"/>
<text x="452.00" y="366.00" text-anchor="middle" font-family="Arial, sans-serif" font-size="10">2.5</text>
<line x1="72.00" y1="348.00" x2="452.00" y2="348.00" stroke="#ececec"/>
<text x="65.00" y="352.00" text-anchor="end" font-family="Arial, sans-serif" font-size="10">-36</text>
<line x1="72.00" y1="276.50" x2="452.00" y2="276.50" stroke="#ececec"/>
<text x="65.00" y="280.50" text-anchor="end" font-family="Arial, sans-serif" font-size="10">-12</text>
<line x1="72.00" y1="205.00" x2="452.00" y2="205.00" stroke="#ececec"/>
<text x="65.00" y="209.00" text-anchor="end" font-family="Arial, sans-serif" font-size="10">12</text>
<line x1="72.00" y1="133.50" x2="452.00" y2="133.50" stroke="#ececec"/>
<text x="65.00" y="137.50" text-anchor="end" font-family="Arial, sans-serif" font-size="10">36</text>
<line x1="72.00" y1="62.00" x2="452.00" y2="62.00" stroke="#ececec"/>
<text x="65.00" y="66.00" text-anchor="end" font-family="Arial, sans-serif" font-size="10">60</text>
<line x1="203.36" y1="62" x2="203.36" y2="348" stroke="#777" stroke-dasharray="4 4"/>
<line x1="72.0" y1="241.04" x2="452.0" y2="241.04" stroke="#777" stroke-dasharray="4 4"/>
<polyline fill="none" stroke="#1f77b4" stroke-width="1.8" points="86.07,250.87 91.94,250.87 96.83,250.87 102.69,250.87 108.55,250.87 113.44,250.87 119.30,250.87 124.19,250.87 130.06,250.87 135.92,250.87 140.81,250.84 142.76,250.80 143.74,250.77 144.72,250.74 145.69,250.70 146.67,250.66 147.65,250.61 148.63,250.56 149.60,250.50 150.58,250.43 151.56,250.36 152.53,250.27 153.51,250.18 154.49,250.08 155.47,249.98 156.44,249.86 157.42,249.74 158.40,249.61 159.38,249.47 160.35,249.32 161.33,249.17 162.31,249.01 163.29,248.84 169.15,247.74 174.04,246.75 179.90,245.55 185.77,244.37 190.65,243.40 196.52,242.28 201.40,241.39 203.36,241.04 207.27,240.36 213.13,239.41 218.02,238.68 223.88,237.88 229.75,237.18 234.63,236.69 240.50,236.20 246.36,235.83 251.25,235.61 257.11,235.43 262.98,235.32 267.86,235.25 273.73,235.18 278.62,235.13 284.48,235.08 290.34,235.03 295.23,235.00 301.09,234.95 304.03,234.93 306.96,234.91 308.91,234.90 310.87,234.89 311.85,234.88 314.78,234.87 317.71,234.85 320.64,234.83 323.57,234.81 328.46,234.79 332.37,234.76 334.33,234.75 339.21,234.73 345.08,234.70 350.94,234.67 355.83,234.64 361.69,234.60 367.56,234.54 372.44,234.42 378.31,234.17 384.17,233.76 389.06,233.27 394.92,232.53 397.85,232.10 398.83,231.95 399.81,231.79 400.79,231.63 401.76,231.47 402.74,231.30 403.72,231.13 404.70,230.96 405.67,230.78 406.65,230.60 408.60,230.23 409.58,230.04 411.54,229.65 416.42,228.62 422.29,227.31 428.15,225.91 433.04,224.69 437.93,223.43"/>
<polyline fill="none" stroke="#ff7f0e" stroke-width="1.8" stroke-dasharray="5 4" points="86.07,247.34 91.94,247.34 96.83,247.34 102.69,247.34 108.55,247.34 113.44,247.34 119.30,247.34 124.19,247.34 130.06,247.34 135.92,247.33 140.81,247.26 142.76,247.21 143.74,247.19 144.72,247.16 145.69,247.13 146.67,247.09 147.65,247.06 148.63,247.02 149.60,246.98 150.58,246.93 151.56,246.88 152.53,246.83 153.51,246.77 154.49,246.71 155.47,246.65 156.44,246.58 157.42,246.51 158.40,246.43 159.38,246.35 160.35,246.27 161.33,246.18 162.31,246.08 163.29,245.99 169.15,245.32 174.04,244.70 179.90,243.91 185.77,243.14 190.65,242.51 196.52,241.80 201.40,241.25 203.36,241.04 207.27,240.63 213.13,240.08 218.02,239.67 223.88,239.23 229.75,238.87 234.63,238.63 240.50,238.41 246.36,238.26 251.25,238.19 257.11,238.13 262.98,238.09 267.86,238.06 273.73,238.03 278.62,238.00 284.48,237.98 290.34,237.96 295.23,237.94 301.09,237.92 304.03,237.91 306.96,237.90 308.91,237.89 310.87,237.88 311.85,237.88 314.78,237.87 317.71,237.86 320.64,237.85 323.57,237.84 328.46,237.83 332.37,237.82 334.33,237.81 339.21,237.79 345.08,237.74 350.94,237.66 355.83,237.53 361.69,237.28 367.56,236.91 372.44,236.52 378.31,235.96 384.17,235.31 389.06,234.71 394.92,233.92 397.85,233.50 398.83,233.35 399.81,233.21 400.79,233.06 401.76,232.91 402.74,232.76 403.72,232.61 404.70,232.46 405.67,232.30 406.65,232.15 408.60,231.83 409.58,231.67 411.54,231.34 416.42,230.51 422.29,229.51 428.15,228.50 433.04,227.67 437.93,226.83"/>
<polyline fill="none" stroke="#2ca02c" stroke-width="1.8" stroke-dasharray="2 4" points="86.07,254.83 91.94,254.83 96.83,254.83 102.69,254.83 108.55,254.83 113.44,254.83 119.30,254.83 124.19,254.83 130.06,254.83 135.92,254.83 140.81,254.83 142.76,254.83 143.74,254.82 144.72,254.80 145.69,254.77 146.67,254.73 147.65,254.68 148.63,254.62 149.60,254.55 150.58,254.47 151.56,254.37 152.53,254.26 153.51,254.14 154.49,254.00 155.47,253.85 156.44,253.69 157.42,253.52 158.40,253.33 159.38,253.13 160.35,252.91 161.33,252.69 162.31,252.46 163.29,252.22 169.15,250.65 174.04,249.28 179.90,247.61 185.77,245.94 190.65,244.55 196.52,242.91 201.40,241.57 203.36,241.04 207.27,240.00 213.13,238.51 218.02,237.33 223.88,236.02 229.75,234.83 234.63,233.94 240.50,233.02 246.36,232.27 251.25,231.77 257.11,231.31 262.98,231.00 267.86,230.82 273.73,230.67 278.62,230.56 284.48,230.46 290.34,230.37 295.23,230.30 301.09,230.23 304.03,230.19 306.96,230.16 308.91,230.14 310.87,230.12 311.85,230.11 314.78,230.08 317.71,230.05 320.64,230.02 323.57,229.99 328.46,229.94 332.37,229.91 334.33,229.89 339.21,229.85 345.08,229.79 350.94,229.75 355.83,229.71 361.69,229.66 367.56,229.61 372.44,229.57 378.31,229.52 384.17,229.43 389.06,229.28 394.92,228.95 397.85,228.71 398.83,228.61 399.81,228.51 400.79,228.39 401.76,228.28 402.74,228.15 403.72,228.02 404.70,227.88 405.67,227.73 406.65,227.57 408.60,227.24 409.58,227.06 411.54,226.69 416.42,225.64 422.29,224.19 428.15,222.56 433.04,221.09 437.93,219.53"/>
<polyline fill="none" stroke="#1f77b4" stroke-width="1.1" stroke-dasharray="6 4" points="72.00,88.24 76.81,91.19 81.62,94.15 86.43,97.10 91.24,100.06 96.05,103.02 100.86,105.97 105.67,108.93 110.48,111.88 115.29,114.84 120.10,117.80 124.91,120.75 129.72,123.71 134.53,126.66 139.34,129.62 144.15,132.58 148.96,135.53 153.77,138.49 158.58,141.44 163.39,144.40 168.20,147.36 173.01,150.31 177.82,153.27 182.63,156.23 187.44,159.18 192.25,162.14 197.06,165.09 201.87,168.05 206.68,171.01 211.49,173.96 216.30,176.92 221.11,179.87 225.92,182.83 230.73,185.79 235.54,188.74 240.35,191.70 245.16,194.65 249.97,197.61 254.78,200.57 259.59,203.52 264.41,206.48 269.22,209.43 274.03,212.39 278.84,215.35 283.65,218.30 288.46,221.26 293.27,224.21 298.08,227.17 302.89,230.13 307.70,233.08 312.51,236.04 317.32,238.99 322.13,241.95 326.94,244.91 331.75,247.86 336.56,250.82 341.37,253.77 346.18,256.73 350.99,259.69 355.80,262.64 360.61,265.60 365.42,268.56 370.23,271.51 375.04,274.47 379.85,277.42 384.66,280.38 389.47,283.34 394.28,286.29 399.09,289.25 403.90,292.20 408.71,295.16 413.52,298.12 418.33,301.07 423.14,304.03 427.95,306.98 432.76,309.94 437.57,312.90 442.38,315.85 447.19,318.81 452.00,321.76"/>
<circle cx="310.64" cy="234.89" r="4.6" fill="#ffffff" stroke="#1f77b4" stroke-width="2"/>
<text x="316.64" y="228.89" font-family="Arial, sans-serif" font-size="10" fill="#1f77b4">typ 536 ohm</text>
<polyline fill="none" stroke="#ff7f0e" stroke-width="1.1" stroke-dasharray="6 4" points="72.00,95.44 76.81,98.40 81.62,101.36 86.43,104.31 91.24,107.27 96.05,110.22 100.86,113.18 105.67,116.14 110.48,119.09 115.29,122.05 120.10,125.00 124.91,127.96 129.72,130.92 134.53,133.87 139.34,136.83 144.15,139.78 148.96,142.74 153.77,145.70 158.58,148.65 163.39,151.61 168.20,154.56 173.01,157.52 177.82,160.48 182.63,163.43 187.44,166.39 192.25,169.34 197.06,172.30 201.87,175.26 206.68,178.21 211.49,181.17 216.30,184.13 221.11,187.08 225.92,190.04 230.73,192.99 235.54,195.95 240.35,198.91 245.16,201.86 249.97,204.82 254.78,207.77 259.59,210.73 264.41,213.69 269.22,216.64 274.03,219.60 278.84,222.55 283.65,225.51 288.46,228.47 293.27,231.42 298.08,234.38 302.89,237.33 307.70,240.29 312.51,243.25 317.32,246.20 322.13,249.16 326.94,252.11 331.75,255.07 336.56,258.03 341.37,260.98 346.18,263.94 350.99,266.89 355.80,269.85 360.61,272.81 365.42,275.76 370.23,278.72 375.04,281.67 379.85,284.63 384.66,287.59 389.47,290.54 394.28,293.50 399.09,296.46 403.90,299.41 408.71,302.37 413.52,305.32 418.33,308.28 423.14,311.24 427.95,314.19 432.76,317.15 437.57,320.10 442.38,323.06 447.19,326.02 452.00,328.97"/>
<circle cx="303.82" cy="237.91" r="4.6" fill="#ffffff" stroke="#ff7f0e" stroke-width="2"/>
<text x="309.82" y="231.91" font-family="Arial, sans-serif" font-size="10" fill="#ff7f0e">min 986 ohm</text>
<polyline fill="none" stroke="#2ca02c" stroke-width="1.1" stroke-dasharray="6 4" points="72.00,81.03 76.81,83.98 81.62,86.94 86.43,89.90 91.24,92.85 96.05,95.81 100.86,98.76 105.67,101.72 110.48,104.68 115.29,107.63 120.10,110.59 124.91,113.54 129.72,116.50 134.53,119.46 139.34,122.41 144.15,125.37 148.96,128.33 153.77,131.28 158.58,134.24 163.39,137.19 168.20,140.15 173.01,143.11 177.82,146.06 182.63,149.02 187.44,151.97 192.25,154.93 197.06,157.89 201.87,160.84 206.68,163.80 211.49,166.75 216.30,169.71 221.11,172.67 225.92,175.62 230.73,178.58 235.54,181.53 240.35,184.49 245.16,187.45 249.97,190.40 254.78,193.36 259.59,196.31 264.41,199.27 269.22,202.23 274.03,205.18 278.84,208.14 283.65,211.09 288.46,214.05 293.27,217.01 298.08,219.96 302.89,222.92 307.70,225.87 312.51,228.83 317.32,231.79 322.13,234.74 326.94,237.70 331.75,240.66 336.56,243.61 341.37,246.57 346.18,249.52 350.99,252.48 355.80,255.44 360.61,258.39 365.42,261.35 370.23,264.30 375.04,267.26 379.85,270.22 384.66,273.17 389.47,276.13 394.28,279.08 399.09,282.04 403.90,285.00 408.71,287.95 413.52,290.91 418.33,293.86 423.14,296.82 427.95,299.78 432.76,302.73 437.57,305.69 442.38,308.64 447.19,311.60 452.00,314.56"/>
<circle cx="314.54" cy="230.08" r="4.6" fill="#ffffff" stroke="#2ca02c" stroke-width="2"/>
<text x="320.54" y="224.08" font-family="Arial, sans-serif" font-size="10" fill="#2ca02c">max 312 ohm</text>
<line x1="82.00" y1="80.00" x2="104.00" y2="80.00" stroke="#1f77b4" stroke-width="2"/>
<text x="110.00" y="84.00" font-family="Arial, sans-serif" font-size="11">typ</text>
<line x1="82.00" y1="97.00" x2="104.00" y2="97.00" stroke="#ff7f0e" stroke-width="2" stroke-dasharray="5 4"/>
<text x="110.00" y="101.00" font-family="Arial, sans-serif" font-size="11">min</text>
<line x1="82.00" y1="114.00" x2="104.00" y2="114.00" stroke="#2ca02c" stroke-width="2" stroke-dasharray="2 4"/>
<text x="110.00" y="118.00" font-family="Arial, sans-serif" font-size="11">max</text>
<text x="262.00" y="386.00" text-anchor="middle" font-family="Arial, sans-serif" font-size="11">Output voltage (V)</text>
<text transform="translate(22.00 205.00) rotate(-90)" text-anchor="middle" font-family="Arial, sans-serif" font-size="11">Current (mA)</text>
<rect x="492.00" y="62.00" width="380.00" height="286.00" fill="#fbfbfb" stroke="#c8c8c8"/>
<text x="500.00" y="50.00" font-family="Arial, sans-serif" font-size="13" font-weight="700">[Pullup] Rload to GND</text>
<line x1="492.00" y1="62.00" x2="492.00" y2="348.00" stroke="#ececec"/>
<text x="492.00" y="366.00" text-anchor="middle" font-family="Arial, sans-serif" font-size="10">-1.3</text>
<line x1="587.00" y1="62.00" x2="587.00" y2="348.00" stroke="#ececec"/>
<text x="587.00" y="366.00" text-anchor="middle" font-family="Arial, sans-serif" font-size="10">-0.372</text>
<line x1="682.00" y1="62.00" x2="682.00" y2="348.00" stroke="#ececec"/>
<text x="682.00" y="366.00" text-anchor="middle" font-family="Arial, sans-serif" font-size="10">0.6</text>
<line x1="777.00" y1="62.00" x2="777.00" y2="348.00" stroke="#ececec"/>
<text x="777.00" y="366.00" text-anchor="middle" font-family="Arial, sans-serif" font-size="10">1.6</text>
<line x1="872.00" y1="62.00" x2="872.00" y2="348.00" stroke="#ececec"/>
<text x="872.00" y="366.00" text-anchor="middle" font-family="Arial, sans-serif" font-size="10">2.5</text>
<line x1="492.00" y1="348.00" x2="872.00" y2="348.00" stroke="#ececec"/>
<text x="485.00" y="352.00" text-anchor="end" font-family="Arial, sans-serif" font-size="10">-60</text>
<line x1="492.00" y1="276.50" x2="872.00" y2="276.50" stroke="#ececec"/>
<text x="485.00" y="280.50" text-anchor="end" font-family="Arial, sans-serif" font-size="10">-36</text>
<line x1="492.00" y1="205.00" x2="872.00" y2="205.00" stroke="#ececec"/>
<text x="485.00" y="209.00" text-anchor="end" font-family="Arial, sans-serif" font-size="10">-12</text>
<line x1="492.00" y1="133.50" x2="872.00" y2="133.50" stroke="#ececec"/>
<text x="485.00" y="137.50" text-anchor="end" font-family="Arial, sans-serif" font-size="10">12</text>
<line x1="492.00" y1="62.00" x2="872.00" y2="62.00" stroke="#ececec"/>
<text x="485.00" y="66.00" text-anchor="end" font-family="Arial, sans-serif" font-size="10">36</text>
<line x1="623.36" y1="62" x2="623.36" y2="348" stroke="#777" stroke-dasharray="4 4"/>
<line x1="492.0" y1="168.96" x2="872.0" y2="168.96" stroke="#777" stroke-dasharray="4 4"/>
<polyline fill="none" stroke="#1f77b4" stroke-width="1.8" points="506.07,141.77 511.94,143.36 513.89,143.89 515.85,144.42 516.83,144.68 520.73,145.74 522.69,146.27 528.55,147.84 533.44,149.13 539.30,150.66 544.19,151.92 550.06,153.40 555.92,154.85 560.81,156.02 566.67,157.39 572.53,158.72 577.42,159.79 583.29,161.05 589.15,162.27 594.04,163.28 599.90,164.46 605.77,165.62 610.65,166.57 615.54,167.51 616.52,167.69 621.40,168.60 623.36,168.96 627.27,169.66 629.22,169.99 630.20,170.16 631.18,170.32 632.15,170.48 638.02,171.40 643.88,172.24 647.79,172.75 649.75,172.99 650.72,173.11 653.66,173.44 655.61,173.65 657.57,173.85 658.54,173.94 659.52,174.03 660.50,174.12 661.48,174.21 662.45,174.29 663.43,174.37 664.41,174.45 665.38,174.52 666.36,174.59 667.34,174.66 668.32,174.73 669.29,174.79 670.27,174.85 671.25,174.91 672.23,174.96 673.20,175.01 674.18,175.06 675.16,175.10 676.14,175.15 677.11,175.19 678.09,175.23 679.07,175.26 680.05,175.30 682.00,175.36 687.86,175.52 693.73,175.64 698.62,175.73 704.48,175.82 710.34,175.91 715.23,175.97 721.09,176.04 723.05,176.06 726.96,176.10 728.91,176.12 731.85,176.15 737.71,176.20 740.64,176.23 743.57,176.25 748.46,176.29 752.37,176.32 754.33,176.34 759.21,176.37 765.08,176.42 770.94,176.45 775.83,176.45 781.69,176.45 787.56,176.45 792.44,176.45 798.31,176.45 804.17,176.45 809.06,176.45 814.92,176.45 820.79,176.45 825.67,176.45 831.54,176.45 836.42,176.45 842.29,176.45 848.15,176.45 853.04,176.45 857.93,176.45"/>
<polyline fill="none" stroke="#ff7f0e" stroke-width="1.8" stroke-dasharray="5 4" points="506.07,150.26 511.94,151.22 513.89,151.54 515.85,151.86 516.83,152.02 520.73,152.67 522.69,153.00 528.55,154.04 533.44,154.92 539.30,156.00 544.19,156.90 550.06,157.97 555.92,159.04 560.81,159.91 566.67,160.92 572.53,161.91 577.42,162.69 583.29,163.60 589.15,164.47 594.04,165.16 599.90,165.97 605.77,166.76 610.65,167.39 615.54,168.01 616.52,168.13 621.40,168.73 623.36,168.96 627.27,169.41 629.22,169.62 630.20,169.73 631.18,169.83 632.15,169.93 638.02,170.49 643.88,170.98 647.79,171.27 649.75,171.40 650.72,171.46 653.66,171.64 655.61,171.74 657.57,171.84 658.54,171.89 659.52,171.93 660.50,171.98 661.48,172.01 662.45,172.05 663.43,172.09 664.41,172.12 665.38,172.15 666.36,172.18 667.34,172.21 668.32,172.23 669.29,172.26 670.27,172.28 671.25,172.30 672.23,172.32 673.20,172.34 674.18,172.36 675.16,172.37 676.14,172.39 677.11,172.40 678.09,172.42 679.07,172.43 680.05,172.44 682.00,172.46 687.86,172.52 693.73,172.57 698.62,172.61 704.48,172.65 710.34,172.68 715.23,172.71 721.09,172.74 723.05,172.75 726.96,172.77 728.91,172.78 731.85,172.79 737.71,172.82 740.64,172.83 743.57,172.84 748.46,172.86 752.37,172.87 754.33,172.87 759.21,172.87 765.08,172.87 770.94,172.87 775.83,172.87 781.69,172.87 787.56,172.87 792.44,172.87 798.31,172.87 804.17,172.87 809.06,172.87 814.92,172.87 820.79,172.87 825.67,172.87 831.54,172.87 836.42,172.87 842.29,172.87 848.15,172.87 853.04,172.87 857.93,172.87"/>
<polyline fill="none" stroke="#2ca02c" stroke-width="1.8" stroke-dasharray="2 4" points="506.07,132.26 511.94,134.46 513.89,135.18 515.85,135.91 516.83,136.26 520.73,137.69 522.69,138.39 528.55,140.47 533.44,142.17 539.30,144.17 544.19,145.79 550.06,147.70 555.92,149.56 560.81,151.07 566.67,152.85 572.53,154.59 577.42,156.01 583.29,157.71 589.15,159.39 594.04,160.78 599.90,162.44 605.77,164.09 610.65,165.46 615.54,166.79 616.52,167.05 621.40,168.42 623.36,168.96 627.27,170.02 629.22,170.53 630.20,170.79 631.18,171.03 632.15,171.28 638.02,172.68 643.88,174.01 647.79,174.85 649.75,175.24 650.72,175.44 653.66,176.01 655.61,176.37 657.57,176.72 658.54,176.89 659.52,177.05 660.50,177.22 661.48,177.37 662.45,177.53 663.43,177.68 664.41,177.83 665.38,177.98 666.36,178.12 667.34,178.26 668.32,178.39 669.29,178.52 670.27,178.65 671.25,178.77 672.23,178.89 673.20,179.00 674.18,179.12 675.16,179.22 676.14,179.33 677.11,179.43 678.09,179.53 679.07,179.62 680.05,179.71 682.00,179.88 687.86,180.31 693.73,180.65 698.62,180.88 704.48,181.11 710.34,181.30 715.23,181.44 721.09,181.58 723.05,181.63 726.96,181.71 728.91,181.75 731.85,181.81 737.71,181.92 740.64,181.97 743.57,182.02 748.46,182.10 752.37,182.16 754.33,182.18 759.21,182.25 765.08,182.33 770.94,182.41 775.83,182.47 781.69,182.54 787.56,182.59 792.44,182.59 798.31,182.59 804.17,182.59 809.06,182.59 814.92,182.59 820.79,182.59 825.67,182.59 831.54,182.59 836.42,182.59 842.29,182.59 848.15,182.59 853.04,182.59 857.93,182.59"/>
<polyline fill="none" stroke="#1f77b4" stroke-width="1.1" stroke-dasharray="6 4" points="492.00,321.76 496.81,318.81 501.62,315.85 506.43,312.90 511.24,309.94 516.05,306.98 520.86,304.03 525.67,301.07 530.48,298.12 535.29,295.16 540.10,292.20 544.91,289.25 549.72,286.29 554.53,283.34 559.34,280.38 564.15,277.42 568.96,274.47 573.77,271.51 578.58,268.56 583.39,265.60 588.20,262.64 593.01,259.69 597.82,256.73 602.63,253.77 607.44,250.82 612.25,247.86 617.06,244.91 621.87,241.95 626.68,238.99 631.49,236.04 636.30,233.08 641.11,230.13 645.92,227.17 650.73,224.21 655.54,221.26 660.35,218.30 665.16,215.35 669.97,212.39 674.78,209.43 679.59,206.48 684.41,203.52 689.22,200.57 694.03,197.61 698.84,194.65 703.65,191.70 708.46,188.74 713.27,185.79 718.08,182.83 722.89,179.87 727.70,176.92 732.51,173.96 737.32,171.01 742.13,168.05 746.94,165.09 751.75,162.14 756.56,159.18 761.37,156.23 766.18,153.27 770.99,150.31 775.80,147.36 780.61,144.40 785.42,141.44 790.23,138.49 795.04,135.53 799.85,132.58 804.66,129.62 809.47,126.66 814.28,123.71 819.09,120.75 823.90,117.80 828.71,114.84 833.52,111.88 838.33,108.93 843.14,105.97 847.95,103.02 852.76,100.06 857.57,97.10 862.38,94.15 867.19,91.19 872.00,88.24"/>
<circle cx="729.00" cy="176.12" r="4.6" fill="#ffffff" stroke="#1f77b4" stroke-width="2"/>
<text x="735.00" y="170.12" font-family="Arial, sans-serif" font-size="10" fill="#1f77b4">typ 454 ohm</text>
<polyline fill="none" stroke="#ff7f0e" stroke-width="1.1" stroke-dasharray="6 4" points="492.00,314.56 496.81,311.60 501.62,308.64 506.43,305.69 511.24,302.73 516.05,299.78 520.86,296.82 525.67,293.86 530.48,290.91 535.29,287.95 540.10,285.00 544.91,282.04 549.72,279.08 554.53,276.13 559.34,273.17 564.15,270.22 568.96,267.26 573.77,264.30 578.58,261.35 583.39,258.39 588.20,255.44 593.01,252.48 597.82,249.52 602.63,246.57 607.44,243.61 612.25,240.66 617.06,237.70 621.87,234.74 626.68,231.79 631.49,228.83 636.30,225.87 641.11,222.92 645.92,219.96 650.73,217.01 655.54,214.05 660.35,211.09 665.16,208.14 669.97,205.18 674.78,202.23 679.59,199.27 684.41,196.31 689.22,193.36 694.03,190.40 698.84,187.45 703.65,184.49 708.46,181.53 713.27,178.58 718.08,175.62 722.89,172.67 727.70,169.71 732.51,166.75 737.32,163.80 742.13,160.84 746.94,157.89 751.75,154.93 756.56,151.97 761.37,149.02 766.18,146.06 770.99,143.11 775.80,140.15 780.61,137.19 785.42,134.24 790.23,131.28 795.04,128.33 799.85,125.37 804.66,122.41 809.47,119.46 814.28,116.50 819.09,113.54 823.90,110.59 828.71,107.63 833.52,104.68 838.33,101.72 843.14,98.76 847.95,95.81 852.76,92.85 857.57,89.90 862.38,86.94 867.19,83.98 872.00,81.03"/>
<circle cx="722.75" cy="172.75" r="4.6" fill="#ffffff" stroke="#ff7f0e" stroke-width="2"/>
<text x="728.75" y="166.75" font-family="Arial, sans-serif" font-size="10" fill="#ff7f0e">min 806 ohm</text>
<polyline fill="none" stroke="#2ca02c" stroke-width="1.1" stroke-dasharray="6 4" points="492.00,328.97 496.81,326.02 501.62,323.06 506.43,320.10 511.24,317.15 516.05,314.19 520.86,311.24 525.67,308.28 530.48,305.32 535.29,302.37 540.10,299.41 544.91,296.46 549.72,293.50 554.53,290.54 559.34,287.59 564.15,284.63 568.96,281.67 573.77,278.72 578.58,275.76 583.39,272.81 588.20,269.85 593.01,266.89 597.82,263.94 602.63,260.98 607.44,258.03 612.25,255.07 617.06,252.11 621.87,249.16 626.68,246.20 631.49,243.25 636.30,240.29 641.11,237.33 645.92,234.38 650.73,231.42 655.54,228.47 660.35,225.51 665.16,222.55 669.97,219.60 674.78,216.64 679.59,213.69 684.41,210.73 689.22,207.77 694.03,204.82 698.84,201.86 703.65,198.91 708.46,195.95 713.27,192.99 718.08,190.04 722.89,187.08 727.70,184.13 732.51,181.17 737.32,178.21 742.13,175.26 746.94,172.30 751.75,169.34 756.56,166.39 761.37,163.43 766.18,160.48 770.99,157.52 775.80,154.56 780.61,151.61 785.42,148.65 790.23,145.70 795.04,142.74 799.85,139.78 804.66,136.83 809.47,133.87 814.28,130.92 819.09,127.96 823.90,125.00 828.71,122.05 833.52,119.09 838.33,116.14 843.14,113.18 847.95,110.22 852.76,107.27 857.57,104.31 862.38,101.36 867.19,98.40 872.00,95.44"/>
<circle cx="731.48" cy="181.80" r="4.6" fill="#ffffff" stroke="#2ca02c" stroke-width="2"/>
<text x="737.48" y="175.80" font-family="Arial, sans-serif" font-size="10" fill="#2ca02c">max 259 ohm</text>
<line x1="502.00" y1="80.00" x2="524.00" y2="80.00" stroke="#1f77b4" stroke-width="2"/>
<text x="530.00" y="84.00" font-family="Arial, sans-serif" font-size="11">typ</text>
<line x1="502.00" y1="97.00" x2="524.00" y2="97.00" stroke="#ff7f0e" stroke-width="2" stroke-dasharray="5 4"/>
<text x="530.00" y="101.00" font-family="Arial, sans-serif" font-size="11">min</text>
<line x1="502.00" y1="114.00" x2="524.00" y2="114.00" stroke="#2ca02c" stroke-width="2" stroke-dasharray="2 4"/>
<text x="530.00" y="118.00" font-family="Arial, sans-serif" font-size="11">max</text>
<text x="682.00" y="386.00" text-anchor="middle" font-family="Arial, sans-serif" font-size="11">Vcc-relative table voltage (V)</text>
<text transform="translate(442.00 205.00) rotate(-90)" text-anchor="middle" font-family="Arial, sans-serif" font-size="11">Current (mA)</text>
<rect x="72.00" y="418.00" width="800.00" height="144.00" fill="#ffffff" stroke="#c8c8c8"/>
<text x="82.00" y="436.00" font-family="Arial, sans-serif" font-size="12" font-weight="700">Operating-point summary</text>
<text x="82.00" y="454.00" font-family="Arial, sans-serif" font-size="10" font-weight="700" fill="#333">Table</text>
<text x="174.00" y="454.00" font-family="Arial, sans-serif" font-size="10" font-weight="700" fill="#333">Corner</text>
<text x="242.00" y="454.00" font-family="Arial, sans-serif" font-size="10" font-weight="700" fill="#333">Vout</text>
<text x="332.00" y="454.00" font-family="Arial, sans-serif" font-size="10" font-weight="700" fill="#333">Iop</text>
<text x="422.00" y="454.00" font-family="Arial, sans-serif" font-size="10" font-weight="700" fill="#333">Zout</text>
<text x="512.00" y="454.00" font-family="Arial, sans-serif" font-size="10" font-weight="700" fill="#333">Rseries</text>
<text x="82.00" y="473.00" font-family="Arial, sans-serif" font-size="10" fill="#1f77b4">pulldown</text>
<text x="174.00" y="473.00" font-family="Arial, sans-serif" font-size="10" fill="#1f77b4">typ</text>
<text x="242.00" y="473.00" font-family="Arial, sans-serif" font-size="10" fill="#1f77b4">1.098 V</text>
<text x="332.00" y="473.00" font-family="Arial, sans-serif" font-size="10" fill="#1f77b4">2 mA</text>
<text x="422.00" y="473.00" font-family="Arial, sans-serif" font-size="10" fill="#1f77b4">536 ohm</text>
<text x="512.00" y="473.00" font-family="Arial, sans-serif" font-size="10" fill="#1f77b4">-486 ohm</text>
<text x="82.00" y="492.00" font-family="Arial, sans-serif" font-size="10" fill="#ff7f0e">pulldown</text>
<text x="174.00" y="492.00" font-family="Arial, sans-serif" font-size="10" fill="#ff7f0e">min</text>
<text x="242.00" y="492.00" font-family="Arial, sans-serif" font-size="10" fill="#ff7f0e">1.028 V</text>
<text x="332.00" y="492.00" font-family="Arial, sans-serif" font-size="10" fill="#ff7f0e">1 mA</text>
<text x="422.00" y="492.00" font-family="Arial, sans-serif" font-size="10" fill="#ff7f0e">986 ohm</text>
<text x="512.00" y="492.00" font-family="Arial, sans-serif" font-size="10" fill="#ff7f0e">-936 ohm</text>
<text x="82.00" y="511.00" font-family="Arial, sans-serif" font-size="10" fill="#2ca02c">pulldown</text>
<text x="174.00" y="511.00" font-family="Arial, sans-serif" font-size="10" fill="#2ca02c">max</text>
<text x="242.00" y="511.00" font-family="Arial, sans-serif" font-size="10" fill="#2ca02c">1.138 V</text>
<text x="332.00" y="511.00" font-family="Arial, sans-serif" font-size="10" fill="#2ca02c">3.6 mA</text>
<text x="422.00" y="511.00" font-family="Arial, sans-serif" font-size="10" fill="#2ca02c">312 ohm</text>
<text x="512.00" y="511.00" font-family="Arial, sans-serif" font-size="10" fill="#2ca02c">-262 ohm</text>
<text x="82.00" y="530.00" font-family="Arial, sans-serif" font-size="10" fill="#1f77b4">pullup</text>
<text x="174.00" y="530.00" font-family="Arial, sans-serif" font-size="10" fill="#1f77b4">typ</text>
<text x="242.00" y="530.00" font-family="Arial, sans-serif" font-size="10" fill="#1f77b4">0.1191 V</text>
<text x="332.00" y="530.00" font-family="Arial, sans-serif" font-size="10" fill="#1f77b4">-2.4 mA</text>
<text x="422.00" y="530.00" font-family="Arial, sans-serif" font-size="10" fill="#1f77b4">454 ohm</text>
<text x="512.00" y="530.00" font-family="Arial, sans-serif" font-size="10" fill="#1f77b4">-404 ohm</text>
<text x="82.00" y="549.00" font-family="Arial, sans-serif" font-size="10" fill="#ff7f0e">pullup</text>
<text x="174.00" y="549.00" font-family="Arial, sans-serif" font-size="10" fill="#ff7f0e">min</text>
<text x="242.00" y="549.00" font-family="Arial, sans-serif" font-size="10" fill="#ff7f0e">0.06306 V</text>
<text x="332.00" y="549.00" font-family="Arial, sans-serif" font-size="10" fill="#ff7f0e">-1.3 mA</text>
<text x="422.00" y="549.00" font-family="Arial, sans-serif" font-size="10" fill="#ff7f0e">806 ohm</text>
<text x="512.00" y="549.00" font-family="Arial, sans-serif" font-size="10" fill="#ff7f0e">-756 ohm</text>
<text x="82.00" y="568.00" font-family="Arial, sans-serif" font-size="10" fill="#2ca02c">pullup</text>
<text x="174.00" y="568.00" font-family="Arial, sans-serif" font-size="10" fill="#2ca02c">max</text>
<text x="242.00" y="568.00" font-family="Arial, sans-serif" font-size="10" fill="#2ca02c">0.2138 V</text>
<text x="332.00" y="568.00" font-family="Arial, sans-serif" font-size="10" fill="#2ca02c">-4.3 mA</text>
<text x="422.00" y="568.00" font-family="Arial, sans-serif" font-size="10" fill="#2ca02c">259 ohm</text>
<text x="512.00" y="568.00" font-family="Arial, sans-serif" font-size="10" fill="#2ca02c">-209 ohm</text>
</svg>