<svg xmlns="http://www.w3.org/2000/svg" width="900" height="620" viewBox="0 0 900 620">
<rect width="100%" height="100%" fill="#ffffff"/>
<text x="72" y="26" font-family="Arial, sans-serif" font-size="16" font-weight="700">E34_GPIO_SPI_I3C_MST_1V1_00 Zout Load-Line Curves</text>
<text x="72" y="45" font-family="Arial, sans-serif" font-size="11" fill="#555">Rload=50 ohm; solid=device I-V, dashed=load line, circles=operating points</text>
<rect x="72.00" y="62.00" width="380.00" height="286.00" fill="#fbfbfb" stroke="#c8c8c8"/>
<text x="80.00" y="50.00" font-family="Arial, sans-serif" font-size="13" font-weight="700">[Pulldown] Rload to Vdd</text>
<line x1="72.00" y1="62.00" x2="72.00" y2="348.00" stroke="#ececec"/>
<text x="72.00" y="366.00" text-anchor="middle" font-family="Arial, sans-serif" font-size="10">-1.2</text>
<line x1="167.00" y1="62.00" x2="167.00" y2="348.00" stroke="#ececec"/>
<text x="167.00" y="366.00" text-anchor="middle" font-family="Arial, sans-serif" font-size="10">-0.341</text>
<line x1="262.00" y1="62.00" x2="262.00" y2="348.00" stroke="#ececec"/>
<text x="262.00" y="366.00" text-anchor="middle" font-family="Arial, sans-serif" font-size="10">0.55</text>
<line x1="357.00" y1="62.00" x2="357.00" y2="348.00" stroke="#ececec"/>
<text x="357.00" y="366.00" text-anchor="middle" font-family="Arial, sans-serif" font-size="10">1.4</text>
<line x1="452.00" y1="62.00" x2="452.00" y2="348.00" stroke="#ececec"/>
<text x="452.00" y="366.00" text-anchor="middle" font-family="Arial, sans-serif" font-size="10">2.3</text>
<line x1="72.00" y1="348.00" x2="452.00" y2="348.00" stroke="#ececec"/>
<text x="65.00" y="352.00" text-anchor="end" font-family="Arial, sans-serif" font-size="10">-33</text>
<line x1="72.00" y1="276.50" x2="452.00" y2="276.50" stroke="#ececec"/>
<text x="65.00" y="280.50" text-anchor="end" font-family="Arial, sans-serif" font-size="10">-11</text>
<line x1="72.00" y1="205.00" x2="452.00" y2="205.00" stroke="#ececec"/>
<text x="65.00" y="209.00" text-anchor="end" font-family="Arial, sans-serif" font-size="10">11</text>
<line x1="72.00" y1="133.50" x2="452.00" y2="133.50" stroke="#ececec"/>
<text x="65.00" y="137.50" text-anchor="end" font-family="Arial, sans-serif" font-size="10">33</text>
<line x1="72.00" y1="62.00" x2="452.00" y2="62.00" stroke="#ececec"/>
<text x="65.00" y="66.00" text-anchor="end" font-family="Arial, sans-serif" font-size="10">55</text>
<line x1="203.36" y1="62" x2="203.36" y2="348" stroke="#777" stroke-dasharray="4 4"/>
<line x1="72.0" y1="241.04" x2="452.0" y2="241.04" stroke="#777" stroke-dasharray="4 4"/>
<polyline fill="none" stroke="#1f77b4" stroke-width="1.8" points="86.07,282.96 91.41,282.96 96.74,282.96 103.13,282.96 108.46,282.96 110.60,282.96 111.66,282.96 112.73,282.96 114.86,282.96 115.93,282.90 116.99,282.80 118.06,282.66 119.13,282.49 120.19,282.30 121.26,282.09 122.33,281.86 123.39,281.63 124.46,281.38 125.52,281.11 127.66,280.56 129.79,279.96 137.25,277.47 138.32,277.07 140.45,276.22 141.52,275.78 142.58,275.32 144.72,274.37 146.85,273.37 147.91,272.85 150.05,271.78 151.11,271.22 152.18,270.66 156.44,268.30 162.84,264.54 169.24,260.62 174.57,257.34 179.90,254.08 185.23,250.89 190.56,247.81 195.89,244.86 202.29,241.56 203.36,241.04 207.62,239.04 212.95,236.77 218.29,234.77 223.62,233.04 224.68,232.73 225.75,232.43 226.81,232.14 227.88,231.86 228.95,231.60 230.01,231.34 231.08,231.10 232.15,230.87 233.21,230.65 234.28,230.45 235.34,230.25 240.68,229.43 246.01,228.86 251.34,228.48 256.67,228.23 263.07,228.01 268.40,227.86 273.73,227.73 279.06,227.61 284.39,227.50 289.72,227.40 290.79,227.38 296.12,227.28 297.19,227.26 298.25,227.24 301.45,227.19 306.78,227.10 308.91,227.06 312.11,227.01 317.44,226.93 320.64,226.88 322.77,226.85 329.17,226.76 332.37,226.71 334.50,226.68 339.83,226.61 345.16,226.53 350.50,226.46 355.83,226.39 362.22,226.29 367.56,226.17 372.89,225.99 378.22,225.70 383.55,225.28 388.88,224.69 395.28,223.73 400.61,222.69 405.94,221.45 411.27,220.00 416.60,218.36 421.93,216.53 428.33,214.11 433.66,211.91 437.93,210.05"/>
<polyline fill="none" stroke="#ff7f0e" stroke-width="1.8" stroke-dasharray="5 4" points="86.07,267.64 91.41,267.64 96.74,267.64 103.13,267.64 108.46,267.64 110.60,267.64 111.66,267.64 112.73,267.64 114.86,267.64 115.93,267.64 116.99,267.64 118.06,267.64 119.13,267.64 120.19,267.64 121.26,267.64 122.33,267.58 123.39,267.49 124.46,267.36 125.52,267.21 127.66,266.84 129.79,266.40 137.25,264.57 138.32,264.28 140.45,263.66 141.52,263.34 142.58,263.02 144.72,262.34 146.85,261.64 147.91,261.28 150.05,260.53 151.11,260.15 152.18,259.77 156.44,258.17 162.84,255.65 169.24,253.06 174.57,250.91 179.90,248.82 185.23,246.83 190.56,244.96 195.89,243.22 202.29,241.33 203.36,241.04 207.62,239.93 212.95,238.70 218.29,237.65 223.62,236.76 224.68,236.60 225.75,236.45 226.81,236.31 227.88,236.17 228.95,236.04 230.01,235.92 231.08,235.81 232.15,235.70 233.21,235.59 234.28,235.50 235.34,235.41 240.68,235.04 246.01,234.81 251.34,234.66 256.67,234.56 263.07,234.47 268.40,234.40 273.73,234.34 279.06,234.28 284.39,234.23 289.72,234.18 290.79,234.17 296.12,234.12 297.19,234.11 298.25,234.10 301.45,234.07 306.78,234.03 308.91,234.01 312.11,233.99 317.44,233.95 320.64,233.92 322.77,233.91 329.17,233.86 332.37,233.84 334.50,233.82 339.83,233.77 345.16,233.72 350.50,233.63 355.83,233.51 362.22,233.27 367.56,232.98 372.89,232.59 378.22,232.08 383.55,231.44 388.88,230.68 395.28,229.59 400.61,228.53 405.94,227.35 411.27,226.03 416.60,224.60 421.93,223.16 428.33,221.43 433.66,219.99 437.93,218.83"/>
<polyline fill="none" stroke="#2ca02c" stroke-width="1.8" stroke-dasharray="2 4" points="86.07,298.62 91.41,298.62 96.74,298.62 103.13,298.62 108.46,298.62 110.60,298.62 111.66,298.57 112.73,298.46 114.86,298.16 115.93,297.98 116.99,297.79 118.06,297.59 119.13,297.38 120.19,297.16 121.26,296.92 122.33,296.68 123.39,296.43 124.46,296.16 125.52,295.89 127.66,295.31 129.79,294.67 137.25,291.97 138.32,291.51 140.45,290.54 141.52,290.03 142.58,289.50 144.72,288.37 146.85,287.16 147.91,286.52 150.05,285.19 151.11,284.49 152.18,283.78 156.44,280.76 162.84,275.79 169.24,270.49 174.57,265.93 179.90,261.28 185.23,256.58 190.56,251.89 195.89,247.26 202.29,241.90 203.36,241.04 207.62,237.69 212.95,233.79 218.29,230.26 223.62,227.15 224.68,226.58 225.75,226.03 226.81,225.50 227.88,224.98 228.95,224.48 230.01,224.01 231.08,223.55 232.15,223.11 233.21,222.68 234.28,222.28 235.34,221.89 240.68,220.21 246.01,218.95 251.34,218.04 256.67,217.41 263.07,216.88 268.40,216.56 273.73,216.29 279.06,216.06 284.39,215.86 289.72,215.67 290.79,215.63 296.12,215.46 297.19,215.43 298.25,215.39 301.45,215.30 306.78,215.14 308.91,215.08 312.11,214.99 317.44,214.85 320.64,214.76 322.77,214.71 329.17,214.55 332.37,214.47 334.50,214.42 339.83,214.29 345.16,214.16 350.50,214.04 355.83,213.92 362.22,213.78 367.56,213.66 372.89,213.54 378.22,213.39 383.55,213.18 388.88,212.84 395.28,212.19 400.61,211.36 405.94,210.24 411.27,208.80 416.60,207.05 421.93,205.01 428.33,202.23 433.66,199.67 437.93,197.48"/>
<polyline fill="none" stroke="#1f77b4" stroke-width="1.1" stroke-dasharray="6 4" points="72.00,88.24 76.81,91.19 81.62,94.15 86.43,97.10 91.24,100.06 96.05,103.02 100.86,105.97 105.67,108.93 110.48,111.88 115.29,114.84 120.10,117.80 124.91,120.75 129.72,123.71 134.53,126.66 139.34,129.62 144.15,132.58 148.96,135.53 153.77,138.49 158.58,141.44 163.39,144.40 168.20,147.36 173.01,150.31 177.82,153.27 182.63,156.23 187.44,159.18 192.25,162.14 197.06,165.09 201.87,168.05 206.68,171.01 211.49,173.96 216.30,176.92 221.11,179.87 225.92,182.83 230.73,185.79 235.54,188.74 240.35,191.70 245.16,194.65 249.97,197.61 254.78,200.57 259.59,203.52 264.41,206.48 269.22,209.43 274.03,212.39 278.84,215.35 283.65,218.30 288.46,221.26 293.27,224.21 298.08,227.17 302.89,230.13 307.70,233.08 312.51,236.04 317.32,238.99 322.13,241.95 326.94,244.91 331.75,247.86 336.56,250.82 341.37,253.77 346.18,256.73 350.99,259.69 355.80,262.64 360.61,265.60 365.42,268.56 370.23,271.51 375.04,274.47 379.85,277.42 384.66,280.38 389.47,283.34 394.28,286.29 399.09,289.25 403.90,292.20 408.71,295.16 413.52,298.12 418.33,301.07 423.14,304.03 427.95,306.98 432.76,309.94 437.57,312.90 442.38,315.85 447.19,318.81 452.00,321.76"/>
<circle cx="298.19" cy="227.24" r="4.6" fill="#ffffff" stroke="#1f77b4" stroke-width="2"/>
<text x="304.19" y="221.24" font-family="Arial, sans-serif" font-size="10" fill="#1f77b4">typ 211 ohm</text>
<polyline fill="none" stroke="#ff7f0e" stroke-width="1.1" stroke-dasharray="6 4" points="72.00,95.44 76.81,98.40 81.62,101.36 86.43,104.31 91.24,107.27 96.05,110.22 100.86,113.18 105.67,116.14 110.48,119.09 115.29,122.05 120.10,125.00 124.91,127.96 129.72,130.92 134.53,133.87 139.34,136.83 144.15,139.78 148.96,142.74 153.77,145.70 158.58,148.65 163.39,151.61 168.20,154.56 173.01,157.52 177.82,160.48 182.63,163.43 187.44,166.39 192.25,169.34 197.06,172.30 201.87,175.26 206.68,178.21 211.49,181.17 216.30,184.13 221.11,187.08 225.92,190.04 230.73,192.99 235.54,195.95 240.35,198.91 245.16,201.86 249.97,204.82 254.78,207.77 259.59,210.73 264.41,213.69 269.22,216.64 274.03,219.60 278.84,222.55 283.65,225.51 288.46,228.47 293.27,231.42 298.08,234.38 302.89,237.33 307.70,240.29 312.51,243.25 317.32,246.20 322.13,249.16 326.94,252.11 331.75,255.07 336.56,258.03 341.37,260.98 346.18,263.94 350.99,266.89 355.80,269.85 360.61,272.81 365.42,275.76 370.23,278.72 375.04,281.67 379.85,284.63 384.66,287.59 389.47,290.54 394.28,293.50 399.09,296.46 403.90,299.41 408.71,302.37 413.52,305.32 418.33,308.28 423.14,311.24 427.95,314.19 432.76,317.15 437.57,320.10 442.38,323.06 447.19,326.02 452.00,328.97"/>
<circle cx="297.64" cy="234.11" r="4.6" fill="#ffffff" stroke="#ff7f0e" stroke-width="2"/>
<text x="303.64" y="228.11" font-family="Arial, sans-serif" font-size="10" fill="#ff7f0e">min 418 ohm</text>
<polyline fill="none" stroke="#2ca02c" stroke-width="1.1" stroke-dasharray="6 4" points="72.00,81.03 76.81,83.98 81.62,86.94 86.43,89.90 91.24,92.85 96.05,95.81 100.86,98.76 105.67,101.72 110.48,104.68 115.29,107.63 120.10,110.59 124.91,113.54 129.72,116.50 134.53,119.46 139.34,122.41 144.15,125.37 148.96,128.33 153.77,131.28 158.58,134.24 163.39,137.19 168.20,140.15 173.01,143.11 177.82,146.06 182.63,149.02 187.44,151.97 192.25,154.93 197.06,157.89 201.87,160.84 206.68,163.80 211.49,166.75 216.30,169.71 221.11,172.67 225.92,175.62 230.73,178.58 235.54,181.53 240.35,184.49 245.16,187.45 249.97,190.40 254.78,193.36 259.59,196.31 264.41,199.27 269.22,202.23 274.03,205.18 278.84,208.14 283.65,211.09 288.46,214.05 293.27,217.01 298.08,219.96 302.89,222.92 307.70,225.87 312.51,228.83 317.32,231.79 322.13,234.74 326.94,237.70 331.75,240.66 336.56,243.61 341.37,246.57 346.18,249.52 350.99,252.48 355.80,255.44 360.61,258.39 365.42,261.35 370.23,264.30 375.04,267.26 379.85,270.22 384.66,273.17 389.47,276.13 394.28,279.08 399.09,282.04 403.90,285.00 408.71,287.95 413.52,290.91 418.33,293.86 423.14,296.82 427.95,299.78 432.76,302.73 437.57,305.69 442.38,308.64 447.19,311.60 452.00,314.56"/>
<circle cx="291.02" cy="215.63" r="4.6" fill="#ffffff" stroke="#2ca02c" stroke-width="2"/>
<text x="297.02" y="209.63" font-family="Arial, sans-serif" font-size="10" fill="#2ca02c">max 106 ohm</text>
<line x1="82.00" y1="80.00" x2="104.00" y2="80.00" stroke="#1f77b4" stroke-width="2"/>
<text x="110.00" y="84.00" font-family="Arial, sans-serif" font-size="11">typ</text>
<line x1="82.00" y1="97.00" x2="104.00" y2="97.00" stroke="#ff7f0e" stroke-width="2" stroke-dasharray="5 4"/>
<text x="110.00" y="101.00" font-family="Arial, sans-serif" font-size="11">min</text>
<line x1="82.00" y1="114.00" x2="104.00" y2="114.00" stroke="#2ca02c" stroke-width="2" stroke-dasharray="2 4"/>
<text x="110.00" y="118.00" font-family="Arial, sans-serif" font-size="11">max</text>
<text x="262.00" y="386.00" text-anchor="middle" font-family="Arial, sans-serif" font-size="11">Output voltage (V)</text>
<text transform="translate(22.00 205.00) rotate(-90)" text-anchor="middle" font-family="Arial, sans-serif" font-size="11">Current (mA)</text>
<rect x="492.00" y="62.00" width="380.00" height="286.00" fill="#fbfbfb" stroke="#c8c8c8"/>
<text x="500.00" y="50.00" font-family="Arial, sans-serif" font-size="13" font-weight="700">[Pullup] Rload to GND</text>
<line x1="492.00" y1="62.00" x2="492.00" y2="348.00" stroke="#ececec"/>
<text x="492.00" y="366.00" text-anchor="middle" font-family="Arial, sans-serif" font-size="10">-1.2</text>
<line x1="587.00" y1="62.00" x2="587.00" y2="348.00" stroke="#ececec"/>
<text x="587.00" y="366.00" text-anchor="middle" font-family="Arial, sans-serif" font-size="10">-0.341</text>
<line x1="682.00" y1="62.00" x2="682.00" y2="348.00" stroke="#ececec"/>
<text x="682.00" y="366.00" text-anchor="middle" font-family="Arial, sans-serif" font-size="10">0.55</text>
<line x1="777.00" y1="62.00" x2="777.00" y2="348.00" stroke="#ececec"/>
<text x="777.00" y="366.00" text-anchor="middle" font-family="Arial, sans-serif" font-size="10">1.4</text>
<line x1="872.00" y1="62.00" x2="872.00" y2="348.00" stroke="#ececec"/>
<text x="872.00" y="366.00" text-anchor="middle" font-family="Arial, sans-serif" font-size="10">2.3</text>
<line x1="492.00" y1="348.00" x2="872.00" y2="348.00" stroke="#ececec"/>
<text x="485.00" y="352.00" text-anchor="end" font-family="Arial, sans-serif" font-size="10">-55</text>
<line x1="492.00" y1="276.50" x2="872.00" y2="276.50" stroke="#ececec"/>
<text x="485.00" y="280.50" text-anchor="end" font-family="Arial, sans-serif" font-size="10">-32</text>
<line x1="492.00" y1="205.00" x2="872.00" y2="205.00" stroke="#ececec"/>
<text x="485.00" y="209.00" text-anchor="end" font-family="Arial, sans-serif" font-size="10">-10</text>
<line x1="492.00" y1="133.50" x2="872.00" y2="133.50" stroke="#ececec"/>
<text x="485.00" y="137.50" text-anchor="end" font-family="Arial, sans-serif" font-size="10">12</text>
<line x1="492.00" y1="62.00" x2="872.00" y2="62.00" stroke="#ececec"/>
<text x="485.00" y="66.00" text-anchor="end" font-family="Arial, sans-serif" font-size="10">35</text>
<line x1="623.36" y1="62" x2="623.36" y2="348" stroke="#777" stroke-dasharray="4 4"/>
<line x1="492.0" y1="172.72" x2="872.0" y2="172.72" stroke="#777" stroke-dasharray="4 4"/>
<polyline fill="none" stroke="#1f77b4" stroke-width="1.8" points="506.07,109.29 511.41,112.87 516.74,116.40 523.13,120.56 528.46,123.96 533.80,127.30 539.13,130.58 544.46,133.79 549.79,136.93 556.19,140.60 561.52,143.58 566.85,146.49 572.18,149.32 577.51,152.08 582.84,154.77 589.24,157.90 594.57,160.44 599.90,162.90 605.23,165.27 610.56,167.56 613.76,168.89 614.83,169.32 615.89,169.75 622.29,172.31 623.36,172.72 627.62,174.29 631.89,175.72 632.95,176.05 634.02,176.38 635.09,176.70 638.29,177.61 643.62,178.99 648.95,180.16 655.34,181.30 660.68,182.04 666.01,182.58 671.34,182.98 676.67,183.27 683.07,183.53 688.40,183.71 693.73,183.86 699.06,183.86 702.26,183.86 704.39,183.86 709.72,183.86 716.12,183.86 717.19,183.86 718.25,183.86 721.45,183.86 722.52,183.86 726.78,183.86 728.91,183.86 732.11,183.86 737.44,183.86 740.64,183.86 742.77,183.86 749.17,183.86 752.37,183.86 754.50,183.86 760.90,183.86 761.97,184.18 765.16,186.07 770.50,189.25 776.89,193.10 777.96,193.74 782.22,196.26 787.56,199.30 792.89,202.15 798.22,204.74 799.28,205.23 801.42,206.15 803.55,207.03 804.62,207.45 805.68,207.86 807.81,208.63 808.88,209.00 811.01,209.70 812.08,210.04 813.14,210.36 814.21,210.67 815.28,210.97 817.41,211.53 818.48,211.80 820.61,212.30 821.67,212.53 823.81,212.96 824.87,213.14 825.94,213.30 827.01,213.44 828.07,213.54 829.14,213.60 831.27,213.60 836.60,213.60 840.87,213.60 843.00,213.60 844.07,213.60 845.13,213.60 848.33,213.60 853.66,213.60 857.93,213.60"/>
<polyline fill="none" stroke="#ff7f0e" stroke-width="1.8" stroke-dasharray="5 4" points="506.07,128.40 511.41,131.07 516.74,133.74 523.13,136.91 528.46,139.48 533.80,141.97 539.13,144.40 544.46,146.75 549.79,149.02 556.19,151.65 561.52,153.75 566.85,155.78 572.18,157.73 577.51,159.60 582.84,161.39 589.24,163.45 594.57,165.09 599.90,166.65 605.23,168.13 610.56,169.55 613.76,170.37 614.83,170.63 615.89,170.90 622.29,172.47 623.36,172.72 627.62,173.66 631.89,174.50 632.95,174.70 634.02,174.89 635.09,175.07 638.29,175.58 643.62,176.33 648.95,176.94 655.34,177.51 660.68,177.84 666.01,178.07 671.34,178.23 676.67,178.34 683.07,178.45 688.40,178.52 693.73,178.59 699.06,178.66 702.26,178.69 704.39,178.71 709.72,178.77 716.12,178.83 717.19,178.84 718.25,178.85 721.45,178.87 722.52,178.88 726.78,178.92 728.91,178.94 732.11,178.96 737.44,179.00 740.64,179.03 742.77,179.04 749.17,179.09 752.37,179.11 754.50,179.12 760.90,179.16 761.97,179.17 765.16,179.19 770.50,179.23 776.89,179.26 777.96,179.27 782.22,179.30 787.56,179.33 792.89,179.36 798.22,179.39 799.28,179.39 801.42,179.41 803.55,179.42 804.62,179.42 805.68,179.42 807.81,179.44 808.88,179.44 811.01,179.46 812.08,179.46 813.14,179.47 814.21,179.49 815.28,179.49 817.41,179.49 818.48,179.49 820.61,179.49 821.67,179.49 823.81,179.49 824.87,179.49 825.94,179.49 827.01,179.49 828.07,179.49 829.14,179.49 831.27,179.49 836.60,179.49 840.87,179.49 843.00,179.49 844.07,179.49 845.13,179.49 848.33,179.49 853.66,179.49 857.93,179.49"/>
<polyline fill="none" stroke="#2ca02c" stroke-width="1.8" stroke-dasharray="2 4" points="506.07,89.68 511.41,93.81 516.74,97.93 523.13,102.82 528.46,106.87 533.80,110.89 539.13,114.86 544.46,118.79 549.79,122.68 556.19,127.28 561.52,131.08 566.85,134.83 572.18,138.55 577.51,142.25 582.84,145.93 589.24,150.31 594.57,153.93 599.90,157.53 605.23,161.09 610.56,164.54 613.76,166.50 614.83,167.18 615.89,167.88 622.29,172.05 623.36,172.72 627.62,175.31 631.89,177.72 632.95,178.29 634.02,178.83 635.09,179.35 638.29,180.83 643.62,183.18 648.95,185.26 655.34,187.38 660.68,188.84 666.01,190.02 671.34,190.95 676.67,191.67 683.07,192.34 688.40,192.77 693.73,193.13 699.06,193.44 702.26,193.61 704.39,193.61 709.72,193.61 716.12,193.61 717.19,193.61 718.25,193.61 721.45,193.61 722.52,193.61 726.78,193.61 728.91,193.61 732.11,193.61 737.44,193.61 740.64,193.61 742.77,193.61 749.17,193.61 752.37,193.61 754.50,193.61 760.90,193.61 761.97,193.61 765.16,193.61 770.50,193.61 776.89,193.61 777.96,194.28 782.22,197.89 787.56,202.32 792.89,206.61 798.22,210.67 799.28,211.45 801.42,212.95 803.55,214.40 804.62,215.10 805.68,215.77 807.81,217.07 808.88,217.69 811.01,218.87 812.08,219.43 813.14,219.97 814.21,220.49 815.28,220.99 817.41,221.94 818.48,222.38 820.61,223.22 821.67,223.61 823.81,224.34 824.87,224.69 825.94,225.02 827.01,225.34 828.07,225.64 829.14,225.93 831.27,226.48 836.60,227.66 840.87,228.42 843.00,228.71 844.07,228.82 845.13,228.88 848.33,228.88 853.66,228.88 857.93,228.88"/>
<polyline fill="none" stroke="#1f77b4" stroke-width="1.1" stroke-dasharray="6 4" points="492.00,321.73 496.81,318.85 501.62,315.96 506.43,313.08 511.24,310.20 516.05,307.31 520.86,304.43 525.67,301.55 530.48,298.67 535.29,295.78 540.10,292.90 544.91,290.02 549.72,287.14 554.53,284.25 559.34,281.37 564.15,278.49 568.96,275.61 573.77,272.72 578.58,269.84 583.39,266.96 588.20,264.07 593.01,261.19 597.82,258.31 602.63,255.43 607.44,252.54 612.25,249.66 617.06,246.78 621.87,243.90 626.68,241.01 631.49,238.13 636.30,235.25 641.11,232.37 645.92,229.48 650.73,226.60 655.54,223.72 660.35,220.83 665.16,217.95 669.97,215.07 674.78,212.19 679.59,209.30 684.41,206.42 689.22,203.54 694.03,200.66 698.84,197.77 703.65,194.89 708.46,192.01 713.27,189.13 718.08,186.24 722.89,183.36 727.70,180.48 732.51,177.59 737.32,174.71 742.13,171.83 746.94,168.95 751.75,166.06 756.56,163.18 761.37,160.30 766.18,157.42 770.99,154.53 775.80,151.65 780.61,148.77 785.42,145.89 790.23,143.00 795.04,140.12 799.85,137.24 804.66,134.35 809.47,131.47 814.28,128.59 819.09,125.71 823.90,122.82 828.71,119.94 833.52,117.06 838.33,114.18 843.14,111.29 847.95,108.41 852.76,105.53 857.57,102.64 862.38,99.76 867.19,96.88 872.00,94.00"/>
<circle cx="722.05" cy="183.86" r="4.6" fill="#ffffff" stroke="#1f77b4" stroke-width="2"/>
<text x="728.05" y="177.86" font-family="Arial, sans-serif" font-size="10" fill="#1f77b4">typ 265 ohm</text>
<polyline fill="none" stroke="#ff7f0e" stroke-width="1.1" stroke-dasharray="6 4" points="492.00,314.70 496.81,311.82 501.62,308.93 506.43,306.05 511.24,303.17 516.05,300.29 520.86,297.40 525.67,294.52 530.48,291.64 535.29,288.76 540.10,285.87 544.91,282.99 549.72,280.11 554.53,277.22 559.34,274.34 564.15,271.46 568.96,268.58 573.77,265.69 578.58,262.81 583.39,259.93 588.20,257.05 593.01,254.16 597.82,251.28 602.63,248.40 607.44,245.52 612.25,242.63 617.06,239.75 621.87,236.87 626.68,233.98 631.49,231.10 636.30,228.22 641.11,225.34 645.92,222.45 650.73,219.57 655.54,216.69 660.35,213.81 665.16,210.92 669.97,208.04 674.78,205.16 679.59,202.28 684.41,199.39 689.22,196.51 694.03,193.63 698.84,190.74 703.65,187.86 708.46,184.98 713.27,182.10 718.08,179.21 722.89,176.33 727.70,173.45 732.51,170.57 737.32,167.68 742.13,164.80 746.94,161.92 751.75,159.04 756.56,156.15 761.37,153.27 766.18,150.39 770.99,147.50 775.80,144.62 780.61,141.74 785.42,138.86 790.23,135.97 795.04,133.09 799.85,130.21 804.66,127.33 809.47,124.44 814.28,121.56 819.09,118.68 823.90,115.79 828.71,112.91 833.52,110.03 838.33,107.15 843.14,104.26 847.95,101.38 852.76,98.50 857.57,95.62 862.38,92.73 867.19,89.85 872.00,86.97"/>
<circle cx="718.68" cy="178.85" r="4.6" fill="#ffffff" stroke="#ff7f0e" stroke-width="2"/>
<text x="724.68" y="172.85" font-family="Arial, sans-serif" font-size="10" fill="#ff7f0e">min 466 ohm</text>
<polyline fill="none" stroke="#2ca02c" stroke-width="1.1" stroke-dasharray="6 4" points="492.00,328.76 496.81,325.87 501.62,322.99 506.43,320.11 511.24,317.23 516.05,314.34 520.86,311.46 525.67,308.58 530.48,305.70 535.29,302.81 540.10,299.93 544.91,297.05 549.72,294.16 554.53,291.28 559.34,288.40 564.15,285.52 568.96,282.63 573.77,279.75 578.58,276.87 583.39,273.99 588.20,271.10 593.01,268.22 597.82,265.34 602.63,262.46 607.44,259.57 612.25,256.69 617.06,253.81 621.87,250.92 626.68,248.04 631.49,245.16 636.30,242.28 641.11,239.39 645.92,236.51 650.73,233.63 655.54,230.75 660.35,227.86 665.16,224.98 669.97,222.10 674.78,219.22 679.59,216.33 684.41,213.45 689.22,210.57 694.03,207.68 698.84,204.80 703.65,201.92 708.46,199.04 713.27,196.15 718.08,193.27 722.89,190.39 727.70,187.51 732.51,184.62 737.32,181.74 742.13,178.86 746.94,175.98 751.75,173.09 756.56,170.21 761.37,167.33 766.18,164.44 770.99,161.56 775.80,158.68 780.61,155.80 785.42,152.91 790.23,150.03 795.04,147.15 799.85,144.27 804.66,141.38 809.47,138.50 814.28,135.62 819.09,132.74 823.90,129.85 828.71,126.97 833.52,124.09 838.33,121.20 843.14,118.32 847.95,115.44 852.76,112.56 857.57,109.67 862.38,106.79 867.19,103.91 872.00,101.03"/>
<circle cx="717.51" cy="193.61" r="4.6" fill="#ffffff" stroke="#2ca02c" stroke-width="2"/>
<text x="723.51" y="187.61" font-family="Arial, sans-serif" font-size="10" fill="#2ca02c">max 135 ohm</text>
<line x1="502.00" y1="80.00" x2="524.00" y2="80.00" stroke="#1f77b4" stroke-width="2"/>
<text x="530.00" y="84.00" font-family="Arial, sans-serif" font-size="11">typ</text>
<line x1="502.00" y1="97.00" x2="524.00" y2="97.00" stroke="#ff7f0e" stroke-width="2" stroke-dasharray="5 4"/>
<text x="530.00" y="101.00" font-family="Arial, sans-serif" font-size="11">min</text>
<line x1="502.00" y1="114.00" x2="524.00" y2="114.00" stroke="#2ca02c" stroke-width="2" stroke-dasharray="2 4"/>
<text x="530.00" y="118.00" font-family="Arial, sans-serif" font-size="11">max</text>
<text x="682.00" y="386.00" text-anchor="middle" font-family="Arial, sans-serif" font-size="11">Vcc-relative table voltage (V)</text>
<text transform="translate(442.00 205.00) rotate(-90)" text-anchor="middle" font-family="Arial, sans-serif" font-size="11">Current (mA)</text>
<rect x="72.00" y="418.00" width="800.00" height="144.00" fill="#ffffff" stroke="#c8c8c8"/>
<text x="82.00" y="436.00" font-family="Arial, sans-serif" font-size="12" font-weight="700">Operating-point summary</text>
<text x="82.00" y="454.00" font-family="Arial, sans-serif" font-size="10" font-weight="700" fill="#333">Table</text>
<text x="174.00" y="454.00" font-family="Arial, sans-serif" font-size="10" font-weight="700" fill="#333">Corner</text>
<text x="242.00" y="454.00" font-family="Arial, sans-serif" font-size="10" font-weight="700" fill="#333">Vout</text>
<text x="332.00" y="454.00" font-family="Arial, sans-serif" font-size="10" font-weight="700" fill="#333">Iop</text>
<text x="422.00" y="454.00" font-family="Arial, sans-serif" font-size="10" font-weight="700" fill="#333">Zout</text>
<text x="512.00" y="454.00" font-family="Arial, sans-serif" font-size="10" font-weight="700" fill="#333">Rseries</text>
<text x="82.00" y="473.00" font-family="Arial, sans-serif" font-size="10" fill="#1f77b4">pulldown</text>
<text x="174.00" y="473.00" font-family="Arial, sans-serif" font-size="10" fill="#1f77b4">typ</text>
<text x="242.00" y="473.00" font-family="Arial, sans-serif" font-size="10" fill="#1f77b4">0.8894 V</text>
<text x="332.00" y="473.00" font-family="Arial, sans-serif" font-size="10" fill="#1f77b4">4.2 mA</text>
<text x="422.00" y="473.00" font-family="Arial, sans-serif" font-size="10" fill="#1f77b4">211 ohm</text>
<text x="512.00" y="473.00" font-family="Arial, sans-serif" font-size="10" fill="#1f77b4">-161 ohm</text>
<text x="82.00" y="492.00" font-family="Arial, sans-serif" font-size="10" fill="#ff7f0e">pulldown</text>
<text x="174.00" y="492.00" font-family="Arial, sans-serif" font-size="10" fill="#ff7f0e">min</text>
<text x="242.00" y="492.00" font-family="Arial, sans-serif" font-size="10" fill="#ff7f0e">0.8842 V</text>
<text x="332.00" y="492.00" font-family="Arial, sans-serif" font-size="10" fill="#ff7f0e">2.1 mA</text>
<text x="422.00" y="492.00" font-family="Arial, sans-serif" font-size="10" fill="#ff7f0e">418 ohm</text>
<text x="512.00" y="492.00" font-family="Arial, sans-serif" font-size="10" fill="#ff7f0e">-368 ohm</text>
<text x="82.00" y="511.00" font-family="Arial, sans-serif" font-size="10" fill="#2ca02c">pulldown</text>
<text x="174.00" y="511.00" font-family="Arial, sans-serif" font-size="10" fill="#2ca02c">max</text>
<text x="242.00" y="511.00" font-family="Arial, sans-serif" font-size="10" fill="#2ca02c">0.8222 V</text>
<text x="332.00" y="511.00" font-family="Arial, sans-serif" font-size="10" fill="#2ca02c">7.8 mA</text>
<text x="422.00" y="511.00" font-family="Arial, sans-serif" font-size="10" fill="#2ca02c">106 ohm</text>
<text x="512.00" y="511.00" font-family="Arial, sans-serif" font-size="10" fill="#2ca02c">-56 ohm</text>
<text x="82.00" y="530.00" font-family="Arial, sans-serif" font-size="10" fill="#1f77b4">pullup</text>
<text x="174.00" y="530.00" font-family="Arial, sans-serif" font-size="10" fill="#1f77b4">typ</text>
<text x="242.00" y="530.00" font-family="Arial, sans-serif" font-size="10" fill="#1f77b4">0.1744 V</text>
<text x="332.00" y="530.00" font-family="Arial, sans-serif" font-size="10" fill="#1f77b4">-3.5 mA</text>
<text x="422.00" y="530.00" font-family="Arial, sans-serif" font-size="10" fill="#1f77b4">265 ohm</text>
<text x="512.00" y="530.00" font-family="Arial, sans-serif" font-size="10" fill="#1f77b4">-215 ohm</text>
<text x="82.00" y="549.00" font-family="Arial, sans-serif" font-size="10" fill="#ff7f0e">pullup</text>
<text x="174.00" y="549.00" font-family="Arial, sans-serif" font-size="10" fill="#ff7f0e">min</text>
<text x="242.00" y="549.00" font-family="Arial, sans-serif" font-size="10" fill="#ff7f0e">0.09595 V</text>
<text x="332.00" y="549.00" font-family="Arial, sans-serif" font-size="10" fill="#ff7f0e">-1.9 mA</text>
<text x="422.00" y="549.00" font-family="Arial, sans-serif" font-size="10" fill="#ff7f0e">466 ohm</text>
<text x="512.00" y="549.00" font-family="Arial, sans-serif" font-size="10" fill="#ff7f0e">-416 ohm</text>
<text x="82.00" y="568.00" font-family="Arial, sans-serif" font-size="10" fill="#2ca02c">pullup</text>
<text x="174.00" y="568.00" font-family="Arial, sans-serif" font-size="10" fill="#2ca02c">max</text>
<text x="242.00" y="568.00" font-family="Arial, sans-serif" font-size="10" fill="#2ca02c">0.3269 V</text>
<text x="332.00" y="568.00" font-family="Arial, sans-serif" font-size="10" fill="#2ca02c">-6.5 mA</text>
<text x="422.00" y="568.00" font-family="Arial, sans-serif" font-size="10" fill="#2ca02c">135 ohm</text>
<text x="512.00" y="568.00" font-family="Arial, sans-serif" font-size="10" fill="#2ca02c">-85.1 ohm</text>
</svg>