<svg xmlns="http://www.w3.org/2000/svg" width="900" height="620" viewBox="0 0 900 620">
<rect width="100%" height="100%" fill="#ffffff"/>
<text x="72" y="26" font-family="Arial, sans-serif" font-size="16" font-weight="700">E34_GPIO_COMBO_1V1 Zout Load-Line Curves</text>
<text x="72" y="45" font-family="Arial, sans-serif" font-size="11" fill="#555">Rload=50 ohm; solid=device I-V, dashed=load line, circles=operating points</text>
<rect x="72.00" y="62.00" width="380.00" height="286.00" fill="#fbfbfb" stroke="#c8c8c8"/>
<text x="80.00" y="50.00" font-family="Arial, sans-serif" font-size="13" font-weight="700">[Pulldown] Rload to Vdd</text>
<line x1="72.00" y1="62.00" x2="72.00" y2="348.00" stroke="#ececec"/>
<text x="72.00" y="366.00" text-anchor="middle" font-family="Arial, sans-serif" font-size="10">-1.2</text>
<line x1="167.00" y1="62.00" x2="167.00" y2="348.00" stroke="#ececec"/>
<text x="167.00" y="366.00" text-anchor="middle" font-family="Arial, sans-serif" font-size="10">-0.341</text>
<line x1="262.00" y1="62.00" x2="262.00" y2="348.00" stroke="#ececec"/>
<text x="262.00" y="366.00" text-anchor="middle" font-family="Arial, sans-serif" font-size="10">0.55</text>
<line x1="357.00" y1="62.00" x2="357.00" y2="348.00" stroke="#ececec"/>
<text x="357.00" y="366.00" text-anchor="middle" font-family="Arial, sans-serif" font-size="10">1.4</text>
<line x1="452.00" y1="62.00" x2="452.00" y2="348.00" stroke="#ececec"/>
<text x="452.00" y="366.00" text-anchor="middle" font-family="Arial, sans-serif" font-size="10">2.3</text>
<line x1="72.00" y1="348.00" x2="452.00" y2="348.00" stroke="#ececec"/>
<text x="65.00" y="352.00" text-anchor="end" font-family="Arial, sans-serif" font-size="10">-33</text>
<line x1="72.00" y1="276.50" x2="452.00" y2="276.50" stroke="#ececec"/>
<text x="65.00" y="280.50" text-anchor="end" font-family="Arial, sans-serif" font-size="10">-11</text>
<line x1="72.00" y1="205.00" x2="452.00" y2="205.00" stroke="#ececec"/>
<text x="65.00" y="209.00" text-anchor="end" font-family="Arial, sans-serif" font-size="10">11</text>
<line x1="72.00" y1="133.50" x2="452.00" y2="133.50" stroke="#ececec"/>
<text x="65.00" y="137.50" text-anchor="end" font-family="Arial, sans-serif" font-size="10">33</text>
<line x1="72.00" y1="62.00" x2="452.00" y2="62.00" stroke="#ececec"/>
<text x="65.00" y="66.00" text-anchor="end" font-family="Arial, sans-serif" font-size="10">55</text>
<line x1="203.36" y1="62" x2="203.36" y2="348" stroke="#777" stroke-dasharray="4 4"/>
<line x1="72.0" y1="241.04" x2="452.0" y2="241.04" stroke="#777" stroke-dasharray="4 4"/>
<polyline fill="none" stroke="#1f77b4" stroke-width="1.8" points="86.07,250.04 91.41,250.04 96.74,250.04 103.13,250.04 108.46,250.04 113.80,250.04 119.13,250.04 123.39,250.04 124.46,250.03 125.52,250.01 126.59,249.99 127.66,249.95 128.72,249.91 129.79,249.87 130.86,249.82 131.92,249.76 132.99,249.70 134.05,249.64 135.12,249.57 136.19,249.49 137.25,249.42 138.32,249.34 139.38,249.25 140.45,249.17 141.52,249.08 142.58,248.98 143.65,248.88 144.72,248.78 145.78,248.67 146.85,248.56 147.91,248.45 148.98,248.33 150.05,248.21 151.11,248.09 152.18,247.97 153.25,247.84 154.31,247.70 155.38,247.57 157.51,247.29 162.84,246.55 169.24,245.64 174.57,244.86 179.90,244.11 185.23,243.37 190.56,242.65 195.89,241.96 202.29,241.17 203.36,241.04 207.62,240.54 212.95,239.96 218.29,239.41 223.62,238.91 228.95,238.45 235.34,237.97 237.48,237.83 240.68,237.64 244.94,237.41 246.01,237.36 249.21,237.22 251.34,237.14 256.67,236.98 263.07,236.86 268.40,236.80 273.73,236.74 279.06,236.70 284.39,236.66 289.72,236.62 296.12,236.58 301.45,236.55 305.71,236.53 306.78,236.52 308.91,236.51 312.11,236.50 313.18,236.49 317.44,236.47 318.51,236.46 320.64,236.45 322.77,236.44 329.17,236.42 332.37,236.40 334.50,236.39 339.83,236.37 345.16,236.35 350.50,236.33 355.83,236.32 362.22,236.32 367.56,236.32 372.89,236.32 378.22,236.32 383.55,236.32 388.88,236.32 395.28,236.32 400.61,236.32 405.94,236.32 411.27,236.32 416.60,236.32 421.93,236.32 428.33,236.32 433.66,236.32 437.93,236.32"/>
<polyline fill="none" stroke="#ff7f0e" stroke-width="1.8" stroke-dasharray="5 4" points="86.07,245.60 91.41,245.60 96.74,245.60 103.13,245.60 108.46,245.60 113.80,245.60 119.13,245.60 123.39,245.60 124.46,245.60 125.52,245.59 126.59,245.57 127.66,245.55 128.72,245.53 129.79,245.51 130.86,245.48 131.92,245.45 132.99,245.41 134.05,245.38 135.12,245.34 136.19,245.31 137.25,245.27 138.32,245.23 139.38,245.19 140.45,245.15 141.52,245.10 142.58,245.06 143.65,245.01 144.72,244.97 145.78,244.92 146.85,244.87 147.91,244.81 148.98,244.76 150.05,244.71 151.11,244.65 152.18,244.59 153.25,244.53 154.31,244.47 155.38,244.41 157.51,244.28 162.84,243.93 169.24,243.46 174.57,243.06 179.90,242.65 185.23,242.25 190.56,241.87 195.89,241.51 202.29,241.10 203.36,241.04 207.62,240.79 212.95,240.49 218.29,240.22 223.62,239.97 228.95,239.74 235.34,239.51 237.48,239.44 240.68,239.34 244.94,239.23 246.01,239.21 249.21,239.14 251.34,239.10 256.67,239.02 263.07,238.95 268.40,238.92 273.73,238.89 279.06,238.87 284.39,238.85 289.72,238.84 296.12,238.82 301.45,238.80 305.71,238.79 306.78,238.79 308.91,238.78 312.11,238.77 313.18,238.77 317.44,238.76 318.51,238.76 320.64,238.76 322.77,238.75 329.17,238.74 332.37,238.74 334.50,238.74 339.83,238.74 345.16,238.74 350.50,238.74 355.83,238.74 362.22,238.74 367.56,238.74 372.89,238.74 378.22,238.74 383.55,238.74 388.88,238.74 395.28,238.74 400.61,238.74 405.94,238.74 411.27,238.74 416.60,238.74 421.93,238.74 428.33,238.74 433.66,238.74 437.93,238.74"/>
<polyline fill="none" stroke="#2ca02c" stroke-width="1.8" stroke-dasharray="2 4" points="86.07,255.69 91.41,255.69 96.74,255.69 103.13,255.69 108.46,255.69 113.80,255.69 119.13,255.69 123.39,255.69 124.46,255.67 125.52,255.64 126.59,255.59 127.66,255.53 128.72,255.47 129.79,255.39 130.86,255.31 131.92,255.22 132.99,255.13 134.05,255.03 135.12,254.92 136.19,254.81 137.25,254.69 138.32,254.57 139.38,254.44 140.45,254.30 141.52,254.16 142.58,254.01 143.65,253.86 144.72,253.70 145.78,253.53 146.85,253.36 147.91,253.18 148.98,253.00 150.05,252.81 151.11,252.61 152.18,252.41 153.25,252.20 154.31,251.99 155.38,251.78 157.51,251.33 162.84,250.17 169.24,248.71 174.57,247.48 179.90,246.25 185.23,245.03 190.56,243.82 195.89,242.64 202.29,241.26 203.36,241.04 207.62,240.16 212.95,239.11 218.29,238.12 223.62,237.20 228.95,236.36 235.34,235.46 237.48,235.19 240.68,234.82 244.94,234.38 246.01,234.28 249.21,234.01 251.34,233.85 256.67,233.52 263.07,233.25 268.40,233.10 273.73,232.99 279.06,232.90 284.39,232.82 289.72,232.75 296.12,232.68 301.45,232.62 305.71,232.58 306.78,232.57 308.91,232.55 312.11,232.52 313.18,232.51 317.44,232.47 318.51,232.46 320.64,232.45 322.77,232.43 329.17,232.38 332.37,232.35 334.50,232.34 339.83,232.30 345.16,232.26 350.50,232.22 355.83,232.18 362.22,232.14 367.56,232.11 372.89,232.10 378.22,232.10 383.55,232.10 388.88,232.10 395.28,232.10 400.61,232.10 405.94,232.10 411.27,232.10 416.60,232.10 421.93,232.10 428.33,232.10 433.66,232.10 437.93,232.10"/>
<polyline fill="none" stroke="#1f77b4" stroke-width="1.1" stroke-dasharray="6 4" points="72.00,88.24 76.81,91.19 81.62,94.15 86.43,97.10 91.24,100.06 96.05,103.02 100.86,105.97 105.67,108.93 110.48,111.88 115.29,114.84 120.10,117.80 124.91,120.75 129.72,123.71 134.53,126.66 139.34,129.62 144.15,132.58 148.96,135.53 153.77,138.49 158.58,141.44 163.39,144.40 168.20,147.36 173.01,150.31 177.82,153.27 182.63,156.23 187.44,159.18 192.25,162.14 197.06,165.09 201.87,168.05 206.68,171.01 211.49,173.96 216.30,176.92 221.11,179.87 225.92,182.83 230.73,185.79 235.54,188.74 240.35,191.70 245.16,194.65 249.97,197.61 254.78,200.57 259.59,203.52 264.41,206.48 269.22,209.43 274.03,212.39 278.84,215.35 283.65,218.30 288.46,221.26 293.27,224.21 298.08,227.17 302.89,230.13 307.70,233.08 312.51,236.04 317.32,238.99 322.13,241.95 326.94,244.91 331.75,247.86 336.56,250.82 341.37,253.77 346.18,256.73 350.99,259.69 355.80,262.64 360.61,265.60 365.42,268.56 370.23,271.51 375.04,274.47 379.85,277.42 384.66,280.38 389.47,283.34 394.28,286.29 399.09,289.25 403.90,292.20 408.71,295.16 413.52,298.12 418.33,301.07 423.14,304.03 427.95,306.98 432.76,309.94 437.57,312.90 442.38,315.85 447.19,318.81 452.00,321.76"/>
<circle cx="313.24" cy="236.49" r="4.6" fill="#ffffff" stroke="#1f77b4" stroke-width="2"/>
<text x="319.24" y="230.49" font-family="Arial, sans-serif" font-size="10" fill="#1f77b4">typ 742 ohm</text>
<polyline fill="none" stroke="#ff7f0e" stroke-width="1.1" stroke-dasharray="6 4" points="72.00,95.44 76.81,98.40 81.62,101.36 86.43,104.31 91.24,107.27 96.05,110.22 100.86,113.18 105.67,116.14 110.48,119.09 115.29,122.05 120.10,125.00 124.91,127.96 129.72,130.92 134.53,133.87 139.34,136.83 144.15,139.78 148.96,142.74 153.77,145.70 158.58,148.65 163.39,151.61 168.20,154.56 173.01,157.52 177.82,160.48 182.63,163.43 187.44,166.39 192.25,169.34 197.06,172.30 201.87,175.26 206.68,178.21 211.49,181.17 216.30,184.13 221.11,187.08 225.92,190.04 230.73,192.99 235.54,195.95 240.35,198.91 245.16,201.86 249.97,204.82 254.78,207.77 259.59,210.73 264.41,213.69 269.22,216.64 274.03,219.60 278.84,222.55 283.65,225.51 288.46,228.47 293.27,231.42 298.08,234.38 302.89,237.33 307.70,240.29 312.51,243.25 317.32,246.20 322.13,249.16 326.94,252.11 331.75,255.07 336.56,258.03 341.37,260.98 346.18,263.94 350.99,266.89 355.80,269.85 360.61,272.81 365.42,275.76 370.23,278.72 375.04,281.67 379.85,284.63 384.66,287.59 389.47,290.54 394.28,293.50 399.09,296.46 403.90,299.41 408.71,302.37 413.52,305.32 418.33,308.28 423.14,311.24 427.95,314.19 432.76,317.15 437.57,320.10 442.38,323.06 447.19,326.02 452.00,328.97"/>
<circle cx="305.26" cy="238.79" r="4.6" fill="#ffffff" stroke="#ff7f0e" stroke-width="2"/>
<text x="311.26" y="232.79" font-family="Arial, sans-serif" font-size="10" fill="#ff7f0e">min 1394 ohm</text>
<polyline fill="none" stroke="#2ca02c" stroke-width="1.1" stroke-dasharray="6 4" points="72.00,81.03 76.81,83.98 81.62,86.94 86.43,89.90 91.24,92.85 96.05,95.81 100.86,98.76 105.67,101.72 110.48,104.68 115.29,107.63 120.10,110.59 124.91,113.54 129.72,116.50 134.53,119.46 139.34,122.41 144.15,125.37 148.96,128.33 153.77,131.28 158.58,134.24 163.39,137.19 168.20,140.15 173.01,143.11 177.82,146.06 182.63,149.02 187.44,151.97 192.25,154.93 197.06,157.89 201.87,160.84 206.68,163.80 211.49,166.75 216.30,169.71 221.11,172.67 225.92,175.62 230.73,178.58 235.54,181.53 240.35,184.49 245.16,187.45 249.97,190.40 254.78,193.36 259.59,196.31 264.41,199.27 269.22,202.23 274.03,205.18 278.84,208.14 283.65,211.09 288.46,214.05 293.27,217.01 298.08,219.96 302.89,222.92 307.70,225.87 312.51,228.83 317.32,231.79 322.13,234.74 326.94,237.70 331.75,240.66 336.56,243.61 341.37,246.57 346.18,249.52 350.99,252.48 355.80,255.44 360.61,258.39 365.42,261.35 370.23,264.30 375.04,267.26 379.85,270.22 384.66,273.17 389.47,276.13 394.28,279.08 399.09,282.04 403.90,285.00 408.71,287.95 413.52,290.91 418.33,293.86 423.14,296.82 427.95,299.78 432.76,302.73 437.57,305.69 442.38,308.64 447.19,311.60 452.00,314.56"/>
<circle cx="318.42" cy="232.47" r="4.6" fill="#ffffff" stroke="#2ca02c" stroke-width="2"/>
<text x="324.42" y="226.47" font-family="Arial, sans-serif" font-size="10" fill="#2ca02c">max 412 ohm</text>
<line x1="82.00" y1="80.00" x2="104.00" y2="80.00" stroke="#1f77b4" stroke-width="2"/>
<text x="110.00" y="84.00" font-family="Arial, sans-serif" font-size="11">typ</text>
<line x1="82.00" y1="97.00" x2="104.00" y2="97.00" stroke="#ff7f0e" stroke-width="2" stroke-dasharray="5 4"/>
<text x="110.00" y="101.00" font-family="Arial, sans-serif" font-size="11">min</text>
<line x1="82.00" y1="114.00" x2="104.00" y2="114.00" stroke="#2ca02c" stroke-width="2" stroke-dasharray="2 4"/>
<text x="110.00" y="118.00" font-family="Arial, sans-serif" font-size="11">max</text>
<text x="262.00" y="386.00" text-anchor="middle" font-family="Arial, sans-serif" font-size="11">Output voltage (V)</text>
<text transform="translate(22.00 205.00) rotate(-90)" text-anchor="middle" font-family="Arial, sans-serif" font-size="11">Current (mA)</text>
<rect x="492.00" y="62.00" width="380.00" height="286.00" fill="#fbfbfb" stroke="#c8c8c8"/>
<text x="500.00" y="50.00" font-family="Arial, sans-serif" font-size="13" font-weight="700">[Pullup] Rload to GND</text>
<line x1="492.00" y1="62.00" x2="492.00" y2="348.00" stroke="#ececec"/>
<text x="492.00" y="366.00" text-anchor="middle" font-family="Arial, sans-serif" font-size="10">-1.2</text>
<line x1="587.00" y1="62.00" x2="587.00" y2="348.00" stroke="#ececec"/>
<text x="587.00" y="366.00" text-anchor="middle" font-family="Arial, sans-serif" font-size="10">-0.341</text>
<line x1="682.00" y1="62.00" x2="682.00" y2="348.00" stroke="#ececec"/>
<text x="682.00" y="366.00" text-anchor="middle" font-family="Arial, sans-serif" font-size="10">0.55</text>
<line x1="777.00" y1="62.00" x2="777.00" y2="348.00" stroke="#ececec"/>
<text x="777.00" y="366.00" text-anchor="middle" font-family="Arial, sans-serif" font-size="10">1.4</text>
<line x1="872.00" y1="62.00" x2="872.00" y2="348.00" stroke="#ececec"/>
<text x="872.00" y="366.00" text-anchor="middle" font-family="Arial, sans-serif" font-size="10">2.3</text>
<line x1="492.00" y1="348.00" x2="872.00" y2="348.00" stroke="#ececec"/>
<text x="485.00" y="352.00" text-anchor="end" font-family="Arial, sans-serif" font-size="10">-55</text>
<line x1="492.00" y1="276.50" x2="872.00" y2="276.50" stroke="#ececec"/>
<text x="485.00" y="280.50" text-anchor="end" font-family="Arial, sans-serif" font-size="10">-33</text>
<line x1="492.00" y1="205.00" x2="872.00" y2="205.00" stroke="#ececec"/>
<text x="485.00" y="209.00" text-anchor="end" font-family="Arial, sans-serif" font-size="10">-11</text>
<line x1="492.00" y1="133.50" x2="872.00" y2="133.50" stroke="#ececec"/>
<text x="485.00" y="137.50" text-anchor="end" font-family="Arial, sans-serif" font-size="10">11</text>
<line x1="492.00" y1="62.00" x2="872.00" y2="62.00" stroke="#ececec"/>
<text x="485.00" y="66.00" text-anchor="end" font-family="Arial, sans-serif" font-size="10">33</text>
<line x1="623.36" y1="62" x2="623.36" y2="348" stroke="#777" stroke-dasharray="4 4"/>
<line x1="492.0" y1="168.96" x2="872.0" y2="168.96" stroke="#777" stroke-dasharray="4 4"/>
<polyline fill="none" stroke="#1f77b4" stroke-width="1.8" points="506.07,160.99 511.41,160.99 516.74,160.99 518.87,160.99 519.93,160.99 521.00,160.99 522.07,160.99 523.13,161.00 524.20,161.00 525.27,161.01 528.46,161.04 533.80,161.11 539.13,161.20 544.46,161.33 549.79,161.49 552.99,161.61 554.05,161.66 555.12,161.70 556.19,161.75 557.25,161.80 558.32,161.85 559.38,161.91 560.45,161.97 561.52,162.03 562.58,162.09 563.65,162.16 564.72,162.22 565.78,162.30 566.85,162.37 567.91,162.45 568.98,162.53 570.05,162.61 571.11,162.70 572.18,162.79 573.25,162.89 574.31,162.98 575.38,163.09 576.44,163.19 577.51,163.30 578.58,163.41 582.84,163.88 589.24,164.66 594.57,165.34 599.90,166.02 605.23,166.70 610.56,167.38 615.89,168.05 622.29,168.83 623.36,168.96 627.62,169.47 632.95,170.09 638.29,170.68 643.62,171.25 648.95,171.79 655.34,172.39 660.68,172.84 666.01,173.24 671.34,173.58 673.47,173.71 675.60,173.82 676.67,173.87 683.07,174.12 688.40,174.28 693.73,174.39 699.06,174.48 704.39,174.56 709.72,174.63 716.12,174.71 721.45,174.76 723.58,174.79 726.78,174.82 728.91,174.84 731.05,174.86 732.11,174.87 734.24,174.88 737.44,174.91 740.64,174.94 742.77,174.95 749.17,175.00 752.37,175.02 754.50,175.04 759.83,175.08 765.16,175.11 770.50,175.14 775.83,175.17 782.22,175.17 787.56,175.17 792.89,175.17 798.22,175.17 803.55,175.17 808.88,175.17 815.28,175.17 820.61,175.17 825.94,175.17 831.27,175.17 836.60,175.17 841.93,175.17 848.33,175.17 853.66,175.17 857.93,175.17"/>
<polyline fill="none" stroke="#ff7f0e" stroke-width="1.8" stroke-dasharray="5 4" points="506.07,166.53 511.41,166.53 516.74,166.53 518.87,166.53 519.93,166.53 521.00,166.53 522.07,166.53 523.13,166.53 524.20,166.53 525.27,166.53 528.46,166.54 533.80,166.55 539.13,166.57 544.46,166.60 549.79,166.63 552.99,166.64 554.05,166.65 555.12,166.66 556.19,166.66 557.25,166.67 558.32,166.68 559.38,166.69 560.45,166.69 561.52,166.70 562.58,166.71 563.65,166.72 564.72,166.73 565.78,166.75 566.85,166.76 567.91,166.77 568.98,166.78 570.05,166.80 571.11,166.82 572.18,166.83 573.25,166.85 574.31,166.87 575.38,166.89 576.44,166.91 577.51,166.93 578.58,166.96 582.84,167.07 589.24,167.28 594.57,167.50 599.90,167.74 605.23,168.01 610.56,168.28 615.89,168.56 622.29,168.90 623.36,168.96 627.62,169.19 632.95,169.48 638.29,169.77 643.62,170.05 648.95,170.32 655.34,170.64 660.68,170.89 666.01,171.12 671.34,171.32 673.47,171.40 675.60,171.47 676.67,171.50 683.07,171.66 688.40,171.75 693.73,171.81 699.06,171.86 704.39,171.90 709.72,171.94 716.12,171.98 721.45,172.01 723.58,172.02 726.78,172.03 728.91,172.04 731.05,172.05 732.11,172.06 734.24,172.07 737.44,172.08 740.64,172.09 742.77,172.10 749.17,172.13 752.37,172.13 754.50,172.14 759.83,172.14 765.16,172.14 770.50,172.14 775.83,172.14 782.22,172.14 787.56,172.14 792.89,172.14 798.22,172.14 803.55,172.14 808.88,172.14 815.28,172.14 820.61,172.14 825.94,172.14 831.27,172.14 836.60,172.14 841.93,172.14 848.33,172.14 853.66,172.14 857.93,172.14"/>
<polyline fill="none" stroke="#2ca02c" stroke-width="1.8" stroke-dasharray="2 4" points="506.07,151.07 511.41,151.07 516.74,151.07 518.87,151.07 519.93,151.08 521.00,151.10 522.07,151.13 523.13,151.17 524.20,151.21 525.27,151.26 528.46,151.43 533.80,151.77 539.13,152.16 544.46,152.61 549.79,153.14 552.99,153.50 554.05,153.63 555.12,153.76 556.19,153.90 557.25,154.04 558.32,154.19 559.38,154.34 560.45,154.50 561.52,154.66 562.58,154.83 563.65,155.00 564.72,155.18 565.78,155.36 566.85,155.56 567.91,155.75 568.98,155.96 570.05,156.17 571.11,156.38 572.18,156.60 573.25,156.83 574.31,157.06 575.38,157.30 576.44,157.54 577.51,157.79 578.58,158.04 582.84,159.07 589.24,160.68 594.57,162.03 599.90,163.37 605.23,164.68 610.56,165.98 615.89,167.24 622.29,168.72 623.36,168.96 627.62,169.91 632.95,171.05 638.29,172.14 643.62,173.17 648.95,174.14 655.34,175.21 660.68,176.02 666.01,176.74 671.34,177.37 673.47,177.60 675.60,177.81 676.67,177.90 683.07,178.42 688.40,178.75 693.73,179.01 699.06,179.22 704.39,179.40 709.72,179.55 716.12,179.70 721.45,179.82 723.58,179.86 726.78,179.92 728.91,179.96 731.05,180.00 732.11,180.01 734.24,180.05 737.44,180.10 740.64,180.15 742.77,180.18 749.17,180.28 752.37,180.32 754.50,180.35 759.83,180.42 765.16,180.48 770.50,180.54 775.83,180.60 782.22,180.67 787.56,180.72 792.89,180.76 798.22,180.76 803.55,180.76 808.88,180.76 815.28,180.76 820.61,180.76 825.94,180.76 831.27,180.76 836.60,180.76 841.93,180.76 848.33,180.76 853.66,180.76 857.93,180.76"/>
<polyline fill="none" stroke="#1f77b4" stroke-width="1.1" stroke-dasharray="6 4" points="492.00,321.76 496.81,318.81 501.62,315.85 506.43,312.90 511.24,309.94 516.05,306.98 520.86,304.03 525.67,301.07 530.48,298.12 535.29,295.16 540.10,292.20 544.91,289.25 549.72,286.29 554.53,283.34 559.34,280.38 564.15,277.42 568.96,274.47 573.77,271.51 578.58,268.56 583.39,265.60 588.20,262.64 593.01,259.69 597.82,256.73 602.63,253.77 607.44,250.82 612.25,247.86 617.06,244.91 621.87,241.95 626.68,238.99 631.49,236.04 636.30,233.08 641.11,230.13 645.92,227.17 650.73,224.21 655.54,221.26 660.35,218.30 665.16,215.35 669.97,212.39 674.78,209.43 679.59,206.48 684.41,203.52 689.22,200.57 694.03,197.61 698.84,194.65 703.65,191.70 708.46,188.74 713.27,185.79 718.08,182.83 722.89,179.87 727.70,176.92 732.51,173.96 737.32,171.01 742.13,168.05 746.94,165.09 751.75,162.14 756.56,159.18 761.37,156.23 766.18,153.27 770.99,150.31 775.80,147.36 780.61,144.40 785.42,141.44 790.23,138.49 795.04,135.53 799.85,132.58 804.66,129.62 809.47,126.66 814.28,123.71 819.09,120.75 823.90,117.80 828.71,114.84 833.52,111.88 838.33,108.93 843.14,105.97 847.95,103.02 852.76,100.06 857.57,97.10 862.38,94.15 867.19,91.19 872.00,88.24"/>
<circle cx="731.05" cy="174.86" r="4.6" fill="#ffffff" stroke="#1f77b4" stroke-width="2"/>
<text x="737.05" y="168.86" font-family="Arial, sans-serif" font-size="10" fill="#1f77b4">typ 561 ohm</text>
<polyline fill="none" stroke="#ff7f0e" stroke-width="1.1" stroke-dasharray="6 4" points="492.00,314.56 496.81,311.60 501.62,308.64 506.43,305.69 511.24,302.73 516.05,299.78 520.86,296.82 525.67,293.86 530.48,290.91 535.29,287.95 540.10,285.00 544.91,282.04 549.72,279.08 554.53,276.13 559.34,273.17 564.15,270.22 568.96,267.26 573.77,264.30 578.58,261.35 583.39,258.39 588.20,255.44 593.01,252.48 597.82,249.52 602.63,246.57 607.44,243.61 612.25,240.66 617.06,237.70 621.87,234.74 626.68,231.79 631.49,228.83 636.30,225.87 641.11,222.92 645.92,219.96 650.73,217.01 655.54,214.05 660.35,211.09 665.16,208.14 669.97,205.18 674.78,202.23 679.59,199.27 684.41,196.31 689.22,193.36 694.03,190.40 698.84,187.45 703.65,184.49 708.46,181.53 713.27,178.58 718.08,175.62 722.89,172.67 727.70,169.71 732.51,166.75 737.32,163.80 742.13,160.84 746.94,157.89 751.75,154.93 756.56,151.97 761.37,149.02 766.18,146.06 770.99,143.11 775.80,140.15 780.61,137.19 785.42,134.24 790.23,131.28 795.04,128.33 799.85,125.37 804.66,122.41 809.47,119.46 814.28,116.50 819.09,113.54 823.90,110.59 828.71,107.63 833.52,104.68 838.33,101.72 843.14,98.76 847.95,95.81 852.76,92.85 857.57,89.90 862.38,86.94 867.19,83.98 872.00,81.03"/>
<circle cx="723.94" cy="172.02" r="4.6" fill="#ffffff" stroke="#ff7f0e" stroke-width="2"/>
<text x="729.94" y="166.02" font-family="Arial, sans-serif" font-size="10" fill="#ff7f0e">min 1011 ohm</text>
<polyline fill="none" stroke="#2ca02c" stroke-width="1.1" stroke-dasharray="6 4" points="492.00,328.97 496.81,326.02 501.62,323.06 506.43,320.10 511.24,317.15 516.05,314.19 520.86,311.24 525.67,308.28 530.48,305.32 535.29,302.37 540.10,299.41 544.91,296.46 549.72,293.50 554.53,290.54 559.34,287.59 564.15,284.63 568.96,281.67 573.77,278.72 578.58,275.76 583.39,272.81 588.20,269.85 593.01,266.89 597.82,263.94 602.63,260.98 607.44,258.03 612.25,255.07 617.06,252.11 621.87,249.16 626.68,246.20 631.49,243.25 636.30,240.29 641.11,237.33 645.92,234.38 650.73,231.42 655.54,228.47 660.35,225.51 665.16,222.55 669.97,219.60 674.78,216.64 679.59,213.69 684.41,210.73 689.22,207.77 694.03,204.82 698.84,201.86 703.65,198.91 708.46,195.95 713.27,192.99 718.08,190.04 722.89,187.08 727.70,184.13 732.51,181.17 737.32,178.21 742.13,175.26 746.94,172.30 751.75,169.34 756.56,166.39 761.37,163.43 766.18,160.48 770.99,157.52 775.80,154.56 780.61,151.61 785.42,148.65 790.23,145.70 795.04,142.74 799.85,139.78 804.66,136.83 809.47,133.87 814.28,130.92 819.09,127.96 823.90,125.00 828.71,122.05 833.52,119.09 838.33,116.14 843.14,113.18 847.95,110.22 852.76,107.27 857.57,104.31 862.38,101.36 867.19,98.40 872.00,95.44"/>
<circle cx="734.32" cy="180.05" r="4.6" fill="#ffffff" stroke="#2ca02c" stroke-width="2"/>
<text x="740.32" y="174.05" font-family="Arial, sans-serif" font-size="10" fill="#2ca02c">max 307 ohm</text>
<line x1="502.00" y1="80.00" x2="524.00" y2="80.00" stroke="#1f77b4" stroke-width="2"/>
<text x="530.00" y="84.00" font-family="Arial, sans-serif" font-size="11">typ</text>
<line x1="502.00" y1="97.00" x2="524.00" y2="97.00" stroke="#ff7f0e" stroke-width="2" stroke-dasharray="5 4"/>
<text x="530.00" y="101.00" font-family="Arial, sans-serif" font-size="11">min</text>
<line x1="502.00" y1="114.00" x2="524.00" y2="114.00" stroke="#2ca02c" stroke-width="2" stroke-dasharray="2 4"/>
<text x="530.00" y="118.00" font-family="Arial, sans-serif" font-size="11">max</text>
<text x="682.00" y="386.00" text-anchor="middle" font-family="Arial, sans-serif" font-size="11">Vcc-relative table voltage (V)</text>
<text transform="translate(442.00 205.00) rotate(-90)" text-anchor="middle" font-family="Arial, sans-serif" font-size="11">Current (mA)</text>
<rect x="72.00" y="418.00" width="800.00" height="144.00" fill="#ffffff" stroke="#c8c8c8"/>
<text x="82.00" y="436.00" font-family="Arial, sans-serif" font-size="12" font-weight="700">Operating-point summary</text>
<text x="82.00" y="454.00" font-family="Arial, sans-serif" font-size="10" font-weight="700" fill="#333">Table</text>
<text x="174.00" y="454.00" font-family="Arial, sans-serif" font-size="10" font-weight="700" fill="#333">Corner</text>
<text x="242.00" y="454.00" font-family="Arial, sans-serif" font-size="10" font-weight="700" fill="#333">Vout</text>
<text x="332.00" y="454.00" font-family="Arial, sans-serif" font-size="10" font-weight="700" fill="#333">Iop</text>
<text x="422.00" y="454.00" font-family="Arial, sans-serif" font-size="10" font-weight="700" fill="#333">Zout</text>
<text x="512.00" y="454.00" font-family="Arial, sans-serif" font-size="10" font-weight="700" fill="#333">Rseries</text>
<text x="82.00" y="473.00" font-family="Arial, sans-serif" font-size="10" fill="#1f77b4">pulldown</text>
<text x="174.00" y="473.00" font-family="Arial, sans-serif" font-size="10" fill="#1f77b4">typ</text>
<text x="242.00" y="473.00" font-family="Arial, sans-serif" font-size="10" fill="#1f77b4">1.031 V</text>
<text x="332.00" y="473.00" font-family="Arial, sans-serif" font-size="10" fill="#1f77b4">1.4 mA</text>
<text x="422.00" y="473.00" font-family="Arial, sans-serif" font-size="10" fill="#1f77b4">742 ohm</text>
<text x="512.00" y="473.00" font-family="Arial, sans-serif" font-size="10" fill="#1f77b4">-692 ohm</text>
<text x="82.00" y="492.00" font-family="Arial, sans-serif" font-size="10" fill="#ff7f0e">pulldown</text>
<text x="174.00" y="492.00" font-family="Arial, sans-serif" font-size="10" fill="#ff7f0e">min</text>
<text x="242.00" y="492.00" font-family="Arial, sans-serif" font-size="10" fill="#ff7f0e">0.9557 V</text>
<text x="332.00" y="492.00" font-family="Arial, sans-serif" font-size="10" fill="#ff7f0e">0.686 mA</text>
<text x="422.00" y="492.00" font-family="Arial, sans-serif" font-size="10" fill="#ff7f0e">1394 ohm</text>
<text x="512.00" y="492.00" font-family="Arial, sans-serif" font-size="10" fill="#ff7f0e">-1344 ohm</text>
<text x="82.00" y="511.00" font-family="Arial, sans-serif" font-size="10" fill="#2ca02c">pulldown</text>
<text x="174.00" y="511.00" font-family="Arial, sans-serif" font-size="10" fill="#2ca02c">max</text>
<text x="242.00" y="511.00" font-family="Arial, sans-serif" font-size="10" fill="#2ca02c">1.079 V</text>
<text x="332.00" y="511.00" font-family="Arial, sans-serif" font-size="10" fill="#2ca02c">2.6 mA</text>
<text x="422.00" y="511.00" font-family="Arial, sans-serif" font-size="10" fill="#2ca02c">412 ohm</text>
<text x="512.00" y="511.00" font-family="Arial, sans-serif" font-size="10" fill="#2ca02c">-362 ohm</text>
<text x="82.00" y="530.00" font-family="Arial, sans-serif" font-size="10" fill="#1f77b4">pullup</text>
<text x="174.00" y="530.00" font-family="Arial, sans-serif" font-size="10" fill="#1f77b4">typ</text>
<text x="242.00" y="530.00" font-family="Arial, sans-serif" font-size="10" fill="#1f77b4">0.08995 V</text>
<text x="332.00" y="530.00" font-family="Arial, sans-serif" font-size="10" fill="#1f77b4">-1.8 mA</text>
<text x="422.00" y="530.00" font-family="Arial, sans-serif" font-size="10" fill="#1f77b4">561 ohm</text>
<text x="512.00" y="530.00" font-family="Arial, sans-serif" font-size="10" fill="#1f77b4">-511 ohm</text>
<text x="82.00" y="549.00" font-family="Arial, sans-serif" font-size="10" fill="#ff7f0e">pullup</text>
<text x="174.00" y="549.00" font-family="Arial, sans-serif" font-size="10" fill="#ff7f0e">min</text>
<text x="242.00" y="549.00" font-family="Arial, sans-serif" font-size="10" fill="#ff7f0e">0.04667 V</text>
<text x="332.00" y="549.00" font-family="Arial, sans-serif" font-size="10" fill="#ff7f0e">-0.933 mA</text>
<text x="422.00" y="549.00" font-family="Arial, sans-serif" font-size="10" fill="#ff7f0e">1011 ohm</text>
<text x="512.00" y="549.00" font-family="Arial, sans-serif" font-size="10" fill="#ff7f0e">-961 ohm</text>
<text x="82.00" y="568.00" font-family="Arial, sans-serif" font-size="10" fill="#2ca02c">pullup</text>
<text x="174.00" y="568.00" font-family="Arial, sans-serif" font-size="10" fill="#2ca02c">max</text>
<text x="242.00" y="568.00" font-family="Arial, sans-serif" font-size="10" fill="#2ca02c">0.1692 V</text>
<text x="332.00" y="568.00" font-family="Arial, sans-serif" font-size="10" fill="#2ca02c">-3.4 mA</text>
<text x="422.00" y="568.00" font-family="Arial, sans-serif" font-size="10" fill="#2ca02c">307 ohm</text>
<text x="512.00" y="568.00" font-family="Arial, sans-serif" font-size="10" fill="#2ca02c">-257 ohm</text>
</svg>