<svg xmlns="http://www.w3.org/2000/svg" width="900" height="620" viewBox="0 0 900 620">
<rect width="100%" height="100%" fill="#ffffff"/>
<text x="72" y="26" font-family="Arial, sans-serif" font-size="16" font-weight="700">E34_GPIO_1V1TO1V8_1v8_11 Zout Load-Line Curves</text>
<text x="72" y="45" font-family="Arial, sans-serif" font-size="11" fill="#555">Rload=50 ohm; solid=device I-V, dashed=load line, circles=operating points</text>
<rect x="72.00" y="62.00" width="380.00" height="286.00" fill="#fbfbfb" stroke="#c8c8c8"/>
<text x="80.00" y="50.00" font-family="Arial, sans-serif" font-size="13" font-weight="700">[Pulldown] Rload to Vdd</text>
<line x1="72.00" y1="62.00" x2="72.00" y2="348.00" stroke="#ececec"/>
<text x="72.00" y="366.00" text-anchor="middle" font-family="Arial, sans-serif" font-size="10">-2</text>
<line x1="167.00" y1="62.00" x2="167.00" y2="348.00" stroke="#ececec"/>
<text x="167.00" y="366.00" text-anchor="middle" font-family="Arial, sans-serif" font-size="10">-0.558</text>
<line x1="262.00" y1="62.00" x2="262.00" y2="348.00" stroke="#ececec"/>
<text x="262.00" y="366.00" text-anchor="middle" font-family="Arial, sans-serif" font-size="10">0.9</text>
<line x1="357.00" y1="62.00" x2="357.00" y2="348.00" stroke="#ececec"/>
<text x="357.00" y="366.00" text-anchor="middle" font-family="Arial, sans-serif" font-size="10">2.4</text>
<line x1="452.00" y1="62.00" x2="452.00" y2="348.00" stroke="#ececec"/>
<text x="452.00" y="366.00" text-anchor="middle" font-family="Arial, sans-serif" font-size="10">3.8</text>
<line x1="72.00" y1="348.00" x2="452.00" y2="348.00" stroke="#ececec"/>
<text x="65.00" y="352.00" text-anchor="end" font-family="Arial, sans-serif" font-size="10">-53</text>
<line x1="72.00" y1="276.50" x2="452.00" y2="276.50" stroke="#ececec"/>
<text x="65.00" y="280.50" text-anchor="end" font-family="Arial, sans-serif" font-size="10">-18</text>
<line x1="72.00" y1="205.00" x2="452.00" y2="205.00" stroke="#ececec"/>
<text x="65.00" y="209.00" text-anchor="end" font-family="Arial, sans-serif" font-size="10">18</text>
<line x1="72.00" y1="133.50" x2="452.00" y2="133.50" stroke="#ececec"/>
<text x="65.00" y="137.50" text-anchor="end" font-family="Arial, sans-serif" font-size="10">54</text>
<line x1="72.00" y1="62.00" x2="452.00" y2="62.00" stroke="#ececec"/>
<text x="65.00" y="66.00" text-anchor="end" font-family="Arial, sans-serif" font-size="10">89</text>
<line x1="203.36" y1="62" x2="203.36" y2="348" stroke="#777" stroke-dasharray="4 4"/>
<line x1="72.0" y1="241.04" x2="452.0" y2="241.04" stroke="#777" stroke-dasharray="4 4"/>
<polyline fill="none" stroke="#1f77b4" stroke-width="1.8" points="86.07,268.16 91.29,268.16 97.15,268.16 102.36,268.16 108.23,268.16 113.44,268.16 119.30,268.16 124.52,268.16 130.38,268.16 135.59,268.16 140.16,268.16 141.46,268.16 144.06,268.16 146.67,267.66 149.28,267.11 149.93,266.96 150.58,266.81 151.88,266.49 156.44,265.29 157.10,265.10 158.40,264.71 159.05,264.51 160.35,264.09 161.01,263.87 161.66,263.65 162.31,263.42 162.96,263.19 163.61,262.95 164.26,262.71 164.91,262.46 165.57,262.20 166.22,261.94 166.87,261.67 167.52,261.39 168.17,261.11 168.82,260.82 169.48,260.53 170.13,260.22 170.78,259.91 171.43,259.59 172.08,259.27 172.73,258.94 173.39,258.60 174.04,258.26 174.69,257.91 175.34,257.56 179.90,254.96 185.11,251.87 190.98,248.38 196.19,245.28 202.05,241.81 203.36,241.04 207.27,238.74 212.48,235.70 218.34,232.32 223.56,229.34 229.42,226.05 234.63,223.17 240.50,219.99 245.71,217.24 251.57,214.23 256.79,211.65 262.65,208.87 265.91,207.38 267.86,206.52 269.82,205.67 273.08,204.30 278.94,202.00 284.15,200.15 290.02,198.32 295.23,196.95 301.09,195.71 306.31,194.86 308.91,194.51 312.17,194.14 317.38,193.65 320.64,193.39 322.60,193.25 328.46,192.87 332.37,192.65 333.67,192.58 339.54,192.29 344.75,192.06 350.61,191.81 355.83,191.59 361.69,191.32 366.90,191.07 372.77,190.77 377.98,190.49 383.19,190.19 389.06,189.85 394.27,189.54 400.13,189.18 405.35,188.85 411.21,188.47 416.42,188.11 422.29,187.63 427.50,187.07 433.36,186.25 437.93,185.45"/>
<polyline fill="none" stroke="#ff7f0e" stroke-width="1.8" stroke-dasharray="5 4" points="86.07,259.78 91.29,259.78 97.15,259.78 102.36,259.78 108.23,259.78 113.44,259.78 119.30,259.78 124.52,259.78 130.38,259.78 135.59,259.78 140.16,259.78 141.46,259.78 144.06,259.78 146.67,259.78 149.28,259.78 149.93,259.70 150.58,259.64 151.88,259.46 156.44,258.68 157.10,258.55 158.40,258.28 159.05,258.14 160.35,257.84 161.01,257.69 161.66,257.53 162.31,257.37 162.96,257.21 163.61,257.04 164.26,256.86 164.91,256.69 165.57,256.51 166.22,256.32 166.87,256.13 167.52,255.94 168.17,255.74 168.82,255.54 169.48,255.33 170.13,255.12 170.78,254.90 171.43,254.68 172.08,254.46 172.73,254.23 173.39,253.99 174.04,253.75 174.69,253.51 175.34,253.26 179.90,251.41 185.11,249.14 190.98,246.52 196.19,244.19 202.05,241.61 203.36,241.04 207.27,239.34 212.48,237.11 218.34,234.65 223.56,232.51 229.42,230.16 234.63,228.15 240.50,225.96 245.71,224.11 251.57,222.14 256.79,220.51 262.65,218.82 265.91,217.97 267.86,217.49 269.82,217.03 273.08,216.33 278.94,215.27 284.15,214.54 290.02,213.94 295.23,213.55 301.09,213.21 306.31,212.96 308.91,212.85 312.17,212.72 317.38,212.54 320.64,212.43 322.60,212.37 328.46,212.20 332.37,212.09 333.67,212.06 339.54,211.90 344.75,211.74 350.61,211.56 355.83,211.39 361.69,211.18 366.90,210.98 372.77,210.74 377.98,210.51 383.19,210.24 389.06,209.86 394.27,209.41 400.13,208.76 405.35,208.07 411.21,207.15 416.42,206.23 422.29,205.19 427.50,204.26 433.36,203.21 437.93,202.40"/>
<polyline fill="none" stroke="#2ca02c" stroke-width="1.8" stroke-dasharray="2 4" points="86.07,277.00 91.29,277.00 97.15,277.00 102.36,277.00 108.23,277.00 113.44,277.00 119.30,277.00 124.52,277.00 130.38,277.00 135.59,277.00 140.16,277.00 141.46,276.69 144.06,276.04 146.67,275.35 149.28,274.61 149.93,274.42 150.58,274.22 151.88,273.82 156.44,272.29 157.10,272.05 158.40,271.56 159.05,271.31 160.35,270.78 161.01,270.51 161.66,270.22 162.31,269.94 162.96,269.64 163.61,269.33 164.26,269.02 164.91,268.70 165.57,268.37 166.22,268.03 166.87,267.69 167.52,267.33 168.17,266.96 168.82,266.59 169.48,266.20 170.13,265.80 170.78,265.40 171.43,264.98 172.08,264.56 172.73,264.12 173.39,263.68 174.04,263.23 174.69,262.77 175.34,262.31 179.90,258.93 185.11,254.96 190.98,250.48 196.19,246.50 202.05,242.03 203.36,241.04 207.27,238.07 212.48,234.13 218.34,229.72 223.56,225.83 229.42,221.49 234.63,217.68 240.50,213.45 245.71,209.76 251.57,205.68 256.79,202.13 262.65,198.25 265.91,196.14 267.86,194.91 269.82,193.68 273.08,191.68 278.94,188.21 284.15,185.29 290.02,182.21 295.23,179.69 301.09,177.13 306.31,175.14 308.91,174.25 312.17,173.23 317.38,171.85 320.64,171.14 322.60,170.75 328.46,169.79 332.37,169.28 333.67,169.13 339.54,168.52 344.75,168.07 350.61,167.64 355.83,167.29 361.69,166.94 366.90,166.62 372.77,166.26 377.98,165.91 383.19,165.54 389.06,165.10 394.27,164.70 400.13,164.23 405.35,163.81 411.21,163.33 416.42,162.89 422.29,162.39 427.50,161.94 433.36,161.43 437.93,161.02"/>
<polyline fill="none" stroke="#1f77b4" stroke-width="1.1" stroke-dasharray="6 4" points="72.00,88.24 76.81,91.19 81.62,94.15 86.43,97.10 91.24,100.06 96.05,103.02 100.86,105.97 105.67,108.93 110.48,111.88 115.29,114.84 120.10,117.80 124.91,120.75 129.72,123.71 134.53,126.66 139.34,129.62 144.15,132.58 148.96,135.53 153.77,138.49 158.58,141.44 163.39,144.40 168.20,147.36 173.01,150.31 177.82,153.27 182.63,156.23 187.44,159.18 192.25,162.14 197.06,165.09 201.87,168.05 206.68,171.01 211.49,173.96 216.30,176.92 221.11,179.87 225.92,182.83 230.73,185.79 235.54,188.74 240.35,191.70 245.16,194.65 249.97,197.61 254.78,200.57 259.59,203.52 264.41,206.48 269.22,209.43 274.03,212.39 278.84,215.35 283.65,218.30 288.46,221.26 293.27,224.21 298.08,227.17 302.89,230.13 307.70,233.08 312.51,236.04 317.32,238.99 322.13,241.95 326.94,244.91 331.75,247.86 336.56,250.82 341.37,253.77 346.18,256.73 350.99,259.69 355.80,262.64 360.61,265.60 365.42,268.56 370.23,271.51 375.04,274.47 379.85,277.42 384.66,280.38 389.47,283.34 394.28,286.29 399.09,289.25 403.90,292.20 408.71,295.16 413.52,298.12 418.33,301.07 423.14,304.03 427.95,306.98 432.76,309.94 437.57,312.90 442.38,315.85 447.19,318.81 452.00,321.76"/>
<circle cx="265.89" cy="207.39" r="4.6" fill="#ffffff" stroke="#1f77b4" stroke-width="2"/>
<text x="271.89" y="201.39" font-family="Arial, sans-serif" font-size="10" fill="#1f77b4">typ 57.1 ohm</text>
<polyline fill="none" stroke="#ff7f0e" stroke-width="1.1" stroke-dasharray="6 4" points="72.00,95.44 76.81,98.40 81.62,101.36 86.43,104.31 91.24,107.27 96.05,110.22 100.86,113.18 105.67,116.14 110.48,119.09 115.29,122.05 120.10,125.00 124.91,127.96 129.72,130.92 134.53,133.87 139.34,136.83 144.15,139.78 148.96,142.74 153.77,145.70 158.58,148.65 163.39,151.61 168.20,154.56 173.01,157.52 177.82,160.48 182.63,163.43 187.44,166.39 192.25,169.34 197.06,172.30 201.87,175.26 206.68,178.21 211.49,181.17 216.30,184.13 221.11,187.08 225.92,190.04 230.73,192.99 235.54,195.95 240.35,198.91 245.16,201.86 249.97,204.82 254.78,207.77 259.59,210.73 264.41,213.69 269.22,216.64 274.03,219.60 278.84,222.55 283.65,225.51 288.46,228.47 293.27,231.42 298.08,234.38 302.89,237.33 307.70,240.29 312.51,243.25 317.32,246.20 322.13,249.16 326.94,252.11 331.75,255.07 336.56,258.03 341.37,260.98 346.18,263.94 350.99,266.89 355.80,269.85 360.61,272.81 365.42,275.76 370.23,278.72 375.04,281.67 379.85,284.63 384.66,287.59 389.47,290.54 394.28,293.50 399.09,296.46 403.90,299.41 408.71,302.37 413.52,305.32 418.33,308.28 423.14,311.24 427.95,314.19 432.76,317.15 437.57,320.10 442.38,323.06 447.19,326.02 452.00,328.97"/>
<circle cx="269.84" cy="217.03" r="4.6" fill="#ffffff" stroke="#ff7f0e" stroke-width="2"/>
<text x="275.84" y="211.03" font-family="Arial, sans-serif" font-size="10" fill="#ff7f0e">min 85.1 ohm</text>
<polyline fill="none" stroke="#2ca02c" stroke-width="1.1" stroke-dasharray="6 4" points="72.00,81.03 76.81,83.98 81.62,86.94 86.43,89.90 91.24,92.85 96.05,95.81 100.86,98.76 105.67,101.72 110.48,104.68 115.29,107.63 120.10,110.59 124.91,113.54 129.72,116.50 134.53,119.46 139.34,122.41 144.15,125.37 148.96,128.33 153.77,131.28 158.58,134.24 163.39,137.19 168.20,140.15 173.01,143.11 177.82,146.06 182.63,149.02 187.44,151.97 192.25,154.93 197.06,157.89 201.87,160.84 206.68,163.80 211.49,166.75 216.30,169.71 221.11,172.67 225.92,175.62 230.73,178.58 235.54,181.53 240.35,184.49 245.16,187.45 249.97,190.40 254.78,193.36 259.59,196.31 264.41,199.27 269.22,202.23 274.03,205.18 278.84,208.14 283.65,211.09 288.46,214.05 293.27,217.01 298.08,219.96 302.89,222.92 307.70,225.87 312.51,228.83 317.32,231.79 322.13,234.74 326.94,237.70 331.75,240.66 336.56,243.61 341.37,246.57 346.18,249.52 350.99,252.48 355.80,255.44 360.61,258.39 365.42,261.35 370.23,264.30 375.04,267.26 379.85,270.22 384.66,273.17 389.47,276.13 394.28,279.08 399.09,282.04 403.90,285.00 408.71,287.95 413.52,290.91 418.33,293.86 423.14,296.82 427.95,299.78 432.76,302.73 437.57,305.69 442.38,308.64 447.19,311.60 452.00,314.56"/>
<circle cx="262.69" cy="198.22" r="4.6" fill="#ffffff" stroke="#2ca02c" stroke-width="2"/>
<text x="268.69" y="192.22" font-family="Arial, sans-serif" font-size="10" fill="#2ca02c">max 42.6 ohm</text>
<line x1="82.00" y1="80.00" x2="104.00" y2="80.00" stroke="#1f77b4" stroke-width="2"/>
<text x="110.00" y="84.00" font-family="Arial, sans-serif" font-size="11">typ</text>
<line x1="82.00" y1="97.00" x2="104.00" y2="97.00" stroke="#ff7f0e" stroke-width="2" stroke-dasharray="5 4"/>
<text x="110.00" y="101.00" font-family="Arial, sans-serif" font-size="11">min</text>
<line x1="82.00" y1="114.00" x2="104.00" y2="114.00" stroke="#2ca02c" stroke-width="2" stroke-dasharray="2 4"/>
<text x="110.00" y="118.00" font-family="Arial, sans-serif" font-size="11">max</text>
<text x="262.00" y="386.00" text-anchor="middle" font-family="Arial, sans-serif" font-size="11">Output voltage (V)</text>
<text transform="translate(22.00 205.00) rotate(-90)" text-anchor="middle" font-family="Arial, sans-serif" font-size="11">Current (mA)</text>
<rect x="492.00" y="62.00" width="380.00" height="286.00" fill="#fbfbfb" stroke="#c8c8c8"/>
<text x="500.00" y="50.00" font-family="Arial, sans-serif" font-size="13" font-weight="700">[Pullup] Rload to GND</text>
<line x1="492.00" y1="62.00" x2="492.00" y2="348.00" stroke="#ececec"/>
<text x="492.00" y="366.00" text-anchor="middle" font-family="Arial, sans-serif" font-size="10">-2</text>
<line x1="587.00" y1="62.00" x2="587.00" y2="348.00" stroke="#ececec"/>
<text x="587.00" y="366.00" text-anchor="middle" font-family="Arial, sans-serif" font-size="10">-0.558</text>
<line x1="682.00" y1="62.00" x2="682.00" y2="348.00" stroke="#ececec"/>
<text x="682.00" y="366.00" text-anchor="middle" font-family="Arial, sans-serif" font-size="10">0.9</text>
<line x1="777.00" y1="62.00" x2="777.00" y2="348.00" stroke="#ececec"/>
<text x="777.00" y="366.00" text-anchor="middle" font-family="Arial, sans-serif" font-size="10">2.4</text>
<line x1="872.00" y1="62.00" x2="872.00" y2="348.00" stroke="#ececec"/>
<text x="872.00" y="366.00" text-anchor="middle" font-family="Arial, sans-serif" font-size="10">3.8</text>
<line x1="492.00" y1="348.00" x2="872.00" y2="348.00" stroke="#ececec"/>
<text x="485.00" y="352.00" text-anchor="end" font-family="Arial, sans-serif" font-size="10">-90</text>
<line x1="492.00" y1="276.50" x2="872.00" y2="276.50" stroke="#ececec"/>
<text x="485.00" y="280.50" text-anchor="end" font-family="Arial, sans-serif" font-size="10">-53</text>
<line x1="492.00" y1="205.00" x2="872.00" y2="205.00" stroke="#ececec"/>
<text x="485.00" y="209.00" text-anchor="end" font-family="Arial, sans-serif" font-size="10">-17</text>
<line x1="492.00" y1="133.50" x2="872.00" y2="133.50" stroke="#ececec"/>
<text x="485.00" y="137.50" text-anchor="end" font-family="Arial, sans-serif" font-size="10">20</text>
<line x1="492.00" y1="62.00" x2="872.00" y2="62.00" stroke="#ececec"/>
<text x="485.00" y="66.00" text-anchor="end" font-family="Arial, sans-serif" font-size="10">56</text>
<line x1="623.36" y1="62" x2="623.36" y2="348" stroke="#777" stroke-dasharray="4 4"/>
<line x1="492.0" y1="172.14" x2="872.0" y2="172.14" stroke="#777" stroke-dasharray="4 4"/>
<polyline fill="none" stroke="#1f77b4" stroke-width="1.8" points="506.07,108.06 511.29,110.71 517.15,113.75 522.36,116.49 526.27,118.57 528.23,119.61 534.09,122.78 539.30,125.62 544.52,128.48 550.38,131.72 555.59,134.62 561.46,137.89 566.67,140.81 571.88,143.73 577.75,147.01 582.96,149.91 588.82,153.16 594.04,156.03 599.90,159.25 605.11,162.10 610.98,165.32 616.19,168.18 617.49,168.90 622.05,171.41 623.36,172.14 627.27,174.29 632.48,177.12 638.34,180.26 643.56,183.02 649.42,186.07 654.63,188.74 660.50,191.68 665.71,194.24 671.57,197.05 676.79,199.48 682.65,202.13 684.61,202.99 687.21,204.12 687.86,204.40 690.47,205.50 693.08,206.58 698.94,208.92 704.15,210.88 710.02,212.94 715.23,214.63 721.09,216.36 723.05,216.90 726.31,217.74 728.91,218.36 730.22,218.66 732.17,219.09 734.13,219.50 736.08,219.89 737.38,220.13 740.64,220.71 742.60,221.03 748.46,221.89 752.37,222.39 753.67,222.54 754.98,222.69 756.28,222.84 759.54,223.18 762.80,223.48 764.10,223.58 765.40,223.68 766.71,223.76 767.36,223.79 768.01,223.82 768.66,223.84 769.31,223.86 769.96,223.87 770.61,223.88 775.83,223.88 777.13,223.88 777.78,223.88 778.43,223.88 779.09,223.88 779.74,223.88 780.39,223.88 781.04,223.88 781.69,223.88 782.34,223.88 782.99,223.88 783.65,223.88 784.30,223.88 784.95,223.88 786.90,223.88 792.77,223.88 797.98,223.88 803.19,223.88 809.06,223.88 814.27,223.88 820.13,223.88 825.35,223.88 831.21,223.88 836.42,223.88 842.29,223.88 847.50,223.88 853.36,223.88 857.93,223.88"/>
<polyline fill="none" stroke="#ff7f0e" stroke-width="1.8" stroke-dasharray="5 4" points="506.07,125.07 511.29,126.84 517.15,128.84 522.36,130.65 526.27,132.07 528.23,132.80 534.09,135.04 539.30,137.08 544.52,139.17 550.38,141.57 555.59,143.73 561.46,146.18 566.67,148.38 571.88,150.59 577.75,153.08 582.96,155.29 588.82,157.77 594.04,159.96 599.90,162.41 605.11,164.57 610.98,167.00 616.19,169.16 617.49,169.70 622.05,171.59 623.36,172.14 627.27,173.75 632.48,175.85 638.34,178.16 643.56,180.17 649.42,182.37 654.63,184.27 660.50,186.33 665.71,188.09 671.57,189.99 676.79,191.58 682.65,193.26 684.61,193.79 687.21,194.47 687.86,194.64 690.47,195.28 693.08,195.89 698.94,197.13 704.15,198.08 710.02,198.97 715.23,199.62 721.09,200.22 723.05,200.39 726.31,200.65 728.91,200.84 730.22,200.93 732.17,201.06 734.13,201.19 736.08,201.30 737.38,201.38 740.64,201.55 742.60,201.65 748.46,201.90 752.37,201.99 753.67,201.99 754.98,201.99 756.28,201.99 759.54,201.99 762.80,201.99 764.10,201.99 765.40,201.99 766.71,201.99 767.36,201.99 768.01,201.99 768.66,201.99 769.31,201.99 769.96,201.99 770.61,201.99 775.83,201.99 777.13,201.99 777.78,201.99 778.43,201.99 779.09,201.99 779.74,201.99 780.39,201.99 781.04,201.99 781.69,201.99 782.34,201.99 782.99,201.99 783.65,201.99 784.30,201.99 784.95,201.99 786.90,201.99 792.77,201.99 797.98,201.99 803.19,201.99 809.06,201.99 814.27,201.99 820.13,201.99 825.35,201.99 831.21,201.99 836.42,201.99 842.29,201.99 847.50,201.99 853.36,201.99 857.93,201.99"/>
<polyline fill="none" stroke="#2ca02c" stroke-width="1.8" stroke-dasharray="2 4" points="506.07,89.68 511.29,93.16 517.15,97.12 522.36,100.67 526.27,103.36 528.23,104.70 534.09,108.77 539.30,112.41 544.52,116.07 550.38,120.22 555.59,123.92 561.46,128.10 566.67,131.83 571.88,135.56 577.75,139.76 582.96,143.48 588.82,147.64 594.04,151.33 599.90,155.46 605.11,159.14 610.98,163.30 616.19,166.99 617.49,167.91 622.05,171.20 623.36,172.14 627.27,174.95 632.48,178.64 638.34,182.75 643.56,186.38 649.42,190.42 654.63,193.96 660.50,197.89 665.71,201.33 671.57,205.12 676.79,208.43 682.65,212.07 684.61,213.26 687.21,214.84 687.86,215.23 690.47,216.78 693.08,218.31 698.94,221.67 704.15,224.55 710.02,227.67 715.23,230.33 721.09,233.18 723.05,234.09 726.31,235.57 728.91,236.72 730.22,237.28 732.17,238.10 734.13,238.91 736.08,239.69 737.38,240.20 740.64,241.43 742.60,242.13 748.46,244.11 752.37,245.31 753.67,245.69 754.98,246.06 756.28,246.41 759.54,247.26 762.80,248.03 764.10,248.33 765.40,248.61 766.71,248.89 767.36,249.02 768.01,249.15 768.66,249.28 769.31,249.41 769.96,249.53 770.61,249.66 775.83,250.56 777.13,250.76 777.78,250.85 778.43,250.94 779.09,251.03 779.74,251.10 780.39,251.18 781.04,251.24 781.69,251.29 782.34,251.34 782.99,251.38 783.65,251.41 784.30,251.43 784.95,251.43 786.90,251.43 792.77,251.43 797.98,251.43 803.19,251.43 809.06,251.43 814.27,251.43 820.13,251.43 825.35,251.43 831.21,251.43 836.42,251.43 842.29,251.43 847.50,251.43 853.36,251.43 857.93,251.43"/>
<polyline fill="none" stroke="#1f77b4" stroke-width="1.1" stroke-dasharray="6 4" points="492.00,321.73 496.81,318.84 501.62,315.95 506.43,313.05 511.24,310.16 516.05,307.26 520.86,304.37 525.67,301.48 530.48,298.58 535.29,295.69 540.10,292.79 544.91,289.90 549.72,287.01 554.53,284.11 559.34,281.22 564.15,278.32 568.96,275.43 573.77,272.53 578.58,269.64 583.39,266.75 588.20,263.85 593.01,260.96 597.82,258.06 602.63,255.17 607.44,252.28 612.25,249.38 617.06,246.49 621.87,243.59 626.68,240.70 631.49,237.81 636.30,234.91 641.11,232.02 645.92,229.12 650.73,226.23 655.54,223.34 660.35,220.44 665.16,217.55 669.97,214.65 674.78,211.76 679.59,208.87 684.41,205.97 689.22,203.08 694.03,200.18 698.84,197.29 703.65,194.40 708.46,191.50 713.27,188.61 718.08,185.71 722.89,182.82 727.70,179.93 732.51,177.03 737.32,174.14 742.13,171.24 746.94,168.35 751.75,165.46 756.56,162.56 761.37,159.67 766.18,156.77 770.99,153.88 775.80,150.98 780.61,148.09 785.42,145.20 790.23,142.30 795.04,139.41 799.85,136.51 804.66,133.62 809.47,130.73 814.28,127.83 819.09,124.94 823.90,122.04 828.71,119.15 833.52,116.26 838.33,113.36 843.14,110.47 847.95,107.57 852.76,104.68 857.57,101.79 862.38,98.89 867.19,96.00 872.00,93.10"/>
<circle cx="687.37" cy="204.19" r="4.6" fill="#ffffff" stroke="#1f77b4" stroke-width="2"/>
<text x="693.37" y="198.19" font-family="Arial, sans-serif" font-size="10" fill="#1f77b4">typ 60.1 ohm</text>
<polyline fill="none" stroke="#ff7f0e" stroke-width="1.1" stroke-dasharray="6 4" points="492.00,314.68 496.81,311.78 501.62,308.89 506.43,306.00 511.24,303.10 516.05,300.21 520.86,297.31 525.67,294.42 530.48,291.52 535.29,288.63 540.10,285.74 544.91,282.84 549.72,279.95 554.53,277.05 559.34,274.16 564.15,271.27 568.96,268.37 573.77,265.48 578.58,262.58 583.39,259.69 588.20,256.80 593.01,253.90 597.82,251.01 602.63,248.11 607.44,245.22 612.25,242.33 617.06,239.43 621.87,236.54 626.68,233.64 631.49,230.75 636.30,227.86 641.11,224.96 645.92,222.07 650.73,219.17 655.54,216.28 660.35,213.39 665.16,210.49 669.97,207.60 674.78,204.70 679.59,201.81 684.41,198.92 689.22,196.02 694.03,193.13 698.84,190.23 703.65,187.34 708.46,184.45 713.27,181.55 718.08,178.66 722.89,175.76 727.70,172.87 732.51,169.97 737.32,167.08 742.13,164.19 746.94,161.29 751.75,158.40 756.56,155.50 761.37,152.61 766.18,149.72 770.99,146.82 775.80,143.93 780.61,141.03 785.42,138.14 790.23,135.25 795.04,132.35 799.85,129.46 804.66,126.56 809.47,123.67 814.28,120.78 819.09,117.88 823.90,114.99 828.71,112.09 833.52,109.20 838.33,106.31 843.14,103.41 847.95,100.52 852.76,97.62 857.57,94.73 862.38,91.84 867.19,88.94 872.00,86.05"/>
<circle cx="690.46" cy="195.27" r="4.6" fill="#ffffff" stroke="#ff7f0e" stroke-width="2"/>
<text x="696.46" y="189.27" font-family="Arial, sans-serif" font-size="10" fill="#ff7f0e">min 87.2 ohm</text>
<polyline fill="none" stroke="#2ca02c" stroke-width="1.1" stroke-dasharray="6 4" points="492.00,328.79 496.81,325.90 501.62,323.00 506.43,320.11 511.24,317.21 516.05,314.32 520.86,311.43 525.67,308.53 530.48,305.64 535.29,302.74 540.10,299.85 544.91,296.96 549.72,294.06 554.53,291.17 559.34,288.27 564.15,285.38 568.96,282.49 573.77,279.59 578.58,276.70 583.39,273.80 588.20,270.91 593.01,268.02 597.82,265.12 602.63,262.23 607.44,259.33 612.25,256.44 617.06,253.54 621.87,250.65 626.68,247.76 631.49,244.86 636.30,241.97 641.11,239.07 645.92,236.18 650.73,233.29 655.54,230.39 660.35,227.50 665.16,224.60 669.97,221.71 674.78,218.82 679.59,215.92 684.41,213.03 689.22,210.13 694.03,207.24 698.84,204.35 703.65,201.45 708.46,198.56 713.27,195.66 718.08,192.77 722.89,189.88 727.70,186.98 732.51,184.09 737.32,181.19 742.13,178.30 746.94,175.41 751.75,172.51 756.56,169.62 761.37,166.72 766.18,163.83 770.99,160.94 775.80,158.04 780.61,155.15 785.42,152.25 790.23,149.36 795.04,146.47 799.85,143.57 804.66,140.68 809.47,137.78 814.28,134.89 819.09,131.99 823.90,129.10 828.71,126.21 833.52,123.31 838.33,120.42 843.14,117.52 847.95,114.63 852.76,111.74 857.57,108.84 862.38,105.95 867.19,103.05 872.00,100.16"/>
<circle cx="684.31" cy="213.08" r="4.6" fill="#ffffff" stroke="#2ca02c" stroke-width="2"/>
<text x="690.31" y="207.08" font-family="Arial, sans-serif" font-size="10" fill="#2ca02c">max 44.8 ohm</text>
<line x1="502.00" y1="80.00" x2="524.00" y2="80.00" stroke="#1f77b4" stroke-width="2"/>
<text x="530.00" y="84.00" font-family="Arial, sans-serif" font-size="11">typ</text>
<line x1="502.00" y1="97.00" x2="524.00" y2="97.00" stroke="#ff7f0e" stroke-width="2" stroke-dasharray="5 4"/>
<text x="530.00" y="101.00" font-family="Arial, sans-serif" font-size="11">min</text>
<line x1="502.00" y1="114.00" x2="524.00" y2="114.00" stroke="#2ca02c" stroke-width="2" stroke-dasharray="2 4"/>
<text x="530.00" y="118.00" font-family="Arial, sans-serif" font-size="11">max</text>
<text x="682.00" y="386.00" text-anchor="middle" font-family="Arial, sans-serif" font-size="11">Vcc-relative table voltage (V)</text>
<text transform="translate(442.00 205.00) rotate(-90)" text-anchor="middle" font-family="Arial, sans-serif" font-size="11">Current (mA)</text>
<rect x="72.00" y="418.00" width="800.00" height="144.00" fill="#ffffff" stroke="#c8c8c8"/>
<text x="82.00" y="436.00" font-family="Arial, sans-serif" font-size="12" font-weight="700">Operating-point summary</text>
<text x="82.00" y="454.00" font-family="Arial, sans-serif" font-size="10" font-weight="700" fill="#333">Table</text>
<text x="174.00" y="454.00" font-family="Arial, sans-serif" font-size="10" font-weight="700" fill="#333">Corner</text>
<text x="242.00" y="454.00" font-family="Arial, sans-serif" font-size="10" font-weight="700" fill="#333">Vout</text>
<text x="332.00" y="454.00" font-family="Arial, sans-serif" font-size="10" font-weight="700" fill="#333">Iop</text>
<text x="422.00" y="454.00" font-family="Arial, sans-serif" font-size="10" font-weight="700" fill="#333">Zout</text>
<text x="512.00" y="454.00" font-family="Arial, sans-serif" font-size="10" font-weight="700" fill="#333">Rseries</text>
<text x="82.00" y="473.00" font-family="Arial, sans-serif" font-size="10" fill="#1f77b4">pulldown</text>
<text x="174.00" y="473.00" font-family="Arial, sans-serif" font-size="10" fill="#1f77b4">typ</text>
<text x="242.00" y="473.00" font-family="Arial, sans-serif" font-size="10" fill="#1f77b4">0.9597 V</text>
<text x="332.00" y="473.00" font-family="Arial, sans-serif" font-size="10" fill="#1f77b4">17 mA</text>
<text x="422.00" y="473.00" font-family="Arial, sans-serif" font-size="10" fill="#1f77b4">57.1 ohm</text>
<text x="512.00" y="473.00" font-family="Arial, sans-serif" font-size="10" fill="#1f77b4">-7.11 ohm</text>
<text x="82.00" y="492.00" font-family="Arial, sans-serif" font-size="10" fill="#ff7f0e">pulldown</text>
<text x="174.00" y="492.00" font-family="Arial, sans-serif" font-size="10" fill="#ff7f0e">min</text>
<text x="242.00" y="492.00" font-family="Arial, sans-serif" font-size="10" fill="#ff7f0e">1.02 V</text>
<text x="332.00" y="492.00" font-family="Arial, sans-serif" font-size="10" fill="#ff7f0e">12 mA</text>
<text x="422.00" y="492.00" font-family="Arial, sans-serif" font-size="10" fill="#ff7f0e">85.1 ohm</text>
<text x="512.00" y="492.00" font-family="Arial, sans-serif" font-size="10" fill="#ff7f0e">-35.1 ohm</text>
<text x="82.00" y="511.00" font-family="Arial, sans-serif" font-size="10" fill="#2ca02c">pulldown</text>
<text x="174.00" y="511.00" font-family="Arial, sans-serif" font-size="10" fill="#2ca02c">max</text>
<text x="242.00" y="511.00" font-family="Arial, sans-serif" font-size="10" fill="#2ca02c">0.9107 V</text>
<text x="332.00" y="511.00" font-family="Arial, sans-serif" font-size="10" fill="#2ca02c">21 mA</text>
<text x="422.00" y="511.00" font-family="Arial, sans-serif" font-size="10" fill="#2ca02c">42.6 ohm</text>
<text x="512.00" y="511.00" font-family="Arial, sans-serif" font-size="10" fill="#2ca02c">7.42 ohm</text>
<text x="82.00" y="530.00" font-family="Arial, sans-serif" font-size="10" fill="#1f77b4">pullup</text>
<text x="174.00" y="530.00" font-family="Arial, sans-serif" font-size="10" fill="#1f77b4">typ</text>
<text x="242.00" y="530.00" font-family="Arial, sans-serif" font-size="10" fill="#1f77b4">0.8176 V</text>
<text x="332.00" y="530.00" font-family="Arial, sans-serif" font-size="10" fill="#1f77b4">-16 mA</text>
<text x="422.00" y="530.00" font-family="Arial, sans-serif" font-size="10" fill="#1f77b4">60.1 ohm</text>
<text x="512.00" y="530.00" font-family="Arial, sans-serif" font-size="10" fill="#1f77b4">-10.1 ohm</text>
<text x="82.00" y="549.00" font-family="Arial, sans-serif" font-size="10" fill="#ff7f0e">pullup</text>
<text x="174.00" y="549.00" font-family="Arial, sans-serif" font-size="10" fill="#ff7f0e">min</text>
<text x="242.00" y="549.00" font-family="Arial, sans-serif" font-size="10" fill="#ff7f0e">0.5902 V</text>
<text x="332.00" y="549.00" font-family="Arial, sans-serif" font-size="10" fill="#ff7f0e">-12 mA</text>
<text x="422.00" y="549.00" font-family="Arial, sans-serif" font-size="10" fill="#ff7f0e">87.2 ohm</text>
<text x="512.00" y="549.00" font-family="Arial, sans-serif" font-size="10" fill="#ff7f0e">-37.2 ohm</text>
<text x="82.00" y="568.00" font-family="Arial, sans-serif" font-size="10" fill="#2ca02c">pullup</text>
<text x="174.00" y="568.00" font-family="Arial, sans-serif" font-size="10" fill="#2ca02c">max</text>
<text x="242.00" y="568.00" font-family="Arial, sans-serif" font-size="10" fill="#2ca02c">1.045 V</text>
<text x="332.00" y="568.00" font-family="Arial, sans-serif" font-size="10" fill="#2ca02c">-21 mA</text>
<text x="422.00" y="568.00" font-family="Arial, sans-serif" font-size="10" fill="#2ca02c">44.8 ohm</text>
<text x="512.00" y="568.00" font-family="Arial, sans-serif" font-size="10" fill="#2ca02c">5.219 ohm</text>
</svg>