<svg xmlns="http://www.w3.org/2000/svg" width="900" height="620" viewBox="0 0 900 620">
<rect width="100%" height="100%" fill="#ffffff"/>
<text x="72" y="26" font-family="Arial, sans-serif" font-size="16" font-weight="700">E34_GPIO_SPI_I3C_MST_1V1_01 Zout Load-Line Curves</text>
<text x="72" y="45" font-family="Arial, sans-serif" font-size="11" fill="#555">Rload=50 ohm; solid=device I-V, dashed=load line, circles=operating points</text>
<rect x="72.00" y="62.00" width="380.00" height="286.00" fill="#fbfbfb" stroke="#c8c8c8"/>
<text x="80.00" y="50.00" font-family="Arial, sans-serif" font-size="13" font-weight="700">[Pulldown] Rload to Vdd</text>
<line x1="72.00" y1="62.00" x2="72.00" y2="348.00" stroke="#ececec"/>
<text x="72.00" y="366.00" text-anchor="middle" font-family="Arial, sans-serif" font-size="10">-1.2</text>
<line x1="167.00" y1="62.00" x2="167.00" y2="348.00" stroke="#ececec"/>
<text x="167.00" y="366.00" text-anchor="middle" font-family="Arial, sans-serif" font-size="10">-0.341</text>
<line x1="262.00" y1="62.00" x2="262.00" y2="348.00" stroke="#ececec"/>
<text x="262.00" y="366.00" text-anchor="middle" font-family="Arial, sans-serif" font-size="10">0.55</text>
<line x1="357.00" y1="62.00" x2="357.00" y2="348.00" stroke="#ececec"/>
<text x="357.00" y="366.00" text-anchor="middle" font-family="Arial, sans-serif" font-size="10">1.4</text>
<line x1="452.00" y1="62.00" x2="452.00" y2="348.00" stroke="#ececec"/>
<text x="452.00" y="366.00" text-anchor="middle" font-family="Arial, sans-serif" font-size="10">2.3</text>
<line x1="72.00" y1="348.00" x2="452.00" y2="348.00" stroke="#ececec"/>
<text x="65.00" y="352.00" text-anchor="end" font-family="Arial, sans-serif" font-size="10">-52</text>
<line x1="72.00" y1="276.50" x2="452.00" y2="276.50" stroke="#ececec"/>
<text x="65.00" y="280.50" text-anchor="end" font-family="Arial, sans-serif" font-size="10">-25</text>
<line x1="72.00" y1="205.00" x2="452.00" y2="205.00" stroke="#ececec"/>
<text x="65.00" y="209.00" text-anchor="end" font-family="Arial, sans-serif" font-size="10">2.5</text>
<line x1="72.00" y1="133.50" x2="452.00" y2="133.50" stroke="#ececec"/>
<text x="65.00" y="137.50" text-anchor="end" font-family="Arial, sans-serif" font-size="10">30</text>
<line x1="72.00" y1="62.00" x2="452.00" y2="62.00" stroke="#ececec"/>
<text x="65.00" y="66.00" text-anchor="end" font-family="Arial, sans-serif" font-size="10">57</text>
<line x1="203.36" y1="62" x2="203.36" y2="348" stroke="#777" stroke-dasharray="4 4"/>
<line x1="72.0" y1="211.50" x2="452.0" y2="211.50" stroke="#777" stroke-dasharray="4 4"/>
<polyline fill="none" stroke="#1f77b4" stroke-width="1.8" points="86.07,290.73 91.41,290.73 96.74,290.73 103.13,290.73 108.46,290.73 110.60,290.73 111.66,290.73 112.73,290.73 113.80,290.73 114.86,290.73 115.93,290.62 116.99,290.43 118.06,290.16 119.13,289.84 120.19,289.48 121.26,289.09 122.33,288.66 123.39,288.21 124.46,287.74 125.52,287.25 129.79,285.06 136.19,281.11 138.32,279.61 139.38,278.82 140.45,278.01 141.52,277.17 142.58,276.31 143.65,275.42 144.72,274.51 145.78,273.58 146.85,272.62 147.91,271.64 148.98,270.63 150.05,269.61 151.11,268.56 152.18,267.49 157.51,261.89 162.84,255.93 169.24,248.53 174.57,242.32 179.90,236.17 185.23,230.14 190.56,224.30 195.89,218.73 202.29,212.49 203.36,211.50 207.62,207.73 212.95,203.44 218.29,199.64 223.62,196.37 224.68,195.78 226.81,194.67 228.95,193.65 231.08,192.71 232.15,192.27 233.21,191.86 235.34,191.09 240.68,189.54 246.01,188.46 247.07,188.29 251.34,187.74 256.67,187.26 263.07,186.85 268.40,186.57 270.53,186.47 273.73,186.32 279.06,186.09 283.32,185.92 284.39,185.88 289.72,185.69 296.12,185.47 301.45,185.29 306.78,185.12 308.91,185.06 312.11,184.96 317.44,184.81 320.64,184.71 322.77,184.65 329.17,184.48 332.37,184.39 334.50,184.33 339.83,184.19 345.16,184.06 350.50,183.92 355.83,183.78 362.22,183.59 367.56,183.39 372.89,183.08 378.22,182.60 383.55,181.90 388.88,180.93 395.28,179.35 400.61,177.67 405.94,175.64 411.27,173.27 416.60,170.59 421.93,167.60 428.33,163.65 433.66,160.07 437.93,157.04"/>
<polyline fill="none" stroke="#ff7f0e" stroke-width="1.8" stroke-dasharray="5 4" points="86.07,261.79 91.41,261.79 96.74,261.79 103.13,261.79 108.46,261.79 110.60,261.79 111.66,261.79 112.73,261.79 113.80,261.79 114.86,261.79 115.93,261.79 116.99,261.79 118.06,261.79 119.13,261.79 120.19,261.79 121.26,261.78 122.33,261.67 123.39,261.49 124.46,261.25 125.52,260.96 129.79,259.45 136.19,256.53 138.32,255.43 139.38,254.86 140.45,254.27 141.52,253.67 142.58,253.05 143.65,252.42 144.72,251.77 145.78,251.12 146.85,250.45 147.91,249.76 148.98,249.07 150.05,248.36 151.11,247.64 152.18,246.91 157.51,243.11 162.84,239.12 169.24,234.23 174.57,230.17 179.90,226.23 185.23,222.46 190.56,218.92 195.89,215.63 202.29,212.06 203.36,211.50 207.62,209.42 212.95,207.09 218.29,205.09 223.62,203.41 224.68,203.11 226.81,202.56 228.95,202.06 231.08,201.60 232.15,201.40 233.21,201.20 235.34,200.85 240.68,200.16 246.01,199.72 247.07,199.65 251.34,199.44 256.67,199.25 263.07,199.07 268.40,198.94 270.53,198.89 273.73,198.82 279.06,198.71 283.32,198.63 284.39,198.61 289.72,198.52 296.12,198.41 301.45,198.32 306.78,198.24 308.91,198.21 312.11,198.16 317.44,198.08 320.64,198.04 322.77,198.01 329.17,197.92 332.37,197.87 334.50,197.84 339.83,197.76 345.16,197.65 350.50,197.51 355.83,197.30 362.22,196.91 367.56,196.43 372.89,195.79 378.22,194.96 383.55,193.92 388.88,192.68 395.28,190.91 400.61,189.19 405.94,187.27 411.27,185.13 416.60,182.82 421.93,180.49 428.33,177.69 433.66,175.36 437.93,173.49"/>
<polyline fill="none" stroke="#2ca02c" stroke-width="1.8" stroke-dasharray="2 4" points="86.07,320.32 91.41,320.32 96.74,320.32 103.13,320.32 108.46,320.32 110.60,320.32 111.66,320.21 112.73,320.01 113.80,319.75 114.86,319.44 115.93,319.11 116.99,318.75 118.06,318.37 119.13,317.97 120.19,317.55 121.26,317.11 122.33,316.65 123.39,316.18 124.46,315.68 125.52,315.16 129.79,312.86 136.19,308.58 138.32,306.89 139.38,306.00 140.45,305.06 141.52,304.09 142.58,303.09 143.65,302.04 144.72,300.95 145.78,299.83 146.85,298.67 147.91,297.47 148.98,296.23 150.05,294.95 151.11,293.64 152.18,292.29 157.51,285.07 162.84,277.20 169.24,267.19 174.57,258.56 179.90,249.77 185.23,240.89 190.56,232.02 195.89,223.27 202.29,213.14 203.36,211.50 207.62,205.17 212.95,197.80 218.29,191.12 223.62,185.24 224.68,184.16 226.81,182.11 228.95,180.20 231.08,178.43 232.15,177.59 233.21,176.79 235.34,175.29 240.68,172.12 246.01,169.72 247.07,169.33 251.34,168.01 256.67,166.80 263.07,165.81 268.40,165.20 270.53,164.99 273.73,164.70 279.06,164.27 283.32,163.95 284.39,163.88 289.72,163.52 296.12,163.12 301.45,162.81 306.78,162.52 308.91,162.40 312.11,162.24 317.44,161.96 320.64,161.80 322.77,161.70 329.17,161.39 332.37,161.25 334.50,161.15 339.83,160.91 345.16,160.67 350.50,160.44 355.83,160.21 362.22,159.94 367.56,159.72 372.89,159.49 378.22,159.22 383.55,158.85 388.88,158.28 395.28,157.19 400.61,155.83 405.94,153.98 411.27,151.62 416.60,148.76 421.93,145.42 428.33,140.88 433.66,136.70 437.93,133.14"/>
<polyline fill="none" stroke="#1f77b4" stroke-width="1.1" stroke-dasharray="6 4" points="72.00,88.52 76.81,90.90 81.62,93.28 86.43,95.65 91.24,98.03 96.05,100.41 100.86,102.79 105.67,105.17 110.48,107.55 115.29,109.93 120.10,112.31 124.91,114.69 129.72,117.07 134.53,119.45 139.34,121.83 144.15,124.21 148.96,126.59 153.77,128.96 158.58,131.34 163.39,133.72 168.20,136.10 173.01,138.48 177.82,140.86 182.63,143.24 187.44,145.62 192.25,148.00 197.06,150.38 201.87,152.76 206.68,155.14 211.49,157.52 216.30,159.89 221.11,162.27 225.92,164.65 230.73,167.03 235.54,169.41 240.35,171.79 245.16,174.17 249.97,176.55 254.78,178.93 259.59,181.31 264.41,183.69 269.22,186.07 274.03,188.45 278.84,190.83 283.65,193.20 288.46,195.58 293.27,197.96 298.08,200.34 302.89,202.72 307.70,205.10 312.51,207.48 317.32,209.86 322.13,212.24 326.94,214.62 331.75,217.00 336.56,219.38 341.37,221.76 346.18,224.13 350.99,226.51 355.80,228.89 360.61,231.27 365.42,233.65 370.23,236.03 375.04,238.41 379.85,240.79 384.66,243.17 389.47,245.55 394.28,247.93 399.09,250.31 403.90,252.69 408.71,255.06 413.52,257.44 418.33,259.82 423.14,262.20 427.95,264.58 432.76,266.96 437.57,269.34 442.38,271.72 447.19,274.10 452.00,276.48"/>
<circle cx="270.07" cy="186.49" r="4.6" fill="#ffffff" stroke="#1f77b4" stroke-width="2"/>
<text x="276.07" y="180.49" font-family="Arial, sans-serif" font-size="10" fill="#1f77b4">typ 66 ohm</text>
<polyline fill="none" stroke="#ff7f0e" stroke-width="1.1" stroke-dasharray="6 4" points="72.00,94.32 76.81,96.70 81.62,99.08 86.43,101.46 91.24,103.84 96.05,106.21 100.86,108.59 105.67,110.97 110.48,113.35 115.29,115.73 120.10,118.11 124.91,120.49 129.72,122.87 134.53,125.25 139.34,127.63 144.15,130.01 148.96,132.39 153.77,134.77 158.58,137.14 163.39,139.52 168.20,141.90 173.01,144.28 177.82,146.66 182.63,149.04 187.44,151.42 192.25,153.80 197.06,156.18 201.87,158.56 206.68,160.94 211.49,163.32 216.30,165.70 221.11,168.08 225.92,170.45 230.73,172.83 235.54,175.21 240.35,177.59 245.16,179.97 249.97,182.35 254.78,184.73 259.59,187.11 264.41,189.49 269.22,191.87 274.03,194.25 278.84,196.63 283.65,199.01 288.46,201.38 293.27,203.76 298.08,206.14 302.89,208.52 307.70,210.90 312.51,213.28 317.32,215.66 322.13,218.04 326.94,220.42 331.75,222.80 336.56,225.18 341.37,227.56 346.18,229.94 350.99,232.32 355.80,234.69 360.61,237.07 365.42,239.45 370.23,241.83 375.04,244.21 379.85,246.59 384.66,248.97 389.47,251.35 394.28,253.73 399.09,256.11 403.90,258.49 408.71,260.87 413.52,263.25 418.33,265.62 423.14,268.00 427.95,270.38 432.76,272.76 437.57,275.14 442.38,277.52 447.19,279.90 452.00,282.28"/>
<circle cx="282.91" cy="198.64" r="4.6" fill="#ffffff" stroke="#ff7f0e" stroke-width="2"/>
<text x="288.91" y="192.64" font-family="Arial, sans-serif" font-size="10" fill="#ff7f0e">min 153 ohm</text>
<polyline fill="none" stroke="#2ca02c" stroke-width="1.1" stroke-dasharray="6 4" points="72.00,82.72 76.81,85.10 81.62,87.47 86.43,89.85 91.24,92.23 96.05,94.61 100.86,96.99 105.67,99.37 110.48,101.75 115.29,104.13 120.10,106.51 124.91,108.89 129.72,111.27 134.53,113.65 139.34,116.03 144.15,118.40 148.96,120.78 153.77,123.16 158.58,125.54 163.39,127.92 168.20,130.30 173.01,132.68 177.82,135.06 182.63,137.44 187.44,139.82 192.25,142.20 197.06,144.58 201.87,146.96 206.68,149.33 211.49,151.71 216.30,154.09 221.11,156.47 225.92,158.85 230.73,161.23 235.54,163.61 240.35,165.99 245.16,168.37 249.97,170.75 254.78,173.13 259.59,175.51 264.41,177.89 269.22,180.27 274.03,182.64 278.84,185.02 283.65,187.40 288.46,189.78 293.27,192.16 298.08,194.54 302.89,196.92 307.70,199.30 312.51,201.68 317.32,204.06 322.13,206.44 326.94,208.82 331.75,211.20 336.56,213.57 341.37,215.95 346.18,218.33 350.99,220.71 355.80,223.09 360.61,225.47 365.42,227.85 370.23,230.23 375.04,232.61 379.85,234.99 384.66,237.37 389.47,239.75 394.28,242.13 399.09,244.51 403.90,246.88 408.71,249.26 413.52,251.64 418.33,254.02 423.14,256.40 427.95,258.78 432.76,261.16 437.57,263.54 442.38,265.92 447.19,268.30 452.00,270.68"/>
<circle cx="247.10" cy="169.32" r="4.6" fill="#ffffff" stroke="#2ca02c" stroke-width="2"/>
<text x="253.10" y="163.32" font-family="Arial, sans-serif" font-size="10" fill="#2ca02c">max 25.6 ohm</text>
<line x1="82.00" y1="80.00" x2="104.00" y2="80.00" stroke="#1f77b4" stroke-width="2"/>
<text x="110.00" y="84.00" font-family="Arial, sans-serif" font-size="11">typ</text>
<line x1="82.00" y1="97.00" x2="104.00" y2="97.00" stroke="#ff7f0e" stroke-width="2" stroke-dasharray="5 4"/>
<text x="110.00" y="101.00" font-family="Arial, sans-serif" font-size="11">min</text>
<line x1="82.00" y1="114.00" x2="104.00" y2="114.00" stroke="#2ca02c" stroke-width="2" stroke-dasharray="2 4"/>
<text x="110.00" y="118.00" font-family="Arial, sans-serif" font-size="11">max</text>
<text x="262.00" y="386.00" text-anchor="middle" font-family="Arial, sans-serif" font-size="11">Output voltage (V)</text>
<text transform="translate(22.00 205.00) rotate(-90)" text-anchor="middle" font-family="Arial, sans-serif" font-size="11">Current (mA)</text>
<rect x="492.00" y="62.00" width="380.00" height="286.00" fill="#fbfbfb" stroke="#c8c8c8"/>
<text x="500.00" y="50.00" font-family="Arial, sans-serif" font-size="13" font-weight="700">[Pullup] Rload to GND</text>
<line x1="492.00" y1="62.00" x2="492.00" y2="348.00" stroke="#ececec"/>
<text x="492.00" y="366.00" text-anchor="middle" font-family="Arial, sans-serif" font-size="10">-1.2</text>
<line x1="587.00" y1="62.00" x2="587.00" y2="348.00" stroke="#ececec"/>
<text x="587.00" y="366.00" text-anchor="middle" font-family="Arial, sans-serif" font-size="10">-0.341</text>
<line x1="682.00" y1="62.00" x2="682.00" y2="348.00" stroke="#ececec"/>
<text x="682.00" y="366.00" text-anchor="middle" font-family="Arial, sans-serif" font-size="10">0.55</text>
<line x1="777.00" y1="62.00" x2="777.00" y2="348.00" stroke="#ececec"/>
<text x="777.00" y="366.00" text-anchor="middle" font-family="Arial, sans-serif" font-size="10">1.4</text>
<line x1="872.00" y1="62.00" x2="872.00" y2="348.00" stroke="#ececec"/>
<text x="872.00" y="366.00" text-anchor="middle" font-family="Arial, sans-serif" font-size="10">2.3</text>
<line x1="492.00" y1="348.00" x2="872.00" y2="348.00" stroke="#ececec"/>
<text x="485.00" y="352.00" text-anchor="end" font-family="Arial, sans-serif" font-size="10">-58</text>
<line x1="492.00" y1="276.50" x2="872.00" y2="276.50" stroke="#ececec"/>
<text x="485.00" y="280.50" text-anchor="end" font-family="Arial, sans-serif" font-size="10">-27</text>
<line x1="492.00" y1="205.00" x2="872.00" y2="205.00" stroke="#ececec"/>
<text x="485.00" y="209.00" text-anchor="end" font-family="Arial, sans-serif" font-size="10">3.6</text>
<line x1="492.00" y1="133.50" x2="872.00" y2="133.50" stroke="#ececec"/>
<text x="485.00" y="137.50" text-anchor="end" font-family="Arial, sans-serif" font-size="10">34</text>
<line x1="492.00" y1="62.00" x2="872.00" y2="62.00" stroke="#ececec"/>
<text x="485.00" y="66.00" text-anchor="end" font-family="Arial, sans-serif" font-size="10">65</text>
<line x1="623.36" y1="62" x2="623.36" y2="348" stroke="#777" stroke-dasharray="4 4"/>
<line x1="492.0" y1="213.35" x2="872.0" y2="213.35" stroke="#777" stroke-dasharray="4 4"/>
<polyline fill="none" stroke="#1f77b4" stroke-width="1.8" points="506.07,118.85 511.41,124.13 516.74,129.34 523.13,135.49 528.46,140.53 533.80,145.48 539.13,150.34 544.46,155.11 549.79,159.78 556.19,165.25 561.52,169.70 566.85,174.04 572.18,178.28 577.51,182.41 582.84,186.44 589.24,191.14 594.57,194.94 599.90,198.62 605.23,202.19 610.56,205.63 613.76,207.62 614.83,208.27 622.29,212.73 623.36,213.35 627.62,215.70 631.89,217.84 632.95,218.34 634.02,218.83 638.29,220.68 643.62,222.73 648.95,224.49 655.34,226.21 660.68,227.30 666.01,228.12 671.34,228.72 676.67,229.15 683.07,229.54 684.13,229.60 688.40,229.81 693.73,230.04 699.06,230.25 701.19,230.33 702.26,230.37 704.39,230.44 707.59,230.55 709.72,230.61 716.12,230.81 721.45,230.96 726.78,231.10 728.91,231.15 732.11,231.23 737.44,231.36 740.64,231.43 742.77,231.48 749.17,231.62 752.37,231.69 754.50,231.73 759.83,231.84 765.16,231.95 770.50,232.05 773.69,232.11 774.76,232.13 782.22,232.26 787.56,232.35 792.89,232.44 798.22,232.53 800.35,232.57 801.42,232.59 802.48,232.60 803.55,232.62 804.62,232.64 805.68,232.65 806.75,232.67 807.81,232.69 808.88,232.71 809.95,232.72 811.01,232.74 812.08,232.76 813.14,232.77 814.21,232.79 815.28,232.81 816.34,232.82 817.41,232.84 818.48,232.86 819.54,232.87 820.61,232.89 821.67,232.90 823.81,232.94 825.94,232.97 828.07,233.00 831.27,233.05 836.60,233.11 840.87,233.11 841.93,233.11 843.00,233.11 844.07,233.11 845.13,233.11 848.33,233.11 853.66,233.11 857.93,233.11"/>
<polyline fill="none" stroke="#ff7f0e" stroke-width="1.8" stroke-dasharray="5 4" points="506.07,147.39 511.41,151.33 516.74,155.26 523.13,159.95 528.46,163.74 533.80,167.44 539.13,171.03 544.46,174.52 549.79,177.89 556.19,181.81 561.52,184.94 566.85,187.97 572.18,190.88 577.51,193.68 582.84,196.37 589.24,199.45 594.57,201.90 599.90,204.25 605.23,206.48 610.56,208.60 613.76,209.83 614.83,210.24 622.29,212.98 623.36,213.35 627.62,214.76 631.89,216.02 632.95,216.31 634.02,216.59 638.29,217.63 643.62,218.75 648.95,219.68 655.34,220.52 660.68,221.02 666.01,221.36 671.34,221.60 676.67,221.77 683.07,221.93 684.13,221.95 688.40,222.04 693.73,222.15 699.06,222.24 701.19,222.28 702.26,222.29 704.39,222.33 707.59,222.38 709.72,222.41 716.12,222.50 721.45,222.57 726.78,222.63 728.91,222.66 732.11,222.70 737.44,222.76 740.64,222.80 742.77,222.82 749.17,222.89 752.37,222.92 754.50,222.94 759.83,222.99 765.16,223.04 770.50,223.09 773.69,223.12 774.76,223.13 782.22,223.20 787.56,223.25 792.89,223.29 798.22,223.33 800.35,223.35 801.42,223.36 802.48,223.37 803.55,223.38 804.62,223.39 805.68,223.40 806.75,223.40 807.81,223.41 808.88,223.42 809.95,223.43 811.01,223.44 812.08,223.45 813.14,223.46 814.21,223.47 815.28,223.49 816.34,223.49 817.41,223.49 818.48,223.49 819.54,223.49 820.61,223.49 821.67,223.49 823.81,223.49 825.94,223.49 828.07,223.49 831.27,223.49 836.60,223.49 840.87,223.49 841.93,223.49 843.00,223.49 844.07,223.49 845.13,223.49 848.33,223.49 853.66,223.49 857.93,223.49"/>
<polyline fill="none" stroke="#2ca02c" stroke-width="1.8" stroke-dasharray="2 4" points="506.07,89.68 511.41,95.77 516.74,101.83 523.13,109.05 528.46,115.03 533.80,120.96 539.13,126.85 544.46,132.68 549.79,138.45 556.19,145.31 561.52,150.96 566.85,156.57 572.18,162.14 577.51,167.68 582.84,173.19 589.24,179.75 594.57,185.19 599.90,190.59 605.23,195.93 610.56,201.12 613.76,204.07 614.83,205.08 622.29,212.35 623.36,213.35 627.62,217.22 631.89,220.83 632.95,221.67 634.02,222.48 638.29,225.49 643.62,229.01 648.95,232.13 655.34,235.32 660.68,237.50 666.01,239.27 671.34,240.66 676.67,241.74 683.07,242.74 684.13,242.88 688.40,243.39 693.73,243.93 699.06,244.39 701.19,244.56 702.26,244.64 704.39,244.64 707.59,244.64 709.72,244.64 716.12,244.64 721.45,244.64 726.78,244.64 728.91,244.64 732.11,244.64 737.44,244.64 740.64,244.64 742.77,244.64 749.17,244.64 752.37,244.64 754.50,244.64 759.83,244.64 765.16,244.64 770.50,244.64 773.69,244.64 774.76,245.39 782.22,256.20 787.56,263.74 792.89,271.04 798.22,277.95 800.35,280.56 801.42,281.83 802.48,283.07 803.55,284.29 804.62,285.47 805.68,286.62 806.75,287.74 807.81,288.83 808.88,289.89 809.95,290.91 811.01,291.89 812.08,292.85 813.14,293.77 814.21,294.65 815.28,295.50 816.34,296.32 817.41,297.11 818.48,297.86 819.54,298.59 820.61,299.28 821.67,299.95 823.81,301.20 825.94,302.35 828.07,303.40 831.27,304.83 836.60,306.84 840.87,308.13 841.93,308.40 843.00,308.62 844.07,308.80 845.13,308.90 848.33,308.90 853.66,308.90 857.93,308.90"/>
<polyline fill="none" stroke="#1f77b4" stroke-width="1.1" stroke-dasharray="6 4" points="492.00,321.34 496.81,319.25 501.62,317.16 506.43,315.07 511.24,312.98 516.05,310.90 520.86,308.81 525.67,306.72 530.48,304.63 535.29,302.54 540.10,300.45 544.91,298.36 549.72,296.27 554.53,294.18 559.34,292.09 564.15,290.00 568.96,287.91 573.77,285.83 578.58,283.74 583.39,281.65 588.20,279.56 593.01,277.47 597.82,275.38 602.63,273.29 607.44,271.20 612.25,269.11 617.06,267.02 621.87,264.93 626.68,262.84 631.49,260.75 636.30,258.67 641.11,256.58 645.92,254.49 650.73,252.40 655.54,250.31 660.35,248.22 665.16,246.13 669.97,244.04 674.78,241.95 679.59,239.86 684.41,237.77 689.22,235.68 694.03,233.60 698.84,231.51 703.65,229.42 708.46,227.33 713.27,225.24 718.08,223.15 722.89,221.06 727.70,218.97 732.51,216.88 737.32,214.79 742.13,212.70 746.94,210.61 751.75,208.53 756.56,206.44 761.37,204.35 766.18,202.26 770.99,200.17 775.80,198.08 780.61,195.99 785.42,193.90 790.23,191.81 795.04,189.72 799.85,187.63 804.66,185.54 809.47,183.45 814.28,181.37 819.09,179.28 823.90,177.19 828.71,175.10 833.52,173.01 838.33,170.92 843.14,168.83 847.95,166.74 852.76,164.65 857.57,162.56 862.38,160.47 867.19,158.38 872.00,156.30"/>
<circle cx="701.52" cy="230.34" r="4.6" fill="#ffffff" stroke="#1f77b4" stroke-width="2"/>
<text x="707.52" y="224.34" font-family="Arial, sans-serif" font-size="10" fill="#1f77b4">typ 99.9 ohm</text>
<polyline fill="none" stroke="#ff7f0e" stroke-width="1.1" stroke-dasharray="6 4" points="492.00,316.25 496.81,314.16 501.62,312.07 506.43,309.98 511.24,307.89 516.05,305.80 520.86,303.71 525.67,301.62 530.48,299.53 535.29,297.44 540.10,295.36 544.91,293.27 549.72,291.18 554.53,289.09 559.34,287.00 564.15,284.91 568.96,282.82 573.77,280.73 578.58,278.64 583.39,276.55 588.20,274.46 593.01,272.37 597.82,270.29 602.63,268.20 607.44,266.11 612.25,264.02 617.06,261.93 621.87,259.84 626.68,257.75 631.49,255.66 636.30,253.57 641.11,251.48 645.92,249.39 650.73,247.30 655.54,245.21 660.35,243.13 665.16,241.04 669.97,238.95 674.78,236.86 679.59,234.77 684.41,232.68 689.22,230.59 694.03,228.50 698.84,226.41 703.65,224.32 708.46,222.23 713.27,220.14 718.08,218.06 722.89,215.97 727.70,213.88 732.51,211.79 737.32,209.70 742.13,207.61 746.94,205.52 751.75,203.43 756.56,201.34 761.37,199.25 766.18,197.16 770.99,195.07 775.80,192.99 780.61,190.90 785.42,188.81 790.23,186.72 795.04,184.63 799.85,182.54 804.66,180.45 809.47,178.36 814.28,176.27 819.09,174.18 823.90,172.09 828.71,170.00 833.52,167.91 838.33,165.83 843.14,163.74 847.95,161.65 852.76,159.56 857.57,157.47 862.38,155.38 867.19,153.29 872.00,151.20"/>
<circle cx="708.11" cy="222.38" r="4.6" fill="#ffffff" stroke="#ff7f0e" stroke-width="2"/>
<text x="714.11" y="216.38" font-family="Arial, sans-serif" font-size="10" fill="#ff7f0e">min 204 ohm</text>
<polyline fill="none" stroke="#2ca02c" stroke-width="1.1" stroke-dasharray="6 4" points="492.00,326.44 496.81,324.35 501.62,322.26 506.43,320.17 511.24,318.08 516.05,315.99 520.86,313.90 525.67,311.81 530.48,309.72 535.29,307.63 540.10,305.54 544.91,303.45 549.72,301.37 554.53,299.28 559.34,297.19 564.15,295.10 568.96,293.01 573.77,290.92 578.58,288.83 583.39,286.74 588.20,284.65 593.01,282.56 597.82,280.47 602.63,278.38 607.44,276.29 612.25,274.21 617.06,272.12 621.87,270.03 626.68,267.94 631.49,265.85 636.30,263.76 641.11,261.67 645.92,259.58 650.73,257.49 655.54,255.40 660.35,253.31 665.16,251.22 669.97,249.14 674.78,247.05 679.59,244.96 684.41,242.87 689.22,240.78 694.03,238.69 698.84,236.60 703.65,234.51 708.46,232.42 713.27,230.33 718.08,228.24 722.89,226.15 727.70,224.07 732.51,221.98 737.32,219.89 742.13,217.80 746.94,215.71 751.75,213.62 756.56,211.53 761.37,209.44 766.18,207.35 770.99,205.26 775.80,203.17 780.61,201.08 785.42,198.99 790.23,196.91 795.04,194.82 799.85,192.73 804.66,190.64 809.47,188.55 814.28,186.46 819.09,184.37 823.90,182.28 828.71,180.19 833.52,178.10 838.33,176.01 843.14,173.92 847.95,171.84 852.76,169.75 857.57,167.66 862.38,165.57 867.19,163.48 872.00,161.39"/>
<circle cx="684.33" cy="242.90" r="4.6" fill="#ffffff" stroke="#2ca02c" stroke-width="2"/>
<text x="690.33" y="236.90" font-family="Arial, sans-serif" font-size="10" fill="#2ca02c">max 44.8 ohm</text>
<line x1="502.00" y1="80.00" x2="524.00" y2="80.00" stroke="#1f77b4" stroke-width="2"/>
<text x="530.00" y="84.00" font-family="Arial, sans-serif" font-size="11">typ</text>
<line x1="502.00" y1="97.00" x2="524.00" y2="97.00" stroke="#ff7f0e" stroke-width="2" stroke-dasharray="5 4"/>
<text x="530.00" y="101.00" font-family="Arial, sans-serif" font-size="11">min</text>
<line x1="502.00" y1="114.00" x2="524.00" y2="114.00" stroke="#2ca02c" stroke-width="2" stroke-dasharray="2 4"/>
<text x="530.00" y="118.00" font-family="Arial, sans-serif" font-size="11">max</text>
<text x="682.00" y="386.00" text-anchor="middle" font-family="Arial, sans-serif" font-size="11">Vcc-relative table voltage (V)</text>
<text transform="translate(442.00 205.00) rotate(-90)" text-anchor="middle" font-family="Arial, sans-serif" font-size="11">Current (mA)</text>
<rect x="72.00" y="418.00" width="800.00" height="144.00" fill="#ffffff" stroke="#c8c8c8"/>
<text x="82.00" y="436.00" font-family="Arial, sans-serif" font-size="12" font-weight="700">Operating-point summary</text>
<text x="82.00" y="454.00" font-family="Arial, sans-serif" font-size="10" font-weight="700" fill="#333">Table</text>
<text x="174.00" y="454.00" font-family="Arial, sans-serif" font-size="10" font-weight="700" fill="#333">Corner</text>
<text x="242.00" y="454.00" font-family="Arial, sans-serif" font-size="10" font-weight="700" fill="#333">Vout</text>
<text x="332.00" y="454.00" font-family="Arial, sans-serif" font-size="10" font-weight="700" fill="#333">Iop</text>
<text x="422.00" y="454.00" font-family="Arial, sans-serif" font-size="10" font-weight="700" fill="#333">Zout</text>
<text x="512.00" y="454.00" font-family="Arial, sans-serif" font-size="10" font-weight="700" fill="#333">Rseries</text>
<text x="82.00" y="473.00" font-family="Arial, sans-serif" font-size="10" fill="#1f77b4">pulldown</text>
<text x="174.00" y="473.00" font-family="Arial, sans-serif" font-size="10" fill="#1f77b4">typ</text>
<text x="242.00" y="473.00" font-family="Arial, sans-serif" font-size="10" fill="#1f77b4">0.6257 V</text>
<text x="332.00" y="473.00" font-family="Arial, sans-serif" font-size="10" fill="#1f77b4">9.5 mA</text>
<text x="422.00" y="473.00" font-family="Arial, sans-serif" font-size="10" fill="#1f77b4">66 ohm</text>
<text x="512.00" y="473.00" font-family="Arial, sans-serif" font-size="10" fill="#1f77b4">-16 ohm</text>
<text x="82.00" y="492.00" font-family="Arial, sans-serif" font-size="10" fill="#ff7f0e">pulldown</text>
<text x="174.00" y="492.00" font-family="Arial, sans-serif" font-size="10" fill="#ff7f0e">min</text>
<text x="242.00" y="492.00" font-family="Arial, sans-serif" font-size="10" fill="#ff7f0e">0.7461 V</text>
<text x="332.00" y="492.00" font-family="Arial, sans-serif" font-size="10" fill="#ff7f0e">4.9 mA</text>
<text x="422.00" y="492.00" font-family="Arial, sans-serif" font-size="10" fill="#ff7f0e">153 ohm</text>
<text x="512.00" y="492.00" font-family="Arial, sans-serif" font-size="10" fill="#ff7f0e">-103 ohm</text>
<text x="82.00" y="511.00" font-family="Arial, sans-serif" font-size="10" fill="#2ca02c">pulldown</text>
<text x="174.00" y="511.00" font-family="Arial, sans-serif" font-size="10" fill="#2ca02c">max</text>
<text x="242.00" y="511.00" font-family="Arial, sans-serif" font-size="10" fill="#2ca02c">0.4102 V</text>
<text x="332.00" y="511.00" font-family="Arial, sans-serif" font-size="10" fill="#2ca02c">16 mA</text>
<text x="422.00" y="511.00" font-family="Arial, sans-serif" font-size="10" fill="#2ca02c">25.6 ohm</text>
<text x="512.00" y="511.00" font-family="Arial, sans-serif" font-size="10" fill="#2ca02c">24.4 ohm</text>
<text x="82.00" y="530.00" font-family="Arial, sans-serif" font-size="10" fill="#1f77b4">pullup</text>
<text x="174.00" y="530.00" font-family="Arial, sans-serif" font-size="10" fill="#1f77b4">typ</text>
<text x="242.00" y="530.00" font-family="Arial, sans-serif" font-size="10" fill="#1f77b4">0.3669 V</text>
<text x="332.00" y="530.00" font-family="Arial, sans-serif" font-size="10" fill="#1f77b4">-7.3 mA</text>
<text x="422.00" y="530.00" font-family="Arial, sans-serif" font-size="10" fill="#1f77b4">99.9 ohm</text>
<text x="512.00" y="530.00" font-family="Arial, sans-serif" font-size="10" fill="#1f77b4">-49.9 ohm</text>
<text x="82.00" y="549.00" font-family="Arial, sans-serif" font-size="10" fill="#ff7f0e">pullup</text>
<text x="174.00" y="549.00" font-family="Arial, sans-serif" font-size="10" fill="#ff7f0e">min</text>
<text x="242.00" y="549.00" font-family="Arial, sans-serif" font-size="10" fill="#ff7f0e">0.1951 V</text>
<text x="332.00" y="549.00" font-family="Arial, sans-serif" font-size="10" fill="#ff7f0e">-3.9 mA</text>
<text x="422.00" y="549.00" font-family="Arial, sans-serif" font-size="10" fill="#ff7f0e">204 ohm</text>
<text x="512.00" y="549.00" font-family="Arial, sans-serif" font-size="10" fill="#ff7f0e">-154 ohm</text>
<text x="82.00" y="568.00" font-family="Arial, sans-serif" font-size="10" fill="#2ca02c">pullup</text>
<text x="174.00" y="568.00" font-family="Arial, sans-serif" font-size="10" fill="#2ca02c">max</text>
<text x="242.00" y="568.00" font-family="Arial, sans-serif" font-size="10" fill="#2ca02c">0.6382 V</text>
<text x="332.00" y="568.00" font-family="Arial, sans-serif" font-size="10" fill="#2ca02c">-13 mA</text>
<text x="422.00" y="568.00" font-family="Arial, sans-serif" font-size="10" fill="#2ca02c">44.8 ohm</text>
<text x="512.00" y="568.00" font-family="Arial, sans-serif" font-size="10" fill="#2ca02c">5.196 ohm</text>
</svg>