<svg xmlns="http://www.w3.org/2000/svg" width="900" height="620" viewBox="0 0 900 620">
<rect width="100%" height="100%" fill="#ffffff"/>
<text x="72" y="26" font-family="Arial, sans-serif" font-size="16" font-weight="700">E34_GPIO_I2CSCLIN_1V2_11 Zout Load-Line Curves</text>
<text x="72" y="45" font-family="Arial, sans-serif" font-size="11" fill="#555">Rload=50 ohm; solid=device I-V, dashed=load line, circles=operating points</text>
<rect x="72.00" y="62.00" width="380.00" height="286.00" fill="#fbfbfb" stroke="#c8c8c8"/>
<text x="80.00" y="50.00" font-family="Arial, sans-serif" font-size="13" font-weight="700">[Pulldown] Rload to Vdd</text>
<line x1="72.00" y1="62.00" x2="72.00" y2="348.00" stroke="#ececec"/>
<text x="72.00" y="366.00" text-anchor="middle" font-family="Arial, sans-serif" font-size="10">-1.3</text>
<line x1="167.00" y1="62.00" x2="167.00" y2="348.00" stroke="#ececec"/>
<text x="167.00" y="366.00" text-anchor="middle" font-family="Arial, sans-serif" font-size="10">-0.372</text>
<line x1="262.00" y1="62.00" x2="262.00" y2="348.00" stroke="#ececec"/>
<text x="262.00" y="366.00" text-anchor="middle" font-family="Arial, sans-serif" font-size="10">0.6</text>
<line x1="357.00" y1="62.00" x2="357.00" y2="348.00" stroke="#ececec"/>
<text x="357.00" y="366.00" text-anchor="middle" font-family="Arial, sans-serif" font-size="10">1.6</text>
<line x1="452.00" y1="62.00" x2="452.00" y2="348.00" stroke="#ececec"/>
<text x="452.00" y="366.00" text-anchor="middle" font-family="Arial, sans-serif" font-size="10">2.5</text>
<line x1="72.00" y1="348.00" x2="452.00" y2="348.00" stroke="#ececec"/>
<text x="65.00" y="352.00" text-anchor="end" font-family="Arial, sans-serif" font-size="10">-36</text>
<line x1="72.00" y1="276.50" x2="452.00" y2="276.50" stroke="#ececec"/>
<text x="65.00" y="280.50" text-anchor="end" font-family="Arial, sans-serif" font-size="10">-12</text>
<line x1="72.00" y1="205.00" x2="452.00" y2="205.00" stroke="#ececec"/>
<text x="65.00" y="209.00" text-anchor="end" font-family="Arial, sans-serif" font-size="10">12</text>
<line x1="72.00" y1="133.50" x2="452.00" y2="133.50" stroke="#ececec"/>
<text x="65.00" y="137.50" text-anchor="end" font-family="Arial, sans-serif" font-size="10">36</text>
<line x1="72.00" y1="62.00" x2="452.00" y2="62.00" stroke="#ececec"/>
<text x="65.00" y="66.00" text-anchor="end" font-family="Arial, sans-serif" font-size="10">60</text>
<line x1="203.36" y1="62" x2="203.36" y2="348" stroke="#777" stroke-dasharray="4 4"/>
<line x1="72.0" y1="241.04" x2="452.0" y2="241.04" stroke="#777" stroke-dasharray="4 4"/>
<polyline fill="none" stroke="#1f77b4" stroke-width="1.8" points="86.07,274.85 91.94,274.85 96.83,274.85 102.69,274.85 108.55,274.85 114.42,274.85 119.30,274.21 122.24,273.76 123.21,273.60 124.19,273.44 125.17,273.27 126.15,273.09 127.12,272.91 130.06,272.35 132.01,271.94 135.92,271.05 136.90,270.82 138.85,270.32 139.83,270.06 141.78,269.53 142.76,269.24 143.74,268.95 144.72,268.65 145.69,268.34 146.67,268.03 147.65,267.70 148.63,267.36 149.60,267.02 150.58,266.66 151.56,266.30 152.53,265.92 153.51,265.54 154.49,265.14 155.47,264.73 156.44,264.32 157.42,263.90 158.40,263.46 159.38,263.02 160.35,262.57 161.33,262.11 163.29,261.18 169.15,258.24 174.04,255.73 179.90,252.72 185.77,249.74 190.65,247.28 196.52,244.37 201.40,241.98 203.36,241.04 207.27,239.17 213.13,236.44 218.02,234.22 223.88,231.63 229.75,229.16 234.63,227.19 240.50,224.96 246.36,222.89 251.25,221.31 257.11,219.63 262.98,218.20 267.86,217.24 269.82,216.91 274.71,216.24 279.59,215.76 281.55,215.60 284.48,215.40 286.43,215.28 287.41,215.22 291.32,215.01 293.28,214.91 295.23,214.82 301.09,214.57 306.96,214.34 308.91,214.27 311.85,214.17 317.71,213.97 320.64,213.88 323.57,213.79 328.46,213.65 332.37,213.54 334.33,213.48 339.21,213.35 345.08,213.20 350.94,213.05 355.83,212.93 361.69,212.79 367.56,212.65 372.44,212.51 378.31,212.34 384.17,212.15 389.06,211.97 394.92,211.74 400.79,211.46 405.67,211.18 411.54,210.76 416.42,210.32 422.29,209.68 428.15,208.90 433.04,208.15 437.93,207.31"/>
<polyline fill="none" stroke="#ff7f0e" stroke-width="1.8" stroke-dasharray="5 4" points="86.07,263.38 91.94,263.38 96.83,263.38 102.69,263.38 108.55,263.38 114.42,263.38 119.30,263.38 122.24,263.38 123.21,263.32 124.19,263.23 125.17,263.17 126.15,263.08 127.12,262.99 130.06,262.66 132.01,262.41 135.92,261.83 136.90,261.67 138.85,261.34 139.83,261.16 141.78,260.80 142.76,260.60 143.74,260.41 144.72,260.20 145.69,260.00 146.67,259.78 147.65,259.56 148.63,259.34 149.60,259.10 150.58,258.86 151.56,258.62 152.53,258.37 153.51,258.11 154.49,257.85 155.47,257.58 156.44,257.30 157.42,257.02 158.40,256.73 159.38,256.43 160.35,256.13 161.33,255.82 163.29,255.19 169.15,253.18 174.04,251.41 179.90,249.26 185.77,247.12 190.65,245.37 196.52,243.33 201.40,241.68 203.36,241.04 207.27,239.78 213.13,237.96 218.02,236.52 223.88,234.90 229.75,233.41 234.63,232.27 240.50,231.06 246.36,230.04 251.25,229.34 257.11,228.72 262.98,228.31 267.86,228.08 269.82,228.01 274.71,227.86 279.59,227.73 281.55,227.69 284.48,227.62 286.43,227.58 287.41,227.56 291.32,227.47 293.28,227.44 295.23,227.40 301.09,227.29 306.96,227.19 308.91,227.16 311.85,227.12 317.71,227.03 320.64,226.98 323.57,226.94 328.46,226.87 332.37,226.82 334.33,226.79 339.21,226.73 345.08,226.65 350.94,226.56 355.83,226.48 361.69,226.37 367.56,226.21 372.44,226.04 378.31,225.77 384.17,225.41 389.06,225.04 394.92,224.52 400.79,223.91 405.67,223.34 411.54,222.59 416.42,221.92 422.29,221.10 428.15,220.28 433.04,219.60 437.93,218.92"/>
<polyline fill="none" stroke="#2ca02c" stroke-width="1.8" stroke-dasharray="2 4" points="86.07,287.44 91.94,287.44 96.83,287.44 102.69,287.44 108.55,287.44 114.42,286.45 119.30,285.52 122.24,284.90 123.21,284.69 124.19,284.47 125.17,284.25 126.15,284.02 127.12,283.78 130.06,283.04 132.01,282.51 135.92,281.36 136.90,281.06 138.85,280.41 139.83,280.08 141.78,279.37 142.76,279.00 143.74,278.61 144.72,278.22 145.69,277.81 146.67,277.39 147.65,276.96 148.63,276.51 149.60,276.05 150.58,275.57 151.56,275.08 152.53,274.58 153.51,274.05 154.49,273.52 155.47,272.97 156.44,272.41 157.42,271.84 158.40,271.25 159.38,270.65 160.35,270.03 161.33,269.41 163.29,268.14 169.15,264.20 174.04,260.86 179.90,256.86 185.77,252.87 190.65,249.55 196.52,245.60 201.40,242.34 203.36,241.04 207.27,238.45 213.13,234.62 218.02,231.47 223.88,227.76 229.75,224.12 234.63,221.17 240.50,217.72 246.36,214.41 251.25,211.76 257.11,208.74 262.98,205.93 267.86,203.77 269.82,202.95 274.71,201.06 279.59,199.39 281.55,198.79 284.48,197.97 286.43,197.48 287.41,197.25 291.32,196.42 293.28,196.07 295.23,195.75 301.09,194.97 306.96,194.37 308.91,194.19 311.85,193.96 317.71,193.53 320.64,193.34 323.57,193.16 328.46,192.87 332.37,192.65 334.33,192.55 339.21,192.31 345.08,192.03 350.94,191.76 355.83,191.55 361.69,191.31 367.56,191.07 372.44,190.88 378.31,190.65 384.17,190.40 389.06,190.18 394.92,189.89 400.79,189.58 405.67,189.30 411.54,188.94 416.42,188.64 422.29,188.25 428.15,187.84 433.04,187.47 437.93,187.05"/>
<polyline fill="none" stroke="#1f77b4" stroke-width="1.1" stroke-dasharray="6 4" points="72.00,88.24 76.81,91.19 81.62,94.15 86.43,97.10 91.24,100.06 96.05,103.02 100.86,105.97 105.67,108.93 110.48,111.88 115.29,114.84 120.10,117.80 124.91,120.75 129.72,123.71 134.53,126.66 139.34,129.62 144.15,132.58 148.96,135.53 153.77,138.49 158.58,141.44 163.39,144.40 168.20,147.36 173.01,150.31 177.82,153.27 182.63,156.23 187.44,159.18 192.25,162.14 197.06,165.09 201.87,168.05 206.68,171.01 211.49,173.96 216.30,176.92 221.11,179.87 225.92,182.83 230.73,185.79 235.54,188.74 240.35,191.70 245.16,194.65 249.97,197.61 254.78,200.57 259.59,203.52 264.41,206.48 269.22,209.43 274.03,212.39 278.84,215.35 283.65,218.30 288.46,221.26 293.27,224.21 298.08,227.17 302.89,230.13 307.70,233.08 312.51,236.04 317.32,238.99 322.13,241.95 326.94,244.91 331.75,247.86 336.56,250.82 341.37,253.77 346.18,256.73 350.99,259.69 355.80,262.64 360.61,265.60 365.42,268.56 370.23,271.51 375.04,274.47 379.85,277.42 384.66,280.38 389.47,283.34 394.28,286.29 399.09,289.25 403.90,292.20 408.71,295.16 413.52,298.12 418.33,301.07 423.14,304.03 427.95,306.98 432.76,309.94 437.57,312.90 442.38,315.85 447.19,318.81 452.00,321.76"/>
<circle cx="279.52" cy="215.77" r="4.6" fill="#ffffff" stroke="#1f77b4" stroke-width="2"/>
<text x="285.52" y="209.77" font-family="Arial, sans-serif" font-size="10" fill="#1f77b4">typ 92.6 ohm</text>
<polyline fill="none" stroke="#ff7f0e" stroke-width="1.1" stroke-dasharray="6 4" points="72.00,95.44 76.81,98.40 81.62,101.36 86.43,104.31 91.24,107.27 96.05,110.22 100.86,113.18 105.67,116.14 110.48,119.09 115.29,122.05 120.10,125.00 124.91,127.96 129.72,130.92 134.53,133.87 139.34,136.83 144.15,139.78 148.96,142.74 153.77,145.70 158.58,148.65 163.39,151.61 168.20,154.56 173.01,157.52 177.82,160.48 182.63,163.43 187.44,166.39 192.25,169.34 197.06,172.30 201.87,175.26 206.68,178.21 211.49,181.17 216.30,184.13 221.11,187.08 225.92,190.04 230.73,192.99 235.54,195.95 240.35,198.91 245.16,201.86 249.97,204.82 254.78,207.77 259.59,210.73 264.41,213.69 269.22,216.64 274.03,219.60 278.84,222.55 283.65,225.51 288.46,228.47 293.27,231.42 298.08,234.38 302.89,237.33 307.70,240.29 312.51,243.25 317.32,246.20 322.13,249.16 326.94,252.11 331.75,255.07 336.56,258.03 341.37,260.98 346.18,263.94 350.99,266.89 355.80,269.85 360.61,272.81 365.42,275.76 370.23,278.72 375.04,281.67 379.85,284.63 384.66,287.59 389.47,290.54 394.28,293.50 399.09,296.46 403.90,299.41 408.71,302.37 413.52,305.32 418.33,308.28 423.14,311.24 427.95,314.19 432.76,317.15 437.57,320.10 442.38,323.06 447.19,326.02 452.00,328.97"/>
<circle cx="286.99" cy="227.56" r="4.6" fill="#ffffff" stroke="#ff7f0e" stroke-width="2"/>
<text x="292.99" y="221.56" font-family="Arial, sans-serif" font-size="10" fill="#ff7f0e">min 191 ohm</text>
<polyline fill="none" stroke="#2ca02c" stroke-width="1.1" stroke-dasharray="6 4" points="72.00,81.03 76.81,83.98 81.62,86.94 86.43,89.90 91.24,92.85 96.05,95.81 100.86,98.76 105.67,101.72 110.48,104.68 115.29,107.63 120.10,110.59 124.91,113.54 129.72,116.50 134.53,119.46 139.34,122.41 144.15,125.37 148.96,128.33 153.77,131.28 158.58,134.24 163.39,137.19 168.20,140.15 173.01,143.11 177.82,146.06 182.63,149.02 187.44,151.97 192.25,154.93 197.06,157.89 201.87,160.84 206.68,163.80 211.49,166.75 216.30,169.71 221.11,172.67 225.92,175.62 230.73,178.58 235.54,181.53 240.35,184.49 245.16,187.45 249.97,190.40 254.78,193.36 259.59,196.31 264.41,199.27 269.22,202.23 274.03,205.18 278.84,208.14 283.65,211.09 288.46,214.05 293.27,217.01 298.08,219.96 302.89,222.92 307.70,225.87 312.51,228.83 317.32,231.79 322.13,234.74 326.94,237.70 331.75,240.66 336.56,243.61 341.37,246.57 346.18,249.52 350.99,252.48 355.80,255.44 360.61,258.39 365.42,261.35 370.23,264.30 375.04,267.26 379.85,270.22 384.66,273.17 389.47,276.13 394.28,279.08 399.09,282.04 403.90,285.00 408.71,287.95 413.52,290.91 418.33,293.86 423.14,296.82 427.95,299.78 432.76,302.73 437.57,305.69 442.38,308.64 447.19,311.60 452.00,314.56"/>
<circle cx="270.17" cy="202.81" r="4.6" fill="#ffffff" stroke="#2ca02c" stroke-width="2"/>
<text x="276.17" y="196.81" font-family="Arial, sans-serif" font-size="10" fill="#2ca02c">max 53.7 ohm</text>
<line x1="82.00" y1="80.00" x2="104.00" y2="80.00" stroke="#1f77b4" stroke-width="2"/>
<text x="110.00" y="84.00" font-family="Arial, sans-serif" font-size="11">typ</text>
<line x1="82.00" y1="97.00" x2="104.00" y2="97.00" stroke="#ff7f0e" stroke-width="2" stroke-dasharray="5 4"/>
<text x="110.00" y="101.00" font-family="Arial, sans-serif" font-size="11">min</text>
<line x1="82.00" y1="114.00" x2="104.00" y2="114.00" stroke="#2ca02c" stroke-width="2" stroke-dasharray="2 4"/>
<text x="110.00" y="118.00" font-family="Arial, sans-serif" font-size="11">max</text>
<text x="262.00" y="386.00" text-anchor="middle" font-family="Arial, sans-serif" font-size="11">Output voltage (V)</text>
<text transform="translate(22.00 205.00) rotate(-90)" text-anchor="middle" font-family="Arial, sans-serif" font-size="11">Current (mA)</text>
<rect x="492.00" y="62.00" width="380.00" height="286.00" fill="#fbfbfb" stroke="#c8c8c8"/>
<text x="500.00" y="50.00" font-family="Arial, sans-serif" font-size="13" font-weight="700">[Pullup] Rload to GND</text>
<line x1="492.00" y1="62.00" x2="492.00" y2="348.00" stroke="#ececec"/>
<text x="492.00" y="366.00" text-anchor="middle" font-family="Arial, sans-serif" font-size="10">-1.3</text>
<line x1="587.00" y1="62.00" x2="587.00" y2="348.00" stroke="#ececec"/>
<text x="587.00" y="366.00" text-anchor="middle" font-family="Arial, sans-serif" font-size="10">-0.372</text>
<line x1="682.00" y1="62.00" x2="682.00" y2="348.00" stroke="#ececec"/>
<text x="682.00" y="366.00" text-anchor="middle" font-family="Arial, sans-serif" font-size="10">0.6</text>
<line x1="777.00" y1="62.00" x2="777.00" y2="348.00" stroke="#ececec"/>
<text x="777.00" y="366.00" text-anchor="middle" font-family="Arial, sans-serif" font-size="10">1.6</text>
<line x1="872.00" y1="62.00" x2="872.00" y2="348.00" stroke="#ececec"/>
<text x="872.00" y="366.00" text-anchor="middle" font-family="Arial, sans-serif" font-size="10">2.5</text>
<line x1="492.00" y1="348.00" x2="872.00" y2="348.00" stroke="#ececec"/>
<text x="485.00" y="352.00" text-anchor="end" font-family="Arial, sans-serif" font-size="10">-60</text>
<line x1="492.00" y1="276.50" x2="872.00" y2="276.50" stroke="#ececec"/>
<text x="485.00" y="280.50" text-anchor="end" font-family="Arial, sans-serif" font-size="10">-36</text>
<line x1="492.00" y1="205.00" x2="872.00" y2="205.00" stroke="#ececec"/>
<text x="485.00" y="209.00" text-anchor="end" font-family="Arial, sans-serif" font-size="10">-12</text>
<line x1="492.00" y1="133.50" x2="872.00" y2="133.50" stroke="#ececec"/>
<text x="485.00" y="137.50" text-anchor="end" font-family="Arial, sans-serif" font-size="10">12</text>
<line x1="492.00" y1="62.00" x2="872.00" y2="62.00" stroke="#ececec"/>
<text x="485.00" y="66.00" text-anchor="end" font-family="Arial, sans-serif" font-size="10">36</text>
<line x1="623.36" y1="62" x2="623.36" y2="348" stroke="#777" stroke-dasharray="4 4"/>
<line x1="492.0" y1="168.96" x2="872.0" y2="168.96" stroke="#777" stroke-dasharray="4 4"/>
<polyline fill="none" stroke="#1f77b4" stroke-width="1.8" points="506.07,116.77 511.94,118.84 516.83,120.70 518.78,121.47 519.76,121.87 520.73,122.26 521.71,122.66 522.69,123.06 523.67,123.47 524.64,123.87 525.62,124.28 526.60,124.70 529.53,125.95 533.44,127.65 539.30,130.26 544.19,132.47 550.06,135.16 555.92,137.89 560.81,140.18 566.67,142.93 572.53,145.69 577.42,147.98 583.29,150.71 589.15,153.42 594.04,155.66 599.90,158.34 605.77,161.01 610.65,163.23 614.56,164.99 615.54,165.43 621.40,168.08 623.36,168.96 627.27,170.70 632.15,172.82 633.13,173.23 638.02,175.27 643.88,177.64 649.75,179.91 654.63,181.72 660.50,183.78 666.36,185.69 671.25,187.17 677.11,188.77 679.07,189.26 681.02,189.73 682.00,189.95 682.98,190.17 683.95,190.38 684.93,190.59 685.91,190.78 686.89,190.98 687.86,191.16 688.84,191.34 690.80,191.67 692.75,191.98 693.73,192.13 695.68,192.40 698.62,192.76 700.57,192.98 701.55,193.08 702.52,193.18 704.48,193.37 706.43,193.54 708.39,193.70 711.32,193.92 715.23,194.18 718.16,194.37 721.09,194.54 723.05,194.64 725.00,194.75 726.96,194.85 728.91,194.95 731.85,195.09 737.71,195.35 740.64,195.47 743.57,195.58 748.46,195.77 752.37,195.91 754.33,195.98 759.21,196.14 765.08,196.32 770.94,196.49 775.83,196.59 781.69,196.62 787.56,196.62 792.44,196.62 793.42,196.62 794.40,196.62 798.31,196.62 804.17,196.62 809.06,196.62 814.92,196.62 820.79,196.62 825.67,196.62 831.54,196.62 836.42,196.62 842.29,196.62 848.15,196.62 853.04,196.62 857.93,196.62"/>
<polyline fill="none" stroke="#ff7f0e" stroke-width="1.8" stroke-dasharray="5 4" points="506.07,135.89 511.94,136.34 516.83,136.72 518.78,136.87 519.76,136.96 520.73,137.08 521.71,137.22 522.69,137.37 523.67,137.54 524.64,137.72 525.62,137.92 526.60,138.12 529.53,138.77 533.44,139.75 539.30,141.37 544.19,142.82 550.06,144.65 555.92,146.55 560.81,148.18 566.67,150.15 572.53,152.15 577.42,153.82 583.29,155.82 589.15,157.80 594.04,159.43 599.90,161.37 605.77,163.29 610.65,164.87 614.56,166.13 615.54,166.45 621.40,168.34 623.36,168.96 627.27,170.19 632.15,171.65 633.13,171.93 638.02,173.30 643.88,174.85 649.75,176.29 654.63,177.39 660.50,178.58 666.36,179.61 671.25,180.34 677.11,181.02 679.07,181.21 681.02,181.37 682.00,181.45 682.98,181.52 683.95,181.59 684.93,181.65 685.91,181.71 686.89,181.77 687.86,181.82 688.84,181.87 690.80,181.97 692.75,182.05 693.73,182.09 695.68,182.17 698.62,182.27 700.57,182.34 701.55,182.37 702.52,182.40 704.48,182.46 706.43,182.52 708.39,182.57 711.32,182.65 715.23,182.75 718.16,182.82 721.09,182.88 723.05,182.93 725.00,182.97 726.96,183.01 728.91,183.05 731.85,183.10 737.71,183.21 740.64,183.26 743.57,183.31 748.46,183.39 752.37,183.44 754.33,183.46 759.21,183.49 765.08,183.49 770.94,183.49 775.83,183.49 781.69,183.49 787.56,183.49 792.44,183.49 793.42,183.49 794.40,183.49 798.31,183.49 804.17,183.49 809.06,183.49 814.92,183.49 820.79,183.49 825.67,183.49 831.54,183.49 836.42,183.49 842.29,183.49 848.15,183.49 853.04,183.49 857.93,183.49"/>
<polyline fill="none" stroke="#2ca02c" stroke-width="1.8" stroke-dasharray="2 4" points="506.07,97.42 511.94,100.74 516.83,103.55 518.78,104.68 519.76,105.26 520.73,105.83 521.71,106.41 522.69,106.98 523.67,107.56 524.64,108.14 525.62,108.72 526.60,109.30 529.53,111.05 533.44,113.41 539.30,116.97 544.19,119.97 550.06,123.59 555.92,127.23 560.81,130.27 566.67,133.93 572.53,137.58 577.42,140.62 583.29,144.25 589.15,147.87 594.04,150.88 599.90,154.49 605.77,158.11 610.65,161.11 614.56,163.47 615.54,164.07 621.40,167.74 623.36,168.96 627.27,171.38 632.15,174.36 633.13,174.94 638.02,177.78 643.88,181.17 649.75,184.48 654.63,187.17 660.50,190.30 666.36,193.31 671.25,195.73 677.11,198.49 679.07,199.38 681.02,200.25 682.00,200.67 682.98,201.09 683.95,201.51 684.93,201.92 685.91,202.33 686.89,202.73 687.86,203.13 688.84,203.51 690.80,204.28 692.75,205.02 693.73,205.38 695.68,206.08 698.62,207.08 700.57,207.71 701.55,208.02 702.52,208.32 704.48,208.90 706.43,209.45 708.39,209.97 711.32,210.70 715.23,211.58 718.16,212.17 721.09,212.71 723.05,213.04 725.00,213.35 726.96,213.65 728.91,213.93 731.85,214.32 737.71,215.01 740.64,215.32 743.57,215.61 748.46,216.06 752.37,216.39 754.33,216.55 759.21,216.92 765.08,217.33 770.94,217.70 775.83,218.00 781.69,218.33 787.56,218.63 792.44,218.80 793.42,218.82 794.40,218.83 798.31,218.83 804.17,218.83 809.06,218.83 814.92,218.83 820.79,218.83 825.67,218.83 831.54,218.83 836.42,218.83 842.29,218.83 848.15,218.83 853.04,218.83 857.93,218.83"/>
<polyline fill="none" stroke="#1f77b4" stroke-width="1.1" stroke-dasharray="6 4" points="492.00,321.76 496.81,318.81 501.62,315.85 506.43,312.90 511.24,309.94 516.05,306.98 520.86,304.03 525.67,301.07 530.48,298.12 535.29,295.16 540.10,292.20 544.91,289.25 549.72,286.29 554.53,283.34 559.34,280.38 564.15,277.42 568.96,274.47 573.77,271.51 578.58,268.56 583.39,265.60 588.20,262.64 593.01,259.69 597.82,256.73 602.63,253.77 607.44,250.82 612.25,247.86 617.06,244.91 621.87,241.95 626.68,238.99 631.49,236.04 636.30,233.08 641.11,230.13 645.92,227.17 650.73,224.21 655.54,221.26 660.35,218.30 665.16,215.35 669.97,212.39 674.78,209.43 679.59,206.48 684.41,203.52 689.22,200.57 694.03,197.61 698.84,194.65 703.65,191.70 708.46,188.74 713.27,185.79 718.08,182.83 722.89,179.87 727.70,176.92 732.51,173.96 737.32,171.01 742.13,168.05 746.94,165.09 751.75,162.14 756.56,159.18 761.37,156.23 766.18,153.27 770.99,150.31 775.80,147.36 780.61,144.40 785.42,141.44 790.23,138.49 795.04,135.53 799.85,132.58 804.66,129.62 809.47,126.66 814.28,123.71 819.09,120.75 823.90,117.80 828.71,114.84 833.52,111.88 838.33,108.93 843.14,105.97 847.95,103.02 852.76,100.06 857.57,97.10 862.38,94.15 867.19,91.19 872.00,88.24"/>
<circle cx="701.41" cy="193.07" r="4.6" fill="#ffffff" stroke="#1f77b4" stroke-width="2"/>
<text x="707.41" y="187.07" font-family="Arial, sans-serif" font-size="10" fill="#1f77b4">typ 99.5 ohm</text>
<polyline fill="none" stroke="#ff7f0e" stroke-width="1.1" stroke-dasharray="6 4" points="492.00,314.56 496.81,311.60 501.62,308.64 506.43,305.69 511.24,302.73 516.05,299.78 520.86,296.82 525.67,293.86 530.48,290.91 535.29,287.95 540.10,285.00 544.91,282.04 549.72,279.08 554.53,276.13 559.34,273.17 564.15,270.22 568.96,267.26 573.77,264.30 578.58,261.35 583.39,258.39 588.20,255.44 593.01,252.48 597.82,249.52 602.63,246.57 607.44,243.61 612.25,240.66 617.06,237.70 621.87,234.74 626.68,231.79 631.49,228.83 636.30,225.87 641.11,222.92 645.92,219.96 650.73,217.01 655.54,214.05 660.35,211.09 665.16,208.14 669.97,205.18 674.78,202.23 679.59,199.27 684.41,196.31 689.22,193.36 694.03,190.40 698.84,187.45 703.65,184.49 708.46,181.53 713.27,178.58 718.08,175.62 722.89,172.67 727.70,169.71 732.51,166.75 737.32,163.80 742.13,160.84 746.94,157.89 751.75,154.93 756.56,151.97 761.37,149.02 766.18,146.06 770.99,143.11 775.80,140.15 780.61,137.19 785.42,134.24 790.23,131.28 795.04,128.33 799.85,125.37 804.66,122.41 809.47,119.46 814.28,116.50 819.09,113.54 823.90,110.59 828.71,107.63 833.52,104.68 838.33,101.72 843.14,98.76 847.95,95.81 852.76,92.85 857.57,89.90 862.38,86.94 867.19,83.98 872.00,81.03"/>
<circle cx="706.84" cy="182.53" r="4.6" fill="#ffffff" stroke="#ff7f0e" stroke-width="2"/>
<text x="712.84" y="176.53" font-family="Arial, sans-serif" font-size="10" fill="#ff7f0e">min 189 ohm</text>
<polyline fill="none" stroke="#2ca02c" stroke-width="1.1" stroke-dasharray="6 4" points="492.00,328.97 496.81,326.02 501.62,323.06 506.43,320.10 511.24,317.15 516.05,314.19 520.86,311.24 525.67,308.28 530.48,305.32 535.29,302.37 540.10,299.41 544.91,296.46 549.72,293.50 554.53,290.54 559.34,287.59 564.15,284.63 568.96,281.67 573.77,278.72 578.58,275.76 583.39,272.81 588.20,269.85 593.01,266.89 597.82,263.94 602.63,260.98 607.44,258.03 612.25,255.07 617.06,252.11 621.87,249.16 626.68,246.20 631.49,243.25 636.30,240.29 641.11,237.33 645.92,234.38 650.73,231.42 655.54,228.47 660.35,225.51 665.16,222.55 669.97,219.60 674.78,216.64 679.59,213.69 684.41,210.73 689.22,207.77 694.03,204.82 698.84,201.86 703.65,198.91 708.46,195.95 713.27,192.99 718.08,190.04 722.89,187.08 727.70,184.13 732.51,181.17 737.32,178.21 742.13,175.26 746.94,172.30 751.75,169.34 756.56,166.39 761.37,163.43 766.18,160.48 770.99,157.52 775.80,154.56 780.61,151.61 785.42,148.65 790.23,145.70 795.04,142.74 799.85,139.78 804.66,136.83 809.47,133.87 814.28,130.92 819.09,127.96 823.90,125.00 828.71,122.05 833.52,119.09 838.33,116.14 843.14,113.18 847.95,110.22 852.76,107.27 857.57,104.31 862.38,101.36 867.19,98.40 872.00,95.44"/>
<circle cx="693.35" cy="205.23" r="4.6" fill="#ffffff" stroke="#2ca02c" stroke-width="2"/>
<text x="699.35" y="199.23" font-family="Arial, sans-serif" font-size="10" fill="#2ca02c">max 59.3 ohm</text>
<line x1="502.00" y1="80.00" x2="524.00" y2="80.00" stroke="#1f77b4" stroke-width="2"/>
<text x="530.00" y="84.00" font-family="Arial, sans-serif" font-size="11">typ</text>
<line x1="502.00" y1="97.00" x2="524.00" y2="97.00" stroke="#ff7f0e" stroke-width="2" stroke-dasharray="5 4"/>
<text x="530.00" y="101.00" font-family="Arial, sans-serif" font-size="11">min</text>
<line x1="502.00" y1="114.00" x2="524.00" y2="114.00" stroke="#2ca02c" stroke-width="2" stroke-dasharray="2 4"/>
<text x="530.00" y="118.00" font-family="Arial, sans-serif" font-size="11">max</text>
<text x="682.00" y="386.00" text-anchor="middle" font-family="Arial, sans-serif" font-size="11">Vcc-relative table voltage (V)</text>
<text transform="translate(442.00 205.00) rotate(-90)" text-anchor="middle" font-family="Arial, sans-serif" font-size="11">Current (mA)</text>
<rect x="72.00" y="418.00" width="800.00" height="144.00" fill="#ffffff" stroke="#c8c8c8"/>
<text x="82.00" y="436.00" font-family="Arial, sans-serif" font-size="12" font-weight="700">Operating-point summary</text>
<text x="82.00" y="454.00" font-family="Arial, sans-serif" font-size="10" font-weight="700" fill="#333">Table</text>
<text x="174.00" y="454.00" font-family="Arial, sans-serif" font-size="10" font-weight="700" fill="#333">Corner</text>
<text x="242.00" y="454.00" font-family="Arial, sans-serif" font-size="10" font-weight="700" fill="#333">Vout</text>
<text x="332.00" y="454.00" font-family="Arial, sans-serif" font-size="10" font-weight="700" fill="#333">Iop</text>
<text x="422.00" y="454.00" font-family="Arial, sans-serif" font-size="10" font-weight="700" fill="#333">Zout</text>
<text x="512.00" y="454.00" font-family="Arial, sans-serif" font-size="10" font-weight="700" fill="#333">Rseries</text>
<text x="82.00" y="473.00" font-family="Arial, sans-serif" font-size="10" fill="#1f77b4">pulldown</text>
<text x="174.00" y="473.00" font-family="Arial, sans-serif" font-size="10" fill="#1f77b4">typ</text>
<text x="242.00" y="473.00" font-family="Arial, sans-serif" font-size="10" fill="#1f77b4">0.7792 V</text>
<text x="332.00" y="473.00" font-family="Arial, sans-serif" font-size="10" fill="#1f77b4">8.4 mA</text>
<text x="422.00" y="473.00" font-family="Arial, sans-serif" font-size="10" fill="#1f77b4">92.6 ohm</text>
<text x="512.00" y="473.00" font-family="Arial, sans-serif" font-size="10" fill="#1f77b4">-42.6 ohm</text>
<text x="82.00" y="492.00" font-family="Arial, sans-serif" font-size="10" fill="#ff7f0e">pulldown</text>
<text x="174.00" y="492.00" font-family="Arial, sans-serif" font-size="10" fill="#ff7f0e">min</text>
<text x="242.00" y="492.00" font-family="Arial, sans-serif" font-size="10" fill="#ff7f0e">0.8557 V</text>
<text x="332.00" y="492.00" font-family="Arial, sans-serif" font-size="10" fill="#ff7f0e">4.5 mA</text>
<text x="422.00" y="492.00" font-family="Arial, sans-serif" font-size="10" fill="#ff7f0e">191 ohm</text>
<text x="512.00" y="492.00" font-family="Arial, sans-serif" font-size="10" fill="#ff7f0e">-141 ohm</text>
<text x="82.00" y="511.00" font-family="Arial, sans-serif" font-size="10" fill="#2ca02c">pulldown</text>
<text x="174.00" y="511.00" font-family="Arial, sans-serif" font-size="10" fill="#2ca02c">max</text>
<text x="242.00" y="511.00" font-family="Arial, sans-serif" font-size="10" fill="#2ca02c">0.6836 V</text>
<text x="332.00" y="511.00" font-family="Arial, sans-serif" font-size="10" fill="#2ca02c">13 mA</text>
<text x="422.00" y="511.00" font-family="Arial, sans-serif" font-size="10" fill="#2ca02c">53.7 ohm</text>
<text x="512.00" y="511.00" font-family="Arial, sans-serif" font-size="10" fill="#2ca02c">-3.711 ohm</text>
<text x="82.00" y="530.00" font-family="Arial, sans-serif" font-size="10" fill="#1f77b4">pullup</text>
<text x="174.00" y="530.00" font-family="Arial, sans-serif" font-size="10" fill="#1f77b4">typ</text>
<text x="242.00" y="530.00" font-family="Arial, sans-serif" font-size="10" fill="#1f77b4">0.4014 V</text>
<text x="332.00" y="530.00" font-family="Arial, sans-serif" font-size="10" fill="#1f77b4">-8 mA</text>
<text x="422.00" y="530.00" font-family="Arial, sans-serif" font-size="10" fill="#1f77b4">99.5 ohm</text>
<text x="512.00" y="530.00" font-family="Arial, sans-serif" font-size="10" fill="#1f77b4">-49.5 ohm</text>
<text x="82.00" y="549.00" font-family="Arial, sans-serif" font-size="10" fill="#ff7f0e">pullup</text>
<text x="174.00" y="549.00" font-family="Arial, sans-serif" font-size="10" fill="#ff7f0e">min</text>
<text x="242.00" y="549.00" font-family="Arial, sans-serif" font-size="10" fill="#ff7f0e">0.2259 V</text>
<text x="332.00" y="549.00" font-family="Arial, sans-serif" font-size="10" fill="#ff7f0e">-4.5 mA</text>
<text x="422.00" y="549.00" font-family="Arial, sans-serif" font-size="10" fill="#ff7f0e">189 ohm</text>
<text x="512.00" y="549.00" font-family="Arial, sans-serif" font-size="10" fill="#ff7f0e">-139 ohm</text>
<text x="82.00" y="568.00" font-family="Arial, sans-serif" font-size="10" fill="#2ca02c">pullup</text>
<text x="174.00" y="568.00" font-family="Arial, sans-serif" font-size="10" fill="#2ca02c">max</text>
<text x="242.00" y="568.00" font-family="Arial, sans-serif" font-size="10" fill="#2ca02c">0.6039 V</text>
<text x="332.00" y="568.00" font-family="Arial, sans-serif" font-size="10" fill="#2ca02c">-12 mA</text>
<text x="422.00" y="568.00" font-family="Arial, sans-serif" font-size="10" fill="#2ca02c">59.3 ohm</text>
<text x="512.00" y="568.00" font-family="Arial, sans-serif" font-size="10" fill="#2ca02c">-9.288 ohm</text>
</svg>