<svg xmlns="http://www.w3.org/2000/svg" width="900" height="620" viewBox="0 0 900 620">
<rect width="100%" height="100%" fill="#ffffff"/>
<text x="72" y="26" font-family="Arial, sans-serif" font-size="16" font-weight="700">E34_GPIO_I2CSCLIN_3V3_10_ISOSW Zout Load-Line Curves</text>
<text x="72" y="45" font-family="Arial, sans-serif" font-size="11" fill="#555">Rload=50 ohm; solid=device I-V, dashed=load line, circles=operating points</text>
<rect x="72.00" y="62.00" width="380.00" height="286.00" fill="#fbfbfb" stroke="#c8c8c8"/>
<text x="80.00" y="50.00" font-family="Arial, sans-serif" font-size="13" font-weight="700">[Pulldown] Rload to Vdd</text>
<line x1="72.00" y1="62.00" x2="72.00" y2="348.00" stroke="#ececec"/>
<text x="72.00" y="366.00" text-anchor="middle" font-family="Arial, sans-serif" font-size="10">-3.7</text>
<line x1="167.00" y1="62.00" x2="167.00" y2="348.00" stroke="#ececec"/>
<text x="167.00" y="366.00" text-anchor="middle" font-family="Arial, sans-serif" font-size="10">-1</text>
<line x1="262.00" y1="62.00" x2="262.00" y2="348.00" stroke="#ececec"/>
<text x="262.00" y="366.00" text-anchor="middle" font-family="Arial, sans-serif" font-size="10">1.7</text>
<line x1="357.00" y1="62.00" x2="357.00" y2="348.00" stroke="#ececec"/>
<text x="357.00" y="366.00" text-anchor="middle" font-family="Arial, sans-serif" font-size="10">4.3</text>
<line x1="452.00" y1="62.00" x2="452.00" y2="348.00" stroke="#ececec"/>
<text x="452.00" y="366.00" text-anchor="middle" font-family="Arial, sans-serif" font-size="10">7</text>
<line x1="72.00" y1="348.00" x2="452.00" y2="348.00" stroke="#ececec"/>
<text x="65.00" y="352.00" text-anchor="end" font-family="Arial, sans-serif" font-size="10">-97</text>
<line x1="72.00" y1="276.50" x2="452.00" y2="276.50" stroke="#ececec"/>
<text x="65.00" y="280.50" text-anchor="end" font-family="Arial, sans-serif" font-size="10">-32</text>
<line x1="72.00" y1="205.00" x2="452.00" y2="205.00" stroke="#ececec"/>
<text x="65.00" y="209.00" text-anchor="end" font-family="Arial, sans-serif" font-size="10">33</text>
<line x1="72.00" y1="133.50" x2="452.00" y2="133.50" stroke="#ececec"/>
<text x="65.00" y="137.50" text-anchor="end" font-family="Arial, sans-serif" font-size="10">98</text>
<line x1="72.00" y1="62.00" x2="452.00" y2="62.00" stroke="#ececec"/>
<text x="65.00" y="66.00" text-anchor="end" font-family="Arial, sans-serif" font-size="10">1.6e+02</text>
<line x1="203.36" y1="62" x2="203.36" y2="348" stroke="#777" stroke-dasharray="4 4"/>
<line x1="72.0" y1="241.24" x2="452.0" y2="241.24" stroke="#777" stroke-dasharray="4 4"/>
<polyline fill="none" stroke="#1f77b4" stroke-width="1.8" points="86.07,257.25 91.41,257.25 97.09,257.25 102.42,257.25 108.11,257.25 113.44,257.25 119.13,257.25 124.46,257.25 130.14,257.25 135.48,257.25 141.16,257.25 146.49,257.25 152.18,257.25 157.51,257.25 163.20,257.25 168.88,257.25 171.02,257.25 174.21,256.57 174.57,256.48 174.93,256.40 179.55,255.06 182.74,253.85 183.46,253.54 183.81,253.38 184.17,253.22 184.52,253.05 184.88,252.88 185.23,252.71 185.59,252.53 185.94,252.34 186.30,252.15 186.65,251.96 187.72,251.36 190.56,249.62 196.25,245.91 201.58,242.41 203.36,241.24 207.27,238.69 212.60,235.21 218.29,231.51 223.62,228.06 229.30,224.40 234.63,221.00 240.32,217.39 245.65,214.05 251.34,210.51 256.67,207.24 260.22,205.08 261.29,204.44 262.36,203.80 262.71,203.59 267.69,200.63 273.02,197.51 278.70,194.26 284.04,191.29 289.72,188.21 295.05,185.43 300.74,182.58 306.07,180.04 309.98,178.27 311.76,177.50 317.09,175.29 320.64,173.93 322.77,173.16 328.11,171.40 331.30,170.47 333.79,169.81 339.12,168.59 344.81,167.55 350.14,166.76 355.83,166.06 361.16,165.50 366.84,164.97 372.18,164.52 376.44,164.18 376.80,164.15 378.22,164.04 383.19,163.65 386.04,163.44 386.39,163.41 386.75,163.39 387.10,163.36 387.46,163.34 387.81,163.31 388.88,163.31 392.79,163.31 393.50,163.31 393.86,163.31 394.57,163.31 396.70,163.31 397.41,163.31 397.77,163.31 399.90,163.31 405.23,163.31 410.92,163.31 416.25,163.31 421.93,163.31 427.26,163.31 432.95,163.31 437.93,163.31"/>
<polyline fill="none" stroke="#ff7f0e" stroke-width="1.8" stroke-dasharray="5 4" points="86.07,252.95 91.41,252.95 97.09,252.95 102.42,252.95 108.11,252.95 113.44,252.95 119.13,252.95 124.46,252.95 130.14,252.95 135.48,252.95 141.16,252.95 146.49,252.95 152.18,252.95 157.51,252.95 163.20,252.95 168.88,252.95 171.02,252.95 174.21,252.95 174.57,252.90 174.93,252.85 179.55,251.89 182.74,250.99 183.46,250.76 183.81,250.65 184.17,250.52 184.52,250.40 184.88,250.28 185.23,250.15 185.59,250.01 185.94,249.88 186.30,249.74 186.65,249.60 187.72,249.16 190.56,247.87 196.25,244.97 201.58,242.17 203.36,241.24 207.27,239.21 212.60,236.45 218.29,233.52 223.62,230.81 229.30,227.94 234.63,225.29 240.32,222.49 245.65,219.91 251.34,217.21 256.67,214.73 260.22,213.11 261.29,212.62 262.36,212.14 262.71,211.99 267.69,209.79 273.02,207.51 278.70,205.17 284.04,203.09 289.72,200.99 295.05,199.16 300.74,197.39 306.07,195.92 309.98,194.98 311.76,194.59 317.09,193.58 320.64,193.03 322.77,192.74 328.11,192.15 331.30,191.85 333.79,191.65 339.12,191.26 344.81,190.89 350.14,190.57 355.83,190.24 361.16,189.94 366.84,189.63 372.18,189.34 376.44,189.11 376.80,189.08 378.22,189.01 383.19,189.01 386.04,189.01 386.39,189.01 386.75,189.01 387.10,189.01 387.46,189.01 387.81,189.01 388.88,189.01 392.79,189.01 393.50,189.01 393.86,189.01 394.57,189.01 396.70,189.01 397.41,189.01 397.77,189.01 399.90,189.01 405.23,189.01 410.92,189.01 416.25,189.01 421.93,189.01 427.26,189.01 432.95,189.01 437.93,189.01"/>
<polyline fill="none" stroke="#2ca02c" stroke-width="1.8" stroke-dasharray="2 4" points="86.07,260.83 91.41,260.83 97.09,260.83 102.42,260.83 108.11,260.83 113.44,260.83 119.13,260.83 124.46,260.83 130.14,260.83 135.48,260.83 141.16,260.83 146.49,260.83 152.18,260.83 157.51,260.83 163.20,260.83 168.88,260.83 171.02,260.41 174.21,259.65 174.57,259.55 174.93,259.46 179.55,257.94 182.74,256.52 183.46,256.15 183.81,255.96 184.17,255.76 184.52,255.56 184.88,255.35 185.23,255.13 185.59,254.91 185.94,254.68 186.30,254.45 186.65,254.21 187.72,253.46 190.56,251.31 196.25,246.84 201.58,242.64 203.36,241.24 207.27,238.16 212.60,233.97 218.29,229.49 223.62,225.31 229.30,220.86 234.63,216.71 240.32,212.30 245.65,208.19 251.34,203.84 256.67,199.80 260.22,197.13 261.29,196.33 262.36,195.53 262.71,195.27 267.69,191.58 273.02,187.68 278.70,183.58 284.04,179.81 289.72,175.86 295.05,172.26 300.74,168.51 306.07,165.12 309.98,162.71 311.76,161.63 317.09,158.51 320.64,156.52 322.77,155.36 328.11,152.61 331.30,151.05 333.79,149.90 339.12,147.62 344.81,145.50 350.14,143.82 355.83,142.32 361.16,141.16 366.84,140.12 372.18,139.30 376.44,138.73 376.80,138.68 378.22,138.50 383.19,137.92 386.04,137.60 386.39,137.56 386.75,137.52 387.10,137.49 387.46,137.45 387.81,137.41 388.88,137.30 392.79,136.90 393.50,136.83 393.86,136.79 394.57,136.73 396.70,136.51 397.41,136.44 397.77,136.41 399.90,136.41 405.23,136.41 410.92,136.41 416.25,136.41 421.93,136.41 427.26,136.41 432.95,136.41 437.93,136.41"/>
<polyline fill="none" stroke="#1f77b4" stroke-width="1.1" stroke-dasharray="6 4" points="72.00,87.57 76.81,90.54 81.62,93.51 86.43,96.49 91.24,99.46 96.05,102.43 100.86,105.41 105.67,108.38 110.48,111.35 115.29,114.33 120.10,117.30 124.91,120.27 129.72,123.24 134.53,126.22 139.34,129.19 144.15,132.16 148.96,135.14 153.77,138.11 158.58,141.08 163.39,144.05 168.20,147.03 173.01,150.00 177.82,152.97 182.63,155.95 187.44,158.92 192.25,161.89 197.06,164.87 201.87,167.84 206.68,170.81 211.49,173.78 216.30,176.76 221.11,179.73 225.92,182.70 230.73,185.68 235.54,188.65 240.35,191.62 245.16,194.59 249.97,197.57 254.78,200.54 259.59,203.51 264.41,206.49 269.22,209.46 274.03,212.43 278.84,215.41 283.65,218.38 288.46,221.35 293.27,224.32 298.08,227.30 302.89,230.27 307.70,233.24 312.51,236.22 317.32,239.19 322.13,242.16 326.94,245.13 331.75,248.11 336.56,251.08 341.37,254.05 346.18,257.03 350.99,260.00 355.80,262.97 360.61,265.95 365.42,268.92 370.23,271.89 375.04,274.86 379.85,277.84 384.66,280.81 389.47,283.78 394.28,286.76 399.09,289.73 403.90,292.70 408.71,295.67 413.52,298.65 418.33,301.62 423.14,304.59 427.95,307.57 432.76,310.54 437.57,313.51 442.38,316.49 447.19,319.46 452.00,322.43"/>
<circle cx="261.19" cy="204.50" r="4.6" fill="#ffffff" stroke="#1f77b4" stroke-width="2"/>
<text x="267.19" y="198.50" font-family="Arial, sans-serif" font-size="10" fill="#1f77b4">typ 48.6 ohm</text>
<polyline fill="none" stroke="#ff7f0e" stroke-width="1.1" stroke-dasharray="6 4" points="72.00,94.16 76.81,97.13 81.62,100.10 86.43,103.08 91.24,106.05 96.05,109.02 100.86,112.00 105.67,114.97 110.48,117.94 115.29,120.92 120.10,123.89 124.91,126.86 129.72,129.83 134.53,132.81 139.34,135.78 144.15,138.75 148.96,141.73 153.77,144.70 158.58,147.67 163.39,150.64 168.20,153.62 173.01,156.59 177.82,159.56 182.63,162.54 187.44,165.51 192.25,168.48 197.06,171.46 201.87,174.43 206.68,177.40 211.49,180.37 216.30,183.35 221.11,186.32 225.92,189.29 230.73,192.27 235.54,195.24 240.35,198.21 245.16,201.18 249.97,204.16 254.78,207.13 259.59,210.10 264.41,213.08 269.22,216.05 274.03,219.02 278.84,222.00 283.65,224.97 288.46,227.94 293.27,230.91 298.08,233.89 302.89,236.86 307.70,239.83 312.51,242.81 317.32,245.78 322.13,248.75 326.94,251.72 331.75,254.70 336.56,257.67 341.37,260.64 346.18,263.62 350.99,266.59 355.80,269.56 360.61,272.54 365.42,275.51 370.23,278.48 375.04,281.45 379.85,284.43 384.66,287.40 389.47,290.37 394.28,293.35 399.09,296.32 403.90,299.29 408.71,302.26 413.52,305.24 418.33,308.21 423.14,311.18 427.95,314.16 432.76,317.13 437.57,320.10 442.38,323.08 447.19,326.05 452.00,329.02"/>
<circle cx="262.67" cy="212.00" r="4.6" fill="#ffffff" stroke="#ff7f0e" stroke-width="2"/>
<text x="268.67" y="206.00" font-family="Arial, sans-serif" font-size="10" fill="#ff7f0e">min 62.7 ohm</text>
<polyline fill="none" stroke="#2ca02c" stroke-width="1.1" stroke-dasharray="6 4" points="72.00,80.98 76.81,83.95 81.62,86.92 86.43,89.90 91.24,92.87 96.05,95.84 100.86,98.82 105.67,101.79 110.48,104.76 115.29,107.74 120.10,110.71 124.91,113.68 129.72,116.65 134.53,119.63 139.34,122.60 144.15,125.57 148.96,128.55 153.77,131.52 158.58,134.49 163.39,137.46 168.20,140.44 173.01,143.41 177.82,146.38 182.63,149.36 187.44,152.33 192.25,155.30 197.06,158.28 201.87,161.25 206.68,164.22 211.49,167.19 216.30,170.17 221.11,173.14 225.92,176.11 230.73,179.09 235.54,182.06 240.35,185.03 245.16,188.00 249.97,190.98 254.78,193.95 259.59,196.92 264.41,199.90 269.22,202.87 274.03,205.84 278.84,208.82 283.65,211.79 288.46,214.76 293.27,217.73 298.08,220.71 302.89,223.68 307.70,226.65 312.51,229.63 317.32,232.60 322.13,235.57 326.94,238.54 331.75,241.52 336.56,244.49 341.37,247.46 346.18,250.44 350.99,253.41 355.80,256.38 360.61,259.36 365.42,262.33 370.23,265.30 375.04,268.27 379.85,271.25 384.66,274.22 389.47,277.19 394.28,280.17 399.09,283.14 403.90,286.11 408.71,289.08 413.52,292.06 418.33,295.03 423.14,298.00 427.95,300.98 432.76,303.95 437.57,306.92 442.38,309.90 447.19,312.87 452.00,315.84"/>
<circle cx="260.09" cy="197.23" r="4.6" fill="#ffffff" stroke="#2ca02c" stroke-width="2"/>
<text x="266.09" y="191.23" font-family="Arial, sans-serif" font-size="10" fill="#2ca02c">max 39.8 ohm</text>
<line x1="82.00" y1="80.00" x2="104.00" y2="80.00" stroke="#1f77b4" stroke-width="2"/>
<text x="110.00" y="84.00" font-family="Arial, sans-serif" font-size="11">typ</text>
<line x1="82.00" y1="97.00" x2="104.00" y2="97.00" stroke="#ff7f0e" stroke-width="2" stroke-dasharray="5 4"/>
<text x="110.00" y="101.00" font-family="Arial, sans-serif" font-size="11">min</text>
<line x1="82.00" y1="114.00" x2="104.00" y2="114.00" stroke="#2ca02c" stroke-width="2" stroke-dasharray="2 4"/>
<text x="110.00" y="118.00" font-family="Arial, sans-serif" font-size="11">max</text>
<text x="262.00" y="386.00" text-anchor="middle" font-family="Arial, sans-serif" font-size="11">Output voltage (V)</text>
<text transform="translate(22.00 205.00) rotate(-90)" text-anchor="middle" font-family="Arial, sans-serif" font-size="11">Current (mA)</text>
<rect x="492.00" y="62.00" width="380.00" height="286.00" fill="#fbfbfb" stroke="#c8c8c8"/>
<text x="500.00" y="50.00" font-family="Arial, sans-serif" font-size="13" font-weight="700">[Pullup] Rload to GND</text>
<line x1="492.00" y1="62.00" x2="492.00" y2="348.00" stroke="#ececec"/>
<text x="492.00" y="366.00" text-anchor="middle" font-family="Arial, sans-serif" font-size="10">-3.7</text>
<line x1="587.00" y1="62.00" x2="587.00" y2="348.00" stroke="#ececec"/>
<text x="587.00" y="366.00" text-anchor="middle" font-family="Arial, sans-serif" font-size="10">-1</text>
<line x1="682.00" y1="62.00" x2="682.00" y2="348.00" stroke="#ececec"/>
<text x="682.00" y="366.00" text-anchor="middle" font-family="Arial, sans-serif" font-size="10">1.7</text>
<line x1="777.00" y1="62.00" x2="777.00" y2="348.00" stroke="#ececec"/>
<text x="777.00" y="366.00" text-anchor="middle" font-family="Arial, sans-serif" font-size="10">4.3</text>
<line x1="872.00" y1="62.00" x2="872.00" y2="348.00" stroke="#ececec"/>
<text x="872.00" y="366.00" text-anchor="middle" font-family="Arial, sans-serif" font-size="10">7</text>
<line x1="492.00" y1="348.00" x2="872.00" y2="348.00" stroke="#ececec"/>
<text x="485.00" y="352.00" text-anchor="end" font-family="Arial, sans-serif" font-size="10">-1.6e+02</text>
<line x1="492.00" y1="276.50" x2="872.00" y2="276.50" stroke="#ececec"/>
<text x="485.00" y="280.50" text-anchor="end" font-family="Arial, sans-serif" font-size="10">-98</text>
<line x1="492.00" y1="205.00" x2="872.00" y2="205.00" stroke="#ececec"/>
<text x="485.00" y="209.00" text-anchor="end" font-family="Arial, sans-serif" font-size="10">-33</text>
<line x1="492.00" y1="133.50" x2="872.00" y2="133.50" stroke="#ececec"/>
<text x="485.00" y="137.50" text-anchor="end" font-family="Arial, sans-serif" font-size="10">32</text>
<line x1="492.00" y1="62.00" x2="872.00" y2="62.00" stroke="#ececec"/>
<text x="485.00" y="66.00" text-anchor="end" font-family="Arial, sans-serif" font-size="10">97</text>
<line x1="623.36" y1="62" x2="623.36" y2="348" stroke="#777" stroke-dasharray="4 4"/>
<line x1="492.0" y1="168.76" x2="872.0" y2="168.76" stroke="#777" stroke-dasharray="4 4"/>
<polyline fill="none" stroke="#1f77b4" stroke-width="1.8" points="506.07,122.60 511.41,122.60 517.09,122.60 522.42,122.60 528.11,122.60 533.44,122.60 539.13,122.60 544.46,122.60 550.14,122.60 555.12,122.60 555.48,122.60 555.83,122.60 556.19,122.60 556.54,122.84 556.90,123.09 557.25,123.35 557.61,123.60 561.16,126.10 566.49,129.84 572.18,133.83 577.51,137.56 583.20,141.51 588.53,145.20 594.21,149.11 599.55,152.73 605.23,156.55 610.56,160.12 616.25,163.94 621.58,167.54 623.36,168.76 627.27,171.42 632.60,175.02 638.29,178.84 643.62,182.41 649.30,186.20 654.63,189.72 660.32,193.46 665.65,196.93 671.34,200.60 676.67,204.02 678.45,205.15 680.22,206.28 681.29,206.95 682.36,207.63 687.69,210.97 693.02,214.28 698.70,217.77 704.04,221.00 709.72,224.39 715.05,227.52 720.74,230.81 726.07,233.83 729.98,236.01 731.76,236.99 737.09,239.88 740.64,241.77 742.77,242.89 748.11,245.64 751.30,247.24 753.79,248.44 759.12,250.54 764.81,251.71 766.94,251.91 767.65,251.96 768.72,252.00 769.07,252.01 769.43,252.02 770.14,252.03 770.50,252.03 771.21,252.03 771.92,252.03 772.27,252.03 773.34,252.03 773.69,252.03 775.12,252.03 775.47,252.03 776.54,252.03 776.89,252.03 777.60,252.03 777.96,252.03 779.03,252.03 779.38,252.03 779.74,252.03 780.80,252.03 782.22,252.03 782.58,252.03 786.84,252.03 792.18,252.03 797.86,252.03 803.19,252.03 808.88,252.03 814.21,252.03 819.90,252.03 825.23,252.03 830.92,252.03 836.25,252.03 841.93,252.03 847.26,252.03 852.95,252.03 857.93,252.03"/>
<polyline fill="none" stroke="#ff7f0e" stroke-width="1.8" stroke-dasharray="5 4" points="506.07,130.94 511.41,130.94 517.09,130.94 522.42,130.94 528.11,130.94 533.44,130.94 539.13,130.94 544.46,130.94 550.14,130.94 555.12,130.94 555.48,131.16 555.83,131.35 556.19,131.56 556.54,131.76 556.90,131.96 557.25,132.16 557.61,132.36 561.16,134.38 566.49,137.41 572.18,140.62 577.51,143.63 583.20,146.82 588.53,149.79 594.21,152.94 599.55,155.86 605.23,158.95 610.56,161.82 616.25,164.89 621.58,167.78 623.36,168.76 627.27,170.89 632.60,173.77 638.29,176.82 643.62,179.66 649.30,182.66 654.63,185.44 660.32,188.38 665.65,191.10 671.34,193.97 676.67,196.63 678.45,197.50 680.22,198.37 681.29,198.90 682.36,199.42 687.69,201.99 693.02,204.52 698.70,207.16 704.04,209.58 709.72,212.11 715.05,214.41 720.74,216.78 726.07,218.93 729.98,220.44 731.76,221.12 737.09,223.06 740.64,224.27 742.77,224.93 748.11,226.07 751.30,226.38 753.79,226.44 759.12,226.44 764.81,226.44 766.94,226.44 767.65,226.44 768.72,226.44 769.07,226.44 769.43,226.44 770.14,226.44 770.50,226.44 771.21,226.44 771.92,226.44 772.27,226.44 773.34,226.44 773.69,226.44 775.12,226.44 775.47,226.44 776.54,226.44 776.89,226.44 777.60,226.44 777.96,226.44 779.03,226.44 779.38,226.44 779.74,226.44 780.80,226.44 782.22,226.44 782.58,226.44 786.84,226.44 792.18,226.44 797.86,226.44 803.19,226.44 808.88,226.44 814.21,226.44 819.90,226.44 825.23,226.44 830.92,226.44 836.25,226.44 841.93,226.44 847.26,226.44 852.95,226.44 857.93,226.44"/>
<polyline fill="none" stroke="#2ca02c" stroke-width="1.8" stroke-dasharray="2 4" points="506.07,112.78 511.41,112.78 517.09,112.78 522.42,112.78 528.11,112.78 533.44,112.78 539.13,112.78 544.46,112.78 550.14,112.78 555.12,112.78 555.48,112.78 555.83,112.78 556.19,112.78 556.54,112.78 556.90,112.78 557.25,113.09 557.61,113.39 561.16,116.44 566.49,121.01 572.18,125.88 577.51,130.44 583.20,135.30 588.53,139.82 594.21,144.62 599.55,149.06 605.23,153.75 610.56,158.12 616.25,162.79 621.58,167.26 623.36,168.76 627.27,172.05 632.60,176.48 638.29,181.20 643.62,185.61 649.30,190.30 654.63,194.66 660.32,199.29 665.65,203.60 671.34,208.17 676.67,212.41 678.45,213.82 680.22,215.22 681.29,216.06 682.36,216.90 687.69,221.07 693.02,225.20 698.70,229.56 704.04,233.61 709.72,237.86 715.05,241.81 720.74,245.95 726.07,249.78 729.98,252.55 731.76,253.80 737.09,257.51 740.64,259.94 742.77,261.39 748.11,264.95 751.30,267.05 753.79,268.67 759.12,272.07 764.81,275.60 766.94,276.83 767.65,277.20 768.72,277.72 769.07,277.89 769.43,278.04 770.14,278.34 770.50,278.47 771.21,278.73 771.92,278.96 772.27,279.08 773.34,279.36 773.69,279.46 775.12,279.75 775.47,279.82 776.54,279.98 776.89,280.04 777.60,280.11 777.96,280.16 779.03,280.25 779.38,280.27 779.74,280.29 780.80,280.34 782.22,280.37 782.58,280.37 786.84,280.37 792.18,280.37 797.86,280.37 803.19,280.37 808.88,280.37 814.21,280.37 819.90,280.37 825.23,280.37 830.92,280.37 836.25,280.37 841.93,280.37 847.26,280.37 852.95,280.37 857.93,280.37"/>
<polyline fill="none" stroke="#1f77b4" stroke-width="1.1" stroke-dasharray="6 4" points="492.00,322.43 496.81,319.46 501.62,316.49 506.43,313.51 511.24,310.54 516.05,307.57 520.86,304.59 525.67,301.62 530.48,298.65 535.29,295.67 540.10,292.70 544.91,289.73 549.72,286.76 554.53,283.78 559.34,280.81 564.15,277.84 568.96,274.86 573.77,271.89 578.58,268.92 583.39,265.95 588.20,262.97 593.01,260.00 597.82,257.03 602.63,254.05 607.44,251.08 612.25,248.11 617.06,245.13 621.87,242.16 626.68,239.19 631.49,236.22 636.30,233.24 641.11,230.27 645.92,227.30 650.73,224.32 655.54,221.35 660.35,218.38 665.16,215.41 669.97,212.43 674.78,209.46 679.59,206.49 684.41,203.51 689.22,200.54 694.03,197.57 698.84,194.59 703.65,191.62 708.46,188.65 713.27,185.68 718.08,182.70 722.89,179.73 727.70,176.76 732.51,173.78 737.32,170.81 742.13,167.84 746.94,164.87 751.75,161.89 756.56,158.92 761.37,155.95 766.18,152.97 770.99,150.00 775.80,147.03 780.61,144.05 785.42,141.08 790.23,138.11 795.04,135.14 799.85,132.16 804.66,129.19 809.47,126.22 814.28,123.24 819.09,120.27 823.90,117.30 828.71,114.33 833.52,111.35 838.33,108.38 843.14,105.41 847.95,102.43 852.76,99.46 857.57,96.49 862.38,93.51 867.19,90.54 872.00,87.57"/>
<circle cx="680.08" cy="206.19" r="4.6" fill="#ffffff" stroke="#1f77b4" stroke-width="2"/>
<text x="686.08" y="200.19" font-family="Arial, sans-serif" font-size="10" fill="#1f77b4">typ 46.8 ohm</text>
<polyline fill="none" stroke="#ff7f0e" stroke-width="1.1" stroke-dasharray="6 4" points="492.00,315.84 496.81,312.87 501.62,309.90 506.43,306.92 511.24,303.95 516.05,300.98 520.86,298.00 525.67,295.03 530.48,292.06 535.29,289.08 540.10,286.11 544.91,283.14 549.72,280.17 554.53,277.19 559.34,274.22 564.15,271.25 568.96,268.27 573.77,265.30 578.58,262.33 583.39,259.36 588.20,256.38 593.01,253.41 597.82,250.44 602.63,247.46 607.44,244.49 612.25,241.52 617.06,238.54 621.87,235.57 626.68,232.60 631.49,229.63 636.30,226.65 641.11,223.68 645.92,220.71 650.73,217.73 655.54,214.76 660.35,211.79 665.16,208.82 669.97,205.84 674.78,202.87 679.59,199.90 684.41,196.92 689.22,193.95 694.03,190.98 698.84,188.00 703.65,185.03 708.46,182.06 713.27,179.09 718.08,176.11 722.89,173.14 727.70,170.17 732.51,167.19 737.32,164.22 742.13,161.25 746.94,158.28 751.75,155.30 756.56,152.33 761.37,149.36 766.18,146.38 770.99,143.41 775.80,140.44 780.61,137.46 785.42,134.49 790.23,131.52 795.04,128.55 799.85,125.57 804.66,122.60 809.47,119.63 814.28,116.65 819.09,113.68 823.90,110.71 828.71,107.74 833.52,104.76 838.33,101.79 843.14,98.82 847.95,95.84 852.76,92.87 857.57,89.90 862.38,86.92 867.19,83.95 872.00,80.98"/>
<circle cx="681.25" cy="198.88" r="4.6" fill="#ffffff" stroke="#ff7f0e" stroke-width="2"/>
<text x="687.25" y="192.88" font-family="Arial, sans-serif" font-size="10" fill="#ff7f0e">min 59.4 ohm</text>
<polyline fill="none" stroke="#2ca02c" stroke-width="1.1" stroke-dasharray="6 4" points="492.00,329.02 496.81,326.05 501.62,323.08 506.43,320.10 511.24,317.13 516.05,314.16 520.86,311.18 525.67,308.21 530.48,305.24 535.29,302.26 540.10,299.29 544.91,296.32 549.72,293.35 554.53,290.37 559.34,287.40 564.15,284.43 568.96,281.45 573.77,278.48 578.58,275.51 583.39,272.54 588.20,269.56 593.01,266.59 597.82,263.62 602.63,260.64 607.44,257.67 612.25,254.70 617.06,251.72 621.87,248.75 626.68,245.78 631.49,242.81 636.30,239.83 641.11,236.86 645.92,233.89 650.73,230.91 655.54,227.94 660.35,224.97 665.16,222.00 669.97,219.02 674.78,216.05 679.59,213.08 684.41,210.10 689.22,207.13 694.03,204.16 698.84,201.18 703.65,198.21 708.46,195.24 713.27,192.27 718.08,189.29 722.89,186.32 727.70,183.35 732.51,180.37 737.32,177.40 742.13,174.43 746.94,171.46 751.75,168.48 756.56,165.51 761.37,162.54 766.18,159.56 770.99,156.59 775.80,153.62 780.61,150.64 785.42,147.67 790.23,144.70 795.04,141.73 799.85,138.75 804.66,135.78 809.47,132.81 814.28,129.83 819.09,126.86 823.90,123.89 828.71,120.92 833.52,117.94 838.33,114.97 843.14,112.00 847.95,109.02 852.76,106.05 857.57,103.08 862.38,100.10 867.19,97.13 872.00,94.16"/>
<circle cx="678.42" cy="213.80" r="4.6" fill="#ffffff" stroke="#2ca02c" stroke-width="2"/>
<text x="684.42" y="207.80" font-family="Arial, sans-serif" font-size="10" fill="#2ca02c">max 37.8 ohm</text>
<line x1="502.00" y1="80.00" x2="524.00" y2="80.00" stroke="#1f77b4" stroke-width="2"/>
<text x="530.00" y="84.00" font-family="Arial, sans-serif" font-size="11">typ</text>
<line x1="502.00" y1="97.00" x2="524.00" y2="97.00" stroke="#ff7f0e" stroke-width="2" stroke-dasharray="5 4"/>
<text x="530.00" y="101.00" font-family="Arial, sans-serif" font-size="11">min</text>
<line x1="502.00" y1="114.00" x2="524.00" y2="114.00" stroke="#2ca02c" stroke-width="2" stroke-dasharray="2 4"/>
<text x="530.00" y="118.00" font-family="Arial, sans-serif" font-size="11">max</text>
<text x="682.00" y="386.00" text-anchor="middle" font-family="Arial, sans-serif" font-size="11">Vcc-relative table voltage (V)</text>
<text transform="translate(442.00 205.00) rotate(-90)" text-anchor="middle" font-family="Arial, sans-serif" font-size="11">Current (mA)</text>
<rect x="72.00" y="418.00" width="800.00" height="144.00" fill="#ffffff" stroke="#c8c8c8"/>
<text x="82.00" y="436.00" font-family="Arial, sans-serif" font-size="12" font-weight="700">Operating-point summary</text>
<text x="82.00" y="454.00" font-family="Arial, sans-serif" font-size="10" font-weight="700" fill="#333">Table</text>
<text x="174.00" y="454.00" font-family="Arial, sans-serif" font-size="10" font-weight="700" fill="#333">Corner</text>
<text x="242.00" y="454.00" font-family="Arial, sans-serif" font-size="10" font-weight="700" fill="#333">Vout</text>
<text x="332.00" y="454.00" font-family="Arial, sans-serif" font-size="10" font-weight="700" fill="#333">Iop</text>
<text x="422.00" y="454.00" font-family="Arial, sans-serif" font-size="10" font-weight="700" fill="#333">Zout</text>
<text x="512.00" y="454.00" font-family="Arial, sans-serif" font-size="10" font-weight="700" fill="#333">Rseries</text>
<text x="82.00" y="473.00" font-family="Arial, sans-serif" font-size="10" fill="#1f77b4">pulldown</text>
<text x="174.00" y="473.00" font-family="Arial, sans-serif" font-size="10" fill="#1f77b4">typ</text>
<text x="242.00" y="473.00" font-family="Arial, sans-serif" font-size="10" fill="#1f77b4">1.627 V</text>
<text x="332.00" y="473.00" font-family="Arial, sans-serif" font-size="10" fill="#1f77b4">33 mA</text>
<text x="422.00" y="473.00" font-family="Arial, sans-serif" font-size="10" fill="#1f77b4">48.6 ohm</text>
<text x="512.00" y="473.00" font-family="Arial, sans-serif" font-size="10" fill="#1f77b4">1.36 ohm</text>
<text x="82.00" y="492.00" font-family="Arial, sans-serif" font-size="10" fill="#ff7f0e">pulldown</text>
<text x="174.00" y="492.00" font-family="Arial, sans-serif" font-size="10" fill="#ff7f0e">min</text>
<text x="242.00" y="492.00" font-family="Arial, sans-serif" font-size="10" fill="#ff7f0e">1.669 V</text>
<text x="332.00" y="492.00" font-family="Arial, sans-serif" font-size="10" fill="#ff7f0e">27 mA</text>
<text x="422.00" y="492.00" font-family="Arial, sans-serif" font-size="10" fill="#ff7f0e">62.7 ohm</text>
<text x="512.00" y="492.00" font-family="Arial, sans-serif" font-size="10" fill="#ff7f0e">-12.7 ohm</text>
<text x="82.00" y="511.00" font-family="Arial, sans-serif" font-size="10" fill="#2ca02c">pulldown</text>
<text x="174.00" y="511.00" font-family="Arial, sans-serif" font-size="10" fill="#2ca02c">max</text>
<text x="242.00" y="511.00" font-family="Arial, sans-serif" font-size="10" fill="#2ca02c">1.596 V</text>
<text x="332.00" y="511.00" font-family="Arial, sans-serif" font-size="10" fill="#2ca02c">40 mA</text>
<text x="422.00" y="511.00" font-family="Arial, sans-serif" font-size="10" fill="#2ca02c">39.8 ohm</text>
<text x="512.00" y="511.00" font-family="Arial, sans-serif" font-size="10" fill="#2ca02c">10.2 ohm</text>
<text x="82.00" y="530.00" font-family="Arial, sans-serif" font-size="10" fill="#1f77b4">pullup</text>
<text x="174.00" y="530.00" font-family="Arial, sans-serif" font-size="10" fill="#1f77b4">typ</text>
<text x="242.00" y="530.00" font-family="Arial, sans-serif" font-size="10" fill="#1f77b4">1.704 V</text>
<text x="332.00" y="530.00" font-family="Arial, sans-serif" font-size="10" fill="#1f77b4">-34 mA</text>
<text x="422.00" y="530.00" font-family="Arial, sans-serif" font-size="10" fill="#1f77b4">46.8 ohm</text>
<text x="512.00" y="530.00" font-family="Arial, sans-serif" font-size="10" fill="#1f77b4">3.17 ohm</text>
<text x="82.00" y="549.00" font-family="Arial, sans-serif" font-size="10" fill="#ff7f0e">pullup</text>
<text x="174.00" y="549.00" font-family="Arial, sans-serif" font-size="10" fill="#ff7f0e">min</text>
<text x="242.00" y="549.00" font-family="Arial, sans-serif" font-size="10" fill="#ff7f0e">1.371 V</text>
<text x="332.00" y="549.00" font-family="Arial, sans-serif" font-size="10" fill="#ff7f0e">-27 mA</text>
<text x="422.00" y="549.00" font-family="Arial, sans-serif" font-size="10" fill="#ff7f0e">59.4 ohm</text>
<text x="512.00" y="549.00" font-family="Arial, sans-serif" font-size="10" fill="#ff7f0e">-9.395 ohm</text>
<text x="82.00" y="568.00" font-family="Arial, sans-serif" font-size="10" fill="#2ca02c">pullup</text>
<text x="174.00" y="568.00" font-family="Arial, sans-serif" font-size="10" fill="#2ca02c">max</text>
<text x="242.00" y="568.00" font-family="Arial, sans-serif" font-size="10" fill="#2ca02c">2.051 V</text>
<text x="332.00" y="568.00" font-family="Arial, sans-serif" font-size="10" fill="#2ca02c">-41 mA</text>
<text x="422.00" y="568.00" font-family="Arial, sans-serif" font-size="10" fill="#2ca02c">37.8 ohm</text>
<text x="512.00" y="568.00" font-family="Arial, sans-serif" font-size="10" fill="#2ca02c">12.2 ohm</text>
</svg>