<svg xmlns="http://www.w3.org/2000/svg" width="900" height="620" viewBox="0 0 900 620">
<rect width="100%" height="100%" fill="#ffffff"/>
<text x="72" y="26" font-family="Arial, sans-serif" font-size="16" font-weight="700">E34_GPIO_SPI_I3C_MST_1V8_10 Zout Load-Line Curves</text>
<text x="72" y="45" font-family="Arial, sans-serif" font-size="11" fill="#555">Rload=50 ohm; solid=device I-V, dashed=load line, circles=operating points</text>
<rect x="72.00" y="62.00" width="380.00" height="286.00" fill="#fbfbfb" stroke="#c8c8c8"/>
<text x="80.00" y="50.00" font-family="Arial, sans-serif" font-size="13" font-weight="700">[Pulldown] Rload to Vdd</text>
<line x1="72.00" y1="62.00" x2="72.00" y2="348.00" stroke="#ececec"/>
<text x="72.00" y="366.00" text-anchor="middle" font-family="Arial, sans-serif" font-size="10">-2</text>
<line x1="167.00" y1="62.00" x2="167.00" y2="348.00" stroke="#ececec"/>
<text x="167.00" y="366.00" text-anchor="middle" font-family="Arial, sans-serif" font-size="10">-0.558</text>
<line x1="262.00" y1="62.00" x2="262.00" y2="348.00" stroke="#ececec"/>
<text x="262.00" y="366.00" text-anchor="middle" font-family="Arial, sans-serif" font-size="10">0.9</text>
<line x1="357.00" y1="62.00" x2="357.00" y2="348.00" stroke="#ececec"/>
<text x="357.00" y="366.00" text-anchor="middle" font-family="Arial, sans-serif" font-size="10">2.4</text>
<line x1="452.00" y1="62.00" x2="452.00" y2="348.00" stroke="#ececec"/>
<text x="452.00" y="366.00" text-anchor="middle" font-family="Arial, sans-serif" font-size="10">3.8</text>
<line x1="72.00" y1="348.00" x2="452.00" y2="348.00" stroke="#ececec"/>
<text x="65.00" y="352.00" text-anchor="end" font-family="Arial, sans-serif" font-size="10">-1.2e+02</text>
<line x1="72.00" y1="276.50" x2="452.00" y2="276.50" stroke="#ececec"/>
<text x="65.00" y="280.50" text-anchor="end" font-family="Arial, sans-serif" font-size="10">-50</text>
<line x1="72.00" y1="205.00" x2="452.00" y2="205.00" stroke="#ececec"/>
<text x="65.00" y="209.00" text-anchor="end" font-family="Arial, sans-serif" font-size="10">25</text>
<line x1="72.00" y1="133.50" x2="452.00" y2="133.50" stroke="#ececec"/>
<text x="65.00" y="137.50" text-anchor="end" font-family="Arial, sans-serif" font-size="10">1e+02</text>
<line x1="72.00" y1="62.00" x2="452.00" y2="62.00" stroke="#ececec"/>
<text x="65.00" y="66.00" text-anchor="end" font-family="Arial, sans-serif" font-size="10">1.7e+02</text>
<line x1="203.36" y1="62" x2="203.36" y2="348" stroke="#777" stroke-dasharray="4 4"/>
<line x1="72.0" y1="228.89" x2="452.0" y2="228.89" stroke="#777" stroke-dasharray="4 4"/>
<polyline fill="none" stroke="#1f77b4" stroke-width="1.8" points="86.07,297.43 91.29,297.43 97.15,297.43 102.36,297.43 108.23,297.43 113.44,297.43 119.30,297.43 124.52,297.43 130.38,297.43 135.59,297.43 141.46,297.43 146.02,297.43 146.67,297.43 147.32,297.43 147.97,297.43 148.63,297.43 149.28,297.36 149.93,297.20 150.58,296.96 151.23,296.68 151.88,296.35 152.53,295.99 153.19,295.61 153.84,295.21 154.49,294.79 155.14,294.35 155.79,293.90 156.44,293.43 157.75,292.44 163.61,287.24 164.91,285.90 165.57,285.21 166.22,284.49 166.87,283.77 167.52,283.02 168.17,282.26 168.82,281.48 169.48,280.68 170.13,279.87 170.78,279.04 171.43,278.20 174.04,274.68 179.90,266.08 185.11,257.96 190.98,248.58 196.19,240.19 202.05,230.91 203.36,228.89 207.27,222.97 212.48,215.53 218.34,207.93 219.65,206.37 223.56,202.00 224.86,200.64 229.42,196.33 233.98,192.68 234.63,192.22 240.50,188.58 245.71,186.16 248.97,185.00 251.57,185.00 256.79,185.00 262.65,185.00 267.86,185.00 273.08,185.00 278.94,185.00 284.15,185.00 290.02,185.00 295.23,185.00 301.09,185.00 306.31,185.00 308.91,185.00 312.17,185.00 317.38,185.00 320.64,185.00 322.60,185.00 328.46,185.00 332.37,185.00 333.67,185.00 339.54,185.00 344.75,185.00 350.61,185.00 355.83,185.00 359.09,185.00 359.74,184.83 361.69,182.56 366.90,176.49 372.77,169.61 377.98,163.46 383.19,157.28 389.06,150.30 394.27,144.05 400.13,136.98 405.35,130.65 411.21,123.46 416.42,117.01 422.29,109.67 427.50,103.07 433.36,95.57 437.93,89.68"/>
<polyline fill="none" stroke="#ff7f0e" stroke-width="1.8" stroke-dasharray="5 4" points="86.07,273.79 91.29,273.79 97.15,273.79 102.36,273.79 108.23,273.79 113.44,273.79 119.30,273.79 124.52,273.79 130.38,273.79 135.59,273.79 141.46,273.79 146.02,273.79 146.67,273.79 147.32,273.79 147.97,273.79 148.63,273.79 149.28,273.79 149.93,273.79 150.58,273.79 151.23,273.79 151.88,273.79 152.53,273.79 153.19,273.73 153.84,273.60 154.49,273.41 155.14,273.18 155.79,272.90 156.44,272.59 157.75,271.90 163.61,268.04 164.91,267.06 165.57,266.55 166.22,266.03 166.87,265.50 167.52,264.96 168.17,264.42 168.82,263.86 169.48,263.29 170.13,262.71 170.78,262.13 171.43,261.53 174.04,259.08 179.90,253.15 185.11,247.63 190.98,241.39 196.19,235.97 202.05,230.14 203.36,228.89 207.27,225.26 212.48,220.75 218.34,216.19 219.65,215.26 223.56,212.64 224.86,211.83 229.42,209.25 233.98,207.07 234.63,206.79 240.50,204.63 245.71,203.23 248.97,202.57 251.57,202.15 256.79,201.50 262.65,201.00 267.86,200.67 273.08,200.40 278.94,200.14 284.15,199.94 290.02,199.74 295.23,199.57 301.09,199.40 306.31,199.26 308.91,199.20 312.17,199.11 317.38,198.99 320.64,198.91 322.60,198.86 328.46,198.72 332.37,198.60 333.67,198.56 339.54,198.27 344.75,197.83 350.61,197.07 355.83,196.09 359.09,195.33 359.74,195.16 361.69,194.63 366.90,193.02 372.77,190.86 377.98,188.64 383.19,186.14 389.06,183.02 394.27,179.98 400.13,176.26 405.35,172.70 411.21,168.42 416.42,164.40 422.29,159.84 427.50,155.79 433.36,151.22 437.93,147.68"/>
<polyline fill="none" stroke="#2ca02c" stroke-width="1.8" stroke-dasharray="2 4" points="86.07,320.32 91.29,320.32 97.15,320.32 102.36,320.32 108.23,320.32 113.44,320.32 119.30,320.32 124.52,320.32 130.38,320.32 135.59,320.32 141.46,320.32 146.02,320.32 146.67,320.21 147.32,320.01 147.97,319.74 148.63,319.43 149.28,319.09 149.93,318.72 150.58,318.35 151.23,317.94 151.88,317.53 152.53,317.10 153.19,316.66 153.84,316.20 154.49,315.72 155.14,315.24 155.79,314.74 156.44,314.21 157.75,313.12 163.61,307.21 164.91,305.64 165.57,304.82 166.22,303.97 166.87,303.10 167.52,302.20 168.17,301.27 168.82,300.32 169.48,299.34 170.13,298.34 170.78,297.31 171.43,296.26 174.04,291.80 179.90,280.64 185.11,269.82 190.98,257.00 196.19,245.22 202.05,231.83 203.36,228.89 207.27,220.19 212.48,209.14 218.34,197.82 219.65,195.49 223.56,188.98 224.86,186.97 229.42,180.57 233.98,175.14 234.63,174.44 240.50,168.98 245.71,165.27 248.97,163.44 251.57,162.20 256.79,160.26 262.65,158.72 267.86,157.74 273.08,157.00 278.94,156.35 284.15,155.86 290.02,155.39 295.23,155.01 301.09,154.63 306.31,154.31 308.91,154.16 312.17,153.98 317.38,153.70 320.64,153.53 322.60,153.42 328.46,153.13 332.37,152.94 333.67,152.88 339.54,152.61 344.75,152.37 350.61,152.12 355.83,151.89 359.09,151.73 359.74,151.70 361.69,151.58 366.90,151.09 372.77,150.03 377.98,148.41 383.19,146.06 389.06,142.62 394.27,138.99 400.13,134.40 405.35,129.95 411.21,124.59 416.42,119.55 422.29,113.56 427.50,107.96 433.36,101.35 437.93,95.96"/>
<polyline fill="none" stroke="#1f77b4" stroke-width="1.1" stroke-dasharray="6 4" points="72.00,155.76 76.81,157.18 81.62,158.59 86.43,160.00 91.24,161.42 96.05,162.83 100.86,164.25 105.67,165.66 110.48,167.08 115.29,168.49 120.10,169.91 124.91,171.32 129.72,172.74 134.53,174.15 139.34,175.57 144.15,176.98 148.96,178.40 153.77,179.81 158.58,181.22 163.39,182.64 168.20,184.05 173.01,185.47 177.82,186.88 182.63,188.30 187.44,189.71 192.25,191.13 197.06,192.54 201.87,193.96 206.68,195.37 211.49,196.79 216.30,198.20 221.11,199.62 225.92,201.03 230.73,202.44 235.54,203.86 240.35,205.27 245.16,206.69 249.97,208.10 254.78,209.52 259.59,210.93 264.41,212.35 269.22,213.76 274.03,215.18 278.84,216.59 283.65,218.01 288.46,219.42 293.27,220.84 298.08,222.25 302.89,223.66 307.70,225.08 312.51,226.49 317.32,227.91 322.13,229.32 326.94,230.74 331.75,232.15 336.56,233.57 341.37,234.98 346.18,236.40 350.99,237.81 355.80,239.23 360.61,240.64 365.42,242.06 370.23,243.47 375.04,244.88 379.85,246.30 384.66,247.71 389.47,249.13 394.28,250.54 399.09,251.96 403.90,253.37 408.71,254.79 413.52,256.20 418.33,257.62 423.14,259.03 427.95,260.45 432.76,261.86 437.57,263.28 442.38,264.69 447.19,266.10 452.00,267.52"/>
<circle cx="224.81" cy="200.70" r="4.6" fill="#ffffff" stroke="#1f77b4" stroke-width="2"/>
<text x="230.81" y="194.70" font-family="Arial, sans-serif" font-size="10" fill="#1f77b4">typ 11.2 ohm</text>
<polyline fill="none" stroke="#ff7f0e" stroke-width="1.1" stroke-dasharray="6 4" points="72.00,159.21 76.81,160.62 81.62,162.04 86.43,163.45 91.24,164.87 96.05,166.28 100.86,167.70 105.67,169.11 110.48,170.53 115.29,171.94 120.10,173.36 124.91,174.77 129.72,176.19 134.53,177.60 139.34,179.02 144.15,180.43 148.96,181.84 153.77,183.26 158.58,184.67 163.39,186.09 168.20,187.50 173.01,188.92 177.82,190.33 182.63,191.75 187.44,193.16 192.25,194.58 197.06,195.99 201.87,197.41 206.68,198.82 211.49,200.24 216.30,201.65 221.11,203.06 225.92,204.48 230.73,205.89 235.54,207.31 240.35,208.72 245.16,210.14 249.97,211.55 254.78,212.97 259.59,214.38 264.41,215.80 269.22,217.21 274.03,218.63 278.84,220.04 283.65,221.46 288.46,222.87 293.27,224.28 298.08,225.70 302.89,227.11 307.70,228.53 312.51,229.94 317.32,231.36 322.13,232.77 326.94,234.19 331.75,235.60 336.56,237.02 341.37,238.43 346.18,239.85 350.99,241.26 355.80,242.68 360.61,244.09 365.42,245.50 370.23,246.92 375.04,248.33 379.85,249.75 384.66,251.16 389.47,252.58 394.28,253.99 399.09,255.41 403.90,256.82 408.71,258.24 413.52,259.65 418.33,261.07 423.14,262.48 427.95,263.90 432.76,265.31 437.57,266.72 442.38,268.14 447.19,269.55 452.00,270.97"/>
<circle cx="234.29" cy="206.94" r="4.6" fill="#ffffff" stroke="#ff7f0e" stroke-width="2"/>
<text x="240.29" y="200.94" font-family="Arial, sans-serif" font-size="10" fill="#ff7f0e">min 20.7 ohm</text>
<polyline fill="none" stroke="#2ca02c" stroke-width="1.1" stroke-dasharray="6 4" points="72.00,152.31 76.81,153.73 81.62,155.14 86.43,156.56 91.24,157.97 96.05,159.38 100.86,160.80 105.67,162.21 110.48,163.63 115.29,165.04 120.10,166.46 124.91,167.87 129.72,169.29 134.53,170.70 139.34,172.12 144.15,173.53 148.96,174.95 153.77,176.36 158.58,177.78 163.39,179.19 168.20,180.60 173.01,182.02 177.82,183.43 182.63,184.85 187.44,186.26 192.25,187.68 197.06,189.09 201.87,190.51 206.68,191.92 211.49,193.34 216.30,194.75 221.11,196.17 225.92,197.58 230.73,199.00 235.54,200.41 240.35,201.82 245.16,203.24 249.97,204.65 254.78,206.07 259.59,207.48 264.41,208.90 269.22,210.31 274.03,211.73 278.84,213.14 283.65,214.56 288.46,215.97 293.27,217.39 298.08,218.80 302.89,220.22 307.70,221.63 312.51,223.04 317.32,224.46 322.13,225.87 326.94,227.29 331.75,228.70 336.56,230.12 341.37,231.53 346.18,232.95 350.99,234.36 355.80,235.78 360.61,237.19 365.42,238.61 370.23,240.02 375.04,241.44 379.85,242.85 384.66,244.26 389.47,245.68 394.28,247.09 399.09,248.51 403.90,249.92 408.71,251.34 413.52,252.75 418.33,254.17 423.14,255.58 427.95,257.00 432.76,258.41 437.57,259.83 442.38,261.24 447.19,262.66 452.00,264.07"/>
<circle cx="219.53" cy="195.70" r="4.6" fill="#ffffff" stroke="#2ca02c" stroke-width="2"/>
<text x="225.53" y="189.70" font-family="Arial, sans-serif" font-size="10" fill="#2ca02c">max 7.166 ohm</text>
<line x1="82.00" y1="80.00" x2="104.00" y2="80.00" stroke="#1f77b4" stroke-width="2"/>
<text x="110.00" y="84.00" font-family="Arial, sans-serif" font-size="11">typ</text>
<line x1="82.00" y1="97.00" x2="104.00" y2="97.00" stroke="#ff7f0e" stroke-width="2" stroke-dasharray="5 4"/>
<text x="110.00" y="101.00" font-family="Arial, sans-serif" font-size="11">min</text>
<line x1="82.00" y1="114.00" x2="104.00" y2="114.00" stroke="#2ca02c" stroke-width="2" stroke-dasharray="2 4"/>
<text x="110.00" y="118.00" font-family="Arial, sans-serif" font-size="11">max</text>
<text x="262.00" y="386.00" text-anchor="middle" font-family="Arial, sans-serif" font-size="11">Output voltage (V)</text>
<text transform="translate(22.00 205.00) rotate(-90)" text-anchor="middle" font-family="Arial, sans-serif" font-size="11">Current (mA)</text>
<rect x="492.00" y="62.00" width="380.00" height="286.00" fill="#fbfbfb" stroke="#c8c8c8"/>
<text x="500.00" y="50.00" font-family="Arial, sans-serif" font-size="13" font-weight="700">[Pullup] Rload to GND</text>
<line x1="492.00" y1="62.00" x2="492.00" y2="348.00" stroke="#ececec"/>
<text x="492.00" y="366.00" text-anchor="middle" font-family="Arial, sans-serif" font-size="10">-2</text>
<line x1="587.00" y1="62.00" x2="587.00" y2="348.00" stroke="#ececec"/>
<text x="587.00" y="366.00" text-anchor="middle" font-family="Arial, sans-serif" font-size="10">-0.558</text>
<line x1="682.00" y1="62.00" x2="682.00" y2="348.00" stroke="#ececec"/>
<text x="682.00" y="366.00" text-anchor="middle" font-family="Arial, sans-serif" font-size="10">0.9</text>
<line x1="777.00" y1="62.00" x2="777.00" y2="348.00" stroke="#ececec"/>
<text x="777.00" y="366.00" text-anchor="middle" font-family="Arial, sans-serif" font-size="10">2.4</text>
<line x1="872.00" y1="62.00" x2="872.00" y2="348.00" stroke="#ececec"/>
<text x="872.00" y="366.00" text-anchor="middle" font-family="Arial, sans-serif" font-size="10">3.8</text>
<line x1="492.00" y1="348.00" x2="872.00" y2="348.00" stroke="#ececec"/>
<text x="485.00" y="352.00" text-anchor="end" font-family="Arial, sans-serif" font-size="10">-1.3e+02</text>
<line x1="492.00" y1="276.50" x2="872.00" y2="276.50" stroke="#ececec"/>
<text x="485.00" y="280.50" text-anchor="end" font-family="Arial, sans-serif" font-size="10">-45</text>
<line x1="492.00" y1="205.00" x2="872.00" y2="205.00" stroke="#ececec"/>
<text x="485.00" y="209.00" text-anchor="end" font-family="Arial, sans-serif" font-size="10">39</text>
<line x1="492.00" y1="133.50" x2="872.00" y2="133.50" stroke="#ececec"/>
<text x="485.00" y="137.50" text-anchor="end" font-family="Arial, sans-serif" font-size="10">1.2e+02</text>
<line x1="492.00" y1="62.00" x2="872.00" y2="62.00" stroke="#ececec"/>
<text x="485.00" y="66.00" text-anchor="end" font-family="Arial, sans-serif" font-size="10">2e+02</text>
<line x1="623.36" y1="62" x2="623.36" y2="348" stroke="#777" stroke-dasharray="4 4"/>
<line x1="492.0" y1="238.19" x2="872.0" y2="238.19" stroke="#777" stroke-dasharray="4 4"/>
<polyline fill="none" stroke="#1f77b4" stroke-width="1.8" points="506.07,113.16 511.29,119.20 517.15,125.93 522.36,131.85 528.23,138.43 533.44,144.22 539.30,150.67 544.52,156.35 550.38,162.70 555.59,168.30 561.46,174.57 566.67,180.12 571.88,185.64 577.75,191.81 582.96,197.27 588.82,203.36 594.04,208.75 599.90,214.77 605.11,220.07 610.98,226.00 616.19,231.19 617.49,232.47 622.05,236.93 623.36,238.19 627.27,241.86 632.48,246.44 638.34,251.19 643.56,255.03 646.81,257.24 649.42,258.89 653.33,261.20 654.63,261.92 660.50,264.87 663.76,266.30 665.71,267.09 671.57,269.15 676.79,270.64 682.65,271.98 687.86,272.92 693.08,273.68 694.38,273.84 698.94,273.84 702.20,273.84 704.15,273.84 710.02,273.84 715.23,273.84 721.09,273.84 726.31,273.84 728.91,273.84 732.17,273.84 737.38,273.84 740.64,273.84 742.60,273.84 748.46,273.84 752.37,273.84 753.67,273.84 759.54,273.84 765.40,273.84 766.05,274.25 770.61,280.13 775.83,286.13 780.39,290.61 781.04,291.19 783.65,293.35 784.30,293.85 784.95,294.34 785.60,294.82 786.25,295.28 786.90,295.73 787.56,296.17 788.21,296.59 788.86,297.00 789.51,297.39 790.16,297.77 790.81,298.13 791.47,298.47 792.12,298.79 792.77,299.08 793.42,299.34 794.07,299.55 794.72,299.70 795.37,299.76 797.98,299.76 803.84,299.76 805.15,299.76 806.45,299.76 807.10,299.76 807.75,299.76 808.41,299.76 809.06,299.76 809.71,299.76 814.27,299.76 820.13,299.76 825.35,299.76 831.21,299.76 836.42,299.76 842.29,299.76 847.50,299.76 853.36,299.76 857.93,299.76"/>
<polyline fill="none" stroke="#ff7f0e" stroke-width="1.8" stroke-dasharray="5 4" points="506.07,142.09 511.29,147.14 517.15,152.83 522.36,157.86 528.23,163.42 533.44,168.27 539.30,173.64 544.52,178.31 550.38,183.47 555.59,187.97 561.46,192.94 566.67,197.26 571.88,201.50 577.75,206.17 582.96,210.22 588.82,214.65 594.04,218.49 599.90,222.68 605.11,226.30 610.98,230.25 616.19,233.66 617.49,234.49 622.05,237.38 623.36,238.19 627.27,240.54 632.48,243.42 638.34,246.37 643.56,248.73 646.81,250.07 649.42,251.07 653.33,252.44 654.63,252.86 660.50,254.56 663.76,255.35 665.71,255.78 671.57,256.86 676.79,257.59 682.65,258.21 687.86,258.64 693.08,258.98 694.38,259.06 698.94,259.31 702.20,259.47 704.15,259.56 710.02,259.80 715.23,259.99 721.09,260.19 726.31,260.35 728.91,260.42 732.17,260.51 737.38,260.65 740.64,260.74 742.60,260.78 748.46,260.93 752.37,261.01 753.67,261.04 759.54,261.17 765.40,261.29 766.05,261.31 770.61,261.40 775.83,261.50 780.39,261.58 781.04,261.59 783.65,261.61 784.30,261.61 784.95,261.61 785.60,261.61 786.25,261.61 786.90,261.61 787.56,261.61 788.21,261.61 788.86,261.61 789.51,261.61 790.16,261.61 790.81,261.61 791.47,261.61 792.12,261.61 792.77,261.61 793.42,261.61 794.07,261.61 794.72,261.61 795.37,261.61 797.98,261.61 803.84,261.61 805.15,261.61 806.45,261.61 807.10,261.61 807.75,261.61 808.41,261.61 809.06,261.61 809.71,261.61 814.27,261.61 820.13,261.61 825.35,261.61 831.21,261.61 836.42,261.61 842.29,261.61 847.50,261.61 853.36,261.61 857.93,261.61"/>
<polyline fill="none" stroke="#2ca02c" stroke-width="1.8" stroke-dasharray="2 4" points="506.07,89.68 511.29,96.15 517.15,103.39 522.36,109.77 528.23,116.89 533.44,123.17 539.30,130.21 544.52,136.45 550.38,143.48 555.59,149.75 561.46,156.84 566.67,163.19 571.88,169.58 577.75,176.85 582.96,183.39 588.82,190.86 594.04,197.63 599.90,205.41 605.11,212.49 610.98,220.64 616.19,227.92 617.49,229.72 622.05,236.32 623.36,238.19 627.27,243.67 632.48,250.41 638.34,257.39 643.56,263.01 646.81,266.23 649.42,268.64 653.33,272.00 654.63,273.05 660.50,277.36 663.76,279.47 665.71,280.65 671.57,283.80 676.79,286.16 682.65,288.37 687.86,289.97 693.08,291.29 694.38,291.58 698.94,292.48 702.20,293.04 704.15,293.04 710.02,293.04 715.23,293.04 721.09,293.04 726.31,293.04 728.91,293.04 732.17,293.04 737.38,293.04 740.64,293.04 742.60,293.04 748.46,293.04 752.37,293.04 753.67,293.04 759.54,293.04 765.40,293.04 766.05,293.04 770.61,293.04 775.83,293.04 780.39,293.04 781.04,293.66 783.65,297.74 784.30,298.71 784.95,299.65 785.60,300.58 786.25,301.48 786.90,302.36 787.56,303.21 788.21,304.04 788.86,304.85 789.51,305.64 790.16,306.40 790.81,307.13 791.47,307.85 792.12,308.54 792.77,309.21 793.42,309.86 794.07,310.49 794.72,311.10 795.37,311.68 797.98,313.85 803.84,317.82 805.15,318.55 806.45,319.22 807.10,319.52 807.75,319.80 808.41,320.04 809.06,320.22 809.71,320.32 814.27,320.32 820.13,320.32 825.35,320.32 831.21,320.32 836.42,320.32 842.29,320.32 847.50,320.32 853.36,320.32 857.93,320.32"/>
<polyline fill="none" stroke="#1f77b4" stroke-width="1.1" stroke-dasharray="6 4" points="492.00,303.88 496.81,302.61 501.62,301.33 506.43,300.06 511.24,298.79 516.05,297.52 520.86,296.25 525.67,294.98 530.48,293.71 535.29,292.44 540.10,291.17 544.91,289.90 549.72,288.63 554.53,287.36 559.34,286.09 564.15,284.82 568.96,283.55 573.77,282.27 578.58,281.00 583.39,279.73 588.20,278.46 593.01,277.19 597.82,275.92 602.63,274.65 607.44,273.38 612.25,272.11 617.06,270.84 621.87,269.57 626.68,268.30 631.49,267.03 636.30,265.76 641.11,264.49 645.92,263.22 650.73,261.94 655.54,260.67 660.35,259.40 665.16,258.13 669.97,256.86 674.78,255.59 679.59,254.32 684.41,253.05 689.22,251.78 694.03,250.51 698.84,249.24 703.65,247.97 708.46,246.70 713.27,245.43 718.08,244.16 722.89,242.88 727.70,241.61 732.51,240.34 737.32,239.07 742.13,237.80 746.94,236.53 751.75,235.26 756.56,233.99 761.37,232.72 766.18,231.45 770.99,230.18 775.80,228.91 780.61,227.64 785.42,226.37 790.23,225.10 795.04,223.82 799.85,222.55 804.66,221.28 809.47,220.01 814.28,218.74 819.09,217.47 823.90,216.20 828.71,214.93 833.52,213.66 838.33,212.39 843.14,211.12 847.95,209.85 852.76,208.58 857.57,207.31 862.38,206.04 867.19,204.76 872.00,203.49"/>
<circle cx="653.40" cy="261.24" r="4.6" fill="#ffffff" stroke="#1f77b4" stroke-width="2"/>
<text x="659.40" y="255.24" font-family="Arial, sans-serif" font-size="10" fill="#1f77b4">typ 17.2 ohm</text>
<polyline fill="none" stroke="#ff7f0e" stroke-width="1.1" stroke-dasharray="6 4" points="492.00,300.78 496.81,299.51 501.62,298.24 506.43,296.97 511.24,295.70 516.05,294.42 520.86,293.15 525.67,291.88 530.48,290.61 535.29,289.34 540.10,288.07 544.91,286.80 549.72,285.53 554.53,284.26 559.34,282.99 564.15,281.72 568.96,280.45 573.77,279.18 578.58,277.91 583.39,276.64 588.20,275.36 593.01,274.09 597.82,272.82 602.63,271.55 607.44,270.28 612.25,269.01 617.06,267.74 621.87,266.47 626.68,265.20 631.49,263.93 636.30,262.66 641.11,261.39 645.92,260.12 650.73,258.85 655.54,257.58 660.35,256.30 665.16,255.03 669.97,253.76 674.78,252.49 679.59,251.22 684.41,249.95 689.22,248.68 694.03,247.41 698.84,246.14 703.65,244.87 708.46,243.60 713.27,242.33 718.08,241.06 722.89,239.79 727.70,238.52 732.51,237.24 737.32,235.97 742.13,234.70 746.94,233.43 751.75,232.16 756.56,230.89 761.37,229.62 766.18,228.35 770.99,227.08 775.80,225.81 780.61,224.54 785.42,223.27 790.23,222.00 795.04,220.73 799.85,219.46 804.66,218.18 809.47,216.91 814.28,215.64 819.09,214.37 823.90,213.10 828.71,211.83 833.52,210.56 838.33,209.29 843.14,208.02 847.95,206.75 852.76,205.48 857.57,204.21 862.38,202.94 867.19,201.67 872.00,200.40"/>
<circle cx="663.86" cy="255.38" r="4.6" fill="#ffffff" stroke="#ff7f0e" stroke-width="2"/>
<text x="669.86" y="249.38" font-family="Arial, sans-serif" font-size="10" fill="#ff7f0e">min 31.1 ohm</text>
<polyline fill="none" stroke="#2ca02c" stroke-width="1.1" stroke-dasharray="6 4" points="492.00,306.97 496.81,305.70 501.62,304.43 506.43,303.16 511.24,301.89 516.05,300.62 520.86,299.35 525.67,298.08 530.48,296.81 535.29,295.54 540.10,294.27 544.91,293.00 549.72,291.73 554.53,290.46 559.34,289.19 564.15,287.91 568.96,286.64 573.77,285.37 578.58,284.10 583.39,282.83 588.20,281.56 593.01,280.29 597.82,279.02 602.63,277.75 607.44,276.48 612.25,275.21 617.06,273.94 621.87,272.67 626.68,271.40 631.49,270.13 636.30,268.85 641.11,267.58 645.92,266.31 650.73,265.04 655.54,263.77 660.35,262.50 665.16,261.23 669.97,259.96 674.78,258.69 679.59,257.42 684.41,256.15 689.22,254.88 694.03,253.61 698.84,252.34 703.65,251.07 708.46,249.79 713.27,248.52 718.08,247.25 722.89,245.98 727.70,244.71 732.51,243.44 737.32,242.17 742.13,240.90 746.94,239.63 751.75,238.36 756.56,237.09 761.37,235.82 766.18,234.55 770.99,233.28 775.80,232.01 780.61,230.73 785.42,229.46 790.23,228.19 795.04,226.92 799.85,225.65 804.66,224.38 809.47,223.11 814.28,221.84 819.09,220.57 823.90,219.30 828.71,218.03 833.52,216.76 838.33,215.49 843.14,214.22 847.95,212.95 852.76,211.67 857.57,210.40 862.38,209.13 867.19,207.86 872.00,206.59"/>
<circle cx="646.69" cy="266.11" r="4.6" fill="#ffffff" stroke="#2ca02c" stroke-width="2"/>
<text x="652.69" y="260.11" font-family="Arial, sans-serif" font-size="10" fill="#2ca02c">max 11 ohm</text>
<line x1="502.00" y1="80.00" x2="524.00" y2="80.00" stroke="#1f77b4" stroke-width="2"/>
<text x="530.00" y="84.00" font-family="Arial, sans-serif" font-size="11">typ</text>
<line x1="502.00" y1="97.00" x2="524.00" y2="97.00" stroke="#ff7f0e" stroke-width="2" stroke-dasharray="5 4"/>
<text x="530.00" y="101.00" font-family="Arial, sans-serif" font-size="11">min</text>
<line x1="502.00" y1="114.00" x2="524.00" y2="114.00" stroke="#2ca02c" stroke-width="2" stroke-dasharray="2 4"/>
<text x="530.00" y="118.00" font-family="Arial, sans-serif" font-size="11">max</text>
<text x="682.00" y="386.00" text-anchor="middle" font-family="Arial, sans-serif" font-size="11">Vcc-relative table voltage (V)</text>
<text transform="translate(442.00 205.00) rotate(-90)" text-anchor="middle" font-family="Arial, sans-serif" font-size="11">Current (mA)</text>
<rect x="72.00" y="418.00" width="800.00" height="144.00" fill="#ffffff" stroke="#c8c8c8"/>
<text x="82.00" y="436.00" font-family="Arial, sans-serif" font-size="12" font-weight="700">Operating-point summary</text>
<text x="82.00" y="454.00" font-family="Arial, sans-serif" font-size="10" font-weight="700" fill="#333">Table</text>
<text x="174.00" y="454.00" font-family="Arial, sans-serif" font-size="10" font-weight="700" fill="#333">Corner</text>
<text x="242.00" y="454.00" font-family="Arial, sans-serif" font-size="10" font-weight="700" fill="#333">Vout</text>
<text x="332.00" y="454.00" font-family="Arial, sans-serif" font-size="10" font-weight="700" fill="#333">Iop</text>
<text x="422.00" y="454.00" font-family="Arial, sans-serif" font-size="10" font-weight="700" fill="#333">Zout</text>
<text x="512.00" y="454.00" font-family="Arial, sans-serif" font-size="10" font-weight="700" fill="#333">Rseries</text>
<text x="82.00" y="473.00" font-family="Arial, sans-serif" font-size="10" fill="#1f77b4">pulldown</text>
<text x="174.00" y="473.00" font-family="Arial, sans-serif" font-size="10" fill="#1f77b4">typ</text>
<text x="242.00" y="473.00" font-family="Arial, sans-serif" font-size="10" fill="#1f77b4">0.3292 V</text>
<text x="332.00" y="473.00" font-family="Arial, sans-serif" font-size="10" fill="#1f77b4">29 mA</text>
<text x="422.00" y="473.00" font-family="Arial, sans-serif" font-size="10" fill="#1f77b4">11.2 ohm</text>
<text x="512.00" y="473.00" font-family="Arial, sans-serif" font-size="10" fill="#1f77b4">38.8 ohm</text>
<text x="82.00" y="492.00" font-family="Arial, sans-serif" font-size="10" fill="#ff7f0e">pulldown</text>
<text x="174.00" y="492.00" font-family="Arial, sans-serif" font-size="10" fill="#ff7f0e">min</text>
<text x="242.00" y="492.00" font-family="Arial, sans-serif" font-size="10" fill="#ff7f0e">0.4747 V</text>
<text x="332.00" y="492.00" font-family="Arial, sans-serif" font-size="10" fill="#ff7f0e">23 mA</text>
<text x="422.00" y="492.00" font-family="Arial, sans-serif" font-size="10" fill="#ff7f0e">20.7 ohm</text>
<text x="512.00" y="492.00" font-family="Arial, sans-serif" font-size="10" fill="#ff7f0e">29.3 ohm</text>
<text x="82.00" y="511.00" font-family="Arial, sans-serif" font-size="10" fill="#2ca02c">pulldown</text>
<text x="174.00" y="511.00" font-family="Arial, sans-serif" font-size="10" fill="#2ca02c">max</text>
<text x="242.00" y="511.00" font-family="Arial, sans-serif" font-size="10" fill="#2ca02c">0.2482 V</text>
<text x="332.00" y="511.00" font-family="Arial, sans-serif" font-size="10" fill="#2ca02c">35 mA</text>
<text x="422.00" y="511.00" font-family="Arial, sans-serif" font-size="10" fill="#2ca02c">7.166 ohm</text>
<text x="512.00" y="511.00" font-family="Arial, sans-serif" font-size="10" fill="#2ca02c">42.8 ohm</text>
<text x="82.00" y="530.00" font-family="Arial, sans-serif" font-size="10" fill="#1f77b4">pullup</text>
<text x="174.00" y="530.00" font-family="Arial, sans-serif" font-size="10" fill="#1f77b4">typ</text>
<text x="242.00" y="530.00" font-family="Arial, sans-serif" font-size="10" fill="#1f77b4">1.339 V</text>
<text x="332.00" y="530.00" font-family="Arial, sans-serif" font-size="10" fill="#1f77b4">-27 mA</text>
<text x="422.00" y="530.00" font-family="Arial, sans-serif" font-size="10" fill="#1f77b4">17.2 ohm</text>
<text x="512.00" y="530.00" font-family="Arial, sans-serif" font-size="10" fill="#1f77b4">32.8 ohm</text>
<text x="82.00" y="549.00" font-family="Arial, sans-serif" font-size="10" fill="#ff7f0e">pullup</text>
<text x="174.00" y="549.00" font-family="Arial, sans-serif" font-size="10" fill="#ff7f0e">min</text>
<text x="242.00" y="549.00" font-family="Arial, sans-serif" font-size="10" fill="#ff7f0e">0.9983 V</text>
<text x="332.00" y="549.00" font-family="Arial, sans-serif" font-size="10" fill="#ff7f0e">-20 mA</text>
<text x="422.00" y="549.00" font-family="Arial, sans-serif" font-size="10" fill="#ff7f0e">31.1 ohm</text>
<text x="512.00" y="549.00" font-family="Arial, sans-serif" font-size="10" fill="#ff7f0e">18.9 ohm</text>
<text x="82.00" y="568.00" font-family="Arial, sans-serif" font-size="10" fill="#2ca02c">pullup</text>
<text x="174.00" y="568.00" font-family="Arial, sans-serif" font-size="10" fill="#2ca02c">max</text>
<text x="242.00" y="568.00" font-family="Arial, sans-serif" font-size="10" fill="#2ca02c">1.622 V</text>
<text x="332.00" y="568.00" font-family="Arial, sans-serif" font-size="10" fill="#2ca02c">-32 mA</text>
<text x="422.00" y="568.00" font-family="Arial, sans-serif" font-size="10" fill="#2ca02c">11 ohm</text>
<text x="512.00" y="568.00" font-family="Arial, sans-serif" font-size="10" fill="#2ca02c">39 ohm</text>
</svg>