<svg xmlns="http://www.w3.org/2000/svg" width="900" height="620" viewBox="0 0 900 620">
<rect width="100%" height="100%" fill="#ffffff"/>
<text x="72" y="26" font-family="Arial, sans-serif" font-size="16" font-weight="700">E34_GPIO_SPI_1V8_10 Zout Load-Line Curves</text>
<text x="72" y="45" font-family="Arial, sans-serif" font-size="11" fill="#555">Rload=50 ohm; solid=device I-V, dashed=load line, circles=operating points</text>
<rect x="72.00" y="62.00" width="380.00" height="286.00" fill="#fbfbfb" stroke="#c8c8c8"/>
<text x="80.00" y="50.00" font-family="Arial, sans-serif" font-size="13" font-weight="700">[Pulldown] Rload to Vdd</text>
<line x1="72.00" y1="62.00" x2="72.00" y2="348.00" stroke="#ececec"/>
<text x="72.00" y="366.00" text-anchor="middle" font-family="Arial, sans-serif" font-size="10">-2</text>
<line x1="167.00" y1="62.00" x2="167.00" y2="348.00" stroke="#ececec"/>
<text x="167.00" y="366.00" text-anchor="middle" font-family="Arial, sans-serif" font-size="10">-0.558</text>
<line x1="262.00" y1="62.00" x2="262.00" y2="348.00" stroke="#ececec"/>
<text x="262.00" y="366.00" text-anchor="middle" font-family="Arial, sans-serif" font-size="10">0.9</text>
<line x1="357.00" y1="62.00" x2="357.00" y2="348.00" stroke="#ececec"/>
<text x="357.00" y="366.00" text-anchor="middle" font-family="Arial, sans-serif" font-size="10">2.4</text>
<line x1="452.00" y1="62.00" x2="452.00" y2="348.00" stroke="#ececec"/>
<text x="452.00" y="366.00" text-anchor="middle" font-family="Arial, sans-serif" font-size="10">3.8</text>
<line x1="72.00" y1="348.00" x2="452.00" y2="348.00" stroke="#ececec"/>
<text x="65.00" y="352.00" text-anchor="end" font-family="Arial, sans-serif" font-size="10">-1.2e+02</text>
<line x1="72.00" y1="276.50" x2="452.00" y2="276.50" stroke="#ececec"/>
<text x="65.00" y="280.50" text-anchor="end" font-family="Arial, sans-serif" font-size="10">-51</text>
<line x1="72.00" y1="205.00" x2="452.00" y2="205.00" stroke="#ececec"/>
<text x="65.00" y="209.00" text-anchor="end" font-family="Arial, sans-serif" font-size="10">22</text>
<line x1="72.00" y1="133.50" x2="452.00" y2="133.50" stroke="#ececec"/>
<text x="65.00" y="137.50" text-anchor="end" font-family="Arial, sans-serif" font-size="10">94</text>
<line x1="72.00" y1="62.00" x2="452.00" y2="62.00" stroke="#ececec"/>
<text x="65.00" y="66.00" text-anchor="end" font-family="Arial, sans-serif" font-size="10">1.7e+02</text>
<line x1="203.36" y1="62" x2="203.36" y2="348" stroke="#777" stroke-dasharray="4 4"/>
<line x1="72.0" y1="226.23" x2="452.0" y2="226.23" stroke="#777" stroke-dasharray="4 4"/>
<polyline fill="none" stroke="#1f77b4" stroke-width="1.8" points="86.07,296.77 91.29,296.77 97.15,296.77 102.36,296.77 108.23,296.77 113.44,296.77 119.30,296.77 124.52,296.77 130.38,296.77 135.59,296.77 141.46,296.77 146.02,296.77 146.67,296.77 147.32,296.77 147.97,296.77 148.63,296.77 149.28,296.69 149.93,296.52 150.58,296.28 151.23,295.99 151.88,295.65 152.53,295.29 153.19,294.89 153.84,294.48 154.49,294.05 155.14,293.60 155.79,293.13 156.44,292.65 157.75,291.63 162.96,286.94 163.61,286.28 164.26,285.60 164.91,284.90 165.57,284.19 166.22,283.45 166.87,282.70 167.52,281.94 168.17,281.15 168.82,280.35 169.48,279.53 170.13,278.69 170.78,277.84 171.43,276.97 172.08,276.09 174.04,273.35 179.90,264.51 185.11,256.14 190.98,246.49 196.19,237.86 202.05,228.31 203.36,226.23 207.27,220.14 212.48,212.48 218.34,204.66 219.65,203.06 223.56,198.56 224.86,197.17 229.42,192.73 233.98,188.97 234.63,188.49 240.50,184.75 245.71,182.26 251.57,180.27 256.79,179.06 262.65,178.12 267.86,177.52 273.08,177.05 278.94,176.62 284.15,176.29 290.02,175.96 295.23,175.70 301.09,175.43 306.31,175.20 308.91,175.09 312.17,174.96 317.38,174.76 320.64,174.64 322.60,174.57 328.46,174.36 332.37,174.22 333.67,174.18 339.54,173.98 344.75,173.80 350.61,173.53 355.83,173.10 361.69,172.22 366.90,170.98 372.77,168.99 377.98,166.71 383.19,163.99 389.06,160.44 394.27,156.91 400.13,152.56 405.35,148.39 411.21,143.36 416.42,138.60 422.29,132.93 427.50,127.62 433.36,121.35 437.93,116.27"/>
<polyline fill="none" stroke="#ff7f0e" stroke-width="1.8" stroke-dasharray="5 4" points="86.07,272.43 91.29,272.43 97.15,272.43 102.36,272.43 108.23,272.43 113.44,272.43 119.30,272.43 124.52,272.43 130.38,272.43 135.59,272.43 141.46,272.43 146.02,272.43 146.67,272.43 147.32,272.43 147.97,272.43 148.63,272.43 149.28,272.43 149.93,272.43 150.58,272.43 151.23,272.43 151.88,272.43 152.53,272.43 153.19,272.38 153.84,272.24 154.49,272.05 155.14,271.80 155.79,271.52 156.44,271.20 157.75,270.49 162.96,267.02 163.61,266.52 164.26,266.02 164.91,265.51 165.57,264.99 166.22,264.45 166.87,263.91 167.52,263.36 168.17,262.79 168.82,262.22 169.48,261.63 170.13,261.04 170.78,260.44 171.43,259.83 172.08,259.21 174.04,257.29 179.90,251.20 185.11,245.52 190.98,239.09 196.19,233.52 202.05,227.51 203.36,226.23 207.27,222.50 212.48,217.86 218.34,213.17 219.65,212.20 223.56,209.51 224.86,208.68 229.42,206.02 233.98,203.78 234.63,203.49 240.50,201.27 245.71,199.83 251.57,198.71 256.79,198.05 262.65,197.53 267.86,197.19 273.08,196.91 278.94,196.65 284.15,196.44 290.02,196.23 295.23,196.06 301.09,195.89 306.31,195.74 308.91,195.67 312.17,195.59 317.38,195.46 320.64,195.38 322.60,195.33 328.46,195.18 332.37,195.06 333.67,195.02 339.54,194.72 344.75,194.27 350.61,193.48 355.83,192.48 361.69,190.98 366.90,189.33 372.77,187.11 377.98,184.83 383.19,182.27 389.06,179.08 394.27,175.97 400.13,172.18 405.35,168.55 411.21,164.18 416.42,160.08 422.29,155.43 427.50,151.30 433.36,146.65 437.93,143.03"/>
<polyline fill="none" stroke="#2ca02c" stroke-width="1.8" stroke-dasharray="2 4" points="86.07,320.32 91.29,320.32 97.15,320.32 102.36,320.32 108.23,320.32 113.44,320.32 119.30,320.32 124.52,320.32 130.38,320.32 135.59,320.32 141.46,320.32 146.02,320.32 146.67,320.21 147.32,320.00 147.97,319.72 148.63,319.40 149.28,319.05 149.93,318.67 150.58,318.29 151.23,317.87 151.88,317.45 152.53,317.01 153.19,316.55 153.84,316.08 154.49,315.59 155.14,315.09 155.79,314.57 156.44,314.03 157.75,312.91 162.96,307.59 163.61,306.83 164.26,306.03 164.91,305.21 165.57,304.37 166.22,303.50 166.87,302.60 167.52,301.67 168.17,300.72 168.82,299.74 169.48,298.73 170.13,297.70 170.78,296.64 171.43,295.56 172.08,294.45 174.04,290.97 179.90,279.49 185.11,268.35 190.98,255.16 196.19,243.03 202.05,229.26 203.36,226.23 207.27,217.28 212.48,205.91 218.34,194.26 219.65,191.86 223.56,185.16 224.86,183.10 229.42,176.50 233.98,170.92 234.63,170.20 240.50,164.58 245.71,160.76 251.57,157.60 256.79,155.60 262.65,154.02 267.86,153.02 273.08,152.25 278.94,151.58 284.15,151.08 290.02,150.59 295.23,150.21 301.09,149.81 306.31,149.49 308.91,149.33 312.17,149.14 317.38,148.85 320.64,148.68 322.60,148.57 328.46,148.27 332.37,148.08 333.67,148.02 339.54,147.74 344.75,147.49 350.61,147.23 355.83,146.99 361.69,146.67 366.90,146.18 372.77,145.08 377.98,143.41 383.19,140.99 389.06,137.46 394.27,133.72 400.13,129.00 405.35,124.42 411.21,118.92 416.42,113.76 422.29,107.63 427.50,101.91 433.36,95.16 437.93,89.68"/>
<polyline fill="none" stroke="#1f77b4" stroke-width="1.1" stroke-dasharray="6 4" points="72.00,150.98 76.81,152.43 81.62,153.89 86.43,155.34 91.24,156.80 96.05,158.26 100.86,159.71 105.67,161.17 110.48,162.62 115.29,164.08 120.10,165.53 124.91,166.99 129.72,168.45 134.53,169.90 139.34,171.36 144.15,172.81 148.96,174.27 153.77,175.73 158.58,177.18 163.39,178.64 168.20,180.09 173.01,181.55 177.82,183.00 182.63,184.46 187.44,185.92 192.25,187.37 197.06,188.83 201.87,190.28 206.68,191.74 211.49,193.19 216.30,194.65 221.11,196.11 225.92,197.56 230.73,199.02 235.54,200.47 240.35,201.93 245.16,203.39 249.97,204.84 254.78,206.30 259.59,207.75 264.41,209.21 269.22,210.66 274.03,212.12 278.84,213.58 283.65,215.03 288.46,216.49 293.27,217.94 298.08,219.40 302.89,220.85 307.70,222.31 312.51,223.77 317.32,225.22 322.13,226.68 326.94,228.13 331.75,229.59 336.56,231.05 341.37,232.50 346.18,233.96 350.99,235.41 355.80,236.87 360.61,238.32 365.42,239.78 370.23,241.24 375.04,242.69 379.85,244.15 384.66,245.60 389.47,247.06 394.28,248.51 399.09,249.97 403.90,251.43 408.71,252.88 413.52,254.34 418.33,255.79 423.14,257.25 427.95,258.71 432.76,260.16 437.57,261.62 442.38,263.07 447.19,264.53 452.00,265.98"/>
<circle cx="224.81" cy="197.22" r="4.6" fill="#ffffff" stroke="#1f77b4" stroke-width="2"/>
<text x="230.81" y="191.22" font-family="Arial, sans-serif" font-size="10" fill="#1f77b4">typ 11.2 ohm</text>
<polyline fill="none" stroke="#ff7f0e" stroke-width="1.1" stroke-dasharray="6 4" points="72.00,154.53 76.81,155.98 81.62,157.44 86.43,158.89 91.24,160.35 96.05,161.81 100.86,163.26 105.67,164.72 110.48,166.17 115.29,167.63 120.10,169.08 124.91,170.54 129.72,172.00 134.53,173.45 139.34,174.91 144.15,176.36 148.96,177.82 153.77,179.27 158.58,180.73 163.39,182.19 168.20,183.64 173.01,185.10 177.82,186.55 182.63,188.01 187.44,189.47 192.25,190.92 197.06,192.38 201.87,193.83 206.68,195.29 211.49,196.74 216.30,198.20 221.11,199.66 225.92,201.11 230.73,202.57 235.54,204.02 240.35,205.48 245.16,206.93 249.97,208.39 254.78,209.85 259.59,211.30 264.41,212.76 269.22,214.21 274.03,215.67 278.84,217.13 283.65,218.58 288.46,220.04 293.27,221.49 298.08,222.95 302.89,224.40 307.70,225.86 312.51,227.32 317.32,228.77 322.13,230.23 326.94,231.68 331.75,233.14 336.56,234.59 341.37,236.05 346.18,237.51 350.99,238.96 355.80,240.42 360.61,241.87 365.42,243.33 370.23,244.79 375.04,246.24 379.85,247.70 384.66,249.15 389.47,250.61 394.28,252.06 399.09,253.52 403.90,254.98 408.71,256.43 413.52,257.89 418.33,259.34 423.14,260.80 427.95,262.25 432.76,263.71 437.57,265.17 442.38,266.62 447.19,268.08 452.00,269.53"/>
<circle cx="234.29" cy="203.64" r="4.6" fill="#ffffff" stroke="#ff7f0e" stroke-width="2"/>
<text x="240.29" y="197.64" font-family="Arial, sans-serif" font-size="10" fill="#ff7f0e">min 20.7 ohm</text>
<polyline fill="none" stroke="#2ca02c" stroke-width="1.1" stroke-dasharray="6 4" points="72.00,147.43 76.81,148.88 81.62,150.34 86.43,151.79 91.24,153.25 96.05,154.71 100.86,156.16 105.67,157.62 110.48,159.07 115.29,160.53 120.10,161.99 124.91,163.44 129.72,164.90 134.53,166.35 139.34,167.81 144.15,169.26 148.96,170.72 153.77,172.18 158.58,173.63 163.39,175.09 168.20,176.54 173.01,178.00 177.82,179.45 182.63,180.91 187.44,182.37 192.25,183.82 197.06,185.28 201.87,186.73 206.68,188.19 211.49,189.65 216.30,191.10 221.11,192.56 225.92,194.01 230.73,195.47 235.54,196.92 240.35,198.38 245.16,199.84 249.97,201.29 254.78,202.75 259.59,204.20 264.41,205.66 269.22,207.11 274.03,208.57 278.84,210.03 283.65,211.48 288.46,212.94 293.27,214.39 298.08,215.85 302.89,217.31 307.70,218.76 312.51,220.22 317.32,221.67 322.13,223.13 326.94,224.58 331.75,226.04 336.56,227.50 341.37,228.95 346.18,230.41 350.99,231.86 355.80,233.32 360.61,234.77 365.42,236.23 370.23,237.69 375.04,239.14 379.85,240.60 384.66,242.05 389.47,243.51 394.28,244.97 399.09,246.42 403.90,247.88 408.71,249.33 413.52,250.79 418.33,252.24 423.14,253.70 427.95,255.16 432.76,256.61 437.57,258.07 442.38,259.52 447.19,260.98 452.00,262.43"/>
<circle cx="219.53" cy="192.08" r="4.6" fill="#ffffff" stroke="#2ca02c" stroke-width="2"/>
<text x="225.53" y="186.08" font-family="Arial, sans-serif" font-size="10" fill="#2ca02c">max 7.166 ohm</text>
<line x1="82.00" y1="80.00" x2="104.00" y2="80.00" stroke="#1f77b4" stroke-width="2"/>
<text x="110.00" y="84.00" font-family="Arial, sans-serif" font-size="11">typ</text>
<line x1="82.00" y1="97.00" x2="104.00" y2="97.00" stroke="#ff7f0e" stroke-width="2" stroke-dasharray="5 4"/>
<text x="110.00" y="101.00" font-family="Arial, sans-serif" font-size="11">min</text>
<line x1="82.00" y1="114.00" x2="104.00" y2="114.00" stroke="#2ca02c" stroke-width="2" stroke-dasharray="2 4"/>
<text x="110.00" y="118.00" font-family="Arial, sans-serif" font-size="11">max</text>
<text x="262.00" y="386.00" text-anchor="middle" font-family="Arial, sans-serif" font-size="11">Output voltage (V)</text>
<text transform="translate(22.00 205.00) rotate(-90)" text-anchor="middle" font-family="Arial, sans-serif" font-size="11">Current (mA)</text>
<rect x="492.00" y="62.00" width="380.00" height="286.00" fill="#fbfbfb" stroke="#c8c8c8"/>
<text x="500.00" y="50.00" font-family="Arial, sans-serif" font-size="13" font-weight="700">[Pullup] Rload to GND</text>
<line x1="492.00" y1="62.00" x2="492.00" y2="348.00" stroke="#ececec"/>
<text x="492.00" y="366.00" text-anchor="middle" font-family="Arial, sans-serif" font-size="10">-2</text>
<line x1="587.00" y1="62.00" x2="587.00" y2="348.00" stroke="#ececec"/>
<text x="587.00" y="366.00" text-anchor="middle" font-family="Arial, sans-serif" font-size="10">-0.558</text>
<line x1="682.00" y1="62.00" x2="682.00" y2="348.00" stroke="#ececec"/>
<text x="682.00" y="366.00" text-anchor="middle" font-family="Arial, sans-serif" font-size="10">0.9</text>
<line x1="777.00" y1="62.00" x2="777.00" y2="348.00" stroke="#ececec"/>
<text x="777.00" y="366.00" text-anchor="middle" font-family="Arial, sans-serif" font-size="10">2.4</text>
<line x1="872.00" y1="62.00" x2="872.00" y2="348.00" stroke="#ececec"/>
<text x="872.00" y="366.00" text-anchor="middle" font-family="Arial, sans-serif" font-size="10">3.8</text>
<line x1="492.00" y1="348.00" x2="872.00" y2="348.00" stroke="#ececec"/>
<text x="485.00" y="352.00" text-anchor="end" font-family="Arial, sans-serif" font-size="10">-1.1e+02</text>
<line x1="492.00" y1="276.50" x2="872.00" y2="276.50" stroke="#ececec"/>
<text x="485.00" y="280.50" text-anchor="end" font-family="Arial, sans-serif" font-size="10">-29</text>
<line x1="492.00" y1="205.00" x2="872.00" y2="205.00" stroke="#ececec"/>
<text x="485.00" y="209.00" text-anchor="end" font-family="Arial, sans-serif" font-size="10">48</text>
<line x1="492.00" y1="133.50" x2="872.00" y2="133.50" stroke="#ececec"/>
<text x="485.00" y="137.50" text-anchor="end" font-family="Arial, sans-serif" font-size="10">1.3e+02</text>
<line x1="492.00" y1="62.00" x2="872.00" y2="62.00" stroke="#ececec"/>
<text x="485.00" y="66.00" text-anchor="end" font-family="Arial, sans-serif" font-size="10">2e+02</text>
<line x1="623.36" y1="62" x2="623.36" y2="348" stroke="#777" stroke-dasharray="4 4"/>
<line x1="492.0" y1="249.96" x2="872.0" y2="249.96" stroke="#777" stroke-dasharray="4 4"/>
<polyline fill="none" stroke="#1f77b4" stroke-width="1.8" points="506.07,115.00 511.29,121.49 517.15,128.73 522.36,135.09 528.23,142.17 533.44,148.40 539.30,155.33 544.52,161.46 550.38,168.31 555.59,174.37 561.46,181.15 566.67,187.15 571.88,193.12 577.75,199.80 582.96,205.70 588.82,212.29 594.04,218.11 599.90,224.62 605.11,230.36 610.98,236.77 616.19,242.38 617.49,243.77 618.15,244.46 622.05,248.59 623.36,249.96 627.27,253.92 629.22,255.82 629.87,256.44 632.48,258.87 638.34,264.01 643.56,268.16 646.81,270.55 649.42,272.34 653.33,274.84 654.63,275.62 660.50,278.80 663.76,280.35 665.71,281.20 671.57,283.43 676.79,285.04 682.65,286.49 687.86,287.51 693.08,288.33 694.38,288.51 698.94,288.51 704.15,288.51 710.02,288.51 715.23,288.51 721.09,288.51 726.31,288.51 728.91,288.51 732.17,288.51 737.38,288.51 740.64,288.51 742.60,288.51 748.46,288.51 752.37,288.51 753.67,288.51 759.54,288.51 765.40,288.51 766.05,288.96 770.61,295.31 774.52,300.27 775.18,301.04 776.48,302.54 777.13,303.27 777.78,303.98 778.43,304.67 779.09,305.34 779.74,306.00 780.39,306.64 781.04,307.27 781.69,307.88 782.34,308.47 782.99,309.05 783.65,309.61 786.90,312.18 788.86,313.55 789.51,313.98 790.16,314.39 790.81,314.78 791.47,315.15 792.12,315.49 792.77,315.81 793.42,316.09 794.07,316.31 794.72,316.47 795.37,316.54 797.98,316.54 803.19,316.54 809.06,316.54 814.27,316.54 820.13,316.54 825.35,316.54 831.21,316.54 836.42,316.54 842.29,316.54 847.50,316.54 853.36,316.54 857.93,316.54"/>
<polyline fill="none" stroke="#ff7f0e" stroke-width="1.8" stroke-dasharray="5 4" points="506.07,146.29 511.29,151.72 517.15,157.82 522.36,163.23 528.23,169.21 533.44,174.43 539.30,180.20 544.52,185.24 550.38,190.80 555.59,195.66 561.46,201.02 566.67,205.70 571.88,210.28 577.75,215.32 582.96,219.70 588.82,224.50 594.04,228.65 599.90,233.18 605.11,237.09 610.98,241.37 616.19,245.05 617.49,245.95 618.15,246.40 622.05,249.08 623.36,249.96 627.27,252.49 629.22,253.69 629.87,254.09 632.48,255.61 638.34,258.80 643.56,261.35 646.81,262.80 649.42,263.88 653.33,265.36 654.63,265.82 660.50,267.65 663.76,268.51 665.71,268.98 671.57,270.14 676.79,270.93 682.65,271.60 687.86,272.06 693.08,272.44 694.38,272.52 698.94,272.79 704.15,273.06 710.02,273.32 715.23,273.53 721.09,273.74 726.31,273.91 728.91,273.99 732.17,274.09 737.38,274.24 740.64,274.33 742.60,274.39 748.46,274.54 752.37,274.63 753.67,274.67 759.54,274.80 765.40,274.94 766.05,274.95 770.61,275.05 774.52,275.13 775.18,275.14 776.48,275.17 777.13,275.19 777.78,275.20 778.43,275.21 779.09,275.23 779.74,275.24 780.39,275.25 781.04,275.26 781.69,275.27 782.34,275.27 782.99,275.27 783.65,275.27 786.90,275.27 788.86,275.27 789.51,275.27 790.16,275.27 790.81,275.27 791.47,275.27 792.12,275.27 792.77,275.27 793.42,275.27 794.07,275.27 794.72,275.27 795.37,275.27 797.98,275.27 803.19,275.27 809.06,275.27 814.27,275.27 820.13,275.27 825.35,275.27 831.21,275.27 836.42,275.27 842.29,275.27 847.50,275.27 853.36,275.27 857.93,275.27"/>
<polyline fill="none" stroke="#2ca02c" stroke-width="1.8" stroke-dasharray="2 4" points="506.07,89.68 511.29,96.62 517.15,104.39 522.36,111.24 528.23,118.89 533.44,125.64 539.30,133.21 544.52,139.94 550.38,147.53 555.59,154.31 561.46,161.97 566.67,168.84 571.88,175.75 577.75,183.62 582.96,190.69 588.82,198.77 594.04,206.09 599.90,214.51 605.11,222.16 610.98,230.98 616.19,238.87 617.49,240.81 618.15,241.80 622.05,247.93 623.36,249.96 627.27,255.88 629.22,258.72 629.87,259.64 632.48,263.16 638.34,270.72 643.56,276.80 646.81,280.28 649.42,282.89 653.33,286.51 654.63,287.65 660.50,292.31 663.76,294.59 665.71,295.87 671.57,299.27 676.79,301.83 682.65,304.21 687.86,305.95 693.08,307.37 694.38,307.69 698.94,308.67 704.15,309.60 710.02,310.48 715.23,311.14 721.09,311.78 726.31,312.29 728.91,312.52 732.17,312.80 737.38,313.21 740.64,313.45 742.60,313.59 748.46,313.99 752.37,314.24 753.67,314.32 759.54,314.67 765.40,315.00 766.05,315.04 770.61,315.28 774.52,315.49 775.18,315.52 776.48,315.59 777.13,315.62 777.78,315.65 778.43,315.68 779.09,315.72 779.74,315.75 780.39,315.78 781.04,315.81 781.69,315.84 782.34,315.88 782.99,315.91 783.65,315.94 786.90,316.09 788.86,316.18 789.51,316.21 790.16,316.24 790.81,316.27 791.47,316.30 792.12,316.33 792.77,316.36 793.42,316.39 794.07,316.42 794.72,316.45 795.37,316.48 797.98,316.59 803.19,316.82 809.06,317.07 814.27,317.28 820.13,317.28 825.35,317.28 831.21,317.28 836.42,317.28 842.29,317.28 847.50,317.28 853.36,317.28 857.93,317.28"/>
<polyline fill="none" stroke="#1f77b4" stroke-width="1.1" stroke-dasharray="6 4" points="492.00,320.99 496.81,319.62 501.62,318.24 506.43,316.87 511.24,315.50 516.05,314.12 520.86,312.75 525.67,311.37 530.48,310.00 535.29,308.62 540.10,307.25 544.91,305.88 549.72,304.50 554.53,303.13 559.34,301.75 564.15,300.38 568.96,299.00 573.77,297.63 578.58,296.26 583.39,294.88 588.20,293.51 593.01,292.13 597.82,290.76 602.63,289.39 607.44,288.01 612.25,286.64 617.06,285.26 621.87,283.89 626.68,282.51 631.49,281.14 636.30,279.77 641.11,278.39 645.92,277.02 650.73,275.64 655.54,274.27 660.35,272.89 665.16,271.52 669.97,270.15 674.78,268.77 679.59,267.40 684.41,266.02 689.22,264.65 694.03,263.27 698.84,261.90 703.65,260.53 708.46,259.15 713.27,257.78 718.08,256.40 722.89,255.03 727.70,253.65 732.51,252.28 737.32,250.91 742.13,249.53 746.94,248.16 751.75,246.78 756.56,245.41 761.37,244.04 766.18,242.66 770.99,241.29 775.80,239.91 780.61,238.54 785.42,237.16 790.23,235.79 795.04,234.42 799.85,233.04 804.66,231.67 809.47,230.29 814.28,228.92 819.09,227.54 823.90,226.17 828.71,224.80 833.52,223.42 838.33,222.05 843.14,220.67 847.95,219.30 852.76,217.92 857.57,216.55 862.38,215.18 867.19,213.80 872.00,212.43"/>
<circle cx="653.40" cy="274.88" r="4.6" fill="#ffffff" stroke="#1f77b4" stroke-width="2"/>
<text x="659.40" y="268.88" font-family="Arial, sans-serif" font-size="10" fill="#1f77b4">typ 17.2 ohm</text>
<polyline fill="none" stroke="#ff7f0e" stroke-width="1.1" stroke-dasharray="6 4" points="492.00,317.64 496.81,316.27 501.62,314.89 506.43,313.52 511.24,312.14 516.05,310.77 520.86,309.40 525.67,308.02 530.48,306.65 535.29,305.27 540.10,303.90 544.91,302.53 549.72,301.15 554.53,299.78 559.34,298.40 564.15,297.03 568.96,295.65 573.77,294.28 578.58,292.91 583.39,291.53 588.20,290.16 593.01,288.78 597.82,287.41 602.63,286.03 607.44,284.66 612.25,283.29 617.06,281.91 621.87,280.54 626.68,279.16 631.49,277.79 636.30,276.41 641.11,275.04 645.92,273.67 650.73,272.29 655.54,270.92 660.35,269.54 665.16,268.17 669.97,266.79 674.78,265.42 679.59,264.05 684.41,262.67 689.22,261.30 694.03,259.92 698.84,258.55 703.65,257.18 708.46,255.80 713.27,254.43 718.08,253.05 722.89,251.68 727.70,250.30 732.51,248.93 737.32,247.56 742.13,246.18 746.94,244.81 751.75,243.43 756.56,242.06 761.37,240.68 766.18,239.31 770.99,237.94 775.80,236.56 780.61,235.19 785.42,233.81 790.23,232.44 795.04,231.06 799.85,229.69 804.66,228.32 809.47,226.94 814.28,225.57 819.09,224.19 823.90,222.82 828.71,221.44 833.52,220.07 838.33,218.70 843.14,217.32 847.95,215.95 852.76,214.57 857.57,213.20 862.38,211.83 867.19,210.45 872.00,209.08"/>
<circle cx="663.87" cy="268.54" r="4.6" fill="#ffffff" stroke="#ff7f0e" stroke-width="2"/>
<text x="669.87" y="262.54" font-family="Arial, sans-serif" font-size="10" fill="#ff7f0e">min 31.1 ohm</text>
<polyline fill="none" stroke="#2ca02c" stroke-width="1.1" stroke-dasharray="6 4" points="492.00,324.34 496.81,322.97 501.62,321.60 506.43,320.22 511.24,318.85 516.05,317.47 520.86,316.10 525.67,314.72 530.48,313.35 535.29,311.98 540.10,310.60 544.91,309.23 549.72,307.85 554.53,306.48 559.34,305.10 564.15,303.73 568.96,302.36 573.77,300.98 578.58,299.61 583.39,298.23 588.20,296.86 593.01,295.48 597.82,294.11 602.63,292.74 607.44,291.36 612.25,289.99 617.06,288.61 621.87,287.24 626.68,285.86 631.49,284.49 636.30,283.12 641.11,281.74 645.92,280.37 650.73,278.99 655.54,277.62 660.35,276.25 665.16,274.87 669.97,273.50 674.78,272.12 679.59,270.75 684.41,269.37 689.22,268.00 694.03,266.63 698.84,265.25 703.65,263.88 708.46,262.50 713.27,261.13 718.08,259.75 722.89,258.38 727.70,257.01 732.51,255.63 737.32,254.26 742.13,252.88 746.94,251.51 751.75,250.13 756.56,248.76 761.37,247.39 766.18,246.01 770.99,244.64 775.80,243.26 780.61,241.89 785.42,240.51 790.23,239.14 795.04,237.77 799.85,236.39 804.66,235.02 809.47,233.64 814.28,232.27 819.09,230.89 823.90,229.52 828.71,228.15 833.52,226.77 838.33,225.40 843.14,224.02 847.95,222.65 852.76,221.28 857.57,219.90 862.38,218.53 867.19,217.15 872.00,215.78"/>
<circle cx="646.69" cy="280.15" r="4.6" fill="#ffffff" stroke="#2ca02c" stroke-width="2"/>
<text x="652.69" y="274.15" font-family="Arial, sans-serif" font-size="10" fill="#2ca02c">max 11 ohm</text>
<line x1="502.00" y1="80.00" x2="524.00" y2="80.00" stroke="#1f77b4" stroke-width="2"/>
<text x="530.00" y="84.00" font-family="Arial, sans-serif" font-size="11">typ</text>
<line x1="502.00" y1="97.00" x2="524.00" y2="97.00" stroke="#ff7f0e" stroke-width="2" stroke-dasharray="5 4"/>
<text x="530.00" y="101.00" font-family="Arial, sans-serif" font-size="11">min</text>
<line x1="502.00" y1="114.00" x2="524.00" y2="114.00" stroke="#2ca02c" stroke-width="2" stroke-dasharray="2 4"/>
<text x="530.00" y="118.00" font-family="Arial, sans-serif" font-size="11">max</text>
<text x="682.00" y="386.00" text-anchor="middle" font-family="Arial, sans-serif" font-size="11">Vcc-relative table voltage (V)</text>
<text transform="translate(442.00 205.00) rotate(-90)" text-anchor="middle" font-family="Arial, sans-serif" font-size="11">Current (mA)</text>
<rect x="72.00" y="418.00" width="800.00" height="144.00" fill="#ffffff" stroke="#c8c8c8"/>
<text x="82.00" y="436.00" font-family="Arial, sans-serif" font-size="12" font-weight="700">Operating-point summary</text>
<text x="82.00" y="454.00" font-family="Arial, sans-serif" font-size="10" font-weight="700" fill="#333">Table</text>
<text x="174.00" y="454.00" font-family="Arial, sans-serif" font-size="10" font-weight="700" fill="#333">Corner</text>
<text x="242.00" y="454.00" font-family="Arial, sans-serif" font-size="10" font-weight="700" fill="#333">Vout</text>
<text x="332.00" y="454.00" font-family="Arial, sans-serif" font-size="10" font-weight="700" fill="#333">Iop</text>
<text x="422.00" y="454.00" font-family="Arial, sans-serif" font-size="10" font-weight="700" fill="#333">Zout</text>
<text x="512.00" y="454.00" font-family="Arial, sans-serif" font-size="10" font-weight="700" fill="#333">Rseries</text>
<text x="82.00" y="473.00" font-family="Arial, sans-serif" font-size="10" fill="#1f77b4">pulldown</text>
<text x="174.00" y="473.00" font-family="Arial, sans-serif" font-size="10" fill="#1f77b4">typ</text>
<text x="242.00" y="473.00" font-family="Arial, sans-serif" font-size="10" fill="#1f77b4">0.3292 V</text>
<text x="332.00" y="473.00" font-family="Arial, sans-serif" font-size="10" fill="#1f77b4">29 mA</text>
<text x="422.00" y="473.00" font-family="Arial, sans-serif" font-size="10" fill="#1f77b4">11.2 ohm</text>
<text x="512.00" y="473.00" font-family="Arial, sans-serif" font-size="10" fill="#1f77b4">38.8 ohm</text>
<text x="82.00" y="492.00" font-family="Arial, sans-serif" font-size="10" fill="#ff7f0e">pulldown</text>
<text x="174.00" y="492.00" font-family="Arial, sans-serif" font-size="10" fill="#ff7f0e">min</text>
<text x="242.00" y="492.00" font-family="Arial, sans-serif" font-size="10" fill="#ff7f0e">0.4747 V</text>
<text x="332.00" y="492.00" font-family="Arial, sans-serif" font-size="10" fill="#ff7f0e">23 mA</text>
<text x="422.00" y="492.00" font-family="Arial, sans-serif" font-size="10" fill="#ff7f0e">20.7 ohm</text>
<text x="512.00" y="492.00" font-family="Arial, sans-serif" font-size="10" fill="#ff7f0e">29.3 ohm</text>
<text x="82.00" y="511.00" font-family="Arial, sans-serif" font-size="10" fill="#2ca02c">pulldown</text>
<text x="174.00" y="511.00" font-family="Arial, sans-serif" font-size="10" fill="#2ca02c">max</text>
<text x="242.00" y="511.00" font-family="Arial, sans-serif" font-size="10" fill="#2ca02c">0.2482 V</text>
<text x="332.00" y="511.00" font-family="Arial, sans-serif" font-size="10" fill="#2ca02c">35 mA</text>
<text x="422.00" y="511.00" font-family="Arial, sans-serif" font-size="10" fill="#2ca02c">7.166 ohm</text>
<text x="512.00" y="511.00" font-family="Arial, sans-serif" font-size="10" fill="#2ca02c">42.8 ohm</text>
<text x="82.00" y="530.00" font-family="Arial, sans-serif" font-size="10" fill="#1f77b4">pullup</text>
<text x="174.00" y="530.00" font-family="Arial, sans-serif" font-size="10" fill="#1f77b4">typ</text>
<text x="242.00" y="530.00" font-family="Arial, sans-serif" font-size="10" fill="#1f77b4">1.339 V</text>
<text x="332.00" y="530.00" font-family="Arial, sans-serif" font-size="10" fill="#1f77b4">-27 mA</text>
<text x="422.00" y="530.00" font-family="Arial, sans-serif" font-size="10" fill="#1f77b4">17.2 ohm</text>
<text x="512.00" y="530.00" font-family="Arial, sans-serif" font-size="10" fill="#1f77b4">32.8 ohm</text>
<text x="82.00" y="549.00" font-family="Arial, sans-serif" font-size="10" fill="#ff7f0e">pullup</text>
<text x="174.00" y="549.00" font-family="Arial, sans-serif" font-size="10" fill="#ff7f0e">min</text>
<text x="242.00" y="549.00" font-family="Arial, sans-serif" font-size="10" fill="#ff7f0e">0.9983 V</text>
<text x="332.00" y="549.00" font-family="Arial, sans-serif" font-size="10" fill="#ff7f0e">-20 mA</text>
<text x="422.00" y="549.00" font-family="Arial, sans-serif" font-size="10" fill="#ff7f0e">31.1 ohm</text>
<text x="512.00" y="549.00" font-family="Arial, sans-serif" font-size="10" fill="#ff7f0e">18.9 ohm</text>
<text x="82.00" y="568.00" font-family="Arial, sans-serif" font-size="10" fill="#2ca02c">pullup</text>
<text x="174.00" y="568.00" font-family="Arial, sans-serif" font-size="10" fill="#2ca02c">max</text>
<text x="242.00" y="568.00" font-family="Arial, sans-serif" font-size="10" fill="#2ca02c">1.622 V</text>
<text x="332.00" y="568.00" font-family="Arial, sans-serif" font-size="10" fill="#2ca02c">-32 mA</text>
<text x="422.00" y="568.00" font-family="Arial, sans-serif" font-size="10" fill="#2ca02c">11 ohm</text>
<text x="512.00" y="568.00" font-family="Arial, sans-serif" font-size="10" fill="#2ca02c">39 ohm</text>
</svg>