<svg xmlns="http://www.w3.org/2000/svg" width="900" height="620" viewBox="0 0 900 620">
<rect width="100%" height="100%" fill="#ffffff"/>
<text x="72" y="26" font-family="Arial, sans-serif" font-size="16" font-weight="700">nfc_ioc15_swp_master_700_worst Zout Load-Line Curves</text>
<text x="72" y="45" font-family="Arial, sans-serif" font-size="11" fill="#555">Rload=50 ohm; solid=device I-V, dashed=load line, circles=operating points</text>
<rect x="72.00" y="62.00" width="380.00" height="286.00" fill="#fbfbfb" stroke="#c8c8c8"/>
<text x="80.00" y="50.00" font-family="Arial, sans-serif" font-size="13" font-weight="700">[Pulldown] Rload to Vdd</text>
<line x1="72.00" y1="62.00" x2="72.00" y2="348.00" stroke="#ececec"/>
<text x="72.00" y="366.00" text-anchor="middle" font-family="Arial, sans-serif" font-size="10">-2</text>
<line x1="167.00" y1="62.00" x2="167.00" y2="348.00" stroke="#ececec"/>
<text x="167.00" y="366.00" text-anchor="middle" font-family="Arial, sans-serif" font-size="10">-0.558</text>
<line x1="262.00" y1="62.00" x2="262.00" y2="348.00" stroke="#ececec"/>
<text x="262.00" y="366.00" text-anchor="middle" font-family="Arial, sans-serif" font-size="10">0.9</text>
<line x1="357.00" y1="62.00" x2="357.00" y2="348.00" stroke="#ececec"/>
<text x="357.00" y="366.00" text-anchor="middle" font-family="Arial, sans-serif" font-size="10">2.4</text>
<line x1="452.00" y1="62.00" x2="452.00" y2="348.00" stroke="#ececec"/>
<text x="452.00" y="366.00" text-anchor="middle" font-family="Arial, sans-serif" font-size="10">3.8</text>
<line x1="72.00" y1="348.00" x2="452.00" y2="348.00" stroke="#ececec"/>
<text x="65.00" y="352.00" text-anchor="end" font-family="Arial, sans-serif" font-size="10">-3.2e+02</text>
<line x1="72.00" y1="276.50" x2="452.00" y2="276.50" stroke="#ececec"/>
<text x="65.00" y="280.50" text-anchor="end" font-family="Arial, sans-serif" font-size="10">-1.5e+02</text>
<line x1="72.00" y1="205.00" x2="452.00" y2="205.00" stroke="#ececec"/>
<text x="65.00" y="209.00" text-anchor="end" font-family="Arial, sans-serif" font-size="10">14</text>
<line x1="72.00" y1="133.50" x2="452.00" y2="133.50" stroke="#ececec"/>
<text x="65.00" y="137.50" text-anchor="end" font-family="Arial, sans-serif" font-size="10">1.8e+02</text>
<line x1="72.00" y1="62.00" x2="452.00" y2="62.00" stroke="#ececec"/>
<text x="65.00" y="66.00" text-anchor="end" font-family="Arial, sans-serif" font-size="10">3.5e+02</text>
<line x1="203.36" y1="62" x2="203.36" y2="348" stroke="#777" stroke-dasharray="4 4"/>
<line x1="72.0" y1="210.89" x2="452.0" y2="210.89" stroke="#777" stroke-dasharray="4 4"/>
<polyline fill="none" stroke="#1f77b4" stroke-width="1.8" points="86.07,320.32 91.29,313.00 97.15,304.76 102.36,297.44 108.23,289.20 113.44,281.87 119.30,273.63 124.52,266.31 130.38,258.07 135.59,250.75 141.46,242.51 146.67,235.18 151.88,227.86 157.75,219.62 159.05,217.79 159.70,216.89 160.35,216.18 161.01,215.62 161.66,215.18 162.31,214.83 162.96,214.55 163.61,214.33 164.26,214.14 164.91,213.99 165.57,213.86 166.22,213.75 166.87,213.65 167.52,213.56 168.17,213.48 168.82,213.40 174.04,212.89 179.90,212.40 185.11,212.00 190.98,211.60 196.19,211.28 202.05,210.96 203.36,210.89 207.27,210.71 212.48,210.50 218.34,210.30 223.56,210.16 225.51,210.11 229.42,210.03 233.98,209.97 234.63,209.96 240.50,209.91 245.71,209.88 251.57,209.87 256.79,209.86 262.65,209.86 267.86,209.85 273.08,209.85 278.94,209.84 284.15,209.84 290.02,209.84 295.23,209.83 301.09,209.83 306.31,209.83 308.91,209.83 312.17,209.82 317.38,209.82 320.64,209.82 322.60,209.82 328.46,209.81 332.37,209.77 333.67,209.74 339.54,209.53 344.75,209.14 345.40,209.07 346.05,209.00 346.71,208.92 347.36,208.84 348.01,208.76 348.66,208.66 349.31,208.56 349.96,208.44 350.61,208.31 351.27,208.15 351.92,207.96 352.57,207.72 353.22,207.42 353.87,207.03 354.52,206.53 355.18,205.88 355.83,205.03 361.69,196.79 366.90,189.46 372.77,181.22 377.98,173.90 383.19,166.58 389.06,158.34 394.27,151.01 400.13,142.77 405.35,135.45 411.21,127.21 416.42,119.89 422.29,111.65 427.50,104.32 433.36,96.09 437.93,89.68"/>
<polyline fill="none" stroke="#ff7f0e" stroke-width="1.8" stroke-dasharray="5 4" points="86.07,320.32 91.29,313.00 97.15,304.76 102.36,297.44 108.23,289.20 113.44,281.87 119.30,273.63 124.52,266.31 130.38,258.07 135.59,250.75 141.46,242.51 146.67,235.18 151.88,227.86 157.75,219.62 159.05,217.79 159.70,216.89 160.35,216.18 161.01,215.62 161.66,215.18 162.31,214.83 162.96,214.55 163.61,214.33 164.26,214.14 164.91,213.99 165.57,213.86 166.22,213.75 166.87,213.65 167.52,213.56 168.17,213.48 168.82,213.40 174.04,212.89 179.90,212.40 185.11,212.00 190.98,211.60 196.19,211.28 202.05,210.96 203.36,210.89 207.27,210.71 212.48,210.50 218.34,210.30 223.56,210.16 225.51,210.11 229.42,210.03 233.98,209.97 234.63,209.96 240.50,209.91 245.71,209.88 251.57,209.87 256.79,209.86 262.65,209.86 267.86,209.85 273.08,209.85 278.94,209.84 284.15,209.84 290.02,209.84 295.23,209.83 301.09,209.83 306.31,209.83 308.91,209.83 312.17,209.82 317.38,209.82 320.64,209.82 322.60,209.82 328.46,209.81 332.37,209.77 333.67,209.74 339.54,209.53 344.75,209.14 345.40,209.07 346.05,209.00 346.71,208.92 347.36,208.84 348.01,208.76 348.66,208.66 349.31,208.56 349.96,208.44 350.61,208.31 351.27,208.15 351.92,207.96 352.57,207.72 353.22,207.42 353.87,207.03 354.52,206.53 355.18,205.88 355.83,205.03 361.69,196.79 366.90,189.46 372.77,181.22 377.98,173.90 383.19,166.58 389.06,158.34 394.27,151.01 400.13,142.77 405.35,135.45 411.21,127.21 416.42,119.89 422.29,111.65 427.50,104.32 433.36,96.09 437.93,89.68"/>
<polyline fill="none" stroke="#2ca02c" stroke-width="1.8" stroke-dasharray="2 4" points="86.07,320.32 91.29,313.00 97.15,304.76 102.36,297.44 108.23,289.20 113.44,281.87 119.30,273.63 124.52,266.31 130.38,258.07 135.59,250.75 141.46,242.51 146.67,235.18 151.88,227.86 157.75,219.62 159.05,217.79 159.70,216.89 160.35,216.18 161.01,215.62 161.66,215.18 162.31,214.83 162.96,214.55 163.61,214.33 164.26,214.14 164.91,213.99 165.57,213.86 166.22,213.75 166.87,213.65 167.52,213.56 168.17,213.48 168.82,213.40 174.04,212.89 179.90,212.40 185.11,212.00 190.98,211.60 196.19,211.28 202.05,210.96 203.36,210.89 207.27,210.71 212.48,210.50 218.34,210.30 223.56,210.16 225.51,210.11 229.42,210.03 233.98,209.97 234.63,209.96 240.50,209.91 245.71,209.88 251.57,209.87 256.79,209.86 262.65,209.86 267.86,209.85 273.08,209.85 278.94,209.84 284.15,209.84 290.02,209.84 295.23,209.83 301.09,209.83 306.31,209.83 308.91,209.83 312.17,209.82 317.38,209.82 320.64,209.82 322.60,209.82 328.46,209.81 332.37,209.77 333.67,209.74 339.54,209.53 344.75,209.14 345.40,209.07 346.05,209.00 346.71,208.92 347.36,208.84 348.01,208.76 348.66,208.66 349.31,208.56 349.96,208.44 350.61,208.31 351.27,208.15 351.92,207.96 352.57,207.72 353.22,207.42 353.87,207.03 354.52,206.53 355.18,205.88 355.83,205.03 361.69,196.79 366.90,189.46 372.77,181.22 377.98,173.90 383.19,166.58 389.06,158.34 394.27,151.01 400.13,142.77 405.35,135.45 411.21,127.21 416.42,119.89 422.29,111.65 427.50,104.32 433.36,96.09 437.93,89.68"/>
<polyline fill="none" stroke="#1f77b4" stroke-width="1.1" stroke-dasharray="6 4" points="72.00,179.56 76.81,180.20 81.62,180.84 86.43,181.47 91.24,182.11 96.05,182.74 100.86,183.38 105.67,184.02 110.48,184.65 115.29,185.29 120.10,185.93 124.91,186.56 129.72,187.20 134.53,187.83 139.34,188.47 144.15,189.11 148.96,189.74 153.77,190.38 158.58,191.01 163.39,191.65 168.20,192.29 173.01,192.92 177.82,193.56 182.63,194.19 187.44,194.83 192.25,195.47 197.06,196.10 201.87,196.74 206.68,197.37 211.49,198.01 216.30,198.65 221.11,199.28 225.92,199.92 230.73,200.55 235.54,201.19 240.35,201.83 245.16,202.46 249.97,203.10 254.78,203.74 259.59,204.37 264.41,205.01 269.22,205.64 274.03,206.28 278.84,206.92 283.65,207.55 288.46,208.19 293.27,208.82 298.08,209.46 302.89,210.10 307.70,210.73 312.51,211.37 317.32,212.00 322.13,212.64 326.94,213.28 331.75,213.91 336.56,214.55 341.37,215.18 346.18,215.82 350.99,216.46 355.80,217.09 360.61,217.73 365.42,218.36 370.23,219.00 375.04,219.64 379.85,220.27 384.66,220.91 389.47,221.55 394.28,222.18 399.09,222.82 403.90,223.45 408.71,224.09 413.52,224.73 418.33,225.36 423.14,226.00 427.95,226.63 432.76,227.27 437.57,227.91 442.38,228.54 447.19,229.18 452.00,229.81"/>
<circle cx="300.88" cy="209.83" r="4.6" fill="#ffffff" stroke="#1f77b4" stroke-width="2"/>
<text x="306.88" y="203.83" font-family="Arial, sans-serif" font-size="10" fill="#1f77b4">typ 607 ohm</text>
<polyline fill="none" stroke="#ff7f0e" stroke-width="1.1" stroke-dasharray="6 4" points="72.00,179.56 76.81,180.20 81.62,180.84 86.43,181.47 91.24,182.11 96.05,182.74 100.86,183.38 105.67,184.02 110.48,184.65 115.29,185.29 120.10,185.93 124.91,186.56 129.72,187.20 134.53,187.83 139.34,188.47 144.15,189.11 148.96,189.74 153.77,190.38 158.58,191.01 163.39,191.65 168.20,192.29 173.01,192.92 177.82,193.56 182.63,194.19 187.44,194.83 192.25,195.47 197.06,196.10 201.87,196.74 206.68,197.37 211.49,198.01 216.30,198.65 221.11,199.28 225.92,199.92 230.73,200.55 235.54,201.19 240.35,201.83 245.16,202.46 249.97,203.10 254.78,203.74 259.59,204.37 264.41,205.01 269.22,205.64 274.03,206.28 278.84,206.92 283.65,207.55 288.46,208.19 293.27,208.82 298.08,209.46 302.89,210.10 307.70,210.73 312.51,211.37 317.32,212.00 322.13,212.64 326.94,213.28 331.75,213.91 336.56,214.55 341.37,215.18 346.18,215.82 350.99,216.46 355.80,217.09 360.61,217.73 365.42,218.36 370.23,219.00 375.04,219.64 379.85,220.27 384.66,220.91 389.47,221.55 394.28,222.18 399.09,222.82 403.90,223.45 408.71,224.09 413.52,224.73 418.33,225.36 423.14,226.00 427.95,226.63 432.76,227.27 437.57,227.91 442.38,228.54 447.19,229.18 452.00,229.81"/>
<circle cx="300.88" cy="209.83" r="4.6" fill="#ffffff" stroke="#ff7f0e" stroke-width="2"/>
<text x="306.88" y="203.83" font-family="Arial, sans-serif" font-size="10" fill="#ff7f0e">min 607 ohm</text>
<polyline fill="none" stroke="#2ca02c" stroke-width="1.1" stroke-dasharray="6 4" points="72.00,179.56 76.81,180.20 81.62,180.84 86.43,181.47 91.24,182.11 96.05,182.74 100.86,183.38 105.67,184.02 110.48,184.65 115.29,185.29 120.10,185.93 124.91,186.56 129.72,187.20 134.53,187.83 139.34,188.47 144.15,189.11 148.96,189.74 153.77,190.38 158.58,191.01 163.39,191.65 168.20,192.29 173.01,192.92 177.82,193.56 182.63,194.19 187.44,194.83 192.25,195.47 197.06,196.10 201.87,196.74 206.68,197.37 211.49,198.01 216.30,198.65 221.11,199.28 225.92,199.92 230.73,200.55 235.54,201.19 240.35,201.83 245.16,202.46 249.97,203.10 254.78,203.74 259.59,204.37 264.41,205.01 269.22,205.64 274.03,206.28 278.84,206.92 283.65,207.55 288.46,208.19 293.27,208.82 298.08,209.46 302.89,210.10 307.70,210.73 312.51,211.37 317.32,212.00 322.13,212.64 326.94,213.28 331.75,213.91 336.56,214.55 341.37,215.18 346.18,215.82 350.99,216.46 355.80,217.09 360.61,217.73 365.42,218.36 370.23,219.00 375.04,219.64 379.85,220.27 384.66,220.91 389.47,221.55 394.28,222.18 399.09,222.82 403.90,223.45 408.71,224.09 413.52,224.73 418.33,225.36 423.14,226.00 427.95,226.63 432.76,227.27 437.57,227.91 442.38,228.54 447.19,229.18 452.00,229.81"/>
<circle cx="300.88" cy="209.83" r="4.6" fill="#ffffff" stroke="#2ca02c" stroke-width="2"/>
<text x="306.88" y="203.83" font-family="Arial, sans-serif" font-size="10" fill="#2ca02c">max 607 ohm</text>
<line x1="82.00" y1="80.00" x2="104.00" y2="80.00" stroke="#1f77b4" stroke-width="2"/>
<text x="110.00" y="84.00" font-family="Arial, sans-serif" font-size="11">typ</text>
<line x1="82.00" y1="97.00" x2="104.00" y2="97.00" stroke="#ff7f0e" stroke-width="2" stroke-dasharray="5 4"/>
<text x="110.00" y="101.00" font-family="Arial, sans-serif" font-size="11">min</text>
<line x1="82.00" y1="114.00" x2="104.00" y2="114.00" stroke="#2ca02c" stroke-width="2" stroke-dasharray="2 4"/>
<text x="110.00" y="118.00" font-family="Arial, sans-serif" font-size="11">max</text>
<text x="262.00" y="386.00" text-anchor="middle" font-family="Arial, sans-serif" font-size="11">Output voltage (V)</text>
<text transform="translate(22.00 205.00) rotate(-90)" text-anchor="middle" font-family="Arial, sans-serif" font-size="11">Current (mA)</text>
<rect x="492.00" y="62.00" width="380.00" height="286.00" fill="#fbfbfb" stroke="#c8c8c8"/>
<text x="500.00" y="50.00" font-family="Arial, sans-serif" font-size="13" font-weight="700">[Pullup] Rload to GND</text>
<line x1="492.00" y1="62.00" x2="492.00" y2="348.00" stroke="#ececec"/>
<text x="492.00" y="366.00" text-anchor="middle" font-family="Arial, sans-serif" font-size="10">-2</text>
<line x1="587.00" y1="62.00" x2="587.00" y2="348.00" stroke="#ececec"/>
<text x="587.00" y="366.00" text-anchor="middle" font-family="Arial, sans-serif" font-size="10">-0.558</text>
<line x1="682.00" y1="62.00" x2="682.00" y2="348.00" stroke="#ececec"/>
<text x="682.00" y="366.00" text-anchor="middle" font-family="Arial, sans-serif" font-size="10">0.9</text>
<line x1="777.00" y1="62.00" x2="777.00" y2="348.00" stroke="#ececec"/>
<text x="777.00" y="366.00" text-anchor="middle" font-family="Arial, sans-serif" font-size="10">2.4</text>
<line x1="872.00" y1="62.00" x2="872.00" y2="348.00" stroke="#ececec"/>
<text x="872.00" y="366.00" text-anchor="middle" font-family="Arial, sans-serif" font-size="10">3.8</text>
<line x1="492.00" y1="348.00" x2="872.00" y2="348.00" stroke="#ececec"/>
<text x="485.00" y="352.00" text-anchor="end" font-family="Arial, sans-serif" font-size="10">-3.7e+02</text>
<line x1="492.00" y1="276.50" x2="872.00" y2="276.50" stroke="#ececec"/>
<text x="485.00" y="280.50" text-anchor="end" font-family="Arial, sans-serif" font-size="10">-1.9e+02</text>
<line x1="492.00" y1="205.00" x2="872.00" y2="205.00" stroke="#ececec"/>
<text x="485.00" y="209.00" text-anchor="end" font-family="Arial, sans-serif" font-size="10">-16</text>
<line x1="492.00" y1="133.50" x2="872.00" y2="133.50" stroke="#ececec"/>
<text x="485.00" y="137.50" text-anchor="end" font-family="Arial, sans-serif" font-size="10">1.6e+02</text>
<line x1="492.00" y1="62.00" x2="872.00" y2="62.00" stroke="#ececec"/>
<text x="485.00" y="66.00" text-anchor="end" font-family="Arial, sans-serif" font-size="10">3.4e+02</text>
<line x1="623.36" y1="62" x2="623.36" y2="348" stroke="#777" stroke-dasharray="4 4"/>
<line x1="492.0" y1="198.36" x2="872.0" y2="198.36" stroke="#777" stroke-dasharray="4 4"/>
<polyline fill="none" stroke="#1f77b4" stroke-width="1.8" points="506.07,89.68 511.29,96.54 517.15,104.26 522.36,111.13 528.23,118.85 533.44,125.71 539.30,133.44 544.52,140.30 550.38,148.02 555.59,154.89 561.46,162.61 566.67,169.47 571.88,176.34 577.10,183.20 577.75,183.95 578.40,184.56 579.05,185.06 579.70,185.48 582.96,186.98 588.82,189.07 589.48,189.29 590.13,189.50 590.78,189.72 591.43,189.93 594.04,190.76 600.55,192.73 601.20,192.92 601.86,193.10 602.51,193.29 603.16,193.47 603.81,193.65 605.11,194.01 610.98,195.55 616.19,196.80 622.05,198.09 623.36,198.36 627.27,199.12 627.92,199.24 632.48,200.04 638.34,200.95 639.65,201.13 643.56,201.64 649.42,202.29 651.38,202.47 654.63,202.74 660.50,203.13 665.71,203.39 671.57,203.61 676.79,203.76 682.65,203.91 687.86,204.01 693.08,204.10 698.94,204.19 704.15,204.26 710.02,204.33 715.23,204.39 721.09,204.45 726.31,204.50 728.91,204.53 732.17,204.56 737.38,204.60 740.64,204.63 742.60,204.65 748.46,204.69 752.37,204.73 753.67,204.74 759.54,204.85 764.75,205.06 769.31,205.80 769.96,206.04 770.61,206.35 771.27,206.75 771.92,207.27 772.57,207.93 775.83,212.21 781.04,219.08 781.69,219.93 782.34,220.79 782.99,221.65 783.65,222.51 784.30,223.37 786.90,226.80 792.77,234.52 793.42,235.38 794.07,236.24 794.72,237.09 795.37,237.95 796.03,238.81 797.98,241.38 803.19,248.25 809.06,255.97 814.27,262.84 820.13,270.56 825.35,277.42 831.21,285.14 836.42,292.01 842.29,299.73 847.50,306.59 853.36,314.32 857.93,320.32"/>
<polyline fill="none" stroke="#ff7f0e" stroke-width="1.8" stroke-dasharray="5 4" points="506.07,89.68 511.29,96.54 517.15,104.26 522.36,111.13 528.23,118.85 533.44,125.71 539.30,133.44 544.52,140.30 550.38,148.02 555.59,154.89 561.46,162.61 566.67,169.47 571.88,176.34 577.10,183.20 577.75,183.95 578.40,184.56 579.05,185.06 579.70,185.48 582.96,186.98 588.82,189.07 589.48,189.29 590.13,189.50 590.78,189.72 591.43,189.93 594.04,190.76 600.55,192.73 601.20,192.92 601.86,193.10 602.51,193.29 603.16,193.47 603.81,193.65 605.11,194.01 610.98,195.55 616.19,196.80 622.05,198.09 623.36,198.36 627.27,199.12 627.92,199.24 632.48,200.04 638.34,200.95 639.65,201.13 643.56,201.64 649.42,202.29 651.38,202.47 654.63,202.74 660.50,203.13 665.71,203.39 671.57,203.61 676.79,203.76 682.65,203.91 687.86,204.01 693.08,204.10 698.94,204.19 704.15,204.26 710.02,204.33 715.23,204.39 721.09,204.45 726.31,204.50 728.91,204.53 732.17,204.56 737.38,204.60 740.64,204.63 742.60,204.65 748.46,204.69 752.37,204.73 753.67,204.74 759.54,204.85 764.75,205.06 769.31,205.80 769.96,206.04 770.61,206.35 771.27,206.75 771.92,207.27 772.57,207.93 775.83,212.21 781.04,219.08 781.69,219.93 782.34,220.79 782.99,221.65 783.65,222.51 784.30,223.37 786.90,226.80 792.77,234.52 793.42,235.38 794.07,236.24 794.72,237.09 795.37,237.95 796.03,238.81 797.98,241.38 803.19,248.25 809.06,255.97 814.27,262.84 820.13,270.56 825.35,277.42 831.21,285.14 836.42,292.01 842.29,299.73 847.50,306.59 853.36,314.32 857.93,320.32"/>
<polyline fill="none" stroke="#2ca02c" stroke-width="1.8" stroke-dasharray="2 4" points="506.07,89.68 511.29,96.54 517.15,104.26 522.36,111.13 528.23,118.85 533.44,125.71 539.30,133.44 544.52,140.30 550.38,148.02 555.59,154.89 561.46,162.61 566.67,169.47 571.88,176.34 577.10,183.20 577.75,183.95 578.40,184.56 579.05,185.06 579.70,185.48 582.96,186.98 588.82,189.07 589.48,189.29 590.13,189.50 590.78,189.72 591.43,189.93 594.04,190.76 600.55,192.73 601.20,192.92 601.86,193.10 602.51,193.29 603.16,193.47 603.81,193.65 605.11,194.01 610.98,195.55 616.19,196.80 622.05,198.09 623.36,198.36 627.27,199.12 627.92,199.24 632.48,200.04 638.34,200.95 639.65,201.13 643.56,201.64 649.42,202.29 651.38,202.47 654.63,202.74 660.50,203.13 665.71,203.39 671.57,203.61 676.79,203.76 682.65,203.91 687.86,204.01 693.08,204.10 698.94,204.19 704.15,204.26 710.02,204.33 715.23,204.39 721.09,204.45 726.31,204.50 728.91,204.53 732.17,204.56 737.38,204.60 740.64,204.63 742.60,204.65 748.46,204.69 752.37,204.73 753.67,204.74 759.54,204.85 764.75,205.06 769.31,205.80 769.96,206.04 770.61,206.35 771.27,206.75 771.92,207.27 772.57,207.93 775.83,212.21 781.04,219.08 781.69,219.93 782.34,220.79 782.99,221.65 783.65,222.51 784.30,223.37 786.90,226.80 792.77,234.52 793.42,235.38 794.07,236.24 794.72,237.09 795.37,237.95 796.03,238.81 797.98,241.38 803.19,248.25 809.06,255.97 814.27,262.84 820.13,270.56 825.35,277.42 831.21,285.14 836.42,292.01 842.29,299.73 847.50,306.59 853.36,314.32 857.93,320.32"/>
<polyline fill="none" stroke="#1f77b4" stroke-width="1.1" stroke-dasharray="6 4" points="492.00,227.72 496.81,227.13 501.62,226.53 506.43,225.93 511.24,225.34 516.05,224.74 520.86,224.14 525.67,223.55 530.48,222.95 535.29,222.36 540.10,221.76 544.91,221.16 549.72,220.57 554.53,219.97 559.34,219.38 564.15,218.78 568.96,218.18 573.77,217.59 578.58,216.99 583.39,216.39 588.20,215.80 593.01,215.20 597.82,214.61 602.63,214.01 607.44,213.41 612.25,212.82 617.06,212.22 621.87,211.63 626.68,211.03 631.49,210.43 636.30,209.84 641.11,209.24 645.92,208.64 650.73,208.05 655.54,207.45 660.35,206.86 665.16,206.26 669.97,205.66 674.78,205.07 679.59,204.47 684.41,203.88 689.22,203.28 694.03,202.68 698.84,202.09 703.65,201.49 708.46,200.89 713.27,200.30 718.08,199.70 722.89,199.11 727.70,198.51 732.51,197.91 737.32,197.32 742.13,196.72 746.94,196.13 751.75,195.53 756.56,194.93 761.37,194.34 766.18,193.74 770.99,193.14 775.80,192.55 780.61,191.95 785.42,191.36 790.23,190.76 795.04,190.16 799.85,189.57 804.66,188.97 809.47,188.38 814.28,187.78 819.09,187.18 823.90,186.59 828.71,185.99 833.52,185.39 838.33,184.80 843.14,184.20 847.95,183.61 852.76,183.01 857.57,182.41 862.38,181.82 867.19,181.22 872.00,180.63"/>
<circle cx="683.95" cy="203.93" r="4.6" fill="#ffffff" stroke="#1f77b4" stroke-width="2"/>
<text x="689.95" y="197.93" font-family="Arial, sans-serif" font-size="10" fill="#1f77b4">typ 67.4 ohm</text>
<polyline fill="none" stroke="#ff7f0e" stroke-width="1.1" stroke-dasharray="6 4" points="492.00,227.72 496.81,227.13 501.62,226.53 506.43,225.93 511.24,225.34 516.05,224.74 520.86,224.14 525.67,223.55 530.48,222.95 535.29,222.36 540.10,221.76 544.91,221.16 549.72,220.57 554.53,219.97 559.34,219.38 564.15,218.78 568.96,218.18 573.77,217.59 578.58,216.99 583.39,216.39 588.20,215.80 593.01,215.20 597.82,214.61 602.63,214.01 607.44,213.41 612.25,212.82 617.06,212.22 621.87,211.63 626.68,211.03 631.49,210.43 636.30,209.84 641.11,209.24 645.92,208.64 650.73,208.05 655.54,207.45 660.35,206.86 665.16,206.26 669.97,205.66 674.78,205.07 679.59,204.47 684.41,203.88 689.22,203.28 694.03,202.68 698.84,202.09 703.65,201.49 708.46,200.89 713.27,200.30 718.08,199.70 722.89,199.11 727.70,198.51 732.51,197.91 737.32,197.32 742.13,196.72 746.94,196.13 751.75,195.53 756.56,194.93 761.37,194.34 766.18,193.74 770.99,193.14 775.80,192.55 780.61,191.95 785.42,191.36 790.23,190.76 795.04,190.16 799.85,189.57 804.66,188.97 809.47,188.38 814.28,187.78 819.09,187.18 823.90,186.59 828.71,185.99 833.52,185.39 838.33,184.80 843.14,184.20 847.95,183.61 852.76,183.01 857.57,182.41 862.38,181.82 867.19,181.22 872.00,180.63"/>
<circle cx="683.95" cy="203.93" r="4.6" fill="#ffffff" stroke="#ff7f0e" stroke-width="2"/>
<text x="689.95" y="197.93" font-family="Arial, sans-serif" font-size="10" fill="#ff7f0e">min 67.4 ohm</text>
<polyline fill="none" stroke="#2ca02c" stroke-width="1.1" stroke-dasharray="6 4" points="492.00,227.72 496.81,227.13 501.62,226.53 506.43,225.93 511.24,225.34 516.05,224.74 520.86,224.14 525.67,223.55 530.48,222.95 535.29,222.36 540.10,221.76 544.91,221.16 549.72,220.57 554.53,219.97 559.34,219.38 564.15,218.78 568.96,218.18 573.77,217.59 578.58,216.99 583.39,216.39 588.20,215.80 593.01,215.20 597.82,214.61 602.63,214.01 607.44,213.41 612.25,212.82 617.06,212.22 621.87,211.63 626.68,211.03 631.49,210.43 636.30,209.84 641.11,209.24 645.92,208.64 650.73,208.05 655.54,207.45 660.35,206.86 665.16,206.26 669.97,205.66 674.78,205.07 679.59,204.47 684.41,203.88 689.22,203.28 694.03,202.68 698.84,202.09 703.65,201.49 708.46,200.89 713.27,200.30 718.08,199.70 722.89,199.11 727.70,198.51 732.51,197.91 737.32,197.32 742.13,196.72 746.94,196.13 751.75,195.53 756.56,194.93 761.37,194.34 766.18,193.74 770.99,193.14 775.80,192.55 780.61,191.95 785.42,191.36 790.23,190.76 795.04,190.16 799.85,189.57 804.66,188.97 809.47,188.38 814.28,187.78 819.09,187.18 823.90,186.59 828.71,185.99 833.52,185.39 838.33,184.80 843.14,184.20 847.95,183.61 852.76,183.01 857.57,182.41 862.38,181.82 867.19,181.22 872.00,180.63"/>
<circle cx="683.95" cy="203.93" r="4.6" fill="#ffffff" stroke="#2ca02c" stroke-width="2"/>
<text x="689.95" y="197.93" font-family="Arial, sans-serif" font-size="10" fill="#2ca02c">max 67.4 ohm</text>
<line x1="502.00" y1="80.00" x2="524.00" y2="80.00" stroke="#1f77b4" stroke-width="2"/>
<text x="530.00" y="84.00" font-family="Arial, sans-serif" font-size="11">typ</text>
<line x1="502.00" y1="97.00" x2="524.00" y2="97.00" stroke="#ff7f0e" stroke-width="2" stroke-dasharray="5 4"/>
<text x="530.00" y="101.00" font-family="Arial, sans-serif" font-size="11">min</text>
<line x1="502.00" y1="114.00" x2="524.00" y2="114.00" stroke="#2ca02c" stroke-width="2" stroke-dasharray="2 4"/>
<text x="530.00" y="118.00" font-family="Arial, sans-serif" font-size="11">max</text>
<text x="682.00" y="386.00" text-anchor="middle" font-family="Arial, sans-serif" font-size="11">Vcc-relative table voltage (V)</text>
<text transform="translate(442.00 205.00) rotate(-90)" text-anchor="middle" font-family="Arial, sans-serif" font-size="11">Current (mA)</text>
<rect x="72.00" y="418.00" width="800.00" height="144.00" fill="#ffffff" stroke="#c8c8c8"/>
<text x="82.00" y="436.00" font-family="Arial, sans-serif" font-size="12" font-weight="700">Operating-point summary</text>
<text x="82.00" y="454.00" font-family="Arial, sans-serif" font-size="10" font-weight="700" fill="#333">Table</text>
<text x="174.00" y="454.00" font-family="Arial, sans-serif" font-size="10" font-weight="700" fill="#333">Corner</text>
<text x="242.00" y="454.00" font-family="Arial, sans-serif" font-size="10" font-weight="700" fill="#333">Vout</text>
<text x="332.00" y="454.00" font-family="Arial, sans-serif" font-size="10" font-weight="700" fill="#333">Iop</text>
<text x="422.00" y="454.00" font-family="Arial, sans-serif" font-size="10" font-weight="700" fill="#333">Zout</text>
<text x="512.00" y="454.00" font-family="Arial, sans-serif" font-size="10" font-weight="700" fill="#333">Rseries</text>
<text x="82.00" y="473.00" font-family="Arial, sans-serif" font-size="10" fill="#1f77b4">pulldown</text>
<text x="174.00" y="473.00" font-family="Arial, sans-serif" font-size="10" fill="#1f77b4">typ</text>
<text x="242.00" y="473.00" font-family="Arial, sans-serif" font-size="10" fill="#1f77b4">1.497 V</text>
<text x="332.00" y="473.00" font-family="Arial, sans-serif" font-size="10" fill="#1f77b4">2.5 mA</text>
<text x="422.00" y="473.00" font-family="Arial, sans-serif" font-size="10" fill="#1f77b4">607 ohm</text>
<text x="512.00" y="473.00" font-family="Arial, sans-serif" font-size="10" fill="#1f77b4">-557 ohm</text>
<text x="82.00" y="492.00" font-family="Arial, sans-serif" font-size="10" fill="#ff7f0e">pulldown</text>
<text x="174.00" y="492.00" font-family="Arial, sans-serif" font-size="10" fill="#ff7f0e">min</text>
<text x="242.00" y="492.00" font-family="Arial, sans-serif" font-size="10" fill="#ff7f0e">1.497 V</text>
<text x="332.00" y="492.00" font-family="Arial, sans-serif" font-size="10" fill="#ff7f0e">2.5 mA</text>
<text x="422.00" y="492.00" font-family="Arial, sans-serif" font-size="10" fill="#ff7f0e">607 ohm</text>
<text x="512.00" y="492.00" font-family="Arial, sans-serif" font-size="10" fill="#ff7f0e">-557 ohm</text>
<text x="82.00" y="511.00" font-family="Arial, sans-serif" font-size="10" fill="#2ca02c">pulldown</text>
<text x="174.00" y="511.00" font-family="Arial, sans-serif" font-size="10" fill="#2ca02c">max</text>
<text x="242.00" y="511.00" font-family="Arial, sans-serif" font-size="10" fill="#2ca02c">1.497 V</text>
<text x="332.00" y="511.00" font-family="Arial, sans-serif" font-size="10" fill="#2ca02c">2.5 mA</text>
<text x="422.00" y="511.00" font-family="Arial, sans-serif" font-size="10" fill="#2ca02c">607 ohm</text>
<text x="512.00" y="511.00" font-family="Arial, sans-serif" font-size="10" fill="#2ca02c">-557 ohm</text>
<text x="82.00" y="530.00" font-family="Arial, sans-serif" font-size="10" fill="#1f77b4">pullup</text>
<text x="174.00" y="530.00" font-family="Arial, sans-serif" font-size="10" fill="#1f77b4">typ</text>
<text x="242.00" y="530.00" font-family="Arial, sans-serif" font-size="10" fill="#1f77b4">0.6901 V</text>
<text x="332.00" y="530.00" font-family="Arial, sans-serif" font-size="10" fill="#1f77b4">-14 mA</text>
<text x="422.00" y="530.00" font-family="Arial, sans-serif" font-size="10" fill="#1f77b4">67.4 ohm</text>
<text x="512.00" y="530.00" font-family="Arial, sans-serif" font-size="10" fill="#1f77b4">-17.4 ohm</text>
<text x="82.00" y="549.00" font-family="Arial, sans-serif" font-size="10" fill="#ff7f0e">pullup</text>
<text x="174.00" y="549.00" font-family="Arial, sans-serif" font-size="10" fill="#ff7f0e">min</text>
<text x="242.00" y="549.00" font-family="Arial, sans-serif" font-size="10" fill="#ff7f0e">0.6901 V</text>
<text x="332.00" y="549.00" font-family="Arial, sans-serif" font-size="10" fill="#ff7f0e">-14 mA</text>
<text x="422.00" y="549.00" font-family="Arial, sans-serif" font-size="10" fill="#ff7f0e">67.4 ohm</text>
<text x="512.00" y="549.00" font-family="Arial, sans-serif" font-size="10" fill="#ff7f0e">-17.4 ohm</text>
<text x="82.00" y="568.00" font-family="Arial, sans-serif" font-size="10" fill="#2ca02c">pullup</text>
<text x="174.00" y="568.00" font-family="Arial, sans-serif" font-size="10" fill="#2ca02c">max</text>
<text x="242.00" y="568.00" font-family="Arial, sans-serif" font-size="10" fill="#2ca02c">0.6901 V</text>
<text x="332.00" y="568.00" font-family="Arial, sans-serif" font-size="10" fill="#2ca02c">-14 mA</text>
<text x="422.00" y="568.00" font-family="Arial, sans-serif" font-size="10" fill="#2ca02c">67.4 ohm</text>
<text x="512.00" y="568.00" font-family="Arial, sans-serif" font-size="10" fill="#2ca02c">-17.4 ohm</text>
</svg>