<svg xmlns="http://www.w3.org/2000/svg" width="900" height="620" viewBox="0 0 900 620">
<rect width="100%" height="100%" fill="#ffffff"/>
<text x="72" y="26" font-family="Arial, sans-serif" font-size="16" font-weight="700">E34_GPIO_I2CSCLIN_1V1_11_ISOSW Zout Load-Line Curves</text>
<text x="72" y="45" font-family="Arial, sans-serif" font-size="11" fill="#555">Rload=50 ohm; solid=device I-V, dashed=load line, circles=operating points</text>
<rect x="72.00" y="62.00" width="380.00" height="286.00" fill="#fbfbfb" stroke="#c8c8c8"/>
<text x="80.00" y="50.00" font-family="Arial, sans-serif" font-size="13" font-weight="700">[Pulldown] Rload to Vdd</text>
<line x1="72.00" y1="62.00" x2="72.00" y2="348.00" stroke="#ececec"/>
<text x="72.00" y="366.00" text-anchor="middle" font-family="Arial, sans-serif" font-size="10">-1.2</text>
<line x1="167.00" y1="62.00" x2="167.00" y2="348.00" stroke="#ececec"/>
<text x="167.00" y="366.00" text-anchor="middle" font-family="Arial, sans-serif" font-size="10">-0.341</text>
<line x1="262.00" y1="62.00" x2="262.00" y2="348.00" stroke="#ececec"/>
<text x="262.00" y="366.00" text-anchor="middle" font-family="Arial, sans-serif" font-size="10">0.55</text>
<line x1="357.00" y1="62.00" x2="357.00" y2="348.00" stroke="#ececec"/>
<text x="357.00" y="366.00" text-anchor="middle" font-family="Arial, sans-serif" font-size="10">1.4</text>
<line x1="452.00" y1="62.00" x2="452.00" y2="348.00" stroke="#ececec"/>
<text x="452.00" y="366.00" text-anchor="middle" font-family="Arial, sans-serif" font-size="10">2.3</text>
<line x1="72.00" y1="348.00" x2="452.00" y2="348.00" stroke="#ececec"/>
<text x="65.00" y="352.00" text-anchor="end" font-family="Arial, sans-serif" font-size="10">-33</text>
<line x1="72.00" y1="276.50" x2="452.00" y2="276.50" stroke="#ececec"/>
<text x="65.00" y="280.50" text-anchor="end" font-family="Arial, sans-serif" font-size="10">-11</text>
<line x1="72.00" y1="205.00" x2="452.00" y2="205.00" stroke="#ececec"/>
<text x="65.00" y="209.00" text-anchor="end" font-family="Arial, sans-serif" font-size="10">11</text>
<line x1="72.00" y1="133.50" x2="452.00" y2="133.50" stroke="#ececec"/>
<text x="65.00" y="137.50" text-anchor="end" font-family="Arial, sans-serif" font-size="10">33</text>
<line x1="72.00" y1="62.00" x2="452.00" y2="62.00" stroke="#ececec"/>
<text x="65.00" y="66.00" text-anchor="end" font-family="Arial, sans-serif" font-size="10">55</text>
<line x1="203.36" y1="62" x2="203.36" y2="348" stroke="#777" stroke-dasharray="4 4"/>
<line x1="72.0" y1="241.04" x2="452.0" y2="241.04" stroke="#777" stroke-dasharray="4 4"/>
<polyline fill="none" stroke="#1f77b4" stroke-width="1.8" points="86.07,278.99 91.41,278.99 96.74,278.99 99.93,278.99 103.13,278.99 106.33,278.99 107.40,278.86 108.46,278.71 114.86,277.74 116.99,277.38 119.13,276.99 124.46,275.92 129.79,274.70 131.92,274.16 132.99,273.88 136.19,272.99 137.25,272.67 140.45,271.67 141.52,271.32 142.58,270.96 143.65,270.58 144.72,270.19 145.78,269.80 146.85,269.39 147.91,268.97 150.05,268.10 151.11,267.65 152.18,267.18 154.31,266.22 156.44,265.22 157.51,264.70 162.84,262.00 169.24,258.60 174.57,255.73 179.90,252.90 185.23,250.11 190.56,247.38 195.89,244.69 202.29,241.55 203.36,241.04 207.62,239.01 212.95,236.55 218.29,234.17 223.62,231.90 228.95,229.73 235.34,227.30 240.68,225.43 246.01,223.75 251.34,222.26 256.67,221.02 263.07,219.89 265.20,219.60 267.33,219.36 268.40,219.25 270.53,219.06 271.60,218.98 273.73,218.84 274.79,218.78 276.93,218.67 277.99,218.62 279.06,218.58 280.13,218.54 281.19,218.50 282.26,218.46 283.32,218.43 284.39,218.40 285.46,218.37 287.59,218.31 289.72,218.26 291.85,218.21 296.12,218.12 301.45,218.03 306.78,217.94 308.91,217.91 312.11,217.86 317.44,217.79 320.64,217.75 322.77,217.72 329.17,217.65 332.37,217.61 334.50,217.59 339.83,217.54 345.16,217.48 350.50,217.44 355.83,217.39 362.22,217.34 367.56,217.29 372.89,217.25 378.22,217.19 383.55,217.13 388.88,217.06 395.28,216.94 400.61,216.79 405.94,216.58 411.27,216.28 416.60,215.86 421.93,215.32 428.33,214.51 433.66,213.70 437.93,212.96"/>
<polyline fill="none" stroke="#ff7f0e" stroke-width="1.8" stroke-dasharray="5 4" points="86.07,265.64 91.41,265.64 96.74,265.64 99.93,265.64 103.13,265.64 106.33,265.64 107.40,265.64 108.46,265.64 114.86,265.64 116.99,265.51 119.13,265.34 124.46,264.77 129.79,264.02 131.92,263.68 132.99,263.50 136.19,262.92 137.25,262.71 140.45,262.06 141.52,261.82 142.58,261.59 143.65,261.34 144.72,261.09 145.78,260.83 146.85,260.57 147.91,260.30 150.05,259.73 151.11,259.44 152.18,259.14 154.31,258.51 156.44,257.86 157.51,257.52 162.84,255.73 169.24,253.40 174.57,251.38 179.90,249.35 185.23,247.36 190.56,245.42 195.89,243.54 202.29,241.39 203.36,241.04 207.62,239.68 212.95,238.07 218.29,236.56 223.62,235.16 228.95,233.89 235.34,232.56 240.68,231.64 246.01,230.91 251.34,230.38 256.67,230.04 263.07,229.80 265.20,229.75 267.33,229.70 268.40,229.68 270.53,229.65 271.60,229.63 273.73,229.60 274.79,229.59 276.93,229.56 277.99,229.55 279.06,229.54 280.13,229.53 281.19,229.51 282.26,229.50 283.32,229.49 284.39,229.48 285.46,229.47 287.59,229.45 289.72,229.43 291.85,229.42 296.12,229.38 301.45,229.34 306.78,229.31 308.91,229.29 312.11,229.27 317.44,229.24 320.64,229.23 322.77,229.21 329.17,229.18 332.37,229.17 334.50,229.16 339.83,229.13 345.16,229.10 350.50,229.08 355.83,229.04 362.22,228.98 367.56,228.90 372.89,228.77 378.22,228.58 383.55,228.30 388.88,227.94 395.28,227.39 400.61,226.85 405.94,226.23 411.27,225.54 416.60,224.80 421.93,224.05 428.33,223.15 433.66,222.39 437.93,221.79"/>
<polyline fill="none" stroke="#2ca02c" stroke-width="1.8" stroke-dasharray="2 4" points="86.07,294.27 91.41,294.27 96.74,294.27 99.93,294.27 103.13,293.72 106.33,293.13 107.40,292.92 108.46,292.70 114.86,291.33 116.99,290.82 119.13,290.29 124.46,288.84 129.79,287.17 131.92,286.44 132.99,286.06 136.19,284.83 137.25,284.40 140.45,283.02 141.52,282.53 142.58,282.03 143.65,281.51 144.72,280.98 145.78,280.43 146.85,279.86 147.91,279.28 150.05,278.06 151.11,277.43 152.18,276.78 154.31,275.44 156.44,274.04 157.51,273.33 162.84,269.60 169.24,265.00 174.57,261.16 179.90,257.35 185.23,253.58 190.56,249.84 195.89,246.14 202.29,241.76 203.36,241.04 207.62,238.17 212.95,234.63 218.29,231.16 223.62,227.76 228.95,224.43 235.34,220.57 240.68,217.46 246.01,214.47 251.34,211.61 256.67,208.92 263.07,205.93 265.20,205.01 267.33,204.13 268.40,203.70 270.53,202.88 271.60,202.48 273.73,201.73 274.79,201.38 276.93,200.70 277.99,200.39 279.06,200.09 280.13,199.80 281.19,199.52 282.26,199.26 283.32,199.01 284.39,198.78 285.46,198.56 287.59,198.17 289.72,197.82 291.85,197.52 296.12,197.05 301.45,196.62 306.78,196.30 308.91,196.20 312.11,196.06 317.44,195.85 320.64,195.74 322.77,195.67 329.17,195.48 332.37,195.40 334.50,195.35 339.83,195.21 345.16,195.10 350.50,194.98 355.83,194.88 362.22,194.77 367.56,194.68 372.89,194.59 378.22,194.51 383.55,194.42 388.88,194.34 395.28,194.23 400.61,194.12 405.94,194.00 411.27,193.85 416.60,193.68 421.93,193.50 428.33,193.25 433.66,193.01 437.93,192.77"/>
<polyline fill="none" stroke="#1f77b4" stroke-width="1.1" stroke-dasharray="6 4" points="72.00,88.24 76.81,91.19 81.62,94.15 86.43,97.10 91.24,100.06 96.05,103.02 100.86,105.97 105.67,108.93 110.48,111.88 115.29,114.84 120.10,117.80 124.91,120.75 129.72,123.71 134.53,126.66 139.34,129.62 144.15,132.58 148.96,135.53 153.77,138.49 158.58,141.44 163.39,144.40 168.20,147.36 173.01,150.31 177.82,153.27 182.63,156.23 187.44,159.18 192.25,162.14 197.06,165.09 201.87,168.05 206.68,171.01 211.49,173.96 216.30,176.92 221.11,179.87 225.92,182.83 230.73,185.79 235.54,188.74 240.35,191.70 245.16,194.65 249.97,197.61 254.78,200.57 259.59,203.52 264.41,206.48 269.22,209.43 274.03,212.39 278.84,215.35 283.65,218.30 288.46,221.26 293.27,224.21 298.08,227.17 302.89,230.13 307.70,233.08 312.51,236.04 317.32,238.99 322.13,241.95 326.94,244.91 331.75,247.86 336.56,250.82 341.37,253.77 346.18,256.73 350.99,259.69 355.80,262.64 360.61,265.60 365.42,268.56 370.23,271.51 375.04,274.47 379.85,277.42 384.66,280.38 389.47,283.34 394.28,286.29 399.09,289.25 403.90,292.20 408.71,295.16 413.52,298.12 418.33,301.07 423.14,304.03 427.95,306.98 432.76,309.94 437.57,312.90 442.38,315.85 447.19,318.81 452.00,321.76"/>
<circle cx="283.83" cy="218.41" r="4.6" fill="#ffffff" stroke="#1f77b4" stroke-width="2"/>
<text x="289.83" y="212.41" font-family="Arial, sans-serif" font-size="10" fill="#1f77b4">typ 109 ohm</text>
<polyline fill="none" stroke="#ff7f0e" stroke-width="1.1" stroke-dasharray="6 4" points="72.00,95.44 76.81,98.40 81.62,101.36 86.43,104.31 91.24,107.27 96.05,110.22 100.86,113.18 105.67,116.14 110.48,119.09 115.29,122.05 120.10,125.00 124.91,127.96 129.72,130.92 134.53,133.87 139.34,136.83 144.15,139.78 148.96,142.74 153.77,145.70 158.58,148.65 163.39,151.61 168.20,154.56 173.01,157.52 177.82,160.48 182.63,163.43 187.44,166.39 192.25,169.34 197.06,172.30 201.87,175.26 206.68,178.21 211.49,181.17 216.30,184.13 221.11,187.08 225.92,190.04 230.73,192.99 235.54,195.95 240.35,198.91 245.16,201.86 249.97,204.82 254.78,207.77 259.59,210.73 264.41,213.69 269.22,216.64 274.03,219.60 278.84,222.55 283.65,225.51 288.46,228.47 293.27,231.42 298.08,234.38 302.89,237.33 307.70,240.29 312.51,243.25 317.32,246.20 322.13,249.16 326.94,252.11 331.75,255.07 336.56,258.03 341.37,260.98 346.18,263.94 350.99,266.89 355.80,269.85 360.61,272.81 365.42,275.76 370.23,278.72 375.04,281.67 379.85,284.63 384.66,287.59 389.47,290.54 394.28,293.50 399.09,296.46 403.90,299.41 408.71,302.37 413.52,305.32 418.33,308.28 423.14,311.24 427.95,314.19 432.76,317.15 437.57,320.10 442.38,323.06 447.19,326.02 452.00,328.97"/>
<circle cx="290.03" cy="229.43" r="4.6" fill="#ffffff" stroke="#ff7f0e" stroke-width="2"/>
<text x="296.03" y="223.43" font-family="Arial, sans-serif" font-size="10" fill="#ff7f0e">min 229 ohm</text>
<polyline fill="none" stroke="#2ca02c" stroke-width="1.1" stroke-dasharray="6 4" points="72.00,81.03 76.81,83.98 81.62,86.94 86.43,89.90 91.24,92.85 96.05,95.81 100.86,98.76 105.67,101.72 110.48,104.68 115.29,107.63 120.10,110.59 124.91,113.54 129.72,116.50 134.53,119.46 139.34,122.41 144.15,125.37 148.96,128.33 153.77,131.28 158.58,134.24 163.39,137.19 168.20,140.15 173.01,143.11 177.82,146.06 182.63,149.02 187.44,151.97 192.25,154.93 197.06,157.89 201.87,160.84 206.68,163.80 211.49,166.75 216.30,169.71 221.11,172.67 225.92,175.62 230.73,178.58 235.54,181.53 240.35,184.49 245.16,187.45 249.97,190.40 254.78,193.36 259.59,196.31 264.41,199.27 269.22,202.23 274.03,205.18 278.84,208.14 283.65,211.09 288.46,214.05 293.27,217.01 298.08,219.96 302.89,222.92 307.70,225.87 312.51,228.83 317.32,231.79 322.13,234.74 326.94,237.70 331.75,240.66 336.56,243.61 341.37,246.57 346.18,249.52 350.99,252.48 355.80,255.44 360.61,258.39 365.42,261.35 370.23,264.30 375.04,267.26 379.85,270.22 384.66,273.17 389.47,276.13 394.28,279.08 399.09,282.04 403.90,285.00 408.71,287.95 413.52,290.91 418.33,293.86 423.14,296.82 427.95,299.78 432.76,302.73 437.57,305.69 442.38,308.64 447.19,311.60 452.00,314.56"/>
<circle cx="270.37" cy="202.94" r="4.6" fill="#ffffff" stroke="#2ca02c" stroke-width="2"/>
<text x="276.37" y="196.94" font-family="Arial, sans-serif" font-size="10" fill="#2ca02c">max 54 ohm</text>
<line x1="82.00" y1="80.00" x2="104.00" y2="80.00" stroke="#1f77b4" stroke-width="2"/>
<text x="110.00" y="84.00" font-family="Arial, sans-serif" font-size="11">typ</text>
<line x1="82.00" y1="97.00" x2="104.00" y2="97.00" stroke="#ff7f0e" stroke-width="2" stroke-dasharray="5 4"/>
<text x="110.00" y="101.00" font-family="Arial, sans-serif" font-size="11">min</text>
<line x1="82.00" y1="114.00" x2="104.00" y2="114.00" stroke="#2ca02c" stroke-width="2" stroke-dasharray="2 4"/>
<text x="110.00" y="118.00" font-family="Arial, sans-serif" font-size="11">max</text>
<text x="262.00" y="386.00" text-anchor="middle" font-family="Arial, sans-serif" font-size="11">Output voltage (V)</text>
<text transform="translate(22.00 205.00) rotate(-90)" text-anchor="middle" font-family="Arial, sans-serif" font-size="11">Current (mA)</text>
<rect x="492.00" y="62.00" width="380.00" height="286.00" fill="#fbfbfb" stroke="#c8c8c8"/>
<text x="500.00" y="50.00" font-family="Arial, sans-serif" font-size="13" font-weight="700">[Pullup] Rload to GND</text>
<line x1="492.00" y1="62.00" x2="492.00" y2="348.00" stroke="#ececec"/>
<text x="492.00" y="366.00" text-anchor="middle" font-family="Arial, sans-serif" font-size="10">-1.2</text>
<line x1="587.00" y1="62.00" x2="587.00" y2="348.00" stroke="#ececec"/>
<text x="587.00" y="366.00" text-anchor="middle" font-family="Arial, sans-serif" font-size="10">-0.341</text>
<line x1="682.00" y1="62.00" x2="682.00" y2="348.00" stroke="#ececec"/>
<text x="682.00" y="366.00" text-anchor="middle" font-family="Arial, sans-serif" font-size="10">0.55</text>
<line x1="777.00" y1="62.00" x2="777.00" y2="348.00" stroke="#ececec"/>
<text x="777.00" y="366.00" text-anchor="middle" font-family="Arial, sans-serif" font-size="10">1.4</text>
<line x1="872.00" y1="62.00" x2="872.00" y2="348.00" stroke="#ececec"/>
<text x="872.00" y="366.00" text-anchor="middle" font-family="Arial, sans-serif" font-size="10">2.3</text>
<line x1="492.00" y1="348.00" x2="872.00" y2="348.00" stroke="#ececec"/>
<text x="485.00" y="352.00" text-anchor="end" font-family="Arial, sans-serif" font-size="10">-55</text>
<line x1="492.00" y1="276.50" x2="872.00" y2="276.50" stroke="#ececec"/>
<text x="485.00" y="280.50" text-anchor="end" font-family="Arial, sans-serif" font-size="10">-33</text>
<line x1="492.00" y1="205.00" x2="872.00" y2="205.00" stroke="#ececec"/>
<text x="485.00" y="209.00" text-anchor="end" font-family="Arial, sans-serif" font-size="10">-11</text>
<line x1="492.00" y1="133.50" x2="872.00" y2="133.50" stroke="#ececec"/>
<text x="485.00" y="137.50" text-anchor="end" font-family="Arial, sans-serif" font-size="10">11</text>
<line x1="492.00" y1="62.00" x2="872.00" y2="62.00" stroke="#ececec"/>
<text x="485.00" y="66.00" text-anchor="end" font-family="Arial, sans-serif" font-size="10">33</text>
<line x1="623.36" y1="62" x2="623.36" y2="348" stroke="#777" stroke-dasharray="4 4"/>
<line x1="492.0" y1="168.96" x2="872.0" y2="168.96" stroke="#777" stroke-dasharray="4 4"/>
<polyline fill="none" stroke="#1f77b4" stroke-width="1.8" points="506.07,111.27 511.41,113.86 516.74,116.49 523.13,119.68 528.46,122.35 533.80,125.05 539.13,127.75 544.46,130.45 549.79,133.15 556.19,136.37 561.52,139.05 566.85,141.71 572.18,144.34 577.51,146.95 582.84,149.54 589.24,152.63 594.57,155.19 599.90,157.75 602.03,158.77 603.10,159.28 605.23,160.30 608.43,161.82 609.50,162.33 610.56,162.84 615.89,165.37 622.29,168.45 623.36,168.96 627.62,170.98 632.95,173.41 639.35,176.16 640.42,176.61 641.48,177.05 642.55,177.50 644.68,178.37 648.95,180.06 655.34,182.45 660.68,184.29 666.01,185.98 671.34,187.48 675.60,188.52 676.67,188.75 677.74,188.98 678.80,189.20 679.87,189.40 680.93,189.59 682.00,189.78 683.07,189.95 684.13,190.11 685.20,190.26 686.26,190.39 687.33,190.52 688.40,190.63 689.46,190.74 691.60,190.92 692.66,191.00 693.73,191.07 695.86,191.20 697.99,191.31 699.06,191.36 700.13,191.41 701.19,191.46 702.26,191.50 703.32,191.55 704.39,191.59 705.46,191.63 706.52,191.67 707.59,191.71 708.66,191.75 710.79,191.82 715.05,191.96 716.12,191.99 721.45,192.15 726.78,192.29 728.91,192.34 732.11,192.42 737.44,192.54 740.64,192.60 742.77,192.64 749.17,192.77 752.37,192.82 754.50,192.86 759.83,192.95 765.16,193.03 770.50,193.11 775.83,193.16 782.22,193.17 787.56,193.17 792.89,193.17 798.22,193.17 803.55,193.17 808.88,193.17 815.28,193.17 820.61,193.17 825.94,193.17 831.27,193.17 836.60,193.17 841.93,193.17 848.33,193.17 853.66,193.17 857.93,193.17"/>
<polyline fill="none" stroke="#ff7f0e" stroke-width="1.8" stroke-dasharray="5 4" points="506.07,127.56 511.41,129.29 516.74,131.03 523.13,133.16 528.46,135.00 533.80,136.89 539.13,138.82 544.46,140.77 549.79,142.74 556.19,145.11 561.52,147.09 566.85,149.06 572.18,151.02 577.51,152.95 582.84,154.87 589.24,157.14 594.57,159.02 599.90,160.87 602.03,161.61 603.10,161.98 605.23,162.72 608.43,163.82 609.50,164.19 610.56,164.55 615.89,166.38 622.29,168.60 623.36,168.96 627.62,170.39 632.95,172.08 639.35,173.93 640.42,174.22 641.48,174.51 642.55,174.79 644.68,175.35 648.95,176.39 655.34,177.80 660.68,178.81 666.01,179.63 671.34,180.26 675.60,180.61 676.67,180.68 677.74,180.74 678.80,180.79 679.87,180.84 680.93,180.89 682.00,180.93 683.07,180.96 684.13,181.00 685.20,181.03 686.26,181.06 687.33,181.09 688.40,181.11 689.46,181.14 691.60,181.18 692.66,181.20 693.73,181.23 695.86,181.27 697.99,181.30 699.06,181.32 700.13,181.34 701.19,181.36 702.26,181.38 703.32,181.39 704.39,181.41 705.46,181.43 706.52,181.44 707.59,181.46 708.66,181.47 710.79,181.50 715.05,181.56 716.12,181.57 721.45,181.63 726.78,181.69 728.91,181.71 732.11,181.75 737.44,181.80 740.64,181.83 742.77,181.85 749.17,181.90 752.37,181.91 754.50,181.92 759.83,181.93 765.16,181.93 770.50,181.93 775.83,181.93 782.22,181.93 787.56,181.93 792.89,181.93 798.22,181.93 803.55,181.93 808.88,181.93 815.28,181.93 820.61,181.93 825.94,181.93 831.27,181.93 836.60,181.93 841.93,181.93 848.33,181.93 853.66,181.93 857.93,181.93"/>
<polyline fill="none" stroke="#2ca02c" stroke-width="1.8" stroke-dasharray="2 4" points="506.07,91.16 511.41,94.77 516.74,98.38 523.13,102.72 528.46,106.35 533.80,109.96 539.13,113.57 544.46,117.17 549.79,120.76 556.19,125.04 561.52,128.59 566.85,132.12 572.18,135.63 577.51,139.11 582.84,142.57 589.24,146.73 594.57,150.19 599.90,153.63 602.03,154.99 603.10,155.65 605.23,156.95 608.43,158.93 609.50,159.61 610.56,160.31 615.89,163.93 622.29,168.25 623.36,168.96 627.62,171.80 632.95,175.29 639.35,179.36 640.42,180.01 641.48,180.64 642.55,181.24 644.68,182.42 648.95,184.87 655.34,188.55 660.68,191.52 666.01,194.38 671.34,197.12 675.60,199.21 676.67,199.72 677.74,200.22 678.80,200.72 679.87,201.21 680.93,201.69 682.00,202.16 683.07,202.63 684.13,203.09 685.20,203.54 686.26,203.98 687.33,204.42 688.40,204.84 689.46,205.26 691.60,206.07 692.66,206.45 693.73,206.83 695.86,207.56 697.99,208.23 699.06,208.55 700.13,208.86 701.19,209.16 702.26,209.44 703.32,209.71 704.39,209.96 705.46,210.21 706.52,210.44 707.59,210.65 708.66,210.85 710.79,211.22 715.05,211.83 716.12,211.96 721.45,212.52 726.78,212.96 728.91,213.12 732.11,213.34 737.44,213.69 740.64,213.87 742.77,213.99 749.17,214.32 752.37,214.47 754.50,214.56 759.83,214.79 765.16,215.00 770.50,215.19 775.83,215.38 782.22,215.58 787.56,215.74 792.89,215.85 798.22,215.87 803.55,215.87 808.88,215.87 815.28,215.87 820.61,215.87 825.94,215.87 831.27,215.87 836.60,215.87 841.93,215.87 848.33,215.87 853.66,215.87 857.93,215.87"/>
<polyline fill="none" stroke="#1f77b4" stroke-width="1.1" stroke-dasharray="6 4" points="492.00,321.76 496.81,318.81 501.62,315.85 506.43,312.90 511.24,309.94 516.05,306.98 520.86,304.03 525.67,301.07 530.48,298.12 535.29,295.16 540.10,292.20 544.91,289.25 549.72,286.29 554.53,283.34 559.34,280.38 564.15,277.42 568.96,274.47 573.77,271.51 578.58,268.56 583.39,265.60 588.20,262.64 593.01,259.69 597.82,256.73 602.63,253.77 607.44,250.82 612.25,247.86 617.06,244.91 621.87,241.95 626.68,238.99 631.49,236.04 636.30,233.08 641.11,230.13 645.92,227.17 650.73,224.21 655.54,221.26 660.35,218.30 665.16,215.35 669.97,212.39 674.78,209.43 679.59,206.48 684.41,203.52 689.22,200.57 694.03,197.61 698.84,194.65 703.65,191.70 708.46,188.74 713.27,185.79 718.08,182.83 722.89,179.87 727.70,176.92 732.51,173.96 737.32,171.01 742.13,168.05 746.94,165.09 751.75,162.14 756.56,159.18 761.37,156.23 766.18,153.27 770.99,150.31 775.80,147.36 780.61,144.40 785.42,141.44 790.23,138.49 795.04,135.53 799.85,132.58 804.66,129.62 809.47,126.66 814.28,123.71 819.09,120.75 823.90,117.80 828.71,114.84 833.52,111.88 838.33,108.93 843.14,105.97 847.95,103.02 852.76,100.06 857.57,97.10 862.38,94.15 867.19,91.19 872.00,88.24"/>
<circle cx="703.86" cy="191.57" r="4.6" fill="#ffffff" stroke="#1f77b4" stroke-width="2"/>
<text x="709.86" y="185.57" font-family="Arial, sans-serif" font-size="10" fill="#1f77b4">typ 109 ohm</text>
<polyline fill="none" stroke="#ff7f0e" stroke-width="1.1" stroke-dasharray="6 4" points="492.00,314.56 496.81,311.60 501.62,308.64 506.43,305.69 511.24,302.73 516.05,299.78 520.86,296.82 525.67,293.86 530.48,290.91 535.29,287.95 540.10,285.00 544.91,282.04 549.72,279.08 554.53,276.13 559.34,273.17 564.15,270.22 568.96,267.26 573.77,264.30 578.58,261.35 583.39,258.39 588.20,255.44 593.01,252.48 597.82,249.52 602.63,246.57 607.44,243.61 612.25,240.66 617.06,237.70 621.87,234.74 626.68,231.79 631.49,228.83 636.30,225.87 641.11,222.92 645.92,219.96 650.73,217.01 655.54,214.05 660.35,211.09 665.16,208.14 669.97,205.18 674.78,202.23 679.59,199.27 684.41,196.31 689.22,193.36 694.03,190.40 698.84,187.45 703.65,184.49 708.46,181.53 713.27,178.58 718.08,175.62 722.89,172.67 727.70,169.71 732.51,166.75 737.32,163.80 742.13,160.84 746.94,157.89 751.75,154.93 756.56,151.97 761.37,149.02 766.18,146.06 770.99,143.11 775.80,140.15 780.61,137.19 785.42,134.24 790.23,131.28 795.04,128.33 799.85,125.37 804.66,122.41 809.47,119.46 814.28,116.50 819.09,113.54 823.90,110.59 828.71,107.63 833.52,104.68 838.33,101.72 843.14,98.76 847.95,95.81 852.76,92.85 857.57,89.90 862.38,86.94 867.19,83.98 872.00,81.03"/>
<circle cx="708.56" cy="181.47" r="4.6" fill="#ffffff" stroke="#ff7f0e" stroke-width="2"/>
<text x="714.56" y="175.47" font-family="Arial, sans-serif" font-size="10" fill="#ff7f0e">min 209 ohm</text>
<polyline fill="none" stroke="#2ca02c" stroke-width="1.1" stroke-dasharray="6 4" points="492.00,328.97 496.81,326.02 501.62,323.06 506.43,320.10 511.24,317.15 516.05,314.19 520.86,311.24 525.67,308.28 530.48,305.32 535.29,302.37 540.10,299.41 544.91,296.46 549.72,293.50 554.53,290.54 559.34,287.59 564.15,284.63 568.96,281.67 573.77,278.72 578.58,275.76 583.39,272.81 588.20,269.85 593.01,266.89 597.82,263.94 602.63,260.98 607.44,258.03 612.25,255.07 617.06,252.11 621.87,249.16 626.68,246.20 631.49,243.25 636.30,240.29 641.11,237.33 645.92,234.38 650.73,231.42 655.54,228.47 660.35,225.51 665.16,222.55 669.97,219.60 674.78,216.64 679.59,213.69 684.41,210.73 689.22,207.77 694.03,204.82 698.84,201.86 703.65,198.91 708.46,195.95 713.27,192.99 718.08,190.04 722.89,187.08 727.70,184.13 732.51,181.17 737.32,178.21 742.13,175.26 746.94,172.30 751.75,169.34 756.56,166.39 761.37,163.43 766.18,160.48 770.99,157.52 775.80,154.56 780.61,151.61 785.42,148.65 790.23,145.70 795.04,142.74 799.85,139.78 804.66,136.83 809.47,133.87 814.28,130.92 819.09,127.96 823.90,125.00 828.71,122.05 833.52,119.09 838.33,116.14 843.14,113.18 847.95,110.22 852.76,107.27 857.57,104.31 862.38,101.36 867.19,98.40 872.00,95.44"/>
<circle cx="691.84" cy="206.16" r="4.6" fill="#ffffff" stroke="#2ca02c" stroke-width="2"/>
<text x="697.84" y="200.16" font-family="Arial, sans-serif" font-size="10" fill="#2ca02c">max 56.6 ohm</text>
<line x1="502.00" y1="80.00" x2="524.00" y2="80.00" stroke="#1f77b4" stroke-width="2"/>
<text x="530.00" y="84.00" font-family="Arial, sans-serif" font-size="11">typ</text>
<line x1="502.00" y1="97.00" x2="524.00" y2="97.00" stroke="#ff7f0e" stroke-width="2" stroke-dasharray="5 4"/>
<text x="530.00" y="101.00" font-family="Arial, sans-serif" font-size="11">min</text>
<line x1="502.00" y1="114.00" x2="524.00" y2="114.00" stroke="#2ca02c" stroke-width="2" stroke-dasharray="2 4"/>
<text x="530.00" y="118.00" font-family="Arial, sans-serif" font-size="11">max</text>
<text x="682.00" y="386.00" text-anchor="middle" font-family="Arial, sans-serif" font-size="11">Vcc-relative table voltage (V)</text>
<text transform="translate(442.00 205.00) rotate(-90)" text-anchor="middle" font-family="Arial, sans-serif" font-size="11">Current (mA)</text>
<rect x="72.00" y="418.00" width="800.00" height="144.00" fill="#ffffff" stroke="#c8c8c8"/>
<text x="82.00" y="436.00" font-family="Arial, sans-serif" font-size="12" font-weight="700">Operating-point summary</text>
<text x="82.00" y="454.00" font-family="Arial, sans-serif" font-size="10" font-weight="700" fill="#333">Table</text>
<text x="174.00" y="454.00" font-family="Arial, sans-serif" font-size="10" font-weight="700" fill="#333">Corner</text>
<text x="242.00" y="454.00" font-family="Arial, sans-serif" font-size="10" font-weight="700" fill="#333">Vout</text>
<text x="332.00" y="454.00" font-family="Arial, sans-serif" font-size="10" font-weight="700" fill="#333">Iop</text>
<text x="422.00" y="454.00" font-family="Arial, sans-serif" font-size="10" font-weight="700" fill="#333">Zout</text>
<text x="512.00" y="454.00" font-family="Arial, sans-serif" font-size="10" font-weight="700" fill="#333">Rseries</text>
<text x="82.00" y="473.00" font-family="Arial, sans-serif" font-size="10" fill="#1f77b4">pulldown</text>
<text x="174.00" y="473.00" font-family="Arial, sans-serif" font-size="10" fill="#1f77b4">typ</text>
<text x="242.00" y="473.00" font-family="Arial, sans-serif" font-size="10" fill="#1f77b4">0.7547 V</text>
<text x="332.00" y="473.00" font-family="Arial, sans-serif" font-size="10" fill="#1f77b4">6.9 mA</text>
<text x="422.00" y="473.00" font-family="Arial, sans-serif" font-size="10" fill="#1f77b4">109 ohm</text>
<text x="512.00" y="473.00" font-family="Arial, sans-serif" font-size="10" fill="#1f77b4">-59.3 ohm</text>
<text x="82.00" y="492.00" font-family="Arial, sans-serif" font-size="10" fill="#ff7f0e">pulldown</text>
<text x="174.00" y="492.00" font-family="Arial, sans-serif" font-size="10" fill="#ff7f0e">min</text>
<text x="242.00" y="492.00" font-family="Arial, sans-serif" font-size="10" fill="#ff7f0e">0.8129 V</text>
<text x="332.00" y="492.00" font-family="Arial, sans-serif" font-size="10" fill="#ff7f0e">3.5 mA</text>
<text x="422.00" y="492.00" font-family="Arial, sans-serif" font-size="10" fill="#ff7f0e">229 ohm</text>
<text x="512.00" y="492.00" font-family="Arial, sans-serif" font-size="10" fill="#ff7f0e">-179 ohm</text>
<text x="82.00" y="511.00" font-family="Arial, sans-serif" font-size="10" fill="#2ca02c">pulldown</text>
<text x="174.00" y="511.00" font-family="Arial, sans-serif" font-size="10" fill="#2ca02c">max</text>
<text x="242.00" y="511.00" font-family="Arial, sans-serif" font-size="10" fill="#2ca02c">0.6285 V</text>
<text x="332.00" y="511.00" font-family="Arial, sans-serif" font-size="10" fill="#2ca02c">12 mA</text>
<text x="422.00" y="511.00" font-family="Arial, sans-serif" font-size="10" fill="#2ca02c">54 ohm</text>
<text x="512.00" y="511.00" font-family="Arial, sans-serif" font-size="10" fill="#2ca02c">-4.046 ohm</text>
<text x="82.00" y="530.00" font-family="Arial, sans-serif" font-size="10" fill="#1f77b4">pullup</text>
<text x="174.00" y="530.00" font-family="Arial, sans-serif" font-size="10" fill="#1f77b4">typ</text>
<text x="242.00" y="530.00" font-family="Arial, sans-serif" font-size="10" fill="#1f77b4">0.345 V</text>
<text x="332.00" y="530.00" font-family="Arial, sans-serif" font-size="10" fill="#1f77b4">-6.9 mA</text>
<text x="422.00" y="530.00" font-family="Arial, sans-serif" font-size="10" fill="#1f77b4">109 ohm</text>
<text x="512.00" y="530.00" font-family="Arial, sans-serif" font-size="10" fill="#1f77b4">-59.4 ohm</text>
<text x="82.00" y="549.00" font-family="Arial, sans-serif" font-size="10" fill="#ff7f0e">pullup</text>
<text x="174.00" y="549.00" font-family="Arial, sans-serif" font-size="10" fill="#ff7f0e">min</text>
<text x="242.00" y="549.00" font-family="Arial, sans-serif" font-size="10" fill="#ff7f0e">0.1909 V</text>
<text x="332.00" y="549.00" font-family="Arial, sans-serif" font-size="10" fill="#ff7f0e">-3.8 mA</text>
<text x="422.00" y="549.00" font-family="Arial, sans-serif" font-size="10" fill="#ff7f0e">209 ohm</text>
<text x="512.00" y="549.00" font-family="Arial, sans-serif" font-size="10" fill="#ff7f0e">-159 ohm</text>
<text x="82.00" y="568.00" font-family="Arial, sans-serif" font-size="10" fill="#2ca02c">pullup</text>
<text x="174.00" y="568.00" font-family="Arial, sans-serif" font-size="10" fill="#2ca02c">max</text>
<text x="242.00" y="568.00" font-family="Arial, sans-serif" font-size="10" fill="#2ca02c">0.5677 V</text>
<text x="332.00" y="568.00" font-family="Arial, sans-serif" font-size="10" fill="#2ca02c">-11 mA</text>
<text x="422.00" y="568.00" font-family="Arial, sans-serif" font-size="10" fill="#2ca02c">56.6 ohm</text>
<text x="512.00" y="568.00" font-family="Arial, sans-serif" font-size="10" fill="#2ca02c">-6.575 ohm</text>
</svg>