<svg xmlns="http://www.w3.org/2000/svg" width="900" height="620" viewBox="0 0 900 620">
<rect width="100%" height="100%" fill="#ffffff"/>
<text x="72" y="26" font-family="Arial, sans-serif" font-size="16" font-weight="700">E34_GPIO_I2CSCLIN_3V3_11_ISOSW Zout Load-Line Curves</text>
<text x="72" y="45" font-family="Arial, sans-serif" font-size="11" fill="#555">Rload=50 ohm; solid=device I-V, dashed=load line, circles=operating points</text>
<rect x="72.00" y="62.00" width="380.00" height="286.00" fill="#fbfbfb" stroke="#c8c8c8"/>
<text x="80.00" y="50.00" font-family="Arial, sans-serif" font-size="13" font-weight="700">[Pulldown] Rload to Vdd</text>
<line x1="72.00" y1="62.00" x2="72.00" y2="348.00" stroke="#ececec"/>
<text x="72.00" y="366.00" text-anchor="middle" font-family="Arial, sans-serif" font-size="10">-3.7</text>
<line x1="167.00" y1="62.00" x2="167.00" y2="348.00" stroke="#ececec"/>
<text x="167.00" y="366.00" text-anchor="middle" font-family="Arial, sans-serif" font-size="10">-1</text>
<line x1="262.00" y1="62.00" x2="262.00" y2="348.00" stroke="#ececec"/>
<text x="262.00" y="366.00" text-anchor="middle" font-family="Arial, sans-serif" font-size="10">1.7</text>
<line x1="357.00" y1="62.00" x2="357.00" y2="348.00" stroke="#ececec"/>
<text x="357.00" y="366.00" text-anchor="middle" font-family="Arial, sans-serif" font-size="10">4.3</text>
<line x1="452.00" y1="62.00" x2="452.00" y2="348.00" stroke="#ececec"/>
<text x="452.00" y="366.00" text-anchor="middle" font-family="Arial, sans-serif" font-size="10">7</text>
<line x1="72.00" y1="348.00" x2="452.00" y2="348.00" stroke="#ececec"/>
<text x="65.00" y="352.00" text-anchor="end" font-family="Arial, sans-serif" font-size="10">-97</text>
<line x1="72.00" y1="276.50" x2="452.00" y2="276.50" stroke="#ececec"/>
<text x="65.00" y="280.50" text-anchor="end" font-family="Arial, sans-serif" font-size="10">-32</text>
<line x1="72.00" y1="205.00" x2="452.00" y2="205.00" stroke="#ececec"/>
<text x="65.00" y="209.00" text-anchor="end" font-family="Arial, sans-serif" font-size="10">33</text>
<line x1="72.00" y1="133.50" x2="452.00" y2="133.50" stroke="#ececec"/>
<text x="65.00" y="137.50" text-anchor="end" font-family="Arial, sans-serif" font-size="10">98</text>
<line x1="72.00" y1="62.00" x2="452.00" y2="62.00" stroke="#ececec"/>
<text x="65.00" y="66.00" text-anchor="end" font-family="Arial, sans-serif" font-size="10">1.6e+02</text>
<line x1="203.36" y1="62" x2="203.36" y2="348" stroke="#777" stroke-dasharray="4 4"/>
<line x1="72.0" y1="241.24" x2="452.0" y2="241.24" stroke="#777" stroke-dasharray="4 4"/>
<polyline fill="none" stroke="#1f77b4" stroke-width="1.8" points="86.07,259.02 91.41,259.02 97.09,259.02 102.42,259.02 108.11,259.02 113.44,259.02 119.13,259.02 124.46,259.02 130.14,259.02 135.48,259.02 141.16,259.02 146.49,259.02 152.18,259.02 157.51,259.02 163.20,259.02 168.88,259.02 171.02,259.02 174.21,258.17 179.55,256.37 185.23,253.70 190.56,250.32 196.25,246.30 201.58,242.51 203.36,241.24 207.27,238.47 212.60,234.69 218.29,230.67 223.62,226.91 229.30,222.92 234.63,219.19 240.32,215.23 245.65,211.54 251.34,207.63 256.67,203.98 257.38,203.50 258.45,202.77 259.51,202.05 262.36,200.13 267.69,196.54 273.02,193.00 278.70,189.25 284.04,185.79 289.72,182.14 295.05,178.78 300.74,175.26 306.07,172.03 309.98,169.71 311.76,168.67 317.09,165.60 320.64,163.61 322.77,162.44 328.11,159.59 331.30,157.94 333.79,156.69 339.12,154.12 344.81,151.55 350.14,149.30 355.83,147.13 357.25,146.63 357.96,146.38 358.67,146.14 359.38,145.90 360.09,145.67 361.16,145.33 361.87,145.11 364.71,144.28 366.13,143.89 366.84,143.70 370.04,142.91 370.75,142.74 371.47,142.58 372.18,142.43 374.31,141.98 375.02,141.84 375.73,141.70 377.15,141.44 377.51,141.37 378.22,141.25 378.93,141.13 382.48,140.55 383.19,140.44 383.90,140.34 384.26,140.29 384.62,140.24 385.68,140.09 386.39,139.98 386.75,139.94 387.81,139.80 388.88,139.80 391.37,139.80 394.21,139.80 397.77,139.80 399.90,139.80 405.23,139.80 410.92,139.80 416.25,139.80 421.93,139.80 427.26,139.80 432.95,139.80 437.93,139.80"/>
<polyline fill="none" stroke="#ff7f0e" stroke-width="1.8" stroke-dasharray="5 4" points="86.07,254.38 91.41,254.38 97.09,254.38 102.42,254.38 108.11,254.38 113.44,254.38 119.13,254.38 124.46,254.38 130.14,254.38 135.48,254.38 141.16,254.38 146.49,254.38 152.18,254.38 157.51,254.38 163.20,254.38 168.88,254.38 171.02,254.38 174.21,254.38 179.55,253.07 185.23,251.05 190.56,248.51 196.25,245.32 201.58,242.26 203.36,241.24 207.27,239.01 212.60,235.97 218.29,232.75 223.62,229.75 229.30,226.56 234.63,223.60 240.32,220.47 245.65,217.56 251.34,214.49 256.67,211.65 257.38,211.27 258.45,210.71 259.51,210.14 262.36,208.65 267.69,205.89 273.02,203.17 278.70,200.33 284.04,197.73 289.72,195.03 295.05,192.58 300.74,190.06 306.07,187.81 309.98,186.23 311.76,185.54 317.09,183.56 320.64,182.34 322.77,181.64 328.11,180.04 331.30,179.17 333.79,178.55 339.12,177.37 344.81,176.34 350.14,175.56 355.83,174.88 357.25,174.72 357.96,174.65 358.67,174.58 359.38,174.51 360.09,174.43 361.16,174.33 361.87,174.27 364.71,174.01 366.13,173.89 366.84,173.83 370.04,173.56 370.75,173.51 371.47,173.45 372.18,173.40 374.31,173.23 375.02,173.18 375.73,173.13 377.15,173.02 377.51,173.00 378.22,172.94 378.93,172.94 382.48,172.94 383.19,172.94 383.90,172.94 384.26,172.94 384.62,172.94 385.68,172.94 386.39,172.94 386.75,172.94 387.81,172.94 388.88,172.94 391.37,172.94 394.21,172.94 397.77,172.94 399.90,172.94 405.23,172.94 410.92,172.94 416.25,172.94 421.93,172.94 427.26,172.94 432.95,172.94 437.93,172.94"/>
<polyline fill="none" stroke="#2ca02c" stroke-width="1.8" stroke-dasharray="2 4" points="86.07,263.17 91.41,263.17 97.09,263.17 102.42,263.17 108.11,263.17 113.44,263.17 119.13,263.17 124.46,263.17 130.14,263.17 135.48,263.17 141.16,263.17 146.49,263.17 152.18,263.17 157.51,263.17 163.20,263.17 168.88,263.17 171.02,262.60 174.21,261.62 179.55,259.55 185.23,256.34 190.56,252.17 196.25,247.32 201.58,242.76 203.36,241.24 207.27,237.90 212.60,233.35 218.29,228.49 223.62,223.95 229.30,219.11 234.63,214.58 240.32,209.77 245.65,205.27 251.34,200.50 256.67,196.04 257.38,195.45 258.45,194.56 259.51,193.67 262.36,191.31 267.69,186.91 273.02,182.54 278.70,177.91 284.04,173.61 289.72,169.07 295.05,164.87 300.74,160.44 306.07,156.35 309.98,153.39 311.76,152.06 317.09,148.11 320.64,145.52 322.77,143.98 328.11,140.21 331.30,137.99 333.79,136.30 339.12,132.75 344.81,129.11 350.14,125.84 355.83,122.51 357.25,121.69 357.96,121.29 358.67,120.89 359.38,120.49 360.09,120.10 361.16,119.52 361.87,119.13 364.71,117.62 366.13,116.88 366.84,116.53 370.04,114.95 370.75,114.62 371.47,114.28 372.18,113.95 374.31,112.99 375.02,112.69 375.73,112.38 377.15,111.79 377.51,111.65 378.22,111.36 378.93,111.08 382.48,109.74 383.19,109.50 383.90,109.25 384.26,109.13 384.62,109.01 385.68,108.66 386.39,108.44 386.75,108.32 387.81,108.00 388.88,107.68 391.37,107.00 394.21,106.28 397.77,105.47 399.90,105.47 405.23,105.47 410.92,105.47 416.25,105.47 421.93,105.47 427.26,105.47 432.95,105.47 437.93,105.47"/>
<polyline fill="none" stroke="#1f77b4" stroke-width="1.1" stroke-dasharray="6 4" points="72.00,87.57 76.81,90.54 81.62,93.51 86.43,96.49 91.24,99.46 96.05,102.43 100.86,105.41 105.67,108.38 110.48,111.35 115.29,114.33 120.10,117.30 124.91,120.27 129.72,123.24 134.53,126.22 139.34,129.19 144.15,132.16 148.96,135.14 153.77,138.11 158.58,141.08 163.39,144.05 168.20,147.03 173.01,150.00 177.82,152.97 182.63,155.95 187.44,158.92 192.25,161.89 197.06,164.87 201.87,167.84 206.68,170.81 211.49,173.78 216.30,176.76 221.11,179.73 225.92,182.70 230.73,185.68 235.54,188.65 240.35,191.62 245.16,194.59 249.97,197.57 254.78,200.54 259.59,203.51 264.41,206.49 269.22,209.46 274.03,212.43 278.84,215.41 283.65,218.38 288.46,221.35 293.27,224.32 298.08,227.30 302.89,230.27 307.70,233.24 312.51,236.22 317.32,239.19 322.13,242.16 326.94,245.13 331.75,248.11 336.56,251.08 341.37,254.05 346.18,257.03 350.99,260.00 355.80,262.97 360.61,265.95 365.42,268.92 370.23,271.89 375.04,274.86 379.85,277.84 384.66,280.81 389.47,283.78 394.28,286.76 399.09,289.73 403.90,292.70 408.71,295.67 413.52,298.65 418.33,301.62 423.14,304.59 427.95,307.57 432.76,310.54 437.57,313.51 442.38,316.49 447.19,319.46 452.00,322.43"/>
<circle cx="258.42" cy="202.79" r="4.6" fill="#ffffff" stroke="#1f77b4" stroke-width="2"/>
<text x="264.42" y="196.79" font-family="Arial, sans-serif" font-size="10" fill="#1f77b4">typ 44.3 ohm</text>
<polyline fill="none" stroke="#ff7f0e" stroke-width="1.1" stroke-dasharray="6 4" points="72.00,94.16 76.81,97.13 81.62,100.10 86.43,103.08 91.24,106.05 96.05,109.02 100.86,112.00 105.67,114.97 110.48,117.94 115.29,120.92 120.10,123.89 124.91,126.86 129.72,129.83 134.53,132.81 139.34,135.78 144.15,138.75 148.96,141.73 153.77,144.70 158.58,147.67 163.39,150.64 168.20,153.62 173.01,156.59 177.82,159.56 182.63,162.54 187.44,165.51 192.25,168.48 197.06,171.46 201.87,174.43 206.68,177.40 211.49,180.37 216.30,183.35 221.11,186.32 225.92,189.29 230.73,192.27 235.54,195.24 240.35,198.21 245.16,201.18 249.97,204.16 254.78,207.13 259.59,210.10 264.41,213.08 269.22,216.05 274.03,219.02 278.84,222.00 283.65,224.97 288.46,227.94 293.27,230.91 298.08,233.89 302.89,236.86 307.70,239.83 312.51,242.81 317.32,245.78 322.13,248.75 326.94,251.72 331.75,254.70 336.56,257.67 341.37,260.64 346.18,263.62 350.99,266.59 355.80,269.56 360.61,272.54 365.42,275.51 370.23,278.48 375.04,281.45 379.85,284.43 384.66,287.40 389.47,290.37 394.28,293.35 399.09,296.32 403.90,299.29 408.71,302.26 413.52,305.24 418.33,308.21 423.14,311.18 427.95,314.16 432.76,317.13 437.57,320.10 442.38,323.08 447.19,326.05 452.00,329.02"/>
<circle cx="259.59" cy="210.10" r="4.6" fill="#ffffff" stroke="#ff7f0e" stroke-width="2"/>
<text x="265.59" y="204.10" font-family="Arial, sans-serif" font-size="10" fill="#ff7f0e">min 55.8 ohm</text>
<polyline fill="none" stroke="#2ca02c" stroke-width="1.1" stroke-dasharray="6 4" points="72.00,80.98 76.81,83.95 81.62,86.92 86.43,89.90 91.24,92.87 96.05,95.84 100.86,98.82 105.67,101.79 110.48,104.76 115.29,107.74 120.10,110.71 124.91,113.68 129.72,116.65 134.53,119.63 139.34,122.60 144.15,125.57 148.96,128.55 153.77,131.52 158.58,134.49 163.39,137.46 168.20,140.44 173.01,143.41 177.82,146.38 182.63,149.36 187.44,152.33 192.25,155.30 197.06,158.28 201.87,161.25 206.68,164.22 211.49,167.19 216.30,170.17 221.11,173.14 225.92,176.11 230.73,179.09 235.54,182.06 240.35,185.03 245.16,188.00 249.97,190.98 254.78,193.95 259.59,196.92 264.41,199.90 269.22,202.87 274.03,205.84 278.84,208.82 283.65,211.79 288.46,214.76 293.27,217.73 298.08,220.71 302.89,223.68 307.70,226.65 312.51,229.63 317.32,232.60 322.13,235.57 326.94,238.54 331.75,241.52 336.56,244.49 341.37,247.46 346.18,250.44 350.99,253.41 355.80,256.38 360.61,259.36 365.42,262.33 370.23,265.30 375.04,268.27 379.85,271.25 384.66,274.22 389.47,277.19 394.28,280.17 399.09,283.14 403.90,286.11 408.71,289.08 413.52,292.06 418.33,295.03 423.14,298.00 427.95,300.98 432.76,303.95 437.57,306.92 442.38,309.90 447.19,312.87 452.00,315.84"/>
<circle cx="257.31" cy="195.51" r="4.6" fill="#ffffff" stroke="#2ca02c" stroke-width="2"/>
<text x="263.31" y="189.51" font-family="Arial, sans-serif" font-size="10" fill="#2ca02c">max 36.5 ohm</text>
<line x1="82.00" y1="80.00" x2="104.00" y2="80.00" stroke="#1f77b4" stroke-width="2"/>
<text x="110.00" y="84.00" font-family="Arial, sans-serif" font-size="11">typ</text>
<line x1="82.00" y1="97.00" x2="104.00" y2="97.00" stroke="#ff7f0e" stroke-width="2" stroke-dasharray="5 4"/>
<text x="110.00" y="101.00" font-family="Arial, sans-serif" font-size="11">min</text>
<line x1="82.00" y1="114.00" x2="104.00" y2="114.00" stroke="#2ca02c" stroke-width="2" stroke-dasharray="2 4"/>
<text x="110.00" y="118.00" font-family="Arial, sans-serif" font-size="11">max</text>
<text x="262.00" y="386.00" text-anchor="middle" font-family="Arial, sans-serif" font-size="11">Output voltage (V)</text>
<text transform="translate(22.00 205.00) rotate(-90)" text-anchor="middle" font-family="Arial, sans-serif" font-size="11">Current (mA)</text>
<rect x="492.00" y="62.00" width="380.00" height="286.00" fill="#fbfbfb" stroke="#c8c8c8"/>
<text x="500.00" y="50.00" font-family="Arial, sans-serif" font-size="13" font-weight="700">[Pullup] Rload to GND</text>
<line x1="492.00" y1="62.00" x2="492.00" y2="348.00" stroke="#ececec"/>
<text x="492.00" y="366.00" text-anchor="middle" font-family="Arial, sans-serif" font-size="10">-3.7</text>
<line x1="587.00" y1="62.00" x2="587.00" y2="348.00" stroke="#ececec"/>
<text x="587.00" y="366.00" text-anchor="middle" font-family="Arial, sans-serif" font-size="10">-1</text>
<line x1="682.00" y1="62.00" x2="682.00" y2="348.00" stroke="#ececec"/>
<text x="682.00" y="366.00" text-anchor="middle" font-family="Arial, sans-serif" font-size="10">1.7</text>
<line x1="777.00" y1="62.00" x2="777.00" y2="348.00" stroke="#ececec"/>
<text x="777.00" y="366.00" text-anchor="middle" font-family="Arial, sans-serif" font-size="10">4.3</text>
<line x1="872.00" y1="62.00" x2="872.00" y2="348.00" stroke="#ececec"/>
<text x="872.00" y="366.00" text-anchor="middle" font-family="Arial, sans-serif" font-size="10">7</text>
<line x1="492.00" y1="348.00" x2="872.00" y2="348.00" stroke="#ececec"/>
<text x="485.00" y="352.00" text-anchor="end" font-family="Arial, sans-serif" font-size="10">-1.6e+02</text>
<line x1="492.00" y1="276.50" x2="872.00" y2="276.50" stroke="#ececec"/>
<text x="485.00" y="280.50" text-anchor="end" font-family="Arial, sans-serif" font-size="10">-98</text>
<line x1="492.00" y1="205.00" x2="872.00" y2="205.00" stroke="#ececec"/>
<text x="485.00" y="209.00" text-anchor="end" font-family="Arial, sans-serif" font-size="10">-33</text>
<line x1="492.00" y1="133.50" x2="872.00" y2="133.50" stroke="#ececec"/>
<text x="485.00" y="137.50" text-anchor="end" font-family="Arial, sans-serif" font-size="10">32</text>
<line x1="492.00" y1="62.00" x2="872.00" y2="62.00" stroke="#ececec"/>
<text x="485.00" y="66.00" text-anchor="end" font-family="Arial, sans-serif" font-size="10">97</text>
<line x1="623.36" y1="62" x2="623.36" y2="348" stroke="#777" stroke-dasharray="4 4"/>
<line x1="492.0" y1="168.76" x2="872.0" y2="168.76" stroke="#777" stroke-dasharray="4 4"/>
<polyline fill="none" stroke="#1f77b4" stroke-width="1.8" points="506.07,119.07 511.41,119.07 517.09,119.07 522.42,119.07 528.11,119.07 533.44,119.07 539.13,119.07 544.46,119.07 550.14,119.07 555.12,119.07 556.19,119.07 556.54,119.33 556.90,119.60 561.16,122.81 566.49,126.83 572.18,131.11 577.51,135.12 583.20,139.37 588.53,143.34 594.21,147.55 599.55,151.45 605.23,155.58 610.56,159.43 616.25,163.56 621.58,167.45 623.36,168.76 627.27,171.63 632.60,175.52 638.29,179.66 643.62,183.53 649.30,187.65 654.63,191.49 660.32,195.56 665.65,199.37 671.34,203.41 675.96,206.67 676.67,207.17 677.38,207.67 678.45,208.42 682.36,211.16 687.69,214.88 693.02,218.57 698.70,222.48 704.04,226.12 709.72,229.97 715.05,233.55 720.74,237.33 726.07,240.84 729.98,243.39 731.76,244.54 737.09,247.97 740.64,250.24 742.77,251.59 748.11,254.93 751.30,256.91 753.79,258.42 756.64,260.00 756.99,260.19 757.35,260.36 758.41,260.87 758.77,261.03 759.48,261.34 759.83,261.49 760.54,261.77 760.90,261.91 761.26,262.04 761.61,262.16 761.97,262.29 763.03,262.63 764.10,262.95 764.81,263.14 765.88,263.41 766.94,263.65 768.36,263.94 770.14,264.24 771.92,264.49 772.63,264.57 772.98,264.61 773.34,264.61 776.18,264.61 777.25,264.61 777.96,264.61 780.09,264.61 781.51,264.61 782.22,264.61 785.78,264.61 786.84,264.61 792.18,264.61 797.86,264.61 803.19,264.61 808.88,264.61 814.21,264.61 819.90,264.61 825.23,264.61 830.92,264.61 836.25,264.61 841.93,264.61 847.26,264.61 852.95,264.61 857.93,264.61"/>
<polyline fill="none" stroke="#ff7f0e" stroke-width="1.8" stroke-dasharray="5 4" points="506.07,127.79 511.41,127.79 517.09,127.79 522.42,127.79 528.11,127.79 533.44,127.79 539.13,127.79 544.46,127.79 550.14,127.79 555.12,127.79 556.19,128.45 556.54,128.66 556.90,128.88 561.16,131.48 566.49,134.74 572.18,138.21 577.51,141.45 583.20,144.90 588.53,148.12 594.21,151.53 599.55,154.71 605.23,158.06 610.56,161.19 616.25,164.54 621.58,167.70 623.36,168.76 627.27,171.08 632.60,174.23 638.29,177.57 643.62,180.69 649.30,184.00 654.63,187.08 660.32,190.35 665.65,193.38 671.34,196.60 675.96,199.19 676.67,199.59 677.38,199.99 678.45,200.58 682.36,202.75 687.69,205.68 693.02,208.59 698.70,211.65 704.04,214.49 709.72,217.47 715.05,220.23 720.74,223.13 726.07,225.80 729.98,227.72 731.76,228.58 737.09,231.14 740.64,232.78 742.77,233.71 748.11,235.58 751.30,236.36 753.79,236.81 756.64,237.15 756.99,237.17 757.35,237.20 758.41,237.26 758.77,237.27 759.48,237.27 759.83,237.27 760.54,237.27 760.90,237.27 761.26,237.27 761.61,237.27 761.97,237.27 763.03,237.27 764.10,237.27 764.81,237.27 765.88,237.27 766.94,237.27 768.36,237.27 770.14,237.27 771.92,237.27 772.63,237.27 772.98,237.27 773.34,237.27 776.18,237.27 777.25,237.27 777.96,237.27 780.09,237.27 781.51,237.27 782.22,237.27 785.78,237.27 786.84,237.27 792.18,237.27 797.86,237.27 803.19,237.27 808.88,237.27 814.21,237.27 819.90,237.27 825.23,237.27 830.92,237.27 836.25,237.27 841.93,237.27 847.26,237.27 852.95,237.27 857.93,237.27"/>
<polyline fill="none" stroke="#2ca02c" stroke-width="1.8" stroke-dasharray="2 4" points="506.07,108.57 511.41,108.57 517.09,108.57 522.42,108.57 528.11,108.57 533.44,108.57 539.13,108.57 544.46,108.57 550.14,108.57 555.12,108.57 556.19,108.57 556.54,108.57 556.90,108.57 561.16,112.50 566.49,117.41 572.18,122.65 577.51,127.55 583.20,132.76 588.53,137.63 594.21,142.78 599.55,147.57 605.23,152.61 610.56,157.33 616.25,162.35 621.58,167.15 623.36,168.76 627.27,172.29 632.60,177.06 638.29,182.14 643.62,186.90 649.30,191.96 654.63,196.68 660.32,201.70 665.65,206.39 671.34,211.37 675.96,215.40 676.67,216.01 677.38,216.63 678.45,217.56 682.36,220.94 687.69,225.53 693.02,230.10 698.70,234.94 704.04,239.44 709.72,244.21 715.05,248.65 720.74,253.35 726.07,257.71 729.98,260.89 731.76,262.32 737.09,266.60 740.64,269.44 742.77,271.13 748.11,275.32 751.30,277.81 753.79,279.74 756.64,281.94 756.99,282.20 757.35,282.47 758.41,283.30 758.77,283.56 759.48,284.11 759.83,284.37 760.54,284.92 760.90,285.19 761.26,285.46 761.61,285.73 761.97,286.00 763.03,286.81 764.10,287.61 764.81,288.14 765.88,288.91 766.94,289.66 768.36,290.59 770.14,291.63 771.92,292.51 772.63,292.83 772.98,292.98 773.34,293.13 776.18,294.13 777.25,294.44 777.96,294.63 780.09,295.13 781.51,295.41 782.22,295.53 785.78,296.04 786.84,296.04 792.18,296.04 797.86,296.04 803.19,296.04 808.88,296.04 814.21,296.04 819.90,296.04 825.23,296.04 830.92,296.04 836.25,296.04 841.93,296.04 847.26,296.04 852.95,296.04 857.93,296.04"/>
<polyline fill="none" stroke="#1f77b4" stroke-width="1.1" stroke-dasharray="6 4" points="492.00,322.43 496.81,319.46 501.62,316.49 506.43,313.51 511.24,310.54 516.05,307.57 520.86,304.59 525.67,301.62 530.48,298.65 535.29,295.67 540.10,292.70 544.91,289.73 549.72,286.76 554.53,283.78 559.34,280.81 564.15,277.84 568.96,274.86 573.77,271.89 578.58,268.92 583.39,265.95 588.20,262.97 593.01,260.00 597.82,257.03 602.63,254.05 607.44,251.08 612.25,248.11 617.06,245.13 621.87,242.16 626.68,239.19 631.49,236.22 636.30,233.24 641.11,230.27 645.92,227.30 650.73,224.32 655.54,221.35 660.35,218.38 665.16,215.41 669.97,212.43 674.78,209.46 679.59,206.49 684.41,203.51 689.22,200.54 694.03,197.57 698.84,194.59 703.65,191.62 708.46,188.65 713.27,185.68 718.08,182.70 722.89,179.73 727.70,176.76 732.51,173.78 737.32,170.81 742.13,167.84 746.94,164.87 751.75,161.89 756.56,158.92 761.37,155.95 766.18,152.97 770.99,150.00 775.80,147.03 780.61,144.05 785.42,141.08 790.23,138.11 795.04,135.14 799.85,132.16 804.66,129.19 809.47,126.22 814.28,123.24 819.09,120.27 823.90,117.30 828.71,114.33 833.52,111.35 838.33,108.38 843.14,105.41 847.95,102.43 852.76,99.46 857.57,96.49 862.38,93.51 867.19,90.54 872.00,87.57"/>
<circle cx="677.52" cy="207.77" r="4.6" fill="#ffffff" stroke="#1f77b4" stroke-width="2"/>
<text x="683.52" y="201.77" font-family="Arial, sans-serif" font-size="10" fill="#1f77b4">typ 42.9 ohm</text>
<polyline fill="none" stroke="#ff7f0e" stroke-width="1.1" stroke-dasharray="6 4" points="492.00,315.84 496.81,312.87 501.62,309.90 506.43,306.92 511.24,303.95 516.05,300.98 520.86,298.00 525.67,295.03 530.48,292.06 535.29,289.08 540.10,286.11 544.91,283.14 549.72,280.17 554.53,277.19 559.34,274.22 564.15,271.25 568.96,268.27 573.77,265.30 578.58,262.33 583.39,259.36 588.20,256.38 593.01,253.41 597.82,250.44 602.63,247.46 607.44,244.49 612.25,241.52 617.06,238.54 621.87,235.57 626.68,232.60 631.49,229.63 636.30,226.65 641.11,223.68 645.92,220.71 650.73,217.73 655.54,214.76 660.35,211.79 665.16,208.82 669.97,205.84 674.78,202.87 679.59,199.90 684.41,196.92 689.22,193.95 694.03,190.98 698.84,188.00 703.65,185.03 708.46,182.06 713.27,179.09 718.08,176.11 722.89,173.14 727.70,170.17 732.51,167.19 737.32,164.22 742.13,161.25 746.94,158.28 751.75,155.30 756.56,152.33 761.37,149.36 766.18,146.38 770.99,143.41 775.80,140.44 780.61,137.46 785.42,134.49 790.23,131.52 795.04,128.55 799.85,125.57 804.66,122.60 809.47,119.63 814.28,116.65 819.09,113.68 823.90,110.71 828.71,107.74 833.52,104.76 838.33,101.79 843.14,98.82 847.95,95.84 852.76,92.87 857.57,89.90 862.38,86.92 867.19,83.95 872.00,80.98"/>
<circle cx="678.47" cy="200.59" r="4.6" fill="#ffffff" stroke="#ff7f0e" stroke-width="2"/>
<text x="684.47" y="194.59" font-family="Arial, sans-serif" font-size="10" fill="#ff7f0e">min 53.5 ohm</text>
<polyline fill="none" stroke="#2ca02c" stroke-width="1.1" stroke-dasharray="6 4" points="492.00,329.02 496.81,326.05 501.62,323.08 506.43,320.10 511.24,317.13 516.05,314.16 520.86,311.18 525.67,308.21 530.48,305.24 535.29,302.26 540.10,299.29 544.91,296.32 549.72,293.35 554.53,290.37 559.34,287.40 564.15,284.43 568.96,281.45 573.77,278.48 578.58,275.51 583.39,272.54 588.20,269.56 593.01,266.59 597.82,263.62 602.63,260.64 607.44,257.67 612.25,254.70 617.06,251.72 621.87,248.75 626.68,245.78 631.49,242.81 636.30,239.83 641.11,236.86 645.92,233.89 650.73,230.91 655.54,227.94 660.35,224.97 665.16,222.00 669.97,219.02 674.78,216.05 679.59,213.08 684.41,210.10 689.22,207.13 694.03,204.16 698.84,201.18 703.65,198.21 708.46,195.24 713.27,192.27 718.08,189.29 722.89,186.32 727.70,183.35 732.51,180.37 737.32,177.40 742.13,174.43 746.94,171.46 751.75,168.48 756.56,165.51 761.37,162.54 766.18,159.56 770.99,156.59 775.80,153.62 780.61,150.64 785.42,147.67 790.23,144.70 795.04,141.73 799.85,138.75 804.66,135.78 809.47,132.81 814.28,129.83 819.09,126.86 823.90,123.89 828.71,120.92 833.52,117.94 838.33,114.97 843.14,112.00 847.95,109.02 852.76,106.05 857.57,103.08 862.38,100.10 867.19,97.13 872.00,94.16"/>
<circle cx="675.91" cy="215.35" r="4.6" fill="#ffffff" stroke="#2ca02c" stroke-width="2"/>
<text x="681.91" y="209.35" font-family="Arial, sans-serif" font-size="10" fill="#2ca02c">max 34.9 ohm</text>
<line x1="502.00" y1="80.00" x2="524.00" y2="80.00" stroke="#1f77b4" stroke-width="2"/>
<text x="530.00" y="84.00" font-family="Arial, sans-serif" font-size="11">typ</text>
<line x1="502.00" y1="97.00" x2="524.00" y2="97.00" stroke="#ff7f0e" stroke-width="2" stroke-dasharray="5 4"/>
<text x="530.00" y="101.00" font-family="Arial, sans-serif" font-size="11">min</text>
<line x1="502.00" y1="114.00" x2="524.00" y2="114.00" stroke="#2ca02c" stroke-width="2" stroke-dasharray="2 4"/>
<text x="530.00" y="118.00" font-family="Arial, sans-serif" font-size="11">max</text>
<text x="682.00" y="386.00" text-anchor="middle" font-family="Arial, sans-serif" font-size="11">Vcc-relative table voltage (V)</text>
<text transform="translate(442.00 205.00) rotate(-90)" text-anchor="middle" font-family="Arial, sans-serif" font-size="11">Current (mA)</text>
<rect x="72.00" y="418.00" width="800.00" height="144.00" fill="#ffffff" stroke="#c8c8c8"/>
<text x="82.00" y="436.00" font-family="Arial, sans-serif" font-size="12" font-weight="700">Operating-point summary</text>
<text x="82.00" y="454.00" font-family="Arial, sans-serif" font-size="10" font-weight="700" fill="#333">Table</text>
<text x="174.00" y="454.00" font-family="Arial, sans-serif" font-size="10" font-weight="700" fill="#333">Corner</text>
<text x="242.00" y="454.00" font-family="Arial, sans-serif" font-size="10" font-weight="700" fill="#333">Vout</text>
<text x="332.00" y="454.00" font-family="Arial, sans-serif" font-size="10" font-weight="700" fill="#333">Iop</text>
<text x="422.00" y="454.00" font-family="Arial, sans-serif" font-size="10" font-weight="700" fill="#333">Zout</text>
<text x="512.00" y="454.00" font-family="Arial, sans-serif" font-size="10" font-weight="700" fill="#333">Rseries</text>
<text x="82.00" y="473.00" font-family="Arial, sans-serif" font-size="10" fill="#1f77b4">pulldown</text>
<text x="174.00" y="473.00" font-family="Arial, sans-serif" font-size="10" fill="#1f77b4">typ</text>
<text x="242.00" y="473.00" font-family="Arial, sans-serif" font-size="10" fill="#1f77b4">1.549 V</text>
<text x="332.00" y="473.00" font-family="Arial, sans-serif" font-size="10" fill="#1f77b4">35 mA</text>
<text x="422.00" y="473.00" font-family="Arial, sans-serif" font-size="10" fill="#1f77b4">44.3 ohm</text>
<text x="512.00" y="473.00" font-family="Arial, sans-serif" font-size="10" fill="#1f77b4">5.748 ohm</text>
<text x="82.00" y="492.00" font-family="Arial, sans-serif" font-size="10" fill="#ff7f0e">pulldown</text>
<text x="174.00" y="492.00" font-family="Arial, sans-serif" font-size="10" fill="#ff7f0e">min</text>
<text x="242.00" y="492.00" font-family="Arial, sans-serif" font-size="10" fill="#ff7f0e">1.582 V</text>
<text x="332.00" y="492.00" font-family="Arial, sans-serif" font-size="10" fill="#ff7f0e">28 mA</text>
<text x="422.00" y="492.00" font-family="Arial, sans-serif" font-size="10" fill="#ff7f0e">55.8 ohm</text>
<text x="512.00" y="492.00" font-family="Arial, sans-serif" font-size="10" fill="#ff7f0e">-5.801 ohm</text>
<text x="82.00" y="511.00" font-family="Arial, sans-serif" font-size="10" fill="#2ca02c">pulldown</text>
<text x="174.00" y="511.00" font-family="Arial, sans-serif" font-size="10" fill="#2ca02c">max</text>
<text x="242.00" y="511.00" font-family="Arial, sans-serif" font-size="10" fill="#2ca02c">1.518 V</text>
<text x="332.00" y="511.00" font-family="Arial, sans-serif" font-size="10" fill="#2ca02c">42 mA</text>
<text x="422.00" y="511.00" font-family="Arial, sans-serif" font-size="10" fill="#2ca02c">36.5 ohm</text>
<text x="512.00" y="511.00" font-family="Arial, sans-serif" font-size="10" fill="#2ca02c">13.5 ohm</text>
<text x="82.00" y="530.00" font-family="Arial, sans-serif" font-size="10" fill="#1f77b4">pullup</text>
<text x="174.00" y="530.00" font-family="Arial, sans-serif" font-size="10" fill="#1f77b4">typ</text>
<text x="242.00" y="530.00" font-family="Arial, sans-serif" font-size="10" fill="#1f77b4">1.776 V</text>
<text x="332.00" y="530.00" font-family="Arial, sans-serif" font-size="10" fill="#1f77b4">-36 mA</text>
<text x="422.00" y="530.00" font-family="Arial, sans-serif" font-size="10" fill="#1f77b4">42.9 ohm</text>
<text x="512.00" y="530.00" font-family="Arial, sans-serif" font-size="10" fill="#1f77b4">7.096 ohm</text>
<text x="82.00" y="549.00" font-family="Arial, sans-serif" font-size="10" fill="#ff7f0e">pullup</text>
<text x="174.00" y="549.00" font-family="Arial, sans-serif" font-size="10" fill="#ff7f0e">min</text>
<text x="242.00" y="549.00" font-family="Arial, sans-serif" font-size="10" fill="#ff7f0e">1.449 V</text>
<text x="332.00" y="549.00" font-family="Arial, sans-serif" font-size="10" fill="#ff7f0e">-29 mA</text>
<text x="422.00" y="549.00" font-family="Arial, sans-serif" font-size="10" fill="#ff7f0e">53.5 ohm</text>
<text x="512.00" y="549.00" font-family="Arial, sans-serif" font-size="10" fill="#ff7f0e">-3.493 ohm</text>
<text x="82.00" y="568.00" font-family="Arial, sans-serif" font-size="10" fill="#2ca02c">pullup</text>
<text x="174.00" y="568.00" font-family="Arial, sans-serif" font-size="10" fill="#2ca02c">max</text>
<text x="242.00" y="568.00" font-family="Arial, sans-serif" font-size="10" fill="#2ca02c">2.121 V</text>
<text x="332.00" y="568.00" font-family="Arial, sans-serif" font-size="10" fill="#2ca02c">-42 mA</text>
<text x="422.00" y="568.00" font-family="Arial, sans-serif" font-size="10" fill="#2ca02c">34.9 ohm</text>
<text x="512.00" y="568.00" font-family="Arial, sans-serif" font-size="10" fill="#2ca02c">15.1 ohm</text>
</svg>