<svg xmlns="http://www.w3.org/2000/svg" width="900" height="620" viewBox="0 0 900 620">
<rect width="100%" height="100%" fill="#ffffff"/>
<text x="72" y="26" font-family="Arial, sans-serif" font-size="16" font-weight="700">E34_GPIO_I3C_I2C_SLV_1V2_11 Zout Load-Line Curves</text>
<text x="72" y="45" font-family="Arial, sans-serif" font-size="11" fill="#555">Rload=50 ohm; solid=device I-V, dashed=load line, circles=operating points</text>
<rect x="72.00" y="62.00" width="380.00" height="286.00" fill="#fbfbfb" stroke="#c8c8c8"/>
<text x="80.00" y="50.00" font-family="Arial, sans-serif" font-size="13" font-weight="700">[Pulldown] Rload to Vdd</text>
<line x1="72.00" y1="62.00" x2="72.00" y2="348.00" stroke="#ececec"/>
<text x="72.00" y="366.00" text-anchor="middle" font-family="Arial, sans-serif" font-size="10">-1.3</text>
<line x1="167.00" y1="62.00" x2="167.00" y2="348.00" stroke="#ececec"/>
<text x="167.00" y="366.00" text-anchor="middle" font-family="Arial, sans-serif" font-size="10">-0.372</text>
<line x1="262.00" y1="62.00" x2="262.00" y2="348.00" stroke="#ececec"/>
<text x="262.00" y="366.00" text-anchor="middle" font-family="Arial, sans-serif" font-size="10">0.6</text>
<line x1="357.00" y1="62.00" x2="357.00" y2="348.00" stroke="#ececec"/>
<text x="357.00" y="366.00" text-anchor="middle" font-family="Arial, sans-serif" font-size="10">1.6</text>
<line x1="452.00" y1="62.00" x2="452.00" y2="348.00" stroke="#ececec"/>
<text x="452.00" y="366.00" text-anchor="middle" font-family="Arial, sans-serif" font-size="10">2.5</text>
<line x1="72.00" y1="348.00" x2="452.00" y2="348.00" stroke="#ececec"/>
<text x="65.00" y="352.00" text-anchor="end" font-family="Arial, sans-serif" font-size="10">-1.2e+02</text>
<line x1="72.00" y1="276.50" x2="452.00" y2="276.50" stroke="#ececec"/>
<text x="65.00" y="280.50" text-anchor="end" font-family="Arial, sans-serif" font-size="10">-63</text>
<line x1="72.00" y1="205.00" x2="452.00" y2="205.00" stroke="#ececec"/>
<text x="65.00" y="209.00" text-anchor="end" font-family="Arial, sans-serif" font-size="10">-8.6</text>
<line x1="72.00" y1="133.50" x2="452.00" y2="133.50" stroke="#ececec"/>
<text x="65.00" y="137.50" text-anchor="end" font-family="Arial, sans-serif" font-size="10">45</text>
<line x1="72.00" y1="62.00" x2="452.00" y2="62.00" stroke="#ececec"/>
<text x="65.00" y="66.00" text-anchor="end" font-family="Arial, sans-serif" font-size="10">99</text>
<line x1="203.36" y1="62" x2="203.36" y2="348" stroke="#777" stroke-dasharray="4 4"/>
<line x1="72.0" y1="193.53" x2="452.0" y2="193.53" stroke="#777" stroke-dasharray="4 4"/>
<polyline fill="none" stroke="#1f77b4" stroke-width="1.8" points="86.07,286.22 91.94,286.22 96.83,286.22 102.69,286.22 108.55,286.22 113.44,286.22 118.33,286.22 119.30,286.22 120.28,286.22 121.26,286.22 122.24,286.22 123.21,286.09 124.19,285.85 125.17,285.53 126.15,285.15 127.12,284.72 128.10,284.25 129.08,283.75 130.06,283.22 131.03,282.67 132.01,282.09 132.99,281.49 135.92,279.53 140.81,275.78 141.78,274.95 142.76,274.10 143.74,273.21 144.72,272.30 145.69,271.37 146.67,270.40 147.65,269.41 148.63,268.39 149.60,267.34 150.58,266.26 151.56,265.16 152.53,264.03 153.51,262.88 154.49,261.70 155.47,260.50 157.42,258.02 163.29,250.13 169.15,241.74 174.04,234.56 179.90,225.92 185.77,217.37 190.65,210.40 196.52,202.34 201.40,195.97 203.36,193.53 207.27,188.85 213.13,182.41 218.02,177.62 220.95,175.02 222.91,173.40 223.88,172.63 224.86,171.88 227.79,169.78 229.75,168.50 232.68,166.77 234.63,165.73 240.50,163.18 246.36,161.40 251.25,160.40 257.11,159.60 262.98,159.03 267.86,158.66 273.73,158.27 278.62,157.99 284.48,157.67 290.34,157.38 295.23,157.16 301.09,156.90 306.96,156.66 308.91,156.58 311.85,156.47 317.71,156.25 320.64,156.14 323.57,156.03 328.46,155.86 332.37,155.72 334.33,155.66 339.21,155.49 345.08,155.30 350.94,155.10 355.83,154.93 361.69,154.69 367.56,154.33 372.44,153.87 378.31,153.04 384.17,151.81 389.06,150.44 394.92,148.34 400.79,145.76 405.67,143.24 411.54,139.80 416.42,136.62 422.29,132.46 428.15,127.94 433.04,123.92 437.93,119.70"/>
<polyline fill="none" stroke="#ff7f0e" stroke-width="1.8" stroke-dasharray="5 4" points="86.07,252.65 91.94,252.65 96.83,252.65 102.69,252.65 108.55,252.65 113.44,252.65 118.33,252.65 119.30,252.65 120.28,252.65 121.26,252.65 122.24,252.65 123.21,252.65 124.19,252.65 125.17,252.65 126.15,252.65 127.12,252.65 128.10,252.62 129.08,252.49 130.06,252.28 131.03,251.99 132.01,251.65 132.99,251.26 135.92,249.88 140.81,247.10 141.78,246.49 142.76,245.86 143.74,245.21 144.72,244.55 145.69,243.87 146.67,243.17 147.65,242.46 148.63,241.73 149.60,240.98 150.58,240.23 151.56,239.45 152.53,238.66 153.51,237.86 154.49,237.04 155.47,236.21 157.42,234.51 163.29,229.16 169.15,223.55 174.04,218.80 179.90,213.18 185.77,207.75 190.65,203.46 196.52,198.64 201.40,194.93 203.36,193.53 207.27,190.89 213.13,187.33 218.02,184.74 220.95,183.36 222.91,182.51 223.88,182.11 224.86,181.72 227.79,180.63 229.75,179.99 232.68,179.12 234.63,178.61 240.50,177.40 246.36,176.62 251.25,176.21 257.11,175.88 262.98,175.63 267.86,175.45 273.73,175.26 278.62,175.12 284.48,174.96 290.34,174.81 295.23,174.70 301.09,174.56 306.96,174.44 308.91,174.40 311.85,174.34 317.71,174.22 320.64,174.16 323.57,174.11 328.46,174.01 332.37,173.93 334.33,173.90 339.21,173.79 345.08,173.62 350.94,173.38 355.83,173.07 361.69,172.53 367.56,171.76 372.44,170.91 378.31,169.63 384.17,168.04 389.06,166.48 394.92,164.33 400.79,161.88 405.67,159.62 411.54,156.64 416.42,153.98 422.29,150.77 428.15,147.56 433.04,144.88 437.93,142.20"/>
<polyline fill="none" stroke="#2ca02c" stroke-width="1.8" stroke-dasharray="2 4" points="86.07,320.32 91.94,320.32 96.83,320.32 102.69,320.32 108.55,320.32 113.44,320.32 118.33,320.31 119.30,320.15 120.28,319.90 121.26,319.59 122.24,319.22 123.21,318.81 124.19,318.38 125.17,317.92 126.15,317.43 127.12,316.94 128.10,316.41 129.08,315.87 130.06,315.30 131.03,314.71 132.01,314.09 132.99,313.45 135.92,311.36 140.81,307.27 141.78,306.34 142.76,305.38 143.74,304.38 144.72,303.34 145.69,302.25 146.67,301.13 147.65,299.96 148.63,298.75 149.60,297.50 150.58,296.20 151.56,294.86 152.53,293.48 153.51,292.05 154.49,290.58 155.47,289.08 157.42,285.94 163.29,275.71 169.15,264.52 174.04,254.74 179.90,242.65 185.77,230.30 190.65,219.91 196.52,207.53 201.40,197.46 203.36,193.53 207.27,185.91 213.13,175.21 218.02,167.11 220.95,162.66 222.91,159.87 223.88,158.54 224.86,157.24 227.79,153.56 229.75,151.30 232.68,148.19 234.63,146.31 240.50,141.53 246.36,137.98 251.25,135.84 257.11,134.03 262.98,132.79 267.86,132.02 273.73,131.28 278.62,130.76 284.48,130.21 290.34,129.71 295.23,129.33 301.09,128.91 306.96,128.50 308.91,128.37 311.85,128.18 317.71,127.82 320.64,127.64 323.57,127.46 328.46,127.18 332.37,126.95 334.33,126.84 339.21,126.57 345.08,126.25 350.94,125.94 355.83,125.69 361.69,125.39 367.56,125.09 372.44,124.82 378.31,124.39 384.17,123.70 389.06,122.80 394.92,121.19 400.79,118.88 405.67,116.39 411.54,112.74 416.42,109.21 422.29,104.46 428.15,99.24 433.04,94.58 437.93,89.68"/>
<polyline fill="none" stroke="#1f77b4" stroke-width="1.1" stroke-dasharray="6 4" points="72.00,126.05 76.81,127.36 81.62,128.66 86.43,129.97 91.24,131.28 96.05,132.58 100.86,133.89 105.67,135.19 110.48,136.50 115.29,137.80 120.10,139.11 124.91,140.41 129.72,141.72 134.53,143.02 139.34,144.33 144.15,145.63 148.96,146.94 153.77,148.25 158.58,149.55 163.39,150.86 168.20,152.16 173.01,153.47 177.82,154.77 182.63,156.08 187.44,157.38 192.25,158.69 197.06,159.99 201.87,161.30 206.68,162.61 211.49,163.91 216.30,165.22 221.11,166.52 225.92,167.83 230.73,169.13 235.54,170.44 240.35,171.74 245.16,173.05 249.97,174.35 254.78,175.66 259.59,176.96 264.41,178.27 269.22,179.58 274.03,180.88 278.84,182.19 283.65,183.49 288.46,184.80 293.27,186.10 298.08,187.41 302.89,188.71 307.70,190.02 312.51,191.32 317.32,192.63 322.13,193.93 326.94,195.24 331.75,196.55 336.56,197.85 341.37,199.16 346.18,200.46 350.99,201.77 355.80,203.07 360.61,204.38 365.42,205.68 370.23,206.99 375.04,208.29 379.85,209.60 384.66,210.90 389.47,212.21 394.28,213.52 399.09,214.82 403.90,216.13 408.71,217.43 413.52,218.74 418.33,220.04 423.14,221.35 427.95,222.65 432.76,223.96 437.57,225.26 442.38,226.57 447.19,227.87 452.00,229.18"/>
<circle cx="229.36" cy="168.76" r="4.6" fill="#ffffff" stroke="#1f77b4" stroke-width="2"/>
<text x="235.36" y="162.76" font-family="Arial, sans-serif" font-size="10" fill="#1f77b4">typ 14.2 ohm</text>
<polyline fill="none" stroke="#ff7f0e" stroke-width="1.1" stroke-dasharray="6 4" points="72.00,129.24 76.81,130.54 81.62,131.85 86.43,133.15 91.24,134.46 96.05,135.76 100.86,137.07 105.67,138.37 110.48,139.68 115.29,140.99 120.10,142.29 124.91,143.60 129.72,144.90 134.53,146.21 139.34,147.51 144.15,148.82 148.96,150.12 153.77,151.43 158.58,152.73 163.39,154.04 168.20,155.34 173.01,156.65 177.82,157.96 182.63,159.26 187.44,160.57 192.25,161.87 197.06,163.18 201.87,164.48 206.68,165.79 211.49,167.09 216.30,168.40 221.11,169.70 225.92,171.01 230.73,172.31 235.54,173.62 240.35,174.93 245.16,176.23 249.97,177.54 254.78,178.84 259.59,180.15 264.41,181.45 269.22,182.76 274.03,184.06 278.84,185.37 283.65,186.67 288.46,187.98 293.27,189.29 298.08,190.59 302.89,191.90 307.70,193.20 312.51,194.51 317.32,195.81 322.13,197.12 326.94,198.42 331.75,199.73 336.56,201.03 341.37,202.34 346.18,203.64 350.99,204.95 355.80,206.26 360.61,207.56 365.42,208.87 370.23,210.17 375.04,211.48 379.85,212.78 384.66,214.09 389.47,215.39 394.28,216.70 399.09,218.00 403.90,219.31 408.71,220.61 413.52,221.92 418.33,223.23 423.14,224.53 427.95,225.84 432.76,227.14 437.57,228.45 442.38,229.75 447.19,231.06 452.00,232.36"/>
<circle cx="246.55" cy="176.61" r="4.6" fill="#ffffff" stroke="#ff7f0e" stroke-width="2"/>
<text x="252.55" y="170.61" font-family="Arial, sans-serif" font-size="10" fill="#ff7f0e">min 34.6 ohm</text>
<polyline fill="none" stroke="#2ca02c" stroke-width="1.1" stroke-dasharray="6 4" points="72.00,122.87 76.81,124.18 81.62,125.48 86.43,126.79 91.24,128.09 96.05,129.40 100.86,130.70 105.67,132.01 110.48,133.31 115.29,134.62 120.10,135.93 124.91,137.23 129.72,138.54 134.53,139.84 139.34,141.15 144.15,142.45 148.96,143.76 153.77,145.06 158.58,146.37 163.39,147.67 168.20,148.98 173.01,150.28 177.82,151.59 182.63,152.90 187.44,154.20 192.25,155.51 197.06,156.81 201.87,158.12 206.68,159.42 211.49,160.73 216.30,162.03 221.11,163.34 225.92,164.64 230.73,165.95 235.54,167.25 240.35,168.56 245.16,169.87 249.97,171.17 254.78,172.48 259.59,173.78 264.41,175.09 269.22,176.39 274.03,177.70 278.84,179.00 283.65,180.31 288.46,181.61 293.27,182.92 298.08,184.22 302.89,185.53 307.70,186.84 312.51,188.14 317.32,189.45 322.13,190.75 326.94,192.06 331.75,193.36 336.56,194.67 341.37,195.97 346.18,197.28 350.99,198.58 355.80,199.89 360.61,201.19 365.42,202.50 370.23,203.81 375.04,205.11 379.85,206.42 384.66,207.72 389.47,209.03 394.28,210.33 399.09,211.64 403.90,212.94 408.71,214.25 413.52,215.55 418.33,216.86 423.14,218.16 427.95,219.47 432.76,220.78 437.57,222.08 442.38,223.39 447.19,224.69 452.00,226.00"/>
<circle cx="220.60" cy="163.20" r="4.6" fill="#ffffff" stroke="#2ca02c" stroke-width="2"/>
<text x="226.60" y="157.20" font-family="Arial, sans-serif" font-size="10" fill="#2ca02c">max 7.711 ohm</text>
<line x1="82.00" y1="80.00" x2="104.00" y2="80.00" stroke="#1f77b4" stroke-width="2"/>
<text x="110.00" y="84.00" font-family="Arial, sans-serif" font-size="11">typ</text>
<line x1="82.00" y1="97.00" x2="104.00" y2="97.00" stroke="#ff7f0e" stroke-width="2" stroke-dasharray="5 4"/>
<text x="110.00" y="101.00" font-family="Arial, sans-serif" font-size="11">min</text>
<line x1="82.00" y1="114.00" x2="104.00" y2="114.00" stroke="#2ca02c" stroke-width="2" stroke-dasharray="2 4"/>
<text x="110.00" y="118.00" font-family="Arial, sans-serif" font-size="11">max</text>
<text x="262.00" y="386.00" text-anchor="middle" font-family="Arial, sans-serif" font-size="11">Output voltage (V)</text>
<text transform="translate(22.00 205.00) rotate(-90)" text-anchor="middle" font-family="Arial, sans-serif" font-size="11">Current (mA)</text>
<rect x="492.00" y="62.00" width="380.00" height="286.00" fill="#fbfbfb" stroke="#c8c8c8"/>
<text x="500.00" y="50.00" font-family="Arial, sans-serif" font-size="13" font-weight="700">[Pullup] Rload to GND</text>
<line x1="492.00" y1="62.00" x2="492.00" y2="348.00" stroke="#ececec"/>
<text x="492.00" y="366.00" text-anchor="middle" font-family="Arial, sans-serif" font-size="10">-1.3</text>
<line x1="587.00" y1="62.00" x2="587.00" y2="348.00" stroke="#ececec"/>
<text x="587.00" y="366.00" text-anchor="middle" font-family="Arial, sans-serif" font-size="10">-0.372</text>
<line x1="682.00" y1="62.00" x2="682.00" y2="348.00" stroke="#ececec"/>
<text x="682.00" y="366.00" text-anchor="middle" font-family="Arial, sans-serif" font-size="10">0.6</text>
<line x1="777.00" y1="62.00" x2="777.00" y2="348.00" stroke="#ececec"/>
<text x="777.00" y="366.00" text-anchor="middle" font-family="Arial, sans-serif" font-size="10">1.6</text>
<line x1="872.00" y1="62.00" x2="872.00" y2="348.00" stroke="#ececec"/>
<text x="872.00" y="366.00" text-anchor="middle" font-family="Arial, sans-serif" font-size="10">2.5</text>
<line x1="492.00" y1="348.00" x2="872.00" y2="348.00" stroke="#ececec"/>
<text x="485.00" y="352.00" text-anchor="end" font-family="Arial, sans-serif" font-size="10">-71</text>
<line x1="492.00" y1="276.50" x2="872.00" y2="276.50" stroke="#ececec"/>
<text x="485.00" y="280.50" text-anchor="end" font-family="Arial, sans-serif" font-size="10">-17</text>
<line x1="492.00" y1="205.00" x2="872.00" y2="205.00" stroke="#ececec"/>
<text x="485.00" y="209.00" text-anchor="end" font-family="Arial, sans-serif" font-size="10">37</text>
<line x1="492.00" y1="133.50" x2="872.00" y2="133.50" stroke="#ececec"/>
<text x="485.00" y="137.50" text-anchor="end" font-family="Arial, sans-serif" font-size="10">91</text>
<line x1="492.00" y1="62.00" x2="872.00" y2="62.00" stroke="#ececec"/>
<text x="485.00" y="66.00" text-anchor="end" font-family="Arial, sans-serif" font-size="10">1.4e+02</text>
<line x1="623.36" y1="62" x2="623.36" y2="348" stroke="#777" stroke-dasharray="4 4"/>
<line x1="492.0" y1="253.50" x2="872.0" y2="253.50" stroke="#777" stroke-dasharray="4 4"/>
<polyline fill="none" stroke="#1f77b4" stroke-width="1.8" points="506.07,125.86 511.94,133.43 516.83,139.67 522.69,147.07 528.55,154.38 533.44,160.38 539.30,167.48 544.19,173.30 550.06,180.17 555.92,186.90 560.81,192.41 566.67,198.88 572.53,205.22 577.42,210.38 583.29,216.45 589.15,222.36 594.04,227.17 599.90,232.81 605.77,238.27 610.65,242.69 613.58,245.27 615.54,246.96 616.52,247.80 621.40,251.90 623.36,253.50 627.27,256.56 628.24,257.29 629.22,258.01 630.20,258.71 631.18,259.40 632.15,260.08 638.02,263.88 639.97,265.05 640.95,265.61 641.93,266.16 642.91,266.70 643.88,267.22 644.86,267.73 645.84,268.23 646.81,268.71 647.79,269.18 648.77,269.64 649.75,270.08 650.72,270.51 651.70,270.93 652.68,271.33 653.66,271.72 654.63,272.09 655.61,272.45 656.59,272.80 657.57,273.13 658.54,273.45 659.52,273.75 660.50,274.05 661.48,274.33 662.45,274.59 663.43,274.85 664.41,275.09 666.36,275.53 671.25,276.46 677.11,277.29 681.02,277.72 682.98,277.91 687.86,278.32 693.73,278.75 698.62,279.06 704.48,279.39 710.34,279.69 715.23,279.91 721.09,280.17 726.96,280.40 728.91,280.47 731.85,280.58 737.71,280.79 740.64,280.89 743.57,280.99 748.46,281.15 752.37,281.27 754.33,281.33 759.21,281.47 765.08,281.64 770.94,281.81 775.83,281.94 781.69,282.09 787.56,282.24 792.44,282.36 798.31,282.50 804.17,282.64 809.06,282.76 814.92,282.89 820.79,283.02 825.67,283.13 827.63,283.17 831.54,283.17 836.42,283.17 842.29,283.17 845.22,283.17 848.15,283.17 853.04,283.17 857.93,283.17"/>
<polyline fill="none" stroke="#ff7f0e" stroke-width="1.8" stroke-dasharray="5 4" points="506.07,162.90 511.94,168.70 516.83,173.52 522.69,179.27 528.55,184.89 533.44,189.47 539.30,194.82 544.19,199.16 550.06,204.23 555.92,209.14 560.81,213.10 566.67,217.70 572.53,222.14 577.42,225.70 583.29,229.82 589.15,233.77 594.04,236.93 599.90,240.57 605.77,244.04 610.65,246.81 613.58,248.42 615.54,249.47 616.52,249.99 621.40,252.52 623.36,253.50 627.27,255.36 628.24,255.80 629.22,256.22 630.20,256.64 631.18,257.05 632.15,257.45 638.02,259.64 639.97,260.30 640.95,260.62 641.93,260.92 642.91,261.22 643.88,261.51 644.86,261.78 645.84,262.05 646.81,262.31 647.79,262.57 648.77,262.81 649.75,263.04 650.72,263.26 651.70,263.48 652.68,263.68 653.66,263.88 654.63,264.07 655.61,264.25 656.59,264.41 657.57,264.57 658.54,264.73 659.52,264.87 660.50,265.00 661.48,265.13 662.45,265.25 663.43,265.36 664.41,265.46 666.36,265.65 671.25,266.03 677.11,266.35 681.02,266.52 682.98,266.60 687.86,266.77 693.73,266.96 698.62,267.09 704.48,267.25 710.34,267.38 715.23,267.49 721.09,267.61 726.96,267.72 728.91,267.76 731.85,267.81 737.71,267.91 740.64,267.96 743.57,268.01 748.46,268.09 752.37,268.15 754.33,268.18 759.21,268.25 765.08,268.34 770.94,268.42 775.83,268.49 781.69,268.56 787.56,268.64 792.44,268.70 798.31,268.77 804.17,268.85 809.06,268.89 814.92,268.89 820.79,268.89 825.67,268.89 827.63,268.89 831.54,268.89 836.42,268.89 842.29,268.89 845.22,268.89 848.15,268.89 853.04,268.89 857.93,268.89"/>
<polyline fill="none" stroke="#2ca02c" stroke-width="1.8" stroke-dasharray="2 4" points="506.07,89.68 511.94,98.23 516.83,105.35 522.69,113.86 528.55,122.35 533.44,129.39 539.30,137.79 544.19,144.75 550.06,153.06 555.92,161.30 560.81,168.14 566.67,176.29 572.53,184.41 577.42,191.16 583.29,199.26 589.15,207.34 594.04,214.06 599.90,222.12 605.77,230.14 610.65,236.74 613.58,240.61 615.54,243.12 616.52,244.39 621.40,250.94 623.36,253.50 627.27,258.44 628.24,259.63 629.22,260.81 630.20,261.95 631.18,263.07 632.15,264.15 638.02,270.26 639.97,272.18 640.95,273.12 641.93,274.03 642.91,274.93 643.88,275.80 644.86,276.66 645.84,277.50 646.81,278.32 647.79,279.12 648.77,279.90 649.75,280.67 650.72,281.41 651.70,282.13 652.68,282.83 653.66,283.52 654.63,284.18 655.61,284.83 656.59,285.45 657.57,286.06 658.54,286.65 659.52,287.21 660.50,287.76 661.48,288.29 662.45,288.81 663.43,289.30 664.41,289.78 666.36,290.68 671.25,292.63 677.11,294.50 681.02,295.50 682.98,295.94 687.86,296.91 693.73,297.86 698.62,298.52 704.48,299.21 710.34,299.80 715.23,300.24 721.09,300.73 726.96,301.17 728.91,301.30 731.85,301.50 737.71,301.88 740.64,302.06 743.57,302.24 748.46,302.52 752.37,302.74 754.33,302.84 759.21,303.10 765.08,303.39 770.94,303.67 775.83,303.90 781.69,304.16 787.56,304.42 792.44,304.63 798.31,304.87 804.17,305.10 809.06,305.30 814.92,305.52 820.79,305.74 825.67,305.92 827.63,305.99 831.54,306.13 836.42,306.31 842.29,306.51 845.22,306.61 848.15,306.61 853.04,306.61 857.93,306.61"/>
<polyline fill="none" stroke="#1f77b4" stroke-width="1.1" stroke-dasharray="6 4" points="492.00,320.96 496.81,319.65 501.62,318.35 506.43,317.04 511.24,315.74 516.05,314.43 520.86,313.13 525.67,311.82 530.48,310.52 535.29,309.21 540.10,307.91 544.91,306.60 549.72,305.30 554.53,303.99 559.34,302.69 564.15,301.38 568.96,300.08 573.77,298.77 578.58,297.47 583.39,296.16 588.20,294.86 593.01,293.55 597.82,292.25 602.63,290.94 607.44,289.64 612.25,288.33 617.06,287.03 621.87,285.72 626.68,284.42 631.49,283.11 636.30,281.81 641.11,280.50 645.92,279.20 650.73,277.89 655.54,276.59 660.35,275.28 665.16,273.98 669.97,272.67 674.78,271.37 679.59,270.06 684.41,268.76 689.22,267.45 694.03,266.15 698.84,264.84 703.65,263.54 708.46,262.23 713.27,260.93 718.08,259.62 722.89,258.32 727.70,257.01 732.51,255.71 737.32,254.40 742.13,253.10 746.94,251.79 751.75,250.49 756.56,249.18 761.37,247.88 766.18,246.57 770.99,245.27 775.80,243.96 780.61,242.66 785.42,241.35 790.23,240.05 795.04,238.74 799.85,237.44 804.66,236.13 809.47,234.83 814.28,233.52 819.09,232.22 823.90,230.91 828.71,229.61 833.52,228.30 838.33,227.00 843.14,225.69 847.95,224.39 852.76,223.08 857.57,221.78 862.38,220.47 867.19,219.17 872.00,217.86"/>
<circle cx="662.68" cy="274.65" r="4.6" fill="#ffffff" stroke="#1f77b4" stroke-width="2"/>
<text x="668.68" y="268.65" font-family="Arial, sans-serif" font-size="10" fill="#1f77b4">typ 25.2 ohm</text>
<polyline fill="none" stroke="#ff7f0e" stroke-width="1.1" stroke-dasharray="6 4" points="492.00,317.78 496.81,316.47 501.62,315.17 506.43,313.86 511.24,312.56 516.05,311.25 520.86,309.95 525.67,308.64 530.48,307.34 535.29,306.03 540.10,304.73 544.91,303.42 549.72,302.12 554.53,300.81 559.34,299.51 564.15,298.20 568.96,296.90 573.77,295.59 578.58,294.29 583.39,292.98 588.20,291.68 593.01,290.37 597.82,289.07 602.63,287.76 607.44,286.46 612.25,285.15 617.06,283.85 621.87,282.54 626.68,281.24 631.49,279.93 636.30,278.63 641.11,277.32 645.92,276.02 650.73,274.71 655.54,273.41 660.35,272.10 665.16,270.80 669.97,269.49 674.78,268.19 679.59,266.88 684.41,265.58 689.22,264.27 694.03,262.97 698.84,261.66 703.65,260.36 708.46,259.05 713.27,257.75 718.08,256.44 722.89,255.13 727.70,253.83 732.51,252.52 737.32,251.22 742.13,249.91 746.94,248.61 751.75,247.30 756.56,246.00 761.37,244.69 766.18,243.39 770.99,242.08 775.80,240.78 780.61,239.47 785.42,238.17 790.23,236.86 795.04,235.56 799.85,234.25 804.66,232.95 809.47,231.64 814.28,230.34 819.09,229.03 823.90,227.73 828.71,226.42 833.52,225.12 838.33,223.81 843.14,222.51 847.95,221.20 852.76,219.90 857.57,218.59 862.38,217.29 867.19,215.98 872.00,214.68"/>
<circle cx="680.93" cy="266.52" r="4.6" fill="#ffffff" stroke="#ff7f0e" stroke-width="2"/>
<text x="686.93" y="260.52" font-family="Arial, sans-serif" font-size="10" fill="#ff7f0e">min 60 ohm</text>
<polyline fill="none" stroke="#2ca02c" stroke-width="1.1" stroke-dasharray="6 4" points="492.00,324.14 496.81,322.84 501.62,321.53 506.43,320.23 511.24,318.92 516.05,317.62 520.86,316.31 525.67,315.01 530.48,313.70 535.29,312.40 540.10,311.09 544.91,309.79 549.72,308.48 554.53,307.18 559.34,305.87 564.15,304.57 568.96,303.26 573.77,301.96 578.58,300.65 583.39,299.35 588.20,298.04 593.01,296.74 597.82,295.43 602.63,294.13 607.44,292.82 612.25,291.52 617.06,290.21 621.87,288.90 626.68,287.60 631.49,286.29 636.30,284.99 641.11,283.68 645.92,282.38 650.73,281.07 655.54,279.77 660.35,278.46 665.16,277.16 669.97,275.85 674.78,274.55 679.59,273.24 684.41,271.94 689.22,270.63 694.03,269.33 698.84,268.02 703.65,266.72 708.46,265.41 713.27,264.11 718.08,262.80 722.89,261.50 727.70,260.19 732.51,258.89 737.32,257.58 742.13,256.28 746.94,254.97 751.75,253.67 756.56,252.36 761.37,251.06 766.18,249.75 770.99,248.45 775.80,247.14 780.61,245.84 785.42,244.53 790.23,243.23 795.04,241.92 799.85,240.62 804.66,239.31 809.47,238.01 814.28,236.70 819.09,235.40 823.90,234.09 828.71,232.79 833.52,231.48 838.33,230.18 843.14,228.87 847.95,227.57 852.76,226.26 857.57,224.96 862.38,223.65 867.19,222.35 872.00,221.04"/>
<circle cx="650.40" cy="281.16" r="4.6" fill="#ffffff" stroke="#2ca02c" stroke-width="2"/>
<text x="656.40" y="275.16" font-family="Arial, sans-serif" font-size="10" fill="#2ca02c">max 13.3 ohm</text>
<line x1="502.00" y1="80.00" x2="524.00" y2="80.00" stroke="#1f77b4" stroke-width="2"/>
<text x="530.00" y="84.00" font-family="Arial, sans-serif" font-size="11">typ</text>
<line x1="502.00" y1="97.00" x2="524.00" y2="97.00" stroke="#ff7f0e" stroke-width="2" stroke-dasharray="5 4"/>
<text x="530.00" y="101.00" font-family="Arial, sans-serif" font-size="11">min</text>
<line x1="502.00" y1="114.00" x2="524.00" y2="114.00" stroke="#2ca02c" stroke-width="2" stroke-dasharray="2 4"/>
<text x="530.00" y="118.00" font-family="Arial, sans-serif" font-size="11">max</text>
<text x="682.00" y="386.00" text-anchor="middle" font-family="Arial, sans-serif" font-size="11">Vcc-relative table voltage (V)</text>
<text transform="translate(442.00 205.00) rotate(-90)" text-anchor="middle" font-family="Arial, sans-serif" font-size="11">Current (mA)</text>
<rect x="72.00" y="418.00" width="800.00" height="144.00" fill="#ffffff" stroke="#c8c8c8"/>
<text x="82.00" y="436.00" font-family="Arial, sans-serif" font-size="12" font-weight="700">Operating-point summary</text>
<text x="82.00" y="454.00" font-family="Arial, sans-serif" font-size="10" font-weight="700" fill="#333">Table</text>
<text x="174.00" y="454.00" font-family="Arial, sans-serif" font-size="10" font-weight="700" fill="#333">Corner</text>
<text x="242.00" y="454.00" font-family="Arial, sans-serif" font-size="10" font-weight="700" fill="#333">Vout</text>
<text x="332.00" y="454.00" font-family="Arial, sans-serif" font-size="10" font-weight="700" fill="#333">Iop</text>
<text x="422.00" y="454.00" font-family="Arial, sans-serif" font-size="10" font-weight="700" fill="#333">Zout</text>
<text x="512.00" y="454.00" font-family="Arial, sans-serif" font-size="10" font-weight="700" fill="#333">Rseries</text>
<text x="82.00" y="473.00" font-family="Arial, sans-serif" font-size="10" fill="#1f77b4">pulldown</text>
<text x="174.00" y="473.00" font-family="Arial, sans-serif" font-size="10" fill="#1f77b4">typ</text>
<text x="242.00" y="473.00" font-family="Arial, sans-serif" font-size="10" fill="#1f77b4">0.266 V</text>
<text x="332.00" y="473.00" font-family="Arial, sans-serif" font-size="10" fill="#1f77b4">19 mA</text>
<text x="422.00" y="473.00" font-family="Arial, sans-serif" font-size="10" fill="#1f77b4">14.2 ohm</text>
<text x="512.00" y="473.00" font-family="Arial, sans-serif" font-size="10" fill="#1f77b4">35.8 ohm</text>
<text x="82.00" y="492.00" font-family="Arial, sans-serif" font-size="10" fill="#ff7f0e">pulldown</text>
<text x="174.00" y="492.00" font-family="Arial, sans-serif" font-size="10" fill="#ff7f0e">min</text>
<text x="242.00" y="492.00" font-family="Arial, sans-serif" font-size="10" fill="#ff7f0e">0.4419 V</text>
<text x="332.00" y="492.00" font-family="Arial, sans-serif" font-size="10" fill="#ff7f0e">13 mA</text>
<text x="422.00" y="492.00" font-family="Arial, sans-serif" font-size="10" fill="#ff7f0e">34.6 ohm</text>
<text x="512.00" y="492.00" font-family="Arial, sans-serif" font-size="10" fill="#ff7f0e">15.4 ohm</text>
<text x="82.00" y="511.00" font-family="Arial, sans-serif" font-size="10" fill="#2ca02c">pulldown</text>
<text x="174.00" y="511.00" font-family="Arial, sans-serif" font-size="10" fill="#2ca02c">max</text>
<text x="242.00" y="511.00" font-family="Arial, sans-serif" font-size="10" fill="#2ca02c">0.1764 V</text>
<text x="332.00" y="511.00" font-family="Arial, sans-serif" font-size="10" fill="#2ca02c">23 mA</text>
<text x="422.00" y="511.00" font-family="Arial, sans-serif" font-size="10" fill="#2ca02c">7.711 ohm</text>
<text x="512.00" y="511.00" font-family="Arial, sans-serif" font-size="10" fill="#2ca02c">42.3 ohm</text>
<text x="82.00" y="530.00" font-family="Arial, sans-serif" font-size="10" fill="#1f77b4">pullup</text>
<text x="174.00" y="530.00" font-family="Arial, sans-serif" font-size="10" fill="#1f77b4">typ</text>
<text x="242.00" y="530.00" font-family="Arial, sans-serif" font-size="10" fill="#1f77b4">0.7977 V</text>
<text x="332.00" y="530.00" font-family="Arial, sans-serif" font-size="10" fill="#1f77b4">-16 mA</text>
<text x="422.00" y="530.00" font-family="Arial, sans-serif" font-size="10" fill="#1f77b4">25.2 ohm</text>
<text x="512.00" y="530.00" font-family="Arial, sans-serif" font-size="10" fill="#1f77b4">24.8 ohm</text>
<text x="82.00" y="549.00" font-family="Arial, sans-serif" font-size="10" fill="#ff7f0e">pullup</text>
<text x="174.00" y="549.00" font-family="Arial, sans-serif" font-size="10" fill="#ff7f0e">min</text>
<text x="242.00" y="549.00" font-family="Arial, sans-serif" font-size="10" fill="#ff7f0e">0.4909 V</text>
<text x="332.00" y="549.00" font-family="Arial, sans-serif" font-size="10" fill="#ff7f0e">-9.8 mA</text>
<text x="422.00" y="549.00" font-family="Arial, sans-serif" font-size="10" fill="#ff7f0e">60 ohm</text>
<text x="512.00" y="549.00" font-family="Arial, sans-serif" font-size="10" fill="#ff7f0e">-9.995 ohm</text>
<text x="82.00" y="568.00" font-family="Arial, sans-serif" font-size="10" fill="#2ca02c">pullup</text>
<text x="174.00" y="568.00" font-family="Arial, sans-serif" font-size="10" fill="#2ca02c">max</text>
<text x="242.00" y="568.00" font-family="Arial, sans-serif" font-size="10" fill="#2ca02c">1.043 V</text>
<text x="332.00" y="568.00" font-family="Arial, sans-serif" font-size="10" fill="#2ca02c">-21 mA</text>
<text x="422.00" y="568.00" font-family="Arial, sans-serif" font-size="10" fill="#2ca02c">13.3 ohm</text>
<text x="512.00" y="568.00" font-family="Arial, sans-serif" font-size="10" fill="#2ca02c">36.7 ohm</text>
</svg>