<svg xmlns="http://www.w3.org/2000/svg" width="900" height="620" viewBox="0 0 900 620">
<rect width="100%" height="100%" fill="#ffffff"/>
<text x="72" y="26" font-family="Arial, sans-serif" font-size="16" font-weight="700">E34_GPIO_COMBO_1V2 Zout Load-Line Curves</text>
<text x="72" y="45" font-family="Arial, sans-serif" font-size="11" fill="#555">Rload=50 ohm; solid=device I-V, dashed=load line, circles=operating points</text>
<rect x="72.00" y="62.00" width="380.00" height="286.00" fill="#fbfbfb" stroke="#c8c8c8"/>
<text x="80.00" y="50.00" font-family="Arial, sans-serif" font-size="13" font-weight="700">[Pulldown] Rload to Vdd</text>
<line x1="72.00" y1="62.00" x2="72.00" y2="348.00" stroke="#ececec"/>
<text x="72.00" y="366.00" text-anchor="middle" font-family="Arial, sans-serif" font-size="10">-1.3</text>
<line x1="167.00" y1="62.00" x2="167.00" y2="348.00" stroke="#ececec"/>
<text x="167.00" y="366.00" text-anchor="middle" font-family="Arial, sans-serif" font-size="10">-0.372</text>
<line x1="262.00" y1="62.00" x2="262.00" y2="348.00" stroke="#ececec"/>
<text x="262.00" y="366.00" text-anchor="middle" font-family="Arial, sans-serif" font-size="10">0.6</text>
<line x1="357.00" y1="62.00" x2="357.00" y2="348.00" stroke="#ececec"/>
<text x="357.00" y="366.00" text-anchor="middle" font-family="Arial, sans-serif" font-size="10">1.6</text>
<line x1="452.00" y1="62.00" x2="452.00" y2="348.00" stroke="#ececec"/>
<text x="452.00" y="366.00" text-anchor="middle" font-family="Arial, sans-serif" font-size="10">2.5</text>
<line x1="72.00" y1="348.00" x2="452.00" y2="348.00" stroke="#ececec"/>
<text x="65.00" y="352.00" text-anchor="end" font-family="Arial, sans-serif" font-size="10">-36</text>
<line x1="72.00" y1="276.50" x2="452.00" y2="276.50" stroke="#ececec"/>
<text x="65.00" y="280.50" text-anchor="end" font-family="Arial, sans-serif" font-size="10">-12</text>
<line x1="72.00" y1="205.00" x2="452.00" y2="205.00" stroke="#ececec"/>
<text x="65.00" y="209.00" text-anchor="end" font-family="Arial, sans-serif" font-size="10">12</text>
<line x1="72.00" y1="133.50" x2="452.00" y2="133.50" stroke="#ececec"/>
<text x="65.00" y="137.50" text-anchor="end" font-family="Arial, sans-serif" font-size="10">36</text>
<line x1="72.00" y1="62.00" x2="452.00" y2="62.00" stroke="#ececec"/>
<text x="65.00" y="66.00" text-anchor="end" font-family="Arial, sans-serif" font-size="10">60</text>
<line x1="203.36" y1="62" x2="203.36" y2="348" stroke="#777" stroke-dasharray="4 4"/>
<line x1="72.0" y1="241.04" x2="452.0" y2="241.04" stroke="#777" stroke-dasharray="4 4"/>
<polyline fill="none" stroke="#1f77b4" stroke-width="1.8" points="86.07,249.87 91.94,249.87 96.83,249.87 102.69,249.87 108.55,249.87 113.44,249.87 119.30,249.87 124.19,249.87 129.08,249.87 130.06,249.87 131.03,249.86 132.01,249.83 132.99,249.81 133.97,249.77 134.94,249.73 135.92,249.68 136.90,249.63 137.87,249.57 138.85,249.51 139.83,249.45 140.81,249.38 141.78,249.31 142.76,249.23 143.74,249.15 144.72,249.07 145.69,248.99 146.67,248.90 147.65,248.80 148.63,248.71 149.60,248.61 150.58,248.50 151.56,248.40 152.53,248.29 153.51,248.17 154.49,248.06 155.47,247.94 156.44,247.81 157.42,247.69 158.40,247.56 159.38,247.43 163.29,246.88 169.15,246.01 174.04,245.26 179.90,244.37 185.77,243.49 190.65,242.78 196.52,241.96 201.40,241.30 203.36,241.04 207.27,240.54 213.13,239.82 218.02,239.25 223.88,238.62 229.75,238.04 234.63,237.61 240.50,237.15 245.38,236.82 246.36,236.76 248.32,236.64 249.29,236.59 251.25,236.49 257.11,236.24 262.98,236.06 267.86,235.96 273.73,235.87 278.62,235.81 284.48,235.75 290.34,235.70 295.23,235.67 301.09,235.63 304.03,235.61 306.96,235.59 308.91,235.58 311.85,235.56 316.73,235.53 317.71,235.52 320.64,235.51 323.57,235.49 328.46,235.47 332.37,235.45 334.33,235.44 339.21,235.41 345.08,235.39 350.94,235.37 355.83,235.37 361.69,235.37 367.56,235.37 372.44,235.37 378.31,235.37 384.17,235.37 389.06,235.37 394.92,235.37 400.79,235.37 405.67,235.37 411.54,235.37 416.42,235.37 422.29,235.37 428.15,235.37 433.04,235.37 437.93,235.37"/>
<polyline fill="none" stroke="#ff7f0e" stroke-width="1.8" stroke-dasharray="5 4" points="86.07,245.53 91.94,245.53 96.83,245.53 102.69,245.53 108.55,245.53 113.44,245.53 119.30,245.53 124.19,245.53 129.08,245.53 130.06,245.52 131.03,245.52 132.01,245.50 132.99,245.49 133.97,245.47 134.94,245.44 135.92,245.42 136.90,245.39 137.87,245.36 138.85,245.33 139.83,245.30 140.81,245.26 141.78,245.22 142.76,245.18 143.74,245.15 144.72,245.11 145.69,245.06 146.67,245.02 147.65,244.98 148.63,244.93 149.60,244.89 150.58,244.84 151.56,244.79 152.53,244.74 153.51,244.69 154.49,244.63 155.47,244.58 156.44,244.52 157.42,244.46 158.40,244.40 159.38,244.34 163.29,244.08 169.15,243.65 174.04,243.27 179.90,242.79 185.77,242.32 190.65,241.95 196.52,241.51 201.40,241.17 203.36,241.04 207.27,240.78 213.13,240.42 218.02,240.14 223.88,239.83 229.75,239.54 234.63,239.33 240.50,239.10 245.38,238.93 246.36,238.90 248.32,238.84 249.29,238.82 251.25,238.76 257.11,238.63 262.98,238.53 267.86,238.47 273.73,238.42 278.62,238.38 284.48,238.35 290.34,238.33 295.23,238.31 301.09,238.29 304.03,238.28 306.96,238.27 308.91,238.26 311.85,238.25 316.73,238.24 317.71,238.24 320.64,238.23 323.57,238.22 328.46,238.21 332.37,238.21 334.33,238.21 339.21,238.21 345.08,238.21 350.94,238.21 355.83,238.21 361.69,238.21 367.56,238.21 372.44,238.21 378.31,238.21 384.17,238.21 389.06,238.21 394.92,238.21 400.79,238.21 405.67,238.21 411.54,238.21 416.42,238.21 422.29,238.21 428.15,238.21 433.04,238.21 437.93,238.21"/>
<polyline fill="none" stroke="#2ca02c" stroke-width="1.8" stroke-dasharray="2 4" points="86.07,255.37 91.94,255.37 96.83,255.37 102.69,255.37 108.55,255.37 113.44,255.37 119.30,255.37 124.19,255.37 129.08,255.37 130.06,255.37 131.03,255.35 132.01,255.31 132.99,255.26 133.97,255.20 134.94,255.13 135.92,255.05 136.90,254.97 137.87,254.88 138.85,254.78 139.83,254.68 140.81,254.58 141.78,254.47 142.76,254.35 143.74,254.23 144.72,254.10 145.69,253.96 146.67,253.82 147.65,253.68 148.63,253.53 149.60,253.37 150.58,253.21 151.56,253.04 152.53,252.87 153.51,252.69 154.49,252.50 155.47,252.31 156.44,252.12 157.42,251.92 158.40,251.71 159.38,251.51 163.29,250.63 169.15,249.25 174.04,248.06 179.90,246.63 185.77,245.20 190.65,244.02 196.52,242.62 201.40,241.49 203.36,241.04 207.27,240.16 213.13,238.89 218.02,237.89 223.88,236.76 229.75,235.73 234.63,234.95 240.50,234.13 245.38,233.53 246.36,233.42 248.32,233.22 249.29,233.12 251.25,232.94 257.11,232.48 262.98,232.15 267.86,231.96 273.73,231.79 278.62,231.68 284.48,231.58 290.34,231.49 295.23,231.43 301.09,231.36 304.03,231.32 306.96,231.29 308.91,231.27 311.85,231.24 316.73,231.20 317.71,231.19 320.64,231.16 323.57,231.13 328.46,231.09 332.37,231.06 334.33,231.04 339.21,231.00 345.08,230.96 350.94,230.91 355.83,230.88 361.69,230.84 367.56,230.81 372.44,230.81 378.31,230.81 384.17,230.81 389.06,230.81 394.92,230.81 400.79,230.81 405.67,230.81 411.54,230.81 416.42,230.81 422.29,230.81 428.15,230.81 433.04,230.81 437.93,230.81"/>
<polyline fill="none" stroke="#1f77b4" stroke-width="1.1" stroke-dasharray="6 4" points="72.00,88.24 76.81,91.19 81.62,94.15 86.43,97.10 91.24,100.06 96.05,103.02 100.86,105.97 105.67,108.93 110.48,111.88 115.29,114.84 120.10,117.80 124.91,120.75 129.72,123.71 134.53,126.66 139.34,129.62 144.15,132.58 148.96,135.53 153.77,138.49 158.58,141.44 163.39,144.40 168.20,147.36 173.01,150.31 177.82,153.27 182.63,156.23 187.44,159.18 192.25,162.14 197.06,165.09 201.87,168.05 206.68,171.01 211.49,173.96 216.30,176.92 221.11,179.87 225.92,182.83 230.73,185.79 235.54,188.74 240.35,191.70 245.16,194.65 249.97,197.61 254.78,200.57 259.59,203.52 264.41,206.48 269.22,209.43 274.03,212.39 278.84,215.35 283.65,218.30 288.46,221.26 293.27,224.21 298.08,227.17 302.89,230.13 307.70,233.08 312.51,236.04 317.32,238.99 322.13,241.95 326.94,244.91 331.75,247.86 336.56,250.82 341.37,253.77 346.18,256.73 350.99,259.69 355.80,262.64 360.61,265.60 365.42,268.56 370.23,271.51 375.04,274.47 379.85,277.42 384.66,280.38 389.47,283.34 394.28,286.29 399.09,289.25 403.90,292.20 408.71,295.16 413.52,298.12 418.33,301.07 423.14,304.03 427.95,306.98 432.76,309.94 437.57,312.90 442.38,315.85 447.19,318.81 452.00,321.76"/>
<circle cx="311.72" cy="235.56" r="4.6" fill="#ffffff" stroke="#1f77b4" stroke-width="2"/>
<text x="317.72" y="229.56" font-family="Arial, sans-serif" font-size="10" fill="#1f77b4">typ 608 ohm</text>
<polyline fill="none" stroke="#ff7f0e" stroke-width="1.1" stroke-dasharray="6 4" points="72.00,95.44 76.81,98.40 81.62,101.36 86.43,104.31 91.24,107.27 96.05,110.22 100.86,113.18 105.67,116.14 110.48,119.09 115.29,122.05 120.10,125.00 124.91,127.96 129.72,130.92 134.53,133.87 139.34,136.83 144.15,139.78 148.96,142.74 153.77,145.70 158.58,148.65 163.39,151.61 168.20,154.56 173.01,157.52 177.82,160.48 182.63,163.43 187.44,166.39 192.25,169.34 197.06,172.30 201.87,175.26 206.68,178.21 211.49,181.17 216.30,184.13 221.11,187.08 225.92,190.04 230.73,192.99 235.54,195.95 240.35,198.91 245.16,201.86 249.97,204.82 254.78,207.77 259.59,210.73 264.41,213.69 269.22,216.64 274.03,219.60 278.84,222.55 283.65,225.51 288.46,228.47 293.27,231.42 298.08,234.38 302.89,237.33 307.70,240.29 312.51,243.25 317.32,246.20 322.13,249.16 326.94,252.11 331.75,255.07 336.56,258.03 341.37,260.98 346.18,263.94 350.99,266.89 355.80,269.85 360.61,272.81 365.42,275.76 370.23,278.72 375.04,281.67 379.85,284.63 384.66,287.59 389.47,290.54 394.28,293.50 399.09,296.46 403.90,299.41 408.71,302.37 413.52,305.32 418.33,308.28 423.14,311.24 427.95,314.19 432.76,317.15 437.57,320.10 442.38,323.06 447.19,326.02 452.00,328.97"/>
<circle cx="304.42" cy="238.28" r="4.6" fill="#ffffff" stroke="#ff7f0e" stroke-width="2"/>
<text x="310.42" y="232.28" font-family="Arial, sans-serif" font-size="10" fill="#ff7f0e">min 1125 ohm</text>
<polyline fill="none" stroke="#2ca02c" stroke-width="1.1" stroke-dasharray="6 4" points="72.00,81.03 76.81,83.98 81.62,86.94 86.43,89.90 91.24,92.85 96.05,95.81 100.86,98.76 105.67,101.72 110.48,104.68 115.29,107.63 120.10,110.59 124.91,113.54 129.72,116.50 134.53,119.46 139.34,122.41 144.15,125.37 148.96,128.33 153.77,131.28 158.58,134.24 163.39,137.19 168.20,140.15 173.01,143.11 177.82,146.06 182.63,149.02 187.44,151.97 192.25,154.93 197.06,157.89 201.87,160.84 206.68,163.80 211.49,166.75 216.30,169.71 221.11,172.67 225.92,175.62 230.73,178.58 235.54,181.53 240.35,184.49 245.16,187.45 249.97,190.40 254.78,193.36 259.59,196.31 264.41,199.27 269.22,202.23 274.03,205.18 278.84,208.14 283.65,211.09 288.46,214.05 293.27,217.01 298.08,219.96 302.89,222.92 307.70,225.87 312.51,228.83 317.32,231.79 322.13,234.74 326.94,237.70 331.75,240.66 336.56,243.61 341.37,246.57 346.18,249.52 350.99,252.48 355.80,255.44 360.61,258.39 365.42,261.35 370.23,264.30 375.04,267.26 379.85,270.22 384.66,273.17 389.47,276.13 394.28,279.08 399.09,282.04 403.90,285.00 408.71,287.95 413.52,290.91 418.33,293.86 423.14,296.82 427.95,299.78 432.76,302.73 437.57,305.69 442.38,308.64 447.19,311.60 452.00,314.56"/>
<circle cx="316.36" cy="231.20" r="4.6" fill="#ffffff" stroke="#2ca02c" stroke-width="2"/>
<text x="322.36" y="225.20" font-family="Arial, sans-serif" font-size="10" fill="#2ca02c">max 353 ohm</text>
<line x1="82.00" y1="80.00" x2="104.00" y2="80.00" stroke="#1f77b4" stroke-width="2"/>
<text x="110.00" y="84.00" font-family="Arial, sans-serif" font-size="11">typ</text>
<line x1="82.00" y1="97.00" x2="104.00" y2="97.00" stroke="#ff7f0e" stroke-width="2" stroke-dasharray="5 4"/>
<text x="110.00" y="101.00" font-family="Arial, sans-serif" font-size="11">min</text>
<line x1="82.00" y1="114.00" x2="104.00" y2="114.00" stroke="#2ca02c" stroke-width="2" stroke-dasharray="2 4"/>
<text x="110.00" y="118.00" font-family="Arial, sans-serif" font-size="11">max</text>
<text x="262.00" y="386.00" text-anchor="middle" font-family="Arial, sans-serif" font-size="11">Output voltage (V)</text>
<text transform="translate(22.00 205.00) rotate(-90)" text-anchor="middle" font-family="Arial, sans-serif" font-size="11">Current (mA)</text>
<rect x="492.00" y="62.00" width="380.00" height="286.00" fill="#fbfbfb" stroke="#c8c8c8"/>
<text x="500.00" y="50.00" font-family="Arial, sans-serif" font-size="13" font-weight="700">[Pullup] Rload to GND</text>
<line x1="492.00" y1="62.00" x2="492.00" y2="348.00" stroke="#ececec"/>
<text x="492.00" y="366.00" text-anchor="middle" font-family="Arial, sans-serif" font-size="10">-1.3</text>
<line x1="587.00" y1="62.00" x2="587.00" y2="348.00" stroke="#ececec"/>
<text x="587.00" y="366.00" text-anchor="middle" font-family="Arial, sans-serif" font-size="10">-0.372</text>
<line x1="682.00" y1="62.00" x2="682.00" y2="348.00" stroke="#ececec"/>
<text x="682.00" y="366.00" text-anchor="middle" font-family="Arial, sans-serif" font-size="10">0.6</text>
<line x1="777.00" y1="62.00" x2="777.00" y2="348.00" stroke="#ececec"/>
<text x="777.00" y="366.00" text-anchor="middle" font-family="Arial, sans-serif" font-size="10">1.6</text>
<line x1="872.00" y1="62.00" x2="872.00" y2="348.00" stroke="#ececec"/>
<text x="872.00" y="366.00" text-anchor="middle" font-family="Arial, sans-serif" font-size="10">2.5</text>
<line x1="492.00" y1="348.00" x2="872.00" y2="348.00" stroke="#ececec"/>
<text x="485.00" y="352.00" text-anchor="end" font-family="Arial, sans-serif" font-size="10">-60</text>
<line x1="492.00" y1="276.50" x2="872.00" y2="276.50" stroke="#ececec"/>
<text x="485.00" y="280.50" text-anchor="end" font-family="Arial, sans-serif" font-size="10">-36</text>
<line x1="492.00" y1="205.00" x2="872.00" y2="205.00" stroke="#ececec"/>
<text x="485.00" y="209.00" text-anchor="end" font-family="Arial, sans-serif" font-size="10">-12</text>
<line x1="492.00" y1="133.50" x2="872.00" y2="133.50" stroke="#ececec"/>
<text x="485.00" y="137.50" text-anchor="end" font-family="Arial, sans-serif" font-size="10">12</text>
<line x1="492.00" y1="62.00" x2="872.00" y2="62.00" stroke="#ececec"/>
<text x="485.00" y="66.00" text-anchor="end" font-family="Arial, sans-serif" font-size="10">36</text>
<line x1="623.36" y1="62" x2="623.36" y2="348" stroke="#777" stroke-dasharray="4 4"/>
<line x1="492.0" y1="168.96" x2="872.0" y2="168.96" stroke="#777" stroke-dasharray="4 4"/>
<polyline fill="none" stroke="#1f77b4" stroke-width="1.8" points="506.07,161.49 511.94,161.49 516.83,161.49 522.69,161.49 527.58,161.49 528.55,161.49 529.53,161.49 530.51,161.49 531.49,161.50 532.46,161.50 533.44,161.51 539.30,161.56 544.19,161.64 550.06,161.76 554.94,161.90 556.90,161.97 558.85,162.05 559.83,162.09 560.81,162.13 561.78,162.17 562.76,162.22 563.74,162.27 564.72,162.32 565.69,162.37 566.67,162.42 567.65,162.48 568.63,162.54 569.60,162.60 570.58,162.67 571.56,162.74 572.53,162.81 573.51,162.88 574.49,162.96 575.47,163.04 576.44,163.13 577.42,163.21 578.40,163.30 579.38,163.40 580.35,163.49 581.33,163.59 582.31,163.69 583.29,163.80 589.15,164.49 594.04,165.11 599.90,165.88 605.77,166.65 610.65,167.30 616.52,168.07 621.40,168.71 623.36,168.96 627.27,169.46 633.13,170.20 638.02,170.80 643.88,171.50 649.75,172.16 654.63,172.69 660.50,173.28 666.36,173.83 671.25,174.24 677.11,174.67 678.09,174.73 680.05,174.85 682.98,175.02 687.86,175.26 693.73,175.48 698.62,175.62 704.48,175.75 710.34,175.86 715.23,175.94 721.09,176.03 723.05,176.05 726.96,176.10 728.91,176.13 730.87,176.15 731.85,176.16 737.71,176.23 740.64,176.26 743.57,176.29 748.46,176.33 752.37,176.37 754.33,176.39 759.21,176.43 765.08,176.48 770.94,176.52 775.83,176.54 781.69,176.54 787.56,176.54 792.44,176.54 798.31,176.54 804.17,176.54 809.06,176.54 814.92,176.54 820.79,176.54 825.67,176.54 831.54,176.54 836.42,176.54 842.29,176.54 848.15,176.54 853.04,176.54 857.93,176.54"/>
<polyline fill="none" stroke="#ff7f0e" stroke-width="1.8" stroke-dasharray="5 4" points="506.07,166.71 511.94,166.71 516.83,166.71 522.69,166.71 527.58,166.71 528.55,166.71 529.53,166.71 530.51,166.71 531.49,166.71 532.46,166.71 533.44,166.71 539.30,166.72 544.19,166.75 550.06,166.78 554.94,166.82 556.90,166.83 558.85,166.85 559.83,166.85 560.81,166.86 561.78,166.87 562.76,166.88 563.74,166.89 564.72,166.89 565.69,166.90 566.67,166.91 567.65,166.92 568.63,166.93 569.60,166.94 570.58,166.95 571.56,166.96 572.53,166.97 573.51,166.99 574.49,167.00 575.47,167.01 576.44,167.03 577.42,167.04 578.40,167.06 579.38,167.08 580.35,167.10 581.33,167.12 582.31,167.14 583.29,167.16 589.15,167.32 594.04,167.50 599.90,167.75 605.77,168.03 610.65,168.28 616.52,168.59 621.40,168.85 623.36,168.96 627.27,169.18 633.13,169.51 638.02,169.79 643.88,170.13 649.75,170.46 654.63,170.74 660.50,171.06 666.36,171.36 671.25,171.60 677.11,171.87 678.09,171.91 680.05,171.99 682.98,172.10 687.86,172.25 693.73,172.39 698.62,172.47 704.48,172.54 710.34,172.60 715.23,172.65 721.09,172.69 723.05,172.70 726.96,172.73 728.91,172.74 730.87,172.76 731.85,172.76 737.71,172.80 740.64,172.81 743.57,172.83 748.46,172.85 752.37,172.86 754.33,172.87 759.21,172.87 765.08,172.87 770.94,172.87 775.83,172.87 781.69,172.87 787.56,172.87 792.44,172.87 798.31,172.87 804.17,172.87 809.06,172.87 814.92,172.87 820.79,172.87 825.67,172.87 831.54,172.87 836.42,172.87 842.29,172.87 848.15,172.87 853.04,172.87 857.93,172.87"/>
<polyline fill="none" stroke="#2ca02c" stroke-width="1.8" stroke-dasharray="2 4" points="506.07,151.73 511.94,151.73 516.83,151.73 522.69,151.73 527.58,151.73 528.55,151.75 529.53,151.77 530.51,151.80 531.49,151.84 532.46,151.88 533.44,151.93 539.30,152.28 544.19,152.64 550.06,153.14 554.94,153.63 556.90,153.85 558.85,154.09 559.83,154.21 560.81,154.34 561.78,154.47 562.76,154.60 563.74,154.74 564.72,154.89 565.69,155.04 566.67,155.19 567.65,155.35 568.63,155.52 569.60,155.69 570.58,155.87 571.56,156.05 572.53,156.24 573.51,156.43 574.49,156.63 575.47,156.84 576.44,157.05 577.42,157.26 578.40,157.48 579.38,157.71 580.35,157.94 581.33,158.17 582.31,158.41 583.29,158.65 589.15,160.16 594.04,161.45 599.90,162.99 605.77,164.52 610.65,165.78 616.52,167.27 621.40,168.48 623.36,168.96 627.27,169.90 633.13,171.27 638.02,172.37 643.88,173.63 649.75,174.81 654.63,175.74 660.50,176.77 666.36,177.70 671.25,178.40 677.11,179.13 678.09,179.24 680.05,179.46 682.98,179.75 687.86,180.17 693.73,180.59 698.62,180.87 704.48,181.15 710.34,181.37 715.23,181.53 721.09,181.70 723.05,181.75 726.96,181.84 728.91,181.89 730.87,181.93 731.85,181.95 737.71,182.07 740.64,182.13 743.57,182.18 748.46,182.26 752.37,182.33 754.33,182.36 759.21,182.43 765.08,182.52 770.94,182.60 775.83,182.66 781.69,182.73 787.56,182.79 792.44,182.81 798.31,182.81 804.17,182.81 809.06,182.81 814.92,182.81 820.79,182.81 825.67,182.81 831.54,182.81 836.42,182.81 842.29,182.81 848.15,182.81 853.04,182.81 857.93,182.81"/>
<polyline fill="none" stroke="#1f77b4" stroke-width="1.1" stroke-dasharray="6 4" points="492.00,321.76 496.81,318.81 501.62,315.85 506.43,312.90 511.24,309.94 516.05,306.98 520.86,304.03 525.67,301.07 530.48,298.12 535.29,295.16 540.10,292.20 544.91,289.25 549.72,286.29 554.53,283.34 559.34,280.38 564.15,277.42 568.96,274.47 573.77,271.51 578.58,268.56 583.39,265.60 588.20,262.64 593.01,259.69 597.82,256.73 602.63,253.77 607.44,250.82 612.25,247.86 617.06,244.91 621.87,241.95 626.68,238.99 631.49,236.04 636.30,233.08 641.11,230.13 645.92,227.17 650.73,224.21 655.54,221.26 660.35,218.30 665.16,215.35 669.97,212.39 674.78,209.43 679.59,206.48 684.41,203.52 689.22,200.57 694.03,197.61 698.84,194.65 703.65,191.70 708.46,188.74 713.27,185.79 718.08,182.83 722.89,179.87 727.70,176.92 732.51,173.96 737.32,171.01 742.13,168.05 746.94,165.09 751.75,162.14 756.56,159.18 761.37,156.23 766.18,153.27 770.99,150.31 775.80,147.36 780.61,144.40 785.42,141.44 790.23,138.49 795.04,135.53 799.85,132.58 804.66,129.62 809.47,126.66 814.28,123.71 819.09,120.75 823.90,117.80 828.71,114.84 833.52,111.88 838.33,108.93 843.14,105.97 847.95,103.02 852.76,100.06 857.57,97.10 862.38,94.15 867.19,91.19 872.00,88.24"/>
<circle cx="728.98" cy="176.13" r="4.6" fill="#ffffff" stroke="#1f77b4" stroke-width="2"/>
<text x="734.98" y="170.13" font-family="Arial, sans-serif" font-size="10" fill="#1f77b4">typ 453 ohm</text>
<polyline fill="none" stroke="#ff7f0e" stroke-width="1.1" stroke-dasharray="6 4" points="492.00,314.56 496.81,311.60 501.62,308.64 506.43,305.69 511.24,302.73 516.05,299.78 520.86,296.82 525.67,293.86 530.48,290.91 535.29,287.95 540.10,285.00 544.91,282.04 549.72,279.08 554.53,276.13 559.34,273.17 564.15,270.22 568.96,267.26 573.77,264.30 578.58,261.35 583.39,258.39 588.20,255.44 593.01,252.48 597.82,249.52 602.63,246.57 607.44,243.61 612.25,240.66 617.06,237.70 621.87,234.74 626.68,231.79 631.49,228.83 636.30,225.87 641.11,222.92 645.92,219.96 650.73,217.01 655.54,214.05 660.35,211.09 665.16,208.14 669.97,205.18 674.78,202.23 679.59,199.27 684.41,196.31 689.22,193.36 694.03,190.40 698.84,187.45 703.65,184.49 708.46,181.53 713.27,178.58 718.08,175.62 722.89,172.67 727.70,169.71 732.51,166.75 737.32,163.80 742.13,160.84 746.94,157.89 751.75,154.93 756.56,151.97 761.37,149.02 766.18,146.06 770.99,143.11 775.80,140.15 780.61,137.19 785.42,134.24 790.23,131.28 795.04,128.33 799.85,125.37 804.66,122.41 809.47,119.46 814.28,116.50 819.09,113.54 823.90,110.59 828.71,107.63 833.52,104.68 838.33,101.72 843.14,98.76 847.95,95.81 852.76,92.85 857.57,89.90 862.38,86.94 867.19,83.98 872.00,81.03"/>
<circle cx="722.83" cy="172.70" r="4.6" fill="#ffffff" stroke="#ff7f0e" stroke-width="2"/>
<text x="728.83" y="166.70" font-family="Arial, sans-serif" font-size="10" fill="#ff7f0e">min 817 ohm</text>
<polyline fill="none" stroke="#2ca02c" stroke-width="1.1" stroke-dasharray="6 4" points="492.00,328.97 496.81,326.02 501.62,323.06 506.43,320.10 511.24,317.15 516.05,314.19 520.86,311.24 525.67,308.28 530.48,305.32 535.29,302.37 540.10,299.41 544.91,296.46 549.72,293.50 554.53,290.54 559.34,287.59 564.15,284.63 568.96,281.67 573.77,278.72 578.58,275.76 583.39,272.81 588.20,269.85 593.01,266.89 597.82,263.94 602.63,260.98 607.44,258.03 612.25,255.07 617.06,252.11 621.87,249.16 626.68,246.20 631.49,243.25 636.30,240.29 641.11,237.33 645.92,234.38 650.73,231.42 655.54,228.47 660.35,225.51 665.16,222.55 669.97,219.60 674.78,216.64 679.59,213.69 684.41,210.73 689.22,207.77 694.03,204.82 698.84,201.86 703.65,198.91 708.46,195.95 713.27,192.99 718.08,190.04 722.89,187.08 727.70,184.13 732.51,181.17 737.32,178.21 742.13,175.26 746.94,172.30 751.75,169.34 756.56,166.39 761.37,163.43 766.18,160.48 770.99,157.52 775.80,154.56 780.61,151.61 785.42,148.65 790.23,145.70 795.04,142.74 799.85,139.78 804.66,136.83 809.47,133.87 814.28,130.92 819.09,127.96 823.90,125.00 828.71,122.05 833.52,119.09 838.33,116.14 843.14,113.18 847.95,110.22 852.76,107.27 857.57,104.31 862.38,101.36 867.19,98.40 872.00,95.44"/>
<circle cx="731.25" cy="181.94" r="4.6" fill="#ffffff" stroke="#2ca02c" stroke-width="2"/>
<text x="737.25" y="175.94" font-family="Arial, sans-serif" font-size="10" fill="#2ca02c">max 255 ohm</text>
<line x1="502.00" y1="80.00" x2="524.00" y2="80.00" stroke="#1f77b4" stroke-width="2"/>
<text x="530.00" y="84.00" font-family="Arial, sans-serif" font-size="11">typ</text>
<line x1="502.00" y1="97.00" x2="524.00" y2="97.00" stroke="#ff7f0e" stroke-width="2" stroke-dasharray="5 4"/>
<text x="530.00" y="101.00" font-family="Arial, sans-serif" font-size="11">min</text>
<line x1="502.00" y1="114.00" x2="524.00" y2="114.00" stroke="#2ca02c" stroke-width="2" stroke-dasharray="2 4"/>
<text x="530.00" y="118.00" font-family="Arial, sans-serif" font-size="11">max</text>
<text x="682.00" y="386.00" text-anchor="middle" font-family="Arial, sans-serif" font-size="11">Vcc-relative table voltage (V)</text>
<text transform="translate(442.00 205.00) rotate(-90)" text-anchor="middle" font-family="Arial, sans-serif" font-size="11">Current (mA)</text>
<rect x="72.00" y="418.00" width="800.00" height="144.00" fill="#ffffff" stroke="#c8c8c8"/>
<text x="82.00" y="436.00" font-family="Arial, sans-serif" font-size="12" font-weight="700">Operating-point summary</text>
<text x="82.00" y="454.00" font-family="Arial, sans-serif" font-size="10" font-weight="700" fill="#333">Table</text>
<text x="174.00" y="454.00" font-family="Arial, sans-serif" font-size="10" font-weight="700" fill="#333">Corner</text>
<text x="242.00" y="454.00" font-family="Arial, sans-serif" font-size="10" font-weight="700" fill="#333">Vout</text>
<text x="332.00" y="454.00" font-family="Arial, sans-serif" font-size="10" font-weight="700" fill="#333">Iop</text>
<text x="422.00" y="454.00" font-family="Arial, sans-serif" font-size="10" font-weight="700" fill="#333">Zout</text>
<text x="512.00" y="454.00" font-family="Arial, sans-serif" font-size="10" font-weight="700" fill="#333">Rseries</text>
<text x="82.00" y="473.00" font-family="Arial, sans-serif" font-size="10" fill="#1f77b4">pulldown</text>
<text x="174.00" y="473.00" font-family="Arial, sans-serif" font-size="10" fill="#1f77b4">typ</text>
<text x="242.00" y="473.00" font-family="Arial, sans-serif" font-size="10" fill="#1f77b4">1.109 V</text>
<text x="332.00" y="473.00" font-family="Arial, sans-serif" font-size="10" fill="#1f77b4">1.8 mA</text>
<text x="422.00" y="473.00" font-family="Arial, sans-serif" font-size="10" fill="#1f77b4">608 ohm</text>
<text x="512.00" y="473.00" font-family="Arial, sans-serif" font-size="10" fill="#1f77b4">-558 ohm</text>
<text x="82.00" y="492.00" font-family="Arial, sans-serif" font-size="10" fill="#ff7f0e">pulldown</text>
<text x="174.00" y="492.00" font-family="Arial, sans-serif" font-size="10" fill="#ff7f0e">min</text>
<text x="242.00" y="492.00" font-family="Arial, sans-serif" font-size="10" fill="#ff7f0e">1.034 V</text>
<text x="332.00" y="492.00" font-family="Arial, sans-serif" font-size="10" fill="#ff7f0e">0.92 mA</text>
<text x="422.00" y="492.00" font-family="Arial, sans-serif" font-size="10" fill="#ff7f0e">1125 ohm</text>
<text x="512.00" y="492.00" font-family="Arial, sans-serif" font-size="10" fill="#ff7f0e">-1075 ohm</text>
<text x="82.00" y="511.00" font-family="Arial, sans-serif" font-size="10" fill="#2ca02c">pulldown</text>
<text x="174.00" y="511.00" font-family="Arial, sans-serif" font-size="10" fill="#2ca02c">max</text>
<text x="242.00" y="511.00" font-family="Arial, sans-serif" font-size="10" fill="#2ca02c">1.156 V</text>
<text x="332.00" y="511.00" font-family="Arial, sans-serif" font-size="10" fill="#2ca02c">3.3 mA</text>
<text x="422.00" y="511.00" font-family="Arial, sans-serif" font-size="10" fill="#2ca02c">353 ohm</text>
<text x="512.00" y="511.00" font-family="Arial, sans-serif" font-size="10" fill="#2ca02c">-303 ohm</text>
<text x="82.00" y="530.00" font-family="Arial, sans-serif" font-size="10" fill="#1f77b4">pullup</text>
<text x="174.00" y="530.00" font-family="Arial, sans-serif" font-size="10" fill="#1f77b4">typ</text>
<text x="242.00" y="530.00" font-family="Arial, sans-serif" font-size="10" fill="#1f77b4">0.1193 V</text>
<text x="332.00" y="530.00" font-family="Arial, sans-serif" font-size="10" fill="#1f77b4">-2.4 mA</text>
<text x="422.00" y="530.00" font-family="Arial, sans-serif" font-size="10" fill="#1f77b4">453 ohm</text>
<text x="512.00" y="530.00" font-family="Arial, sans-serif" font-size="10" fill="#1f77b4">-403 ohm</text>
<text x="82.00" y="549.00" font-family="Arial, sans-serif" font-size="10" fill="#ff7f0e">pullup</text>
<text x="174.00" y="549.00" font-family="Arial, sans-serif" font-size="10" fill="#ff7f0e">min</text>
<text x="242.00" y="549.00" font-family="Arial, sans-serif" font-size="10" fill="#ff7f0e">0.06229 V</text>
<text x="332.00" y="549.00" font-family="Arial, sans-serif" font-size="10" fill="#ff7f0e">-1.2 mA</text>
<text x="422.00" y="549.00" font-family="Arial, sans-serif" font-size="10" fill="#ff7f0e">817 ohm</text>
<text x="512.00" y="549.00" font-family="Arial, sans-serif" font-size="10" fill="#ff7f0e">-767 ohm</text>
<text x="82.00" y="568.00" font-family="Arial, sans-serif" font-size="10" fill="#2ca02c">pullup</text>
<text x="174.00" y="568.00" font-family="Arial, sans-serif" font-size="10" fill="#2ca02c">max</text>
<text x="242.00" y="568.00" font-family="Arial, sans-serif" font-size="10" fill="#2ca02c">0.2161 V</text>
<text x="332.00" y="568.00" font-family="Arial, sans-serif" font-size="10" fill="#2ca02c">-4.3 mA</text>
<text x="422.00" y="568.00" font-family="Arial, sans-serif" font-size="10" fill="#2ca02c">255 ohm</text>
<text x="512.00" y="568.00" font-family="Arial, sans-serif" font-size="10" fill="#2ca02c">-205 ohm</text>
</svg>