<svg xmlns="http://www.w3.org/2000/svg" width="900" height="620" viewBox="0 0 900 620">
<rect width="100%" height="100%" fill="#ffffff"/>
<text x="72" y="26" font-family="Arial, sans-serif" font-size="16" font-weight="700">E34_GPIO_I2CSCLIN_1V8_01 Zout Load-Line Curves</text>
<text x="72" y="45" font-family="Arial, sans-serif" font-size="11" fill="#555">Rload=50 ohm; solid=device I-V, dashed=load line, circles=operating points</text>
<rect x="72.00" y="62.00" width="380.00" height="286.00" fill="#fbfbfb" stroke="#c8c8c8"/>
<text x="80.00" y="50.00" font-family="Arial, sans-serif" font-size="13" font-weight="700">[Pulldown] Rload to Vdd</text>
<line x1="72.00" y1="62.00" x2="72.00" y2="348.00" stroke="#ececec"/>
<text x="72.00" y="366.00" text-anchor="middle" font-family="Arial, sans-serif" font-size="10">-2</text>
<line x1="167.00" y1="62.00" x2="167.00" y2="348.00" stroke="#ececec"/>
<text x="167.00" y="366.00" text-anchor="middle" font-family="Arial, sans-serif" font-size="10">-0.558</text>
<line x1="262.00" y1="62.00" x2="262.00" y2="348.00" stroke="#ececec"/>
<text x="262.00" y="366.00" text-anchor="middle" font-family="Arial, sans-serif" font-size="10">0.9</text>
<line x1="357.00" y1="62.00" x2="357.00" y2="348.00" stroke="#ececec"/>
<text x="357.00" y="366.00" text-anchor="middle" font-family="Arial, sans-serif" font-size="10">2.4</text>
<line x1="452.00" y1="62.00" x2="452.00" y2="348.00" stroke="#ececec"/>
<text x="452.00" y="366.00" text-anchor="middle" font-family="Arial, sans-serif" font-size="10">3.8</text>
<line x1="72.00" y1="348.00" x2="452.00" y2="348.00" stroke="#ececec"/>
<text x="65.00" y="352.00" text-anchor="end" font-family="Arial, sans-serif" font-size="10">-53</text>
<line x1="72.00" y1="276.50" x2="452.00" y2="276.50" stroke="#ececec"/>
<text x="65.00" y="280.50" text-anchor="end" font-family="Arial, sans-serif" font-size="10">-18</text>
<line x1="72.00" y1="205.00" x2="452.00" y2="205.00" stroke="#ececec"/>
<text x="65.00" y="209.00" text-anchor="end" font-family="Arial, sans-serif" font-size="10">18</text>
<line x1="72.00" y1="133.50" x2="452.00" y2="133.50" stroke="#ececec"/>
<text x="65.00" y="137.50" text-anchor="end" font-family="Arial, sans-serif" font-size="10">54</text>
<line x1="72.00" y1="62.00" x2="452.00" y2="62.00" stroke="#ececec"/>
<text x="65.00" y="66.00" text-anchor="end" font-family="Arial, sans-serif" font-size="10">89</text>
<line x1="203.36" y1="62" x2="203.36" y2="348" stroke="#777" stroke-dasharray="4 4"/>
<line x1="72.0" y1="241.04" x2="452.0" y2="241.04" stroke="#777" stroke-dasharray="4 4"/>
<polyline fill="none" stroke="#1f77b4" stroke-width="1.8" points="86.07,260.01 91.29,260.01 97.15,260.01 102.36,260.01 108.23,260.01 113.44,260.01 119.30,260.01 124.52,260.01 130.38,260.01 135.59,260.01 140.16,260.01 141.46,260.01 144.06,260.01 146.67,259.87 149.93,259.61 151.88,259.42 153.84,259.19 154.49,259.11 157.75,258.65 159.05,258.43 159.70,258.32 160.35,258.20 161.66,257.94 162.96,257.67 163.61,257.52 164.26,257.37 164.91,257.21 165.57,257.04 166.22,256.87 166.87,256.69 167.52,256.50 168.17,256.31 168.82,256.11 169.48,255.90 170.13,255.69 170.78,255.47 171.43,255.24 172.08,255.01 172.73,254.77 173.39,254.52 174.04,254.27 174.69,254.01 175.34,253.75 179.90,251.77 185.11,249.39 190.98,246.69 196.19,244.29 202.05,241.63 203.36,241.04 207.27,239.28 212.48,236.98 218.34,234.44 223.56,232.24 229.42,229.85 234.63,227.81 240.50,225.63 245.71,223.81 251.57,221.91 256.79,220.39 262.65,218.87 265.91,218.13 267.86,217.73 273.08,216.78 275.03,216.48 277.64,216.12 278.94,215.96 279.59,215.89 284.15,215.43 290.02,214.99 295.23,214.70 301.09,214.45 306.31,214.26 308.91,214.18 312.17,214.08 317.38,213.93 320.64,213.85 322.60,213.80 328.46,213.67 332.37,213.59 333.67,213.56 339.54,213.44 344.75,213.34 350.61,213.23 355.83,213.11 361.69,212.96 366.90,212.80 372.77,212.60 377.98,212.40 383.19,212.16 389.06,211.80 391.01,211.64 394.27,211.32 400.13,210.54 405.35,209.63 411.21,208.38 416.42,207.09 422.29,205.48 427.50,203.94 433.36,202.08 437.93,200.57"/>
<polyline fill="none" stroke="#ff7f0e" stroke-width="1.8" stroke-dasharray="5 4" points="86.07,253.75 91.29,253.75 97.15,253.75 102.36,253.75 108.23,253.75 113.44,253.75 119.30,253.75 124.52,253.75 130.38,253.75 135.59,253.75 140.16,253.75 141.46,253.75 144.06,253.75 146.67,253.75 149.93,253.75 151.88,253.69 153.84,253.58 154.49,253.54 157.75,253.25 159.05,253.11 159.70,253.04 160.35,252.96 161.66,252.79 162.96,252.61 163.61,252.51 164.26,252.41 164.91,252.30 165.57,252.19 166.22,252.08 166.87,251.96 167.52,251.84 168.17,251.72 168.82,251.59 169.48,251.45 170.13,251.32 170.78,251.17 171.43,251.02 172.08,250.87 172.73,250.72 173.39,250.55 174.04,250.39 174.69,250.22 175.34,250.04 179.90,248.72 185.11,247.04 190.98,245.08 196.19,243.36 202.05,241.46 203.36,241.04 207.27,239.80 212.48,238.20 218.34,236.45 223.56,234.97 229.42,233.38 234.63,232.06 240.50,230.69 245.71,229.59 251.57,228.50 256.79,227.67 262.65,226.94 265.91,226.61 267.86,226.44 273.08,226.09 275.03,225.98 277.64,225.86 278.94,225.81 279.59,225.78 284.15,225.62 290.02,225.46 295.23,225.33 301.09,225.21 306.31,225.12 308.91,225.07 312.17,225.02 317.38,224.94 320.64,224.90 322.60,224.87 328.46,224.79 332.37,224.74 333.67,224.72 339.54,224.63 344.75,224.54 350.61,224.42 355.83,224.28 361.69,224.06 366.90,223.75 372.77,223.25 377.98,222.66 383.19,221.93 389.06,220.98 391.01,220.63 394.27,220.02 400.13,218.83 405.35,217.70 411.21,216.34 416.42,215.07 422.29,213.63 427.50,212.34 433.36,210.90 437.93,209.78"/>
<polyline fill="none" stroke="#2ca02c" stroke-width="1.8" stroke-dasharray="2 4" points="86.07,266.32 91.29,266.32 97.15,266.32 102.36,266.32 108.23,266.32 113.44,266.32 119.30,266.32 124.52,266.32 130.38,266.32 135.59,266.32 140.16,266.32 141.46,266.24 144.06,266.05 146.67,265.83 149.93,265.48 151.88,265.24 153.84,264.96 154.49,264.86 157.75,264.27 159.05,264.00 159.70,263.85 160.35,263.70 161.66,263.37 162.96,263.01 163.61,262.82 164.26,262.62 164.91,262.41 165.57,262.19 166.22,261.96 166.87,261.73 167.52,261.48 168.17,261.22 168.82,260.96 169.48,260.68 170.13,260.40 170.78,260.10 171.43,259.79 172.08,259.48 172.73,259.15 173.39,258.82 174.04,258.48 174.69,258.13 175.34,257.77 179.90,255.14 185.11,252.02 190.98,248.49 196.19,245.34 202.05,241.82 203.36,241.04 207.27,238.70 212.48,235.62 218.34,232.19 223.56,229.21 229.42,225.93 234.63,223.10 240.50,220.03 245.71,217.43 251.57,214.67 256.79,212.38 262.65,210.01 265.91,208.80 267.86,208.12 273.08,206.44 275.03,205.87 277.64,205.17 278.94,204.84 279.59,204.69 284.15,203.69 290.02,202.67 295.23,201.99 301.09,201.42 306.31,201.04 308.91,200.88 312.17,200.70 317.38,200.45 320.64,200.31 322.60,200.23 328.46,200.01 332.37,199.88 333.67,199.84 339.54,199.66 344.75,199.51 350.61,199.35 355.83,199.22 361.69,199.07 366.90,198.92 372.77,198.72 377.98,198.51 383.19,198.27 389.06,197.97 391.01,197.86 394.27,197.68 400.13,197.34 405.35,196.99 411.21,196.47 416.42,195.78 422.29,194.66 427.50,193.34 433.36,191.55 437.93,189.97"/>
<polyline fill="none" stroke="#1f77b4" stroke-width="1.1" stroke-dasharray="6 4" points="72.00,88.24 76.81,91.19 81.62,94.15 86.43,97.10 91.24,100.06 96.05,103.02 100.86,105.97 105.67,108.93 110.48,111.88 115.29,114.84 120.10,117.80 124.91,120.75 129.72,123.71 134.53,126.66 139.34,129.62 144.15,132.58 148.96,135.53 153.77,138.49 158.58,141.44 163.39,144.40 168.20,147.36 173.01,150.31 177.82,153.27 182.63,156.23 187.44,159.18 192.25,162.14 197.06,165.09 201.87,168.05 206.68,171.01 211.49,173.96 216.30,176.92 221.11,179.87 225.92,182.83 230.73,185.79 235.54,188.74 240.35,191.70 245.16,194.65 249.97,197.61 254.78,200.57 259.59,203.52 264.41,206.48 269.22,209.43 274.03,212.39 278.84,215.35 283.65,218.30 288.46,221.26 293.27,224.21 298.08,227.17 302.89,230.13 307.70,233.08 312.51,236.04 317.32,238.99 322.13,241.95 326.94,244.91 331.75,247.86 336.56,250.82 341.37,253.77 346.18,256.73 350.99,259.69 355.80,262.64 360.61,265.60 365.42,268.56 370.23,271.51 375.04,274.47 379.85,277.42 384.66,280.38 389.47,283.34 394.28,286.29 399.09,289.25 403.90,292.20 408.71,295.16 413.52,298.12 418.33,301.07 423.14,304.03 427.95,306.98 432.76,309.94 437.57,312.90 442.38,315.85 447.19,318.81 452.00,321.76"/>
<circle cx="279.70" cy="215.88" r="4.6" fill="#ffffff" stroke="#1f77b4" stroke-width="2"/>
<text x="285.70" y="209.88" font-family="Arial, sans-serif" font-size="10" fill="#1f77b4">typ 93.2 ohm</text>
<polyline fill="none" stroke="#ff7f0e" stroke-width="1.1" stroke-dasharray="6 4" points="72.00,95.44 76.81,98.40 81.62,101.36 86.43,104.31 91.24,107.27 96.05,110.22 100.86,113.18 105.67,116.14 110.48,119.09 115.29,122.05 120.10,125.00 124.91,127.96 129.72,130.92 134.53,133.87 139.34,136.83 144.15,139.78 148.96,142.74 153.77,145.70 158.58,148.65 163.39,151.61 168.20,154.56 173.01,157.52 177.82,160.48 182.63,163.43 187.44,166.39 192.25,169.34 197.06,172.30 201.87,175.26 206.68,178.21 211.49,181.17 216.30,184.13 221.11,187.08 225.92,190.04 230.73,192.99 235.54,195.95 240.35,198.91 245.16,201.86 249.97,204.82 254.78,207.77 259.59,210.73 264.41,213.69 269.22,216.64 274.03,219.60 278.84,222.55 283.65,225.51 288.46,228.47 293.27,231.42 298.08,234.38 302.89,237.33 307.70,240.29 312.51,243.25 317.32,246.20 322.13,249.16 326.94,252.11 331.75,255.07 336.56,258.03 341.37,260.98 346.18,263.94 350.99,266.89 355.80,269.85 360.61,272.81 365.42,275.76 370.23,278.72 375.04,281.67 379.85,284.63 384.66,287.59 389.47,290.54 394.28,293.50 399.09,296.46 403.90,299.41 408.71,302.37 413.52,305.32 418.33,308.28 423.14,311.24 427.95,314.19 432.76,317.15 437.57,320.10 442.38,323.06 447.19,326.02 452.00,328.97"/>
<circle cx="283.85" cy="225.63" r="4.6" fill="#ffffff" stroke="#ff7f0e" stroke-width="2"/>
<text x="289.85" y="219.63" font-family="Arial, sans-serif" font-size="10" fill="#ff7f0e">min 161 ohm</text>
<polyline fill="none" stroke="#2ca02c" stroke-width="1.1" stroke-dasharray="6 4" points="72.00,81.03 76.81,83.98 81.62,86.94 86.43,89.90 91.24,92.85 96.05,95.81 100.86,98.76 105.67,101.72 110.48,104.68 115.29,107.63 120.10,110.59 124.91,113.54 129.72,116.50 134.53,119.46 139.34,122.41 144.15,125.37 148.96,128.33 153.77,131.28 158.58,134.24 163.39,137.19 168.20,140.15 173.01,143.11 177.82,146.06 182.63,149.02 187.44,151.97 192.25,154.93 197.06,157.89 201.87,160.84 206.68,163.80 211.49,166.75 216.30,169.71 221.11,172.67 225.92,175.62 230.73,178.58 235.54,181.53 240.35,184.49 245.16,187.45 249.97,190.40 254.78,193.36 259.59,196.31 264.41,199.27 269.22,202.23 274.03,205.18 278.84,208.14 283.65,211.09 288.46,214.05 293.27,217.01 298.08,219.96 302.89,222.92 307.70,225.87 312.51,228.83 317.32,231.79 322.13,234.74 326.94,237.70 331.75,240.66 336.56,243.61 341.37,246.57 346.18,249.52 350.99,252.48 355.80,255.44 360.61,258.39 365.42,261.35 370.23,264.30 375.04,267.26 379.85,270.22 384.66,273.17 389.47,276.13 394.28,279.08 399.09,282.04 403.90,285.00 408.71,287.95 413.52,290.91 418.33,293.86 423.14,296.82 427.95,299.78 432.76,302.73 437.57,305.69 442.38,308.64 447.19,311.60 452.00,314.56"/>
<circle cx="275.12" cy="205.85" r="4.6" fill="#ffffff" stroke="#2ca02c" stroke-width="2"/>
<text x="281.12" y="199.85" font-family="Arial, sans-serif" font-size="10" fill="#2ca02c">max 62.7 ohm</text>
<line x1="82.00" y1="80.00" x2="104.00" y2="80.00" stroke="#1f77b4" stroke-width="2"/>
<text x="110.00" y="84.00" font-family="Arial, sans-serif" font-size="11">typ</text>
<line x1="82.00" y1="97.00" x2="104.00" y2="97.00" stroke="#ff7f0e" stroke-width="2" stroke-dasharray="5 4"/>
<text x="110.00" y="101.00" font-family="Arial, sans-serif" font-size="11">min</text>
<line x1="82.00" y1="114.00" x2="104.00" y2="114.00" stroke="#2ca02c" stroke-width="2" stroke-dasharray="2 4"/>
<text x="110.00" y="118.00" font-family="Arial, sans-serif" font-size="11">max</text>
<text x="262.00" y="386.00" text-anchor="middle" font-family="Arial, sans-serif" font-size="11">Output voltage (V)</text>
<text transform="translate(22.00 205.00) rotate(-90)" text-anchor="middle" font-family="Arial, sans-serif" font-size="11">Current (mA)</text>
<rect x="492.00" y="62.00" width="380.00" height="286.00" fill="#fbfbfb" stroke="#c8c8c8"/>
<text x="500.00" y="50.00" font-family="Arial, sans-serif" font-size="13" font-weight="700">[Pullup] Rload to GND</text>
<line x1="492.00" y1="62.00" x2="492.00" y2="348.00" stroke="#ececec"/>
<text x="492.00" y="366.00" text-anchor="middle" font-family="Arial, sans-serif" font-size="10">-2</text>
<line x1="587.00" y1="62.00" x2="587.00" y2="348.00" stroke="#ececec"/>
<text x="587.00" y="366.00" text-anchor="middle" font-family="Arial, sans-serif" font-size="10">-0.558</text>
<line x1="682.00" y1="62.00" x2="682.00" y2="348.00" stroke="#ececec"/>
<text x="682.00" y="366.00" text-anchor="middle" font-family="Arial, sans-serif" font-size="10">0.9</text>
<line x1="777.00" y1="62.00" x2="777.00" y2="348.00" stroke="#ececec"/>
<text x="777.00" y="366.00" text-anchor="middle" font-family="Arial, sans-serif" font-size="10">2.4</text>
<line x1="872.00" y1="62.00" x2="872.00" y2="348.00" stroke="#ececec"/>
<text x="872.00" y="366.00" text-anchor="middle" font-family="Arial, sans-serif" font-size="10">3.8</text>
<line x1="492.00" y1="348.00" x2="872.00" y2="348.00" stroke="#ececec"/>
<text x="485.00" y="352.00" text-anchor="end" font-family="Arial, sans-serif" font-size="10">-89</text>
<line x1="492.00" y1="276.50" x2="872.00" y2="276.50" stroke="#ececec"/>
<text x="485.00" y="280.50" text-anchor="end" font-family="Arial, sans-serif" font-size="10">-54</text>
<line x1="492.00" y1="205.00" x2="872.00" y2="205.00" stroke="#ececec"/>
<text x="485.00" y="209.00" text-anchor="end" font-family="Arial, sans-serif" font-size="10">-18</text>
<line x1="492.00" y1="133.50" x2="872.00" y2="133.50" stroke="#ececec"/>
<text x="485.00" y="137.50" text-anchor="end" font-family="Arial, sans-serif" font-size="10">18</text>
<line x1="492.00" y1="62.00" x2="872.00" y2="62.00" stroke="#ececec"/>
<text x="485.00" y="66.00" text-anchor="end" font-family="Arial, sans-serif" font-size="10">53</text>
<line x1="623.36" y1="62" x2="623.36" y2="348" stroke="#777" stroke-dasharray="4 4"/>
<line x1="492.0" y1="168.96" x2="872.0" y2="168.96" stroke="#777" stroke-dasharray="4 4"/>
<polyline fill="none" stroke="#1f77b4" stroke-width="1.8" points="506.07,120.86 506.73,121.05 508.03,121.45 508.68,121.65 509.98,122.06 511.29,122.49 515.85,124.04 517.15,124.50 519.76,125.44 520.41,125.67 521.06,125.91 521.71,126.15 522.36,126.40 523.02,126.64 523.67,126.88 524.32,127.13 524.97,127.38 525.62,127.62 526.27,127.87 527.58,128.37 528.88,128.88 530.18,129.39 532.79,130.41 534.09,130.93 539.30,133.04 542.56,134.37 544.52,135.18 550.38,137.63 555.59,139.84 561.46,142.35 566.67,144.60 571.88,146.86 573.19,147.43 577.75,149.42 582.96,151.68 588.82,154.22 594.04,156.47 599.90,158.97 605.11,161.19 610.98,163.69 616.19,165.91 617.49,166.46 622.05,168.41 623.36,168.96 627.27,170.61 632.48,172.76 638.34,175.13 643.56,177.17 649.42,179.40 654.63,181.31 660.50,183.37 665.71,185.12 671.57,186.99 676.79,188.54 680.70,189.64 682.65,190.17 687.86,191.48 689.17,191.79 693.08,192.68 696.33,193.36 698.94,193.86 699.59,193.98 700.24,194.10 703.50,194.67 704.81,194.88 709.37,195.55 710.02,195.64 715.23,196.28 721.09,196.88 726.31,197.32 728.91,197.51 732.17,197.74 737.38,198.05 740.64,198.23 742.60,198.33 748.46,198.61 752.37,198.78 753.67,198.83 759.54,199.06 764.10,199.19 765.40,199.21 770.61,199.22 775.83,199.22 779.09,199.22 780.39,199.22 781.69,199.22 786.90,199.22 792.77,199.22 797.98,199.22 803.19,199.22 809.06,199.22 814.27,199.22 820.13,199.22 825.35,199.22 831.21,199.22 836.42,199.22 842.29,199.22 847.50,199.22 853.36,199.22 857.93,199.22"/>
<polyline fill="none" stroke="#ff7f0e" stroke-width="1.8" stroke-dasharray="5 4" points="506.07,139.18 506.73,139.18 508.03,139.18 508.68,139.18 509.98,139.18 511.29,139.18 515.85,139.18 517.15,139.18 519.76,139.18 520.41,139.19 521.06,139.22 521.71,139.26 522.36,139.31 523.02,139.38 523.67,139.46 524.32,139.55 524.97,139.64 525.62,139.75 526.27,139.85 527.58,140.09 528.88,140.34 530.18,140.61 532.79,141.19 534.09,141.50 539.30,142.83 542.56,143.71 544.52,144.26 550.38,145.97 555.59,147.54 561.46,149.36 566.67,151.01 571.88,152.68 573.19,153.09 577.75,154.57 582.96,156.25 588.82,158.14 594.04,159.81 599.90,161.67 605.11,163.31 610.98,165.13 616.19,166.75 617.49,167.15 622.05,168.56 623.36,168.96 627.27,170.15 632.48,171.68 638.34,173.33 643.56,174.74 649.42,176.25 654.63,177.52 660.50,178.86 665.71,179.96 671.57,181.09 676.79,181.98 680.70,182.58 682.65,182.85 687.86,183.50 689.17,183.64 693.08,184.03 696.33,184.30 698.94,184.50 699.59,184.54 700.24,184.59 703.50,184.79 704.81,184.87 709.37,185.10 710.02,185.13 715.23,185.35 721.09,185.56 726.31,185.72 728.91,185.80 732.17,185.88 737.38,186.01 740.64,186.09 742.60,186.13 748.46,186.22 752.37,186.23 753.67,186.23 759.54,186.23 764.10,186.23 765.40,186.23 770.61,186.23 775.83,186.23 779.09,186.23 780.39,186.23 781.69,186.23 786.90,186.23 792.77,186.23 797.98,186.23 803.19,186.23 809.06,186.23 814.27,186.23 820.13,186.23 825.35,186.23 831.21,186.23 836.42,186.23 842.29,186.23 847.50,186.23 853.36,186.23 857.93,186.23"/>
<polyline fill="none" stroke="#2ca02c" stroke-width="1.8" stroke-dasharray="2 4" points="506.07,105.41 506.73,105.72 508.03,106.35 508.68,106.67 509.98,107.31 511.29,107.95 515.85,110.21 517.15,110.86 519.76,112.17 520.41,112.50 521.06,112.83 521.71,113.16 522.36,113.49 523.02,113.83 523.67,114.16 524.32,114.49 524.97,114.82 525.62,115.16 526.27,115.49 527.58,116.16 528.88,116.84 530.18,117.51 532.79,118.87 534.09,119.55 539.30,122.29 542.56,124.03 544.52,125.07 550.38,128.23 555.59,131.07 561.46,134.29 566.67,137.18 571.88,140.08 573.19,140.81 577.75,143.37 582.96,146.29 588.82,149.57 594.04,152.47 599.90,155.74 605.11,158.66 610.98,161.95 616.19,164.88 617.49,165.61 622.05,168.22 623.36,168.96 627.27,171.19 632.48,174.08 638.34,177.28 643.56,180.06 649.42,183.12 654.63,185.77 660.50,188.64 665.71,191.10 671.57,193.76 676.79,196.01 680.70,197.63 682.65,198.42 687.86,200.43 689.17,200.91 693.08,202.31 696.33,203.42 698.94,204.27 699.59,204.48 700.24,204.68 703.50,205.67 704.81,206.06 709.37,207.32 710.02,207.49 715.23,208.78 721.09,210.05 726.31,211.03 728.91,211.46 732.17,211.96 737.38,212.66 740.64,213.04 742.60,213.26 748.46,213.83 752.37,214.16 753.67,214.27 759.54,214.70 764.10,215.00 765.40,215.08 770.61,215.39 775.83,215.66 779.09,215.77 780.39,215.79 781.69,215.79 786.90,215.79 792.77,215.79 797.98,215.79 803.19,215.79 809.06,215.79 814.27,215.79 820.13,215.79 825.35,215.79 831.21,215.79 836.42,215.79 842.29,215.79 847.50,215.79 853.36,215.79 857.93,215.79"/>
<polyline fill="none" stroke="#1f77b4" stroke-width="1.1" stroke-dasharray="6 4" points="492.00,321.76 496.81,318.81 501.62,315.85 506.43,312.90 511.24,309.94 516.05,306.98 520.86,304.03 525.67,301.07 530.48,298.12 535.29,295.16 540.10,292.20 544.91,289.25 549.72,286.29 554.53,283.34 559.34,280.38 564.15,277.42 568.96,274.47 573.77,271.51 578.58,268.56 583.39,265.60 588.20,262.64 593.01,259.69 597.82,256.73 602.63,253.77 607.44,250.82 612.25,247.86 617.06,244.91 621.87,241.95 626.68,238.99 631.49,236.04 636.30,233.08 641.11,230.13 645.92,227.17 650.73,224.21 655.54,221.26 660.35,218.30 665.16,215.35 669.97,212.39 674.78,209.43 679.59,206.48 684.41,203.52 689.22,200.57 694.03,197.61 698.84,194.65 703.65,191.70 708.46,188.74 713.27,185.79 718.08,182.83 722.89,179.87 727.70,176.92 732.51,173.96 737.32,171.01 742.13,168.05 746.94,165.09 751.75,162.14 756.56,159.18 761.37,156.23 766.18,153.27 770.99,150.31 775.80,147.36 780.61,144.40 785.42,141.44 790.23,138.49 795.04,135.53 799.85,132.58 804.66,129.62 809.47,126.66 814.28,123.71 819.09,120.75 823.90,117.80 828.71,114.84 833.52,111.88 838.33,108.93 843.14,105.97 847.95,103.02 852.76,100.06 857.57,97.10 862.38,94.15 867.19,91.19 872.00,88.24"/>
<circle cx="699.85" cy="194.03" r="4.6" fill="#ffffff" stroke="#1f77b4" stroke-width="2"/>
<text x="705.85" y="188.03" font-family="Arial, sans-serif" font-size="10" fill="#1f77b4">typ 93.8 ohm</text>
<polyline fill="none" stroke="#ff7f0e" stroke-width="1.1" stroke-dasharray="6 4" points="492.00,314.56 496.81,311.60 501.62,308.64 506.43,305.69 511.24,302.73 516.05,299.78 520.86,296.82 525.67,293.86 530.48,290.91 535.29,287.95 540.10,285.00 544.91,282.04 549.72,279.08 554.53,276.13 559.34,273.17 564.15,270.22 568.96,267.26 573.77,264.30 578.58,261.35 583.39,258.39 588.20,255.44 593.01,252.48 597.82,249.52 602.63,246.57 607.44,243.61 612.25,240.66 617.06,237.70 621.87,234.74 626.68,231.79 631.49,228.83 636.30,225.87 641.11,222.92 645.92,219.96 650.73,217.01 655.54,214.05 660.35,211.09 665.16,208.14 669.97,205.18 674.78,202.23 679.59,199.27 684.41,196.31 689.22,193.36 694.03,190.40 698.84,187.45 703.65,184.49 708.46,181.53 713.27,178.58 718.08,175.62 722.89,172.67 727.70,169.71 732.51,166.75 737.32,163.80 742.13,160.84 746.94,157.89 751.75,154.93 756.56,151.97 761.37,149.02 766.18,146.06 770.99,143.11 775.80,140.15 780.61,137.19 785.42,134.24 790.23,131.28 795.04,128.33 799.85,125.37 804.66,122.41 809.47,119.46 814.28,116.50 819.09,113.54 823.90,110.59 828.71,107.63 833.52,104.68 838.33,101.72 843.14,98.76 847.95,95.81 852.76,92.85 857.57,89.90 862.38,86.94 867.19,83.98 872.00,81.03"/>
<circle cx="703.19" cy="184.77" r="4.6" fill="#ffffff" stroke="#ff7f0e" stroke-width="2"/>
<text x="709.19" y="178.77" font-family="Arial, sans-serif" font-size="10" fill="#ff7f0e">min 155 ohm</text>
<polyline fill="none" stroke="#2ca02c" stroke-width="1.1" stroke-dasharray="6 4" points="492.00,328.97 496.81,326.02 501.62,323.06 506.43,320.10 511.24,317.15 516.05,314.19 520.86,311.24 525.67,308.28 530.48,305.32 535.29,302.37 540.10,299.41 544.91,296.46 549.72,293.50 554.53,290.54 559.34,287.59 564.15,284.63 568.96,281.67 573.77,278.72 578.58,275.76 583.39,272.81 588.20,269.85 593.01,266.89 597.82,263.94 602.63,260.98 607.44,258.03 612.25,255.07 617.06,252.11 621.87,249.16 626.68,246.20 631.49,243.25 636.30,240.29 641.11,237.33 645.92,234.38 650.73,231.42 655.54,228.47 660.35,225.51 665.16,222.55 669.97,219.60 674.78,216.64 679.59,213.69 684.41,210.73 689.22,207.77 694.03,204.82 698.84,201.86 703.65,198.91 708.46,195.95 713.27,192.99 718.08,190.04 722.89,187.08 727.70,184.13 732.51,181.17 737.32,178.21 742.13,175.26 746.94,172.30 751.75,169.34 756.56,166.39 761.37,163.43 766.18,160.48 770.99,157.52 775.80,154.56 780.61,151.61 785.42,148.65 790.23,145.70 795.04,142.74 799.85,139.78 804.66,136.83 809.47,133.87 814.28,130.92 819.09,127.96 823.90,125.00 828.71,122.05 833.52,119.09 838.33,116.14 843.14,113.18 847.95,110.22 852.76,107.27 857.57,104.31 862.38,101.36 867.19,98.40 872.00,95.44"/>
<circle cx="696.31" cy="203.41" r="4.6" fill="#ffffff" stroke="#2ca02c" stroke-width="2"/>
<text x="702.31" y="197.41" font-family="Arial, sans-serif" font-size="10" fill="#2ca02c">max 65.1 ohm</text>
<line x1="502.00" y1="80.00" x2="524.00" y2="80.00" stroke="#1f77b4" stroke-width="2"/>
<text x="530.00" y="84.00" font-family="Arial, sans-serif" font-size="11">typ</text>
<line x1="502.00" y1="97.00" x2="524.00" y2="97.00" stroke="#ff7f0e" stroke-width="2" stroke-dasharray="5 4"/>
<text x="530.00" y="101.00" font-family="Arial, sans-serif" font-size="11">min</text>
<line x1="502.00" y1="114.00" x2="524.00" y2="114.00" stroke="#2ca02c" stroke-width="2" stroke-dasharray="2 4"/>
<text x="530.00" y="118.00" font-family="Arial, sans-serif" font-size="11">max</text>
<text x="682.00" y="386.00" text-anchor="middle" font-family="Arial, sans-serif" font-size="11">Vcc-relative table voltage (V)</text>
<text transform="translate(442.00 205.00) rotate(-90)" text-anchor="middle" font-family="Arial, sans-serif" font-size="11">Current (mA)</text>
<rect x="72.00" y="418.00" width="800.00" height="144.00" fill="#ffffff" stroke="#c8c8c8"/>
<text x="82.00" y="436.00" font-family="Arial, sans-serif" font-size="12" font-weight="700">Operating-point summary</text>
<text x="82.00" y="454.00" font-family="Arial, sans-serif" font-size="10" font-weight="700" fill="#333">Table</text>
<text x="174.00" y="454.00" font-family="Arial, sans-serif" font-size="10" font-weight="700" fill="#333">Corner</text>
<text x="242.00" y="454.00" font-family="Arial, sans-serif" font-size="10" font-weight="700" fill="#333">Vout</text>
<text x="332.00" y="454.00" font-family="Arial, sans-serif" font-size="10" font-weight="700" fill="#333">Iop</text>
<text x="422.00" y="454.00" font-family="Arial, sans-serif" font-size="10" font-weight="700" fill="#333">Zout</text>
<text x="512.00" y="454.00" font-family="Arial, sans-serif" font-size="10" font-weight="700" fill="#333">Rseries</text>
<text x="82.00" y="473.00" font-family="Arial, sans-serif" font-size="10" fill="#1f77b4">pulldown</text>
<text x="174.00" y="473.00" font-family="Arial, sans-serif" font-size="10" fill="#1f77b4">typ</text>
<text x="242.00" y="473.00" font-family="Arial, sans-serif" font-size="10" fill="#1f77b4">1.172 V</text>
<text x="332.00" y="473.00" font-family="Arial, sans-serif" font-size="10" fill="#1f77b4">13 mA</text>
<text x="422.00" y="473.00" font-family="Arial, sans-serif" font-size="10" fill="#1f77b4">93.2 ohm</text>
<text x="512.00" y="473.00" font-family="Arial, sans-serif" font-size="10" fill="#1f77b4">-43.2 ohm</text>
<text x="82.00" y="492.00" font-family="Arial, sans-serif" font-size="10" fill="#ff7f0e">pulldown</text>
<text x="174.00" y="492.00" font-family="Arial, sans-serif" font-size="10" fill="#ff7f0e">min</text>
<text x="242.00" y="492.00" font-family="Arial, sans-serif" font-size="10" fill="#ff7f0e">1.235 V</text>
<text x="332.00" y="492.00" font-family="Arial, sans-serif" font-size="10" fill="#ff7f0e">7.7 mA</text>
<text x="422.00" y="492.00" font-family="Arial, sans-serif" font-size="10" fill="#ff7f0e">161 ohm</text>
<text x="512.00" y="492.00" font-family="Arial, sans-serif" font-size="10" fill="#ff7f0e">-111 ohm</text>
<text x="82.00" y="511.00" font-family="Arial, sans-serif" font-size="10" fill="#2ca02c">pulldown</text>
<text x="174.00" y="511.00" font-family="Arial, sans-serif" font-size="10" fill="#2ca02c">max</text>
<text x="242.00" y="511.00" font-family="Arial, sans-serif" font-size="10" fill="#2ca02c">1.101 V</text>
<text x="332.00" y="511.00" font-family="Arial, sans-serif" font-size="10" fill="#2ca02c">18 mA</text>
<text x="422.00" y="511.00" font-family="Arial, sans-serif" font-size="10" fill="#2ca02c">62.7 ohm</text>
<text x="512.00" y="511.00" font-family="Arial, sans-serif" font-size="10" fill="#2ca02c">-12.7 ohm</text>
<text x="82.00" y="530.00" font-family="Arial, sans-serif" font-size="10" fill="#1f77b4">pullup</text>
<text x="174.00" y="530.00" font-family="Arial, sans-serif" font-size="10" fill="#1f77b4">typ</text>
<text x="242.00" y="530.00" font-family="Arial, sans-serif" font-size="10" fill="#1f77b4">0.6261 V</text>
<text x="332.00" y="530.00" font-family="Arial, sans-serif" font-size="10" fill="#1f77b4">-13 mA</text>
<text x="422.00" y="530.00" font-family="Arial, sans-serif" font-size="10" fill="#1f77b4">93.8 ohm</text>
<text x="512.00" y="530.00" font-family="Arial, sans-serif" font-size="10" fill="#1f77b4">-43.8 ohm</text>
<text x="82.00" y="549.00" font-family="Arial, sans-serif" font-size="10" fill="#ff7f0e">pullup</text>
<text x="174.00" y="549.00" font-family="Arial, sans-serif" font-size="10" fill="#ff7f0e">min</text>
<text x="242.00" y="549.00" font-family="Arial, sans-serif" font-size="10" fill="#ff7f0e">0.3948 V</text>
<text x="332.00" y="549.00" font-family="Arial, sans-serif" font-size="10" fill="#ff7f0e">-7.9 mA</text>
<text x="422.00" y="549.00" font-family="Arial, sans-serif" font-size="10" fill="#ff7f0e">155 ohm</text>
<text x="512.00" y="549.00" font-family="Arial, sans-serif" font-size="10" fill="#ff7f0e">-105 ohm</text>
<text x="82.00" y="568.00" font-family="Arial, sans-serif" font-size="10" fill="#2ca02c">pullup</text>
<text x="174.00" y="568.00" font-family="Arial, sans-serif" font-size="10" fill="#2ca02c">max</text>
<text x="242.00" y="568.00" font-family="Arial, sans-serif" font-size="10" fill="#2ca02c">0.8604 V</text>
<text x="332.00" y="568.00" font-family="Arial, sans-serif" font-size="10" fill="#2ca02c">-17 mA</text>
<text x="422.00" y="568.00" font-family="Arial, sans-serif" font-size="10" fill="#2ca02c">65.1 ohm</text>
<text x="512.00" y="568.00" font-family="Arial, sans-serif" font-size="10" fill="#2ca02c">-15.1 ohm</text>
</svg>