<svg xmlns="http://www.w3.org/2000/svg" width="900" height="620" viewBox="0 0 900 620">
<rect width="100%" height="100%" fill="#ffffff"/>
<text x="72" y="26" font-family="Arial, sans-serif" font-size="16" font-weight="700">E34_GPIO_SPI_1V1_01 Zout Load-Line Curves</text>
<text x="72" y="45" font-family="Arial, sans-serif" font-size="11" fill="#555">Rload=50 ohm; solid=device I-V, dashed=load line, circles=operating points</text>
<rect x="72.00" y="62.00" width="380.00" height="286.00" fill="#fbfbfb" stroke="#c8c8c8"/>
<text x="80.00" y="50.00" font-family="Arial, sans-serif" font-size="13" font-weight="700">[Pulldown] Rload to Vdd</text>
<line x1="72.00" y1="62.00" x2="72.00" y2="348.00" stroke="#ececec"/>
<text x="72.00" y="366.00" text-anchor="middle" font-family="Arial, sans-serif" font-size="10">-1.2</text>
<line x1="167.00" y1="62.00" x2="167.00" y2="348.00" stroke="#ececec"/>
<text x="167.00" y="366.00" text-anchor="middle" font-family="Arial, sans-serif" font-size="10">-0.341</text>
<line x1="262.00" y1="62.00" x2="262.00" y2="348.00" stroke="#ececec"/>
<text x="262.00" y="366.00" text-anchor="middle" font-family="Arial, sans-serif" font-size="10">0.55</text>
<line x1="357.00" y1="62.00" x2="357.00" y2="348.00" stroke="#ececec"/>
<text x="357.00" y="366.00" text-anchor="middle" font-family="Arial, sans-serif" font-size="10">1.4</text>
<line x1="452.00" y1="62.00" x2="452.00" y2="348.00" stroke="#ececec"/>
<text x="452.00" y="366.00" text-anchor="middle" font-family="Arial, sans-serif" font-size="10">2.3</text>
<line x1="72.00" y1="348.00" x2="452.00" y2="348.00" stroke="#ececec"/>
<text x="65.00" y="352.00" text-anchor="end" font-family="Arial, sans-serif" font-size="10">-52</text>
<line x1="72.00" y1="276.50" x2="452.00" y2="276.50" stroke="#ececec"/>
<text x="65.00" y="280.50" text-anchor="end" font-family="Arial, sans-serif" font-size="10">-25</text>
<line x1="72.00" y1="205.00" x2="452.00" y2="205.00" stroke="#ececec"/>
<text x="65.00" y="209.00" text-anchor="end" font-family="Arial, sans-serif" font-size="10">2.5</text>
<line x1="72.00" y1="133.50" x2="452.00" y2="133.50" stroke="#ececec"/>
<text x="65.00" y="137.50" text-anchor="end" font-family="Arial, sans-serif" font-size="10">30</text>
<line x1="72.00" y1="62.00" x2="452.00" y2="62.00" stroke="#ececec"/>
<text x="65.00" y="66.00" text-anchor="end" font-family="Arial, sans-serif" font-size="10">57</text>
<line x1="203.36" y1="62" x2="203.36" y2="348" stroke="#777" stroke-dasharray="4 4"/>
<line x1="72.0" y1="211.50" x2="452.0" y2="211.50" stroke="#777" stroke-dasharray="4 4"/>
<polyline fill="none" stroke="#1f77b4" stroke-width="1.8" points="86.07,290.73 91.41,290.73 96.74,290.73 103.13,290.73 108.46,290.73 110.60,290.73 111.66,290.73 112.73,290.73 113.80,290.73 114.86,290.73 115.93,290.62 116.99,290.43 118.06,290.16 119.13,289.84 120.19,289.48 121.26,289.09 122.33,288.66 123.39,288.21 124.46,287.74 125.52,287.25 126.59,286.73 129.79,285.06 136.19,281.11 138.32,279.61 139.38,278.82 140.45,278.01 141.52,277.17 142.58,276.31 143.65,275.42 144.72,274.51 145.78,273.58 146.85,272.62 147.91,271.64 148.98,270.63 150.05,269.61 151.11,268.56 152.18,267.49 157.51,261.89 162.84,255.93 169.24,248.53 174.57,242.32 179.90,236.17 185.23,230.14 190.56,224.30 195.89,218.73 202.29,212.49 203.36,211.50 207.62,207.73 212.95,203.44 218.29,199.64 223.62,196.37 224.68,195.78 226.81,194.67 228.95,193.65 231.08,192.71 235.34,191.09 240.68,189.54 246.01,188.46 247.07,188.29 251.34,187.74 256.67,187.26 263.07,186.85 268.40,186.57 270.53,186.47 273.73,186.32 279.06,186.09 284.39,185.88 285.46,185.84 289.72,185.69 296.12,185.47 301.45,185.29 306.78,185.12 308.91,185.06 312.11,184.96 317.44,184.81 320.64,184.71 322.77,184.65 329.17,184.48 332.37,184.39 334.50,184.33 335.57,184.31 339.83,184.19 345.16,184.06 350.50,183.92 355.83,183.78 362.22,183.59 367.56,183.39 372.89,183.08 378.22,182.60 383.55,181.91 388.88,180.94 395.28,179.36 400.61,177.67 405.94,175.64 411.27,173.28 416.60,170.59 421.93,167.61 428.33,163.66 433.66,160.08 437.93,157.05"/>
<polyline fill="none" stroke="#ff7f0e" stroke-width="1.8" stroke-dasharray="5 4" points="86.07,261.79 91.41,261.79 96.74,261.79 103.13,261.79 108.46,261.79 110.60,261.79 111.66,261.79 112.73,261.79 113.80,261.79 114.86,261.79 115.93,261.79 116.99,261.79 118.06,261.79 119.13,261.79 120.19,261.79 121.26,261.78 122.33,261.67 123.39,261.49 124.46,261.25 125.52,260.96 126.59,260.63 129.79,259.45 136.19,256.53 138.32,255.43 139.38,254.86 140.45,254.27 141.52,253.67 142.58,253.05 143.65,252.42 144.72,251.77 145.78,251.12 146.85,250.45 147.91,249.76 148.98,249.07 150.05,248.36 151.11,247.64 152.18,246.91 157.51,243.11 162.84,239.12 169.24,234.23 174.57,230.17 179.90,226.23 185.23,222.46 190.56,218.92 195.89,215.63 202.29,212.06 203.36,211.50 207.62,209.42 212.95,207.09 218.29,205.09 223.62,203.41 224.68,203.11 226.81,202.56 228.95,202.06 231.08,201.60 235.34,200.85 240.68,200.16 246.01,199.72 247.07,199.72 251.34,199.72 256.67,199.72 263.07,199.72 268.40,199.72 270.53,199.72 273.73,199.72 279.06,199.72 284.39,199.72 285.46,199.72 289.72,199.72 296.12,199.72 301.45,199.72 306.78,199.72 308.91,199.72 312.11,199.72 317.44,199.72 320.64,199.72 322.77,199.72 329.17,199.72 332.37,199.72 334.50,199.72 335.57,199.56 339.83,197.37 345.16,194.53 350.50,191.57 355.83,188.48 362.22,184.61 367.56,181.24 372.89,177.74 378.22,174.12 383.55,170.38 388.88,166.51 395.28,161.70 400.61,157.56 405.94,153.31 411.27,148.95 416.60,144.49 421.93,140.02 428.33,134.66 433.66,130.19 437.93,126.61"/>
<polyline fill="none" stroke="#2ca02c" stroke-width="1.8" stroke-dasharray="2 4" points="86.07,320.32 91.41,320.32 96.74,320.32 103.13,320.32 108.46,320.32 110.60,320.32 111.66,320.21 112.73,320.01 113.80,319.75 114.86,319.44 115.93,319.11 116.99,318.75 118.06,318.37 119.13,317.97 120.19,317.55 121.26,317.11 122.33,316.65 123.39,316.18 124.46,315.68 125.52,315.16 126.59,314.62 129.79,312.86 136.19,308.58 138.32,306.89 139.38,306.00 140.45,305.06 141.52,304.09 142.58,303.09 143.65,302.04 144.72,300.95 145.78,299.83 146.85,298.67 147.91,297.47 148.98,296.23 150.05,294.95 151.11,293.64 152.18,292.29 157.51,285.07 162.84,277.20 169.24,267.19 174.57,258.56 179.90,249.77 185.23,240.89 190.56,232.02 195.89,223.27 202.29,213.14 203.36,211.50 207.62,205.17 212.95,197.80 218.29,191.12 223.62,185.24 224.68,184.16 226.81,182.11 228.95,180.20 231.08,178.43 235.34,175.29 240.68,172.12 246.01,169.72 247.07,169.33 251.34,168.01 256.67,166.80 263.07,165.81 268.40,165.20 270.53,164.99 273.73,164.70 279.06,164.27 284.39,163.88 285.46,163.80 289.72,163.52 296.12,163.12 301.45,162.81 306.78,162.52 308.91,162.40 312.11,162.24 317.44,161.96 320.64,161.80 322.77,161.70 329.17,161.39 332.37,161.25 334.50,161.15 335.57,161.10 339.83,160.91 345.16,160.67 350.50,160.44 355.83,160.21 362.22,159.94 367.56,159.72 372.89,159.49 378.22,159.22 383.55,158.85 388.88,158.28 395.28,157.19 400.61,155.83 405.94,153.99 411.27,151.63 416.60,148.76 421.93,145.43 428.33,140.88 433.66,136.71 437.93,133.15"/>
<polyline fill="none" stroke="#1f77b4" stroke-width="1.1" stroke-dasharray="6 4" points="72.00,88.52 76.81,90.90 81.62,93.28 86.43,95.65 91.24,98.03 96.05,100.41 100.86,102.79 105.67,105.17 110.48,107.55 115.29,109.93 120.10,112.31 124.91,114.69 129.72,117.07 134.53,119.45 139.34,121.83 144.15,124.21 148.96,126.59 153.77,128.96 158.58,131.34 163.39,133.72 168.20,136.10 173.01,138.48 177.82,140.86 182.63,143.24 187.44,145.62 192.25,148.00 197.06,150.38 201.87,152.76 206.68,155.14 211.49,157.52 216.30,159.89 221.11,162.27 225.92,164.65 230.73,167.03 235.54,169.41 240.35,171.79 245.16,174.17 249.97,176.55 254.78,178.93 259.59,181.31 264.41,183.69 269.22,186.07 274.03,188.45 278.84,190.83 283.65,193.20 288.46,195.58 293.27,197.96 298.08,200.34 302.89,202.72 307.70,205.10 312.51,207.48 317.32,209.86 322.13,212.24 326.94,214.62 331.75,217.00 336.56,219.38 341.37,221.76 346.18,224.13 350.99,226.51 355.80,228.89 360.61,231.27 365.42,233.65 370.23,236.03 375.04,238.41 379.85,240.79 384.66,243.17 389.47,245.55 394.28,247.93 399.09,250.31 403.90,252.69 408.71,255.06 413.52,257.44 418.33,259.82 423.14,262.20 427.95,264.58 432.76,266.96 437.57,269.34 442.38,271.72 447.19,274.10 452.00,276.48"/>
<circle cx="270.07" cy="186.49" r="4.6" fill="#ffffff" stroke="#1f77b4" stroke-width="2"/>
<text x="276.07" y="180.49" font-family="Arial, sans-serif" font-size="10" fill="#1f77b4">typ 66 ohm</text>
<polyline fill="none" stroke="#ff7f0e" stroke-width="1.1" stroke-dasharray="6 4" points="72.00,94.32 76.81,96.70 81.62,99.08 86.43,101.46 91.24,103.84 96.05,106.21 100.86,108.59 105.67,110.97 110.48,113.35 115.29,115.73 120.10,118.11 124.91,120.49 129.72,122.87 134.53,125.25 139.34,127.63 144.15,130.01 148.96,132.39 153.77,134.77 158.58,137.14 163.39,139.52 168.20,141.90 173.01,144.28 177.82,146.66 182.63,149.04 187.44,151.42 192.25,153.80 197.06,156.18 201.87,158.56 206.68,160.94 211.49,163.32 216.30,165.70 221.11,168.08 225.92,170.45 230.73,172.83 235.54,175.21 240.35,177.59 245.16,179.97 249.97,182.35 254.78,184.73 259.59,187.11 264.41,189.49 269.22,191.87 274.03,194.25 278.84,196.63 283.65,199.01 288.46,201.38 293.27,203.76 298.08,206.14 302.89,208.52 307.70,210.90 312.51,213.28 317.32,215.66 322.13,218.04 326.94,220.42 331.75,222.80 336.56,225.18 341.37,227.56 346.18,229.94 350.99,232.32 355.80,234.69 360.61,237.07 365.42,239.45 370.23,241.83 375.04,244.21 379.85,246.59 384.66,248.97 389.47,251.35 394.28,253.73 399.09,256.11 403.90,258.49 408.71,260.87 413.52,263.25 418.33,265.62 423.14,268.00 427.95,270.38 432.76,272.76 437.57,275.14 442.38,277.52 447.19,279.90 452.00,282.28"/>
<circle cx="285.08" cy="199.72" r="4.6" fill="#ffffff" stroke="#ff7f0e" stroke-width="2"/>
<text x="291.08" y="193.72" font-family="Arial, sans-serif" font-size="10" fill="#ff7f0e">min 171 ohm</text>
<polyline fill="none" stroke="#2ca02c" stroke-width="1.1" stroke-dasharray="6 4" points="72.00,82.72 76.81,85.10 81.62,87.47 86.43,89.85 91.24,92.23 96.05,94.61 100.86,96.99 105.67,99.37 110.48,101.75 115.29,104.13 120.10,106.51 124.91,108.89 129.72,111.27 134.53,113.65 139.34,116.03 144.15,118.40 148.96,120.78 153.77,123.16 158.58,125.54 163.39,127.92 168.20,130.30 173.01,132.68 177.82,135.06 182.63,137.44 187.44,139.82 192.25,142.20 197.06,144.58 201.87,146.96 206.68,149.33 211.49,151.71 216.30,154.09 221.11,156.47 225.92,158.85 230.73,161.23 235.54,163.61 240.35,165.99 245.16,168.37 249.97,170.75 254.78,173.13 259.59,175.51 264.41,177.89 269.22,180.27 274.03,182.64 278.84,185.02 283.65,187.40 288.46,189.78 293.27,192.16 298.08,194.54 302.89,196.92 307.70,199.30 312.51,201.68 317.32,204.06 322.13,206.44 326.94,208.82 331.75,211.20 336.56,213.57 341.37,215.95 346.18,218.33 350.99,220.71 355.80,223.09 360.61,225.47 365.42,227.85 370.23,230.23 375.04,232.61 379.85,234.99 384.66,237.37 389.47,239.75 394.28,242.13 399.09,244.51 403.90,246.88 408.71,249.26 413.52,251.64 418.33,254.02 423.14,256.40 427.95,258.78 432.76,261.16 437.57,263.54 442.38,265.92 447.19,268.30 452.00,270.68"/>
<circle cx="247.10" cy="169.32" r="4.6" fill="#ffffff" stroke="#2ca02c" stroke-width="2"/>
<text x="253.10" y="163.32" font-family="Arial, sans-serif" font-size="10" fill="#2ca02c">max 25.6 ohm</text>
<line x1="82.00" y1="80.00" x2="104.00" y2="80.00" stroke="#1f77b4" stroke-width="2"/>
<text x="110.00" y="84.00" font-family="Arial, sans-serif" font-size="11">typ</text>
<line x1="82.00" y1="97.00" x2="104.00" y2="97.00" stroke="#ff7f0e" stroke-width="2" stroke-dasharray="5 4"/>
<text x="110.00" y="101.00" font-family="Arial, sans-serif" font-size="11">min</text>
<line x1="82.00" y1="114.00" x2="104.00" y2="114.00" stroke="#2ca02c" stroke-width="2" stroke-dasharray="2 4"/>
<text x="110.00" y="118.00" font-family="Arial, sans-serif" font-size="11">max</text>
<text x="262.00" y="386.00" text-anchor="middle" font-family="Arial, sans-serif" font-size="11">Output voltage (V)</text>
<text transform="translate(22.00 205.00) rotate(-90)" text-anchor="middle" font-family="Arial, sans-serif" font-size="11">Current (mA)</text>
<rect x="492.00" y="62.00" width="380.00" height="286.00" fill="#fbfbfb" stroke="#c8c8c8"/>
<text x="500.00" y="50.00" font-family="Arial, sans-serif" font-size="13" font-weight="700">[Pullup] Rload to GND</text>
<line x1="492.00" y1="62.00" x2="492.00" y2="348.00" stroke="#ececec"/>
<text x="492.00" y="366.00" text-anchor="middle" font-family="Arial, sans-serif" font-size="10">-1.2</text>
<line x1="587.00" y1="62.00" x2="587.00" y2="348.00" stroke="#ececec"/>
<text x="587.00" y="366.00" text-anchor="middle" font-family="Arial, sans-serif" font-size="10">-0.341</text>
<line x1="682.00" y1="62.00" x2="682.00" y2="348.00" stroke="#ececec"/>
<text x="682.00" y="366.00" text-anchor="middle" font-family="Arial, sans-serif" font-size="10">0.55</text>
<line x1="777.00" y1="62.00" x2="777.00" y2="348.00" stroke="#ececec"/>
<text x="777.00" y="366.00" text-anchor="middle" font-family="Arial, sans-serif" font-size="10">1.4</text>
<line x1="872.00" y1="62.00" x2="872.00" y2="348.00" stroke="#ececec"/>
<text x="872.00" y="366.00" text-anchor="middle" font-family="Arial, sans-serif" font-size="10">2.3</text>
<line x1="492.00" y1="348.00" x2="872.00" y2="348.00" stroke="#ececec"/>
<text x="485.00" y="352.00" text-anchor="end" font-family="Arial, sans-serif" font-size="10">-58</text>
<line x1="492.00" y1="276.50" x2="872.00" y2="276.50" stroke="#ececec"/>
<text x="485.00" y="280.50" text-anchor="end" font-family="Arial, sans-serif" font-size="10">-27</text>
<line x1="492.00" y1="205.00" x2="872.00" y2="205.00" stroke="#ececec"/>
<text x="485.00" y="209.00" text-anchor="end" font-family="Arial, sans-serif" font-size="10">3.6</text>
<line x1="492.00" y1="133.50" x2="872.00" y2="133.50" stroke="#ececec"/>
<text x="485.00" y="137.50" text-anchor="end" font-family="Arial, sans-serif" font-size="10">34</text>
<line x1="492.00" y1="62.00" x2="872.00" y2="62.00" stroke="#ececec"/>
<text x="485.00" y="66.00" text-anchor="end" font-family="Arial, sans-serif" font-size="10">65</text>
<line x1="623.36" y1="62" x2="623.36" y2="348" stroke="#777" stroke-dasharray="4 4"/>
<line x1="492.0" y1="213.34" x2="872.0" y2="213.34" stroke="#777" stroke-dasharray="4 4"/>
<polyline fill="none" stroke="#1f77b4" stroke-width="1.8" points="506.07,118.86 511.41,124.13 516.74,129.34 523.13,135.49 528.46,140.53 533.80,145.48 539.13,150.34 544.46,155.11 549.79,159.78 556.19,165.25 561.52,169.69 566.85,174.03 572.18,178.27 577.51,182.41 582.84,186.44 589.24,191.14 594.57,194.93 599.90,198.62 605.23,202.19 610.56,205.62 611.63,206.29 613.76,207.62 614.83,208.27 615.89,208.92 622.29,212.73 623.36,213.34 627.62,215.69 628.69,216.24 629.76,216.78 630.82,217.31 631.89,217.83 632.95,218.33 634.02,218.82 638.29,220.67 642.55,222.34 643.62,222.73 644.68,223.10 645.75,223.47 646.81,223.82 647.88,224.16 648.95,224.49 650.01,224.80 651.08,225.11 652.15,225.40 653.21,225.68 654.28,225.95 655.34,226.20 656.41,226.44 657.48,226.67 658.54,226.89 659.61,227.10 660.68,227.30 661.74,227.48 663.87,227.82 664.94,227.97 666.01,228.12 669.21,228.49 671.34,228.71 676.67,229.14 683.07,229.53 684.13,229.59 688.40,229.80 693.73,230.03 699.06,230.24 701.19,230.32 704.39,230.43 707.59,230.54 709.72,230.61 716.12,230.80 721.45,230.95 726.78,231.09 728.91,231.14 732.11,231.22 737.44,231.35 740.64,231.43 742.77,231.47 749.17,231.61 752.37,231.68 754.50,231.72 759.83,231.83 765.16,231.94 770.50,232.04 775.83,232.14 782.22,232.25 787.56,232.34 792.89,232.43 798.22,232.52 803.55,232.61 808.88,232.70 814.21,232.78 815.28,232.80 820.61,232.88 825.94,232.96 831.27,233.04 835.54,233.10 836.60,233.10 841.93,233.10 848.33,233.10 853.66,233.10 857.93,233.10"/>
<polyline fill="none" stroke="#ff7f0e" stroke-width="1.8" stroke-dasharray="5 4" points="506.07,147.43 511.41,151.36 516.74,155.28 523.13,159.96 528.46,163.75 533.80,167.44 539.13,171.03 544.46,174.52 549.79,177.89 556.19,181.80 561.52,184.94 566.85,187.96 572.18,190.88 577.51,193.68 582.84,196.37 589.24,199.45 594.57,201.90 599.90,204.24 605.23,206.48 610.56,208.60 611.63,209.01 613.76,209.83 614.83,210.23 615.89,210.64 622.29,212.97 623.36,213.34 627.62,214.75 628.69,215.08 629.76,215.40 630.82,215.71 631.89,216.01 632.95,216.30 634.02,216.58 638.29,217.63 642.55,218.54 643.62,218.75 644.68,218.95 645.75,219.14 646.81,219.32 647.88,219.50 648.95,219.67 650.01,219.83 651.08,219.98 652.15,220.13 653.21,220.26 654.28,220.39 655.34,220.51 656.41,220.63 657.48,220.74 658.54,220.84 659.61,220.93 660.68,221.01 661.74,221.09 663.87,221.24 664.94,221.30 666.01,221.36 669.21,221.51 671.34,221.59 676.67,221.76 683.07,221.92 684.13,221.94 688.40,222.03 693.73,222.14 699.06,222.23 701.19,222.27 704.39,222.32 707.59,222.37 709.72,222.40 716.12,222.49 721.45,222.56 726.78,222.63 728.91,222.65 732.11,222.69 737.44,222.75 740.64,222.79 742.77,222.81 749.17,222.88 752.37,222.91 754.50,222.93 759.83,222.99 765.16,223.04 770.50,223.09 775.83,223.13 782.22,223.19 787.56,223.24 792.89,223.28 798.22,223.33 803.55,223.37 808.88,223.41 814.21,223.46 815.28,223.46 820.61,223.46 825.94,223.46 831.27,223.46 835.54,223.46 836.60,223.46 841.93,223.46 848.33,223.46 853.66,223.46 857.93,223.46"/>
<polyline fill="none" stroke="#2ca02c" stroke-width="1.8" stroke-dasharray="2 4" points="506.07,89.68 511.41,95.77 516.74,101.83 523.13,109.05 528.46,115.03 533.80,120.96 539.13,126.84 544.46,132.68 549.79,138.45 556.19,145.31 561.52,150.96 566.85,156.57 572.18,162.14 577.51,167.68 582.84,173.19 589.24,179.75 594.57,185.19 599.90,190.59 605.23,195.92 610.56,201.13 611.63,202.13 613.76,204.10 614.83,205.10 615.89,206.13 622.29,212.34 623.36,213.34 627.62,217.21 628.69,218.14 629.76,219.05 630.82,219.94 631.89,220.81 632.95,221.65 634.02,222.45 638.29,225.48 642.55,228.33 643.62,229.00 644.68,229.66 645.75,230.30 646.81,230.93 647.88,231.54 648.95,232.13 650.01,232.70 651.08,233.26 652.15,233.80 653.21,234.32 654.28,234.82 655.34,235.31 656.41,235.78 657.48,236.23 658.54,236.67 659.61,237.09 660.68,237.49 661.74,237.87 663.87,238.60 664.94,238.93 666.01,239.26 669.21,240.13 671.34,240.65 676.67,241.73 683.07,242.73 684.13,242.87 688.40,243.38 693.73,243.92 699.06,244.38 701.19,244.55 704.39,244.79 707.59,245.01 709.72,245.15 716.12,245.54 721.45,245.84 726.78,246.12 728.91,246.22 732.11,246.37 737.44,246.62 740.64,246.75 742.77,246.84 749.17,247.11 752.37,247.23 754.50,247.31 759.83,247.51 765.16,247.70 770.50,247.89 775.83,248.06 782.22,248.27 787.56,248.44 792.89,248.60 798.22,248.76 803.55,248.92 808.88,249.07 814.21,249.22 815.28,249.25 820.61,249.39 825.94,249.54 831.27,249.68 835.54,249.79 836.60,249.82 841.93,249.95 848.33,250.11 853.66,250.24 857.93,250.24"/>
<polyline fill="none" stroke="#1f77b4" stroke-width="1.1" stroke-dasharray="6 4" points="492.00,321.34 496.81,319.25 501.62,317.16 506.43,315.07 511.24,312.98 516.05,310.89 520.86,308.81 525.67,306.72 530.48,304.63 535.29,302.54 540.10,300.45 544.91,298.36 549.72,296.27 554.53,294.18 559.34,292.09 564.15,290.00 568.96,287.91 573.77,285.82 578.58,283.73 583.39,281.64 588.20,279.56 593.01,277.47 597.82,275.38 602.63,273.29 607.44,271.20 612.25,269.11 617.06,267.02 621.87,264.93 626.68,262.84 631.49,260.75 636.30,258.66 641.11,256.57 645.92,254.48 650.73,252.39 655.54,250.31 660.35,248.22 665.16,246.13 669.97,244.04 674.78,241.95 679.59,239.86 684.41,237.77 689.22,235.68 694.03,233.59 698.84,231.50 703.65,229.41 708.46,227.32 713.27,225.23 718.08,223.14 722.89,221.06 727.70,218.97 732.51,216.88 737.32,214.79 742.13,212.70 746.94,210.61 751.75,208.52 756.56,206.43 761.37,204.34 766.18,202.25 770.99,200.16 775.80,198.07 780.61,195.98 785.42,193.89 790.23,191.81 795.04,189.72 799.85,187.63 804.66,185.54 809.47,183.45 814.28,181.36 819.09,179.27 823.90,177.18 828.71,175.09 833.52,173.00 838.33,170.91 843.14,168.82 847.95,166.73 852.76,164.64 857.57,162.56 862.38,160.47 867.19,158.38 872.00,156.29"/>
<circle cx="701.53" cy="230.33" r="4.6" fill="#ffffff" stroke="#1f77b4" stroke-width="2"/>
<text x="707.53" y="224.33" font-family="Arial, sans-serif" font-size="10" fill="#1f77b4">typ 99.9 ohm</text>
<polyline fill="none" stroke="#ff7f0e" stroke-width="1.1" stroke-dasharray="6 4" points="492.00,316.25 496.81,314.16 501.62,312.07 506.43,309.98 511.24,307.89 516.05,305.80 520.86,303.71 525.67,301.62 530.48,299.53 535.29,297.44 540.10,295.35 544.91,293.26 549.72,291.18 554.53,289.09 559.34,287.00 564.15,284.91 568.96,282.82 573.77,280.73 578.58,278.64 583.39,276.55 588.20,274.46 593.01,272.37 597.82,270.28 602.63,268.19 607.44,266.10 612.25,264.01 617.06,261.93 621.87,259.84 626.68,257.75 631.49,255.66 636.30,253.57 641.11,251.48 645.92,249.39 650.73,247.30 655.54,245.21 660.35,243.12 665.16,241.03 669.97,238.94 674.78,236.85 679.59,234.76 684.41,232.68 689.22,230.59 694.03,228.50 698.84,226.41 703.65,224.32 708.46,222.23 713.27,220.14 718.08,218.05 722.89,215.96 727.70,213.87 732.51,211.78 737.32,209.69 742.13,207.60 746.94,205.51 751.75,203.43 756.56,201.34 761.37,199.25 766.18,197.16 770.99,195.07 775.80,192.98 780.61,190.89 785.42,188.80 790.23,186.71 795.04,184.62 799.85,182.53 804.66,180.44 809.47,178.35 814.28,176.26 819.09,174.18 823.90,172.09 828.71,170.00 833.52,167.91 838.33,165.82 843.14,163.73 847.95,161.64 852.76,159.55 857.57,157.46 862.38,155.37 867.19,153.28 872.00,151.19"/>
<circle cx="708.12" cy="222.38" r="4.6" fill="#ffffff" stroke="#ff7f0e" stroke-width="2"/>
<text x="714.12" y="216.38" font-family="Arial, sans-serif" font-size="10" fill="#ff7f0e">min 204 ohm</text>
<polyline fill="none" stroke="#2ca02c" stroke-width="1.1" stroke-dasharray="6 4" points="492.00,326.44 496.81,324.35 501.62,322.26 506.43,320.17 511.24,318.08 516.05,315.99 520.86,313.90 525.67,311.81 530.48,309.72 535.29,307.63 540.10,305.54 544.91,303.45 549.72,301.36 554.53,299.27 559.34,297.19 564.15,295.10 568.96,293.01 573.77,290.92 578.58,288.83 583.39,286.74 588.20,284.65 593.01,282.56 597.82,280.47 602.63,278.38 607.44,276.29 612.25,274.20 617.06,272.11 621.87,270.02 626.68,267.94 631.49,265.85 636.30,263.76 641.11,261.67 645.92,259.58 650.73,257.49 655.54,255.40 660.35,253.31 665.16,251.22 669.97,249.13 674.78,247.04 679.59,244.95 684.41,242.86 689.22,240.77 694.03,238.69 698.84,236.60 703.65,234.51 708.46,232.42 713.27,230.33 718.08,228.24 722.89,226.15 727.70,224.06 732.51,221.97 737.32,219.88 742.13,217.79 746.94,215.70 751.75,213.61 756.56,211.52 761.37,209.44 766.18,207.35 770.99,205.26 775.80,203.17 780.61,201.08 785.42,198.99 790.23,196.90 795.04,194.81 799.85,192.72 804.66,190.63 809.47,188.54 814.28,186.45 819.09,184.36 823.90,182.27 828.71,180.19 833.52,178.10 838.33,176.01 843.14,173.92 847.95,171.83 852.76,169.74 857.57,167.65 862.38,165.56 867.19,163.47 872.00,161.38"/>
<circle cx="684.34" cy="242.89" r="4.6" fill="#ffffff" stroke="#2ca02c" stroke-width="2"/>
<text x="690.34" y="236.89" font-family="Arial, sans-serif" font-size="10" fill="#2ca02c">max 44.8 ohm</text>
<line x1="502.00" y1="80.00" x2="524.00" y2="80.00" stroke="#1f77b4" stroke-width="2"/>
<text x="530.00" y="84.00" font-family="Arial, sans-serif" font-size="11">typ</text>
<line x1="502.00" y1="97.00" x2="524.00" y2="97.00" stroke="#ff7f0e" stroke-width="2" stroke-dasharray="5 4"/>
<text x="530.00" y="101.00" font-family="Arial, sans-serif" font-size="11">min</text>
<line x1="502.00" y1="114.00" x2="524.00" y2="114.00" stroke="#2ca02c" stroke-width="2" stroke-dasharray="2 4"/>
<text x="530.00" y="118.00" font-family="Arial, sans-serif" font-size="11">max</text>
<text x="682.00" y="386.00" text-anchor="middle" font-family="Arial, sans-serif" font-size="11">Vcc-relative table voltage (V)</text>
<text transform="translate(442.00 205.00) rotate(-90)" text-anchor="middle" font-family="Arial, sans-serif" font-size="11">Current (mA)</text>
<rect x="72.00" y="418.00" width="800.00" height="144.00" fill="#ffffff" stroke="#c8c8c8"/>
<text x="82.00" y="436.00" font-family="Arial, sans-serif" font-size="12" font-weight="700">Operating-point summary</text>
<text x="82.00" y="454.00" font-family="Arial, sans-serif" font-size="10" font-weight="700" fill="#333">Table</text>
<text x="174.00" y="454.00" font-family="Arial, sans-serif" font-size="10" font-weight="700" fill="#333">Corner</text>
<text x="242.00" y="454.00" font-family="Arial, sans-serif" font-size="10" font-weight="700" fill="#333">Vout</text>
<text x="332.00" y="454.00" font-family="Arial, sans-serif" font-size="10" font-weight="700" fill="#333">Iop</text>
<text x="422.00" y="454.00" font-family="Arial, sans-serif" font-size="10" font-weight="700" fill="#333">Zout</text>
<text x="512.00" y="454.00" font-family="Arial, sans-serif" font-size="10" font-weight="700" fill="#333">Rseries</text>
<text x="82.00" y="473.00" font-family="Arial, sans-serif" font-size="10" fill="#1f77b4">pulldown</text>
<text x="174.00" y="473.00" font-family="Arial, sans-serif" font-size="10" fill="#1f77b4">typ</text>
<text x="242.00" y="473.00" font-family="Arial, sans-serif" font-size="10" fill="#1f77b4">0.6257 V</text>
<text x="332.00" y="473.00" font-family="Arial, sans-serif" font-size="10" fill="#1f77b4">9.5 mA</text>
<text x="422.00" y="473.00" font-family="Arial, sans-serif" font-size="10" fill="#1f77b4">66 ohm</text>
<text x="512.00" y="473.00" font-family="Arial, sans-serif" font-size="10" fill="#1f77b4">-16 ohm</text>
<text x="82.00" y="492.00" font-family="Arial, sans-serif" font-size="10" fill="#ff7f0e">pulldown</text>
<text x="174.00" y="492.00" font-family="Arial, sans-serif" font-size="10" fill="#ff7f0e">min</text>
<text x="242.00" y="492.00" font-family="Arial, sans-serif" font-size="10" fill="#ff7f0e">0.7665 V</text>
<text x="332.00" y="492.00" font-family="Arial, sans-serif" font-size="10" fill="#ff7f0e">4.5 mA</text>
<text x="422.00" y="492.00" font-family="Arial, sans-serif" font-size="10" fill="#ff7f0e">171 ohm</text>
<text x="512.00" y="492.00" font-family="Arial, sans-serif" font-size="10" fill="#ff7f0e">-121 ohm</text>
<text x="82.00" y="511.00" font-family="Arial, sans-serif" font-size="10" fill="#2ca02c">pulldown</text>
<text x="174.00" y="511.00" font-family="Arial, sans-serif" font-size="10" fill="#2ca02c">max</text>
<text x="242.00" y="511.00" font-family="Arial, sans-serif" font-size="10" fill="#2ca02c">0.4102 V</text>
<text x="332.00" y="511.00" font-family="Arial, sans-serif" font-size="10" fill="#2ca02c">16 mA</text>
<text x="422.00" y="511.00" font-family="Arial, sans-serif" font-size="10" fill="#2ca02c">25.6 ohm</text>
<text x="512.00" y="511.00" font-family="Arial, sans-serif" font-size="10" fill="#2ca02c">24.4 ohm</text>
<text x="82.00" y="530.00" font-family="Arial, sans-serif" font-size="10" fill="#1f77b4">pullup</text>
<text x="174.00" y="530.00" font-family="Arial, sans-serif" font-size="10" fill="#1f77b4">typ</text>
<text x="242.00" y="530.00" font-family="Arial, sans-serif" font-size="10" fill="#1f77b4">0.3668 V</text>
<text x="332.00" y="530.00" font-family="Arial, sans-serif" font-size="10" fill="#1f77b4">-7.3 mA</text>
<text x="422.00" y="530.00" font-family="Arial, sans-serif" font-size="10" fill="#1f77b4">99.9 ohm</text>
<text x="512.00" y="530.00" font-family="Arial, sans-serif" font-size="10" fill="#1f77b4">-49.9 ohm</text>
<text x="82.00" y="549.00" font-family="Arial, sans-serif" font-size="10" fill="#ff7f0e">pullup</text>
<text x="174.00" y="549.00" font-family="Arial, sans-serif" font-size="10" fill="#ff7f0e">min</text>
<text x="242.00" y="549.00" font-family="Arial, sans-serif" font-size="10" fill="#ff7f0e">0.195 V</text>
<text x="332.00" y="549.00" font-family="Arial, sans-serif" font-size="10" fill="#ff7f0e">-3.9 mA</text>
<text x="422.00" y="549.00" font-family="Arial, sans-serif" font-size="10" fill="#ff7f0e">204 ohm</text>
<text x="512.00" y="549.00" font-family="Arial, sans-serif" font-size="10" fill="#ff7f0e">-154 ohm</text>
<text x="82.00" y="568.00" font-family="Arial, sans-serif" font-size="10" fill="#2ca02c">pullup</text>
<text x="174.00" y="568.00" font-family="Arial, sans-serif" font-size="10" fill="#2ca02c">max</text>
<text x="242.00" y="568.00" font-family="Arial, sans-serif" font-size="10" fill="#2ca02c">0.638 V</text>
<text x="332.00" y="568.00" font-family="Arial, sans-serif" font-size="10" fill="#2ca02c">-13 mA</text>
<text x="422.00" y="568.00" font-family="Arial, sans-serif" font-size="10" fill="#2ca02c">44.8 ohm</text>
<text x="512.00" y="568.00" font-family="Arial, sans-serif" font-size="10" fill="#2ca02c">5.178 ohm</text>
</svg>