<svg xmlns="http://www.w3.org/2000/svg" width="900" height="620" viewBox="0 0 900 620">
<rect width="100%" height="100%" fill="#ffffff"/>
<text x="72" y="26" font-family="Arial, sans-serif" font-size="16" font-weight="700">E34_GPIO_I2CSCLIN_1V2_10_ISOSW Zout Load-Line Curves</text>
<text x="72" y="45" font-family="Arial, sans-serif" font-size="11" fill="#555">Rload=50 ohm; solid=device I-V, dashed=load line, circles=operating points</text>
<rect x="72.00" y="62.00" width="380.00" height="286.00" fill="#fbfbfb" stroke="#c8c8c8"/>
<text x="80.00" y="50.00" font-family="Arial, sans-serif" font-size="13" font-weight="700">[Pulldown] Rload to Vdd</text>
<line x1="72.00" y1="62.00" x2="72.00" y2="348.00" stroke="#ececec"/>
<text x="72.00" y="366.00" text-anchor="middle" font-family="Arial, sans-serif" font-size="10">-1.3</text>
<line x1="167.00" y1="62.00" x2="167.00" y2="348.00" stroke="#ececec"/>
<text x="167.00" y="366.00" text-anchor="middle" font-family="Arial, sans-serif" font-size="10">-0.372</text>
<line x1="262.00" y1="62.00" x2="262.00" y2="348.00" stroke="#ececec"/>
<text x="262.00" y="366.00" text-anchor="middle" font-family="Arial, sans-serif" font-size="10">0.6</text>
<line x1="357.00" y1="62.00" x2="357.00" y2="348.00" stroke="#ececec"/>
<text x="357.00" y="366.00" text-anchor="middle" font-family="Arial, sans-serif" font-size="10">1.6</text>
<line x1="452.00" y1="62.00" x2="452.00" y2="348.00" stroke="#ececec"/>
<text x="452.00" y="366.00" text-anchor="middle" font-family="Arial, sans-serif" font-size="10">2.5</text>
<line x1="72.00" y1="348.00" x2="452.00" y2="348.00" stroke="#ececec"/>
<text x="65.00" y="352.00" text-anchor="end" font-family="Arial, sans-serif" font-size="10">-36</text>
<line x1="72.00" y1="276.50" x2="452.00" y2="276.50" stroke="#ececec"/>
<text x="65.00" y="280.50" text-anchor="end" font-family="Arial, sans-serif" font-size="10">-12</text>
<line x1="72.00" y1="205.00" x2="452.00" y2="205.00" stroke="#ececec"/>
<text x="65.00" y="209.00" text-anchor="end" font-family="Arial, sans-serif" font-size="10">12</text>
<line x1="72.00" y1="133.50" x2="452.00" y2="133.50" stroke="#ececec"/>
<text x="65.00" y="137.50" text-anchor="end" font-family="Arial, sans-serif" font-size="10">36</text>
<line x1="72.00" y1="62.00" x2="452.00" y2="62.00" stroke="#ececec"/>
<text x="65.00" y="66.00" text-anchor="end" font-family="Arial, sans-serif" font-size="10">60</text>
<line x1="203.36" y1="62" x2="203.36" y2="348" stroke="#777" stroke-dasharray="4 4"/>
<line x1="72.0" y1="241.04" x2="452.0" y2="241.04" stroke="#777" stroke-dasharray="4 4"/>
<polyline fill="none" stroke="#1f77b4" stroke-width="1.8" points="86.07,272.37 91.94,272.37 96.83,272.37 102.69,272.37 108.55,272.37 114.42,272.37 117.35,272.11 119.30,271.91 122.24,271.57 125.17,271.18 127.12,270.90 130.06,270.44 134.94,269.56 135.92,269.36 136.90,269.16 138.85,268.74 140.81,268.28 141.78,268.04 142.76,267.79 144.72,267.27 145.69,267.00 146.67,266.71 147.65,266.42 148.63,266.12 149.60,265.80 150.58,265.48 151.56,265.15 152.53,264.80 153.51,264.45 154.49,264.09 155.47,263.71 156.44,263.32 157.42,262.93 158.40,262.52 159.38,262.11 160.35,261.68 163.29,260.35 169.15,257.52 174.04,255.09 179.90,252.17 185.77,249.29 190.65,246.94 196.52,244.18 201.40,241.92 203.36,241.04 207.27,239.29 213.13,236.75 218.02,234.71 223.88,232.35 229.75,230.13 234.63,228.38 240.50,226.44 246.36,224.69 251.25,223.41 257.11,222.10 262.98,221.10 265.91,220.71 267.86,220.49 271.77,220.14 273.73,220.01 275.68,219.89 276.66,219.84 278.62,219.74 280.57,219.66 282.52,219.59 283.50,219.56 285.46,219.50 288.39,219.42 290.34,219.38 291.32,219.35 295.23,219.27 301.09,219.17 306.96,219.07 308.91,219.05 311.85,219.00 317.71,218.93 320.64,218.89 323.57,218.86 328.46,218.81 332.37,218.77 334.33,218.75 339.21,218.70 345.08,218.65 350.94,218.60 355.83,218.56 361.69,218.52 367.56,218.47 372.44,218.42 378.31,218.36 384.17,218.28 389.06,218.19 394.92,218.03 400.79,217.79 405.67,217.48 411.54,216.96 416.42,216.40 422.29,215.56 428.15,214.56 433.04,213.61 437.93,212.56"/>
<polyline fill="none" stroke="#ff7f0e" stroke-width="1.8" stroke-dasharray="5 4" points="86.07,261.04 91.94,261.04 96.83,261.04 102.69,261.04 108.55,261.04 114.42,261.04 117.35,261.04 119.30,261.04 122.24,261.04 125.17,260.94 127.12,260.84 130.06,260.61 134.94,260.12 135.92,260.00 136.90,259.88 138.85,259.62 140.81,259.33 141.78,259.18 142.76,259.03 144.72,258.70 145.69,258.53 146.67,258.35 147.65,258.17 148.63,257.98 149.60,257.78 150.58,257.58 151.56,257.37 152.53,257.15 153.51,256.93 154.49,256.70 155.47,256.47 156.44,256.23 157.42,255.98 158.40,255.72 159.38,255.46 160.35,255.19 163.29,254.34 169.15,252.48 174.04,250.81 179.90,248.76 185.77,246.73 190.65,245.08 196.52,243.17 201.40,241.63 203.36,241.04 207.27,239.88 213.13,238.22 218.02,236.93 223.88,235.49 229.75,234.19 234.63,233.23 240.50,232.24 246.36,231.46 251.25,230.98 257.11,230.59 262.98,230.36 265.91,230.29 267.86,230.24 271.77,230.18 273.73,230.15 275.68,230.12 276.66,230.11 278.62,230.09 280.57,230.06 282.52,230.04 283.50,230.03 285.46,230.01 288.39,229.99 290.34,229.97 291.32,229.96 295.23,229.93 301.09,229.89 306.96,229.85 308.91,229.84 311.85,229.82 317.71,229.79 320.64,229.78 323.57,229.76 328.46,229.74 332.37,229.72 334.33,229.71 339.21,229.69 345.08,229.66 350.94,229.63 355.83,229.59 361.69,229.52 367.56,229.39 372.44,229.21 378.31,228.90 384.17,228.48 389.06,228.03 394.92,227.39 400.79,226.65 405.67,225.96 411.54,225.05 416.42,224.24 422.29,223.26 428.15,222.29 433.04,221.47 437.93,220.65"/>
<polyline fill="none" stroke="#2ca02c" stroke-width="1.8" stroke-dasharray="2 4" points="86.07,285.19 91.94,285.19 96.83,285.19 102.69,285.19 108.55,285.19 114.42,284.46 117.35,284.04 119.30,283.73 122.24,283.24 125.17,282.70 127.12,282.30 130.06,281.66 134.94,280.44 135.92,280.16 136.90,279.88 138.85,279.29 140.81,278.66 141.78,278.32 142.76,277.97 144.72,277.24 145.69,276.86 146.67,276.46 147.65,276.05 148.63,275.62 149.60,275.18 150.58,274.73 151.56,274.26 152.53,273.77 153.51,273.27 154.49,272.76 155.47,272.22 156.44,271.68 157.42,271.12 158.40,270.54 159.38,269.96 160.35,269.36 163.29,267.50 169.15,263.60 174.04,260.31 179.90,256.37 185.77,252.47 190.65,249.25 196.52,245.43 201.40,242.28 203.36,241.04 207.27,238.57 213.13,234.91 218.02,231.93 223.88,228.43 229.75,225.02 234.63,222.27 240.50,219.08 246.36,216.04 251.25,213.63 257.11,210.92 262.98,208.45 265.91,207.31 267.86,206.59 271.77,205.27 273.73,204.66 275.68,204.10 276.66,203.83 278.62,203.33 280.57,202.87 282.52,202.45 283.50,202.26 285.46,201.91 288.39,201.45 290.34,201.19 291.32,201.07 295.23,200.67 301.09,200.24 306.96,199.92 308.91,199.84 311.85,199.72 317.71,199.52 320.64,199.43 323.57,199.35 328.46,199.22 332.37,199.13 334.33,199.09 339.21,198.99 345.08,198.88 350.94,198.77 355.83,198.69 361.69,198.60 367.56,198.51 372.44,198.45 378.31,198.37 384.17,198.28 389.06,198.21 394.92,198.10 400.79,197.97 405.67,197.84 411.54,197.66 416.42,197.49 422.29,197.25 428.15,196.95 433.04,196.61 437.93,196.15"/>
<polyline fill="none" stroke="#1f77b4" stroke-width="1.1" stroke-dasharray="6 4" points="72.00,88.24 76.81,91.19 81.62,94.15 86.43,97.10 91.24,100.06 96.05,103.02 100.86,105.97 105.67,108.93 110.48,111.88 115.29,114.84 120.10,117.80 124.91,120.75 129.72,123.71 134.53,126.66 139.34,129.62 144.15,132.58 148.96,135.53 153.77,138.49 158.58,141.44 163.39,144.40 168.20,147.36 173.01,150.31 177.82,153.27 182.63,156.23 187.44,159.18 192.25,162.14 197.06,165.09 201.87,168.05 206.68,171.01 211.49,173.96 216.30,176.92 221.11,179.87 225.92,182.83 230.73,185.79 235.54,188.74 240.35,191.70 245.16,194.65 249.97,197.61 254.78,200.57 259.59,203.52 264.41,206.48 269.22,209.43 274.03,212.39 278.84,215.35 283.65,218.30 288.46,221.26 293.27,224.21 298.08,227.17 302.89,230.13 307.70,233.08 312.51,236.04 317.32,238.99 322.13,241.95 326.94,244.91 331.75,247.86 336.56,250.82 341.37,253.77 346.18,256.73 350.99,259.69 355.80,262.64 360.61,265.60 365.42,268.56 370.23,271.51 375.04,274.47 379.85,277.42 384.66,280.38 389.47,283.34 394.28,286.29 399.09,289.25 403.90,292.20 408.71,295.16 413.52,298.12 418.33,301.07 423.14,304.03 427.95,306.98 432.76,309.94 437.57,312.90 442.38,315.85 447.19,318.81 452.00,321.76"/>
<circle cx="285.59" cy="219.50" r="4.6" fill="#ffffff" stroke="#1f77b4" stroke-width="2"/>
<text x="291.59" y="213.50" font-family="Arial, sans-serif" font-size="10" fill="#1f77b4">typ 117 ohm</text>
<polyline fill="none" stroke="#ff7f0e" stroke-width="1.1" stroke-dasharray="6 4" points="72.00,95.44 76.81,98.40 81.62,101.36 86.43,104.31 91.24,107.27 96.05,110.22 100.86,113.18 105.67,116.14 110.48,119.09 115.29,122.05 120.10,125.00 124.91,127.96 129.72,130.92 134.53,133.87 139.34,136.83 144.15,139.78 148.96,142.74 153.77,145.70 158.58,148.65 163.39,151.61 168.20,154.56 173.01,157.52 177.82,160.48 182.63,163.43 187.44,166.39 192.25,169.34 197.06,172.30 201.87,175.26 206.68,178.21 211.49,181.17 216.30,184.13 221.11,187.08 225.92,190.04 230.73,192.99 235.54,195.95 240.35,198.91 245.16,201.86 249.97,204.82 254.78,207.77 259.59,210.73 264.41,213.69 269.22,216.64 274.03,219.60 278.84,222.55 283.65,225.51 288.46,228.47 293.27,231.42 298.08,234.38 302.89,237.33 307.70,240.29 312.51,243.25 317.32,246.20 322.13,249.16 326.94,252.11 331.75,255.07 336.56,258.03 341.37,260.98 346.18,263.94 350.99,266.89 355.80,269.85 360.61,272.81 365.42,275.76 370.23,278.72 375.04,281.67 379.85,284.63 384.66,287.59 389.47,290.54 394.28,293.50 399.09,296.46 403.90,299.41 408.71,302.37 413.52,305.32 418.33,308.28 423.14,311.24 427.95,314.19 432.76,317.15 437.57,320.10 442.38,323.06 447.19,326.02 452.00,328.97"/>
<circle cx="290.90" cy="229.97" r="4.6" fill="#ffffff" stroke="#ff7f0e" stroke-width="2"/>
<text x="296.90" y="223.97" font-family="Arial, sans-serif" font-size="10" fill="#ff7f0e">min 243 ohm</text>
<polyline fill="none" stroke="#2ca02c" stroke-width="1.1" stroke-dasharray="6 4" points="72.00,81.03 76.81,83.98 81.62,86.94 86.43,89.90 91.24,92.85 96.05,95.81 100.86,98.76 105.67,101.72 110.48,104.68 115.29,107.63 120.10,110.59 124.91,113.54 129.72,116.50 134.53,119.46 139.34,122.41 144.15,125.37 148.96,128.33 153.77,131.28 158.58,134.24 163.39,137.19 168.20,140.15 173.01,143.11 177.82,146.06 182.63,149.02 187.44,151.97 192.25,154.93 197.06,157.89 201.87,160.84 206.68,163.80 211.49,166.75 216.30,169.71 221.11,172.67 225.92,175.62 230.73,178.58 235.54,181.53 240.35,184.49 245.16,187.45 249.97,190.40 254.78,193.36 259.59,196.31 264.41,199.27 269.22,202.23 274.03,205.18 278.84,208.14 283.65,211.09 288.46,214.05 293.27,217.01 298.08,219.96 302.89,222.92 307.70,225.87 312.51,228.83 317.32,231.79 322.13,234.74 326.94,237.70 331.75,240.66 336.56,243.61 341.37,246.57 346.18,249.52 350.99,252.48 355.80,255.44 360.61,258.39 365.42,261.35 370.23,264.30 375.04,267.26 379.85,270.22 384.66,273.17 389.47,276.13 394.28,279.08 399.09,282.04 403.90,285.00 408.71,287.95 413.52,290.91 418.33,293.86 423.14,296.82 427.95,299.78 432.76,302.73 437.57,305.69 442.38,308.64 447.19,311.60 452.00,314.56"/>
<circle cx="273.36" cy="204.77" r="4.6" fill="#ffffff" stroke="#2ca02c" stroke-width="2"/>
<text x="279.36" y="198.77" font-family="Arial, sans-serif" font-size="10" fill="#2ca02c">max 59.3 ohm</text>
<line x1="82.00" y1="80.00" x2="104.00" y2="80.00" stroke="#1f77b4" stroke-width="2"/>
<text x="110.00" y="84.00" font-family="Arial, sans-serif" font-size="11">typ</text>
<line x1="82.00" y1="97.00" x2="104.00" y2="97.00" stroke="#ff7f0e" stroke-width="2" stroke-dasharray="5 4"/>
<text x="110.00" y="101.00" font-family="Arial, sans-serif" font-size="11">min</text>
<line x1="82.00" y1="114.00" x2="104.00" y2="114.00" stroke="#2ca02c" stroke-width="2" stroke-dasharray="2 4"/>
<text x="110.00" y="118.00" font-family="Arial, sans-serif" font-size="11">max</text>
<text x="262.00" y="386.00" text-anchor="middle" font-family="Arial, sans-serif" font-size="11">Output voltage (V)</text>
<text transform="translate(22.00 205.00) rotate(-90)" text-anchor="middle" font-family="Arial, sans-serif" font-size="11">Current (mA)</text>
<rect x="492.00" y="62.00" width="380.00" height="286.00" fill="#fbfbfb" stroke="#c8c8c8"/>
<text x="500.00" y="50.00" font-family="Arial, sans-serif" font-size="13" font-weight="700">[Pullup] Rload to GND</text>
<line x1="492.00" y1="62.00" x2="492.00" y2="348.00" stroke="#ececec"/>
<text x="492.00" y="366.00" text-anchor="middle" font-family="Arial, sans-serif" font-size="10">-1.3</text>
<line x1="587.00" y1="62.00" x2="587.00" y2="348.00" stroke="#ececec"/>
<text x="587.00" y="366.00" text-anchor="middle" font-family="Arial, sans-serif" font-size="10">-0.372</text>
<line x1="682.00" y1="62.00" x2="682.00" y2="348.00" stroke="#ececec"/>
<text x="682.00" y="366.00" text-anchor="middle" font-family="Arial, sans-serif" font-size="10">0.6</text>
<line x1="777.00" y1="62.00" x2="777.00" y2="348.00" stroke="#ececec"/>
<text x="777.00" y="366.00" text-anchor="middle" font-family="Arial, sans-serif" font-size="10">1.6</text>
<line x1="872.00" y1="62.00" x2="872.00" y2="348.00" stroke="#ececec"/>
<text x="872.00" y="366.00" text-anchor="middle" font-family="Arial, sans-serif" font-size="10">2.5</text>
<line x1="492.00" y1="348.00" x2="872.00" y2="348.00" stroke="#ececec"/>
<text x="485.00" y="352.00" text-anchor="end" font-family="Arial, sans-serif" font-size="10">-60</text>
<line x1="492.00" y1="276.50" x2="872.00" y2="276.50" stroke="#ececec"/>
<text x="485.00" y="280.50" text-anchor="end" font-family="Arial, sans-serif" font-size="10">-36</text>
<line x1="492.00" y1="205.00" x2="872.00" y2="205.00" stroke="#ececec"/>
<text x="485.00" y="209.00" text-anchor="end" font-family="Arial, sans-serif" font-size="10">-12</text>
<line x1="492.00" y1="133.50" x2="872.00" y2="133.50" stroke="#ececec"/>
<text x="485.00" y="137.50" text-anchor="end" font-family="Arial, sans-serif" font-size="10">12</text>
<line x1="492.00" y1="62.00" x2="872.00" y2="62.00" stroke="#ececec"/>
<text x="485.00" y="66.00" text-anchor="end" font-family="Arial, sans-serif" font-size="10">36</text>
<line x1="623.36" y1="62" x2="623.36" y2="348" stroke="#777" stroke-dasharray="4 4"/>
<line x1="492.0" y1="168.96" x2="872.0" y2="168.96" stroke="#777" stroke-dasharray="4 4"/>
<polyline fill="none" stroke="#1f77b4" stroke-width="1.8" points="506.07,113.88 511.94,116.75 516.83,119.14 522.69,122.02 528.55,124.91 533.44,127.31 539.30,130.18 544.19,132.56 550.06,135.41 555.92,138.23 560.81,140.56 566.67,143.33 572.53,146.08 577.42,148.33 583.29,151.01 589.15,153.67 594.04,155.87 599.90,158.50 603.81,160.25 604.79,160.69 609.67,162.87 610.65,163.30 611.63,163.74 612.61,164.17 616.52,165.90 621.40,168.09 623.36,168.96 627.27,170.68 633.13,173.16 637.04,174.74 638.02,175.13 639.00,175.52 639.97,175.90 642.91,177.04 649.75,179.58 654.63,181.28 660.50,183.20 666.36,184.94 671.25,186.24 674.18,186.94 677.11,187.59 678.09,187.79 679.07,187.98 680.05,188.17 681.02,188.34 682.00,188.51 682.98,188.67 683.95,188.83 684.93,188.97 685.91,189.11 686.89,189.24 687.86,189.36 688.84,189.47 689.82,189.57 691.77,189.76 693.73,189.92 694.71,189.99 696.66,190.12 698.62,190.24 700.57,190.34 701.55,190.39 702.52,190.43 703.50,190.47 704.48,190.52 705.46,190.56 706.43,190.60 708.39,190.67 709.37,190.71 711.32,190.78 714.25,190.87 721.09,191.08 726.96,191.23 728.91,191.28 731.85,191.34 737.71,191.47 740.64,191.53 743.57,191.59 748.46,191.67 752.37,191.74 754.33,191.77 759.21,191.85 765.08,191.94 770.94,192.01 775.83,192.03 781.69,192.03 787.56,192.03 789.51,192.03 792.44,192.03 798.31,192.03 804.17,192.03 809.06,192.03 814.92,192.03 820.79,192.03 825.67,192.03 831.54,192.03 836.42,192.03 842.29,192.03 848.15,192.03 853.04,192.03 857.93,192.03"/>
<polyline fill="none" stroke="#ff7f0e" stroke-width="1.8" stroke-dasharray="5 4" points="506.07,128.93 511.94,130.96 516.83,132.66 522.69,134.70 528.55,136.76 533.44,138.49 539.30,140.59 544.19,142.34 550.06,144.43 555.92,146.52 560.81,148.25 566.67,150.31 572.53,152.35 577.42,154.02 583.29,156.00 589.15,157.95 594.04,159.56 599.90,161.46 603.81,162.73 604.79,163.04 609.67,164.61 610.65,164.92 611.63,165.23 612.61,165.54 616.52,166.79 621.40,168.34 623.36,168.96 627.27,170.17 633.13,171.88 637.04,172.95 638.02,173.20 639.00,173.46 639.97,173.71 642.91,174.44 649.75,176.03 654.63,177.04 660.50,178.10 666.36,178.98 671.25,179.54 674.18,179.81 677.11,180.02 678.09,180.08 679.07,180.13 680.05,180.18 681.02,180.22 682.00,180.27 682.98,180.30 683.95,180.34 684.93,180.37 685.91,180.40 686.89,180.43 687.86,180.45 688.84,180.48 689.82,180.50 691.77,180.55 693.73,180.59 694.71,180.61 696.66,180.64 698.62,180.68 700.57,180.71 701.55,180.73 702.52,180.74 703.50,180.76 704.48,180.78 705.46,180.79 706.43,180.80 708.39,180.83 709.37,180.85 711.32,180.87 714.25,180.91 721.09,180.99 726.96,181.05 728.91,181.07 731.85,181.10 737.71,181.15 740.64,181.18 743.57,181.20 748.46,181.24 752.37,181.26 754.33,181.26 759.21,181.26 765.08,181.26 770.94,181.26 775.83,181.26 781.69,181.26 787.56,181.26 789.51,181.26 792.44,181.26 798.31,181.26 804.17,181.26 809.06,181.26 814.92,181.26 820.79,181.26 825.67,181.26 831.54,181.26 836.42,181.26 842.29,181.26 848.15,181.26 853.04,181.26 857.93,181.26"/>
<polyline fill="none" stroke="#2ca02c" stroke-width="1.8" stroke-dasharray="2 4" points="506.07,95.37 511.94,99.21 516.83,102.40 522.69,106.24 528.55,110.06 533.44,113.23 539.30,117.03 544.19,120.17 550.06,123.93 555.92,127.65 560.81,130.72 566.67,134.38 572.53,138.01 577.42,141.02 583.29,144.59 589.15,148.15 594.04,151.12 599.90,154.68 603.81,157.02 604.79,157.60 609.67,160.41 610.65,160.99 611.63,161.59 612.61,162.20 616.52,164.67 621.40,167.74 623.36,168.96 627.27,171.38 633.13,174.94 637.04,177.26 638.02,177.83 639.00,178.38 639.97,178.91 642.91,180.45 649.75,184.16 654.63,186.76 660.50,189.78 666.36,192.68 671.25,194.99 674.18,196.32 677.11,197.60 678.09,198.02 679.07,198.44 680.05,198.84 681.02,199.25 682.00,199.65 682.98,200.04 683.95,200.42 684.93,200.80 685.91,201.18 686.89,201.54 687.86,201.90 688.84,202.26 689.82,202.60 691.77,203.28 693.73,203.92 694.71,204.23 696.66,204.82 698.62,205.38 700.57,205.90 701.55,206.15 702.52,206.38 703.50,206.61 704.48,206.83 705.46,207.04 706.43,207.24 708.39,207.62 709.37,207.79 711.32,208.11 714.25,208.53 721.09,209.30 726.96,209.80 728.91,209.95 731.85,210.15 737.71,210.51 740.64,210.67 743.57,210.82 748.46,211.05 752.37,211.22 754.33,211.30 759.21,211.49 765.08,211.70 770.94,211.90 775.83,212.05 781.69,212.22 787.56,212.36 789.51,212.39 792.44,212.40 798.31,212.40 804.17,212.40 809.06,212.40 814.92,212.40 820.79,212.40 825.67,212.40 831.54,212.40 836.42,212.40 842.29,212.40 848.15,212.40 853.04,212.40 857.93,212.40"/>
<polyline fill="none" stroke="#1f77b4" stroke-width="1.1" stroke-dasharray="6 4" points="492.00,321.76 496.81,318.81 501.62,315.85 506.43,312.90 511.24,309.94 516.05,306.98 520.86,304.03 525.67,301.07 530.48,298.12 535.29,295.16 540.10,292.20 544.91,289.25 549.72,286.29 554.53,283.34 559.34,280.38 564.15,277.42 568.96,274.47 573.77,271.51 578.58,268.56 583.39,265.60 588.20,262.64 593.01,259.69 597.82,256.73 602.63,253.77 607.44,250.82 612.25,247.86 617.06,244.91 621.87,241.95 626.68,238.99 631.49,236.04 636.30,233.08 641.11,230.13 645.92,227.17 650.73,224.21 655.54,221.26 660.35,218.30 665.16,215.35 669.97,212.39 674.78,209.43 679.59,206.48 684.41,203.52 689.22,200.57 694.03,197.61 698.84,194.65 703.65,191.70 708.46,188.74 713.27,185.79 718.08,182.83 722.89,179.87 727.70,176.92 732.51,173.96 737.32,171.01 742.13,168.05 746.94,165.09 751.75,162.14 756.56,159.18 761.37,156.23 766.18,153.27 770.99,150.31 775.80,147.36 780.61,144.40 785.42,141.44 790.23,138.49 795.04,135.53 799.85,132.58 804.66,129.62 809.47,126.66 814.28,123.71 819.09,120.75 823.90,117.80 828.71,114.84 833.52,111.88 838.33,108.93 843.14,105.97 847.95,103.02 852.76,100.06 857.57,97.10 862.38,94.15 867.19,91.19 872.00,88.24"/>
<circle cx="705.50" cy="190.56" r="4.6" fill="#ffffff" stroke="#1f77b4" stroke-width="2"/>
<text x="711.50" y="184.56" font-family="Arial, sans-serif" font-size="10" fill="#1f77b4">typ 117 ohm</text>
<polyline fill="none" stroke="#ff7f0e" stroke-width="1.1" stroke-dasharray="6 4" points="492.00,314.56 496.81,311.60 501.62,308.64 506.43,305.69 511.24,302.73 516.05,299.78 520.86,296.82 525.67,293.86 530.48,290.91 535.29,287.95 540.10,285.00 544.91,282.04 549.72,279.08 554.53,276.13 559.34,273.17 564.15,270.22 568.96,267.26 573.77,264.30 578.58,261.35 583.39,258.39 588.20,255.44 593.01,252.48 597.82,249.52 602.63,246.57 607.44,243.61 612.25,240.66 617.06,237.70 621.87,234.74 626.68,231.79 631.49,228.83 636.30,225.87 641.11,222.92 645.92,219.96 650.73,217.01 655.54,214.05 660.35,211.09 665.16,208.14 669.97,205.18 674.78,202.23 679.59,199.27 684.41,196.31 689.22,193.36 694.03,190.40 698.84,187.45 703.65,184.49 708.46,181.53 713.27,178.58 718.08,175.62 722.89,172.67 727.70,169.71 732.51,166.75 737.32,163.80 742.13,160.84 746.94,157.89 751.75,154.93 756.56,151.97 761.37,149.02 766.18,146.06 770.99,143.11 775.80,140.15 780.61,137.19 785.42,134.24 790.23,131.28 795.04,128.33 799.85,125.37 804.66,122.41 809.47,119.46 814.28,116.50 819.09,113.54 823.90,110.59 828.71,107.63 833.52,104.68 838.33,101.72 843.14,98.76 847.95,95.81 852.76,92.85 857.57,89.90 862.38,86.94 867.19,83.98 872.00,81.03"/>
<circle cx="709.57" cy="180.85" r="4.6" fill="#ffffff" stroke="#ff7f0e" stroke-width="2"/>
<text x="715.57" y="174.85" font-family="Arial, sans-serif" font-size="10" fill="#ff7f0e">min 223 ohm</text>
<polyline fill="none" stroke="#2ca02c" stroke-width="1.1" stroke-dasharray="6 4" points="492.00,328.97 496.81,326.02 501.62,323.06 506.43,320.10 511.24,317.15 516.05,314.19 520.86,311.24 525.67,308.28 530.48,305.32 535.29,302.37 540.10,299.41 544.91,296.46 549.72,293.50 554.53,290.54 559.34,287.59 564.15,284.63 568.96,281.67 573.77,278.72 578.58,275.76 583.39,272.81 588.20,269.85 593.01,266.89 597.82,263.94 602.63,260.98 607.44,258.03 612.25,255.07 617.06,252.11 621.87,249.16 626.68,246.20 631.49,243.25 636.30,240.29 641.11,237.33 645.92,234.38 650.73,231.42 655.54,228.47 660.35,225.51 665.16,222.55 669.97,219.60 674.78,216.64 679.59,213.69 684.41,210.73 689.22,207.77 694.03,204.82 698.84,201.86 703.65,198.91 708.46,195.95 713.27,192.99 718.08,190.04 722.89,187.08 727.70,184.13 732.51,181.17 737.32,178.21 742.13,175.26 746.94,172.30 751.75,169.34 756.56,166.39 761.37,163.43 766.18,160.48 770.99,157.52 775.80,154.56 780.61,151.61 785.42,148.65 790.23,145.70 795.04,142.74 799.85,139.78 804.66,136.83 809.47,133.87 814.28,130.92 819.09,127.96 823.90,125.00 828.71,122.05 833.52,119.09 838.33,116.14 843.14,113.18 847.95,110.22 852.76,107.27 857.57,104.31 862.38,101.36 867.19,98.40 872.00,95.44"/>
<circle cx="694.90" cy="204.28" r="4.6" fill="#ffffff" stroke="#2ca02c" stroke-width="2"/>
<text x="700.90" y="198.28" font-family="Arial, sans-serif" font-size="10" fill="#2ca02c">max 62.2 ohm</text>
<line x1="502.00" y1="80.00" x2="524.00" y2="80.00" stroke="#1f77b4" stroke-width="2"/>
<text x="530.00" y="84.00" font-family="Arial, sans-serif" font-size="11">typ</text>
<line x1="502.00" y1="97.00" x2="524.00" y2="97.00" stroke="#ff7f0e" stroke-width="2" stroke-dasharray="5 4"/>
<text x="530.00" y="101.00" font-family="Arial, sans-serif" font-size="11">min</text>
<line x1="502.00" y1="114.00" x2="524.00" y2="114.00" stroke="#2ca02c" stroke-width="2" stroke-dasharray="2 4"/>
<text x="530.00" y="118.00" font-family="Arial, sans-serif" font-size="11">max</text>
<text x="682.00" y="386.00" text-anchor="middle" font-family="Arial, sans-serif" font-size="11">Vcc-relative table voltage (V)</text>
<text transform="translate(442.00 205.00) rotate(-90)" text-anchor="middle" font-family="Arial, sans-serif" font-size="11">Current (mA)</text>
<rect x="72.00" y="418.00" width="800.00" height="144.00" fill="#ffffff" stroke="#c8c8c8"/>
<text x="82.00" y="436.00" font-family="Arial, sans-serif" font-size="12" font-weight="700">Operating-point summary</text>
<text x="82.00" y="454.00" font-family="Arial, sans-serif" font-size="10" font-weight="700" fill="#333">Table</text>
<text x="174.00" y="454.00" font-family="Arial, sans-serif" font-size="10" font-weight="700" fill="#333">Corner</text>
<text x="242.00" y="454.00" font-family="Arial, sans-serif" font-size="10" font-weight="700" fill="#333">Vout</text>
<text x="332.00" y="454.00" font-family="Arial, sans-serif" font-size="10" font-weight="700" fill="#333">Iop</text>
<text x="422.00" y="454.00" font-family="Arial, sans-serif" font-size="10" font-weight="700" fill="#333">Zout</text>
<text x="512.00" y="454.00" font-family="Arial, sans-serif" font-size="10" font-weight="700" fill="#333">Rseries</text>
<text x="82.00" y="473.00" font-family="Arial, sans-serif" font-size="10" fill="#1f77b4">pulldown</text>
<text x="174.00" y="473.00" font-family="Arial, sans-serif" font-size="10" fill="#1f77b4">typ</text>
<text x="242.00" y="473.00" font-family="Arial, sans-serif" font-size="10" fill="#1f77b4">0.8414 V</text>
<text x="332.00" y="473.00" font-family="Arial, sans-serif" font-size="10" fill="#1f77b4">7.2 mA</text>
<text x="422.00" y="473.00" font-family="Arial, sans-serif" font-size="10" fill="#1f77b4">117 ohm</text>
<text x="512.00" y="473.00" font-family="Arial, sans-serif" font-size="10" fill="#1f77b4">-67.3 ohm</text>
<text x="82.00" y="492.00" font-family="Arial, sans-serif" font-size="10" fill="#ff7f0e">pulldown</text>
<text x="174.00" y="492.00" font-family="Arial, sans-serif" font-size="10" fill="#ff7f0e">min</text>
<text x="242.00" y="492.00" font-family="Arial, sans-serif" font-size="10" fill="#ff7f0e">0.8957 V</text>
<text x="332.00" y="492.00" font-family="Arial, sans-serif" font-size="10" fill="#ff7f0e">3.7 mA</text>
<text x="422.00" y="492.00" font-family="Arial, sans-serif" font-size="10" fill="#ff7f0e">243 ohm</text>
<text x="512.00" y="492.00" font-family="Arial, sans-serif" font-size="10" fill="#ff7f0e">-193 ohm</text>
<text x="82.00" y="511.00" font-family="Arial, sans-serif" font-size="10" fill="#2ca02c">pulldown</text>
<text x="174.00" y="511.00" font-family="Arial, sans-serif" font-size="10" fill="#2ca02c">max</text>
<text x="242.00" y="511.00" font-family="Arial, sans-serif" font-size="10" fill="#2ca02c">0.7162 V</text>
<text x="332.00" y="511.00" font-family="Arial, sans-serif" font-size="10" fill="#2ca02c">12 mA</text>
<text x="422.00" y="511.00" font-family="Arial, sans-serif" font-size="10" fill="#2ca02c">59.3 ohm</text>
<text x="512.00" y="511.00" font-family="Arial, sans-serif" font-size="10" fill="#2ca02c">-9.316 ohm</text>
<text x="82.00" y="530.00" font-family="Arial, sans-serif" font-size="10" fill="#1f77b4">pullup</text>
<text x="174.00" y="530.00" font-family="Arial, sans-serif" font-size="10" fill="#1f77b4">typ</text>
<text x="242.00" y="530.00" font-family="Arial, sans-serif" font-size="10" fill="#1f77b4">0.3596 V</text>
<text x="332.00" y="530.00" font-family="Arial, sans-serif" font-size="10" fill="#1f77b4">-7.2 mA</text>
<text x="422.00" y="530.00" font-family="Arial, sans-serif" font-size="10" fill="#1f77b4">117 ohm</text>
<text x="512.00" y="530.00" font-family="Arial, sans-serif" font-size="10" fill="#1f77b4">-66.9 ohm</text>
<text x="82.00" y="549.00" font-family="Arial, sans-serif" font-size="10" fill="#ff7f0e">pullup</text>
<text x="174.00" y="549.00" font-family="Arial, sans-serif" font-size="10" fill="#ff7f0e">min</text>
<text x="242.00" y="549.00" font-family="Arial, sans-serif" font-size="10" fill="#ff7f0e">0.1979 V</text>
<text x="332.00" y="549.00" font-family="Arial, sans-serif" font-size="10" fill="#ff7f0e">-4 mA</text>
<text x="422.00" y="549.00" font-family="Arial, sans-serif" font-size="10" fill="#ff7f0e">223 ohm</text>
<text x="512.00" y="549.00" font-family="Arial, sans-serif" font-size="10" fill="#ff7f0e">-173 ohm</text>
<text x="82.00" y="568.00" font-family="Arial, sans-serif" font-size="10" fill="#2ca02c">pullup</text>
<text x="174.00" y="568.00" font-family="Arial, sans-serif" font-size="10" fill="#2ca02c">max</text>
<text x="242.00" y="568.00" font-family="Arial, sans-serif" font-size="10" fill="#2ca02c">0.5881 V</text>
<text x="332.00" y="568.00" font-family="Arial, sans-serif" font-size="10" fill="#2ca02c">-12 mA</text>
<text x="422.00" y="568.00" font-family="Arial, sans-serif" font-size="10" fill="#2ca02c">62.2 ohm</text>
<text x="512.00" y="568.00" font-family="Arial, sans-serif" font-size="10" fill="#2ca02c">-12.2 ohm</text>
</svg>