<svg xmlns="http://www.w3.org/2000/svg" width="900" height="620" viewBox="0 0 900 620">
<rect width="100%" height="100%" fill="#ffffff"/>
<text x="72" y="26" font-family="Arial, sans-serif" font-size="16" font-weight="700">E34_GPIO_I2CSCLIN_1V1_00_ISOSW Zout Load-Line Curves</text>
<text x="72" y="45" font-family="Arial, sans-serif" font-size="11" fill="#555">Rload=50 ohm; solid=device I-V, dashed=load line, circles=operating points</text>
<rect x="72.00" y="62.00" width="380.00" height="286.00" fill="#fbfbfb" stroke="#c8c8c8"/>
<text x="80.00" y="50.00" font-family="Arial, sans-serif" font-size="13" font-weight="700">[Pulldown] Rload to Vdd</text>
<line x1="72.00" y1="62.00" x2="72.00" y2="348.00" stroke="#ececec"/>
<text x="72.00" y="366.00" text-anchor="middle" font-family="Arial, sans-serif" font-size="10">-1.2</text>
<line x1="167.00" y1="62.00" x2="167.00" y2="348.00" stroke="#ececec"/>
<text x="167.00" y="366.00" text-anchor="middle" font-family="Arial, sans-serif" font-size="10">-0.341</text>
<line x1="262.00" y1="62.00" x2="262.00" y2="348.00" stroke="#ececec"/>
<text x="262.00" y="366.00" text-anchor="middle" font-family="Arial, sans-serif" font-size="10">0.55</text>
<line x1="357.00" y1="62.00" x2="357.00" y2="348.00" stroke="#ececec"/>
<text x="357.00" y="366.00" text-anchor="middle" font-family="Arial, sans-serif" font-size="10">1.4</text>
<line x1="452.00" y1="62.00" x2="452.00" y2="348.00" stroke="#ececec"/>
<text x="452.00" y="366.00" text-anchor="middle" font-family="Arial, sans-serif" font-size="10">2.3</text>
<line x1="72.00" y1="348.00" x2="452.00" y2="348.00" stroke="#ececec"/>
<text x="65.00" y="352.00" text-anchor="end" font-family="Arial, sans-serif" font-size="10">-33</text>
<line x1="72.00" y1="276.50" x2="452.00" y2="276.50" stroke="#ececec"/>
<text x="65.00" y="280.50" text-anchor="end" font-family="Arial, sans-serif" font-size="10">-11</text>
<line x1="72.00" y1="205.00" x2="452.00" y2="205.00" stroke="#ececec"/>
<text x="65.00" y="209.00" text-anchor="end" font-family="Arial, sans-serif" font-size="10">11</text>
<line x1="72.00" y1="133.50" x2="452.00" y2="133.50" stroke="#ececec"/>
<text x="65.00" y="137.50" text-anchor="end" font-family="Arial, sans-serif" font-size="10">33</text>
<line x1="72.00" y1="62.00" x2="452.00" y2="62.00" stroke="#ececec"/>
<text x="65.00" y="66.00" text-anchor="end" font-family="Arial, sans-serif" font-size="10">55</text>
<line x1="203.36" y1="62" x2="203.36" y2="348" stroke="#777" stroke-dasharray="4 4"/>
<line x1="72.0" y1="241.04" x2="452.0" y2="241.04" stroke="#777" stroke-dasharray="4 4"/>
<polyline fill="none" stroke="#1f77b4" stroke-width="1.8" points="86.07,252.64 91.41,252.64 96.74,252.64 103.13,252.64 108.46,252.64 113.80,252.64 119.13,252.64 124.46,252.64 129.79,252.63 134.05,252.57 135.12,252.54 136.19,252.51 137.25,252.48 138.32,252.44 139.38,252.39 140.45,252.34 141.52,252.29 142.58,252.22 143.65,252.15 144.72,252.07 145.78,251.99 146.85,251.89 147.91,251.79 148.98,251.68 150.05,251.56 151.11,251.42 152.18,251.28 153.25,251.14 154.31,250.98 155.38,250.81 156.44,250.63 157.51,250.44 158.58,250.25 159.64,250.05 162.84,249.40 169.24,247.99 174.57,246.79 179.90,245.62 185.23,244.48 190.56,243.40 195.89,242.37 202.29,241.22 203.36,241.04 207.62,240.33 212.95,239.52 218.29,238.79 223.62,238.14 228.95,237.59 235.34,237.05 240.68,236.72 246.01,236.50 251.34,236.35 256.67,236.27 263.07,236.21 268.40,236.17 273.73,236.15 279.06,236.12 284.39,236.10 289.72,236.09 296.12,236.07 301.45,236.05 304.65,236.04 306.78,236.04 308.91,236.03 312.11,236.02 316.38,236.01 317.44,236.01 320.64,236.00 322.77,236.00 329.17,235.99 332.37,235.98 334.50,235.98 339.83,235.97 345.16,235.96 350.50,235.95 355.83,235.94 362.22,235.93 367.56,235.91 372.89,235.87 378.22,235.78 383.55,235.58 388.88,235.27 395.28,234.70 400.61,234.10 403.81,233.68 404.87,233.53 405.94,233.38 407.01,233.23 408.07,233.07 409.14,232.90 410.20,232.74 411.27,232.57 412.34,232.39 413.40,232.22 415.54,231.85 416.60,231.67 421.93,230.69 428.33,229.43 433.66,228.31 437.93,227.37"/>
<polyline fill="none" stroke="#ff7f0e" stroke-width="1.8" stroke-dasharray="5 4" points="86.07,248.06 91.41,248.06 96.74,248.06 103.13,248.06 108.46,248.06 113.80,248.06 119.13,248.06 124.46,248.06 129.79,248.05 134.05,248.00 135.12,247.98 136.19,247.96 137.25,247.93 138.32,247.90 139.38,247.87 140.45,247.84 141.52,247.80 142.58,247.76 143.65,247.72 144.72,247.67 145.78,247.62 146.85,247.57 147.91,247.51 148.98,247.45 150.05,247.38 151.11,247.31 152.18,247.23 153.25,247.15 154.31,247.07 155.38,246.98 156.44,246.89 157.51,246.79 158.58,246.69 159.64,246.58 162.84,246.22 169.24,245.41 174.57,244.66 179.90,243.91 185.23,243.18 190.56,242.49 195.89,241.85 202.29,241.15 203.36,241.04 207.62,240.62 212.95,240.16 218.29,239.75 223.62,239.41 228.95,239.14 235.34,238.89 240.68,238.76 246.01,238.68 251.34,238.64 256.67,238.61 263.07,238.59 268.40,238.57 273.73,238.56 279.06,238.55 284.39,238.54 289.72,238.53 296.12,238.52 301.45,238.52 304.65,238.51 306.78,238.51 308.91,238.51 312.11,238.51 316.38,238.50 317.44,238.50 320.64,238.50 322.77,238.49 329.17,238.49 332.37,238.48 334.50,238.48 339.83,238.47 345.16,238.45 350.50,238.41 355.83,238.33 362.22,238.16 367.56,237.92 372.89,237.59 378.22,237.19 383.55,236.71 388.88,236.17 395.28,235.45 400.61,234.79 403.81,234.38 404.87,234.23 405.94,234.09 407.01,233.95 408.07,233.80 409.14,233.65 410.20,233.50 411.27,233.35 412.34,233.20 413.40,233.04 415.54,232.73 416.60,232.57 421.93,231.79 428.33,230.85 433.66,230.07 437.93,229.44"/>
<polyline fill="none" stroke="#2ca02c" stroke-width="1.8" stroke-dasharray="2 4" points="86.07,258.24 91.41,258.24 96.74,258.24 103.13,258.24 108.46,258.24 113.80,258.24 119.13,258.24 124.46,258.24 129.79,258.24 134.05,258.22 135.12,258.20 136.19,258.18 137.25,258.14 138.32,258.10 139.38,258.04 140.45,257.98 141.52,257.90 142.58,257.81 143.65,257.71 144.72,257.59 145.78,257.46 146.85,257.32 147.91,257.16 148.98,256.98 150.05,256.79 151.11,256.58 152.18,256.36 153.25,256.12 154.31,255.87 155.38,255.60 156.44,255.32 157.51,255.03 158.58,254.73 159.64,254.41 162.84,253.43 169.24,251.37 174.57,249.65 179.90,247.95 185.23,246.30 190.56,244.68 195.89,243.12 202.29,241.33 203.36,241.04 207.62,239.91 212.95,238.57 218.29,237.32 223.62,236.17 228.95,235.14 235.34,234.06 240.68,233.30 246.01,232.70 251.34,232.25 256.67,231.93 263.07,231.69 268.40,231.57 273.73,231.49 279.06,231.43 284.39,231.38 289.72,231.34 296.12,231.29 301.45,231.26 304.65,231.25 306.78,231.23 308.91,231.22 312.11,231.21 316.38,231.19 317.44,231.18 320.64,231.17 322.77,231.16 329.17,231.13 332.37,231.12 334.50,231.11 339.83,231.10 345.16,231.08 350.50,231.06 355.83,231.04 362.22,231.03 367.56,231.01 372.89,231.00 378.22,230.98 383.55,230.96 388.88,230.93 395.28,230.83 400.61,230.62 403.81,230.42 404.87,230.34 405.94,230.25 407.01,230.15 408.07,230.04 409.14,229.93 410.20,229.81 411.27,229.68 412.34,229.54 413.40,229.40 415.54,229.09 416.60,228.92 421.93,227.98 428.33,226.65 433.66,225.39 437.93,224.29"/>
<polyline fill="none" stroke="#1f77b4" stroke-width="1.1" stroke-dasharray="6 4" points="72.00,88.24 76.81,91.19 81.62,94.15 86.43,97.10 91.24,100.06 96.05,103.02 100.86,105.97 105.67,108.93 110.48,111.88 115.29,114.84 120.10,117.80 124.91,120.75 129.72,123.71 134.53,126.66 139.34,129.62 144.15,132.58 148.96,135.53 153.77,138.49 158.58,141.44 163.39,144.40 168.20,147.36 173.01,150.31 177.82,153.27 182.63,156.23 187.44,159.18 192.25,162.14 197.06,165.09 201.87,168.05 206.68,171.01 211.49,173.96 216.30,176.92 221.11,179.87 225.92,182.83 230.73,185.79 235.54,188.74 240.35,191.70 245.16,194.65 249.97,197.61 254.78,200.57 259.59,203.52 264.41,206.48 269.22,209.43 274.03,212.39 278.84,215.35 283.65,218.30 288.46,221.26 293.27,224.21 298.08,227.17 302.89,230.13 307.70,233.08 312.51,236.04 317.32,238.99 322.13,241.95 326.94,244.91 331.75,247.86 336.56,250.82 341.37,253.77 346.18,256.73 350.99,259.69 355.80,262.64 360.61,265.60 365.42,268.56 370.23,271.51 375.04,274.47 379.85,277.42 384.66,280.38 389.47,283.34 394.28,286.29 399.09,289.25 403.90,292.20 408.71,295.16 413.52,298.12 418.33,301.07 423.14,304.03 427.95,306.98 432.76,309.94 437.57,312.90 442.38,315.85 447.19,318.81 452.00,321.76"/>
<circle cx="312.48" cy="236.02" r="4.6" fill="#ffffff" stroke="#1f77b4" stroke-width="2"/>
<text x="318.48" y="230.02" font-family="Arial, sans-serif" font-size="10" fill="#1f77b4">typ 669 ohm</text>
<polyline fill="none" stroke="#ff7f0e" stroke-width="1.1" stroke-dasharray="6 4" points="72.00,95.44 76.81,98.40 81.62,101.36 86.43,104.31 91.24,107.27 96.05,110.22 100.86,113.18 105.67,116.14 110.48,119.09 115.29,122.05 120.10,125.00 124.91,127.96 129.72,130.92 134.53,133.87 139.34,136.83 144.15,139.78 148.96,142.74 153.77,145.70 158.58,148.65 163.39,151.61 168.20,154.56 173.01,157.52 177.82,160.48 182.63,163.43 187.44,166.39 192.25,169.34 197.06,172.30 201.87,175.26 206.68,178.21 211.49,181.17 216.30,184.13 221.11,187.08 225.92,190.04 230.73,192.99 235.54,195.95 240.35,198.91 245.16,201.86 249.97,204.82 254.78,207.77 259.59,210.73 264.41,213.69 269.22,216.64 274.03,219.60 278.84,222.55 283.65,225.51 288.46,228.47 293.27,231.42 298.08,234.38 302.89,237.33 307.70,240.29 312.51,243.25 317.32,246.20 322.13,249.16 326.94,252.11 331.75,255.07 336.56,258.03 341.37,260.98 346.18,263.94 350.99,266.89 355.80,269.85 360.61,272.81 365.42,275.76 370.23,278.72 375.04,281.67 379.85,284.63 384.66,287.59 389.47,290.54 394.28,293.50 399.09,296.46 403.90,299.41 408.71,302.37 413.52,305.32 418.33,308.28 423.14,311.24 427.95,314.19 432.76,317.15 437.57,320.10 442.38,323.06 447.19,326.02 452.00,328.97"/>
<circle cx="304.81" cy="238.51" r="4.6" fill="#ffffff" stroke="#ff7f0e" stroke-width="2"/>
<text x="310.81" y="232.51" font-family="Arial, sans-serif" font-size="10" fill="#ff7f0e">min 1235 ohm</text>
<polyline fill="none" stroke="#2ca02c" stroke-width="1.1" stroke-dasharray="6 4" points="72.00,81.03 76.81,83.98 81.62,86.94 86.43,89.90 91.24,92.85 96.05,95.81 100.86,98.76 105.67,101.72 110.48,104.68 115.29,107.63 120.10,110.59 124.91,113.54 129.72,116.50 134.53,119.46 139.34,122.41 144.15,125.37 148.96,128.33 153.77,131.28 158.58,134.24 163.39,137.19 168.20,140.15 173.01,143.11 177.82,146.06 182.63,149.02 187.44,151.97 192.25,154.93 197.06,157.89 201.87,160.84 206.68,163.80 211.49,166.75 216.30,169.71 221.11,172.67 225.92,175.62 230.73,178.58 235.54,181.53 240.35,184.49 245.16,187.45 249.97,190.40 254.78,193.36 259.59,196.31 264.41,199.27 269.22,202.23 274.03,205.18 278.84,208.14 283.65,211.09 288.46,214.05 293.27,217.01 298.08,219.96 302.89,222.92 307.70,225.87 312.51,228.83 317.32,231.79 322.13,234.74 326.94,237.70 331.75,240.66 336.56,243.61 341.37,246.57 346.18,249.52 350.99,252.48 355.80,255.44 360.61,258.39 365.42,261.35 370.23,264.30 375.04,267.26 379.85,270.22 384.66,273.17 389.47,276.13 394.28,279.08 399.09,282.04 403.90,285.00 408.71,287.95 413.52,290.91 418.33,293.86 423.14,296.82 427.95,299.78 432.76,302.73 437.57,305.69 442.38,308.64 447.19,311.60 452.00,314.56"/>
<circle cx="316.34" cy="231.19" r="4.6" fill="#ffffff" stroke="#2ca02c" stroke-width="2"/>
<text x="322.34" y="225.19" font-family="Arial, sans-serif" font-size="10" fill="#2ca02c">max 352 ohm</text>
<line x1="82.00" y1="80.00" x2="104.00" y2="80.00" stroke="#1f77b4" stroke-width="2"/>
<text x="110.00" y="84.00" font-family="Arial, sans-serif" font-size="11">typ</text>
<line x1="82.00" y1="97.00" x2="104.00" y2="97.00" stroke="#ff7f0e" stroke-width="2" stroke-dasharray="5 4"/>
<text x="110.00" y="101.00" font-family="Arial, sans-serif" font-size="11">min</text>
<line x1="82.00" y1="114.00" x2="104.00" y2="114.00" stroke="#2ca02c" stroke-width="2" stroke-dasharray="2 4"/>
<text x="110.00" y="118.00" font-family="Arial, sans-serif" font-size="11">max</text>
<text x="262.00" y="386.00" text-anchor="middle" font-family="Arial, sans-serif" font-size="11">Output voltage (V)</text>
<text transform="translate(22.00 205.00) rotate(-90)" text-anchor="middle" font-family="Arial, sans-serif" font-size="11">Current (mA)</text>
<rect x="492.00" y="62.00" width="380.00" height="286.00" fill="#fbfbfb" stroke="#c8c8c8"/>
<text x="500.00" y="50.00" font-family="Arial, sans-serif" font-size="13" font-weight="700">[Pullup] Rload to GND</text>
<line x1="492.00" y1="62.00" x2="492.00" y2="348.00" stroke="#ececec"/>
<text x="492.00" y="366.00" text-anchor="middle" font-family="Arial, sans-serif" font-size="10">-1.2</text>
<line x1="587.00" y1="62.00" x2="587.00" y2="348.00" stroke="#ececec"/>
<text x="587.00" y="366.00" text-anchor="middle" font-family="Arial, sans-serif" font-size="10">-0.341</text>
<line x1="682.00" y1="62.00" x2="682.00" y2="348.00" stroke="#ececec"/>
<text x="682.00" y="366.00" text-anchor="middle" font-family="Arial, sans-serif" font-size="10">0.55</text>
<line x1="777.00" y1="62.00" x2="777.00" y2="348.00" stroke="#ececec"/>
<text x="777.00" y="366.00" text-anchor="middle" font-family="Arial, sans-serif" font-size="10">1.4</text>
<line x1="872.00" y1="62.00" x2="872.00" y2="348.00" stroke="#ececec"/>
<text x="872.00" y="366.00" text-anchor="middle" font-family="Arial, sans-serif" font-size="10">2.3</text>
<line x1="492.00" y1="348.00" x2="872.00" y2="348.00" stroke="#ececec"/>
<text x="485.00" y="352.00" text-anchor="end" font-family="Arial, sans-serif" font-size="10">-55</text>
<line x1="492.00" y1="276.50" x2="872.00" y2="276.50" stroke="#ececec"/>
<text x="485.00" y="280.50" text-anchor="end" font-family="Arial, sans-serif" font-size="10">-33</text>
<line x1="492.00" y1="205.00" x2="872.00" y2="205.00" stroke="#ececec"/>
<text x="485.00" y="209.00" text-anchor="end" font-family="Arial, sans-serif" font-size="10">-11</text>
<line x1="492.00" y1="133.50" x2="872.00" y2="133.50" stroke="#ececec"/>
<text x="485.00" y="137.50" text-anchor="end" font-family="Arial, sans-serif" font-size="10">11</text>
<line x1="492.00" y1="62.00" x2="872.00" y2="62.00" stroke="#ececec"/>
<text x="485.00" y="66.00" text-anchor="end" font-family="Arial, sans-serif" font-size="10">33</text>
<line x1="623.36" y1="62" x2="623.36" y2="348" stroke="#777" stroke-dasharray="4 4"/>
<line x1="492.0" y1="168.96" x2="872.0" y2="168.96" stroke="#777" stroke-dasharray="4 4"/>
<polyline fill="none" stroke="#1f77b4" stroke-width="1.8" points="506.07,142.76 511.41,144.31 516.74,145.84 523.13,147.64 528.46,149.11 533.80,150.54 539.13,151.94 544.46,153.30 549.79,154.61 556.19,156.13 561.52,157.34 566.85,158.50 572.18,159.62 577.51,160.70 582.84,161.74 589.24,162.97 594.57,163.97 599.90,164.94 603.10,165.52 604.17,165.71 605.23,165.90 609.50,166.64 610.56,166.83 611.63,167.01 612.70,167.19 615.89,167.73 622.29,168.79 623.36,168.96 627.62,169.62 632.95,170.38 634.02,170.52 635.09,170.66 636.15,170.79 637.22,170.92 638.29,171.05 639.35,171.18 640.42,171.30 643.62,171.65 648.95,172.17 653.21,172.53 655.34,172.69 657.48,172.83 658.54,172.89 659.61,172.95 660.68,173.01 661.74,173.06 662.81,173.11 663.87,173.16 664.94,173.20 666.01,173.24 667.07,173.28 668.14,173.31 669.21,173.34 670.27,173.36 671.34,173.39 672.40,173.41 673.47,173.43 674.54,173.44 675.60,173.46 676.67,173.47 677.74,173.48 678.80,173.50 683.07,173.54 688.40,173.58 693.73,173.62 699.06,173.65 704.39,173.68 709.72,173.71 716.12,173.74 721.45,173.77 724.65,173.78 726.78,173.79 728.91,173.80 732.11,173.81 733.18,173.81 737.44,173.83 740.64,173.84 742.77,173.84 749.17,173.86 752.37,173.87 754.50,173.88 759.83,173.90 765.16,173.91 770.50,173.92 775.83,173.92 782.22,173.92 787.56,173.92 792.89,173.92 798.22,173.92 803.55,173.92 808.88,173.92 815.28,173.92 820.61,173.92 825.94,173.92 831.27,173.92 836.60,173.92 841.93,173.92 848.33,173.92 853.66,173.92 857.93,173.92"/>
<polyline fill="none" stroke="#ff7f0e" stroke-width="1.8" stroke-dasharray="5 4" points="506.07,150.00 511.41,151.12 516.74,152.24 523.13,153.58 528.46,154.68 533.80,155.75 539.13,156.80 544.46,157.82 549.79,158.81 556.19,159.96 561.52,160.88 566.85,161.76 572.18,162.59 577.51,163.37 582.84,164.12 589.24,164.97 594.57,165.65 599.90,166.31 603.10,166.70 604.17,166.82 605.23,166.95 609.50,167.44 610.56,167.56 611.63,167.69 612.70,167.81 615.89,168.16 622.29,168.85 623.36,168.96 627.62,169.38 632.95,169.85 634.02,169.93 635.09,170.02 636.15,170.10 637.22,170.18 638.29,170.25 639.35,170.33 640.42,170.40 643.62,170.59 648.95,170.87 653.21,171.05 655.34,171.12 657.48,171.19 658.54,171.22 659.61,171.24 660.68,171.27 661.74,171.29 662.81,171.31 663.87,171.32 664.94,171.34 666.01,171.35 667.07,171.36 668.14,171.37 669.21,171.38 670.27,171.39 671.34,171.40 672.40,171.41 673.47,171.41 674.54,171.42 675.60,171.43 676.67,171.43 677.74,171.44 678.80,171.44 683.07,171.46 688.40,171.48 693.73,171.50 699.06,171.51 704.39,171.52 709.72,171.54 716.12,171.55 721.45,171.56 724.65,171.57 726.78,171.57 728.91,171.58 732.11,171.58 733.18,171.58 737.44,171.59 740.64,171.60 742.77,171.60 749.17,171.61 752.37,171.61 754.50,171.61 759.83,171.61 765.16,171.61 770.50,171.61 775.83,171.61 782.22,171.61 787.56,171.61 792.89,171.61 798.22,171.61 803.55,171.61 808.88,171.61 815.28,171.61 820.61,171.61 825.94,171.61 831.27,171.61 836.60,171.61 841.93,171.61 848.33,171.61 853.66,171.61 857.93,171.61"/>
<polyline fill="none" stroke="#2ca02c" stroke-width="1.8" stroke-dasharray="2 4" points="506.07,133.43 511.41,135.46 516.74,137.44 523.13,139.78 528.46,141.68 533.80,143.54 539.13,145.35 544.46,147.11 549.79,148.82 556.19,150.81 561.52,152.41 566.85,153.97 572.18,155.49 577.51,156.98 582.84,158.45 589.24,160.18 594.57,161.61 599.90,163.01 603.10,163.83 604.17,164.09 605.23,164.35 609.50,165.36 610.56,165.62 611.63,165.89 612.70,166.17 615.89,167.02 622.29,168.69 623.36,168.96 627.62,170.01 632.95,171.26 634.02,171.50 635.09,171.73 636.15,171.96 637.22,172.18 638.29,172.40 639.35,172.59 640.42,172.78 643.62,173.32 648.95,174.23 653.21,174.90 655.34,175.21 657.48,175.51 658.54,175.65 659.61,175.79 660.68,175.92 661.74,176.05 662.81,176.17 663.87,176.29 664.94,176.41 666.01,176.52 667.07,176.62 668.14,176.72 669.21,176.81 670.27,176.90 671.34,176.99 672.40,177.07 673.47,177.14 674.54,177.21 675.60,177.27 676.67,177.33 677.74,177.39 678.80,177.44 683.07,177.60 688.40,177.75 693.73,177.86 699.06,177.94 704.39,178.02 709.72,178.09 716.12,178.16 721.45,178.21 724.65,178.24 726.78,178.26 728.91,178.28 732.11,178.30 733.18,178.31 737.44,178.35 740.64,178.37 742.77,178.38 749.17,178.43 752.37,178.45 754.50,178.46 759.83,178.49 765.16,178.52 770.50,178.55 775.83,178.58 782.22,178.61 787.56,178.63 792.89,178.63 798.22,178.63 803.55,178.63 808.88,178.63 815.28,178.63 820.61,178.63 825.94,178.63 831.27,178.63 836.60,178.63 841.93,178.63 848.33,178.63 853.66,178.63 857.93,178.63"/>
<polyline fill="none" stroke="#1f77b4" stroke-width="1.1" stroke-dasharray="6 4" points="492.00,321.76 496.81,318.81 501.62,315.85 506.43,312.90 511.24,309.94 516.05,306.98 520.86,304.03 525.67,301.07 530.48,298.12 535.29,295.16 540.10,292.20 544.91,289.25 549.72,286.29 554.53,283.34 559.34,280.38 564.15,277.42 568.96,274.47 573.77,271.51 578.58,268.56 583.39,265.60 588.20,262.64 593.01,259.69 597.82,256.73 602.63,253.77 607.44,250.82 612.25,247.86 617.06,244.91 621.87,241.95 626.68,238.99 631.49,236.04 636.30,233.08 641.11,230.13 645.92,227.17 650.73,224.21 655.54,221.26 660.35,218.30 665.16,215.35 669.97,212.39 674.78,209.43 679.59,206.48 684.41,203.52 689.22,200.57 694.03,197.61 698.84,194.65 703.65,191.70 708.46,188.74 713.27,185.79 718.08,182.83 722.89,179.87 727.70,176.92 732.51,173.96 737.32,171.01 742.13,168.05 746.94,165.09 751.75,162.14 756.56,159.18 761.37,156.23 766.18,153.27 770.99,150.31 775.80,147.36 780.61,144.40 785.42,141.44 790.23,138.49 795.04,135.53 799.85,132.58 804.66,129.62 809.47,126.66 814.28,123.71 819.09,120.75 823.90,117.80 828.71,114.84 833.52,111.88 838.33,108.93 843.14,105.97 847.95,103.02 852.76,100.06 857.57,97.10 862.38,94.15 867.19,91.19 872.00,88.24"/>
<circle cx="732.75" cy="173.81" r="4.6" fill="#ffffff" stroke="#1f77b4" stroke-width="2"/>
<text x="738.75" y="167.81" font-family="Arial, sans-serif" font-size="10" fill="#1f77b4">typ 693 ohm</text>
<polyline fill="none" stroke="#ff7f0e" stroke-width="1.1" stroke-dasharray="6 4" points="492.00,314.56 496.81,311.60 501.62,308.64 506.43,305.69 511.24,302.73 516.05,299.78 520.86,296.82 525.67,293.86 530.48,290.91 535.29,287.95 540.10,285.00 544.91,282.04 549.72,279.08 554.53,276.13 559.34,273.17 564.15,270.22 568.96,267.26 573.77,264.30 578.58,261.35 583.39,258.39 588.20,255.44 593.01,252.48 597.82,249.52 602.63,246.57 607.44,243.61 612.25,240.66 617.06,237.70 621.87,234.74 626.68,231.79 631.49,228.83 636.30,225.87 641.11,222.92 645.92,219.96 650.73,217.01 655.54,214.05 660.35,211.09 665.16,208.14 669.97,205.18 674.78,202.23 679.59,199.27 684.41,196.31 689.22,193.36 694.03,190.40 698.84,187.45 703.65,184.49 708.46,181.53 713.27,178.58 718.08,175.62 722.89,172.67 727.70,169.71 732.51,166.75 737.32,163.80 742.13,160.84 746.94,157.89 751.75,154.93 756.56,151.97 761.37,149.02 766.18,146.06 770.99,143.11 775.80,140.15 780.61,137.19 785.42,134.24 790.23,131.28 795.04,128.33 799.85,125.37 804.66,122.41 809.47,119.46 814.28,116.50 819.09,113.54 823.90,110.59 828.71,107.63 833.52,104.68 838.33,101.72 843.14,98.76 847.95,95.81 852.76,92.85 857.57,89.90 862.38,86.94 867.19,83.98 872.00,81.03"/>
<circle cx="724.67" cy="171.57" r="4.6" fill="#ffffff" stroke="#ff7f0e" stroke-width="2"/>
<text x="730.67" y="165.57" font-family="Arial, sans-serif" font-size="10" fill="#ff7f0e">min 1194 ohm</text>
<polyline fill="none" stroke="#2ca02c" stroke-width="1.1" stroke-dasharray="6 4" points="492.00,328.97 496.81,326.02 501.62,323.06 506.43,320.10 511.24,317.15 516.05,314.19 520.86,311.24 525.67,308.28 530.48,305.32 535.29,302.37 540.10,299.41 544.91,296.46 549.72,293.50 554.53,290.54 559.34,287.59 564.15,284.63 568.96,281.67 573.77,278.72 578.58,275.76 583.39,272.81 588.20,269.85 593.01,266.89 597.82,263.94 602.63,260.98 607.44,258.03 612.25,255.07 617.06,252.11 621.87,249.16 626.68,246.20 631.49,243.25 636.30,240.29 641.11,237.33 645.92,234.38 650.73,231.42 655.54,228.47 660.35,225.51 665.16,222.55 669.97,219.60 674.78,216.64 679.59,213.69 684.41,210.73 689.22,207.77 694.03,204.82 698.84,201.86 703.65,198.91 708.46,195.95 713.27,192.99 718.08,190.04 722.89,187.08 727.70,184.13 732.51,181.17 737.32,178.21 742.13,175.26 746.94,172.30 751.75,169.34 756.56,166.39 761.37,163.43 766.18,160.48 770.99,157.52 775.80,154.56 780.61,151.61 785.42,148.65 790.23,145.70 795.04,142.74 799.85,139.78 804.66,136.83 809.47,133.87 814.28,130.92 819.09,127.96 823.90,125.00 828.71,122.05 833.52,119.09 838.33,116.14 843.14,113.18 847.95,110.22 852.76,107.27 857.57,104.31 862.38,101.36 867.19,98.40 872.00,95.44"/>
<circle cx="737.11" cy="178.34" r="4.6" fill="#ffffff" stroke="#2ca02c" stroke-width="2"/>
<text x="743.11" y="172.34" font-family="Arial, sans-serif" font-size="10" fill="#2ca02c">max 373 ohm</text>
<line x1="502.00" y1="80.00" x2="524.00" y2="80.00" stroke="#1f77b4" stroke-width="2"/>
<text x="530.00" y="84.00" font-family="Arial, sans-serif" font-size="11">typ</text>
<line x1="502.00" y1="97.00" x2="524.00" y2="97.00" stroke="#ff7f0e" stroke-width="2" stroke-dasharray="5 4"/>
<text x="530.00" y="101.00" font-family="Arial, sans-serif" font-size="11">min</text>
<line x1="502.00" y1="114.00" x2="524.00" y2="114.00" stroke="#2ca02c" stroke-width="2" stroke-dasharray="2 4"/>
<text x="530.00" y="118.00" font-family="Arial, sans-serif" font-size="11">max</text>
<text x="682.00" y="386.00" text-anchor="middle" font-family="Arial, sans-serif" font-size="11">Vcc-relative table voltage (V)</text>
<text transform="translate(442.00 205.00) rotate(-90)" text-anchor="middle" font-family="Arial, sans-serif" font-size="11">Current (mA)</text>
<rect x="72.00" y="418.00" width="800.00" height="144.00" fill="#ffffff" stroke="#c8c8c8"/>
<text x="82.00" y="436.00" font-family="Arial, sans-serif" font-size="12" font-weight="700">Operating-point summary</text>
<text x="82.00" y="454.00" font-family="Arial, sans-serif" font-size="10" font-weight="700" fill="#333">Table</text>
<text x="174.00" y="454.00" font-family="Arial, sans-serif" font-size="10" font-weight="700" fill="#333">Corner</text>
<text x="242.00" y="454.00" font-family="Arial, sans-serif" font-size="10" font-weight="700" fill="#333">Vout</text>
<text x="332.00" y="454.00" font-family="Arial, sans-serif" font-size="10" font-weight="700" fill="#333">Iop</text>
<text x="422.00" y="454.00" font-family="Arial, sans-serif" font-size="10" font-weight="700" fill="#333">Zout</text>
<text x="512.00" y="454.00" font-family="Arial, sans-serif" font-size="10" font-weight="700" fill="#333">Rseries</text>
<text x="82.00" y="473.00" font-family="Arial, sans-serif" font-size="10" fill="#1f77b4">pulldown</text>
<text x="174.00" y="473.00" font-family="Arial, sans-serif" font-size="10" fill="#1f77b4">typ</text>
<text x="242.00" y="473.00" font-family="Arial, sans-serif" font-size="10" fill="#1f77b4">1.023 V</text>
<text x="332.00" y="473.00" font-family="Arial, sans-serif" font-size="10" fill="#1f77b4">1.5 mA</text>
<text x="422.00" y="473.00" font-family="Arial, sans-serif" font-size="10" fill="#1f77b4">669 ohm</text>
<text x="512.00" y="473.00" font-family="Arial, sans-serif" font-size="10" fill="#1f77b4">-619 ohm</text>
<text x="82.00" y="492.00" font-family="Arial, sans-serif" font-size="10" fill="#ff7f0e">pulldown</text>
<text x="174.00" y="492.00" font-family="Arial, sans-serif" font-size="10" fill="#ff7f0e">min</text>
<text x="242.00" y="492.00" font-family="Arial, sans-serif" font-size="10" fill="#ff7f0e">0.9515 V</text>
<text x="332.00" y="492.00" font-family="Arial, sans-serif" font-size="10" fill="#ff7f0e">0.771 mA</text>
<text x="422.00" y="492.00" font-family="Arial, sans-serif" font-size="10" fill="#ff7f0e">1235 ohm</text>
<text x="512.00" y="492.00" font-family="Arial, sans-serif" font-size="10" fill="#ff7f0e">-1185 ohm</text>
<text x="82.00" y="511.00" font-family="Arial, sans-serif" font-size="10" fill="#2ca02c">pulldown</text>
<text x="174.00" y="511.00" font-family="Arial, sans-serif" font-size="10" fill="#2ca02c">max</text>
<text x="242.00" y="511.00" font-family="Arial, sans-serif" font-size="10" fill="#2ca02c">1.06 V</text>
<text x="332.00" y="511.00" font-family="Arial, sans-serif" font-size="10" fill="#2ca02c">3 mA</text>
<text x="422.00" y="511.00" font-family="Arial, sans-serif" font-size="10" fill="#2ca02c">352 ohm</text>
<text x="512.00" y="511.00" font-family="Arial, sans-serif" font-size="10" fill="#2ca02c">-302 ohm</text>
<text x="82.00" y="530.00" font-family="Arial, sans-serif" font-size="10" fill="#1f77b4">pullup</text>
<text x="174.00" y="530.00" font-family="Arial, sans-serif" font-size="10" fill="#1f77b4">typ</text>
<text x="242.00" y="530.00" font-family="Arial, sans-serif" font-size="10" fill="#1f77b4">0.07399 V</text>
<text x="332.00" y="530.00" font-family="Arial, sans-serif" font-size="10" fill="#1f77b4">-1.5 mA</text>
<text x="422.00" y="530.00" font-family="Arial, sans-serif" font-size="10" fill="#1f77b4">693 ohm</text>
<text x="512.00" y="530.00" font-family="Arial, sans-serif" font-size="10" fill="#1f77b4">-643 ohm</text>
<text x="82.00" y="549.00" font-family="Arial, sans-serif" font-size="10" fill="#ff7f0e">pullup</text>
<text x="174.00" y="549.00" font-family="Arial, sans-serif" font-size="10" fill="#ff7f0e">min</text>
<text x="242.00" y="549.00" font-family="Arial, sans-serif" font-size="10" fill="#ff7f0e">0.03979 V</text>
<text x="332.00" y="549.00" font-family="Arial, sans-serif" font-size="10" fill="#ff7f0e">-0.796 mA</text>
<text x="422.00" y="549.00" font-family="Arial, sans-serif" font-size="10" fill="#ff7f0e">1194 ohm</text>
<text x="512.00" y="549.00" font-family="Arial, sans-serif" font-size="10" fill="#ff7f0e">-1144 ohm</text>
<text x="82.00" y="568.00" font-family="Arial, sans-serif" font-size="10" fill="#2ca02c">pullup</text>
<text x="174.00" y="568.00" font-family="Arial, sans-serif" font-size="10" fill="#2ca02c">max</text>
<text x="242.00" y="568.00" font-family="Arial, sans-serif" font-size="10" fill="#2ca02c">0.1432 V</text>
<text x="332.00" y="568.00" font-family="Arial, sans-serif" font-size="10" fill="#2ca02c">-2.9 mA</text>
<text x="422.00" y="568.00" font-family="Arial, sans-serif" font-size="10" fill="#2ca02c">373 ohm</text>
<text x="512.00" y="568.00" font-family="Arial, sans-serif" font-size="10" fill="#2ca02c">-323 ohm</text>
</svg>