<svg xmlns="http://www.w3.org/2000/svg" width="900" height="620" viewBox="0 0 900 620">
<rect width="100%" height="100%" fill="#ffffff"/>
<text x="72" y="26" font-family="Arial, sans-serif" font-size="16" font-weight="700">E34_GPIO_SPI_1V2_00 Zout Load-Line Curves</text>
<text x="72" y="45" font-family="Arial, sans-serif" font-size="11" fill="#555">Rload=50 ohm; solid=device I-V, dashed=load line, circles=operating points</text>
<rect x="72.00" y="62.00" width="380.00" height="286.00" fill="#fbfbfb" stroke="#c8c8c8"/>
<text x="80.00" y="50.00" font-family="Arial, sans-serif" font-size="13" font-weight="700">[Pulldown] Rload to Vdd</text>
<line x1="72.00" y1="62.00" x2="72.00" y2="348.00" stroke="#ececec"/>
<text x="72.00" y="366.00" text-anchor="middle" font-family="Arial, sans-serif" font-size="10">-1.3</text>
<line x1="167.00" y1="62.00" x2="167.00" y2="348.00" stroke="#ececec"/>
<text x="167.00" y="366.00" text-anchor="middle" font-family="Arial, sans-serif" font-size="10">-0.372</text>
<line x1="262.00" y1="62.00" x2="262.00" y2="348.00" stroke="#ececec"/>
<text x="262.00" y="366.00" text-anchor="middle" font-family="Arial, sans-serif" font-size="10">0.6</text>
<line x1="357.00" y1="62.00" x2="357.00" y2="348.00" stroke="#ececec"/>
<text x="357.00" y="366.00" text-anchor="middle" font-family="Arial, sans-serif" font-size="10">1.6</text>
<line x1="452.00" y1="62.00" x2="452.00" y2="348.00" stroke="#ececec"/>
<text x="452.00" y="366.00" text-anchor="middle" font-family="Arial, sans-serif" font-size="10">2.5</text>
<line x1="72.00" y1="348.00" x2="452.00" y2="348.00" stroke="#ececec"/>
<text x="65.00" y="352.00" text-anchor="end" font-family="Arial, sans-serif" font-size="10">-36</text>
<line x1="72.00" y1="276.50" x2="452.00" y2="276.50" stroke="#ececec"/>
<text x="65.00" y="280.50" text-anchor="end" font-family="Arial, sans-serif" font-size="10">-12</text>
<line x1="72.00" y1="205.00" x2="452.00" y2="205.00" stroke="#ececec"/>
<text x="65.00" y="209.00" text-anchor="end" font-family="Arial, sans-serif" font-size="10">12</text>
<line x1="72.00" y1="133.50" x2="452.00" y2="133.50" stroke="#ececec"/>
<text x="65.00" y="137.50" text-anchor="end" font-family="Arial, sans-serif" font-size="10">36</text>
<line x1="72.00" y1="62.00" x2="452.00" y2="62.00" stroke="#ececec"/>
<text x="65.00" y="66.00" text-anchor="end" font-family="Arial, sans-serif" font-size="10">60</text>
<line x1="203.36" y1="62" x2="203.36" y2="348" stroke="#777" stroke-dasharray="4 4"/>
<line x1="72.0" y1="241.04" x2="452.0" y2="241.04" stroke="#777" stroke-dasharray="4 4"/>
<polyline fill="none" stroke="#1f77b4" stroke-width="1.8" points="86.07,282.65 91.94,282.65 96.83,282.65 102.69,282.65 108.55,282.65 113.44,282.65 118.33,282.65 119.30,282.65 120.28,282.65 121.26,282.65 122.24,282.65 123.21,282.59 124.19,282.48 125.17,282.34 126.15,282.17 127.12,281.97 128.10,281.76 129.08,281.54 130.06,281.30 131.03,281.05 132.01,280.79 133.97,280.24 135.92,279.64 137.87,279.00 140.81,277.95 142.76,277.20 143.74,276.80 144.72,276.39 146.67,275.54 147.65,275.09 148.63,274.63 149.60,274.16 150.58,273.68 151.56,273.18 152.53,272.68 154.49,271.63 156.44,270.54 159.38,268.83 163.29,266.43 169.15,262.66 174.04,259.44 179.90,255.56 185.77,251.73 190.65,248.60 196.52,244.99 201.40,242.13 203.36,241.04 207.27,238.94 213.13,236.05 218.02,233.91 223.88,231.67 224.86,231.33 226.81,230.70 227.79,230.39 228.77,230.10 229.75,229.82 231.70,229.29 234.63,228.58 240.50,227.44 246.36,226.64 251.25,226.20 257.11,225.84 262.98,225.59 267.86,225.42 273.73,225.25 278.62,225.12 284.48,224.98 286.43,224.93 290.34,224.85 294.25,224.77 295.23,224.75 301.09,224.63 306.96,224.52 308.91,224.49 311.85,224.44 317.71,224.34 320.64,224.29 323.57,224.24 328.46,224.16 332.37,224.10 334.33,224.07 339.21,224.00 345.08,223.91 350.94,223.82 355.83,223.75 361.69,223.63 367.56,223.45 372.44,223.20 378.31,222.75 384.17,222.07 389.06,221.31 394.92,220.15 400.79,218.70 405.67,217.30 411.54,215.38 416.42,213.60 422.29,211.27 428.15,208.73 433.04,206.48 437.93,204.10"/>
<polyline fill="none" stroke="#ff7f0e" stroke-width="1.8" stroke-dasharray="5 4" points="86.07,267.57 91.94,267.57 96.83,267.57 102.69,267.57 108.55,267.57 113.44,267.57 118.33,267.57 119.30,267.57 120.28,267.57 121.26,267.57 122.24,267.57 123.21,267.57 124.19,267.57 125.17,267.57 126.15,267.57 127.12,267.57 128.10,267.56 129.08,267.51 130.06,267.41 131.03,267.28 132.01,267.13 133.97,266.76 135.92,266.33 137.87,265.86 140.81,265.08 142.76,264.52 143.74,264.23 144.72,263.93 146.67,263.31 147.65,262.99 148.63,262.67 149.60,262.33 150.58,261.99 151.56,261.64 152.53,261.29 154.49,260.56 156.44,259.81 159.38,258.64 163.29,257.02 169.15,254.50 174.04,252.37 179.90,249.85 185.77,247.41 190.65,245.49 196.52,243.33 201.40,241.66 203.36,241.04 207.27,239.85 213.13,238.26 218.02,237.10 223.88,235.92 224.86,235.74 226.81,235.42 227.79,235.26 228.77,235.11 229.75,234.97 231.70,234.71 234.63,234.35 240.50,233.82 246.36,233.47 251.25,233.28 257.11,233.14 262.98,233.02 267.86,232.95 273.73,232.86 278.62,232.80 284.48,232.73 286.43,232.70 290.34,232.66 294.25,232.62 295.23,232.61 301.09,232.55 306.96,232.49 308.91,232.47 311.85,232.45 317.71,232.39 320.64,232.37 323.57,232.34 328.46,232.30 332.37,232.27 334.33,232.25 339.21,232.20 345.08,232.11 350.94,231.99 355.83,231.82 361.69,231.53 367.56,231.10 372.44,230.63 378.31,229.91 384.17,229.02 389.06,228.15 394.92,226.94 400.79,225.56 405.67,224.29 411.54,222.61 416.42,221.10 422.29,219.27 428.15,217.43 433.04,215.91 437.93,214.38"/>
<polyline fill="none" stroke="#2ca02c" stroke-width="1.8" stroke-dasharray="2 4" points="86.07,297.97 91.94,297.97 96.83,297.97 102.69,297.97 108.55,297.97 113.44,297.97 118.33,297.96 119.30,297.89 120.28,297.78 121.26,297.64 122.24,297.47 123.21,297.29 124.19,297.10 125.17,296.89 126.15,296.67 127.12,296.44 128.10,296.21 129.08,295.96 130.06,295.71 131.03,295.44 132.01,295.17 133.97,294.58 135.92,293.94 137.87,293.25 140.81,292.10 142.76,291.25 143.74,290.80 144.72,290.33 146.67,289.34 147.65,288.81 148.63,288.27 149.60,287.70 150.58,287.12 151.56,286.52 152.53,285.90 154.49,284.60 156.44,283.22 159.38,281.04 163.29,277.91 169.15,272.89 174.04,268.50 179.90,263.07 185.77,257.53 190.65,252.87 196.52,247.32 201.40,242.80 203.36,241.04 207.27,237.62 213.13,232.82 218.02,229.19 223.88,225.34 224.86,224.76 226.81,223.65 227.79,223.11 228.77,222.60 229.75,222.10 231.70,221.15 234.63,219.86 240.50,217.72 246.36,216.13 251.25,215.17 257.11,214.37 262.98,213.81 267.86,213.47 273.73,213.14 278.62,212.90 284.48,212.65 286.43,212.58 290.34,212.43 294.25,212.29 295.23,212.26 301.09,212.07 306.96,211.89 308.91,211.83 311.85,211.75 317.71,211.58 320.64,211.50 323.57,211.42 328.46,211.29 332.37,211.19 334.33,211.14 339.21,211.02 345.08,210.88 350.94,210.74 355.83,210.63 361.69,210.49 367.56,210.36 372.44,210.23 378.31,210.02 384.17,209.66 389.06,209.18 394.92,208.30 400.79,207.02 405.67,205.64 411.54,203.61 416.42,201.64 422.29,198.98 428.15,196.05 433.04,193.44 437.93,190.69"/>
<polyline fill="none" stroke="#1f77b4" stroke-width="1.1" stroke-dasharray="6 4" points="72.00,88.24 76.81,91.19 81.62,94.15 86.43,97.10 91.24,100.06 96.05,103.02 100.86,105.97 105.67,108.93 110.48,111.88 115.29,114.84 120.10,117.80 124.91,120.75 129.72,123.71 134.53,126.66 139.34,129.62 144.15,132.58 148.96,135.53 153.77,138.49 158.58,141.44 163.39,144.40 168.20,147.36 173.01,150.31 177.82,153.27 182.63,156.23 187.44,159.18 192.25,162.14 197.06,165.09 201.87,168.05 206.68,171.01 211.49,173.96 216.30,176.92 221.11,179.87 225.92,182.83 230.73,185.79 235.54,188.74 240.35,191.70 245.16,194.65 249.97,197.61 254.78,200.57 259.59,203.52 264.41,206.48 269.22,209.43 274.03,212.39 278.84,215.35 283.65,218.30 288.46,221.26 293.27,224.21 298.08,227.17 302.89,230.13 307.70,233.08 312.51,236.04 317.32,238.99 322.13,241.95 326.94,244.91 331.75,247.86 336.56,250.82 341.37,253.77 346.18,256.73 350.99,259.69 355.80,262.64 360.61,265.60 365.42,268.56 370.23,271.51 375.04,274.47 379.85,277.42 384.66,280.38 389.47,283.34 394.28,286.29 399.09,289.25 403.90,292.20 408.71,295.16 413.52,298.12 418.33,301.07 423.14,304.03 427.95,306.98 432.76,309.94 437.57,312.90 442.38,315.85 447.19,318.81 452.00,321.76"/>
<circle cx="294.17" cy="224.77" r="4.6" fill="#ffffff" stroke="#1f77b4" stroke-width="2"/>
<text x="300.17" y="218.77" font-family="Arial, sans-serif" font-size="10" fill="#1f77b4">typ 172 ohm</text>
<polyline fill="none" stroke="#ff7f0e" stroke-width="1.1" stroke-dasharray="6 4" points="72.00,95.44 76.81,98.40 81.62,101.36 86.43,104.31 91.24,107.27 96.05,110.22 100.86,113.18 105.67,116.14 110.48,119.09 115.29,122.05 120.10,125.00 124.91,127.96 129.72,130.92 134.53,133.87 139.34,136.83 144.15,139.78 148.96,142.74 153.77,145.70 158.58,148.65 163.39,151.61 168.20,154.56 173.01,157.52 177.82,160.48 182.63,163.43 187.44,166.39 192.25,169.34 197.06,172.30 201.87,175.26 206.68,178.21 211.49,181.17 216.30,184.13 221.11,187.08 225.92,190.04 230.73,192.99 235.54,195.95 240.35,198.91 245.16,201.86 249.97,204.82 254.78,207.77 259.59,210.73 264.41,213.69 269.22,216.64 274.03,219.60 278.84,222.55 283.65,225.51 288.46,228.47 293.27,231.42 298.08,234.38 302.89,237.33 307.70,240.29 312.51,243.25 317.32,246.20 322.13,249.16 326.94,252.11 331.75,255.07 336.56,258.03 341.37,260.98 346.18,263.94 350.99,266.89 355.80,269.85 360.61,272.81 365.42,275.76 370.23,278.72 375.04,281.67 379.85,284.63 384.66,287.59 389.47,290.54 394.28,293.50 399.09,296.46 403.90,299.41 408.71,302.37 413.52,305.32 418.33,308.28 423.14,311.24 427.95,314.19 432.76,317.15 437.57,320.10 442.38,323.06 447.19,326.02 452.00,328.97"/>
<circle cx="295.20" cy="232.61" r="4.6" fill="#ffffff" stroke="#ff7f0e" stroke-width="2"/>
<text x="301.20" y="226.61" font-family="Arial, sans-serif" font-size="10" fill="#ff7f0e">min 335 ohm</text>
<polyline fill="none" stroke="#2ca02c" stroke-width="1.1" stroke-dasharray="6 4" points="72.00,81.03 76.81,83.98 81.62,86.94 86.43,89.90 91.24,92.85 96.05,95.81 100.86,98.76 105.67,101.72 110.48,104.68 115.29,107.63 120.10,110.59 124.91,113.54 129.72,116.50 134.53,119.46 139.34,122.41 144.15,125.37 148.96,128.33 153.77,131.28 158.58,134.24 163.39,137.19 168.20,140.15 173.01,143.11 177.82,146.06 182.63,149.02 187.44,151.97 192.25,154.93 197.06,157.89 201.87,160.84 206.68,163.80 211.49,166.75 216.30,169.71 221.11,172.67 225.92,175.62 230.73,178.58 235.54,181.53 240.35,184.49 245.16,187.45 249.97,190.40 254.78,193.36 259.59,196.31 264.41,199.27 269.22,202.23 274.03,205.18 278.84,208.14 283.65,211.09 288.46,214.05 293.27,217.01 298.08,219.96 302.89,222.92 307.70,225.87 312.51,228.83 317.32,231.79 322.13,234.74 326.94,237.70 331.75,240.66 336.56,243.61 341.37,246.57 346.18,249.52 350.99,252.48 355.80,255.44 360.61,258.39 365.42,261.35 370.23,264.30 375.04,267.26 379.85,270.22 384.66,273.17 389.47,276.13 394.28,279.08 399.09,282.04 403.90,285.00 408.71,287.95 413.52,290.91 418.33,293.86 423.14,296.82 427.95,299.78 432.76,302.73 437.57,305.69 442.38,308.64 447.19,311.60 452.00,314.56"/>
<circle cx="286.08" cy="212.59" r="4.6" fill="#ffffff" stroke="#2ca02c" stroke-width="2"/>
<text x="292.08" y="206.59" font-family="Arial, sans-serif" font-size="10" fill="#2ca02c">max 89.4 ohm</text>
<line x1="82.00" y1="80.00" x2="104.00" y2="80.00" stroke="#1f77b4" stroke-width="2"/>
<text x="110.00" y="84.00" font-family="Arial, sans-serif" font-size="11">typ</text>
<line x1="82.00" y1="97.00" x2="104.00" y2="97.00" stroke="#ff7f0e" stroke-width="2" stroke-dasharray="5 4"/>
<text x="110.00" y="101.00" font-family="Arial, sans-serif" font-size="11">min</text>
<line x1="82.00" y1="114.00" x2="104.00" y2="114.00" stroke="#2ca02c" stroke-width="2" stroke-dasharray="2 4"/>
<text x="110.00" y="118.00" font-family="Arial, sans-serif" font-size="11">max</text>
<text x="262.00" y="386.00" text-anchor="middle" font-family="Arial, sans-serif" font-size="11">Output voltage (V)</text>
<text transform="translate(22.00 205.00) rotate(-90)" text-anchor="middle" font-family="Arial, sans-serif" font-size="11">Current (mA)</text>
<rect x="492.00" y="62.00" width="380.00" height="286.00" fill="#fbfbfb" stroke="#c8c8c8"/>
<text x="500.00" y="50.00" font-family="Arial, sans-serif" font-size="13" font-weight="700">[Pullup] Rload to GND</text>
<line x1="492.00" y1="62.00" x2="492.00" y2="348.00" stroke="#ececec"/>
<text x="492.00" y="366.00" text-anchor="middle" font-family="Arial, sans-serif" font-size="10">-1.3</text>
<line x1="587.00" y1="62.00" x2="587.00" y2="348.00" stroke="#ececec"/>
<text x="587.00" y="366.00" text-anchor="middle" font-family="Arial, sans-serif" font-size="10">-0.372</text>
<line x1="682.00" y1="62.00" x2="682.00" y2="348.00" stroke="#ececec"/>
<text x="682.00" y="366.00" text-anchor="middle" font-family="Arial, sans-serif" font-size="10">0.6</text>
<line x1="777.00" y1="62.00" x2="777.00" y2="348.00" stroke="#ececec"/>
<text x="777.00" y="366.00" text-anchor="middle" font-family="Arial, sans-serif" font-size="10">1.6</text>
<line x1="872.00" y1="62.00" x2="872.00" y2="348.00" stroke="#ececec"/>
<text x="872.00" y="366.00" text-anchor="middle" font-family="Arial, sans-serif" font-size="10">2.5</text>
<line x1="492.00" y1="348.00" x2="872.00" y2="348.00" stroke="#ececec"/>
<text x="485.00" y="352.00" text-anchor="end" font-family="Arial, sans-serif" font-size="10">-60</text>
<line x1="492.00" y1="276.50" x2="872.00" y2="276.50" stroke="#ececec"/>
<text x="485.00" y="280.50" text-anchor="end" font-family="Arial, sans-serif" font-size="10">-35</text>
<line x1="492.00" y1="205.00" x2="872.00" y2="205.00" stroke="#ececec"/>
<text x="485.00" y="209.00" text-anchor="end" font-family="Arial, sans-serif" font-size="10">-10</text>
<line x1="492.00" y1="133.50" x2="872.00" y2="133.50" stroke="#ececec"/>
<text x="485.00" y="137.50" text-anchor="end" font-family="Arial, sans-serif" font-size="10">15</text>
<line x1="492.00" y1="62.00" x2="872.00" y2="62.00" stroke="#ececec"/>
<text x="485.00" y="66.00" text-anchor="end" font-family="Arial, sans-serif" font-size="10">40</text>
<line x1="623.36" y1="62" x2="623.36" y2="348" stroke="#777" stroke-dasharray="4 4"/>
<line x1="492.0" y1="175.99" x2="872.0" y2="175.99" stroke="#777" stroke-dasharray="4 4"/>
<polyline fill="none" stroke="#1f77b4" stroke-width="1.8" points="506.07,108.82 511.94,112.86 516.83,116.19 522.69,120.13 528.55,124.00 533.44,127.19 539.30,130.95 544.19,134.02 550.06,137.65 555.92,141.20 560.81,144.09 566.67,147.49 572.53,150.80 577.42,153.50 583.29,156.67 589.15,159.75 594.04,162.26 599.90,165.20 605.77,168.05 610.65,170.34 611.63,170.79 614.56,172.12 615.54,172.56 621.40,175.15 623.36,175.99 627.27,177.60 629.22,178.36 630.20,178.73 631.18,179.09 632.15,179.44 633.13,179.79 634.11,180.13 638.02,181.42 643.88,183.16 649.75,184.65 651.70,185.10 654.63,185.70 660.50,186.72 666.36,187.50 671.25,187.99 677.11,188.42 682.98,188.74 687.86,188.96 693.73,189.18 698.62,189.18 704.48,189.18 710.34,189.18 711.32,189.18 715.23,189.18 716.21,189.18 718.16,189.18 721.09,189.18 726.96,189.18 728.91,189.18 731.85,189.18 737.71,189.18 740.64,189.18 743.57,189.18 748.46,189.18 752.37,189.18 754.33,189.18 759.21,189.18 762.14,189.18 763.12,189.23 765.08,190.46 770.94,194.16 775.83,197.22 781.69,200.79 787.56,204.12 791.47,206.16 792.44,206.64 794.40,207.58 795.37,208.03 796.35,208.46 797.33,208.89 798.31,209.30 800.26,210.10 801.24,210.47 802.22,210.84 804.17,211.54 806.13,212.19 807.10,212.50 810.03,213.37 812.97,214.15 813.94,214.39 814.92,214.61 816.88,215.03 817.85,215.21 818.83,215.37 819.81,215.51 820.79,215.61 821.76,215.67 825.67,215.67 831.54,215.67 836.42,215.67 842.29,215.67 845.22,215.67 848.15,215.67 853.04,215.67 857.93,215.67"/>
<polyline fill="none" stroke="#ff7f0e" stroke-width="1.8" stroke-dasharray="5 4" points="506.07,128.26 511.94,131.36 516.83,133.93 522.69,137.00 528.55,139.99 533.44,142.42 539.30,145.25 544.19,147.55 550.06,150.22 555.92,152.81 560.81,154.89 566.67,157.31 572.53,159.63 577.42,161.49 583.29,163.65 589.15,165.70 594.04,167.35 599.90,169.25 605.77,171.05 610.65,172.48 611.63,172.76 614.56,173.59 615.54,173.87 621.40,175.48 623.36,175.99 627.27,176.97 629.22,177.42 630.20,177.64 631.18,177.86 632.15,178.07 633.13,178.27 634.11,178.47 638.02,179.21 643.88,180.18 649.75,180.98 651.70,181.20 654.63,181.51 660.50,182.00 666.36,182.34 671.25,182.53 677.11,182.70 682.98,182.83 687.86,182.92 693.73,183.02 698.62,183.09 704.48,183.17 710.34,183.24 711.32,183.25 715.23,183.30 716.21,183.31 718.16,183.33 721.09,183.36 726.96,183.42 728.91,183.44 731.85,183.47 737.71,183.52 740.64,183.55 743.57,183.57 748.46,183.61 752.37,183.64 754.33,183.66 759.21,183.70 762.14,183.72 763.12,183.73 765.08,183.74 770.94,183.78 775.83,183.82 781.69,183.86 787.56,183.90 791.47,183.93 792.44,183.93 794.40,183.94 795.37,183.95 796.35,183.96 797.33,183.96 798.31,183.97 800.26,183.98 801.24,183.99 802.22,183.99 804.17,184.00 806.13,184.02 807.10,184.02 810.03,184.02 812.97,184.02 813.94,184.02 814.92,184.02 816.88,184.02 817.85,184.02 818.83,184.02 819.81,184.02 820.79,184.02 821.76,184.02 825.67,184.02 831.54,184.02 836.42,184.02 842.29,184.02 845.22,184.02 848.15,184.02 853.04,184.02 857.93,184.02"/>
<polyline fill="none" stroke="#2ca02c" stroke-width="1.8" stroke-dasharray="2 4" points="506.07,89.68 511.94,94.27 516.83,98.07 522.69,102.62 528.55,107.15 533.44,110.89 539.30,115.36 544.19,119.05 550.06,123.45 555.92,127.81 560.81,131.40 566.67,135.69 572.53,139.94 577.42,143.47 583.29,147.69 589.15,151.91 594.04,155.41 599.90,159.62 605.77,163.80 610.65,167.22 611.63,167.88 614.56,169.83 615.54,170.51 621.40,174.65 623.36,175.99 627.27,178.58 629.22,179.83 630.20,180.43 631.18,181.03 632.15,181.61 633.13,182.16 634.11,182.70 638.02,184.76 643.88,187.64 649.75,190.18 651.70,190.95 654.63,192.02 660.50,193.89 666.36,195.41 671.25,196.43 677.11,197.41 682.98,198.16 687.86,198.66 693.73,199.16 698.62,199.51 704.48,199.86 710.34,200.17 711.32,200.22 715.23,200.41 716.21,200.45 718.16,200.53 721.09,200.66 726.96,200.89 728.91,200.96 731.85,201.06 737.71,201.26 740.64,201.36 743.57,201.45 748.46,201.59 752.37,201.71 754.33,201.76 759.21,201.89 762.14,201.97 763.12,202.00 765.08,202.05 770.94,202.20 775.83,202.31 781.69,202.45 787.56,202.58 791.47,202.67 792.44,202.69 794.40,202.74 795.37,202.76 796.35,202.78 797.33,202.80 798.31,202.82 800.26,202.86 801.24,202.88 802.22,202.90 804.17,202.94 806.13,202.98 807.10,203.00 810.03,203.06 812.97,203.12 813.94,203.14 814.92,203.16 816.88,203.20 817.85,203.22 818.83,203.24 819.81,203.25 820.79,203.27 821.76,203.29 825.67,203.37 831.54,203.48 836.42,203.57 842.29,203.68 845.22,203.73 848.15,203.73 853.04,203.73 857.93,203.73"/>
<polyline fill="none" stroke="#1f77b4" stroke-width="1.1" stroke-dasharray="6 4" points="492.00,321.70 496.81,318.88 501.62,316.06 506.43,313.24 511.24,310.42 516.05,307.60 520.86,304.78 525.67,301.97 530.48,299.15 535.29,296.33 540.10,293.51 544.91,290.69 549.72,287.87 554.53,285.05 559.34,282.23 564.15,279.42 568.96,276.60 573.77,273.78 578.58,270.96 583.39,268.14 588.20,265.32 593.01,262.50 597.82,259.68 602.63,256.87 607.44,254.05 612.25,251.23 617.06,248.41 621.87,245.59 626.68,242.77 631.49,239.95 636.30,237.13 641.11,234.32 645.92,231.50 650.73,228.68 655.54,225.86 660.35,223.04 665.16,220.22 669.97,217.40 674.78,214.58 679.59,211.77 684.41,208.95 689.22,206.13 694.03,203.31 698.84,200.49 703.65,197.67 708.46,194.85 713.27,192.03 718.08,189.22 722.89,186.40 727.70,183.58 732.51,180.76 737.32,177.94 742.13,175.12 746.94,172.30 751.75,169.48 756.56,166.67 761.37,163.85 766.18,161.03 770.99,158.21 775.80,155.39 780.61,152.57 785.42,149.75 790.23,146.93 795.04,144.12 799.85,141.30 804.66,138.48 809.47,135.66 814.28,132.84 819.09,130.02 823.90,127.20 828.71,124.38 833.52,121.57 838.33,118.75 843.14,115.93 847.95,113.11 852.76,110.29 857.57,107.47 862.38,104.65 867.19,101.83 872.00,99.02"/>
<circle cx="718.14" cy="189.18" r="4.6" fill="#ffffff" stroke="#1f77b4" stroke-width="2"/>
<text x="724.14" y="183.18" font-family="Arial, sans-serif" font-size="10" fill="#1f77b4">typ 211 ohm</text>
<polyline fill="none" stroke="#ff7f0e" stroke-width="1.1" stroke-dasharray="6 4" points="492.00,314.82 496.81,312.01 501.62,309.19 506.43,306.37 511.24,303.55 516.05,300.73 520.86,297.91 525.67,295.09 530.48,292.27 535.29,289.46 540.10,286.64 544.91,283.82 549.72,281.00 554.53,278.18 559.34,275.36 564.15,272.54 568.96,269.72 573.77,266.91 578.58,264.09 583.39,261.27 588.20,258.45 593.01,255.63 597.82,252.81 602.63,249.99 607.44,247.17 612.25,244.36 617.06,241.54 621.87,238.72 626.68,235.90 631.49,233.08 636.30,230.26 641.11,227.44 645.92,224.62 650.73,221.81 655.54,218.99 660.35,216.17 665.16,213.35 669.97,210.53 674.78,207.71 679.59,204.89 684.41,202.07 689.22,199.26 694.03,196.44 698.84,193.62 703.65,190.80 708.46,187.98 713.27,185.16 718.08,182.34 722.89,179.52 727.70,176.71 732.51,173.89 737.32,171.07 742.13,168.25 746.94,165.43 751.75,162.61 756.56,159.79 761.37,156.97 766.18,154.16 770.99,151.34 775.80,148.52 780.61,145.70 785.42,142.88 790.23,140.06 795.04,137.24 799.85,134.42 804.66,131.61 809.47,128.79 814.28,125.97 819.09,123.15 823.90,120.33 828.71,117.51 833.52,114.69 838.33,111.87 843.14,109.06 847.95,106.24 852.76,103.42 857.57,100.60 862.38,97.78 867.19,94.96 872.00,92.14"/>
<circle cx="716.42" cy="183.31" r="4.6" fill="#ffffff" stroke="#ff7f0e" stroke-width="2"/>
<text x="722.42" y="177.31" font-family="Arial, sans-serif" font-size="10" fill="#ff7f0e">min 373 ohm</text>
<polyline fill="none" stroke="#2ca02c" stroke-width="1.1" stroke-dasharray="6 4" points="492.00,328.57 496.81,325.75 501.62,322.93 506.43,320.11 511.24,317.30 516.05,314.48 520.86,311.66 525.67,308.84 530.48,306.02 535.29,303.20 540.10,300.38 544.91,297.56 549.72,294.75 554.53,291.93 559.34,289.11 564.15,286.29 568.96,283.47 573.77,280.65 578.58,277.83 583.39,275.01 588.20,272.20 593.01,269.38 597.82,266.56 602.63,263.74 607.44,260.92 612.25,258.10 617.06,255.28 621.87,252.46 626.68,249.65 631.49,246.83 636.30,244.01 641.11,241.19 645.92,238.37 650.73,235.55 655.54,232.73 660.35,229.91 665.16,227.10 669.97,224.28 674.78,221.46 679.59,218.64 684.41,215.82 689.22,213.00 694.03,210.18 698.84,207.36 703.65,204.55 708.46,201.73 713.27,198.91 718.08,196.09 722.89,193.27 727.70,190.45 732.51,187.63 737.32,184.81 742.13,182.00 746.94,179.18 751.75,176.36 756.56,173.54 761.37,170.72 766.18,167.90 770.99,165.08 775.80,162.26 780.61,159.45 785.42,156.63 790.23,153.81 795.04,150.99 799.85,148.17 804.66,145.35 809.47,142.53 814.28,139.71 819.09,136.90 823.90,134.08 828.71,131.26 833.52,128.44 838.33,125.62 843.14,122.80 847.95,119.98 852.76,117.16 857.57,114.35 862.38,111.53 867.19,108.71 872.00,105.89"/>
<circle cx="711.04" cy="200.21" r="4.6" fill="#ffffff" stroke="#2ca02c" stroke-width="2"/>
<text x="717.04" y="194.21" font-family="Arial, sans-serif" font-size="10" fill="#2ca02c">max 106 ohm</text>
<line x1="502.00" y1="80.00" x2="524.00" y2="80.00" stroke="#1f77b4" stroke-width="2"/>
<text x="530.00" y="84.00" font-family="Arial, sans-serif" font-size="11">typ</text>
<line x1="502.00" y1="97.00" x2="524.00" y2="97.00" stroke="#ff7f0e" stroke-width="2" stroke-dasharray="5 4"/>
<text x="530.00" y="101.00" font-family="Arial, sans-serif" font-size="11">min</text>
<line x1="502.00" y1="114.00" x2="524.00" y2="114.00" stroke="#2ca02c" stroke-width="2" stroke-dasharray="2 4"/>
<text x="530.00" y="118.00" font-family="Arial, sans-serif" font-size="11">max</text>
<text x="682.00" y="386.00" text-anchor="middle" font-family="Arial, sans-serif" font-size="11">Vcc-relative table voltage (V)</text>
<text transform="translate(442.00 205.00) rotate(-90)" text-anchor="middle" font-family="Arial, sans-serif" font-size="11">Current (mA)</text>
<rect x="72.00" y="418.00" width="800.00" height="144.00" fill="#ffffff" stroke="#c8c8c8"/>
<text x="82.00" y="436.00" font-family="Arial, sans-serif" font-size="12" font-weight="700">Operating-point summary</text>
<text x="82.00" y="454.00" font-family="Arial, sans-serif" font-size="10" font-weight="700" fill="#333">Table</text>
<text x="174.00" y="454.00" font-family="Arial, sans-serif" font-size="10" font-weight="700" fill="#333">Corner</text>
<text x="242.00" y="454.00" font-family="Arial, sans-serif" font-size="10" font-weight="700" fill="#333">Vout</text>
<text x="332.00" y="454.00" font-family="Arial, sans-serif" font-size="10" font-weight="700" fill="#333">Iop</text>
<text x="422.00" y="454.00" font-family="Arial, sans-serif" font-size="10" font-weight="700" fill="#333">Zout</text>
<text x="512.00" y="454.00" font-family="Arial, sans-serif" font-size="10" font-weight="700" fill="#333">Rseries</text>
<text x="82.00" y="473.00" font-family="Arial, sans-serif" font-size="10" fill="#1f77b4">pulldown</text>
<text x="174.00" y="473.00" font-family="Arial, sans-serif" font-size="10" fill="#1f77b4">typ</text>
<text x="242.00" y="473.00" font-family="Arial, sans-serif" font-size="10" fill="#1f77b4">0.9291 V</text>
<text x="332.00" y="473.00" font-family="Arial, sans-serif" font-size="10" fill="#1f77b4">5.4 mA</text>
<text x="422.00" y="473.00" font-family="Arial, sans-serif" font-size="10" fill="#1f77b4">172 ohm</text>
<text x="512.00" y="473.00" font-family="Arial, sans-serif" font-size="10" fill="#1f77b4">-122 ohm</text>
<text x="82.00" y="492.00" font-family="Arial, sans-serif" font-size="10" fill="#ff7f0e">pulldown</text>
<text x="174.00" y="492.00" font-family="Arial, sans-serif" font-size="10" fill="#ff7f0e">min</text>
<text x="242.00" y="492.00" font-family="Arial, sans-serif" font-size="10" fill="#ff7f0e">0.9396 V</text>
<text x="332.00" y="492.00" font-family="Arial, sans-serif" font-size="10" fill="#ff7f0e">2.8 mA</text>
<text x="422.00" y="492.00" font-family="Arial, sans-serif" font-size="10" fill="#ff7f0e">335 ohm</text>
<text x="512.00" y="492.00" font-family="Arial, sans-serif" font-size="10" fill="#ff7f0e">-285 ohm</text>
<text x="82.00" y="511.00" font-family="Arial, sans-serif" font-size="10" fill="#2ca02c">pulldown</text>
<text x="174.00" y="511.00" font-family="Arial, sans-serif" font-size="10" fill="#2ca02c">max</text>
<text x="242.00" y="511.00" font-family="Arial, sans-serif" font-size="10" fill="#2ca02c">0.8464 V</text>
<text x="332.00" y="511.00" font-family="Arial, sans-serif" font-size="10" fill="#2ca02c">9.5 mA</text>
<text x="422.00" y="511.00" font-family="Arial, sans-serif" font-size="10" fill="#2ca02c">89.4 ohm</text>
<text x="512.00" y="511.00" font-family="Arial, sans-serif" font-size="10" fill="#2ca02c">-39.4 ohm</text>
<text x="82.00" y="530.00" font-family="Arial, sans-serif" font-size="10" fill="#1f77b4">pullup</text>
<text x="174.00" y="530.00" font-family="Arial, sans-serif" font-size="10" fill="#1f77b4">typ</text>
<text x="242.00" y="530.00" font-family="Arial, sans-serif" font-size="10" fill="#1f77b4">0.2303 V</text>
<text x="332.00" y="530.00" font-family="Arial, sans-serif" font-size="10" fill="#1f77b4">-4.6 mA</text>
<text x="422.00" y="530.00" font-family="Arial, sans-serif" font-size="10" fill="#1f77b4">211 ohm</text>
<text x="512.00" y="530.00" font-family="Arial, sans-serif" font-size="10" fill="#1f77b4">-161 ohm</text>
<text x="82.00" y="549.00" font-family="Arial, sans-serif" font-size="10" fill="#ff7f0e">pullup</text>
<text x="174.00" y="549.00" font-family="Arial, sans-serif" font-size="10" fill="#ff7f0e">min</text>
<text x="242.00" y="549.00" font-family="Arial, sans-serif" font-size="10" fill="#ff7f0e">0.1278 V</text>
<text x="332.00" y="549.00" font-family="Arial, sans-serif" font-size="10" fill="#ff7f0e">-2.6 mA</text>
<text x="422.00" y="549.00" font-family="Arial, sans-serif" font-size="10" fill="#ff7f0e">373 ohm</text>
<text x="512.00" y="549.00" font-family="Arial, sans-serif" font-size="10" fill="#ff7f0e">-323 ohm</text>
<text x="82.00" y="568.00" font-family="Arial, sans-serif" font-size="10" fill="#2ca02c">pullup</text>
<text x="174.00" y="568.00" font-family="Arial, sans-serif" font-size="10" fill="#2ca02c">max</text>
<text x="242.00" y="568.00" font-family="Arial, sans-serif" font-size="10" fill="#2ca02c">0.4228 V</text>
<text x="332.00" y="568.00" font-family="Arial, sans-serif" font-size="10" fill="#2ca02c">-8.5 mA</text>
<text x="422.00" y="568.00" font-family="Arial, sans-serif" font-size="10" fill="#2ca02c">106 ohm</text>
<text x="512.00" y="568.00" font-family="Arial, sans-serif" font-size="10" fill="#2ca02c">-56.1 ohm</text>
</svg>