<svg xmlns="http://www.w3.org/2000/svg" width="900" height="620" viewBox="0 0 900 620">
<rect width="100%" height="100%" fill="#ffffff"/>
<text x="72" y="26" font-family="Arial, sans-serif" font-size="16" font-weight="700">E34_GPIO_I2CSCLIN_1V8_00_ISOSW Zout Load-Line Curves</text>
<text x="72" y="45" font-family="Arial, sans-serif" font-size="11" fill="#555">Rload=50 ohm; solid=device I-V, dashed=load line, circles=operating points</text>
<rect x="72.00" y="62.00" width="380.00" height="286.00" fill="#fbfbfb" stroke="#c8c8c8"/>
<text x="80.00" y="50.00" font-family="Arial, sans-serif" font-size="13" font-weight="700">[Pulldown] Rload to Vdd</text>
<line x1="72.00" y1="62.00" x2="72.00" y2="348.00" stroke="#ececec"/>
<text x="72.00" y="366.00" text-anchor="middle" font-family="Arial, sans-serif" font-size="10">-2</text>
<line x1="167.00" y1="62.00" x2="167.00" y2="348.00" stroke="#ececec"/>
<text x="167.00" y="366.00" text-anchor="middle" font-family="Arial, sans-serif" font-size="10">-0.558</text>
<line x1="262.00" y1="62.00" x2="262.00" y2="348.00" stroke="#ececec"/>
<text x="262.00" y="366.00" text-anchor="middle" font-family="Arial, sans-serif" font-size="10">0.9</text>
<line x1="357.00" y1="62.00" x2="357.00" y2="348.00" stroke="#ececec"/>
<text x="357.00" y="366.00" text-anchor="middle" font-family="Arial, sans-serif" font-size="10">2.4</text>
<line x1="452.00" y1="62.00" x2="452.00" y2="348.00" stroke="#ececec"/>
<text x="452.00" y="366.00" text-anchor="middle" font-family="Arial, sans-serif" font-size="10">3.8</text>
<line x1="72.00" y1="348.00" x2="452.00" y2="348.00" stroke="#ececec"/>
<text x="65.00" y="352.00" text-anchor="end" font-family="Arial, sans-serif" font-size="10">-53</text>
<line x1="72.00" y1="276.50" x2="452.00" y2="276.50" stroke="#ececec"/>
<text x="65.00" y="280.50" text-anchor="end" font-family="Arial, sans-serif" font-size="10">-18</text>
<line x1="72.00" y1="205.00" x2="452.00" y2="205.00" stroke="#ececec"/>
<text x="65.00" y="209.00" text-anchor="end" font-family="Arial, sans-serif" font-size="10">18</text>
<line x1="72.00" y1="133.50" x2="452.00" y2="133.50" stroke="#ececec"/>
<text x="65.00" y="137.50" text-anchor="end" font-family="Arial, sans-serif" font-size="10">54</text>
<line x1="72.00" y1="62.00" x2="452.00" y2="62.00" stroke="#ececec"/>
<text x="65.00" y="66.00" text-anchor="end" font-family="Arial, sans-serif" font-size="10">89</text>
<line x1="203.36" y1="62" x2="203.36" y2="348" stroke="#777" stroke-dasharray="4 4"/>
<line x1="72.0" y1="241.04" x2="452.0" y2="241.04" stroke="#777" stroke-dasharray="4 4"/>
<polyline fill="none" stroke="#1f77b4" stroke-width="1.8" points="86.07,251.43 91.29,251.43 97.15,251.43 102.36,251.43 108.23,251.43 113.44,251.43 119.30,251.43 124.52,251.43 130.38,251.43 135.59,251.43 141.46,251.43 146.67,251.43 151.88,251.43 157.75,251.40 160.35,251.32 161.01,251.30 161.66,251.27 162.31,251.23 162.96,251.19 163.61,251.15 164.26,251.10 164.91,251.04 165.57,250.99 166.22,250.92 166.87,250.85 167.52,250.77 168.17,250.69 168.82,250.60 169.48,250.50 170.13,250.40 170.78,250.29 171.43,250.17 172.08,250.05 172.73,249.92 173.39,249.78 174.04,249.64 174.69,249.48 175.34,249.33 175.99,249.16 179.90,248.08 185.11,246.50 190.98,244.71 196.19,243.14 202.05,241.41 203.36,241.04 207.27,239.93 212.48,238.48 218.34,236.93 223.56,235.62 229.42,234.24 234.63,233.10 240.50,231.94 245.71,231.03 251.57,230.15 256.79,229.51 262.65,228.95 267.86,228.60 273.08,228.35 278.94,228.16 284.15,228.04 290.02,227.94 295.23,227.88 297.19,227.86 297.84,227.85 299.14,227.84 301.09,227.82 306.31,227.77 308.91,227.75 312.17,227.73 317.38,227.70 320.64,227.68 322.60,227.67 328.46,227.63 332.37,227.61 333.67,227.61 339.54,227.58 344.75,227.56 350.61,227.53 355.83,227.50 361.69,227.45 366.90,227.35 372.77,227.11 377.98,226.69 383.19,226.03 389.06,225.01 391.66,224.48 392.97,224.19 394.27,223.90 396.22,223.43 400.13,222.44 402.74,221.73 404.70,221.18 406.65,220.61 407.95,220.23 411.21,219.24 416.42,217.57 422.29,215.60 427.50,213.78 433.36,211.65 437.93,209.95"/>
<polyline fill="none" stroke="#ff7f0e" stroke-width="1.8" stroke-dasharray="5 4" points="86.07,247.62 91.29,247.62 97.15,247.62 102.36,247.62 108.23,247.62 113.44,247.62 119.30,247.62 124.52,247.62 130.38,247.62 135.59,247.62 141.46,247.62 146.67,247.62 151.88,247.62 157.75,247.61 160.35,247.56 161.01,247.54 161.66,247.52 162.31,247.49 162.96,247.47 163.61,247.44 164.26,247.41 164.91,247.38 165.57,247.34 166.22,247.31 166.87,247.27 167.52,247.22 168.17,247.17 168.82,247.13 169.48,247.07 170.13,247.02 170.78,246.96 171.43,246.89 172.08,246.82 172.73,246.75 173.39,246.68 174.04,246.60 174.69,246.51 175.34,246.43 175.99,246.34 179.90,245.71 185.11,244.70 190.98,243.49 196.19,242.43 202.05,241.29 203.36,241.04 207.27,240.31 212.48,239.39 218.34,238.41 223.56,237.61 229.42,236.79 234.63,236.13 240.50,235.50 245.71,235.03 251.57,234.62 256.79,234.35 262.65,234.15 267.86,234.03 273.08,233.95 278.94,233.89 284.15,233.85 290.02,233.81 295.23,233.78 297.19,233.77 297.84,233.77 299.14,233.76 301.09,233.75 306.31,233.73 308.91,233.72 312.17,233.71 317.38,233.69 320.64,233.68 322.60,233.67 328.46,233.65 332.37,233.64 333.67,233.64 339.54,233.61 344.75,233.54 350.61,233.37 355.83,233.06 361.69,232.52 366.90,231.88 372.77,230.98 377.98,230.07 383.19,229.05 389.06,227.80 391.66,227.21 392.97,226.92 394.27,226.61 396.22,226.15 400.13,225.20 402.74,224.55 404.70,224.05 406.65,223.54 407.95,223.20 411.21,222.33 416.42,220.90 422.29,219.28 427.50,217.83 433.36,216.21 437.93,214.95"/>
<polyline fill="none" stroke="#2ca02c" stroke-width="1.8" stroke-dasharray="2 4" points="86.07,255.58 91.29,255.58 97.15,255.58 102.36,255.58 108.23,255.58 113.44,255.58 119.30,255.58 124.52,255.58 130.38,255.58 135.59,255.58 141.46,255.58 146.67,255.58 151.88,255.58 157.75,255.57 160.35,255.50 161.01,255.46 161.66,255.43 162.31,255.38 162.96,255.33 163.61,255.26 164.26,255.20 164.91,255.12 165.57,255.03 166.22,254.93 166.87,254.83 167.52,254.71 168.17,254.59 168.82,254.45 169.48,254.31 170.13,254.15 170.78,253.98 171.43,253.81 172.08,253.62 172.73,253.42 173.39,253.21 174.04,253.00 174.69,252.77 175.34,252.54 175.99,252.30 179.90,250.75 185.11,248.58 190.98,246.13 196.19,243.97 202.05,241.57 203.36,241.04 207.27,239.47 212.48,237.41 218.34,235.16 223.56,233.23 229.42,231.17 234.63,229.43 240.50,227.62 245.71,226.14 251.57,224.65 256.79,223.50 262.65,222.41 267.86,221.64 273.08,221.04 278.94,220.56 284.15,220.26 290.02,220.02 295.23,219.88 297.19,219.83 297.84,219.82 299.14,219.79 301.09,219.75 306.31,219.67 308.91,219.63 312.17,219.59 317.38,219.53 320.64,219.49 322.60,219.48 328.46,219.43 332.37,219.39 333.67,219.38 339.54,219.34 344.75,219.31 350.61,219.27 355.83,219.24 361.69,219.21 366.90,219.18 372.77,219.13 377.98,219.04 383.19,218.92 389.06,218.69 391.66,218.52 392.97,218.41 394.27,218.28 396.22,218.05 400.13,217.46 402.74,216.96 404.70,216.53 406.65,216.06 407.95,215.72 411.21,214.80 416.42,213.13 422.29,211.01 427.50,208.96 433.36,206.50 437.93,204.49"/>
<polyline fill="none" stroke="#1f77b4" stroke-width="1.1" stroke-dasharray="6 4" points="72.00,88.24 76.81,91.19 81.62,94.15 86.43,97.10 91.24,100.06 96.05,103.02 100.86,105.97 105.67,108.93 110.48,111.88 115.29,114.84 120.10,117.80 124.91,120.75 129.72,123.71 134.53,126.66 139.34,129.62 144.15,132.58 148.96,135.53 153.77,138.49 158.58,141.44 163.39,144.40 168.20,147.36 173.01,150.31 177.82,153.27 182.63,156.23 187.44,159.18 192.25,162.14 197.06,165.09 201.87,168.05 206.68,171.01 211.49,173.96 216.30,176.92 221.11,179.87 225.92,182.83 230.73,185.79 235.54,188.74 240.35,191.70 245.16,194.65 249.97,197.61 254.78,200.57 259.59,203.52 264.41,206.48 269.22,209.43 274.03,212.39 278.84,215.35 283.65,218.30 288.46,221.26 293.27,224.21 298.08,227.17 302.89,230.13 307.70,233.08 312.51,236.04 317.32,238.99 322.13,241.95 326.94,244.91 331.75,247.86 336.56,250.82 341.37,253.77 346.18,256.73 350.99,259.69 355.80,262.64 360.61,265.60 365.42,268.56 370.23,271.51 375.04,274.47 379.85,277.42 384.66,280.38 389.47,283.34 394.28,286.29 399.09,289.25 403.90,292.20 408.71,295.16 413.52,298.12 418.33,301.07 423.14,304.03 427.95,306.98 432.76,309.94 437.57,312.90 442.38,315.85 447.19,318.81 452.00,321.76"/>
<circle cx="299.16" cy="227.84" r="4.6" fill="#ffffff" stroke="#1f77b4" stroke-width="2"/>
<text x="305.16" y="221.84" font-family="Arial, sans-serif" font-size="10" fill="#1f77b4">typ 223 ohm</text>
<polyline fill="none" stroke="#ff7f0e" stroke-width="1.1" stroke-dasharray="6 4" points="72.00,95.44 76.81,98.40 81.62,101.36 86.43,104.31 91.24,107.27 96.05,110.22 100.86,113.18 105.67,116.14 110.48,119.09 115.29,122.05 120.10,125.00 124.91,127.96 129.72,130.92 134.53,133.87 139.34,136.83 144.15,139.78 148.96,142.74 153.77,145.70 158.58,148.65 163.39,151.61 168.20,154.56 173.01,157.52 177.82,160.48 182.63,163.43 187.44,166.39 192.25,169.34 197.06,172.30 201.87,175.26 206.68,178.21 211.49,181.17 216.30,184.13 221.11,187.08 225.92,190.04 230.73,192.99 235.54,195.95 240.35,198.91 245.16,201.86 249.97,204.82 254.78,207.77 259.59,210.73 264.41,213.69 269.22,216.64 274.03,219.60 278.84,222.55 283.65,225.51 288.46,228.47 293.27,231.42 298.08,234.38 302.89,237.33 307.70,240.29 312.51,243.25 317.32,246.20 322.13,249.16 326.94,252.11 331.75,255.07 336.56,258.03 341.37,260.98 346.18,263.94 350.99,266.89 355.80,269.85 360.61,272.81 365.42,275.76 370.23,278.72 375.04,281.67 379.85,284.63 384.66,287.59 389.47,290.54 394.28,293.50 399.09,296.46 403.90,299.41 408.71,302.37 413.52,305.32 418.33,308.28 423.14,311.24 427.95,314.19 432.76,317.15 437.57,320.10 442.38,323.06 447.19,326.02 452.00,328.97"/>
<circle cx="297.09" cy="233.77" r="4.6" fill="#ffffff" stroke="#ff7f0e" stroke-width="2"/>
<text x="303.09" y="227.77" font-family="Arial, sans-serif" font-size="10" fill="#ff7f0e">min 396 ohm</text>
<polyline fill="none" stroke="#2ca02c" stroke-width="1.1" stroke-dasharray="6 4" points="72.00,81.03 76.81,83.98 81.62,86.94 86.43,89.90 91.24,92.85 96.05,95.81 100.86,98.76 105.67,101.72 110.48,104.68 115.29,107.63 120.10,110.59 124.91,113.54 129.72,116.50 134.53,119.46 139.34,122.41 144.15,125.37 148.96,128.33 153.77,131.28 158.58,134.24 163.39,137.19 168.20,140.15 173.01,143.11 177.82,146.06 182.63,149.02 187.44,151.97 192.25,154.93 197.06,157.89 201.87,160.84 206.68,163.80 211.49,166.75 216.30,169.71 221.11,172.67 225.92,175.62 230.73,178.58 235.54,181.53 240.35,184.49 245.16,187.45 249.97,190.40 254.78,193.36 259.59,196.31 264.41,199.27 269.22,202.23 274.03,205.18 278.84,208.14 283.65,211.09 288.46,214.05 293.27,217.01 298.08,219.96 302.89,222.92 307.70,225.87 312.51,228.83 317.32,231.79 322.13,234.74 326.94,237.70 331.75,240.66 336.56,243.61 341.37,246.57 346.18,249.52 350.99,252.48 355.80,255.44 360.61,258.39 365.42,261.35 370.23,264.30 375.04,267.26 379.85,270.22 384.66,273.17 389.47,276.13 394.28,279.08 399.09,282.04 403.90,285.00 408.71,287.95 413.52,290.91 418.33,293.86 423.14,296.82 427.95,299.78 432.76,302.73 437.57,305.69 442.38,308.64 447.19,311.60 452.00,314.56"/>
<circle cx="297.84" cy="219.82" r="4.6" fill="#ffffff" stroke="#2ca02c" stroke-width="2"/>
<text x="303.84" y="213.82" font-family="Arial, sans-serif" font-size="10" fill="#2ca02c">max 137 ohm</text>
<line x1="82.00" y1="80.00" x2="104.00" y2="80.00" stroke="#1f77b4" stroke-width="2"/>
<text x="110.00" y="84.00" font-family="Arial, sans-serif" font-size="11">typ</text>
<line x1="82.00" y1="97.00" x2="104.00" y2="97.00" stroke="#ff7f0e" stroke-width="2" stroke-dasharray="5 4"/>
<text x="110.00" y="101.00" font-family="Arial, sans-serif" font-size="11">min</text>
<line x1="82.00" y1="114.00" x2="104.00" y2="114.00" stroke="#2ca02c" stroke-width="2" stroke-dasharray="2 4"/>
<text x="110.00" y="118.00" font-family="Arial, sans-serif" font-size="11">max</text>
<text x="262.00" y="386.00" text-anchor="middle" font-family="Arial, sans-serif" font-size="11">Output voltage (V)</text>
<text transform="translate(22.00 205.00) rotate(-90)" text-anchor="middle" font-family="Arial, sans-serif" font-size="11">Current (mA)</text>
<rect x="492.00" y="62.00" width="380.00" height="286.00" fill="#fbfbfb" stroke="#c8c8c8"/>
<text x="500.00" y="50.00" font-family="Arial, sans-serif" font-size="13" font-weight="700">[Pullup] Rload to GND</text>
<line x1="492.00" y1="62.00" x2="492.00" y2="348.00" stroke="#ececec"/>
<text x="492.00" y="366.00" text-anchor="middle" font-family="Arial, sans-serif" font-size="10">-2</text>
<line x1="587.00" y1="62.00" x2="587.00" y2="348.00" stroke="#ececec"/>
<text x="587.00" y="366.00" text-anchor="middle" font-family="Arial, sans-serif" font-size="10">-0.558</text>
<line x1="682.00" y1="62.00" x2="682.00" y2="348.00" stroke="#ececec"/>
<text x="682.00" y="366.00" text-anchor="middle" font-family="Arial, sans-serif" font-size="10">0.9</text>
<line x1="777.00" y1="62.00" x2="777.00" y2="348.00" stroke="#ececec"/>
<text x="777.00" y="366.00" text-anchor="middle" font-family="Arial, sans-serif" font-size="10">2.4</text>
<line x1="872.00" y1="62.00" x2="872.00" y2="348.00" stroke="#ececec"/>
<text x="872.00" y="366.00" text-anchor="middle" font-family="Arial, sans-serif" font-size="10">3.8</text>
<line x1="492.00" y1="348.00" x2="872.00" y2="348.00" stroke="#ececec"/>
<text x="485.00" y="352.00" text-anchor="end" font-family="Arial, sans-serif" font-size="10">-89</text>
<line x1="492.00" y1="276.50" x2="872.00" y2="276.50" stroke="#ececec"/>
<text x="485.00" y="280.50" text-anchor="end" font-family="Arial, sans-serif" font-size="10">-54</text>
<line x1="492.00" y1="205.00" x2="872.00" y2="205.00" stroke="#ececec"/>
<text x="485.00" y="209.00" text-anchor="end" font-family="Arial, sans-serif" font-size="10">-18</text>
<line x1="492.00" y1="133.50" x2="872.00" y2="133.50" stroke="#ececec"/>
<text x="485.00" y="137.50" text-anchor="end" font-family="Arial, sans-serif" font-size="10">18</text>
<line x1="492.00" y1="62.00" x2="872.00" y2="62.00" stroke="#ececec"/>
<text x="485.00" y="66.00" text-anchor="end" font-family="Arial, sans-serif" font-size="10">53</text>
<line x1="623.36" y1="62" x2="623.36" y2="348" stroke="#777" stroke-dasharray="4 4"/>
<line x1="492.0" y1="168.96" x2="872.0" y2="168.96" stroke="#777" stroke-dasharray="4 4"/>
<polyline fill="none" stroke="#1f77b4" stroke-width="1.8" points="506.07,129.15 511.29,131.35 513.89,132.44 517.15,133.79 522.36,135.93 523.67,136.46 528.23,138.30 532.14,139.85 532.79,140.11 533.44,140.36 538.65,142.39 544.52,144.61 550.38,146.78 555.59,148.66 560.16,150.26 561.46,150.71 566.67,152.47 571.88,154.17 577.75,156.01 582.96,157.59 588.82,159.32 594.04,160.81 599.90,162.46 605.11,163.92 610.98,165.55 611.63,165.73 614.24,166.45 614.89,166.63 615.54,166.81 616.19,166.99 622.05,168.60 623.36,168.96 627.27,170.01 631.83,171.20 632.48,171.36 633.13,171.53 633.78,171.69 634.43,171.85 635.74,172.18 638.34,172.81 643.56,174.04 649.42,175.34 654.63,176.43 660.50,177.55 665.71,178.47 671.57,179.40 676.79,180.11 682.65,180.80 687.86,181.29 689.82,181.44 693.08,181.67 694.38,181.76 695.68,181.83 698.29,181.97 702.85,182.17 704.15,182.21 706.11,182.28 707.41,182.32 709.37,182.38 711.32,182.43 713.93,182.50 715.23,182.53 716.53,182.56 718.49,182.60 721.09,182.65 723.05,182.68 726.96,182.75 728.91,182.78 732.17,182.82 737.38,182.89 739.99,182.92 740.64,182.93 742.60,182.95 748.46,183.02 752.37,183.06 753.67,183.07 759.54,183.12 764.75,183.13 767.36,183.13 769.31,183.13 770.61,183.13 771.27,183.13 772.57,183.13 773.87,183.13 775.18,183.13 781.69,183.13 786.90,183.13 792.77,183.13 797.98,183.13 803.19,183.13 809.06,183.13 814.27,183.13 820.13,183.13 825.35,183.13 831.21,183.13 836.42,183.13 842.29,183.13 847.50,183.13 853.36,183.13 857.93,183.13"/>
<polyline fill="none" stroke="#ff7f0e" stroke-width="1.8" stroke-dasharray="5 4" points="506.07,138.40 511.29,140.10 513.89,140.94 517.15,142.01 522.36,143.70 523.67,144.11 528.23,145.56 532.14,146.78 532.79,146.98 533.44,147.19 538.65,148.78 544.52,150.54 550.38,152.25 555.59,153.74 560.16,155.00 561.46,155.36 566.67,156.75 571.88,158.09 577.75,159.54 582.96,160.76 588.82,162.06 594.04,163.17 599.90,164.38 605.11,165.42 610.98,166.57 611.63,166.70 614.24,167.21 614.89,167.33 615.54,167.46 616.19,167.59 622.05,168.71 623.36,168.96 627.27,169.69 631.83,170.49 632.48,170.60 633.13,170.71 633.78,170.82 634.43,170.93 635.74,171.14 638.34,171.56 643.56,172.36 649.42,173.18 654.63,173.85 660.50,174.51 665.71,175.01 671.57,175.48 676.79,175.81 682.65,176.07 687.86,176.24 689.82,176.29 693.08,176.35 694.38,176.38 695.68,176.40 698.29,176.44 702.85,176.51 704.15,176.52 706.11,176.54 707.41,176.56 709.37,176.58 711.32,176.60 713.93,176.62 715.23,176.63 716.53,176.64 718.49,176.66 721.09,176.68 723.05,176.70 726.96,176.72 728.91,176.74 732.17,176.76 737.38,176.79 739.99,176.80 740.64,176.80 742.60,176.81 748.46,176.82 752.37,176.82 753.67,176.82 759.54,176.82 764.75,176.82 767.36,176.82 769.31,176.82 770.61,176.82 771.27,176.82 772.57,176.82 773.87,176.82 775.18,176.82 781.69,176.82 786.90,176.82 792.77,176.82 797.98,176.82 803.19,176.82 809.06,176.82 814.27,176.82 820.13,176.82 825.35,176.82 831.21,176.82 836.42,176.82 842.29,176.82 847.50,176.82 853.36,176.82 857.93,176.82"/>
<polyline fill="none" stroke="#2ca02c" stroke-width="1.8" stroke-dasharray="2 4" points="506.07,118.26 511.29,121.01 513.89,122.37 517.15,124.05 522.36,126.71 523.67,127.37 528.23,129.65 532.14,131.57 532.79,131.89 533.44,132.21 538.65,134.72 544.52,137.48 550.38,140.16 555.59,142.49 560.16,144.47 561.46,145.03 566.67,147.22 571.88,149.36 577.75,151.71 582.96,153.74 588.82,155.98 594.04,157.95 599.90,160.14 605.11,162.10 610.98,164.29 611.63,164.52 614.24,165.46 614.89,165.70 615.54,165.94 616.19,166.19 622.05,168.46 623.36,168.96 627.27,170.44 631.83,172.13 632.48,172.36 633.13,172.59 633.78,172.82 634.43,173.04 635.74,173.47 638.34,174.35 643.56,176.11 649.42,178.00 654.63,179.60 660.50,181.31 665.71,182.73 671.57,184.22 676.79,185.44 682.65,186.68 687.86,187.66 689.82,187.99 693.08,188.51 694.38,188.71 695.68,188.89 698.29,189.24 702.85,189.78 704.15,189.91 706.11,190.10 707.41,190.22 709.37,190.39 711.32,190.54 713.93,190.72 715.23,190.80 716.53,190.87 718.49,190.98 721.09,191.11 723.05,191.20 726.96,191.36 728.91,191.43 732.17,191.53 737.38,191.68 739.99,191.75 740.64,191.76 742.60,191.81 748.46,191.93 752.37,192.01 753.67,192.03 759.54,192.14 764.75,192.22 767.36,192.26 769.31,192.29 770.61,192.30 771.27,192.31 772.57,192.33 773.87,192.35 775.18,192.36 781.69,192.37 786.90,192.37 792.77,192.37 797.98,192.37 803.19,192.37 809.06,192.37 814.27,192.37 820.13,192.37 825.35,192.37 831.21,192.37 836.42,192.37 842.29,192.37 847.50,192.37 853.36,192.37 857.93,192.37"/>
<polyline fill="none" stroke="#1f77b4" stroke-width="1.1" stroke-dasharray="6 4" points="492.00,321.76 496.81,318.81 501.62,315.85 506.43,312.90 511.24,309.94 516.05,306.98 520.86,304.03 525.67,301.07 530.48,298.12 535.29,295.16 540.10,292.20 544.91,289.25 549.72,286.29 554.53,283.34 559.34,280.38 564.15,277.42 568.96,274.47 573.77,271.51 578.58,268.56 583.39,265.60 588.20,262.64 593.01,259.69 597.82,256.73 602.63,253.77 607.44,250.82 612.25,247.86 617.06,244.91 621.87,241.95 626.68,238.99 631.49,236.04 636.30,233.08 641.11,230.13 645.92,227.17 650.73,224.21 655.54,221.26 660.35,218.30 665.16,215.35 669.97,212.39 674.78,209.43 679.59,206.48 684.41,203.52 689.22,200.57 694.03,197.61 698.84,194.65 703.65,191.70 708.46,188.74 713.27,185.79 718.08,182.83 722.89,179.87 727.70,176.92 732.51,173.96 737.32,171.01 742.13,168.05 746.94,165.09 751.75,162.14 756.56,159.18 761.37,156.23 766.18,153.27 770.99,150.31 775.80,147.36 780.61,144.40 785.42,141.44 790.23,138.49 795.04,135.53 799.85,132.58 804.66,129.62 809.47,126.66 814.28,123.71 819.09,120.75 823.90,117.80 828.71,114.84 833.52,111.88 838.33,108.93 843.14,105.97 847.95,103.02 852.76,100.06 857.57,97.10 862.38,94.15 867.19,91.19 872.00,88.24"/>
<circle cx="718.46" cy="182.60" r="4.6" fill="#ffffff" stroke="#1f77b4" stroke-width="2"/>
<text x="724.46" y="176.60" font-family="Arial, sans-serif" font-size="10" fill="#1f77b4">typ 214 ohm</text>
<polyline fill="none" stroke="#ff7f0e" stroke-width="1.1" stroke-dasharray="6 4" points="492.00,314.56 496.81,311.60 501.62,308.64 506.43,305.69 511.24,302.73 516.05,299.78 520.86,296.82 525.67,293.86 530.48,290.91 535.29,287.95 540.10,285.00 544.91,282.04 549.72,279.08 554.53,276.13 559.34,273.17 564.15,270.22 568.96,267.26 573.77,264.30 578.58,261.35 583.39,258.39 588.20,255.44 593.01,252.48 597.82,249.52 602.63,246.57 607.44,243.61 612.25,240.66 617.06,237.70 621.87,234.74 626.68,231.79 631.49,228.83 636.30,225.87 641.11,222.92 645.92,219.96 650.73,217.01 655.54,214.05 660.35,211.09 665.16,208.14 669.97,205.18 674.78,202.23 679.59,199.27 684.41,196.31 689.22,193.36 694.03,190.40 698.84,187.45 703.65,184.49 708.46,181.53 713.27,178.58 718.08,175.62 722.89,172.67 727.70,169.71 732.51,166.75 737.32,163.80 742.13,160.84 746.94,157.89 751.75,154.93 756.56,151.97 761.37,149.02 766.18,146.06 770.99,143.11 775.80,140.15 780.61,137.19 785.42,134.24 790.23,131.28 795.04,128.33 799.85,125.37 804.66,122.41 809.47,119.46 814.28,116.50 819.09,113.54 823.90,110.59 828.71,107.63 833.52,104.68 838.33,101.72 843.14,98.76 847.95,95.81 852.76,92.85 857.57,89.90 862.38,86.94 867.19,83.98 872.00,81.03"/>
<circle cx="716.41" cy="176.64" r="4.6" fill="#ffffff" stroke="#ff7f0e" stroke-width="2"/>
<text x="722.41" y="170.64" font-family="Arial, sans-serif" font-size="10" fill="#ff7f0e">min 372 ohm</text>
<polyline fill="none" stroke="#2ca02c" stroke-width="1.1" stroke-dasharray="6 4" points="492.00,328.97 496.81,326.02 501.62,323.06 506.43,320.10 511.24,317.15 516.05,314.19 520.86,311.24 525.67,308.28 530.48,305.32 535.29,302.37 540.10,299.41 544.91,296.46 549.72,293.50 554.53,290.54 559.34,287.59 564.15,284.63 568.96,281.67 573.77,278.72 578.58,275.76 583.39,272.81 588.20,269.85 593.01,266.89 597.82,263.94 602.63,260.98 607.44,258.03 612.25,255.07 617.06,252.11 621.87,249.16 626.68,246.20 631.49,243.25 636.30,240.29 641.11,237.33 645.92,234.38 650.73,231.42 655.54,228.47 660.35,225.51 665.16,222.55 669.97,219.60 674.78,216.64 679.59,213.69 684.41,210.73 689.22,207.77 694.03,204.82 698.84,201.86 703.65,198.91 708.46,195.95 713.27,192.99 718.08,190.04 722.89,187.08 727.70,184.13 732.51,181.17 737.32,178.21 742.13,175.26 746.94,172.30 751.75,169.34 756.56,166.39 761.37,163.43 766.18,160.48 770.99,157.52 775.80,154.56 780.61,151.61 785.42,148.65 790.23,145.70 795.04,142.74 799.85,139.78 804.66,136.83 809.47,133.87 814.28,130.92 819.09,127.96 823.90,125.00 828.71,122.05 833.52,119.09 838.33,116.14 843.14,113.18 847.95,110.22 852.76,107.27 857.57,104.31 862.38,101.36 867.19,98.40 872.00,95.44"/>
<circle cx="716.70" cy="190.88" r="4.6" fill="#ffffff" stroke="#2ca02c" stroke-width="2"/>
<text x="722.70" y="184.88" font-family="Arial, sans-serif" font-size="10" fill="#2ca02c">max 131 ohm</text>
<line x1="502.00" y1="80.00" x2="524.00" y2="80.00" stroke="#1f77b4" stroke-width="2"/>
<text x="530.00" y="84.00" font-family="Arial, sans-serif" font-size="11">typ</text>
<line x1="502.00" y1="97.00" x2="524.00" y2="97.00" stroke="#ff7f0e" stroke-width="2" stroke-dasharray="5 4"/>
<text x="530.00" y="101.00" font-family="Arial, sans-serif" font-size="11">min</text>
<line x1="502.00" y1="114.00" x2="524.00" y2="114.00" stroke="#2ca02c" stroke-width="2" stroke-dasharray="2 4"/>
<text x="530.00" y="118.00" font-family="Arial, sans-serif" font-size="11">max</text>
<text x="682.00" y="386.00" text-anchor="middle" font-family="Arial, sans-serif" font-size="11">Vcc-relative table voltage (V)</text>
<text transform="translate(442.00 205.00) rotate(-90)" text-anchor="middle" font-family="Arial, sans-serif" font-size="11">Current (mA)</text>
<rect x="72.00" y="418.00" width="800.00" height="144.00" fill="#ffffff" stroke="#c8c8c8"/>
<text x="82.00" y="436.00" font-family="Arial, sans-serif" font-size="12" font-weight="700">Operating-point summary</text>
<text x="82.00" y="454.00" font-family="Arial, sans-serif" font-size="10" font-weight="700" fill="#333">Table</text>
<text x="174.00" y="454.00" font-family="Arial, sans-serif" font-size="10" font-weight="700" fill="#333">Corner</text>
<text x="242.00" y="454.00" font-family="Arial, sans-serif" font-size="10" font-weight="700" fill="#333">Vout</text>
<text x="332.00" y="454.00" font-family="Arial, sans-serif" font-size="10" font-weight="700" fill="#333">Iop</text>
<text x="422.00" y="454.00" font-family="Arial, sans-serif" font-size="10" font-weight="700" fill="#333">Zout</text>
<text x="512.00" y="454.00" font-family="Arial, sans-serif" font-size="10" font-weight="700" fill="#333">Rseries</text>
<text x="82.00" y="473.00" font-family="Arial, sans-serif" font-size="10" fill="#1f77b4">pulldown</text>
<text x="174.00" y="473.00" font-family="Arial, sans-serif" font-size="10" fill="#1f77b4">typ</text>
<text x="242.00" y="473.00" font-family="Arial, sans-serif" font-size="10" fill="#1f77b4">1.47 V</text>
<text x="332.00" y="473.00" font-family="Arial, sans-serif" font-size="10" fill="#1f77b4">6.6 mA</text>
<text x="422.00" y="473.00" font-family="Arial, sans-serif" font-size="10" fill="#1f77b4">223 ohm</text>
<text x="512.00" y="473.00" font-family="Arial, sans-serif" font-size="10" fill="#1f77b4">-173 ohm</text>
<text x="82.00" y="492.00" font-family="Arial, sans-serif" font-size="10" fill="#ff7f0e">pulldown</text>
<text x="174.00" y="492.00" font-family="Arial, sans-serif" font-size="10" fill="#ff7f0e">min</text>
<text x="242.00" y="492.00" font-family="Arial, sans-serif" font-size="10" fill="#ff7f0e">1.438 V</text>
<text x="332.00" y="492.00" font-family="Arial, sans-serif" font-size="10" fill="#ff7f0e">3.6 mA</text>
<text x="422.00" y="492.00" font-family="Arial, sans-serif" font-size="10" fill="#ff7f0e">396 ohm</text>
<text x="512.00" y="492.00" font-family="Arial, sans-serif" font-size="10" fill="#ff7f0e">-346 ohm</text>
<text x="82.00" y="511.00" font-family="Arial, sans-serif" font-size="10" fill="#2ca02c">pulldown</text>
<text x="174.00" y="511.00" font-family="Arial, sans-serif" font-size="10" fill="#2ca02c">max</text>
<text x="242.00" y="511.00" font-family="Arial, sans-serif" font-size="10" fill="#2ca02c">1.45 V</text>
<text x="332.00" y="511.00" font-family="Arial, sans-serif" font-size="10" fill="#2ca02c">11 mA</text>
<text x="422.00" y="511.00" font-family="Arial, sans-serif" font-size="10" fill="#2ca02c">137 ohm</text>
<text x="512.00" y="511.00" font-family="Arial, sans-serif" font-size="10" fill="#2ca02c">-86.8 ohm</text>
<text x="82.00" y="530.00" font-family="Arial, sans-serif" font-size="10" fill="#1f77b4">pullup</text>
<text x="174.00" y="530.00" font-family="Arial, sans-serif" font-size="10" fill="#1f77b4">typ</text>
<text x="242.00" y="530.00" font-family="Arial, sans-serif" font-size="10" fill="#1f77b4">0.3405 V</text>
<text x="332.00" y="530.00" font-family="Arial, sans-serif" font-size="10" fill="#1f77b4">-6.8 mA</text>
<text x="422.00" y="530.00" font-family="Arial, sans-serif" font-size="10" fill="#1f77b4">214 ohm</text>
<text x="512.00" y="530.00" font-family="Arial, sans-serif" font-size="10" fill="#1f77b4">-164 ohm</text>
<text x="82.00" y="549.00" font-family="Arial, sans-serif" font-size="10" fill="#ff7f0e">pullup</text>
<text x="174.00" y="549.00" font-family="Arial, sans-serif" font-size="10" fill="#ff7f0e">min</text>
<text x="242.00" y="549.00" font-family="Arial, sans-serif" font-size="10" fill="#ff7f0e">0.1918 V</text>
<text x="332.00" y="549.00" font-family="Arial, sans-serif" font-size="10" fill="#ff7f0e">-3.8 mA</text>
<text x="422.00" y="549.00" font-family="Arial, sans-serif" font-size="10" fill="#ff7f0e">372 ohm</text>
<text x="512.00" y="549.00" font-family="Arial, sans-serif" font-size="10" fill="#ff7f0e">-322 ohm</text>
<text x="82.00" y="568.00" font-family="Arial, sans-serif" font-size="10" fill="#2ca02c">pullup</text>
<text x="174.00" y="568.00" font-family="Arial, sans-serif" font-size="10" fill="#2ca02c">max</text>
<text x="242.00" y="568.00" font-family="Arial, sans-serif" font-size="10" fill="#2ca02c">0.5475 V</text>
<text x="332.00" y="568.00" font-family="Arial, sans-serif" font-size="10" fill="#2ca02c">-11 mA</text>
<text x="422.00" y="568.00" font-family="Arial, sans-serif" font-size="10" fill="#2ca02c">131 ohm</text>
<text x="512.00" y="568.00" font-family="Arial, sans-serif" font-size="10" fill="#2ca02c">-80.8 ohm</text>
</svg>