<svg xmlns="http://www.w3.org/2000/svg" width="900" height="620" viewBox="0 0 900 620">
<rect width="100%" height="100%" fill="#ffffff"/>
<text x="72" y="26" font-family="Arial, sans-serif" font-size="16" font-weight="700">nfc_ioc15_swp_master_200_best Zout Load-Line Curves</text>
<text x="72" y="45" font-family="Arial, sans-serif" font-size="11" fill="#555">Rload=50 ohm; solid=device I-V, dashed=load line, circles=operating points</text>
<rect x="72.00" y="62.00" width="380.00" height="286.00" fill="#fbfbfb" stroke="#c8c8c8"/>
<text x="80.00" y="50.00" font-family="Arial, sans-serif" font-size="13" font-weight="700">[Pulldown] Rload to Vdd</text>
<line x1="72.00" y1="62.00" x2="72.00" y2="348.00" stroke="#ececec"/>
<text x="72.00" y="366.00" text-anchor="middle" font-family="Arial, sans-serif" font-size="10">-2</text>
<line x1="167.00" y1="62.00" x2="167.00" y2="348.00" stroke="#ececec"/>
<text x="167.00" y="366.00" text-anchor="middle" font-family="Arial, sans-serif" font-size="10">-0.558</text>
<line x1="262.00" y1="62.00" x2="262.00" y2="348.00" stroke="#ececec"/>
<text x="262.00" y="366.00" text-anchor="middle" font-family="Arial, sans-serif" font-size="10">0.9</text>
<line x1="357.00" y1="62.00" x2="357.00" y2="348.00" stroke="#ececec"/>
<text x="357.00" y="366.00" text-anchor="middle" font-family="Arial, sans-serif" font-size="10">2.4</text>
<line x1="452.00" y1="62.00" x2="452.00" y2="348.00" stroke="#ececec"/>
<text x="452.00" y="366.00" text-anchor="middle" font-family="Arial, sans-serif" font-size="10">3.8</text>
<line x1="72.00" y1="348.00" x2="452.00" y2="348.00" stroke="#ececec"/>
<text x="65.00" y="352.00" text-anchor="end" font-family="Arial, sans-serif" font-size="10">-3.1e+02</text>
<line x1="72.00" y1="276.50" x2="452.00" y2="276.50" stroke="#ececec"/>
<text x="65.00" y="280.50" text-anchor="end" font-family="Arial, sans-serif" font-size="10">-1.7e+02</text>
<line x1="72.00" y1="205.00" x2="452.00" y2="205.00" stroke="#ececec"/>
<text x="65.00" y="209.00" text-anchor="end" font-family="Arial, sans-serif" font-size="10">-24</text>
<line x1="72.00" y1="133.50" x2="452.00" y2="133.50" stroke="#ececec"/>
<text x="65.00" y="137.50" text-anchor="end" font-family="Arial, sans-serif" font-size="10">1.2e+02</text>
<line x1="72.00" y1="62.00" x2="452.00" y2="62.00" stroke="#ececec"/>
<text x="65.00" y="66.00" text-anchor="end" font-family="Arial, sans-serif" font-size="10">2.6e+02</text>
<line x1="203.36" y1="62" x2="203.36" y2="348" stroke="#777" stroke-dasharray="4 4"/>
<line x1="72.0" y1="192.66" x2="452.0" y2="192.66" stroke="#777" stroke-dasharray="4 4"/>
<polyline fill="none" stroke="#1f77b4" stroke-width="1.8" points="86.07,320.32 91.29,311.71 97.15,302.03 102.36,293.42 108.23,283.73 113.44,275.12 119.30,265.44 124.52,256.83 130.38,247.14 135.59,238.53 141.46,228.84 146.67,220.23 151.88,211.62 154.49,207.32 155.14,206.57 155.79,206.04 156.44,205.63 157.10,205.30 157.75,205.03 158.40,204.78 159.05,204.55 162.96,203.30 168.82,201.52 174.04,199.99 179.90,198.34 185.11,196.94 190.98,195.46 196.19,194.22 202.05,192.93 203.36,192.66 207.27,191.88 212.48,190.93 218.34,189.98 222.91,189.33 223.56,189.25 225.51,189.00 228.77,188.62 229.42,188.55 234.63,188.04 240.50,187.58 245.71,187.28 251.57,187.06 256.79,186.94 262.65,186.86 267.86,186.81 273.08,186.78 278.94,186.74 284.15,186.71 290.02,186.69 295.23,186.67 301.09,186.65 306.31,186.63 308.91,186.62 312.17,186.61 317.38,186.59 320.64,186.58 322.60,186.58 328.46,186.56 332.37,186.55 333.67,186.55 339.54,186.53 344.75,186.52 350.61,186.51 355.83,186.49 361.69,186.33 362.99,186.23 364.30,186.11 364.95,186.04 365.60,185.96 366.25,185.87 367.56,185.67 368.21,185.56 369.51,185.32 370.81,185.04 372.12,184.73 373.42,184.39 374.72,184.02 376.03,183.62 376.68,183.41 377.33,183.19 377.98,182.96 378.63,182.72 379.28,182.46 379.94,182.18 380.59,181.88 381.24,181.53 381.89,181.12 382.54,180.61 383.19,179.94 383.84,179.00 389.06,170.39 394.27,161.78 400.13,152.10 405.35,143.49 411.21,133.80 416.42,125.19 422.29,115.51 427.50,106.90 433.36,97.21 437.93,89.68"/>
<polyline fill="none" stroke="#ff7f0e" stroke-width="1.8" stroke-dasharray="5 4" points="86.07,320.32 91.29,311.71 97.15,302.03 102.36,293.42 108.23,283.73 113.44,275.12 119.30,265.44 124.52,256.83 130.38,247.14 135.59,238.53 141.46,228.84 146.67,220.23 151.88,211.62 154.49,207.32 155.14,206.57 155.79,206.04 156.44,205.63 157.10,205.30 157.75,205.03 158.40,204.78 159.05,204.55 162.96,203.30 168.82,201.52 174.04,199.99 179.90,198.34 185.11,196.94 190.98,195.46 196.19,194.22 202.05,192.93 203.36,192.66 207.27,191.88 212.48,190.93 218.34,189.98 222.91,189.33 223.56,189.25 225.51,189.00 228.77,188.62 229.42,188.55 234.63,188.04 240.50,187.58 245.71,187.28 251.57,187.06 256.79,186.94 262.65,186.86 267.86,186.81 273.08,186.78 278.94,186.74 284.15,186.71 290.02,186.69 295.23,186.67 301.09,186.65 306.31,186.63 308.91,186.62 312.17,186.61 317.38,186.59 320.64,186.58 322.60,186.58 328.46,186.56 332.37,186.55 333.67,186.55 339.54,186.53 344.75,186.52 350.61,186.51 355.83,186.49 361.69,186.33 362.99,186.23 364.30,186.11 364.95,186.04 365.60,185.96 366.25,185.87 367.56,185.67 368.21,185.56 369.51,185.32 370.81,185.04 372.12,184.73 373.42,184.39 374.72,184.02 376.03,183.62 376.68,183.41 377.33,183.19 377.98,182.96 378.63,182.72 379.28,182.46 379.94,182.18 380.59,181.88 381.24,181.53 381.89,181.12 382.54,180.61 383.19,179.94 383.84,179.00 389.06,170.39 394.27,161.78 400.13,152.10 405.35,143.49 411.21,133.80 416.42,125.19 422.29,115.51 427.50,106.90 433.36,97.21 437.93,89.68"/>
<polyline fill="none" stroke="#2ca02c" stroke-width="1.8" stroke-dasharray="2 4" points="86.07,320.32 91.29,311.71 97.15,302.03 102.36,293.42 108.23,283.73 113.44,275.12 119.30,265.44 124.52,256.83 130.38,247.14 135.59,238.53 141.46,228.84 146.67,220.23 151.88,211.62 154.49,207.32 155.14,206.57 155.79,206.04 156.44,205.63 157.10,205.30 157.75,205.03 158.40,204.78 159.05,204.55 162.96,203.30 168.82,201.52 174.04,199.99 179.90,198.34 185.11,196.94 190.98,195.46 196.19,194.22 202.05,192.93 203.36,192.66 207.27,191.88 212.48,190.93 218.34,189.98 222.91,189.33 223.56,189.25 225.51,189.00 228.77,188.62 229.42,188.55 234.63,188.04 240.50,187.58 245.71,187.28 251.57,187.06 256.79,186.94 262.65,186.86 267.86,186.81 273.08,186.78 278.94,186.74 284.15,186.71 290.02,186.69 295.23,186.67 301.09,186.65 306.31,186.63 308.91,186.62 312.17,186.61 317.38,186.59 320.64,186.58 322.60,186.58 328.46,186.56 332.37,186.55 333.67,186.55 339.54,186.53 344.75,186.52 350.61,186.51 355.83,186.49 361.69,186.33 362.99,186.23 364.30,186.11 364.95,186.04 365.60,185.96 366.25,185.87 367.56,185.67 368.21,185.56 369.51,185.32 370.81,185.04 372.12,184.73 373.42,184.39 374.72,184.02 376.03,183.62 376.68,183.41 377.33,183.19 377.98,182.96 378.63,182.72 379.28,182.46 379.94,182.18 380.59,181.88 381.24,181.53 381.89,181.12 382.54,180.61 383.19,179.94 383.84,179.00 389.06,170.39 394.27,161.78 400.13,152.10 405.35,143.49 411.21,133.80 416.42,125.19 422.29,115.51 427.50,106.90 433.36,97.21 437.93,89.68"/>
<polyline fill="none" stroke="#1f77b4" stroke-width="1.1" stroke-dasharray="6 4" points="72.00,152.18 76.81,152.93 81.62,153.67 86.43,154.42 91.24,155.17 96.05,155.92 100.86,156.67 105.67,157.41 110.48,158.16 115.29,158.91 120.10,159.66 124.91,160.40 129.72,161.15 134.53,161.90 139.34,162.65 144.15,163.40 148.96,164.14 153.77,164.89 158.58,165.64 163.39,166.39 168.20,167.13 173.01,167.88 177.82,168.63 182.63,169.38 187.44,170.13 192.25,170.87 197.06,171.62 201.87,172.37 206.68,173.12 211.49,173.86 216.30,174.61 221.11,175.36 225.92,176.11 230.73,176.86 235.54,177.60 240.35,178.35 245.16,179.10 249.97,179.85 254.78,180.59 259.59,181.34 264.41,182.09 269.22,182.84 274.03,183.59 278.84,184.33 283.65,185.08 288.46,185.83 293.27,186.58 298.08,187.32 302.89,188.07 307.70,188.82 312.51,189.57 317.32,190.31 322.13,191.06 326.94,191.81 331.75,192.56 336.56,193.31 341.37,194.05 346.18,194.80 350.99,195.55 355.80,196.30 360.61,197.04 365.42,197.79 370.23,198.54 375.04,199.29 379.85,200.04 384.66,200.78 389.47,201.53 394.28,202.28 399.09,203.03 403.90,203.77 408.71,204.52 413.52,205.27 418.33,206.02 423.14,206.77 427.95,207.51 432.76,208.26 437.57,209.01 442.38,209.76 447.19,210.50 452.00,211.25"/>
<circle cx="293.89" cy="186.67" r="4.6" fill="#ffffff" stroke="#1f77b4" stroke-width="2"/>
<text x="299.89" y="180.67" font-family="Arial, sans-serif" font-size="10" fill="#1f77b4">typ 118 ohm</text>
<polyline fill="none" stroke="#ff7f0e" stroke-width="1.1" stroke-dasharray="6 4" points="72.00,152.18 76.81,152.93 81.62,153.67 86.43,154.42 91.24,155.17 96.05,155.92 100.86,156.67 105.67,157.41 110.48,158.16 115.29,158.91 120.10,159.66 124.91,160.40 129.72,161.15 134.53,161.90 139.34,162.65 144.15,163.40 148.96,164.14 153.77,164.89 158.58,165.64 163.39,166.39 168.20,167.13 173.01,167.88 177.82,168.63 182.63,169.38 187.44,170.13 192.25,170.87 197.06,171.62 201.87,172.37 206.68,173.12 211.49,173.86 216.30,174.61 221.11,175.36 225.92,176.11 230.73,176.86 235.54,177.60 240.35,178.35 245.16,179.10 249.97,179.85 254.78,180.59 259.59,181.34 264.41,182.09 269.22,182.84 274.03,183.59 278.84,184.33 283.65,185.08 288.46,185.83 293.27,186.58 298.08,187.32 302.89,188.07 307.70,188.82 312.51,189.57 317.32,190.31 322.13,191.06 326.94,191.81 331.75,192.56 336.56,193.31 341.37,194.05 346.18,194.80 350.99,195.55 355.80,196.30 360.61,197.04 365.42,197.79 370.23,198.54 375.04,199.29 379.85,200.04 384.66,200.78 389.47,201.53 394.28,202.28 399.09,203.03 403.90,203.77 408.71,204.52 413.52,205.27 418.33,206.02 423.14,206.77 427.95,207.51 432.76,208.26 437.57,209.01 442.38,209.76 447.19,210.50 452.00,211.25"/>
<circle cx="293.89" cy="186.67" r="4.6" fill="#ffffff" stroke="#ff7f0e" stroke-width="2"/>
<text x="299.89" y="180.67" font-family="Arial, sans-serif" font-size="10" fill="#ff7f0e">min 118 ohm</text>
<polyline fill="none" stroke="#2ca02c" stroke-width="1.1" stroke-dasharray="6 4" points="72.00,152.18 76.81,152.93 81.62,153.67 86.43,154.42 91.24,155.17 96.05,155.92 100.86,156.67 105.67,157.41 110.48,158.16 115.29,158.91 120.10,159.66 124.91,160.40 129.72,161.15 134.53,161.90 139.34,162.65 144.15,163.40 148.96,164.14 153.77,164.89 158.58,165.64 163.39,166.39 168.20,167.13 173.01,167.88 177.82,168.63 182.63,169.38 187.44,170.13 192.25,170.87 197.06,171.62 201.87,172.37 206.68,173.12 211.49,173.86 216.30,174.61 221.11,175.36 225.92,176.11 230.73,176.86 235.54,177.60 240.35,178.35 245.16,179.10 249.97,179.85 254.78,180.59 259.59,181.34 264.41,182.09 269.22,182.84 274.03,183.59 278.84,184.33 283.65,185.08 288.46,185.83 293.27,186.58 298.08,187.32 302.89,188.07 307.70,188.82 312.51,189.57 317.32,190.31 322.13,191.06 326.94,191.81 331.75,192.56 336.56,193.31 341.37,194.05 346.18,194.80 350.99,195.55 355.80,196.30 360.61,197.04 365.42,197.79 370.23,198.54 375.04,199.29 379.85,200.04 384.66,200.78 389.47,201.53 394.28,202.28 399.09,203.03 403.90,203.77 408.71,204.52 413.52,205.27 418.33,206.02 423.14,206.77 427.95,207.51 432.76,208.26 437.57,209.01 442.38,209.76 447.19,210.50 452.00,211.25"/>
<circle cx="293.89" cy="186.67" r="4.6" fill="#ffffff" stroke="#2ca02c" stroke-width="2"/>
<text x="299.89" y="180.67" font-family="Arial, sans-serif" font-size="10" fill="#2ca02c">max 118 ohm</text>
<line x1="82.00" y1="80.00" x2="104.00" y2="80.00" stroke="#1f77b4" stroke-width="2"/>
<text x="110.00" y="84.00" font-family="Arial, sans-serif" font-size="11">typ</text>
<line x1="82.00" y1="97.00" x2="104.00" y2="97.00" stroke="#ff7f0e" stroke-width="2" stroke-dasharray="5 4"/>
<text x="110.00" y="101.00" font-family="Arial, sans-serif" font-size="11">min</text>
<line x1="82.00" y1="114.00" x2="104.00" y2="114.00" stroke="#2ca02c" stroke-width="2" stroke-dasharray="2 4"/>
<text x="110.00" y="118.00" font-family="Arial, sans-serif" font-size="11">max</text>
<text x="262.00" y="386.00" text-anchor="middle" font-family="Arial, sans-serif" font-size="11">Output voltage (V)</text>
<text transform="translate(22.00 205.00) rotate(-90)" text-anchor="middle" font-family="Arial, sans-serif" font-size="11">Current (mA)</text>
<rect x="492.00" y="62.00" width="380.00" height="286.00" fill="#fbfbfb" stroke="#c8c8c8"/>
<text x="500.00" y="50.00" font-family="Arial, sans-serif" font-size="13" font-weight="700">[Pullup] Rload to GND</text>
<line x1="492.00" y1="62.00" x2="492.00" y2="348.00" stroke="#ececec"/>
<text x="492.00" y="366.00" text-anchor="middle" font-family="Arial, sans-serif" font-size="10">-2</text>
<line x1="587.00" y1="62.00" x2="587.00" y2="348.00" stroke="#ececec"/>
<text x="587.00" y="366.00" text-anchor="middle" font-family="Arial, sans-serif" font-size="10">-0.558</text>
<line x1="682.00" y1="62.00" x2="682.00" y2="348.00" stroke="#ececec"/>
<text x="682.00" y="366.00" text-anchor="middle" font-family="Arial, sans-serif" font-size="10">0.9</text>
<line x1="777.00" y1="62.00" x2="777.00" y2="348.00" stroke="#ececec"/>
<text x="777.00" y="366.00" text-anchor="middle" font-family="Arial, sans-serif" font-size="10">2.4</text>
<line x1="872.00" y1="62.00" x2="872.00" y2="348.00" stroke="#ececec"/>
<text x="872.00" y="366.00" text-anchor="middle" font-family="Arial, sans-serif" font-size="10">3.8</text>
<line x1="492.00" y1="348.00" x2="872.00" y2="348.00" stroke="#ececec"/>
<text x="485.00" y="352.00" text-anchor="end" font-family="Arial, sans-serif" font-size="10">-3.2e+02</text>
<line x1="492.00" y1="276.50" x2="872.00" y2="276.50" stroke="#ececec"/>
<text x="485.00" y="280.50" text-anchor="end" font-family="Arial, sans-serif" font-size="10">-1.5e+02</text>
<line x1="492.00" y1="205.00" x2="872.00" y2="205.00" stroke="#ececec"/>
<text x="485.00" y="209.00" text-anchor="end" font-family="Arial, sans-serif" font-size="10">24</text>
<line x1="492.00" y1="133.50" x2="872.00" y2="133.50" stroke="#ececec"/>
<text x="485.00" y="137.50" text-anchor="end" font-family="Arial, sans-serif" font-size="10">2e+02</text>
<line x1="492.00" y1="62.00" x2="872.00" y2="62.00" stroke="#ececec"/>
<text x="485.00" y="66.00" text-anchor="end" font-family="Arial, sans-serif" font-size="10">3.7e+02</text>
<line x1="623.36" y1="62" x2="623.36" y2="348" stroke="#777" stroke-dasharray="4 4"/>
<line x1="492.0" y1="214.71" x2="872.0" y2="214.71" stroke="#777" stroke-dasharray="4 4"/>
<polyline fill="none" stroke="#1f77b4" stroke-width="1.8" points="506.07,89.68 511.29,96.69 517.15,104.57 522.36,111.59 528.23,119.47 533.44,126.48 539.30,134.37 544.52,141.38 549.08,147.51 549.73,148.39 550.38,149.27 551.03,150.14 551.68,151.02 555.59,156.28 560.81,163.29 561.46,164.16 562.11,165.04 562.76,165.92 563.41,166.79 566.67,171.17 572.53,179.06 573.19,179.85 573.84,180.51 574.49,181.10 575.14,181.64 577.75,183.59 582.96,187.31 588.82,191.45 594.04,195.10 599.90,199.18 605.11,202.76 606.42,203.65 610.98,206.72 616.19,210.17 618.15,211.43 622.05,213.91 623.36,214.71 627.27,217.07 629.87,218.57 632.48,220.02 638.34,223.07 643.56,225.50 649.42,227.92 654.63,229.80 660.50,231.60 665.71,232.95 671.57,234.21 676.79,235.17 682.65,236.12 687.86,236.83 693.08,237.43 698.94,237.97 704.15,238.37 710.02,238.76 715.23,239.05 721.09,239.35 726.31,239.58 728.91,239.70 732.17,239.83 737.38,240.03 740.64,240.14 742.60,240.21 748.46,240.41 752.37,240.53 753.67,240.57 759.54,240.75 764.75,240.89 770.61,241.05 773.87,241.14 774.52,241.15 775.18,241.17 775.83,241.19 776.48,241.20 777.13,241.22 777.78,241.24 781.69,241.34 786.25,241.48 786.90,241.50 787.56,241.53 788.21,241.56 788.86,241.59 789.51,241.62 792.77,241.81 797.98,242.37 798.63,242.53 799.28,242.74 799.94,243.04 800.59,243.46 801.24,244.08 803.19,246.71 809.06,254.60 814.27,261.61 820.13,269.50 825.35,276.51 831.21,284.39 836.42,291.40 842.29,299.29 847.50,306.30 853.36,314.19 857.93,320.32"/>
<polyline fill="none" stroke="#ff7f0e" stroke-width="1.8" stroke-dasharray="5 4" points="506.07,89.68 511.29,96.69 517.15,104.57 522.36,111.59 528.23,119.47 533.44,126.48 539.30,134.37 544.52,141.38 549.08,147.51 549.73,148.39 550.38,149.27 551.03,150.14 551.68,151.02 555.59,156.28 560.81,163.29 561.46,164.16 562.11,165.04 562.76,165.92 563.41,166.79 566.67,171.17 572.53,179.06 573.19,179.85 573.84,180.51 574.49,181.10 575.14,181.64 577.75,183.59 582.96,187.31 588.82,191.45 594.04,195.10 599.90,199.18 605.11,202.76 606.42,203.65 610.98,206.72 616.19,210.17 618.15,211.43 622.05,213.91 623.36,214.71 627.27,217.07 629.87,218.57 632.48,220.02 638.34,223.07 643.56,225.50 649.42,227.92 654.63,229.80 660.50,231.60 665.71,232.95 671.57,234.21 676.79,235.17 682.65,236.12 687.86,236.83 693.08,237.43 698.94,237.97 704.15,238.37 710.02,238.76 715.23,239.05 721.09,239.35 726.31,239.58 728.91,239.70 732.17,239.83 737.38,240.03 740.64,240.14 742.60,240.21 748.46,240.41 752.37,240.53 753.67,240.57 759.54,240.75 764.75,240.89 770.61,241.05 773.87,241.14 774.52,241.15 775.18,241.17 775.83,241.19 776.48,241.20 777.13,241.22 777.78,241.24 781.69,241.34 786.25,241.48 786.90,241.50 787.56,241.53 788.21,241.56 788.86,241.59 789.51,241.62 792.77,241.81 797.98,242.37 798.63,242.53 799.28,242.74 799.94,243.04 800.59,243.46 801.24,244.08 803.19,246.71 809.06,254.60 814.27,261.61 820.13,269.50 825.35,276.51 831.21,284.39 836.42,291.40 842.29,299.29 847.50,306.30 853.36,314.19 857.93,320.32"/>
<polyline fill="none" stroke="#2ca02c" stroke-width="1.8" stroke-dasharray="2 4" points="506.07,89.68 511.29,96.69 517.15,104.57 522.36,111.59 528.23,119.47 533.44,126.48 539.30,134.37 544.52,141.38 549.08,147.51 549.73,148.39 550.38,149.27 551.03,150.14 551.68,151.02 555.59,156.28 560.81,163.29 561.46,164.16 562.11,165.04 562.76,165.92 563.41,166.79 566.67,171.17 572.53,179.06 573.19,179.85 573.84,180.51 574.49,181.10 575.14,181.64 577.75,183.59 582.96,187.31 588.82,191.45 594.04,195.10 599.90,199.18 605.11,202.76 606.42,203.65 610.98,206.72 616.19,210.17 618.15,211.43 622.05,213.91 623.36,214.71 627.27,217.07 629.87,218.57 632.48,220.02 638.34,223.07 643.56,225.50 649.42,227.92 654.63,229.80 660.50,231.60 665.71,232.95 671.57,234.21 676.79,235.17 682.65,236.12 687.86,236.83 693.08,237.43 698.94,237.97 704.15,238.37 710.02,238.76 715.23,239.05 721.09,239.35 726.31,239.58 728.91,239.70 732.17,239.83 737.38,240.03 740.64,240.14 742.60,240.21 748.46,240.41 752.37,240.53 753.67,240.57 759.54,240.75 764.75,240.89 770.61,241.05 773.87,241.14 774.52,241.15 775.18,241.17 775.83,241.19 776.48,241.20 777.13,241.22 777.78,241.24 781.69,241.34 786.25,241.48 786.90,241.50 787.56,241.53 788.21,241.56 788.86,241.59 789.51,241.62 792.77,241.81 797.98,242.37 798.63,242.53 799.28,242.74 799.94,243.04 800.59,243.46 801.24,244.08 803.19,246.71 809.06,254.60 814.27,261.61 820.13,269.50 825.35,276.51 831.21,284.39 836.42,291.40 842.29,299.29 847.50,306.30 853.36,314.19 857.93,320.32"/>
<polyline fill="none" stroke="#1f77b4" stroke-width="1.1" stroke-dasharray="6 4" points="492.00,247.67 496.81,247.06 501.62,246.45 506.43,245.85 511.24,245.24 516.05,244.63 520.86,244.02 525.67,243.41 530.48,242.80 535.29,242.19 540.10,241.58 544.91,240.97 549.72,240.37 554.53,239.76 559.34,239.15 564.15,238.54 568.96,237.93 573.77,237.32 578.58,236.71 583.39,236.10 588.20,235.49 593.01,234.89 597.82,234.28 602.63,233.67 607.44,233.06 612.25,232.45 617.06,231.84 621.87,231.23 626.68,230.62 631.49,230.01 636.30,229.41 641.11,228.80 645.92,228.19 650.73,227.58 655.54,226.97 660.35,226.36 665.16,225.75 669.97,225.14 674.78,224.54 679.59,223.93 684.41,223.32 689.22,222.71 694.03,222.10 698.84,221.49 703.65,220.88 708.46,220.27 713.27,219.66 718.08,219.06 722.89,218.45 727.70,217.84 732.51,217.23 737.32,216.62 742.13,216.01 746.94,215.40 751.75,214.79 756.56,214.18 761.37,213.58 766.18,212.97 770.99,212.36 775.80,211.75 780.61,211.14 785.42,210.53 790.23,209.92 795.04,209.31 799.85,208.70 804.66,208.10 809.47,207.49 814.28,206.88 819.09,206.27 823.90,205.66 828.71,205.05 833.52,204.44 838.33,203.83 843.14,203.22 847.95,202.62 852.76,202.01 857.57,201.40 862.38,200.79 867.19,200.18 872.00,199.57"/>
<circle cx="649.10" cy="227.79" r="4.6" fill="#ffffff" stroke="#1f77b4" stroke-width="2"/>
<text x="655.10" y="221.79" font-family="Arial, sans-serif" font-size="10" fill="#1f77b4">typ 12.5 ohm</text>
<polyline fill="none" stroke="#ff7f0e" stroke-width="1.1" stroke-dasharray="6 4" points="492.00,247.67 496.81,247.06 501.62,246.45 506.43,245.85 511.24,245.24 516.05,244.63 520.86,244.02 525.67,243.41 530.48,242.80 535.29,242.19 540.10,241.58 544.91,240.97 549.72,240.37 554.53,239.76 559.34,239.15 564.15,238.54 568.96,237.93 573.77,237.32 578.58,236.71 583.39,236.10 588.20,235.49 593.01,234.89 597.82,234.28 602.63,233.67 607.44,233.06 612.25,232.45 617.06,231.84 621.87,231.23 626.68,230.62 631.49,230.01 636.30,229.41 641.11,228.80 645.92,228.19 650.73,227.58 655.54,226.97 660.35,226.36 665.16,225.75 669.97,225.14 674.78,224.54 679.59,223.93 684.41,223.32 689.22,222.71 694.03,222.10 698.84,221.49 703.65,220.88 708.46,220.27 713.27,219.66 718.08,219.06 722.89,218.45 727.70,217.84 732.51,217.23 737.32,216.62 742.13,216.01 746.94,215.40 751.75,214.79 756.56,214.18 761.37,213.58 766.18,212.97 770.99,212.36 775.80,211.75 780.61,211.14 785.42,210.53 790.23,209.92 795.04,209.31 799.85,208.70 804.66,208.10 809.47,207.49 814.28,206.88 819.09,206.27 823.90,205.66 828.71,205.05 833.52,204.44 838.33,203.83 843.14,203.22 847.95,202.62 852.76,202.01 857.57,201.40 862.38,200.79 867.19,200.18 872.00,199.57"/>
<circle cx="649.10" cy="227.79" r="4.6" fill="#ffffff" stroke="#ff7f0e" stroke-width="2"/>
<text x="655.10" y="221.79" font-family="Arial, sans-serif" font-size="10" fill="#ff7f0e">min 12.5 ohm</text>
<polyline fill="none" stroke="#2ca02c" stroke-width="1.1" stroke-dasharray="6 4" points="492.00,247.67 496.81,247.06 501.62,246.45 506.43,245.85 511.24,245.24 516.05,244.63 520.86,244.02 525.67,243.41 530.48,242.80 535.29,242.19 540.10,241.58 544.91,240.97 549.72,240.37 554.53,239.76 559.34,239.15 564.15,238.54 568.96,237.93 573.77,237.32 578.58,236.71 583.39,236.10 588.20,235.49 593.01,234.89 597.82,234.28 602.63,233.67 607.44,233.06 612.25,232.45 617.06,231.84 621.87,231.23 626.68,230.62 631.49,230.01 636.30,229.41 641.11,228.80 645.92,228.19 650.73,227.58 655.54,226.97 660.35,226.36 665.16,225.75 669.97,225.14 674.78,224.54 679.59,223.93 684.41,223.32 689.22,222.71 694.03,222.10 698.84,221.49 703.65,220.88 708.46,220.27 713.27,219.66 718.08,219.06 722.89,218.45 727.70,217.84 732.51,217.23 737.32,216.62 742.13,216.01 746.94,215.40 751.75,214.79 756.56,214.18 761.37,213.58 766.18,212.97 770.99,212.36 775.80,211.75 780.61,211.14 785.42,210.53 790.23,209.92 795.04,209.31 799.85,208.70 804.66,208.10 809.47,207.49 814.28,206.88 819.09,206.27 823.90,205.66 828.71,205.05 833.52,204.44 838.33,203.83 843.14,203.22 847.95,202.62 852.76,202.01 857.57,201.40 862.38,200.79 867.19,200.18 872.00,199.57"/>
<circle cx="649.10" cy="227.79" r="4.6" fill="#ffffff" stroke="#2ca02c" stroke-width="2"/>
<text x="655.10" y="221.79" font-family="Arial, sans-serif" font-size="10" fill="#2ca02c">max 12.5 ohm</text>
<line x1="502.00" y1="80.00" x2="524.00" y2="80.00" stroke="#1f77b4" stroke-width="2"/>
<text x="530.00" y="84.00" font-family="Arial, sans-serif" font-size="11">typ</text>
<line x1="502.00" y1="97.00" x2="524.00" y2="97.00" stroke="#ff7f0e" stroke-width="2" stroke-dasharray="5 4"/>
<text x="530.00" y="101.00" font-family="Arial, sans-serif" font-size="11">min</text>
<line x1="502.00" y1="114.00" x2="524.00" y2="114.00" stroke="#2ca02c" stroke-width="2" stroke-dasharray="2 4"/>
<text x="530.00" y="118.00" font-family="Arial, sans-serif" font-size="11">max</text>
<text x="682.00" y="386.00" text-anchor="middle" font-family="Arial, sans-serif" font-size="11">Vcc-relative table voltage (V)</text>
<text transform="translate(442.00 205.00) rotate(-90)" text-anchor="middle" font-family="Arial, sans-serif" font-size="11">Current (mA)</text>
<rect x="72.00" y="418.00" width="800.00" height="144.00" fill="#ffffff" stroke="#c8c8c8"/>
<text x="82.00" y="436.00" font-family="Arial, sans-serif" font-size="12" font-weight="700">Operating-point summary</text>
<text x="82.00" y="454.00" font-family="Arial, sans-serif" font-size="10" font-weight="700" fill="#333">Table</text>
<text x="174.00" y="454.00" font-family="Arial, sans-serif" font-size="10" font-weight="700" fill="#333">Corner</text>
<text x="242.00" y="454.00" font-family="Arial, sans-serif" font-size="10" font-weight="700" fill="#333">Vout</text>
<text x="332.00" y="454.00" font-family="Arial, sans-serif" font-size="10" font-weight="700" fill="#333">Iop</text>
<text x="422.00" y="454.00" font-family="Arial, sans-serif" font-size="10" font-weight="700" fill="#333">Zout</text>
<text x="512.00" y="454.00" font-family="Arial, sans-serif" font-size="10" font-weight="700" fill="#333">Rseries</text>
<text x="82.00" y="473.00" font-family="Arial, sans-serif" font-size="10" fill="#1f77b4">pulldown</text>
<text x="174.00" y="473.00" font-family="Arial, sans-serif" font-size="10" fill="#1f77b4">typ</text>
<text x="242.00" y="473.00" font-family="Arial, sans-serif" font-size="10" fill="#1f77b4">1.389 V</text>
<text x="332.00" y="473.00" font-family="Arial, sans-serif" font-size="10" fill="#1f77b4">12 mA</text>
<text x="422.00" y="473.00" font-family="Arial, sans-serif" font-size="10" fill="#1f77b4">118 ohm</text>
<text x="512.00" y="473.00" font-family="Arial, sans-serif" font-size="10" fill="#1f77b4">-67.6 ohm</text>
<text x="82.00" y="492.00" font-family="Arial, sans-serif" font-size="10" fill="#ff7f0e">pulldown</text>
<text x="174.00" y="492.00" font-family="Arial, sans-serif" font-size="10" fill="#ff7f0e">min</text>
<text x="242.00" y="492.00" font-family="Arial, sans-serif" font-size="10" fill="#ff7f0e">1.389 V</text>
<text x="332.00" y="492.00" font-family="Arial, sans-serif" font-size="10" fill="#ff7f0e">12 mA</text>
<text x="422.00" y="492.00" font-family="Arial, sans-serif" font-size="10" fill="#ff7f0e">118 ohm</text>
<text x="512.00" y="492.00" font-family="Arial, sans-serif" font-size="10" fill="#ff7f0e">-67.6 ohm</text>
<text x="82.00" y="511.00" font-family="Arial, sans-serif" font-size="10" fill="#2ca02c">pulldown</text>
<text x="174.00" y="511.00" font-family="Arial, sans-serif" font-size="10" fill="#2ca02c">max</text>
<text x="242.00" y="511.00" font-family="Arial, sans-serif" font-size="10" fill="#2ca02c">1.389 V</text>
<text x="332.00" y="511.00" font-family="Arial, sans-serif" font-size="10" fill="#2ca02c">12 mA</text>
<text x="422.00" y="511.00" font-family="Arial, sans-serif" font-size="10" fill="#2ca02c">118 ohm</text>
<text x="512.00" y="511.00" font-family="Arial, sans-serif" font-size="10" fill="#2ca02c">-67.6 ohm</text>
<text x="82.00" y="530.00" font-family="Arial, sans-serif" font-size="10" fill="#1f77b4">pullup</text>
<text x="174.00" y="530.00" font-family="Arial, sans-serif" font-size="10" fill="#1f77b4">typ</text>
<text x="242.00" y="530.00" font-family="Arial, sans-serif" font-size="10" fill="#1f77b4">1.585 V</text>
<text x="332.00" y="530.00" font-family="Arial, sans-serif" font-size="10" fill="#1f77b4">-32 mA</text>
<text x="422.00" y="530.00" font-family="Arial, sans-serif" font-size="10" fill="#1f77b4">12.5 ohm</text>
<text x="512.00" y="530.00" font-family="Arial, sans-serif" font-size="10" fill="#1f77b4">37.5 ohm</text>
<text x="82.00" y="549.00" font-family="Arial, sans-serif" font-size="10" fill="#ff7f0e">pullup</text>
<text x="174.00" y="549.00" font-family="Arial, sans-serif" font-size="10" fill="#ff7f0e">min</text>
<text x="242.00" y="549.00" font-family="Arial, sans-serif" font-size="10" fill="#ff7f0e">1.585 V</text>
<text x="332.00" y="549.00" font-family="Arial, sans-serif" font-size="10" fill="#ff7f0e">-32 mA</text>
<text x="422.00" y="549.00" font-family="Arial, sans-serif" font-size="10" fill="#ff7f0e">12.5 ohm</text>
<text x="512.00" y="549.00" font-family="Arial, sans-serif" font-size="10" fill="#ff7f0e">37.5 ohm</text>
<text x="82.00" y="568.00" font-family="Arial, sans-serif" font-size="10" fill="#2ca02c">pullup</text>
<text x="174.00" y="568.00" font-family="Arial, sans-serif" font-size="10" fill="#2ca02c">max</text>
<text x="242.00" y="568.00" font-family="Arial, sans-serif" font-size="10" fill="#2ca02c">1.585 V</text>
<text x="332.00" y="568.00" font-family="Arial, sans-serif" font-size="10" fill="#2ca02c">-32 mA</text>
<text x="422.00" y="568.00" font-family="Arial, sans-serif" font-size="10" fill="#2ca02c">12.5 ohm</text>
<text x="512.00" y="568.00" font-family="Arial, sans-serif" font-size="10" fill="#2ca02c">37.5 ohm</text>
</svg>