<svg xmlns="http://www.w3.org/2000/svg" width="900" height="620" viewBox="0 0 900 620">
<rect width="100%" height="100%" fill="#ffffff"/>
<text x="72" y="26" font-family="Arial, sans-serif" font-size="16" font-weight="700">E34_GPIO_I2CSCLIN_1V8_10_ISOSW Zout Load-Line Curves</text>
<text x="72" y="45" font-family="Arial, sans-serif" font-size="11" fill="#555">Rload=50 ohm; solid=device I-V, dashed=load line, circles=operating points</text>
<rect x="72.00" y="62.00" width="380.00" height="286.00" fill="#fbfbfb" stroke="#c8c8c8"/>
<text x="80.00" y="50.00" font-family="Arial, sans-serif" font-size="13" font-weight="700">[Pulldown] Rload to Vdd</text>
<line x1="72.00" y1="62.00" x2="72.00" y2="348.00" stroke="#ececec"/>
<text x="72.00" y="366.00" text-anchor="middle" font-family="Arial, sans-serif" font-size="10">-2</text>
<line x1="167.00" y1="62.00" x2="167.00" y2="348.00" stroke="#ececec"/>
<text x="167.00" y="366.00" text-anchor="middle" font-family="Arial, sans-serif" font-size="10">-0.558</text>
<line x1="262.00" y1="62.00" x2="262.00" y2="348.00" stroke="#ececec"/>
<text x="262.00" y="366.00" text-anchor="middle" font-family="Arial, sans-serif" font-size="10">0.9</text>
<line x1="357.00" y1="62.00" x2="357.00" y2="348.00" stroke="#ececec"/>
<text x="357.00" y="366.00" text-anchor="middle" font-family="Arial, sans-serif" font-size="10">2.4</text>
<line x1="452.00" y1="62.00" x2="452.00" y2="348.00" stroke="#ececec"/>
<text x="452.00" y="366.00" text-anchor="middle" font-family="Arial, sans-serif" font-size="10">3.8</text>
<line x1="72.00" y1="348.00" x2="452.00" y2="348.00" stroke="#ececec"/>
<text x="65.00" y="352.00" text-anchor="end" font-family="Arial, sans-serif" font-size="10">-53</text>
<line x1="72.00" y1="276.50" x2="452.00" y2="276.50" stroke="#ececec"/>
<text x="65.00" y="280.50" text-anchor="end" font-family="Arial, sans-serif" font-size="10">-18</text>
<line x1="72.00" y1="205.00" x2="452.00" y2="205.00" stroke="#ececec"/>
<text x="65.00" y="209.00" text-anchor="end" font-family="Arial, sans-serif" font-size="10">18</text>
<line x1="72.00" y1="133.50" x2="452.00" y2="133.50" stroke="#ececec"/>
<text x="65.00" y="137.50" text-anchor="end" font-family="Arial, sans-serif" font-size="10">54</text>
<line x1="72.00" y1="62.00" x2="452.00" y2="62.00" stroke="#ececec"/>
<text x="65.00" y="66.00" text-anchor="end" font-family="Arial, sans-serif" font-size="10">89</text>
<line x1="203.36" y1="62" x2="203.36" y2="348" stroke="#777" stroke-dasharray="4 4"/>
<line x1="72.0" y1="241.04" x2="452.0" y2="241.04" stroke="#777" stroke-dasharray="4 4"/>
<polyline fill="none" stroke="#1f77b4" stroke-width="1.8" points="86.07,266.75 91.29,266.75 97.15,266.75 102.36,266.75 108.23,266.75 113.44,266.75 119.30,266.75 124.52,266.75 130.38,266.75 135.59,266.75 140.16,266.75 141.46,266.75 144.06,266.75 146.67,266.37 149.28,265.92 149.93,265.80 151.23,265.55 151.88,265.41 153.19,265.14 155.79,264.55 157.10,264.23 157.75,264.06 158.40,263.89 159.70,263.53 160.35,263.34 161.66,262.95 162.96,262.54 163.61,262.32 164.26,262.10 164.91,261.87 165.57,261.64 166.22,261.40 166.87,261.15 167.52,260.89 168.17,260.63 168.82,260.36 169.48,260.09 170.13,259.80 170.78,259.51 171.43,259.21 172.08,258.90 172.73,258.59 173.39,258.27 174.04,257.94 174.69,257.61 176.64,256.57 179.90,254.74 185.11,251.69 190.98,248.24 196.19,245.19 202.05,241.79 203.36,241.04 207.27,238.80 212.48,235.83 218.34,232.54 223.56,229.65 229.42,226.46 234.63,223.67 240.50,220.60 245.71,217.93 251.57,215.03 256.79,212.53 262.65,209.84 266.56,208.12 267.86,207.56 271.77,205.94 273.08,205.42 278.94,203.19 284.15,201.40 290.02,199.64 295.23,198.34 301.09,197.17 306.31,196.39 308.91,196.08 312.17,195.75 317.38,195.34 320.64,195.14 322.60,195.03 328.46,194.76 332.37,194.61 333.67,194.56 339.54,194.38 344.75,194.24 350.61,194.10 355.83,193.98 361.69,193.83 366.90,193.69 372.77,193.51 377.98,193.33 383.19,193.14 389.06,192.90 394.27,192.68 400.13,192.42 405.35,192.17 411.21,191.87 416.42,191.54 422.29,191.00 427.50,190.30 433.36,189.25 437.93,188.23"/>
<polyline fill="none" stroke="#ff7f0e" stroke-width="1.8" stroke-dasharray="5 4" points="86.07,258.30 91.29,258.30 97.15,258.30 102.36,258.30 108.23,258.30 113.44,258.30 119.30,258.30 124.52,258.30 130.38,258.30 135.59,258.30 140.16,258.30 141.46,258.30 144.06,258.30 146.67,258.30 149.28,258.30 149.93,258.26 151.23,258.14 151.88,258.08 153.19,257.94 155.79,257.59 157.10,257.39 157.75,257.28 158.40,257.17 159.70,256.94 160.35,256.81 161.66,256.56 162.96,256.28 163.61,256.14 164.26,255.99 164.91,255.84 165.57,255.68 166.22,255.52 166.87,255.36 167.52,255.19 168.17,255.01 168.82,254.84 169.48,254.65 170.13,254.46 170.78,254.27 171.43,254.07 172.08,253.87 172.73,253.66 173.39,253.45 174.04,253.23 174.69,253.00 176.64,252.30 179.90,251.05 185.11,248.87 190.98,246.33 196.19,244.08 202.05,241.59 203.36,241.04 207.27,239.41 212.48,237.28 218.34,234.94 223.56,232.91 229.42,230.71 234.63,228.82 240.50,226.78 245.71,225.07 251.57,223.26 256.79,221.78 262.65,220.29 266.56,219.41 267.86,219.13 271.77,218.39 273.08,218.17 278.94,217.33 284.15,216.78 290.02,216.35 295.23,216.09 301.09,215.87 306.31,215.72 308.91,215.66 312.17,215.59 317.38,215.48 320.64,215.43 322.60,215.40 328.46,215.31 332.37,215.26 333.67,215.24 339.54,215.16 344.75,215.08 350.61,214.98 355.83,214.88 361.69,214.75 366.90,214.62 372.77,214.44 377.98,214.23 383.19,213.92 389.06,213.40 394.27,212.78 400.13,211.90 405.35,210.96 411.21,209.76 416.42,208.59 422.29,207.26 427.50,206.07 433.36,204.74 437.93,203.70"/>
<polyline fill="none" stroke="#2ca02c" stroke-width="1.8" stroke-dasharray="2 4" points="86.07,275.76 91.29,275.76 97.15,275.76 102.36,275.76 108.23,275.76 113.44,275.76 119.30,275.76 124.52,275.76 130.38,275.76 135.59,275.76 140.16,275.76 141.46,275.53 144.06,275.02 146.67,274.47 149.28,273.85 149.93,273.69 151.23,273.36 151.88,273.18 153.19,272.82 155.79,272.04 157.10,271.61 157.75,271.39 158.40,271.16 159.70,270.69 160.35,270.44 161.66,269.92 162.96,269.37 163.61,269.08 164.26,268.79 164.91,268.48 165.57,268.17 166.22,267.84 166.87,267.51 167.52,267.16 168.17,266.81 168.82,266.44 169.48,266.07 170.13,265.68 170.78,265.29 171.43,264.88 172.08,264.47 172.73,264.04 173.39,263.61 174.04,263.16 174.69,262.71 176.64,261.31 179.90,258.87 185.11,254.90 190.98,250.43 196.19,246.46 202.05,242.02 203.36,241.04 207.27,238.09 212.48,234.19 218.34,229.82 223.56,225.97 229.42,221.67 234.63,217.90 240.50,213.70 245.71,210.03 251.57,205.96 256.79,202.41 262.65,198.51 266.56,195.97 267.86,195.13 271.77,192.66 273.08,191.85 278.94,188.29 284.15,185.26 290.02,182.03 295.23,179.34 301.09,176.55 306.31,174.33 308.91,173.32 312.17,172.15 317.38,170.53 320.64,169.67 322.60,169.22 328.46,168.08 332.37,167.50 333.67,167.33 339.54,166.70 344.75,166.28 350.61,165.91 355.83,165.65 361.69,165.40 366.90,165.20 372.77,164.98 377.98,164.78 383.19,164.55 389.06,164.27 394.27,164.00 400.13,163.68 405.35,163.38 411.21,163.04 416.42,162.71 422.29,162.34 427.50,161.99 433.36,161.60 437.93,161.29"/>
<polyline fill="none" stroke="#1f77b4" stroke-width="1.1" stroke-dasharray="6 4" points="72.00,88.24 76.81,91.19 81.62,94.15 86.43,97.10 91.24,100.06 96.05,103.02 100.86,105.97 105.67,108.93 110.48,111.88 115.29,114.84 120.10,117.80 124.91,120.75 129.72,123.71 134.53,126.66 139.34,129.62 144.15,132.58 148.96,135.53 153.77,138.49 158.58,141.44 163.39,144.40 168.20,147.36 173.01,150.31 177.82,153.27 182.63,156.23 187.44,159.18 192.25,162.14 197.06,165.09 201.87,168.05 206.68,171.01 211.49,173.96 216.30,176.92 221.11,179.87 225.92,182.83 230.73,185.79 235.54,188.74 240.35,191.70 245.16,194.65 249.97,197.61 254.78,200.57 259.59,203.52 264.41,206.48 269.22,209.43 274.03,212.39 278.84,215.35 283.65,218.30 288.46,221.26 293.27,224.21 298.08,227.17 302.89,230.13 307.70,233.08 312.51,236.04 317.32,238.99 322.13,241.95 326.94,244.91 331.75,247.86 336.56,250.82 341.37,253.77 346.18,256.73 350.99,259.69 355.80,262.64 360.61,265.60 365.42,268.56 370.23,271.51 375.04,274.47 379.85,277.42 384.66,280.38 389.47,283.34 394.28,286.29 399.09,289.25 403.90,292.20 408.71,295.16 413.52,298.12 418.33,301.07 423.14,304.03 427.95,306.98 432.76,309.94 437.57,312.90 442.38,315.85 447.19,318.81 452.00,321.76"/>
<circle cx="266.86" cy="207.99" r="4.6" fill="#ffffff" stroke="#1f77b4" stroke-width="2"/>
<text x="272.86" y="201.99" font-family="Arial, sans-serif" font-size="10" fill="#1f77b4">typ 59 ohm</text>
<polyline fill="none" stroke="#ff7f0e" stroke-width="1.1" stroke-dasharray="6 4" points="72.00,95.44 76.81,98.40 81.62,101.36 86.43,104.31 91.24,107.27 96.05,110.22 100.86,113.18 105.67,116.14 110.48,119.09 115.29,122.05 120.10,125.00 124.91,127.96 129.72,130.92 134.53,133.87 139.34,136.83 144.15,139.78 148.96,142.74 153.77,145.70 158.58,148.65 163.39,151.61 168.20,154.56 173.01,157.52 177.82,160.48 182.63,163.43 187.44,166.39 192.25,169.34 197.06,172.30 201.87,175.26 206.68,178.21 211.49,181.17 216.30,184.13 221.11,187.08 225.92,190.04 230.73,192.99 235.54,195.95 240.35,198.91 245.16,201.86 249.97,204.82 254.78,207.77 259.59,210.73 264.41,213.69 269.22,216.64 274.03,219.60 278.84,222.55 283.65,225.51 288.46,228.47 293.27,231.42 298.08,234.38 302.89,237.33 307.70,240.29 312.51,243.25 317.32,246.20 322.13,249.16 326.94,252.11 331.75,255.07 336.56,258.03 341.37,260.98 346.18,263.94 350.99,266.89 355.80,269.85 360.61,272.81 365.42,275.76 370.23,278.72 375.04,281.67 379.85,284.63 384.66,287.59 389.47,290.54 394.28,293.50 399.09,296.46 403.90,299.41 408.71,302.37 413.52,305.32 418.33,308.28 423.14,311.24 427.95,314.19 432.76,317.15 437.57,320.10 442.38,323.06 447.19,326.02 452.00,328.97"/>
<circle cx="272.00" cy="218.35" r="4.6" fill="#ffffff" stroke="#ff7f0e" stroke-width="2"/>
<text x="278.00" y="212.35" font-family="Arial, sans-serif" font-size="10" fill="#ff7f0e">min 93 ohm</text>
<polyline fill="none" stroke="#2ca02c" stroke-width="1.1" stroke-dasharray="6 4" points="72.00,81.03 76.81,83.98 81.62,86.94 86.43,89.90 91.24,92.85 96.05,95.81 100.86,98.76 105.67,101.72 110.48,104.68 115.29,107.63 120.10,110.59 124.91,113.54 129.72,116.50 134.53,119.46 139.34,122.41 144.15,125.37 148.96,128.33 153.77,131.28 158.58,134.24 163.39,137.19 168.20,140.15 173.01,143.11 177.82,146.06 182.63,149.02 187.44,151.97 192.25,154.93 197.06,157.89 201.87,160.84 206.68,163.80 211.49,166.75 216.30,169.71 221.11,172.67 225.92,175.62 230.73,178.58 235.54,181.53 240.35,184.49 245.16,187.45 249.97,190.40 254.78,193.36 259.59,196.31 264.41,199.27 269.22,202.23 274.03,205.18 278.84,208.14 283.65,211.09 288.46,214.05 293.27,217.01 298.08,219.96 302.89,222.92 307.70,225.87 312.51,228.83 317.32,231.79 322.13,234.74 326.94,237.70 331.75,240.66 336.56,243.61 341.37,246.57 346.18,249.52 350.99,252.48 355.80,255.44 360.61,258.39 365.42,261.35 370.23,264.30 375.04,267.26 379.85,270.22 384.66,273.17 389.47,276.13 394.28,279.08 399.09,282.04 403.90,285.00 408.71,287.95 413.52,290.91 418.33,293.86 423.14,296.82 427.95,299.78 432.76,302.73 437.57,305.69 442.38,308.64 447.19,311.60 452.00,314.56"/>
<circle cx="262.90" cy="198.35" r="4.6" fill="#ffffff" stroke="#2ca02c" stroke-width="2"/>
<text x="268.90" y="192.35" font-family="Arial, sans-serif" font-size="10" fill="#2ca02c">max 42.9 ohm</text>
<line x1="82.00" y1="80.00" x2="104.00" y2="80.00" stroke="#1f77b4" stroke-width="2"/>
<text x="110.00" y="84.00" font-family="Arial, sans-serif" font-size="11">typ</text>
<line x1="82.00" y1="97.00" x2="104.00" y2="97.00" stroke="#ff7f0e" stroke-width="2" stroke-dasharray="5 4"/>
<text x="110.00" y="101.00" font-family="Arial, sans-serif" font-size="11">min</text>
<line x1="82.00" y1="114.00" x2="104.00" y2="114.00" stroke="#2ca02c" stroke-width="2" stroke-dasharray="2 4"/>
<text x="110.00" y="118.00" font-family="Arial, sans-serif" font-size="11">max</text>
<text x="262.00" y="386.00" text-anchor="middle" font-family="Arial, sans-serif" font-size="11">Output voltage (V)</text>
<text transform="translate(22.00 205.00) rotate(-90)" text-anchor="middle" font-family="Arial, sans-serif" font-size="11">Current (mA)</text>
<rect x="492.00" y="62.00" width="380.00" height="286.00" fill="#fbfbfb" stroke="#c8c8c8"/>
<text x="500.00" y="50.00" font-family="Arial, sans-serif" font-size="13" font-weight="700">[Pullup] Rload to GND</text>
<line x1="492.00" y1="62.00" x2="492.00" y2="348.00" stroke="#ececec"/>
<text x="492.00" y="366.00" text-anchor="middle" font-family="Arial, sans-serif" font-size="10">-2</text>
<line x1="587.00" y1="62.00" x2="587.00" y2="348.00" stroke="#ececec"/>
<text x="587.00" y="366.00" text-anchor="middle" font-family="Arial, sans-serif" font-size="10">-0.558</text>
<line x1="682.00" y1="62.00" x2="682.00" y2="348.00" stroke="#ececec"/>
<text x="682.00" y="366.00" text-anchor="middle" font-family="Arial, sans-serif" font-size="10">0.9</text>
<line x1="777.00" y1="62.00" x2="777.00" y2="348.00" stroke="#ececec"/>
<text x="777.00" y="366.00" text-anchor="middle" font-family="Arial, sans-serif" font-size="10">2.4</text>
<line x1="872.00" y1="62.00" x2="872.00" y2="348.00" stroke="#ececec"/>
<text x="872.00" y="366.00" text-anchor="middle" font-family="Arial, sans-serif" font-size="10">3.8</text>
<line x1="492.00" y1="348.00" x2="872.00" y2="348.00" stroke="#ececec"/>
<text x="485.00" y="352.00" text-anchor="end" font-family="Arial, sans-serif" font-size="10">-90</text>
<line x1="492.00" y1="276.50" x2="872.00" y2="276.50" stroke="#ececec"/>
<text x="485.00" y="280.50" text-anchor="end" font-family="Arial, sans-serif" font-size="10">-53</text>
<line x1="492.00" y1="205.00" x2="872.00" y2="205.00" stroke="#ececec"/>
<text x="485.00" y="209.00" text-anchor="end" font-family="Arial, sans-serif" font-size="10">-16</text>
<line x1="492.00" y1="133.50" x2="872.00" y2="133.50" stroke="#ececec"/>
<text x="485.00" y="137.50" text-anchor="end" font-family="Arial, sans-serif" font-size="10">21</text>
<line x1="492.00" y1="62.00" x2="872.00" y2="62.00" stroke="#ececec"/>
<text x="485.00" y="66.00" text-anchor="end" font-family="Arial, sans-serif" font-size="10">58</text>
<line x1="623.36" y1="62" x2="623.36" y2="348" stroke="#777" stroke-dasharray="4 4"/>
<line x1="492.0" y1="174.13" x2="872.0" y2="174.13" stroke="#777" stroke-dasharray="4 4"/>
<polyline fill="none" stroke="#1f77b4" stroke-width="1.8" points="506.07,108.01 511.29,111.04 517.15,114.46 522.36,117.50 528.23,120.91 533.44,123.94 539.30,127.35 544.52,130.36 550.38,133.74 555.59,136.73 561.46,140.08 566.67,143.03 571.88,145.97 577.75,149.24 582.96,152.12 588.82,155.33 594.04,158.16 599.90,161.34 605.11,164.16 610.33,166.99 610.98,167.35 614.24,169.12 614.89,169.48 616.19,170.19 622.05,173.41 623.36,174.13 627.27,176.28 632.48,179.09 633.78,179.78 634.43,180.13 635.09,180.48 637.04,181.52 638.34,182.21 643.56,184.94 649.42,187.97 654.63,190.61 660.50,193.53 665.71,196.06 671.57,198.84 676.79,201.24 682.65,203.86 683.95,204.43 687.21,205.83 687.86,206.10 690.47,207.19 693.08,208.25 698.94,210.55 704.15,212.48 710.02,214.48 715.23,216.09 719.79,217.37 721.09,217.70 726.96,219.06 728.26,219.33 728.91,219.45 732.82,220.16 737.38,220.86 740.64,221.28 743.25,221.58 744.55,221.72 746.51,221.91 748.46,222.10 752.37,222.42 753.67,222.52 759.54,222.92 763.45,223.12 764.75,223.17 766.05,223.21 766.71,223.22 767.36,223.22 768.66,223.22 769.96,223.22 770.61,223.22 771.92,223.22 774.52,223.22 775.83,223.22 776.48,223.22 777.13,223.22 778.43,223.22 779.09,223.22 779.74,223.22 780.39,223.22 781.04,223.22 781.69,223.22 782.34,223.22 782.99,223.22 786.90,223.22 792.77,223.22 797.98,223.22 803.19,223.22 809.06,223.22 814.27,223.22 820.13,223.22 825.35,223.22 831.21,223.22 836.42,223.22 842.29,223.22 847.50,223.22 853.36,223.22 857.93,223.22"/>
<polyline fill="none" stroke="#ff7f0e" stroke-width="1.8" stroke-dasharray="5 4" points="506.07,123.55 511.29,125.87 517.15,128.48 522.36,130.80 528.23,133.40 533.44,135.72 539.30,138.33 544.52,140.64 550.38,143.24 555.59,145.54 561.46,148.11 566.67,150.39 571.88,152.65 577.75,155.17 582.96,157.38 588.82,159.85 594.04,162.03 599.90,164.45 605.11,166.59 610.33,168.74 610.98,169.01 614.24,170.35 614.89,170.62 616.19,171.15 622.05,173.59 623.36,174.13 627.27,175.74 632.48,177.84 633.78,178.35 634.43,178.61 635.09,178.86 637.04,179.63 638.34,180.13 643.56,182.13 649.42,184.30 654.63,186.17 660.50,188.20 665.71,189.93 671.57,191.77 676.79,193.31 682.65,194.91 683.95,195.25 687.21,196.05 687.86,196.20 690.47,196.80 693.08,197.35 698.94,198.45 704.15,199.23 710.02,199.89 715.23,200.33 719.79,200.63 721.09,200.70 726.96,200.99 728.26,201.05 728.91,201.07 732.82,201.23 737.38,201.38 740.64,201.48 743.25,201.55 744.55,201.59 746.51,201.63 748.46,201.65 752.37,201.66 753.67,201.66 759.54,201.66 763.45,201.66 764.75,201.66 766.05,201.66 766.71,201.66 767.36,201.66 768.66,201.66 769.96,201.66 770.61,201.66 771.92,201.66 774.52,201.66 775.83,201.66 776.48,201.66 777.13,201.66 778.43,201.66 779.09,201.66 779.74,201.66 780.39,201.66 781.04,201.66 781.69,201.66 782.34,201.66 782.99,201.66 786.90,201.66 792.77,201.66 797.98,201.66 803.19,201.66 809.06,201.66 814.27,201.66 820.13,201.66 825.35,201.66 831.21,201.66 836.42,201.66 842.29,201.66 847.50,201.66 853.36,201.66 857.93,201.66"/>
<polyline fill="none" stroke="#2ca02c" stroke-width="1.8" stroke-dasharray="2 4" points="506.07,89.68 511.29,93.53 517.15,97.86 522.36,101.71 528.23,106.04 533.44,109.88 539.30,114.20 544.52,118.03 550.38,122.33 555.59,126.13 561.46,130.40 566.67,134.17 571.88,137.91 577.75,142.09 582.96,145.77 588.82,149.88 594.04,153.51 599.90,157.59 605.11,161.24 610.33,164.88 610.98,165.32 614.24,167.56 614.89,168.02 616.19,168.96 622.05,173.19 623.36,174.13 627.27,176.94 632.48,180.65 633.78,181.57 634.43,182.02 635.09,182.46 637.04,183.78 638.34,184.68 643.56,188.27 649.42,192.28 654.63,195.81 660.50,199.73 665.71,203.17 671.57,206.97 676.79,210.30 682.65,213.98 683.95,214.79 687.21,216.79 687.86,217.19 690.47,218.77 693.08,220.33 698.94,223.77 704.15,226.74 710.02,229.99 715.23,232.77 719.79,235.11 721.09,235.76 726.96,238.60 728.26,239.21 728.91,239.51 732.82,241.26 737.38,243.20 740.64,244.50 743.25,245.48 744.55,245.96 746.51,246.65 748.46,247.31 752.37,248.55 753.67,248.93 759.54,250.49 763.45,251.38 764.75,251.65 766.05,251.91 766.71,252.03 767.36,252.15 768.66,252.39 769.96,252.61 770.61,252.72 771.92,252.93 774.52,253.32 775.83,253.49 776.48,253.58 777.13,253.66 778.43,253.80 779.09,253.86 779.74,253.92 780.39,253.97 781.04,254.00 781.69,254.03 782.34,254.05 782.99,254.06 786.90,254.06 792.77,254.06 797.98,254.06 803.19,254.06 809.06,254.06 814.27,254.06 820.13,254.06 825.35,254.06 831.21,254.06 836.42,254.06 842.29,254.06 847.50,254.06 853.36,254.06 857.93,254.06"/>
<polyline fill="none" stroke="#1f77b4" stroke-width="1.1" stroke-dasharray="6 4" points="492.00,321.71 496.81,318.86 501.62,316.00 506.43,313.15 511.24,310.29 516.05,307.44 520.86,304.58 525.67,301.73 530.48,298.87 535.29,296.02 540.10,293.16 544.91,290.31 549.72,287.45 554.53,284.60 559.34,281.74 564.15,278.89 568.96,276.03 573.77,273.18 578.58,270.32 583.39,267.47 588.20,264.61 593.01,261.76 597.82,258.90 602.63,256.05 607.44,253.19 612.25,250.34 617.06,247.48 621.87,244.63 626.68,241.77 631.49,238.92 636.30,236.06 641.11,233.21 645.92,230.35 650.73,227.50 655.54,224.64 660.35,221.79 665.16,218.93 669.97,216.08 674.78,213.22 679.59,210.37 684.41,207.51 689.22,204.66 694.03,201.80 698.84,198.95 703.65,196.09 708.46,193.24 713.27,190.38 718.08,187.52 722.89,184.67 727.70,181.81 732.51,178.96 737.32,176.10 742.13,173.25 746.94,170.39 751.75,167.54 756.56,164.68 761.37,161.83 766.18,158.97 770.99,156.12 775.80,153.26 780.61,150.41 785.42,147.55 790.23,144.70 795.04,141.84 799.85,138.99 804.66,136.13 809.47,133.28 814.28,130.42 819.09,127.57 823.90,124.71 828.71,121.86 833.52,119.00 838.33,116.15 843.14,113.29 847.95,110.44 852.76,107.58 857.57,104.73 862.38,101.87 867.19,99.02 872.00,96.16"/>
<circle cx="687.23" cy="205.83" r="4.6" fill="#ffffff" stroke="#1f77b4" stroke-width="2"/>
<text x="693.23" y="199.83" font-family="Arial, sans-serif" font-size="10" fill="#1f77b4">typ 59.8 ohm</text>
<polyline fill="none" stroke="#ff7f0e" stroke-width="1.1" stroke-dasharray="6 4" points="492.00,314.75 496.81,311.90 501.62,309.04 506.43,306.19 511.24,303.33 516.05,300.48 520.86,297.62 525.67,294.77 530.48,291.91 535.29,289.06 540.10,286.20 544.91,283.35 549.72,280.49 554.53,277.64 559.34,274.78 564.15,271.93 568.96,269.07 573.77,266.22 578.58,263.36 583.39,260.51 588.20,257.65 593.01,254.80 597.82,251.94 602.63,249.09 607.44,246.23 612.25,243.38 617.06,240.52 621.87,237.67 626.68,234.81 631.49,231.96 636.30,229.10 641.11,226.24 645.92,223.39 650.73,220.53 655.54,217.68 660.35,214.82 665.16,211.97 669.97,209.11 674.78,206.26 679.59,203.40 684.41,200.55 689.22,197.69 694.03,194.84 698.84,191.98 703.65,189.13 708.46,186.27 713.27,183.42 718.08,180.56 722.89,177.71 727.70,174.85 732.51,172.00 737.32,169.14 742.13,166.29 746.94,163.43 751.75,160.58 756.56,157.72 761.37,154.87 766.18,152.01 770.99,149.16 775.80,146.30 780.61,143.45 785.42,140.59 790.23,137.74 795.04,134.88 799.85,132.03 804.66,129.17 809.47,126.32 814.28,123.46 819.09,120.61 823.90,117.75 828.71,114.90 833.52,112.04 838.33,109.19 843.14,106.33 847.95,103.48 852.76,100.62 857.57,97.77 862.38,94.91 867.19,92.05 872.00,89.20"/>
<circle cx="690.66" cy="196.84" r="4.6" fill="#ffffff" stroke="#ff7f0e" stroke-width="2"/>
<text x="696.66" y="190.84" font-family="Arial, sans-serif" font-size="10" fill="#ff7f0e">min 88 ohm</text>
<polyline fill="none" stroke="#2ca02c" stroke-width="1.1" stroke-dasharray="6 4" points="492.00,328.68 496.81,325.82 501.62,322.97 506.43,320.11 511.24,317.26 516.05,314.40 520.86,311.55 525.67,308.69 530.48,305.84 535.29,302.98 540.10,300.13 544.91,297.27 549.72,294.42 554.53,291.56 559.34,288.70 564.15,285.85 568.96,282.99 573.77,280.14 578.58,277.28 583.39,274.43 588.20,271.57 593.01,268.72 597.82,265.86 602.63,263.01 607.44,260.15 612.25,257.30 617.06,254.44 621.87,251.59 626.68,248.73 631.49,245.88 636.30,243.02 641.11,240.17 645.92,237.31 650.73,234.46 655.54,231.60 660.35,228.75 665.16,225.89 669.97,223.04 674.78,220.18 679.59,217.33 684.41,214.47 689.22,211.62 694.03,208.76 698.84,205.91 703.65,203.05 708.46,200.20 713.27,197.34 718.08,194.49 722.89,191.63 727.70,188.78 732.51,185.92 737.32,183.07 742.13,180.21 746.94,177.36 751.75,174.50 756.56,171.65 761.37,168.79 766.18,165.94 770.99,163.08 775.80,160.23 780.61,157.37 785.42,154.51 790.23,151.66 795.04,148.80 799.85,145.95 804.66,143.09 809.47,140.24 814.28,137.38 819.09,134.53 823.90,131.67 828.71,128.82 833.52,125.96 838.33,123.11 843.14,120.25 847.95,117.40 852.76,114.54 857.57,111.69 862.38,108.83 867.19,105.98 872.00,103.12"/>
<circle cx="683.91" cy="214.76" r="4.6" fill="#ffffff" stroke="#2ca02c" stroke-width="2"/>
<text x="689.91" y="208.76" font-family="Arial, sans-serif" font-size="10" fill="#2ca02c">max 44.2 ohm</text>
<line x1="502.00" y1="80.00" x2="524.00" y2="80.00" stroke="#1f77b4" stroke-width="2"/>
<text x="530.00" y="84.00" font-family="Arial, sans-serif" font-size="11">typ</text>
<line x1="502.00" y1="97.00" x2="524.00" y2="97.00" stroke="#ff7f0e" stroke-width="2" stroke-dasharray="5 4"/>
<text x="530.00" y="101.00" font-family="Arial, sans-serif" font-size="11">min</text>
<line x1="502.00" y1="114.00" x2="524.00" y2="114.00" stroke="#2ca02c" stroke-width="2" stroke-dasharray="2 4"/>
<text x="530.00" y="118.00" font-family="Arial, sans-serif" font-size="11">max</text>
<text x="682.00" y="386.00" text-anchor="middle" font-family="Arial, sans-serif" font-size="11">Vcc-relative table voltage (V)</text>
<text transform="translate(442.00 205.00) rotate(-90)" text-anchor="middle" font-family="Arial, sans-serif" font-size="11">Current (mA)</text>
<rect x="72.00" y="418.00" width="800.00" height="144.00" fill="#ffffff" stroke="#c8c8c8"/>
<text x="82.00" y="436.00" font-family="Arial, sans-serif" font-size="12" font-weight="700">Operating-point summary</text>
<text x="82.00" y="454.00" font-family="Arial, sans-serif" font-size="10" font-weight="700" fill="#333">Table</text>
<text x="174.00" y="454.00" font-family="Arial, sans-serif" font-size="10" font-weight="700" fill="#333">Corner</text>
<text x="242.00" y="454.00" font-family="Arial, sans-serif" font-size="10" font-weight="700" fill="#333">Vout</text>
<text x="332.00" y="454.00" font-family="Arial, sans-serif" font-size="10" font-weight="700" fill="#333">Iop</text>
<text x="422.00" y="454.00" font-family="Arial, sans-serif" font-size="10" font-weight="700" fill="#333">Zout</text>
<text x="512.00" y="454.00" font-family="Arial, sans-serif" font-size="10" font-weight="700" fill="#333">Rseries</text>
<text x="82.00" y="473.00" font-family="Arial, sans-serif" font-size="10" fill="#1f77b4">pulldown</text>
<text x="174.00" y="473.00" font-family="Arial, sans-serif" font-size="10" fill="#1f77b4">typ</text>
<text x="242.00" y="473.00" font-family="Arial, sans-serif" font-size="10" fill="#1f77b4">0.9747 V</text>
<text x="332.00" y="473.00" font-family="Arial, sans-serif" font-size="10" fill="#1f77b4">17 mA</text>
<text x="422.00" y="473.00" font-family="Arial, sans-serif" font-size="10" fill="#1f77b4">59 ohm</text>
<text x="512.00" y="473.00" font-family="Arial, sans-serif" font-size="10" fill="#1f77b4">-9.046 ohm</text>
<text x="82.00" y="492.00" font-family="Arial, sans-serif" font-size="10" fill="#ff7f0e">pulldown</text>
<text x="174.00" y="492.00" font-family="Arial, sans-serif" font-size="10" fill="#ff7f0e">min</text>
<text x="242.00" y="492.00" font-family="Arial, sans-serif" font-size="10" fill="#ff7f0e">1.053 V</text>
<text x="332.00" y="492.00" font-family="Arial, sans-serif" font-size="10" fill="#ff7f0e">11 mA</text>
<text x="422.00" y="492.00" font-family="Arial, sans-serif" font-size="10" fill="#ff7f0e">93 ohm</text>
<text x="512.00" y="492.00" font-family="Arial, sans-serif" font-size="10" fill="#ff7f0e">-43 ohm</text>
<text x="82.00" y="511.00" font-family="Arial, sans-serif" font-size="10" fill="#2ca02c">pulldown</text>
<text x="174.00" y="511.00" font-family="Arial, sans-serif" font-size="10" fill="#2ca02c">max</text>
<text x="242.00" y="511.00" font-family="Arial, sans-serif" font-size="10" fill="#2ca02c">0.9138 V</text>
<text x="332.00" y="511.00" font-family="Arial, sans-serif" font-size="10" fill="#2ca02c">21 mA</text>
<text x="422.00" y="511.00" font-family="Arial, sans-serif" font-size="10" fill="#2ca02c">42.9 ohm</text>
<text x="512.00" y="511.00" font-family="Arial, sans-serif" font-size="10" fill="#2ca02c">7.144 ohm</text>
<text x="82.00" y="530.00" font-family="Arial, sans-serif" font-size="10" fill="#1f77b4">pullup</text>
<text x="174.00" y="530.00" font-family="Arial, sans-serif" font-size="10" fill="#1f77b4">typ</text>
<text x="242.00" y="530.00" font-family="Arial, sans-serif" font-size="10" fill="#1f77b4">0.8197 V</text>
<text x="332.00" y="530.00" font-family="Arial, sans-serif" font-size="10" fill="#1f77b4">-16 mA</text>
<text x="422.00" y="530.00" font-family="Arial, sans-serif" font-size="10" fill="#1f77b4">59.8 ohm</text>
<text x="512.00" y="530.00" font-family="Arial, sans-serif" font-size="10" fill="#1f77b4">-9.791 ohm</text>
<text x="82.00" y="549.00" font-family="Arial, sans-serif" font-size="10" fill="#ff7f0e">pullup</text>
<text x="174.00" y="549.00" font-family="Arial, sans-serif" font-size="10" fill="#ff7f0e">min</text>
<text x="242.00" y="549.00" font-family="Arial, sans-serif" font-size="10" fill="#ff7f0e">0.5871 V</text>
<text x="332.00" y="549.00" font-family="Arial, sans-serif" font-size="10" fill="#ff7f0e">-12 mA</text>
<text x="422.00" y="549.00" font-family="Arial, sans-serif" font-size="10" fill="#ff7f0e">88 ohm</text>
<text x="512.00" y="549.00" font-family="Arial, sans-serif" font-size="10" fill="#ff7f0e">-38 ohm</text>
<text x="82.00" y="568.00" font-family="Arial, sans-serif" font-size="10" fill="#2ca02c">pullup</text>
<text x="174.00" y="568.00" font-family="Arial, sans-serif" font-size="10" fill="#2ca02c">max</text>
<text x="242.00" y="568.00" font-family="Arial, sans-serif" font-size="10" fill="#2ca02c">1.051 V</text>
<text x="332.00" y="568.00" font-family="Arial, sans-serif" font-size="10" fill="#2ca02c">-21 mA</text>
<text x="422.00" y="568.00" font-family="Arial, sans-serif" font-size="10" fill="#2ca02c">44.2 ohm</text>
<text x="512.00" y="568.00" font-family="Arial, sans-serif" font-size="10" fill="#2ca02c">5.771 ohm</text>
</svg>