<svg xmlns="http://www.w3.org/2000/svg" width="900" height="620" viewBox="0 0 900 620">
<rect width="100%" height="100%" fill="#ffffff"/>
<text x="72" y="26" font-family="Arial, sans-serif" font-size="16" font-weight="700">E34_GPIO_SPI_I3C_MST_1V8_01 Zout Load-Line Curves</text>
<text x="72" y="45" font-family="Arial, sans-serif" font-size="11" fill="#555">Rload=50 ohm; solid=device I-V, dashed=load line, circles=operating points</text>
<rect x="72.00" y="62.00" width="380.00" height="286.00" fill="#fbfbfb" stroke="#c8c8c8"/>
<text x="80.00" y="50.00" font-family="Arial, sans-serif" font-size="13" font-weight="700">[Pulldown] Rload to Vdd</text>
<line x1="72.00" y1="62.00" x2="72.00" y2="348.00" stroke="#ececec"/>
<text x="72.00" y="366.00" text-anchor="middle" font-family="Arial, sans-serif" font-size="10">-2</text>
<line x1="167.00" y1="62.00" x2="167.00" y2="348.00" stroke="#ececec"/>
<text x="167.00" y="366.00" text-anchor="middle" font-family="Arial, sans-serif" font-size="10">-0.558</text>
<line x1="262.00" y1="62.00" x2="262.00" y2="348.00" stroke="#ececec"/>
<text x="262.00" y="366.00" text-anchor="middle" font-family="Arial, sans-serif" font-size="10">0.9</text>
<line x1="357.00" y1="62.00" x2="357.00" y2="348.00" stroke="#ececec"/>
<text x="357.00" y="366.00" text-anchor="middle" font-family="Arial, sans-serif" font-size="10">2.4</text>
<line x1="452.00" y1="62.00" x2="452.00" y2="348.00" stroke="#ececec"/>
<text x="452.00" y="366.00" text-anchor="middle" font-family="Arial, sans-serif" font-size="10">3.8</text>
<line x1="72.00" y1="348.00" x2="452.00" y2="348.00" stroke="#ececec"/>
<text x="65.00" y="352.00" text-anchor="end" font-family="Arial, sans-serif" font-size="10">-78</text>
<line x1="72.00" y1="276.50" x2="452.00" y2="276.50" stroke="#ececec"/>
<text x="65.00" y="280.50" text-anchor="end" font-family="Arial, sans-serif" font-size="10">-31</text>
<line x1="72.00" y1="205.00" x2="452.00" y2="205.00" stroke="#ececec"/>
<text x="65.00" y="209.00" text-anchor="end" font-family="Arial, sans-serif" font-size="10">15</text>
<line x1="72.00" y1="133.50" x2="452.00" y2="133.50" stroke="#ececec"/>
<text x="65.00" y="137.50" text-anchor="end" font-family="Arial, sans-serif" font-size="10">61</text>
<line x1="72.00" y1="62.00" x2="452.00" y2="62.00" stroke="#ececec"/>
<text x="65.00" y="66.00" text-anchor="end" font-family="Arial, sans-serif" font-size="10">1.1e+02</text>
<line x1="203.36" y1="62" x2="203.36" y2="348" stroke="#777" stroke-dasharray="4 4"/>
<line x1="72.0" y1="228.06" x2="452.0" y2="228.06" stroke="#777" stroke-dasharray="4 4"/>
<polyline fill="none" stroke="#1f77b4" stroke-width="1.8" points="86.07,297.22 91.29,297.22 97.15,297.22 102.36,297.22 108.23,297.22 113.44,297.22 119.30,297.22 124.52,297.22 130.38,297.22 135.59,297.22 141.46,297.22 146.02,297.22 146.67,297.22 147.32,297.22 147.97,297.22 148.63,297.22 149.28,297.15 149.93,296.99 150.58,296.75 151.23,296.46 151.88,296.13 152.53,295.77 153.19,295.39 153.84,294.98 154.49,294.56 155.14,294.12 155.79,293.66 156.44,293.18 157.75,292.19 161.66,288.84 162.96,287.59 163.61,286.94 164.26,286.27 164.91,285.59 165.57,284.88 166.22,284.17 166.87,283.43 167.52,282.68 168.17,281.91 168.82,281.12 169.48,280.31 170.13,279.49 170.78,278.66 171.43,277.81 172.08,276.94 172.73,276.06 174.04,274.26 179.90,265.59 185.11,257.39 190.98,247.92 196.19,239.47 202.05,230.10 203.36,228.06 207.27,222.09 212.48,214.58 218.34,206.92 223.56,200.94 229.42,195.23 234.63,191.07 237.89,188.91 240.50,187.40 245.71,184.97 251.57,183.02 256.79,181.83 262.65,180.91 267.86,180.32 273.08,179.86 278.94,179.44 284.15,179.12 290.02,178.79 295.23,178.54 301.09,178.27 306.31,178.05 308.91,177.94 312.17,177.82 317.38,177.62 320.64,177.50 322.60,177.43 328.46,177.22 332.37,177.09 333.67,177.05 339.54,176.86 344.75,176.68 350.61,176.41 355.83,175.97 361.69,175.07 366.90,173.79 372.77,171.74 377.98,169.39 383.19,166.58 389.06,162.91 394.27,159.26 400.13,154.74 405.35,150.37 411.21,145.05 416.42,139.94 422.29,133.73 427.50,127.78 433.36,120.59 437.93,114.66"/>
<polyline fill="none" stroke="#ff7f0e" stroke-width="1.8" stroke-dasharray="5 4" points="86.07,273.36 91.29,273.36 97.15,273.36 102.36,273.36 108.23,273.36 113.44,273.36 119.30,273.36 124.52,273.36 130.38,273.36 135.59,273.36 141.46,273.36 146.02,273.36 146.67,273.36 147.32,273.36 147.97,273.36 148.63,273.36 149.28,273.36 149.93,273.36 150.58,273.36 151.23,273.36 151.88,273.36 152.53,273.36 153.19,273.30 153.84,273.18 154.49,272.99 155.14,272.75 155.79,272.47 156.44,272.16 157.75,271.46 161.66,268.98 162.96,268.05 163.61,267.57 164.26,267.07 164.91,266.57 165.57,266.06 166.22,265.53 166.87,265.00 167.52,264.46 168.17,263.91 168.82,263.34 169.48,262.77 170.13,262.19 170.78,261.60 171.43,261.00 172.08,260.39 172.73,259.77 174.04,258.52 179.90,252.54 185.11,246.97 190.98,240.67 196.19,235.21 202.05,229.32 203.36,228.06 207.27,224.40 212.48,219.86 218.34,215.26 223.56,211.68 229.42,208.26 234.63,205.78 237.89,204.49 240.50,203.60 245.71,202.19 251.57,201.09 256.79,200.44 262.65,199.94 267.86,199.60 273.08,199.33 278.94,199.07 284.15,198.87 290.02,198.67 295.23,198.50 301.09,198.33 306.31,198.19 308.91,198.12 312.17,198.04 317.38,197.91 320.64,197.83 322.60,197.78 328.46,197.64 332.37,197.52 333.67,197.47 339.54,197.17 344.75,196.71 350.61,195.90 355.83,194.87 361.69,193.32 366.90,191.61 372.77,189.31 377.98,186.94 383.19,184.27 389.06,180.91 394.27,177.61 400.13,173.53 405.35,169.57 411.21,164.73 416.42,160.13 422.29,154.91 427.50,150.26 433.36,145.04 437.93,140.97"/>
<polyline fill="none" stroke="#2ca02c" stroke-width="1.8" stroke-dasharray="2 4" points="86.07,320.32 91.29,320.32 97.15,320.32 102.36,320.32 108.23,320.32 113.44,320.32 119.30,320.32 124.52,320.32 130.38,320.32 135.59,320.32 141.46,320.32 146.02,320.32 146.67,320.21 147.32,320.00 147.97,319.74 148.63,319.42 149.28,319.08 149.93,318.71 150.58,318.33 151.23,317.93 151.88,317.51 152.53,317.07 153.19,316.63 153.84,316.16 154.49,315.68 155.14,315.19 155.79,314.68 156.44,314.16 157.75,313.05 161.66,309.27 162.96,307.84 163.61,307.09 164.26,306.31 164.91,305.50 165.57,304.67 166.22,303.82 166.87,302.94 167.52,302.03 168.17,301.10 168.82,300.13 169.48,299.15 170.13,298.13 170.78,297.10 171.43,296.03 172.08,294.94 172.73,293.83 174.04,291.54 179.90,280.27 185.11,269.36 190.98,256.42 196.19,244.53 202.05,231.03 203.36,228.06 207.27,219.29 212.48,208.14 218.34,196.72 223.56,187.81 229.42,179.32 234.63,173.13 237.89,169.89 240.50,167.63 245.71,163.89 251.57,160.79 256.79,158.83 262.65,157.28 267.86,156.29 273.08,155.55 278.94,154.89 284.15,154.40 290.02,153.92 295.23,153.54 301.09,153.16 306.31,152.84 308.91,152.68 312.17,152.50 317.38,152.21 320.64,152.04 322.60,151.94 328.46,151.65 332.37,151.46 333.67,151.40 339.54,151.12 344.75,150.88 350.61,150.62 355.83,150.39 361.69,150.07 366.90,149.57 372.77,148.45 377.98,146.73 383.19,144.24 389.06,140.59 394.27,136.74 400.13,131.85 405.35,127.12 411.21,121.42 416.42,116.02 422.29,109.54 427.50,103.38 433.36,95.92 437.93,89.68"/>
<polyline fill="none" stroke="#1f77b4" stroke-width="1.1" stroke-dasharray="6 4" points="72.00,110.55 76.81,112.82 81.62,115.09 86.43,117.37 91.24,119.64 96.05,121.91 100.86,124.19 105.67,126.46 110.48,128.73 115.29,131.01 120.10,133.28 124.91,135.55 129.72,137.83 134.53,140.10 139.34,142.37 144.15,144.65 148.96,146.92 153.77,149.19 158.58,151.47 163.39,153.74 168.20,156.01 173.01,158.29 177.82,160.56 182.63,162.83 187.44,165.11 192.25,167.38 197.06,169.65 201.87,171.93 206.68,174.20 211.49,176.47 216.30,178.75 221.11,181.02 225.92,183.29 230.73,185.57 235.54,187.84 240.35,190.11 245.16,192.39 249.97,194.66 254.78,196.93 259.59,199.21 264.41,201.48 269.22,203.75 274.03,206.03 278.84,208.30 283.65,210.57 288.46,212.85 293.27,215.12 298.08,217.39 302.89,219.67 307.70,221.94 312.51,224.21 317.32,226.49 322.13,228.76 326.94,231.03 331.75,233.31 336.56,235.58 341.37,237.85 346.18,240.13 350.99,242.40 355.80,244.67 360.61,246.95 365.42,249.22 370.23,251.49 375.04,253.77 379.85,256.04 384.66,258.31 389.47,260.59 394.28,262.86 399.09,265.13 403.90,267.41 408.71,269.68 413.52,271.95 418.33,274.23 423.14,276.50 427.95,278.77 432.76,281.05 437.57,283.32 442.38,285.59 447.19,287.87 452.00,290.14"/>
<circle cx="237.85" cy="188.93" r="4.6" fill="#ffffff" stroke="#1f77b4" stroke-width="2"/>
<text x="243.85" y="182.93" font-family="Arial, sans-serif" font-size="10" fill="#1f77b4">typ 20.8 ohm</text>
<polyline fill="none" stroke="#ff7f0e" stroke-width="1.1" stroke-dasharray="6 4" points="72.00,116.09 76.81,118.36 81.62,120.64 86.43,122.91 91.24,125.18 96.05,127.46 100.86,129.73 105.67,132.00 110.48,134.28 115.29,136.55 120.10,138.82 124.91,141.10 129.72,143.37 134.53,145.64 139.34,147.92 144.15,150.19 148.96,152.46 153.77,154.74 158.58,157.01 163.39,159.28 168.20,161.56 173.01,163.83 177.82,166.10 182.63,168.38 187.44,170.65 192.25,172.92 197.06,175.20 201.87,177.47 206.68,179.74 211.49,182.02 216.30,184.29 221.11,186.56 225.92,188.84 230.73,191.11 235.54,193.38 240.35,195.66 245.16,197.93 249.97,200.20 254.78,202.48 259.59,204.75 264.41,207.02 269.22,209.30 274.03,211.57 278.84,213.84 283.65,216.12 288.46,218.39 293.27,220.66 298.08,222.94 302.89,225.21 307.70,227.48 312.51,229.76 317.32,232.03 322.13,234.30 326.94,236.58 331.75,238.85 336.56,241.12 341.37,243.40 346.18,245.67 350.99,247.94 355.80,250.22 360.61,252.49 365.42,254.76 370.23,257.04 375.04,259.31 379.85,261.58 384.66,263.86 389.47,266.13 394.28,268.40 399.09,270.68 403.90,272.95 408.71,275.22 413.52,277.50 418.33,279.77 423.14,282.04 427.95,284.32 432.76,286.59 437.57,288.86 442.38,291.14 447.19,293.41 452.00,295.68"/>
<circle cx="251.80" cy="201.07" r="4.6" fill="#ffffff" stroke="#ff7f0e" stroke-width="2"/>
<text x="257.80" y="195.07" font-family="Arial, sans-serif" font-size="10" fill="#ff7f0e">min 42.4 ohm</text>
<polyline fill="none" stroke="#2ca02c" stroke-width="1.1" stroke-dasharray="6 4" points="72.00,105.01 76.81,107.28 81.62,109.55 86.43,111.83 91.24,114.10 96.05,116.37 100.86,118.65 105.67,120.92 110.48,123.19 115.29,125.47 120.10,127.74 124.91,130.01 129.72,132.29 134.53,134.56 139.34,136.83 144.15,139.11 148.96,141.38 153.77,143.65 158.58,145.93 163.39,148.20 168.20,150.47 173.01,152.75 177.82,155.02 182.63,157.29 187.44,159.57 192.25,161.84 197.06,164.11 201.87,166.39 206.68,168.66 211.49,170.93 216.30,173.21 221.11,175.48 225.92,177.75 230.73,180.03 235.54,182.30 240.35,184.57 245.16,186.85 249.97,189.12 254.78,191.39 259.59,193.67 264.41,195.94 269.22,198.21 274.03,200.48 278.84,202.76 283.65,205.03 288.46,207.30 293.27,209.58 298.08,211.85 302.89,214.12 307.70,216.40 312.51,218.67 317.32,220.94 322.13,223.22 326.94,225.49 331.75,227.76 336.56,230.04 341.37,232.31 346.18,234.58 350.99,236.86 355.80,239.13 360.61,241.40 365.42,243.68 370.23,245.95 375.04,248.22 379.85,250.50 384.66,252.77 389.47,255.04 394.28,257.32 399.09,259.59 403.90,261.86 408.71,264.14 413.52,266.41 418.33,268.68 423.14,270.96 427.95,273.23 432.76,275.50 437.57,277.78 442.38,280.05 447.19,282.32 452.00,284.60"/>
<circle cx="229.37" cy="179.38" r="4.6" fill="#ffffff" stroke="#2ca02c" stroke-width="2"/>
<text x="235.37" y="173.38" font-family="Arial, sans-serif" font-size="10" fill="#2ca02c">max 12.6 ohm</text>
<line x1="82.00" y1="80.00" x2="104.00" y2="80.00" stroke="#1f77b4" stroke-width="2"/>
<text x="110.00" y="84.00" font-family="Arial, sans-serif" font-size="11">typ</text>
<line x1="82.00" y1="97.00" x2="104.00" y2="97.00" stroke="#ff7f0e" stroke-width="2" stroke-dasharray="5 4"/>
<text x="110.00" y="101.00" font-family="Arial, sans-serif" font-size="11">min</text>
<line x1="82.00" y1="114.00" x2="104.00" y2="114.00" stroke="#2ca02c" stroke-width="2" stroke-dasharray="2 4"/>
<text x="110.00" y="118.00" font-family="Arial, sans-serif" font-size="11">max</text>
<text x="262.00" y="386.00" text-anchor="middle" font-family="Arial, sans-serif" font-size="11">Output voltage (V)</text>
<text transform="translate(22.00 205.00) rotate(-90)" text-anchor="middle" font-family="Arial, sans-serif" font-size="11">Current (mA)</text>
<rect x="492.00" y="62.00" width="380.00" height="286.00" fill="#fbfbfb" stroke="#c8c8c8"/>
<text x="500.00" y="50.00" font-family="Arial, sans-serif" font-size="13" font-weight="700">[Pullup] Rload to GND</text>
<line x1="492.00" y1="62.00" x2="492.00" y2="348.00" stroke="#ececec"/>
<text x="492.00" y="366.00" text-anchor="middle" font-family="Arial, sans-serif" font-size="10">-2</text>
<line x1="587.00" y1="62.00" x2="587.00" y2="348.00" stroke="#ececec"/>
<text x="587.00" y="366.00" text-anchor="middle" font-family="Arial, sans-serif" font-size="10">-0.558</text>
<line x1="682.00" y1="62.00" x2="682.00" y2="348.00" stroke="#ececec"/>
<text x="682.00" y="366.00" text-anchor="middle" font-family="Arial, sans-serif" font-size="10">0.9</text>
<line x1="777.00" y1="62.00" x2="777.00" y2="348.00" stroke="#ececec"/>
<text x="777.00" y="366.00" text-anchor="middle" font-family="Arial, sans-serif" font-size="10">2.4</text>
<line x1="872.00" y1="62.00" x2="872.00" y2="348.00" stroke="#ececec"/>
<text x="872.00" y="366.00" text-anchor="middle" font-family="Arial, sans-serif" font-size="10">3.8</text>
<line x1="492.00" y1="348.00" x2="872.00" y2="348.00" stroke="#ececec"/>
<text x="485.00" y="352.00" text-anchor="end" font-family="Arial, sans-serif" font-size="10">-99</text>
<line x1="492.00" y1="276.50" x2="872.00" y2="276.50" stroke="#ececec"/>
<text x="485.00" y="280.50" text-anchor="end" font-family="Arial, sans-serif" font-size="10">-39</text>
<line x1="492.00" y1="205.00" x2="872.00" y2="205.00" stroke="#ececec"/>
<text x="485.00" y="209.00" text-anchor="end" font-family="Arial, sans-serif" font-size="10">20</text>
<line x1="492.00" y1="133.50" x2="872.00" y2="133.50" stroke="#ececec"/>
<text x="485.00" y="137.50" text-anchor="end" font-family="Arial, sans-serif" font-size="10">80</text>
<line x1="492.00" y1="62.00" x2="872.00" y2="62.00" stroke="#ececec"/>
<text x="485.00" y="66.00" text-anchor="end" font-family="Arial, sans-serif" font-size="10">1.4e+02</text>
<line x1="623.36" y1="62" x2="623.36" y2="348" stroke="#777" stroke-dasharray="4 4"/>
<line x1="492.0" y1="229.46" x2="872.0" y2="229.46" stroke="#777" stroke-dasharray="4 4"/>
<polyline fill="none" stroke="#1f77b4" stroke-width="1.8" points="506.07,112.29 511.29,118.44 517.15,125.16 518.45,126.62 522.36,130.94 528.23,137.25 533.44,142.72 539.30,148.74 544.52,154.01 550.38,159.88 555.59,165.06 561.46,170.85 566.67,175.97 571.88,181.06 577.75,186.75 582.96,191.78 588.82,197.40 594.04,202.35 599.90,207.89 605.11,212.78 610.98,218.23 616.19,223.01 616.84,223.60 617.49,224.19 622.05,228.30 623.36,229.46 627.27,232.85 630.53,235.52 632.48,237.06 638.34,241.43 643.56,244.97 649.42,248.53 654.63,251.32 658.54,253.18 660.50,254.03 665.71,256.07 667.01,256.53 671.57,257.97 676.79,259.34 679.39,259.93 682.65,260.58 687.86,261.44 693.08,262.14 694.38,262.30 698.94,262.30 702.20,262.30 704.15,262.30 710.02,262.30 715.23,262.30 721.09,262.30 726.31,262.30 728.91,262.30 732.17,262.30 737.38,262.30 740.64,262.30 742.60,262.30 748.46,262.30 752.37,262.30 753.67,262.30 759.54,262.30 764.75,262.30 766.71,262.30 767.36,262.59 770.61,266.23 775.83,271.49 782.34,276.90 782.99,277.37 783.65,277.82 784.95,278.70 786.25,279.52 786.90,279.91 787.56,280.30 788.21,280.67 788.86,281.02 789.51,281.37 790.16,281.70 790.81,282.02 791.47,282.32 792.12,282.60 792.77,282.85 793.42,283.08 794.07,283.26 794.72,283.39 795.37,283.45 797.98,283.45 803.19,283.45 807.10,283.45 807.75,283.45 808.41,283.45 809.06,283.45 809.71,283.45 814.27,283.45 820.13,283.45 825.35,283.45 831.21,283.45 836.42,283.45 842.29,283.45 847.50,283.45 853.36,283.45 857.93,283.45"/>
<polyline fill="none" stroke="#ff7f0e" stroke-width="1.8" stroke-dasharray="5 4" points="506.07,139.49 511.29,144.42 517.15,149.97 518.45,151.20 522.36,154.86 528.23,160.21 533.44,164.82 539.30,169.86 544.52,174.22 550.38,179.01 555.59,183.18 561.46,187.77 566.67,191.76 571.88,195.67 577.75,199.97 582.96,203.70 588.82,207.79 594.04,211.32 599.90,215.18 605.11,218.51 610.98,222.15 616.19,225.28 616.84,225.66 617.49,226.05 622.05,228.72 623.36,229.46 627.27,231.63 630.53,233.31 632.48,234.28 638.34,236.99 643.56,239.16 649.42,241.32 654.63,242.97 658.54,244.05 660.50,244.53 665.71,245.66 667.01,245.90 671.57,246.65 676.79,247.32 679.39,247.60 682.65,247.90 687.86,248.29 693.08,248.61 694.38,248.68 698.94,248.91 702.20,249.05 704.15,249.14 710.02,249.36 715.23,249.54 721.09,249.72 726.31,249.86 728.91,249.93 732.17,250.02 737.38,250.15 740.64,250.22 742.60,250.27 748.46,250.40 752.37,250.48 753.67,250.51 759.54,250.62 764.75,250.72 766.71,250.76 767.36,250.77 770.61,250.83 775.83,250.93 782.34,251.02 782.99,251.02 783.65,251.02 784.95,251.02 786.25,251.02 786.90,251.02 787.56,251.02 788.21,251.02 788.86,251.02 789.51,251.02 790.16,251.02 790.81,251.02 791.47,251.02 792.12,251.02 792.77,251.02 793.42,251.02 794.07,251.02 794.72,251.02 795.37,251.02 797.98,251.02 803.19,251.02 807.10,251.02 807.75,251.02 808.41,251.02 809.06,251.02 809.71,251.02 814.27,251.02 820.13,251.02 825.35,251.02 831.21,251.02 836.42,251.02 842.29,251.02 847.50,251.02 853.36,251.02 857.93,251.02"/>
<polyline fill="none" stroke="#2ca02c" stroke-width="1.8" stroke-dasharray="2 4" points="506.07,89.68 511.29,96.53 517.15,103.99 518.45,105.61 522.36,110.38 528.23,117.30 533.44,123.27 539.30,129.85 544.52,135.65 550.38,142.15 555.59,147.95 561.46,154.50 566.67,160.36 571.88,166.26 577.75,172.97 582.96,179.00 588.82,185.88 594.04,192.12 599.90,199.28 605.11,205.80 610.98,213.30 616.19,219.97 616.84,220.79 617.49,221.64 622.05,227.74 623.36,229.46 627.27,234.51 630.53,238.50 632.48,240.73 638.34,247.14 643.56,252.32 649.42,257.51 654.63,261.56 658.54,264.27 660.50,265.53 665.71,268.56 667.01,269.25 671.57,271.46 676.79,273.63 679.39,274.59 682.65,275.67 687.86,277.15 693.08,278.36 694.38,278.62 698.94,279.46 702.20,279.97 704.15,279.97 710.02,279.97 715.23,279.97 721.09,279.97 726.31,279.97 728.91,279.97 732.17,279.97 737.38,279.97 740.64,279.97 742.60,279.97 748.46,279.97 752.37,279.97 753.67,279.97 759.54,279.97 764.75,279.97 766.71,279.97 767.36,279.97 770.61,279.97 775.83,279.97 782.34,279.97 782.99,280.80 783.65,281.67 784.95,283.35 786.25,284.95 786.90,285.72 787.56,286.47 788.21,287.20 788.86,287.91 789.51,288.60 790.16,289.27 790.81,289.91 791.47,290.54 792.12,291.15 792.77,291.74 793.42,292.30 794.07,292.86 794.72,293.39 795.37,293.90 797.98,295.81 803.19,298.94 807.10,300.78 807.75,301.02 808.41,301.23 809.06,301.39 809.71,301.48 814.27,301.48 820.13,301.48 825.35,301.48 831.21,301.48 836.42,301.48 842.29,301.48 847.50,301.48 853.36,301.48 857.93,301.48"/>
<polyline fill="none" stroke="#1f77b4" stroke-width="1.1" stroke-dasharray="6 4" points="492.00,321.19 496.81,319.41 501.62,317.64 506.43,315.86 511.24,314.09 516.05,312.32 520.86,310.54 525.67,308.77 530.48,306.99 535.29,305.22 540.10,303.44 544.91,301.67 549.72,299.89 554.53,298.12 559.34,296.35 564.15,294.57 568.96,292.80 573.77,291.02 578.58,289.25 583.39,287.47 588.20,285.70 593.01,283.92 597.82,282.15 602.63,280.38 607.44,278.60 612.25,276.83 617.06,275.05 621.87,273.28 626.68,271.50 631.49,269.73 636.30,267.95 641.11,266.18 645.92,264.41 650.73,262.63 655.54,260.86 660.35,259.08 665.16,257.31 669.97,255.53 674.78,253.76 679.59,251.98 684.41,250.21 689.22,248.43 694.03,246.66 698.84,244.89 703.65,243.11 708.46,241.34 713.27,239.56 718.08,237.79 722.89,236.01 727.70,234.24 732.51,232.46 737.32,230.69 742.13,228.92 746.94,227.14 751.75,225.37 756.56,223.59 761.37,221.82 766.18,220.04 770.99,218.27 775.80,216.49 780.61,214.72 785.42,212.95 790.23,211.17 795.04,209.40 799.85,207.62 804.66,205.85 809.47,204.07 814.28,202.30 819.09,200.52 823.90,198.75 828.71,196.98 833.52,195.20 838.33,193.43 843.14,191.65 847.95,189.88 852.76,188.10 857.57,186.33 862.38,184.55 867.19,182.78 872.00,181.01"/>
<circle cx="667.15" cy="256.57" r="4.6" fill="#ffffff" stroke="#1f77b4" stroke-width="2"/>
<text x="673.15" y="250.57" font-family="Arial, sans-serif" font-size="10" fill="#1f77b4">typ 29.8 ohm</text>
<polyline fill="none" stroke="#ff7f0e" stroke-width="1.1" stroke-dasharray="6 4" points="492.00,316.86 496.81,315.09 501.62,313.31 506.43,311.54 511.24,309.76 516.05,307.99 520.86,306.21 525.67,304.44 530.48,302.67 535.29,300.89 540.10,299.12 544.91,297.34 549.72,295.57 554.53,293.79 559.34,292.02 564.15,290.24 568.96,288.47 573.77,286.70 578.58,284.92 583.39,283.15 588.20,281.37 593.01,279.60 597.82,277.82 602.63,276.05 607.44,274.27 612.25,272.50 617.06,270.73 621.87,268.95 626.68,267.18 631.49,265.40 636.30,263.63 641.11,261.85 645.92,260.08 650.73,258.30 655.54,256.53 660.35,254.76 665.16,252.98 669.97,251.21 674.78,249.43 679.59,247.66 684.41,245.88 689.22,244.11 694.03,242.33 698.84,240.56 703.65,238.78 708.46,237.01 713.27,235.24 718.08,233.46 722.89,231.69 727.70,229.91 732.51,228.14 737.32,226.36 742.13,224.59 746.94,222.81 751.75,221.04 756.56,219.27 761.37,217.49 766.18,215.72 770.99,213.94 775.80,212.17 780.61,210.39 785.42,208.62 790.23,206.84 795.04,205.07 799.85,203.30 804.66,201.52 809.47,199.75 814.28,197.97 819.09,196.20 823.90,194.42 828.71,192.65 833.52,190.87 838.33,189.10 843.14,187.33 847.95,185.55 852.76,183.78 857.57,182.00 862.38,180.23 867.19,178.45 872.00,176.68"/>
<circle cx="679.69" cy="247.62" r="4.6" fill="#ffffff" stroke="#ff7f0e" stroke-width="2"/>
<text x="685.69" y="241.62" font-family="Arial, sans-serif" font-size="10" fill="#ff7f0e">min 57.2 ohm</text>
<polyline fill="none" stroke="#2ca02c" stroke-width="1.1" stroke-dasharray="6 4" points="492.00,325.51 496.81,323.74 501.62,321.97 506.43,320.19 511.24,318.42 516.05,316.64 520.86,314.87 525.67,313.09 530.48,311.32 535.29,309.54 540.10,307.77 544.91,306.00 549.72,304.22 554.53,302.45 559.34,300.67 564.15,298.90 568.96,297.12 573.77,295.35 578.58,293.57 583.39,291.80 588.20,290.03 593.01,288.25 597.82,286.48 602.63,284.70 607.44,282.93 612.25,281.15 617.06,279.38 621.87,277.60 626.68,275.83 631.49,274.06 636.30,272.28 641.11,270.51 645.92,268.73 650.73,266.96 655.54,265.18 660.35,263.41 665.16,261.63 669.97,259.86 674.78,258.08 679.59,256.31 684.41,254.54 689.22,252.76 694.03,250.99 698.84,249.21 703.65,247.44 708.46,245.66 713.27,243.89 718.08,242.11 722.89,240.34 727.70,238.57 732.51,236.79 737.32,235.02 742.13,233.24 746.94,231.47 751.75,229.69 756.56,227.92 761.37,226.14 766.18,224.37 770.99,222.60 775.80,220.82 780.61,219.05 785.42,217.27 790.23,215.50 795.04,213.72 799.85,211.95 804.66,210.17 809.47,208.40 814.28,206.63 819.09,204.85 823.90,203.08 828.71,201.30 833.52,199.53 838.33,197.75 843.14,195.98 847.95,194.20 852.76,192.43 857.57,190.66 862.38,188.88 867.19,187.11 872.00,185.33"/>
<circle cx="658.36" cy="264.14" r="4.6" fill="#ffffff" stroke="#2ca02c" stroke-width="2"/>
<text x="664.36" y="258.14" font-family="Arial, sans-serif" font-size="10" fill="#2ca02c">max 18.6 ohm</text>
<line x1="502.00" y1="80.00" x2="524.00" y2="80.00" stroke="#1f77b4" stroke-width="2"/>
<text x="530.00" y="84.00" font-family="Arial, sans-serif" font-size="11">typ</text>
<line x1="502.00" y1="97.00" x2="524.00" y2="97.00" stroke="#ff7f0e" stroke-width="2" stroke-dasharray="5 4"/>
<text x="530.00" y="101.00" font-family="Arial, sans-serif" font-size="11">min</text>
<line x1="502.00" y1="114.00" x2="524.00" y2="114.00" stroke="#2ca02c" stroke-width="2" stroke-dasharray="2 4"/>
<text x="530.00" y="118.00" font-family="Arial, sans-serif" font-size="11">max</text>
<text x="682.00" y="386.00" text-anchor="middle" font-family="Arial, sans-serif" font-size="11">Vcc-relative table voltage (V)</text>
<text transform="translate(442.00 205.00) rotate(-90)" text-anchor="middle" font-family="Arial, sans-serif" font-size="11">Current (mA)</text>
<rect x="72.00" y="418.00" width="800.00" height="144.00" fill="#ffffff" stroke="#c8c8c8"/>
<text x="82.00" y="436.00" font-family="Arial, sans-serif" font-size="12" font-weight="700">Operating-point summary</text>
<text x="82.00" y="454.00" font-family="Arial, sans-serif" font-size="10" font-weight="700" fill="#333">Table</text>
<text x="174.00" y="454.00" font-family="Arial, sans-serif" font-size="10" font-weight="700" fill="#333">Corner</text>
<text x="242.00" y="454.00" font-family="Arial, sans-serif" font-size="10" font-weight="700" fill="#333">Vout</text>
<text x="332.00" y="454.00" font-family="Arial, sans-serif" font-size="10" font-weight="700" fill="#333">Iop</text>
<text x="422.00" y="454.00" font-family="Arial, sans-serif" font-size="10" font-weight="700" fill="#333">Zout</text>
<text x="512.00" y="454.00" font-family="Arial, sans-serif" font-size="10" font-weight="700" fill="#333">Rseries</text>
<text x="82.00" y="473.00" font-family="Arial, sans-serif" font-size="10" fill="#1f77b4">pulldown</text>
<text x="174.00" y="473.00" font-family="Arial, sans-serif" font-size="10" fill="#1f77b4">typ</text>
<text x="242.00" y="473.00" font-family="Arial, sans-serif" font-size="10" fill="#1f77b4">0.5294 V</text>
<text x="332.00" y="473.00" font-family="Arial, sans-serif" font-size="10" fill="#1f77b4">25 mA</text>
<text x="422.00" y="473.00" font-family="Arial, sans-serif" font-size="10" fill="#1f77b4">20.8 ohm</text>
<text x="512.00" y="473.00" font-family="Arial, sans-serif" font-size="10" fill="#1f77b4">29.2 ohm</text>
<text x="82.00" y="492.00" font-family="Arial, sans-serif" font-size="10" fill="#ff7f0e">pulldown</text>
<text x="174.00" y="492.00" font-family="Arial, sans-serif" font-size="10" fill="#ff7f0e">min</text>
<text x="242.00" y="492.00" font-family="Arial, sans-serif" font-size="10" fill="#ff7f0e">0.7434 V</text>
<text x="332.00" y="492.00" font-family="Arial, sans-serif" font-size="10" fill="#ff7f0e">18 mA</text>
<text x="422.00" y="492.00" font-family="Arial, sans-serif" font-size="10" fill="#ff7f0e">42.4 ohm</text>
<text x="512.00" y="492.00" font-family="Arial, sans-serif" font-size="10" fill="#ff7f0e">7.593 ohm</text>
<text x="82.00" y="511.00" font-family="Arial, sans-serif" font-size="10" fill="#2ca02c">pulldown</text>
<text x="174.00" y="511.00" font-family="Arial, sans-serif" font-size="10" fill="#2ca02c">max</text>
<text x="242.00" y="511.00" font-family="Arial, sans-serif" font-size="10" fill="#2ca02c">0.3993 V</text>
<text x="332.00" y="511.00" font-family="Arial, sans-serif" font-size="10" fill="#2ca02c">32 mA</text>
<text x="422.00" y="511.00" font-family="Arial, sans-serif" font-size="10" fill="#2ca02c">12.6 ohm</text>
<text x="512.00" y="511.00" font-family="Arial, sans-serif" font-size="10" fill="#2ca02c">37.4 ohm</text>
<text x="82.00" y="530.00" font-family="Arial, sans-serif" font-size="10" fill="#1f77b4">pullup</text>
<text x="174.00" y="530.00" font-family="Arial, sans-serif" font-size="10" fill="#1f77b4">typ</text>
<text x="242.00" y="530.00" font-family="Arial, sans-serif" font-size="10" fill="#1f77b4">1.128 V</text>
<text x="332.00" y="530.00" font-family="Arial, sans-serif" font-size="10" fill="#1f77b4">-23 mA</text>
<text x="422.00" y="530.00" font-family="Arial, sans-serif" font-size="10" fill="#1f77b4">29.8 ohm</text>
<text x="512.00" y="530.00" font-family="Arial, sans-serif" font-size="10" fill="#1f77b4">20.2 ohm</text>
<text x="82.00" y="549.00" font-family="Arial, sans-serif" font-size="10" fill="#ff7f0e">pullup</text>
<text x="174.00" y="549.00" font-family="Arial, sans-serif" font-size="10" fill="#ff7f0e">min</text>
<text x="242.00" y="549.00" font-family="Arial, sans-serif" font-size="10" fill="#ff7f0e">0.7555 V</text>
<text x="332.00" y="549.00" font-family="Arial, sans-serif" font-size="10" fill="#ff7f0e">-15 mA</text>
<text x="422.00" y="549.00" font-family="Arial, sans-serif" font-size="10" fill="#ff7f0e">57.2 ohm</text>
<text x="512.00" y="549.00" font-family="Arial, sans-serif" font-size="10" fill="#ff7f0e">-7.212 ohm</text>
<text x="82.00" y="568.00" font-family="Arial, sans-serif" font-size="10" fill="#2ca02c">pullup</text>
<text x="174.00" y="568.00" font-family="Arial, sans-serif" font-size="10" fill="#2ca02c">max</text>
<text x="242.00" y="568.00" font-family="Arial, sans-serif" font-size="10" fill="#2ca02c">1.443 V</text>
<text x="332.00" y="568.00" font-family="Arial, sans-serif" font-size="10" fill="#2ca02c">-29 mA</text>
<text x="422.00" y="568.00" font-family="Arial, sans-serif" font-size="10" fill="#2ca02c">18.6 ohm</text>
<text x="512.00" y="568.00" font-family="Arial, sans-serif" font-size="10" fill="#2ca02c">31.4 ohm</text>
</svg>