<svg xmlns="http://www.w3.org/2000/svg" width="900" height="620" viewBox="0 0 900 620">
<rect width="100%" height="100%" fill="#ffffff"/>
<text x="72" y="26" font-family="Arial, sans-serif" font-size="16" font-weight="700">E34_GPIO_I2CSCLIN_1V2_01 Zout Load-Line Curves</text>
<text x="72" y="45" font-family="Arial, sans-serif" font-size="11" fill="#555">Rload=50 ohm; solid=device I-V, dashed=load line, circles=operating points</text>
<rect x="72.00" y="62.00" width="380.00" height="286.00" fill="#fbfbfb" stroke="#c8c8c8"/>
<text x="80.00" y="50.00" font-family="Arial, sans-serif" font-size="13" font-weight="700">[Pulldown] Rload to Vdd</text>
<line x1="72.00" y1="62.00" x2="72.00" y2="348.00" stroke="#ececec"/>
<text x="72.00" y="366.00" text-anchor="middle" font-family="Arial, sans-serif" font-size="10">-1.3</text>
<line x1="167.00" y1="62.00" x2="167.00" y2="348.00" stroke="#ececec"/>
<text x="167.00" y="366.00" text-anchor="middle" font-family="Arial, sans-serif" font-size="10">-0.372</text>
<line x1="262.00" y1="62.00" x2="262.00" y2="348.00" stroke="#ececec"/>
<text x="262.00" y="366.00" text-anchor="middle" font-family="Arial, sans-serif" font-size="10">0.6</text>
<line x1="357.00" y1="62.00" x2="357.00" y2="348.00" stroke="#ececec"/>
<text x="357.00" y="366.00" text-anchor="middle" font-family="Arial, sans-serif" font-size="10">1.6</text>
<line x1="452.00" y1="62.00" x2="452.00" y2="348.00" stroke="#ececec"/>
<text x="452.00" y="366.00" text-anchor="middle" font-family="Arial, sans-serif" font-size="10">2.5</text>
<line x1="72.00" y1="348.00" x2="452.00" y2="348.00" stroke="#ececec"/>
<text x="65.00" y="352.00" text-anchor="end" font-family="Arial, sans-serif" font-size="10">-36</text>
<line x1="72.00" y1="276.50" x2="452.00" y2="276.50" stroke="#ececec"/>
<text x="65.00" y="280.50" text-anchor="end" font-family="Arial, sans-serif" font-size="10">-12</text>
<line x1="72.00" y1="205.00" x2="452.00" y2="205.00" stroke="#ececec"/>
<text x="65.00" y="209.00" text-anchor="end" font-family="Arial, sans-serif" font-size="10">12</text>
<line x1="72.00" y1="133.50" x2="452.00" y2="133.50" stroke="#ececec"/>
<text x="65.00" y="137.50" text-anchor="end" font-family="Arial, sans-serif" font-size="10">36</text>
<line x1="72.00" y1="62.00" x2="452.00" y2="62.00" stroke="#ececec"/>
<text x="65.00" y="66.00" text-anchor="end" font-family="Arial, sans-serif" font-size="10">60</text>
<line x1="203.36" y1="62" x2="203.36" y2="348" stroke="#777" stroke-dasharray="4 4"/>
<line x1="72.0" y1="241.04" x2="452.0" y2="241.04" stroke="#777" stroke-dasharray="4 4"/>
<polyline fill="none" stroke="#1f77b4" stroke-width="1.8" points="86.07,263.19 91.94,263.19 96.83,263.19 102.69,263.19 109.53,263.19 113.44,263.19 114.42,263.19 116.37,263.17 119.30,263.11 121.26,263.05 124.19,262.92 127.12,262.76 129.08,262.64 131.03,262.49 132.99,262.33 133.97,262.24 135.92,262.04 137.87,261.82 139.83,261.57 140.81,261.43 141.78,261.29 142.76,261.14 143.74,260.98 144.72,260.81 145.69,260.64 146.67,260.45 147.65,260.25 148.63,260.05 149.60,259.84 150.58,259.61 151.56,259.38 152.53,259.13 153.51,258.88 154.49,258.62 155.47,258.34 156.44,258.06 157.42,257.77 158.40,257.47 159.38,257.15 160.35,256.84 161.33,256.51 163.29,255.83 169.15,253.68 174.04,251.82 179.90,249.58 185.77,247.38 190.65,245.57 196.52,243.44 201.40,241.72 203.36,241.04 207.27,239.71 213.13,237.79 218.02,236.26 223.88,234.53 229.75,232.93 234.63,231.71 240.50,230.39 246.36,229.27 251.25,228.50 257.11,227.77 262.98,227.27 267.86,226.98 273.73,226.74 278.62,226.59 284.48,226.43 290.34,226.29 295.23,226.18 296.21,226.16 301.09,226.07 306.96,225.96 308.91,225.93 311.85,225.88 317.71,225.78 320.64,225.73 323.57,225.69 328.46,225.62 332.37,225.56 334.33,225.53 339.21,225.47 345.08,225.39 350.94,225.31 355.83,225.25 361.69,225.17 367.56,225.08 372.44,225.00 378.31,224.87 384.17,224.68 389.06,224.44 394.92,224.03 400.79,223.47 405.67,222.87 411.54,222.02 416.42,221.19 422.29,220.08 424.24,219.69 427.17,219.07 428.15,218.86 429.13,218.64 433.04,217.76 437.93,216.59"/>
<polyline fill="none" stroke="#ff7f0e" stroke-width="1.8" stroke-dasharray="5 4" points="86.07,255.33 91.94,255.33 96.83,255.33 102.69,255.33 109.53,255.33 113.44,255.33 114.42,255.33 116.37,255.33 119.30,255.33 121.26,255.33 124.19,255.33 127.12,255.31 129.08,255.26 131.03,255.19 132.99,255.09 133.97,255.03 135.92,254.90 137.87,254.76 139.83,254.59 140.81,254.51 141.78,254.41 142.76,254.31 143.74,254.21 144.72,254.10 145.69,253.99 146.67,253.87 147.65,253.75 148.63,253.62 149.60,253.48 150.58,253.34 151.56,253.20 152.53,253.04 153.51,252.89 154.49,252.72 155.47,252.55 156.44,252.38 157.42,252.19 158.40,252.01 159.38,251.81 160.35,251.61 161.33,251.41 163.29,250.98 169.15,249.58 174.04,248.32 179.90,246.79 185.77,245.26 190.65,244.03 196.52,242.61 201.40,241.48 203.36,241.04 207.27,240.19 213.13,238.99 218.02,238.07 223.88,237.06 229.75,236.18 234.63,235.54 240.50,234.91 246.36,234.43 251.25,234.15 257.11,233.93 262.98,233.79 267.86,233.71 273.73,233.62 278.62,233.56 284.48,233.49 290.34,233.43 295.23,233.38 296.21,233.37 301.09,233.33 306.96,233.28 308.91,233.26 311.85,233.24 317.71,233.19 320.64,233.17 323.57,233.14 328.46,233.11 332.37,233.08 334.33,233.06 339.21,233.03 345.08,232.98 350.94,232.91 355.83,232.83 361.69,232.67 367.56,232.42 372.44,232.14 378.31,231.70 384.17,231.16 389.06,230.64 394.92,229.93 400.79,229.14 405.67,228.43 411.54,227.51 416.42,226.71 422.29,225.74 424.24,225.42 427.17,224.93 428.15,224.77 429.13,224.61 433.04,223.96 437.93,223.16"/>
<polyline fill="none" stroke="#2ca02c" stroke-width="1.8" stroke-dasharray="2 4" points="86.07,271.45 91.94,271.45 96.83,271.45 102.69,271.45 109.53,271.44 113.44,271.39 114.42,271.37 116.37,271.33 119.30,271.24 121.26,271.17 124.19,271.04 127.12,270.86 129.08,270.72 131.03,270.55 132.99,270.35 133.97,270.24 135.92,270.00 137.87,269.72 139.83,269.40 140.81,269.23 141.78,269.04 142.76,268.84 143.74,268.63 144.72,268.41 145.69,268.17 146.67,267.92 147.65,267.66 148.63,267.38 149.60,267.09 150.58,266.78 151.56,266.46 152.53,266.12 153.51,265.77 154.49,265.40 155.47,265.02 156.44,264.63 157.42,264.22 158.40,263.80 159.38,263.36 160.35,262.92 161.33,262.46 163.29,261.52 169.15,258.56 174.04,256.04 179.90,253.00 185.77,249.97 190.65,247.45 196.52,244.47 201.40,242.01 203.36,241.04 207.27,239.11 213.13,236.28 218.02,233.99 223.88,231.33 229.75,228.80 234.63,226.80 240.50,224.55 246.36,222.50 251.25,220.96 257.11,219.34 262.98,217.99 267.86,217.09 273.73,216.28 278.62,215.79 284.48,215.35 290.34,215.03 295.23,214.80 296.21,214.76 301.09,214.57 306.96,214.36 308.91,214.30 311.85,214.20 317.71,214.03 320.64,213.95 323.57,213.87 328.46,213.74 332.37,213.64 334.33,213.59 339.21,213.47 345.08,213.34 350.94,213.21 355.83,213.10 361.69,212.98 367.56,212.86 372.44,212.76 378.31,212.63 384.17,212.49 389.06,212.36 394.92,212.16 400.79,211.93 405.67,211.70 411.54,211.30 416.42,210.85 422.29,210.11 424.24,209.82 427.17,209.32 428.15,209.14 429.13,208.96 433.04,208.15 437.93,207.02"/>
<polyline fill="none" stroke="#1f77b4" stroke-width="1.1" stroke-dasharray="6 4" points="72.00,88.24 76.81,91.19 81.62,94.15 86.43,97.10 91.24,100.06 96.05,103.02 100.86,105.97 105.67,108.93 110.48,111.88 115.29,114.84 120.10,117.80 124.91,120.75 129.72,123.71 134.53,126.66 139.34,129.62 144.15,132.58 148.96,135.53 153.77,138.49 158.58,141.44 163.39,144.40 168.20,147.36 173.01,150.31 177.82,153.27 182.63,156.23 187.44,159.18 192.25,162.14 197.06,165.09 201.87,168.05 206.68,171.01 211.49,173.96 216.30,176.92 221.11,179.87 225.92,182.83 230.73,185.79 235.54,188.74 240.35,191.70 245.16,194.65 249.97,197.61 254.78,200.57 259.59,203.52 264.41,206.48 269.22,209.43 274.03,212.39 278.84,215.35 283.65,218.30 288.46,221.26 293.27,224.21 298.08,227.17 302.89,230.13 307.70,233.08 312.51,236.04 317.32,238.99 322.13,241.95 326.94,244.91 331.75,247.86 336.56,250.82 341.37,253.77 346.18,256.73 350.99,259.69 355.80,262.64 360.61,265.60 365.42,268.56 370.23,271.51 375.04,274.47 379.85,277.42 384.66,280.38 389.47,283.34 394.28,286.29 399.09,289.25 403.90,292.20 408.71,295.16 413.52,298.12 418.33,301.07 423.14,304.03 427.95,306.98 432.76,309.94 437.57,312.90 442.38,315.85 447.19,318.81 452.00,321.76"/>
<circle cx="296.43" cy="226.16" r="4.6" fill="#ffffff" stroke="#1f77b4" stroke-width="2"/>
<text x="302.43" y="220.16" font-family="Arial, sans-serif" font-size="10" fill="#1f77b4">typ 192 ohm</text>
<polyline fill="none" stroke="#ff7f0e" stroke-width="1.1" stroke-dasharray="6 4" points="72.00,95.44 76.81,98.40 81.62,101.36 86.43,104.31 91.24,107.27 96.05,110.22 100.86,113.18 105.67,116.14 110.48,119.09 115.29,122.05 120.10,125.00 124.91,127.96 129.72,130.92 134.53,133.87 139.34,136.83 144.15,139.78 148.96,142.74 153.77,145.70 158.58,148.65 163.39,151.61 168.20,154.56 173.01,157.52 177.82,160.48 182.63,163.43 187.44,166.39 192.25,169.34 197.06,172.30 201.87,175.26 206.68,178.21 211.49,181.17 216.30,184.13 221.11,187.08 225.92,190.04 230.73,192.99 235.54,195.95 240.35,198.91 245.16,201.86 249.97,204.82 254.78,207.77 259.59,210.73 264.41,213.69 269.22,216.64 274.03,219.60 278.84,222.55 283.65,225.51 288.46,228.47 293.27,231.42 298.08,234.38 302.89,237.33 307.70,240.29 312.51,243.25 317.32,246.20 322.13,249.16 326.94,252.11 331.75,255.07 336.56,258.03 341.37,260.98 346.18,263.94 350.99,266.89 355.80,269.85 360.61,272.81 365.42,275.76 370.23,278.72 375.04,281.67 379.85,284.63 384.66,287.59 389.47,290.54 394.28,293.50 399.09,296.46 403.90,299.41 408.71,302.37 413.52,305.32 418.33,308.28 423.14,311.24 427.95,314.19 432.76,317.15 437.57,320.10 442.38,323.06 447.19,326.02 452.00,328.97"/>
<circle cx="296.44" cy="233.37" r="4.6" fill="#ffffff" stroke="#ff7f0e" stroke-width="2"/>
<text x="302.44" y="227.37" font-family="Arial, sans-serif" font-size="10" fill="#ff7f0e">min 373 ohm</text>
<polyline fill="none" stroke="#2ca02c" stroke-width="1.1" stroke-dasharray="6 4" points="72.00,81.03 76.81,83.98 81.62,86.94 86.43,89.90 91.24,92.85 96.05,95.81 100.86,98.76 105.67,101.72 110.48,104.68 115.29,107.63 120.10,110.59 124.91,113.54 129.72,116.50 134.53,119.46 139.34,122.41 144.15,125.37 148.96,128.33 153.77,131.28 158.58,134.24 163.39,137.19 168.20,140.15 173.01,143.11 177.82,146.06 182.63,149.02 187.44,151.97 192.25,154.93 197.06,157.89 201.87,160.84 206.68,163.80 211.49,166.75 216.30,169.71 221.11,172.67 225.92,175.62 230.73,178.58 235.54,181.53 240.35,184.49 245.16,187.45 249.97,190.40 254.78,193.36 259.59,196.31 264.41,199.27 269.22,202.23 274.03,205.18 278.84,208.14 283.65,211.09 288.46,214.05 293.27,217.01 298.08,219.96 302.89,222.92 307.70,225.87 312.51,228.83 317.32,231.79 322.13,234.74 326.94,237.70 331.75,240.66 336.56,243.61 341.37,246.57 346.18,249.52 350.99,252.48 355.80,255.44 360.61,258.39 365.42,261.35 370.23,264.30 375.04,267.26 379.85,270.22 384.66,273.17 389.47,276.13 394.28,279.08 399.09,282.04 403.90,285.00 408.71,287.95 413.52,290.91 418.33,293.86 423.14,296.82 427.95,299.78 432.76,302.73 437.57,305.69 442.38,308.64 447.19,311.60 452.00,314.56"/>
<circle cx="290.07" cy="215.04" r="4.6" fill="#ffffff" stroke="#2ca02c" stroke-width="2"/>
<text x="296.07" y="209.04" font-family="Arial, sans-serif" font-size="10" fill="#2ca02c">max 102 ohm</text>
<line x1="82.00" y1="80.00" x2="104.00" y2="80.00" stroke="#1f77b4" stroke-width="2"/>
<text x="110.00" y="84.00" font-family="Arial, sans-serif" font-size="11">typ</text>
<line x1="82.00" y1="97.00" x2="104.00" y2="97.00" stroke="#ff7f0e" stroke-width="2" stroke-dasharray="5 4"/>
<text x="110.00" y="101.00" font-family="Arial, sans-serif" font-size="11">min</text>
<line x1="82.00" y1="114.00" x2="104.00" y2="114.00" stroke="#2ca02c" stroke-width="2" stroke-dasharray="2 4"/>
<text x="110.00" y="118.00" font-family="Arial, sans-serif" font-size="11">max</text>
<text x="262.00" y="386.00" text-anchor="middle" font-family="Arial, sans-serif" font-size="11">Output voltage (V)</text>
<text transform="translate(22.00 205.00) rotate(-90)" text-anchor="middle" font-family="Arial, sans-serif" font-size="11">Current (mA)</text>
<rect x="492.00" y="62.00" width="380.00" height="286.00" fill="#fbfbfb" stroke="#c8c8c8"/>
<text x="500.00" y="50.00" font-family="Arial, sans-serif" font-size="13" font-weight="700">[Pullup] Rload to GND</text>
<line x1="492.00" y1="62.00" x2="492.00" y2="348.00" stroke="#ececec"/>
<text x="492.00" y="366.00" text-anchor="middle" font-family="Arial, sans-serif" font-size="10">-1.3</text>
<line x1="587.00" y1="62.00" x2="587.00" y2="348.00" stroke="#ececec"/>
<text x="587.00" y="366.00" text-anchor="middle" font-family="Arial, sans-serif" font-size="10">-0.372</text>
<line x1="682.00" y1="62.00" x2="682.00" y2="348.00" stroke="#ececec"/>
<text x="682.00" y="366.00" text-anchor="middle" font-family="Arial, sans-serif" font-size="10">0.6</text>
<line x1="777.00" y1="62.00" x2="777.00" y2="348.00" stroke="#ececec"/>
<text x="777.00" y="366.00" text-anchor="middle" font-family="Arial, sans-serif" font-size="10">1.6</text>
<line x1="872.00" y1="62.00" x2="872.00" y2="348.00" stroke="#ececec"/>
<text x="872.00" y="366.00" text-anchor="middle" font-family="Arial, sans-serif" font-size="10">2.5</text>
<line x1="492.00" y1="348.00" x2="872.00" y2="348.00" stroke="#ececec"/>
<text x="485.00" y="352.00" text-anchor="end" font-family="Arial, sans-serif" font-size="10">-60</text>
<line x1="492.00" y1="276.50" x2="872.00" y2="276.50" stroke="#ececec"/>
<text x="485.00" y="280.50" text-anchor="end" font-family="Arial, sans-serif" font-size="10">-36</text>
<line x1="492.00" y1="205.00" x2="872.00" y2="205.00" stroke="#ececec"/>
<text x="485.00" y="209.00" text-anchor="end" font-family="Arial, sans-serif" font-size="10">-12</text>
<line x1="492.00" y1="133.50" x2="872.00" y2="133.50" stroke="#ececec"/>
<text x="485.00" y="137.50" text-anchor="end" font-family="Arial, sans-serif" font-size="10">12</text>
<line x1="492.00" y1="62.00" x2="872.00" y2="62.00" stroke="#ececec"/>
<text x="485.00" y="66.00" text-anchor="end" font-family="Arial, sans-serif" font-size="10">36</text>
<line x1="623.36" y1="62" x2="623.36" y2="348" stroke="#777" stroke-dasharray="4 4"/>
<line x1="492.0" y1="168.96" x2="872.0" y2="168.96" stroke="#777" stroke-dasharray="4 4"/>
<polyline fill="none" stroke="#1f77b4" stroke-width="1.8" points="506.07,134.75 508.03,134.75 509.98,134.75 510.96,134.76 511.94,134.80 512.92,134.87 513.89,134.97 514.87,135.09 515.85,135.22 516.83,135.37 517.80,135.54 518.78,135.72 519.76,135.91 520.73,136.10 521.71,136.31 523.67,136.75 525.62,137.22 526.60,137.46 528.55,137.97 529.53,138.23 531.49,138.76 532.46,139.03 533.44,139.31 534.42,139.59 535.40,139.87 536.37,140.16 537.35,140.45 538.33,140.75 539.30,141.04 540.28,141.34 541.26,141.64 543.21,142.25 550.06,144.45 552.01,145.10 555.92,146.40 560.81,148.06 566.67,150.07 572.53,152.09 577.42,153.78 583.29,155.79 589.15,157.78 594.04,159.42 599.90,161.37 605.77,163.30 610.65,164.89 615.54,166.47 616.52,166.78 621.40,168.34 623.36,168.96 627.27,170.17 631.18,171.34 632.15,171.63 638.02,173.29 643.88,174.85 649.75,176.30 654.63,177.42 660.50,178.65 666.36,179.72 671.25,180.49 677.11,181.25 682.98,181.84 684.93,182.00 687.86,182.21 693.73,182.55 698.62,182.78 704.48,183.01 710.34,183.21 711.32,183.24 715.23,183.35 716.21,183.38 717.19,183.41 721.09,183.51 726.96,183.65 728.91,183.70 731.85,183.77 737.71,183.89 740.64,183.95 743.57,184.00 748.46,184.09 752.37,184.16 754.33,184.20 759.21,184.28 765.08,184.37 770.94,184.45 775.83,184.49 781.69,184.49 787.56,184.49 792.44,184.49 798.31,184.49 804.17,184.49 809.06,184.49 814.92,184.49 820.79,184.49 825.67,184.49 831.54,184.49 836.42,184.49 842.29,184.49 848.15,184.49 853.04,184.49 857.93,184.49"/>
<polyline fill="none" stroke="#ff7f0e" stroke-width="1.8" stroke-dasharray="5 4" points="506.07,149.38 508.03,149.38 509.98,149.38 510.96,149.38 511.94,149.38 512.92,149.38 513.89,149.38 514.87,149.38 515.85,149.38 516.83,149.38 517.80,149.38 518.78,149.38 519.76,149.38 520.73,149.38 521.71,149.38 523.67,149.38 525.62,149.38 526.60,149.38 528.55,149.38 529.53,149.38 531.49,149.38 532.46,149.41 533.44,149.46 534.42,149.53 535.40,149.62 536.37,149.72 537.35,149.83 538.33,149.96 539.30,150.09 540.28,150.24 541.26,150.39 543.21,150.71 550.06,152.01 552.01,152.42 555.92,153.27 560.81,154.38 566.67,155.76 572.53,157.17 577.42,158.37 583.29,159.79 589.15,161.21 594.04,162.37 599.90,163.74 605.77,165.08 610.65,166.18 615.54,167.26 616.52,167.48 621.40,168.54 623.36,168.96 627.27,169.78 631.18,170.55 632.15,170.73 638.02,171.79 643.88,172.75 649.75,173.61 654.63,174.24 660.50,174.88 666.36,175.39 671.25,175.71 677.11,175.98 682.98,176.17 684.93,176.22 687.86,176.29 693.73,176.40 698.62,176.49 704.48,176.57 710.34,176.65 711.32,176.67 715.23,176.72 716.21,176.73 717.19,176.74 721.09,176.78 726.96,176.85 728.91,176.87 731.85,176.90 737.71,176.95 740.64,176.98 743.57,177.00 748.46,177.04 752.37,177.07 754.33,177.07 759.21,177.08 765.08,177.08 770.94,177.08 775.83,177.08 781.69,177.08 787.56,177.08 792.44,177.08 798.31,177.08 804.17,177.08 809.06,177.08 814.92,177.08 820.79,177.08 825.67,177.08 831.54,177.08 836.42,177.08 842.29,177.08 848.15,177.08 853.04,177.08 857.93,177.08"/>
<polyline fill="none" stroke="#2ca02c" stroke-width="1.8" stroke-dasharray="2 4" points="506.07,117.61 508.03,118.26 509.98,118.94 510.96,119.28 511.94,119.63 512.92,119.98 513.89,120.34 514.87,120.70 515.85,121.07 516.83,121.43 517.80,121.81 518.78,122.18 519.76,122.56 520.73,122.94 521.71,123.32 523.67,124.10 525.62,124.89 526.60,125.28 528.55,126.09 529.53,126.49 531.49,127.30 532.46,127.71 533.44,128.12 534.42,128.54 535.40,128.96 536.37,129.37 537.35,129.79 538.33,130.21 539.30,130.64 540.28,131.06 541.26,131.49 543.21,132.35 550.06,135.39 552.01,136.27 555.92,138.05 560.81,140.28 566.67,142.98 572.53,145.70 577.42,147.96 583.29,150.68 589.15,153.38 594.04,155.62 599.90,158.30 605.77,160.98 610.65,163.20 615.54,165.38 616.52,165.82 621.40,168.07 623.36,168.96 627.27,170.72 631.18,172.44 632.15,172.86 638.02,175.28 643.88,177.64 649.75,179.90 654.63,181.68 660.50,183.70 666.36,185.58 671.25,187.02 677.11,188.58 682.98,189.95 684.93,190.36 687.86,190.94 693.73,191.94 698.62,192.62 704.48,193.30 710.34,193.85 711.32,193.93 715.23,194.23 716.21,194.30 717.19,194.37 721.09,194.62 726.96,194.96 728.91,195.06 731.85,195.21 737.71,195.48 740.64,195.60 743.57,195.72 748.46,195.91 752.37,196.05 754.33,196.12 759.21,196.28 765.08,196.47 770.94,196.64 775.83,196.78 781.69,196.93 787.56,197.07 792.44,197.12 798.31,197.12 804.17,197.12 809.06,197.12 814.92,197.12 820.79,197.12 825.67,197.12 831.54,197.12 836.42,197.12 842.29,197.12 848.15,197.12 853.04,197.12 857.93,197.12"/>
<polyline fill="none" stroke="#1f77b4" stroke-width="1.1" stroke-dasharray="6 4" points="492.00,321.76 496.81,318.81 501.62,315.85 506.43,312.90 511.24,309.94 516.05,306.98 520.86,304.03 525.67,301.07 530.48,298.12 535.29,295.16 540.10,292.20 544.91,289.25 549.72,286.29 554.53,283.34 559.34,280.38 564.15,277.42 568.96,274.47 573.77,271.51 578.58,268.56 583.39,265.60 588.20,262.64 593.01,259.69 597.82,256.73 602.63,253.77 607.44,250.82 612.25,247.86 617.06,244.91 621.87,241.95 626.68,238.99 631.49,236.04 636.30,233.08 641.11,230.13 645.92,227.17 650.73,224.21 655.54,221.26 660.35,218.30 665.16,215.35 669.97,212.39 674.78,209.43 679.59,206.48 684.41,203.52 689.22,200.57 694.03,197.61 698.84,194.65 703.65,191.70 708.46,188.74 713.27,185.79 718.08,182.83 722.89,179.87 727.70,176.92 732.51,173.96 737.32,171.01 742.13,168.05 746.94,165.09 751.75,162.14 756.56,159.18 761.37,156.23 766.18,153.27 770.99,150.31 775.80,147.36 780.61,144.40 785.42,141.44 790.23,138.49 795.04,135.53 799.85,132.58 804.66,129.62 809.47,126.66 814.28,123.71 819.09,120.75 823.90,117.80 828.71,114.84 833.52,111.88 838.33,108.93 843.14,105.97 847.95,103.02 852.76,100.06 857.57,97.10 862.38,94.15 867.19,91.19 872.00,88.24"/>
<circle cx="717.14" cy="183.41" r="4.6" fill="#ffffff" stroke="#1f77b4" stroke-width="2"/>
<text x="723.14" y="177.41" font-family="Arial, sans-serif" font-size="10" fill="#1f77b4">typ 200 ohm</text>
<polyline fill="none" stroke="#ff7f0e" stroke-width="1.1" stroke-dasharray="6 4" points="492.00,314.56 496.81,311.60 501.62,308.64 506.43,305.69 511.24,302.73 516.05,299.78 520.86,296.82 525.67,293.86 530.48,290.91 535.29,287.95 540.10,285.00 544.91,282.04 549.72,279.08 554.53,276.13 559.34,273.17 564.15,270.22 568.96,267.26 573.77,264.30 578.58,261.35 583.39,258.39 588.20,255.44 593.01,252.48 597.82,249.52 602.63,246.57 607.44,243.61 612.25,240.66 617.06,237.70 621.87,234.74 626.68,231.79 631.49,228.83 636.30,225.87 641.11,222.92 645.92,219.96 650.73,217.01 655.54,214.05 660.35,211.09 665.16,208.14 669.97,205.18 674.78,202.23 679.59,199.27 684.41,196.31 689.22,193.36 694.03,190.40 698.84,187.45 703.65,184.49 708.46,181.53 713.27,178.58 718.08,175.62 722.89,172.67 727.70,169.71 732.51,166.75 737.32,163.80 742.13,160.84 746.94,157.89 751.75,154.93 756.56,151.97 761.37,149.02 766.18,146.06 770.99,143.11 775.80,140.15 780.61,137.19 785.42,134.24 790.23,131.28 795.04,128.33 799.85,125.37 804.66,122.41 809.47,119.46 814.28,116.50 819.09,113.54 823.90,110.59 828.71,107.63 833.52,104.68 838.33,101.72 843.14,98.76 847.95,95.81 852.76,92.85 857.57,89.90 862.38,86.94 867.19,83.98 872.00,81.03"/>
<circle cx="716.27" cy="176.73" r="4.6" fill="#ffffff" stroke="#ff7f0e" stroke-width="2"/>
<text x="722.27" y="170.73" font-family="Arial, sans-serif" font-size="10" fill="#ff7f0e">min 368 ohm</text>
<polyline fill="none" stroke="#2ca02c" stroke-width="1.1" stroke-dasharray="6 4" points="492.00,328.97 496.81,326.02 501.62,323.06 506.43,320.10 511.24,317.15 516.05,314.19 520.86,311.24 525.67,308.28 530.48,305.32 535.29,302.37 540.10,299.41 544.91,296.46 549.72,293.50 554.53,290.54 559.34,287.59 564.15,284.63 568.96,281.67 573.77,278.72 578.58,275.76 583.39,272.81 588.20,269.85 593.01,266.89 597.82,263.94 602.63,260.98 607.44,258.03 612.25,255.07 617.06,252.11 621.87,249.16 626.68,246.20 631.49,243.25 636.30,240.29 641.11,237.33 645.92,234.38 650.73,231.42 655.54,228.47 660.35,225.51 665.16,222.55 669.97,219.60 674.78,216.64 679.59,213.69 684.41,210.73 689.22,207.77 694.03,204.82 698.84,201.86 703.65,198.91 708.46,195.95 713.27,192.99 718.08,190.04 722.89,187.08 727.70,184.13 732.51,181.17 737.32,178.21 742.13,175.26 746.94,172.30 751.75,169.34 756.56,166.39 761.37,163.43 766.18,160.48 770.99,157.52 775.80,154.56 780.61,151.61 785.42,148.65 790.23,145.70 795.04,142.74 799.85,139.78 804.66,136.83 809.47,133.87 814.28,130.92 819.09,127.96 823.90,125.00 828.71,122.05 833.52,119.09 838.33,116.14 843.14,113.18 847.95,110.22 852.76,107.27 857.57,104.31 862.38,101.36 867.19,98.40 872.00,95.44"/>
<circle cx="711.70" cy="193.96" r="4.6" fill="#ffffff" stroke="#2ca02c" stroke-width="2"/>
<text x="717.70" y="187.96" font-family="Arial, sans-serif" font-size="10" fill="#2ca02c">max 109 ohm</text>
<line x1="502.00" y1="80.00" x2="524.00" y2="80.00" stroke="#1f77b4" stroke-width="2"/>
<text x="530.00" y="84.00" font-family="Arial, sans-serif" font-size="11">typ</text>
<line x1="502.00" y1="97.00" x2="524.00" y2="97.00" stroke="#ff7f0e" stroke-width="2" stroke-dasharray="5 4"/>
<text x="530.00" y="101.00" font-family="Arial, sans-serif" font-size="11">min</text>
<line x1="502.00" y1="114.00" x2="524.00" y2="114.00" stroke="#2ca02c" stroke-width="2" stroke-dasharray="2 4"/>
<text x="530.00" y="118.00" font-family="Arial, sans-serif" font-size="11">max</text>
<text x="682.00" y="386.00" text-anchor="middle" font-family="Arial, sans-serif" font-size="11">Vcc-relative table voltage (V)</text>
<text transform="translate(442.00 205.00) rotate(-90)" text-anchor="middle" font-family="Arial, sans-serif" font-size="11">Current (mA)</text>
<rect x="72.00" y="418.00" width="800.00" height="144.00" fill="#ffffff" stroke="#c8c8c8"/>
<text x="82.00" y="436.00" font-family="Arial, sans-serif" font-size="12" font-weight="700">Operating-point summary</text>
<text x="82.00" y="454.00" font-family="Arial, sans-serif" font-size="10" font-weight="700" fill="#333">Table</text>
<text x="174.00" y="454.00" font-family="Arial, sans-serif" font-size="10" font-weight="700" fill="#333">Corner</text>
<text x="242.00" y="454.00" font-family="Arial, sans-serif" font-size="10" font-weight="700" fill="#333">Vout</text>
<text x="332.00" y="454.00" font-family="Arial, sans-serif" font-size="10" font-weight="700" fill="#333">Iop</text>
<text x="422.00" y="454.00" font-family="Arial, sans-serif" font-size="10" font-weight="700" fill="#333">Zout</text>
<text x="512.00" y="454.00" font-family="Arial, sans-serif" font-size="10" font-weight="700" fill="#333">Rseries</text>
<text x="82.00" y="473.00" font-family="Arial, sans-serif" font-size="10" fill="#1f77b4">pulldown</text>
<text x="174.00" y="473.00" font-family="Arial, sans-serif" font-size="10" fill="#1f77b4">typ</text>
<text x="242.00" y="473.00" font-family="Arial, sans-serif" font-size="10" fill="#1f77b4">0.9523 V</text>
<text x="332.00" y="473.00" font-family="Arial, sans-serif" font-size="10" fill="#1f77b4">5 mA</text>
<text x="422.00" y="473.00" font-family="Arial, sans-serif" font-size="10" fill="#1f77b4">192 ohm</text>
<text x="512.00" y="473.00" font-family="Arial, sans-serif" font-size="10" fill="#1f77b4">-142 ohm</text>
<text x="82.00" y="492.00" font-family="Arial, sans-serif" font-size="10" fill="#ff7f0e">pulldown</text>
<text x="174.00" y="492.00" font-family="Arial, sans-serif" font-size="10" fill="#ff7f0e">min</text>
<text x="242.00" y="492.00" font-family="Arial, sans-serif" font-size="10" fill="#ff7f0e">0.9523 V</text>
<text x="332.00" y="492.00" font-family="Arial, sans-serif" font-size="10" fill="#ff7f0e">2.6 mA</text>
<text x="422.00" y="492.00" font-family="Arial, sans-serif" font-size="10" fill="#ff7f0e">373 ohm</text>
<text x="512.00" y="492.00" font-family="Arial, sans-serif" font-size="10" fill="#ff7f0e">-323 ohm</text>
<text x="82.00" y="511.00" font-family="Arial, sans-serif" font-size="10" fill="#2ca02c">pulldown</text>
<text x="174.00" y="511.00" font-family="Arial, sans-serif" font-size="10" fill="#2ca02c">max</text>
<text x="242.00" y="511.00" font-family="Arial, sans-serif" font-size="10" fill="#2ca02c">0.8872 V</text>
<text x="332.00" y="511.00" font-family="Arial, sans-serif" font-size="10" fill="#2ca02c">8.7 mA</text>
<text x="422.00" y="511.00" font-family="Arial, sans-serif" font-size="10" fill="#2ca02c">102 ohm</text>
<text x="512.00" y="511.00" font-family="Arial, sans-serif" font-size="10" fill="#2ca02c">-52.5 ohm</text>
<text x="82.00" y="530.00" font-family="Arial, sans-serif" font-size="10" fill="#1f77b4">pullup</text>
<text x="174.00" y="530.00" font-family="Arial, sans-serif" font-size="10" fill="#1f77b4">typ</text>
<text x="242.00" y="530.00" font-family="Arial, sans-serif" font-size="10" fill="#1f77b4">0.2405 V</text>
<text x="332.00" y="530.00" font-family="Arial, sans-serif" font-size="10" fill="#1f77b4">-4.8 mA</text>
<text x="422.00" y="530.00" font-family="Arial, sans-serif" font-size="10" fill="#1f77b4">200 ohm</text>
<text x="512.00" y="530.00" font-family="Arial, sans-serif" font-size="10" fill="#1f77b4">-150 ohm</text>
<text x="82.00" y="549.00" font-family="Arial, sans-serif" font-size="10" fill="#ff7f0e">pullup</text>
<text x="174.00" y="549.00" font-family="Arial, sans-serif" font-size="10" fill="#ff7f0e">min</text>
<text x="242.00" y="549.00" font-family="Arial, sans-serif" font-size="10" fill="#ff7f0e">0.1293 V</text>
<text x="332.00" y="549.00" font-family="Arial, sans-serif" font-size="10" fill="#ff7f0e">-2.6 mA</text>
<text x="422.00" y="549.00" font-family="Arial, sans-serif" font-size="10" fill="#ff7f0e">368 ohm</text>
<text x="512.00" y="549.00" font-family="Arial, sans-serif" font-size="10" fill="#ff7f0e">-318 ohm</text>
<text x="82.00" y="568.00" font-family="Arial, sans-serif" font-size="10" fill="#2ca02c">pullup</text>
<text x="174.00" y="568.00" font-family="Arial, sans-serif" font-size="10" fill="#2ca02c">max</text>
<text x="242.00" y="568.00" font-family="Arial, sans-serif" font-size="10" fill="#2ca02c">0.4161 V</text>
<text x="332.00" y="568.00" font-family="Arial, sans-serif" font-size="10" fill="#2ca02c">-8.3 mA</text>
<text x="422.00" y="568.00" font-family="Arial, sans-serif" font-size="10" fill="#2ca02c">109 ohm</text>
<text x="512.00" y="568.00" font-family="Arial, sans-serif" font-size="10" fill="#2ca02c">-58.6 ohm</text>
</svg>