<svg xmlns="http://www.w3.org/2000/svg" width="900" height="620" viewBox="0 0 900 620">
<rect width="100%" height="100%" fill="#ffffff"/>
<text x="72" y="26" font-family="Arial, sans-serif" font-size="16" font-weight="700">E34_GPIO_I2CSCLIN_3V3_01_ISOSW Zout Load-Line Curves</text>
<text x="72" y="45" font-family="Arial, sans-serif" font-size="11" fill="#555">Rload=50 ohm; solid=device I-V, dashed=load line, circles=operating points</text>
<rect x="72.00" y="62.00" width="380.00" height="286.00" fill="#fbfbfb" stroke="#c8c8c8"/>
<text x="80.00" y="50.00" font-family="Arial, sans-serif" font-size="13" font-weight="700">[Pulldown] Rload to Vdd</text>
<line x1="72.00" y1="62.00" x2="72.00" y2="348.00" stroke="#ececec"/>
<text x="72.00" y="366.00" text-anchor="middle" font-family="Arial, sans-serif" font-size="10">-3.7</text>
<line x1="167.00" y1="62.00" x2="167.00" y2="348.00" stroke="#ececec"/>
<text x="167.00" y="366.00" text-anchor="middle" font-family="Arial, sans-serif" font-size="10">-1</text>
<line x1="262.00" y1="62.00" x2="262.00" y2="348.00" stroke="#ececec"/>
<text x="262.00" y="366.00" text-anchor="middle" font-family="Arial, sans-serif" font-size="10">1.7</text>
<line x1="357.00" y1="62.00" x2="357.00" y2="348.00" stroke="#ececec"/>
<text x="357.00" y="366.00" text-anchor="middle" font-family="Arial, sans-serif" font-size="10">4.3</text>
<line x1="452.00" y1="62.00" x2="452.00" y2="348.00" stroke="#ececec"/>
<text x="452.00" y="366.00" text-anchor="middle" font-family="Arial, sans-serif" font-size="10">7</text>
<line x1="72.00" y1="348.00" x2="452.00" y2="348.00" stroke="#ececec"/>
<text x="65.00" y="352.00" text-anchor="end" font-family="Arial, sans-serif" font-size="10">-97</text>
<line x1="72.00" y1="276.50" x2="452.00" y2="276.50" stroke="#ececec"/>
<text x="65.00" y="280.50" text-anchor="end" font-family="Arial, sans-serif" font-size="10">-32</text>
<line x1="72.00" y1="205.00" x2="452.00" y2="205.00" stroke="#ececec"/>
<text x="65.00" y="209.00" text-anchor="end" font-family="Arial, sans-serif" font-size="10">33</text>
<line x1="72.00" y1="133.50" x2="452.00" y2="133.50" stroke="#ececec"/>
<text x="65.00" y="137.50" text-anchor="end" font-family="Arial, sans-serif" font-size="10">98</text>
<line x1="72.00" y1="62.00" x2="452.00" y2="62.00" stroke="#ececec"/>
<text x="65.00" y="66.00" text-anchor="end" font-family="Arial, sans-serif" font-size="10">1.6e+02</text>
<line x1="203.36" y1="62" x2="203.36" y2="348" stroke="#777" stroke-dasharray="4 4"/>
<line x1="72.0" y1="241.24" x2="452.0" y2="241.24" stroke="#777" stroke-dasharray="4 4"/>
<polyline fill="none" stroke="#1f77b4" stroke-width="1.8" points="86.07,254.44 91.41,254.44 97.09,254.44 102.42,254.44 108.11,254.44 113.44,254.44 119.13,254.44 124.46,254.44 130.14,254.44 135.48,254.44 141.16,254.44 146.49,254.44 152.18,254.44 157.51,254.44 163.20,254.44 168.88,254.44 170.31,254.44 171.02,254.44 174.21,254.04 174.57,253.99 175.28,253.87 179.55,252.99 180.26,252.81 180.61,252.71 181.32,252.51 181.68,252.40 182.03,252.29 182.39,252.18 183.10,251.94 183.46,251.82 183.81,251.69 184.17,251.56 184.52,251.42 184.88,251.28 185.23,251.13 185.59,250.99 185.94,250.83 186.30,250.68 186.65,250.51 187.36,250.18 187.72,250.01 190.56,248.51 196.25,245.29 201.58,242.25 203.36,241.24 207.27,239.03 212.60,236.02 218.29,232.84 223.62,229.88 229.30,226.75 234.63,223.86 240.32,220.83 245.65,218.04 251.34,215.13 256.67,212.48 262.36,209.73 265.55,208.24 266.62,207.75 267.69,207.26 268.40,206.94 273.02,204.89 278.70,202.50 284.04,200.41 289.72,198.36 295.05,196.63 300.74,195.02 306.07,193.76 309.98,192.99 311.76,192.68 317.09,191.91 320.64,191.51 322.77,191.30 328.11,190.89 331.30,190.69 333.79,190.56 339.12,190.32 344.81,190.09 350.14,189.87 355.83,189.61 361.16,189.35 366.84,189.05 372.18,188.77 377.15,188.49 377.51,188.47 378.22,188.43 383.19,188.14 387.81,187.87 388.88,187.87 394.21,187.87 396.70,187.87 397.05,187.87 397.77,187.87 399.90,187.87 405.23,187.87 410.92,187.87 416.25,187.87 421.93,187.87 427.26,187.87 432.95,187.87 437.93,187.87"/>
<polyline fill="none" stroke="#ff7f0e" stroke-width="1.8" stroke-dasharray="5 4" points="86.07,250.77 91.41,250.77 97.09,250.77 102.42,250.77 108.11,250.77 113.44,250.77 119.13,250.77 124.46,250.77 130.14,250.77 135.48,250.77 141.16,250.77 146.49,250.77 152.18,250.77 157.51,250.77 163.20,250.77 168.88,250.77 170.31,250.77 171.02,250.77 174.21,250.77 174.57,250.74 175.28,250.69 179.55,250.10 180.26,249.96 180.61,249.90 181.32,249.75 181.68,249.67 182.03,249.59 182.39,249.51 183.10,249.34 183.46,249.25 183.81,249.16 184.17,249.07 184.52,248.97 184.88,248.87 185.23,248.77 185.59,248.66 185.94,248.56 186.30,248.45 186.65,248.33 187.36,248.10 187.72,247.97 190.56,246.89 196.25,244.42 201.58,242.04 203.36,241.24 207.27,239.51 212.60,237.17 218.29,234.71 223.62,232.43 229.30,230.05 234.63,227.87 240.32,225.59 245.65,223.53 251.34,221.40 256.67,219.49 262.36,217.55 265.55,216.51 266.62,216.18 267.69,215.85 268.40,215.63 273.02,214.27 278.70,212.75 284.04,211.49 289.72,210.36 295.05,209.51 300.74,208.81 306.07,208.34 309.98,208.07 311.76,207.97 317.09,207.72 320.64,207.59 322.77,207.52 328.11,207.36 331.30,207.27 333.79,207.20 339.12,207.03 344.81,206.84 350.14,206.64 355.83,206.42 361.16,206.20 366.84,205.96 372.18,205.71 377.15,205.44 377.51,205.42 378.22,205.36 383.19,205.36 387.81,205.36 388.88,205.36 394.21,205.36 396.70,205.36 397.05,205.36 397.77,205.36 399.90,205.36 405.23,205.36 410.92,205.36 416.25,205.36 421.93,205.36 427.26,205.36 432.95,205.36 437.93,205.36"/>
<polyline fill="none" stroke="#2ca02c" stroke-width="1.8" stroke-dasharray="2 4" points="86.07,257.14 91.41,257.14 97.09,257.14 102.42,257.14 108.11,257.14 113.44,257.14 119.13,257.14 124.46,257.14 130.14,257.14 135.48,257.14 141.16,257.14 146.49,257.14 152.18,257.14 157.51,257.14 163.20,257.14 168.88,257.14 170.31,257.02 171.02,256.95 174.21,256.54 174.57,256.49 175.28,256.37 179.55,255.42 180.26,255.21 180.61,255.10 181.32,254.87 181.68,254.74 182.03,254.61 182.39,254.48 183.10,254.20 183.46,254.05 183.81,253.89 184.17,253.73 184.52,253.56 184.88,253.39 185.23,253.21 185.59,253.03 185.94,252.84 186.30,252.65 186.65,252.45 187.36,252.03 187.72,251.81 190.56,249.96 196.25,246.10 201.58,242.46 203.36,241.24 207.27,238.57 212.60,234.94 218.29,231.07 223.62,227.46 229.30,223.63 234.63,220.08 240.32,216.32 245.65,212.85 251.34,209.21 256.67,205.86 262.36,202.37 265.55,200.45 266.62,199.81 267.69,199.19 268.40,198.77 273.02,196.10 278.70,192.94 284.04,190.11 289.72,187.26 295.05,184.77 300.74,182.32 306.07,180.26 309.98,178.90 311.76,178.33 317.09,176.80 320.64,175.94 322.77,175.48 328.11,174.52 331.30,174.06 333.79,173.76 339.12,173.22 344.81,172.80 350.14,172.50 355.83,172.21 361.16,171.92 366.84,171.58 372.18,171.25 377.15,170.92 377.51,170.90 378.22,170.85 383.19,170.51 387.81,170.18 388.88,170.11 394.21,169.72 396.70,169.53 397.05,169.51 397.77,169.45 399.90,169.45 405.23,169.45 410.92,169.45 416.25,169.45 421.93,169.45 427.26,169.45 432.95,169.45 437.93,169.45"/>
<polyline fill="none" stroke="#1f77b4" stroke-width="1.1" stroke-dasharray="6 4" points="72.00,87.57 76.81,90.54 81.62,93.51 86.43,96.49 91.24,99.46 96.05,102.43 100.86,105.41 105.67,108.38 110.48,111.35 115.29,114.33 120.10,117.30 124.91,120.27 129.72,123.24 134.53,126.22 139.34,129.19 144.15,132.16 148.96,135.14 153.77,138.11 158.58,141.08 163.39,144.05 168.20,147.03 173.01,150.00 177.82,152.97 182.63,155.95 187.44,158.92 192.25,161.89 197.06,164.87 201.87,167.84 206.68,170.81 211.49,173.78 216.30,176.76 221.11,179.73 225.92,182.70 230.73,185.68 235.54,188.65 240.35,191.62 245.16,194.59 249.97,197.57 254.78,200.54 259.59,203.51 264.41,206.49 269.22,209.46 274.03,212.43 278.84,215.41 283.65,218.38 288.46,221.35 293.27,224.32 298.08,227.30 302.89,230.27 307.70,233.24 312.51,236.22 317.32,239.19 322.13,242.16 326.94,245.13 331.75,248.11 336.56,251.08 341.37,254.05 346.18,257.03 350.99,260.00 355.80,262.97 360.61,265.95 365.42,268.92 370.23,271.89 375.04,274.86 379.85,277.84 384.66,280.81 389.47,283.78 394.28,286.76 399.09,289.73 403.90,292.70 408.71,295.67 413.52,298.65 418.33,301.62 423.14,304.59 427.95,307.57 432.76,310.54 437.57,313.51 442.38,316.49 447.19,319.46 452.00,322.43"/>
<circle cx="266.52" cy="207.79" r="4.6" fill="#ffffff" stroke="#1f77b4" stroke-width="2"/>
<text x="272.52" y="201.79" font-family="Arial, sans-serif" font-size="10" fill="#1f77b4">typ 58.4 ohm</text>
<polyline fill="none" stroke="#ff7f0e" stroke-width="1.1" stroke-dasharray="6 4" points="72.00,94.16 76.81,97.13 81.62,100.10 86.43,103.08 91.24,106.05 96.05,109.02 100.86,112.00 105.67,114.97 110.48,117.94 115.29,120.92 120.10,123.89 124.91,126.86 129.72,129.83 134.53,132.81 139.34,135.78 144.15,138.75 148.96,141.73 153.77,144.70 158.58,147.67 163.39,150.64 168.20,153.62 173.01,156.59 177.82,159.56 182.63,162.54 187.44,165.51 192.25,168.48 197.06,171.46 201.87,174.43 206.68,177.40 211.49,180.37 216.30,183.35 221.11,186.32 225.92,189.29 230.73,192.27 235.54,195.24 240.35,198.21 245.16,201.18 249.97,204.16 254.78,207.13 259.59,210.10 264.41,213.08 269.22,216.05 274.03,219.02 278.84,222.00 283.65,224.97 288.46,227.94 293.27,230.91 298.08,233.89 302.89,236.86 307.70,239.83 312.51,242.81 317.32,245.78 322.13,248.75 326.94,251.72 331.75,254.70 336.56,257.67 341.37,260.64 346.18,263.62 350.99,266.59 355.80,269.56 360.61,272.54 365.42,275.51 370.23,278.48 375.04,281.45 379.85,284.43 384.66,287.40 389.47,290.37 394.28,293.35 399.09,296.32 403.90,299.29 408.71,302.26 413.52,305.24 418.33,308.21 423.14,311.18 427.95,314.16 432.76,317.13 437.57,320.10 442.38,323.08 447.19,326.05 452.00,329.02"/>
<circle cx="268.49" cy="215.60" r="4.6" fill="#ffffff" stroke="#ff7f0e" stroke-width="2"/>
<text x="274.49" y="209.60" font-family="Arial, sans-serif" font-size="10" fill="#ff7f0e">min 78.5 ohm</text>
<polyline fill="none" stroke="#2ca02c" stroke-width="1.1" stroke-dasharray="6 4" points="72.00,80.98 76.81,83.95 81.62,86.92 86.43,89.90 91.24,92.87 96.05,95.84 100.86,98.82 105.67,101.79 110.48,104.76 115.29,107.74 120.10,110.71 124.91,113.68 129.72,116.65 134.53,119.63 139.34,122.60 144.15,125.57 148.96,128.55 153.77,131.52 158.58,134.49 163.39,137.46 168.20,140.44 173.01,143.41 177.82,146.38 182.63,149.36 187.44,152.33 192.25,155.30 197.06,158.28 201.87,161.25 206.68,164.22 211.49,167.19 216.30,170.17 221.11,173.14 225.92,176.11 230.73,179.09 235.54,182.06 240.35,185.03 245.16,188.00 249.97,190.98 254.78,193.95 259.59,196.92 264.41,199.90 269.22,202.87 274.03,205.84 278.84,208.82 283.65,211.79 288.46,214.76 293.27,217.73 298.08,220.71 302.89,223.68 307.70,226.65 312.51,229.63 317.32,232.60 322.13,235.57 326.94,238.54 331.75,241.52 336.56,244.49 341.37,247.46 346.18,250.44 350.99,253.41 355.80,256.38 360.61,259.36 365.42,262.33 370.23,265.30 375.04,268.27 379.85,271.25 384.66,274.22 389.47,277.19 394.28,280.17 399.09,283.14 403.90,286.11 408.71,289.08 413.52,292.06 418.33,295.03 423.14,298.00 427.95,300.98 432.76,303.95 437.57,306.92 442.38,309.90 447.19,312.87 452.00,315.84"/>
<circle cx="265.42" cy="200.53" r="4.6" fill="#ffffff" stroke="#2ca02c" stroke-width="2"/>
<text x="271.42" y="194.53" font-family="Arial, sans-serif" font-size="10" fill="#2ca02c">max 47.1 ohm</text>
<line x1="82.00" y1="80.00" x2="104.00" y2="80.00" stroke="#1f77b4" stroke-width="2"/>
<text x="110.00" y="84.00" font-family="Arial, sans-serif" font-size="11">typ</text>
<line x1="82.00" y1="97.00" x2="104.00" y2="97.00" stroke="#ff7f0e" stroke-width="2" stroke-dasharray="5 4"/>
<text x="110.00" y="101.00" font-family="Arial, sans-serif" font-size="11">min</text>
<line x1="82.00" y1="114.00" x2="104.00" y2="114.00" stroke="#2ca02c" stroke-width="2" stroke-dasharray="2 4"/>
<text x="110.00" y="118.00" font-family="Arial, sans-serif" font-size="11">max</text>
<text x="262.00" y="386.00" text-anchor="middle" font-family="Arial, sans-serif" font-size="11">Output voltage (V)</text>
<text transform="translate(22.00 205.00) rotate(-90)" text-anchor="middle" font-family="Arial, sans-serif" font-size="11">Current (mA)</text>
<rect x="492.00" y="62.00" width="380.00" height="286.00" fill="#fbfbfb" stroke="#c8c8c8"/>
<text x="500.00" y="50.00" font-family="Arial, sans-serif" font-size="13" font-weight="700">[Pullup] Rload to GND</text>
<line x1="492.00" y1="62.00" x2="492.00" y2="348.00" stroke="#ececec"/>
<text x="492.00" y="366.00" text-anchor="middle" font-family="Arial, sans-serif" font-size="10">-3.7</text>
<line x1="587.00" y1="62.00" x2="587.00" y2="348.00" stroke="#ececec"/>
<text x="587.00" y="366.00" text-anchor="middle" font-family="Arial, sans-serif" font-size="10">-1</text>
<line x1="682.00" y1="62.00" x2="682.00" y2="348.00" stroke="#ececec"/>
<text x="682.00" y="366.00" text-anchor="middle" font-family="Arial, sans-serif" font-size="10">1.7</text>
<line x1="777.00" y1="62.00" x2="777.00" y2="348.00" stroke="#ececec"/>
<text x="777.00" y="366.00" text-anchor="middle" font-family="Arial, sans-serif" font-size="10">4.3</text>
<line x1="872.00" y1="62.00" x2="872.00" y2="348.00" stroke="#ececec"/>
<text x="872.00" y="366.00" text-anchor="middle" font-family="Arial, sans-serif" font-size="10">7</text>
<line x1="492.00" y1="348.00" x2="872.00" y2="348.00" stroke="#ececec"/>
<text x="485.00" y="352.00" text-anchor="end" font-family="Arial, sans-serif" font-size="10">-1.6e+02</text>
<line x1="492.00" y1="276.50" x2="872.00" y2="276.50" stroke="#ececec"/>
<text x="485.00" y="280.50" text-anchor="end" font-family="Arial, sans-serif" font-size="10">-98</text>
<line x1="492.00" y1="205.00" x2="872.00" y2="205.00" stroke="#ececec"/>
<text x="485.00" y="209.00" text-anchor="end" font-family="Arial, sans-serif" font-size="10">-33</text>
<line x1="492.00" y1="133.50" x2="872.00" y2="133.50" stroke="#ececec"/>
<text x="485.00" y="137.50" text-anchor="end" font-family="Arial, sans-serif" font-size="10">32</text>
<line x1="492.00" y1="62.00" x2="872.00" y2="62.00" stroke="#ececec"/>
<text x="485.00" y="66.00" text-anchor="end" font-family="Arial, sans-serif" font-size="10">97</text>
<line x1="623.36" y1="62" x2="623.36" y2="348" stroke="#777" stroke-dasharray="4 4"/>
<line x1="492.0" y1="168.76" x2="872.0" y2="168.76" stroke="#777" stroke-dasharray="4 4"/>
<polyline fill="none" stroke="#1f77b4" stroke-width="1.8" points="506.07,128.28 511.41,128.28 517.09,128.28 522.42,128.28 528.11,128.28 533.44,128.28 539.13,128.28 544.46,128.28 550.14,128.28 555.12,128.28 555.83,128.28 556.19,128.28 556.54,128.50 556.90,128.73 557.25,128.95 561.16,131.37 566.49,134.67 572.18,138.18 577.51,141.46 583.20,144.94 588.53,148.18 594.21,151.61 599.55,154.78 605.23,158.11 610.56,161.22 616.25,164.55 621.58,167.70 623.36,168.76 627.27,171.07 632.60,174.21 638.29,177.52 643.62,180.60 649.30,183.85 654.63,186.86 660.32,190.03 665.65,192.95 671.34,196.03 676.67,198.86 682.36,201.82 683.42,202.37 684.84,203.10 686.26,203.82 687.69,204.54 693.02,207.21 698.70,209.97 704.04,212.49 709.72,215.10 715.05,217.46 720.74,219.87 726.07,222.03 729.98,223.54 731.76,224.21 737.09,226.14 740.64,227.35 742.77,228.04 748.11,229.66 751.30,230.54 753.79,231.15 755.57,231.51 755.92,231.57 756.64,231.68 757.35,231.77 758.06,231.84 758.77,231.89 759.12,231.90 759.83,231.92 764.81,231.92 765.52,231.92 766.23,231.92 766.59,231.92 766.94,231.92 767.30,231.92 767.65,231.92 768.01,231.92 768.36,231.92 768.72,231.92 769.07,231.92 769.43,231.92 769.79,231.92 770.14,231.92 770.50,231.92 770.85,231.92 771.21,231.92 771.56,231.92 775.83,231.92 781.16,231.92 786.84,231.92 792.18,231.92 797.86,231.92 803.19,231.92 808.88,231.92 814.21,231.92 819.90,231.92 825.23,231.92 830.92,231.92 836.25,231.92 841.93,231.92 847.26,231.92 852.95,231.92 857.93,231.92"/>
<polyline fill="none" stroke="#ff7f0e" stroke-width="1.8" stroke-dasharray="5 4" points="506.07,135.88 511.41,135.88 517.09,135.88 522.42,135.88 528.11,135.88 533.44,135.88 539.13,135.88 544.46,135.88 550.14,135.88 555.12,135.88 555.83,136.25 556.19,136.42 556.54,136.60 556.90,136.78 557.25,136.96 561.16,138.91 566.49,141.57 572.18,144.39 577.51,147.02 583.20,149.81 588.53,152.40 594.21,155.13 599.55,157.66 605.23,160.33 610.56,162.80 616.25,165.43 621.58,167.92 623.36,168.76 627.27,170.58 632.60,173.04 638.29,175.63 643.62,178.02 649.30,180.54 654.63,182.85 660.32,185.28 665.65,187.50 671.34,189.82 676.67,191.94 682.36,194.14 683.42,194.54 684.84,195.08 686.26,195.61 687.69,196.13 693.02,198.05 698.70,200.01 704.04,201.76 709.72,203.52 715.05,205.06 720.74,206.56 726.07,207.81 729.98,208.64 731.76,208.98 737.09,209.89 740.64,210.37 742.77,210.58 748.11,210.69 751.30,210.69 753.79,210.69 755.57,210.69 755.92,210.69 756.64,210.69 757.35,210.69 758.06,210.69 758.77,210.69 759.12,210.69 759.83,210.69 764.81,210.69 765.52,210.69 766.23,210.69 766.59,210.69 766.94,210.69 767.30,210.69 767.65,210.69 768.01,210.69 768.36,210.69 768.72,210.69 769.07,210.69 769.43,210.69 769.79,210.69 770.14,210.69 770.50,210.69 770.85,210.69 771.21,210.69 771.56,210.69 775.83,210.69 781.16,210.69 786.84,210.69 792.18,210.69 797.86,210.69 803.19,210.69 808.88,210.69 814.21,210.69 819.90,210.69 825.23,210.69 830.92,210.69 836.25,210.69 841.93,210.69 847.26,210.69 852.95,210.69 857.93,210.69"/>
<polyline fill="none" stroke="#2ca02c" stroke-width="1.8" stroke-dasharray="2 4" points="506.07,119.66 511.41,119.66 517.09,119.66 522.42,119.66 528.11,119.66 533.44,119.66 539.13,119.66 544.46,119.66 550.14,119.66 555.12,119.66 555.83,119.66 556.19,119.66 556.54,119.66 556.90,119.66 557.25,119.91 561.16,122.86 566.49,126.86 572.18,131.14 577.51,135.15 583.20,139.41 588.53,143.38 594.21,147.59 599.55,151.49 605.23,155.59 610.56,159.42 616.25,163.51 621.58,167.43 623.36,168.76 627.27,171.66 632.60,175.54 638.29,179.66 643.62,183.50 649.30,187.56 654.63,191.33 660.32,195.30 665.65,198.98 671.34,202.84 676.67,206.41 682.36,210.16 683.42,210.85 684.84,211.77 686.26,212.69 687.69,213.61 693.02,216.99 698.70,220.52 704.04,223.75 709.72,227.12 715.05,230.18 720.74,233.36 726.07,236.23 729.98,238.28 731.76,239.19 737.09,241.86 740.64,243.58 742.77,244.58 748.11,247.00 751.30,248.39 753.79,249.44 755.57,250.16 755.92,250.30 756.64,250.58 757.35,250.86 758.06,251.14 758.77,251.41 759.12,251.55 759.83,251.82 764.81,253.57 765.52,253.79 766.23,254.00 766.59,254.10 766.94,254.19 767.30,254.28 767.65,254.36 768.01,254.43 768.36,254.50 768.72,254.57 769.07,254.62 769.43,254.67 769.79,254.71 770.14,254.75 770.50,254.78 770.85,254.80 771.21,254.81 771.56,254.82 775.83,254.82 781.16,254.82 786.84,254.82 792.18,254.82 797.86,254.82 803.19,254.82 808.88,254.82 814.21,254.82 819.90,254.82 825.23,254.82 830.92,254.82 836.25,254.82 841.93,254.82 847.26,254.82 852.95,254.82 857.93,254.82"/>
<polyline fill="none" stroke="#1f77b4" stroke-width="1.1" stroke-dasharray="6 4" points="492.00,322.43 496.81,319.46 501.62,316.49 506.43,313.51 511.24,310.54 516.05,307.57 520.86,304.59 525.67,301.62 530.48,298.65 535.29,295.67 540.10,292.70 544.91,289.73 549.72,286.76 554.53,283.78 559.34,280.81 564.15,277.84 568.96,274.86 573.77,271.89 578.58,268.92 583.39,265.95 588.20,262.97 593.01,260.00 597.82,257.03 602.63,254.05 607.44,251.08 612.25,248.11 617.06,245.13 621.87,242.16 626.68,239.19 631.49,236.22 636.30,233.24 641.11,230.27 645.92,227.30 650.73,224.32 655.54,221.35 660.35,218.38 665.16,215.41 669.97,212.43 674.78,209.46 679.59,206.49 684.41,203.51 689.22,200.54 694.03,197.57 698.84,194.59 703.65,191.62 708.46,188.65 713.27,185.68 718.08,182.70 722.89,179.73 727.70,176.76 732.51,173.78 737.32,170.81 742.13,167.84 746.94,164.87 751.75,161.89 756.56,158.92 761.37,155.95 766.18,152.97 770.99,150.00 775.80,147.03 780.61,144.05 785.42,141.08 790.23,138.11 795.04,135.14 799.85,132.16 804.66,129.19 809.47,126.22 814.28,123.24 819.09,120.27 823.90,117.30 828.71,114.33 833.52,111.35 838.33,108.38 843.14,105.41 847.95,102.43 852.76,99.46 857.57,96.49 862.38,93.51 867.19,90.54 872.00,87.57"/>
<circle cx="684.97" cy="203.16" r="4.6" fill="#ffffff" stroke="#1f77b4" stroke-width="2"/>
<text x="690.97" y="197.16" font-family="Arial, sans-serif" font-size="10" fill="#1f77b4">typ 55.3 ohm</text>
<polyline fill="none" stroke="#ff7f0e" stroke-width="1.1" stroke-dasharray="6 4" points="492.00,315.84 496.81,312.87 501.62,309.90 506.43,306.92 511.24,303.95 516.05,300.98 520.86,298.00 525.67,295.03 530.48,292.06 535.29,289.08 540.10,286.11 544.91,283.14 549.72,280.17 554.53,277.19 559.34,274.22 564.15,271.25 568.96,268.27 573.77,265.30 578.58,262.33 583.39,259.36 588.20,256.38 593.01,253.41 597.82,250.44 602.63,247.46 607.44,244.49 612.25,241.52 617.06,238.54 621.87,235.57 626.68,232.60 631.49,229.63 636.30,226.65 641.11,223.68 645.92,220.71 650.73,217.73 655.54,214.76 660.35,211.79 665.16,208.82 669.97,205.84 674.78,202.87 679.59,199.90 684.41,196.92 689.22,193.95 694.03,190.98 698.84,188.00 703.65,185.03 708.46,182.06 713.27,179.09 718.08,176.11 722.89,173.14 727.70,170.17 732.51,167.19 737.32,164.22 742.13,161.25 746.94,158.28 751.75,155.30 756.56,152.33 761.37,149.36 766.18,146.38 770.99,143.41 775.80,140.44 780.61,137.46 785.42,134.49 790.23,131.52 795.04,128.55 799.85,125.57 804.66,122.60 809.47,119.63 814.28,116.65 819.09,113.68 823.90,110.71 828.71,107.74 833.52,104.76 838.33,101.79 843.14,98.82 847.95,95.84 852.76,92.87 857.57,89.90 862.38,86.92 867.19,83.95 872.00,80.98"/>
<circle cx="686.44" cy="195.67" r="4.6" fill="#ffffff" stroke="#ff7f0e" stroke-width="2"/>
<text x="692.44" y="189.67" font-family="Arial, sans-serif" font-size="10" fill="#ff7f0e">min 72.4 ohm</text>
<polyline fill="none" stroke="#2ca02c" stroke-width="1.1" stroke-dasharray="6 4" points="492.00,329.02 496.81,326.05 501.62,323.08 506.43,320.10 511.24,317.13 516.05,314.16 520.86,311.18 525.67,308.21 530.48,305.24 535.29,302.26 540.10,299.29 544.91,296.32 549.72,293.35 554.53,290.37 559.34,287.40 564.15,284.43 568.96,281.45 573.77,278.48 578.58,275.51 583.39,272.54 588.20,269.56 593.01,266.59 597.82,263.62 602.63,260.64 607.44,257.67 612.25,254.70 617.06,251.72 621.87,248.75 626.68,245.78 631.49,242.81 636.30,239.83 641.11,236.86 645.92,233.89 650.73,230.91 655.54,227.94 660.35,224.97 665.16,222.00 669.97,219.02 674.78,216.05 679.59,213.08 684.41,210.10 689.22,207.13 694.03,204.16 698.84,201.18 703.65,198.21 708.46,195.24 713.27,192.27 718.08,189.29 722.89,186.32 727.70,183.35 732.51,180.37 737.32,177.40 742.13,174.43 746.94,171.46 751.75,168.48 756.56,165.51 761.37,162.54 766.18,159.56 770.99,156.59 775.80,153.62 780.61,150.64 785.42,147.67 790.23,144.70 795.04,141.73 799.85,138.75 804.66,135.78 809.47,132.81 814.28,129.83 819.09,126.86 823.90,123.89 828.71,120.92 833.52,117.94 838.33,114.97 843.14,112.00 847.95,109.02 852.76,106.05 857.57,103.08 862.38,100.10 867.19,97.13 872.00,94.16"/>
<circle cx="683.31" cy="210.78" r="4.6" fill="#ffffff" stroke="#2ca02c" stroke-width="2"/>
<text x="689.31" y="204.78" font-family="Arial, sans-serif" font-size="10" fill="#2ca02c">max 44.1 ohm</text>
<line x1="502.00" y1="80.00" x2="524.00" y2="80.00" stroke="#1f77b4" stroke-width="2"/>
<text x="530.00" y="84.00" font-family="Arial, sans-serif" font-size="11">typ</text>
<line x1="502.00" y1="97.00" x2="524.00" y2="97.00" stroke="#ff7f0e" stroke-width="2" stroke-dasharray="5 4"/>
<text x="530.00" y="101.00" font-family="Arial, sans-serif" font-size="11">min</text>
<line x1="502.00" y1="114.00" x2="524.00" y2="114.00" stroke="#2ca02c" stroke-width="2" stroke-dasharray="2 4"/>
<text x="530.00" y="118.00" font-family="Arial, sans-serif" font-size="11">max</text>
<text x="682.00" y="386.00" text-anchor="middle" font-family="Arial, sans-serif" font-size="11">Vcc-relative table voltage (V)</text>
<text transform="translate(442.00 205.00) rotate(-90)" text-anchor="middle" font-family="Arial, sans-serif" font-size="11">Current (mA)</text>
<rect x="72.00" y="418.00" width="800.00" height="144.00" fill="#ffffff" stroke="#c8c8c8"/>
<text x="82.00" y="436.00" font-family="Arial, sans-serif" font-size="12" font-weight="700">Operating-point summary</text>
<text x="82.00" y="454.00" font-family="Arial, sans-serif" font-size="10" font-weight="700" fill="#333">Table</text>
<text x="174.00" y="454.00" font-family="Arial, sans-serif" font-size="10" font-weight="700" fill="#333">Corner</text>
<text x="242.00" y="454.00" font-family="Arial, sans-serif" font-size="10" font-weight="700" fill="#333">Vout</text>
<text x="332.00" y="454.00" font-family="Arial, sans-serif" font-size="10" font-weight="700" fill="#333">Iop</text>
<text x="422.00" y="454.00" font-family="Arial, sans-serif" font-size="10" font-weight="700" fill="#333">Zout</text>
<text x="512.00" y="454.00" font-family="Arial, sans-serif" font-size="10" font-weight="700" fill="#333">Rseries</text>
<text x="82.00" y="473.00" font-family="Arial, sans-serif" font-size="10" fill="#1f77b4">pulldown</text>
<text x="174.00" y="473.00" font-family="Arial, sans-serif" font-size="10" fill="#1f77b4">typ</text>
<text x="242.00" y="473.00" font-family="Arial, sans-serif" font-size="10" fill="#1f77b4">1.777 V</text>
<text x="332.00" y="473.00" font-family="Arial, sans-serif" font-size="10" fill="#1f77b4">30 mA</text>
<text x="422.00" y="473.00" font-family="Arial, sans-serif" font-size="10" fill="#1f77b4">58.4 ohm</text>
<text x="512.00" y="473.00" font-family="Arial, sans-serif" font-size="10" fill="#1f77b4">-8.35 ohm</text>
<text x="82.00" y="492.00" font-family="Arial, sans-serif" font-size="10" fill="#ff7f0e">pulldown</text>
<text x="174.00" y="492.00" font-family="Arial, sans-serif" font-size="10" fill="#ff7f0e">min</text>
<text x="242.00" y="492.00" font-family="Arial, sans-serif" font-size="10" fill="#ff7f0e">1.833 V</text>
<text x="332.00" y="492.00" font-family="Arial, sans-serif" font-size="10" fill="#ff7f0e">23 mA</text>
<text x="422.00" y="492.00" font-family="Arial, sans-serif" font-size="10" fill="#ff7f0e">78.5 ohm</text>
<text x="512.00" y="492.00" font-family="Arial, sans-serif" font-size="10" fill="#ff7f0e">-28.5 ohm</text>
<text x="82.00" y="511.00" font-family="Arial, sans-serif" font-size="10" fill="#2ca02c">pulldown</text>
<text x="174.00" y="511.00" font-family="Arial, sans-serif" font-size="10" fill="#2ca02c">max</text>
<text x="242.00" y="511.00" font-family="Arial, sans-serif" font-size="10" fill="#2ca02c">1.746 V</text>
<text x="332.00" y="511.00" font-family="Arial, sans-serif" font-size="10" fill="#2ca02c">37 mA</text>
<text x="422.00" y="511.00" font-family="Arial, sans-serif" font-size="10" fill="#2ca02c">47.1 ohm</text>
<text x="512.00" y="511.00" font-family="Arial, sans-serif" font-size="10" fill="#2ca02c">2.896 ohm</text>
<text x="82.00" y="530.00" font-family="Arial, sans-serif" font-size="10" fill="#1f77b4">pullup</text>
<text x="174.00" y="530.00" font-family="Arial, sans-serif" font-size="10" fill="#1f77b4">typ</text>
<text x="242.00" y="530.00" font-family="Arial, sans-serif" font-size="10" fill="#1f77b4">1.566 V</text>
<text x="332.00" y="530.00" font-family="Arial, sans-serif" font-size="10" fill="#1f77b4">-31 mA</text>
<text x="422.00" y="530.00" font-family="Arial, sans-serif" font-size="10" fill="#1f77b4">55.3 ohm</text>
<text x="512.00" y="530.00" font-family="Arial, sans-serif" font-size="10" fill="#1f77b4">-5.334 ohm</text>
<text x="82.00" y="549.00" font-family="Arial, sans-serif" font-size="10" fill="#ff7f0e">pullup</text>
<text x="174.00" y="549.00" font-family="Arial, sans-serif" font-size="10" fill="#ff7f0e">min</text>
<text x="242.00" y="549.00" font-family="Arial, sans-serif" font-size="10" fill="#ff7f0e">1.225 V</text>
<text x="332.00" y="549.00" font-family="Arial, sans-serif" font-size="10" fill="#ff7f0e">-25 mA</text>
<text x="422.00" y="549.00" font-family="Arial, sans-serif" font-size="10" fill="#ff7f0e">72.4 ohm</text>
<text x="512.00" y="549.00" font-family="Arial, sans-serif" font-size="10" fill="#ff7f0e">-22.4 ohm</text>
<text x="82.00" y="568.00" font-family="Arial, sans-serif" font-size="10" fill="#2ca02c">pullup</text>
<text x="174.00" y="568.00" font-family="Arial, sans-serif" font-size="10" fill="#2ca02c">max</text>
<text x="242.00" y="568.00" font-family="Arial, sans-serif" font-size="10" fill="#2ca02c">1.913 V</text>
<text x="332.00" y="568.00" font-family="Arial, sans-serif" font-size="10" fill="#2ca02c">-38 mA</text>
<text x="422.00" y="568.00" font-family="Arial, sans-serif" font-size="10" fill="#2ca02c">44.1 ohm</text>
<text x="512.00" y="568.00" font-family="Arial, sans-serif" font-size="10" fill="#2ca02c">5.913 ohm</text>
</svg>