<svg xmlns="http://www.w3.org/2000/svg" width="900" height="620" viewBox="0 0 900 620">
<rect width="100%" height="100%" fill="#ffffff"/>
<text x="72" y="26" font-family="Arial, sans-serif" font-size="16" font-weight="700">E34_GPIO_I3C_I2C_SLV_1V8_11 Zout Load-Line Curves</text>
<text x="72" y="45" font-family="Arial, sans-serif" font-size="11" fill="#555">Rload=50 ohm; solid=device I-V, dashed=load line, circles=operating points</text>
<rect x="72.00" y="62.00" width="380.00" height="286.00" fill="#fbfbfb" stroke="#c8c8c8"/>
<text x="80.00" y="50.00" font-family="Arial, sans-serif" font-size="13" font-weight="700">[Pulldown] Rload to Vdd</text>
<line x1="72.00" y1="62.00" x2="72.00" y2="348.00" stroke="#ececec"/>
<text x="72.00" y="366.00" text-anchor="middle" font-family="Arial, sans-serif" font-size="10">-2</text>
<line x1="167.00" y1="62.00" x2="167.00" y2="348.00" stroke="#ececec"/>
<text x="167.00" y="366.00" text-anchor="middle" font-family="Arial, sans-serif" font-size="10">-0.558</text>
<line x1="262.00" y1="62.00" x2="262.00" y2="348.00" stroke="#ececec"/>
<text x="262.00" y="366.00" text-anchor="middle" font-family="Arial, sans-serif" font-size="10">0.9</text>
<line x1="357.00" y1="62.00" x2="357.00" y2="348.00" stroke="#ececec"/>
<text x="357.00" y="366.00" text-anchor="middle" font-family="Arial, sans-serif" font-size="10">2.4</text>
<line x1="452.00" y1="62.00" x2="452.00" y2="348.00" stroke="#ececec"/>
<text x="452.00" y="366.00" text-anchor="middle" font-family="Arial, sans-serif" font-size="10">3.8</text>
<line x1="72.00" y1="348.00" x2="452.00" y2="348.00" stroke="#ececec"/>
<text x="65.00" y="352.00" text-anchor="end" font-family="Arial, sans-serif" font-size="10">-1.7e+02</text>
<line x1="72.00" y1="276.50" x2="452.00" y2="276.50" stroke="#ececec"/>
<text x="65.00" y="280.50" text-anchor="end" font-family="Arial, sans-serif" font-size="10">-69</text>
<line x1="72.00" y1="205.00" x2="452.00" y2="205.00" stroke="#ececec"/>
<text x="65.00" y="209.00" text-anchor="end" font-family="Arial, sans-serif" font-size="10">28</text>
<line x1="72.00" y1="133.50" x2="452.00" y2="133.50" stroke="#ececec"/>
<text x="65.00" y="137.50" text-anchor="end" font-family="Arial, sans-serif" font-size="10">1.2e+02</text>
<line x1="72.00" y1="62.00" x2="452.00" y2="62.00" stroke="#ececec"/>
<text x="65.00" y="66.00" text-anchor="end" font-family="Arial, sans-serif" font-size="10">2.2e+02</text>
<line x1="203.36" y1="62" x2="203.36" y2="348" stroke="#777" stroke-dasharray="4 4"/>
<line x1="72.0" y1="225.44" x2="452.0" y2="225.44" stroke="#777" stroke-dasharray="4 4"/>
<polyline fill="none" stroke="#1f77b4" stroke-width="1.8" points="86.07,296.57 91.29,296.57 97.15,296.57 102.36,296.57 108.23,296.57 113.44,296.57 119.30,296.57 124.52,296.57 130.38,296.57 135.59,296.57 141.46,296.57 146.02,296.57 146.67,296.57 147.32,296.57 147.97,296.57 148.63,296.57 149.28,296.50 149.93,296.32 150.58,296.08 151.23,295.79 151.88,295.45 152.53,295.08 153.19,294.69 153.84,294.26 154.49,293.83 155.14,293.38 155.79,292.90 156.44,292.42 157.75,291.40 160.35,289.16 162.31,287.32 163.61,286.00 164.91,284.61 165.57,283.89 166.22,283.15 166.87,282.39 168.17,280.83 168.82,280.02 169.48,279.19 170.13,278.35 170.78,277.49 171.43,276.61 172.08,275.72 172.73,274.82 174.04,272.96 179.90,264.04 185.11,255.61 190.98,245.87 196.19,237.17 202.05,227.53 203.36,225.44 207.27,219.30 212.48,211.57 215.09,207.95 218.34,203.68 219.00,202.87 223.56,197.53 226.16,194.78 229.42,191.65 234.63,187.37 240.50,183.60 245.71,181.09 251.57,179.08 256.79,177.86 262.65,176.91 267.86,176.31 273.08,175.83 278.94,175.40 284.15,175.07 290.02,174.74 295.23,174.47 301.09,174.20 306.31,173.97 308.91,173.86 312.17,173.73 317.38,173.53 320.64,173.40 322.60,173.33 328.46,173.12 332.37,172.98 333.67,172.94 339.54,172.74 344.75,172.56 350.61,172.29 355.83,171.86 361.69,170.99 366.90,169.76 372.77,167.79 377.98,165.54 383.19,162.85 389.06,159.35 394.27,155.87 400.13,151.59 405.35,147.48 411.21,142.57 416.42,137.97 422.29,132.53 427.50,127.51 433.36,121.66 437.93,116.97"/>
<polyline fill="none" stroke="#ff7f0e" stroke-width="1.8" stroke-dasharray="5 4" points="86.07,272.03 91.29,272.03 97.15,272.03 102.36,272.03 108.23,272.03 113.44,272.03 119.30,272.03 124.52,272.03 130.38,272.03 135.59,272.03 141.46,272.03 146.02,272.03 146.67,272.03 147.32,272.03 147.97,272.03 148.63,272.03 149.28,272.03 149.93,272.03 150.58,272.03 151.23,272.03 151.88,272.03 152.53,272.03 153.19,271.97 153.84,271.84 154.49,271.64 155.14,271.40 155.79,271.11 156.44,270.79 157.75,270.08 160.35,268.43 162.31,267.05 163.61,266.07 164.91,265.05 165.57,264.52 166.22,263.99 166.87,263.44 168.17,262.31 168.82,261.73 169.48,261.14 170.13,260.54 170.78,259.94 171.43,259.32 172.08,258.69 172.73,258.06 174.04,256.77 179.90,250.62 185.11,244.89 190.98,238.41 196.19,232.79 202.05,226.73 203.36,225.44 207.27,221.67 212.48,217.00 215.09,214.82 218.34,212.26 219.00,211.77 223.56,208.57 226.16,206.93 229.42,205.06 234.63,202.50 240.50,200.26 245.71,198.81 251.57,197.68 256.79,197.01 262.65,196.49 267.86,196.14 273.08,195.86 278.94,195.60 284.15,195.39 290.02,195.18 295.23,195.01 301.09,194.83 306.31,194.69 308.91,194.62 312.17,194.53 317.38,194.40 320.64,194.32 322.60,194.27 328.46,194.12 332.37,194.00 333.67,193.96 339.54,193.66 344.75,193.22 350.61,192.44 355.83,191.44 361.69,189.96 366.90,188.33 372.77,186.13 377.98,183.89 383.19,181.38 389.06,178.25 394.27,175.21 400.13,171.53 405.35,168.04 411.21,163.87 416.42,160.00 422.29,155.60 427.50,151.70 433.36,147.31 437.93,143.89"/>
<polyline fill="none" stroke="#2ca02c" stroke-width="1.8" stroke-dasharray="2 4" points="86.07,320.32 91.29,320.32 97.15,320.32 102.36,320.32 108.23,320.32 113.44,320.32 119.30,320.32 124.52,320.32 130.38,320.32 135.59,320.32 141.46,320.32 146.02,320.32 146.67,320.21 147.32,320.00 147.97,319.72 148.63,319.40 149.28,319.05 149.93,318.67 150.58,318.27 151.23,317.86 151.88,317.43 152.53,316.98 153.19,316.52 153.84,316.05 154.49,315.56 155.14,315.05 155.79,314.53 156.44,313.99 157.75,312.85 160.35,310.35 162.31,308.24 163.61,306.72 164.91,305.09 165.57,304.24 166.22,303.36 166.87,302.46 168.17,300.56 168.82,299.57 169.48,298.56 170.13,297.52 170.78,296.45 171.43,295.35 172.08,294.23 172.73,293.09 174.04,290.73 179.90,279.15 185.11,267.92 190.98,254.61 196.19,242.38 202.05,228.50 203.36,225.44 207.27,216.41 212.48,204.94 215.09,199.55 218.34,193.19 219.00,191.97 223.56,184.02 226.16,179.93 229.42,175.29 234.63,168.93 240.50,163.26 245.71,159.41 251.57,156.22 256.79,154.20 262.65,152.61 267.86,151.60 273.08,150.83 278.94,150.14 284.15,149.64 290.02,149.15 295.23,148.77 301.09,148.37 306.31,148.04 308.91,147.88 312.17,147.69 317.38,147.39 320.64,147.22 322.60,147.11 328.46,146.81 332.37,146.62 333.67,146.55 339.54,146.27 344.75,146.02 350.61,145.76 355.83,145.52 361.69,145.20 366.90,144.70 372.77,143.62 377.98,141.97 383.19,139.58 389.06,136.09 394.27,132.40 400.13,127.74 405.35,123.24 411.21,117.82 416.42,112.74 422.29,106.76 427.50,101.24 433.36,94.82 437.93,89.68"/>
<polyline fill="none" stroke="#1f77b4" stroke-width="1.1" stroke-dasharray="6 4" points="72.00,169.17 76.81,170.26 81.62,171.35 86.43,172.44 91.24,173.53 96.05,174.61 100.86,175.70 105.67,176.79 110.48,177.88 115.29,178.97 120.10,180.06 124.91,181.14 129.72,182.23 134.53,183.32 139.34,184.41 144.15,185.50 148.96,186.59 153.77,187.68 158.58,188.76 163.39,189.85 168.20,190.94 173.01,192.03 177.82,193.12 182.63,194.21 187.44,195.29 192.25,196.38 197.06,197.47 201.87,198.56 206.68,199.65 211.49,200.74 216.30,201.83 221.11,202.91 225.92,204.00 230.73,205.09 235.54,206.18 240.35,207.27 245.16,208.36 249.97,209.44 254.78,210.53 259.59,211.62 264.41,212.71 269.22,213.80 274.03,214.89 278.84,215.98 283.65,217.06 288.46,218.15 293.27,219.24 298.08,220.33 302.89,221.42 307.70,222.51 312.51,223.59 317.32,224.68 322.13,225.77 326.94,226.86 331.75,227.95 336.56,229.04 341.37,230.13 346.18,231.21 350.99,232.30 355.80,233.39 360.61,234.48 365.42,235.57 370.23,236.66 375.04,237.74 379.85,238.83 384.66,239.92 389.47,241.01 394.28,242.10 399.09,243.19 403.90,244.28 408.71,245.36 413.52,246.45 418.33,247.54 423.14,248.63 427.95,249.72 432.76,250.81 437.57,251.89 442.38,252.98 447.19,254.07 452.00,255.16"/>
<circle cx="219.31" cy="202.50" r="4.6" fill="#ffffff" stroke="#1f77b4" stroke-width="2"/>
<text x="225.31" y="196.50" font-family="Arial, sans-serif" font-size="10" fill="#1f77b4">typ 7.868 ohm</text>
<polyline fill="none" stroke="#ff7f0e" stroke-width="1.1" stroke-dasharray="6 4" points="72.00,171.83 76.81,172.91 81.62,174.00 86.43,175.09 91.24,176.18 96.05,177.27 100.86,178.36 105.67,179.44 110.48,180.53 115.29,181.62 120.10,182.71 124.91,183.80 129.72,184.89 134.53,185.98 139.34,187.06 144.15,188.15 148.96,189.24 153.77,190.33 158.58,191.42 163.39,192.51 168.20,193.59 173.01,194.68 177.82,195.77 182.63,196.86 187.44,197.95 192.25,199.04 197.06,200.13 201.87,201.21 206.68,202.30 211.49,203.39 216.30,204.48 221.11,205.57 225.92,206.66 230.73,207.74 235.54,208.83 240.35,209.92 245.16,211.01 249.97,212.10 254.78,213.19 259.59,214.28 264.41,215.36 269.22,216.45 274.03,217.54 278.84,218.63 283.65,219.72 288.46,220.81 293.27,221.89 298.08,222.98 302.89,224.07 307.70,225.16 312.51,226.25 317.32,227.34 322.13,228.43 326.94,229.51 331.75,230.60 336.56,231.69 341.37,232.78 346.18,233.87 350.99,234.96 355.80,236.04 360.61,237.13 365.42,238.22 370.23,239.31 375.04,240.40 379.85,241.49 384.66,242.58 389.47,243.66 394.28,244.75 399.09,245.84 403.90,246.93 408.71,248.02 413.52,249.11 418.33,250.19 423.14,251.28 427.95,252.37 432.76,253.46 437.57,254.55 442.38,255.64 447.19,256.73 452.00,257.81"/>
<circle cx="226.43" cy="206.77" r="4.6" fill="#ffffff" stroke="#ff7f0e" stroke-width="2"/>
<text x="232.43" y="200.77" font-family="Arial, sans-serif" font-size="10" fill="#ff7f0e">min 14 ohm</text>
<polyline fill="none" stroke="#2ca02c" stroke-width="1.1" stroke-dasharray="6 4" points="72.00,166.52 76.81,167.61 81.62,168.69 86.43,169.78 91.24,170.87 96.05,171.96 100.86,173.05 105.67,174.14 110.48,175.23 115.29,176.31 120.10,177.40 124.91,178.49 129.72,179.58 134.53,180.67 139.34,181.76 144.15,182.84 148.96,183.93 153.77,185.02 158.58,186.11 163.39,187.20 168.20,188.29 173.01,189.38 177.82,190.46 182.63,191.55 187.44,192.64 192.25,193.73 197.06,194.82 201.87,195.91 206.68,196.99 211.49,198.08 216.30,199.17 221.11,200.26 225.92,201.35 230.73,202.44 235.54,203.53 240.35,204.61 245.16,205.70 249.97,206.79 254.78,207.88 259.59,208.97 264.41,210.06 269.22,211.14 274.03,212.23 278.84,213.32 283.65,214.41 288.46,215.50 293.27,216.59 298.08,217.68 302.89,218.76 307.70,219.85 312.51,220.94 317.32,222.03 322.13,223.12 326.94,224.21 331.75,225.29 336.56,226.38 341.37,227.47 346.18,228.56 350.99,229.65 355.80,230.74 360.61,231.83 365.42,232.91 370.23,234.00 375.04,235.09 379.85,236.18 384.66,237.27 389.47,238.36 394.28,239.44 399.09,240.53 403.90,241.62 408.71,242.71 413.52,243.80 418.33,244.89 423.14,245.98 427.95,247.06 432.76,248.15 437.57,249.24 442.38,250.33 447.19,251.42 452.00,252.51"/>
<circle cx="215.39" cy="198.96" r="4.6" fill="#ffffff" stroke="#2ca02c" stroke-width="2"/>
<text x="221.39" y="192.96" font-family="Arial, sans-serif" font-size="10" fill="#2ca02c">max 5.14 ohm</text>
<line x1="82.00" y1="80.00" x2="104.00" y2="80.00" stroke="#1f77b4" stroke-width="2"/>
<text x="110.00" y="84.00" font-family="Arial, sans-serif" font-size="11">typ</text>
<line x1="82.00" y1="97.00" x2="104.00" y2="97.00" stroke="#ff7f0e" stroke-width="2" stroke-dasharray="5 4"/>
<text x="110.00" y="101.00" font-family="Arial, sans-serif" font-size="11">min</text>
<line x1="82.00" y1="114.00" x2="104.00" y2="114.00" stroke="#2ca02c" stroke-width="2" stroke-dasharray="2 4"/>
<text x="110.00" y="118.00" font-family="Arial, sans-serif" font-size="11">max</text>
<text x="262.00" y="386.00" text-anchor="middle" font-family="Arial, sans-serif" font-size="11">Output voltage (V)</text>
<text transform="translate(22.00 205.00) rotate(-90)" text-anchor="middle" font-family="Arial, sans-serif" font-size="11">Current (mA)</text>
<rect x="492.00" y="62.00" width="380.00" height="286.00" fill="#fbfbfb" stroke="#c8c8c8"/>
<text x="500.00" y="50.00" font-family="Arial, sans-serif" font-size="13" font-weight="700">[Pullup] Rload to GND</text>
<line x1="492.00" y1="62.00" x2="492.00" y2="348.00" stroke="#ececec"/>
<text x="492.00" y="366.00" text-anchor="middle" font-family="Arial, sans-serif" font-size="10">-2</text>
<line x1="587.00" y1="62.00" x2="587.00" y2="348.00" stroke="#ececec"/>
<text x="587.00" y="366.00" text-anchor="middle" font-family="Arial, sans-serif" font-size="10">-0.558</text>
<line x1="682.00" y1="62.00" x2="682.00" y2="348.00" stroke="#ececec"/>
<text x="682.00" y="366.00" text-anchor="middle" font-family="Arial, sans-serif" font-size="10">0.9</text>
<line x1="777.00" y1="62.00" x2="777.00" y2="348.00" stroke="#ececec"/>
<text x="777.00" y="366.00" text-anchor="middle" font-family="Arial, sans-serif" font-size="10">2.4</text>
<line x1="872.00" y1="62.00" x2="872.00" y2="348.00" stroke="#ececec"/>
<text x="872.00" y="366.00" text-anchor="middle" font-family="Arial, sans-serif" font-size="10">3.8</text>
<line x1="492.00" y1="348.00" x2="872.00" y2="348.00" stroke="#ececec"/>
<text x="485.00" y="352.00" text-anchor="end" font-family="Arial, sans-serif" font-size="10">-1.3e+02</text>
<line x1="492.00" y1="276.50" x2="872.00" y2="276.50" stroke="#ececec"/>
<text x="485.00" y="280.50" text-anchor="end" font-family="Arial, sans-serif" font-size="10">-35</text>
<line x1="492.00" y1="205.00" x2="872.00" y2="205.00" stroke="#ececec"/>
<text x="485.00" y="209.00" text-anchor="end" font-family="Arial, sans-serif" font-size="10">65</text>
<line x1="492.00" y1="133.50" x2="872.00" y2="133.50" stroke="#ececec"/>
<text x="485.00" y="137.50" text-anchor="end" font-family="Arial, sans-serif" font-size="10">1.6e+02</text>
<line x1="492.00" y1="62.00" x2="872.00" y2="62.00" stroke="#ececec"/>
<text x="485.00" y="66.00" text-anchor="end" font-family="Arial, sans-serif" font-size="10">2.6e+02</text>
<line x1="623.36" y1="62" x2="623.36" y2="348" stroke="#777" stroke-dasharray="4 4"/>
<line x1="492.0" y1="251.55" x2="872.0" y2="251.55" stroke="#777" stroke-dasharray="4 4"/>
<polyline fill="none" stroke="#1f77b4" stroke-width="1.8" points="506.07,114.90 511.29,121.17 517.15,128.24 522.36,134.54 528.23,141.61 533.44,147.89 539.30,154.93 544.52,161.17 550.38,168.16 555.59,174.34 561.46,181.27 566.67,187.39 571.88,193.48 577.75,200.30 582.96,206.33 588.82,213.07 594.04,219.02 599.90,225.67 605.11,231.53 610.98,238.08 616.19,243.82 617.49,245.24 618.15,245.95 618.80,246.66 622.05,250.16 623.36,251.55 627.27,255.60 627.92,256.25 628.57,256.90 629.22,257.54 629.87,258.18 632.48,260.66 635.74,263.64 637.69,265.35 638.34,265.91 639.00,266.46 639.65,267.01 640.30,267.55 640.95,268.08 641.60,268.61 642.25,269.13 642.91,269.64 643.56,270.15 644.21,270.65 644.86,271.15 645.51,271.63 646.16,272.11 646.81,272.59 648.12,273.52 648.77,273.97 649.42,274.42 650.72,275.30 652.68,276.56 653.33,276.97 655.29,278.16 655.94,278.54 657.24,279.28 658.54,280.00 660.50,281.02 661.15,281.35 665.71,283.47 671.57,285.75 676.79,287.40 682.65,288.88 687.86,289.92 693.08,290.75 698.94,291.52 704.15,292.08 710.02,292.61 715.23,293.02 721.09,293.43 726.31,293.76 728.91,293.92 732.17,294.10 737.38,294.38 740.64,294.54 742.60,294.64 748.46,294.91 752.37,295.08 753.67,295.14 759.54,295.39 764.75,295.59 770.61,295.82 775.83,296.01 781.69,296.21 786.90,296.39 792.77,296.59 798.63,296.77 803.19,296.77 803.84,296.77 809.06,296.77 814.27,296.77 820.13,296.77 825.35,296.77 831.21,296.77 836.42,296.77 842.29,296.77 847.50,296.77 853.36,296.77 857.93,296.77"/>
<polyline fill="none" stroke="#ff7f0e" stroke-width="1.8" stroke-dasharray="5 4" points="506.07,146.53 511.29,151.89 517.15,157.92 522.36,163.29 528.23,169.26 533.44,174.52 539.30,180.35 544.52,185.47 550.38,191.13 555.59,196.09 561.46,201.56 566.67,206.33 571.88,211.01 577.75,216.17 582.96,220.64 588.82,225.54 594.04,229.78 599.90,234.41 605.11,238.41 610.98,242.78 616.19,246.55 617.49,247.47 618.15,247.93 618.80,248.39 622.05,250.66 623.36,251.55 627.27,254.14 627.92,254.55 628.57,254.96 629.22,255.37 629.87,255.77 632.48,257.33 635.74,259.18 637.69,260.24 638.34,260.58 639.00,260.93 639.65,261.26 640.30,261.59 640.95,261.92 641.60,262.24 642.25,262.56 642.91,262.88 643.56,263.19 644.21,263.49 644.86,263.79 645.51,264.09 646.16,264.38 646.81,264.67 648.12,265.23 648.77,265.50 649.42,265.77 650.72,266.30 652.68,267.05 653.33,267.29 655.29,267.99 655.94,268.21 657.24,268.64 658.54,269.05 660.50,269.63 661.15,269.82 665.71,270.98 671.57,272.17 676.79,272.98 682.65,273.66 687.86,274.14 693.08,274.52 698.94,274.88 704.15,275.15 710.02,275.42 715.23,275.63 721.09,275.85 726.31,276.03 728.91,276.11 732.17,276.21 737.38,276.36 740.64,276.46 742.60,276.51 748.46,276.66 752.37,276.76 753.67,276.80 759.54,276.94 764.75,277.06 770.61,277.19 775.83,277.30 781.69,277.42 786.90,277.42 792.77,277.42 798.63,277.42 803.19,277.42 803.84,277.42 809.06,277.42 814.27,277.42 820.13,277.42 825.35,277.42 831.21,277.42 836.42,277.42 842.29,277.42 847.50,277.42 853.36,277.42 857.93,277.42"/>
<polyline fill="none" stroke="#2ca02c" stroke-width="1.8" stroke-dasharray="2 4" points="506.07,89.68 511.29,96.22 517.15,103.66 522.36,110.34 528.23,117.91 533.44,124.69 539.30,132.36 544.52,139.21 550.38,146.95 555.59,153.86 561.46,161.68 566.67,168.69 571.88,175.75 577.75,183.78 582.96,191.00 588.82,199.26 594.04,206.73 599.90,215.33 605.11,223.16 610.98,232.16 616.19,240.26 617.49,242.25 618.15,243.25 618.80,244.28 622.05,249.49 623.36,251.55 627.27,257.59 627.92,258.57 628.57,259.54 629.22,260.49 629.87,261.42 632.48,265.04 635.74,269.42 637.69,271.94 638.34,272.76 639.00,273.57 639.65,274.37 640.30,275.17 640.95,275.95 641.60,276.72 642.25,277.48 642.91,278.23 643.56,278.97 644.21,279.70 644.86,280.42 645.51,281.14 646.16,281.84 646.81,282.53 648.12,283.88 648.77,284.54 649.42,285.19 650.72,286.47 652.68,288.31 653.33,288.90 655.29,290.62 655.94,291.18 657.24,292.26 658.54,293.31 660.50,294.82 661.15,295.30 665.71,298.45 671.57,301.93 676.79,304.54 682.65,306.98 687.86,308.75 693.08,310.20 698.94,311.53 704.15,312.48 710.02,313.38 715.23,314.05 721.09,314.71 726.31,315.23 728.91,315.46 732.17,315.75 737.38,316.17 740.64,316.41 742.60,316.56 748.46,316.96 752.37,317.22 753.67,317.30 759.54,317.66 764.75,317.96 770.61,318.28 775.83,318.56 781.69,318.85 786.90,319.11 792.77,319.38 798.63,319.65 803.19,319.86 803.84,319.88 809.06,320.10 814.27,320.32 820.13,320.32 825.35,320.32 831.21,320.32 836.42,320.32 842.29,320.32 847.50,320.32 853.36,320.32 857.93,320.32"/>
<polyline fill="none" stroke="#1f77b4" stroke-width="1.1" stroke-dasharray="6 4" points="492.00,306.57 496.81,305.51 501.62,304.44 506.43,303.38 511.24,302.31 516.05,301.25 520.86,300.18 525.67,299.12 530.48,298.06 535.29,296.99 540.10,295.93 544.91,294.86 549.72,293.80 554.53,292.73 559.34,291.67 564.15,290.61 568.96,289.54 573.77,288.48 578.58,287.41 583.39,286.35 588.20,285.28 593.01,284.22 597.82,283.16 602.63,282.09 607.44,281.03 612.25,279.96 617.06,278.90 621.87,277.83 626.68,276.77 631.49,275.71 636.30,274.64 641.11,273.58 645.92,272.51 650.73,271.45 655.54,270.38 660.35,269.32 665.16,268.26 669.97,267.19 674.78,266.13 679.59,265.06 684.41,264.00 689.22,262.93 694.03,261.87 698.84,260.80 703.65,259.74 708.46,258.68 713.27,257.61 718.08,256.55 722.89,255.48 727.70,254.42 732.51,253.35 737.32,252.29 742.13,251.23 746.94,250.16 751.75,249.10 756.56,248.03 761.37,246.97 766.18,245.90 770.99,244.84 775.80,243.78 780.61,242.71 785.42,241.65 790.23,240.58 795.04,239.52 799.85,238.45 804.66,237.39 809.47,236.33 814.28,235.26 819.09,234.20 823.90,233.13 828.71,232.07 833.52,231.00 838.33,229.94 843.14,228.88 847.95,227.81 852.76,226.75 857.57,225.68 862.38,224.62 867.19,223.55 872.00,222.49"/>
<circle cx="646.53" cy="272.38" r="4.6" fill="#ffffff" stroke="#1f77b4" stroke-width="2"/>
<text x="652.53" y="266.38" font-family="Arial, sans-serif" font-size="10" fill="#1f77b4">typ 12.3 ohm</text>
<polyline fill="none" stroke="#ff7f0e" stroke-width="1.1" stroke-dasharray="6 4" points="492.00,303.98 496.81,302.91 501.62,301.85 506.43,300.78 511.24,299.72 516.05,298.65 520.86,297.59 525.67,296.53 530.48,295.46 535.29,294.40 540.10,293.33 544.91,292.27 549.72,291.20 554.53,290.14 559.34,289.08 564.15,288.01 568.96,286.95 573.77,285.88 578.58,284.82 583.39,283.75 588.20,282.69 593.01,281.62 597.82,280.56 602.63,279.50 607.44,278.43 612.25,277.37 617.06,276.30 621.87,275.24 626.68,274.17 631.49,273.11 636.30,272.05 641.11,270.98 645.92,269.92 650.73,268.85 655.54,267.79 660.35,266.72 665.16,265.66 669.97,264.60 674.78,263.53 679.59,262.47 684.41,261.40 689.22,260.34 694.03,259.27 698.84,258.21 703.65,257.15 708.46,256.08 713.27,255.02 718.08,253.95 722.89,252.89 727.70,251.82 732.51,250.76 737.32,249.70 742.13,248.63 746.94,247.57 751.75,246.50 756.56,245.44 761.37,244.37 766.18,243.31 770.99,242.24 775.80,241.18 780.61,240.12 785.42,239.05 790.23,237.99 795.04,236.92 799.85,235.86 804.66,234.79 809.47,233.73 814.28,232.67 819.09,231.60 823.90,230.54 828.71,229.47 833.52,228.41 838.33,227.34 843.14,226.28 847.95,225.22 852.76,224.15 857.57,223.09 862.38,222.02 867.19,220.96 872.00,219.89"/>
<circle cx="655.04" cy="267.90" r="4.6" fill="#ffffff" stroke="#ff7f0e" stroke-width="2"/>
<text x="661.04" y="261.90" font-family="Arial, sans-serif" font-size="10" fill="#ff7f0e">min 21.4 ohm</text>
<polyline fill="none" stroke="#2ca02c" stroke-width="1.1" stroke-dasharray="6 4" points="492.00,309.17 496.81,308.10 501.62,307.04 506.43,305.97 511.24,304.91 516.05,303.84 520.86,302.78 525.67,301.72 530.48,300.65 535.29,299.59 540.10,298.52 544.91,297.46 549.72,296.39 554.53,295.33 559.34,294.27 564.15,293.20 568.96,292.14 573.77,291.07 578.58,290.01 583.39,288.94 588.20,287.88 593.01,286.82 597.82,285.75 602.63,284.69 607.44,283.62 612.25,282.56 617.06,281.49 621.87,280.43 626.68,279.36 631.49,278.30 636.30,277.24 641.11,276.17 645.92,275.11 650.73,274.04 655.54,272.98 660.35,271.91 665.16,270.85 669.97,269.79 674.78,268.72 679.59,267.66 684.41,266.59 689.22,265.53 694.03,264.46 698.84,263.40 703.65,262.34 708.46,261.27 713.27,260.21 718.08,259.14 722.89,258.08 727.70,257.01 732.51,255.95 737.32,254.89 742.13,253.82 746.94,252.76 751.75,251.69 756.56,250.63 761.37,249.56 766.18,248.50 770.99,247.44 775.80,246.37 780.61,245.31 785.42,244.24 790.23,243.18 795.04,242.11 799.85,241.05 804.66,239.98 809.47,238.92 814.28,237.86 819.09,236.79 823.90,235.73 828.71,234.66 833.52,233.60 838.33,232.53 843.14,231.47 847.95,230.41 852.76,229.34 857.57,228.28 862.38,227.21 867.19,226.15 872.00,225.08"/>
<circle cx="641.14" cy="276.17" r="4.6" fill="#ffffff" stroke="#2ca02c" stroke-width="2"/>
<text x="647.14" y="270.17" font-family="Arial, sans-serif" font-size="10" fill="#2ca02c">max 7.991 ohm</text>
<line x1="502.00" y1="80.00" x2="524.00" y2="80.00" stroke="#1f77b4" stroke-width="2"/>
<text x="530.00" y="84.00" font-family="Arial, sans-serif" font-size="11">typ</text>
<line x1="502.00" y1="97.00" x2="524.00" y2="97.00" stroke="#ff7f0e" stroke-width="2" stroke-dasharray="5 4"/>
<text x="530.00" y="101.00" font-family="Arial, sans-serif" font-size="11">min</text>
<line x1="502.00" y1="114.00" x2="524.00" y2="114.00" stroke="#2ca02c" stroke-width="2" stroke-dasharray="2 4"/>
<text x="530.00" y="118.00" font-family="Arial, sans-serif" font-size="11">max</text>
<text x="682.00" y="386.00" text-anchor="middle" font-family="Arial, sans-serif" font-size="11">Vcc-relative table voltage (V)</text>
<text transform="translate(442.00 205.00) rotate(-90)" text-anchor="middle" font-family="Arial, sans-serif" font-size="11">Current (mA)</text>
<rect x="72.00" y="418.00" width="800.00" height="144.00" fill="#ffffff" stroke="#c8c8c8"/>
<text x="82.00" y="436.00" font-family="Arial, sans-serif" font-size="12" font-weight="700">Operating-point summary</text>
<text x="82.00" y="454.00" font-family="Arial, sans-serif" font-size="10" font-weight="700" fill="#333">Table</text>
<text x="174.00" y="454.00" font-family="Arial, sans-serif" font-size="10" font-weight="700" fill="#333">Corner</text>
<text x="242.00" y="454.00" font-family="Arial, sans-serif" font-size="10" font-weight="700" fill="#333">Vout</text>
<text x="332.00" y="454.00" font-family="Arial, sans-serif" font-size="10" font-weight="700" fill="#333">Iop</text>
<text x="422.00" y="454.00" font-family="Arial, sans-serif" font-size="10" font-weight="700" fill="#333">Zout</text>
<text x="512.00" y="454.00" font-family="Arial, sans-serif" font-size="10" font-weight="700" fill="#333">Rseries</text>
<text x="82.00" y="473.00" font-family="Arial, sans-serif" font-size="10" fill="#1f77b4">pulldown</text>
<text x="174.00" y="473.00" font-family="Arial, sans-serif" font-size="10" fill="#1f77b4">typ</text>
<text x="242.00" y="473.00" font-family="Arial, sans-serif" font-size="10" fill="#1f77b4">0.2447 V</text>
<text x="332.00" y="473.00" font-family="Arial, sans-serif" font-size="10" fill="#1f77b4">31 mA</text>
<text x="422.00" y="473.00" font-family="Arial, sans-serif" font-size="10" fill="#1f77b4">7.868 ohm</text>
<text x="512.00" y="473.00" font-family="Arial, sans-serif" font-size="10" fill="#1f77b4">42.1 ohm</text>
<text x="82.00" y="492.00" font-family="Arial, sans-serif" font-size="10" fill="#ff7f0e">pulldown</text>
<text x="174.00" y="492.00" font-family="Arial, sans-serif" font-size="10" fill="#ff7f0e">min</text>
<text x="242.00" y="492.00" font-family="Arial, sans-serif" font-size="10" fill="#ff7f0e">0.3542 V</text>
<text x="332.00" y="492.00" font-family="Arial, sans-serif" font-size="10" fill="#ff7f0e">25 mA</text>
<text x="422.00" y="492.00" font-family="Arial, sans-serif" font-size="10" fill="#ff7f0e">14 ohm</text>
<text x="512.00" y="492.00" font-family="Arial, sans-serif" font-size="10" fill="#ff7f0e">36 ohm</text>
<text x="82.00" y="511.00" font-family="Arial, sans-serif" font-size="10" fill="#2ca02c">pulldown</text>
<text x="174.00" y="511.00" font-family="Arial, sans-serif" font-size="10" fill="#2ca02c">max</text>
<text x="242.00" y="511.00" font-family="Arial, sans-serif" font-size="10" fill="#2ca02c">0.1846 V</text>
<text x="332.00" y="511.00" font-family="Arial, sans-serif" font-size="10" fill="#2ca02c">36 mA</text>
<text x="422.00" y="511.00" font-family="Arial, sans-serif" font-size="10" fill="#2ca02c">5.14 ohm</text>
<text x="512.00" y="511.00" font-family="Arial, sans-serif" font-size="10" fill="#2ca02c">44.9 ohm</text>
<text x="82.00" y="530.00" font-family="Arial, sans-serif" font-size="10" fill="#1f77b4">pullup</text>
<text x="174.00" y="530.00" font-family="Arial, sans-serif" font-size="10" fill="#1f77b4">typ</text>
<text x="242.00" y="530.00" font-family="Arial, sans-serif" font-size="10" fill="#1f77b4">1.444 V</text>
<text x="332.00" y="530.00" font-family="Arial, sans-serif" font-size="10" fill="#1f77b4">-29 mA</text>
<text x="422.00" y="530.00" font-family="Arial, sans-serif" font-size="10" fill="#1f77b4">12.3 ohm</text>
<text x="512.00" y="530.00" font-family="Arial, sans-serif" font-size="10" fill="#1f77b4">37.7 ohm</text>
<text x="82.00" y="549.00" font-family="Arial, sans-serif" font-size="10" fill="#ff7f0e">pullup</text>
<text x="174.00" y="549.00" font-family="Arial, sans-serif" font-size="10" fill="#ff7f0e">min</text>
<text x="242.00" y="549.00" font-family="Arial, sans-serif" font-size="10" fill="#ff7f0e">1.134 V</text>
<text x="332.00" y="549.00" font-family="Arial, sans-serif" font-size="10" fill="#ff7f0e">-23 mA</text>
<text x="422.00" y="549.00" font-family="Arial, sans-serif" font-size="10" fill="#ff7f0e">21.4 ohm</text>
<text x="512.00" y="549.00" font-family="Arial, sans-serif" font-size="10" fill="#ff7f0e">28.6 ohm</text>
<text x="82.00" y="568.00" font-family="Arial, sans-serif" font-size="10" fill="#2ca02c">pullup</text>
<text x="174.00" y="568.00" font-family="Arial, sans-serif" font-size="10" fill="#2ca02c">max</text>
<text x="242.00" y="568.00" font-family="Arial, sans-serif" font-size="10" fill="#2ca02c">1.707 V</text>
<text x="332.00" y="568.00" font-family="Arial, sans-serif" font-size="10" fill="#2ca02c">-34 mA</text>
<text x="422.00" y="568.00" font-family="Arial, sans-serif" font-size="10" fill="#2ca02c">7.991 ohm</text>
<text x="512.00" y="568.00" font-family="Arial, sans-serif" font-size="10" fill="#2ca02c">42 ohm</text>
</svg>