<svg xmlns="http://www.w3.org/2000/svg" width="900" height="620" viewBox="0 0 900 620">
<rect width="100%" height="100%" fill="#ffffff"/>
<text x="72" y="26" font-family="Arial, sans-serif" font-size="16" font-weight="700">nfc_ioc15_swp_master_400_typ Zout Load-Line Curves</text>
<text x="72" y="45" font-family="Arial, sans-serif" font-size="11" fill="#555">Rload=50 ohm; solid=device I-V, dashed=load line, circles=operating points</text>
<rect x="72.00" y="62.00" width="380.00" height="286.00" fill="#fbfbfb" stroke="#c8c8c8"/>
<text x="80.00" y="50.00" font-family="Arial, sans-serif" font-size="13" font-weight="700">[Pulldown] Rload to Vdd</text>
<line x1="72.00" y1="62.00" x2="72.00" y2="348.00" stroke="#ececec"/>
<text x="72.00" y="366.00" text-anchor="middle" font-family="Arial, sans-serif" font-size="10">-2</text>
<line x1="167.00" y1="62.00" x2="167.00" y2="348.00" stroke="#ececec"/>
<text x="167.00" y="366.00" text-anchor="middle" font-family="Arial, sans-serif" font-size="10">-0.558</text>
<line x1="262.00" y1="62.00" x2="262.00" y2="348.00" stroke="#ececec"/>
<text x="262.00" y="366.00" text-anchor="middle" font-family="Arial, sans-serif" font-size="10">0.9</text>
<line x1="357.00" y1="62.00" x2="357.00" y2="348.00" stroke="#ececec"/>
<text x="357.00" y="366.00" text-anchor="middle" font-family="Arial, sans-serif" font-size="10">2.4</text>
<line x1="452.00" y1="62.00" x2="452.00" y2="348.00" stroke="#ececec"/>
<text x="452.00" y="366.00" text-anchor="middle" font-family="Arial, sans-serif" font-size="10">3.8</text>
<line x1="72.00" y1="348.00" x2="452.00" y2="348.00" stroke="#ececec"/>
<text x="65.00" y="352.00" text-anchor="end" font-family="Arial, sans-serif" font-size="10">-3e+02</text>
<line x1="72.00" y1="276.50" x2="452.00" y2="276.50" stroke="#ececec"/>
<text x="65.00" y="280.50" text-anchor="end" font-family="Arial, sans-serif" font-size="10">-1.5e+02</text>
<line x1="72.00" y1="205.00" x2="452.00" y2="205.00" stroke="#ececec"/>
<text x="65.00" y="209.00" text-anchor="end" font-family="Arial, sans-serif" font-size="10">-3.5</text>
<line x1="72.00" y1="133.50" x2="452.00" y2="133.50" stroke="#ececec"/>
<text x="65.00" y="137.50" text-anchor="end" font-family="Arial, sans-serif" font-size="10">1.5e+02</text>
<line x1="72.00" y1="62.00" x2="452.00" y2="62.00" stroke="#ececec"/>
<text x="65.00" y="66.00" text-anchor="end" font-family="Arial, sans-serif" font-size="10">3e+02</text>
<line x1="203.36" y1="62" x2="203.36" y2="348" stroke="#777" stroke-dasharray="4 4"/>
<line x1="72.0" y1="203.31" x2="452.0" y2="203.31" stroke="#777" stroke-dasharray="4 4"/>
<polyline fill="none" stroke="#1f77b4" stroke-width="1.8" points="86.07,320.32 91.29,312.19 97.15,303.03 102.36,294.89 108.23,285.74 113.44,277.60 119.30,268.45 124.52,260.31 130.38,251.16 135.59,243.02 141.46,233.86 146.67,225.73 151.88,217.59 154.49,213.52 155.14,212.55 155.79,211.85 156.44,211.33 157.10,210.94 157.75,210.64 158.40,210.39 159.05,210.19 159.70,210.01 160.35,209.84 161.01,209.69 161.66,209.55 162.96,209.29 168.82,208.21 174.04,207.32 179.90,206.38 185.11,205.60 190.98,204.78 196.19,204.12 202.05,203.45 203.36,203.31 207.27,202.91 212.48,202.44 218.34,201.98 222.25,201.72 223.56,201.64 224.86,201.56 228.12,201.39 229.42,201.33 234.63,201.11 240.50,200.94 245.71,200.84 251.57,200.78 256.79,200.75 262.65,200.73 267.86,200.71 273.08,200.70 278.94,200.69 284.15,200.68 290.02,200.67 295.23,200.66 301.09,200.65 306.31,200.64 308.91,200.64 312.17,200.64 317.38,200.63 320.64,200.62 322.60,200.62 328.46,200.62 332.37,200.61 333.67,200.61 339.54,200.60 344.75,200.58 350.61,200.44 355.83,200.04 358.43,199.73 359.09,199.64 359.74,199.54 360.39,199.44 361.04,199.33 361.69,199.21 362.34,199.09 362.99,198.96 363.65,198.82 364.30,198.67 364.95,198.50 365.60,198.32 366.25,198.11 366.90,197.88 367.56,197.59 368.21,197.25 368.86,196.81 369.51,196.23 370.16,195.46 372.77,191.39 377.98,183.26 383.19,175.12 389.06,165.96 394.27,157.83 400.13,148.67 405.35,140.54 411.21,131.38 416.42,123.24 422.29,114.09 427.50,105.95 433.36,96.80 437.93,89.68"/>
<polyline fill="none" stroke="#ff7f0e" stroke-width="1.8" stroke-dasharray="5 4" points="86.07,320.32 91.29,312.19 97.15,303.03 102.36,294.89 108.23,285.74 113.44,277.60 119.30,268.45 124.52,260.31 130.38,251.16 135.59,243.02 141.46,233.86 146.67,225.73 151.88,217.59 154.49,213.52 155.14,212.55 155.79,211.85 156.44,211.33 157.10,210.94 157.75,210.64 158.40,210.39 159.05,210.19 159.70,210.01 160.35,209.84 161.01,209.69 161.66,209.55 162.96,209.29 168.82,208.21 174.04,207.32 179.90,206.38 185.11,205.60 190.98,204.78 196.19,204.12 202.05,203.45 203.36,203.31 207.27,202.91 212.48,202.44 218.34,201.98 222.25,201.72 223.56,201.64 224.86,201.56 228.12,201.39 229.42,201.33 234.63,201.11 240.50,200.94 245.71,200.84 251.57,200.78 256.79,200.75 262.65,200.73 267.86,200.71 273.08,200.70 278.94,200.69 284.15,200.68 290.02,200.67 295.23,200.66 301.09,200.65 306.31,200.64 308.91,200.64 312.17,200.64 317.38,200.63 320.64,200.62 322.60,200.62 328.46,200.62 332.37,200.61 333.67,200.61 339.54,200.60 344.75,200.58 350.61,200.44 355.83,200.04 358.43,199.73 359.09,199.64 359.74,199.54 360.39,199.44 361.04,199.33 361.69,199.21 362.34,199.09 362.99,198.96 363.65,198.82 364.30,198.67 364.95,198.50 365.60,198.32 366.25,198.11 366.90,197.88 367.56,197.59 368.21,197.25 368.86,196.81 369.51,196.23 370.16,195.46 372.77,191.39 377.98,183.26 383.19,175.12 389.06,165.96 394.27,157.83 400.13,148.67 405.35,140.54 411.21,131.38 416.42,123.24 422.29,114.09 427.50,105.95 433.36,96.80 437.93,89.68"/>
<polyline fill="none" stroke="#2ca02c" stroke-width="1.8" stroke-dasharray="2 4" points="86.07,320.32 91.29,312.19 97.15,303.03 102.36,294.89 108.23,285.74 113.44,277.60 119.30,268.45 124.52,260.31 130.38,251.16 135.59,243.02 141.46,233.86 146.67,225.73 151.88,217.59 154.49,213.52 155.14,212.55 155.79,211.85 156.44,211.33 157.10,210.94 157.75,210.64 158.40,210.39 159.05,210.19 159.70,210.01 160.35,209.84 161.01,209.69 161.66,209.55 162.96,209.29 168.82,208.21 174.04,207.32 179.90,206.38 185.11,205.60 190.98,204.78 196.19,204.12 202.05,203.45 203.36,203.31 207.27,202.91 212.48,202.44 218.34,201.98 222.25,201.72 223.56,201.64 224.86,201.56 228.12,201.39 229.42,201.33 234.63,201.11 240.50,200.94 245.71,200.84 251.57,200.78 256.79,200.75 262.65,200.73 267.86,200.71 273.08,200.70 278.94,200.69 284.15,200.68 290.02,200.67 295.23,200.66 301.09,200.65 306.31,200.64 308.91,200.64 312.17,200.64 317.38,200.63 320.64,200.62 322.60,200.62 328.46,200.62 332.37,200.61 333.67,200.61 339.54,200.60 344.75,200.58 350.61,200.44 355.83,200.04 358.43,199.73 359.09,199.64 359.74,199.54 360.39,199.44 361.04,199.33 361.69,199.21 362.34,199.09 362.99,198.96 363.65,198.82 364.30,198.67 364.95,198.50 365.60,198.32 366.25,198.11 366.90,197.88 367.56,197.59 368.21,197.25 368.86,196.81 369.51,196.23 370.16,195.46 372.77,191.39 377.98,183.26 383.19,175.12 389.06,165.96 394.27,157.83 400.13,148.67 405.35,140.54 411.21,131.38 416.42,123.24 422.29,114.09 427.50,105.95 433.36,96.80 437.93,89.68"/>
<polyline fill="none" stroke="#1f77b4" stroke-width="1.1" stroke-dasharray="6 4" points="72.00,166.78 76.81,167.48 81.62,168.19 86.43,168.90 91.24,169.60 96.05,170.31 100.86,171.02 105.67,171.72 110.48,172.43 115.29,173.14 120.10,173.84 124.91,174.55 129.72,175.26 134.53,175.96 139.34,176.67 144.15,177.38 148.96,178.08 153.77,178.79 158.58,179.50 163.39,180.20 168.20,180.91 173.01,181.62 177.82,182.32 182.63,183.03 187.44,183.74 192.25,184.44 197.06,185.15 201.87,185.86 206.68,186.57 211.49,187.27 216.30,187.98 221.11,188.69 225.92,189.39 230.73,190.10 235.54,190.81 240.35,191.51 245.16,192.22 249.97,192.93 254.78,193.63 259.59,194.34 264.41,195.05 269.22,195.75 274.03,196.46 278.84,197.17 283.65,197.87 288.46,198.58 293.27,199.29 298.08,199.99 302.89,200.70 307.70,201.41 312.51,202.11 317.32,202.82 322.13,203.53 326.94,204.23 331.75,204.94 336.56,205.65 341.37,206.35 346.18,207.06 350.99,207.77 355.80,208.47 360.61,209.18 365.42,209.89 370.23,210.59 375.04,211.30 379.85,212.01 384.66,212.71 389.47,213.42 394.28,214.13 399.09,214.83 403.90,215.54 408.71,216.25 413.52,216.95 418.33,217.66 423.14,218.37 427.95,219.07 432.76,219.78 437.57,220.49 442.38,221.19 447.19,221.90 452.00,222.61"/>
<circle cx="302.54" cy="200.65" r="4.6" fill="#ffffff" stroke="#1f77b4" stroke-width="2"/>
<text x="308.54" y="194.65" font-family="Arial, sans-serif" font-size="10" fill="#1f77b4">typ 274 ohm</text>
<polyline fill="none" stroke="#ff7f0e" stroke-width="1.1" stroke-dasharray="6 4" points="72.00,166.78 76.81,167.48 81.62,168.19 86.43,168.90 91.24,169.60 96.05,170.31 100.86,171.02 105.67,171.72 110.48,172.43 115.29,173.14 120.10,173.84 124.91,174.55 129.72,175.26 134.53,175.96 139.34,176.67 144.15,177.38 148.96,178.08 153.77,178.79 158.58,179.50 163.39,180.20 168.20,180.91 173.01,181.62 177.82,182.32 182.63,183.03 187.44,183.74 192.25,184.44 197.06,185.15 201.87,185.86 206.68,186.57 211.49,187.27 216.30,187.98 221.11,188.69 225.92,189.39 230.73,190.10 235.54,190.81 240.35,191.51 245.16,192.22 249.97,192.93 254.78,193.63 259.59,194.34 264.41,195.05 269.22,195.75 274.03,196.46 278.84,197.17 283.65,197.87 288.46,198.58 293.27,199.29 298.08,199.99 302.89,200.70 307.70,201.41 312.51,202.11 317.32,202.82 322.13,203.53 326.94,204.23 331.75,204.94 336.56,205.65 341.37,206.35 346.18,207.06 350.99,207.77 355.80,208.47 360.61,209.18 365.42,209.89 370.23,210.59 375.04,211.30 379.85,212.01 384.66,212.71 389.47,213.42 394.28,214.13 399.09,214.83 403.90,215.54 408.71,216.25 413.52,216.95 418.33,217.66 423.14,218.37 427.95,219.07 432.76,219.78 437.57,220.49 442.38,221.19 447.19,221.90 452.00,222.61"/>
<circle cx="302.54" cy="200.65" r="4.6" fill="#ffffff" stroke="#ff7f0e" stroke-width="2"/>
<text x="308.54" y="194.65" font-family="Arial, sans-serif" font-size="10" fill="#ff7f0e">min 274 ohm</text>
<polyline fill="none" stroke="#2ca02c" stroke-width="1.1" stroke-dasharray="6 4" points="72.00,166.78 76.81,167.48 81.62,168.19 86.43,168.90 91.24,169.60 96.05,170.31 100.86,171.02 105.67,171.72 110.48,172.43 115.29,173.14 120.10,173.84 124.91,174.55 129.72,175.26 134.53,175.96 139.34,176.67 144.15,177.38 148.96,178.08 153.77,178.79 158.58,179.50 163.39,180.20 168.20,180.91 173.01,181.62 177.82,182.32 182.63,183.03 187.44,183.74 192.25,184.44 197.06,185.15 201.87,185.86 206.68,186.57 211.49,187.27 216.30,187.98 221.11,188.69 225.92,189.39 230.73,190.10 235.54,190.81 240.35,191.51 245.16,192.22 249.97,192.93 254.78,193.63 259.59,194.34 264.41,195.05 269.22,195.75 274.03,196.46 278.84,197.17 283.65,197.87 288.46,198.58 293.27,199.29 298.08,199.99 302.89,200.70 307.70,201.41 312.51,202.11 317.32,202.82 322.13,203.53 326.94,204.23 331.75,204.94 336.56,205.65 341.37,206.35 346.18,207.06 350.99,207.77 355.80,208.47 360.61,209.18 365.42,209.89 370.23,210.59 375.04,211.30 379.85,212.01 384.66,212.71 389.47,213.42 394.28,214.13 399.09,214.83 403.90,215.54 408.71,216.25 413.52,216.95 418.33,217.66 423.14,218.37 427.95,219.07 432.76,219.78 437.57,220.49 442.38,221.19 447.19,221.90 452.00,222.61"/>
<circle cx="302.54" cy="200.65" r="4.6" fill="#ffffff" stroke="#2ca02c" stroke-width="2"/>
<text x="308.54" y="194.65" font-family="Arial, sans-serif" font-size="10" fill="#2ca02c">max 274 ohm</text>
<line x1="82.00" y1="80.00" x2="104.00" y2="80.00" stroke="#1f77b4" stroke-width="2"/>
<text x="110.00" y="84.00" font-family="Arial, sans-serif" font-size="11">typ</text>
<line x1="82.00" y1="97.00" x2="104.00" y2="97.00" stroke="#ff7f0e" stroke-width="2" stroke-dasharray="5 4"/>
<text x="110.00" y="101.00" font-family="Arial, sans-serif" font-size="11">min</text>
<line x1="82.00" y1="114.00" x2="104.00" y2="114.00" stroke="#2ca02c" stroke-width="2" stroke-dasharray="2 4"/>
<text x="110.00" y="118.00" font-family="Arial, sans-serif" font-size="11">max</text>
<text x="262.00" y="386.00" text-anchor="middle" font-family="Arial, sans-serif" font-size="11">Output voltage (V)</text>
<text transform="translate(22.00 205.00) rotate(-90)" text-anchor="middle" font-family="Arial, sans-serif" font-size="11">Current (mA)</text>
<rect x="492.00" y="62.00" width="380.00" height="286.00" fill="#fbfbfb" stroke="#c8c8c8"/>
<text x="500.00" y="50.00" font-family="Arial, sans-serif" font-size="13" font-weight="700">[Pullup] Rload to GND</text>
<line x1="492.00" y1="62.00" x2="492.00" y2="348.00" stroke="#ececec"/>
<text x="492.00" y="366.00" text-anchor="middle" font-family="Arial, sans-serif" font-size="10">-2</text>
<line x1="587.00" y1="62.00" x2="587.00" y2="348.00" stroke="#ececec"/>
<text x="587.00" y="366.00" text-anchor="middle" font-family="Arial, sans-serif" font-size="10">-0.558</text>
<line x1="682.00" y1="62.00" x2="682.00" y2="348.00" stroke="#ececec"/>
<text x="682.00" y="366.00" text-anchor="middle" font-family="Arial, sans-serif" font-size="10">0.9</text>
<line x1="777.00" y1="62.00" x2="777.00" y2="348.00" stroke="#ececec"/>
<text x="777.00" y="366.00" text-anchor="middle" font-family="Arial, sans-serif" font-size="10">2.4</text>
<line x1="872.00" y1="62.00" x2="872.00" y2="348.00" stroke="#ececec"/>
<text x="872.00" y="366.00" text-anchor="middle" font-family="Arial, sans-serif" font-size="10">3.8</text>
<line x1="492.00" y1="348.00" x2="872.00" y2="348.00" stroke="#ececec"/>
<text x="485.00" y="352.00" text-anchor="end" font-family="Arial, sans-serif" font-size="10">-3.3e+02</text>
<line x1="492.00" y1="276.50" x2="872.00" y2="276.50" stroke="#ececec"/>
<text x="485.00" y="280.50" text-anchor="end" font-family="Arial, sans-serif" font-size="10">-1.6e+02</text>
<line x1="492.00" y1="205.00" x2="872.00" y2="205.00" stroke="#ececec"/>
<text x="485.00" y="209.00" text-anchor="end" font-family="Arial, sans-serif" font-size="10">7.6</text>
<line x1="492.00" y1="133.50" x2="872.00" y2="133.50" stroke="#ececec"/>
<text x="485.00" y="137.50" text-anchor="end" font-family="Arial, sans-serif" font-size="10">1.8e+02</text>
<line x1="492.00" y1="62.00" x2="872.00" y2="62.00" stroke="#ececec"/>
<text x="485.00" y="66.00" text-anchor="end" font-family="Arial, sans-serif" font-size="10">3.5e+02</text>
<line x1="623.36" y1="62" x2="623.36" y2="348" stroke="#777" stroke-dasharray="4 4"/>
<line x1="492.0" y1="208.18" x2="872.0" y2="208.18" stroke="#777" stroke-dasharray="4 4"/>
<polyline fill="none" stroke="#1f77b4" stroke-width="1.8" points="506.07,89.68 511.29,96.84 517.15,104.89 522.36,112.05 528.23,120.10 533.44,127.26 539.30,135.32 544.52,142.48 550.38,150.53 555.59,157.69 561.46,165.74 562.76,167.53 563.41,168.43 564.06,169.32 564.72,170.22 565.37,171.11 566.67,172.90 571.88,180.06 574.49,183.63 575.14,184.35 575.79,184.95 576.44,185.48 577.10,185.95 577.75,186.39 582.96,189.38 586.22,191.12 586.87,191.46 587.52,191.80 588.17,192.15 594.04,195.15 599.90,198.04 605.11,200.50 610.98,203.14 616.19,205.36 616.84,205.62 622.05,207.69 623.36,208.18 627.27,209.61 628.57,210.07 632.48,211.38 638.34,213.17 640.30,213.72 643.56,214.59 649.42,215.97 654.63,217.02 660.50,217.99 665.71,218.68 671.57,219.30 676.79,219.76 682.65,220.18 687.86,220.49 693.08,220.75 698.94,220.99 704.15,221.18 710.02,221.36 715.23,221.51 721.09,221.66 726.31,221.78 728.91,221.84 732.17,221.91 737.38,222.01 740.64,222.08 742.60,222.11 748.46,222.22 752.37,222.29 753.67,222.31 759.54,222.40 764.75,222.49 770.61,222.59 773.87,222.67 774.52,222.69 775.18,222.71 775.83,222.73 776.48,222.75 777.13,222.78 781.69,223.02 785.60,223.57 786.25,223.77 786.90,224.02 787.56,224.36 788.21,224.83 788.86,225.47 792.77,230.83 797.33,237.10 797.98,237.99 798.63,238.89 799.28,239.78 799.94,240.68 800.59,241.57 803.19,245.15 809.06,253.21 814.27,260.36 820.13,268.42 825.35,275.58 831.21,283.63 836.42,290.79 842.29,298.85 847.50,306.00 853.36,314.06 857.93,320.32"/>
<polyline fill="none" stroke="#ff7f0e" stroke-width="1.8" stroke-dasharray="5 4" points="506.07,89.68 511.29,96.84 517.15,104.89 522.36,112.05 528.23,120.10 533.44,127.26 539.30,135.32 544.52,142.48 550.38,150.53 555.59,157.69 561.46,165.74 562.76,167.53 563.41,168.43 564.06,169.32 564.72,170.22 565.37,171.11 566.67,172.90 571.88,180.06 574.49,183.63 575.14,184.35 575.79,184.95 576.44,185.48 577.10,185.95 577.75,186.39 582.96,189.38 586.22,191.12 586.87,191.46 587.52,191.80 588.17,192.15 594.04,195.15 599.90,198.04 605.11,200.50 610.98,203.14 616.19,205.36 616.84,205.62 622.05,207.69 623.36,208.18 627.27,209.61 628.57,210.07 632.48,211.38 638.34,213.17 640.30,213.72 643.56,214.59 649.42,215.97 654.63,217.02 660.50,217.99 665.71,218.68 671.57,219.30 676.79,219.76 682.65,220.18 687.86,220.49 693.08,220.75 698.94,220.99 704.15,221.18 710.02,221.36 715.23,221.51 721.09,221.66 726.31,221.78 728.91,221.84 732.17,221.91 737.38,222.01 740.64,222.08 742.60,222.11 748.46,222.22 752.37,222.29 753.67,222.31 759.54,222.40 764.75,222.49 770.61,222.59 773.87,222.67 774.52,222.69 775.18,222.71 775.83,222.73 776.48,222.75 777.13,222.78 781.69,223.02 785.60,223.57 786.25,223.77 786.90,224.02 787.56,224.36 788.21,224.83 788.86,225.47 792.77,230.83 797.33,237.10 797.98,237.99 798.63,238.89 799.28,239.78 799.94,240.68 800.59,241.57 803.19,245.15 809.06,253.21 814.27,260.36 820.13,268.42 825.35,275.58 831.21,283.63 836.42,290.79 842.29,298.85 847.50,306.00 853.36,314.06 857.93,320.32"/>
<polyline fill="none" stroke="#2ca02c" stroke-width="1.8" stroke-dasharray="2 4" points="506.07,89.68 511.29,96.84 517.15,104.89 522.36,112.05 528.23,120.10 533.44,127.26 539.30,135.32 544.52,142.48 550.38,150.53 555.59,157.69 561.46,165.74 562.76,167.53 563.41,168.43 564.06,169.32 564.72,170.22 565.37,171.11 566.67,172.90 571.88,180.06 574.49,183.63 575.14,184.35 575.79,184.95 576.44,185.48 577.10,185.95 577.75,186.39 582.96,189.38 586.22,191.12 586.87,191.46 587.52,191.80 588.17,192.15 594.04,195.15 599.90,198.04 605.11,200.50 610.98,203.14 616.19,205.36 616.84,205.62 622.05,207.69 623.36,208.18 627.27,209.61 628.57,210.07 632.48,211.38 638.34,213.17 640.30,213.72 643.56,214.59 649.42,215.97 654.63,217.02 660.50,217.99 665.71,218.68 671.57,219.30 676.79,219.76 682.65,220.18 687.86,220.49 693.08,220.75 698.94,220.99 704.15,221.18 710.02,221.36 715.23,221.51 721.09,221.66 726.31,221.78 728.91,221.84 732.17,221.91 737.38,222.01 740.64,222.08 742.60,222.11 748.46,222.22 752.37,222.29 753.67,222.31 759.54,222.40 764.75,222.49 770.61,222.59 773.87,222.67 774.52,222.69 775.18,222.71 775.83,222.73 776.48,222.75 777.13,222.78 781.69,223.02 785.60,223.57 786.25,223.77 786.90,224.02 787.56,224.36 788.21,224.83 788.86,225.47 792.77,230.83 797.33,237.10 797.98,237.99 798.63,238.89 799.28,239.78 799.94,240.68 800.59,241.57 803.19,245.15 809.06,253.21 814.27,260.36 820.13,268.42 825.35,275.58 831.21,283.63 836.42,290.79 842.29,298.85 847.50,306.00 853.36,314.06 857.93,320.32"/>
<polyline fill="none" stroke="#1f77b4" stroke-width="1.1" stroke-dasharray="6 4" points="492.00,240.33 496.81,239.70 501.62,239.08 506.43,238.46 511.24,237.84 516.05,237.22 520.86,236.59 525.67,235.97 530.48,235.35 535.29,234.73 540.10,234.11 544.91,233.49 549.72,232.86 554.53,232.24 559.34,231.62 564.15,231.00 568.96,230.38 573.77,229.76 578.58,229.13 583.39,228.51 588.20,227.89 593.01,227.27 597.82,226.65 602.63,226.02 607.44,225.40 612.25,224.78 617.06,224.16 621.87,223.54 626.68,222.92 631.49,222.29 636.30,221.67 641.11,221.05 645.92,220.43 650.73,219.81 655.54,219.18 660.35,218.56 665.16,217.94 669.97,217.32 674.78,216.70 679.59,216.08 684.41,215.45 689.22,214.83 694.03,214.21 698.84,213.59 703.65,212.97 708.46,212.35 713.27,211.72 718.08,211.10 722.89,210.48 727.70,209.86 732.51,209.24 737.32,208.61 742.13,207.99 746.94,207.37 751.75,206.75 756.56,206.13 761.37,205.51 766.18,204.88 770.99,204.26 775.80,203.64 780.61,203.02 785.42,202.40 790.23,201.78 795.04,201.15 799.85,200.53 804.66,199.91 809.47,199.29 814.28,198.67 819.09,198.04 823.90,197.42 828.71,196.80 833.52,196.18 838.33,195.56 843.14,194.94 847.95,194.31 852.76,193.69 857.57,193.07 862.38,192.45 867.19,191.83 872.00,191.21"/>
<circle cx="662.63" cy="218.27" r="4.6" fill="#ffffff" stroke="#1f77b4" stroke-width="2"/>
<text x="668.63" y="212.27" font-family="Arial, sans-serif" font-size="10" fill="#1f77b4">typ 25.2 ohm</text>
<polyline fill="none" stroke="#ff7f0e" stroke-width="1.1" stroke-dasharray="6 4" points="492.00,240.33 496.81,239.70 501.62,239.08 506.43,238.46 511.24,237.84 516.05,237.22 520.86,236.59 525.67,235.97 530.48,235.35 535.29,234.73 540.10,234.11 544.91,233.49 549.72,232.86 554.53,232.24 559.34,231.62 564.15,231.00 568.96,230.38 573.77,229.76 578.58,229.13 583.39,228.51 588.20,227.89 593.01,227.27 597.82,226.65 602.63,226.02 607.44,225.40 612.25,224.78 617.06,224.16 621.87,223.54 626.68,222.92 631.49,222.29 636.30,221.67 641.11,221.05 645.92,220.43 650.73,219.81 655.54,219.18 660.35,218.56 665.16,217.94 669.97,217.32 674.78,216.70 679.59,216.08 684.41,215.45 689.22,214.83 694.03,214.21 698.84,213.59 703.65,212.97 708.46,212.35 713.27,211.72 718.08,211.10 722.89,210.48 727.70,209.86 732.51,209.24 737.32,208.61 742.13,207.99 746.94,207.37 751.75,206.75 756.56,206.13 761.37,205.51 766.18,204.88 770.99,204.26 775.80,203.64 780.61,203.02 785.42,202.40 790.23,201.78 795.04,201.15 799.85,200.53 804.66,199.91 809.47,199.29 814.28,198.67 819.09,198.04 823.90,197.42 828.71,196.80 833.52,196.18 838.33,195.56 843.14,194.94 847.95,194.31 852.76,193.69 857.57,193.07 862.38,192.45 867.19,191.83 872.00,191.21"/>
<circle cx="662.63" cy="218.27" r="4.6" fill="#ffffff" stroke="#ff7f0e" stroke-width="2"/>
<text x="668.63" y="212.27" font-family="Arial, sans-serif" font-size="10" fill="#ff7f0e">min 25.2 ohm</text>
<polyline fill="none" stroke="#2ca02c" stroke-width="1.1" stroke-dasharray="6 4" points="492.00,240.33 496.81,239.70 501.62,239.08 506.43,238.46 511.24,237.84 516.05,237.22 520.86,236.59 525.67,235.97 530.48,235.35 535.29,234.73 540.10,234.11 544.91,233.49 549.72,232.86 554.53,232.24 559.34,231.62 564.15,231.00 568.96,230.38 573.77,229.76 578.58,229.13 583.39,228.51 588.20,227.89 593.01,227.27 597.82,226.65 602.63,226.02 607.44,225.40 612.25,224.78 617.06,224.16 621.87,223.54 626.68,222.92 631.49,222.29 636.30,221.67 641.11,221.05 645.92,220.43 650.73,219.81 655.54,219.18 660.35,218.56 665.16,217.94 669.97,217.32 674.78,216.70 679.59,216.08 684.41,215.45 689.22,214.83 694.03,214.21 698.84,213.59 703.65,212.97 708.46,212.35 713.27,211.72 718.08,211.10 722.89,210.48 727.70,209.86 732.51,209.24 737.32,208.61 742.13,207.99 746.94,207.37 751.75,206.75 756.56,206.13 761.37,205.51 766.18,204.88 770.99,204.26 775.80,203.64 780.61,203.02 785.42,202.40 790.23,201.78 795.04,201.15 799.85,200.53 804.66,199.91 809.47,199.29 814.28,198.67 819.09,198.04 823.90,197.42 828.71,196.80 833.52,196.18 838.33,195.56 843.14,194.94 847.95,194.31 852.76,193.69 857.57,193.07 862.38,192.45 867.19,191.83 872.00,191.21"/>
<circle cx="662.63" cy="218.27" r="4.6" fill="#ffffff" stroke="#2ca02c" stroke-width="2"/>
<text x="668.63" y="212.27" font-family="Arial, sans-serif" font-size="10" fill="#2ca02c">max 25.2 ohm</text>
<line x1="502.00" y1="80.00" x2="524.00" y2="80.00" stroke="#1f77b4" stroke-width="2"/>
<text x="530.00" y="84.00" font-family="Arial, sans-serif" font-size="11">typ</text>
<line x1="502.00" y1="97.00" x2="524.00" y2="97.00" stroke="#ff7f0e" stroke-width="2" stroke-dasharray="5 4"/>
<text x="530.00" y="101.00" font-family="Arial, sans-serif" font-size="11">min</text>
<line x1="502.00" y1="114.00" x2="524.00" y2="114.00" stroke="#2ca02c" stroke-width="2" stroke-dasharray="2 4"/>
<text x="530.00" y="118.00" font-family="Arial, sans-serif" font-size="11">max</text>
<text x="682.00" y="386.00" text-anchor="middle" font-family="Arial, sans-serif" font-size="11">Vcc-relative table voltage (V)</text>
<text transform="translate(442.00 205.00) rotate(-90)" text-anchor="middle" font-family="Arial, sans-serif" font-size="11">Current (mA)</text>
<rect x="72.00" y="418.00" width="800.00" height="144.00" fill="#ffffff" stroke="#c8c8c8"/>
<text x="82.00" y="436.00" font-family="Arial, sans-serif" font-size="12" font-weight="700">Operating-point summary</text>
<text x="82.00" y="454.00" font-family="Arial, sans-serif" font-size="10" font-weight="700" fill="#333">Table</text>
<text x="174.00" y="454.00" font-family="Arial, sans-serif" font-size="10" font-weight="700" fill="#333">Corner</text>
<text x="242.00" y="454.00" font-family="Arial, sans-serif" font-size="10" font-weight="700" fill="#333">Vout</text>
<text x="332.00" y="454.00" font-family="Arial, sans-serif" font-size="10" font-weight="700" fill="#333">Iop</text>
<text x="422.00" y="454.00" font-family="Arial, sans-serif" font-size="10" font-weight="700" fill="#333">Zout</text>
<text x="512.00" y="454.00" font-family="Arial, sans-serif" font-size="10" font-weight="700" fill="#333">Rseries</text>
<text x="82.00" y="473.00" font-family="Arial, sans-serif" font-size="10" fill="#1f77b4">pulldown</text>
<text x="174.00" y="473.00" font-family="Arial, sans-serif" font-size="10" fill="#1f77b4">typ</text>
<text x="242.00" y="473.00" font-family="Arial, sans-serif" font-size="10" fill="#1f77b4">1.522 V</text>
<text x="332.00" y="473.00" font-family="Arial, sans-serif" font-size="10" fill="#1f77b4">5.6 mA</text>
<text x="422.00" y="473.00" font-family="Arial, sans-serif" font-size="10" fill="#1f77b4">274 ohm</text>
<text x="512.00" y="473.00" font-family="Arial, sans-serif" font-size="10" fill="#1f77b4">-224 ohm</text>
<text x="82.00" y="492.00" font-family="Arial, sans-serif" font-size="10" fill="#ff7f0e">pulldown</text>
<text x="174.00" y="492.00" font-family="Arial, sans-serif" font-size="10" fill="#ff7f0e">min</text>
<text x="242.00" y="492.00" font-family="Arial, sans-serif" font-size="10" fill="#ff7f0e">1.522 V</text>
<text x="332.00" y="492.00" font-family="Arial, sans-serif" font-size="10" fill="#ff7f0e">5.6 mA</text>
<text x="422.00" y="492.00" font-family="Arial, sans-serif" font-size="10" fill="#ff7f0e">274 ohm</text>
<text x="512.00" y="492.00" font-family="Arial, sans-serif" font-size="10" fill="#ff7f0e">-224 ohm</text>
<text x="82.00" y="511.00" font-family="Arial, sans-serif" font-size="10" fill="#2ca02c">pulldown</text>
<text x="174.00" y="511.00" font-family="Arial, sans-serif" font-size="10" fill="#2ca02c">max</text>
<text x="242.00" y="511.00" font-family="Arial, sans-serif" font-size="10" fill="#2ca02c">1.522 V</text>
<text x="332.00" y="511.00" font-family="Arial, sans-serif" font-size="10" fill="#2ca02c">5.6 mA</text>
<text x="422.00" y="511.00" font-family="Arial, sans-serif" font-size="10" fill="#2ca02c">274 ohm</text>
<text x="512.00" y="511.00" font-family="Arial, sans-serif" font-size="10" fill="#2ca02c">-224 ohm</text>
<text x="82.00" y="530.00" font-family="Arial, sans-serif" font-size="10" fill="#1f77b4">pullup</text>
<text x="174.00" y="530.00" font-family="Arial, sans-serif" font-size="10" fill="#1f77b4">typ</text>
<text x="242.00" y="530.00" font-family="Arial, sans-serif" font-size="10" fill="#1f77b4">1.197 V</text>
<text x="332.00" y="530.00" font-family="Arial, sans-serif" font-size="10" fill="#1f77b4">-24 mA</text>
<text x="422.00" y="530.00" font-family="Arial, sans-serif" font-size="10" fill="#1f77b4">25.2 ohm</text>
<text x="512.00" y="530.00" font-family="Arial, sans-serif" font-size="10" fill="#1f77b4">24.8 ohm</text>
<text x="82.00" y="549.00" font-family="Arial, sans-serif" font-size="10" fill="#ff7f0e">pullup</text>
<text x="174.00" y="549.00" font-family="Arial, sans-serif" font-size="10" fill="#ff7f0e">min</text>
<text x="242.00" y="549.00" font-family="Arial, sans-serif" font-size="10" fill="#ff7f0e">1.197 V</text>
<text x="332.00" y="549.00" font-family="Arial, sans-serif" font-size="10" fill="#ff7f0e">-24 mA</text>
<text x="422.00" y="549.00" font-family="Arial, sans-serif" font-size="10" fill="#ff7f0e">25.2 ohm</text>
<text x="512.00" y="549.00" font-family="Arial, sans-serif" font-size="10" fill="#ff7f0e">24.8 ohm</text>
<text x="82.00" y="568.00" font-family="Arial, sans-serif" font-size="10" fill="#2ca02c">pullup</text>
<text x="174.00" y="568.00" font-family="Arial, sans-serif" font-size="10" fill="#2ca02c">max</text>
<text x="242.00" y="568.00" font-family="Arial, sans-serif" font-size="10" fill="#2ca02c">1.197 V</text>
<text x="332.00" y="568.00" font-family="Arial, sans-serif" font-size="10" fill="#2ca02c">-24 mA</text>
<text x="422.00" y="568.00" font-family="Arial, sans-serif" font-size="10" fill="#2ca02c">25.2 ohm</text>
<text x="512.00" y="568.00" font-family="Arial, sans-serif" font-size="10" fill="#2ca02c">24.8 ohm</text>
</svg>