<svg xmlns="http://www.w3.org/2000/svg" width="900" height="620" viewBox="0 0 900 620">
<rect width="100%" height="100%" fill="#ffffff"/>
<text x="72" y="26" font-family="Arial, sans-serif" font-size="16" font-weight="700">E34_GPIO_I3C_I2C_SLV_1V1_10 Zout Load-Line Curves</text>
<text x="72" y="45" font-family="Arial, sans-serif" font-size="11" fill="#555">Rload=50 ohm; solid=device I-V, dashed=load line, circles=operating points</text>
<rect x="72.00" y="62.00" width="380.00" height="286.00" fill="#fbfbfb" stroke="#c8c8c8"/>
<text x="80.00" y="50.00" font-family="Arial, sans-serif" font-size="13" font-weight="700">[Pulldown] Rload to Vdd</text>
<line x1="72.00" y1="62.00" x2="72.00" y2="348.00" stroke="#ececec"/>
<text x="72.00" y="366.00" text-anchor="middle" font-family="Arial, sans-serif" font-size="10">-1.2</text>
<line x1="167.00" y1="62.00" x2="167.00" y2="348.00" stroke="#ececec"/>
<text x="167.00" y="366.00" text-anchor="middle" font-family="Arial, sans-serif" font-size="10">-0.341</text>
<line x1="262.00" y1="62.00" x2="262.00" y2="348.00" stroke="#ececec"/>
<text x="262.00" y="366.00" text-anchor="middle" font-family="Arial, sans-serif" font-size="10">0.55</text>
<line x1="357.00" y1="62.00" x2="357.00" y2="348.00" stroke="#ececec"/>
<text x="357.00" y="366.00" text-anchor="middle" font-family="Arial, sans-serif" font-size="10">1.4</text>
<line x1="452.00" y1="62.00" x2="452.00" y2="348.00" stroke="#ececec"/>
<text x="452.00" y="366.00" text-anchor="middle" font-family="Arial, sans-serif" font-size="10">2.3</text>
<line x1="72.00" y1="348.00" x2="452.00" y2="348.00" stroke="#ececec"/>
<text x="65.00" y="352.00" text-anchor="end" font-family="Arial, sans-serif" font-size="10">-79</text>
<line x1="72.00" y1="276.50" x2="452.00" y2="276.50" stroke="#ececec"/>
<text x="65.00" y="280.50" text-anchor="end" font-family="Arial, sans-serif" font-size="10">-44</text>
<line x1="72.00" y1="205.00" x2="452.00" y2="205.00" stroke="#ececec"/>
<text x="65.00" y="209.00" text-anchor="end" font-family="Arial, sans-serif" font-size="10">-9.6</text>
<line x1="72.00" y1="133.50" x2="452.00" y2="133.50" stroke="#ececec"/>
<text x="65.00" y="137.50" text-anchor="end" font-family="Arial, sans-serif" font-size="10">25</text>
<line x1="72.00" y1="62.00" x2="452.00" y2="62.00" stroke="#ececec"/>
<text x="65.00" y="66.00" text-anchor="end" font-family="Arial, sans-serif" font-size="10">60</text>
<line x1="203.36" y1="62" x2="203.36" y2="348" stroke="#777" stroke-dasharray="4 4"/>
<line x1="72.0" y1="185.35" x2="452.0" y2="185.35" stroke="#777" stroke-dasharray="4 4"/>
<polyline fill="none" stroke="#1f77b4" stroke-width="1.8" points="86.07,283.62 91.41,283.62 96.74,283.62 103.13,283.62 108.46,283.62 110.60,283.62 111.66,283.62 112.73,283.62 113.80,283.62 114.86,283.62 115.93,283.49 116.99,283.25 118.06,282.92 119.13,282.52 120.19,282.07 121.26,281.58 122.33,281.06 123.39,280.50 124.46,279.92 125.52,279.30 126.59,278.66 129.79,276.59 136.19,271.70 138.32,269.84 139.38,268.86 140.45,267.85 141.52,266.82 142.58,265.75 143.65,264.65 144.72,263.52 145.78,262.36 146.85,261.18 147.91,259.96 148.98,258.71 150.05,257.44 152.18,254.82 157.51,247.86 162.84,240.47 169.24,231.30 174.57,223.59 179.90,215.95 185.23,208.47 190.56,201.23 195.89,194.32 202.29,186.57 203.36,185.35 207.62,180.67 212.95,175.33 218.29,170.62 221.48,168.10 223.62,166.56 225.75,165.12 226.81,164.45 228.95,163.18 230.01,162.58 231.08,162.01 233.21,160.95 234.28,160.47 235.34,160.00 238.54,158.77 240.68,158.07 246.01,156.73 251.34,155.84 256.67,155.24 263.07,154.73 268.40,154.38 273.73,154.07 279.06,153.79 284.39,153.53 289.72,153.29 296.12,153.01 301.45,152.79 306.78,152.58 308.91,152.50 312.11,152.38 317.44,152.19 320.64,152.08 322.77,152.00 329.17,151.78 332.37,151.68 334.50,151.61 339.83,151.43 345.16,151.26 350.50,151.09 355.83,150.92 362.22,150.69 367.56,150.44 372.89,150.06 378.22,149.50 383.55,148.67 388.88,147.53 395.28,145.66 400.61,143.67 405.94,141.28 411.27,138.49 416.60,135.33 421.93,131.82 428.33,127.17 433.66,122.96 437.93,119.39"/>
<polyline fill="none" stroke="#ff7f0e" stroke-width="1.8" stroke-dasharray="5 4" points="86.07,247.73 91.41,247.73 96.74,247.73 103.13,247.73 108.46,247.73 110.60,247.73 111.66,247.73 112.73,247.73 113.80,247.73 114.86,247.73 115.93,247.73 116.99,247.73 118.06,247.73 119.13,247.73 120.19,247.73 121.26,247.71 122.33,247.58 123.39,247.36 124.46,247.06 125.52,246.70 126.59,246.29 129.79,244.82 136.19,241.21 138.32,239.85 139.38,239.13 140.45,238.41 141.52,237.66 142.58,236.89 143.65,236.11 144.72,235.31 145.78,234.50 146.85,233.66 147.91,232.82 148.98,231.95 150.05,231.08 152.18,229.28 157.51,224.56 162.84,219.62 169.24,213.55 174.57,208.52 179.90,203.62 185.23,198.95 190.56,194.55 195.89,190.47 202.29,186.03 203.36,185.35 207.62,182.75 212.95,179.87 218.29,177.38 221.48,176.08 223.62,175.30 225.75,174.58 226.81,174.24 228.95,173.61 230.01,173.33 231.08,173.05 233.21,172.55 234.28,172.32 235.34,172.11 238.54,171.56 240.68,171.26 246.01,170.70 251.34,170.36 256.67,170.12 263.07,169.90 268.40,169.74 273.73,169.60 279.06,169.46 284.39,169.33 289.72,169.21 296.12,169.08 301.45,168.97 306.78,168.87 308.91,168.83 312.11,168.77 317.44,168.67 320.64,168.62 322.77,168.58 329.17,168.47 332.37,168.41 334.50,168.37 339.83,168.27 345.16,168.15 350.50,167.97 355.83,167.72 362.22,167.26 367.56,166.70 372.89,165.94 378.22,164.96 383.55,163.74 388.88,162.27 395.28,160.19 400.61,158.17 405.94,155.91 411.27,153.41 416.60,150.70 421.93,147.96 428.33,144.67 433.66,141.93 437.93,139.73"/>
<polyline fill="none" stroke="#2ca02c" stroke-width="1.8" stroke-dasharray="2 4" points="86.07,320.32 91.41,320.32 96.74,320.32 103.13,320.32 108.46,320.32 110.60,320.32 111.66,320.18 112.73,319.93 113.80,319.61 114.86,319.23 115.93,318.82 116.99,318.38 118.06,317.90 119.13,317.41 120.19,316.89 121.26,316.34 122.33,315.78 123.39,315.18 124.46,314.57 125.52,313.93 126.59,313.26 129.79,311.07 136.19,305.76 138.32,303.67 139.38,302.57 140.45,301.41 141.52,300.21 142.58,298.96 143.65,297.66 144.72,296.32 145.78,294.92 146.85,293.48 147.91,291.99 148.98,290.46 150.05,288.88 152.18,285.58 157.51,276.63 162.84,266.86 169.24,254.44 174.57,243.74 179.90,232.83 185.23,221.81 190.56,210.80 195.89,199.95 202.29,187.37 203.36,185.35 207.62,177.49 212.95,168.33 218.29,160.05 221.48,155.55 223.62,152.75 225.75,150.12 226.81,148.87 228.95,146.50 230.01,145.37 231.08,144.29 233.21,142.26 234.28,141.31 235.34,140.40 238.54,137.91 240.68,136.46 246.01,133.49 251.34,131.35 256.67,129.86 263.07,128.63 268.40,127.87 273.73,127.25 279.06,126.71 284.39,126.22 289.72,125.78 296.12,125.28 301.45,124.90 306.78,124.53 308.91,124.39 312.11,124.18 317.44,123.85 320.64,123.65 322.77,123.52 329.17,123.14 332.37,122.96 334.50,122.83 339.83,122.53 345.16,122.24 350.50,121.95 355.83,121.67 362.22,121.34 367.56,121.06 372.89,120.78 378.22,120.45 383.55,120.00 388.88,119.32 395.28,118.02 400.61,116.41 405.94,114.23 411.27,111.45 416.60,108.07 421.93,104.14 428.33,98.79 433.66,93.87 437.93,89.68"/>
<polyline fill="none" stroke="#1f77b4" stroke-width="1.1" stroke-dasharray="6 4" points="72.00,89.56 76.81,91.42 81.62,93.27 86.43,95.12 91.24,96.97 96.05,98.83 100.86,100.68 105.67,102.53 110.48,104.39 115.29,106.24 120.10,108.09 124.91,109.95 129.72,111.80 134.53,113.65 139.34,115.50 144.15,117.36 148.96,119.21 153.77,121.06 158.58,122.92 163.39,124.77 168.20,126.62 173.01,128.48 177.82,130.33 182.63,132.18 187.44,134.04 192.25,135.89 197.06,137.74 201.87,139.59 206.68,141.45 211.49,143.30 216.30,145.15 221.11,147.01 225.92,148.86 230.73,150.71 235.54,152.57 240.35,154.42 245.16,156.27 249.97,158.12 254.78,159.98 259.59,161.83 264.41,163.68 269.22,165.54 274.03,167.39 278.84,169.24 283.65,171.10 288.46,172.95 293.27,174.80 298.08,176.65 302.89,178.51 307.70,180.36 312.51,182.21 317.32,184.07 322.13,185.92 326.94,187.77 331.75,189.63 336.56,191.48 341.37,193.33 346.18,195.19 350.99,197.04 355.80,198.89 360.61,200.74 365.42,202.60 370.23,204.45 375.04,206.30 379.85,208.16 384.66,210.01 389.47,211.86 394.28,213.72 399.09,215.57 403.90,217.42 408.71,219.27 413.52,221.13 418.33,222.98 423.14,224.83 427.95,226.69 432.76,228.54 437.57,230.39 442.38,232.25 447.19,234.10 452.00,235.95"/>
<circle cx="246.25" cy="156.69" r="4.6" fill="#ffffff" stroke="#1f77b4" stroke-width="2"/>
<text x="252.25" y="150.69" font-family="Arial, sans-serif" font-size="10" fill="#1f77b4">typ 28.8 ohm</text>
<polyline fill="none" stroke="#ff7f0e" stroke-width="1.1" stroke-dasharray="6 4" points="72.00,94.08 76.81,95.93 81.62,97.79 86.43,99.64 91.24,101.49 96.05,103.35 100.86,105.20 105.67,107.05 110.48,108.90 115.29,110.76 120.10,112.61 124.91,114.46 129.72,116.32 134.53,118.17 139.34,120.02 144.15,121.88 148.96,123.73 153.77,125.58 158.58,127.44 163.39,129.29 168.20,131.14 173.01,132.99 177.82,134.85 182.63,136.70 187.44,138.55 192.25,140.41 197.06,142.26 201.87,144.11 206.68,145.97 211.49,147.82 216.30,149.67 221.11,151.52 225.92,153.38 230.73,155.23 235.54,157.08 240.35,158.94 245.16,160.79 249.97,162.64 254.78,164.50 259.59,166.35 264.41,168.20 269.22,170.05 274.03,171.91 278.84,173.76 283.65,175.61 288.46,177.47 293.27,179.32 298.08,181.17 302.89,183.03 307.70,184.88 312.51,186.73 317.32,188.59 322.13,190.44 326.94,192.29 331.75,194.14 336.56,196.00 341.37,197.85 346.18,199.70 350.99,201.56 355.80,203.41 360.61,205.26 365.42,207.12 370.23,208.97 375.04,210.82 379.85,212.67 384.66,214.53 389.47,216.38 394.28,218.23 399.09,220.09 403.90,221.94 408.71,223.79 413.52,225.65 418.33,227.50 423.14,229.35 427.95,231.20 432.76,233.06 437.57,234.91 442.38,236.76 447.19,238.62 452.00,240.47"/>
<circle cx="268.40" cy="169.74" r="4.6" fill="#ffffff" stroke="#ff7f0e" stroke-width="2"/>
<text x="274.40" y="163.74" font-family="Arial, sans-serif" font-size="10" fill="#ff7f0e">min 80.3 ohm</text>
<polyline fill="none" stroke="#2ca02c" stroke-width="1.1" stroke-dasharray="6 4" points="72.00,85.04 76.81,86.90 81.62,88.75 86.43,90.60 91.24,92.46 96.05,94.31 100.86,96.16 105.67,98.02 110.48,99.87 115.29,101.72 120.10,103.57 124.91,105.43 129.72,107.28 134.53,109.13 139.34,110.99 144.15,112.84 148.96,114.69 153.77,116.55 158.58,118.40 163.39,120.25 168.20,122.10 173.01,123.96 177.82,125.81 182.63,127.66 187.44,129.52 192.25,131.37 197.06,133.22 201.87,135.08 206.68,136.93 211.49,138.78 216.30,140.64 221.11,142.49 225.92,144.34 230.73,146.19 235.54,148.05 240.35,149.90 245.16,151.75 249.97,153.61 254.78,155.46 259.59,157.31 264.41,159.17 269.22,161.02 274.03,162.87 278.84,164.72 283.65,166.58 288.46,168.43 293.27,170.28 298.08,172.14 302.89,173.99 307.70,175.84 312.51,177.70 317.32,179.55 322.13,181.40 326.94,183.25 331.75,185.11 336.56,186.96 341.37,188.81 346.18,190.67 350.99,192.52 355.80,194.37 360.61,196.23 365.42,198.08 370.23,199.93 375.04,201.78 379.85,203.64 384.66,205.49 389.47,207.34 394.28,209.20 399.09,211.05 403.90,212.90 408.71,214.76 413.52,216.61 418.33,218.46 423.14,220.32 427.95,222.17 432.76,224.02 437.57,225.87 442.38,227.73 447.19,229.58 452.00,231.43"/>
<circle cx="229.64" cy="145.77" r="4.6" fill="#ffffff" stroke="#2ca02c" stroke-width="2"/>
<text x="235.64" y="139.77" font-family="Arial, sans-serif" font-size="10" fill="#2ca02c">max 12.8 ohm</text>
<line x1="82.00" y1="80.00" x2="104.00" y2="80.00" stroke="#1f77b4" stroke-width="2"/>
<text x="110.00" y="84.00" font-family="Arial, sans-serif" font-size="11">typ</text>
<line x1="82.00" y1="97.00" x2="104.00" y2="97.00" stroke="#ff7f0e" stroke-width="2" stroke-dasharray="5 4"/>
<text x="110.00" y="101.00" font-family="Arial, sans-serif" font-size="11">min</text>
<line x1="82.00" y1="114.00" x2="104.00" y2="114.00" stroke="#2ca02c" stroke-width="2" stroke-dasharray="2 4"/>
<text x="110.00" y="118.00" font-family="Arial, sans-serif" font-size="11">max</text>
<text x="262.00" y="386.00" text-anchor="middle" font-family="Arial, sans-serif" font-size="11">Output voltage (V)</text>
<text transform="translate(22.00 205.00) rotate(-90)" text-anchor="middle" font-family="Arial, sans-serif" font-size="11">Current (mA)</text>
<rect x="492.00" y="62.00" width="380.00" height="286.00" fill="#fbfbfb" stroke="#c8c8c8"/>
<text x="500.00" y="50.00" font-family="Arial, sans-serif" font-size="13" font-weight="700">[Pullup] Rload to GND</text>
<line x1="492.00" y1="62.00" x2="492.00" y2="348.00" stroke="#ececec"/>
<text x="492.00" y="366.00" text-anchor="middle" font-family="Arial, sans-serif" font-size="10">-1.2</text>
<line x1="587.00" y1="62.00" x2="587.00" y2="348.00" stroke="#ececec"/>
<text x="587.00" y="366.00" text-anchor="middle" font-family="Arial, sans-serif" font-size="10">-0.341</text>
<line x1="682.00" y1="62.00" x2="682.00" y2="348.00" stroke="#ececec"/>
<text x="682.00" y="366.00" text-anchor="middle" font-family="Arial, sans-serif" font-size="10">0.55</text>
<line x1="777.00" y1="62.00" x2="777.00" y2="348.00" stroke="#ececec"/>
<text x="777.00" y="366.00" text-anchor="middle" font-family="Arial, sans-serif" font-size="10">1.4</text>
<line x1="872.00" y1="62.00" x2="872.00" y2="348.00" stroke="#ececec"/>
<text x="872.00" y="366.00" text-anchor="middle" font-family="Arial, sans-serif" font-size="10">2.3</text>
<line x1="492.00" y1="348.00" x2="872.00" y2="348.00" stroke="#ececec"/>
<text x="485.00" y="352.00" text-anchor="end" font-family="Arial, sans-serif" font-size="10">-61</text>
<line x1="492.00" y1="276.50" x2="872.00" y2="276.50" stroke="#ececec"/>
<text x="485.00" y="280.50" text-anchor="end" font-family="Arial, sans-serif" font-size="10">-22</text>
<line x1="492.00" y1="205.00" x2="872.00" y2="205.00" stroke="#ececec"/>
<text x="485.00" y="209.00" text-anchor="end" font-family="Arial, sans-serif" font-size="10">17</text>
<line x1="492.00" y1="133.50" x2="872.00" y2="133.50" stroke="#ececec"/>
<text x="485.00" y="137.50" text-anchor="end" font-family="Arial, sans-serif" font-size="10">57</text>
<line x1="492.00" y1="62.00" x2="872.00" y2="62.00" stroke="#ececec"/>
<text x="485.00" y="66.00" text-anchor="end" font-family="Arial, sans-serif" font-size="10">96</text>
<line x1="623.36" y1="62" x2="623.36" y2="348" stroke="#777" stroke-dasharray="4 4"/>
<line x1="492.0" y1="236.48" x2="872.0" y2="236.48" stroke="#777" stroke-dasharray="4 4"/>
<polyline fill="none" stroke="#1f77b4" stroke-width="1.8" points="506.07,124.28 511.41,130.53 516.74,136.70 523.13,143.99 528.46,149.96 533.80,155.83 539.13,161.59 544.46,167.25 549.79,172.80 556.19,179.29 561.52,184.57 566.85,189.73 572.18,194.77 577.51,199.69 582.84,204.49 589.24,210.07 594.57,214.59 599.90,218.97 605.23,223.22 611.63,228.10 612.70,228.89 614.83,230.46 615.89,231.23 622.29,235.75 623.36,236.48 626.56,238.59 627.62,239.26 628.69,239.92 629.76,240.56 630.82,241.19 631.89,241.80 632.95,242.40 634.02,242.98 638.29,245.18 640.42,246.20 641.48,246.69 642.55,247.17 644.68,248.08 645.75,248.51 646.81,248.93 647.88,249.33 648.95,249.72 650.01,250.10 651.08,250.46 652.15,250.80 653.21,251.14 654.28,251.45 655.34,251.76 656.41,252.05 657.48,252.32 658.54,252.58 659.61,252.83 660.68,253.06 661.74,253.28 662.81,253.49 663.87,253.68 664.94,253.86 666.01,254.03 668.14,254.34 671.34,254.74 676.67,255.25 683.07,255.72 684.13,255.78 688.40,256.03 693.73,256.31 697.99,256.51 699.06,256.56 704.39,256.79 709.72,256.99 716.12,257.22 721.45,257.40 726.78,257.57 728.91,257.64 732.11,257.73 737.44,257.88 740.64,257.97 742.77,258.03 749.17,258.19 752.37,258.27 754.50,258.32 759.83,258.45 765.16,258.58 770.50,258.70 775.83,258.81 782.22,258.95 787.56,259.06 792.89,259.17 798.22,259.27 803.55,259.38 808.88,259.48 814.21,259.58 820.61,259.70 825.94,259.79 831.27,259.89 835.54,259.96 836.60,259.96 841.93,259.96 848.33,259.96 853.66,259.96 857.93,259.96"/>
<polyline fill="none" stroke="#ff7f0e" stroke-width="1.8" stroke-dasharray="5 4" points="506.07,158.19 511.41,162.85 516.74,167.50 523.13,173.05 528.46,177.54 533.80,181.92 539.13,186.18 544.46,190.32 549.79,194.33 556.19,198.97 561.52,202.70 566.85,206.29 572.18,209.76 577.51,213.09 582.84,216.29 589.24,219.95 594.57,222.87 599.90,225.66 605.23,228.32 611.63,231.34 612.70,231.83 614.83,232.79 615.89,233.27 622.29,236.04 623.36,236.48 626.56,237.74 627.62,238.14 628.69,238.53 629.76,238.91 630.82,239.28 631.89,239.64 632.95,239.99 634.02,240.32 638.29,241.56 640.42,242.12 641.48,242.39 642.55,242.65 644.68,243.13 645.75,243.36 646.81,243.58 647.88,243.79 648.95,243.99 650.01,244.18 651.08,244.37 652.15,244.54 653.21,244.70 654.28,244.86 655.34,245.00 656.41,245.14 657.48,245.26 658.54,245.38 659.61,245.49 660.68,245.59 661.74,245.69 662.81,245.78 663.87,245.86 664.94,245.93 666.01,246.00 668.14,246.12 671.34,246.28 676.67,246.48 683.07,246.67 684.13,246.70 688.40,246.81 693.73,246.93 697.99,247.02 699.06,247.04 704.39,247.14 709.72,247.24 716.12,247.35 721.45,247.43 726.78,247.51 728.91,247.54 732.11,247.59 737.44,247.66 740.64,247.70 742.77,247.73 749.17,247.81 752.37,247.85 754.50,247.87 759.83,247.94 765.16,248.00 770.50,248.06 775.83,248.12 782.22,248.18 787.56,248.24 792.89,248.29 798.22,248.34 803.55,248.40 808.88,248.45 814.21,248.51 820.61,248.51 825.94,248.51 831.27,248.51 835.54,248.51 836.60,248.51 841.93,248.51 848.33,248.51 853.66,248.51 857.93,248.51"/>
<polyline fill="none" stroke="#2ca02c" stroke-width="1.8" stroke-dasharray="2 4" points="506.07,89.68 511.41,96.88 516.74,104.06 523.13,112.61 528.46,119.69 533.80,126.72 539.13,133.69 544.46,140.60 549.79,147.46 556.19,155.59 561.52,162.31 566.85,168.97 572.18,175.59 577.51,182.18 582.84,188.73 589.24,196.54 594.57,203.00 599.90,209.42 605.23,215.77 611.63,223.19 612.70,224.37 614.83,226.71 615.89,227.92 622.29,235.29 623.36,236.48 626.56,239.94 627.62,241.06 628.69,242.17 629.76,243.24 630.82,244.30 631.89,245.33 632.95,246.31 634.02,247.26 638.29,250.89 640.42,252.62 641.48,253.46 642.55,254.28 644.68,255.87 645.75,256.63 646.81,257.37 647.88,258.10 648.95,258.80 650.01,259.48 651.08,260.14 652.15,260.78 653.21,261.40 654.28,262.00 655.34,262.58 656.41,263.14 657.48,263.68 658.54,264.20 659.61,264.70 660.68,265.17 661.74,265.63 662.81,266.07 663.87,266.49 664.94,266.89 666.01,267.27 668.14,267.99 671.34,268.93 676.67,270.22 683.07,271.40 684.13,271.57 688.40,272.17 693.73,272.81 697.99,273.26 699.06,273.36 704.39,273.85 709.72,274.28 716.12,274.75 721.45,275.10 726.78,275.43 728.91,275.55 732.11,275.74 737.44,276.02 740.64,276.19 742.77,276.30 749.17,276.61 752.37,276.76 754.50,276.85 759.83,277.09 765.16,277.32 770.50,277.54 775.83,277.75 782.22,277.99 787.56,278.19 792.89,278.39 798.22,278.58 803.55,278.76 808.88,278.94 814.21,279.12 820.61,279.33 825.94,279.50 831.27,279.66 835.54,279.80 836.60,279.83 841.93,279.99 848.33,280.18 853.66,280.34 857.93,280.34"/>
<polyline fill="none" stroke="#1f77b4" stroke-width="1.1" stroke-dasharray="6 4" points="492.00,321.12 496.81,319.48 501.62,317.85 506.43,316.21 511.24,314.57 516.05,312.93 520.86,311.30 525.67,309.66 530.48,308.02 535.29,306.38 540.10,304.75 544.91,303.11 549.72,301.47 554.53,299.83 559.34,298.20 564.15,296.56 568.96,294.92 573.77,293.28 578.58,291.65 583.39,290.01 588.20,288.37 593.01,286.73 597.82,285.10 602.63,283.46 607.44,281.82 612.25,280.18 617.06,278.55 621.87,276.91 626.68,275.27 631.49,273.63 636.30,272.00 641.11,270.36 645.92,268.72 650.73,267.08 655.54,265.45 660.35,263.81 665.16,262.17 669.97,260.53 674.78,258.90 679.59,257.26 684.41,255.62 689.22,253.98 694.03,252.35 698.84,250.71 703.65,249.07 708.46,247.43 713.27,245.80 718.08,244.16 722.89,242.52 727.70,240.88 732.51,239.25 737.32,237.61 742.13,235.97 746.94,234.33 751.75,232.70 756.56,231.06 761.37,229.42 766.18,227.78 770.99,226.15 775.80,224.51 780.61,222.87 785.42,221.23 790.23,219.60 795.04,217.96 799.85,216.32 804.66,214.68 809.47,213.05 814.28,211.41 819.09,209.77 823.90,208.13 828.71,206.50 833.52,204.86 838.33,203.22 843.14,201.58 847.95,199.95 852.76,198.31 857.57,196.67 862.38,195.03 867.19,193.40 872.00,191.76"/>
<circle cx="683.96" cy="255.77" r="4.6" fill="#ffffff" stroke="#1f77b4" stroke-width="2"/>
<text x="689.96" y="249.77" font-family="Arial, sans-serif" font-size="10" fill="#1f77b4">typ 53.5 ohm</text>
<polyline fill="none" stroke="#ff7f0e" stroke-width="1.1" stroke-dasharray="6 4" points="492.00,317.13 496.81,315.49 501.62,313.85 506.43,312.22 511.24,310.58 516.05,308.94 520.86,307.30 525.67,305.67 530.48,304.03 535.29,302.39 540.10,300.75 544.91,299.12 549.72,297.48 554.53,295.84 559.34,294.20 564.15,292.57 568.96,290.93 573.77,289.29 578.58,287.65 583.39,286.02 588.20,284.38 593.01,282.74 597.82,281.10 602.63,279.47 607.44,277.83 612.25,276.19 617.06,274.55 621.87,272.92 626.68,271.28 631.49,269.64 636.30,268.00 641.11,266.37 645.92,264.73 650.73,263.09 655.54,261.45 660.35,259.82 665.16,258.18 669.97,256.54 674.78,254.90 679.59,253.27 684.41,251.63 689.22,249.99 694.03,248.35 698.84,246.72 703.65,245.08 708.46,243.44 713.27,241.80 718.08,240.17 722.89,238.53 727.70,236.89 732.51,235.25 737.32,233.62 742.13,231.98 746.94,230.34 751.75,228.70 756.56,227.07 761.37,225.43 766.18,223.79 770.99,222.15 775.80,220.52 780.61,218.88 785.42,217.24 790.23,215.60 795.04,213.97 799.85,212.33 804.66,210.69 809.47,209.05 814.28,207.42 819.09,205.78 823.90,204.14 828.71,202.50 833.52,200.87 838.33,199.23 843.14,197.59 847.95,195.95 852.76,194.32 857.57,192.68 862.38,191.04 867.19,189.40 872.00,187.77"/>
<circle cx="697.94" cy="247.02" r="4.6" fill="#ffffff" stroke="#ff7f0e" stroke-width="2"/>
<text x="703.94" y="241.02" font-family="Arial, sans-serif" font-size="10" fill="#ff7f0e">min 120 ohm</text>
<polyline fill="none" stroke="#2ca02c" stroke-width="1.1" stroke-dasharray="6 4" points="492.00,325.11 496.81,323.48 501.62,321.84 506.43,320.20 511.24,318.56 516.05,316.93 520.86,315.29 525.67,313.65 530.48,312.01 535.29,310.38 540.10,308.74 544.91,307.10 549.72,305.46 554.53,303.83 559.34,302.19 564.15,300.55 568.96,298.91 573.77,297.28 578.58,295.64 583.39,294.00 588.20,292.36 593.01,290.73 597.82,289.09 602.63,287.45 607.44,285.81 612.25,284.18 617.06,282.54 621.87,280.90 626.68,279.26 631.49,277.63 636.30,275.99 641.11,274.35 645.92,272.71 650.73,271.08 655.54,269.44 660.35,267.80 665.16,266.16 669.97,264.53 674.78,262.89 679.59,261.25 684.41,259.61 689.22,257.98 694.03,256.34 698.84,254.70 703.65,253.06 708.46,251.43 713.27,249.79 718.08,248.15 722.89,246.51 727.70,244.88 732.51,243.24 737.32,241.60 742.13,239.96 746.94,238.33 751.75,236.69 756.56,235.05 761.37,233.41 766.18,231.78 770.99,230.14 775.80,228.50 780.61,226.86 785.42,225.23 790.23,223.59 795.04,221.95 799.85,220.31 804.66,218.68 809.47,217.04 814.28,215.40 819.09,213.76 823.90,212.13 828.71,210.49 833.52,208.85 838.33,207.21 843.14,205.58 847.95,203.94 852.76,202.30 857.57,200.66 862.38,199.03 867.19,197.39 872.00,195.75"/>
<circle cx="664.03" cy="266.55" r="4.6" fill="#ffffff" stroke="#2ca02c" stroke-width="2"/>
<text x="670.03" y="260.55" font-family="Arial, sans-serif" font-size="10" fill="#2ca02c">max 23 ohm</text>
<line x1="502.00" y1="80.00" x2="524.00" y2="80.00" stroke="#1f77b4" stroke-width="2"/>
<text x="530.00" y="84.00" font-family="Arial, sans-serif" font-size="11">typ</text>
<line x1="502.00" y1="97.00" x2="524.00" y2="97.00" stroke="#ff7f0e" stroke-width="2" stroke-dasharray="5 4"/>
<text x="530.00" y="101.00" font-family="Arial, sans-serif" font-size="11">min</text>
<line x1="502.00" y1="114.00" x2="524.00" y2="114.00" stroke="#2ca02c" stroke-width="2" stroke-dasharray="2 4"/>
<text x="530.00" y="118.00" font-family="Arial, sans-serif" font-size="11">max</text>
<text x="682.00" y="386.00" text-anchor="middle" font-family="Arial, sans-serif" font-size="11">Vcc-relative table voltage (V)</text>
<text transform="translate(442.00 205.00) rotate(-90)" text-anchor="middle" font-family="Arial, sans-serif" font-size="11">Current (mA)</text>
<rect x="72.00" y="418.00" width="800.00" height="144.00" fill="#ffffff" stroke="#c8c8c8"/>
<text x="82.00" y="436.00" font-family="Arial, sans-serif" font-size="12" font-weight="700">Operating-point summary</text>
<text x="82.00" y="454.00" font-family="Arial, sans-serif" font-size="10" font-weight="700" fill="#333">Table</text>
<text x="174.00" y="454.00" font-family="Arial, sans-serif" font-size="10" font-weight="700" fill="#333">Corner</text>
<text x="242.00" y="454.00" font-family="Arial, sans-serif" font-size="10" font-weight="700" fill="#333">Vout</text>
<text x="332.00" y="454.00" font-family="Arial, sans-serif" font-size="10" font-weight="700" fill="#333">Iop</text>
<text x="422.00" y="454.00" font-family="Arial, sans-serif" font-size="10" font-weight="700" fill="#333">Zout</text>
<text x="512.00" y="454.00" font-family="Arial, sans-serif" font-size="10" font-weight="700" fill="#333">Rseries</text>
<text x="82.00" y="473.00" font-family="Arial, sans-serif" font-size="10" fill="#1f77b4">pulldown</text>
<text x="174.00" y="473.00" font-family="Arial, sans-serif" font-size="10" fill="#1f77b4">typ</text>
<text x="242.00" y="473.00" font-family="Arial, sans-serif" font-size="10" fill="#1f77b4">0.4023 V</text>
<text x="332.00" y="473.00" font-family="Arial, sans-serif" font-size="10" fill="#1f77b4">14 mA</text>
<text x="422.00" y="473.00" font-family="Arial, sans-serif" font-size="10" fill="#1f77b4">28.8 ohm</text>
<text x="512.00" y="473.00" font-family="Arial, sans-serif" font-size="10" fill="#1f77b4">21.2 ohm</text>
<text x="82.00" y="492.00" font-family="Arial, sans-serif" font-size="10" fill="#ff7f0e">pulldown</text>
<text x="174.00" y="492.00" font-family="Arial, sans-serif" font-size="10" fill="#ff7f0e">min</text>
<text x="242.00" y="492.00" font-family="Arial, sans-serif" font-size="10" fill="#ff7f0e">0.61 V</text>
<text x="332.00" y="492.00" font-family="Arial, sans-serif" font-size="10" fill="#ff7f0e">7.6 mA</text>
<text x="422.00" y="492.00" font-family="Arial, sans-serif" font-size="10" fill="#ff7f0e">80.3 ohm</text>
<text x="512.00" y="492.00" font-family="Arial, sans-serif" font-size="10" fill="#ff7f0e">-30.3 ohm</text>
<text x="82.00" y="511.00" font-family="Arial, sans-serif" font-size="10" fill="#2ca02c">pulldown</text>
<text x="174.00" y="511.00" font-family="Arial, sans-serif" font-size="10" fill="#2ca02c">max</text>
<text x="242.00" y="511.00" font-family="Arial, sans-serif" font-size="10" fill="#2ca02c">0.2465 V</text>
<text x="332.00" y="511.00" font-family="Arial, sans-serif" font-size="10" fill="#2ca02c">19 mA</text>
<text x="422.00" y="511.00" font-family="Arial, sans-serif" font-size="10" fill="#2ca02c">12.8 ohm</text>
<text x="512.00" y="511.00" font-family="Arial, sans-serif" font-size="10" fill="#2ca02c">37.2 ohm</text>
<text x="82.00" y="530.00" font-family="Arial, sans-serif" font-size="10" fill="#1f77b4">pullup</text>
<text x="174.00" y="530.00" font-family="Arial, sans-serif" font-size="10" fill="#1f77b4">typ</text>
<text x="242.00" y="530.00" font-family="Arial, sans-serif" font-size="10" fill="#1f77b4">0.5316 V</text>
<text x="332.00" y="530.00" font-family="Arial, sans-serif" font-size="10" fill="#1f77b4">-11 mA</text>
<text x="422.00" y="530.00" font-family="Arial, sans-serif" font-size="10" fill="#1f77b4">53.5 ohm</text>
<text x="512.00" y="530.00" font-family="Arial, sans-serif" font-size="10" fill="#1f77b4">-3.461 ohm</text>
<text x="82.00" y="549.00" font-family="Arial, sans-serif" font-size="10" fill="#ff7f0e">pullup</text>
<text x="174.00" y="549.00" font-family="Arial, sans-serif" font-size="10" fill="#ff7f0e">min</text>
<text x="242.00" y="549.00" font-family="Arial, sans-serif" font-size="10" fill="#ff7f0e">0.2905 V</text>
<text x="332.00" y="549.00" font-family="Arial, sans-serif" font-size="10" fill="#ff7f0e">-5.8 mA</text>
<text x="422.00" y="549.00" font-family="Arial, sans-serif" font-size="10" fill="#ff7f0e">120 ohm</text>
<text x="512.00" y="549.00" font-family="Arial, sans-serif" font-size="10" fill="#ff7f0e">-70.4 ohm</text>
<text x="82.00" y="568.00" font-family="Arial, sans-serif" font-size="10" fill="#2ca02c">pullup</text>
<text x="174.00" y="568.00" font-family="Arial, sans-serif" font-size="10" fill="#2ca02c">max</text>
<text x="242.00" y="568.00" font-family="Arial, sans-serif" font-size="10" fill="#2ca02c">0.8285 V</text>
<text x="332.00" y="568.00" font-family="Arial, sans-serif" font-size="10" fill="#2ca02c">-17 mA</text>
<text x="422.00" y="568.00" font-family="Arial, sans-serif" font-size="10" fill="#2ca02c">23 ohm</text>
<text x="512.00" y="568.00" font-family="Arial, sans-serif" font-size="10" fill="#2ca02c">27 ohm</text>
</svg>