<svg xmlns="http://www.w3.org/2000/svg" width="900" height="620" viewBox="0 0 900 620">
<rect width="100%" height="100%" fill="#ffffff"/>
<text x="72" y="26" font-family="Arial, sans-serif" font-size="16" font-weight="700">E34_GPIO_I3C_I2C_SLV_1V8_01 Zout Load-Line Curves</text>
<text x="72" y="45" font-family="Arial, sans-serif" font-size="11" fill="#555">Rload=50 ohm; solid=device I-V, dashed=load line, circles=operating points</text>
<rect x="72.00" y="62.00" width="380.00" height="286.00" fill="#fbfbfb" stroke="#c8c8c8"/>
<text x="80.00" y="50.00" font-family="Arial, sans-serif" font-size="13" font-weight="700">[Pulldown] Rload to Vdd</text>
<line x1="72.00" y1="62.00" x2="72.00" y2="348.00" stroke="#ececec"/>
<text x="72.00" y="366.00" text-anchor="middle" font-family="Arial, sans-serif" font-size="10">-2</text>
<line x1="167.00" y1="62.00" x2="167.00" y2="348.00" stroke="#ececec"/>
<text x="167.00" y="366.00" text-anchor="middle" font-family="Arial, sans-serif" font-size="10">-0.558</text>
<line x1="262.00" y1="62.00" x2="262.00" y2="348.00" stroke="#ececec"/>
<text x="262.00" y="366.00" text-anchor="middle" font-family="Arial, sans-serif" font-size="10">0.9</text>
<line x1="357.00" y1="62.00" x2="357.00" y2="348.00" stroke="#ececec"/>
<text x="357.00" y="366.00" text-anchor="middle" font-family="Arial, sans-serif" font-size="10">2.4</text>
<line x1="452.00" y1="62.00" x2="452.00" y2="348.00" stroke="#ececec"/>
<text x="452.00" y="366.00" text-anchor="middle" font-family="Arial, sans-serif" font-size="10">3.8</text>
<line x1="72.00" y1="348.00" x2="452.00" y2="348.00" stroke="#ececec"/>
<text x="65.00" y="352.00" text-anchor="end" font-family="Arial, sans-serif" font-size="10">-78</text>
<line x1="72.00" y1="276.50" x2="452.00" y2="276.50" stroke="#ececec"/>
<text x="65.00" y="280.50" text-anchor="end" font-family="Arial, sans-serif" font-size="10">-32</text>
<line x1="72.00" y1="205.00" x2="452.00" y2="205.00" stroke="#ececec"/>
<text x="65.00" y="209.00" text-anchor="end" font-family="Arial, sans-serif" font-size="10">15</text>
<line x1="72.00" y1="133.50" x2="452.00" y2="133.50" stroke="#ececec"/>
<text x="65.00" y="137.50" text-anchor="end" font-family="Arial, sans-serif" font-size="10">61</text>
<line x1="72.00" y1="62.00" x2="452.00" y2="62.00" stroke="#ececec"/>
<text x="65.00" y="66.00" text-anchor="end" font-family="Arial, sans-serif" font-size="10">1.1e+02</text>
<line x1="203.36" y1="62" x2="203.36" y2="348" stroke="#777" stroke-dasharray="4 4"/>
<line x1="72.0" y1="227.93" x2="452.0" y2="227.93" stroke="#777" stroke-dasharray="4 4"/>
<polyline fill="none" stroke="#1f77b4" stroke-width="1.8" points="86.07,297.19 91.29,297.19 97.15,297.19 102.36,297.19 108.23,297.19 113.44,297.19 119.30,297.19 124.52,297.19 130.38,297.19 135.59,297.19 141.46,297.19 146.02,297.19 146.67,297.19 147.32,297.19 147.97,297.19 148.63,297.19 149.28,297.12 149.93,296.95 150.58,296.71 151.23,296.43 151.88,296.10 152.53,295.74 153.19,295.35 153.84,294.95 154.49,294.52 155.14,294.08 155.79,293.62 156.44,293.14 157.75,292.15 161.66,288.79 162.96,287.54 163.61,286.89 164.26,286.22 164.91,285.54 165.57,284.83 166.22,284.11 166.87,283.38 167.52,282.62 168.17,281.85 168.82,281.06 169.48,280.26 170.13,279.44 170.78,278.60 171.43,277.75 172.08,276.88 172.73,276.00 174.04,274.19 179.90,265.51 185.11,257.30 190.98,247.82 196.19,239.35 202.05,229.97 203.36,227.93 207.27,221.95 212.48,214.43 218.34,206.75 223.56,200.76 229.42,195.05 234.63,190.89 237.89,188.72 240.50,187.21 245.71,184.77 251.57,182.82 256.79,181.63 262.65,180.71 267.86,180.12 273.08,179.66 278.94,179.23 284.15,178.91 290.02,178.59 295.23,178.33 301.09,178.07 306.31,177.85 308.91,177.74 312.17,177.61 317.38,177.41 320.64,177.29 322.60,177.22 328.46,177.02 332.37,176.89 333.67,176.84 339.54,176.65 344.75,176.47 350.61,176.20 355.83,175.76 361.69,174.86 366.90,173.58 372.77,171.53 377.98,169.17 383.19,166.35 389.06,162.69 394.27,159.04 400.13,154.53 405.35,150.18 411.21,144.90 416.42,139.83 422.29,133.68 427.50,127.79 433.36,120.67 437.93,114.79"/>
<polyline fill="none" stroke="#ff7f0e" stroke-width="1.8" stroke-dasharray="5 4" points="86.07,273.29 91.29,273.29 97.15,273.29 102.36,273.29 108.23,273.29 113.44,273.29 119.30,273.29 124.52,273.29 130.38,273.29 135.59,273.29 141.46,273.29 146.02,273.29 146.67,273.29 147.32,273.29 147.97,273.29 148.63,273.29 149.28,273.29 149.93,273.29 150.58,273.29 151.23,273.29 151.88,273.29 152.53,273.29 153.19,273.24 153.84,273.11 154.49,272.92 155.14,272.68 155.79,272.40 156.44,272.09 157.75,271.39 161.66,268.90 162.96,267.97 163.61,267.49 164.26,267.00 164.91,266.49 165.57,265.98 166.22,265.46 166.87,264.92 167.52,264.38 168.17,263.82 168.82,263.26 169.48,262.69 170.13,262.10 170.78,261.51 171.43,260.91 172.08,260.30 172.73,259.68 174.04,258.43 179.90,252.44 185.11,246.86 190.98,240.56 196.19,235.08 202.05,229.19 203.36,227.93 207.27,224.27 212.48,219.71 218.34,215.11 223.56,211.52 229.42,208.10 234.63,205.61 237.89,204.32 240.50,203.43 245.71,202.02 251.57,200.92 256.79,200.27 262.65,199.77 267.86,199.43 273.08,199.16 278.94,198.90 284.15,198.70 290.02,198.49 295.23,198.33 301.09,198.16 306.31,198.01 308.91,197.94 312.17,197.86 317.38,197.73 320.64,197.65 322.60,197.61 328.46,197.46 332.37,197.34 333.67,197.29 339.54,196.99 344.75,196.54 350.61,195.72 355.83,194.69 361.69,193.14 366.90,191.43 372.77,189.13 377.98,186.77 383.19,184.11 389.06,180.78 394.27,177.51 400.13,173.47 405.35,169.54 411.21,164.76 416.42,160.20 422.29,155.02 427.50,150.42 433.36,145.25 437.93,141.22"/>
<polyline fill="none" stroke="#2ca02c" stroke-width="1.8" stroke-dasharray="2 4" points="86.07,320.32 91.29,320.32 97.15,320.32 102.36,320.32 108.23,320.32 113.44,320.32 119.30,320.32 124.52,320.32 130.38,320.32 135.59,320.32 141.46,320.32 146.02,320.32 146.67,320.21 147.32,320.00 147.97,319.74 148.63,319.42 149.28,319.08 149.93,318.71 150.58,318.32 151.23,317.92 151.88,317.50 152.53,317.07 153.19,316.62 153.84,316.16 154.49,315.68 155.14,315.18 155.79,314.67 156.44,314.15 157.75,313.04 161.66,309.26 162.96,307.82 163.61,307.07 164.26,306.29 164.91,305.48 165.57,304.65 166.22,303.80 166.87,302.91 167.52,302.00 168.17,301.07 168.82,300.11 169.48,299.12 170.13,298.10 170.78,297.06 171.43,296.00 172.08,294.91 172.73,293.79 174.04,291.49 179.90,280.21 185.11,269.28 190.98,256.33 196.19,244.42 202.05,230.91 203.36,227.93 207.27,219.14 212.48,207.98 218.34,196.54 223.56,187.61 229.42,179.11 234.63,172.92 237.89,169.68 240.50,167.41 245.71,163.66 251.57,160.56 256.79,158.60 262.65,157.04 267.86,156.06 273.08,155.31 278.94,154.65 284.15,154.16 290.02,153.68 295.23,153.31 301.09,152.92 306.31,152.60 308.91,152.44 312.17,152.26 317.38,151.97 320.64,151.80 322.60,151.70 328.46,151.41 332.37,151.22 333.67,151.15 339.54,150.88 344.75,150.64 350.61,150.38 355.83,150.15 361.69,149.83 366.90,149.33 372.77,148.21 377.98,146.48 383.19,143.99 389.06,140.34 394.27,136.47 400.13,131.58 405.35,126.84 411.21,121.14 416.42,115.77 422.29,109.34 427.50,103.24 433.36,95.86 437.93,89.68"/>
<polyline fill="none" stroke="#1f77b4" stroke-width="1.1" stroke-dasharray="6 4" points="72.00,110.25 76.81,112.52 81.62,114.80 86.43,117.08 91.24,119.35 96.05,121.63 100.86,123.91 105.67,126.18 110.48,128.46 115.29,130.74 120.10,133.01 124.91,135.29 129.72,137.57 134.53,139.84 139.34,142.12 144.15,144.40 148.96,146.67 153.77,148.95 158.58,151.23 163.39,153.50 168.20,155.78 173.01,158.06 177.82,160.33 182.63,162.61 187.44,164.89 192.25,167.16 197.06,169.44 201.87,171.71 206.68,173.99 211.49,176.27 216.30,178.54 221.11,180.82 225.92,183.10 230.73,185.37 235.54,187.65 240.35,189.93 245.16,192.20 249.97,194.48 254.78,196.76 259.59,199.03 264.41,201.31 269.22,203.59 274.03,205.86 278.84,208.14 283.65,210.42 288.46,212.69 293.27,214.97 298.08,217.25 302.89,219.52 307.70,221.80 312.51,224.08 317.32,226.35 322.13,228.63 326.94,230.91 331.75,233.18 336.56,235.46 341.37,237.74 346.18,240.01 350.99,242.29 355.80,244.57 360.61,246.84 365.42,249.12 370.23,251.40 375.04,253.67 379.85,255.95 384.66,258.23 389.47,260.50 394.28,262.78 399.09,265.06 403.90,267.33 408.71,269.61 413.52,271.88 418.33,274.16 423.14,276.44 427.95,278.71 432.76,280.99 437.57,283.27 442.38,285.54 447.19,287.82 452.00,290.10"/>
<circle cx="237.85" cy="188.74" r="4.6" fill="#ffffff" stroke="#1f77b4" stroke-width="2"/>
<text x="243.85" y="182.74" font-family="Arial, sans-serif" font-size="10" fill="#1f77b4">typ 20.8 ohm</text>
<polyline fill="none" stroke="#ff7f0e" stroke-width="1.1" stroke-dasharray="6 4" points="72.00,115.80 76.81,118.07 81.62,120.35 86.43,122.63 91.24,124.90 96.05,127.18 100.86,129.46 105.67,131.73 110.48,134.01 115.29,136.29 120.10,138.56 124.91,140.84 129.72,143.12 134.53,145.39 139.34,147.67 144.15,149.95 148.96,152.22 153.77,154.50 158.58,156.78 163.39,159.05 168.20,161.33 173.01,163.61 177.82,165.88 182.63,168.16 187.44,170.44 192.25,172.71 197.06,174.99 201.87,177.27 206.68,179.54 211.49,181.82 216.30,184.10 221.11,186.37 225.92,188.65 230.73,190.93 235.54,193.20 240.35,195.48 245.16,197.76 249.97,200.03 254.78,202.31 259.59,204.58 264.41,206.86 269.22,209.14 274.03,211.41 278.84,213.69 283.65,215.97 288.46,218.24 293.27,220.52 298.08,222.80 302.89,225.07 307.70,227.35 312.51,229.63 317.32,231.90 322.13,234.18 326.94,236.46 331.75,238.73 336.56,241.01 341.37,243.29 346.18,245.56 350.99,247.84 355.80,250.12 360.61,252.39 365.42,254.67 370.23,256.95 375.04,259.22 379.85,261.50 384.66,263.78 389.47,266.05 394.28,268.33 399.09,270.61 403.90,272.88 408.71,275.16 413.52,277.44 418.33,279.71 423.14,281.99 427.95,284.27 432.76,286.54 437.57,288.82 442.38,291.10 447.19,293.37 452.00,295.65"/>
<circle cx="251.80" cy="200.90" r="4.6" fill="#ffffff" stroke="#ff7f0e" stroke-width="2"/>
<text x="257.80" y="194.90" font-family="Arial, sans-serif" font-size="10" fill="#ff7f0e">min 42.4 ohm</text>
<polyline fill="none" stroke="#2ca02c" stroke-width="1.1" stroke-dasharray="6 4" points="72.00,104.70 76.81,106.97 81.62,109.25 86.43,111.53 91.24,113.80 96.05,116.08 100.86,118.36 105.67,120.63 110.48,122.91 115.29,125.19 120.10,127.46 124.91,129.74 129.72,132.01 134.53,134.29 139.34,136.57 144.15,138.84 148.96,141.12 153.77,143.40 158.58,145.67 163.39,147.95 168.20,150.23 173.01,152.50 177.82,154.78 182.63,157.06 187.44,159.33 192.25,161.61 197.06,163.89 201.87,166.16 206.68,168.44 211.49,170.72 216.30,172.99 221.11,175.27 225.92,177.55 230.73,179.82 235.54,182.10 240.35,184.38 245.16,186.65 249.97,188.93 254.78,191.21 259.59,193.48 264.41,195.76 269.22,198.04 274.03,200.31 278.84,202.59 283.65,204.87 288.46,207.14 293.27,209.42 298.08,211.70 302.89,213.97 307.70,216.25 312.51,218.53 317.32,220.80 322.13,223.08 326.94,225.36 331.75,227.63 336.56,229.91 341.37,232.19 346.18,234.46 350.99,236.74 355.80,239.01 360.61,241.29 365.42,243.57 370.23,245.84 375.04,248.12 379.85,250.40 384.66,252.67 389.47,254.95 394.28,257.23 399.09,259.50 403.90,261.78 408.71,264.06 413.52,266.33 418.33,268.61 423.14,270.89 427.95,273.16 432.76,275.44 437.57,277.72 442.38,279.99 447.19,282.27 452.00,284.55"/>
<circle cx="229.37" cy="179.18" r="4.6" fill="#ffffff" stroke="#2ca02c" stroke-width="2"/>
<text x="235.37" y="173.18" font-family="Arial, sans-serif" font-size="10" fill="#2ca02c">max 12.6 ohm</text>
<line x1="82.00" y1="80.00" x2="104.00" y2="80.00" stroke="#1f77b4" stroke-width="2"/>
<text x="110.00" y="84.00" font-family="Arial, sans-serif" font-size="11">typ</text>
<line x1="82.00" y1="97.00" x2="104.00" y2="97.00" stroke="#ff7f0e" stroke-width="2" stroke-dasharray="5 4"/>
<text x="110.00" y="101.00" font-family="Arial, sans-serif" font-size="11">min</text>
<line x1="82.00" y1="114.00" x2="104.00" y2="114.00" stroke="#2ca02c" stroke-width="2" stroke-dasharray="2 4"/>
<text x="110.00" y="118.00" font-family="Arial, sans-serif" font-size="11">max</text>
<text x="262.00" y="386.00" text-anchor="middle" font-family="Arial, sans-serif" font-size="11">Output voltage (V)</text>
<text transform="translate(22.00 205.00) rotate(-90)" text-anchor="middle" font-family="Arial, sans-serif" font-size="11">Current (mA)</text>
<rect x="492.00" y="62.00" width="380.00" height="286.00" fill="#fbfbfb" stroke="#c8c8c8"/>
<text x="500.00" y="50.00" font-family="Arial, sans-serif" font-size="13" font-weight="700">[Pullup] Rload to GND</text>
<line x1="492.00" y1="62.00" x2="492.00" y2="348.00" stroke="#ececec"/>
<text x="492.00" y="366.00" text-anchor="middle" font-family="Arial, sans-serif" font-size="10">-2</text>
<line x1="587.00" y1="62.00" x2="587.00" y2="348.00" stroke="#ececec"/>
<text x="587.00" y="366.00" text-anchor="middle" font-family="Arial, sans-serif" font-size="10">-0.558</text>
<line x1="682.00" y1="62.00" x2="682.00" y2="348.00" stroke="#ececec"/>
<text x="682.00" y="366.00" text-anchor="middle" font-family="Arial, sans-serif" font-size="10">0.9</text>
<line x1="777.00" y1="62.00" x2="777.00" y2="348.00" stroke="#ececec"/>
<text x="777.00" y="366.00" text-anchor="middle" font-family="Arial, sans-serif" font-size="10">2.4</text>
<line x1="872.00" y1="62.00" x2="872.00" y2="348.00" stroke="#ececec"/>
<text x="872.00" y="366.00" text-anchor="middle" font-family="Arial, sans-serif" font-size="10">3.8</text>
<line x1="492.00" y1="348.00" x2="872.00" y2="348.00" stroke="#ececec"/>
<text x="485.00" y="352.00" text-anchor="end" font-family="Arial, sans-serif" font-size="10">-99</text>
<line x1="492.00" y1="276.50" x2="872.00" y2="276.50" stroke="#ececec"/>
<text x="485.00" y="280.50" text-anchor="end" font-family="Arial, sans-serif" font-size="10">-39</text>
<line x1="492.00" y1="205.00" x2="872.00" y2="205.00" stroke="#ececec"/>
<text x="485.00" y="209.00" text-anchor="end" font-family="Arial, sans-serif" font-size="10">20</text>
<line x1="492.00" y1="133.50" x2="872.00" y2="133.50" stroke="#ececec"/>
<text x="485.00" y="137.50" text-anchor="end" font-family="Arial, sans-serif" font-size="10">80</text>
<line x1="492.00" y1="62.00" x2="872.00" y2="62.00" stroke="#ececec"/>
<text x="485.00" y="66.00" text-anchor="end" font-family="Arial, sans-serif" font-size="10">1.4e+02</text>
<line x1="623.36" y1="62" x2="623.36" y2="348" stroke="#777" stroke-dasharray="4 4"/>
<line x1="492.0" y1="229.30" x2="872.0" y2="229.30" stroke="#777" stroke-dasharray="4 4"/>
<polyline fill="none" stroke="#1f77b4" stroke-width="1.8" points="506.07,112.25 506.73,113.03 507.38,113.80 508.03,114.57 508.68,115.33 509.33,116.09 511.29,118.36 513.89,121.36 515.85,123.57 517.80,125.76 518.45,126.49 519.11,127.21 519.76,127.93 520.41,128.64 522.36,130.78 528.23,137.05 533.44,142.48 539.30,148.48 544.52,153.74 550.38,159.60 555.59,164.79 561.46,170.59 566.67,175.71 571.88,180.81 577.75,186.52 582.96,191.55 588.82,197.18 594.04,202.15 599.90,207.69 605.11,212.59 610.98,218.05 614.89,221.65 616.84,223.43 617.49,224.02 618.15,224.61 622.05,228.14 623.36,229.30 627.27,232.69 628.57,233.78 629.22,234.31 629.87,234.84 630.53,235.37 631.18,235.89 632.48,236.91 638.34,241.29 639.00,241.75 640.95,243.10 642.91,244.41 644.21,245.25 646.81,246.87 648.77,248.03 650.07,248.77 652.03,249.84 653.98,250.86 655.29,251.52 657.89,252.76 658.54,253.06 660.50,253.91 665.71,255.96 667.01,256.42 671.57,257.86 676.79,259.24 679.39,259.82 682.65,260.47 687.86,261.34 693.08,262.04 698.94,262.68 704.15,263.14 710.02,263.59 715.23,263.93 721.09,264.28 726.31,264.55 728.91,264.68 732.17,264.84 737.38,265.07 740.64,265.20 742.60,265.28 748.46,265.51 752.37,265.66 753.67,265.70 759.54,265.91 764.75,266.08 770.61,266.27 775.83,266.43 781.69,266.60 786.90,266.75 792.77,266.91 798.63,267.07 803.19,267.07 809.06,267.07 813.62,267.07 814.27,267.07 820.13,267.07 825.35,267.07 831.21,267.07 836.42,267.07 842.29,267.07 847.50,267.07 853.36,267.07 857.93,267.07"/>
<polyline fill="none" stroke="#ff7f0e" stroke-width="1.8" stroke-dasharray="5 4" points="506.07,139.47 506.73,140.09 507.38,140.70 508.03,141.31 508.68,141.92 509.33,142.54 511.29,144.38 513.89,146.83 515.85,148.67 517.80,150.50 518.45,151.12 519.11,151.73 519.76,152.34 520.41,152.94 522.36,154.75 528.23,160.07 533.44,164.65 539.30,169.67 544.52,174.01 550.38,178.79 555.59,182.95 561.46,187.54 566.67,191.54 571.88,195.45 577.75,199.76 582.96,203.50 588.82,207.59 594.04,211.13 599.90,215.00 605.11,218.33 610.98,221.98 614.89,224.34 616.84,225.50 617.49,225.88 618.15,226.27 622.05,228.55 623.36,229.30 627.27,231.47 628.57,232.16 629.22,232.49 629.87,232.83 630.53,233.16 631.18,233.49 632.48,234.13 638.34,236.85 639.00,237.13 640.95,237.96 642.91,238.76 644.21,239.27 646.81,240.26 648.77,240.95 650.07,241.40 652.03,242.04 653.98,242.64 655.29,243.02 657.89,243.74 658.54,243.91 660.50,244.40 665.71,245.53 667.01,245.77 671.57,246.52 676.79,247.19 679.39,247.47 682.65,247.77 687.86,248.16 693.08,248.48 698.94,248.78 704.15,249.01 710.02,249.23 715.23,249.41 721.09,249.59 726.31,249.74 728.91,249.81 732.17,249.89 737.38,250.02 740.64,250.10 742.60,250.14 748.46,250.27 752.37,250.36 753.67,250.38 759.54,250.50 764.75,250.60 770.61,250.71 775.83,250.80 781.69,250.90 786.90,250.90 792.77,250.90 798.63,250.90 803.19,250.90 809.06,250.90 813.62,250.90 814.27,250.90 820.13,250.90 825.35,250.90 831.21,250.90 836.42,250.90 842.29,250.90 847.50,250.90 853.36,250.90 857.93,250.90"/>
<polyline fill="none" stroke="#2ca02c" stroke-width="1.8" stroke-dasharray="2 4" points="506.07,89.68 506.73,90.53 507.38,91.40 508.03,92.25 508.68,93.10 509.33,93.95 511.29,96.48 513.89,99.80 515.85,102.26 517.80,104.68 518.45,105.47 519.11,106.28 519.76,107.06 520.41,107.86 522.36,110.21 528.23,117.07 533.44,123.00 539.30,129.55 544.52,135.33 550.38,141.84 555.59,147.64 561.46,154.20 566.67,160.07 571.88,165.99 577.75,172.71 582.96,178.75 588.82,185.65 594.04,191.89 599.90,199.07 605.11,205.60 610.98,213.11 614.89,218.16 616.84,220.63 617.49,221.47 618.15,222.33 622.05,227.58 623.36,229.30 627.27,234.36 628.57,235.99 629.22,236.79 629.87,237.58 630.53,238.35 631.18,239.10 632.48,240.58 638.34,247.01 639.00,247.69 640.95,249.67 642.91,251.58 644.21,252.81 646.81,255.17 648.77,256.85 650.07,257.93 652.03,259.49 653.98,260.98 655.29,261.93 657.89,263.74 658.54,264.17 660.50,265.43 665.71,268.47 667.01,269.16 671.57,271.38 676.79,273.55 679.39,274.51 682.65,275.59 687.86,277.07 693.08,278.28 698.94,279.39 704.15,280.19 710.02,280.93 715.23,281.50 721.09,282.05 726.31,282.48 728.91,282.68 732.17,282.91 737.38,283.26 740.64,283.47 742.60,283.59 748.46,283.93 752.37,284.14 753.67,284.21 759.54,284.51 764.75,284.76 770.61,285.03 775.83,285.26 781.69,285.51 786.90,285.72 792.77,285.95 798.63,286.17 803.19,286.34 809.06,286.55 813.62,286.71 814.27,286.73 820.13,286.73 825.35,286.73 831.21,286.73 836.42,286.73 842.29,286.73 847.50,286.73 853.36,286.73 857.93,286.73"/>
<polyline fill="none" stroke="#1f77b4" stroke-width="1.1" stroke-dasharray="6 4" points="492.00,321.19 496.81,319.41 501.62,317.63 506.43,315.86 511.24,314.08 516.05,312.30 520.86,310.52 525.67,308.75 530.48,306.97 535.29,305.19 540.10,303.41 544.91,301.64 549.72,299.86 554.53,298.08 559.34,296.30 564.15,294.53 568.96,292.75 573.77,290.97 578.58,289.19 583.39,287.41 588.20,285.64 593.01,283.86 597.82,282.08 602.63,280.30 607.44,278.53 612.25,276.75 617.06,274.97 621.87,273.19 626.68,271.42 631.49,269.64 636.30,267.86 641.11,266.08 645.92,264.31 650.73,262.53 655.54,260.75 660.35,258.97 665.16,257.20 669.97,255.42 674.78,253.64 679.59,251.86 684.41,250.08 689.22,248.31 694.03,246.53 698.84,244.75 703.65,242.97 708.46,241.20 713.27,239.42 718.08,237.64 722.89,235.86 727.70,234.09 732.51,232.31 737.32,230.53 742.13,228.75 746.94,226.98 751.75,225.20 756.56,223.42 761.37,221.64 766.18,219.87 770.99,218.09 775.80,216.31 780.61,214.53 785.42,212.76 790.23,210.98 795.04,209.20 799.85,207.42 804.66,205.64 809.47,203.87 814.28,202.09 819.09,200.31 823.90,198.53 828.71,196.76 833.52,194.98 838.33,193.20 843.14,191.42 847.95,189.65 852.76,187.87 857.57,186.09 862.38,184.31 867.19,182.54 872.00,180.76"/>
<circle cx="667.15" cy="256.46" r="4.6" fill="#ffffff" stroke="#1f77b4" stroke-width="2"/>
<text x="673.15" y="250.46" font-family="Arial, sans-serif" font-size="10" fill="#1f77b4">typ 29.8 ohm</text>
<polyline fill="none" stroke="#ff7f0e" stroke-width="1.1" stroke-dasharray="6 4" points="492.00,316.86 496.81,315.08 501.62,313.30 506.43,311.52 511.24,309.74 516.05,307.97 520.86,306.19 525.67,304.41 530.48,302.63 535.29,300.86 540.10,299.08 544.91,297.30 549.72,295.52 554.53,293.75 559.34,291.97 564.15,290.19 568.96,288.41 573.77,286.64 578.58,284.86 583.39,283.08 588.20,281.30 593.01,279.53 597.82,277.75 602.63,275.97 607.44,274.19 612.25,272.41 617.06,270.64 621.87,268.86 626.68,267.08 631.49,265.30 636.30,263.53 641.11,261.75 645.92,259.97 650.73,258.19 655.54,256.42 660.35,254.64 665.16,252.86 669.97,251.08 674.78,249.31 679.59,247.53 684.41,245.75 689.22,243.97 694.03,242.20 698.84,240.42 703.65,238.64 708.46,236.86 713.27,235.08 718.08,233.31 722.89,231.53 727.70,229.75 732.51,227.97 737.32,226.20 742.13,224.42 746.94,222.64 751.75,220.86 756.56,219.09 761.37,217.31 766.18,215.53 770.99,213.75 775.80,211.98 780.61,210.20 785.42,208.42 790.23,206.64 795.04,204.87 799.85,203.09 804.66,201.31 809.47,199.53 814.28,197.76 819.09,195.98 823.90,194.20 828.71,192.42 833.52,190.64 838.33,188.87 843.14,187.09 847.95,185.31 852.76,183.53 857.57,181.76 862.38,179.98 867.19,178.20 872.00,176.42"/>
<circle cx="679.69" cy="247.49" r="4.6" fill="#ffffff" stroke="#ff7f0e" stroke-width="2"/>
<text x="685.69" y="241.49" font-family="Arial, sans-serif" font-size="10" fill="#ff7f0e">min 57.2 ohm</text>
<polyline fill="none" stroke="#2ca02c" stroke-width="1.1" stroke-dasharray="6 4" points="492.00,325.52 496.81,323.75 501.62,321.97 506.43,320.19 511.24,318.41 516.05,316.64 520.86,314.86 525.67,313.08 530.48,311.30 535.29,309.53 540.10,307.75 544.91,305.97 549.72,304.19 554.53,302.41 559.34,300.64 564.15,298.86 568.96,297.08 573.77,295.30 578.58,293.53 583.39,291.75 588.20,289.97 593.01,288.19 597.82,286.42 602.63,284.64 607.44,282.86 612.25,281.08 617.06,279.31 621.87,277.53 626.68,275.75 631.49,273.97 636.30,272.20 641.11,270.42 645.92,268.64 650.73,266.86 655.54,265.08 660.35,263.31 665.16,261.53 669.97,259.75 674.78,257.97 679.59,256.20 684.41,254.42 689.22,252.64 694.03,250.86 698.84,249.09 703.65,247.31 708.46,245.53 713.27,243.75 718.08,241.98 722.89,240.20 727.70,238.42 732.51,236.64 737.32,234.87 742.13,233.09 746.94,231.31 751.75,229.53 756.56,227.76 761.37,225.98 766.18,224.20 770.99,222.42 775.80,220.64 780.61,218.87 785.42,217.09 790.23,215.31 795.04,213.53 799.85,211.76 804.66,209.98 809.47,208.20 814.28,206.42 819.09,204.65 823.90,202.87 828.71,201.09 833.52,199.31 838.33,197.54 843.14,195.76 847.95,193.98 852.76,192.20 857.57,190.43 862.38,188.65 867.19,186.87 872.00,185.09"/>
<circle cx="658.35" cy="264.05" r="4.6" fill="#ffffff" stroke="#2ca02c" stroke-width="2"/>
<text x="664.35" y="258.05" font-family="Arial, sans-serif" font-size="10" fill="#2ca02c">max 18.6 ohm</text>
<line x1="502.00" y1="80.00" x2="524.00" y2="80.00" stroke="#1f77b4" stroke-width="2"/>
<text x="530.00" y="84.00" font-family="Arial, sans-serif" font-size="11">typ</text>
<line x1="502.00" y1="97.00" x2="524.00" y2="97.00" stroke="#ff7f0e" stroke-width="2" stroke-dasharray="5 4"/>
<text x="530.00" y="101.00" font-family="Arial, sans-serif" font-size="11">min</text>
<line x1="502.00" y1="114.00" x2="524.00" y2="114.00" stroke="#2ca02c" stroke-width="2" stroke-dasharray="2 4"/>
<text x="530.00" y="118.00" font-family="Arial, sans-serif" font-size="11">max</text>
<text x="682.00" y="386.00" text-anchor="middle" font-family="Arial, sans-serif" font-size="11">Vcc-relative table voltage (V)</text>
<text transform="translate(442.00 205.00) rotate(-90)" text-anchor="middle" font-family="Arial, sans-serif" font-size="11">Current (mA)</text>
<rect x="72.00" y="418.00" width="800.00" height="144.00" fill="#ffffff" stroke="#c8c8c8"/>
<text x="82.00" y="436.00" font-family="Arial, sans-serif" font-size="12" font-weight="700">Operating-point summary</text>
<text x="82.00" y="454.00" font-family="Arial, sans-serif" font-size="10" font-weight="700" fill="#333">Table</text>
<text x="174.00" y="454.00" font-family="Arial, sans-serif" font-size="10" font-weight="700" fill="#333">Corner</text>
<text x="242.00" y="454.00" font-family="Arial, sans-serif" font-size="10" font-weight="700" fill="#333">Vout</text>
<text x="332.00" y="454.00" font-family="Arial, sans-serif" font-size="10" font-weight="700" fill="#333">Iop</text>
<text x="422.00" y="454.00" font-family="Arial, sans-serif" font-size="10" font-weight="700" fill="#333">Zout</text>
<text x="512.00" y="454.00" font-family="Arial, sans-serif" font-size="10" font-weight="700" fill="#333">Rseries</text>
<text x="82.00" y="473.00" font-family="Arial, sans-serif" font-size="10" fill="#1f77b4">pulldown</text>
<text x="174.00" y="473.00" font-family="Arial, sans-serif" font-size="10" fill="#1f77b4">typ</text>
<text x="242.00" y="473.00" font-family="Arial, sans-serif" font-size="10" fill="#1f77b4">0.5294 V</text>
<text x="332.00" y="473.00" font-family="Arial, sans-serif" font-size="10" fill="#1f77b4">25 mA</text>
<text x="422.00" y="473.00" font-family="Arial, sans-serif" font-size="10" fill="#1f77b4">20.8 ohm</text>
<text x="512.00" y="473.00" font-family="Arial, sans-serif" font-size="10" fill="#1f77b4">29.2 ohm</text>
<text x="82.00" y="492.00" font-family="Arial, sans-serif" font-size="10" fill="#ff7f0e">pulldown</text>
<text x="174.00" y="492.00" font-family="Arial, sans-serif" font-size="10" fill="#ff7f0e">min</text>
<text x="242.00" y="492.00" font-family="Arial, sans-serif" font-size="10" fill="#ff7f0e">0.7434 V</text>
<text x="332.00" y="492.00" font-family="Arial, sans-serif" font-size="10" fill="#ff7f0e">18 mA</text>
<text x="422.00" y="492.00" font-family="Arial, sans-serif" font-size="10" fill="#ff7f0e">42.4 ohm</text>
<text x="512.00" y="492.00" font-family="Arial, sans-serif" font-size="10" fill="#ff7f0e">7.593 ohm</text>
<text x="82.00" y="511.00" font-family="Arial, sans-serif" font-size="10" fill="#2ca02c">pulldown</text>
<text x="174.00" y="511.00" font-family="Arial, sans-serif" font-size="10" fill="#2ca02c">max</text>
<text x="242.00" y="511.00" font-family="Arial, sans-serif" font-size="10" fill="#2ca02c">0.3993 V</text>
<text x="332.00" y="511.00" font-family="Arial, sans-serif" font-size="10" fill="#2ca02c">32 mA</text>
<text x="422.00" y="511.00" font-family="Arial, sans-serif" font-size="10" fill="#2ca02c">12.6 ohm</text>
<text x="512.00" y="511.00" font-family="Arial, sans-serif" font-size="10" fill="#2ca02c">37.4 ohm</text>
<text x="82.00" y="530.00" font-family="Arial, sans-serif" font-size="10" fill="#1f77b4">pullup</text>
<text x="174.00" y="530.00" font-family="Arial, sans-serif" font-size="10" fill="#1f77b4">typ</text>
<text x="242.00" y="530.00" font-family="Arial, sans-serif" font-size="10" fill="#1f77b4">1.128 V</text>
<text x="332.00" y="530.00" font-family="Arial, sans-serif" font-size="10" fill="#1f77b4">-23 mA</text>
<text x="422.00" y="530.00" font-family="Arial, sans-serif" font-size="10" fill="#1f77b4">29.8 ohm</text>
<text x="512.00" y="530.00" font-family="Arial, sans-serif" font-size="10" fill="#1f77b4">20.2 ohm</text>
<text x="82.00" y="549.00" font-family="Arial, sans-serif" font-size="10" fill="#ff7f0e">pullup</text>
<text x="174.00" y="549.00" font-family="Arial, sans-serif" font-size="10" fill="#ff7f0e">min</text>
<text x="242.00" y="549.00" font-family="Arial, sans-serif" font-size="10" fill="#ff7f0e">0.7555 V</text>
<text x="332.00" y="549.00" font-family="Arial, sans-serif" font-size="10" fill="#ff7f0e">-15 mA</text>
<text x="422.00" y="549.00" font-family="Arial, sans-serif" font-size="10" fill="#ff7f0e">57.2 ohm</text>
<text x="512.00" y="549.00" font-family="Arial, sans-serif" font-size="10" fill="#ff7f0e">-7.211 ohm</text>
<text x="82.00" y="568.00" font-family="Arial, sans-serif" font-size="10" fill="#2ca02c">pullup</text>
<text x="174.00" y="568.00" font-family="Arial, sans-serif" font-size="10" fill="#2ca02c">max</text>
<text x="242.00" y="568.00" font-family="Arial, sans-serif" font-size="10" fill="#2ca02c">1.443 V</text>
<text x="332.00" y="568.00" font-family="Arial, sans-serif" font-size="10" fill="#2ca02c">-29 mA</text>
<text x="422.00" y="568.00" font-family="Arial, sans-serif" font-size="10" fill="#2ca02c">18.6 ohm</text>
<text x="512.00" y="568.00" font-family="Arial, sans-serif" font-size="10" fill="#2ca02c">31.4 ohm</text>
</svg>