<svg xmlns="http://www.w3.org/2000/svg" width="900" height="620" viewBox="0 0 900 620">
<rect width="100%" height="100%" fill="#ffffff"/>
<text x="72" y="26" font-family="Arial, sans-serif" font-size="16" font-weight="700">E34_GPIO_I2CSCLIN_1V2_00_ISOSW Zout Load-Line Curves</text>
<text x="72" y="45" font-family="Arial, sans-serif" font-size="11" fill="#555">Rload=50 ohm; solid=device I-V, dashed=load line, circles=operating points</text>
<rect x="72.00" y="62.00" width="380.00" height="286.00" fill="#fbfbfb" stroke="#c8c8c8"/>
<text x="80.00" y="50.00" font-family="Arial, sans-serif" font-size="13" font-weight="700">[Pulldown] Rload to Vdd</text>
<line x1="72.00" y1="62.00" x2="72.00" y2="348.00" stroke="#ececec"/>
<text x="72.00" y="366.00" text-anchor="middle" font-family="Arial, sans-serif" font-size="10">-1.3</text>
<line x1="167.00" y1="62.00" x2="167.00" y2="348.00" stroke="#ececec"/>
<text x="167.00" y="366.00" text-anchor="middle" font-family="Arial, sans-serif" font-size="10">-0.372</text>
<line x1="262.00" y1="62.00" x2="262.00" y2="348.00" stroke="#ececec"/>
<text x="262.00" y="366.00" text-anchor="middle" font-family="Arial, sans-serif" font-size="10">0.6</text>
<line x1="357.00" y1="62.00" x2="357.00" y2="348.00" stroke="#ececec"/>
<text x="357.00" y="366.00" text-anchor="middle" font-family="Arial, sans-serif" font-size="10">1.6</text>
<line x1="452.00" y1="62.00" x2="452.00" y2="348.00" stroke="#ececec"/>
<text x="452.00" y="366.00" text-anchor="middle" font-family="Arial, sans-serif" font-size="10">2.5</text>
<line x1="72.00" y1="348.00" x2="452.00" y2="348.00" stroke="#ececec"/>
<text x="65.00" y="352.00" text-anchor="end" font-family="Arial, sans-serif" font-size="10">-36</text>
<line x1="72.00" y1="276.50" x2="452.00" y2="276.50" stroke="#ececec"/>
<text x="65.00" y="280.50" text-anchor="end" font-family="Arial, sans-serif" font-size="10">-12</text>
<line x1="72.00" y1="205.00" x2="452.00" y2="205.00" stroke="#ececec"/>
<text x="65.00" y="209.00" text-anchor="end" font-family="Arial, sans-serif" font-size="10">12</text>
<line x1="72.00" y1="133.50" x2="452.00" y2="133.50" stroke="#ececec"/>
<text x="65.00" y="137.50" text-anchor="end" font-family="Arial, sans-serif" font-size="10">36</text>
<line x1="72.00" y1="62.00" x2="452.00" y2="62.00" stroke="#ececec"/>
<text x="65.00" y="66.00" text-anchor="end" font-family="Arial, sans-serif" font-size="10">60</text>
<line x1="203.36" y1="62" x2="203.36" y2="348" stroke="#777" stroke-dasharray="4 4"/>
<line x1="72.0" y1="241.04" x2="452.0" y2="241.04" stroke="#777" stroke-dasharray="4 4"/>
<polyline fill="none" stroke="#1f77b4" stroke-width="1.8" points="86.07,252.56 91.94,252.56 96.83,252.56 102.69,252.56 108.55,252.56 113.44,252.56 119.30,252.56 124.19,252.56 130.06,252.56 134.94,252.56 139.83,252.49 140.81,252.46 141.78,252.43 142.76,252.40 143.74,252.36 144.72,252.31 145.69,252.26 146.67,252.20 147.65,252.14 148.63,252.07 149.60,251.99 150.58,251.90 151.56,251.81 152.53,251.71 153.51,251.60 154.49,251.48 155.47,251.35 156.44,251.21 157.42,251.06 158.40,250.91 159.38,250.74 160.35,250.57 161.33,250.38 162.31,250.19 163.29,250.00 169.15,248.69 174.04,247.52 179.90,246.12 185.77,244.76 190.65,243.67 196.52,242.41 201.40,241.42 203.36,241.04 207.27,240.30 213.13,239.26 218.02,238.47 223.88,237.61 229.75,236.87 234.63,236.34 240.50,235.83 246.36,235.46 251.25,235.24 257.11,235.08 262.98,234.99 267.86,234.93 273.73,234.89 278.62,234.86 284.48,234.83 290.34,234.80 295.23,234.78 301.09,234.76 304.03,234.75 306.96,234.74 308.91,234.73 309.89,234.73 311.85,234.72 312.82,234.72 317.71,234.71 320.64,234.70 323.57,234.69 328.46,234.68 332.37,234.67 334.33,234.66 339.21,234.65 345.08,234.64 350.94,234.63 355.83,234.62 361.69,234.60 367.56,234.58 372.44,234.52 378.31,234.37 384.17,234.06 389.06,233.66 394.92,233.02 400.79,232.22 401.76,232.07 403.72,231.76 404.70,231.60 405.67,231.43 406.65,231.27 407.63,231.09 408.60,230.92 409.58,230.74 410.56,230.56 411.54,230.38 416.42,229.41 422.29,228.17 428.15,226.83 433.04,225.65 437.93,224.43"/>
<polyline fill="none" stroke="#ff7f0e" stroke-width="1.8" stroke-dasharray="5 4" points="86.07,248.05 91.94,248.05 96.83,248.05 102.69,248.05 108.55,248.05 113.44,248.05 119.30,248.05 124.19,248.05 130.06,248.05 134.94,248.05 139.83,247.99 140.81,247.97 141.78,247.95 142.76,247.92 143.74,247.89 144.72,247.86 145.69,247.83 146.67,247.79 147.65,247.75 148.63,247.71 149.60,247.67 150.58,247.62 151.56,247.56 152.53,247.51 153.51,247.45 154.49,247.38 155.47,247.31 156.44,247.24 157.42,247.16 158.40,247.08 159.38,246.99 160.35,246.90 161.33,246.80 162.31,246.70 163.29,246.59 169.15,245.86 174.04,245.15 179.90,244.26 185.77,243.38 190.65,242.68 196.52,241.88 201.40,241.27 203.36,241.04 207.27,240.60 213.13,239.99 218.02,239.54 223.88,239.08 229.75,238.70 234.63,238.45 240.50,238.23 246.36,238.10 251.25,238.03 257.11,237.98 262.98,237.95 267.86,237.93 273.73,237.91 278.62,237.90 284.48,237.89 290.34,237.87 295.23,237.86 301.09,237.85 304.03,237.85 306.96,237.84 308.91,237.84 309.89,237.84 311.85,237.84 312.82,237.84 317.71,237.83 320.64,237.82 323.57,237.82 328.46,237.81 332.37,237.81 334.33,237.80 339.21,237.79 345.08,237.77 350.94,237.71 355.83,237.61 361.69,237.39 367.56,237.06 372.44,236.69 378.31,236.15 384.17,235.51 389.06,234.92 394.92,234.14 400.79,233.29 401.76,233.14 403.72,232.84 404.70,232.69 405.67,232.54 406.65,232.38 407.63,232.23 408.60,232.07 409.58,231.91 410.56,231.75 411.54,231.58 416.42,230.75 422.29,229.75 428.15,228.75 433.04,227.91 437.93,227.08"/>
<polyline fill="none" stroke="#2ca02c" stroke-width="1.8" stroke-dasharray="2 4" points="86.07,257.99 91.94,257.99 96.83,257.99 102.69,257.99 108.55,257.99 113.44,257.99 119.30,257.99 124.19,257.99 130.06,257.99 134.94,257.99 139.83,257.97 140.81,257.94 141.78,257.91 142.76,257.87 143.74,257.83 144.72,257.77 145.69,257.70 146.67,257.62 147.65,257.53 148.63,257.42 149.60,257.30 150.58,257.17 151.56,257.03 152.53,256.86 153.51,256.69 154.49,256.50 155.47,256.30 156.44,256.08 157.42,255.84 158.40,255.60 159.38,255.34 160.35,255.06 161.33,254.78 162.31,254.49 163.29,254.18 169.15,252.24 174.04,250.56 179.90,248.57 185.77,246.61 190.65,245.01 196.52,243.14 201.40,241.63 203.36,241.04 207.27,239.89 213.13,238.23 218.02,236.93 223.88,235.48 229.75,234.15 234.63,233.16 240.50,232.12 246.36,231.26 251.25,230.69 257.11,230.17 262.98,229.83 267.86,229.64 273.73,229.49 278.62,229.40 284.48,229.32 290.34,229.26 295.23,229.22 301.09,229.17 304.03,229.15 306.96,229.13 308.91,229.12 309.89,229.11 311.85,229.10 312.82,229.10 317.71,229.07 320.64,229.05 323.57,229.04 328.46,229.02 332.37,229.00 334.33,228.99 339.21,228.97 345.08,228.94 350.94,228.92 355.83,228.90 361.69,228.88 367.56,228.86 372.44,228.85 378.31,228.83 384.17,228.80 389.06,228.75 394.92,228.61 400.79,228.29 401.76,228.21 403.72,228.04 404.70,227.94 405.67,227.84 406.65,227.72 407.63,227.61 408.60,227.48 409.58,227.34 410.56,227.20 411.54,227.05 416.42,226.21 422.29,224.98 428.15,223.55 433.04,222.23 437.93,220.80"/>
<polyline fill="none" stroke="#1f77b4" stroke-width="1.1" stroke-dasharray="6 4" points="72.00,88.24 76.81,91.19 81.62,94.15 86.43,97.10 91.24,100.06 96.05,103.02 100.86,105.97 105.67,108.93 110.48,111.88 115.29,114.84 120.10,117.80 124.91,120.75 129.72,123.71 134.53,126.66 139.34,129.62 144.15,132.58 148.96,135.53 153.77,138.49 158.58,141.44 163.39,144.40 168.20,147.36 173.01,150.31 177.82,153.27 182.63,156.23 187.44,159.18 192.25,162.14 197.06,165.09 201.87,168.05 206.68,171.01 211.49,173.96 216.30,176.92 221.11,179.87 225.92,182.83 230.73,185.79 235.54,188.74 240.35,191.70 245.16,194.65 249.97,197.61 254.78,200.57 259.59,203.52 264.41,206.48 269.22,209.43 274.03,212.39 278.84,215.35 283.65,218.30 288.46,221.26 293.27,224.21 298.08,227.17 302.89,230.13 307.70,233.08 312.51,236.04 317.32,238.99 322.13,241.95 326.94,244.91 331.75,247.86 336.56,250.82 341.37,253.77 346.18,256.73 350.99,259.69 355.80,262.64 360.61,265.60 365.42,268.56 370.23,271.51 375.04,274.47 379.85,277.42 384.66,280.38 389.47,283.34 394.28,286.29 399.09,289.25 403.90,292.20 408.71,295.16 413.52,298.12 418.33,301.07 423.14,304.03 427.95,306.98 432.76,309.94 437.57,312.90 442.38,315.85 447.19,318.81 452.00,321.76"/>
<circle cx="310.37" cy="234.73" r="4.6" fill="#ffffff" stroke="#1f77b4" stroke-width="2"/>
<text x="316.37" y="228.73" font-family="Arial, sans-serif" font-size="10" fill="#1f77b4">typ 521 ohm</text>
<polyline fill="none" stroke="#ff7f0e" stroke-width="1.1" stroke-dasharray="6 4" points="72.00,95.44 76.81,98.40 81.62,101.36 86.43,104.31 91.24,107.27 96.05,110.22 100.86,113.18 105.67,116.14 110.48,119.09 115.29,122.05 120.10,125.00 124.91,127.96 129.72,130.92 134.53,133.87 139.34,136.83 144.15,139.78 148.96,142.74 153.77,145.70 158.58,148.65 163.39,151.61 168.20,154.56 173.01,157.52 177.82,160.48 182.63,163.43 187.44,166.39 192.25,169.34 197.06,172.30 201.87,175.26 206.68,178.21 211.49,181.17 216.30,184.13 221.11,187.08 225.92,190.04 230.73,192.99 235.54,195.95 240.35,198.91 245.16,201.86 249.97,204.82 254.78,207.77 259.59,210.73 264.41,213.69 269.22,216.64 274.03,219.60 278.84,222.55 283.65,225.51 288.46,228.47 293.27,231.42 298.08,234.38 302.89,237.33 307.70,240.29 312.51,243.25 317.32,246.20 322.13,249.16 326.94,252.11 331.75,255.07 336.56,258.03 341.37,260.98 346.18,263.94 350.99,266.89 355.80,269.85 360.61,272.81 365.42,275.76 370.23,278.72 375.04,281.67 379.85,284.63 384.66,287.59 389.47,290.54 394.28,293.50 399.09,296.46 403.90,299.41 408.71,302.37 413.52,305.32 418.33,308.28 423.14,311.24 427.95,314.19 432.76,317.15 437.57,320.10 442.38,323.06 447.19,326.02 452.00,328.97"/>
<circle cx="303.73" cy="237.85" r="4.6" fill="#ffffff" stroke="#ff7f0e" stroke-width="2"/>
<text x="309.73" y="231.85" font-family="Arial, sans-serif" font-size="10" fill="#ff7f0e">min 967 ohm</text>
<polyline fill="none" stroke="#2ca02c" stroke-width="1.1" stroke-dasharray="6 4" points="72.00,81.03 76.81,83.98 81.62,86.94 86.43,89.90 91.24,92.85 96.05,95.81 100.86,98.76 105.67,101.72 110.48,104.68 115.29,107.63 120.10,110.59 124.91,113.54 129.72,116.50 134.53,119.46 139.34,122.41 144.15,125.37 148.96,128.33 153.77,131.28 158.58,134.24 163.39,137.19 168.20,140.15 173.01,143.11 177.82,146.06 182.63,149.02 187.44,151.97 192.25,154.93 197.06,157.89 201.87,160.84 206.68,163.80 211.49,166.75 216.30,169.71 221.11,172.67 225.92,175.62 230.73,178.58 235.54,181.53 240.35,184.49 245.16,187.45 249.97,190.40 254.78,193.36 259.59,196.31 264.41,199.27 269.22,202.23 274.03,205.18 278.84,208.14 283.65,211.09 288.46,214.05 293.27,217.01 298.08,219.96 302.89,222.92 307.70,225.87 312.51,228.83 317.32,231.79 322.13,234.74 326.94,237.70 331.75,240.66 336.56,243.61 341.37,246.57 346.18,249.52 350.99,252.48 355.80,255.44 360.61,258.39 365.42,261.35 370.23,264.30 375.04,267.26 379.85,270.22 384.66,273.17 389.47,276.13 394.28,279.08 399.09,282.04 403.90,285.00 408.71,287.95 413.52,290.91 418.33,293.86 423.14,296.82 427.95,299.78 432.76,302.73 437.57,305.69 442.38,308.64 447.19,311.60 452.00,314.56"/>
<circle cx="312.94" cy="229.10" r="4.6" fill="#ffffff" stroke="#2ca02c" stroke-width="2"/>
<text x="318.94" y="223.10" font-family="Arial, sans-serif" font-size="10" fill="#2ca02c">max 282 ohm</text>
<line x1="82.00" y1="80.00" x2="104.00" y2="80.00" stroke="#1f77b4" stroke-width="2"/>
<text x="110.00" y="84.00" font-family="Arial, sans-serif" font-size="11">typ</text>
<line x1="82.00" y1="97.00" x2="104.00" y2="97.00" stroke="#ff7f0e" stroke-width="2" stroke-dasharray="5 4"/>
<text x="110.00" y="101.00" font-family="Arial, sans-serif" font-size="11">min</text>
<line x1="82.00" y1="114.00" x2="104.00" y2="114.00" stroke="#2ca02c" stroke-width="2" stroke-dasharray="2 4"/>
<text x="110.00" y="118.00" font-family="Arial, sans-serif" font-size="11">max</text>
<text x="262.00" y="386.00" text-anchor="middle" font-family="Arial, sans-serif" font-size="11">Output voltage (V)</text>
<text transform="translate(22.00 205.00) rotate(-90)" text-anchor="middle" font-family="Arial, sans-serif" font-size="11">Current (mA)</text>
<rect x="492.00" y="62.00" width="380.00" height="286.00" fill="#fbfbfb" stroke="#c8c8c8"/>
<text x="500.00" y="50.00" font-family="Arial, sans-serif" font-size="13" font-weight="700">[Pullup] Rload to GND</text>
<line x1="492.00" y1="62.00" x2="492.00" y2="348.00" stroke="#ececec"/>
<text x="492.00" y="366.00" text-anchor="middle" font-family="Arial, sans-serif" font-size="10">-1.3</text>
<line x1="587.00" y1="62.00" x2="587.00" y2="348.00" stroke="#ececec"/>
<text x="587.00" y="366.00" text-anchor="middle" font-family="Arial, sans-serif" font-size="10">-0.372</text>
<line x1="682.00" y1="62.00" x2="682.00" y2="348.00" stroke="#ececec"/>
<text x="682.00" y="366.00" text-anchor="middle" font-family="Arial, sans-serif" font-size="10">0.6</text>
<line x1="777.00" y1="62.00" x2="777.00" y2="348.00" stroke="#ececec"/>
<text x="777.00" y="366.00" text-anchor="middle" font-family="Arial, sans-serif" font-size="10">1.6</text>
<line x1="872.00" y1="62.00" x2="872.00" y2="348.00" stroke="#ececec"/>
<text x="872.00" y="366.00" text-anchor="middle" font-family="Arial, sans-serif" font-size="10">2.5</text>
<line x1="492.00" y1="348.00" x2="872.00" y2="348.00" stroke="#ececec"/>
<text x="485.00" y="352.00" text-anchor="end" font-family="Arial, sans-serif" font-size="10">-60</text>
<line x1="492.00" y1="276.50" x2="872.00" y2="276.50" stroke="#ececec"/>
<text x="485.00" y="280.50" text-anchor="end" font-family="Arial, sans-serif" font-size="10">-36</text>
<line x1="492.00" y1="205.00" x2="872.00" y2="205.00" stroke="#ececec"/>
<text x="485.00" y="209.00" text-anchor="end" font-family="Arial, sans-serif" font-size="10">-12</text>
<line x1="492.00" y1="133.50" x2="872.00" y2="133.50" stroke="#ececec"/>
<text x="485.00" y="137.50" text-anchor="end" font-family="Arial, sans-serif" font-size="10">12</text>
<line x1="492.00" y1="62.00" x2="872.00" y2="62.00" stroke="#ececec"/>
<text x="485.00" y="66.00" text-anchor="end" font-family="Arial, sans-serif" font-size="10">36</text>
<line x1="623.36" y1="62" x2="623.36" y2="348" stroke="#777" stroke-dasharray="4 4"/>
<line x1="492.0" y1="168.96" x2="872.0" y2="168.96" stroke="#777" stroke-dasharray="4 4"/>
<polyline fill="none" stroke="#1f77b4" stroke-width="1.8" points="506.07,140.28 511.94,142.13 516.83,143.66 520.73,144.85 522.69,145.44 528.55,147.20 533.44,148.62 539.30,150.29 544.19,151.65 550.06,153.23 555.92,154.75 560.81,155.97 566.67,157.37 572.53,158.72 577.42,159.80 583.29,161.06 589.15,162.29 594.04,163.30 599.90,164.48 604.79,165.45 605.77,165.64 606.74,165.83 610.65,166.58 611.63,166.77 612.61,166.96 613.58,167.14 616.52,167.69 621.40,168.60 623.36,168.96 627.27,169.65 634.11,170.76 635.09,170.91 636.06,171.05 637.04,171.20 638.02,171.34 639.00,171.48 643.88,172.13 649.75,172.83 654.63,173.33 657.57,173.60 659.52,173.76 660.50,173.84 662.45,173.98 663.43,174.04 665.38,174.16 666.36,174.22 667.34,174.27 668.32,174.32 669.29,174.37 670.27,174.41 671.25,174.45 672.23,174.48 673.20,174.52 674.18,174.55 675.16,174.57 676.14,174.60 677.11,174.62 678.09,174.65 679.07,174.67 680.05,174.68 682.00,174.72 682.98,174.73 687.86,174.80 693.73,174.86 698.62,174.91 704.48,174.95 710.34,175.00 715.23,175.03 721.09,175.06 724.03,175.08 726.96,175.09 728.91,175.10 730.87,175.11 731.85,175.12 733.80,175.13 737.71,175.14 740.64,175.16 743.57,175.17 748.46,175.19 752.37,175.20 754.33,175.21 759.21,175.23 765.08,175.25 770.94,175.26 775.83,175.26 781.69,175.26 787.56,175.26 792.44,175.26 798.31,175.26 804.17,175.26 809.06,175.26 814.92,175.26 820.79,175.26 825.67,175.26 831.54,175.26 836.42,175.26 842.29,175.26 848.15,175.26 853.04,175.26 857.93,175.26"/>
<polyline fill="none" stroke="#ff7f0e" stroke-width="1.8" stroke-dasharray="5 4" points="506.07,147.96 511.94,149.32 516.83,150.45 520.73,151.35 522.69,151.80 528.55,153.12 533.44,154.20 539.30,155.47 544.19,156.50 550.06,157.71 555.92,158.87 560.81,159.80 566.67,160.87 572.53,161.89 577.42,162.69 583.29,163.60 589.15,164.47 594.04,165.16 599.90,165.97 604.79,166.63 605.77,166.75 606.74,166.88 610.65,167.39 611.63,167.51 612.61,167.64 613.58,167.76 616.52,168.13 621.40,168.73 623.36,168.96 627.27,169.41 634.11,170.10 635.09,170.19 636.06,170.28 637.04,170.37 638.02,170.45 639.00,170.53 643.88,170.91 649.75,171.30 654.63,171.56 657.57,171.68 659.52,171.76 660.50,171.79 662.45,171.85 663.43,171.87 665.38,171.92 666.36,171.94 667.34,171.96 668.32,171.98 669.29,171.99 670.27,172.00 671.25,172.02 672.23,172.03 673.20,172.04 674.18,172.05 675.16,172.06 676.14,172.06 677.11,172.07 678.09,172.08 679.07,172.08 680.05,172.09 682.00,172.10 682.98,172.11 687.86,172.13 693.73,172.16 698.62,172.18 704.48,172.20 710.34,172.22 715.23,172.23 721.09,172.25 724.03,172.26 726.96,172.26 728.91,172.27 730.87,172.27 731.85,172.28 733.80,172.28 737.71,172.29 740.64,172.29 743.57,172.30 748.46,172.31 752.37,172.31 754.33,172.31 759.21,172.31 765.08,172.31 770.94,172.31 775.83,172.31 781.69,172.31 787.56,172.31 792.44,172.31 798.31,172.31 804.17,172.31 809.06,172.31 814.92,172.31 820.79,172.31 825.67,172.31 831.54,172.31 836.42,172.31 842.29,172.31 848.15,172.31 853.04,172.31 857.93,172.31"/>
<polyline fill="none" stroke="#2ca02c" stroke-width="1.8" stroke-dasharray="2 4" points="506.07,130.61 511.94,133.00 516.83,134.94 520.73,136.48 522.69,137.24 528.55,139.49 533.44,141.32 539.30,143.46 544.19,145.20 550.06,147.23 555.92,149.20 560.81,150.78 566.67,152.64 572.53,154.44 577.42,155.91 583.29,157.65 589.15,159.36 594.04,160.77 599.90,162.45 604.79,163.81 605.77,164.08 606.74,164.34 610.65,165.36 611.63,165.62 612.61,165.89 613.58,166.17 616.52,167.02 621.40,168.42 623.36,168.96 627.27,170.03 634.11,171.80 635.09,172.04 636.06,172.27 637.04,172.50 638.02,172.71 639.00,172.92 643.88,173.92 649.75,175.09 654.63,176.00 657.57,176.50 659.52,176.82 660.50,176.97 662.45,177.26 663.43,177.41 665.38,177.68 666.36,177.81 667.34,177.94 668.32,178.06 669.29,178.18 670.27,178.29 671.25,178.40 672.23,178.50 673.20,178.61 674.18,178.70 675.16,178.80 676.14,178.88 677.11,178.97 678.09,179.05 679.07,179.12 680.05,179.19 682.00,179.32 682.98,179.38 687.86,179.63 693.73,179.84 698.62,179.97 704.48,180.09 710.34,180.20 715.23,180.27 721.09,180.35 724.03,180.39 726.96,180.42 728.91,180.45 730.87,180.47 731.85,180.48 733.80,180.50 737.71,180.54 740.64,180.56 743.57,180.59 748.46,180.63 752.37,180.66 754.33,180.68 759.21,180.71 765.08,180.76 770.94,180.80 775.83,180.83 781.69,180.86 787.56,180.88 792.44,180.88 798.31,180.88 804.17,180.88 809.06,180.88 814.92,180.88 820.79,180.88 825.67,180.88 831.54,180.88 836.42,180.88 842.29,180.88 848.15,180.88 853.04,180.88 857.93,180.88"/>
<polyline fill="none" stroke="#1f77b4" stroke-width="1.1" stroke-dasharray="6 4" points="492.00,321.76 496.81,318.81 501.62,315.85 506.43,312.90 511.24,309.94 516.05,306.98 520.86,304.03 525.67,301.07 530.48,298.12 535.29,295.16 540.10,292.20 544.91,289.25 549.72,286.29 554.53,283.34 559.34,280.38 564.15,277.42 568.96,274.47 573.77,271.51 578.58,268.56 583.39,265.60 588.20,262.64 593.01,259.69 597.82,256.73 602.63,253.77 607.44,250.82 612.25,247.86 617.06,244.91 621.87,241.95 626.68,238.99 631.49,236.04 636.30,233.08 641.11,230.13 645.92,227.17 650.73,224.21 655.54,221.26 660.35,218.30 665.16,215.35 669.97,212.39 674.78,209.43 679.59,206.48 684.41,203.52 689.22,200.57 694.03,197.61 698.84,194.65 703.65,191.70 708.46,188.74 713.27,185.79 718.08,182.83 722.89,179.87 727.70,176.92 732.51,173.96 737.32,171.01 742.13,168.05 746.94,165.09 751.75,162.14 756.56,159.18 761.37,156.23 766.18,153.27 770.99,150.31 775.80,147.36 780.61,144.40 785.42,141.44 790.23,138.49 795.04,135.53 799.85,132.58 804.66,129.62 809.47,126.66 814.28,123.71 819.09,120.75 823.90,117.80 828.71,114.84 833.52,111.88 838.33,108.93 843.14,105.97 847.95,103.02 852.76,100.06 857.57,97.10 862.38,94.15 867.19,91.19 872.00,88.24"/>
<circle cx="730.64" cy="175.11" r="4.6" fill="#ffffff" stroke="#1f77b4" stroke-width="2"/>
<text x="736.64" y="169.11" font-family="Arial, sans-serif" font-size="10" fill="#1f77b4">typ 536 ohm</text>
<polyline fill="none" stroke="#ff7f0e" stroke-width="1.1" stroke-dasharray="6 4" points="492.00,314.56 496.81,311.60 501.62,308.64 506.43,305.69 511.24,302.73 516.05,299.78 520.86,296.82 525.67,293.86 530.48,290.91 535.29,287.95 540.10,285.00 544.91,282.04 549.72,279.08 554.53,276.13 559.34,273.17 564.15,270.22 568.96,267.26 573.77,264.30 578.58,261.35 583.39,258.39 588.20,255.44 593.01,252.48 597.82,249.52 602.63,246.57 607.44,243.61 612.25,240.66 617.06,237.70 621.87,234.74 626.68,231.79 631.49,228.83 636.30,225.87 641.11,222.92 645.92,219.96 650.73,217.01 655.54,214.05 660.35,211.09 665.16,208.14 669.97,205.18 674.78,202.23 679.59,199.27 684.41,196.31 689.22,193.36 694.03,190.40 698.84,187.45 703.65,184.49 708.46,181.53 713.27,178.58 718.08,175.62 722.89,172.67 727.70,169.71 732.51,166.75 737.32,163.80 742.13,160.84 746.94,157.89 751.75,154.93 756.56,151.97 761.37,149.02 766.18,146.06 770.99,143.11 775.80,140.15 780.61,137.19 785.42,134.24 790.23,131.28 795.04,128.33 799.85,125.37 804.66,122.41 809.47,119.46 814.28,116.50 819.09,113.54 823.90,110.59 828.71,107.63 833.52,104.68 838.33,101.72 843.14,98.76 847.95,95.81 852.76,92.85 857.57,89.90 862.38,86.94 867.19,83.98 872.00,81.03"/>
<circle cx="723.55" cy="172.26" r="4.6" fill="#ffffff" stroke="#ff7f0e" stroke-width="2"/>
<text x="729.55" y="166.26" font-family="Arial, sans-serif" font-size="10" fill="#ff7f0e">min 935 ohm</text>
<polyline fill="none" stroke="#2ca02c" stroke-width="1.1" stroke-dasharray="6 4" points="492.00,328.97 496.81,326.02 501.62,323.06 506.43,320.10 511.24,317.15 516.05,314.19 520.86,311.24 525.67,308.28 530.48,305.32 535.29,302.37 540.10,299.41 544.91,296.46 549.72,293.50 554.53,290.54 559.34,287.59 564.15,284.63 568.96,281.67 573.77,278.72 578.58,275.76 583.39,272.81 588.20,269.85 593.01,266.89 597.82,263.94 602.63,260.98 607.44,258.03 612.25,255.07 617.06,252.11 621.87,249.16 626.68,246.20 631.49,243.25 636.30,240.29 641.11,237.33 645.92,234.38 650.73,231.42 655.54,228.47 660.35,225.51 665.16,222.55 669.97,219.60 674.78,216.64 679.59,213.69 684.41,210.73 689.22,207.77 694.03,204.82 698.84,201.86 703.65,198.91 708.46,195.95 713.27,192.99 718.08,190.04 722.89,187.08 727.70,184.13 732.51,181.17 737.32,178.21 742.13,175.26 746.94,172.30 751.75,169.34 756.56,166.39 761.37,163.43 766.18,160.48 770.99,157.52 775.80,154.56 780.61,151.61 785.42,148.65 790.23,145.70 795.04,142.74 799.85,139.78 804.66,136.83 809.47,133.87 814.28,130.92 819.09,127.96 823.90,125.00 828.71,122.05 833.52,119.09 838.33,116.14 843.14,113.18 847.95,110.22 852.76,107.27 857.57,104.31 862.38,101.36 867.19,98.40 872.00,95.44"/>
<circle cx="733.60" cy="180.50" r="4.6" fill="#ffffff" stroke="#2ca02c" stroke-width="2"/>
<text x="739.60" y="174.50" font-family="Arial, sans-serif" font-size="10" fill="#2ca02c">max 294 ohm</text>
<line x1="502.00" y1="80.00" x2="524.00" y2="80.00" stroke="#1f77b4" stroke-width="2"/>
<text x="530.00" y="84.00" font-family="Arial, sans-serif" font-size="11">typ</text>
<line x1="502.00" y1="97.00" x2="524.00" y2="97.00" stroke="#ff7f0e" stroke-width="2" stroke-dasharray="5 4"/>
<text x="530.00" y="101.00" font-family="Arial, sans-serif" font-size="11">min</text>
<line x1="502.00" y1="114.00" x2="524.00" y2="114.00" stroke="#2ca02c" stroke-width="2" stroke-dasharray="2 4"/>
<text x="530.00" y="118.00" font-family="Arial, sans-serif" font-size="11">max</text>
<text x="682.00" y="386.00" text-anchor="middle" font-family="Arial, sans-serif" font-size="11">Vcc-relative table voltage (V)</text>
<text transform="translate(442.00 205.00) rotate(-90)" text-anchor="middle" font-family="Arial, sans-serif" font-size="11">Current (mA)</text>
<rect x="72.00" y="418.00" width="800.00" height="144.00" fill="#ffffff" stroke="#c8c8c8"/>
<text x="82.00" y="436.00" font-family="Arial, sans-serif" font-size="12" font-weight="700">Operating-point summary</text>
<text x="82.00" y="454.00" font-family="Arial, sans-serif" font-size="10" font-weight="700" fill="#333">Table</text>
<text x="174.00" y="454.00" font-family="Arial, sans-serif" font-size="10" font-weight="700" fill="#333">Corner</text>
<text x="242.00" y="454.00" font-family="Arial, sans-serif" font-size="10" font-weight="700" fill="#333">Vout</text>
<text x="332.00" y="454.00" font-family="Arial, sans-serif" font-size="10" font-weight="700" fill="#333">Iop</text>
<text x="422.00" y="454.00" font-family="Arial, sans-serif" font-size="10" font-weight="700" fill="#333">Zout</text>
<text x="512.00" y="454.00" font-family="Arial, sans-serif" font-size="10" font-weight="700" fill="#333">Rseries</text>
<text x="82.00" y="473.00" font-family="Arial, sans-serif" font-size="10" fill="#1f77b4">pulldown</text>
<text x="174.00" y="473.00" font-family="Arial, sans-serif" font-size="10" fill="#1f77b4">typ</text>
<text x="242.00" y="473.00" font-family="Arial, sans-serif" font-size="10" fill="#1f77b4">1.095 V</text>
<text x="332.00" y="473.00" font-family="Arial, sans-serif" font-size="10" fill="#1f77b4">2.1 mA</text>
<text x="422.00" y="473.00" font-family="Arial, sans-serif" font-size="10" fill="#1f77b4">521 ohm</text>
<text x="512.00" y="473.00" font-family="Arial, sans-serif" font-size="10" fill="#1f77b4">-471 ohm</text>
<text x="82.00" y="492.00" font-family="Arial, sans-serif" font-size="10" fill="#ff7f0e">pulldown</text>
<text x="174.00" y="492.00" font-family="Arial, sans-serif" font-size="10" fill="#ff7f0e">min</text>
<text x="242.00" y="492.00" font-family="Arial, sans-serif" font-size="10" fill="#ff7f0e">1.027 V</text>
<text x="332.00" y="492.00" font-family="Arial, sans-serif" font-size="10" fill="#ff7f0e">1.1 mA</text>
<text x="422.00" y="492.00" font-family="Arial, sans-serif" font-size="10" fill="#ff7f0e">967 ohm</text>
<text x="512.00" y="492.00" font-family="Arial, sans-serif" font-size="10" fill="#ff7f0e">-917 ohm</text>
<text x="82.00" y="511.00" font-family="Arial, sans-serif" font-size="10" fill="#2ca02c">pulldown</text>
<text x="174.00" y="511.00" font-family="Arial, sans-serif" font-size="10" fill="#2ca02c">max</text>
<text x="242.00" y="511.00" font-family="Arial, sans-serif" font-size="10" fill="#2ca02c">1.121 V</text>
<text x="332.00" y="511.00" font-family="Arial, sans-serif" font-size="10" fill="#2ca02c">4 mA</text>
<text x="422.00" y="511.00" font-family="Arial, sans-serif" font-size="10" fill="#2ca02c">282 ohm</text>
<text x="512.00" y="511.00" font-family="Arial, sans-serif" font-size="10" fill="#2ca02c">-232 ohm</text>
<text x="82.00" y="530.00" font-family="Arial, sans-serif" font-size="10" fill="#1f77b4">pullup</text>
<text x="174.00" y="530.00" font-family="Arial, sans-serif" font-size="10" fill="#1f77b4">typ</text>
<text x="242.00" y="530.00" font-family="Arial, sans-serif" font-size="10" fill="#1f77b4">0.1024 V</text>
<text x="332.00" y="530.00" font-family="Arial, sans-serif" font-size="10" fill="#1f77b4">-2 mA</text>
<text x="422.00" y="530.00" font-family="Arial, sans-serif" font-size="10" fill="#1f77b4">536 ohm</text>
<text x="512.00" y="530.00" font-family="Arial, sans-serif" font-size="10" fill="#1f77b4">-486 ohm</text>
<text x="82.00" y="549.00" font-family="Arial, sans-serif" font-size="10" fill="#ff7f0e">pullup</text>
<text x="174.00" y="549.00" font-family="Arial, sans-serif" font-size="10" fill="#ff7f0e">min</text>
<text x="242.00" y="549.00" font-family="Arial, sans-serif" font-size="10" fill="#ff7f0e">0.05484 V</text>
<text x="332.00" y="549.00" font-family="Arial, sans-serif" font-size="10" fill="#ff7f0e">-1.1 mA</text>
<text x="422.00" y="549.00" font-family="Arial, sans-serif" font-size="10" fill="#ff7f0e">935 ohm</text>
<text x="512.00" y="549.00" font-family="Arial, sans-serif" font-size="10" fill="#ff7f0e">-885 ohm</text>
<text x="82.00" y="568.00" font-family="Arial, sans-serif" font-size="10" fill="#2ca02c">pullup</text>
<text x="174.00" y="568.00" font-family="Arial, sans-serif" font-size="10" fill="#2ca02c">max</text>
<text x="242.00" y="568.00" font-family="Arial, sans-serif" font-size="10" fill="#2ca02c">0.192 V</text>
<text x="332.00" y="568.00" font-family="Arial, sans-serif" font-size="10" fill="#2ca02c">-3.8 mA</text>
<text x="422.00" y="568.00" font-family="Arial, sans-serif" font-size="10" fill="#2ca02c">294 ohm</text>
<text x="512.00" y="568.00" font-family="Arial, sans-serif" font-size="10" fill="#2ca02c">-244 ohm</text>
</svg>