<svg xmlns="http://www.w3.org/2000/svg" width="900" height="620" viewBox="0 0 900 620">
<rect width="100%" height="100%" fill="#ffffff"/>
<text x="72" y="26" font-family="Arial, sans-serif" font-size="16" font-weight="700">E34_GPIO_I2CSCLIN_1V1_10_ISOSW Zout Load-Line Curves</text>
<text x="72" y="45" font-family="Arial, sans-serif" font-size="11" fill="#555">Rload=50 ohm; solid=device I-V, dashed=load line, circles=operating points</text>
<rect x="72.00" y="62.00" width="380.00" height="286.00" fill="#fbfbfb" stroke="#c8c8c8"/>
<text x="80.00" y="50.00" font-family="Arial, sans-serif" font-size="13" font-weight="700">[Pulldown] Rload to Vdd</text>
<line x1="72.00" y1="62.00" x2="72.00" y2="348.00" stroke="#ececec"/>
<text x="72.00" y="366.00" text-anchor="middle" font-family="Arial, sans-serif" font-size="10">-1.2</text>
<line x1="167.00" y1="62.00" x2="167.00" y2="348.00" stroke="#ececec"/>
<text x="167.00" y="366.00" text-anchor="middle" font-family="Arial, sans-serif" font-size="10">-0.341</text>
<line x1="262.00" y1="62.00" x2="262.00" y2="348.00" stroke="#ececec"/>
<text x="262.00" y="366.00" text-anchor="middle" font-family="Arial, sans-serif" font-size="10">0.55</text>
<line x1="357.00" y1="62.00" x2="357.00" y2="348.00" stroke="#ececec"/>
<text x="357.00" y="366.00" text-anchor="middle" font-family="Arial, sans-serif" font-size="10">1.4</text>
<line x1="452.00" y1="62.00" x2="452.00" y2="348.00" stroke="#ececec"/>
<text x="452.00" y="366.00" text-anchor="middle" font-family="Arial, sans-serif" font-size="10">2.3</text>
<line x1="72.00" y1="348.00" x2="452.00" y2="348.00" stroke="#ececec"/>
<text x="65.00" y="352.00" text-anchor="end" font-family="Arial, sans-serif" font-size="10">-33</text>
<line x1="72.00" y1="276.50" x2="452.00" y2="276.50" stroke="#ececec"/>
<text x="65.00" y="280.50" text-anchor="end" font-family="Arial, sans-serif" font-size="10">-11</text>
<line x1="72.00" y1="205.00" x2="452.00" y2="205.00" stroke="#ececec"/>
<text x="65.00" y="209.00" text-anchor="end" font-family="Arial, sans-serif" font-size="10">11</text>
<line x1="72.00" y1="133.50" x2="452.00" y2="133.50" stroke="#ececec"/>
<text x="65.00" y="137.50" text-anchor="end" font-family="Arial, sans-serif" font-size="10">33</text>
<line x1="72.00" y1="62.00" x2="452.00" y2="62.00" stroke="#ececec"/>
<text x="65.00" y="66.00" text-anchor="end" font-family="Arial, sans-serif" font-size="10">55</text>
<line x1="203.36" y1="62" x2="203.36" y2="348" stroke="#777" stroke-dasharray="4 4"/>
<line x1="72.0" y1="241.04" x2="452.0" y2="241.04" stroke="#777" stroke-dasharray="4 4"/>
<polyline fill="none" stroke="#1f77b4" stroke-width="1.8" points="86.07,273.21 91.41,273.21 96.74,273.21 99.93,273.21 103.13,273.21 106.33,273.21 108.46,273.05 113.80,272.56 115.93,272.32 116.99,272.19 118.06,272.06 119.13,271.92 124.46,271.16 126.59,270.81 129.79,270.24 131.92,269.83 134.05,269.38 136.19,268.90 137.25,268.64 139.38,268.11 140.45,267.83 141.52,267.54 142.58,267.23 143.65,266.92 144.72,266.60 145.78,266.26 146.85,265.92 147.91,265.56 148.98,265.19 150.05,264.81 151.11,264.42 152.18,264.02 153.25,263.61 154.31,263.19 155.38,262.75 156.44,262.31 157.51,261.86 162.84,259.47 169.24,256.44 174.57,253.91 179.90,251.40 185.23,248.94 190.56,246.54 195.89,244.20 202.29,241.48 203.36,241.04 207.62,239.30 212.95,237.21 218.29,235.21 223.62,233.33 228.95,231.57 235.34,229.64 240.68,228.22 246.01,226.98 251.34,225.97 256.67,225.20 263.07,224.59 266.26,224.39 268.40,224.28 269.46,224.24 270.53,224.20 271.60,224.16 272.66,224.12 273.73,224.09 274.79,224.06 279.06,223.96 284.39,223.86 289.72,223.77 292.92,223.73 295.05,223.70 296.12,223.68 301.45,223.62 306.78,223.56 308.91,223.54 312.11,223.50 317.44,223.45 320.64,223.43 322.77,223.41 329.17,223.36 332.37,223.33 334.50,223.32 339.83,223.28 345.16,223.24 350.50,223.20 355.83,223.17 362.22,223.13 367.56,223.10 372.89,223.07 378.22,223.02 383.55,222.97 388.88,222.89 395.28,222.72 400.61,222.48 405.94,222.14 411.27,221.67 416.60,221.07 421.93,220.35 428.33,219.33 433.66,218.36 437.93,217.52"/>
<polyline fill="none" stroke="#ff7f0e" stroke-width="1.8" stroke-dasharray="5 4" points="86.07,261.38 91.41,261.38 96.74,261.38 99.93,261.38 103.13,261.38 106.33,261.38 108.46,261.38 113.80,261.38 115.93,261.38 116.99,261.32 118.06,261.31 119.13,261.27 124.46,260.91 126.59,260.73 129.79,260.39 131.92,260.14 134.05,259.87 136.19,259.57 137.25,259.41 139.38,259.08 140.45,258.90 141.52,258.72 142.58,258.53 143.65,258.34 144.72,258.14 145.78,257.93 146.85,257.72 147.91,257.50 148.98,257.27 150.05,257.03 151.11,256.79 152.18,256.54 153.25,256.28 154.31,256.02 155.38,255.75 156.44,255.47 157.51,255.18 162.84,253.65 169.24,251.64 174.57,249.89 179.90,248.13 185.23,246.41 190.56,244.74 195.89,243.15 202.29,241.33 203.36,241.04 207.62,239.91 212.95,238.58 218.29,237.36 223.62,236.25 228.95,235.27 235.34,234.28 240.68,233.63 246.01,233.15 251.34,232.83 256.67,232.64 263.07,232.51 266.26,232.46 268.40,232.44 269.46,232.43 270.53,232.42 271.60,232.40 272.66,232.39 273.73,232.38 274.79,232.38 279.06,232.34 284.39,232.30 289.72,232.27 292.92,232.25 295.05,232.24 296.12,232.23 301.45,232.20 306.78,232.18 308.91,232.17 312.11,232.15 317.44,232.13 320.64,232.12 322.77,232.11 329.17,232.09 332.37,232.08 334.50,232.07 339.83,232.05 345.16,232.03 350.50,232.00 355.83,231.97 362.22,231.89 367.56,231.78 372.89,231.60 378.22,231.34 383.55,231.00 388.88,230.56 395.28,229.94 400.61,229.34 405.94,228.67 411.27,227.94 416.60,227.16 421.93,226.38 428.33,225.43 433.66,224.65 437.93,224.02"/>
<polyline fill="none" stroke="#2ca02c" stroke-width="1.8" stroke-dasharray="2 4" points="86.07,286.75 91.41,286.75 96.74,286.75 99.93,286.75 103.13,286.43 106.33,286.06 108.46,285.80 113.80,285.05 115.93,284.71 116.99,284.53 118.06,284.34 119.13,284.15 124.46,283.08 126.59,282.59 129.79,281.79 131.92,281.21 134.05,280.59 136.19,279.91 137.25,279.55 139.38,278.80 140.45,278.40 141.52,277.99 142.58,277.56 143.65,277.12 144.72,276.66 145.78,276.18 146.85,275.69 147.91,275.19 148.98,274.66 150.05,274.12 151.11,273.56 152.18,272.99 153.25,272.41 154.31,271.80 155.38,271.19 156.44,270.56 157.51,269.92 162.84,266.57 169.24,262.43 174.57,258.98 179.90,255.56 185.23,252.18 190.56,248.84 195.89,245.55 202.29,241.68 203.36,241.04 207.62,238.51 212.95,235.42 218.29,232.40 223.62,229.47 228.95,226.64 235.34,223.39 240.68,220.83 246.01,218.42 251.34,216.19 256.67,214.16 263.07,212.05 266.26,211.14 268.40,210.60 269.46,210.35 270.53,210.11 271.60,209.88 272.66,209.66 273.73,209.46 274.79,209.27 279.06,208.63 284.39,208.06 289.72,207.67 292.92,207.50 295.05,207.40 296.12,207.35 301.45,207.16 306.78,207.00 308.91,206.94 312.11,206.86 317.44,206.74 320.64,206.67 322.77,206.62 329.17,206.50 332.37,206.45 334.50,206.42 339.83,206.33 345.16,206.25 350.50,206.18 355.83,206.11 362.22,206.03 367.56,205.96 372.89,205.90 378.22,205.85 383.55,205.79 388.88,205.73 395.28,205.65 400.61,205.56 405.94,205.45 411.27,205.32 416.60,205.16 421.93,204.96 428.33,204.60 433.66,204.16 437.93,203.70"/>
<polyline fill="none" stroke="#1f77b4" stroke-width="1.1" stroke-dasharray="6 4" points="72.00,88.24 76.81,91.19 81.62,94.15 86.43,97.10 91.24,100.06 96.05,103.02 100.86,105.97 105.67,108.93 110.48,111.88 115.29,114.84 120.10,117.80 124.91,120.75 129.72,123.71 134.53,126.66 139.34,129.62 144.15,132.58 148.96,135.53 153.77,138.49 158.58,141.44 163.39,144.40 168.20,147.36 173.01,150.31 177.82,153.27 182.63,156.23 187.44,159.18 192.25,162.14 197.06,165.09 201.87,168.05 206.68,171.01 211.49,173.96 216.30,176.92 221.11,179.87 225.92,182.83 230.73,185.79 235.54,188.74 240.35,191.70 245.16,194.65 249.97,197.61 254.78,200.57 259.59,203.52 264.41,206.48 269.22,209.43 274.03,212.39 278.84,215.35 283.65,218.30 288.46,221.26 293.27,224.21 298.08,227.17 302.89,230.13 307.70,233.08 312.51,236.04 317.32,238.99 322.13,241.95 326.94,244.91 331.75,247.86 336.56,250.82 341.37,253.77 346.18,256.73 350.99,259.69 355.80,262.64 360.61,265.60 365.42,268.56 370.23,271.51 375.04,274.47 379.85,277.42 384.66,280.38 389.47,283.34 394.28,286.29 399.09,289.25 403.90,292.20 408.71,295.16 413.52,298.12 418.33,301.07 423.14,304.03 427.95,306.98 432.76,309.94 437.57,312.90 442.38,315.85 447.19,318.81 452.00,321.76"/>
<circle cx="292.48" cy="223.73" r="4.6" fill="#ffffff" stroke="#1f77b4" stroke-width="2"/>
<text x="298.48" y="217.73" font-family="Arial, sans-serif" font-size="10" fill="#1f77b4">typ 158 ohm</text>
<polyline fill="none" stroke="#ff7f0e" stroke-width="1.1" stroke-dasharray="6 4" points="72.00,95.44 76.81,98.40 81.62,101.36 86.43,104.31 91.24,107.27 96.05,110.22 100.86,113.18 105.67,116.14 110.48,119.09 115.29,122.05 120.10,125.00 124.91,127.96 129.72,130.92 134.53,133.87 139.34,136.83 144.15,139.78 148.96,142.74 153.77,145.70 158.58,148.65 163.39,151.61 168.20,154.56 173.01,157.52 177.82,160.48 182.63,163.43 187.44,166.39 192.25,169.34 197.06,172.30 201.87,175.26 206.68,178.21 211.49,181.17 216.30,184.13 221.11,187.08 225.92,190.04 230.73,192.99 235.54,195.95 240.35,198.91 245.16,201.86 249.97,204.82 254.78,207.77 259.59,210.73 264.41,213.69 269.22,216.64 274.03,219.60 278.84,222.55 283.65,225.51 288.46,228.47 293.27,231.42 298.08,234.38 302.89,237.33 307.70,240.29 312.51,243.25 317.32,246.20 322.13,249.16 326.94,252.11 331.75,255.07 336.56,258.03 341.37,260.98 346.18,263.94 350.99,266.89 355.80,269.85 360.61,272.81 365.42,275.76 370.23,278.72 375.04,281.67 379.85,284.63 384.66,287.59 389.47,290.54 394.28,293.50 399.09,296.46 403.90,299.41 408.71,302.37 413.52,305.32 418.33,308.28 423.14,311.24 427.95,314.19 432.76,317.15 437.57,320.10 442.38,323.06 447.19,326.02 452.00,328.97"/>
<circle cx="294.60" cy="232.24" r="4.6" fill="#ffffff" stroke="#ff7f0e" stroke-width="2"/>
<text x="300.60" y="226.24" font-family="Arial, sans-serif" font-size="10" fill="#ff7f0e">min 319 ohm</text>
<polyline fill="none" stroke="#2ca02c" stroke-width="1.1" stroke-dasharray="6 4" points="72.00,81.03 76.81,83.98 81.62,86.94 86.43,89.90 91.24,92.85 96.05,95.81 100.86,98.76 105.67,101.72 110.48,104.68 115.29,107.63 120.10,110.59 124.91,113.54 129.72,116.50 134.53,119.46 139.34,122.41 144.15,125.37 148.96,128.33 153.77,131.28 158.58,134.24 163.39,137.19 168.20,140.15 173.01,143.11 177.82,146.06 182.63,149.02 187.44,151.97 192.25,154.93 197.06,157.89 201.87,160.84 206.68,163.80 211.49,166.75 216.30,169.71 221.11,172.67 225.92,175.62 230.73,178.58 235.54,181.53 240.35,184.49 245.16,187.45 249.97,190.40 254.78,193.36 259.59,196.31 264.41,199.27 269.22,202.23 274.03,205.18 278.84,208.14 283.65,211.09 288.46,214.05 293.27,217.01 298.08,219.96 302.89,222.92 307.70,225.87 312.51,228.83 317.32,231.79 322.13,234.74 326.94,237.70 331.75,240.66 336.56,243.61 341.37,246.57 346.18,249.52 350.99,252.48 355.80,255.44 360.61,258.39 365.42,261.35 370.23,264.30 375.04,267.26 379.85,270.22 384.66,273.17 389.47,276.13 394.28,279.08 399.09,282.04 403.90,285.00 408.71,287.95 413.52,290.91 418.33,293.86 423.14,296.82 427.95,299.78 432.76,302.73 437.57,305.69 442.38,308.64 447.19,311.60 452.00,314.56"/>
<circle cx="279.55" cy="208.58" r="4.6" fill="#ffffff" stroke="#2ca02c" stroke-width="2"/>
<text x="285.55" y="202.58" font-family="Arial, sans-serif" font-size="10" fill="#2ca02c">max 72.1 ohm</text>
<line x1="82.00" y1="80.00" x2="104.00" y2="80.00" stroke="#1f77b4" stroke-width="2"/>
<text x="110.00" y="84.00" font-family="Arial, sans-serif" font-size="11">typ</text>
<line x1="82.00" y1="97.00" x2="104.00" y2="97.00" stroke="#ff7f0e" stroke-width="2" stroke-dasharray="5 4"/>
<text x="110.00" y="101.00" font-family="Arial, sans-serif" font-size="11">min</text>
<line x1="82.00" y1="114.00" x2="104.00" y2="114.00" stroke="#2ca02c" stroke-width="2" stroke-dasharray="2 4"/>
<text x="110.00" y="118.00" font-family="Arial, sans-serif" font-size="11">max</text>
<text x="262.00" y="386.00" text-anchor="middle" font-family="Arial, sans-serif" font-size="11">Output voltage (V)</text>
<text transform="translate(22.00 205.00) rotate(-90)" text-anchor="middle" font-family="Arial, sans-serif" font-size="11">Current (mA)</text>
<rect x="492.00" y="62.00" width="380.00" height="286.00" fill="#fbfbfb" stroke="#c8c8c8"/>
<text x="500.00" y="50.00" font-family="Arial, sans-serif" font-size="13" font-weight="700">[Pullup] Rload to GND</text>
<line x1="492.00" y1="62.00" x2="492.00" y2="348.00" stroke="#ececec"/>
<text x="492.00" y="366.00" text-anchor="middle" font-family="Arial, sans-serif" font-size="10">-1.2</text>
<line x1="587.00" y1="62.00" x2="587.00" y2="348.00" stroke="#ececec"/>
<text x="587.00" y="366.00" text-anchor="middle" font-family="Arial, sans-serif" font-size="10">-0.341</text>
<line x1="682.00" y1="62.00" x2="682.00" y2="348.00" stroke="#ececec"/>
<text x="682.00" y="366.00" text-anchor="middle" font-family="Arial, sans-serif" font-size="10">0.55</text>
<line x1="777.00" y1="62.00" x2="777.00" y2="348.00" stroke="#ececec"/>
<text x="777.00" y="366.00" text-anchor="middle" font-family="Arial, sans-serif" font-size="10">1.4</text>
<line x1="872.00" y1="62.00" x2="872.00" y2="348.00" stroke="#ececec"/>
<text x="872.00" y="366.00" text-anchor="middle" font-family="Arial, sans-serif" font-size="10">2.3</text>
<line x1="492.00" y1="348.00" x2="872.00" y2="348.00" stroke="#ececec"/>
<text x="485.00" y="352.00" text-anchor="end" font-family="Arial, sans-serif" font-size="10">-55</text>
<line x1="492.00" y1="276.50" x2="872.00" y2="276.50" stroke="#ececec"/>
<text x="485.00" y="280.50" text-anchor="end" font-family="Arial, sans-serif" font-size="10">-33</text>
<line x1="492.00" y1="205.00" x2="872.00" y2="205.00" stroke="#ececec"/>
<text x="485.00" y="209.00" text-anchor="end" font-family="Arial, sans-serif" font-size="10">-11</text>
<line x1="492.00" y1="133.50" x2="872.00" y2="133.50" stroke="#ececec"/>
<text x="485.00" y="137.50" text-anchor="end" font-family="Arial, sans-serif" font-size="10">11</text>
<line x1="492.00" y1="62.00" x2="872.00" y2="62.00" stroke="#ececec"/>
<text x="485.00" y="66.00" text-anchor="end" font-family="Arial, sans-serif" font-size="10">33</text>
<line x1="623.36" y1="62" x2="623.36" y2="348" stroke="#777" stroke-dasharray="4 4"/>
<line x1="492.0" y1="168.96" x2="872.0" y2="168.96" stroke="#777" stroke-dasharray="4 4"/>
<polyline fill="none" stroke="#1f77b4" stroke-width="1.8" points="506.07,117.35 511.41,119.78 516.74,122.23 523.13,125.18 528.46,127.65 533.80,130.11 539.13,132.57 544.46,135.02 549.79,137.46 556.19,140.36 561.52,142.76 566.85,145.13 572.18,147.47 577.51,149.78 582.84,152.07 589.24,154.78 594.57,157.03 599.90,159.26 603.10,160.60 605.23,161.48 608.43,162.81 609.50,163.25 610.56,163.69 615.89,165.88 622.29,168.52 623.36,168.96 627.62,170.68 632.95,172.73 638.29,174.66 639.35,175.03 640.42,175.40 641.48,175.77 643.62,176.49 644.68,176.84 648.95,178.21 655.34,180.10 660.68,181.51 666.01,182.74 671.34,183.78 673.47,184.13 674.54,184.29 675.60,184.45 676.67,184.59 677.74,184.72 678.80,184.84 679.87,184.96 682.00,185.16 683.07,185.24 684.13,185.32 685.20,185.39 686.26,185.46 687.33,185.52 688.40,185.57 689.46,185.62 690.53,185.66 691.60,185.71 692.66,185.74 693.73,185.78 694.79,185.82 695.86,185.85 696.93,185.89 697.99,185.92 699.06,185.95 700.13,185.98 701.19,186.01 702.26,186.04 704.39,186.10 709.72,186.23 712.92,186.30 713.99,186.32 716.12,186.37 721.45,186.47 726.78,186.57 728.91,186.60 732.11,186.66 737.44,186.74 740.64,186.78 742.77,186.81 749.17,186.90 752.37,186.94 754.50,186.96 759.83,187.03 765.16,187.09 770.50,187.14 775.83,187.17 782.22,187.17 787.56,187.17 792.89,187.17 798.22,187.17 803.55,187.17 808.88,187.17 815.28,187.17 820.61,187.17 825.94,187.17 831.27,187.17 836.60,187.17 841.93,187.17 848.33,187.17 853.66,187.17 857.93,187.17"/>
<polyline fill="none" stroke="#ff7f0e" stroke-width="1.8" stroke-dasharray="5 4" points="506.07,131.96 511.41,133.65 516.74,135.34 523.13,137.37 528.46,139.10 533.80,140.85 539.13,142.62 544.46,144.40 549.79,146.18 556.19,148.30 561.52,150.07 566.85,151.81 572.18,153.54 577.51,155.24 582.84,156.91 589.24,158.88 594.57,160.50 599.90,162.10 603.10,163.05 605.23,163.68 608.43,164.62 609.50,164.93 610.56,165.24 615.89,166.80 622.29,168.66 623.36,168.96 627.62,170.15 632.95,171.53 638.29,172.79 639.35,173.03 640.42,173.27 641.48,173.50 643.62,173.94 644.68,174.15 648.95,174.96 655.34,176.02 660.68,176.73 666.01,177.28 671.34,177.66 673.47,177.77 674.54,177.81 675.60,177.85 676.67,177.89 677.74,177.92 678.80,177.95 679.87,177.98 682.00,178.02 683.07,178.04 684.13,178.06 685.20,178.08 686.26,178.10 687.33,178.12 688.40,178.14 689.46,178.15 690.53,178.17 691.60,178.18 692.66,178.20 693.73,178.21 694.79,178.23 695.86,178.24 696.93,178.25 697.99,178.27 699.06,178.28 700.13,178.29 701.19,178.31 702.26,178.32 704.39,178.34 709.72,178.39 712.92,178.42 713.99,178.43 716.12,178.45 721.45,178.50 726.78,178.54 728.91,178.56 732.11,178.58 737.44,178.62 740.64,178.64 742.77,178.65 749.17,178.68 752.37,178.70 754.50,178.70 759.83,178.70 765.16,178.70 770.50,178.70 775.83,178.70 782.22,178.70 787.56,178.70 792.89,178.70 798.22,178.70 803.55,178.70 808.88,178.70 815.28,178.70 820.61,178.70 825.94,178.70 831.27,178.70 836.60,178.70 841.93,178.70 848.33,178.70 853.66,178.70 857.93,178.70"/>
<polyline fill="none" stroke="#2ca02c" stroke-width="1.8" stroke-dasharray="2 4" points="506.07,99.10 511.41,102.42 516.74,105.74 523.13,109.72 528.46,113.04 533.80,116.34 539.13,119.62 544.46,122.89 549.79,126.13 556.19,129.99 561.52,133.18 566.85,136.34 572.18,139.48 577.51,142.59 582.84,145.67 589.24,149.36 594.57,152.43 599.90,155.48 603.10,157.27 605.23,158.42 608.43,160.14 609.50,160.74 610.56,161.35 615.89,164.53 622.29,168.34 623.36,168.96 627.62,171.44 632.95,174.48 638.29,177.42 639.35,177.99 640.42,178.53 641.48,179.05 643.62,180.04 644.68,180.55 648.95,182.62 655.34,185.68 660.68,188.12 666.01,190.42 671.34,192.57 673.47,193.38 674.54,193.78 675.60,194.17 676.67,194.55 677.74,194.92 678.80,195.28 679.87,195.64 682.00,196.33 683.07,196.66 684.13,196.98 685.20,197.29 686.26,197.59 687.33,197.87 688.40,198.15 689.46,198.42 690.53,198.68 691.60,198.92 692.66,199.16 693.73,199.38 694.79,199.59 695.86,199.79 696.93,199.97 697.99,200.15 699.06,200.31 700.13,200.47 701.19,200.61 702.26,200.74 704.39,200.98 709.72,201.46 712.92,201.69 713.99,201.76 716.12,201.90 721.45,202.20 726.78,202.46 728.91,202.56 732.11,202.70 737.44,202.91 740.64,203.03 742.77,203.10 749.17,203.31 752.37,203.41 754.50,203.47 759.83,203.62 765.16,203.76 770.50,203.89 775.83,204.01 782.22,204.15 787.56,204.26 792.89,204.33 798.22,204.33 803.55,204.33 808.88,204.33 815.28,204.33 820.61,204.33 825.94,204.33 831.27,204.33 836.60,204.33 841.93,204.33 848.33,204.33 853.66,204.33 857.93,204.33"/>
<polyline fill="none" stroke="#1f77b4" stroke-width="1.1" stroke-dasharray="6 4" points="492.00,321.76 496.81,318.81 501.62,315.85 506.43,312.90 511.24,309.94 516.05,306.98 520.86,304.03 525.67,301.07 530.48,298.12 535.29,295.16 540.10,292.20 544.91,289.25 549.72,286.29 554.53,283.34 559.34,280.38 564.15,277.42 568.96,274.47 573.77,271.51 578.58,268.56 583.39,265.60 588.20,262.64 593.01,259.69 597.82,256.73 602.63,253.77 607.44,250.82 612.25,247.86 617.06,244.91 621.87,241.95 626.68,238.99 631.49,236.04 636.30,233.08 641.11,230.13 645.92,227.17 650.73,224.21 655.54,221.26 660.35,218.30 665.16,215.35 669.97,212.39 674.78,209.43 679.59,206.48 684.41,203.52 689.22,200.57 694.03,197.61 698.84,194.65 703.65,191.70 708.46,188.74 713.27,185.79 718.08,182.83 722.89,179.87 727.70,176.92 732.51,173.96 737.32,171.01 742.13,168.05 746.94,165.09 751.75,162.14 756.56,159.18 761.37,156.23 766.18,153.27 770.99,150.31 775.80,147.36 780.61,144.40 785.42,141.44 790.23,138.49 795.04,135.53 799.85,132.58 804.66,129.62 809.47,126.66 814.28,123.71 819.09,120.75 823.90,117.80 828.71,114.84 833.52,111.88 838.33,108.93 843.14,105.97 847.95,103.02 852.76,100.06 857.57,97.10 862.38,94.15 867.19,91.19 872.00,88.24"/>
<circle cx="712.45" cy="186.29" r="4.6" fill="#ffffff" stroke="#1f77b4" stroke-width="2"/>
<text x="718.45" y="180.29" font-family="Arial, sans-serif" font-size="10" fill="#1f77b4">typ 158 ohm</text>
<polyline fill="none" stroke="#ff7f0e" stroke-width="1.1" stroke-dasharray="6 4" points="492.00,314.56 496.81,311.60 501.62,308.64 506.43,305.69 511.24,302.73 516.05,299.78 520.86,296.82 525.67,293.86 530.48,290.91 535.29,287.95 540.10,285.00 544.91,282.04 549.72,279.08 554.53,276.13 559.34,273.17 564.15,270.22 568.96,267.26 573.77,264.30 578.58,261.35 583.39,258.39 588.20,255.44 593.01,252.48 597.82,249.52 602.63,246.57 607.44,243.61 612.25,240.66 617.06,237.70 621.87,234.74 626.68,231.79 631.49,228.83 636.30,225.87 641.11,222.92 645.92,219.96 650.73,217.01 655.54,214.05 660.35,211.09 665.16,208.14 669.97,205.18 674.78,202.23 679.59,199.27 684.41,196.31 689.22,193.36 694.03,190.40 698.84,187.45 703.65,184.49 708.46,181.53 713.27,178.58 718.08,175.62 722.89,172.67 727.70,169.71 732.51,166.75 737.32,163.80 742.13,160.84 746.94,157.89 751.75,154.93 756.56,151.97 761.37,149.02 766.18,146.06 770.99,143.11 775.80,140.15 780.61,137.19 785.42,134.24 790.23,131.28 795.04,128.33 799.85,125.37 804.66,122.41 809.47,119.46 814.28,116.50 819.09,113.54 823.90,110.59 828.71,107.63 833.52,104.68 838.33,101.72 843.14,98.76 847.95,95.81 852.76,92.85 857.57,89.90 862.38,86.94 867.19,83.98 872.00,81.03"/>
<circle cx="713.51" cy="178.43" r="4.6" fill="#ffffff" stroke="#ff7f0e" stroke-width="2"/>
<text x="719.51" y="172.43" font-family="Arial, sans-serif" font-size="10" fill="#ff7f0e">min 293 ohm</text>
<polyline fill="none" stroke="#2ca02c" stroke-width="1.1" stroke-dasharray="6 4" points="492.00,328.97 496.81,326.02 501.62,323.06 506.43,320.10 511.24,317.15 516.05,314.19 520.86,311.24 525.67,308.28 530.48,305.32 535.29,302.37 540.10,299.41 544.91,296.46 549.72,293.50 554.53,290.54 559.34,287.59 564.15,284.63 568.96,281.67 573.77,278.72 578.58,275.76 583.39,272.81 588.20,269.85 593.01,266.89 597.82,263.94 602.63,260.98 607.44,258.03 612.25,255.07 617.06,252.11 621.87,249.16 626.68,246.20 631.49,243.25 636.30,240.29 641.11,237.33 645.92,234.38 650.73,231.42 655.54,228.47 660.35,225.51 665.16,222.55 669.97,219.60 674.78,216.64 679.59,213.69 684.41,210.73 689.22,207.77 694.03,204.82 698.84,201.86 703.65,198.91 708.46,195.95 713.27,192.99 718.08,190.04 722.89,187.08 727.70,184.13 732.51,181.17 737.32,178.21 742.13,175.26 746.94,172.30 751.75,169.34 756.56,166.39 761.37,163.43 766.18,160.48 770.99,157.52 775.80,154.56 780.61,151.61 785.42,148.65 790.23,145.70 795.04,142.74 799.85,139.78 804.66,136.83 809.47,133.87 814.28,130.92 819.09,127.96 823.90,125.00 828.71,122.05 833.52,119.09 838.33,116.14 843.14,113.18 847.95,110.22 852.76,107.27 857.57,104.31 862.38,101.36 867.19,98.40 872.00,95.44"/>
<circle cx="700.93" cy="200.57" r="4.6" fill="#ffffff" stroke="#2ca02c" stroke-width="2"/>
<text x="706.93" y="194.57" font-family="Arial, sans-serif" font-size="10" fill="#2ca02c">max 75.4 ohm</text>
<line x1="502.00" y1="80.00" x2="524.00" y2="80.00" stroke="#1f77b4" stroke-width="2"/>
<text x="530.00" y="84.00" font-family="Arial, sans-serif" font-size="11">typ</text>
<line x1="502.00" y1="97.00" x2="524.00" y2="97.00" stroke="#ff7f0e" stroke-width="2" stroke-dasharray="5 4"/>
<text x="530.00" y="101.00" font-family="Arial, sans-serif" font-size="11">min</text>
<line x1="502.00" y1="114.00" x2="524.00" y2="114.00" stroke="#2ca02c" stroke-width="2" stroke-dasharray="2 4"/>
<text x="530.00" y="118.00" font-family="Arial, sans-serif" font-size="11">max</text>
<text x="682.00" y="386.00" text-anchor="middle" font-family="Arial, sans-serif" font-size="11">Vcc-relative table voltage (V)</text>
<text transform="translate(442.00 205.00) rotate(-90)" text-anchor="middle" font-family="Arial, sans-serif" font-size="11">Current (mA)</text>
<rect x="72.00" y="418.00" width="800.00" height="144.00" fill="#ffffff" stroke="#c8c8c8"/>
<text x="82.00" y="436.00" font-family="Arial, sans-serif" font-size="12" font-weight="700">Operating-point summary</text>
<text x="82.00" y="454.00" font-family="Arial, sans-serif" font-size="10" font-weight="700" fill="#333">Table</text>
<text x="174.00" y="454.00" font-family="Arial, sans-serif" font-size="10" font-weight="700" fill="#333">Corner</text>
<text x="242.00" y="454.00" font-family="Arial, sans-serif" font-size="10" font-weight="700" fill="#333">Vout</text>
<text x="332.00" y="454.00" font-family="Arial, sans-serif" font-size="10" font-weight="700" fill="#333">Iop</text>
<text x="422.00" y="454.00" font-family="Arial, sans-serif" font-size="10" font-weight="700" fill="#333">Zout</text>
<text x="512.00" y="454.00" font-family="Arial, sans-serif" font-size="10" font-weight="700" fill="#333">Rseries</text>
<text x="82.00" y="473.00" font-family="Arial, sans-serif" font-size="10" fill="#1f77b4">pulldown</text>
<text x="174.00" y="473.00" font-family="Arial, sans-serif" font-size="10" fill="#1f77b4">typ</text>
<text x="242.00" y="473.00" font-family="Arial, sans-serif" font-size="10" fill="#1f77b4">0.8359 V</text>
<text x="332.00" y="473.00" font-family="Arial, sans-serif" font-size="10" fill="#1f77b4">5.3 mA</text>
<text x="422.00" y="473.00" font-family="Arial, sans-serif" font-size="10" fill="#1f77b4">158 ohm</text>
<text x="512.00" y="473.00" font-family="Arial, sans-serif" font-size="10" fill="#1f77b4">-108 ohm</text>
<text x="82.00" y="492.00" font-family="Arial, sans-serif" font-size="10" fill="#ff7f0e">pulldown</text>
<text x="174.00" y="492.00" font-family="Arial, sans-serif" font-size="10" fill="#ff7f0e">min</text>
<text x="242.00" y="492.00" font-family="Arial, sans-serif" font-size="10" fill="#ff7f0e">0.8557 V</text>
<text x="332.00" y="492.00" font-family="Arial, sans-serif" font-size="10" fill="#ff7f0e">2.7 mA</text>
<text x="422.00" y="492.00" font-family="Arial, sans-serif" font-size="10" fill="#ff7f0e">319 ohm</text>
<text x="512.00" y="492.00" font-family="Arial, sans-serif" font-size="10" fill="#ff7f0e">-269 ohm</text>
<text x="82.00" y="511.00" font-family="Arial, sans-serif" font-size="10" fill="#2ca02c">pulldown</text>
<text x="174.00" y="511.00" font-family="Arial, sans-serif" font-size="10" fill="#2ca02c">max</text>
<text x="242.00" y="511.00" font-family="Arial, sans-serif" font-size="10" fill="#2ca02c">0.7146 V</text>
<text x="332.00" y="511.00" font-family="Arial, sans-serif" font-size="10" fill="#2ca02c">9.9 mA</text>
<text x="422.00" y="511.00" font-family="Arial, sans-serif" font-size="10" fill="#2ca02c">72.1 ohm</text>
<text x="512.00" y="511.00" font-family="Arial, sans-serif" font-size="10" fill="#2ca02c">-22.1 ohm</text>
<text x="82.00" y="530.00" font-family="Arial, sans-serif" font-size="10" fill="#1f77b4">pullup</text>
<text x="174.00" y="530.00" font-family="Arial, sans-serif" font-size="10" fill="#1f77b4">typ</text>
<text x="242.00" y="530.00" font-family="Arial, sans-serif" font-size="10" fill="#1f77b4">0.2644 V</text>
<text x="332.00" y="530.00" font-family="Arial, sans-serif" font-size="10" fill="#1f77b4">-5.3 mA</text>
<text x="422.00" y="530.00" font-family="Arial, sans-serif" font-size="10" fill="#1f77b4">158 ohm</text>
<text x="512.00" y="530.00" font-family="Arial, sans-serif" font-size="10" fill="#1f77b4">-108 ohm</text>
<text x="82.00" y="549.00" font-family="Arial, sans-serif" font-size="10" fill="#ff7f0e">pullup</text>
<text x="174.00" y="549.00" font-family="Arial, sans-serif" font-size="10" fill="#ff7f0e">min</text>
<text x="242.00" y="549.00" font-family="Arial, sans-serif" font-size="10" fill="#ff7f0e">0.1445 V</text>
<text x="332.00" y="549.00" font-family="Arial, sans-serif" font-size="10" fill="#ff7f0e">-2.9 mA</text>
<text x="422.00" y="549.00" font-family="Arial, sans-serif" font-size="10" fill="#ff7f0e">293 ohm</text>
<text x="512.00" y="549.00" font-family="Arial, sans-serif" font-size="10" fill="#ff7f0e">-243 ohm</text>
<text x="82.00" y="568.00" font-family="Arial, sans-serif" font-size="10" fill="#2ca02c">pullup</text>
<text x="174.00" y="568.00" font-family="Arial, sans-serif" font-size="10" fill="#2ca02c">max</text>
<text x="242.00" y="568.00" font-family="Arial, sans-serif" font-size="10" fill="#2ca02c">0.4825 V</text>
<text x="332.00" y="568.00" font-family="Arial, sans-serif" font-size="10" fill="#2ca02c">-9.6 mA</text>
<text x="422.00" y="568.00" font-family="Arial, sans-serif" font-size="10" fill="#2ca02c">75.4 ohm</text>
<text x="512.00" y="568.00" font-family="Arial, sans-serif" font-size="10" fill="#2ca02c">-25.4 ohm</text>
</svg>