<svg xmlns="http://www.w3.org/2000/svg" width="900" height="620" viewBox="0 0 900 620">
<rect width="100%" height="100%" fill="#ffffff"/>
<text x="72" y="26" font-family="Arial, sans-serif" font-size="16" font-weight="700">E34_GPIO_I3C_I2C_SLV_1V8_00 Zout Load-Line Curves</text>
<text x="72" y="45" font-family="Arial, sans-serif" font-size="11" fill="#555">Rload=50 ohm; solid=device I-V, dashed=load line, circles=operating points</text>
<rect x="72.00" y="62.00" width="380.00" height="286.00" fill="#fbfbfb" stroke="#c8c8c8"/>
<text x="80.00" y="50.00" font-family="Arial, sans-serif" font-size="13" font-weight="700">[Pulldown] Rload to Vdd</text>
<line x1="72.00" y1="62.00" x2="72.00" y2="348.00" stroke="#ececec"/>
<text x="72.00" y="366.00" text-anchor="middle" font-family="Arial, sans-serif" font-size="10">-2</text>
<line x1="167.00" y1="62.00" x2="167.00" y2="348.00" stroke="#ececec"/>
<text x="167.00" y="366.00" text-anchor="middle" font-family="Arial, sans-serif" font-size="10">-0.558</text>
<line x1="262.00" y1="62.00" x2="262.00" y2="348.00" stroke="#ececec"/>
<text x="262.00" y="366.00" text-anchor="middle" font-family="Arial, sans-serif" font-size="10">0.9</text>
<line x1="357.00" y1="62.00" x2="357.00" y2="348.00" stroke="#ececec"/>
<text x="357.00" y="366.00" text-anchor="middle" font-family="Arial, sans-serif" font-size="10">2.4</text>
<line x1="452.00" y1="62.00" x2="452.00" y2="348.00" stroke="#ececec"/>
<text x="452.00" y="366.00" text-anchor="middle" font-family="Arial, sans-serif" font-size="10">3.8</text>
<line x1="72.00" y1="348.00" x2="452.00" y2="348.00" stroke="#ececec"/>
<text x="65.00" y="352.00" text-anchor="end" font-family="Arial, sans-serif" font-size="10">-53</text>
<line x1="72.00" y1="276.50" x2="452.00" y2="276.50" stroke="#ececec"/>
<text x="65.00" y="280.50" text-anchor="end" font-family="Arial, sans-serif" font-size="10">-18</text>
<line x1="72.00" y1="205.00" x2="452.00" y2="205.00" stroke="#ececec"/>
<text x="65.00" y="209.00" text-anchor="end" font-family="Arial, sans-serif" font-size="10">18</text>
<line x1="72.00" y1="133.50" x2="452.00" y2="133.50" stroke="#ececec"/>
<text x="65.00" y="137.50" text-anchor="end" font-family="Arial, sans-serif" font-size="10">54</text>
<line x1="72.00" y1="62.00" x2="452.00" y2="62.00" stroke="#ececec"/>
<text x="65.00" y="66.00" text-anchor="end" font-family="Arial, sans-serif" font-size="10">89</text>
<line x1="203.36" y1="62" x2="203.36" y2="348" stroke="#777" stroke-dasharray="4 4"/>
<line x1="72.0" y1="241.04" x2="452.0" y2="241.04" stroke="#777" stroke-dasharray="4 4"/>
<polyline fill="none" stroke="#1f77b4" stroke-width="1.8" points="86.07,279.34 91.29,279.34 97.15,279.34 102.36,279.34 108.23,279.34 113.44,279.34 119.30,279.34 124.52,279.34 130.38,279.34 135.59,279.34 141.46,279.34 146.02,279.34 146.67,279.34 147.32,279.34 147.97,279.34 148.63,279.34 149.28,279.30 149.93,279.21 150.58,279.08 151.23,278.92 151.88,278.74 152.53,278.54 153.19,278.33 153.84,278.10 154.49,277.87 155.14,277.62 155.79,277.37 156.44,277.11 157.10,276.83 161.66,274.70 162.96,274.00 164.26,273.28 164.91,272.89 165.57,272.51 166.87,271.70 168.17,270.86 168.82,270.42 169.48,269.97 170.13,269.52 170.78,269.06 171.43,268.59 172.73,267.62 174.04,266.62 179.90,261.82 185.11,257.28 190.98,252.04 196.19,247.35 202.05,242.17 203.36,241.04 207.27,237.74 212.48,233.58 218.34,229.33 223.56,226.02 229.42,222.86 232.03,221.65 234.63,220.56 237.24,219.59 240.50,218.53 245.71,217.18 251.57,216.10 256.79,215.45 262.65,214.94 267.86,214.61 273.08,214.36 276.99,214.20 278.94,214.12 282.85,213.99 284.15,213.95 290.02,213.77 295.23,213.63 301.09,213.48 306.31,213.35 308.91,213.30 312.17,213.23 317.38,213.12 320.64,213.05 322.60,213.01 328.46,212.90 332.37,212.83 333.67,212.80 339.54,212.69 344.75,212.60 350.61,212.43 355.83,212.16 361.69,211.60 366.90,210.78 372.77,209.47 377.98,207.97 383.19,206.17 389.06,203.82 394.27,201.48 400.13,198.59 405.35,195.77 411.21,192.27 416.42,188.80 422.29,184.41 427.50,179.98 433.36,174.35 436.62,170.92 437.93,169.49"/>
<polyline fill="none" stroke="#ff7f0e" stroke-width="1.8" stroke-dasharray="5 4" points="86.07,266.12 91.29,266.12 97.15,266.12 102.36,266.12 108.23,266.12 113.44,266.12 119.30,266.12 124.52,266.12 130.38,266.12 135.59,266.12 141.46,266.12 146.02,266.12 146.67,266.12 147.32,266.12 147.97,266.12 148.63,266.12 149.28,266.12 149.93,266.12 150.58,266.12 151.23,266.12 151.88,266.12 152.53,266.12 153.19,266.10 153.84,266.02 154.49,265.92 155.14,265.78 155.79,265.63 156.44,265.46 157.10,265.27 161.66,263.70 162.96,263.18 164.26,262.64 164.91,262.37 165.57,262.08 166.87,261.49 168.17,260.89 168.82,260.57 169.48,260.26 170.13,259.94 170.78,259.61 171.43,259.28 172.73,258.60 174.04,257.90 179.90,254.59 185.11,251.51 190.98,248.02 196.19,244.99 202.05,241.74 203.36,241.04 207.27,239.01 212.48,236.50 218.34,233.95 223.56,231.97 229.42,230.08 232.03,229.35 234.63,228.70 237.24,228.12 240.50,227.50 245.71,226.72 251.57,226.11 256.79,225.75 262.65,225.47 267.86,225.29 273.08,225.14 276.99,225.04 278.94,225.00 282.85,224.91 284.15,224.88 290.02,224.77 295.23,224.68 301.09,224.59 306.31,224.51 308.91,224.47 312.17,224.42 317.38,224.35 320.64,224.31 322.60,224.28 328.46,224.20 332.37,224.13 333.67,224.10 339.54,223.92 344.75,223.63 350.61,223.12 355.83,222.45 361.69,221.46 366.90,220.37 372.77,218.89 377.98,217.37 383.19,215.65 389.06,213.46 394.27,211.27 400.13,208.49 405.35,205.71 411.21,202.19 416.42,198.72 422.29,194.75 427.50,191.23 433.36,187.27 436.62,185.06 437.93,184.18"/>
<polyline fill="none" stroke="#2ca02c" stroke-width="1.8" stroke-dasharray="2 4" points="86.07,292.14 91.29,292.14 97.15,292.14 102.36,292.14 108.23,292.14 113.44,292.14 119.30,292.14 124.52,292.14 130.38,292.14 135.59,292.14 141.46,292.14 146.02,292.14 146.67,292.08 147.32,291.96 147.97,291.82 148.63,291.64 149.28,291.45 149.93,291.25 150.58,291.03 151.23,290.81 151.88,290.58 152.53,290.34 153.19,290.09 153.84,289.83 154.49,289.57 155.14,289.30 155.79,289.02 156.44,288.72 157.10,288.42 161.66,286.02 162.96,285.22 164.26,284.37 164.91,283.93 165.57,283.47 166.87,282.51 168.17,281.49 168.82,280.95 169.48,280.41 170.13,279.84 170.78,279.27 171.43,278.68 172.73,277.46 174.04,276.19 179.90,269.95 185.11,263.91 190.98,256.74 196.19,250.16 202.05,242.69 203.36,241.04 207.27,236.18 212.48,230.01 218.34,223.68 223.56,218.75 229.42,214.05 232.03,212.25 234.63,210.63 237.24,209.17 240.50,207.58 245.71,205.51 251.57,203.79 256.79,202.71 262.65,201.85 267.86,201.31 273.08,200.89 276.99,200.64 278.94,200.53 282.85,200.32 284.15,200.26 290.02,199.99 295.23,199.78 301.09,199.57 306.31,199.39 308.91,199.31 312.17,199.21 317.38,199.05 320.64,198.95 322.60,198.90 328.46,198.74 332.37,198.63 333.67,198.60 339.54,198.44 344.75,198.31 350.61,198.17 355.83,198.04 361.69,197.86 366.90,197.55 372.77,196.84 377.98,195.75 383.19,194.16 389.06,191.82 394.27,189.35 400.13,186.22 405.35,183.19 411.21,179.53 416.42,176.06 422.29,171.82 427.50,167.64 433.36,162.28 436.62,158.93 437.93,157.51"/>
<polyline fill="none" stroke="#1f77b4" stroke-width="1.1" stroke-dasharray="6 4" points="72.00,88.24 76.81,91.19 81.62,94.15 86.43,97.10 91.24,100.06 96.05,103.02 100.86,105.97 105.67,108.93 110.48,111.88 115.29,114.84 120.10,117.80 124.91,120.75 129.72,123.71 134.53,126.66 139.34,129.62 144.15,132.58 148.96,135.53 153.77,138.49 158.58,141.44 163.39,144.40 168.20,147.36 173.01,150.31 177.82,153.27 182.63,156.23 187.44,159.18 192.25,162.14 197.06,165.09 201.87,168.05 206.68,171.01 211.49,173.96 216.30,176.92 221.11,179.87 225.92,182.83 230.73,185.79 235.54,188.74 240.35,191.70 245.16,194.65 249.97,197.61 254.78,200.57 259.59,203.52 264.41,206.48 269.22,209.43 274.03,212.39 278.84,215.35 283.65,218.30 288.46,221.26 293.27,224.21 298.08,227.17 302.89,230.13 307.70,233.08 312.51,236.04 317.32,238.99 322.13,241.95 326.94,244.91 331.75,247.86 336.56,250.82 341.37,253.77 346.18,256.73 350.99,259.69 355.80,262.64 360.61,265.60 365.42,268.56 370.23,271.51 375.04,274.47 379.85,277.42 384.66,280.38 389.47,283.34 394.28,286.29 399.09,289.25 403.90,292.20 408.71,295.16 413.52,298.12 418.33,301.07 423.14,304.03 427.95,306.98 432.76,309.94 437.57,312.90 442.38,315.85 447.19,318.81 452.00,321.76"/>
<circle cx="276.97" cy="214.20" r="4.6" fill="#ffffff" stroke="#1f77b4" stroke-width="2"/>
<text x="282.97" y="208.20" font-family="Arial, sans-serif" font-size="10" fill="#1f77b4">typ 84.3 ohm</text>
<polyline fill="none" stroke="#ff7f0e" stroke-width="1.1" stroke-dasharray="6 4" points="72.00,95.44 76.81,98.40 81.62,101.36 86.43,104.31 91.24,107.27 96.05,110.22 100.86,113.18 105.67,116.14 110.48,119.09 115.29,122.05 120.10,125.00 124.91,127.96 129.72,130.92 134.53,133.87 139.34,136.83 144.15,139.78 148.96,142.74 153.77,145.70 158.58,148.65 163.39,151.61 168.20,154.56 173.01,157.52 177.82,160.48 182.63,163.43 187.44,166.39 192.25,169.34 197.06,172.30 201.87,175.26 206.68,178.21 211.49,181.17 216.30,184.13 221.11,187.08 225.92,190.04 230.73,192.99 235.54,195.95 240.35,198.91 245.16,201.86 249.97,204.82 254.78,207.77 259.59,210.73 264.41,213.69 269.22,216.64 274.03,219.60 278.84,222.55 283.65,225.51 288.46,228.47 293.27,231.42 298.08,234.38 302.89,237.33 307.70,240.29 312.51,243.25 317.32,246.20 322.13,249.16 326.94,252.11 331.75,255.07 336.56,258.03 341.37,260.98 346.18,263.94 350.99,266.89 355.80,269.85 360.61,272.81 365.42,275.76 370.23,278.72 375.04,281.67 379.85,284.63 384.66,287.59 389.47,290.54 394.28,293.50 399.09,296.46 403.90,299.41 408.71,302.37 413.52,305.32 418.33,308.28 423.14,311.24 427.95,314.19 432.76,317.15 437.57,320.10 442.38,323.06 447.19,326.02 452.00,328.97"/>
<circle cx="282.68" cy="224.91" r="4.6" fill="#ffffff" stroke="#ff7f0e" stroke-width="2"/>
<text x="288.68" y="218.91" font-family="Arial, sans-serif" font-size="10" fill="#ff7f0e">min 151 ohm</text>
<polyline fill="none" stroke="#2ca02c" stroke-width="1.1" stroke-dasharray="6 4" points="72.00,81.03 76.81,83.98 81.62,86.94 86.43,89.90 91.24,92.85 96.05,95.81 100.86,98.76 105.67,101.72 110.48,104.68 115.29,107.63 120.10,110.59 124.91,113.54 129.72,116.50 134.53,119.46 139.34,122.41 144.15,125.37 148.96,128.33 153.77,131.28 158.58,134.24 163.39,137.19 168.20,140.15 173.01,143.11 177.82,146.06 182.63,149.02 187.44,151.97 192.25,154.93 197.06,157.89 201.87,160.84 206.68,163.80 211.49,166.75 216.30,169.71 221.11,172.67 225.92,175.62 230.73,178.58 235.54,181.53 240.35,184.49 245.16,187.45 249.97,190.40 254.78,193.36 259.59,196.31 264.41,199.27 269.22,202.23 274.03,205.18 278.84,208.14 283.65,211.09 288.46,214.05 293.27,217.01 298.08,219.96 302.89,222.92 307.70,225.87 312.51,228.83 317.32,231.79 322.13,234.74 326.94,237.70 331.75,240.66 336.56,243.61 341.37,246.57 346.18,249.52 350.99,252.48 355.80,255.44 360.61,258.39 365.42,261.35 370.23,264.30 375.04,267.26 379.85,270.22 384.66,273.17 389.47,276.13 394.28,279.08 399.09,282.04 403.90,285.00 408.71,287.95 413.52,290.91 418.33,293.86 423.14,296.82 427.95,299.78 432.76,302.73 437.57,305.69 442.38,308.64 447.19,311.60 452.00,314.56"/>
<circle cx="267.74" cy="201.32" r="4.6" fill="#ffffff" stroke="#2ca02c" stroke-width="2"/>
<text x="273.74" y="195.32" font-family="Arial, sans-serif" font-size="10" fill="#2ca02c">max 49.8 ohm</text>
<line x1="82.00" y1="80.00" x2="104.00" y2="80.00" stroke="#1f77b4" stroke-width="2"/>
<text x="110.00" y="84.00" font-family="Arial, sans-serif" font-size="11">typ</text>
<line x1="82.00" y1="97.00" x2="104.00" y2="97.00" stroke="#ff7f0e" stroke-width="2" stroke-dasharray="5 4"/>
<text x="110.00" y="101.00" font-family="Arial, sans-serif" font-size="11">min</text>
<line x1="82.00" y1="114.00" x2="104.00" y2="114.00" stroke="#2ca02c" stroke-width="2" stroke-dasharray="2 4"/>
<text x="110.00" y="118.00" font-family="Arial, sans-serif" font-size="11">max</text>
<text x="262.00" y="386.00" text-anchor="middle" font-family="Arial, sans-serif" font-size="11">Output voltage (V)</text>
<text transform="translate(22.00 205.00) rotate(-90)" text-anchor="middle" font-family="Arial, sans-serif" font-size="11">Current (mA)</text>
<rect x="492.00" y="62.00" width="380.00" height="286.00" fill="#fbfbfb" stroke="#c8c8c8"/>
<text x="500.00" y="50.00" font-family="Arial, sans-serif" font-size="13" font-weight="700">[Pullup] Rload to GND</text>
<line x1="492.00" y1="62.00" x2="492.00" y2="348.00" stroke="#ececec"/>
<text x="492.00" y="366.00" text-anchor="middle" font-family="Arial, sans-serif" font-size="10">-2</text>
<line x1="587.00" y1="62.00" x2="587.00" y2="348.00" stroke="#ececec"/>
<text x="587.00" y="366.00" text-anchor="middle" font-family="Arial, sans-serif" font-size="10">-0.558</text>
<line x1="682.00" y1="62.00" x2="682.00" y2="348.00" stroke="#ececec"/>
<text x="682.00" y="366.00" text-anchor="middle" font-family="Arial, sans-serif" font-size="10">0.9</text>
<line x1="777.00" y1="62.00" x2="777.00" y2="348.00" stroke="#ececec"/>
<text x="777.00" y="366.00" text-anchor="middle" font-family="Arial, sans-serif" font-size="10">2.4</text>
<line x1="872.00" y1="62.00" x2="872.00" y2="348.00" stroke="#ececec"/>
<text x="872.00" y="366.00" text-anchor="middle" font-family="Arial, sans-serif" font-size="10">3.8</text>
<line x1="492.00" y1="348.00" x2="872.00" y2="348.00" stroke="#ececec"/>
<text x="485.00" y="352.00" text-anchor="end" font-family="Arial, sans-serif" font-size="10">-92</text>
<line x1="492.00" y1="276.50" x2="872.00" y2="276.50" stroke="#ececec"/>
<text x="485.00" y="280.50" text-anchor="end" font-family="Arial, sans-serif" font-size="10">-50</text>
<line x1="492.00" y1="205.00" x2="872.00" y2="205.00" stroke="#ececec"/>
<text x="485.00" y="209.00" text-anchor="end" font-family="Arial, sans-serif" font-size="10">-8.1</text>
<line x1="492.00" y1="133.50" x2="872.00" y2="133.50" stroke="#ececec"/>
<text x="485.00" y="137.50" text-anchor="end" font-family="Arial, sans-serif" font-size="10">34</text>
<line x1="492.00" y1="62.00" x2="872.00" y2="62.00" stroke="#ececec"/>
<text x="485.00" y="66.00" text-anchor="end" font-family="Arial, sans-serif" font-size="10">76</text>
<line x1="623.36" y1="62" x2="623.36" y2="348" stroke="#777" stroke-dasharray="4 4"/>
<line x1="492.0" y1="191.20" x2="872.0" y2="191.20" stroke="#777" stroke-dasharray="4 4"/>
<polyline fill="none" stroke="#1f77b4" stroke-width="1.8" points="506.07,107.01 506.73,107.69 508.03,109.05 508.68,109.71 509.98,111.03 510.64,111.68 511.29,112.33 511.94,112.97 512.59,113.60 513.24,114.23 513.89,114.85 514.54,115.46 515.20,116.07 515.85,116.68 517.15,117.87 518.45,119.04 519.11,119.62 519.76,120.19 520.41,120.75 521.06,121.31 521.71,121.87 522.36,122.42 523.67,123.50 525.62,125.09 528.23,127.16 533.44,131.13 539.30,135.39 544.52,139.08 550.38,143.17 555.59,146.77 561.46,150.80 566.67,154.35 571.88,157.88 577.75,161.82 582.96,165.29 588.82,169.16 594.04,172.57 599.90,176.38 605.11,179.74 610.98,183.48 616.19,186.76 616.84,187.16 617.49,187.57 622.05,190.40 623.36,191.20 627.27,193.53 629.22,194.64 629.87,195.00 630.53,195.36 631.18,195.72 632.48,196.42 638.34,199.42 643.56,201.85 649.42,204.30 652.68,205.53 654.63,206.22 660.50,208.08 665.71,209.49 671.57,210.79 676.79,211.74 682.65,212.58 687.86,213.18 689.17,213.31 693.08,213.66 696.99,213.96 698.94,214.10 702.85,214.34 704.15,214.42 710.02,214.72 715.23,214.96 721.09,215.20 726.31,215.38 728.91,215.47 732.17,215.58 737.38,215.73 740.64,215.83 742.60,215.88 748.46,216.04 752.37,216.14 753.67,216.17 759.54,216.31 764.75,216.43 770.61,216.56 775.83,216.67 781.04,216.77 781.69,216.78 786.90,216.89 792.77,217.00 798.63,217.11 803.19,217.11 809.06,217.11 814.27,217.11 820.13,217.11 825.35,217.11 831.21,217.11 836.42,217.11 842.29,217.11 847.50,217.11 853.36,217.11 857.93,217.11"/>
<polyline fill="none" stroke="#ff7f0e" stroke-width="1.8" stroke-dasharray="5 4" points="506.07,126.68 506.73,127.17 508.03,128.15 508.68,128.63 509.98,129.61 510.64,130.10 511.29,130.59 511.94,131.08 512.59,131.57 513.24,132.05 513.89,132.54 514.54,133.03 515.20,133.52 515.85,134.01 517.15,134.98 518.45,135.96 519.11,136.45 519.76,136.93 520.41,137.41 521.06,137.88 521.71,138.35 522.36,138.82 523.67,139.74 525.62,141.11 528.23,142.88 533.44,146.28 539.30,149.91 544.52,153.01 550.38,156.36 555.59,159.27 561.46,162.45 566.67,165.22 571.88,167.93 577.75,170.91 582.96,173.48 588.82,176.30 594.04,178.73 599.90,181.39 605.11,183.68 610.98,186.17 616.19,188.32 616.84,188.58 617.49,188.85 622.05,190.68 623.36,191.20 627.27,192.68 629.22,193.39 629.87,193.62 630.53,193.85 631.18,194.07 632.48,194.51 638.34,196.37 643.56,197.86 649.42,199.34 652.68,200.07 654.63,200.48 660.50,201.56 665.71,202.33 671.57,203.01 676.79,203.47 682.65,203.87 687.86,204.14 689.17,204.20 693.08,204.36 696.99,204.50 698.94,204.56 702.85,204.68 704.15,204.72 710.02,204.87 715.23,204.99 721.09,205.12 726.31,205.22 728.91,205.27 732.17,205.33 737.38,205.41 740.64,205.47 742.60,205.50 748.46,205.59 752.37,205.64 753.67,205.66 759.54,205.74 764.75,205.81 770.61,205.88 775.83,205.95 781.04,206.01 781.69,206.02 786.90,206.02 792.77,206.02 798.63,206.02 803.19,206.02 809.06,206.02 814.27,206.02 820.13,206.02 825.35,206.02 831.21,206.02 836.42,206.02 842.29,206.02 847.50,206.02 853.36,206.02 857.93,206.02"/>
<polyline fill="none" stroke="#2ca02c" stroke-width="1.8" stroke-dasharray="2 4" points="506.07,89.68 506.73,90.50 508.03,92.13 508.68,92.93 509.98,94.52 510.64,95.30 511.29,96.07 511.94,96.83 512.59,97.58 513.24,98.33 513.89,99.06 514.54,99.79 515.20,100.51 515.85,101.23 517.15,102.62 518.45,103.99 519.11,104.65 519.76,105.31 520.41,105.97 521.06,106.61 521.71,107.25 522.36,107.88 523.67,109.11 525.62,110.91 528.23,113.22 533.44,117.60 539.30,122.29 544.52,126.35 550.38,130.89 555.59,134.94 561.46,139.51 566.67,143.59 571.88,147.69 577.75,152.34 582.96,156.51 588.82,161.25 594.04,165.54 599.90,170.46 605.11,174.94 610.98,180.09 616.19,184.66 616.84,185.23 617.49,185.81 622.05,190.01 623.36,191.20 627.27,194.67 629.22,196.34 629.87,196.88 630.53,197.42 631.18,197.94 632.48,198.94 638.34,203.35 643.56,206.91 649.42,210.47 652.68,212.26 654.63,213.26 660.50,215.98 665.71,218.07 671.57,220.06 676.79,221.56 682.65,222.95 687.86,223.97 689.17,224.19 693.08,224.80 696.99,225.32 698.94,225.56 702.85,225.98 704.15,226.10 710.02,226.62 715.23,227.00 721.09,227.38 726.31,227.68 728.91,227.81 732.17,227.97 737.38,228.22 740.64,228.36 742.60,228.44 748.46,228.67 752.37,228.82 753.67,228.86 759.54,229.07 764.75,229.24 770.61,229.43 775.83,229.58 781.04,229.73 781.69,229.75 786.90,229.90 792.77,230.06 798.63,230.21 803.19,230.32 809.06,230.47 814.27,230.60 820.13,230.60 825.35,230.60 831.21,230.60 836.42,230.60 842.29,230.60 847.50,230.60 853.36,230.60 857.93,230.60"/>
<polyline fill="none" stroke="#1f77b4" stroke-width="1.1" stroke-dasharray="6 4" points="492.00,321.55 496.81,319.03 501.62,316.51 506.43,313.99 511.24,311.47 516.05,308.94 520.86,306.42 525.67,303.90 530.48,301.38 535.29,298.86 540.10,296.33 544.91,293.81 549.72,291.29 554.53,288.77 559.34,286.25 564.15,283.73 568.96,281.20 573.77,278.68 578.58,276.16 583.39,273.64 588.20,271.12 593.01,268.59 597.82,266.07 602.63,263.55 607.44,261.03 612.25,258.51 617.06,255.99 621.87,253.46 626.68,250.94 631.49,248.42 636.30,245.90 641.11,243.38 645.92,240.86 650.73,238.33 655.54,235.81 660.35,233.29 665.16,230.77 669.97,228.25 674.78,225.72 679.59,223.20 684.41,220.68 689.22,218.16 694.03,215.64 698.84,213.12 703.65,210.59 708.46,208.07 713.27,205.55 718.08,203.03 722.89,200.51 727.70,197.98 732.51,195.46 737.32,192.94 742.13,190.42 746.94,187.90 751.75,185.38 756.56,182.85 761.37,180.33 766.18,177.81 770.99,175.29 775.80,172.77 780.61,170.24 785.42,167.72 790.23,165.20 795.04,162.68 799.85,160.16 804.66,157.64 809.47,155.11 814.28,152.59 819.09,150.07 823.90,147.55 828.71,145.03 833.52,142.51 838.33,139.98 843.14,137.46 847.95,134.94 852.76,132.42 857.57,129.90 862.38,127.37 867.19,124.85 872.00,122.33"/>
<circle cx="697.20" cy="213.97" r="4.6" fill="#ffffff" stroke="#1f77b4" stroke-width="2"/>
<text x="703.20" y="207.97" font-family="Arial, sans-serif" font-size="10" fill="#1f77b4">typ 85 ohm</text>
<polyline fill="none" stroke="#ff7f0e" stroke-width="1.1" stroke-dasharray="6 4" points="492.00,315.40 496.81,312.88 501.62,310.36 506.43,307.84 511.24,305.32 516.05,302.79 520.86,300.27 525.67,297.75 530.48,295.23 535.29,292.71 540.10,290.19 544.91,287.66 549.72,285.14 554.53,282.62 559.34,280.10 564.15,277.58 568.96,275.05 573.77,272.53 578.58,270.01 583.39,267.49 588.20,264.97 593.01,262.45 597.82,259.92 602.63,257.40 607.44,254.88 612.25,252.36 617.06,249.84 621.87,247.32 626.68,244.79 631.49,242.27 636.30,239.75 641.11,237.23 645.92,234.71 650.73,232.18 655.54,229.66 660.35,227.14 665.16,224.62 669.97,222.10 674.78,219.58 679.59,217.05 684.41,214.53 689.22,212.01 694.03,209.49 698.84,206.97 703.65,204.44 708.46,201.92 713.27,199.40 718.08,196.88 722.89,194.36 727.70,191.84 732.51,189.31 737.32,186.79 742.13,184.27 746.94,181.75 751.75,179.23 756.56,176.71 761.37,174.18 766.18,171.66 770.99,169.14 775.80,166.62 780.61,164.10 785.42,161.57 790.23,159.05 795.04,156.53 799.85,154.01 804.66,151.49 809.47,148.97 814.28,146.44 819.09,143.92 823.90,141.40 828.71,138.88 833.52,136.36 838.33,133.83 843.14,131.31 847.95,128.79 852.76,126.27 857.57,123.75 862.38,121.23 867.19,118.70 872.00,116.18"/>
<circle cx="703.18" cy="204.69" r="4.6" fill="#ffffff" stroke="#ff7f0e" stroke-width="2"/>
<text x="709.18" y="198.69" font-family="Arial, sans-serif" font-size="10" fill="#ff7f0e">min 155 ohm</text>
<polyline fill="none" stroke="#2ca02c" stroke-width="1.1" stroke-dasharray="6 4" points="492.00,327.70 496.81,325.18 501.62,322.66 506.43,320.14 511.24,317.61 516.05,315.09 520.86,312.57 525.67,310.05 530.48,307.53 535.29,305.01 540.10,302.48 544.91,299.96 549.72,297.44 554.53,294.92 559.34,292.40 564.15,289.87 568.96,287.35 573.77,284.83 578.58,282.31 583.39,279.79 588.20,277.27 593.01,274.74 597.82,272.22 602.63,269.70 607.44,267.18 612.25,264.66 617.06,262.13 621.87,259.61 626.68,257.09 631.49,254.57 636.30,252.05 641.11,249.53 645.92,247.00 650.73,244.48 655.54,241.96 660.35,239.44 665.16,236.92 669.97,234.39 674.78,231.87 679.59,229.35 684.41,226.83 689.22,224.31 694.03,221.79 698.84,219.26 703.65,216.74 708.46,214.22 713.27,211.70 718.08,209.18 722.89,206.66 727.70,204.13 732.51,201.61 737.32,199.09 742.13,196.57 746.94,194.05 751.75,191.52 756.56,189.00 761.37,186.48 766.18,183.96 770.99,181.44 775.80,178.92 780.61,176.39 785.42,173.87 790.23,171.35 795.04,168.83 799.85,166.31 804.66,163.78 809.47,161.26 814.28,158.74 819.09,156.22 823.90,153.70 828.71,151.18 833.52,148.65 838.33,146.13 843.14,143.61 847.95,141.09 852.76,138.57 857.57,136.05 862.38,133.52 867.19,131.00 872.00,128.48"/>
<circle cx="689.37" cy="224.22" r="4.6" fill="#ffffff" stroke="#2ca02c" stroke-width="2"/>
<text x="695.37" y="218.22" font-family="Arial, sans-serif" font-size="10" fill="#2ca02c">max 52.4 ohm</text>
<line x1="502.00" y1="80.00" x2="524.00" y2="80.00" stroke="#1f77b4" stroke-width="2"/>
<text x="530.00" y="84.00" font-family="Arial, sans-serif" font-size="11">typ</text>
<line x1="502.00" y1="97.00" x2="524.00" y2="97.00" stroke="#ff7f0e" stroke-width="2" stroke-dasharray="5 4"/>
<text x="530.00" y="101.00" font-family="Arial, sans-serif" font-size="11">min</text>
<line x1="502.00" y1="114.00" x2="524.00" y2="114.00" stroke="#2ca02c" stroke-width="2" stroke-dasharray="2 4"/>
<text x="530.00" y="118.00" font-family="Arial, sans-serif" font-size="11">max</text>
<text x="682.00" y="386.00" text-anchor="middle" font-family="Arial, sans-serif" font-size="11">Vcc-relative table voltage (V)</text>
<text transform="translate(442.00 205.00) rotate(-90)" text-anchor="middle" font-family="Arial, sans-serif" font-size="11">Current (mA)</text>
<rect x="72.00" y="418.00" width="800.00" height="144.00" fill="#ffffff" stroke="#c8c8c8"/>
<text x="82.00" y="436.00" font-family="Arial, sans-serif" font-size="12" font-weight="700">Operating-point summary</text>
<text x="82.00" y="454.00" font-family="Arial, sans-serif" font-size="10" font-weight="700" fill="#333">Table</text>
<text x="174.00" y="454.00" font-family="Arial, sans-serif" font-size="10" font-weight="700" fill="#333">Corner</text>
<text x="242.00" y="454.00" font-family="Arial, sans-serif" font-size="10" font-weight="700" fill="#333">Vout</text>
<text x="332.00" y="454.00" font-family="Arial, sans-serif" font-size="10" font-weight="700" fill="#333">Iop</text>
<text x="422.00" y="454.00" font-family="Arial, sans-serif" font-size="10" font-weight="700" fill="#333">Zout</text>
<text x="512.00" y="454.00" font-family="Arial, sans-serif" font-size="10" font-weight="700" fill="#333">Rseries</text>
<text x="82.00" y="473.00" font-family="Arial, sans-serif" font-size="10" fill="#1f77b4">pulldown</text>
<text x="174.00" y="473.00" font-family="Arial, sans-serif" font-size="10" fill="#1f77b4">typ</text>
<text x="242.00" y="473.00" font-family="Arial, sans-serif" font-size="10" fill="#1f77b4">1.13 V</text>
<text x="332.00" y="473.00" font-family="Arial, sans-serif" font-size="10" fill="#1f77b4">13 mA</text>
<text x="422.00" y="473.00" font-family="Arial, sans-serif" font-size="10" fill="#1f77b4">84.3 ohm</text>
<text x="512.00" y="473.00" font-family="Arial, sans-serif" font-size="10" fill="#1f77b4">-34.3 ohm</text>
<text x="82.00" y="492.00" font-family="Arial, sans-serif" font-size="10" fill="#ff7f0e">pulldown</text>
<text x="174.00" y="492.00" font-family="Arial, sans-serif" font-size="10" fill="#ff7f0e">min</text>
<text x="242.00" y="492.00" font-family="Arial, sans-serif" font-size="10" fill="#ff7f0e">1.217 V</text>
<text x="332.00" y="492.00" font-family="Arial, sans-serif" font-size="10" fill="#ff7f0e">8.1 mA</text>
<text x="422.00" y="492.00" font-family="Arial, sans-serif" font-size="10" fill="#ff7f0e">151 ohm</text>
<text x="512.00" y="492.00" font-family="Arial, sans-serif" font-size="10" fill="#ff7f0e">-101 ohm</text>
<text x="82.00" y="511.00" font-family="Arial, sans-serif" font-size="10" fill="#2ca02c">pulldown</text>
<text x="174.00" y="511.00" font-family="Arial, sans-serif" font-size="10" fill="#2ca02c">max</text>
<text x="242.00" y="511.00" font-family="Arial, sans-serif" font-size="10" fill="#2ca02c">0.9881 V</text>
<text x="332.00" y="511.00" font-family="Arial, sans-serif" font-size="10" fill="#2ca02c">20 mA</text>
<text x="422.00" y="511.00" font-family="Arial, sans-serif" font-size="10" fill="#2ca02c">49.8 ohm</text>
<text x="512.00" y="511.00" font-family="Arial, sans-serif" font-size="10" fill="#2ca02c">0.1939 ohm</text>
<text x="82.00" y="530.00" font-family="Arial, sans-serif" font-size="10" fill="#1f77b4">pullup</text>
<text x="174.00" y="530.00" font-family="Arial, sans-serif" font-size="10" fill="#1f77b4">typ</text>
<text x="242.00" y="530.00" font-family="Arial, sans-serif" font-size="10" fill="#1f77b4">0.6668 V</text>
<text x="332.00" y="530.00" font-family="Arial, sans-serif" font-size="10" fill="#1f77b4">-13 mA</text>
<text x="422.00" y="530.00" font-family="Arial, sans-serif" font-size="10" fill="#1f77b4">85 ohm</text>
<text x="512.00" y="530.00" font-family="Arial, sans-serif" font-size="10" fill="#1f77b4">-35 ohm</text>
<text x="82.00" y="549.00" font-family="Arial, sans-serif" font-size="10" fill="#ff7f0e">pullup</text>
<text x="174.00" y="549.00" font-family="Arial, sans-serif" font-size="10" fill="#ff7f0e">min</text>
<text x="242.00" y="549.00" font-family="Arial, sans-serif" font-size="10" fill="#ff7f0e">0.395 V</text>
<text x="332.00" y="549.00" font-family="Arial, sans-serif" font-size="10" fill="#ff7f0e">-7.9 mA</text>
<text x="422.00" y="549.00" font-family="Arial, sans-serif" font-size="10" fill="#ff7f0e">155 ohm</text>
<text x="512.00" y="549.00" font-family="Arial, sans-serif" font-size="10" fill="#ff7f0e">-105 ohm</text>
<text x="82.00" y="568.00" font-family="Arial, sans-serif" font-size="10" fill="#2ca02c">pullup</text>
<text x="174.00" y="568.00" font-family="Arial, sans-serif" font-size="10" fill="#2ca02c">max</text>
<text x="242.00" y="568.00" font-family="Arial, sans-serif" font-size="10" fill="#2ca02c">0.9668 V</text>
<text x="332.00" y="568.00" font-family="Arial, sans-serif" font-size="10" fill="#2ca02c">-19 mA</text>
<text x="422.00" y="568.00" font-family="Arial, sans-serif" font-size="10" fill="#2ca02c">52.4 ohm</text>
<text x="512.00" y="568.00" font-family="Arial, sans-serif" font-size="10" fill="#2ca02c">-2.396 ohm</text>
</svg>