<svg xmlns="http://www.w3.org/2000/svg" width="900" height="620" viewBox="0 0 900 620">
<rect width="100%" height="100%" fill="#ffffff"/>
<text x="72" y="26" font-family="Arial, sans-serif" font-size="16" font-weight="700">E34_GPIO_I2CSCLIN_1V1_01_ISOSW Zout Load-Line Curves</text>
<text x="72" y="45" font-family="Arial, sans-serif" font-size="11" fill="#555">Rload=50 ohm; solid=device I-V, dashed=load line, circles=operating points</text>
<rect x="72.00" y="62.00" width="380.00" height="286.00" fill="#fbfbfb" stroke="#c8c8c8"/>
<text x="80.00" y="50.00" font-family="Arial, sans-serif" font-size="13" font-weight="700">[Pulldown] Rload to Vdd</text>
<line x1="72.00" y1="62.00" x2="72.00" y2="348.00" stroke="#ececec"/>
<text x="72.00" y="366.00" text-anchor="middle" font-family="Arial, sans-serif" font-size="10">-1.2</text>
<line x1="167.00" y1="62.00" x2="167.00" y2="348.00" stroke="#ececec"/>
<text x="167.00" y="366.00" text-anchor="middle" font-family="Arial, sans-serif" font-size="10">-0.341</text>
<line x1="262.00" y1="62.00" x2="262.00" y2="348.00" stroke="#ececec"/>
<text x="262.00" y="366.00" text-anchor="middle" font-family="Arial, sans-serif" font-size="10">0.55</text>
<line x1="357.00" y1="62.00" x2="357.00" y2="348.00" stroke="#ececec"/>
<text x="357.00" y="366.00" text-anchor="middle" font-family="Arial, sans-serif" font-size="10">1.4</text>
<line x1="452.00" y1="62.00" x2="452.00" y2="348.00" stroke="#ececec"/>
<text x="452.00" y="366.00" text-anchor="middle" font-family="Arial, sans-serif" font-size="10">2.3</text>
<line x1="72.00" y1="348.00" x2="452.00" y2="348.00" stroke="#ececec"/>
<text x="65.00" y="352.00" text-anchor="end" font-family="Arial, sans-serif" font-size="10">-33</text>
<line x1="72.00" y1="276.50" x2="452.00" y2="276.50" stroke="#ececec"/>
<text x="65.00" y="280.50" text-anchor="end" font-family="Arial, sans-serif" font-size="10">-11</text>
<line x1="72.00" y1="205.00" x2="452.00" y2="205.00" stroke="#ececec"/>
<text x="65.00" y="209.00" text-anchor="end" font-family="Arial, sans-serif" font-size="10">11</text>
<line x1="72.00" y1="133.50" x2="452.00" y2="133.50" stroke="#ececec"/>
<text x="65.00" y="137.50" text-anchor="end" font-family="Arial, sans-serif" font-size="10">33</text>
<line x1="72.00" y1="62.00" x2="452.00" y2="62.00" stroke="#ececec"/>
<text x="65.00" y="66.00" text-anchor="end" font-family="Arial, sans-serif" font-size="10">55</text>
<line x1="203.36" y1="62" x2="203.36" y2="348" stroke="#777" stroke-dasharray="4 4"/>
<line x1="72.0" y1="241.04" x2="452.0" y2="241.04" stroke="#777" stroke-dasharray="4 4"/>
<polyline fill="none" stroke="#1f77b4" stroke-width="1.8" points="86.07,265.32 91.41,265.32 96.74,265.32 103.13,265.32 108.46,265.29 113.80,265.14 119.13,264.88 121.26,264.74 122.33,264.67 124.46,264.51 126.59,264.32 130.86,263.88 132.99,263.62 134.05,263.48 135.12,263.33 136.19,263.17 138.32,262.83 139.38,262.64 140.45,262.45 141.52,262.25 142.58,262.03 143.65,261.81 144.72,261.57 145.78,261.33 146.85,261.07 147.91,260.81 148.98,260.53 150.05,260.24 151.11,259.94 152.18,259.63 153.25,259.30 154.31,258.97 155.38,258.63 156.44,258.27 157.51,257.91 162.84,255.97 169.24,253.49 174.57,251.41 179.90,249.36 185.23,247.36 190.56,245.41 195.89,243.54 202.29,241.39 203.36,241.04 207.62,239.68 212.95,238.07 218.29,236.56 223.62,235.17 228.95,233.91 235.34,232.58 240.68,231.65 246.01,230.91 251.34,230.37 254.54,230.13 255.60,230.06 256.67,230.00 257.74,229.95 258.80,229.90 259.87,229.85 260.93,229.81 262.00,229.78 263.07,229.75 264.13,229.72 268.40,229.62 273.73,229.53 279.06,229.46 284.39,229.41 289.72,229.36 295.05,229.31 296.12,229.30 299.32,229.28 301.45,229.27 306.78,229.23 308.91,229.22 312.11,229.20 317.44,229.16 320.64,229.15 322.77,229.14 329.17,229.10 332.37,229.09 334.50,229.08 339.83,229.05 345.16,229.03 350.50,229.01 355.83,228.98 362.22,228.96 367.56,228.94 372.89,228.91 378.22,228.87 383.55,228.79 388.88,228.65 395.28,228.35 400.61,227.96 405.94,227.44 411.27,226.79 416.60,226.03 421.93,225.16 428.33,223.99 433.66,222.92 437.93,222.00"/>
<polyline fill="none" stroke="#ff7f0e" stroke-width="1.8" stroke-dasharray="5 4" points="86.07,256.04 91.41,256.04 96.74,256.04 103.13,256.04 108.46,256.04 113.80,256.04 119.13,256.04 121.26,256.01 122.33,255.99 124.46,255.93 126.59,255.84 130.86,255.59 132.99,255.44 134.05,255.36 135.12,255.27 136.19,255.18 138.32,254.98 139.38,254.87 140.45,254.76 141.52,254.64 142.58,254.51 143.65,254.38 144.72,254.24 145.78,254.10 146.85,253.95 147.91,253.80 148.98,253.64 150.05,253.47 151.11,253.29 152.18,253.11 153.25,252.92 154.31,252.73 155.38,252.53 156.44,252.32 157.51,252.10 162.84,250.92 169.24,249.34 174.57,247.95 179.90,246.55 185.23,245.19 190.56,243.89 195.89,242.65 202.29,241.26 203.36,241.04 207.62,240.19 212.95,239.21 218.29,238.32 223.62,237.54 228.95,236.88 235.34,236.24 240.68,235.85 246.01,235.58 251.34,235.42 254.54,235.36 255.60,235.34 256.67,235.33 257.74,235.32 258.80,235.30 259.87,235.29 260.93,235.28 262.00,235.27 263.07,235.26 264.13,235.25 268.40,235.22 273.73,235.19 279.06,235.17 284.39,235.14 289.72,235.12 295.05,235.10 296.12,235.10 299.32,235.09 301.45,235.08 306.78,235.06 308.91,235.06 312.11,235.05 317.44,235.03 320.64,235.03 322.77,235.02 329.17,235.00 332.37,235.00 334.50,234.99 339.83,234.98 345.16,234.96 350.50,234.93 355.83,234.89 362.22,234.78 367.56,234.62 372.89,234.38 378.22,234.05 383.55,233.64 388.88,233.14 395.28,232.46 400.61,231.82 405.94,231.12 411.27,230.37 416.60,229.58 421.93,228.78 428.33,227.82 433.66,227.02 437.93,226.38"/>
<polyline fill="none" stroke="#2ca02c" stroke-width="1.8" stroke-dasharray="2 4" points="86.07,275.90 91.41,275.90 96.74,275.90 103.13,275.86 108.46,275.74 113.80,275.51 119.13,275.16 121.26,274.98 122.33,274.88 124.46,274.65 126.59,274.39 130.86,273.76 132.99,273.38 134.05,273.17 135.12,272.96 136.19,272.73 138.32,272.23 139.38,271.96 140.45,271.67 141.52,271.37 142.58,271.06 143.65,270.73 144.72,270.38 145.78,270.02 146.85,269.64 147.91,269.25 148.98,268.84 150.05,268.41 151.11,267.97 152.18,267.51 153.25,267.03 154.31,266.54 155.38,266.04 156.44,265.52 157.51,264.99 162.84,262.21 169.24,258.74 174.57,255.86 179.90,253.00 185.23,250.19 190.56,247.43 195.89,244.72 202.29,241.56 203.36,241.04 207.62,239.00 212.95,236.52 218.29,234.13 223.62,231.85 228.95,229.69 235.34,227.28 240.68,225.44 246.01,223.78 251.34,222.33 254.54,221.58 255.60,221.34 256.67,221.12 257.74,220.91 258.80,220.71 259.87,220.51 260.93,220.33 262.00,220.16 263.07,220.00 264.13,219.85 268.40,219.35 273.73,218.91 279.06,218.62 284.39,218.42 289.72,218.27 295.05,218.15 296.12,218.13 299.32,218.07 301.45,218.04 306.78,217.95 308.91,217.92 312.11,217.88 317.44,217.81 320.64,217.77 322.77,217.74 329.17,217.67 332.37,217.64 334.50,217.62 339.83,217.57 345.16,217.52 350.50,217.48 355.83,217.43 362.22,217.38 367.56,217.35 372.89,217.31 378.22,217.27 383.55,217.24 388.88,217.19 395.28,217.13 400.61,217.06 405.94,216.95 411.27,216.77 416.60,216.49 421.93,216.05 428.33,215.29 433.66,214.46 437.93,213.66"/>
<polyline fill="none" stroke="#1f77b4" stroke-width="1.1" stroke-dasharray="6 4" points="72.00,88.24 76.81,91.19 81.62,94.15 86.43,97.10 91.24,100.06 96.05,103.02 100.86,105.97 105.67,108.93 110.48,111.88 115.29,114.84 120.10,117.80 124.91,120.75 129.72,123.71 134.53,126.66 139.34,129.62 144.15,132.58 148.96,135.53 153.77,138.49 158.58,141.44 163.39,144.40 168.20,147.36 173.01,150.31 177.82,153.27 182.63,156.23 187.44,159.18 192.25,162.14 197.06,165.09 201.87,168.05 206.68,171.01 211.49,173.96 216.30,176.92 221.11,179.87 225.92,182.83 230.73,185.79 235.54,188.74 240.35,191.70 245.16,194.65 249.97,197.61 254.78,200.57 259.59,203.52 264.41,206.48 269.22,209.43 274.03,212.39 278.84,215.35 283.65,218.30 288.46,221.26 293.27,224.21 298.08,227.17 302.89,230.13 307.70,233.08 312.51,236.04 317.32,238.99 322.13,241.95 326.94,244.91 331.75,247.86 336.56,250.82 341.37,253.77 346.18,256.73 350.99,259.69 355.80,262.64 360.61,265.60 365.42,268.56 370.23,271.51 375.04,274.47 379.85,277.42 384.66,280.38 389.47,283.34 394.28,286.29 399.09,289.25 403.90,292.20 408.71,295.16 413.52,298.12 418.33,301.07 423.14,304.03 427.95,306.98 432.76,309.94 437.57,312.90 442.38,315.85 447.19,318.81 452.00,321.76"/>
<circle cx="301.48" cy="229.27" r="4.6" fill="#ffffff" stroke="#1f77b4" stroke-width="2"/>
<text x="307.48" y="223.27" font-family="Arial, sans-serif" font-size="10" fill="#1f77b4">typ 256 ohm</text>
<polyline fill="none" stroke="#ff7f0e" stroke-width="1.1" stroke-dasharray="6 4" points="72.00,95.44 76.81,98.40 81.62,101.36 86.43,104.31 91.24,107.27 96.05,110.22 100.86,113.18 105.67,116.14 110.48,119.09 115.29,122.05 120.10,125.00 124.91,127.96 129.72,130.92 134.53,133.87 139.34,136.83 144.15,139.78 148.96,142.74 153.77,145.70 158.58,148.65 163.39,151.61 168.20,154.56 173.01,157.52 177.82,160.48 182.63,163.43 187.44,166.39 192.25,169.34 197.06,172.30 201.87,175.26 206.68,178.21 211.49,181.17 216.30,184.13 221.11,187.08 225.92,190.04 230.73,192.99 235.54,195.95 240.35,198.91 245.16,201.86 249.97,204.82 254.78,207.77 259.59,210.73 264.41,213.69 269.22,216.64 274.03,219.60 278.84,222.55 283.65,225.51 288.46,228.47 293.27,231.42 298.08,234.38 302.89,237.33 307.70,240.29 312.51,243.25 317.32,246.20 322.13,249.16 326.94,252.11 331.75,255.07 336.56,258.03 341.37,260.98 346.18,263.94 350.99,266.89 355.80,269.85 360.61,272.81 365.42,275.76 370.23,278.72 375.04,281.67 379.85,284.63 384.66,287.59 389.47,290.54 394.28,293.50 399.09,296.46 403.90,299.41 408.71,302.37 413.52,305.32 418.33,308.28 423.14,311.24 427.95,314.19 432.76,317.15 437.57,320.10 442.38,323.06 447.19,326.02 452.00,328.97"/>
<circle cx="299.23" cy="235.09" r="4.6" fill="#ffffff" stroke="#ff7f0e" stroke-width="2"/>
<text x="305.23" y="229.09" font-family="Arial, sans-serif" font-size="10" fill="#ff7f0e">min 495 ohm</text>
<polyline fill="none" stroke="#2ca02c" stroke-width="1.1" stroke-dasharray="6 4" points="72.00,81.03 76.81,83.98 81.62,86.94 86.43,89.90 91.24,92.85 96.05,95.81 100.86,98.76 105.67,101.72 110.48,104.68 115.29,107.63 120.10,110.59 124.91,113.54 129.72,116.50 134.53,119.46 139.34,122.41 144.15,125.37 148.96,128.33 153.77,131.28 158.58,134.24 163.39,137.19 168.20,140.15 173.01,143.11 177.82,146.06 182.63,149.02 187.44,151.97 192.25,154.93 197.06,157.89 201.87,160.84 206.68,163.80 211.49,166.75 216.30,169.71 221.11,172.67 225.92,175.62 230.73,178.58 235.54,181.53 240.35,184.49 245.16,187.45 249.97,190.40 254.78,193.36 259.59,196.31 264.41,199.27 269.22,202.23 274.03,205.18 278.84,208.14 283.65,211.09 288.46,214.05 293.27,217.01 298.08,219.96 302.89,222.92 307.70,225.87 312.51,228.83 317.32,231.79 322.13,234.74 326.94,237.70 331.75,240.66 336.56,243.61 341.37,246.57 346.18,249.52 350.99,252.48 355.80,255.44 360.61,258.39 365.42,261.35 370.23,264.30 375.04,267.26 379.85,270.22 384.66,273.17 389.47,276.13 394.28,279.08 399.09,282.04 403.90,285.00 408.71,287.95 413.52,290.91 418.33,293.86 423.14,296.82 427.95,299.78 432.76,302.73 437.57,305.69 442.38,308.64 447.19,311.60 452.00,314.56"/>
<circle cx="295.13" cy="218.15" r="4.6" fill="#ffffff" stroke="#2ca02c" stroke-width="2"/>
<text x="301.13" y="212.15" font-family="Arial, sans-serif" font-size="10" fill="#2ca02c">max 123 ohm</text>
<line x1="82.00" y1="80.00" x2="104.00" y2="80.00" stroke="#1f77b4" stroke-width="2"/>
<text x="110.00" y="84.00" font-family="Arial, sans-serif" font-size="11">typ</text>
<line x1="82.00" y1="97.00" x2="104.00" y2="97.00" stroke="#ff7f0e" stroke-width="2" stroke-dasharray="5 4"/>
<text x="110.00" y="101.00" font-family="Arial, sans-serif" font-size="11">min</text>
<line x1="82.00" y1="114.00" x2="104.00" y2="114.00" stroke="#2ca02c" stroke-width="2" stroke-dasharray="2 4"/>
<text x="110.00" y="118.00" font-family="Arial, sans-serif" font-size="11">max</text>
<text x="262.00" y="386.00" text-anchor="middle" font-family="Arial, sans-serif" font-size="11">Output voltage (V)</text>
<text transform="translate(22.00 205.00) rotate(-90)" text-anchor="middle" font-family="Arial, sans-serif" font-size="11">Current (mA)</text>
<rect x="492.00" y="62.00" width="380.00" height="286.00" fill="#fbfbfb" stroke="#c8c8c8"/>
<text x="500.00" y="50.00" font-family="Arial, sans-serif" font-size="13" font-weight="700">[Pullup] Rload to GND</text>
<line x1="492.00" y1="62.00" x2="492.00" y2="348.00" stroke="#ececec"/>
<text x="492.00" y="366.00" text-anchor="middle" font-family="Arial, sans-serif" font-size="10">-1.2</text>
<line x1="587.00" y1="62.00" x2="587.00" y2="348.00" stroke="#ececec"/>
<text x="587.00" y="366.00" text-anchor="middle" font-family="Arial, sans-serif" font-size="10">-0.341</text>
<line x1="682.00" y1="62.00" x2="682.00" y2="348.00" stroke="#ececec"/>
<text x="682.00" y="366.00" text-anchor="middle" font-family="Arial, sans-serif" font-size="10">0.55</text>
<line x1="777.00" y1="62.00" x2="777.00" y2="348.00" stroke="#ececec"/>
<text x="777.00" y="366.00" text-anchor="middle" font-family="Arial, sans-serif" font-size="10">1.4</text>
<line x1="872.00" y1="62.00" x2="872.00" y2="348.00" stroke="#ececec"/>
<text x="872.00" y="366.00" text-anchor="middle" font-family="Arial, sans-serif" font-size="10">2.3</text>
<line x1="492.00" y1="348.00" x2="872.00" y2="348.00" stroke="#ececec"/>
<text x="485.00" y="352.00" text-anchor="end" font-family="Arial, sans-serif" font-size="10">-55</text>
<line x1="492.00" y1="276.50" x2="872.00" y2="276.50" stroke="#ececec"/>
<text x="485.00" y="280.50" text-anchor="end" font-family="Arial, sans-serif" font-size="10">-33</text>
<line x1="492.00" y1="205.00" x2="872.00" y2="205.00" stroke="#ececec"/>
<text x="485.00" y="209.00" text-anchor="end" font-family="Arial, sans-serif" font-size="10">-11</text>
<line x1="492.00" y1="133.50" x2="872.00" y2="133.50" stroke="#ececec"/>
<text x="485.00" y="137.50" text-anchor="end" font-family="Arial, sans-serif" font-size="10">11</text>
<line x1="492.00" y1="62.00" x2="872.00" y2="62.00" stroke="#ececec"/>
<text x="485.00" y="66.00" text-anchor="end" font-family="Arial, sans-serif" font-size="10">33</text>
<line x1="623.36" y1="62" x2="623.36" y2="348" stroke="#777" stroke-dasharray="4 4"/>
<line x1="492.0" y1="168.96" x2="872.0" y2="168.96" stroke="#777" stroke-dasharray="4 4"/>
<polyline fill="none" stroke="#1f77b4" stroke-width="1.8" points="506.07,126.29 511.41,128.40 516.74,130.51 523.13,133.04 528.46,135.14 533.80,137.24 539.13,139.32 544.46,141.39 549.79,143.43 556.19,145.86 561.52,147.85 566.85,149.81 572.18,151.74 577.51,153.63 582.84,155.50 589.24,157.70 594.57,159.51 599.90,161.30 603.10,162.37 604.17,162.72 608.43,164.13 609.50,164.48 610.56,164.83 611.63,165.17 615.89,166.56 622.29,168.62 623.36,168.96 627.62,170.29 632.95,171.84 637.22,173.01 638.29,173.29 639.35,173.56 640.42,173.84 641.48,174.11 643.62,174.63 648.95,175.85 655.34,177.15 660.68,178.07 662.81,178.39 664.94,178.69 666.01,178.82 667.07,178.95 668.14,179.07 669.21,179.19 670.27,179.29 671.34,179.39 672.40,179.48 673.47,179.57 674.54,179.64 675.60,179.71 676.67,179.78 677.74,179.83 678.80,179.89 679.87,179.93 680.93,179.97 682.00,180.01 683.07,180.05 684.13,180.08 685.20,180.11 686.26,180.14 687.33,180.16 688.40,180.19 689.46,180.21 690.53,180.23 691.60,180.26 693.73,180.30 699.06,180.40 704.39,180.48 709.72,180.56 716.12,180.64 718.25,180.67 721.45,180.71 726.78,180.77 728.91,180.79 732.11,180.82 737.44,180.87 740.64,180.90 742.77,180.92 749.17,180.97 752.37,181.00 754.50,181.01 759.83,181.05 765.16,181.09 770.50,181.12 775.83,181.14 782.22,181.14 787.56,181.14 792.89,181.14 798.22,181.14 803.55,181.14 808.88,181.14 815.28,181.14 820.61,181.14 825.94,181.14 831.27,181.14 836.60,181.14 841.93,181.14 848.33,181.14 853.66,181.14 857.93,181.14"/>
<polyline fill="none" stroke="#ff7f0e" stroke-width="1.8" stroke-dasharray="5 4" points="506.07,138.69 511.41,140.14 516.74,141.60 523.13,143.36 528.46,144.84 533.80,146.33 539.13,147.83 544.46,149.32 549.79,150.80 556.19,152.57 561.52,154.02 566.85,155.45 572.18,156.86 577.51,158.23 582.84,159.57 589.24,161.14 594.57,162.42 599.90,163.68 603.10,164.42 604.17,164.67 608.43,165.64 609.50,165.88 610.56,166.13 611.63,166.37 615.89,167.32 622.29,168.73 623.36,168.96 627.62,169.85 632.95,170.86 637.22,171.60 638.29,171.77 639.35,171.94 640.42,172.11 641.48,172.27 643.62,172.58 648.95,173.27 655.34,173.96 660.68,174.39 662.81,174.52 664.94,174.64 666.01,174.69 667.07,174.73 668.14,174.77 669.21,174.81 670.27,174.84 671.34,174.87 672.40,174.90 673.47,174.92 674.54,174.94 675.60,174.96 676.67,174.98 677.74,175.00 678.80,175.01 679.87,175.02 680.93,175.04 682.00,175.05 683.07,175.06 684.13,175.07 685.20,175.08 686.26,175.09 687.33,175.10 688.40,175.12 689.46,175.12 690.53,175.13 691.60,175.14 693.73,175.16 699.06,175.20 704.39,175.24 709.72,175.27 716.12,175.31 718.25,175.32 721.45,175.34 726.78,175.37 728.91,175.38 732.11,175.39 737.44,175.42 740.64,175.43 742.77,175.44 749.17,175.46 752.37,175.46 754.50,175.47 759.83,175.47 765.16,175.47 770.50,175.47 775.83,175.47 782.22,175.47 787.56,175.47 792.89,175.47 798.22,175.47 803.55,175.47 808.88,175.47 815.28,175.47 820.61,175.47 825.94,175.47 831.27,175.47 836.60,175.47 841.93,175.47 848.33,175.47 853.66,175.47 857.93,175.47"/>
<polyline fill="none" stroke="#2ca02c" stroke-width="1.8" stroke-dasharray="2 4" points="506.07,110.76 511.41,113.61 516.74,116.46 523.13,119.86 528.46,122.68 533.80,125.49 539.13,128.27 544.46,131.03 549.79,133.77 556.19,137.01 561.52,139.67 566.85,142.31 572.18,144.92 577.51,147.49 582.84,150.03 589.24,153.07 594.57,155.58 599.90,158.08 603.10,159.54 604.17,160.01 608.43,161.86 609.50,162.33 610.56,162.82 611.63,163.32 615.89,165.39 622.29,168.46 623.36,168.96 627.62,170.94 632.95,173.35 637.22,175.19 638.29,175.64 639.35,176.06 640.42,176.47 641.48,176.85 643.62,177.61 648.95,179.56 655.34,181.81 660.68,183.55 662.81,184.20 664.94,184.83 666.01,185.14 667.07,185.43 668.14,185.73 669.21,186.01 670.27,186.29 671.34,186.56 672.40,186.82 673.47,187.07 674.54,187.32 675.60,187.55 676.67,187.78 677.74,188.00 678.80,188.21 679.87,188.41 680.93,188.61 682.00,188.79 683.07,188.96 684.13,189.13 685.20,189.28 686.26,189.43 687.33,189.57 688.40,189.69 689.46,189.81 690.53,189.92 691.60,190.02 693.73,190.21 699.06,190.56 704.39,190.83 709.72,191.04 716.12,191.27 718.25,191.33 721.45,191.43 726.78,191.57 728.91,191.63 732.11,191.70 737.44,191.82 740.64,191.89 742.77,191.93 749.17,192.06 752.37,192.11 754.50,192.15 759.83,192.24 765.16,192.32 770.50,192.40 775.83,192.48 782.22,192.56 787.56,192.62 792.89,192.65 798.22,192.65 803.55,192.65 808.88,192.65 815.28,192.65 820.61,192.65 825.94,192.65 831.27,192.65 836.60,192.65 841.93,192.65 848.33,192.65 853.66,192.65 857.93,192.65"/>
<polyline fill="none" stroke="#1f77b4" stroke-width="1.1" stroke-dasharray="6 4" points="492.00,321.76 496.81,318.81 501.62,315.85 506.43,312.90 511.24,309.94 516.05,306.98 520.86,304.03 525.67,301.07 530.48,298.12 535.29,295.16 540.10,292.20 544.91,289.25 549.72,286.29 554.53,283.34 559.34,280.38 564.15,277.42 568.96,274.47 573.77,271.51 578.58,268.56 583.39,265.60 588.20,262.64 593.01,259.69 597.82,256.73 602.63,253.77 607.44,250.82 612.25,247.86 617.06,244.91 621.87,241.95 626.68,238.99 631.49,236.04 636.30,233.08 641.11,230.13 645.92,227.17 650.73,224.21 655.54,221.26 660.35,218.30 665.16,215.35 669.97,212.39 674.78,209.43 679.59,206.48 684.41,203.52 689.22,200.57 694.03,197.61 698.84,194.65 703.65,191.70 708.46,188.74 713.27,185.79 718.08,182.83 722.89,179.87 727.70,176.92 732.51,173.96 737.32,171.01 742.13,168.05 746.94,165.09 751.75,162.14 756.56,159.18 761.37,156.23 766.18,153.27 770.99,150.31 775.80,147.36 780.61,144.40 785.42,141.44 790.23,138.49 795.04,135.53 799.85,132.58 804.66,129.62 809.47,126.66 814.28,123.71 819.09,120.75 823.90,117.80 828.71,114.84 833.52,111.88 838.33,108.93 843.14,105.97 847.95,103.02 852.76,100.06 857.57,97.10 862.38,94.15 867.19,91.19 872.00,88.24"/>
<circle cx="721.53" cy="180.71" r="4.6" fill="#ffffff" stroke="#1f77b4" stroke-width="2"/>
<text x="727.53" y="174.71" font-family="Arial, sans-serif" font-size="10" fill="#1f77b4">typ 257 ohm</text>
<polyline fill="none" stroke="#ff7f0e" stroke-width="1.1" stroke-dasharray="6 4" points="492.00,314.56 496.81,311.60 501.62,308.64 506.43,305.69 511.24,302.73 516.05,299.78 520.86,296.82 525.67,293.86 530.48,290.91 535.29,287.95 540.10,285.00 544.91,282.04 549.72,279.08 554.53,276.13 559.34,273.17 564.15,270.22 568.96,267.26 573.77,264.30 578.58,261.35 583.39,258.39 588.20,255.44 593.01,252.48 597.82,249.52 602.63,246.57 607.44,243.61 612.25,240.66 617.06,237.70 621.87,234.74 626.68,231.79 631.49,228.83 636.30,225.87 641.11,222.92 645.92,219.96 650.73,217.01 655.54,214.05 660.35,211.09 665.16,208.14 669.97,205.18 674.78,202.23 679.59,199.27 684.41,196.31 689.22,193.36 694.03,190.40 698.84,187.45 703.65,184.49 708.46,181.53 713.27,178.58 718.08,175.62 722.89,172.67 727.70,169.71 732.51,166.75 737.32,163.80 742.13,160.84 746.94,157.89 751.75,154.93 756.56,151.97 761.37,149.02 766.18,146.06 770.99,143.11 775.80,140.15 780.61,137.19 785.42,134.24 790.23,131.28 795.04,128.33 799.85,125.37 804.66,122.41 809.47,119.46 814.28,116.50 819.09,113.54 823.90,110.59 828.71,107.63 833.52,104.68 838.33,101.72 843.14,98.76 847.95,95.81 852.76,92.85 857.57,89.90 862.38,86.94 867.19,83.98 872.00,81.03"/>
<circle cx="718.56" cy="175.33" r="4.6" fill="#ffffff" stroke="#ff7f0e" stroke-width="2"/>
<text x="724.56" y="169.33" font-family="Arial, sans-serif" font-size="10" fill="#ff7f0e">min 460 ohm</text>
<polyline fill="none" stroke="#2ca02c" stroke-width="1.1" stroke-dasharray="6 4" points="492.00,328.97 496.81,326.02 501.62,323.06 506.43,320.10 511.24,317.15 516.05,314.19 520.86,311.24 525.67,308.28 530.48,305.32 535.29,302.37 540.10,299.41 544.91,296.46 549.72,293.50 554.53,290.54 559.34,287.59 564.15,284.63 568.96,281.67 573.77,278.72 578.58,275.76 583.39,272.81 588.20,269.85 593.01,266.89 597.82,263.94 602.63,260.98 607.44,258.03 612.25,255.07 617.06,252.11 621.87,249.16 626.68,246.20 631.49,243.25 636.30,240.29 641.11,237.33 645.92,234.38 650.73,231.42 655.54,228.47 660.35,225.51 665.16,222.55 669.97,219.60 674.78,216.64 679.59,213.69 684.41,210.73 689.22,207.77 694.03,204.82 698.84,201.86 703.65,198.91 708.46,195.95 713.27,192.99 718.08,190.04 722.89,187.08 727.70,184.13 732.51,181.17 737.32,178.21 742.13,175.26 746.94,172.30 751.75,169.34 756.56,166.39 761.37,163.43 766.18,160.48 770.99,157.52 775.80,154.56 780.61,151.61 785.42,148.65 790.23,145.70 795.04,142.74 799.85,139.78 804.66,136.83 809.47,133.87 814.28,130.92 819.09,127.96 823.90,125.00 828.71,122.05 833.52,119.09 838.33,116.14 843.14,113.18 847.95,110.22 852.76,107.27 857.57,104.31 862.38,101.36 867.19,98.40 872.00,95.44"/>
<circle cx="716.08" cy="191.26" r="4.6" fill="#ffffff" stroke="#2ca02c" stroke-width="2"/>
<text x="722.08" y="185.26" font-family="Arial, sans-serif" font-size="10" fill="#2ca02c">max 128 ohm</text>
<line x1="502.00" y1="80.00" x2="524.00" y2="80.00" stroke="#1f77b4" stroke-width="2"/>
<text x="530.00" y="84.00" font-family="Arial, sans-serif" font-size="11">typ</text>
<line x1="502.00" y1="97.00" x2="524.00" y2="97.00" stroke="#ff7f0e" stroke-width="2" stroke-dasharray="5 4"/>
<text x="530.00" y="101.00" font-family="Arial, sans-serif" font-size="11">min</text>
<line x1="502.00" y1="114.00" x2="524.00" y2="114.00" stroke="#2ca02c" stroke-width="2" stroke-dasharray="2 4"/>
<text x="530.00" y="118.00" font-family="Arial, sans-serif" font-size="11">max</text>
<text x="682.00" y="386.00" text-anchor="middle" font-family="Arial, sans-serif" font-size="11">Vcc-relative table voltage (V)</text>
<text transform="translate(442.00 205.00) rotate(-90)" text-anchor="middle" font-family="Arial, sans-serif" font-size="11">Current (mA)</text>
<rect x="72.00" y="418.00" width="800.00" height="144.00" fill="#ffffff" stroke="#c8c8c8"/>
<text x="82.00" y="436.00" font-family="Arial, sans-serif" font-size="12" font-weight="700">Operating-point summary</text>
<text x="82.00" y="454.00" font-family="Arial, sans-serif" font-size="10" font-weight="700" fill="#333">Table</text>
<text x="174.00" y="454.00" font-family="Arial, sans-serif" font-size="10" font-weight="700" fill="#333">Corner</text>
<text x="242.00" y="454.00" font-family="Arial, sans-serif" font-size="10" font-weight="700" fill="#333">Vout</text>
<text x="332.00" y="454.00" font-family="Arial, sans-serif" font-size="10" font-weight="700" fill="#333">Iop</text>
<text x="422.00" y="454.00" font-family="Arial, sans-serif" font-size="10" font-weight="700" fill="#333">Zout</text>
<text x="512.00" y="454.00" font-family="Arial, sans-serif" font-size="10" font-weight="700" fill="#333">Rseries</text>
<text x="82.00" y="473.00" font-family="Arial, sans-serif" font-size="10" fill="#1f77b4">pulldown</text>
<text x="174.00" y="473.00" font-family="Arial, sans-serif" font-size="10" fill="#1f77b4">typ</text>
<text x="242.00" y="473.00" font-family="Arial, sans-serif" font-size="10" fill="#1f77b4">0.9203 V</text>
<text x="332.00" y="473.00" font-family="Arial, sans-serif" font-size="10" fill="#1f77b4">3.6 mA</text>
<text x="422.00" y="473.00" font-family="Arial, sans-serif" font-size="10" fill="#1f77b4">256 ohm</text>
<text x="512.00" y="473.00" font-family="Arial, sans-serif" font-size="10" fill="#1f77b4">-206 ohm</text>
<text x="82.00" y="492.00" font-family="Arial, sans-serif" font-size="10" fill="#ff7f0e">pulldown</text>
<text x="174.00" y="492.00" font-family="Arial, sans-serif" font-size="10" fill="#ff7f0e">min</text>
<text x="242.00" y="492.00" font-family="Arial, sans-serif" font-size="10" fill="#ff7f0e">0.8992 V</text>
<text x="332.00" y="492.00" font-family="Arial, sans-serif" font-size="10" fill="#ff7f0e">1.8 mA</text>
<text x="422.00" y="492.00" font-family="Arial, sans-serif" font-size="10" fill="#ff7f0e">495 ohm</text>
<text x="512.00" y="492.00" font-family="Arial, sans-serif" font-size="10" fill="#ff7f0e">-445 ohm</text>
<text x="82.00" y="511.00" font-family="Arial, sans-serif" font-size="10" fill="#2ca02c">pulldown</text>
<text x="174.00" y="511.00" font-family="Arial, sans-serif" font-size="10" fill="#2ca02c">max</text>
<text x="242.00" y="511.00" font-family="Arial, sans-serif" font-size="10" fill="#2ca02c">0.8607 V</text>
<text x="332.00" y="511.00" font-family="Arial, sans-serif" font-size="10" fill="#2ca02c">7 mA</text>
<text x="422.00" y="511.00" font-family="Arial, sans-serif" font-size="10" fill="#2ca02c">123 ohm</text>
<text x="512.00" y="511.00" font-family="Arial, sans-serif" font-size="10" fill="#2ca02c">-73.2 ohm</text>
<text x="82.00" y="530.00" font-family="Arial, sans-serif" font-size="10" fill="#1f77b4">pullup</text>
<text x="174.00" y="530.00" font-family="Arial, sans-serif" font-size="10" fill="#1f77b4">typ</text>
<text x="242.00" y="530.00" font-family="Arial, sans-serif" font-size="10" fill="#1f77b4">0.1793 V</text>
<text x="332.00" y="530.00" font-family="Arial, sans-serif" font-size="10" fill="#1f77b4">-3.6 mA</text>
<text x="422.00" y="530.00" font-family="Arial, sans-serif" font-size="10" fill="#1f77b4">257 ohm</text>
<text x="512.00" y="530.00" font-family="Arial, sans-serif" font-size="10" fill="#1f77b4">-207 ohm</text>
<text x="82.00" y="549.00" font-family="Arial, sans-serif" font-size="10" fill="#ff7f0e">pullup</text>
<text x="174.00" y="549.00" font-family="Arial, sans-serif" font-size="10" fill="#ff7f0e">min</text>
<text x="242.00" y="549.00" font-family="Arial, sans-serif" font-size="10" fill="#ff7f0e">0.09712 V</text>
<text x="332.00" y="549.00" font-family="Arial, sans-serif" font-size="10" fill="#ff7f0e">-1.9 mA</text>
<text x="422.00" y="549.00" font-family="Arial, sans-serif" font-size="10" fill="#ff7f0e">460 ohm</text>
<text x="512.00" y="549.00" font-family="Arial, sans-serif" font-size="10" fill="#ff7f0e">-410 ohm</text>
<text x="82.00" y="568.00" font-family="Arial, sans-serif" font-size="10" fill="#2ca02c">pullup</text>
<text x="174.00" y="568.00" font-family="Arial, sans-serif" font-size="10" fill="#2ca02c">max</text>
<text x="242.00" y="568.00" font-family="Arial, sans-serif" font-size="10" fill="#2ca02c">0.3404 V</text>
<text x="332.00" y="568.00" font-family="Arial, sans-serif" font-size="10" fill="#2ca02c">-6.8 mA</text>
<text x="422.00" y="568.00" font-family="Arial, sans-serif" font-size="10" fill="#2ca02c">128 ohm</text>
<text x="512.00" y="568.00" font-family="Arial, sans-serif" font-size="10" fill="#2ca02c">-77.7 ohm</text>
</svg>