<svg xmlns="http://www.w3.org/2000/svg" width="900" height="620" viewBox="0 0 900 620">
<rect width="100%" height="100%" fill="#ffffff"/>
<text x="72" y="26" font-family="Arial, sans-serif" font-size="16" font-weight="700">E34_GPIO_I2CSCLIN_1V8_00 Zout Load-Line Curves</text>
<text x="72" y="45" font-family="Arial, sans-serif" font-size="11" fill="#555">Rload=50 ohm; solid=device I-V, dashed=load line, circles=operating points</text>
<rect x="72.00" y="62.00" width="380.00" height="286.00" fill="#fbfbfb" stroke="#c8c8c8"/>
<text x="80.00" y="50.00" font-family="Arial, sans-serif" font-size="13" font-weight="700">[Pulldown] Rload to Vdd</text>
<line x1="72.00" y1="62.00" x2="72.00" y2="348.00" stroke="#ececec"/>
<text x="72.00" y="366.00" text-anchor="middle" font-family="Arial, sans-serif" font-size="10">-2</text>
<line x1="167.00" y1="62.00" x2="167.00" y2="348.00" stroke="#ececec"/>
<text x="167.00" y="366.00" text-anchor="middle" font-family="Arial, sans-serif" font-size="10">-0.558</text>
<line x1="262.00" y1="62.00" x2="262.00" y2="348.00" stroke="#ececec"/>
<text x="262.00" y="366.00" text-anchor="middle" font-family="Arial, sans-serif" font-size="10">0.9</text>
<line x1="357.00" y1="62.00" x2="357.00" y2="348.00" stroke="#ececec"/>
<text x="357.00" y="366.00" text-anchor="middle" font-family="Arial, sans-serif" font-size="10">2.4</text>
<line x1="452.00" y1="62.00" x2="452.00" y2="348.00" stroke="#ececec"/>
<text x="452.00" y="366.00" text-anchor="middle" font-family="Arial, sans-serif" font-size="10">3.8</text>
<line x1="72.00" y1="348.00" x2="452.00" y2="348.00" stroke="#ececec"/>
<text x="65.00" y="352.00" text-anchor="end" font-family="Arial, sans-serif" font-size="10">-53</text>
<line x1="72.00" y1="276.50" x2="452.00" y2="276.50" stroke="#ececec"/>
<text x="65.00" y="280.50" text-anchor="end" font-family="Arial, sans-serif" font-size="10">-18</text>
<line x1="72.00" y1="205.00" x2="452.00" y2="205.00" stroke="#ececec"/>
<text x="65.00" y="209.00" text-anchor="end" font-family="Arial, sans-serif" font-size="10">18</text>
<line x1="72.00" y1="133.50" x2="452.00" y2="133.50" stroke="#ececec"/>
<text x="65.00" y="137.50" text-anchor="end" font-family="Arial, sans-serif" font-size="10">54</text>
<line x1="72.00" y1="62.00" x2="452.00" y2="62.00" stroke="#ececec"/>
<text x="65.00" y="66.00" text-anchor="end" font-family="Arial, sans-serif" font-size="10">89</text>
<line x1="203.36" y1="62" x2="203.36" y2="348" stroke="#777" stroke-dasharray="4 4"/>
<line x1="72.0" y1="241.04" x2="452.0" y2="241.04" stroke="#777" stroke-dasharray="4 4"/>
<polyline fill="none" stroke="#1f77b4" stroke-width="1.8" points="86.07,249.79 91.29,249.79 97.15,249.79 102.36,249.79 108.23,249.79 113.44,249.79 119.30,249.79 124.52,249.79 130.38,249.79 135.59,249.79 141.46,249.79 146.67,249.79 151.88,249.79 157.75,249.79 161.66,249.71 162.31,249.68 162.96,249.66 163.61,249.62 164.26,249.59 164.91,249.55 165.57,249.50 166.22,249.45 166.87,249.40 167.52,249.34 168.17,249.27 168.82,249.20 169.48,249.12 170.13,249.04 170.78,248.95 171.43,248.85 172.08,248.75 172.73,248.64 173.39,248.52 174.04,248.40 174.69,248.27 175.34,248.14 175.99,248.00 179.90,247.09 185.11,245.76 190.98,244.23 196.19,242.87 202.05,241.37 203.36,241.04 207.27,240.06 212.48,238.80 218.34,237.44 223.56,236.31 229.42,235.13 234.63,234.18 240.50,233.23 245.71,232.52 251.57,231.85 256.79,231.40 262.65,231.02 267.86,230.78 273.08,230.61 278.94,230.48 284.15,230.38 290.02,230.30 295.23,230.23 298.49,230.19 301.09,230.17 303.05,230.15 305.66,230.12 306.31,230.11 308.91,230.09 312.17,230.06 317.38,230.02 320.64,229.99 322.60,229.97 328.46,229.93 332.37,229.90 333.67,229.89 339.54,229.85 344.75,229.81 350.61,229.77 355.83,229.71 361.69,229.59 366.90,229.37 372.77,228.89 377.98,228.22 383.19,227.33 386.45,226.66 387.75,226.38 388.41,226.23 389.71,225.94 391.01,225.63 391.66,225.47 392.97,225.15 394.27,224.82 399.48,223.41 400.79,223.05 402.09,222.67 404.70,221.91 411.21,219.90 416.42,218.22 422.29,216.25 427.50,214.44 433.36,212.35 437.93,210.68"/>
<polyline fill="none" stroke="#ff7f0e" stroke-width="1.8" stroke-dasharray="5 4" points="86.07,246.86 91.29,246.86 97.15,246.86 102.36,246.86 108.23,246.86 113.44,246.86 119.30,246.86 124.52,246.86 130.38,246.86 135.59,246.86 141.46,246.86 146.67,246.86 151.88,246.86 157.75,246.84 161.66,246.76 162.31,246.74 162.96,246.72 163.61,246.69 164.26,246.66 164.91,246.63 165.57,246.60 166.22,246.57 166.87,246.53 167.52,246.49 168.17,246.45 168.82,246.40 169.48,246.36 170.13,246.30 170.78,246.25 171.43,246.19 172.08,246.13 172.73,246.06 173.39,246.00 174.04,245.92 174.69,245.85 175.34,245.77 175.99,245.69 179.90,245.13 185.11,244.25 190.98,243.20 196.19,242.27 202.05,241.26 203.36,241.04 207.27,240.39 212.48,239.57 218.34,238.71 223.56,237.99 229.42,237.27 234.63,236.70 240.50,236.16 245.71,235.76 251.57,235.41 256.79,235.20 262.65,235.03 267.86,234.93 273.08,234.85 278.94,234.78 284.15,234.73 290.02,234.69 295.23,234.65 298.49,234.63 301.09,234.61 303.05,234.60 305.66,234.58 306.31,234.58 308.91,234.56 312.17,234.54 317.38,234.52 320.64,234.50 322.60,234.49 328.46,234.46 332.37,234.44 333.67,234.43 339.54,234.37 344.75,234.26 350.61,234.00 355.83,233.62 361.69,233.01 366.90,232.32 372.77,231.39 377.98,230.46 383.19,229.45 386.45,228.77 387.75,228.50 388.41,228.36 389.71,228.07 391.01,227.79 391.66,227.64 392.97,227.35 394.27,227.05 399.48,225.83 400.79,225.52 402.09,225.20 404.70,224.56 411.21,222.90 416.42,221.53 422.29,219.97 427.50,218.59 433.36,217.04 437.93,215.83"/>
<polyline fill="none" stroke="#2ca02c" stroke-width="1.8" stroke-dasharray="2 4" points="86.07,252.79 91.29,252.79 97.15,252.79 102.36,252.79 108.23,252.79 113.44,252.79 119.30,252.79 124.52,252.79 130.38,252.79 135.59,252.79 141.46,252.79 146.67,252.79 151.88,252.79 157.75,252.79 161.66,252.77 162.31,252.75 162.96,252.73 163.61,252.70 164.26,252.66 164.91,252.62 165.57,252.57 166.22,252.51 166.87,252.44 167.52,252.36 168.17,252.27 168.82,252.18 169.48,252.07 170.13,251.95 170.78,251.83 171.43,251.69 172.08,251.55 172.73,251.39 173.39,251.23 174.04,251.06 174.69,250.88 175.34,250.69 175.99,250.49 179.90,249.23 185.11,247.44 190.98,245.39 196.19,243.55 202.05,241.49 203.36,241.04 207.27,239.68 212.48,237.91 218.34,235.99 223.56,234.36 229.42,232.65 234.63,231.26 240.50,229.85 245.71,228.75 251.57,227.70 256.79,226.94 262.65,226.26 267.86,225.81 273.08,225.49 278.94,225.22 284.15,225.05 290.02,224.90 295.23,224.80 298.49,224.74 301.09,224.69 303.05,224.66 305.66,224.62 306.31,224.62 308.91,224.58 312.17,224.53 317.38,224.47 320.64,224.43 322.60,224.41 328.46,224.34 332.37,224.30 333.67,224.29 339.54,224.23 344.75,224.18 350.61,224.12 355.83,224.08 361.69,224.02 366.90,223.95 372.77,223.84 377.98,223.68 383.19,223.37 386.45,223.05 387.75,222.88 388.41,222.79 389.71,222.60 391.01,222.38 391.66,222.27 392.97,222.02 394.27,221.75 399.48,220.48 400.79,220.12 402.09,219.74 404.70,218.94 411.21,216.72 416.42,214.76 422.29,212.41 427.50,210.23 433.36,207.68 437.93,205.64"/>
<polyline fill="none" stroke="#1f77b4" stroke-width="1.1" stroke-dasharray="6 4" points="72.00,88.24 76.81,91.19 81.62,94.15 86.43,97.10 91.24,100.06 96.05,103.02 100.86,105.97 105.67,108.93 110.48,111.88 115.29,114.84 120.10,117.80 124.91,120.75 129.72,123.71 134.53,126.66 139.34,129.62 144.15,132.58 148.96,135.53 153.77,138.49 158.58,141.44 163.39,144.40 168.20,147.36 173.01,150.31 177.82,153.27 182.63,156.23 187.44,159.18 192.25,162.14 197.06,165.09 201.87,168.05 206.68,171.01 211.49,173.96 216.30,176.92 221.11,179.87 225.92,182.83 230.73,185.79 235.54,188.74 240.35,191.70 245.16,194.65 249.97,197.61 254.78,200.57 259.59,203.52 264.41,206.48 269.22,209.43 274.03,212.39 278.84,215.35 283.65,218.30 288.46,221.26 293.27,224.21 298.08,227.17 302.89,230.13 307.70,233.08 312.51,236.04 317.32,238.99 322.13,241.95 326.94,244.91 331.75,247.86 336.56,250.82 341.37,253.77 346.18,256.73 350.99,259.69 355.80,262.64 360.61,265.60 365.42,268.56 370.23,271.51 375.04,274.47 379.85,277.42 384.66,280.38 389.47,283.34 394.28,286.29 399.09,289.25 403.90,292.20 408.71,295.16 413.52,298.12 418.33,301.07 423.14,304.03 427.95,306.98 432.76,309.94 437.57,312.90 442.38,315.85 447.19,318.81 452.00,321.76"/>
<circle cx="302.92" cy="230.15" r="4.6" fill="#ffffff" stroke="#1f77b4" stroke-width="2"/>
<text x="308.92" y="224.15" font-family="Arial, sans-serif" font-size="10" fill="#1f77b4">typ 281 ohm</text>
<polyline fill="none" stroke="#ff7f0e" stroke-width="1.1" stroke-dasharray="6 4" points="72.00,95.44 76.81,98.40 81.62,101.36 86.43,104.31 91.24,107.27 96.05,110.22 100.86,113.18 105.67,116.14 110.48,119.09 115.29,122.05 120.10,125.00 124.91,127.96 129.72,130.92 134.53,133.87 139.34,136.83 144.15,139.78 148.96,142.74 153.77,145.70 158.58,148.65 163.39,151.61 168.20,154.56 173.01,157.52 177.82,160.48 182.63,163.43 187.44,166.39 192.25,169.34 197.06,172.30 201.87,175.26 206.68,178.21 211.49,181.17 216.30,184.13 221.11,187.08 225.92,190.04 230.73,192.99 235.54,195.95 240.35,198.91 245.16,201.86 249.97,204.82 254.78,207.77 259.59,210.73 264.41,213.69 269.22,216.64 274.03,219.60 278.84,222.55 283.65,225.51 288.46,228.47 293.27,231.42 298.08,234.38 302.89,237.33 307.70,240.29 312.51,243.25 317.32,246.20 322.13,249.16 326.94,252.11 331.75,255.07 336.56,258.03 341.37,260.98 346.18,263.94 350.99,266.89 355.80,269.85 360.61,272.81 365.42,275.76 370.23,278.72 375.04,281.67 379.85,284.63 384.66,287.59 389.47,290.54 394.28,293.50 399.09,296.46 403.90,299.41 408.71,302.37 413.52,305.32 418.33,308.28 423.14,311.24 427.95,314.19 432.76,317.15 437.57,320.10 442.38,323.06 447.19,326.02 452.00,328.97"/>
<circle cx="298.48" cy="234.63" r="4.6" fill="#ffffff" stroke="#ff7f0e" stroke-width="2"/>
<text x="304.48" y="228.63" font-family="Arial, sans-serif" font-size="10" fill="#ff7f0e">min 456 ohm</text>
<polyline fill="none" stroke="#2ca02c" stroke-width="1.1" stroke-dasharray="6 4" points="72.00,81.03 76.81,83.98 81.62,86.94 86.43,89.90 91.24,92.85 96.05,95.81 100.86,98.76 105.67,101.72 110.48,104.68 115.29,107.63 120.10,110.59 124.91,113.54 129.72,116.50 134.53,119.46 139.34,122.41 144.15,125.37 148.96,128.33 153.77,131.28 158.58,134.24 163.39,137.19 168.20,140.15 173.01,143.11 177.82,146.06 182.63,149.02 187.44,151.97 192.25,154.93 197.06,157.89 201.87,160.84 206.68,163.80 211.49,166.75 216.30,169.71 221.11,172.67 225.92,175.62 230.73,178.58 235.54,181.53 240.35,184.49 245.16,187.45 249.97,190.40 254.78,193.36 259.59,196.31 264.41,199.27 269.22,202.23 274.03,205.18 278.84,208.14 283.65,211.09 288.46,214.05 293.27,217.01 298.08,219.96 302.89,222.92 307.70,225.87 312.51,228.83 317.32,231.79 322.13,234.74 326.94,237.70 331.75,240.66 336.56,243.61 341.37,246.57 346.18,249.52 350.99,252.48 355.80,255.44 360.61,258.39 365.42,261.35 370.23,264.30 375.04,267.26 379.85,270.22 384.66,273.17 389.47,276.13 394.28,279.08 399.09,282.04 403.90,285.00 408.71,287.95 413.52,290.91 418.33,293.86 423.14,296.82 427.95,299.78 432.76,302.73 437.57,305.69 442.38,308.64 447.19,311.60 452.00,314.56"/>
<circle cx="305.66" cy="224.62" r="4.6" fill="#ffffff" stroke="#2ca02c" stroke-width="2"/>
<text x="311.66" y="218.62" font-family="Arial, sans-serif" font-size="10" fill="#2ca02c">max 192 ohm</text>
<line x1="82.00" y1="80.00" x2="104.00" y2="80.00" stroke="#1f77b4" stroke-width="2"/>
<text x="110.00" y="84.00" font-family="Arial, sans-serif" font-size="11">typ</text>
<line x1="82.00" y1="97.00" x2="104.00" y2="97.00" stroke="#ff7f0e" stroke-width="2" stroke-dasharray="5 4"/>
<text x="110.00" y="101.00" font-family="Arial, sans-serif" font-size="11">min</text>
<line x1="82.00" y1="114.00" x2="104.00" y2="114.00" stroke="#2ca02c" stroke-width="2" stroke-dasharray="2 4"/>
<text x="110.00" y="118.00" font-family="Arial, sans-serif" font-size="11">max</text>
<text x="262.00" y="386.00" text-anchor="middle" font-family="Arial, sans-serif" font-size="11">Output voltage (V)</text>
<text transform="translate(22.00 205.00) rotate(-90)" text-anchor="middle" font-family="Arial, sans-serif" font-size="11">Current (mA)</text>
<rect x="492.00" y="62.00" width="380.00" height="286.00" fill="#fbfbfb" stroke="#c8c8c8"/>
<text x="500.00" y="50.00" font-family="Arial, sans-serif" font-size="13" font-weight="700">[Pullup] Rload to GND</text>
<line x1="492.00" y1="62.00" x2="492.00" y2="348.00" stroke="#ececec"/>
<text x="492.00" y="366.00" text-anchor="middle" font-family="Arial, sans-serif" font-size="10">-2</text>
<line x1="587.00" y1="62.00" x2="587.00" y2="348.00" stroke="#ececec"/>
<text x="587.00" y="366.00" text-anchor="middle" font-family="Arial, sans-serif" font-size="10">-0.558</text>
<line x1="682.00" y1="62.00" x2="682.00" y2="348.00" stroke="#ececec"/>
<text x="682.00" y="366.00" text-anchor="middle" font-family="Arial, sans-serif" font-size="10">0.9</text>
<line x1="777.00" y1="62.00" x2="777.00" y2="348.00" stroke="#ececec"/>
<text x="777.00" y="366.00" text-anchor="middle" font-family="Arial, sans-serif" font-size="10">2.4</text>
<line x1="872.00" y1="62.00" x2="872.00" y2="348.00" stroke="#ececec"/>
<text x="872.00" y="366.00" text-anchor="middle" font-family="Arial, sans-serif" font-size="10">3.8</text>
<line x1="492.00" y1="348.00" x2="872.00" y2="348.00" stroke="#ececec"/>
<text x="485.00" y="352.00" text-anchor="end" font-family="Arial, sans-serif" font-size="10">-89</text>
<line x1="492.00" y1="276.50" x2="872.00" y2="276.50" stroke="#ececec"/>
<text x="485.00" y="280.50" text-anchor="end" font-family="Arial, sans-serif" font-size="10">-54</text>
<line x1="492.00" y1="205.00" x2="872.00" y2="205.00" stroke="#ececec"/>
<text x="485.00" y="209.00" text-anchor="end" font-family="Arial, sans-serif" font-size="10">-18</text>
<line x1="492.00" y1="133.50" x2="872.00" y2="133.50" stroke="#ececec"/>
<text x="485.00" y="137.50" text-anchor="end" font-family="Arial, sans-serif" font-size="10">18</text>
<line x1="492.00" y1="62.00" x2="872.00" y2="62.00" stroke="#ececec"/>
<text x="485.00" y="66.00" text-anchor="end" font-family="Arial, sans-serif" font-size="10">53</text>
<line x1="623.36" y1="62" x2="623.36" y2="348" stroke="#777" stroke-dasharray="4 4"/>
<line x1="492.0" y1="168.96" x2="872.0" y2="168.96" stroke="#777" stroke-dasharray="4 4"/>
<polyline fill="none" stroke="#1f77b4" stroke-width="1.8" points="506.07,131.19 507.38,131.69 511.29,133.20 517.15,135.44 518.45,135.94 519.11,136.18 522.36,137.41 527.58,139.37 528.23,139.61 528.88,139.85 529.53,140.09 530.18,140.33 532.14,141.05 532.79,141.29 533.44,141.53 534.74,142.01 535.40,142.25 539.30,143.66 539.96,143.90 540.61,144.13 544.52,145.52 550.38,147.56 555.59,149.34 558.20,150.22 559.50,150.65 561.46,151.29 566.67,152.97 571.88,154.60 577.75,156.38 582.96,157.91 588.82,159.58 594.04,161.04 599.90,162.64 605.11,164.06 610.98,165.64 616.19,167.05 617.49,167.39 618.15,167.57 618.80,167.74 622.05,168.61 623.36,168.96 627.27,169.99 628.57,170.32 629.22,170.49 629.87,170.65 632.48,171.31 638.34,172.73 643.56,173.93 649.42,175.21 654.63,176.28 660.50,177.39 665.71,178.29 671.57,179.21 676.79,179.93 682.65,180.63 687.86,181.15 693.08,181.59 698.94,181.99 704.15,182.28 707.41,182.43 708.71,182.49 710.67,182.56 711.97,182.61 715.23,182.73 715.88,182.75 717.84,182.81 718.49,182.83 721.09,182.91 726.31,183.05 728.91,183.11 732.17,183.19 737.38,183.30 740.64,183.36 742.60,183.40 748.46,183.50 752.37,183.56 753.67,183.58 759.54,183.67 762.80,183.70 764.75,183.70 768.01,183.70 771.27,183.70 773.22,183.70 775.18,183.70 777.13,183.70 781.69,183.70 786.90,183.70 792.77,183.70 797.98,183.70 803.19,183.70 809.06,183.70 814.27,183.70 820.13,183.70 825.35,183.70 831.21,183.70 836.42,183.70 842.29,183.70 847.50,183.70 853.36,183.70 857.93,183.70"/>
<polyline fill="none" stroke="#ff7f0e" stroke-width="1.8" stroke-dasharray="5 4" points="506.07,140.81 507.38,141.17 511.29,142.26 517.15,143.88 518.45,144.24 519.11,144.42 522.36,145.32 527.58,146.76 528.23,146.94 528.88,147.12 529.53,147.30 530.18,147.48 532.14,148.02 532.79,148.20 533.44,148.38 534.74,148.73 535.40,148.91 539.30,149.98 539.96,150.16 540.61,150.34 544.52,151.39 550.38,152.96 555.59,154.33 558.20,155.00 559.50,155.34 561.46,155.84 566.67,157.15 571.88,158.42 577.75,159.80 582.96,160.98 588.82,162.25 594.04,163.33 599.90,164.51 605.11,165.53 610.98,166.65 616.19,167.63 617.49,167.87 618.15,168.00 618.80,168.12 622.05,168.72 623.36,168.96 627.27,169.66 628.57,169.89 629.22,170.01 629.87,170.12 632.48,170.56 638.34,171.50 643.56,172.29 649.42,173.11 654.63,173.77 660.50,174.45 665.71,174.97 671.57,175.47 676.79,175.83 682.65,176.16 687.86,176.38 693.08,176.55 698.94,176.70 704.15,176.81 707.41,176.88 708.71,176.90 710.67,176.93 711.97,176.95 715.23,177.00 715.88,177.01 717.84,177.04 718.49,177.05 721.09,177.08 726.31,177.14 728.91,177.17 732.17,177.21 737.38,177.26 740.64,177.29 742.60,177.31 748.46,177.33 752.37,177.33 753.67,177.33 759.54,177.33 762.80,177.33 764.75,177.33 768.01,177.33 771.27,177.33 773.22,177.33 775.18,177.33 777.13,177.33 781.69,177.33 786.90,177.33 792.77,177.33 797.98,177.33 803.19,177.33 809.06,177.33 814.27,177.33 820.13,177.33 825.35,177.33 831.21,177.33 836.42,177.33 842.29,177.33 847.50,177.33 853.36,177.33 857.93,177.33"/>
<polyline fill="none" stroke="#2ca02c" stroke-width="1.8" stroke-dasharray="2 4" points="506.07,120.59 507.38,121.23 511.29,123.16 517.15,126.04 518.45,126.67 519.11,126.99 522.36,128.56 527.58,131.05 528.23,131.36 528.88,131.66 529.53,131.97 530.18,132.28 532.14,133.20 532.79,133.50 533.44,133.80 534.74,134.41 535.40,134.71 539.30,136.50 539.96,136.79 540.61,137.09 544.52,138.84 550.38,141.40 555.59,143.61 558.20,144.70 559.50,145.23 561.46,146.03 566.67,148.10 571.88,150.12 577.75,152.34 582.96,154.27 588.82,156.41 594.04,158.29 599.90,160.40 605.11,162.28 610.98,164.42 616.19,166.32 617.49,166.79 618.15,167.02 618.80,167.26 622.05,168.48 623.36,168.96 627.27,170.39 628.57,170.86 629.22,171.10 629.87,171.32 632.48,172.23 638.34,174.23 643.56,175.94 649.42,177.76 654.63,179.29 660.50,180.91 665.71,182.24 671.57,183.62 676.79,184.73 682.65,185.86 687.86,186.74 693.08,187.53 698.94,188.29 704.15,188.86 707.41,189.17 708.71,189.28 710.67,189.44 711.97,189.55 715.23,189.78 715.88,189.82 717.84,189.95 718.49,189.99 721.09,190.14 726.31,190.41 728.91,190.53 732.17,190.67 737.38,190.86 740.64,190.98 742.60,191.04 748.46,191.21 752.37,191.32 753.67,191.35 759.54,191.50 762.80,191.57 764.75,191.62 768.01,191.69 771.27,191.75 773.22,191.79 775.18,191.82 777.13,191.85 781.69,191.85 786.90,191.85 792.77,191.85 797.98,191.85 803.19,191.85 809.06,191.85 814.27,191.85 820.13,191.85 825.35,191.85 831.21,191.85 836.42,191.85 842.29,191.85 847.50,191.85 853.36,191.85 857.93,191.85"/>
<polyline fill="none" stroke="#1f77b4" stroke-width="1.1" stroke-dasharray="6 4" points="492.00,321.76 496.81,318.81 501.62,315.85 506.43,312.90 511.24,309.94 516.05,306.98 520.86,304.03 525.67,301.07 530.48,298.12 535.29,295.16 540.10,292.20 544.91,289.25 549.72,286.29 554.53,283.34 559.34,280.38 564.15,277.42 568.96,274.47 573.77,271.51 578.58,268.56 583.39,265.60 588.20,262.64 593.01,259.69 597.82,256.73 602.63,253.77 607.44,250.82 612.25,247.86 617.06,244.91 621.87,241.95 626.68,238.99 631.49,236.04 636.30,233.08 641.11,230.13 645.92,227.17 650.73,224.21 655.54,221.26 660.35,218.30 665.16,215.35 669.97,212.39 674.78,209.43 679.59,206.48 684.41,203.52 689.22,200.57 694.03,197.61 698.84,194.65 703.65,191.70 708.46,188.74 713.27,185.79 718.08,182.83 722.89,179.87 727.70,176.92 732.51,173.96 737.32,171.01 742.13,168.05 746.94,165.09 751.75,162.14 756.56,159.18 761.37,156.23 766.18,153.27 770.99,150.31 775.80,147.36 780.61,144.40 785.42,141.44 790.23,138.49 795.04,135.53 799.85,132.58 804.66,129.62 809.47,126.66 814.28,123.71 819.09,120.75 823.90,117.80 828.71,114.84 833.52,111.88 838.33,108.93 843.14,105.97 847.95,103.02 852.76,100.06 857.57,97.10 862.38,94.15 867.19,91.19 872.00,88.24"/>
<circle cx="718.09" cy="182.82" r="4.6" fill="#ffffff" stroke="#1f77b4" stroke-width="2"/>
<text x="724.09" y="176.82" font-family="Arial, sans-serif" font-size="10" fill="#1f77b4">typ 210 ohm</text>
<polyline fill="none" stroke="#ff7f0e" stroke-width="1.1" stroke-dasharray="6 4" points="492.00,314.56 496.81,311.60 501.62,308.64 506.43,305.69 511.24,302.73 516.05,299.78 520.86,296.82 525.67,293.86 530.48,290.91 535.29,287.95 540.10,285.00 544.91,282.04 549.72,279.08 554.53,276.13 559.34,273.17 564.15,270.22 568.96,267.26 573.77,264.30 578.58,261.35 583.39,258.39 588.20,255.44 593.01,252.48 597.82,249.52 602.63,246.57 607.44,243.61 612.25,240.66 617.06,237.70 621.87,234.74 626.68,231.79 631.49,228.83 636.30,225.87 641.11,222.92 645.92,219.96 650.73,217.01 655.54,214.05 660.35,211.09 665.16,208.14 669.97,205.18 674.78,202.23 679.59,199.27 684.41,196.31 689.22,193.36 694.03,190.40 698.84,187.45 703.65,184.49 708.46,181.53 713.27,178.58 718.08,175.62 722.89,172.67 727.70,169.71 732.51,166.75 737.32,163.80 742.13,160.84 746.94,157.89 751.75,154.93 756.56,151.97 761.37,149.02 766.18,146.06 770.99,143.11 775.80,140.15 780.61,137.19 785.42,134.24 790.23,131.28 795.04,128.33 799.85,125.37 804.66,122.41 809.47,119.46 814.28,116.50 819.09,113.54 823.90,110.59 828.71,107.63 833.52,104.68 838.33,101.72 843.14,98.76 847.95,95.81 852.76,92.85 857.57,89.90 862.38,86.94 867.19,83.98 872.00,81.03"/>
<circle cx="715.82" cy="177.01" r="4.6" fill="#ffffff" stroke="#ff7f0e" stroke-width="2"/>
<text x="721.82" y="171.01" font-family="Arial, sans-serif" font-size="10" fill="#ff7f0e">min 353 ohm</text>
<polyline fill="none" stroke="#2ca02c" stroke-width="1.1" stroke-dasharray="6 4" points="492.00,328.97 496.81,326.02 501.62,323.06 506.43,320.10 511.24,317.15 516.05,314.19 520.86,311.24 525.67,308.28 530.48,305.32 535.29,302.37 540.10,299.41 544.91,296.46 549.72,293.50 554.53,290.54 559.34,287.59 564.15,284.63 568.96,281.67 573.77,278.72 578.58,275.76 583.39,272.81 588.20,269.85 593.01,266.89 597.82,263.94 602.63,260.98 607.44,258.03 612.25,255.07 617.06,252.11 621.87,249.16 626.68,246.20 631.49,243.25 636.30,240.29 641.11,237.33 645.92,234.38 650.73,231.42 655.54,228.47 660.35,225.51 665.16,222.55 669.97,219.60 674.78,216.64 679.59,213.69 684.41,210.73 689.22,207.77 694.03,204.82 698.84,201.86 703.65,198.91 708.46,195.95 713.27,192.99 718.08,190.04 722.89,187.08 727.70,184.13 732.51,181.17 737.32,178.21 742.13,175.26 746.94,172.30 751.75,169.34 756.56,166.39 761.37,163.43 766.18,160.48 770.99,157.52 775.80,154.56 780.61,151.61 785.42,148.65 790.23,145.70 795.04,142.74 799.85,139.78 804.66,136.83 809.47,133.87 814.28,130.92 819.09,127.96 823.90,125.00 828.71,122.05 833.52,119.09 838.33,116.14 843.14,113.18 847.95,110.22 852.76,107.27 857.57,104.31 862.38,101.36 867.19,98.40 872.00,95.44"/>
<circle cx="718.18" cy="189.97" r="4.6" fill="#ffffff" stroke="#2ca02c" stroke-width="2"/>
<text x="724.18" y="183.97" font-family="Arial, sans-serif" font-size="10" fill="#2ca02c">max 139 ohm</text>
<line x1="502.00" y1="80.00" x2="524.00" y2="80.00" stroke="#1f77b4" stroke-width="2"/>
<text x="530.00" y="84.00" font-family="Arial, sans-serif" font-size="11">typ</text>
<line x1="502.00" y1="97.00" x2="524.00" y2="97.00" stroke="#ff7f0e" stroke-width="2" stroke-dasharray="5 4"/>
<text x="530.00" y="101.00" font-family="Arial, sans-serif" font-size="11">min</text>
<line x1="502.00" y1="114.00" x2="524.00" y2="114.00" stroke="#2ca02c" stroke-width="2" stroke-dasharray="2 4"/>
<text x="530.00" y="118.00" font-family="Arial, sans-serif" font-size="11">max</text>
<text x="682.00" y="386.00" text-anchor="middle" font-family="Arial, sans-serif" font-size="11">Vcc-relative table voltage (V)</text>
<text transform="translate(442.00 205.00) rotate(-90)" text-anchor="middle" font-family="Arial, sans-serif" font-size="11">Current (mA)</text>
<rect x="72.00" y="418.00" width="800.00" height="144.00" fill="#ffffff" stroke="#c8c8c8"/>
<text x="82.00" y="436.00" font-family="Arial, sans-serif" font-size="12" font-weight="700">Operating-point summary</text>
<text x="82.00" y="454.00" font-family="Arial, sans-serif" font-size="10" font-weight="700" fill="#333">Table</text>
<text x="174.00" y="454.00" font-family="Arial, sans-serif" font-size="10" font-weight="700" fill="#333">Corner</text>
<text x="242.00" y="454.00" font-family="Arial, sans-serif" font-size="10" font-weight="700" fill="#333">Vout</text>
<text x="332.00" y="454.00" font-family="Arial, sans-serif" font-size="10" font-weight="700" fill="#333">Iop</text>
<text x="422.00" y="454.00" font-family="Arial, sans-serif" font-size="10" font-weight="700" fill="#333">Zout</text>
<text x="512.00" y="454.00" font-family="Arial, sans-serif" font-size="10" font-weight="700" fill="#333">Rseries</text>
<text x="82.00" y="473.00" font-family="Arial, sans-serif" font-size="10" fill="#1f77b4">pulldown</text>
<text x="174.00" y="473.00" font-family="Arial, sans-serif" font-size="10" fill="#1f77b4">typ</text>
<text x="242.00" y="473.00" font-family="Arial, sans-serif" font-size="10" fill="#1f77b4">1.528 V</text>
<text x="332.00" y="473.00" font-family="Arial, sans-serif" font-size="10" fill="#1f77b4">5.4 mA</text>
<text x="422.00" y="473.00" font-family="Arial, sans-serif" font-size="10" fill="#1f77b4">281 ohm</text>
<text x="512.00" y="473.00" font-family="Arial, sans-serif" font-size="10" fill="#1f77b4">-231 ohm</text>
<text x="82.00" y="492.00" font-family="Arial, sans-serif" font-size="10" fill="#ff7f0e">pulldown</text>
<text x="174.00" y="492.00" font-family="Arial, sans-serif" font-size="10" fill="#ff7f0e">min</text>
<text x="242.00" y="492.00" font-family="Arial, sans-serif" font-size="10" fill="#ff7f0e">1.46 V</text>
<text x="332.00" y="492.00" font-family="Arial, sans-serif" font-size="10" fill="#ff7f0e">3.2 mA</text>
<text x="422.00" y="492.00" font-family="Arial, sans-serif" font-size="10" fill="#ff7f0e">456 ohm</text>
<text x="512.00" y="492.00" font-family="Arial, sans-serif" font-size="10" fill="#ff7f0e">-406 ohm</text>
<text x="82.00" y="511.00" font-family="Arial, sans-serif" font-size="10" fill="#2ca02c">pulldown</text>
<text x="174.00" y="511.00" font-family="Arial, sans-serif" font-size="10" fill="#2ca02c">max</text>
<text x="242.00" y="511.00" font-family="Arial, sans-serif" font-size="10" fill="#2ca02c">1.57 V</text>
<text x="332.00" y="511.00" font-family="Arial, sans-serif" font-size="10" fill="#2ca02c">8.2 mA</text>
<text x="422.00" y="511.00" font-family="Arial, sans-serif" font-size="10" fill="#2ca02c">192 ohm</text>
<text x="512.00" y="511.00" font-family="Arial, sans-serif" font-size="10" fill="#2ca02c">-142 ohm</text>
<text x="82.00" y="530.00" font-family="Arial, sans-serif" font-size="10" fill="#1f77b4">pullup</text>
<text x="174.00" y="530.00" font-family="Arial, sans-serif" font-size="10" fill="#1f77b4">typ</text>
<text x="242.00" y="530.00" font-family="Arial, sans-serif" font-size="10" fill="#1f77b4">0.3461 V</text>
<text x="332.00" y="530.00" font-family="Arial, sans-serif" font-size="10" fill="#1f77b4">-6.9 mA</text>
<text x="422.00" y="530.00" font-family="Arial, sans-serif" font-size="10" fill="#1f77b4">210 ohm</text>
<text x="512.00" y="530.00" font-family="Arial, sans-serif" font-size="10" fill="#1f77b4">-160 ohm</text>
<text x="82.00" y="549.00" font-family="Arial, sans-serif" font-size="10" fill="#ff7f0e">pullup</text>
<text x="174.00" y="549.00" font-family="Arial, sans-serif" font-size="10" fill="#ff7f0e">min</text>
<text x="242.00" y="549.00" font-family="Arial, sans-serif" font-size="10" fill="#ff7f0e">0.201 V</text>
<text x="332.00" y="549.00" font-family="Arial, sans-serif" font-size="10" fill="#ff7f0e">-4 mA</text>
<text x="422.00" y="549.00" font-family="Arial, sans-serif" font-size="10" fill="#ff7f0e">353 ohm</text>
<text x="512.00" y="549.00" font-family="Arial, sans-serif" font-size="10" fill="#ff7f0e">-303 ohm</text>
<text x="82.00" y="568.00" font-family="Arial, sans-serif" font-size="10" fill="#2ca02c">pullup</text>
<text x="174.00" y="568.00" font-family="Arial, sans-serif" font-size="10" fill="#2ca02c">max</text>
<text x="242.00" y="568.00" font-family="Arial, sans-serif" font-size="10" fill="#2ca02c">0.5247 V</text>
<text x="332.00" y="568.00" font-family="Arial, sans-serif" font-size="10" fill="#2ca02c">-10 mA</text>
<text x="422.00" y="568.00" font-family="Arial, sans-serif" font-size="10" fill="#2ca02c">139 ohm</text>
<text x="512.00" y="568.00" font-family="Arial, sans-serif" font-size="10" fill="#2ca02c">-88.7 ohm</text>
</svg>