<svg xmlns="http://www.w3.org/2000/svg" width="900" height="620" viewBox="0 0 900 620">
<rect width="100%" height="100%" fill="#ffffff"/>
<text x="72" y="26" font-family="Arial, sans-serif" font-size="16" font-weight="700">E34_GPIO_I2CSCLIN_1V8_01_ISOSW Zout Load-Line Curves</text>
<text x="72" y="45" font-family="Arial, sans-serif" font-size="11" fill="#555">Rload=50 ohm; solid=device I-V, dashed=load line, circles=operating points</text>
<rect x="72.00" y="62.00" width="380.00" height="286.00" fill="#fbfbfb" stroke="#c8c8c8"/>
<text x="80.00" y="50.00" font-family="Arial, sans-serif" font-size="13" font-weight="700">[Pulldown] Rload to Vdd</text>
<line x1="72.00" y1="62.00" x2="72.00" y2="348.00" stroke="#ececec"/>
<text x="72.00" y="366.00" text-anchor="middle" font-family="Arial, sans-serif" font-size="10">-2</text>
<line x1="167.00" y1="62.00" x2="167.00" y2="348.00" stroke="#ececec"/>
<text x="167.00" y="366.00" text-anchor="middle" font-family="Arial, sans-serif" font-size="10">-0.558</text>
<line x1="262.00" y1="62.00" x2="262.00" y2="348.00" stroke="#ececec"/>
<text x="262.00" y="366.00" text-anchor="middle" font-family="Arial, sans-serif" font-size="10">0.9</text>
<line x1="357.00" y1="62.00" x2="357.00" y2="348.00" stroke="#ececec"/>
<text x="357.00" y="366.00" text-anchor="middle" font-family="Arial, sans-serif" font-size="10">2.4</text>
<line x1="452.00" y1="62.00" x2="452.00" y2="348.00" stroke="#ececec"/>
<text x="452.00" y="366.00" text-anchor="middle" font-family="Arial, sans-serif" font-size="10">3.8</text>
<line x1="72.00" y1="348.00" x2="452.00" y2="348.00" stroke="#ececec"/>
<text x="65.00" y="352.00" text-anchor="end" font-family="Arial, sans-serif" font-size="10">-53</text>
<line x1="72.00" y1="276.50" x2="452.00" y2="276.50" stroke="#ececec"/>
<text x="65.00" y="280.50" text-anchor="end" font-family="Arial, sans-serif" font-size="10">-18</text>
<line x1="72.00" y1="205.00" x2="452.00" y2="205.00" stroke="#ececec"/>
<text x="65.00" y="209.00" text-anchor="end" font-family="Arial, sans-serif" font-size="10">18</text>
<line x1="72.00" y1="133.50" x2="452.00" y2="133.50" stroke="#ececec"/>
<text x="65.00" y="137.50" text-anchor="end" font-family="Arial, sans-serif" font-size="10">54</text>
<line x1="72.00" y1="62.00" x2="452.00" y2="62.00" stroke="#ececec"/>
<text x="65.00" y="66.00" text-anchor="end" font-family="Arial, sans-serif" font-size="10">89</text>
<line x1="203.36" y1="62" x2="203.36" y2="348" stroke="#777" stroke-dasharray="4 4"/>
<line x1="72.0" y1="241.04" x2="452.0" y2="241.04" stroke="#777" stroke-dasharray="4 4"/>
<polyline fill="none" stroke="#1f77b4" stroke-width="1.8" points="86.07,261.52 91.29,261.52 97.15,261.52 102.36,261.52 108.23,261.52 113.44,261.52 119.30,261.52 124.52,261.52 130.38,261.52 135.59,261.52 140.16,261.52 141.46,261.52 144.06,261.52 146.67,261.35 149.28,261.13 149.93,261.06 150.58,260.99 151.88,260.84 153.19,260.68 154.49,260.51 155.79,260.31 156.44,260.21 157.75,260.00 159.70,259.64 160.35,259.51 161.01,259.37 162.31,259.08 163.61,258.77 164.26,258.61 164.91,258.44 165.57,258.26 166.22,258.08 166.87,257.89 167.52,257.69 168.17,257.48 168.82,257.27 169.48,257.05 170.13,256.82 170.78,256.59 171.43,256.35 172.08,256.10 172.73,255.84 173.39,255.58 174.04,255.31 174.69,255.03 179.90,252.62 185.11,250.03 190.98,247.11 196.19,244.53 202.05,241.67 203.36,241.04 207.27,239.16 212.48,236.69 218.34,233.97 223.56,231.61 229.42,229.02 234.63,226.79 240.50,224.38 245.71,222.34 251.57,220.16 256.79,218.36 262.65,216.50 267.86,215.03 269.82,214.53 273.08,213.75 275.68,213.19 278.94,212.56 281.55,212.12 284.15,211.74 290.02,211.06 295.23,210.63 301.09,210.29 306.31,210.07 308.91,209.98 312.17,209.88 317.38,209.74 320.64,209.67 322.60,209.63 328.46,209.52 332.37,209.45 333.67,209.43 339.54,209.35 344.75,209.28 350.61,209.21 355.83,209.14 361.69,209.05 366.90,208.95 372.77,208.81 377.98,208.66 383.19,208.50 389.06,208.29 394.27,208.04 400.13,207.61 405.35,207.02 411.21,206.08 416.42,205.02 422.29,203.59 427.50,202.14 433.36,200.35 437.93,198.85"/>
<polyline fill="none" stroke="#ff7f0e" stroke-width="1.8" stroke-dasharray="5 4" points="86.07,254.37 91.29,254.37 97.15,254.37 102.36,254.37 108.23,254.37 113.44,254.37 119.30,254.37 124.52,254.37 130.38,254.37 135.59,254.37 140.16,254.37 141.46,254.37 144.06,254.37 146.67,254.37 149.28,254.37 149.93,254.35 150.58,254.35 151.88,254.31 153.19,254.25 154.49,254.17 155.79,254.07 156.44,254.01 157.75,253.89 159.70,253.67 160.35,253.59 161.01,253.51 162.31,253.34 163.61,253.14 164.26,253.04 164.91,252.94 165.57,252.83 166.22,252.71 166.87,252.59 167.52,252.47 168.17,252.34 168.82,252.21 169.48,252.08 170.13,251.93 170.78,251.79 171.43,251.64 172.08,251.48 172.73,251.32 173.39,251.16 174.04,250.99 174.69,250.81 179.90,249.24 185.11,247.46 190.98,245.36 196.19,243.51 202.05,241.48 203.36,241.04 207.27,239.72 212.48,238.02 218.34,236.16 223.56,234.58 229.42,232.89 234.63,231.47 240.50,229.98 245.71,228.77 251.57,227.56 256.79,226.64 262.65,225.78 267.86,225.20 269.82,225.03 273.08,224.78 275.68,224.62 278.94,224.46 281.55,224.35 284.15,224.26 290.02,224.11 295.23,224.00 301.09,223.91 306.31,223.84 308.91,223.81 312.17,223.77 317.38,223.72 320.64,223.69 322.60,223.67 328.46,223.62 332.37,223.59 333.67,223.58 339.54,223.53 344.75,223.48 350.61,223.40 355.83,223.31 361.69,223.16 366.90,222.95 372.77,222.55 377.98,222.04 383.19,221.37 389.06,220.44 394.27,219.47 400.13,218.26 405.35,217.08 411.21,215.65 416.42,214.31 422.29,212.80 427.50,211.45 433.36,209.94 437.93,208.76"/>
<polyline fill="none" stroke="#2ca02c" stroke-width="1.8" stroke-dasharray="2 4" points="86.07,269.04 91.29,269.04 97.15,269.04 102.36,269.04 108.23,269.04 113.44,269.04 119.30,269.04 124.52,269.04 130.38,269.04 135.59,269.04 140.16,269.04 141.46,268.95 144.06,268.73 146.67,268.45 149.28,268.13 149.93,268.03 150.58,267.94 151.88,267.74 153.19,267.51 154.49,267.27 155.79,267.01 156.44,266.87 157.75,266.58 159.70,266.08 160.35,265.90 161.01,265.72 162.31,265.32 163.61,264.89 164.26,264.66 164.91,264.43 165.57,264.18 166.22,263.93 166.87,263.66 167.52,263.39 168.17,263.10 168.82,262.81 169.48,262.50 170.13,262.18 170.78,261.86 171.43,261.52 172.08,261.17 172.73,260.82 173.39,260.45 174.04,260.07 174.69,259.69 179.90,256.40 185.11,252.97 190.98,249.11 196.19,245.70 202.05,241.88 203.36,241.04 207.27,238.52 212.48,235.18 218.34,231.47 223.56,228.21 229.42,224.62 234.63,221.48 240.50,218.04 245.71,215.06 251.57,211.83 256.79,209.07 262.65,206.12 267.86,203.64 269.82,202.76 273.08,201.34 275.68,200.26 278.94,198.98 281.55,198.01 284.15,197.11 290.02,195.31 295.23,193.99 301.09,192.83 306.31,192.06 308.91,191.75 312.17,191.43 317.38,191.03 320.64,190.83 322.60,190.72 328.46,190.46 332.37,190.32 333.67,190.28 339.54,190.10 344.75,189.97 350.61,189.84 355.83,189.74 361.69,189.63 366.90,189.54 372.77,189.43 377.98,189.30 383.19,189.14 389.06,188.93 394.27,188.71 400.13,188.45 405.35,188.20 411.21,187.89 416.42,187.60 422.29,187.18 427.50,186.63 433.36,185.68 437.93,184.67"/>
<polyline fill="none" stroke="#1f77b4" stroke-width="1.1" stroke-dasharray="6 4" points="72.00,88.24 76.81,91.19 81.62,94.15 86.43,97.10 91.24,100.06 96.05,103.02 100.86,105.97 105.67,108.93 110.48,111.88 115.29,114.84 120.10,117.80 124.91,120.75 129.72,123.71 134.53,126.66 139.34,129.62 144.15,132.58 148.96,135.53 153.77,138.49 158.58,141.44 163.39,144.40 168.20,147.36 173.01,150.31 177.82,153.27 182.63,156.23 187.44,159.18 192.25,162.14 197.06,165.09 201.87,168.05 206.68,171.01 211.49,173.96 216.30,176.92 221.11,179.87 225.92,182.83 230.73,185.79 235.54,188.74 240.35,191.70 245.16,194.65 249.97,197.61 254.78,200.57 259.59,203.52 264.41,206.48 269.22,209.43 274.03,212.39 278.84,215.35 283.65,218.30 288.46,221.26 293.27,224.21 298.08,227.17 302.89,230.13 307.70,233.08 312.51,236.04 317.32,238.99 322.13,241.95 326.94,244.91 331.75,247.86 336.56,250.82 341.37,253.77 346.18,256.73 350.99,259.69 355.80,262.64 360.61,265.60 365.42,268.56 370.23,271.51 375.04,274.47 379.85,277.42 384.66,280.38 389.47,283.34 394.28,286.29 399.09,289.25 403.90,292.20 408.71,295.16 413.52,298.12 418.33,301.07 423.14,304.03 427.95,306.98 432.76,309.94 437.57,312.90 442.38,315.85 447.19,318.81 452.00,321.76"/>
<circle cx="275.42" cy="213.25" r="4.6" fill="#ffffff" stroke="#1f77b4" stroke-width="2"/>
<text x="281.42" y="207.25" font-family="Arial, sans-serif" font-size="10" fill="#1f77b4">typ 79.7 ohm</text>
<polyline fill="none" stroke="#ff7f0e" stroke-width="1.1" stroke-dasharray="6 4" points="72.00,95.44 76.81,98.40 81.62,101.36 86.43,104.31 91.24,107.27 96.05,110.22 100.86,113.18 105.67,116.14 110.48,119.09 115.29,122.05 120.10,125.00 124.91,127.96 129.72,130.92 134.53,133.87 139.34,136.83 144.15,139.78 148.96,142.74 153.77,145.70 158.58,148.65 163.39,151.61 168.20,154.56 173.01,157.52 177.82,160.48 182.63,163.43 187.44,166.39 192.25,169.34 197.06,172.30 201.87,175.26 206.68,178.21 211.49,181.17 216.30,184.13 221.11,187.08 225.92,190.04 230.73,192.99 235.54,195.95 240.35,198.91 245.16,201.86 249.97,204.82 254.78,207.77 259.59,210.73 264.41,213.69 269.22,216.64 274.03,219.60 278.84,222.55 283.65,225.51 288.46,228.47 293.27,231.42 298.08,234.38 302.89,237.33 307.70,240.29 312.51,243.25 317.32,246.20 322.13,249.16 326.94,252.11 331.75,255.07 336.56,258.03 341.37,260.98 346.18,263.94 350.99,266.89 355.80,269.85 360.61,272.81 365.42,275.76 370.23,278.72 375.04,281.67 379.85,284.63 384.66,287.59 389.47,290.54 394.28,293.50 399.09,296.46 403.90,299.41 408.71,302.37 413.52,305.32 418.33,308.28 423.14,311.24 427.95,314.19 432.76,317.15 437.57,320.10 442.38,323.06 447.19,326.02 452.00,328.97"/>
<circle cx="281.75" cy="224.35" r="4.6" fill="#ffffff" stroke="#ff7f0e" stroke-width="2"/>
<text x="287.75" y="218.35" font-family="Arial, sans-serif" font-size="10" fill="#ff7f0e">min 144 ohm</text>
<polyline fill="none" stroke="#2ca02c" stroke-width="1.1" stroke-dasharray="6 4" points="72.00,81.03 76.81,83.98 81.62,86.94 86.43,89.90 91.24,92.85 96.05,95.81 100.86,98.76 105.67,101.72 110.48,104.68 115.29,107.63 120.10,110.59 124.91,113.54 129.72,116.50 134.53,119.46 139.34,122.41 144.15,125.37 148.96,128.33 153.77,131.28 158.58,134.24 163.39,137.19 168.20,140.15 173.01,143.11 177.82,146.06 182.63,149.02 187.44,151.97 192.25,154.93 197.06,157.89 201.87,160.84 206.68,163.80 211.49,166.75 216.30,169.71 221.11,172.67 225.92,175.62 230.73,178.58 235.54,181.53 240.35,184.49 245.16,187.45 249.97,190.40 254.78,193.36 259.59,196.31 264.41,199.27 269.22,202.23 274.03,205.18 278.84,208.14 283.65,211.09 288.46,214.05 293.27,217.01 298.08,219.96 302.89,222.92 307.70,225.87 312.51,228.83 317.32,231.79 322.13,234.74 326.94,237.70 331.75,240.66 336.56,243.61 341.37,246.57 346.18,249.52 350.99,252.48 355.80,255.44 360.61,258.39 365.42,261.35 370.23,264.30 375.04,267.26 379.85,270.22 384.66,273.17 389.47,276.13 394.28,279.08 399.09,282.04 403.90,285.00 408.71,287.95 413.52,290.91 418.33,293.86 423.14,296.82 427.95,299.78 432.76,302.73 437.57,305.69 442.38,308.64 447.19,311.60 452.00,314.56"/>
<circle cx="269.97" cy="202.69" r="4.6" fill="#ffffff" stroke="#2ca02c" stroke-width="2"/>
<text x="275.97" y="196.69" font-family="Arial, sans-serif" font-size="10" fill="#2ca02c">max 53.4 ohm</text>
<line x1="82.00" y1="80.00" x2="104.00" y2="80.00" stroke="#1f77b4" stroke-width="2"/>
<text x="110.00" y="84.00" font-family="Arial, sans-serif" font-size="11">typ</text>
<line x1="82.00" y1="97.00" x2="104.00" y2="97.00" stroke="#ff7f0e" stroke-width="2" stroke-dasharray="5 4"/>
<text x="110.00" y="101.00" font-family="Arial, sans-serif" font-size="11">min</text>
<line x1="82.00" y1="114.00" x2="104.00" y2="114.00" stroke="#2ca02c" stroke-width="2" stroke-dasharray="2 4"/>
<text x="110.00" y="118.00" font-family="Arial, sans-serif" font-size="11">max</text>
<text x="262.00" y="386.00" text-anchor="middle" font-family="Arial, sans-serif" font-size="11">Output voltage (V)</text>
<text transform="translate(22.00 205.00) rotate(-90)" text-anchor="middle" font-family="Arial, sans-serif" font-size="11">Current (mA)</text>
<rect x="492.00" y="62.00" width="380.00" height="286.00" fill="#fbfbfb" stroke="#c8c8c8"/>
<text x="500.00" y="50.00" font-family="Arial, sans-serif" font-size="13" font-weight="700">[Pullup] Rload to GND</text>
<line x1="492.00" y1="62.00" x2="492.00" y2="348.00" stroke="#ececec"/>
<text x="492.00" y="366.00" text-anchor="middle" font-family="Arial, sans-serif" font-size="10">-2</text>
<line x1="587.00" y1="62.00" x2="587.00" y2="348.00" stroke="#ececec"/>
<text x="587.00" y="366.00" text-anchor="middle" font-family="Arial, sans-serif" font-size="10">-0.558</text>
<line x1="682.00" y1="62.00" x2="682.00" y2="348.00" stroke="#ececec"/>
<text x="682.00" y="366.00" text-anchor="middle" font-family="Arial, sans-serif" font-size="10">0.9</text>
<line x1="777.00" y1="62.00" x2="777.00" y2="348.00" stroke="#ececec"/>
<text x="777.00" y="366.00" text-anchor="middle" font-family="Arial, sans-serif" font-size="10">2.4</text>
<line x1="872.00" y1="62.00" x2="872.00" y2="348.00" stroke="#ececec"/>
<text x="872.00" y="366.00" text-anchor="middle" font-family="Arial, sans-serif" font-size="10">3.8</text>
<line x1="492.00" y1="348.00" x2="872.00" y2="348.00" stroke="#ececec"/>
<text x="485.00" y="352.00" text-anchor="end" font-family="Arial, sans-serif" font-size="10">-89</text>
<line x1="492.00" y1="276.50" x2="872.00" y2="276.50" stroke="#ececec"/>
<text x="485.00" y="280.50" text-anchor="end" font-family="Arial, sans-serif" font-size="10">-54</text>
<line x1="492.00" y1="205.00" x2="872.00" y2="205.00" stroke="#ececec"/>
<text x="485.00" y="209.00" text-anchor="end" font-family="Arial, sans-serif" font-size="10">-18</text>
<line x1="492.00" y1="133.50" x2="872.00" y2="133.50" stroke="#ececec"/>
<text x="485.00" y="137.50" text-anchor="end" font-family="Arial, sans-serif" font-size="10">18</text>
<line x1="492.00" y1="62.00" x2="872.00" y2="62.00" stroke="#ececec"/>
<text x="485.00" y="66.00" text-anchor="end" font-family="Arial, sans-serif" font-size="10">53</text>
<line x1="623.36" y1="62" x2="623.36" y2="348" stroke="#777" stroke-dasharray="4 4"/>
<line x1="492.0" y1="168.96" x2="872.0" y2="168.96" stroke="#777" stroke-dasharray="4 4"/>
<polyline fill="none" stroke="#1f77b4" stroke-width="1.8" points="506.07,110.33 511.29,113.08 517.15,116.18 522.36,118.92 528.23,122.00 533.44,124.73 539.30,127.79 544.52,130.49 550.38,133.52 555.59,136.19 561.46,139.18 566.67,141.81 571.88,144.41 577.75,147.30 582.96,149.83 588.82,152.65 594.04,155.12 599.90,157.88 605.11,160.34 610.98,163.10 614.24,164.64 614.89,164.95 615.54,165.25 622.05,168.34 623.36,168.96 627.27,170.80 633.13,173.50 633.78,173.80 634.43,174.09 638.34,175.85 643.56,178.14 649.42,180.66 654.63,182.82 660.50,185.18 665.71,187.20 671.57,189.37 676.79,191.20 680.70,192.50 682.65,193.14 685.26,193.95 687.86,194.74 689.82,195.30 691.12,195.67 693.08,196.20 695.03,196.72 698.29,197.52 699.59,197.83 702.20,198.40 704.15,198.81 708.06,199.54 710.02,199.87 711.32,200.07 712.62,200.26 715.23,200.62 716.53,200.78 717.84,200.94 719.14,201.08 719.79,201.15 721.09,201.28 722.40,201.40 723.70,201.52 725.00,201.63 726.31,201.73 727.61,201.83 728.91,201.92 730.87,202.05 732.82,202.17 734.78,202.29 737.38,202.43 740.64,202.58 742.60,202.67 745.20,202.78 748.46,202.91 749.76,202.95 752.37,203.04 753.02,203.07 753.67,203.09 759.54,203.27 764.75,203.37 769.31,203.37 770.61,203.37 775.83,203.37 777.78,203.37 779.09,203.37 779.74,203.37 781.69,203.37 786.90,203.37 792.77,203.37 797.98,203.37 803.19,203.37 809.06,203.37 814.27,203.37 820.13,203.37 825.35,203.37 831.21,203.37 836.42,203.37 842.29,203.37 847.50,203.37 853.36,203.37 857.93,203.37"/>
<polyline fill="none" stroke="#ff7f0e" stroke-width="1.8" stroke-dasharray="5 4" points="506.07,124.54 511.29,126.63 517.15,128.99 522.36,131.09 528.23,133.44 533.44,135.53 539.30,137.87 544.52,139.94 550.38,142.26 555.59,144.30 561.46,146.58 566.67,148.59 571.88,150.57 577.75,152.77 582.96,154.70 588.82,156.83 594.04,158.70 599.90,160.77 605.11,162.60 610.98,164.64 614.24,165.78 614.89,166.01 615.54,166.23 622.05,168.51 623.36,168.96 627.27,170.30 633.13,172.25 633.78,172.46 634.43,172.67 638.34,173.92 643.56,175.52 649.42,177.25 654.63,178.71 660.50,180.25 665.71,181.53 671.57,182.84 676.79,183.89 680.70,184.59 682.65,184.91 685.26,185.30 687.86,185.66 689.82,185.90 691.12,186.04 693.08,186.25 695.03,186.43 698.29,186.69 699.59,186.78 702.20,186.94 704.15,187.05 708.06,187.23 710.02,187.31 711.32,187.36 712.62,187.41 715.23,187.49 716.53,187.53 717.84,187.57 719.14,187.61 719.79,187.62 721.09,187.66 722.40,187.69 723.70,187.72 725.00,187.76 726.31,187.78 727.61,187.81 728.91,187.84 730.87,187.88 732.82,187.92 734.78,187.96 737.38,188.00 740.64,188.06 742.60,188.09 745.20,188.12 748.46,188.13 749.76,188.13 752.37,188.13 753.02,188.13 753.67,188.13 759.54,188.13 764.75,188.13 769.31,188.13 770.61,188.13 775.83,188.13 777.78,188.13 779.09,188.13 779.74,188.13 781.69,188.13 786.90,188.13 792.77,188.13 797.98,188.13 803.19,188.13 809.06,188.13 814.27,188.13 820.13,188.13 825.35,188.13 831.21,188.13 836.42,188.13 842.29,188.13 847.50,188.13 853.36,188.13 857.93,188.13"/>
<polyline fill="none" stroke="#2ca02c" stroke-width="1.8" stroke-dasharray="2 4" points="506.07,93.79 511.29,97.25 517.15,101.14 522.36,104.60 528.23,108.49 533.44,111.94 539.30,115.82 544.52,119.25 550.38,123.10 555.59,126.50 561.46,130.31 566.67,133.67 571.88,137.01 577.75,140.72 582.96,143.98 588.82,147.61 594.04,150.82 599.90,154.41 605.11,157.62 610.98,161.22 614.24,163.18 614.89,163.58 615.54,163.99 622.05,168.14 623.36,168.96 627.27,171.43 633.13,175.07 633.78,175.47 634.43,175.86 638.34,178.15 643.56,181.25 649.42,184.69 654.63,187.68 660.50,190.97 665.71,193.83 671.57,196.95 676.79,199.64 680.70,201.61 682.65,202.57 685.26,203.83 687.86,205.07 689.82,205.98 691.12,206.58 693.08,207.46 695.03,208.33 698.29,209.74 699.59,210.29 702.20,211.37 704.15,212.16 708.06,213.66 710.02,214.39 711.32,214.85 712.62,215.31 715.23,216.20 716.53,216.62 717.84,217.04 719.14,217.44 719.79,217.64 721.09,218.03 722.40,218.40 723.70,218.76 725.00,219.12 726.31,219.45 727.61,219.78 728.91,220.09 730.87,220.54 732.82,220.95 734.78,221.35 737.38,221.82 740.64,222.36 742.60,222.65 745.20,223.00 748.46,223.39 749.76,223.53 752.37,223.80 753.02,223.86 753.67,223.92 759.54,224.41 764.75,224.78 769.31,225.07 770.61,225.14 775.83,225.40 777.78,225.48 779.09,225.50 779.74,225.51 781.69,225.51 786.90,225.51 792.77,225.51 797.98,225.51 803.19,225.51 809.06,225.51 814.27,225.51 820.13,225.51 825.35,225.51 831.21,225.51 836.42,225.51 842.29,225.51 847.50,225.51 853.36,225.51 857.93,225.51"/>
<polyline fill="none" stroke="#1f77b4" stroke-width="1.1" stroke-dasharray="6 4" points="492.00,321.76 496.81,318.81 501.62,315.85 506.43,312.90 511.24,309.94 516.05,306.98 520.86,304.03 525.67,301.07 530.48,298.12 535.29,295.16 540.10,292.20 544.91,289.25 549.72,286.29 554.53,283.34 559.34,280.38 564.15,277.42 568.96,274.47 573.77,271.51 578.58,268.56 583.39,265.60 588.20,262.64 593.01,259.69 597.82,256.73 602.63,253.77 607.44,250.82 612.25,247.86 617.06,244.91 621.87,241.95 626.68,238.99 631.49,236.04 636.30,233.08 641.11,230.13 645.92,227.17 650.73,224.21 655.54,221.26 660.35,218.30 665.16,215.35 669.97,212.39 674.78,209.43 679.59,206.48 684.41,203.52 689.22,200.57 694.03,197.61 698.84,194.65 703.65,191.70 708.46,188.74 713.27,185.79 718.08,182.83 722.89,179.87 727.70,176.92 732.51,173.96 737.32,171.01 742.13,168.05 746.94,165.09 751.75,162.14 756.56,159.18 761.37,156.23 766.18,153.27 770.99,150.31 775.80,147.36 780.61,144.40 785.42,141.44 790.23,138.49 795.04,135.53 799.85,132.58 804.66,129.62 809.47,126.66 814.28,123.71 819.09,120.75 823.90,117.80 828.71,114.84 833.52,111.88 838.33,108.93 843.14,105.97 847.95,103.02 852.76,100.06 857.57,97.10 862.38,94.15 867.19,91.19 872.00,88.24"/>
<circle cx="695.35" cy="196.79" r="4.6" fill="#ffffff" stroke="#1f77b4" stroke-width="2"/>
<text x="701.35" y="190.79" font-family="Arial, sans-serif" font-size="10" fill="#1f77b4">typ 79.5 ohm</text>
<polyline fill="none" stroke="#ff7f0e" stroke-width="1.1" stroke-dasharray="6 4" points="492.00,314.56 496.81,311.60 501.62,308.64 506.43,305.69 511.24,302.73 516.05,299.78 520.86,296.82 525.67,293.86 530.48,290.91 535.29,287.95 540.10,285.00 544.91,282.04 549.72,279.08 554.53,276.13 559.34,273.17 564.15,270.22 568.96,267.26 573.77,264.30 578.58,261.35 583.39,258.39 588.20,255.44 593.01,252.48 597.82,249.52 602.63,246.57 607.44,243.61 612.25,240.66 617.06,237.70 621.87,234.74 626.68,231.79 631.49,228.83 636.30,225.87 641.11,222.92 645.92,219.96 650.73,217.01 655.54,214.05 660.35,211.09 665.16,208.14 669.97,205.18 674.78,202.23 679.59,199.27 684.41,196.31 689.22,193.36 694.03,190.40 698.84,187.45 703.65,184.49 708.46,181.53 713.27,178.58 718.08,175.62 722.89,172.67 727.70,169.71 732.51,166.75 737.32,163.80 742.13,160.84 746.94,157.89 751.75,154.93 756.56,151.97 761.37,149.02 766.18,146.06 770.99,143.11 775.80,140.15 780.61,137.19 785.42,134.24 790.23,131.28 795.04,128.33 799.85,125.37 804.66,122.41 809.47,119.46 814.28,116.50 819.09,113.54 823.90,110.59 828.71,107.63 833.52,104.68 838.33,101.72 843.14,98.76 847.95,95.81 852.76,92.85 857.57,89.90 862.38,86.94 867.19,83.98 872.00,81.03"/>
<circle cx="699.89" cy="186.80" r="4.6" fill="#ffffff" stroke="#ff7f0e" stroke-width="2"/>
<text x="705.89" y="180.80" font-family="Arial, sans-serif" font-size="10" fill="#ff7f0e">min 132 ohm</text>
<polyline fill="none" stroke="#2ca02c" stroke-width="1.1" stroke-dasharray="6 4" points="492.00,328.97 496.81,326.02 501.62,323.06 506.43,320.10 511.24,317.15 516.05,314.19 520.86,311.24 525.67,308.28 530.48,305.32 535.29,302.37 540.10,299.41 544.91,296.46 549.72,293.50 554.53,290.54 559.34,287.59 564.15,284.63 568.96,281.67 573.77,278.72 578.58,275.76 583.39,272.81 588.20,269.85 593.01,266.89 597.82,263.94 602.63,260.98 607.44,258.03 612.25,255.07 617.06,252.11 621.87,249.16 626.68,246.20 631.49,243.25 636.30,240.29 641.11,237.33 645.92,234.38 650.73,231.42 655.54,228.47 660.35,225.51 665.16,222.55 669.97,219.60 674.78,216.64 679.59,213.69 684.41,210.73 689.22,207.77 694.03,204.82 698.84,201.86 703.65,198.91 708.46,195.95 713.27,192.99 718.08,190.04 722.89,187.08 727.70,184.13 732.51,181.17 737.32,178.21 742.13,175.26 746.94,172.30 751.75,169.34 756.56,166.39 761.37,163.43 766.18,160.48 770.99,157.52 775.80,154.56 780.61,151.61 785.42,148.65 790.23,145.70 795.04,142.74 799.85,139.78 804.66,136.83 809.47,133.87 814.28,130.92 819.09,127.96 823.90,125.00 828.71,122.05 833.52,119.09 838.33,116.14 843.14,113.18 847.95,110.22 852.76,107.27 857.57,104.31 862.38,101.36 867.19,98.40 872.00,95.44"/>
<circle cx="691.14" cy="206.59" r="4.6" fill="#ffffff" stroke="#2ca02c" stroke-width="2"/>
<text x="697.14" y="200.59" font-family="Arial, sans-serif" font-size="10" fill="#2ca02c">max 55.4 ohm</text>
<line x1="502.00" y1="80.00" x2="524.00" y2="80.00" stroke="#1f77b4" stroke-width="2"/>
<text x="530.00" y="84.00" font-family="Arial, sans-serif" font-size="11">typ</text>
<line x1="502.00" y1="97.00" x2="524.00" y2="97.00" stroke="#ff7f0e" stroke-width="2" stroke-dasharray="5 4"/>
<text x="530.00" y="101.00" font-family="Arial, sans-serif" font-size="11">min</text>
<line x1="502.00" y1="114.00" x2="524.00" y2="114.00" stroke="#2ca02c" stroke-width="2" stroke-dasharray="2 4"/>
<text x="530.00" y="118.00" font-family="Arial, sans-serif" font-size="11">max</text>
<text x="682.00" y="386.00" text-anchor="middle" font-family="Arial, sans-serif" font-size="11">Vcc-relative table voltage (V)</text>
<text transform="translate(442.00 205.00) rotate(-90)" text-anchor="middle" font-family="Arial, sans-serif" font-size="11">Current (mA)</text>
<rect x="72.00" y="418.00" width="800.00" height="144.00" fill="#ffffff" stroke="#c8c8c8"/>
<text x="82.00" y="436.00" font-family="Arial, sans-serif" font-size="12" font-weight="700">Operating-point summary</text>
<text x="82.00" y="454.00" font-family="Arial, sans-serif" font-size="10" font-weight="700" fill="#333">Table</text>
<text x="174.00" y="454.00" font-family="Arial, sans-serif" font-size="10" font-weight="700" fill="#333">Corner</text>
<text x="242.00" y="454.00" font-family="Arial, sans-serif" font-size="10" font-weight="700" fill="#333">Vout</text>
<text x="332.00" y="454.00" font-family="Arial, sans-serif" font-size="10" font-weight="700" fill="#333">Iop</text>
<text x="422.00" y="454.00" font-family="Arial, sans-serif" font-size="10" font-weight="700" fill="#333">Zout</text>
<text x="512.00" y="454.00" font-family="Arial, sans-serif" font-size="10" font-weight="700" fill="#333">Rseries</text>
<text x="82.00" y="473.00" font-family="Arial, sans-serif" font-size="10" fill="#1f77b4">pulldown</text>
<text x="174.00" y="473.00" font-family="Arial, sans-serif" font-size="10" fill="#1f77b4">typ</text>
<text x="242.00" y="473.00" font-family="Arial, sans-serif" font-size="10" fill="#1f77b4">1.106 V</text>
<text x="332.00" y="473.00" font-family="Arial, sans-serif" font-size="10" fill="#1f77b4">14 mA</text>
<text x="422.00" y="473.00" font-family="Arial, sans-serif" font-size="10" fill="#1f77b4">79.7 ohm</text>
<text x="512.00" y="473.00" font-family="Arial, sans-serif" font-size="10" fill="#1f77b4">-29.7 ohm</text>
<text x="82.00" y="492.00" font-family="Arial, sans-serif" font-size="10" fill="#ff7f0e">pulldown</text>
<text x="174.00" y="492.00" font-family="Arial, sans-serif" font-size="10" fill="#ff7f0e">min</text>
<text x="242.00" y="492.00" font-family="Arial, sans-serif" font-size="10" fill="#ff7f0e">1.203 V</text>
<text x="332.00" y="492.00" font-family="Arial, sans-serif" font-size="10" fill="#ff7f0e">8.3 mA</text>
<text x="422.00" y="492.00" font-family="Arial, sans-serif" font-size="10" fill="#ff7f0e">144 ohm</text>
<text x="512.00" y="492.00" font-family="Arial, sans-serif" font-size="10" fill="#ff7f0e">-94.3 ohm</text>
<text x="82.00" y="511.00" font-family="Arial, sans-serif" font-size="10" fill="#2ca02c">pulldown</text>
<text x="174.00" y="511.00" font-family="Arial, sans-serif" font-size="10" fill="#2ca02c">max</text>
<text x="242.00" y="511.00" font-family="Arial, sans-serif" font-size="10" fill="#2ca02c">1.022 V</text>
<text x="332.00" y="511.00" font-family="Arial, sans-serif" font-size="10" fill="#2ca02c">19 mA</text>
<text x="422.00" y="511.00" font-family="Arial, sans-serif" font-size="10" fill="#2ca02c">53.4 ohm</text>
<text x="512.00" y="511.00" font-family="Arial, sans-serif" font-size="10" fill="#2ca02c">-3.38 ohm</text>
<text x="82.00" y="530.00" font-family="Arial, sans-serif" font-size="10" fill="#1f77b4">pullup</text>
<text x="174.00" y="530.00" font-family="Arial, sans-serif" font-size="10" fill="#1f77b4">typ</text>
<text x="242.00" y="530.00" font-family="Arial, sans-serif" font-size="10" fill="#1f77b4">0.6951 V</text>
<text x="332.00" y="530.00" font-family="Arial, sans-serif" font-size="10" fill="#1f77b4">-14 mA</text>
<text x="422.00" y="530.00" font-family="Arial, sans-serif" font-size="10" fill="#1f77b4">79.5 ohm</text>
<text x="512.00" y="530.00" font-family="Arial, sans-serif" font-size="10" fill="#1f77b4">-29.5 ohm</text>
<text x="82.00" y="549.00" font-family="Arial, sans-serif" font-size="10" fill="#ff7f0e">pullup</text>
<text x="174.00" y="549.00" font-family="Arial, sans-serif" font-size="10" fill="#ff7f0e">min</text>
<text x="242.00" y="549.00" font-family="Arial, sans-serif" font-size="10" fill="#ff7f0e">0.4454 V</text>
<text x="332.00" y="549.00" font-family="Arial, sans-serif" font-size="10" fill="#ff7f0e">-8.9 mA</text>
<text x="422.00" y="549.00" font-family="Arial, sans-serif" font-size="10" fill="#ff7f0e">132 ohm</text>
<text x="512.00" y="549.00" font-family="Arial, sans-serif" font-size="10" fill="#ff7f0e">-81.8 ohm</text>
<text x="82.00" y="568.00" font-family="Arial, sans-serif" font-size="10" fill="#2ca02c">pullup</text>
<text x="174.00" y="568.00" font-family="Arial, sans-serif" font-size="10" fill="#2ca02c">max</text>
<text x="242.00" y="568.00" font-family="Arial, sans-serif" font-size="10" fill="#2ca02c">0.9397 V</text>
<text x="332.00" y="568.00" font-family="Arial, sans-serif" font-size="10" fill="#2ca02c">-19 mA</text>
<text x="422.00" y="568.00" font-family="Arial, sans-serif" font-size="10" fill="#2ca02c">55.4 ohm</text>
<text x="512.00" y="568.00" font-family="Arial, sans-serif" font-size="10" fill="#2ca02c">-5.355 ohm</text>
</svg>