<svg xmlns="http://www.w3.org/2000/svg" width="900" height="620" viewBox="0 0 900 620">
<rect width="100%" height="100%" fill="#ffffff"/>
<text x="72" y="26" font-family="Arial, sans-serif" font-size="16" font-weight="700">E34_GPIO_SPI_1V2_10 Zout Load-Line Curves</text>
<text x="72" y="45" font-family="Arial, sans-serif" font-size="11" fill="#555">Rload=50 ohm; solid=device I-V, dashed=load line, circles=operating points</text>
<rect x="72.00" y="62.00" width="380.00" height="286.00" fill="#fbfbfb" stroke="#c8c8c8"/>
<text x="80.00" y="50.00" font-family="Arial, sans-serif" font-size="13" font-weight="700">[Pulldown] Rload to Vdd</text>
<line x1="72.00" y1="62.00" x2="72.00" y2="348.00" stroke="#ececec"/>
<text x="72.00" y="366.00" text-anchor="middle" font-family="Arial, sans-serif" font-size="10">-1.3</text>
<line x1="167.00" y1="62.00" x2="167.00" y2="348.00" stroke="#ececec"/>
<text x="167.00" y="366.00" text-anchor="middle" font-family="Arial, sans-serif" font-size="10">-0.372</text>
<line x1="262.00" y1="62.00" x2="262.00" y2="348.00" stroke="#ececec"/>
<text x="262.00" y="366.00" text-anchor="middle" font-family="Arial, sans-serif" font-size="10">0.6</text>
<line x1="357.00" y1="62.00" x2="357.00" y2="348.00" stroke="#ececec"/>
<text x="357.00" y="366.00" text-anchor="middle" font-family="Arial, sans-serif" font-size="10">1.6</text>
<line x1="452.00" y1="62.00" x2="452.00" y2="348.00" stroke="#ececec"/>
<text x="452.00" y="366.00" text-anchor="middle" font-family="Arial, sans-serif" font-size="10">2.5</text>
<line x1="72.00" y1="348.00" x2="452.00" y2="348.00" stroke="#ececec"/>
<text x="65.00" y="352.00" text-anchor="end" font-family="Arial, sans-serif" font-size="10">-86</text>
<line x1="72.00" y1="276.50" x2="452.00" y2="276.50" stroke="#ececec"/>
<text x="65.00" y="280.50" text-anchor="end" font-family="Arial, sans-serif" font-size="10">-46</text>
<line x1="72.00" y1="205.00" x2="452.00" y2="205.00" stroke="#ececec"/>
<text x="65.00" y="209.00" text-anchor="end" font-family="Arial, sans-serif" font-size="10">-6.2</text>
<line x1="72.00" y1="133.50" x2="452.00" y2="133.50" stroke="#ececec"/>
<text x="65.00" y="137.50" text-anchor="end" font-family="Arial, sans-serif" font-size="10">34</text>
<line x1="72.00" y1="62.00" x2="452.00" y2="62.00" stroke="#ececec"/>
<text x="65.00" y="66.00" text-anchor="end" font-family="Arial, sans-serif" font-size="10">74</text>
<line x1="203.36" y1="62" x2="203.36" y2="348" stroke="#777" stroke-dasharray="4 4"/>
<line x1="72.0" y1="193.94" x2="452.0" y2="193.94" stroke="#777" stroke-dasharray="4 4"/>
<polyline fill="none" stroke="#1f77b4" stroke-width="1.8" points="86.07,286.33 91.94,286.33 96.83,286.33 102.69,286.33 108.55,286.33 113.44,286.33 118.33,286.33 119.30,286.33 120.28,286.33 121.26,286.33 122.24,286.33 123.21,286.20 124.19,285.96 125.17,285.64 126.15,285.26 127.12,284.83 128.10,284.37 129.08,283.87 130.06,283.34 131.03,282.79 132.01,282.21 132.99,281.61 135.92,279.66 140.81,275.92 142.76,274.25 143.74,273.37 144.72,272.46 145.69,271.52 146.67,270.56 147.65,269.57 148.63,268.55 149.60,267.51 150.58,266.44 151.56,265.34 152.53,264.21 153.51,263.06 154.49,261.89 155.47,260.69 157.42,258.22 163.29,250.35 169.15,241.99 174.04,234.84 179.90,226.22 185.77,217.70 190.65,210.75 196.52,202.72 201.40,196.37 203.36,193.94 207.27,189.28 213.13,182.85 218.02,178.08 223.88,173.11 226.81,170.94 227.79,170.27 229.75,168.99 230.72,168.39 231.70,167.82 234.63,166.23 239.52,164.05 240.50,163.68 246.36,161.91 251.25,160.92 257.11,160.12 260.05,159.82 262.98,159.56 267.86,159.18 273.73,158.80 278.62,158.52 284.48,158.20 290.34,157.92 295.23,157.69 301.09,157.44 306.96,157.20 308.91,157.12 311.85,157.00 317.71,156.78 320.64,156.67 323.57,156.57 328.46,156.39 332.37,156.26 334.33,156.19 339.21,156.03 345.08,155.83 350.94,155.64 355.83,155.47 361.69,155.23 367.56,154.87 372.44,154.40 378.31,153.56 384.17,152.31 389.06,150.92 394.92,148.78 400.79,146.15 405.67,143.59 411.54,140.09 416.42,136.85 422.29,132.61 428.15,128.00 433.04,123.90 437.93,119.59"/>
<polyline fill="none" stroke="#ff7f0e" stroke-width="1.8" stroke-dasharray="5 4" points="86.07,252.86 91.94,252.86 96.83,252.86 102.69,252.86 108.55,252.86 113.44,252.86 118.33,252.86 119.30,252.86 120.28,252.86 121.26,252.86 122.24,252.86 123.21,252.86 124.19,252.86 125.17,252.86 126.15,252.86 127.12,252.86 128.10,252.84 129.08,252.71 130.06,252.50 131.03,252.21 132.01,251.87 132.99,251.48 135.92,250.11 140.81,247.34 142.76,246.10 143.74,245.45 144.72,244.79 145.69,244.11 146.67,243.42 147.65,242.71 148.63,241.98 149.60,241.24 150.58,240.48 151.56,239.71 152.53,238.92 153.51,238.12 154.49,237.31 155.47,236.48 157.42,234.79 163.29,229.45 169.15,223.86 174.04,219.13 179.90,213.52 185.77,208.11 190.65,203.83 196.52,199.03 201.40,195.33 203.36,193.94 207.27,191.31 213.13,187.76 218.02,185.18 223.88,182.55 226.81,181.43 227.79,181.09 229.75,180.44 230.72,180.14 231.70,179.85 234.63,179.07 239.52,178.03 240.50,177.87 246.36,177.09 251.25,176.68 257.11,176.35 260.05,176.22 262.98,176.10 267.86,175.92 273.73,175.74 278.62,175.59 284.48,175.43 290.34,175.29 295.23,175.17 301.09,175.04 306.96,174.91 308.91,174.87 311.85,174.81 317.71,174.69 320.64,174.64 323.57,174.58 328.46,174.49 332.37,174.41 334.33,174.37 339.21,174.26 345.08,174.10 350.94,173.85 355.83,173.54 361.69,172.99 367.56,172.21 372.44,171.35 378.31,170.04 384.17,168.42 389.06,166.83 394.92,164.64 400.79,162.15 405.67,159.84 411.54,156.81 416.42,154.10 422.29,150.81 428.15,147.53 433.04,144.79 437.93,142.05"/>
<polyline fill="none" stroke="#2ca02c" stroke-width="1.8" stroke-dasharray="2 4" points="86.07,320.32 91.94,320.32 96.83,320.32 102.69,320.32 108.55,320.32 113.44,320.32 118.33,320.32 119.30,320.16 120.28,319.91 121.26,319.59 122.24,319.22 123.21,318.82 124.19,318.39 125.17,317.93 126.15,317.45 127.12,316.95 128.10,316.43 129.08,315.88 130.06,315.32 131.03,314.73 132.01,314.11 132.99,313.47 135.92,311.39 140.81,307.31 142.76,305.43 143.74,304.43 144.72,303.39 145.69,302.31 146.67,301.19 147.65,300.03 148.63,298.82 149.60,297.57 150.58,296.28 151.56,294.94 152.53,293.56 153.51,292.14 154.49,290.68 155.47,289.18 157.42,286.05 163.29,275.85 169.15,264.70 174.04,254.95 179.90,242.90 185.77,230.58 190.65,220.23 196.52,207.89 201.40,197.85 203.36,193.94 207.27,186.34 213.13,175.67 218.02,167.60 223.88,159.06 226.81,155.28 227.79,154.10 229.75,151.85 230.72,150.77 231.70,149.74 234.63,146.87 239.52,142.81 240.50,142.11 246.36,138.57 251.25,136.44 257.11,134.64 260.05,133.97 262.98,133.40 267.86,132.63 273.73,131.90 278.62,131.38 284.48,130.83 290.34,130.33 295.23,129.95 301.09,129.53 306.96,129.13 308.91,129.00 311.85,128.81 317.71,128.44 320.64,128.26 323.57,128.09 328.46,127.80 332.37,127.58 334.33,127.47 339.21,127.20 345.08,126.89 350.94,126.58 355.83,126.32 361.69,126.02 367.56,125.73 372.44,125.45 378.31,125.02 384.17,124.33 389.06,123.42 394.92,121.78 400.79,119.44 405.67,116.90 411.54,113.19 416.42,109.60 422.29,104.75 428.15,99.43 433.04,94.68 437.93,89.68"/>
<polyline fill="none" stroke="#1f77b4" stroke-width="1.1" stroke-dasharray="6 4" points="72.00,103.21 76.81,104.97 81.62,106.72 86.43,108.48 91.24,110.23 96.05,111.99 100.86,113.74 105.67,115.50 110.48,117.25 115.29,119.01 120.10,120.76 124.91,122.52 129.72,124.27 134.53,126.03 139.34,127.79 144.15,129.54 148.96,131.30 153.77,133.05 158.58,134.81 163.39,136.56 168.20,138.32 173.01,140.07 177.82,141.83 182.63,143.58 187.44,145.34 192.25,147.09 197.06,148.85 201.87,150.60 206.68,152.36 211.49,154.11 216.30,155.87 221.11,157.62 225.92,159.38 230.73,161.13 235.54,162.89 240.35,164.64 245.16,166.40 249.97,168.15 254.78,169.91 259.59,171.66 264.41,173.42 269.22,175.17 274.03,176.93 278.84,178.68 283.65,180.44 288.46,182.19 293.27,183.95 298.08,185.71 302.89,187.46 307.70,189.22 312.51,190.97 317.32,192.73 322.13,194.48 326.94,196.24 331.75,197.99 336.56,199.75 341.37,201.50 346.18,203.26 350.99,205.01 355.80,206.77 360.61,208.52 365.42,210.28 370.23,212.03 375.04,213.79 379.85,215.54 384.66,217.30 389.47,219.05 394.28,220.81 399.09,222.56 403.90,224.32 408.71,226.07 413.52,227.83 418.33,229.58 423.14,231.34 427.95,233.09 432.76,234.85 437.57,236.60 442.38,238.36 447.19,240.11 452.00,241.87"/>
<circle cx="239.17" cy="164.21" r="4.6" fill="#ffffff" stroke="#1f77b4" stroke-width="2"/>
<text x="245.17" y="158.21" font-family="Arial, sans-serif" font-size="10" fill="#1f77b4">typ 22 ohm</text>
<polyline fill="none" stroke="#ff7f0e" stroke-width="1.1" stroke-dasharray="6 4" points="72.00,107.49 76.81,109.25 81.62,111.00 86.43,112.76 91.24,114.51 96.05,116.27 100.86,118.02 105.67,119.78 110.48,121.53 115.29,123.29 120.10,125.04 124.91,126.80 129.72,128.55 134.53,130.31 139.34,132.06 144.15,133.82 148.96,135.58 153.77,137.33 158.58,139.09 163.39,140.84 168.20,142.60 173.01,144.35 177.82,146.11 182.63,147.86 187.44,149.62 192.25,151.37 197.06,153.13 201.87,154.88 206.68,156.64 211.49,158.39 216.30,160.15 221.11,161.90 225.92,163.66 230.73,165.41 235.54,167.17 240.35,168.92 245.16,170.68 249.97,172.43 254.78,174.19 259.59,175.94 264.41,177.70 269.22,179.45 274.03,181.21 278.84,182.96 283.65,184.72 288.46,186.47 293.27,188.23 298.08,189.98 302.89,191.74 307.70,193.49 312.51,195.25 317.32,197.01 322.13,198.76 326.94,200.52 331.75,202.27 336.56,204.03 341.37,205.78 346.18,207.54 350.99,209.29 355.80,211.05 360.61,212.80 365.42,214.56 370.23,216.31 375.04,218.07 379.85,219.82 384.66,221.58 389.47,223.33 394.28,225.09 399.09,226.84 403.90,228.60 408.71,230.35 413.52,232.11 418.33,233.86 423.14,235.62 427.95,237.37 432.76,239.13 437.57,240.88 442.38,242.64 447.19,244.39 452.00,246.15"/>
<circle cx="260.31" cy="176.20" r="4.6" fill="#ffffff" stroke="#ff7f0e" stroke-width="2"/>
<text x="266.31" y="170.20" font-family="Arial, sans-serif" font-size="10" fill="#ff7f0e">min 58.6 ohm</text>
<polyline fill="none" stroke="#2ca02c" stroke-width="1.1" stroke-dasharray="6 4" points="72.00,98.93 76.81,100.69 81.62,102.44 86.43,104.20 91.24,105.95 96.05,107.71 100.86,109.46 105.67,111.22 110.48,112.97 115.29,114.73 120.10,116.49 124.91,118.24 129.72,120.00 134.53,121.75 139.34,123.51 144.15,125.26 148.96,127.02 153.77,128.77 158.58,130.53 163.39,132.28 168.20,134.04 173.01,135.79 177.82,137.55 182.63,139.30 187.44,141.06 192.25,142.81 197.06,144.57 201.87,146.32 206.68,148.08 211.49,149.83 216.30,151.59 221.11,153.34 225.92,155.10 230.73,156.85 235.54,158.61 240.35,160.36 245.16,162.12 249.97,163.87 254.78,165.63 259.59,167.38 264.41,169.14 269.22,170.89 274.03,172.65 278.84,174.41 283.65,176.16 288.46,177.92 293.27,179.67 298.08,181.43 302.89,183.18 307.70,184.94 312.51,186.69 317.32,188.45 322.13,190.20 326.94,191.96 331.75,193.71 336.56,195.47 341.37,197.22 346.18,198.98 350.99,200.73 355.80,202.49 360.61,204.24 365.42,206.00 370.23,207.75 375.04,209.51 379.85,211.26 384.66,213.02 389.47,214.77 394.28,216.53 399.09,218.28 403.90,220.04 408.71,221.79 413.52,223.55 418.33,225.30 423.14,227.06 427.95,228.81 432.76,230.57 437.57,232.32 442.38,234.08 447.19,235.84 452.00,237.59"/>
<circle cx="226.73" cy="155.39" r="4.6" fill="#ffffff" stroke="#2ca02c" stroke-width="2"/>
<text x="232.73" y="149.39" font-family="Arial, sans-serif" font-size="10" fill="#2ca02c">max 11.1 ohm</text>
<line x1="82.00" y1="80.00" x2="104.00" y2="80.00" stroke="#1f77b4" stroke-width="2"/>
<text x="110.00" y="84.00" font-family="Arial, sans-serif" font-size="11">typ</text>
<line x1="82.00" y1="97.00" x2="104.00" y2="97.00" stroke="#ff7f0e" stroke-width="2" stroke-dasharray="5 4"/>
<text x="110.00" y="101.00" font-family="Arial, sans-serif" font-size="11">min</text>
<line x1="82.00" y1="114.00" x2="104.00" y2="114.00" stroke="#2ca02c" stroke-width="2" stroke-dasharray="2 4"/>
<text x="110.00" y="118.00" font-family="Arial, sans-serif" font-size="11">max</text>
<text x="262.00" y="386.00" text-anchor="middle" font-family="Arial, sans-serif" font-size="11">Output voltage (V)</text>
<text transform="translate(22.00 205.00) rotate(-90)" text-anchor="middle" font-family="Arial, sans-serif" font-size="11">Current (mA)</text>
<rect x="492.00" y="62.00" width="380.00" height="286.00" fill="#fbfbfb" stroke="#c8c8c8"/>
<text x="500.00" y="50.00" font-family="Arial, sans-serif" font-size="13" font-weight="700">[Pullup] Rload to GND</text>
<line x1="492.00" y1="62.00" x2="492.00" y2="348.00" stroke="#ececec"/>
<text x="492.00" y="366.00" text-anchor="middle" font-family="Arial, sans-serif" font-size="10">-1.3</text>
<line x1="587.00" y1="62.00" x2="587.00" y2="348.00" stroke="#ececec"/>
<text x="587.00" y="366.00" text-anchor="middle" font-family="Arial, sans-serif" font-size="10">-0.372</text>
<line x1="682.00" y1="62.00" x2="682.00" y2="348.00" stroke="#ececec"/>
<text x="682.00" y="366.00" text-anchor="middle" font-family="Arial, sans-serif" font-size="10">0.6</text>
<line x1="777.00" y1="62.00" x2="777.00" y2="348.00" stroke="#ececec"/>
<text x="777.00" y="366.00" text-anchor="middle" font-family="Arial, sans-serif" font-size="10">1.6</text>
<line x1="872.00" y1="62.00" x2="872.00" y2="348.00" stroke="#ececec"/>
<text x="872.00" y="366.00" text-anchor="middle" font-family="Arial, sans-serif" font-size="10">2.5</text>
<line x1="492.00" y1="348.00" x2="872.00" y2="348.00" stroke="#ececec"/>
<text x="485.00" y="352.00" text-anchor="end" font-family="Arial, sans-serif" font-size="10">-69</text>
<line x1="492.00" y1="276.50" x2="872.00" y2="276.50" stroke="#ececec"/>
<text x="485.00" y="280.50" text-anchor="end" font-family="Arial, sans-serif" font-size="10">-24</text>
<line x1="492.00" y1="205.00" x2="872.00" y2="205.00" stroke="#ececec"/>
<text x="485.00" y="209.00" text-anchor="end" font-family="Arial, sans-serif" font-size="10">21</text>
<line x1="492.00" y1="133.50" x2="872.00" y2="133.50" stroke="#ececec"/>
<text x="485.00" y="137.50" text-anchor="end" font-family="Arial, sans-serif" font-size="10">66</text>
<line x1="492.00" y1="62.00" x2="872.00" y2="62.00" stroke="#ececec"/>
<text x="485.00" y="66.00" text-anchor="end" font-family="Arial, sans-serif" font-size="10">1.1e+02</text>
<line x1="623.36" y1="62" x2="623.36" y2="348" stroke="#777" stroke-dasharray="4 4"/>
<line x1="492.0" y1="238.20" x2="872.0" y2="238.20" stroke="#777" stroke-dasharray="4 4"/>
<polyline fill="none" stroke="#1f77b4" stroke-width="1.8" points="506.07,122.51 511.94,129.38 516.83,135.05 522.69,141.76 528.55,148.39 533.44,153.83 539.30,160.26 544.19,165.54 550.06,171.77 555.92,177.87 560.81,182.86 566.67,188.72 572.53,194.46 577.42,199.14 583.29,204.64 589.15,209.99 594.04,214.35 599.90,219.45 605.77,224.40 610.65,228.40 615.54,232.26 616.52,233.02 621.40,236.75 623.36,238.20 627.27,240.98 630.20,242.93 631.18,243.56 632.15,244.17 633.13,244.77 638.02,247.61 643.88,250.64 649.75,253.23 654.63,255.05 658.54,256.28 660.50,256.82 666.36,258.17 671.25,259.01 675.16,259.53 677.11,259.76 682.98,260.32 687.86,260.70 691.77,260.96 693.73,261.08 698.62,261.08 704.48,261.08 710.34,261.08 715.23,261.08 721.09,261.08 726.96,261.08 728.91,261.08 731.85,261.08 737.71,261.08 740.64,261.08 743.57,261.08 748.46,261.08 752.37,261.08 754.33,261.08 759.21,261.08 760.19,261.83 765.08,268.17 770.94,275.83 775.83,282.17 781.69,289.55 787.56,296.44 789.51,298.60 791.47,300.66 792.44,301.66 793.42,302.64 794.40,303.59 795.37,304.52 796.35,305.42 797.33,306.30 798.31,307.16 799.28,307.99 800.26,308.80 801.24,309.58 802.22,310.34 803.19,311.07 804.17,311.78 805.15,312.47 806.13,313.13 809.06,314.99 812.97,317.17 813.94,317.67 814.92,318.13 815.90,318.58 816.88,318.99 817.85,319.37 818.83,319.71 819.81,319.99 820.79,320.20 821.76,320.32 825.67,320.32 831.54,320.32 836.42,320.32 842.29,320.32 845.22,320.32 848.15,320.32 853.04,320.32 857.93,320.32"/>
<polyline fill="none" stroke="#ff7f0e" stroke-width="1.8" stroke-dasharray="5 4" points="506.07,156.11 511.94,161.36 516.83,165.73 522.69,170.95 528.55,176.05 533.44,180.19 539.30,185.04 544.19,188.98 550.06,193.57 555.92,198.02 560.81,201.61 566.67,205.78 572.53,209.79 577.42,213.02 583.29,216.75 589.15,220.33 594.04,223.19 599.90,226.48 605.77,229.63 610.65,232.13 615.54,234.54 616.52,235.01 621.40,237.31 623.36,238.20 627.27,239.89 630.20,241.06 631.18,241.43 632.15,241.79 633.13,242.14 638.02,243.77 643.88,245.46 649.75,246.85 654.63,247.78 658.54,248.37 660.50,248.63 666.36,249.21 671.25,249.55 675.16,249.76 677.11,249.85 682.98,250.07 687.86,250.23 691.77,250.34 693.73,250.40 698.62,250.52 704.48,250.66 710.34,250.78 715.23,250.88 721.09,250.99 726.96,251.09 728.91,251.12 731.85,251.17 737.71,251.26 740.64,251.31 743.57,251.35 748.46,251.42 752.37,251.48 754.33,251.50 759.21,251.57 760.19,251.58 765.08,251.65 770.94,251.72 775.83,251.78 781.69,251.85 787.56,251.92 789.51,251.94 791.47,251.97 792.44,251.98 793.42,251.99 794.40,252.00 795.37,252.01 796.35,252.02 797.33,252.03 798.31,252.04 799.28,252.05 800.26,252.07 801.24,252.07 802.22,252.09 803.19,252.10 804.17,252.11 805.15,252.12 806.13,252.13 809.06,252.15 812.97,252.15 813.94,252.15 814.92,252.15 815.90,252.15 816.88,252.15 817.85,252.15 818.83,252.15 819.81,252.15 820.79,252.15 821.76,252.15 825.67,252.15 831.54,252.15 836.42,252.15 842.29,252.15 845.22,252.15 848.15,252.15 853.04,252.15 857.93,252.15"/>
<polyline fill="none" stroke="#2ca02c" stroke-width="1.8" stroke-dasharray="2 4" points="506.07,89.68 511.94,97.45 516.83,103.91 522.69,111.64 528.55,119.33 533.44,125.72 539.30,133.34 544.19,139.65 550.06,147.19 555.92,154.66 560.81,160.86 566.67,168.25 572.53,175.61 577.42,181.72 583.29,189.06 589.15,196.38 594.04,202.47 599.90,209.77 605.77,217.03 610.65,223.00 615.54,228.75 616.52,229.92 621.40,235.88 623.36,238.20 627.27,242.69 630.20,245.88 631.18,246.90 632.15,247.89 633.13,248.84 638.02,253.40 643.88,258.41 649.75,262.82 654.63,266.01 658.54,268.24 660.50,269.25 666.36,271.89 671.25,273.66 675.16,274.84 677.11,275.35 682.98,276.66 687.86,277.54 691.77,278.13 693.73,278.40 698.62,279.00 704.48,279.62 710.34,280.16 715.23,280.56 721.09,281.00 726.96,281.40 728.91,281.52 731.85,281.70 737.71,282.05 740.64,282.21 743.57,282.37 748.46,282.63 752.37,282.82 754.33,282.92 759.21,283.15 760.19,283.19 765.08,283.41 770.94,283.67 775.83,283.88 781.69,284.12 787.56,284.35 789.51,284.42 791.47,284.50 792.44,284.53 793.42,284.57 794.40,284.61 795.37,284.64 796.35,284.68 797.33,284.72 798.31,284.75 799.28,284.79 800.26,284.82 801.24,284.86 802.22,284.90 803.19,284.93 804.17,284.97 805.15,285.00 806.13,285.04 809.06,285.14 812.97,285.28 813.94,285.31 814.92,285.34 815.90,285.38 816.88,285.41 817.85,285.44 818.83,285.48 819.81,285.51 820.79,285.54 821.76,285.58 825.67,285.71 831.54,285.90 836.42,286.06 842.29,286.24 845.22,286.34 848.15,286.34 853.04,286.34 857.93,286.34"/>
<polyline fill="none" stroke="#1f77b4" stroke-width="1.1" stroke-dasharray="6 4" points="492.00,318.84 496.81,317.28 501.62,315.72 506.43,314.16 511.24,312.60 516.05,311.04 520.86,309.48 525.67,307.92 530.48,306.36 535.29,304.80 540.10,303.24 544.91,301.68 549.72,300.12 554.53,298.56 559.34,297.00 564.15,295.44 568.96,293.88 573.77,292.32 578.58,290.76 583.39,289.20 588.20,287.64 593.01,286.08 597.82,284.52 602.63,282.96 607.44,281.40 612.25,279.84 617.06,278.28 621.87,276.72 626.68,275.16 631.49,273.60 636.30,272.04 641.11,270.48 645.92,268.92 650.73,267.36 655.54,265.80 660.35,264.24 665.16,262.68 669.97,261.12 674.78,259.56 679.59,258.00 684.41,256.44 689.22,254.88 694.03,253.32 698.84,251.76 703.65,250.20 708.46,248.64 713.27,247.08 718.08,245.52 722.89,243.96 727.70,242.40 732.51,240.84 737.32,239.28 742.13,237.72 746.94,236.16 751.75,234.60 756.56,233.04 761.37,231.48 766.18,229.92 770.99,228.36 775.80,226.80 780.61,225.24 785.42,223.68 790.23,222.12 795.04,220.56 799.85,219.00 804.66,217.44 809.47,215.88 814.28,214.32 819.09,212.76 823.90,211.20 828.71,209.64 833.52,208.08 838.33,206.52 843.14,204.96 847.95,203.40 852.76,201.84 857.57,200.28 862.38,198.72 867.19,197.16 872.00,195.60"/>
<circle cx="674.95" cy="259.50" r="4.6" fill="#ffffff" stroke="#1f77b4" stroke-width="2"/>
<text x="680.95" y="253.50" font-family="Arial, sans-serif" font-size="10" fill="#1f77b4">typ 39.3 ohm</text>
<polyline fill="none" stroke="#ff7f0e" stroke-width="1.1" stroke-dasharray="6 4" points="492.00,315.04 496.81,313.48 501.62,311.92 506.43,310.36 511.24,308.80 516.05,307.24 520.86,305.68 525.67,304.12 530.48,302.56 535.29,301.00 540.10,299.44 544.91,297.88 549.72,296.32 554.53,294.76 559.34,293.20 564.15,291.64 568.96,290.08 573.77,288.52 578.58,286.96 583.39,285.40 588.20,283.84 593.01,282.28 597.82,280.72 602.63,279.16 607.44,277.60 612.25,276.04 617.06,274.48 621.87,272.92 626.68,271.36 631.49,269.80 636.30,268.24 641.11,266.68 645.92,265.12 650.73,263.56 655.54,262.00 660.35,260.44 665.16,258.88 669.97,257.32 674.78,255.76 679.59,254.20 684.41,252.64 689.22,251.08 694.03,249.52 698.84,247.96 703.65,246.40 708.46,244.84 713.27,243.28 718.08,241.72 722.89,240.16 727.70,238.60 732.51,237.04 737.32,235.48 742.13,233.92 746.94,232.36 751.75,230.80 756.56,229.24 761.37,227.68 766.18,226.12 770.99,224.56 775.80,223.00 780.61,221.44 785.42,219.88 790.23,218.32 795.04,216.76 799.85,215.20 804.66,213.63 809.47,212.07 814.28,210.51 819.09,208.95 823.90,207.39 828.71,205.83 833.52,204.27 838.33,202.71 843.14,201.15 847.95,199.59 852.76,198.03 857.57,196.47 862.38,194.91 867.19,193.35 872.00,191.79"/>
<circle cx="691.50" cy="250.33" r="4.6" fill="#ffffff" stroke="#ff7f0e" stroke-width="2"/>
<text x="697.50" y="244.33" font-family="Arial, sans-serif" font-size="10" fill="#ff7f0e">min 91.1 ohm</text>
<polyline fill="none" stroke="#2ca02c" stroke-width="1.1" stroke-dasharray="6 4" points="492.00,322.64 496.81,321.08 501.62,319.52 506.43,317.96 511.24,316.40 516.05,314.84 520.86,313.28 525.67,311.72 530.48,310.16 535.29,308.60 540.10,307.04 544.91,305.48 549.72,303.92 554.53,302.36 559.34,300.80 564.15,299.24 568.96,297.68 573.77,296.12 578.58,294.56 583.39,293.00 588.20,291.44 593.01,289.88 597.82,288.32 602.63,286.76 607.44,285.20 612.25,283.64 617.06,282.08 621.87,280.52 626.68,278.96 631.49,277.40 636.30,275.84 641.11,274.28 645.92,272.72 650.73,271.16 655.54,269.60 660.35,268.04 665.16,266.48 669.97,264.92 674.78,263.36 679.59,261.80 684.41,260.24 689.22,258.68 694.03,257.12 698.84,255.56 703.65,254.00 708.46,252.44 713.27,250.88 718.08,249.32 722.89,247.76 727.70,246.20 732.51,244.64 737.32,243.08 742.13,241.52 746.94,239.96 751.75,238.40 756.56,236.84 761.37,235.28 766.18,233.72 770.99,232.16 775.80,230.60 780.61,229.04 785.42,227.48 790.23,225.92 795.04,224.36 799.85,222.80 804.66,221.24 809.47,219.68 814.28,218.12 819.09,216.56 823.90,215.00 828.71,213.44 833.52,211.88 838.33,210.32 843.14,208.76 847.95,207.20 852.76,205.64 857.57,204.08 862.38,202.52 867.19,200.96 872.00,199.40"/>
<circle cx="659.01" cy="268.48" r="4.6" fill="#ffffff" stroke="#2ca02c" stroke-width="2"/>
<text x="665.01" y="262.48" font-family="Arial, sans-serif" font-size="10" fill="#2ca02c">max 19.1 ohm</text>
<line x1="502.00" y1="80.00" x2="524.00" y2="80.00" stroke="#1f77b4" stroke-width="2"/>
<text x="530.00" y="84.00" font-family="Arial, sans-serif" font-size="11">typ</text>
<line x1="502.00" y1="97.00" x2="524.00" y2="97.00" stroke="#ff7f0e" stroke-width="2" stroke-dasharray="5 4"/>
<text x="530.00" y="101.00" font-family="Arial, sans-serif" font-size="11">min</text>
<line x1="502.00" y1="114.00" x2="524.00" y2="114.00" stroke="#2ca02c" stroke-width="2" stroke-dasharray="2 4"/>
<text x="530.00" y="118.00" font-family="Arial, sans-serif" font-size="11">max</text>
<text x="682.00" y="386.00" text-anchor="middle" font-family="Arial, sans-serif" font-size="11">Vcc-relative table voltage (V)</text>
<text transform="translate(442.00 205.00) rotate(-90)" text-anchor="middle" font-family="Arial, sans-serif" font-size="11">Current (mA)</text>
<rect x="72.00" y="418.00" width="800.00" height="144.00" fill="#ffffff" stroke="#c8c8c8"/>
<text x="82.00" y="436.00" font-family="Arial, sans-serif" font-size="12" font-weight="700">Operating-point summary</text>
<text x="82.00" y="454.00" font-family="Arial, sans-serif" font-size="10" font-weight="700" fill="#333">Table</text>
<text x="174.00" y="454.00" font-family="Arial, sans-serif" font-size="10" font-weight="700" fill="#333">Corner</text>
<text x="242.00" y="454.00" font-family="Arial, sans-serif" font-size="10" font-weight="700" fill="#333">Vout</text>
<text x="332.00" y="454.00" font-family="Arial, sans-serif" font-size="10" font-weight="700" fill="#333">Iop</text>
<text x="422.00" y="454.00" font-family="Arial, sans-serif" font-size="10" font-weight="700" fill="#333">Zout</text>
<text x="512.00" y="454.00" font-family="Arial, sans-serif" font-size="10" font-weight="700" fill="#333">Rseries</text>
<text x="82.00" y="473.00" font-family="Arial, sans-serif" font-size="10" fill="#1f77b4">pulldown</text>
<text x="174.00" y="473.00" font-family="Arial, sans-serif" font-size="10" fill="#1f77b4">typ</text>
<text x="242.00" y="473.00" font-family="Arial, sans-serif" font-size="10" fill="#1f77b4">0.3664 V</text>
<text x="332.00" y="473.00" font-family="Arial, sans-serif" font-size="10" fill="#1f77b4">17 mA</text>
<text x="422.00" y="473.00" font-family="Arial, sans-serif" font-size="10" fill="#1f77b4">22 ohm</text>
<text x="512.00" y="473.00" font-family="Arial, sans-serif" font-size="10" fill="#1f77b4">28 ohm</text>
<text x="82.00" y="492.00" font-family="Arial, sans-serif" font-size="10" fill="#ff7f0e">pulldown</text>
<text x="174.00" y="492.00" font-family="Arial, sans-serif" font-size="10" fill="#ff7f0e">min</text>
<text x="242.00" y="492.00" font-family="Arial, sans-serif" font-size="10" fill="#ff7f0e">0.5827 V</text>
<text x="332.00" y="492.00" font-family="Arial, sans-serif" font-size="10" fill="#ff7f0e">9.9 mA</text>
<text x="422.00" y="492.00" font-family="Arial, sans-serif" font-size="10" fill="#ff7f0e">58.6 ohm</text>
<text x="512.00" y="492.00" font-family="Arial, sans-serif" font-size="10" fill="#ff7f0e">-8.588 ohm</text>
<text x="82.00" y="511.00" font-family="Arial, sans-serif" font-size="10" fill="#2ca02c">pulldown</text>
<text x="174.00" y="511.00" font-family="Arial, sans-serif" font-size="10" fill="#2ca02c">max</text>
<text x="242.00" y="511.00" font-family="Arial, sans-serif" font-size="10" fill="#2ca02c">0.2391 V</text>
<text x="332.00" y="511.00" font-family="Arial, sans-serif" font-size="10" fill="#2ca02c">22 mA</text>
<text x="422.00" y="511.00" font-family="Arial, sans-serif" font-size="10" fill="#2ca02c">11.1 ohm</text>
<text x="512.00" y="511.00" font-family="Arial, sans-serif" font-size="10" fill="#2ca02c">38.9 ohm</text>
<text x="82.00" y="530.00" font-family="Arial, sans-serif" font-size="10" fill="#1f77b4">pullup</text>
<text x="174.00" y="530.00" font-family="Arial, sans-serif" font-size="10" fill="#1f77b4">typ</text>
<text x="242.00" y="530.00" font-family="Arial, sans-serif" font-size="10" fill="#1f77b4">0.6721 V</text>
<text x="332.00" y="530.00" font-family="Arial, sans-serif" font-size="10" fill="#1f77b4">-13 mA</text>
<text x="422.00" y="530.00" font-family="Arial, sans-serif" font-size="10" fill="#1f77b4">39.3 ohm</text>
<text x="512.00" y="530.00" font-family="Arial, sans-serif" font-size="10" fill="#1f77b4">10.7 ohm</text>
<text x="82.00" y="549.00" font-family="Arial, sans-serif" font-size="10" fill="#ff7f0e">pullup</text>
<text x="174.00" y="549.00" font-family="Arial, sans-serif" font-size="10" fill="#ff7f0e">min</text>
<text x="242.00" y="549.00" font-family="Arial, sans-serif" font-size="10" fill="#ff7f0e">0.3828 V</text>
<text x="332.00" y="549.00" font-family="Arial, sans-serif" font-size="10" fill="#ff7f0e">-7.7 mA</text>
<text x="422.00" y="549.00" font-family="Arial, sans-serif" font-size="10" fill="#ff7f0e">91.1 ohm</text>
<text x="512.00" y="549.00" font-family="Arial, sans-serif" font-size="10" fill="#ff7f0e">-41.1 ohm</text>
<text x="82.00" y="568.00" font-family="Arial, sans-serif" font-size="10" fill="#2ca02c">pullup</text>
<text x="174.00" y="568.00" font-family="Arial, sans-serif" font-size="10" fill="#2ca02c">max</text>
<text x="242.00" y="568.00" font-family="Arial, sans-serif" font-size="10" fill="#2ca02c">0.9552 V</text>
<text x="332.00" y="568.00" font-family="Arial, sans-serif" font-size="10" fill="#2ca02c">-19 mA</text>
<text x="422.00" y="568.00" font-family="Arial, sans-serif" font-size="10" fill="#2ca02c">19.1 ohm</text>
<text x="512.00" y="568.00" font-family="Arial, sans-serif" font-size="10" fill="#2ca02c">30.9 ohm</text>
</svg>