<svg xmlns="http://www.w3.org/2000/svg" width="800" height="560" viewBox="0 0 800 560">
<rect width="100%" height="100%" fill="#ffffff"/>
<text x="78" y="25" font-family="Arial, sans-serif" font-size="16" font-weight="700">mpad_1_S7_1P8_I3C I-V Clamp Sweep Range</text>
<rect x="78" y="52" width="694" height="348" fill="#fbfbfb" stroke="#c8c8c8"/>
<line x1="78.00" y1="52" x2="78.00" y2="400" stroke="#ececec"/>
<text x="78.00" y="422" text-anchor="middle" font-family="Arial, sans-serif" font-size="11">-2</text>
<line x1="216.80" y1="52" x2="216.80" y2="400" stroke="#ececec"/>
<text x="216.80" y="422" text-anchor="middle" font-family="Arial, sans-serif" font-size="11">-1.2</text>
<line x1="355.60" y1="52" x2="355.60" y2="400" stroke="#ececec"/>
<text x="355.60" y="422" text-anchor="middle" font-family="Arial, sans-serif" font-size="11">-0.396</text>
<line x1="494.40" y1="52" x2="494.40" y2="400" stroke="#ececec"/>
<text x="494.40" y="422" text-anchor="middle" font-family="Arial, sans-serif" font-size="11">0.396</text>
<line x1="633.20" y1="52" x2="633.20" y2="400" stroke="#ececec"/>
<text x="633.20" y="422" text-anchor="middle" font-family="Arial, sans-serif" font-size="11">1.2</text>
<line x1="772.00" y1="52" x2="772.00" y2="400" stroke="#ececec"/>
<text x="772.00" y="422" text-anchor="middle" font-family="Arial, sans-serif" font-size="11">2</text>
<line x1="78" y1="400.00" x2="772" y2="400.00" stroke="#ececec"/>
<text x="70" y="404.00" text-anchor="end" font-family="Arial, sans-serif" font-size="11">-2.7</text>
<line x1="78" y1="330.40" x2="772" y2="330.40" stroke="#ececec"/>
<text x="70" y="334.40" text-anchor="end" font-family="Arial, sans-serif" font-size="11">-1.5</text>
<line x1="78" y1="260.80" x2="772" y2="260.80" stroke="#ececec"/>
<text x="70" y="264.80" text-anchor="end" font-family="Arial, sans-serif" font-size="11">-0.325</text>
<line x1="78" y1="191.20" x2="772" y2="191.20" stroke="#ececec"/>
<text x="70" y="195.20" text-anchor="end" font-family="Arial, sans-serif" font-size="11">0.866</text>
<line x1="78" y1="121.60" x2="772" y2="121.60" stroke="#ececec"/>
<text x="70" y="125.60" text-anchor="end" font-family="Arial, sans-serif" font-size="11">2.1</text>
<line x1="78" y1="52.00" x2="772" y2="52.00" stroke="#ececec"/>
<text x="70" y="56.00" text-anchor="end" font-family="Arial, sans-serif" font-size="11">3.2</text>
<line x1="425.00" y1="52" x2="425.00" y2="400" stroke="#777" stroke-dasharray="4 4"/>
<line x1="78" y1="241.80" x2="772" y2="241.80" stroke="#777" stroke-dasharray="4 4"/>
<line x1="109.55" y1="52" x2="109.55" y2="400" stroke="#555" stroke-dasharray="2 4"/>
<text x="113.55" y="66" font-family="Arial, sans-serif" font-size="11" fill="#555">-Vcc</text>
<line x1="740.45" y1="52" x2="740.45" y2="400" stroke="#555" stroke-dasharray="2 4"/>
<text x="744.45" y="66" font-family="Arial, sans-serif" font-size="11" fill="#555">Vcc</text>
<polyline fill="none" stroke="#2ca02c" stroke-width="1.2" opacity="0.55" stroke-dasharray="4 4" points="109.55,376.00 127.07,361.52 144.60,347.15 162.12,332.84 179.65,318.65 197.17,304.64 214.70,290.84 232.22,277.41 249.75,264.62 267.27,253.13 284.80,244.92 302.32,242.36 319.85,242.03 337.37,241.90 354.90,241.82 372.42,241.80 389.95,241.80 407.47,241.80 425.00,241.80 442.53,241.80 460.05,241.80 477.58,241.80 495.10,241.80 512.63,241.80 530.15,241.80 547.68,241.80 565.20,241.80 582.73,241.80 600.25,241.80 617.78,241.80 635.30,241.80 652.83,241.80 670.35,241.80 687.88,241.80 705.40,241.80 722.93,241.80 740.45,241.80"/>
<polyline fill="none" stroke="#2ca02c" stroke-width="1.2" opacity="0.55" stroke-dasharray="4 4" points="109.55,364.26 127.07,349.60 144.60,335.06 162.12,320.58 179.65,306.27 197.17,292.08 214.70,278.19 232.22,264.82 249.75,252.62 267.27,244.29 284.80,242.67 302.32,242.38 319.85,242.14 337.37,241.95 354.90,241.83 372.42,241.80 389.95,241.80 407.47,241.80 425.00,241.80 442.53,241.80 460.05,241.80 477.58,241.80 495.10,241.80 512.63,241.80 530.15,241.80 547.68,241.80 565.20,241.80 582.73,241.80 600.25,241.80 617.78,241.80 635.30,241.80 652.83,241.80 670.35,241.80 687.88,241.80 705.40,241.80 722.93,241.80 740.45,241.80"/>
<polyline fill="none" stroke="#2ca02c" stroke-width="2.0" opacity="1.0" points="109.55,369.87 127.07,355.33 144.60,340.84 162.12,326.48 179.65,312.23 197.17,298.13 214.70,284.32 232.22,270.93 249.75,258.37 267.27,247.88 284.80,242.91 302.32,242.26 319.85,242.06 337.37,241.92 354.90,241.82 372.42,241.80 389.95,241.80 407.47,241.80 425.00,241.80 442.53,241.80 460.05,241.80 477.58,241.80 495.10,241.80 512.63,241.80 530.15,241.80 547.68,241.80 565.20,241.80 582.73,241.80 600.25,241.80 617.78,241.80 635.30,241.80 652.83,241.80 670.35,241.80 687.88,241.80 705.40,241.80 722.93,241.80 740.45,241.80"/>
<polyline fill="none" stroke="#9467bd" stroke-width="1.2" opacity="0.55" stroke-dasharray="4 4" points="109.55,76.00 127.07,94.34 144.60,112.56 162.12,130.72 179.65,148.65 197.17,166.40 214.70,183.81 232.22,200.70 249.75,216.64 267.27,230.53 284.80,239.26 302.32,241.27 319.85,241.55 337.37,241.68 354.90,241.76 372.42,241.79 389.95,241.80 407.47,241.80 425.00,241.80"/>
<polyline fill="none" stroke="#9467bd" stroke-width="1.2" opacity="0.55" stroke-dasharray="4 4" points="109.55,90.02 127.07,108.59 144.60,127.04 162.12,145.38 179.65,163.54 197.17,181.47 214.70,198.99 232.22,215.77 249.75,230.74 267.27,239.67 284.80,240.92 302.32,241.21 319.85,241.45 337.37,241.64 354.90,241.76 372.42,241.80 389.95,241.80 407.47,241.80 425.00,241.80"/>
<polyline fill="none" stroke="#9467bd" stroke-width="2.0" opacity="1.0" points="109.55,83.30 127.07,101.75 144.60,120.09 162.12,138.31 179.65,156.36 197.17,174.17 214.70,191.61 232.22,208.44 249.75,224.01 267.27,236.26 284.80,240.81 302.32,241.32 319.85,241.52 337.37,241.67 354.90,241.77 372.42,241.79 389.95,241.80 407.47,241.80 425.00,241.80"/>
<line x1="88" y1="70" x2="110" y2="70" stroke="#2ca02c" stroke-width="2.4"/>
<text x="116" y="74" font-family="Arial, sans-serif" font-size="12">[GND Clamp]</text>
<line x1="88" y1="88" x2="110" y2="88" stroke="#9467bd" stroke-width="2.4"/>
<text x="116" y="92" font-family="Arial, sans-serif" font-size="12">[POWER Clamp]</text>
<text x="425.00" y="444.00" text-anchor="middle" font-family="Arial, sans-serif" font-size="12">Table voltage (V)</text>
<text transform="translate(18 226.00) rotate(-90)" text-anchor="middle" font-family="Arial, sans-serif" font-size="12">Current (A)</text>
<text x="420" y="42" font-family="Arial, sans-serif" font-size="11" fill="#555">solid=typ, dashed=min/max; dashed vertical=required sweep boundary (5.3.4/5.3.5)</text>
</svg>