<svg xmlns="http://www.w3.org/2000/svg" width="800" height="560" viewBox="0 0 800 560">
<rect width="100%" height="100%" fill="#ffffff"/>
<text x="78" y="25" font-family="Arial, sans-serif" font-size="16" font-weight="700">mpad_1_S7_1P2_I3C I-V Clamp Sweep Range</text>
<rect x="78" y="52" width="694" height="348" fill="#fbfbfb" stroke="#c8c8c8"/>
<line x1="78.00" y1="52" x2="78.00" y2="400" stroke="#ececec"/>
<text x="78.00" y="422" text-anchor="middle" font-family="Arial, sans-serif" font-size="11">-1.3</text>
<line x1="216.80" y1="52" x2="216.80" y2="400" stroke="#ececec"/>
<text x="216.80" y="422" text-anchor="middle" font-family="Arial, sans-serif" font-size="11">-0.792</text>
<line x1="355.60" y1="52" x2="355.60" y2="400" stroke="#ececec"/>
<text x="355.60" y="422" text-anchor="middle" font-family="Arial, sans-serif" font-size="11">-0.264</text>
<line x1="494.40" y1="52" x2="494.40" y2="400" stroke="#ececec"/>
<text x="494.40" y="422" text-anchor="middle" font-family="Arial, sans-serif" font-size="11">0.264</text>
<line x1="633.20" y1="52" x2="633.20" y2="400" stroke="#ececec"/>
<text x="633.20" y="422" text-anchor="middle" font-family="Arial, sans-serif" font-size="11">0.792</text>
<line x1="772.00" y1="52" x2="772.00" y2="400" stroke="#ececec"/>
<text x="772.00" y="422" text-anchor="middle" font-family="Arial, sans-serif" font-size="11">1.3</text>
<line x1="78" y1="400.00" x2="772" y2="400.00" stroke="#ececec"/>
<text x="70" y="404.00" text-anchor="end" font-family="Arial, sans-serif" font-size="11">-0.986</text>
<line x1="78" y1="330.40" x2="772" y2="330.40" stroke="#ececec"/>
<text x="70" y="334.40" text-anchor="end" font-family="Arial, sans-serif" font-size="11">-0.561</text>
<line x1="78" y1="260.80" x2="772" y2="260.80" stroke="#ececec"/>
<text x="70" y="264.80" text-anchor="end" font-family="Arial, sans-serif" font-size="11">-0.136</text>
<line x1="78" y1="191.20" x2="772" y2="191.20" stroke="#ececec"/>
<text x="70" y="195.20" text-anchor="end" font-family="Arial, sans-serif" font-size="11">0.289</text>
<line x1="78" y1="121.60" x2="772" y2="121.60" stroke="#ececec"/>
<text x="70" y="125.60" text-anchor="end" font-family="Arial, sans-serif" font-size="11">0.714</text>
<line x1="78" y1="52.00" x2="772" y2="52.00" stroke="#ececec"/>
<text x="70" y="56.00" text-anchor="end" font-family="Arial, sans-serif" font-size="11">1.1</text>
<line x1="425.00" y1="52" x2="425.00" y2="400" stroke="#777" stroke-dasharray="4 4"/>
<line x1="78" y1="238.54" x2="772" y2="238.54" stroke="#777" stroke-dasharray="4 4"/>
<line x1="109.55" y1="52" x2="109.55" y2="400" stroke="#555" stroke-dasharray="2 4"/>
<text x="113.55" y="66" font-family="Arial, sans-serif" font-size="11" fill="#555">-Vcc</text>
<line x1="740.45" y1="52" x2="740.45" y2="400" stroke="#555" stroke-dasharray="2 4"/>
<text x="744.45" y="66" font-family="Arial, sans-serif" font-size="11" fill="#555">Vcc</text>
<polyline fill="none" stroke="#2ca02c" stroke-width="1.2" opacity="0.55" stroke-dasharray="4 4" points="109.55,376.00 135.83,338.36 162.12,302.51 188.41,270.30 214.70,247.29 240.98,240.12 267.27,239.19 293.56,238.83 319.85,238.62 346.14,238.55 372.42,238.54 398.71,238.54 425.00,238.54 451.29,238.54 477.58,238.54 503.86,238.54 530.15,238.54 556.44,238.54 582.73,238.54 609.02,238.54 635.30,238.54 661.59,238.54 687.88,238.54 714.17,238.54 740.45,238.54"/>
<polyline fill="none" stroke="#2ca02c" stroke-width="1.2" opacity="0.55" stroke-dasharray="4 4" points="109.55,340.56 135.83,303.07 162.12,268.89 188.41,245.53 214.70,240.99 240.98,240.16 267.27,239.50 293.56,238.96 319.85,238.63 346.14,238.54 372.42,238.54 398.71,238.54 425.00,238.54 451.29,238.54 477.58,238.54 503.86,238.54 530.15,238.54 556.44,238.54 582.73,238.54 609.02,238.54 635.30,238.54 661.59,238.54 687.88,238.54 714.17,238.54 740.45,238.54"/>
<polyline fill="none" stroke="#2ca02c" stroke-width="2.0" opacity="1.0" points="109.55,357.73 135.83,320.21 162.12,285.00 188.41,255.60 214.70,241.67 240.98,239.84 267.27,239.29 293.56,238.87 319.85,238.62 346.14,238.55 372.42,238.54 398.71,238.54 425.00,238.54 451.29,238.54 477.58,238.54 503.86,238.54 530.15,238.54 556.44,238.54 582.73,238.54 609.02,238.54 635.30,238.54 661.59,238.54 687.88,238.54 714.17,238.54 740.45,238.54"/>
<polyline fill="none" stroke="#9467bd" stroke-width="1.2" opacity="0.55" stroke-dasharray="4 4" points="109.55,76.00 135.83,123.34 162.12,168.03 188.41,206.96 214.70,231.43 240.98,237.07 267.27,237.83 293.56,238.21 319.85,238.45 346.14,238.53 372.42,238.54 398.71,238.54 425.00,238.54"/>
<polyline fill="none" stroke="#9467bd" stroke-width="1.2" opacity="0.55" stroke-dasharray="4 4" points="109.55,118.55 135.83,165.59 162.12,207.53 188.41,232.57 214.70,236.09 240.98,236.89 267.27,237.56 293.56,238.11 319.85,238.45 346.14,238.54 372.42,238.54 398.71,238.54 425.00,238.54"/>
<polyline fill="none" stroke="#9467bd" stroke-width="2.0" opacity="1.0" points="109.55,97.87 135.83,145.03 162.12,188.68 188.41,223.02 214.70,235.79 240.98,237.19 267.27,237.75 293.56,238.19 319.85,238.46 346.14,238.53 372.42,238.54 398.71,238.54 425.00,238.54"/>
<line x1="88" y1="70" x2="110" y2="70" stroke="#2ca02c" stroke-width="2.4"/>
<text x="116" y="74" font-family="Arial, sans-serif" font-size="12">[GND Clamp]</text>
<line x1="88" y1="88" x2="110" y2="88" stroke="#9467bd" stroke-width="2.4"/>
<text x="116" y="92" font-family="Arial, sans-serif" font-size="12">[POWER Clamp]</text>
<text x="425.00" y="444.00" text-anchor="middle" font-family="Arial, sans-serif" font-size="12">Table voltage (V)</text>
<text transform="translate(18 226.00) rotate(-90)" text-anchor="middle" font-family="Arial, sans-serif" font-size="12">Current (A)</text>
<text x="420" y="42" font-family="Arial, sans-serif" font-size="11" fill="#555">solid=typ, dashed=min/max; dashed vertical=required sweep boundary (5.3.4/5.3.5)</text>
</svg>