<svg xmlns="http://www.w3.org/2000/svg" width="800" height="560" viewBox="0 0 800 560">
<rect width="100%" height="100%" fill="#ffffff"/>
<text x="78" y="25" font-family="Arial, sans-serif" font-size="16" font-weight="700">mpad_1_S7_1P8 I-V Combined Curves</text>
<rect x="78" y="52" width="694" height="348" fill="#fbfbfb" stroke="#c8c8c8"/>
<line x1="78.00" y1="52" x2="78.00" y2="400" stroke="#ececec"/>
<text x="78.00" y="422" text-anchor="middle" font-family="Arial, sans-serif" font-size="11">-1.9</text>
<line x1="216.80" y1="52" x2="216.80" y2="400" stroke="#ececec"/>
<text x="216.80" y="422" text-anchor="middle" font-family="Arial, sans-serif" font-size="11">-0.785</text>
<line x1="355.60" y1="52" x2="355.60" y2="400" stroke="#ececec"/>
<text x="355.60" y="422" text-anchor="middle" font-family="Arial, sans-serif" font-size="11">0.338</text>
<line x1="494.40" y1="52" x2="494.40" y2="400" stroke="#ececec"/>
<text x="494.40" y="422" text-anchor="middle" font-family="Arial, sans-serif" font-size="11">1.5</text>
<line x1="633.20" y1="52" x2="633.20" y2="400" stroke="#ececec"/>
<text x="633.20" y="422" text-anchor="middle" font-family="Arial, sans-serif" font-size="11">2.6</text>
<line x1="772.00" y1="52" x2="772.00" y2="400" stroke="#ececec"/>
<text x="772.00" y="422" text-anchor="middle" font-family="Arial, sans-serif" font-size="11">3.7</text>
<line x1="78" y1="400.00" x2="772" y2="400.00" stroke="#ececec"/>
<text x="70" y="404.00" text-anchor="end" font-family="Arial, sans-serif" font-size="11">-2.6</text>
<line x1="78" y1="330.40" x2="772" y2="330.40" stroke="#ececec"/>
<text x="70" y="334.40" text-anchor="end" font-family="Arial, sans-serif" font-size="11">-1.5</text>
<line x1="78" y1="260.80" x2="772" y2="260.80" stroke="#ececec"/>
<text x="70" y="264.80" text-anchor="end" font-family="Arial, sans-serif" font-size="11">-0.314</text>
<line x1="78" y1="191.20" x2="772" y2="191.20" stroke="#ececec"/>
<text x="70" y="195.20" text-anchor="end" font-family="Arial, sans-serif" font-size="11">0.834</text>
<line x1="78" y1="121.60" x2="772" y2="121.60" stroke="#ececec"/>
<text x="70" y="125.60" text-anchor="end" font-family="Arial, sans-serif" font-size="11">2</text>
<line x1="78" y1="52.00" x2="772" y2="52.00" stroke="#ececec"/>
<text x="70" y="56.00" text-anchor="end" font-family="Arial, sans-serif" font-size="11">3.1</text>
<line x1="313.78" y1="52" x2="313.78" y2="400" stroke="#777" stroke-dasharray="4 4"/>
<line x1="78" y1="241.76" x2="772" y2="241.76" stroke="#777" stroke-dasharray="4 4"/>
<line x1="91.35" y1="52" x2="91.35" y2="400" stroke="#555" stroke-dasharray="2 4"/>
<text x="95.35" y="66" font-family="Arial, sans-serif" font-size="11" fill="#555">-Vcc</text>
<line x1="536.22" y1="52" x2="536.22" y2="400" stroke="#555" stroke-dasharray="2 4"/>
<text x="540.22" y="66" font-family="Arial, sans-serif" font-size="11" fill="#555">Vcc</text>
<line x1="758.65" y1="52" x2="758.65" y2="400" stroke="#555" stroke-dasharray="2 4"/>
<text x="762.65" y="66" font-family="Arial, sans-serif" font-size="11" fill="#555">2Vcc</text>
<polyline fill="none" stroke="#0f766e" stroke-width="2.8" opacity="0.95" stroke-dasharray="6 3" points="91.35,376.00 103.70,360.96 116.06,345.99 128.42,331.13 140.78,316.34 153.13,301.77 165.49,287.43 177.85,273.53 190.21,260.47 202.56,249.55 214.92,244.36 227.28,243.63 239.64,243.34 251.99,243.08 264.35,242.81 276.71,242.55 289.07,242.29 301.42,242.02 313.78,241.76 326.14,241.50 338.50,241.25 350.85,240.99 363.21,240.74 375.57,240.48 387.93,240.23 400.28,239.99 412.64,239.75 425.00,239.51 437.36,239.28 449.72,239.06 462.07,238.85 474.43,238.65 486.79,238.45 499.15,238.28 511.50,238.11 523.86,237.96 536.22,237.82 548.58,237.70 560.93,237.60 573.29,237.50 585.65,237.45 598.01,237.47 610.36,237.55 622.72,237.67 635.08,237.82 647.44,237.98 659.79,238.16 672.15,238.34 684.51,238.54 696.87,238.73 709.22,238.97 721.58,239.22 733.94,239.46 746.30,239.64 758.65,239.82"/>
<polyline fill="none" stroke="#7c2d12" stroke-width="2.8" opacity="0.95" stroke-dasharray="6 3" points="91.35,76.00 103.70,95.10 116.06,114.14 128.42,132.99 140.78,151.67 153.13,170.16 165.49,188.26 177.85,205.74 190.21,221.92 202.56,234.66 214.92,239.42 227.28,239.98 239.64,240.25 251.99,240.51 264.35,240.76 276.71,241.02 289.07,241.27 301.42,241.52 313.78,241.76 326.14,242.01 338.50,242.26 350.85,242.50 363.21,242.74 375.57,242.98 387.93,243.22 400.28,243.46 412.64,243.69 425.00,243.92 437.36,244.14 449.72,244.36 462.07,244.58 474.43,244.79 486.79,244.99 499.15,245.19 511.50,245.39 523.86,245.57 536.22,245.75 548.58,245.92 560.93,246.07 573.29,246.22 585.65,246.33 598.01,246.37 610.36,246.34 622.72,246.26 635.08,246.15 647.44,246.01 659.79,245.86 672.15,245.69 684.51,245.50 696.87,245.30 709.22,245.10 721.58,244.86 733.94,244.61 746.30,244.37 758.65,244.13"/>
<circle cx="598.01" cy="237.47" r="6" fill="none" stroke="#b42318" stroke-width="2"/>
<line x1="593.01" y1="232.47" x2="603.01" y2="242.47" stroke="#b42318" stroke-width="1.6"/>
<line x1="593.01" y1="242.47" x2="603.01" y2="232.47" stroke="#b42318" stroke-width="1.6"/>
<circle cx="610.36" cy="237.55" r="6" fill="none" stroke="#b42318" stroke-width="2"/>
<line x1="605.36" y1="232.55" x2="615.36" y2="242.55" stroke="#b42318" stroke-width="1.6"/>
<line x1="605.36" y1="242.55" x2="615.36" y2="232.55" stroke="#b42318" stroke-width="1.6"/>
<circle cx="622.72" cy="237.67" r="6" fill="none" stroke="#b42318" stroke-width="2"/>
<line x1="617.72" y1="232.67" x2="627.72" y2="242.67" stroke="#b42318" stroke-width="1.6"/>
<line x1="617.72" y1="242.67" x2="627.72" y2="232.67" stroke="#b42318" stroke-width="1.6"/>
<circle cx="635.08" cy="237.82" r="6" fill="none" stroke="#b42318" stroke-width="2"/>
<line x1="630.08" y1="232.82" x2="640.08" y2="242.82" stroke="#b42318" stroke-width="1.6"/>
<line x1="630.08" y1="242.82" x2="640.08" y2="232.82" stroke="#b42318" stroke-width="1.6"/>
<circle cx="647.44" cy="237.98" r="6" fill="none" stroke="#b42318" stroke-width="2"/>
<line x1="642.44" y1="232.98" x2="652.44" y2="242.98" stroke="#b42318" stroke-width="1.6"/>
<line x1="642.44" y1="242.98" x2="652.44" y2="232.98" stroke="#b42318" stroke-width="1.6"/>
<circle cx="659.79" cy="238.16" r="6" fill="none" stroke="#b42318" stroke-width="2"/>
<line x1="654.79" y1="233.16" x2="664.79" y2="243.16" stroke="#b42318" stroke-width="1.6"/>
<line x1="654.79" y1="243.16" x2="664.79" y2="233.16" stroke="#b42318" stroke-width="1.6"/>
<circle cx="672.15" cy="238.34" r="6" fill="none" stroke="#b42318" stroke-width="2"/>
<line x1="667.15" y1="233.34" x2="677.15" y2="243.34" stroke="#b42318" stroke-width="1.6"/>
<line x1="667.15" y1="243.34" x2="677.15" y2="233.34" stroke="#b42318" stroke-width="1.6"/>
<circle cx="684.51" cy="238.54" r="6" fill="none" stroke="#b42318" stroke-width="2"/>
<line x1="679.51" y1="233.54" x2="689.51" y2="243.54" stroke="#b42318" stroke-width="1.6"/>
<line x1="679.51" y1="243.54" x2="689.51" y2="233.54" stroke="#b42318" stroke-width="1.6"/>
<circle cx="696.87" cy="238.73" r="6" fill="none" stroke="#b42318" stroke-width="2"/>
<line x1="691.87" y1="233.73" x2="701.87" y2="243.73" stroke="#b42318" stroke-width="1.6"/>
<line x1="691.87" y1="243.73" x2="701.87" y2="233.73" stroke="#b42318" stroke-width="1.6"/>
<circle cx="709.22" cy="238.97" r="6" fill="none" stroke="#b42318" stroke-width="2"/>
<line x1="704.22" y1="233.97" x2="714.22" y2="243.97" stroke="#b42318" stroke-width="1.6"/>
<line x1="704.22" y1="243.97" x2="714.22" y2="233.97" stroke="#b42318" stroke-width="1.6"/>
<circle cx="610.36" cy="246.34" r="6" fill="none" stroke="#b42318" stroke-width="2"/>
<line x1="605.36" y1="241.34" x2="615.36" y2="251.34" stroke="#b42318" stroke-width="1.6"/>
<line x1="605.36" y1="251.34" x2="615.36" y2="241.34" stroke="#b42318" stroke-width="1.6"/>
<circle cx="622.72" cy="246.26" r="6" fill="none" stroke="#b42318" stroke-width="2"/>
<line x1="617.72" y1="241.26" x2="627.72" y2="251.26" stroke="#b42318" stroke-width="1.6"/>
<line x1="617.72" y1="251.26" x2="627.72" y2="241.26" stroke="#b42318" stroke-width="1.6"/>
<circle cx="635.08" cy="246.15" r="6" fill="none" stroke="#b42318" stroke-width="2"/>
<line x1="630.08" y1="241.15" x2="640.08" y2="251.15" stroke="#b42318" stroke-width="1.6"/>
<line x1="630.08" y1="251.15" x2="640.08" y2="241.15" stroke="#b42318" stroke-width="1.6"/>
<circle cx="647.44" cy="246.01" r="6" fill="none" stroke="#b42318" stroke-width="2"/>
<line x1="642.44" y1="241.01" x2="652.44" y2="251.01" stroke="#b42318" stroke-width="1.6"/>
<line x1="642.44" y1="251.01" x2="652.44" y2="241.01" stroke="#b42318" stroke-width="1.6"/>
<circle cx="659.79" cy="245.86" r="6" fill="none" stroke="#b42318" stroke-width="2"/>
<line x1="654.79" y1="240.86" x2="664.79" y2="250.86" stroke="#b42318" stroke-width="1.6"/>
<line x1="654.79" y1="250.86" x2="664.79" y2="240.86" stroke="#b42318" stroke-width="1.6"/>
<circle cx="672.15" cy="245.69" r="6" fill="none" stroke="#b42318" stroke-width="2"/>
<line x1="667.15" y1="240.69" x2="677.15" y2="250.69" stroke="#b42318" stroke-width="1.6"/>
<line x1="667.15" y1="250.69" x2="677.15" y2="240.69" stroke="#b42318" stroke-width="1.6"/>
<circle cx="684.51" cy="245.50" r="6" fill="none" stroke="#b42318" stroke-width="2"/>
<line x1="679.51" y1="240.50" x2="689.51" y2="250.50" stroke="#b42318" stroke-width="1.6"/>
<line x1="679.51" y1="250.50" x2="689.51" y2="240.50" stroke="#b42318" stroke-width="1.6"/>
<circle cx="696.87" cy="245.30" r="6" fill="none" stroke="#b42318" stroke-width="2"/>
<line x1="691.87" y1="240.30" x2="701.87" y2="250.30" stroke="#b42318" stroke-width="1.6"/>
<line x1="691.87" y1="250.30" x2="701.87" y2="240.30" stroke="#b42318" stroke-width="1.6"/>
<circle cx="709.22" cy="245.10" r="6" fill="none" stroke="#b42318" stroke-width="2"/>
<line x1="704.22" y1="240.10" x2="714.22" y2="250.10" stroke="#b42318" stroke-width="1.6"/>
<line x1="704.22" y1="250.10" x2="714.22" y2="240.10" stroke="#b42318" stroke-width="1.6"/>
<circle cx="721.58" cy="244.86" r="6" fill="none" stroke="#b42318" stroke-width="2"/>
<line x1="716.58" y1="239.86" x2="726.58" y2="249.86" stroke="#b42318" stroke-width="1.6"/>
<line x1="716.58" y1="249.86" x2="726.58" y2="239.86" stroke="#b42318" stroke-width="1.6"/>
<text x="420" y="30" font-family="Arial, sans-serif" font-size="11" fill="#b42318">x = 5.3.7 monotonicity violation</text>
<line x1="88" y1="70" x2="110" y2="70" stroke="#0f766e" stroke-width="2.8" stroke-dasharray="6 3"/>
<text x="116" y="74" font-family="Arial, sans-serif" font-size="12">[Pulldown]+[GND Clamp]</text>
<line x1="88" y1="88" x2="110" y2="88" stroke="#7c2d12" stroke-width="2.8" stroke-dasharray="6 3"/>
<text x="116" y="92" font-family="Arial, sans-serif" font-size="12">[Pullup]+[POWER Clamp]</text>
<rect x="78" y="464" width="694" height="92" fill="#fffdf7" stroke="#d8c6a1" rx="4"/>
<text x="88" y="481" font-family="Arial, sans-serif" font-size="11" font-weight="700" fill="#4b3b21">Findings needing attention</text>
<rect x="88" y="488" width="7" height="7" fill="#b42318"/>
<text x="102" y="495" font-family="Arial, sans-serif" font-size="11" fill="#333">FAIL 5.3.7: [Pulldown] + [GND Clamp] combined curve non-monotonic (... | V=2.3: combined current decreases from 71.2mA to 70...</text>
<rect x="88" y="504" width="7" height="7" fill="#b42318"/>
<text x="102" y="511" font-family="Arial, sans-serif" font-size="11" fill="#333">FAIL 5.3.7: [Pullup] + [POWER Clamp] combined curve non-monotonic (... | V=2.4: combined current increases from -75.93mA to...</text>
<rect x="88" y="520" width="7" height="7" fill="#b54708"/>
<text x="102" y="527" font-family="Arial, sans-serif" font-size="11" fill="#333">WARN 5.3.6: I-V stair-step evidence needs review | [GND Clamp]: roughness=0.114 &gt; 0.1</text>
<text x="102" y="543" font-family="Arial, sans-serif" font-size="11" fill="#555">1 more finding(s) in the report table</text>
<text x="425.00" y="444.00" text-anchor="middle" font-family="Arial, sans-serif" font-size="12">Table voltage (V)</text>
<text transform="translate(18 226.00) rotate(-90)" text-anchor="middle" font-family="Arial, sans-serif" font-size="12">Current (A)</text>
<text x="420" y="42" font-family="Arial, sans-serif" font-size="11" fill="#555">thick dashed=combined typ curves</text>
</svg>