<svg xmlns="http://www.w3.org/2000/svg" width="800" height="560" viewBox="0 0 800 560">
<rect width="100%" height="100%" fill="#ffffff"/>
<text x="78" y="25" font-family="Arial, sans-serif" font-size="16" font-weight="700">mpad_1_S7_1P8_I3C I-V Combined Curves</text>
<rect x="78" y="52" width="694" height="348" fill="#fbfbfb" stroke="#c8c8c8"/>
<line x1="78.00" y1="52" x2="78.00" y2="400" stroke="#ececec"/>
<text x="78.00" y="422" text-anchor="middle" font-family="Arial, sans-serif" font-size="11">-1.9</text>
<line x1="216.80" y1="52" x2="216.80" y2="400" stroke="#ececec"/>
<text x="216.80" y="422" text-anchor="middle" font-family="Arial, sans-serif" font-size="11">-0.785</text>
<line x1="355.60" y1="52" x2="355.60" y2="400" stroke="#ececec"/>
<text x="355.60" y="422" text-anchor="middle" font-family="Arial, sans-serif" font-size="11">0.338</text>
<line x1="494.40" y1="52" x2="494.40" y2="400" stroke="#ececec"/>
<text x="494.40" y="422" text-anchor="middle" font-family="Arial, sans-serif" font-size="11">1.5</text>
<line x1="633.20" y1="52" x2="633.20" y2="400" stroke="#ececec"/>
<text x="633.20" y="422" text-anchor="middle" font-family="Arial, sans-serif" font-size="11">2.6</text>
<line x1="772.00" y1="52" x2="772.00" y2="400" stroke="#ececec"/>
<text x="772.00" y="422" text-anchor="middle" font-family="Arial, sans-serif" font-size="11">3.7</text>
<line x1="78" y1="400.00" x2="772" y2="400.00" stroke="#ececec"/>
<text x="70" y="404.00" text-anchor="end" font-family="Arial, sans-serif" font-size="11">-2.6</text>
<line x1="78" y1="330.40" x2="772" y2="330.40" stroke="#ececec"/>
<text x="70" y="334.40" text-anchor="end" font-family="Arial, sans-serif" font-size="11">-1.5</text>
<line x1="78" y1="260.80" x2="772" y2="260.80" stroke="#ececec"/>
<text x="70" y="264.80" text-anchor="end" font-family="Arial, sans-serif" font-size="11">-0.313</text>
<line x1="78" y1="191.20" x2="772" y2="191.20" stroke="#ececec"/>
<text x="70" y="195.20" text-anchor="end" font-family="Arial, sans-serif" font-size="11">0.834</text>
<line x1="78" y1="121.60" x2="772" y2="121.60" stroke="#ececec"/>
<text x="70" y="125.60" text-anchor="end" font-family="Arial, sans-serif" font-size="11">2</text>
<line x1="78" y1="52.00" x2="772" y2="52.00" stroke="#ececec"/>
<text x="70" y="56.00" text-anchor="end" font-family="Arial, sans-serif" font-size="11">3.1</text>
<line x1="313.78" y1="52" x2="313.78" y2="400" stroke="#777" stroke-dasharray="4 4"/>
<line x1="78" y1="241.82" x2="772" y2="241.82" stroke="#777" stroke-dasharray="4 4"/>
<line x1="91.35" y1="52" x2="91.35" y2="400" stroke="#555" stroke-dasharray="2 4"/>
<text x="95.35" y="66" font-family="Arial, sans-serif" font-size="11" fill="#555">-Vcc</text>
<line x1="536.22" y1="52" x2="536.22" y2="400" stroke="#555" stroke-dasharray="2 4"/>
<text x="540.22" y="66" font-family="Arial, sans-serif" font-size="11" fill="#555">Vcc</text>
<line x1="758.65" y1="52" x2="758.65" y2="400" stroke="#555" stroke-dasharray="2 4"/>
<text x="762.65" y="66" font-family="Arial, sans-serif" font-size="11" fill="#555">2Vcc</text>
<polyline fill="none" stroke="#0f766e" stroke-width="2.8" opacity="0.95" stroke-dasharray="6 3" points="91.35,376.00 103.70,360.94 116.06,345.88 128.42,331.01 140.78,316.19 153.13,301.56 165.49,287.20 177.85,273.27 190.21,260.19 202.56,249.26 214.92,244.06 227.28,243.34 239.64,243.07 251.99,242.83 264.35,242.60 276.71,242.40 289.07,242.20 301.42,242.01 313.78,241.82 326.14,241.62 338.50,241.43 350.85,241.24 363.21,241.05 375.57,240.86 387.93,240.68 400.28,240.49 412.64,240.31 425.00,240.13 437.36,239.96 449.72,239.79 462.07,239.62 474.43,239.46 486.79,239.31 499.15,239.17 511.50,239.03 523.86,238.91 536.22,238.79 548.58,238.68 560.93,238.59 573.29,238.50 585.65,238.43 598.01,238.43 610.36,238.47 622.72,238.53 635.08,238.62 647.44,238.72 659.79,238.82 672.15,238.93 684.51,239.04 696.87,239.15 709.22,239.33 721.58,239.45 733.94,239.63 746.30,239.75 758.65,239.87"/>
<polyline fill="none" stroke="#7c2d12" stroke-width="2.8" opacity="0.95" stroke-dasharray="6 3" points="91.35,76.00 103.70,95.19 116.06,114.19 128.42,133.13 140.78,151.90 153.13,170.41 165.49,188.54 177.85,206.04 190.21,222.25 202.56,235.02 214.92,239.78 227.28,240.34 239.64,240.60 251.99,240.83 264.35,241.05 276.71,241.25 289.07,241.44 301.42,241.63 313.78,241.82 326.14,242.00 338.50,242.19 350.85,242.38 363.21,242.56 375.57,242.75 387.93,242.93 400.28,243.11 412.64,243.29 425.00,243.47 437.36,243.65 449.72,243.82 462.07,244.00 474.43,244.17 486.79,244.33 499.15,244.50 511.50,244.66 523.86,244.82 536.22,244.97 548.58,245.12 560.93,245.26 573.29,245.40 585.65,245.51 598.01,245.57 610.36,245.58 622.72,245.56 635.08,245.52 647.44,245.46 659.79,245.38 672.15,245.30 684.51,245.20 696.87,245.06 709.22,244.91 721.58,244.79 733.94,244.67 746.30,244.49 758.65,244.31"/>
<circle cx="610.36" cy="238.47" r="6" fill="none" stroke="#b42318" stroke-width="2"/>
<line x1="605.36" y1="233.47" x2="615.36" y2="243.47" stroke="#b42318" stroke-width="1.6"/>
<line x1="605.36" y1="243.47" x2="615.36" y2="233.47" stroke="#b42318" stroke-width="1.6"/>
<circle cx="622.72" cy="238.53" r="6" fill="none" stroke="#b42318" stroke-width="2"/>
<line x1="617.72" y1="233.53" x2="627.72" y2="243.53" stroke="#b42318" stroke-width="1.6"/>
<line x1="617.72" y1="243.53" x2="627.72" y2="233.53" stroke="#b42318" stroke-width="1.6"/>
<circle cx="635.08" cy="238.62" r="6" fill="none" stroke="#b42318" stroke-width="2"/>
<line x1="630.08" y1="233.62" x2="640.08" y2="243.62" stroke="#b42318" stroke-width="1.6"/>
<line x1="630.08" y1="243.62" x2="640.08" y2="233.62" stroke="#b42318" stroke-width="1.6"/>
<circle cx="647.44" cy="238.72" r="6" fill="none" stroke="#b42318" stroke-width="2"/>
<line x1="642.44" y1="233.72" x2="652.44" y2="243.72" stroke="#b42318" stroke-width="1.6"/>
<line x1="642.44" y1="243.72" x2="652.44" y2="233.72" stroke="#b42318" stroke-width="1.6"/>
<circle cx="659.79" cy="238.82" r="6" fill="none" stroke="#b42318" stroke-width="2"/>
<line x1="654.79" y1="233.82" x2="664.79" y2="243.82" stroke="#b42318" stroke-width="1.6"/>
<line x1="654.79" y1="243.82" x2="664.79" y2="233.82" stroke="#b42318" stroke-width="1.6"/>
<circle cx="672.15" cy="238.93" r="6" fill="none" stroke="#b42318" stroke-width="2"/>
<line x1="667.15" y1="233.93" x2="677.15" y2="243.93" stroke="#b42318" stroke-width="1.6"/>
<line x1="667.15" y1="243.93" x2="677.15" y2="233.93" stroke="#b42318" stroke-width="1.6"/>
<circle cx="684.51" cy="239.04" r="6" fill="none" stroke="#b42318" stroke-width="2"/>
<line x1="679.51" y1="234.04" x2="689.51" y2="244.04" stroke="#b42318" stroke-width="1.6"/>
<line x1="679.51" y1="244.04" x2="689.51" y2="234.04" stroke="#b42318" stroke-width="1.6"/>
<circle cx="696.87" cy="239.15" r="6" fill="none" stroke="#b42318" stroke-width="2"/>
<line x1="691.87" y1="234.15" x2="701.87" y2="244.15" stroke="#b42318" stroke-width="1.6"/>
<line x1="691.87" y1="244.15" x2="701.87" y2="234.15" stroke="#b42318" stroke-width="1.6"/>
<circle cx="709.22" cy="239.33" r="6" fill="none" stroke="#b42318" stroke-width="2"/>
<line x1="704.22" y1="234.33" x2="714.22" y2="244.33" stroke="#b42318" stroke-width="1.6"/>
<line x1="704.22" y1="244.33" x2="714.22" y2="234.33" stroke="#b42318" stroke-width="1.6"/>
<circle cx="721.58" cy="239.45" r="6" fill="none" stroke="#b42318" stroke-width="2"/>
<line x1="716.58" y1="234.45" x2="726.58" y2="244.45" stroke="#b42318" stroke-width="1.6"/>
<line x1="716.58" y1="244.45" x2="726.58" y2="234.45" stroke="#b42318" stroke-width="1.6"/>
<circle cx="622.72" cy="245.56" r="6" fill="none" stroke="#b42318" stroke-width="2"/>
<line x1="617.72" y1="240.56" x2="627.72" y2="250.56" stroke="#b42318" stroke-width="1.6"/>
<line x1="617.72" y1="250.56" x2="627.72" y2="240.56" stroke="#b42318" stroke-width="1.6"/>
<circle cx="635.08" cy="245.52" r="6" fill="none" stroke="#b42318" stroke-width="2"/>
<line x1="630.08" y1="240.52" x2="640.08" y2="250.52" stroke="#b42318" stroke-width="1.6"/>
<line x1="630.08" y1="250.52" x2="640.08" y2="240.52" stroke="#b42318" stroke-width="1.6"/>
<circle cx="647.44" cy="245.46" r="6" fill="none" stroke="#b42318" stroke-width="2"/>
<line x1="642.44" y1="240.46" x2="652.44" y2="250.46" stroke="#b42318" stroke-width="1.6"/>
<line x1="642.44" y1="250.46" x2="652.44" y2="240.46" stroke="#b42318" stroke-width="1.6"/>
<circle cx="659.79" cy="245.38" r="6" fill="none" stroke="#b42318" stroke-width="2"/>
<line x1="654.79" y1="240.38" x2="664.79" y2="250.38" stroke="#b42318" stroke-width="1.6"/>
<line x1="654.79" y1="250.38" x2="664.79" y2="240.38" stroke="#b42318" stroke-width="1.6"/>
<circle cx="672.15" cy="245.30" r="6" fill="none" stroke="#b42318" stroke-width="2"/>
<line x1="667.15" y1="240.30" x2="677.15" y2="250.30" stroke="#b42318" stroke-width="1.6"/>
<line x1="667.15" y1="250.30" x2="677.15" y2="240.30" stroke="#b42318" stroke-width="1.6"/>
<circle cx="684.51" cy="245.20" r="6" fill="none" stroke="#b42318" stroke-width="2"/>
<line x1="679.51" y1="240.20" x2="689.51" y2="250.20" stroke="#b42318" stroke-width="1.6"/>
<line x1="679.51" y1="250.20" x2="689.51" y2="240.20" stroke="#b42318" stroke-width="1.6"/>
<circle cx="696.87" cy="245.06" r="6" fill="none" stroke="#b42318" stroke-width="2"/>
<line x1="691.87" y1="240.06" x2="701.87" y2="250.06" stroke="#b42318" stroke-width="1.6"/>
<line x1="691.87" y1="250.06" x2="701.87" y2="240.06" stroke="#b42318" stroke-width="1.6"/>
<circle cx="709.22" cy="244.91" r="6" fill="none" stroke="#b42318" stroke-width="2"/>
<line x1="704.22" y1="239.91" x2="714.22" y2="249.91" stroke="#b42318" stroke-width="1.6"/>
<line x1="704.22" y1="249.91" x2="714.22" y2="239.91" stroke="#b42318" stroke-width="1.6"/>
<circle cx="721.58" cy="244.79" r="6" fill="none" stroke="#b42318" stroke-width="2"/>
<line x1="716.58" y1="239.79" x2="726.58" y2="249.79" stroke="#b42318" stroke-width="1.6"/>
<line x1="716.58" y1="249.79" x2="726.58" y2="239.79" stroke="#b42318" stroke-width="1.6"/>
<circle cx="733.94" cy="244.67" r="6" fill="none" stroke="#b42318" stroke-width="2"/>
<line x1="728.94" y1="239.67" x2="738.94" y2="249.67" stroke="#b42318" stroke-width="1.6"/>
<line x1="728.94" y1="249.67" x2="738.94" y2="239.67" stroke="#b42318" stroke-width="1.6"/>
<text x="420" y="30" font-family="Arial, sans-serif" font-size="11" fill="#b42318">x = 5.3.7 monotonicity violation</text>
<line x1="88" y1="70" x2="110" y2="70" stroke="#0f766e" stroke-width="2.8" stroke-dasharray="6 3"/>
<text x="116" y="74" font-family="Arial, sans-serif" font-size="12">[Pulldown]+[GND Clamp]</text>
<line x1="88" y1="88" x2="110" y2="88" stroke="#7c2d12" stroke-width="2.8" stroke-dasharray="6 3"/>
<text x="116" y="92" font-family="Arial, sans-serif" font-size="12">[Pullup]+[POWER Clamp]</text>
<rect x="78" y="464" width="694" height="92" fill="#fffdf7" stroke="#d8c6a1" rx="4"/>
<text x="88" y="481" font-family="Arial, sans-serif" font-size="11" font-weight="700" fill="#4b3b21">Findings needing attention</text>
<rect x="88" y="488" width="7" height="7" fill="#b42318"/>
<text x="102" y="495" font-family="Arial, sans-serif" font-size="11" fill="#333">FAIL 5.3.7: [Pulldown] + [GND Clamp] combined curve non-monotonic (... | V=2.4: combined current decreases from 55.84mA to 5...</text>
<rect x="88" y="504" width="7" height="7" fill="#b42318"/>
<text x="102" y="511" font-family="Arial, sans-serif" font-size="11" fill="#333">FAIL 5.3.7: [Pullup] + [POWER Clamp] combined curve non-monotonic (... | V=2.5: combined current increases from -62.02mA to...</text>
<rect x="88" y="520" width="7" height="7" fill="#b54708"/>
<text x="102" y="527" font-family="Arial, sans-serif" font-size="11" fill="#333">WARN 5.3.6: I-V stair-step evidence needs review | [GND Clamp]: roughness=0.114 &gt; 0.1</text>
<text x="102" y="543" font-family="Arial, sans-serif" font-size="11" fill="#555">1 more finding(s) in the report table</text>
<text x="425.00" y="444.00" text-anchor="middle" font-family="Arial, sans-serif" font-size="12">Table voltage (V)</text>
<text transform="translate(18 226.00) rotate(-90)" text-anchor="middle" font-family="Arial, sans-serif" font-size="12">Current (A)</text>
<text x="420" y="42" font-family="Arial, sans-serif" font-size="11" fill="#555">thick dashed=combined typ curves</text>
</svg>