<svg xmlns="http://www.w3.org/2000/svg" width="800" height="450" viewBox="0 0 800 450">
<rect width="100%" height="100%" fill="#ffffff"/>
<text x="78" y="25" font-family="Arial, sans-serif" font-size="16" font-weight="700">mpad_1_S7_1P8 V-T Waveforms</text>
<rect x="78" y="54" width="694" height="230" fill="#fbfbfb" stroke="#c8c8c8"/>
<text transform="translate(18 169.00) rotate(-90)" text-anchor="middle" font-family="Arial, sans-serif" font-size="12">Voltage (V)</text>
<line x1="78.00" y1="54" x2="78.00" y2="284" stroke="#ececec"/>
<text x="78.00" y="302" text-anchor="middle" font-family="Arial, sans-serif" font-size="10">-2.4n</text>
<line x1="216.80" y1="54" x2="216.80" y2="284" stroke="#ececec"/>
<text x="216.80" y="302" text-anchor="middle" font-family="Arial, sans-serif" font-size="10">22.6n</text>
<line x1="355.60" y1="54" x2="355.60" y2="284" stroke="#ececec"/>
<text x="355.60" y="302" text-anchor="middle" font-family="Arial, sans-serif" font-size="10">47.5n</text>
<line x1="494.40" y1="54" x2="494.40" y2="284" stroke="#ececec"/>
<text x="494.40" y="302" text-anchor="middle" font-family="Arial, sans-serif" font-size="10">72.5n</text>
<line x1="633.20" y1="54" x2="633.20" y2="284" stroke="#ececec"/>
<text x="633.20" y="302" text-anchor="middle" font-family="Arial, sans-serif" font-size="10">97.4n</text>
<line x1="772.00" y1="54" x2="772.00" y2="284" stroke="#ececec"/>
<text x="772.00" y="302" text-anchor="middle" font-family="Arial, sans-serif" font-size="10">122n</text>
<line x1="78" y1="284.00" x2="772" y2="284.00" stroke="#ececec"/>
<text x="70" y="288.00" text-anchor="end" font-family="Arial, sans-serif" font-size="10">-0.151</text>
<line x1="78" y1="226.50" x2="772" y2="226.50" stroke="#ececec"/>
<text x="70" y="230.50" text-anchor="end" font-family="Arial, sans-serif" font-size="10">0.375</text>
<line x1="78" y1="169.00" x2="772" y2="169.00" stroke="#ececec"/>
<text x="70" y="173.00" text-anchor="end" font-family="Arial, sans-serif" font-size="10">0.902</text>
<line x1="78" y1="111.50" x2="772" y2="111.50" stroke="#ececec"/>
<text x="70" y="115.50" text-anchor="end" font-family="Arial, sans-serif" font-size="10">1.4</text>
<line x1="78" y1="54.00" x2="772" y2="54.00" stroke="#ececec"/>
<text x="70" y="58.00" text-anchor="end" font-family="Arial, sans-serif" font-size="10">2</text>
<line x1="78" y1="267.46" x2="772" y2="267.46" stroke="#1f77b4" opacity="0.18" stroke-dasharray="3 4"/>
<polyline fill="none" stroke="#1f77b4" stroke-width="2.0" points="91.35,267.46 94.02,267.46 96.69,267.50 100.03,268.14 102.70,268.02 105.37,267.12 108.05,266.25 110.72,265.39 113.39,264.56 116.73,263.55 119.40,262.76 122.07,262.00 124.74,261.25 127.42,260.53 130.76,259.63 133.43,258.96 136.10,258.29 138.77,257.63 141.44,256.97 144.12,256.35 147.46,255.59 150.13,255.01 152.80,254.43 155.47,253.87 158.14,253.32 160.82,252.79 164.16,252.14 166.83,251.64 169.50,251.15 172.17,250.68 174.84,250.20 178.18,249.63 180.85,249.20 183.53,248.76 186.20,248.35 188.87,247.94 191.54,247.54 194.88,247.06 197.55,246.68 200.23,246.32 202.90,245.95 205.57,245.61 208.91,245.19 211.58,244.85 214.25,244.54 216.93,244.22 219.60,243.91 222.27,243.63 225.61,243.27 228.28,242.99 230.95,242.70 233.63,242.43 236.30,242.17 239.64,241.85 242.31,241.61 244.98,241.37 247.65,240.74 250.32,239.75 253.00,238.80 256.34,237.66 259.01,236.77 261.68,235.90 264.35,235.07 267.02,234.25 270.36,233.27 273.04,232.53 275.71,231.80 278.38,231.05 281.05,230.33 283.72,229.69 287.06,228.88 289.74,228.24 292.41,227.59 295.08,227.02 297.75,226.48 300.42,225.94 303.76,225.26 306.43,224.72 309.11,224.18 311.78,223.63 314.45,223.16 317.79,222.58 320.46,222.13 323.13,221.70 325.81,221.28 328.48,216.97 331.15,211.25 334.49,204.61 337.16,199.54 339.83,194.74 342.51,190.33 345.18,185.92 348.52,181.21 351.19,177.60 353.86,174.00 356.53,170.41 359.20,167.61 361.88,164.88 365.22,161.46 367.89,158.72 370.56,156.65 373.23,154.91 375.90,153.05 379.24,150.87 381.92,149.01 384.59,147.26 387.26,145.41 389.93,143.66 392.60,142.13 395.94,140.82 398.62,139.84 401.29,138.86 403.96,137.77 406.63,136.78 409.97,135.47 412.64,134.82 415.31,134.27 417.99,133.73 420.66,133.18 423.33,132.53 426.67,131.87 429.34,131.22 432.01,130.67 434.69,130.12 437.36,129.91 440.03,129.58 443.37,129.14 446.04,128.92 448.71,128.60 451.38,128.27 454.06,127.94 457.40,127.61 460.07,127.50 462.74,127.29 465.41,127.18 468.08,127.07 470.76,126.85 474.10,126.74 476.77,126.52 479.44,126.41 482.11,126.30 484.78,126.09 488.12,125.98 490.80,125.98 493.47,125.87 496.14,125.76 498.81,125.76 501.48,125.65 504.82,125.54 507.49,125.54 510.17,125.43 512.84,125.43 515.51,125.32 518.85,125.32 521.52,125.21 524.19,125.21 526.87,125.21 529.54,125.21 532.21,125.10 535.55,125.10 538.22,125.10 540.89,125.10 543.57,125.10 546.24,124.99 549.58,124.99 552.25,124.99 554.92,124.99 557.59,124.99 560.26,124.99 562.94,124.88 566.28,124.88 568.95,124.88 571.62,124.88 574.29,124.56 576.96,102.61 579.64,87.00 582.98,79.36 585.65,77.18 588.32,76.30 590.99,75.87 593.66,75.76 597.00,75.65 599.68,75.65 602.35,75.65 605.02,75.65 607.69,75.65 610.36,75.65 613.70,75.65 616.37,75.65 619.05,75.65 621.72,75.65 624.39,75.65 627.73,75.65 630.40,75.65 633.07,75.65 635.75,75.65 638.42,75.65 641.09,75.65 644.43,75.65 647.10,75.65 649.66,75.65 652.44,75.65 655.22,75.65 658.56,75.65 661.34,75.65 663.56,75.65 666.34,75.65 669.12,75.65 671.90,75.65 675.24,75.65 678.02,75.65 680.25,75.65 683.03,75.65 685.81,75.65 689.14,75.65 691.92,75.65 694.70,75.65 696.93,75.65 699.71,75.65 702.49,75.65 705.83,75.65 708.61,75.65 711.39,75.65 714.17,75.65 716.39,75.65 719.17,75.65 722.51,75.65 725.29,75.65 728.07,75.65 730.85,75.65 733.07,75.65 736.41,75.65 739.19,75.65 741.97,75.65 744.75,75.65 747.53,75.65 749.76,75.65 753.09,75.65 755.87,75.65 758.65,75.65"/>
<line x1="78" y1="70.95" x2="772" y2="70.95" stroke="#d62728" opacity="0.18" stroke-dasharray="3 4"/>
<polyline fill="none" stroke="#d62728" stroke-width="2.0" points="91.35,262.98 94.02,262.98 96.69,263.02 100.03,261.59 102.70,257.60 105.37,252.94 108.05,248.40 110.72,243.97 113.39,239.67 116.73,234.44 119.40,230.33 122.07,226.38 124.74,222.48 127.42,218.75 130.76,214.08 133.43,210.59 136.10,207.16 138.77,203.72 141.44,200.28 144.12,197.07 147.46,193.15 150.13,190.09 152.80,187.11 155.47,184.21 158.14,181.38 160.82,178.62 164.16,175.27 166.83,172.67 169.50,170.15 172.17,167.68 174.84,165.27 178.18,162.33 180.85,160.05 183.53,157.85 186.20,155.67 188.87,153.49 191.54,151.52 194.88,149.01 197.55,147.05 200.23,145.08 202.90,143.22 205.57,141.48 208.91,139.29 211.58,137.55 214.25,135.91 216.93,134.27 219.60,132.74 222.27,131.22 225.61,129.36 228.28,127.83 230.95,126.41 233.63,124.99 236.30,123.68 239.64,122.05 242.31,120.74 244.98,119.53 247.65,118.22 250.32,116.81 253.00,115.50 256.34,113.86 259.01,112.66 261.68,111.35 264.35,110.15 267.02,109.05 270.36,107.64 273.04,106.54 275.71,105.56 278.38,104.58 281.05,103.60 283.72,102.61 287.06,101.41 289.74,100.54 292.41,99.67 295.08,98.90 297.75,98.03 300.42,97.15 303.76,96.28 306.43,95.52 309.11,94.86 311.78,94.10 314.45,93.44 317.79,92.57 320.46,91.91 323.13,91.26 325.81,90.71 328.48,89.62 331.15,88.31 334.49,86.67 337.16,85.47 339.83,84.38 342.51,83.51 345.18,82.53 348.52,81.43 351.19,80.67 353.86,80.01 356.53,79.25 359.20,78.70 361.88,78.16 365.22,77.50 367.89,76.96 370.56,76.52 373.23,76.08 375.90,75.76 379.24,75.32 381.92,74.99 384.59,74.67 387.26,74.34 389.93,74.12 392.60,73.79 395.94,73.57 398.62,73.46 401.29,73.25 403.96,73.14 406.63,72.92 409.97,72.70 412.64,72.59 415.31,72.37 417.99,72.26 420.66,72.26 423.33,72.15 426.67,72.05 429.34,71.94 432.01,71.94 434.69,71.83 437.36,71.72 440.03,71.72 443.37,71.61 446.04,71.50 448.71,71.50 451.38,71.50 454.06,71.39 457.40,71.39 460.07,71.39 462.74,71.28 465.41,71.28 468.08,71.28 470.76,71.28 474.10,71.17 476.77,71.17 479.44,71.17 482.11,71.17 484.78,71.17 488.12,71.06 490.80,71.06 493.47,71.06 496.14,71.06 498.81,71.06 501.48,71.06 504.82,71.06 507.49,71.06 510.17,71.06 512.84,71.06 515.51,71.06 518.85,71.06 521.52,71.06 524.19,70.95 526.87,70.95 529.54,70.95 532.21,70.95 535.55,70.95 538.22,70.95 540.89,70.95 543.57,70.95 546.24,70.95 549.58,70.95 552.25,70.95 554.92,70.95 557.59,70.95 560.26,70.95 562.94,70.95 566.28,70.95 568.95,70.95 571.62,70.95 574.29,71.17 576.96,71.61 579.64,71.39 582.98,71.06 585.65,71.06 588.32,70.95 590.99,70.95 593.66,70.95 597.00,70.95 599.68,70.95 602.35,70.95 605.02,70.95 607.69,70.95 610.36,70.95 613.70,70.95 616.37,70.95 619.05,70.95 621.72,70.95 624.39,70.95 627.73,70.95 630.40,70.95 633.07,70.95 635.75,70.95 638.42,70.95 641.09,70.95 644.43,70.95 647.10,70.95 649.66,70.95 652.44,70.95 655.22,70.95 658.56,70.95 661.34,70.95 663.56,70.95 666.34,70.95 669.12,70.95 671.90,70.95 675.24,70.95 678.02,70.95 680.25,70.95 683.03,70.95 685.81,70.95 689.14,70.95 691.92,70.95 694.70,70.95 696.93,70.95 699.71,70.95 702.49,70.95 705.83,70.95 708.61,70.95 711.39,70.95 714.17,70.95 716.39,70.95 719.17,70.95 722.51,70.95 725.29,70.95 728.07,70.95 730.85,70.95 733.07,70.95 736.41,70.95 739.19,70.95 741.97,70.95 744.75,70.95 747.53,70.95 749.76,70.95 753.09,70.95 755.87,70.95 758.65,70.95"/>
<line x1="78" y1="267.46" x2="772" y2="267.46" stroke="#2ca02c" opacity="0.18" stroke-dasharray="3 4"/>
<polyline fill="none" stroke="#2ca02c" stroke-width="2.0" points="91.35,75.65 94.02,75.65 96.69,75.54 100.03,78.05 102.70,81.87 105.37,87.55 108.05,93.66 110.72,99.45 113.39,105.12 116.73,111.89 119.40,117.13 122.07,122.15 124.74,127.07 127.42,131.87 130.76,137.55 133.43,141.91 136.10,146.17 138.77,150.21 141.44,154.14 144.12,157.96 147.46,162.56 150.13,165.99 152.80,169.40 155.47,172.82 158.14,176.02 160.82,179.07 164.16,182.88 166.83,185.68 169.50,188.44 172.17,191.18 174.84,193.75 178.18,196.84 180.85,199.22 183.53,201.52 186.20,203.72 188.87,205.86 191.54,208.00 194.88,210.47 197.55,212.40 200.23,214.23 202.90,216.06 205.57,217.77 208.91,219.84 211.58,221.51 214.25,223.02 216.93,224.51 219.60,226.01 222.27,227.32 225.61,228.90 228.28,230.17 230.95,231.44 233.63,232.70 236.30,233.97 239.64,235.43 242.31,236.49 244.98,237.54 247.65,238.59 250.32,239.52 253.00,240.41 256.34,241.52 259.01,242.39 261.68,243.21 264.35,244.03 267.02,244.82 270.36,245.77 273.04,246.66 275.71,247.88 278.38,249.02 281.05,250.10 283.72,251.11 287.06,252.28 289.74,253.14 292.41,253.99 295.08,254.82 297.75,255.50 300.42,256.17 303.76,257.02 306.43,257.70 309.11,258.20 311.78,258.69 314.45,259.18 317.79,259.80 320.46,260.28 323.13,260.77 325.81,261.16 328.48,261.50 331.15,261.84 334.49,262.26 337.16,262.60 339.83,262.90 342.51,263.14 345.18,263.39 348.52,263.69 351.19,263.93 353.86,264.14 356.53,264.33 359.20,264.52 361.88,264.70 365.22,264.90 367.89,265.04 370.56,265.18 373.23,265.31 375.90,265.44 379.24,265.58 381.92,265.65 384.59,265.86 387.26,266.07 389.93,266.25 392.60,266.40 395.94,266.57 398.62,266.68 401.29,266.78 403.96,266.87 406.63,266.94 409.97,267.02 412.64,267.09 415.31,267.14 417.99,267.18 420.66,267.21 423.33,267.25 426.67,267.28 429.34,267.30 432.01,267.32 434.69,267.34 437.36,267.36 440.03,267.38 443.37,267.39 446.04,267.40 448.71,267.40 451.38,267.41 454.06,267.42 457.40,267.43 460.07,267.43 462.74,267.43 465.41,267.44 468.08,267.44 470.76,267.44 474.10,267.44 476.77,267.45 479.44,267.45 482.11,267.45 484.78,267.46 488.12,267.46 490.80,267.46 493.47,267.46 496.14,267.46 498.81,267.46 501.48,267.46 504.82,267.46 507.49,267.46 510.17,267.46 512.84,267.46 515.51,267.46 518.85,267.46 521.52,267.46 524.19,267.46 526.87,267.46 529.54,267.46 532.21,267.46 535.55,267.46 538.22,267.46 540.89,267.46 543.57,267.46 546.24,267.46 549.58,267.46 552.25,267.46 554.92,267.46 557.59,267.46 560.26,267.46 562.94,267.46 566.28,267.46 568.95,267.46 571.62,267.46 574.29,267.46 576.96,267.46 579.64,267.46 582.98,267.46 585.65,267.46 588.32,267.46 590.99,267.46 593.66,267.46 597.00,267.46 599.68,267.46 602.35,267.37 605.02,267.15 607.69,267.33 610.36,267.41 613.70,267.45 616.37,267.46 619.05,267.46 621.72,267.46 624.39,267.46 627.73,267.46 630.40,267.46 633.07,267.46 635.75,267.46 638.42,267.46 641.09,267.46 644.43,267.46 647.10,267.46 649.66,267.46 652.44,267.46 655.22,267.46 658.56,267.46 661.34,267.46 663.56,267.46 666.34,267.46 669.12,267.46 671.90,267.46 675.24,267.46 678.02,267.46 680.25,267.46 683.03,267.46 685.81,267.46 689.14,267.46 691.92,267.46 694.70,267.46 696.93,267.46 699.71,267.46 702.49,267.46 705.83,267.46 708.61,267.46 711.39,267.46 714.17,267.46 716.39,267.46 719.17,267.46 722.51,267.46 725.29,267.46 728.07,267.46 730.85,267.46 733.07,267.46 736.41,267.46 739.19,267.46 741.97,267.46 744.75,267.46 747.53,267.46 749.76,267.46 753.09,267.46 755.87,267.46 758.65,267.46"/>
<line x1="78" y1="70.95" x2="772" y2="70.95" stroke="#9467bd" opacity="0.18" stroke-dasharray="3 4"/>
<polyline fill="none" stroke="#9467bd" stroke-width="2.0" points="91.35,70.95 94.02,70.95 96.69,70.52 100.03,69.86 102.70,69.86 105.37,71.94 108.05,74.56 110.72,77.07 113.39,79.47 116.73,82.31 119.40,84.60 122.07,86.67 124.74,88.75 127.42,90.82 130.76,93.22 133.43,95.08 136.10,96.94 138.77,98.68 141.44,100.32 144.12,101.96 147.46,103.92 150.13,105.34 152.80,106.87 155.47,108.29 158.14,109.60 160.82,110.91 164.16,112.55 166.83,113.75 169.50,114.95 172.17,116.15 174.84,117.24 178.18,118.55 180.85,119.53 183.53,120.52 186.20,121.50 188.87,122.37 191.54,123.36 194.88,124.34 197.55,125.21 200.23,125.98 202.90,126.74 205.57,127.50 208.91,128.38 211.58,129.03 214.25,129.80 216.93,130.34 219.60,131.00 222.27,131.65 225.61,132.31 228.28,132.85 230.95,133.40 233.63,133.95 236.30,134.49 239.64,135.04 242.31,135.47 244.98,136.02 247.65,136.46 250.32,136.78 253.00,137.22 256.34,137.66 259.01,138.09 261.68,138.42 264.35,138.75 267.02,139.08 270.36,139.51 273.04,140.71 275.71,144.10 278.38,147.37 281.05,150.43 283.72,153.27 287.06,156.65 289.74,159.20 292.41,161.49 295.08,163.78 297.75,166.02 300.42,167.80 303.76,170.02 306.43,171.80 309.11,173.57 311.78,175.29 314.45,176.57 317.79,178.17 320.46,179.45 323.13,180.73 325.81,182.00 328.48,183.02 331.15,183.92 334.49,185.07 337.16,185.98 339.83,186.89 342.51,187.65 345.18,188.30 348.52,189.12 351.19,189.78 353.86,190.42 356.53,191.04 359.20,191.53 361.88,192.02 365.22,192.64 367.89,193.05 370.56,193.44 373.23,193.81 375.90,194.16 379.24,194.59 381.92,195.26 384.59,200.49 387.26,205.34 389.93,209.58 392.60,213.28 395.94,217.14 398.62,219.70 401.29,221.84 403.96,223.98 406.63,226.12 409.97,227.93 412.64,229.18 415.31,230.41 417.99,231.58 420.66,232.26 423.33,232.94 426.67,233.79 429.34,234.48 432.01,234.95 434.69,235.28 437.36,235.62 440.03,235.94 443.37,236.36 446.04,236.60 448.71,236.73 451.38,236.87 454.06,237.00 457.40,237.18 460.07,237.32 462.74,237.45 465.41,237.57 468.08,237.61 470.76,237.65 474.10,237.70 476.77,237.75 479.44,237.79 482.11,237.82 484.78,237.87 488.12,237.91 490.80,237.92 493.47,237.93 496.14,237.94 498.81,237.95 501.48,237.96 504.82,237.99 507.49,238.00 510.17,238.00 512.84,238.00 515.51,238.00 518.85,238.01 521.52,238.01 524.19,238.01 526.87,238.02 529.54,238.02 532.21,238.02 535.55,238.02 538.22,238.03 540.89,238.03 543.57,238.03 546.24,238.03 549.58,238.03 552.25,238.03 554.92,238.03 557.59,238.03 560.26,238.03 562.94,238.03 566.28,238.03 568.95,238.03 571.62,238.03 574.29,238.03 576.96,238.03 579.64,238.03 582.98,238.03 585.65,238.03 588.32,238.03 590.99,238.03 593.66,238.03 597.00,238.03 599.68,238.03 602.35,238.00 605.02,249.48 607.69,257.74 610.36,260.94 613.70,262.44 616.37,262.72 619.05,262.96 621.72,262.97 624.39,262.98 627.73,262.98 630.40,262.98 633.07,262.98 635.75,262.98 638.42,262.98 641.09,262.98 644.43,262.98 647.10,262.98 649.66,262.98 652.44,262.98 655.22,262.98 658.56,262.98 661.34,262.98 663.56,262.98 666.34,262.98 669.12,262.98 671.90,262.98 675.24,262.98 678.02,262.98 680.25,262.98 683.03,262.98 685.81,262.98 689.14,262.98 691.92,262.98 694.70,262.98 696.93,262.98 699.71,262.98 702.49,262.98 705.83,262.98 708.61,262.98 711.39,262.98 714.17,262.98 716.39,262.98 719.17,262.98 722.51,262.98 725.29,262.98 728.07,262.98 730.85,262.98 733.07,262.98 736.41,262.98 739.19,262.98 741.97,262.98 744.75,262.98 747.53,262.98 749.76,262.98 753.09,262.98 755.87,262.98 758.65,262.98"/>
<line x1="88" y1="72" x2="110" y2="72" stroke="#1f77b4" stroke-width="2.4"/>
<text x="116" y="76" font-family="Arial, sans-serif" font-size="12">rising #1</text>
<line x1="88" y1="90" x2="110" y2="90" stroke="#d62728" stroke-width="2.4"/>
<text x="116" y="94" font-family="Arial, sans-serif" font-size="12">rising #2</text>
<line x1="88" y1="108" x2="110" y2="108" stroke="#2ca02c" stroke-width="2.4"/>
<text x="116" y="112" font-family="Arial, sans-serif" font-size="12">falling #3</text>
<line x1="88" y1="126" x2="110" y2="126" stroke="#9467bd" stroke-width="2.4"/>
<text x="116" y="130" font-family="Arial, sans-serif" font-size="12">falling #4</text>
<rect x="78" y="342" width="694" height="44" fill="#fffdf7" stroke="#d8c6a1" rx="4"/>
<text x="88" y="359" font-family="Arial, sans-serif" font-size="11" font-weight="700" fill="#4b3b21">Findings needing attention</text>
<rect x="88" y="366" width="7" height="7" fill="#b54708"/>
<text x="102" y="373" font-family="Arial, sans-serif" font-size="11" fill="#333">WARN 5.5.4: Ramp dt versus V-T 20-80% evidence needs review | avg Ramp dt=5.394e-08s, avg V-T 20-80% span=3.542e-...</text>
<text x="425.00" y="322.00" text-anchor="middle" font-family="Arial, sans-serif" font-size="12">Time (s)</text>
<text x="420" y="42" font-family="Arial, sans-serif" font-size="11" fill="#555">solid=V-T voltage, faint horizontal=V_fixture</text>
</svg>