<svg xmlns="http://www.w3.org/2000/svg" width="800" height="450" viewBox="0 0 800 450">
<rect width="100%" height="100%" fill="#ffffff"/>
<text x="78" y="25" font-family="Arial, sans-serif" font-size="16" font-weight="700">mpad_1_S7_1P0 V-T Waveforms</text>
<rect x="78" y="54" width="694" height="230" fill="#fbfbfb" stroke="#c8c8c8"/>
<text transform="translate(18 169.00) rotate(-90)" text-anchor="middle" font-family="Arial, sans-serif" font-size="12">Voltage (V)</text>
<line x1="78.00" y1="54" x2="78.00" y2="284" stroke="#ececec"/>
<text x="78.00" y="302" text-anchor="middle" font-family="Arial, sans-serif" font-size="10">-2.4n</text>
<line x1="216.80" y1="54" x2="216.80" y2="284" stroke="#ececec"/>
<text x="216.80" y="302" text-anchor="middle" font-family="Arial, sans-serif" font-size="10">22.6n</text>
<line x1="355.60" y1="54" x2="355.60" y2="284" stroke="#ececec"/>
<text x="355.60" y="302" text-anchor="middle" font-family="Arial, sans-serif" font-size="10">47.5n</text>
<line x1="494.40" y1="54" x2="494.40" y2="284" stroke="#ececec"/>
<text x="494.40" y="302" text-anchor="middle" font-family="Arial, sans-serif" font-size="10">72.5n</text>
<line x1="633.20" y1="54" x2="633.20" y2="284" stroke="#ececec"/>
<text x="633.20" y="302" text-anchor="middle" font-family="Arial, sans-serif" font-size="10">97.4n</text>
<line x1="772.00" y1="54" x2="772.00" y2="284" stroke="#ececec"/>
<text x="772.00" y="302" text-anchor="middle" font-family="Arial, sans-serif" font-size="10">122n</text>
<line x1="78" y1="284.00" x2="772" y2="284.00" stroke="#ececec"/>
<text x="70" y="288.00" text-anchor="end" font-family="Arial, sans-serif" font-size="10">-0.082</text>
<line x1="78" y1="226.50" x2="772" y2="226.50" stroke="#ececec"/>
<text x="70" y="230.50" text-anchor="end" font-family="Arial, sans-serif" font-size="10">0.209</text>
<line x1="78" y1="169.00" x2="772" y2="169.00" stroke="#ececec"/>
<text x="70" y="173.00" text-anchor="end" font-family="Arial, sans-serif" font-size="10">0.501</text>
<line x1="78" y1="111.50" x2="772" y2="111.50" stroke="#ececec"/>
<text x="70" y="115.50" text-anchor="end" font-family="Arial, sans-serif" font-size="10">0.792</text>
<line x1="78" y1="54.00" x2="772" y2="54.00" stroke="#ececec"/>
<text x="70" y="58.00" text-anchor="end" font-family="Arial, sans-serif" font-size="10">1.1</text>
<line x1="78" y1="267.82" x2="772" y2="267.82" stroke="#1f77b4" opacity="0.18" stroke-dasharray="3 4"/>
<polyline fill="none" stroke="#1f77b4" stroke-width="2.0" points="91.35,267.82 94.02,267.82 96.69,267.82 100.03,267.82 102.70,267.91 105.37,268.14 108.05,267.94 110.72,267.42 113.39,266.78 116.73,265.86 119.40,265.09 122.07,264.34 124.74,263.60 127.42,262.88 130.76,262.01 133.43,261.32 136.10,260.66 138.77,260.01 141.44,259.38 144.12,258.76 147.46,258.00 150.13,257.42 152.80,256.85 155.47,256.29 158.14,255.75 160.82,255.22 164.16,254.57 166.83,254.08 169.50,253.60 172.17,253.12 174.84,252.65 178.18,252.07 180.85,251.63 183.53,251.20 186.20,250.78 188.87,250.37 191.54,249.98 194.88,249.50 197.55,249.12 200.23,248.75 202.90,248.40 205.57,248.06 208.91,247.63 211.58,247.27 214.25,246.98 216.93,246.66 219.60,246.37 222.27,246.05 225.61,245.67 228.28,245.38 230.95,245.10 233.63,244.85 236.30,244.57 239.64,244.25 242.31,244.00 244.98,243.76 247.65,243.52 250.32,243.09 253.00,242.16 256.34,241.02 259.01,240.13 261.68,239.28 264.35,238.47 267.02,237.66 270.36,236.65 273.04,235.90 275.71,235.17 278.38,234.46 281.05,233.79 283.72,233.12 287.06,232.31 289.74,231.64 292.41,231.03 295.08,230.44 297.75,229.87 300.42,229.29 303.76,228.60 306.43,228.09 309.11,227.60 311.78,227.08 314.45,226.57 317.79,225.98 320.46,225.52 323.13,225.07 325.81,224.66 328.48,224.24 331.15,223.14 334.49,219.46 337.16,216.31 339.83,213.25 342.51,210.33 345.18,207.43 348.52,204.09 351.19,201.45 353.86,198.80 356.53,196.33 359.20,194.02 361.88,191.71 365.22,188.83 367.89,186.68 370.56,184.77 373.23,182.85 375.90,180.94 379.24,178.55 381.92,176.64 384.59,174.96 387.26,173.56 389.93,172.14 392.60,170.74 395.94,168.98 398.62,167.56 401.29,166.16 403.96,164.74 406.63,163.33 409.97,161.58 412.64,160.47 415.31,159.54 417.99,158.62 420.66,157.67 423.33,156.74 426.67,155.58 429.34,154.65 432.01,153.72 434.69,152.79 437.36,152.02 440.03,151.41 443.37,150.66 446.04,150.05 448.71,149.44 451.38,148.85 454.06,148.24 457.40,147.49 460.07,146.87 462.74,146.34 465.41,145.99 468.08,145.61 470.76,145.26 474.10,144.80 476.77,144.45 479.44,144.07 482.11,143.72 484.78,143.34 488.12,142.89 490.80,142.53 493.47,142.18 496.14,141.86 498.81,141.66 501.48,141.47 504.82,141.21 507.49,141.01 510.17,140.81 512.84,140.62 515.51,140.40 518.85,140.16 521.52,139.97 524.19,139.75 526.87,139.63 529.54,139.51 532.21,139.39 535.55,139.26 538.22,139.12 540.89,139.00 543.57,138.88 546.24,138.76 549.58,138.62 552.25,138.54 554.92,138.47 557.59,138.39 560.26,138.31 562.94,138.23 566.28,138.15 568.95,138.07 571.62,138.01 574.29,137.95 576.96,138.33 579.64,130.85 582.98,103.87 585.65,88.53 588.32,80.66 590.99,77.26 593.66,75.94 597.00,75.09 599.68,74.99 602.35,74.95 605.02,74.91 607.69,74.91 610.36,74.91 613.70,74.91 616.37,74.91 619.05,74.91 621.72,74.91 624.39,74.91 627.73,74.91 630.40,74.91 633.07,74.91 635.75,74.91 638.42,74.91 641.09,74.91 644.43,74.91 647.10,74.91 649.66,74.91 652.44,74.91 655.22,74.91 658.56,74.91 661.34,74.91 663.56,74.91 666.34,74.91 669.12,74.91 671.90,74.91 675.24,74.91 678.02,74.91 680.25,74.91 683.03,74.91 685.81,74.91 689.14,74.91 691.92,74.91 694.70,74.91 696.93,74.91 699.71,74.91 702.49,74.91 705.83,74.91 708.61,74.91 711.39,74.91 714.17,74.91 716.39,74.91 719.17,74.91 722.51,74.91 725.29,74.91 728.07,74.91 730.85,74.91 733.07,74.91 736.41,74.91 739.19,74.91 741.97,74.91 744.75,74.91 747.53,74.91 749.76,74.91 753.09,74.91 755.87,74.91 758.65,74.91"/>
<line x1="78" y1="70.45" x2="772" y2="70.45" stroke="#d62728" opacity="0.18" stroke-dasharray="3 4"/>
<polyline fill="none" stroke="#d62728" stroke-width="2.0" points="91.35,263.63 94.02,263.63 96.69,263.63 100.03,263.63 102.70,263.66 105.37,263.50 108.05,261.89 110.72,258.70 113.39,254.61 116.73,249.06 119.40,244.69 122.07,240.42 124.74,236.24 127.42,232.17 130.76,227.26 133.43,223.41 136.10,219.60 138.77,215.97 141.44,212.42 144.12,208.93 147.46,204.66 150.13,201.37 152.80,198.15 155.47,195.01 158.14,191.95 160.82,188.99 164.16,185.34 166.83,182.54 169.50,179.77 172.17,177.07 174.84,174.47 178.18,171.25 180.85,168.76 183.53,166.35 186.20,164.00 188.87,161.70 191.54,159.47 194.88,156.76 197.55,154.65 200.23,152.54 202.90,150.56 205.57,148.63 208.91,146.20 211.58,144.31 214.25,142.59 216.93,140.85 219.60,139.12 222.27,137.38 225.61,135.23 228.28,133.67 230.95,132.13 233.63,130.57 236.30,129.11 239.64,127.31 242.31,125.91 244.98,124.55 247.65,123.23 250.32,121.85 253.00,120.37 256.34,118.59 259.01,117.21 261.68,115.85 264.35,114.58 267.02,113.32 270.36,111.74 273.04,110.60 275.71,109.45 278.38,108.33 281.05,107.30 283.72,106.26 287.06,104.95 289.74,103.91 292.41,102.98 295.08,102.05 297.75,101.14 300.42,100.22 303.76,99.21 306.43,98.40 309.11,97.59 311.78,96.80 314.45,95.99 317.79,95.07 320.46,94.37 323.13,93.68 325.81,93.01 328.48,92.38 331.15,91.45 334.49,89.80 337.16,88.53 339.83,87.37 342.51,86.26 345.18,85.26 348.52,84.09 351.19,83.16 353.86,82.32 356.53,81.59 359.20,80.86 361.88,80.13 365.22,79.34 367.89,78.80 370.56,78.29 373.23,77.80 375.90,77.32 379.24,76.75 381.92,76.34 384.59,76.02 387.26,75.70 389.93,75.39 392.60,75.07 395.94,74.68 398.62,74.36 401.29,74.05 403.96,73.73 406.63,73.53 409.97,73.32 412.64,73.16 415.31,73.00 417.99,72.82 420.66,72.66 423.33,72.51 426.67,72.31 429.34,72.13 432.01,71.97 434.69,71.89 437.36,71.82 440.03,71.74 443.37,71.64 446.04,71.56 448.71,71.48 451.38,71.40 454.06,71.32 457.40,71.24 460.07,71.20 462.74,71.16 465.41,71.13 468.08,71.09 470.76,71.05 474.10,70.99 476.77,70.95 479.44,70.91 482.11,70.87 484.78,70.85 488.12,70.79 490.80,70.77 493.47,70.75 496.14,70.73 498.81,70.71 501.48,70.69 504.82,70.67 507.49,70.67 510.17,70.65 512.84,70.63 515.51,70.61 518.85,70.59 521.52,70.59 524.19,70.59 526.87,70.57 529.54,70.57 532.21,70.55 535.55,70.55 538.22,70.55 540.89,70.53 543.57,70.53 546.24,70.51 549.58,70.51 552.25,70.51 554.92,70.51 557.59,70.51 560.26,70.49 562.94,70.49 566.28,70.49 568.95,70.49 571.62,70.49 574.29,70.49 576.96,71.05 579.64,71.76 582.98,71.42 585.65,71.03 588.32,70.75 590.99,70.61 593.66,70.53 597.00,70.47 599.68,70.47 602.35,70.45 605.02,70.45 607.69,70.45 610.36,70.45 613.70,70.45 616.37,70.45 619.05,70.45 621.72,70.45 624.39,70.45 627.73,70.45 630.40,70.45 633.07,70.45 635.75,70.45 638.42,70.45 641.09,70.45 644.43,70.45 647.10,70.45 649.66,70.45 652.44,70.45 655.22,70.45 658.56,70.45 661.34,70.45 663.56,70.45 666.34,70.45 669.12,70.45 671.90,70.45 675.24,70.45 678.02,70.45 680.25,70.45 683.03,70.45 685.81,70.45 689.14,70.45 691.92,70.45 694.70,70.45 696.93,70.45 699.71,70.45 702.49,70.45 705.83,70.45 708.61,70.45 711.39,70.45 714.17,70.45 716.39,70.45 719.17,70.45 722.51,70.45 725.29,70.45 728.07,70.45 730.85,70.45 733.07,70.45 736.41,70.45 739.19,70.45 741.97,70.45 744.75,70.45 747.53,70.45 749.76,70.45 753.09,70.45 755.87,70.45 758.65,70.45"/>
<line x1="78" y1="267.82" x2="772" y2="267.82" stroke="#2ca02c" opacity="0.18" stroke-dasharray="3 4"/>
<polyline fill="none" stroke="#2ca02c" stroke-width="2.0" points="91.35,74.91 94.02,74.91 96.69,74.84 100.03,74.93 102.70,75.47 105.37,76.69 108.05,80.32 110.72,84.74 113.39,89.72 116.73,96.49 119.40,101.89 122.07,107.16 124.74,112.30 127.42,117.29 130.76,123.33 133.43,127.99 136.10,132.51 138.77,136.87 141.44,141.09 144.12,145.18 147.46,150.03 150.13,153.88 152.80,157.51 155.47,160.99 158.14,164.44 160.82,167.89 164.16,172.00 166.83,175.12 169.50,178.10 172.17,181.04 174.84,183.86 178.18,187.25 180.85,189.88 183.53,192.41 186.20,194.83 188.87,197.22 191.54,199.49 194.88,202.25 197.55,204.41 200.23,206.44 202.90,208.43 205.57,210.37 208.91,212.64 211.58,214.45 214.25,216.25 216.93,217.89 219.60,219.52 222.27,221.08 225.61,222.94 228.28,224.42 230.95,225.88 233.63,227.18 236.30,228.50 239.64,230.14 242.31,231.33 244.98,232.43 247.65,233.56 250.32,234.68 253.00,235.81 256.34,237.19 259.01,238.19 261.68,239.12 264.35,240.05 267.02,240.96 270.36,242.04 273.04,242.87 275.71,244.08 278.38,245.38 281.05,246.62 283.72,247.81 287.06,249.18 289.74,250.18 292.41,251.15 295.08,252.12 297.75,252.90 300.42,253.69 303.76,254.66 306.43,255.45 309.11,256.21 311.78,256.80 314.45,257.40 317.79,258.14 320.46,258.73 323.13,259.18 325.81,259.63 328.48,260.08 331.15,260.53 334.49,261.09 337.16,261.45 339.83,261.80 342.51,262.14 345.18,262.48 348.52,262.82 351.19,263.09 353.86,263.37 356.53,263.63 359.20,263.86 361.88,264.08 365.22,264.34 367.89,264.53 370.56,264.71 373.23,264.89 375.90,265.05 379.24,265.24 381.92,265.38 384.59,265.51 387.26,265.64 389.93,265.71 392.60,265.85 395.94,266.13 398.62,266.35 401.29,266.55 403.96,266.72 406.63,266.86 409.97,267.02 412.64,267.13 415.31,267.22 417.99,267.29 420.66,267.37 423.33,267.43 426.67,267.49 429.34,267.53 432.01,267.58 434.69,267.62 437.36,267.64 440.03,267.66 443.37,267.69 446.04,267.71 448.71,267.73 451.38,267.74 454.06,267.75 457.40,267.76 460.07,267.77 462.74,267.78 465.41,267.78 468.08,267.79 470.76,267.79 474.10,267.79 476.77,267.80 479.44,267.80 482.11,267.80 484.78,267.81 488.12,267.81 490.80,267.81 493.47,267.81 496.14,267.81 498.81,267.81 501.48,267.81 504.82,267.82 507.49,267.82 510.17,267.82 512.84,267.82 515.51,267.82 518.85,267.82 521.52,267.82 524.19,267.82 526.87,267.82 529.54,267.82 532.21,267.82 535.55,267.82 538.22,267.82 540.89,267.82 543.57,267.82 546.24,267.82 549.58,267.82 552.25,267.82 554.92,267.82 557.59,267.82 560.26,267.82 562.94,267.82 566.28,267.82 568.95,267.82 571.62,267.82 574.29,267.82 576.96,267.82 579.64,267.82 582.98,267.82 585.65,267.82 588.32,267.82 590.99,267.82 593.66,267.82 597.00,267.82 599.68,267.82 602.35,267.82 605.02,267.82 607.69,267.82 610.36,267.45 613.70,267.28 616.37,267.54 619.05,267.70 621.72,267.77 624.39,267.80 627.73,267.81 630.40,267.82 633.07,267.82 635.75,267.82 638.42,267.82 641.09,267.82 644.43,267.82 647.10,267.82 649.66,267.82 652.44,267.82 655.22,267.82 658.56,267.82 661.34,267.82 663.56,267.82 666.34,267.82 669.12,267.82 671.90,267.82 675.24,267.82 678.02,267.82 680.25,267.82 683.03,267.82 685.81,267.82 689.14,267.82 691.92,267.82 694.70,267.82 696.93,267.82 699.71,267.82 702.49,267.82 705.83,267.82 708.61,267.82 711.39,267.82 714.17,267.82 716.39,267.82 719.17,267.82 722.51,267.82 725.29,267.82 728.07,267.82 730.85,267.82 733.07,267.82 736.41,267.82 739.19,267.82 741.97,267.82 744.75,267.82 747.53,267.82 749.76,267.82 753.09,267.82 755.87,267.82 758.65,267.82"/>
<line x1="78" y1="70.45" x2="772" y2="70.45" stroke="#9467bd" opacity="0.18" stroke-dasharray="3 4"/>
<polyline fill="none" stroke="#9467bd" stroke-width="2.0" points="91.35,70.45 94.02,70.45 96.69,70.45 100.03,70.06 102.70,69.86 105.37,69.86 108.05,71.80 110.72,73.53 113.39,75.35 116.73,77.80 119.40,79.79 122.07,81.76 124.74,83.70 127.42,85.59 130.76,87.88 133.43,89.66 136.10,91.37 138.77,93.03 141.44,94.65 144.12,96.21 147.46,98.07 150.13,99.55 152.80,100.91 155.47,102.23 158.14,103.57 160.82,104.91 164.16,106.47 166.83,107.68 169.50,108.80 172.17,109.93 174.84,111.01 178.18,112.32 180.85,113.32 183.53,114.31 186.20,115.24 188.87,116.16 191.54,117.03 194.88,118.10 197.55,118.95 200.23,119.72 202.90,120.51 205.57,121.24 208.91,122.12 211.58,122.83 214.25,123.53 216.93,124.16 219.60,124.81 222.27,125.40 225.61,126.13 228.28,126.70 230.95,127.28 233.63,127.79 236.30,128.30 239.64,128.95 242.31,129.41 244.98,129.84 247.65,130.28 250.32,130.73 253.00,131.16 256.34,131.72 259.01,132.09 261.68,132.47 264.35,132.84 267.02,133.20 270.36,133.61 273.04,133.93 275.71,136.02 278.38,139.22 281.05,142.31 283.72,145.24 287.06,148.69 289.74,151.20 292.41,153.70 295.08,155.87 297.75,157.93 300.42,160.00 303.76,162.58 306.43,164.58 309.11,166.18 311.78,167.75 314.45,169.35 317.79,171.33 320.46,172.57 323.13,173.77 325.81,175.00 328.48,176.20 331.15,177.43 334.49,178.65 337.16,179.58 339.83,180.50 342.51,181.45 345.18,182.12 348.52,182.97 351.19,183.66 353.86,184.33 356.53,185.00 359.20,185.70 361.88,186.37 365.22,187.08 367.89,187.57 370.56,188.06 373.23,188.50 375.90,188.91 379.24,189.39 381.92,189.76 384.59,190.12 387.26,190.43 389.93,190.73 392.60,193.08 395.94,199.53 398.62,204.60 401.29,209.12 403.96,213.11 406.63,216.68 409.97,220.29 412.64,222.88 415.31,224.93 417.99,227.00 420.66,228.56 423.33,229.83 426.67,231.42 429.34,232.71 432.01,233.64 434.69,234.31 437.36,234.96 440.03,235.63 443.37,236.38 446.04,236.69 448.71,237.01 451.38,237.31 454.06,237.62 457.40,238.02 460.07,238.25 462.74,238.35 465.41,238.47 468.08,238.59 470.76,238.71 474.10,238.85 476.77,238.96 479.44,239.04 482.11,239.08 484.78,239.12 488.12,239.16 490.80,239.20 493.47,239.24 496.14,239.26 498.81,239.30 501.48,239.32 504.82,239.34 507.49,239.34 510.17,239.36 512.84,239.38 515.51,239.38 518.85,239.38 521.52,239.40 524.19,239.40 526.87,239.40 529.54,239.40 532.21,239.40 535.55,239.42 538.22,239.42 540.89,239.42 543.57,239.42 546.24,239.42 549.58,239.42 552.25,239.42 554.92,239.42 557.59,239.42 560.26,239.42 562.94,239.42 566.28,239.42 568.95,239.42 571.62,239.42 574.29,239.42 576.96,239.42 579.64,239.42 582.98,239.42 585.65,239.42 588.32,239.42 590.99,239.42 593.66,239.42 597.00,239.42 599.68,239.42 602.35,239.42 605.02,239.42 607.69,239.42 610.36,239.79 613.70,251.92 616.37,258.96 619.05,261.87 621.72,263.02 624.39,263.43 627.73,263.58 630.40,263.61 633.07,263.62 635.75,263.63 638.42,263.63 641.09,263.63 644.43,263.63 647.10,263.63 649.66,263.63 652.44,263.63 655.22,263.63 658.56,263.63 661.34,263.63 663.56,263.63 666.34,263.63 669.12,263.63 671.90,263.63 675.24,263.63 678.02,263.63 680.25,263.63 683.03,263.63 685.81,263.63 689.14,263.63 691.92,263.63 694.70,263.63 696.93,263.63 699.71,263.63 702.49,263.63 705.83,263.63 708.61,263.63 711.39,263.63 714.17,263.63 716.39,263.63 719.17,263.63 722.51,263.63 725.29,263.63 728.07,263.63 730.85,263.63 733.07,263.63 736.41,263.63 739.19,263.63 741.97,263.63 744.75,263.63 747.53,263.63 749.76,263.63 753.09,263.63 755.87,263.63 758.65,263.63"/>
<line x1="88" y1="72" x2="110" y2="72" stroke="#1f77b4" stroke-width="2.4"/>
<text x="116" y="76" font-family="Arial, sans-serif" font-size="12">rising #1</text>
<line x1="88" y1="90" x2="110" y2="90" stroke="#d62728" stroke-width="2.4"/>
<text x="116" y="94" font-family="Arial, sans-serif" font-size="12">rising #2</text>
<line x1="88" y1="108" x2="110" y2="108" stroke="#2ca02c" stroke-width="2.4"/>
<text x="116" y="112" font-family="Arial, sans-serif" font-size="12">falling #3</text>
<line x1="88" y1="126" x2="110" y2="126" stroke="#9467bd" stroke-width="2.4"/>
<text x="116" y="130" font-family="Arial, sans-serif" font-size="12">falling #4</text>
<rect x="78" y="342" width="694" height="44" fill="#fffdf7" stroke="#d8c6a1" rx="4"/>
<text x="88" y="359" font-family="Arial, sans-serif" font-size="11" font-weight="700" fill="#4b3b21">Findings needing attention</text>
<rect x="88" y="366" width="7" height="7" fill="#b54708"/>
<text x="102" y="373" font-family="Arial, sans-serif" font-size="11" fill="#333">WARN 5.5.4: Ramp dt versus V-T 20-80% evidence needs review | avg Ramp dt=5.414e-08s, avg V-T 20-80% span=3.520e-...</text>
<text x="425.00" y="322.00" text-anchor="middle" font-family="Arial, sans-serif" font-size="12">Time (s)</text>
<text x="420" y="42" font-family="Arial, sans-serif" font-size="11" fill="#555">solid=V-T voltage, faint horizontal=V_fixture</text>
</svg>