<svg xmlns="http://www.w3.org/2000/svg" width="800" height="450" viewBox="0 0 800 450">
<rect width="100%" height="100%" fill="#ffffff"/>
<text x="78" y="25" font-family="Arial, sans-serif" font-size="16" font-weight="700">mpad_1_S7_1P2 V-T Waveforms</text>
<rect x="78" y="54" width="694" height="230" fill="#fbfbfb" stroke="#c8c8c8"/>
<text transform="translate(18 169.00) rotate(-90)" text-anchor="middle" font-family="Arial, sans-serif" font-size="12">Voltage (V)</text>
<line x1="78.00" y1="54" x2="78.00" y2="284" stroke="#ececec"/>
<text x="78.00" y="302" text-anchor="middle" font-family="Arial, sans-serif" font-size="10">-2.4n</text>
<line x1="216.80" y1="54" x2="216.80" y2="284" stroke="#ececec"/>
<text x="216.80" y="302" text-anchor="middle" font-family="Arial, sans-serif" font-size="10">22.6n</text>
<line x1="355.60" y1="54" x2="355.60" y2="284" stroke="#ececec"/>
<text x="355.60" y="302" text-anchor="middle" font-family="Arial, sans-serif" font-size="10">47.5n</text>
<line x1="494.40" y1="54" x2="494.40" y2="284" stroke="#ececec"/>
<text x="494.40" y="302" text-anchor="middle" font-family="Arial, sans-serif" font-size="10">72.5n</text>
<line x1="633.20" y1="54" x2="633.20" y2="284" stroke="#ececec"/>
<text x="633.20" y="302" text-anchor="middle" font-family="Arial, sans-serif" font-size="10">97.4n</text>
<line x1="772.00" y1="54" x2="772.00" y2="284" stroke="#ececec"/>
<text x="772.00" y="302" text-anchor="middle" font-family="Arial, sans-serif" font-size="10">122n</text>
<line x1="78" y1="284.00" x2="772" y2="284.00" stroke="#ececec"/>
<text x="70" y="288.00" text-anchor="end" font-family="Arial, sans-serif" font-size="10">-0.0993</text>
<line x1="78" y1="226.50" x2="772" y2="226.50" stroke="#ececec"/>
<text x="70" y="230.50" text-anchor="end" font-family="Arial, sans-serif" font-size="10">0.251</text>
<line x1="78" y1="169.00" x2="772" y2="169.00" stroke="#ececec"/>
<text x="70" y="173.00" text-anchor="end" font-family="Arial, sans-serif" font-size="10">0.601</text>
<line x1="78" y1="111.50" x2="772" y2="111.50" stroke="#ececec"/>
<text x="70" y="115.50" text-anchor="end" font-family="Arial, sans-serif" font-size="10">0.951</text>
<line x1="78" y1="54.00" x2="772" y2="54.00" stroke="#ececec"/>
<text x="70" y="58.00" text-anchor="end" font-family="Arial, sans-serif" font-size="10">1.3</text>
<line x1="78" y1="267.69" x2="772" y2="267.69" stroke="#1f77b4" opacity="0.18" stroke-dasharray="3 4"/>
<polyline fill="none" stroke="#1f77b4" stroke-width="2.0" points="91.35,267.69 94.02,267.69 96.69,267.69 100.03,267.79 102.70,268.14 105.37,268.01 108.05,267.37 110.72,266.59 113.39,265.77 116.73,264.77 119.40,263.98 122.07,263.24 124.74,262.49 127.42,261.75 130.76,260.88 133.43,260.18 136.10,259.52 138.77,258.88 141.44,258.23 144.12,257.60 147.46,256.84 150.13,256.25 152.80,255.68 155.47,255.12 158.14,254.58 160.82,254.05 164.16,253.40 166.83,252.90 169.50,252.41 172.17,251.93 174.84,251.47 178.18,250.90 180.85,250.45 183.53,250.03 186.20,249.60 188.87,249.19 191.54,248.79 194.88,248.32 197.55,247.94 200.23,247.58 202.90,247.22 205.57,246.87 208.91,246.45 211.58,246.12 214.25,245.79 216.93,245.48 219.60,245.18 222.27,244.87 225.61,244.51 228.28,244.23 230.95,243.95 233.63,243.68 236.30,243.42 239.64,243.09 242.31,242.85 244.98,242.60 247.65,242.30 250.32,241.35 253.00,240.40 256.34,239.26 259.01,238.39 261.68,237.54 264.35,236.70 267.02,235.88 270.36,234.93 273.04,234.15 275.71,233.40 278.38,232.71 281.05,232.02 283.72,231.35 287.06,230.49 289.74,229.92 292.41,229.36 295.08,228.80 297.75,228.22 300.42,227.66 303.76,226.96 306.43,226.40 309.11,225.84 311.78,225.28 314.45,224.81 317.79,224.23 320.46,223.79 323.13,223.34 325.81,222.92 328.48,221.72 331.15,217.49 334.49,211.99 337.16,207.78 339.83,203.74 342.51,199.91 345.18,196.08 348.52,191.58 351.19,188.25 353.86,184.89 356.53,181.69 359.20,178.93 361.88,176.15 365.22,172.70 367.89,169.93 370.56,167.54 373.23,165.47 375.90,163.42 379.24,160.86 381.92,158.80 384.59,156.75 387.26,154.69 389.93,153.20 392.60,151.79 395.94,150.03 398.62,148.62 401.29,147.20 403.96,145.81 406.63,144.72 409.97,143.65 412.64,142.78 415.31,141.93 417.99,141.07 420.66,140.20 423.33,139.35 426.67,138.28 429.34,137.41 432.01,136.56 434.69,135.85 437.36,135.39 440.03,134.94 443.37,134.39 446.04,133.94 448.71,133.48 451.38,133.04 454.06,132.60 457.40,132.04 460.07,131.76 462.74,131.53 465.41,131.30 468.08,131.05 470.76,130.82 474.10,130.52 476.77,130.29 479.44,130.06 482.11,129.82 484.78,129.59 488.12,129.31 490.80,129.19 493.47,129.10 496.14,128.98 498.81,128.87 501.48,128.77 504.82,128.62 507.49,128.52 510.17,128.41 512.84,128.29 515.51,128.19 518.85,128.06 521.52,128.01 524.19,127.96 526.87,127.91 529.54,127.86 532.21,127.81 535.55,127.75 538.22,127.70 540.89,127.65 543.57,127.60 546.24,127.55 549.58,127.50 552.25,127.47 554.92,127.45 557.59,127.42 560.26,127.39 562.94,127.37 566.28,127.34 568.95,127.32 571.62,127.29 574.29,127.65 576.96,114.75 579.64,93.36 582.98,80.38 585.65,76.76 588.32,75.45 590.99,74.96 593.66,74.79 597.00,74.63 599.68,74.63 602.35,74.63 605.02,74.63 607.69,74.63 610.36,74.63 613.70,74.63 616.37,74.63 619.05,74.63 621.72,74.63 624.39,74.63 627.73,74.63 630.40,74.63 633.07,74.63 635.75,74.63 638.42,74.63 641.09,74.63 644.43,74.63 647.10,74.63 649.66,74.63 652.44,74.63 655.22,74.63 658.56,74.63 661.34,74.63 663.56,74.63 666.34,74.63 669.12,74.63 671.90,74.63 675.24,74.63 678.02,74.63 680.25,74.63 683.03,74.63 685.81,74.63 689.14,74.63 691.92,74.63 694.70,74.63 696.93,74.63 699.71,74.63 702.49,74.63 705.83,74.63 708.61,74.63 711.39,74.63 714.17,74.63 716.39,74.63 719.17,74.63 722.51,74.63 725.29,74.63 728.07,74.63 730.85,74.63 733.07,74.63 736.41,74.63 739.19,74.63 741.97,74.63 744.75,74.63 747.53,74.63 749.76,74.63 753.09,74.63 755.87,74.63 758.65,74.63"/>
<line x1="78" y1="70.52" x2="772" y2="70.52" stroke="#d62728" opacity="0.18" stroke-dasharray="3 4"/>
<polyline fill="none" stroke="#d62728" stroke-width="2.0" points="91.35,263.77 94.02,263.77 96.69,263.77 100.03,263.82 102.70,263.59 105.37,261.64 108.05,257.64 110.72,253.08 113.39,248.58 116.73,243.11 119.40,238.89 122.07,234.76 124.74,230.65 127.42,226.68 130.76,221.86 133.43,218.10 136.10,214.55 138.77,210.99 141.44,207.42 144.12,203.99 147.46,199.88 150.13,196.68 152.80,193.55 155.47,190.51 158.14,187.54 160.82,184.65 164.16,181.12 166.83,178.42 169.50,175.74 172.17,173.13 174.84,170.60 178.18,167.48 180.85,165.08 183.53,162.73 186.20,160.45 188.87,158.23 191.54,156.08 194.88,153.45 197.55,151.39 200.23,149.39 202.90,147.47 205.57,145.53 208.91,143.24 211.58,141.47 214.25,139.69 216.93,137.95 219.60,136.34 222.27,134.73 225.61,132.73 228.28,131.12 230.95,129.65 233.63,128.19 236.30,126.75 239.64,125.00 242.31,123.66 244.98,122.34 247.65,121.03 250.32,119.55 253.00,118.14 256.34,116.43 259.01,115.08 261.68,113.81 264.35,112.57 267.02,111.32 270.36,109.87 273.04,108.75 275.71,107.62 278.38,106.50 281.05,105.50 283.72,104.51 287.06,103.22 289.74,102.23 292.41,101.41 295.08,100.59 297.75,99.77 300.42,98.78 303.76,97.79 306.43,96.97 309.11,96.15 311.78,95.49 314.45,94.67 317.79,93.85 320.46,93.19 323.13,92.54 325.81,91.88 328.48,90.89 331.15,89.41 334.49,87.77 337.16,86.62 339.83,85.31 342.51,84.32 345.18,83.34 348.52,82.35 351.19,81.53 353.86,80.87 356.53,80.05 359.20,79.39 361.88,78.57 365.22,77.75 367.89,77.09 370.56,76.60 373.23,76.27 375.90,75.78 379.24,75.28 381.92,74.96 384.59,74.79 387.26,74.46 389.93,74.13 392.60,73.97 395.94,73.64 398.62,73.31 401.29,72.98 403.96,72.82 406.63,72.66 409.97,72.49 412.64,72.33 415.31,72.16 417.99,72.16 420.66,72.00 423.33,71.83 426.67,71.67 429.34,71.67 432.01,71.51 434.69,71.34 437.36,71.34 440.03,71.34 443.37,71.18 446.04,71.18 448.71,71.18 451.38,71.01 454.06,71.01 457.40,71.01 460.07,71.01 462.74,70.85 465.41,70.85 468.08,70.85 470.76,70.85 474.10,70.85 476.77,70.85 479.44,70.85 482.11,70.68 484.78,70.68 488.12,70.68 490.80,70.68 493.47,70.68 496.14,70.68 498.81,70.68 501.48,70.68 504.82,70.68 507.49,70.68 510.17,70.68 512.84,70.68 515.51,70.52 518.85,70.52 521.52,70.52 524.19,70.52 526.87,70.52 529.54,70.52 532.21,70.52 535.55,70.52 538.22,70.52 540.89,70.52 543.57,70.52 546.24,70.52 549.58,70.52 552.25,70.52 554.92,70.52 557.59,70.52 560.26,70.52 562.94,70.52 566.28,70.52 568.95,70.52 571.62,70.52 574.29,71.01 576.96,71.83 579.64,71.34 582.98,70.85 585.65,70.68 588.32,70.52 590.99,70.52 593.66,70.52 597.00,70.52 599.68,70.52 602.35,70.52 605.02,70.52 607.69,70.52 610.36,70.52 613.70,70.52 616.37,70.52 619.05,70.52 621.72,70.52 624.39,70.52 627.73,70.52 630.40,70.52 633.07,70.52 635.75,70.52 638.42,70.52 641.09,70.52 644.43,70.52 647.10,70.52 649.66,70.52 652.44,70.52 655.22,70.52 658.56,70.52 661.34,70.52 663.56,70.52 666.34,70.52 669.12,70.52 671.90,70.52 675.24,70.52 678.02,70.52 680.25,70.52 683.03,70.52 685.81,70.52 689.14,70.52 691.92,70.52 694.70,70.52 696.93,70.52 699.71,70.52 702.49,70.52 705.83,70.52 708.61,70.52 711.39,70.52 714.17,70.52 716.39,70.52 719.17,70.52 722.51,70.52 725.29,70.52 728.07,70.52 730.85,70.52 733.07,70.52 736.41,70.52 739.19,70.52 741.97,70.52 744.75,70.52 747.53,70.52 749.76,70.52 753.09,70.52 755.87,70.52 758.65,70.52"/>
<line x1="78" y1="267.69" x2="772" y2="267.69" stroke="#2ca02c" opacity="0.18" stroke-dasharray="3 4"/>
<polyline fill="none" stroke="#2ca02c" stroke-width="2.0" points="91.35,74.63 94.02,74.63 96.69,74.63 100.03,74.79 102.70,75.61 105.37,78.08 108.05,82.84 110.72,88.26 113.39,94.02 116.73,101.08 119.40,106.54 122.07,111.84 124.74,116.95 127.42,121.92 130.76,127.91 133.43,132.51 136.10,136.97 138.77,141.27 141.44,145.43 144.12,149.45 147.46,154.30 150.13,158.00 152.80,161.48 155.47,164.95 158.14,168.43 160.82,171.90 164.16,175.79 166.83,178.85 169.50,181.72 172.17,184.62 174.84,187.39 178.18,190.69 180.85,193.24 183.53,195.71 186.20,198.07 188.87,200.36 191.54,202.61 194.88,205.27 197.55,207.36 200.23,209.31 202.90,211.27 205.57,213.11 208.91,215.32 211.58,217.10 214.25,218.79 216.93,220.39 219.60,222.00 222.27,223.46 225.61,225.23 228.28,226.66 230.95,228.09 233.63,229.36 236.30,230.61 239.64,232.17 242.31,233.35 244.98,234.38 247.65,235.44 250.32,236.47 253.00,237.51 256.34,238.80 259.01,239.84 261.68,240.84 264.35,241.73 267.02,242.58 270.36,243.62 273.04,244.54 275.71,245.84 278.38,247.07 281.05,248.25 283.72,249.35 287.06,250.60 289.74,251.58 292.41,252.54 295.08,253.33 297.75,254.13 300.42,254.93 303.76,255.88 306.43,256.48 309.11,257.08 311.78,257.68 314.45,258.29 317.79,259.04 320.46,259.50 323.13,259.94 325.81,260.38 328.48,260.82 331.15,261.26 334.49,261.68 337.16,262.01 339.83,262.34 342.51,262.67 345.18,262.95 348.52,263.24 351.19,263.48 353.86,263.72 356.53,263.96 359.20,264.19 361.88,264.43 365.22,264.66 367.89,264.83 370.56,265.00 373.23,265.15 375.90,265.29 379.24,265.46 381.92,265.59 384.59,265.71 387.26,265.82 389.93,265.87 392.60,266.08 395.94,266.35 398.62,266.53 401.29,266.70 403.96,266.83 406.63,266.95 409.97,267.08 412.64,267.16 415.31,267.23 417.99,267.30 420.66,267.36 423.33,267.40 426.67,267.45 429.34,267.49 432.01,267.52 434.69,267.54 437.36,267.56 440.03,267.58 443.37,267.60 446.04,267.61 448.71,267.62 451.38,267.63 454.06,267.64 457.40,267.65 460.07,267.66 462.74,267.66 465.41,267.66 468.08,267.67 470.76,267.67 474.10,267.67 476.77,267.68 479.44,267.68 482.11,267.68 484.78,267.68 488.12,267.68 490.80,267.69 493.47,267.69 496.14,267.69 498.81,267.69 501.48,267.69 504.82,267.69 507.49,267.69 510.17,267.69 512.84,267.69 515.51,267.69 518.85,267.69 521.52,267.69 524.19,267.69 526.87,267.69 529.54,267.69 532.21,267.69 535.55,267.69 538.22,267.69 540.89,267.69 543.57,267.69 546.24,267.69 549.58,267.69 552.25,267.69 554.92,267.69 557.59,267.69 560.26,267.69 562.94,267.69 566.28,267.69 568.95,267.69 571.62,267.69 574.29,267.69 576.96,267.69 579.64,267.69 582.98,267.69 585.65,267.69 588.32,267.69 590.99,267.69 593.66,267.69 597.00,267.69 599.68,267.69 602.35,267.69 605.02,267.69 607.69,267.69 610.36,267.10 613.70,267.37 616.37,267.57 619.05,267.65 621.72,267.68 624.39,267.69 627.73,267.69 630.40,267.69 633.07,267.69 635.75,267.69 638.42,267.69 641.09,267.69 644.43,267.69 647.10,267.69 649.66,267.69 652.44,267.69 655.22,267.69 658.56,267.69 661.34,267.69 663.56,267.69 666.34,267.69 669.12,267.69 671.90,267.69 675.24,267.69 678.02,267.69 680.25,267.69 683.03,267.69 685.81,267.69 689.14,267.69 691.92,267.69 694.70,267.69 696.93,267.69 699.71,267.69 702.49,267.69 705.83,267.69 708.61,267.69 711.39,267.69 714.17,267.69 716.39,267.69 719.17,267.69 722.51,267.69 725.29,267.69 728.07,267.69 730.85,267.69 733.07,267.69 736.41,267.69 739.19,267.69 741.97,267.69 744.75,267.69 747.53,267.69 749.76,267.69 753.09,267.69 755.87,267.69 758.65,267.69"/>
<line x1="78" y1="70.52" x2="772" y2="70.52" stroke="#9467bd" opacity="0.18" stroke-dasharray="3 4"/>
<polyline fill="none" stroke="#9467bd" stroke-width="2.0" points="91.35,70.52 94.02,70.52 96.69,70.35 100.03,70.03 102.70,69.86 105.37,70.85 108.05,72.82 110.72,74.96 113.39,77.09 116.73,79.88 119.40,82.02 122.07,84.16 124.74,86.13 127.42,88.10 130.76,90.40 133.43,92.37 136.10,94.02 138.77,95.82 141.44,97.47 144.12,99.11 147.46,100.92 150.13,102.40 152.80,103.86 155.47,105.27 158.14,106.59 160.82,107.90 164.16,109.49 166.83,110.71 169.50,111.88 172.17,113.01 174.84,114.11 178.18,115.42 180.85,116.44 183.53,117.43 186.20,118.38 188.87,119.29 191.54,120.19 194.88,121.24 197.55,122.06 200.23,122.87 202.90,123.66 205.57,124.38 208.91,125.27 211.58,125.99 214.25,126.65 216.93,127.29 219.60,127.91 222.27,128.49 225.61,129.21 228.28,129.79 230.95,130.36 233.63,130.90 236.30,131.40 239.64,132.02 242.31,132.50 244.98,132.92 247.65,133.35 250.32,133.76 253.00,134.16 256.34,134.67 259.01,135.06 261.68,135.47 264.35,135.82 267.02,136.16 270.36,136.59 273.04,137.43 275.71,140.73 278.38,143.95 281.05,147.01 283.72,149.90 287.06,153.17 289.74,155.78 292.41,158.06 295.08,160.28 297.75,162.48 300.42,164.50 303.76,166.66 306.43,168.38 309.11,170.11 311.78,171.83 314.45,173.43 317.79,175.02 320.46,176.30 323.13,177.58 325.81,178.86 328.48,179.88 331.15,180.84 334.49,182.02 337.16,182.97 339.83,183.93 342.51,184.73 345.18,185.44 348.52,186.34 351.19,187.05 353.86,187.66 356.53,188.25 359.20,188.82 361.88,189.31 365.22,189.87 367.89,190.32 370.56,190.78 373.23,191.22 375.90,191.66 379.24,192.09 381.92,192.42 384.59,192.75 387.26,193.04 389.93,194.08 392.60,199.49 395.94,206.32 398.62,211.05 401.29,215.14 403.96,218.66 406.63,221.82 409.97,224.84 412.64,227.19 415.31,228.85 417.99,230.33 420.66,231.81 423.33,233.28 426.67,234.52 429.34,235.29 432.01,236.06 434.69,236.82 437.36,237.33 440.03,237.70 443.37,238.16 446.04,238.54 448.71,238.90 451.38,239.18 454.06,239.33 457.40,239.51 460.07,239.66 462.74,239.81 465.41,239.95 468.08,240.09 470.76,240.14 474.10,240.18 476.77,240.23 479.44,240.28 482.11,240.33 484.78,240.37 488.12,240.43 490.80,240.46 493.47,240.48 496.14,240.48 498.81,240.50 501.48,240.51 504.82,240.51 507.49,240.53 510.17,240.55 512.84,240.55 515.51,240.55 518.85,240.55 521.52,240.55 524.19,240.56 526.87,240.56 529.54,240.56 532.21,240.56 535.55,240.56 538.22,240.56 540.89,240.56 543.57,240.56 546.24,240.56 549.58,240.56 552.25,240.56 554.92,240.56 557.59,240.56 560.26,240.56 562.94,240.56 566.28,240.56 568.95,240.56 571.62,240.58 574.29,240.58 576.96,240.58 579.64,240.58 582.98,240.58 585.65,240.58 588.32,240.58 590.99,240.58 593.66,240.58 597.00,240.58 599.68,240.58 602.35,240.58 605.02,240.58 607.69,240.58 610.36,244.56 613.70,257.80 616.37,261.70 619.05,263.11 621.72,263.55 624.39,263.72 627.73,263.75 630.40,263.77 633.07,263.77 635.75,263.77 638.42,263.77 641.09,263.77 644.43,263.77 647.10,263.77 649.66,263.77 652.44,263.77 655.22,263.77 658.56,263.77 661.34,263.77 663.56,263.77 666.34,263.77 669.12,263.77 671.90,263.77 675.24,263.77 678.02,263.77 680.25,263.77 683.03,263.77 685.81,263.77 689.14,263.77 691.92,263.77 694.70,263.77 696.93,263.77 699.71,263.77 702.49,263.77 705.83,263.77 708.61,263.77 711.39,263.77 714.17,263.77 716.39,263.77 719.17,263.77 722.51,263.77 725.29,263.77 728.07,263.77 730.85,263.77 733.07,263.77 736.41,263.77 739.19,263.77 741.97,263.77 744.75,263.77 747.53,263.77 749.76,263.77 753.09,263.77 755.87,263.77 758.65,263.77"/>
<line x1="88" y1="72" x2="110" y2="72" stroke="#1f77b4" stroke-width="2.4"/>
<text x="116" y="76" font-family="Arial, sans-serif" font-size="12">rising #1</text>
<line x1="88" y1="90" x2="110" y2="90" stroke="#d62728" stroke-width="2.4"/>
<text x="116" y="94" font-family="Arial, sans-serif" font-size="12">rising #2</text>
<line x1="88" y1="108" x2="110" y2="108" stroke="#2ca02c" stroke-width="2.4"/>
<text x="116" y="112" font-family="Arial, sans-serif" font-size="12">falling #3</text>
<line x1="88" y1="126" x2="110" y2="126" stroke="#9467bd" stroke-width="2.4"/>
<text x="116" y="130" font-family="Arial, sans-serif" font-size="12">falling #4</text>
<rect x="78" y="342" width="694" height="44" fill="#fffdf7" stroke="#d8c6a1" rx="4"/>
<text x="88" y="359" font-family="Arial, sans-serif" font-size="11" font-weight="700" fill="#4b3b21">Findings needing attention</text>
<rect x="88" y="366" width="7" height="7" fill="#b54708"/>
<text x="102" y="373" font-family="Arial, sans-serif" font-size="11" fill="#333">WARN 5.5.4: Ramp dt versus V-T 20-80% evidence needs review | avg Ramp dt=5.421e-08s, avg V-T 20-80% span=3.525e-...</text>
<text x="425.00" y="322.00" text-anchor="middle" font-family="Arial, sans-serif" font-size="12">Time (s)</text>
<text x="420" y="42" font-family="Arial, sans-serif" font-size="11" fill="#555">solid=V-T voltage, faint horizontal=V_fixture</text>
</svg>