<svg xmlns="http://www.w3.org/2000/svg" width="800" height="450" viewBox="0 0 800 450">
<rect width="100%" height="100%" fill="#ffffff"/>
<text x="78" y="25" font-family="Arial, sans-serif" font-size="16" font-weight="700">mpad_1_S7_1P2_I3C V-T Waveforms</text>
<rect x="78" y="54" width="694" height="230" fill="#fbfbfb" stroke="#c8c8c8"/>
<text transform="translate(18 169.00) rotate(-90)" text-anchor="middle" font-family="Arial, sans-serif" font-size="12">Voltage (V)</text>
<line x1="78.00" y1="54" x2="78.00" y2="284" stroke="#ececec"/>
<text x="78.00" y="302" text-anchor="middle" font-family="Arial, sans-serif" font-size="10">-500p</text>
<line x1="216.80" y1="54" x2="216.80" y2="284" stroke="#ececec"/>
<text x="216.80" y="302" text-anchor="middle" font-family="Arial, sans-serif" font-size="10">4.7n</text>
<line x1="355.60" y1="54" x2="355.60" y2="284" stroke="#ececec"/>
<text x="355.60" y="302" text-anchor="middle" font-family="Arial, sans-serif" font-size="10">9.9n</text>
<line x1="494.40" y1="54" x2="494.40" y2="284" stroke="#ececec"/>
<text x="494.40" y="302" text-anchor="middle" font-family="Arial, sans-serif" font-size="10">15.1n</text>
<line x1="633.20" y1="54" x2="633.20" y2="284" stroke="#ececec"/>
<text x="633.20" y="302" text-anchor="middle" font-family="Arial, sans-serif" font-size="10">20.3n</text>
<line x1="772.00" y1="54" x2="772.00" y2="284" stroke="#ececec"/>
<text x="772.00" y="302" text-anchor="middle" font-family="Arial, sans-serif" font-size="10">25.5n</text>
<line x1="78" y1="284.00" x2="772" y2="284.00" stroke="#ececec"/>
<text x="70" y="288.00" text-anchor="end" font-family="Arial, sans-serif" font-size="10">-0.102</text>
<line x1="78" y1="226.50" x2="772" y2="226.50" stroke="#ececec"/>
<text x="70" y="230.50" text-anchor="end" font-family="Arial, sans-serif" font-size="10">0.25</text>
<line x1="78" y1="169.00" x2="772" y2="169.00" stroke="#ececec"/>
<text x="70" y="173.00" text-anchor="end" font-family="Arial, sans-serif" font-size="10">0.601</text>
<line x1="78" y1="111.50" x2="772" y2="111.50" stroke="#ececec"/>
<text x="70" y="115.50" text-anchor="end" font-family="Arial, sans-serif" font-size="10">0.952</text>
<line x1="78" y1="54.00" x2="772" y2="54.00" stroke="#ececec"/>
<text x="70" y="58.00" text-anchor="end" font-family="Arial, sans-serif" font-size="10">1.3</text>
<line x1="78" y1="267.32" x2="772" y2="267.32" stroke="#1f77b4" opacity="0.18" stroke-dasharray="3 4"/>
<polyline fill="none" stroke="#1f77b4" stroke-width="2.0" points="91.35,267.32 94.02,267.32 96.69,267.32 100.03,267.32 102.70,267.32 105.37,267.32 108.04,267.32 110.72,267.32 113.39,267.32 116.73,267.32 119.40,267.32 122.07,267.32 124.75,267.32 127.42,267.35 130.76,267.41 133.43,267.47 136.10,267.55 138.77,267.66 141.44,267.79 144.12,267.88 147.46,267.95 150.13,268.02 152.80,268.10 155.47,268.14 158.14,268.00 160.82,267.60 164.15,266.61 166.83,265.50 169.50,264.19 172.17,262.77 174.84,261.31 178.18,259.40 180.86,257.62 183.53,255.50 186.20,253.12 188.87,250.65 191.54,248.18 194.88,245.11 197.55,242.68 200.23,240.31 202.90,237.97 205.57,235.70 208.91,232.88 211.58,230.63 214.25,228.52 216.93,226.47 219.60,224.44 222.27,222.40 225.61,219.85 228.28,217.82 230.95,215.77 233.62,213.73 236.30,211.93 239.64,209.69 242.31,207.89 244.98,206.09 247.65,204.27 250.33,202.65 253.00,201.10 256.34,199.15 259.01,197.60 261.68,196.06 264.35,194.51 267.02,192.95 270.36,191.00 273.04,189.47 275.71,187.91 278.38,186.44 281.05,185.16 283.72,183.89 287.06,182.30 289.73,181.04 292.41,179.77 295.08,178.49 297.75,177.21 300.42,175.95 303.76,174.35 306.44,173.22 309.11,172.17 311.78,171.13 314.45,170.10 317.79,168.79 320.46,167.74 323.13,166.71 325.81,165.66 328.48,164.62 331.15,163.59 334.49,162.33 337.16,161.44 339.83,160.56 342.50,159.68 345.18,158.79 348.52,157.70 351.19,156.83 353.86,156.03 356.53,155.23 359.20,154.42 361.88,153.67 365.22,152.72 367.89,151.99 370.56,151.27 373.23,150.55 375.90,149.84 379.24,148.99 381.92,148.32 384.59,147.67 387.26,147.03 389.93,146.39 392.60,145.79 395.94,145.05 398.61,144.46 401.29,143.73 403.96,142.83 406.63,141.61 409.97,140.01 412.64,138.70 415.31,137.39 417.99,136.12 420.66,134.87 423.33,133.65 426.67,132.16 429.34,131.01 432.01,129.89 434.69,128.81 437.36,127.79 440.03,126.76 443.37,125.55 446.04,124.62 448.71,123.70 451.39,122.77 454.06,121.98 457.40,120.97 460.07,120.18 462.74,119.38 465.41,118.60 468.08,117.93 470.76,117.26 474.10,116.44 476.77,115.80 479.44,115.15 482.11,114.61 484.78,114.05 488.12,113.38 490.80,112.82 493.47,112.28 496.14,111.73 498.81,111.19 501.48,110.70 504.82,110.12 507.50,109.68 510.17,109.24 512.84,108.81 515.51,108.42 518.85,107.93 521.52,107.57 524.19,107.21 526.87,106.85 529.54,106.52 532.21,106.20 535.55,105.80 538.22,105.49 540.89,105.21 543.56,105.05 546.24,104.94 549.58,103.91 552.25,101.93 554.92,99.31 557.59,96.53 560.27,94.07 562.94,91.78 566.28,89.17 568.95,87.37 571.62,85.73 574.29,84.42 576.96,83.44 579.64,82.46 582.98,81.31 585.65,80.66 588.32,80.00 590.99,79.51 593.66,79.19 597.00,78.70 599.67,78.37 602.35,78.04 605.02,77.88 607.69,77.71 610.36,77.55 613.70,77.39 616.38,77.22 619.05,77.06 621.72,77.06 624.39,77.06 627.73,76.90 630.40,76.90 633.07,76.90 635.75,76.73 638.42,76.73 641.09,76.73 644.43,76.73 647.10,76.73 649.77,76.73 652.45,76.57 655.12,76.57 658.46,76.57 661.13,76.57 663.80,76.57 666.47,76.57 669.14,76.57 671.82,76.57 675.16,76.57 677.83,76.57 680.50,76.57 683.17,76.57 685.85,76.57 689.18,76.57 691.86,76.57 694.53,76.57 697.20,76.57 699.87,76.57 702.54,76.57 705.88,76.57 708.56,76.57 711.23,76.57 713.90,76.57 716.57,76.57 719.24,76.57 722.58,76.57 725.25,76.57 727.93,76.57 730.60,76.57 733.27,76.57 736.61,76.57 739.28,76.57 741.96,76.57 744.63,76.57 747.30,76.57 749.97,76.57 753.31,76.57 755.98,76.57 758.65,76.57"/>
<line x1="78" y1="71.01" x2="772" y2="71.01" stroke="#d62728" opacity="0.18" stroke-dasharray="3 4"/>
<polyline fill="none" stroke="#d62728" stroke-width="2.0" points="91.35,261.90 94.02,261.90 96.69,261.90 100.03,261.90 102.70,261.90 105.37,261.90 108.04,261.90 110.72,261.90 113.39,261.90 116.73,261.90 119.40,261.90 122.07,261.90 124.75,261.91 127.42,261.93 130.76,261.96 133.43,261.95 136.10,261.91 138.77,261.82 141.44,261.66 144.12,261.34 147.46,260.76 150.13,260.15 152.80,259.43 155.47,258.67 158.14,257.73 160.82,256.55 164.15,254.60 166.83,252.74 169.50,250.70 172.17,248.57 174.84,246.43 178.18,243.68 180.86,241.24 183.53,238.50 186.20,235.53 188.87,232.51 191.54,229.50 194.88,225.78 197.55,222.86 200.23,219.99 202.90,217.16 205.57,214.43 208.91,211.03 211.58,208.31 214.25,205.88 216.93,203.42 219.60,200.97 222.27,198.51 225.61,195.45 228.28,193.00 230.95,190.55 233.62,188.09 236.30,185.92 239.64,183.22 242.31,181.07 244.98,178.91 247.65,176.76 250.33,174.86 253.00,172.99 256.34,170.69 259.01,168.84 261.68,166.97 264.35,165.12 267.02,163.27 270.36,160.97 273.04,159.10 275.71,157.25 278.38,155.54 281.05,154.02 283.72,152.51 287.06,150.61 289.73,149.11 292.41,147.59 295.08,146.08 297.75,144.56 300.42,143.05 303.76,141.16 306.44,139.86 309.11,138.62 311.78,137.38 314.45,136.13 317.79,134.56 320.46,133.32 323.13,132.08 325.81,130.83 328.48,129.59 331.15,128.36 334.49,127.05 337.16,125.99 339.83,124.93 342.50,123.88 345.18,122.82 348.52,121.51 351.19,120.53 353.86,119.56 356.53,118.63 359.20,117.71 361.88,116.80 365.22,115.70 367.89,114.83 370.56,113.97 373.23,113.13 375.90,112.32 379.24,111.32 381.92,110.53 384.59,109.76 387.26,109.01 389.93,108.27 392.60,107.55 395.94,106.70 398.61,106.02 401.29,105.26 403.96,104.38 406.63,103.40 409.97,102.25 412.64,101.27 415.31,100.29 417.99,99.31 420.66,98.49 423.33,97.51 426.67,96.53 429.34,95.55 432.01,94.73 434.69,94.07 437.36,93.26 440.03,92.60 443.37,91.62 446.04,90.97 448.71,90.31 451.39,89.66 454.06,89.17 457.40,88.35 460.07,87.86 462.74,87.37 465.41,86.71 468.08,86.22 470.76,85.89 474.10,85.24 476.77,84.75 479.44,84.42 482.11,83.93 484.78,83.44 488.12,82.95 490.80,82.46 493.47,82.13 496.14,81.64 498.81,81.31 501.48,80.99 504.82,80.66 507.50,80.33 510.17,80.00 512.84,79.68 515.51,79.35 518.85,79.02 521.52,78.86 524.19,78.53 526.87,78.37 529.54,78.04 532.21,77.88 535.55,77.55 538.22,77.39 540.89,77.22 543.56,77.06 546.24,77.06 549.58,76.90 552.25,76.57 554.92,76.08 557.59,75.42 560.27,74.93 562.94,74.44 566.28,73.79 568.95,73.46 571.62,73.13 574.29,72.81 576.96,72.64 579.64,72.32 582.98,72.15 585.65,71.99 588.32,71.83 590.99,71.66 593.66,71.66 597.00,71.50 599.67,71.50 602.35,71.33 605.02,71.33 607.69,71.17 610.36,71.17 613.70,71.17 616.38,71.17 619.05,71.17 621.72,71.17 624.39,71.17 627.73,71.01 630.40,71.01 633.07,71.01 635.75,71.01 638.42,71.01 641.09,71.01 644.43,71.01 647.10,71.01 649.77,71.01 652.45,71.01 655.12,71.01 658.46,71.01 661.13,71.01 663.80,71.01 666.47,71.01 669.14,71.01 671.82,71.01 675.16,71.01 677.83,71.01 680.50,71.01 683.17,71.01 685.85,71.01 689.18,71.01 691.86,71.01 694.53,71.01 697.20,71.01 699.87,71.01 702.54,71.01 705.88,71.01 708.56,71.01 711.23,71.01 713.90,71.01 716.57,71.01 719.24,71.01 722.58,71.01 725.25,71.01 727.93,71.01 730.60,71.01 733.27,71.01 736.61,71.01 739.28,71.01 741.96,71.01 744.63,71.01 747.30,71.01 749.97,71.01 753.31,71.01 755.98,71.01 758.65,71.01"/>
<line x1="78" y1="267.32" x2="772" y2="267.32" stroke="#2ca02c" opacity="0.18" stroke-dasharray="3 4"/>
<polyline fill="none" stroke="#2ca02c" stroke-width="2.0" points="91.35,76.57 94.02,76.57 96.69,76.57 100.03,76.57 102.70,76.57 105.37,76.57 108.04,76.57 110.72,76.57 113.39,76.41 116.73,76.41 119.40,76.41 122.07,76.41 124.75,76.57 127.42,76.73 130.76,77.06 133.43,77.22 136.10,77.71 138.77,78.04 141.44,78.53 144.12,79.02 147.46,79.84 150.13,80.66 152.80,81.80 155.47,83.60 158.14,85.89 160.82,88.51 164.15,92.11 166.83,95.22 169.50,98.16 172.17,101.27 174.84,104.30 178.18,108.00 180.86,110.96 183.53,113.82 186.20,116.62 188.87,119.43 191.54,122.23 194.88,125.57 197.55,128.20 200.23,130.83 202.90,133.39 205.57,135.87 208.91,138.98 211.58,141.35 214.25,143.73 216.93,146.03 219.60,148.31 222.27,150.53 225.61,153.26 228.28,155.41 230.95,157.52 233.62,159.58 236.30,161.59 239.64,164.08 242.31,166.01 244.98,167.97 247.65,170.18 250.33,172.55 253.00,174.94 256.34,177.85 259.01,180.16 261.68,182.37 264.35,184.54 267.02,186.65 270.36,189.24 273.04,191.22 275.71,193.21 278.38,195.06 281.05,196.89 283.72,198.73 287.06,200.97 289.73,202.67 292.41,204.34 295.08,205.96 297.75,207.53 300.42,209.07 303.76,210.93 306.44,212.37 309.11,213.81 311.78,215.38 314.45,217.15 317.79,219.47 320.46,221.30 323.13,223.05 325.81,224.80 328.48,226.44 331.15,228.07 334.49,229.94 337.16,231.45 339.83,232.84 342.50,234.19 345.18,235.52 348.52,237.02 351.19,238.23 353.86,239.43 356.53,240.46 359.20,241.49 361.88,242.50 365.22,243.80 367.89,244.68 370.56,245.48 373.23,246.30 375.90,247.12 379.24,248.13 381.92,248.93 384.59,249.75 387.26,250.44 389.93,251.01 392.60,251.58 395.94,252.29 398.61,252.86 401.29,253.43 403.96,254.00 406.63,254.57 409.97,255.28 412.64,255.85 415.31,256.35 417.99,256.75 420.66,257.15 423.33,257.55 426.67,258.05 429.34,258.45 432.01,258.80 434.69,259.11 437.36,259.41 440.03,259.72 443.37,260.11 446.04,260.42 448.71,260.72 451.39,260.97 454.06,261.21 457.40,261.52 460.07,261.76 462.74,261.96 465.41,262.16 468.08,262.36 470.76,262.55 474.10,262.78 476.77,262.97 479.44,263.13 482.11,263.30 484.78,263.45 488.12,263.64 490.80,263.78 493.47,263.92 496.14,264.05 498.81,264.18 501.48,264.31 504.82,264.45 507.50,264.57 510.17,264.68 512.84,264.78 515.51,264.88 518.85,264.95 521.52,264.93 524.19,265.02 526.87,265.21 529.54,265.43 532.21,265.65 535.55,265.93 538.22,266.13 540.89,266.31 543.56,266.46 546.24,266.59 549.58,266.72 552.25,266.81 554.92,266.88 557.59,266.96 560.27,267.00 562.94,267.04 566.28,267.09 568.95,267.13 571.62,267.17 574.29,267.19 576.96,267.21 579.64,267.22 582.98,267.24 585.65,267.25 588.32,267.26 590.99,267.28 593.66,267.29 597.00,267.30 599.67,267.30 602.35,267.30 605.02,267.30 607.69,267.31 610.36,267.31 613.70,267.31 616.38,267.31 619.05,267.32 621.72,267.32 624.39,267.32 627.73,267.32 630.40,267.32 633.07,267.32 635.75,267.32 638.42,267.32 641.09,267.32 644.43,267.32 647.10,267.32 649.77,267.32 652.45,267.32 655.12,267.32 658.46,267.32 661.13,267.32 663.80,267.32 666.47,267.32 669.14,267.32 671.82,267.32 675.16,267.32 677.83,267.32 680.50,267.32 683.17,267.32 685.85,267.32 689.18,267.32 691.86,267.32 694.53,267.32 697.20,267.32 699.87,267.32 702.54,267.32 705.88,267.32 708.56,267.32 711.23,267.32 713.90,267.32 716.57,267.32 719.24,267.32 722.58,267.32 725.25,267.32 727.93,267.32 730.60,267.32 733.27,267.32 736.61,267.32 739.28,267.32 741.96,267.32 744.63,267.32 747.30,267.32 749.97,267.32 753.31,267.32 755.98,267.32 758.65,267.32"/>
<line x1="78" y1="71.01" x2="772" y2="71.01" stroke="#9467bd" opacity="0.18" stroke-dasharray="3 4"/>
<polyline fill="none" stroke="#9467bd" stroke-width="2.0" points="91.35,71.01 94.02,71.01 96.69,71.01 100.03,71.01 102.70,71.01 105.37,71.01 108.04,71.01 110.72,71.01 113.39,70.84 116.73,70.68 119.40,70.68 122.07,70.52 124.75,70.35 127.42,70.19 130.76,70.19 133.43,70.19 136.10,70.19 138.77,70.03 141.44,70.03 144.12,70.03 147.46,69.86 150.13,69.86 152.80,70.19 155.47,71.01 158.14,72.64 160.82,74.61 164.15,77.39 166.83,79.84 169.50,82.30 172.17,84.75 174.84,87.20 178.18,90.15 180.86,92.60 183.53,94.89 186.20,97.35 188.87,99.64 191.54,101.93 194.88,104.63 197.55,106.80 200.23,108.98 202.90,111.07 205.57,113.13 208.91,115.69 211.58,117.65 214.25,119.61 216.93,121.53 219.60,123.41 222.27,125.26 225.61,127.51 228.28,129.28 230.95,131.01 233.62,132.73 236.30,134.40 239.64,136.45 242.31,138.05 244.98,139.70 247.65,141.61 250.33,143.79 253.00,146.03 256.34,148.81 259.01,150.97 261.68,153.08 264.35,155.14 267.02,157.17 270.36,159.61 273.04,161.52 275.71,163.41 278.38,165.19 281.05,166.99 283.72,168.72 287.06,170.80 289.73,172.44 292.41,174.02 295.08,175.58 297.75,177.08 300.42,178.55 303.76,180.34 306.44,181.73 309.11,183.07 311.78,184.40 314.45,185.85 317.79,188.06 320.46,190.10 323.13,192.18 325.81,194.21 328.48,196.17 331.15,198.10 334.49,200.43 337.16,202.19 339.83,203.93 342.50,205.55 345.18,207.17 348.52,209.03 351.19,210.47 353.86,211.93 356.53,213.19 359.20,214.45 361.88,215.71 365.22,217.28 367.89,218.31 370.56,219.34 373.23,220.37 375.90,221.38 379.24,222.68 381.92,223.67 384.59,224.43 387.26,225.20 389.93,225.95 392.60,226.70 395.94,227.65 398.61,228.40 401.29,229.15 403.96,229.91 406.63,230.66 409.97,231.45 412.64,232.00 415.31,232.56 417.99,233.10 420.66,233.57 423.33,234.01 426.67,234.57 429.34,235.03 432.01,235.47 434.69,235.91 437.36,236.37 440.03,236.79 443.37,237.22 446.04,237.55 448.71,237.89 451.39,238.22 454.06,238.56 457.40,238.94 460.07,239.22 462.74,239.49 465.41,239.77 468.08,239.98 470.76,240.21 474.10,240.49 476.77,240.70 479.44,240.93 482.11,241.16 484.78,241.38 488.12,241.62 490.80,241.80 493.47,241.96 496.14,242.13 498.81,242.29 501.48,242.44 504.82,242.62 507.50,242.77 510.17,242.90 512.84,243.03 515.51,243.14 518.85,243.29 521.52,243.37 524.19,243.57 526.87,244.71 529.54,246.58 532.21,248.48 535.55,250.73 538.22,252.32 540.89,253.77 543.56,254.94 546.24,255.99 549.58,257.08 552.25,257.80 554.92,258.35 557.59,258.78 560.27,259.21 562.94,259.58 566.28,260.04 568.95,260.25 571.62,260.45 574.29,260.65 576.96,260.85 579.64,261.04 582.98,261.28 585.65,261.34 588.32,261.39 590.99,261.45 593.66,261.50 597.00,261.57 599.67,261.63 602.35,261.68 605.02,261.73 607.69,261.79 610.36,261.84 613.70,261.86 616.38,261.86 619.05,261.87 621.72,261.87 624.39,261.88 627.73,261.88 630.40,261.89 633.07,261.89 635.75,261.89 638.42,261.90 641.09,261.90 644.43,261.90 647.10,261.90 649.77,261.90 652.45,261.90 655.12,261.90 658.46,261.90 661.13,261.90 663.80,261.90 666.47,261.90 669.14,261.90 671.82,261.90 675.16,261.90 677.83,261.90 680.50,261.90 683.17,261.90 685.85,261.90 689.18,261.90 691.86,261.90 694.53,261.90 697.20,261.90 699.87,261.90 702.54,261.90 705.88,261.90 708.56,261.90 711.23,261.90 713.90,261.90 716.57,261.90 719.24,261.90 722.58,261.90 725.25,261.90 727.93,261.90 730.60,261.90 733.27,261.90 736.61,261.90 739.28,261.90 741.96,261.90 744.63,261.90 747.30,261.90 749.97,261.90 753.31,261.90 755.98,261.90 758.65,261.90"/>
<line x1="88" y1="72" x2="110" y2="72" stroke="#1f77b4" stroke-width="2.4"/>
<text x="116" y="76" font-family="Arial, sans-serif" font-size="12">rising #1</text>
<line x1="88" y1="90" x2="110" y2="90" stroke="#d62728" stroke-width="2.4"/>
<text x="116" y="94" font-family="Arial, sans-serif" font-size="12">rising #2</text>
<line x1="88" y1="108" x2="110" y2="108" stroke="#2ca02c" stroke-width="2.4"/>
<text x="116" y="112" font-family="Arial, sans-serif" font-size="12">falling #3</text>
<line x1="88" y1="126" x2="110" y2="126" stroke="#9467bd" stroke-width="2.4"/>
<text x="116" y="130" font-family="Arial, sans-serif" font-size="12">falling #4</text>
<rect x="78" y="342" width="694" height="44" fill="#fffdf7" stroke="#d8c6a1" rx="4"/>
<text x="88" y="359" font-family="Arial, sans-serif" font-size="11" font-weight="700" fill="#4b3b21">Findings needing attention</text>
<rect x="88" y="366" width="7" height="7" fill="#b54708"/>
<text x="102" y="373" font-family="Arial, sans-serif" font-size="11" fill="#333">WARN 5.5.4: Ramp dt versus V-T 20-80% evidence needs review | avg Ramp dt=3.562e-09s, avg V-T 20-80% span=7.384e-...</text>
<text x="425.00" y="322.00" text-anchor="middle" font-family="Arial, sans-serif" font-size="12">Time (s)</text>
<text x="420" y="42" font-family="Arial, sans-serif" font-size="11" fill="#555">solid=V-T voltage, faint horizontal=V_fixture</text>
</svg>