<svg xmlns="http://www.w3.org/2000/svg" width="800" height="450" viewBox="0 0 800 450">
<rect width="100%" height="100%" fill="#ffffff"/>
<text x="78" y="25" font-family="Arial, sans-serif" font-size="16" font-weight="700">mpad_1_S7_1P0_I3C V-T Waveforms</text>
<rect x="78" y="54" width="694" height="230" fill="#fbfbfb" stroke="#c8c8c8"/>
<text transform="translate(18 169.00) rotate(-90)" text-anchor="middle" font-family="Arial, sans-serif" font-size="12">Voltage (V)</text>
<line x1="78.00" y1="54" x2="78.00" y2="284" stroke="#ececec"/>
<text x="78.00" y="302" text-anchor="middle" font-family="Arial, sans-serif" font-size="10">-500p</text>
<line x1="216.80" y1="54" x2="216.80" y2="284" stroke="#ececec"/>
<text x="216.80" y="302" text-anchor="middle" font-family="Arial, sans-serif" font-size="10">4.7n</text>
<line x1="355.60" y1="54" x2="355.60" y2="284" stroke="#ececec"/>
<text x="355.60" y="302" text-anchor="middle" font-family="Arial, sans-serif" font-size="10">9.9n</text>
<line x1="494.40" y1="54" x2="494.40" y2="284" stroke="#ececec"/>
<text x="494.40" y="302" text-anchor="middle" font-family="Arial, sans-serif" font-size="10">15.1n</text>
<line x1="633.20" y1="54" x2="633.20" y2="284" stroke="#ececec"/>
<text x="633.20" y="302" text-anchor="middle" font-family="Arial, sans-serif" font-size="10">20.3n</text>
<line x1="772.00" y1="54" x2="772.00" y2="284" stroke="#ececec"/>
<text x="772.00" y="302" text-anchor="middle" font-family="Arial, sans-serif" font-size="10">25.5n</text>
<line x1="78" y1="284.00" x2="772" y2="284.00" stroke="#ececec"/>
<text x="70" y="288.00" text-anchor="end" font-family="Arial, sans-serif" font-size="10">-0.0843</text>
<line x1="78" y1="226.50" x2="772" y2="226.50" stroke="#ececec"/>
<text x="70" y="230.50" text-anchor="end" font-family="Arial, sans-serif" font-size="10">0.208</text>
<line x1="78" y1="169.00" x2="772" y2="169.00" stroke="#ececec"/>
<text x="70" y="173.00" text-anchor="end" font-family="Arial, sans-serif" font-size="10">0.501</text>
<line x1="78" y1="111.50" x2="772" y2="111.50" stroke="#ececec"/>
<text x="70" y="115.50" text-anchor="end" font-family="Arial, sans-serif" font-size="10">0.794</text>
<line x1="78" y1="54.00" x2="772" y2="54.00" stroke="#ececec"/>
<text x="70" y="58.00" text-anchor="end" font-family="Arial, sans-serif" font-size="10">1.1</text>
<line x1="78" y1="267.44" x2="772" y2="267.44" stroke="#1f77b4" opacity="0.18" stroke-dasharray="3 4"/>
<polyline fill="none" stroke="#1f77b4" stroke-width="2.0" points="91.35,267.44 94.02,267.44 96.69,267.44 100.03,267.44 102.70,267.44 105.37,267.44 108.04,267.44 110.72,267.44 113.39,267.44 116.73,267.44 119.40,267.44 122.07,267.44 124.75,267.44 127.42,267.44 130.76,267.44 133.43,267.44 136.10,267.44 138.77,267.46 141.44,267.49 144.12,267.53 147.46,267.59 150.13,267.63 152.80,267.70 155.47,267.79 158.14,267.90 160.82,268.01 164.15,268.11 166.83,268.14 169.50,268.08 172.17,267.92 174.84,267.61 178.18,266.95 180.86,266.20 183.53,265.30 186.20,264.27 188.87,263.13 191.54,261.86 194.88,260.00 197.55,258.26 200.23,256.41 202.90,254.43 205.57,252.38 208.91,249.78 211.58,247.68 214.25,245.60 216.93,243.52 219.60,241.47 222.27,239.43 225.61,236.94 228.28,234.95 230.95,232.99 233.62,231.10 236.30,229.22 239.64,226.86 242.31,224.98 244.98,223.23 247.65,221.50 250.33,219.75 253.00,218.02 256.34,215.84 259.01,214.12 261.68,212.45 264.35,210.84 267.02,209.26 270.36,207.34 273.04,205.79 275.71,204.26 278.38,202.70 281.05,201.35 283.72,199.99 287.06,198.29 289.73,196.93 292.41,195.56 295.08,194.20 297.75,192.85 300.42,191.47 303.76,189.78 306.44,188.43 309.11,187.05 311.78,185.89 314.45,184.75 317.79,183.32 320.46,182.18 323.13,181.04 325.81,179.88 328.48,178.74 331.15,177.60 334.49,176.19 337.16,175.19 339.83,174.19 342.50,173.17 345.18,172.16 348.52,170.91 351.19,169.95 353.86,169.02 356.53,168.10 359.20,167.20 361.88,166.31 365.22,165.21 367.89,164.35 370.56,163.52 373.23,162.68 375.90,161.87 379.24,160.87 381.92,160.09 384.59,159.32 387.26,158.57 389.93,157.83 392.60,157.08 395.94,156.20 398.61,155.49 401.29,154.82 403.96,154.16 406.63,153.51 409.97,152.68 412.64,151.94 415.31,151.13 417.99,150.27 420.66,149.21 423.33,147.99 426.67,146.44 429.34,145.12 432.01,143.82 434.69,142.51 437.36,141.25 440.03,140.00 443.37,138.44 446.04,137.30 448.71,136.15 451.39,135.01 454.06,133.87 457.40,132.57 460.07,131.55 462.74,130.53 465.41,129.55 468.08,128.64 470.76,127.74 474.10,126.60 476.77,125.70 479.44,124.89 482.11,124.11 484.78,123.32 488.12,122.40 490.80,121.71 493.47,121.00 496.14,120.30 498.81,119.59 501.48,118.92 504.82,118.16 507.50,117.55 510.17,116.94 512.84,116.37 515.51,115.82 518.85,115.15 521.52,114.64 524.19,114.13 526.87,113.66 529.54,113.19 532.21,112.74 535.55,112.19 538.22,111.75 540.89,111.34 543.56,110.93 546.24,110.56 549.58,110.10 552.25,109.83 554.92,109.59 557.59,109.38 560.27,108.87 562.94,107.77 566.28,105.35 568.95,102.88 571.62,100.21 574.29,97.55 576.96,95.24 579.64,92.94 582.98,90.46 585.65,88.79 588.32,87.13 590.99,85.69 593.66,84.65 597.00,83.33 599.67,82.29 602.35,81.63 605.02,81.00 607.69,80.37 610.36,79.98 613.70,79.47 616.38,79.05 619.05,78.82 621.72,78.60 624.39,78.37 627.73,78.09 630.40,77.89 633.07,77.82 635.75,77.72 638.42,77.64 641.09,77.56 644.43,77.44 647.10,77.36 649.77,77.29 652.45,77.21 655.12,77.15 658.46,77.13 661.13,77.11 663.80,77.09 666.47,77.07 669.14,77.07 671.82,77.05 675.16,77.03 677.83,77.01 680.50,77.01 683.17,77.01 685.85,77.01 689.18,76.99 691.86,76.99 694.53,76.99 697.20,76.99 699.87,76.99 702.54,76.97 705.88,76.97 708.56,76.97 711.23,76.97 713.90,76.97 716.57,76.97 719.24,76.97 722.58,76.97 725.25,76.97 727.93,76.97 730.60,76.97 733.27,76.97 736.61,76.97 739.28,76.97 741.96,76.97 744.63,76.97 747.30,76.97 749.97,76.97 753.31,76.97 755.98,76.97 758.65,76.97"/>
<line x1="78" y1="71.04" x2="772" y2="71.04" stroke="#d62728" opacity="0.18" stroke-dasharray="3 4"/>
<polyline fill="none" stroke="#d62728" stroke-width="2.0" points="91.35,261.65 94.02,261.65 96.69,261.65 100.03,261.65 102.70,261.65 105.37,261.65 108.04,261.65 110.72,261.65 113.39,261.65 116.73,261.65 119.40,261.65 122.07,261.65 124.75,261.65 127.42,261.65 130.76,261.65 133.43,261.65 136.10,261.65 138.77,261.67 141.44,261.68 144.12,261.68 147.46,261.63 150.13,261.55 152.80,261.45 155.47,261.31 158.14,261.10 160.82,260.78 164.15,260.20 166.83,259.58 169.50,258.78 172.17,257.83 174.84,256.74 178.18,255.11 180.86,253.60 183.53,251.94 186.20,250.17 188.87,248.29 191.54,246.30 194.88,243.57 197.55,241.14 200.23,238.64 202.90,236.01 205.57,233.34 208.91,229.96 211.58,227.29 214.25,224.64 216.93,222.01 219.60,219.42 222.27,216.83 225.61,213.72 228.28,211.23 230.95,208.73 233.62,206.40 236.30,204.04 239.64,201.11 242.31,198.76 244.98,196.58 247.65,194.40 250.33,192.24 253.00,190.12 256.34,187.46 259.01,185.44 261.68,183.52 264.35,181.59 267.02,179.67 270.36,177.27 273.04,175.35 275.71,173.44 278.38,171.52 281.05,169.59 283.72,167.82 287.06,165.78 289.73,164.15 292.41,162.52 295.08,160.89 297.75,159.26 300.42,157.63 303.76,155.59 306.44,153.96 309.11,152.37 311.78,151.01 314.45,149.64 317.79,147.93 320.46,146.57 323.13,145.20 325.81,143.84 328.48,142.47 331.15,141.11 334.49,139.41 337.16,138.09 339.83,136.91 342.50,135.73 345.18,134.55 348.52,133.08 351.19,131.88 353.86,130.80 356.53,129.72 359.20,128.64 361.88,127.58 365.22,126.31 367.89,125.29 370.56,124.30 373.23,123.32 375.90,122.36 379.24,121.18 381.92,120.28 384.59,119.37 387.26,118.47 389.93,117.61 392.60,116.76 395.94,115.70 398.61,114.88 401.29,114.09 403.96,113.32 406.63,112.56 409.97,111.62 412.64,110.81 415.31,109.97 417.99,109.04 420.66,108.04 423.33,107.04 426.67,105.76 429.34,104.74 432.01,103.76 434.69,102.76 437.36,101.82 440.03,100.89 443.37,99.73 446.04,98.89 448.71,98.04 451.39,97.20 454.06,96.38 457.40,95.43 460.07,94.69 462.74,93.94 465.41,93.25 468.08,92.59 470.76,91.92 474.10,91.09 476.77,90.46 479.44,89.89 482.11,89.34 484.78,88.78 488.12,88.07 490.80,87.50 493.47,87.01 496.14,86.52 498.81,86.05 501.48,85.55 504.82,85.00 507.50,84.57 510.17,84.16 512.84,83.75 515.51,83.35 518.85,82.88 521.52,82.51 524.19,82.16 526.87,81.82 529.54,81.49 532.21,81.15 535.55,80.76 538.22,80.47 540.89,80.17 543.56,79.90 546.24,79.62 549.58,79.31 552.25,79.15 554.92,79.05 557.59,78.94 560.27,78.74 562.94,78.41 566.28,77.80 568.95,77.21 571.62,76.60 574.29,75.99 576.96,75.40 579.64,74.91 582.98,74.30 585.65,73.89 588.32,73.53 590.99,73.18 593.66,72.87 597.00,72.59 599.67,72.36 602.35,72.18 605.02,72.02 607.69,71.88 610.36,71.77 613.70,71.65 616.38,71.57 619.05,71.47 621.72,71.43 624.39,71.39 627.73,71.34 630.40,71.30 633.07,71.26 635.75,71.20 638.42,71.18 641.09,71.18 644.43,71.16 647.10,71.14 649.77,71.14 652.45,71.12 655.12,71.10 658.46,71.08 661.13,71.08 663.80,71.06 666.47,71.06 669.14,71.06 671.82,71.06 675.16,71.06 677.83,71.06 680.50,71.04 683.17,71.04 685.85,71.04 689.18,71.04 691.86,71.04 694.53,71.04 697.20,71.04 699.87,71.04 702.54,71.04 705.88,71.04 708.56,71.04 711.23,71.04 713.90,71.04 716.57,71.04 719.24,71.04 722.58,71.04 725.25,71.04 727.93,71.04 730.60,71.04 733.27,71.04 736.61,71.04 739.28,71.04 741.96,71.04 744.63,71.04 747.30,71.04 749.97,71.04 753.31,71.04 755.98,71.04 758.65,71.04"/>
<line x1="78" y1="267.44" x2="772" y2="267.44" stroke="#2ca02c" opacity="0.18" stroke-dasharray="3 4"/>
<polyline fill="none" stroke="#2ca02c" stroke-width="2.0" points="91.35,76.97 94.02,76.97 96.69,76.97 100.03,76.97 102.70,76.97 105.37,76.97 108.04,76.97 110.72,76.95 113.39,76.91 116.73,76.89 119.40,76.87 122.07,76.85 124.75,76.87 127.42,76.93 130.76,77.07 133.43,77.25 136.10,77.48 138.77,77.78 141.44,78.11 144.12,78.48 147.46,79.05 150.13,79.54 152.80,80.11 155.47,80.82 158.14,81.63 160.82,82.69 164.15,84.45 166.83,86.22 169.50,88.24 172.17,90.60 174.84,93.06 178.18,96.34 180.86,99.05 183.53,101.76 186.20,104.47 188.87,107.20 191.54,109.89 194.88,113.25 197.55,115.90 200.23,118.51 202.90,121.08 205.57,123.62 208.91,126.74 211.58,129.19 214.25,131.63 216.93,133.99 219.60,136.34 222.27,138.66 225.61,141.49 228.28,143.71 230.95,145.89 233.62,148.03 236.30,150.15 239.64,152.72 242.31,154.76 244.98,156.75 247.65,158.71 250.33,160.68 253.00,162.72 256.34,165.49 259.01,167.80 261.68,170.14 264.35,172.44 267.02,174.70 270.36,177.47 273.04,179.63 275.71,181.77 278.38,183.79 281.05,185.83 283.72,187.82 287.06,190.23 289.73,192.10 292.41,193.91 295.08,195.69 297.75,197.44 300.42,199.13 303.76,201.21 306.44,202.82 309.11,204.39 311.78,205.91 314.45,207.40 317.79,209.22 320.46,210.70 323.13,212.29 325.81,213.96 328.48,215.75 331.15,217.53 334.49,219.73 337.16,221.46 339.83,223.13 342.50,224.74 345.18,226.35 348.52,228.22 351.19,229.63 353.86,231.02 356.53,232.40 359.20,233.66 361.88,234.82 365.22,236.25 367.89,237.39 370.56,238.55 373.23,239.69 375.90,240.84 379.24,242.06 381.92,242.99 384.59,243.89 387.26,244.81 389.93,245.66 392.60,246.38 395.94,247.31 398.61,248.04 401.29,248.78 403.96,249.52 406.63,250.26 409.97,251.09 412.64,251.65 415.31,252.22 417.99,252.78 420.66,253.34 423.33,253.90 426.67,254.59 429.34,255.03 432.01,255.48 434.69,255.92 437.36,256.37 440.03,256.82 443.37,257.29 446.04,257.64 448.71,257.99 451.39,258.34 454.06,258.69 457.40,259.13 460.07,259.48 462.74,259.77 465.41,260.05 468.08,260.33 470.76,260.60 474.10,260.90 476.77,261.14 479.44,261.37 482.11,261.60 484.78,261.82 488.12,262.08 490.80,262.28 493.47,262.46 496.14,262.65 498.81,262.83 501.48,263.00 504.82,263.21 507.50,263.37 510.17,263.52 512.84,263.67 515.51,263.81 518.85,263.98 521.52,264.11 524.19,264.23 526.87,264.31 529.54,264.35 532.21,264.40 535.55,264.62 538.22,264.87 540.89,265.12 543.56,265.37 546.24,265.61 549.58,265.90 552.25,266.09 554.92,266.29 557.59,266.45 560.27,266.59 562.94,266.71 566.28,266.84 568.95,266.92 571.62,267.00 574.29,267.04 576.96,267.09 579.64,267.13 582.98,267.19 585.65,267.24 588.32,267.28 590.99,267.29 593.66,267.31 597.00,267.33 599.67,267.34 602.35,267.35 605.02,267.37 607.69,267.38 610.36,267.40 613.70,267.41 616.38,267.41 619.05,267.41 621.72,267.42 624.39,267.42 627.73,267.42 630.40,267.42 633.07,267.43 635.75,267.43 638.42,267.43 641.09,267.43 644.43,267.43 647.10,267.43 649.77,267.43 652.45,267.43 655.12,267.43 658.46,267.44 661.13,267.44 663.80,267.44 666.47,267.44 669.14,267.44 671.82,267.44 675.16,267.44 677.83,267.44 680.50,267.44 683.17,267.44 685.85,267.44 689.18,267.44 691.86,267.44 694.53,267.44 697.20,267.44 699.87,267.44 702.54,267.44 705.88,267.44 708.56,267.44 711.23,267.44 713.90,267.44 716.57,267.44 719.24,267.44 722.58,267.44 725.25,267.44 727.93,267.44 730.60,267.44 733.27,267.44 736.61,267.44 739.28,267.44 741.96,267.44 744.63,267.44 747.30,267.44 749.97,267.44 753.31,267.44 755.98,267.44 758.65,267.44"/>
<line x1="78" y1="71.04" x2="772" y2="71.04" stroke="#9467bd" opacity="0.18" stroke-dasharray="3 4"/>
<polyline fill="none" stroke="#9467bd" stroke-width="2.0" points="91.35,71.04 94.02,71.04 96.69,71.04 100.03,71.04 102.70,71.04 105.37,71.04 108.04,71.04 110.72,71.04 113.39,71.04 116.73,70.84 119.40,70.84 122.07,70.84 124.75,70.65 127.42,70.65 130.76,70.45 133.43,70.25 136.10,70.25 138.77,70.25 141.44,70.06 144.12,70.06 147.46,70.06 150.13,70.06 152.80,69.86 155.47,69.86 158.14,69.86 160.82,70.25 164.15,71.06 166.83,72.08 169.50,73.38 172.17,75.01 174.84,76.79 178.18,79.23 180.86,81.33 183.53,83.41 186.20,85.55 188.87,87.71 191.54,89.84 194.88,92.51 197.55,94.63 200.23,96.71 202.90,98.79 205.57,100.83 208.91,103.35 211.58,105.33 214.25,107.30 216.93,109.22 219.60,111.11 222.27,112.97 225.61,115.27 228.28,117.08 230.95,118.86 233.62,120.61 236.30,122.32 239.64,124.44 242.31,126.11 244.98,127.72 247.65,129.33 250.33,130.94 253.00,132.67 256.34,135.07 259.01,137.15 261.68,139.27 264.35,141.41 267.02,143.51 270.36,146.12 273.04,148.15 275.71,150.15 278.38,152.07 281.05,153.98 283.72,155.84 287.06,158.12 289.73,159.89 292.41,161.62 295.08,163.31 297.75,164.96 300.42,166.59 303.76,168.55 306.44,170.08 309.11,171.58 311.78,173.03 314.45,174.46 317.79,176.21 320.46,177.66 323.13,179.22 325.81,180.94 328.48,182.87 331.15,184.87 334.49,187.41 337.16,189.37 339.83,191.35 342.50,193.28 345.18,195.14 348.52,197.36 351.19,199.05 353.86,200.74 356.53,202.41 359.20,203.90 361.88,205.41 365.22,207.24 367.89,208.56 370.56,209.85 373.23,211.15 375.90,212.47 379.24,213.94 381.92,215.02 384.59,216.10 387.26,217.18 389.93,218.26 392.60,219.28 395.94,220.30 398.61,221.15 401.29,221.97 403.96,222.80 406.63,223.62 409.97,224.66 412.64,225.49 415.31,226.33 417.99,227.08 420.66,227.73 423.33,228.37 426.67,229.12 429.34,229.65 432.01,230.20 434.69,230.75 437.36,231.28 440.03,231.83 443.37,232.48 446.04,232.93 448.71,233.38 451.39,233.81 454.06,234.25 457.40,234.72 460.07,235.11 462.74,235.48 465.41,235.84 468.08,236.15 470.76,236.48 474.10,236.90 476.77,237.21 479.44,237.49 482.11,237.76 484.78,238.04 488.12,238.37 490.80,238.63 493.47,238.84 496.14,239.08 498.81,239.29 501.48,239.51 504.82,239.76 507.50,239.96 510.17,240.16 512.84,240.33 515.51,240.51 518.85,240.73 521.52,240.88 524.19,241.02 526.87,241.14 529.54,241.30 532.21,241.73 535.55,243.34 538.22,245.11 540.89,246.91 543.56,248.66 546.24,250.33 549.58,252.20 552.25,253.41 554.92,254.61 557.59,255.58 560.27,256.47 562.94,257.16 566.28,257.95 568.95,258.45 571.62,258.94 574.29,259.24 576.96,259.53 579.64,259.82 582.98,260.18 585.65,260.47 588.32,260.59 590.99,260.70 593.66,260.81 597.00,260.95 599.67,261.06 602.35,261.17 605.02,261.28 607.69,261.37 610.36,261.40 613.70,261.43 616.38,261.46 619.05,261.48 621.72,261.51 624.39,261.53 627.73,261.55 630.40,261.56 633.07,261.57 635.75,261.58 638.42,261.59 641.09,261.60 644.43,261.61 647.10,261.62 649.77,261.63 652.45,261.63 655.12,261.63 658.46,261.63 661.13,261.64 663.80,261.64 666.47,261.64 669.14,261.64 671.82,261.64 675.16,261.64 677.83,261.64 680.50,261.64 683.17,261.64 685.85,261.64 689.18,261.64 691.86,261.65 694.53,261.65 697.20,261.65 699.87,261.65 702.54,261.65 705.88,261.65 708.56,261.65 711.23,261.65 713.90,261.65 716.57,261.65 719.24,261.65 722.58,261.65 725.25,261.65 727.93,261.65 730.60,261.65 733.27,261.65 736.61,261.65 739.28,261.65 741.96,261.65 744.63,261.65 747.30,261.65 749.97,261.65 753.31,261.65 755.98,261.65 758.65,261.65"/>
<line x1="88" y1="72" x2="110" y2="72" stroke="#1f77b4" stroke-width="2.4"/>
<text x="116" y="76" font-family="Arial, sans-serif" font-size="12">rising #1</text>
<line x1="88" y1="90" x2="110" y2="90" stroke="#d62728" stroke-width="2.4"/>
<text x="116" y="94" font-family="Arial, sans-serif" font-size="12">rising #2</text>
<line x1="88" y1="108" x2="110" y2="108" stroke="#2ca02c" stroke-width="2.4"/>
<text x="116" y="112" font-family="Arial, sans-serif" font-size="12">falling #3</text>
<line x1="88" y1="126" x2="110" y2="126" stroke="#9467bd" stroke-width="2.4"/>
<text x="116" y="130" font-family="Arial, sans-serif" font-size="12">falling #4</text>
<rect x="78" y="342" width="694" height="44" fill="#fffdf7" stroke="#d8c6a1" rx="4"/>
<text x="88" y="359" font-family="Arial, sans-serif" font-size="11" font-weight="700" fill="#4b3b21">Findings needing attention</text>
<rect x="88" y="366" width="7" height="7" fill="#b54708"/>
<text x="102" y="373" font-family="Arial, sans-serif" font-size="11" fill="#333">WARN 5.5.4: Ramp dt versus V-T 20-80% evidence needs review | avg Ramp dt=5.829e-09s, avg V-T 20-80% span=7.763e-...</text>
<text x="425.00" y="322.00" text-anchor="middle" font-family="Arial, sans-serif" font-size="12">Time (s)</text>
<text x="420" y="42" font-family="Arial, sans-serif" font-size="11" fill="#555">solid=V-T voltage, faint horizontal=V_fixture</text>
</svg>