<svg xmlns="http://www.w3.org/2000/svg" width="900" height="620" viewBox="0 0 900 620">
<rect width="100%" height="100%" fill="#ffffff"/>
<text x="72" y="26" font-family="Arial, sans-serif" font-size="16" font-weight="700">mpad_1_S7_1P0 Zout Load-Line Curves</text>
<text x="72" y="45" font-family="Arial, sans-serif" font-size="11" fill="#555">Rload=50 ohm; solid=device I-V, dashed=load line, circles=operating points</text>
<rect x="72.00" y="62.00" width="380.00" height="286.00" fill="#fbfbfb" stroke="#c8c8c8"/>
<text x="80.00" y="50.00" font-family="Arial, sans-serif" font-size="13" font-weight="700">[Pulldown] Rload to Vdd</text>
<line x1="72.00" y1="62.00" x2="72.00" y2="348.00" stroke="#ececec"/>
<text x="72.00" y="366.00" text-anchor="middle" font-family="Arial, sans-serif" font-size="10">-1.1</text>
<line x1="167.00" y1="62.00" x2="167.00" y2="348.00" stroke="#ececec"/>
<text x="167.00" y="366.00" text-anchor="middle" font-family="Arial, sans-serif" font-size="10">-0.31</text>
<line x1="262.00" y1="62.00" x2="262.00" y2="348.00" stroke="#ececec"/>
<text x="262.00" y="366.00" text-anchor="middle" font-family="Arial, sans-serif" font-size="10">0.5</text>
<line x1="357.00" y1="62.00" x2="357.00" y2="348.00" stroke="#ececec"/>
<text x="357.00" y="366.00" text-anchor="middle" font-family="Arial, sans-serif" font-size="10">1.3</text>
<line x1="452.00" y1="62.00" x2="452.00" y2="348.00" stroke="#ececec"/>
<text x="452.00" y="366.00" text-anchor="middle" font-family="Arial, sans-serif" font-size="10">2.1</text>
<line x1="72.00" y1="348.00" x2="452.00" y2="348.00" stroke="#ececec"/>
<text x="65.00" y="352.00" text-anchor="end" font-family="Arial, sans-serif" font-size="10">-49</text>
<line x1="72.00" y1="276.50" x2="452.00" y2="276.50" stroke="#ececec"/>
<text x="65.00" y="280.50" text-anchor="end" font-family="Arial, sans-serif" font-size="10">-17</text>
<line x1="72.00" y1="205.00" x2="452.00" y2="205.00" stroke="#ececec"/>
<text x="65.00" y="209.00" text-anchor="end" font-family="Arial, sans-serif" font-size="10">14</text>
<line x1="72.00" y1="133.50" x2="452.00" y2="133.50" stroke="#ececec"/>
<text x="65.00" y="137.50" text-anchor="end" font-family="Arial, sans-serif" font-size="10">46</text>
<line x1="72.00" y1="62.00" x2="452.00" y2="62.00" stroke="#ececec"/>
<text x="65.00" y="66.00" text-anchor="end" font-family="Arial, sans-serif" font-size="10">78</text>
<line x1="203.36" y1="62" x2="203.36" y2="348" stroke="#777" stroke-dasharray="4 4"/>
<line x1="72.0" y1="237.51" x2="452.0" y2="237.51" stroke="#777" stroke-dasharray="4 4"/>
<polyline fill="none" stroke="#1f77b4" stroke-width="1.8" points="86.07,301.92 97.80,300.12 109.53,297.77 121.26,294.87 132.99,291.12 144.72,286.01 156.44,278.74 168.17,269.00 179.90,258.46 191.63,247.93 203.36,237.51 215.09,227.22 226.81,217.10 238.54,207.21 250.27,197.58 262.00,188.34 273.73,179.58 285.46,171.46 297.19,164.14 308.91,157.79 320.64,152.49 332.37,148.23 344.10,144.80 355.83,142.10 367.56,140.80 379.28,142.46 391.01,146.61 402.74,152.25 414.47,158.82 426.20,166.12 437.93,173.77"/>
<polyline fill="none" stroke="#ff7f0e" stroke-width="1.8" stroke-dasharray="5 4" points="86.07,288.23 97.80,287.33 109.53,285.51 121.26,283.25 132.99,280.19 144.72,276.07 156.44,270.25 168.17,262.58 179.90,254.17 191.63,245.77 203.36,237.51 215.09,229.42 226.81,221.56 238.54,213.99 250.27,206.83 262.00,200.21 273.73,194.31 285.46,189.26 297.19,185.22 308.91,182.07 320.64,179.65 332.37,177.77 344.10,176.24 355.83,175.34 367.56,176.28 379.28,179.43 391.01,184.03 402.74,189.41 414.47,195.32 426.20,200.93 437.93,205.86"/>
<polyline fill="none" stroke="#2ca02c" stroke-width="1.8" stroke-dasharray="2 4" points="86.07,320.32 97.80,317.85 109.53,314.87 121.26,311.19 132.99,306.43 144.72,299.97 156.44,290.72 168.17,278.22 179.90,264.62 191.63,251.01 203.36,237.51 215.09,224.11 226.81,210.85 238.54,197.76 250.27,184.90 262.00,172.31 273.73,160.08 285.46,148.32 297.19,137.17 308.91,126.75 320.64,117.26 332.37,108.84 344.10,101.64 355.83,95.65 367.56,91.02 379.28,89.68 391.01,92.46 402.74,97.85 414.47,104.89 426.20,112.93 437.93,121.73"/>
<polyline fill="none" stroke="#1f77b4" stroke-width="1.1" stroke-dasharray="6 4" points="72.00,142.35 76.81,144.19 81.62,146.03 86.43,147.87 91.24,149.71 96.05,151.56 100.86,153.40 105.67,155.24 110.48,157.08 115.29,158.92 120.10,160.76 124.91,162.60 129.72,164.44 134.53,166.28 139.34,168.12 144.15,169.96 148.96,171.80 153.77,173.65 158.58,175.49 163.39,177.33 168.20,179.17 173.01,181.01 177.82,182.85 182.63,184.69 187.44,186.53 192.25,188.37 197.06,190.21 201.87,192.05 206.68,193.90 211.49,195.74 216.30,197.58 221.11,199.42 225.92,201.26 230.73,203.10 235.54,204.94 240.35,206.78 245.16,208.62 249.97,210.46 254.78,212.30 259.59,214.15 264.41,215.99 269.22,217.83 274.03,219.67 278.84,221.51 283.65,223.35 288.46,225.19 293.27,227.03 298.08,228.87 302.89,230.71 307.70,232.55 312.51,234.39 317.32,236.24 322.13,238.08 326.94,239.92 331.75,241.76 336.56,243.60 341.37,245.44 346.18,247.28 350.99,249.12 355.80,250.96 360.61,252.80 365.42,254.64 370.23,256.49 375.04,258.33 379.85,260.17 384.66,262.01 389.47,263.85 394.28,265.69 399.09,267.53 403.90,269.37 408.71,271.21 413.52,273.05 418.33,274.89 423.14,276.74 427.95,278.58 432.76,280.42 437.57,282.26 442.38,284.10 447.19,285.94 452.00,287.78"/>
<circle cx="239.48" cy="206.45" r="4.6" fill="#ffffff" stroke="#1f77b4" stroke-width="2"/>
<text x="245.48" y="200.45" font-family="Arial, sans-serif" font-size="10" fill="#1f77b4">typ 22.2 ohm</text>
<polyline fill="none" stroke="#ff7f0e" stroke-width="1.1" stroke-dasharray="6 4" points="72.00,144.60 76.81,146.44 81.62,148.28 86.43,150.12 91.24,151.96 96.05,153.80 100.86,155.64 105.67,157.48 110.48,159.32 115.29,161.16 120.10,163.00 124.91,164.84 129.72,166.69 134.53,168.53 139.34,170.37 144.15,172.21 148.96,174.05 153.77,175.89 158.58,177.73 163.39,179.57 168.20,181.41 173.01,183.25 177.82,185.09 182.63,186.94 187.44,188.78 192.25,190.62 197.06,192.46 201.87,194.30 206.68,196.14 211.49,197.98 216.30,199.82 221.11,201.66 225.92,203.50 230.73,205.34 235.54,207.19 240.35,209.03 245.16,210.87 249.97,212.71 254.78,214.55 259.59,216.39 264.41,218.23 269.22,220.07 274.03,221.91 278.84,223.75 283.65,225.59 288.46,227.43 293.27,229.28 298.08,231.12 302.89,232.96 307.70,234.80 312.51,236.64 317.32,238.48 322.13,240.32 326.94,242.16 331.75,244.00 336.56,245.84 341.37,247.68 346.18,249.53 350.99,251.37 355.80,253.21 360.61,255.05 365.42,256.89 370.23,258.73 375.04,260.57 379.85,262.41 384.66,264.25 389.47,266.09 394.28,267.93 399.09,269.78 403.90,271.62 408.71,273.46 413.52,275.30 418.33,277.14 423.14,278.98 427.95,280.82 432.76,282.66 437.57,284.50 442.38,286.34 447.19,288.18 452.00,290.02"/>
<circle cx="244.24" cy="210.51" r="4.6" fill="#ffffff" stroke="#ff7f0e" stroke-width="2"/>
<text x="250.24" y="204.51" font-family="Arial, sans-serif" font-size="10" fill="#ff7f0e">min 29 ohm</text>
<polyline fill="none" stroke="#2ca02c" stroke-width="1.1" stroke-dasharray="6 4" points="72.00,140.11 76.81,141.95 81.62,143.79 86.43,145.63 91.24,147.47 96.05,149.31 100.86,151.15 105.67,152.99 110.48,154.83 115.29,156.67 120.10,158.52 124.91,160.36 129.72,162.20 134.53,164.04 139.34,165.88 144.15,167.72 148.96,169.56 153.77,171.40 158.58,173.24 163.39,175.08 168.20,176.92 173.01,178.77 177.82,180.61 182.63,182.45 187.44,184.29 192.25,186.13 197.06,187.97 201.87,189.81 206.68,191.65 211.49,193.49 216.30,195.33 221.11,197.17 225.92,199.01 230.73,200.86 235.54,202.70 240.35,204.54 245.16,206.38 249.97,208.22 254.78,210.06 259.59,211.90 264.41,213.74 269.22,215.58 274.03,217.42 278.84,219.26 283.65,221.11 288.46,222.95 293.27,224.79 298.08,226.63 302.89,228.47 307.70,230.31 312.51,232.15 317.32,233.99 322.13,235.83 326.94,237.67 331.75,239.51 336.56,241.36 341.37,243.20 346.18,245.04 350.99,246.88 355.80,248.72 360.61,250.56 365.42,252.40 370.23,254.24 375.04,256.08 379.85,257.92 384.66,259.76 389.47,261.60 394.28,263.45 399.09,265.29 403.90,267.13 408.71,268.97 413.52,270.81 418.33,272.65 423.14,274.49 427.95,276.33 432.76,278.17 437.57,280.01 442.38,281.85 447.19,283.70 452.00,285.54"/>
<circle cx="234.48" cy="202.29" r="4.6" fill="#ffffff" stroke="#2ca02c" stroke-width="2"/>
<text x="240.48" y="196.29" font-family="Arial, sans-serif" font-size="10" fill="#2ca02c">max 16.9 ohm</text>
<line x1="82.00" y1="80.00" x2="104.00" y2="80.00" stroke="#1f77b4" stroke-width="2"/>
<text x="110.00" y="84.00" font-family="Arial, sans-serif" font-size="11">typ</text>
<line x1="82.00" y1="97.00" x2="104.00" y2="97.00" stroke="#ff7f0e" stroke-width="2" stroke-dasharray="5 4"/>
<text x="110.00" y="101.00" font-family="Arial, sans-serif" font-size="11">min</text>
<line x1="82.00" y1="114.00" x2="104.00" y2="114.00" stroke="#2ca02c" stroke-width="2" stroke-dasharray="2 4"/>
<text x="110.00" y="118.00" font-family="Arial, sans-serif" font-size="11">max</text>
<text x="262.00" y="386.00" text-anchor="middle" font-family="Arial, sans-serif" font-size="11">Output voltage (V)</text>
<text transform="translate(22.00 205.00) rotate(-90)" text-anchor="middle" font-family="Arial, sans-serif" font-size="11">Current (mA)</text>
<rect x="492.00" y="62.00" width="380.00" height="286.00" fill="#fbfbfb" stroke="#c8c8c8"/>
<text x="500.00" y="50.00" font-family="Arial, sans-serif" font-size="13" font-weight="700">[Pullup] Rload to GND</text>
<line x1="492.00" y1="62.00" x2="492.00" y2="348.00" stroke="#ececec"/>
<text x="492.00" y="366.00" text-anchor="middle" font-family="Arial, sans-serif" font-size="10">-1.1</text>
<line x1="587.00" y1="62.00" x2="587.00" y2="348.00" stroke="#ececec"/>
<text x="587.00" y="366.00" text-anchor="middle" font-family="Arial, sans-serif" font-size="10">-0.31</text>
<line x1="682.00" y1="62.00" x2="682.00" y2="348.00" stroke="#ececec"/>
<text x="682.00" y="366.00" text-anchor="middle" font-family="Arial, sans-serif" font-size="10">0.5</text>
<line x1="777.00" y1="62.00" x2="777.00" y2="348.00" stroke="#ececec"/>
<text x="777.00" y="366.00" text-anchor="middle" font-family="Arial, sans-serif" font-size="10">1.3</text>
<line x1="872.00" y1="62.00" x2="872.00" y2="348.00" stroke="#ececec"/>
<text x="872.00" y="366.00" text-anchor="middle" font-family="Arial, sans-serif" font-size="10">2.1</text>
<line x1="492.00" y1="348.00" x2="872.00" y2="348.00" stroke="#ececec"/>
<text x="485.00" y="352.00" text-anchor="end" font-family="Arial, sans-serif" font-size="10">-75</text>
<line x1="492.00" y1="276.50" x2="872.00" y2="276.50" stroke="#ececec"/>
<text x="485.00" y="280.50" text-anchor="end" font-family="Arial, sans-serif" font-size="10">-45</text>
<line x1="492.00" y1="205.00" x2="872.00" y2="205.00" stroke="#ececec"/>
<text x="485.00" y="209.00" text-anchor="end" font-family="Arial, sans-serif" font-size="10">-15</text>
<line x1="492.00" y1="133.50" x2="872.00" y2="133.50" stroke="#ececec"/>
<text x="485.00" y="137.50" text-anchor="end" font-family="Arial, sans-serif" font-size="10">15</text>
<line x1="492.00" y1="62.00" x2="872.00" y2="62.00" stroke="#ececec"/>
<text x="485.00" y="66.00" text-anchor="end" font-family="Arial, sans-serif" font-size="10">45</text>
<line x1="623.36" y1="62" x2="623.36" y2="348" stroke="#777" stroke-dasharray="4 4"/>
<line x1="492.0" y1="169.14" x2="872.0" y2="169.14" stroke="#777" stroke-dasharray="4 4"/>
<polyline fill="none" stroke="#1f77b4" stroke-width="1.8" points="506.07,107.47 517.80,109.10 529.53,110.98 541.26,113.47 552.99,116.72 564.72,121.30 576.44,128.15 588.17,137.76 599.90,148.28 611.63,158.77 623.36,169.14 635.09,179.34 646.81,189.35 658.54,199.14 670.27,208.61 682.00,217.76 693.73,226.49 705.46,234.77 717.19,242.45 728.91,249.35 740.64,255.31 752.37,260.12 764.10,263.89 775.83,266.72 787.56,268.09 799.28,266.60 811.01,262.78 822.74,257.59 834.47,251.49 846.20,244.80 857.93,237.69"/>
<polyline fill="none" stroke="#ff7f0e" stroke-width="1.8" stroke-dasharray="5 4" points="506.07,120.04 517.80,120.99 529.53,122.60 541.26,124.69 552.99,127.32 564.72,130.95 576.44,136.38 588.17,143.90 599.90,152.37 611.63,160.83 623.36,169.14 635.09,177.25 646.81,185.14 658.54,192.73 670.27,199.97 682.00,206.76 693.73,212.99 705.46,218.50 717.19,223.05 728.91,226.54 740.64,229.07 752.37,230.95 764.10,232.42 775.83,233.34 787.56,232.63 799.28,229.93 811.01,225.90 822.74,220.92 834.47,215.39 846.20,209.46 857.93,203.29"/>
<polyline fill="none" stroke="#2ca02c" stroke-width="1.8" stroke-dasharray="2 4" points="506.07,89.68 517.80,91.79 529.53,94.37 541.26,97.53 552.99,101.70 564.72,107.51 576.44,116.31 588.17,128.74 599.90,142.26 611.63,155.75 623.36,169.14 635.09,182.38 646.81,195.44 658.54,208.32 670.27,220.92 682.00,233.20 693.73,245.16 705.46,256.73 717.19,267.88 728.91,278.51 740.64,288.49 752.37,297.69 764.10,305.90 775.83,312.90 787.56,318.38 799.28,320.32 811.01,318.02 822.74,313.09 834.47,306.61 846.20,299.12 857.93,290.84"/>
<polyline fill="none" stroke="#1f77b4" stroke-width="1.1" stroke-dasharray="6 4" points="492.00,269.71 496.81,267.76 501.62,265.81 506.43,263.87 511.24,261.92 516.05,259.98 520.86,258.03 525.67,256.09 530.48,254.14 535.29,252.20 540.10,250.25 544.91,248.30 549.72,246.36 554.53,244.41 559.34,242.47 564.15,240.52 568.96,238.58 573.77,236.63 578.58,234.69 583.39,232.74 588.20,230.79 593.01,228.85 597.82,226.90 602.63,224.96 607.44,223.01 612.25,221.07 617.06,219.12 621.87,217.18 626.68,215.23 631.49,213.28 636.30,211.34 641.11,209.39 645.92,207.45 650.73,205.50 655.54,203.56 660.35,201.61 665.16,199.67 669.97,197.72 674.78,195.77 679.59,193.83 684.41,191.88 689.22,189.94 694.03,187.99 698.84,186.05 703.65,184.10 708.46,182.16 713.27,180.21 718.08,178.26 722.89,176.32 727.70,174.37 732.51,172.43 737.32,170.48 742.13,168.54 746.94,166.59 751.75,164.64 756.56,162.70 761.37,160.75 766.18,158.81 770.99,156.86 775.80,154.92 780.61,152.97 785.42,151.03 790.23,149.08 795.04,147.13 799.85,145.19 804.66,143.24 809.47,141.30 814.28,139.35 819.09,137.41 823.90,135.46 828.71,133.52 833.52,131.57 838.33,129.62 843.14,127.68 847.95,125.73 852.76,123.79 857.57,121.84 862.38,119.90 867.19,117.95 872.00,116.01"/>
<circle cx="661.19" cy="201.27" r="4.6" fill="#ffffff" stroke="#1f77b4" stroke-width="2"/>
<text x="667.19" y="195.27" font-family="Arial, sans-serif" font-size="10" fill="#1f77b4">typ 23.8 ohm</text>
<polyline fill="none" stroke="#ff7f0e" stroke-width="1.1" stroke-dasharray="6 4" points="492.00,267.33 496.81,265.39 501.62,263.44 506.43,261.50 511.24,259.55 516.05,257.61 520.86,255.66 525.67,253.71 530.48,251.77 535.29,249.82 540.10,247.88 544.91,245.93 549.72,243.99 554.53,242.04 559.34,240.10 564.15,238.15 568.96,236.20 573.77,234.26 578.58,232.31 583.39,230.37 588.20,228.42 593.01,226.48 597.82,224.53 602.63,222.59 607.44,220.64 612.25,218.69 617.06,216.75 621.87,214.80 626.68,212.86 631.49,210.91 636.30,208.97 641.11,207.02 645.92,205.08 650.73,203.13 655.54,201.18 660.35,199.24 665.16,197.29 669.97,195.35 674.78,193.40 679.59,191.46 684.41,189.51 689.22,187.57 694.03,185.62 698.84,183.67 703.65,181.73 708.46,179.78 713.27,177.84 718.08,175.89 722.89,173.95 727.70,172.00 732.51,170.06 737.32,168.11 742.13,166.16 746.94,164.22 751.75,162.27 756.56,160.33 761.37,158.38 766.18,156.44 770.99,154.49 775.80,152.55 780.61,150.60 785.42,148.65 790.23,146.71 795.04,144.76 799.85,142.82 804.66,140.87 809.47,138.93 814.28,136.98 819.09,135.04 823.90,133.09 828.71,131.14 833.52,129.20 838.33,127.25 843.14,125.31 847.95,123.36 852.76,121.42 857.57,119.47 862.38,117.52 867.19,115.58 872.00,113.63"/>
<circle cx="665.63" cy="197.10" r="4.6" fill="#ffffff" stroke="#ff7f0e" stroke-width="2"/>
<text x="671.63" y="191.10" font-family="Arial, sans-serif" font-size="10" fill="#ff7f0e">min 30.6 ohm</text>
<polyline fill="none" stroke="#2ca02c" stroke-width="1.1" stroke-dasharray="6 4" points="492.00,272.08 496.81,270.13 501.62,268.19 506.43,266.24 511.24,264.30 516.05,262.35 520.86,260.40 525.67,258.46 530.48,256.51 535.29,254.57 540.10,252.62 544.91,250.68 549.72,248.73 554.53,246.79 559.34,244.84 564.15,242.89 568.96,240.95 573.77,239.00 578.58,237.06 583.39,235.11 588.20,233.17 593.01,231.22 597.82,229.28 602.63,227.33 607.44,225.38 612.25,223.44 617.06,221.49 621.87,219.55 626.68,217.60 631.49,215.66 636.30,213.71 641.11,211.77 645.92,209.82 650.73,207.87 655.54,205.93 660.35,203.98 665.16,202.04 669.97,200.09 674.78,198.15 679.59,196.20 684.41,194.25 689.22,192.31 694.03,190.36 698.84,188.42 703.65,186.47 708.46,184.53 713.27,182.58 718.08,180.64 722.89,178.69 727.70,176.74 732.51,174.80 737.32,172.85 742.13,170.91 746.94,168.96 751.75,167.02 756.56,165.07 761.37,163.13 766.18,161.18 770.99,159.23 775.80,157.29 780.61,155.34 785.42,153.40 790.23,151.45 795.04,149.51 799.85,147.56 804.66,145.62 809.47,143.67 814.28,141.72 819.09,139.78 823.90,137.83 828.71,135.89 833.52,133.94 838.33,132.00 843.14,130.05 847.95,128.11 852.76,126.16 857.57,124.21 862.38,122.27 867.19,120.32 872.00,118.38"/>
<circle cx="656.14" cy="205.69" r="4.6" fill="#ffffff" stroke="#2ca02c" stroke-width="2"/>
<text x="662.14" y="199.69" font-family="Arial, sans-serif" font-size="10" fill="#2ca02c">max 18.1 ohm</text>
<line x1="502.00" y1="80.00" x2="524.00" y2="80.00" stroke="#1f77b4" stroke-width="2"/>
<text x="530.00" y="84.00" font-family="Arial, sans-serif" font-size="11">typ</text>
<line x1="502.00" y1="97.00" x2="524.00" y2="97.00" stroke="#ff7f0e" stroke-width="2" stroke-dasharray="5 4"/>
<text x="530.00" y="101.00" font-family="Arial, sans-serif" font-size="11">min</text>
<line x1="502.00" y1="114.00" x2="524.00" y2="114.00" stroke="#2ca02c" stroke-width="2" stroke-dasharray="2 4"/>
<text x="530.00" y="118.00" font-family="Arial, sans-serif" font-size="11">max</text>
<text x="682.00" y="386.00" text-anchor="middle" font-family="Arial, sans-serif" font-size="11">Vcc-relative table voltage (V)</text>
<text transform="translate(442.00 205.00) rotate(-90)" text-anchor="middle" font-family="Arial, sans-serif" font-size="11">Current (mA)</text>
<rect x="72.00" y="418.00" width="800.00" height="144.00" fill="#ffffff" stroke="#c8c8c8"/>
<text x="82.00" y="436.00" font-family="Arial, sans-serif" font-size="12" font-weight="700">Operating-point summary</text>
<text x="82.00" y="454.00" font-family="Arial, sans-serif" font-size="10" font-weight="700" fill="#333">Table</text>
<text x="174.00" y="454.00" font-family="Arial, sans-serif" font-size="10" font-weight="700" fill="#333">Corner</text>
<text x="242.00" y="454.00" font-family="Arial, sans-serif" font-size="10" font-weight="700" fill="#333">Vout</text>
<text x="332.00" y="454.00" font-family="Arial, sans-serif" font-size="10" font-weight="700" fill="#333">Iop</text>
<text x="422.00" y="454.00" font-family="Arial, sans-serif" font-size="10" font-weight="700" fill="#333">Zout</text>
<text x="512.00" y="454.00" font-family="Arial, sans-serif" font-size="10" font-weight="700" fill="#333">Rseries</text>
<text x="82.00" y="473.00" font-family="Arial, sans-serif" font-size="10" fill="#1f77b4">pulldown</text>
<text x="174.00" y="473.00" font-family="Arial, sans-serif" font-size="10" fill="#1f77b4">typ</text>
<text x="242.00" y="473.00" font-family="Arial, sans-serif" font-size="10" fill="#1f77b4">0.3079 V</text>
<text x="332.00" y="473.00" font-family="Arial, sans-serif" font-size="10" fill="#1f77b4">14 mA</text>
<text x="422.00" y="473.00" font-family="Arial, sans-serif" font-size="10" fill="#1f77b4">22.2 ohm</text>
<text x="512.00" y="473.00" font-family="Arial, sans-serif" font-size="10" fill="#1f77b4">27.8 ohm</text>
<text x="82.00" y="492.00" font-family="Arial, sans-serif" font-size="10" fill="#ff7f0e">pulldown</text>
<text x="174.00" y="492.00" font-family="Arial, sans-serif" font-size="10" fill="#ff7f0e">min</text>
<text x="242.00" y="492.00" font-family="Arial, sans-serif" font-size="10" fill="#ff7f0e">0.3486 V</text>
<text x="332.00" y="492.00" font-family="Arial, sans-serif" font-size="10" fill="#ff7f0e">12 mA</text>
<text x="422.00" y="492.00" font-family="Arial, sans-serif" font-size="10" fill="#ff7f0e">29 ohm</text>
<text x="512.00" y="492.00" font-family="Arial, sans-serif" font-size="10" fill="#ff7f0e">21 ohm</text>
<text x="82.00" y="511.00" font-family="Arial, sans-serif" font-size="10" fill="#2ca02c">pulldown</text>
<text x="174.00" y="511.00" font-family="Arial, sans-serif" font-size="10" fill="#2ca02c">max</text>
<text x="242.00" y="511.00" font-family="Arial, sans-serif" font-size="10" fill="#2ca02c">0.2654 V</text>
<text x="332.00" y="511.00" font-family="Arial, sans-serif" font-size="10" fill="#2ca02c">16 mA</text>
<text x="422.00" y="511.00" font-family="Arial, sans-serif" font-size="10" fill="#2ca02c">16.9 ohm</text>
<text x="512.00" y="511.00" font-family="Arial, sans-serif" font-size="10" fill="#2ca02c">33.1 ohm</text>
<text x="82.00" y="530.00" font-family="Arial, sans-serif" font-size="10" fill="#1f77b4">pullup</text>
<text x="174.00" y="530.00" font-family="Arial, sans-serif" font-size="10" fill="#1f77b4">typ</text>
<text x="242.00" y="530.00" font-family="Arial, sans-serif" font-size="10" fill="#1f77b4">0.6775 V</text>
<text x="332.00" y="530.00" font-family="Arial, sans-serif" font-size="10" fill="#1f77b4">-14 mA</text>
<text x="422.00" y="530.00" font-family="Arial, sans-serif" font-size="10" fill="#1f77b4">23.8 ohm</text>
<text x="512.00" y="530.00" font-family="Arial, sans-serif" font-size="10" fill="#1f77b4">26.2 ohm</text>
<text x="82.00" y="549.00" font-family="Arial, sans-serif" font-size="10" fill="#ff7f0e">pullup</text>
<text x="174.00" y="549.00" font-family="Arial, sans-serif" font-size="10" fill="#ff7f0e">min</text>
<text x="242.00" y="549.00" font-family="Arial, sans-serif" font-size="10" fill="#ff7f0e">0.5896 V</text>
<text x="332.00" y="549.00" font-family="Arial, sans-serif" font-size="10" fill="#ff7f0e">-12 mA</text>
<text x="422.00" y="549.00" font-family="Arial, sans-serif" font-size="10" fill="#ff7f0e">30.6 ohm</text>
<text x="512.00" y="549.00" font-family="Arial, sans-serif" font-size="10" fill="#ff7f0e">19.4 ohm</text>
<text x="82.00" y="568.00" font-family="Arial, sans-serif" font-size="10" fill="#2ca02c">pullup</text>
<text x="174.00" y="568.00" font-family="Arial, sans-serif" font-size="10" fill="#2ca02c">max</text>
<text x="242.00" y="568.00" font-family="Arial, sans-serif" font-size="10" fill="#2ca02c">0.7705 V</text>
<text x="332.00" y="568.00" font-family="Arial, sans-serif" font-size="10" fill="#2ca02c">-15 mA</text>
<text x="422.00" y="568.00" font-family="Arial, sans-serif" font-size="10" fill="#2ca02c">18.1 ohm</text>
<text x="512.00" y="568.00" font-family="Arial, sans-serif" font-size="10" fill="#2ca02c">31.9 ohm</text>
</svg>