<svg xmlns="http://www.w3.org/2000/svg" width="900" height="620" viewBox="0 0 900 620">
<rect width="100%" height="100%" fill="#ffffff"/>
<text x="72" y="26" font-family="Arial, sans-serif" font-size="16" font-weight="700">mpad_1_S7_1P8 Zout Load-Line Curves</text>
<text x="72" y="45" font-family="Arial, sans-serif" font-size="11" fill="#555">Rload=50 ohm; solid=device I-V, dashed=load line, circles=operating points</text>
<rect x="72.00" y="62.00" width="380.00" height="286.00" fill="#fbfbfb" stroke="#c8c8c8"/>
<text x="80.00" y="50.00" font-family="Arial, sans-serif" font-size="13" font-weight="700">[Pulldown] Rload to Vdd</text>
<line x1="72.00" y1="62.00" x2="72.00" y2="348.00" stroke="#ececec"/>
<text x="72.00" y="366.00" text-anchor="middle" font-family="Arial, sans-serif" font-size="10">-2</text>
<line x1="167.00" y1="62.00" x2="167.00" y2="348.00" stroke="#ececec"/>
<text x="167.00" y="366.00" text-anchor="middle" font-family="Arial, sans-serif" font-size="10">-0.558</text>
<line x1="262.00" y1="62.00" x2="262.00" y2="348.00" stroke="#ececec"/>
<text x="262.00" y="366.00" text-anchor="middle" font-family="Arial, sans-serif" font-size="10">0.9</text>
<line x1="357.00" y1="62.00" x2="357.00" y2="348.00" stroke="#ececec"/>
<text x="357.00" y="366.00" text-anchor="middle" font-family="Arial, sans-serif" font-size="10">2.4</text>
<line x1="452.00" y1="62.00" x2="452.00" y2="348.00" stroke="#ececec"/>
<text x="452.00" y="366.00" text-anchor="middle" font-family="Arial, sans-serif" font-size="10">3.8</text>
<line x1="72.00" y1="348.00" x2="452.00" y2="348.00" stroke="#ececec"/>
<text x="65.00" y="352.00" text-anchor="end" font-family="Arial, sans-serif" font-size="10">-54</text>
<line x1="72.00" y1="276.50" x2="452.00" y2="276.50" stroke="#ececec"/>
<text x="65.00" y="280.50" text-anchor="end" font-family="Arial, sans-serif" font-size="10">-12</text>
<line x1="72.00" y1="205.00" x2="452.00" y2="205.00" stroke="#ececec"/>
<text x="65.00" y="209.00" text-anchor="end" font-family="Arial, sans-serif" font-size="10">29</text>
<line x1="72.00" y1="133.50" x2="452.00" y2="133.50" stroke="#ececec"/>
<text x="65.00" y="137.50" text-anchor="end" font-family="Arial, sans-serif" font-size="10">70</text>
<line x1="72.00" y1="62.00" x2="452.00" y2="62.00" stroke="#ececec"/>
<text x="65.00" y="66.00" text-anchor="end" font-family="Arial, sans-serif" font-size="10">1.1e+02</text>
<line x1="203.36" y1="62" x2="203.36" y2="348" stroke="#777" stroke-dasharray="4 4"/>
<line x1="72.0" y1="255.09" x2="452.0" y2="255.09" stroke="#777" stroke-dasharray="4 4"/>
<polyline fill="none" stroke="#1f77b4" stroke-width="1.8" points="86.07,291.33 92.59,293.06 99.11,294.78 105.62,296.51 112.14,296.51 118.65,298.41 125.17,298.41 131.68,298.23 138.20,297.89 144.72,297.03 151.23,295.97 157.75,294.42 164.26,292.21 170.78,288.95 177.29,284.07 183.81,277.32 190.33,269.94 196.84,262.51 203.36,255.09 209.87,247.71 216.39,240.36 222.91,233.06 229.42,225.81 235.94,218.63 242.45,211.56 248.97,204.57 255.48,197.72 262.00,191.02 268.52,184.50 275.03,178.20 281.55,172.13 288.06,166.35 294.58,160.89 301.09,155.80 307.61,151.11 314.13,146.83 320.64,142.98 327.16,139.56 333.67,136.51 340.19,133.87 346.71,132.23 353.22,132.77 359.74,135.10 366.25,138.56 372.77,142.71 379.28,147.40 385.80,152.42 392.32,157.60 398.83,163.29 405.35,168.81 411.86,175.72 418.38,182.62 424.89,189.52 431.41,194.70 437.93,199.87"/>
<polyline fill="none" stroke="#ff7f0e" stroke-width="1.8" stroke-dasharray="5 4" points="86.07,279.25 92.59,280.98 99.11,282.70 105.62,284.43 112.14,286.16 118.65,287.88 125.17,288.57 131.68,289.43 138.20,289.43 144.72,289.26 151.23,288.36 157.75,287.10 164.26,285.24 170.78,282.53 177.29,278.56 183.81,273.16 190.33,267.17 196.84,261.12 203.36,255.09 209.87,249.10 216.39,243.15 222.91,237.25 229.42,231.44 235.94,225.69 242.45,220.05 248.97,214.51 255.48,209.12 262.00,203.91 268.52,198.89 275.03,194.09 281.55,189.57 288.06,185.35 294.58,181.46 301.09,177.93 307.61,174.75 314.13,171.94 320.64,169.44 327.16,167.23 333.67,165.33 340.19,164.24 346.71,164.81 353.22,166.85 359.74,169.78 366.25,173.23 372.77,177.10 379.28,181.41 385.80,186.24 392.32,192.11 398.83,198.15 405.35,203.33 411.86,208.50 418.38,211.95 424.89,217.13 431.41,218.86 437.93,222.31"/>
<polyline fill="none" stroke="#2ca02c" stroke-width="1.8" stroke-dasharray="2 4" points="86.07,306.86 92.59,308.59 99.11,308.59 105.62,308.59 112.14,308.59 118.65,308.93 125.17,308.76 131.68,308.59 138.20,308.07 144.72,307.26 151.23,306.02 157.75,304.21 164.26,301.57 170.78,297.63 177.29,291.63 183.81,283.14 190.33,273.82 196.84,264.45 203.36,255.09 209.87,245.76 216.39,236.46 222.91,227.19 229.42,217.99 235.94,208.87 242.45,199.84 248.97,190.90 255.48,182.10 262.00,173.47 268.52,165.02 275.03,156.77 281.55,148.80 288.06,141.10 294.58,133.75 301.09,126.80 307.61,120.27 314.13,114.23 320.64,108.71 327.16,103.72 333.67,99.25 340.19,95.27 346.71,91.78 353.22,89.68 359.74,90.51 366.25,93.56 372.77,97.94 379.28,103.19 385.80,108.92 392.32,115.15 398.83,121.88 405.35,128.95 411.86,137.75 418.38,142.93 424.89,149.83 431.41,158.46 437.93,167.09"/>
<polyline fill="none" stroke="#1f77b4" stroke-width="1.1" stroke-dasharray="6 4" points="72.00,123.40 76.81,125.94 81.62,128.49 86.43,131.04 91.24,133.59 96.05,136.13 100.86,138.68 105.67,141.23 110.48,143.78 115.29,146.33 120.10,148.87 124.91,151.42 129.72,153.97 134.53,156.52 139.34,159.06 144.15,161.61 148.96,164.16 153.77,166.71 158.58,169.26 163.39,171.80 168.20,174.35 173.01,176.90 177.82,179.45 182.63,181.99 187.44,184.54 192.25,187.09 197.06,189.64 201.87,192.19 206.68,194.73 211.49,197.28 216.30,199.83 221.11,202.38 225.92,204.93 230.73,207.47 235.54,210.02 240.35,212.57 245.16,215.12 249.97,217.66 254.78,220.21 259.59,222.76 264.41,225.31 269.22,227.86 274.03,230.40 278.84,232.95 283.65,235.50 288.46,238.05 293.27,240.59 298.08,243.14 302.89,245.69 307.70,248.24 312.51,250.79 317.32,253.33 322.13,255.88 326.94,258.43 331.75,260.98 336.56,263.52 341.37,266.07 346.18,268.62 350.99,271.17 355.80,273.72 360.61,276.26 365.42,278.81 370.23,281.36 375.04,283.91 379.85,286.45 384.66,289.00 389.47,291.55 394.28,294.10 399.09,296.65 403.90,299.19 408.71,301.74 413.52,304.29 418.33,306.84 423.14,309.38 427.95,311.93 432.76,314.48 437.57,317.03 442.38,319.58 447.19,322.12 452.00,324.67"/>
<circle cx="241.14" cy="212.98" r="4.6" fill="#ffffff" stroke="#1f77b4" stroke-width="2"/>
<text x="247.14" y="206.98" font-family="Arial, sans-serif" font-size="10" fill="#1f77b4">typ 23.8 ohm</text>
<polyline fill="none" stroke="#ff7f0e" stroke-width="1.1" stroke-dasharray="6 4" points="72.00,126.50 76.81,129.05 81.62,131.60 86.43,134.15 91.24,136.69 96.05,139.24 100.86,141.79 105.67,144.34 110.48,146.88 115.29,149.43 120.10,151.98 124.91,154.53 129.72,157.08 134.53,159.62 139.34,162.17 144.15,164.72 148.96,167.27 153.77,169.81 158.58,172.36 163.39,174.91 168.20,177.46 173.01,180.01 177.82,182.55 182.63,185.10 187.44,187.65 192.25,190.20 197.06,192.74 201.87,195.29 206.68,197.84 211.49,200.39 216.30,202.94 221.11,205.48 225.92,208.03 230.73,210.58 235.54,213.13 240.35,215.67 245.16,218.22 249.97,220.77 254.78,223.32 259.59,225.87 264.41,228.41 269.22,230.96 274.03,233.51 278.84,236.06 283.65,238.60 288.46,241.15 293.27,243.70 298.08,246.25 302.89,248.80 307.70,251.34 312.51,253.89 317.32,256.44 322.13,258.99 326.94,261.53 331.75,264.08 336.56,266.63 341.37,269.18 346.18,271.73 350.99,274.27 355.80,276.82 360.61,279.37 365.42,281.92 370.23,284.46 375.04,287.01 379.85,289.56 384.66,292.11 389.47,294.66 394.28,297.20 399.09,299.75 403.90,302.30 408.71,304.85 413.52,307.39 418.33,309.94 423.14,312.49 427.95,315.04 432.76,317.59 437.57,320.13 442.38,322.68 447.19,325.23 452.00,327.78"/>
<circle cx="244.82" cy="218.04" r="4.6" fill="#ffffff" stroke="#ff7f0e" stroke-width="2"/>
<text x="250.82" y="212.04" font-family="Arial, sans-serif" font-size="10" fill="#ff7f0e">min 29.6 ohm</text>
<polyline fill="none" stroke="#2ca02c" stroke-width="1.1" stroke-dasharray="6 4" points="72.00,120.29 76.81,122.84 81.62,125.39 86.43,127.93 91.24,130.48 96.05,133.03 100.86,135.58 105.67,138.12 110.48,140.67 115.29,143.22 120.10,145.77 124.91,148.32 129.72,150.86 134.53,153.41 139.34,155.96 144.15,158.51 148.96,161.05 153.77,163.60 158.58,166.15 163.39,168.70 168.20,171.25 173.01,173.79 177.82,176.34 182.63,178.89 187.44,181.44 192.25,183.98 197.06,186.53 201.87,189.08 206.68,191.63 211.49,194.18 216.30,196.72 221.11,199.27 225.92,201.82 230.73,204.37 235.54,206.91 240.35,209.46 245.16,212.01 249.97,214.56 254.78,217.11 259.59,219.65 264.41,222.20 269.22,224.75 274.03,227.30 278.84,229.84 283.65,232.39 288.46,234.94 293.27,237.49 298.08,240.04 302.89,242.58 307.70,245.13 312.51,247.68 317.32,250.23 322.13,252.77 326.94,255.32 331.75,257.87 336.56,260.42 341.37,262.97 346.18,265.51 350.99,268.06 355.80,270.61 360.61,273.16 365.42,275.70 370.23,278.25 375.04,280.80 379.85,283.35 384.66,285.90 389.47,288.44 394.28,290.99 399.09,293.54 403.90,296.09 408.71,298.63 413.52,301.18 418.33,303.73 423.14,306.28 427.95,308.83 432.76,311.37 437.57,313.92 442.38,316.47 447.19,319.02 452.00,321.57"/>
<circle cx="236.85" cy="207.60" r="4.6" fill="#ffffff" stroke="#2ca02c" stroke-width="2"/>
<text x="242.85" y="201.60" font-family="Arial, sans-serif" font-size="10" fill="#2ca02c">max 18.7 ohm</text>
<line x1="82.00" y1="80.00" x2="104.00" y2="80.00" stroke="#1f77b4" stroke-width="2"/>
<text x="110.00" y="84.00" font-family="Arial, sans-serif" font-size="11">typ</text>
<line x1="82.00" y1="97.00" x2="104.00" y2="97.00" stroke="#ff7f0e" stroke-width="2" stroke-dasharray="5 4"/>
<text x="110.00" y="101.00" font-family="Arial, sans-serif" font-size="11">min</text>
<line x1="82.00" y1="114.00" x2="104.00" y2="114.00" stroke="#2ca02c" stroke-width="2" stroke-dasharray="2 4"/>
<text x="110.00" y="118.00" font-family="Arial, sans-serif" font-size="11">max</text>
<text x="262.00" y="386.00" text-anchor="middle" font-family="Arial, sans-serif" font-size="11">Output voltage (V)</text>
<text transform="translate(22.00 205.00) rotate(-90)" text-anchor="middle" font-family="Arial, sans-serif" font-size="11">Current (mA)</text>
<rect x="492.00" y="62.00" width="380.00" height="286.00" fill="#fbfbfb" stroke="#c8c8c8"/>
<text x="500.00" y="50.00" font-family="Arial, sans-serif" font-size="13" font-weight="700">[Pullup] Rload to GND</text>
<line x1="492.00" y1="62.00" x2="492.00" y2="348.00" stroke="#ececec"/>
<text x="492.00" y="366.00" text-anchor="middle" font-family="Arial, sans-serif" font-size="10">-2</text>
<line x1="587.00" y1="62.00" x2="587.00" y2="348.00" stroke="#ececec"/>
<text x="587.00" y="366.00" text-anchor="middle" font-family="Arial, sans-serif" font-size="10">-0.558</text>
<line x1="682.00" y1="62.00" x2="682.00" y2="348.00" stroke="#ececec"/>
<text x="682.00" y="366.00" text-anchor="middle" font-family="Arial, sans-serif" font-size="10">0.9</text>
<line x1="777.00" y1="62.00" x2="777.00" y2="348.00" stroke="#ececec"/>
<text x="777.00" y="366.00" text-anchor="middle" font-family="Arial, sans-serif" font-size="10">2.4</text>
<line x1="872.00" y1="62.00" x2="872.00" y2="348.00" stroke="#ececec"/>
<text x="872.00" y="366.00" text-anchor="middle" font-family="Arial, sans-serif" font-size="10">3.8</text>
<line x1="492.00" y1="348.00" x2="872.00" y2="348.00" stroke="#ececec"/>
<text x="485.00" y="352.00" text-anchor="end" font-family="Arial, sans-serif" font-size="10">-1.2e+02</text>
<line x1="492.00" y1="276.50" x2="872.00" y2="276.50" stroke="#ececec"/>
<text x="485.00" y="280.50" text-anchor="end" font-family="Arial, sans-serif" font-size="10">-76</text>
<line x1="492.00" y1="205.00" x2="872.00" y2="205.00" stroke="#ececec"/>
<text x="485.00" y="209.00" text-anchor="end" font-family="Arial, sans-serif" font-size="10">-32</text>
<line x1="492.00" y1="133.50" x2="872.00" y2="133.50" stroke="#ececec"/>
<text x="485.00" y="137.50" text-anchor="end" font-family="Arial, sans-serif" font-size="10">11</text>
<line x1="492.00" y1="62.00" x2="872.00" y2="62.00" stroke="#ececec"/>
<text x="485.00" y="66.00" text-anchor="end" font-family="Arial, sans-serif" font-size="10">55</text>
<line x1="623.36" y1="62" x2="623.36" y2="348" stroke="#777" stroke-dasharray="4 4"/>
<line x1="492.0" y1="151.86" x2="872.0" y2="151.86" stroke="#777" stroke-dasharray="4 4"/>
<polyline fill="none" stroke="#1f77b4" stroke-width="1.8" points="506.07,118.96 512.59,117.32 519.11,117.32 525.62,115.67 532.14,114.03 538.65,114.03 545.17,113.86 551.68,114.03 558.20,114.52 564.72,115.00 571.23,115.80 577.75,117.00 584.26,118.73 590.78,121.38 597.29,125.57 603.81,131.63 610.33,138.36 616.84,145.12 623.36,151.86 629.87,158.57 636.39,165.24 642.91,171.85 649.42,178.43 655.94,184.95 662.45,191.39 668.97,197.76 675.48,204.06 682.00,210.26 688.52,216.37 695.03,222.36 701.55,228.23 708.06,233.95 714.58,239.53 721.09,244.94 727.61,250.16 734.13,255.19 740.64,259.98 747.16,264.54 753.67,268.81 760.19,272.75 766.71,275.77 773.22,276.78 779.74,275.97 786.25,273.88 792.77,270.89 799.28,267.19 805.80,262.91 812.32,258.30 818.83,253.37 825.35,247.94 831.86,242.34 838.38,235.76 844.89,229.18 851.41,222.60 857.93,216.02"/>
<polyline fill="none" stroke="#ff7f0e" stroke-width="1.8" stroke-dasharray="5 4" points="506.07,130.48 512.59,128.83 519.11,127.19 525.62,125.54 532.14,125.54 538.65,123.90 545.17,122.09 551.68,121.76 558.20,121.59 564.72,121.92 571.23,122.69 577.75,123.73 584.26,125.15 590.78,127.25 597.29,130.59 603.81,135.38 610.33,140.84 616.84,146.36 623.36,151.86 629.87,157.32 636.39,162.74 642.91,168.11 649.42,173.43 655.94,178.68 662.45,183.86 668.97,188.98 675.48,193.99 682.00,198.93 688.52,203.75 695.03,208.45 701.55,213.01 708.06,217.42 714.58,221.67 721.09,225.71 727.61,229.55 734.13,233.15 740.64,236.50 747.16,239.56 753.67,242.28 760.19,244.24 766.71,244.63 773.22,243.55 779.74,241.39 786.25,238.48 792.77,234.94 799.28,230.83 805.80,226.39 812.32,221.45 818.83,216.02 825.35,209.44 831.86,204.51 838.38,197.93 844.89,192.99 851.41,186.41 857.93,181.47"/>
<polyline fill="none" stroke="#2ca02c" stroke-width="1.8" stroke-dasharray="2 4" points="506.07,107.44 512.59,105.80 519.11,104.15 525.62,104.15 532.14,104.15 538.65,104.15 545.17,103.99 551.68,104.15 558.20,104.32 564.72,105.11 571.23,106.18 577.75,107.66 584.26,109.83 590.78,113.12 597.29,118.42 603.81,126.18 610.33,134.74 616.84,143.31 623.36,151.86 629.87,160.38 636.39,168.87 642.91,177.30 649.42,185.69 655.94,193.99 662.45,202.24 668.97,210.40 675.48,218.47 682.00,226.45 688.52,234.32 695.03,242.05 701.55,249.66 708.06,257.13 714.58,264.44 721.09,271.56 727.61,278.49 734.13,285.23 740.64,291.73 747.16,298.00 753.67,303.99 760.19,309.68 766.71,314.98 773.22,319.01 779.74,320.32 786.25,319.66 792.77,317.20 799.28,313.78 805.80,309.43 812.32,304.53 818.83,298.94 825.35,293.18 831.86,287.09 838.38,280.18 844.89,273.60 851.41,267.02 857.93,260.44"/>
<polyline fill="none" stroke="#1f77b4" stroke-width="1.1" stroke-dasharray="6 4" points="492.00,277.42 496.81,274.99 501.62,272.56 506.43,270.13 511.24,267.70 516.05,265.27 520.86,262.84 525.67,260.42 530.48,257.99 535.29,255.56 540.10,253.13 544.91,250.70 549.72,248.27 554.53,245.84 559.34,243.41 564.15,240.98 568.96,238.55 573.77,236.13 578.58,233.70 583.39,231.27 588.20,228.84 593.01,226.41 597.82,223.98 602.63,221.55 607.44,219.12 612.25,216.69 617.06,214.27 621.87,211.84 626.68,209.41 631.49,206.98 636.30,204.55 641.11,202.12 645.92,199.69 650.73,197.26 655.54,194.83 660.35,192.41 665.16,189.98 669.97,187.55 674.78,185.12 679.59,182.69 684.41,180.26 689.22,177.83 694.03,175.40 698.84,172.97 703.65,170.54 708.46,168.12 713.27,165.69 718.08,163.26 722.89,160.83 727.70,158.40 732.51,155.97 737.32,153.54 742.13,151.11 746.94,148.68 751.75,146.26 756.56,143.83 761.37,141.40 766.18,138.97 770.99,136.54 775.80,134.11 780.61,131.68 785.42,129.25 790.23,126.82 795.04,124.39 799.85,121.97 804.66,119.54 809.47,117.11 814.28,114.68 819.09,112.25 823.90,109.82 828.71,107.39 833.52,104.96 838.33,102.53 843.14,100.11 847.95,97.68 852.76,95.25 857.57,92.82 862.38,90.39 867.19,87.96 872.00,85.53"/>
<circle cx="662.42" cy="191.36" r="4.6" fill="#ffffff" stroke="#1f77b4" stroke-width="2"/>
<text x="668.42" y="185.36" font-family="Arial, sans-serif" font-size="10" fill="#1f77b4">typ 25 ohm</text>
<polyline fill="none" stroke="#ff7f0e" stroke-width="1.1" stroke-dasharray="6 4" points="492.00,274.46 496.81,272.03 501.62,269.60 506.43,267.17 511.24,264.74 516.05,262.31 520.86,259.88 525.67,257.45 530.48,255.03 535.29,252.60 540.10,250.17 544.91,247.74 549.72,245.31 554.53,242.88 559.34,240.45 564.15,238.02 568.96,235.59 573.77,233.16 578.58,230.74 583.39,228.31 588.20,225.88 593.01,223.45 597.82,221.02 602.63,218.59 607.44,216.16 612.25,213.73 617.06,211.30 621.87,208.88 626.68,206.45 631.49,204.02 636.30,201.59 641.11,199.16 645.92,196.73 650.73,194.30 655.54,191.87 660.35,189.44 665.16,187.01 669.97,184.59 674.78,182.16 679.59,179.73 684.41,177.30 689.22,174.87 694.03,172.44 698.84,170.01 703.65,167.58 708.46,165.15 713.27,162.73 718.08,160.30 722.89,157.87 727.70,155.44 732.51,153.01 737.32,150.58 742.13,148.15 746.94,145.72 751.75,143.29 756.56,140.87 761.37,138.44 766.18,136.01 770.99,133.58 775.80,131.15 780.61,128.72 785.42,126.29 790.23,123.86 795.04,121.43 799.85,119.00 804.66,116.58 809.47,114.15 814.28,111.72 819.09,109.29 823.90,106.86 828.71,104.43 833.52,102.00 838.33,99.57 843.14,97.14 847.95,94.72 852.76,92.29 857.57,89.86 862.38,87.43 867.19,85.00 872.00,82.57"/>
<circle cx="665.96" cy="186.61" r="4.6" fill="#ffffff" stroke="#ff7f0e" stroke-width="2"/>
<text x="671.96" y="180.61" font-family="Arial, sans-serif" font-size="10" fill="#ff7f0e">min 31 ohm</text>
<polyline fill="none" stroke="#2ca02c" stroke-width="1.1" stroke-dasharray="6 4" points="492.00,280.38 496.81,277.95 501.62,275.52 506.43,273.09 511.24,270.66 516.05,268.23 520.86,265.81 525.67,263.38 530.48,260.95 535.29,258.52 540.10,256.09 544.91,253.66 549.72,251.23 554.53,248.80 559.34,246.37 564.15,243.95 568.96,241.52 573.77,239.09 578.58,236.66 583.39,234.23 588.20,231.80 593.01,229.37 597.82,226.94 602.63,224.51 607.44,222.08 612.25,219.66 617.06,217.23 621.87,214.80 626.68,212.37 631.49,209.94 636.30,207.51 641.11,205.08 645.92,202.65 650.73,200.22 655.54,197.80 660.35,195.37 665.16,192.94 669.97,190.51 674.78,188.08 679.59,185.65 684.41,183.22 689.22,180.79 694.03,178.36 698.84,175.93 703.65,173.51 708.46,171.08 713.27,168.65 718.08,166.22 722.89,163.79 727.70,161.36 732.51,158.93 737.32,156.50 742.13,154.07 746.94,151.65 751.75,149.22 756.56,146.79 761.37,144.36 766.18,141.93 770.99,139.50 775.80,137.07 780.61,134.64 785.42,132.21 790.23,129.78 795.04,127.36 799.85,124.93 804.66,122.50 809.47,120.07 814.28,117.64 819.09,115.21 823.90,112.78 828.71,110.35 833.52,107.92 838.33,105.50 843.14,103.07 847.95,100.64 852.76,98.21 857.57,95.78 862.38,93.35 867.19,90.92 872.00,88.49"/>
<circle cx="657.97" cy="196.57" r="4.6" fill="#ffffff" stroke="#2ca02c" stroke-width="2"/>
<text x="663.97" y="190.57" font-family="Arial, sans-serif" font-size="10" fill="#2ca02c">max 19.5 ohm</text>
<line x1="502.00" y1="80.00" x2="524.00" y2="80.00" stroke="#1f77b4" stroke-width="2"/>
<text x="530.00" y="84.00" font-family="Arial, sans-serif" font-size="11">typ</text>
<line x1="502.00" y1="97.00" x2="524.00" y2="97.00" stroke="#ff7f0e" stroke-width="2" stroke-dasharray="5 4"/>
<text x="530.00" y="101.00" font-family="Arial, sans-serif" font-size="11">min</text>
<line x1="502.00" y1="114.00" x2="524.00" y2="114.00" stroke="#2ca02c" stroke-width="2" stroke-dasharray="2 4"/>
<text x="530.00" y="118.00" font-family="Arial, sans-serif" font-size="11">max</text>
<text x="682.00" y="386.00" text-anchor="middle" font-family="Arial, sans-serif" font-size="11">Vcc-relative table voltage (V)</text>
<text transform="translate(442.00 205.00) rotate(-90)" text-anchor="middle" font-family="Arial, sans-serif" font-size="11">Current (mA)</text>
<rect x="72.00" y="418.00" width="800.00" height="144.00" fill="#ffffff" stroke="#c8c8c8"/>
<text x="82.00" y="436.00" font-family="Arial, sans-serif" font-size="12" font-weight="700">Operating-point summary</text>
<text x="82.00" y="454.00" font-family="Arial, sans-serif" font-size="10" font-weight="700" fill="#333">Table</text>
<text x="174.00" y="454.00" font-family="Arial, sans-serif" font-size="10" font-weight="700" fill="#333">Corner</text>
<text x="242.00" y="454.00" font-family="Arial, sans-serif" font-size="10" font-weight="700" fill="#333">Vout</text>
<text x="332.00" y="454.00" font-family="Arial, sans-serif" font-size="10" font-weight="700" fill="#333">Iop</text>
<text x="422.00" y="454.00" font-family="Arial, sans-serif" font-size="10" font-weight="700" fill="#333">Zout</text>
<text x="512.00" y="454.00" font-family="Arial, sans-serif" font-size="10" font-weight="700" fill="#333">Rseries</text>
<text x="82.00" y="473.00" font-family="Arial, sans-serif" font-size="10" fill="#1f77b4">pulldown</text>
<text x="174.00" y="473.00" font-family="Arial, sans-serif" font-size="10" fill="#1f77b4">typ</text>
<text x="242.00" y="473.00" font-family="Arial, sans-serif" font-size="10" fill="#1f77b4">0.5798 V</text>
<text x="332.00" y="473.00" font-family="Arial, sans-serif" font-size="10" fill="#1f77b4">24 mA</text>
<text x="422.00" y="473.00" font-family="Arial, sans-serif" font-size="10" fill="#1f77b4">23.8 ohm</text>
<text x="512.00" y="473.00" font-family="Arial, sans-serif" font-size="10" fill="#1f77b4">26.2 ohm</text>
<text x="82.00" y="492.00" font-family="Arial, sans-serif" font-size="10" fill="#ff7f0e">pulldown</text>
<text x="174.00" y="492.00" font-family="Arial, sans-serif" font-size="10" fill="#ff7f0e">min</text>
<text x="242.00" y="492.00" font-family="Arial, sans-serif" font-size="10" fill="#ff7f0e">0.6363 V</text>
<text x="332.00" y="492.00" font-family="Arial, sans-serif" font-size="10" fill="#ff7f0e">21 mA</text>
<text x="422.00" y="492.00" font-family="Arial, sans-serif" font-size="10" fill="#ff7f0e">29.6 ohm</text>
<text x="512.00" y="492.00" font-family="Arial, sans-serif" font-size="10" fill="#ff7f0e">20.4 ohm</text>
<text x="82.00" y="511.00" font-family="Arial, sans-serif" font-size="10" fill="#2ca02c">pulldown</text>
<text x="174.00" y="511.00" font-family="Arial, sans-serif" font-size="10" fill="#2ca02c">max</text>
<text x="242.00" y="511.00" font-family="Arial, sans-serif" font-size="10" fill="#2ca02c">0.514 V</text>
<text x="332.00" y="511.00" font-family="Arial, sans-serif" font-size="10" fill="#2ca02c">28 mA</text>
<text x="422.00" y="511.00" font-family="Arial, sans-serif" font-size="10" fill="#2ca02c">18.7 ohm</text>
<text x="512.00" y="511.00" font-family="Arial, sans-serif" font-size="10" fill="#2ca02c">31.3 ohm</text>
<text x="82.00" y="530.00" font-family="Arial, sans-serif" font-size="10" fill="#1f77b4">pullup</text>
<text x="174.00" y="530.00" font-family="Arial, sans-serif" font-size="10" fill="#1f77b4">typ</text>
<text x="242.00" y="530.00" font-family="Arial, sans-serif" font-size="10" fill="#1f77b4">1.201 V</text>
<text x="332.00" y="530.00" font-family="Arial, sans-serif" font-size="10" fill="#1f77b4">-24 mA</text>
<text x="422.00" y="530.00" font-family="Arial, sans-serif" font-size="10" fill="#1f77b4">25 ohm</text>
<text x="512.00" y="530.00" font-family="Arial, sans-serif" font-size="10" fill="#1f77b4">25 ohm</text>
<text x="82.00" y="549.00" font-family="Arial, sans-serif" font-size="10" fill="#ff7f0e">pullup</text>
<text x="174.00" y="549.00" font-family="Arial, sans-serif" font-size="10" fill="#ff7f0e">min</text>
<text x="242.00" y="549.00" font-family="Arial, sans-serif" font-size="10" fill="#ff7f0e">1.056 V</text>
<text x="332.00" y="549.00" font-family="Arial, sans-serif" font-size="10" fill="#ff7f0e">-21 mA</text>
<text x="422.00" y="549.00" font-family="Arial, sans-serif" font-size="10" fill="#ff7f0e">31 ohm</text>
<text x="512.00" y="549.00" font-family="Arial, sans-serif" font-size="10" fill="#ff7f0e">19 ohm</text>
<text x="82.00" y="568.00" font-family="Arial, sans-serif" font-size="10" fill="#2ca02c">pullup</text>
<text x="174.00" y="568.00" font-family="Arial, sans-serif" font-size="10" fill="#2ca02c">max</text>
<text x="242.00" y="568.00" font-family="Arial, sans-serif" font-size="10" fill="#2ca02c">1.359 V</text>
<text x="332.00" y="568.00" font-family="Arial, sans-serif" font-size="10" fill="#2ca02c">-27 mA</text>
<text x="422.00" y="568.00" font-family="Arial, sans-serif" font-size="10" fill="#2ca02c">19.5 ohm</text>
<text x="512.00" y="568.00" font-family="Arial, sans-serif" font-size="10" fill="#2ca02c">30.5 ohm</text>
</svg>