<svg xmlns="http://www.w3.org/2000/svg" width="900" height="620" viewBox="0 0 900 620">
<rect width="100%" height="100%" fill="#ffffff"/>
<text x="72" y="26" font-family="Arial, sans-serif" font-size="16" font-weight="700">mpad_1_S7_1P8_I3C Zout Load-Line Curves</text>
<text x="72" y="45" font-family="Arial, sans-serif" font-size="11" fill="#555">Rload=50 ohm; solid=device I-V, dashed=load line, circles=operating points</text>
<rect x="72.00" y="62.00" width="380.00" height="286.00" fill="#fbfbfb" stroke="#c8c8c8"/>
<text x="80.00" y="50.00" font-family="Arial, sans-serif" font-size="13" font-weight="700">[Pulldown] Rload to Vdd</text>
<line x1="72.00" y1="62.00" x2="72.00" y2="348.00" stroke="#ececec"/>
<text x="72.00" y="366.00" text-anchor="middle" font-family="Arial, sans-serif" font-size="10">-2</text>
<line x1="167.00" y1="62.00" x2="167.00" y2="348.00" stroke="#ececec"/>
<text x="167.00" y="366.00" text-anchor="middle" font-family="Arial, sans-serif" font-size="10">-0.558</text>
<line x1="262.00" y1="62.00" x2="262.00" y2="348.00" stroke="#ececec"/>
<text x="262.00" y="366.00" text-anchor="middle" font-family="Arial, sans-serif" font-size="10">0.9</text>
<line x1="357.00" y1="62.00" x2="357.00" y2="348.00" stroke="#ececec"/>
<text x="357.00" y="366.00" text-anchor="middle" font-family="Arial, sans-serif" font-size="10">2.4</text>
<line x1="452.00" y1="62.00" x2="452.00" y2="348.00" stroke="#ececec"/>
<text x="452.00" y="366.00" text-anchor="middle" font-family="Arial, sans-serif" font-size="10">3.8</text>
<line x1="72.00" y1="348.00" x2="452.00" y2="348.00" stroke="#ececec"/>
<text x="65.00" y="352.00" text-anchor="end" font-family="Arial, sans-serif" font-size="10">-51</text>
<line x1="72.00" y1="276.50" x2="452.00" y2="276.50" stroke="#ececec"/>
<text x="65.00" y="280.50" text-anchor="end" font-family="Arial, sans-serif" font-size="10">-16</text>
<line x1="72.00" y1="205.00" x2="452.00" y2="205.00" stroke="#ececec"/>
<text x="65.00" y="209.00" text-anchor="end" font-family="Arial, sans-serif" font-size="10">19</text>
<line x1="72.00" y1="133.50" x2="452.00" y2="133.50" stroke="#ececec"/>
<text x="65.00" y="137.50" text-anchor="end" font-family="Arial, sans-serif" font-size="10">53</text>
<line x1="72.00" y1="62.00" x2="452.00" y2="62.00" stroke="#ececec"/>
<text x="65.00" y="66.00" text-anchor="end" font-family="Arial, sans-serif" font-size="10">88</text>
<line x1="203.36" y1="62" x2="203.36" y2="348" stroke="#777" stroke-dasharray="4 4"/>
<line x1="72.0" y1="242.91" x2="452.0" y2="242.91" stroke="#777" stroke-dasharray="4 4"/>
<polyline fill="none" stroke="#1f77b4" stroke-width="1.8" points="86.07,277.72 92.59,279.77 99.11,279.77 105.62,281.82 112.14,281.82 118.65,282.43 125.17,282.43 131.68,282.03 138.20,281.41 144.72,280.59 151.23,279.42 157.75,277.89 164.26,275.80 170.78,272.81 177.29,268.43 183.81,262.49 190.33,255.98 196.84,249.44 203.36,242.91 209.87,236.40 216.39,229.92 222.91,223.47 229.42,217.06 235.94,210.71 242.45,204.43 248.97,198.22 255.48,192.10 262.00,186.10 268.52,180.20 275.03,174.48 281.55,168.91 288.06,163.57 294.58,158.45 301.09,153.60 307.61,149.05 314.13,144.79 320.64,140.86 327.16,137.25 333.67,133.93 340.19,130.92 346.71,128.79 353.22,128.55 359.74,129.90 366.25,132.19 372.77,135.10 379.28,138.44 385.80,141.94 392.32,145.42 398.83,149.32 405.35,152.80 411.86,158.94 418.38,163.04 424.89,169.18 431.41,173.28 437.93,177.37"/>
<polyline fill="none" stroke="#ff7f0e" stroke-width="1.8" stroke-dasharray="5 4" points="86.07,265.44 92.59,267.48 99.11,269.53 105.62,269.53 112.14,271.58 118.65,271.58 125.17,273.63 131.68,274.04 138.20,274.04 144.72,273.63 151.23,272.73 157.75,271.48 164.26,269.72 170.78,267.22 177.29,263.65 183.81,258.87 190.33,253.57 196.84,248.23 203.36,242.91 209.87,237.61 216.39,232.34 222.91,227.12 229.42,221.94 235.94,216.84 242.45,211.78 248.97,206.82 255.48,201.97 262.00,197.26 268.52,192.67 275.03,188.25 281.55,184.03 288.06,180.01 294.58,176.25 301.09,172.76 307.61,169.53 314.13,166.58 320.64,163.88 327.16,161.40 333.67,159.19 340.19,157.67 346.71,157.61 353.22,158.84 359.74,160.87 366.25,163.28 372.77,165.90 379.28,168.98 385.80,172.46 392.32,176.55 398.83,181.47 405.35,185.56 411.86,189.66 418.38,193.76 424.89,197.85 431.41,197.85 437.93,201.95"/>
<polyline fill="none" stroke="#2ca02c" stroke-width="1.8" stroke-dasharray="2 4" points="86.07,292.06 92.59,292.06 99.11,292.06 105.62,292.06 112.14,292.06 118.65,292.27 125.17,291.86 131.68,291.24 138.20,290.63 144.72,289.66 151.23,288.35 157.75,286.55 164.26,284.03 170.78,280.43 177.29,275.04 183.81,267.57 190.33,259.37 196.84,251.14 203.36,242.91 209.87,234.70 216.39,226.51 222.91,218.35 229.42,210.24 235.94,202.17 242.45,194.19 248.97,186.26 255.48,178.44 262.00,170.72 268.52,163.14 275.03,155.70 281.55,148.45 288.06,141.43 294.58,134.63 301.09,128.12 307.61,121.91 314.13,116.08 320.64,110.61 327.16,105.53 333.67,100.84 340.19,96.52 346.71,92.59 353.22,89.84 359.74,89.68 366.25,91.42 372.77,94.29 379.28,97.89 385.80,101.99 392.32,106.51 398.83,111.22 405.35,116.14 411.86,122.08 418.38,126.17 424.89,130.27 431.41,136.41 437.93,144.60"/>
<polyline fill="none" stroke="#1f77b4" stroke-width="1.1" stroke-dasharray="6 4" points="72.00,86.61 76.81,89.63 81.62,92.65 86.43,95.68 91.24,98.70 96.05,101.72 100.86,104.75 105.67,107.77 110.48,110.80 115.29,113.82 120.10,116.84 124.91,119.87 129.72,122.89 134.53,125.91 139.34,128.94 144.15,131.96 148.96,134.99 153.77,138.01 158.58,141.03 163.39,144.06 168.20,147.08 173.01,150.10 177.82,153.13 182.63,156.15 187.44,159.18 192.25,162.20 197.06,165.22 201.87,168.25 206.68,171.27 211.49,174.29 216.30,177.32 221.11,180.34 225.92,183.37 230.73,186.39 235.54,189.41 240.35,192.44 245.16,195.46 249.97,198.49 254.78,201.51 259.59,204.53 264.41,207.56 269.22,210.58 274.03,213.60 278.84,216.63 283.65,219.65 288.46,222.68 293.27,225.70 298.08,228.72 302.89,231.75 307.70,234.77 312.51,237.79 317.32,240.82 322.13,243.84 326.94,246.87 331.75,249.89 336.56,252.91 341.37,255.94 346.18,258.96 350.99,261.98 355.80,265.01 360.61,268.03 365.42,271.06 370.23,274.08 375.04,277.10 379.85,280.13 384.66,283.15 389.47,286.17 394.28,289.20 399.09,292.22 403.90,295.25 408.71,298.27 413.52,301.29 418.33,304.32 423.14,307.34 427.95,310.36 432.76,313.39 437.57,316.41 442.38,319.44 447.19,322.46 452.00,325.48"/>
<circle cx="249.20" cy="198.00" r="4.6" fill="#ffffff" stroke="#1f77b4" stroke-width="2"/>
<text x="255.20" y="192.00" font-family="Arial, sans-serif" font-size="10" fill="#1f77b4">typ 32.1 ohm</text>
<polyline fill="none" stroke="#ff7f0e" stroke-width="1.1" stroke-dasharray="6 4" points="72.00,90.29 76.81,93.32 81.62,96.34 86.43,99.36 91.24,102.39 96.05,105.41 100.86,108.43 105.67,111.46 110.48,114.48 115.29,117.51 120.10,120.53 124.91,123.55 129.72,126.58 134.53,129.60 139.34,132.62 144.15,135.65 148.96,138.67 153.77,141.70 158.58,144.72 163.39,147.74 168.20,150.77 173.01,153.79 177.82,156.81 182.63,159.84 187.44,162.86 192.25,165.89 197.06,168.91 201.87,171.93 206.68,174.96 211.49,177.98 216.30,181.01 221.11,184.03 225.92,187.05 230.73,190.08 235.54,193.10 240.35,196.12 245.16,199.15 249.97,202.17 254.78,205.20 259.59,208.22 264.41,211.24 269.22,214.27 274.03,217.29 278.84,220.31 283.65,223.34 288.46,226.36 293.27,229.39 298.08,232.41 302.89,235.43 307.70,238.46 312.51,241.48 317.32,244.50 322.13,247.53 326.94,250.55 331.75,253.58 336.56,256.60 341.37,259.62 346.18,262.65 350.99,265.67 355.80,268.69 360.61,271.72 365.42,274.74 370.23,277.77 375.04,280.79 379.85,283.81 384.66,286.84 389.47,289.86 394.28,292.88 399.09,295.91 403.90,298.93 408.71,301.96 413.52,304.98 418.33,308.00 423.14,311.03 427.95,314.05 432.76,317.07 437.57,320.10 442.38,323.12 447.19,326.15 452.00,329.17"/>
<circle cx="252.82" cy="203.96" r="4.6" fill="#ffffff" stroke="#ff7f0e" stroke-width="2"/>
<text x="258.82" y="197.96" font-family="Arial, sans-serif" font-size="10" fill="#ff7f0e">min 39.9 ohm</text>
<polyline fill="none" stroke="#2ca02c" stroke-width="1.1" stroke-dasharray="6 4" points="72.00,82.92 76.81,85.94 81.62,88.97 86.43,91.99 91.24,95.01 96.05,98.04 100.86,101.06 105.67,104.09 110.48,107.11 115.29,110.13 120.10,113.16 124.91,116.18 129.72,119.20 134.53,122.23 139.34,125.25 144.15,128.28 148.96,131.30 153.77,134.32 158.58,137.35 163.39,140.37 168.20,143.39 173.01,146.42 177.82,149.44 182.63,152.47 187.44,155.49 192.25,158.51 197.06,161.54 201.87,164.56 206.68,167.58 211.49,170.61 216.30,173.63 221.11,176.66 225.92,179.68 230.73,182.70 235.54,185.73 240.35,188.75 245.16,191.77 249.97,194.80 254.78,197.82 259.59,200.85 264.41,203.87 269.22,206.89 274.03,209.92 278.84,212.94 283.65,215.97 288.46,218.99 293.27,222.01 298.08,225.04 302.89,228.06 307.70,231.08 312.51,234.11 317.32,237.13 322.13,240.16 326.94,243.18 331.75,246.20 336.56,249.23 341.37,252.25 346.18,255.27 350.99,258.30 355.80,261.32 360.61,264.35 365.42,267.37 370.23,270.39 375.04,273.42 379.85,276.44 384.66,279.46 389.47,282.49 394.28,285.51 399.09,288.54 403.90,291.56 408.71,294.58 413.52,297.61 418.33,300.63 423.14,303.65 427.95,306.68 432.76,309.70 437.57,312.73 442.38,315.75 447.19,318.77 452.00,321.80"/>
<circle cx="244.68" cy="191.47" r="4.6" fill="#ffffff" stroke="#2ca02c" stroke-width="2"/>
<text x="250.68" y="185.47" font-family="Arial, sans-serif" font-size="10" fill="#2ca02c">max 25.3 ohm</text>
<line x1="82.00" y1="80.00" x2="104.00" y2="80.00" stroke="#1f77b4" stroke-width="2"/>
<text x="110.00" y="84.00" font-family="Arial, sans-serif" font-size="11">typ</text>
<line x1="82.00" y1="97.00" x2="104.00" y2="97.00" stroke="#ff7f0e" stroke-width="2" stroke-dasharray="5 4"/>
<text x="110.00" y="101.00" font-family="Arial, sans-serif" font-size="11">min</text>
<line x1="82.00" y1="114.00" x2="104.00" y2="114.00" stroke="#2ca02c" stroke-width="2" stroke-dasharray="2 4"/>
<text x="110.00" y="118.00" font-family="Arial, sans-serif" font-size="11">max</text>
<text x="262.00" y="386.00" text-anchor="middle" font-family="Arial, sans-serif" font-size="11">Output voltage (V)</text>
<text transform="translate(22.00 205.00) rotate(-90)" text-anchor="middle" font-family="Arial, sans-serif" font-size="11">Current (mA)</text>
<rect x="492.00" y="62.00" width="380.00" height="286.00" fill="#fbfbfb" stroke="#c8c8c8"/>
<text x="500.00" y="50.00" font-family="Arial, sans-serif" font-size="13" font-weight="700">[Pullup] Rload to GND</text>
<line x1="492.00" y1="62.00" x2="492.00" y2="348.00" stroke="#ececec"/>
<text x="492.00" y="366.00" text-anchor="middle" font-family="Arial, sans-serif" font-size="10">-2</text>
<line x1="587.00" y1="62.00" x2="587.00" y2="348.00" stroke="#ececec"/>
<text x="587.00" y="366.00" text-anchor="middle" font-family="Arial, sans-serif" font-size="10">-0.558</text>
<line x1="682.00" y1="62.00" x2="682.00" y2="348.00" stroke="#ececec"/>
<text x="682.00" y="366.00" text-anchor="middle" font-family="Arial, sans-serif" font-size="10">0.9</text>
<line x1="777.00" y1="62.00" x2="777.00" y2="348.00" stroke="#ececec"/>
<text x="777.00" y="366.00" text-anchor="middle" font-family="Arial, sans-serif" font-size="10">2.4</text>
<line x1="872.00" y1="62.00" x2="872.00" y2="348.00" stroke="#ececec"/>
<text x="872.00" y="366.00" text-anchor="middle" font-family="Arial, sans-serif" font-size="10">3.8</text>
<line x1="492.00" y1="348.00" x2="872.00" y2="348.00" stroke="#ececec"/>
<text x="485.00" y="352.00" text-anchor="end" font-family="Arial, sans-serif" font-size="10">-98</text>
<line x1="492.00" y1="276.50" x2="872.00" y2="276.50" stroke="#ececec"/>
<text x="485.00" y="280.50" text-anchor="end" font-family="Arial, sans-serif" font-size="10">-60</text>
<line x1="492.00" y1="205.00" x2="872.00" y2="205.00" stroke="#ececec"/>
<text x="485.00" y="209.00" text-anchor="end" font-family="Arial, sans-serif" font-size="10">-23</text>
<line x1="492.00" y1="133.50" x2="872.00" y2="133.50" stroke="#ececec"/>
<text x="485.00" y="137.50" text-anchor="end" font-family="Arial, sans-serif" font-size="10">15</text>
<line x1="492.00" y1="62.00" x2="872.00" y2="62.00" stroke="#ececec"/>
<text x="485.00" y="66.00" text-anchor="end" font-family="Arial, sans-serif" font-size="10">52</text>
<line x1="623.36" y1="62" x2="623.36" y2="348" stroke="#777" stroke-dasharray="4 4"/>
<line x1="492.0" y1="161.75" x2="872.0" y2="161.75" stroke="#777" stroke-dasharray="4 4"/>
<polyline fill="none" stroke="#1f77b4" stroke-width="1.8" points="506.07,129.34 512.59,129.34 519.11,127.43 525.62,127.43 532.14,127.43 538.65,127.43 545.17,127.05 551.68,127.43 558.20,128.19 564.72,129.13 571.23,129.91 577.75,131.04 584.26,132.64 590.78,135.00 597.29,138.68 603.81,144.00 610.33,149.90 616.84,155.84 623.36,161.75 629.87,167.65 636.39,173.53 642.91,179.38 649.42,185.19 655.94,190.99 662.45,196.72 668.97,202.44 675.48,208.11 682.00,213.71 688.52,219.28 695.03,224.77 701.55,230.21 708.06,235.55 714.58,240.83 721.09,246.00 727.61,251.07 734.13,256.01 740.64,260.81 747.16,265.46 753.67,269.95 760.19,274.16 766.71,277.69 773.22,279.57 779.74,280.01 786.25,279.38 792.77,278.03 799.28,276.16 805.80,273.68 812.32,271.01 818.83,267.96 825.35,263.58 831.86,259.00 838.38,255.19 844.89,251.37 851.41,245.65 857.93,239.93"/>
<polyline fill="none" stroke="#ff7f0e" stroke-width="1.8" stroke-dasharray="5 4" points="506.07,138.87 512.59,138.87 519.11,138.87 525.62,135.06 532.14,135.06 538.65,135.06 545.17,134.87 551.68,134.11 558.20,134.30 564.72,134.87 571.23,135.78 577.75,136.85 584.26,138.17 590.78,140.05 597.29,143.00 603.81,147.22 610.33,152.03 616.84,156.90 623.36,161.75 629.87,166.58 636.39,171.39 642.91,176.16 649.42,180.90 655.94,185.61 662.45,190.26 668.97,194.89 675.48,199.45 682.00,203.97 688.52,208.43 695.03,212.82 701.55,217.11 708.06,221.34 714.58,225.44 721.09,229.45 727.61,233.32 734.13,237.03 740.64,240.56 747.16,243.92 753.67,246.99 760.19,249.47 766.71,250.69 773.22,250.67 779.74,249.81 786.25,248.30 792.77,246.42 799.28,243.75 805.80,240.89 812.32,237.45 818.83,234.21 825.35,228.49 831.86,224.68 838.38,220.86 844.89,215.14 851.41,209.42 857.93,205.61"/>
<polyline fill="none" stroke="#2ca02c" stroke-width="1.8" stroke-dasharray="2 4" points="506.07,117.90 512.59,115.99 519.11,115.99 525.62,115.99 532.14,117.90 538.65,117.90 545.17,118.47 551.68,119.04 558.20,119.61 564.72,120.43 571.23,121.48 577.75,122.91 584.26,124.90 590.78,127.85 597.29,132.48 603.81,139.29 610.33,146.76 616.84,154.27 623.36,161.75 629.87,169.22 636.39,176.67 642.91,184.08 649.42,191.48 655.94,198.82 662.45,206.14 668.97,213.41 675.48,220.64 682.00,227.81 688.52,234.92 695.03,241.95 701.55,248.93 708.06,255.83 714.58,262.64 721.09,269.35 727.61,275.97 734.13,282.45 740.64,288.82 747.16,295.04 753.67,301.08 760.19,306.94 766.71,312.54 773.22,317.14 779.74,319.62 786.25,320.32 792.77,319.79 799.28,318.38 805.80,316.36 812.32,313.53 818.83,310.48 825.35,307.05 831.86,303.24 838.38,299.04 844.89,295.23 851.41,289.51 857.93,285.70"/>
<polyline fill="none" stroke="#1f77b4" stroke-width="1.1" stroke-dasharray="6 4" points="492.00,307.28 496.81,304.46 501.62,301.65 506.43,298.83 511.24,296.02 516.05,293.20 520.86,290.39 525.67,287.57 530.48,284.76 535.29,281.94 540.10,279.13 544.91,276.31 549.72,273.50 554.53,270.68 559.34,267.87 564.15,265.05 568.96,262.24 573.77,259.42 578.58,256.60 583.39,253.79 588.20,250.97 593.01,248.16 597.82,245.34 602.63,242.53 607.44,239.71 612.25,236.90 617.06,234.08 621.87,231.27 626.68,228.45 631.49,225.64 636.30,222.82 641.11,220.01 645.92,217.19 650.73,214.38 655.54,211.56 660.35,208.75 665.16,205.93 669.97,203.11 674.78,200.30 679.59,197.48 684.41,194.67 689.22,191.85 694.03,189.04 698.84,186.22 703.65,183.41 708.46,180.59 713.27,177.78 718.08,174.96 722.89,172.15 727.70,169.33 732.51,166.52 737.32,163.70 742.13,160.89 746.94,158.07 751.75,155.25 756.56,152.44 761.37,149.62 766.18,146.81 770.99,143.99 775.80,141.18 780.61,138.36 785.42,135.55 790.23,132.73 795.04,129.92 799.85,127.10 804.66,124.29 809.47,121.47 814.28,118.66 819.09,115.84 823.90,113.03 828.71,110.21 833.52,107.39 838.33,104.58 843.14,101.76 847.95,98.95 852.76,96.13 857.57,93.32 862.38,90.50 867.19,87.69 872.00,84.87"/>
<circle cx="669.83" cy="203.20" r="4.6" fill="#ffffff" stroke="#1f77b4" stroke-width="2"/>
<text x="675.83" y="197.20" font-family="Arial, sans-serif" font-size="10" fill="#1f77b4">typ 32.8 ohm</text>
<polyline fill="none" stroke="#ff7f0e" stroke-width="1.1" stroke-dasharray="6 4" points="492.00,303.85 496.81,301.03 501.62,298.22 506.43,295.40 511.24,292.59 516.05,289.77 520.86,286.96 525.67,284.14 530.48,281.33 535.29,278.51 540.10,275.70 544.91,272.88 549.72,270.06 554.53,267.25 559.34,264.43 564.15,261.62 568.96,258.80 573.77,255.99 578.58,253.17 583.39,250.36 588.20,247.54 593.01,244.73 597.82,241.91 602.63,239.10 607.44,236.28 612.25,233.47 617.06,230.65 621.87,227.84 626.68,225.02 631.49,222.20 636.30,219.39 641.11,216.57 645.92,213.76 650.73,210.94 655.54,208.13 660.35,205.31 665.16,202.50 669.97,199.68 674.78,196.87 679.59,194.05 684.41,191.24 689.22,188.42 694.03,185.61 698.84,182.79 703.65,179.98 708.46,177.16 713.27,174.34 718.08,171.53 722.89,168.71 727.70,165.90 732.51,163.08 737.32,160.27 742.13,157.45 746.94,154.64 751.75,151.82 756.56,149.01 761.37,146.19 766.18,143.38 770.99,140.56 775.80,137.75 780.61,134.93 785.42,132.12 790.23,129.30 795.04,126.48 799.85,123.67 804.66,120.85 809.47,118.04 814.28,115.22 819.09,112.41 823.90,109.59 828.71,106.78 833.52,103.96 838.33,101.15 843.14,98.33 847.95,95.52 852.76,92.70 857.57,89.89 862.38,87.07 867.19,84.26 872.00,81.44"/>
<circle cx="673.15" cy="197.82" r="4.6" fill="#ffffff" stroke="#ff7f0e" stroke-width="2"/>
<text x="679.15" y="191.82" font-family="Arial, sans-serif" font-size="10" fill="#ff7f0e">min 40.4 ohm</text>
<polyline fill="none" stroke="#2ca02c" stroke-width="1.1" stroke-dasharray="6 4" points="492.00,310.71 496.81,307.90 501.62,305.08 506.43,302.27 511.24,299.45 516.05,296.64 520.86,293.82 525.67,291.01 530.48,288.19 535.29,285.37 540.10,282.56 544.91,279.74 549.72,276.93 554.53,274.11 559.34,271.30 564.15,268.48 568.96,265.67 573.77,262.85 578.58,260.04 583.39,257.22 588.20,254.41 593.01,251.59 597.82,248.78 602.63,245.96 607.44,243.15 612.25,240.33 617.06,237.51 621.87,234.70 626.68,231.88 631.49,229.07 636.30,226.25 641.11,223.44 645.92,220.62 650.73,217.81 655.54,214.99 660.35,212.18 665.16,209.36 669.97,206.55 674.78,203.73 679.59,200.92 684.41,198.10 689.22,195.29 694.03,192.47 698.84,189.65 703.65,186.84 708.46,184.02 713.27,181.21 718.08,178.39 722.89,175.58 727.70,172.76 732.51,169.95 737.32,167.13 742.13,164.32 746.94,161.50 751.75,158.69 756.56,155.87 761.37,153.06 766.18,150.24 770.99,147.43 775.80,144.61 780.61,141.80 785.42,138.98 790.23,136.16 795.04,133.35 799.85,130.53 804.66,127.72 809.47,124.90 814.28,122.09 819.09,119.27 823.90,116.46 828.71,113.64 833.52,110.83 838.33,108.01 843.14,105.20 847.95,102.38 852.76,99.57 857.57,96.75 862.38,93.94 867.19,91.12 872.00,88.30"/>
<circle cx="665.28" cy="209.30" r="4.6" fill="#ffffff" stroke="#2ca02c" stroke-width="2"/>
<text x="671.28" y="203.30" font-family="Arial, sans-serif" font-size="10" fill="#2ca02c">max 25.8 ohm</text>
<line x1="502.00" y1="80.00" x2="524.00" y2="80.00" stroke="#1f77b4" stroke-width="2"/>
<text x="530.00" y="84.00" font-family="Arial, sans-serif" font-size="11">typ</text>
<line x1="502.00" y1="97.00" x2="524.00" y2="97.00" stroke="#ff7f0e" stroke-width="2" stroke-dasharray="5 4"/>
<text x="530.00" y="101.00" font-family="Arial, sans-serif" font-size="11">min</text>
<line x1="502.00" y1="114.00" x2="524.00" y2="114.00" stroke="#2ca02c" stroke-width="2" stroke-dasharray="2 4"/>
<text x="530.00" y="118.00" font-family="Arial, sans-serif" font-size="11">max</text>
<text x="682.00" y="386.00" text-anchor="middle" font-family="Arial, sans-serif" font-size="11">Vcc-relative table voltage (V)</text>
<text transform="translate(442.00 205.00) rotate(-90)" text-anchor="middle" font-family="Arial, sans-serif" font-size="11">Current (mA)</text>
<rect x="72.00" y="418.00" width="800.00" height="144.00" fill="#ffffff" stroke="#c8c8c8"/>
<text x="82.00" y="436.00" font-family="Arial, sans-serif" font-size="12" font-weight="700">Operating-point summary</text>
<text x="82.00" y="454.00" font-family="Arial, sans-serif" font-size="10" font-weight="700" fill="#333">Table</text>
<text x="174.00" y="454.00" font-family="Arial, sans-serif" font-size="10" font-weight="700" fill="#333">Corner</text>
<text x="242.00" y="454.00" font-family="Arial, sans-serif" font-size="10" font-weight="700" fill="#333">Vout</text>
<text x="332.00" y="454.00" font-family="Arial, sans-serif" font-size="10" font-weight="700" fill="#333">Iop</text>
<text x="422.00" y="454.00" font-family="Arial, sans-serif" font-size="10" font-weight="700" fill="#333">Zout</text>
<text x="512.00" y="454.00" font-family="Arial, sans-serif" font-size="10" font-weight="700" fill="#333">Rseries</text>
<text x="82.00" y="473.00" font-family="Arial, sans-serif" font-size="10" fill="#1f77b4">pulldown</text>
<text x="174.00" y="473.00" font-family="Arial, sans-serif" font-size="10" fill="#1f77b4">typ</text>
<text x="242.00" y="473.00" font-family="Arial, sans-serif" font-size="10" fill="#1f77b4">0.7036 V</text>
<text x="332.00" y="473.00" font-family="Arial, sans-serif" font-size="10" fill="#1f77b4">22 mA</text>
<text x="422.00" y="473.00" font-family="Arial, sans-serif" font-size="10" fill="#1f77b4">32.1 ohm</text>
<text x="512.00" y="473.00" font-family="Arial, sans-serif" font-size="10" fill="#1f77b4">17.9 ohm</text>
<text x="82.00" y="492.00" font-family="Arial, sans-serif" font-size="10" fill="#ff7f0e">pulldown</text>
<text x="174.00" y="492.00" font-family="Arial, sans-serif" font-size="10" fill="#ff7f0e">min</text>
<text x="242.00" y="492.00" font-family="Arial, sans-serif" font-size="10" fill="#ff7f0e">0.759 V</text>
<text x="332.00" y="492.00" font-family="Arial, sans-serif" font-size="10" fill="#ff7f0e">19 mA</text>
<text x="422.00" y="492.00" font-family="Arial, sans-serif" font-size="10" fill="#ff7f0e">39.9 ohm</text>
<text x="512.00" y="492.00" font-family="Arial, sans-serif" font-size="10" fill="#ff7f0e">10.1 ohm</text>
<text x="82.00" y="511.00" font-family="Arial, sans-serif" font-size="10" fill="#2ca02c">pulldown</text>
<text x="174.00" y="511.00" font-family="Arial, sans-serif" font-size="10" fill="#2ca02c">max</text>
<text x="242.00" y="511.00" font-family="Arial, sans-serif" font-size="10" fill="#2ca02c">0.6342 V</text>
<text x="332.00" y="511.00" font-family="Arial, sans-serif" font-size="10" fill="#2ca02c">25 mA</text>
<text x="422.00" y="511.00" font-family="Arial, sans-serif" font-size="10" fill="#2ca02c">25.3 ohm</text>
<text x="512.00" y="511.00" font-family="Arial, sans-serif" font-size="10" fill="#2ca02c">24.7 ohm</text>
<text x="82.00" y="530.00" font-family="Arial, sans-serif" font-size="10" fill="#1f77b4">pullup</text>
<text x="174.00" y="530.00" font-family="Arial, sans-serif" font-size="10" fill="#1f77b4">typ</text>
<text x="242.00" y="530.00" font-family="Arial, sans-serif" font-size="10" fill="#1f77b4">1.087 V</text>
<text x="332.00" y="530.00" font-family="Arial, sans-serif" font-size="10" fill="#1f77b4">-22 mA</text>
<text x="422.00" y="530.00" font-family="Arial, sans-serif" font-size="10" fill="#1f77b4">32.8 ohm</text>
<text x="512.00" y="530.00" font-family="Arial, sans-serif" font-size="10" fill="#1f77b4">17.2 ohm</text>
<text x="82.00" y="549.00" font-family="Arial, sans-serif" font-size="10" fill="#ff7f0e">pullup</text>
<text x="174.00" y="549.00" font-family="Arial, sans-serif" font-size="10" fill="#ff7f0e">min</text>
<text x="242.00" y="549.00" font-family="Arial, sans-serif" font-size="10" fill="#ff7f0e">0.9458 V</text>
<text x="332.00" y="549.00" font-family="Arial, sans-serif" font-size="10" fill="#ff7f0e">-19 mA</text>
<text x="422.00" y="549.00" font-family="Arial, sans-serif" font-size="10" fill="#ff7f0e">40.4 ohm</text>
<text x="512.00" y="549.00" font-family="Arial, sans-serif" font-size="10" fill="#ff7f0e">9.597 ohm</text>
<text x="82.00" y="568.00" font-family="Arial, sans-serif" font-size="10" fill="#2ca02c">pullup</text>
<text x="174.00" y="568.00" font-family="Arial, sans-serif" font-size="10" fill="#2ca02c">max</text>
<text x="242.00" y="568.00" font-family="Arial, sans-serif" font-size="10" fill="#2ca02c">1.247 V</text>
<text x="332.00" y="568.00" font-family="Arial, sans-serif" font-size="10" fill="#2ca02c">-25 mA</text>
<text x="422.00" y="568.00" font-family="Arial, sans-serif" font-size="10" fill="#2ca02c">25.8 ohm</text>
<text x="512.00" y="568.00" font-family="Arial, sans-serif" font-size="10" fill="#2ca02c">24.2 ohm</text>
</svg>