<svg xmlns="http://www.w3.org/2000/svg" width="800" height="560" viewBox="0 0 800 560">
<rect width="100%" height="100%" fill="#ffffff"/>
<text x="78" y="25" font-family="Arial, sans-serif" font-size="16" font-weight="700">refclk I-V Clamp Sweep Range</text>
<rect x="78" y="52" width="694" height="348" fill="#fbfbfb" stroke="#c8c8c8"/>
<line x1="78.00" y1="52" x2="78.00" y2="400" stroke="#ececec"/>
<text x="78.00" y="422" text-anchor="middle" font-family="Arial, sans-serif" font-size="11">-2</text>
<line x1="216.80" y1="52" x2="216.80" y2="400" stroke="#ececec"/>
<text x="216.80" y="422" text-anchor="middle" font-family="Arial, sans-serif" font-size="11">-1.2</text>
<line x1="355.60" y1="52" x2="355.60" y2="400" stroke="#ececec"/>
<text x="355.60" y="422" text-anchor="middle" font-family="Arial, sans-serif" font-size="11">-0.396</text>
<line x1="494.40" y1="52" x2="494.40" y2="400" stroke="#ececec"/>
<text x="494.40" y="422" text-anchor="middle" font-family="Arial, sans-serif" font-size="11">0.396</text>
<line x1="633.20" y1="52" x2="633.20" y2="400" stroke="#ececec"/>
<text x="633.20" y="422" text-anchor="middle" font-family="Arial, sans-serif" font-size="11">1.2</text>
<line x1="772.00" y1="52" x2="772.00" y2="400" stroke="#ececec"/>
<text x="772.00" y="422" text-anchor="middle" font-family="Arial, sans-serif" font-size="11">2</text>
<line x1="78" y1="400.00" x2="772" y2="400.00" stroke="#ececec"/>
<text x="70" y="404.00" text-anchor="end" font-family="Arial, sans-serif" font-size="11">-0.823</text>
<line x1="78" y1="330.40" x2="772" y2="330.40" stroke="#ececec"/>
<text x="70" y="334.40" text-anchor="end" font-family="Arial, sans-serif" font-size="11">-0.505</text>
<line x1="78" y1="260.80" x2="772" y2="260.80" stroke="#ececec"/>
<text x="70" y="264.80" text-anchor="end" font-family="Arial, sans-serif" font-size="11">-0.187</text>
<line x1="78" y1="191.20" x2="772" y2="191.20" stroke="#ececec"/>
<text x="70" y="195.20" text-anchor="end" font-family="Arial, sans-serif" font-size="11">0.131</text>
<line x1="78" y1="121.60" x2="772" y2="121.60" stroke="#ececec"/>
<text x="70" y="125.60" text-anchor="end" font-family="Arial, sans-serif" font-size="11">0.449</text>
<line x1="78" y1="52.00" x2="772" y2="52.00" stroke="#ececec"/>
<text x="70" y="56.00" text-anchor="end" font-family="Arial, sans-serif" font-size="11">0.767</text>
<line x1="425.00" y1="52" x2="425.00" y2="400" stroke="#777" stroke-dasharray="4 4"/>
<line x1="78" y1="219.93" x2="772" y2="219.93" stroke="#777" stroke-dasharray="4 4"/>
<line x1="109.55" y1="52" x2="109.55" y2="400" stroke="#555" stroke-dasharray="2 4"/>
<text x="113.55" y="66" font-family="Arial, sans-serif" font-size="11" fill="#555">-Vcc</text>
<line x1="740.45" y1="52" x2="740.45" y2="400" stroke="#555" stroke-dasharray="2 4"/>
<text x="744.45" y="66" font-family="Arial, sans-serif" font-size="11" fill="#555">Vcc</text>
<polyline fill="none" stroke="#2ca02c" stroke-width="1.2" opacity="0.55" stroke-dasharray="4 4" points="109.55,376.00 116.03,369.76 122.51,363.52 129.00,357.31 135.48,351.11 141.97,344.92 148.45,338.74 154.94,332.61 161.42,326.49 167.90,320.38 174.39,314.29 180.87,308.27 187.36,302.25 193.84,296.30 200.33,290.39 206.81,284.54 213.29,278.77 219.78,273.10 226.26,267.51 232.75,262.06 239.23,256.79 245.72,251.73 252.20,246.94 258.69,242.47 265.17,238.43 271.65,234.87 278.14,231.86 284.62,229.41 291.11,227.49 297.59,226.05 304.08,224.97 310.56,224.13 317.04,223.44 323.53,222.83 330.01,222.29 336.50,221.80 342.98,221.37 349.47,221.00 355.95,220.68 362.43,220.43 368.92,220.24 375.40,220.11 381.89,220.02 388.37,219.98 394.86,219.95 401.34,219.95 407.83,219.94 414.31,219.94 420.79,219.94 427.28,219.94 433.76,219.94 440.25,219.94 446.73,219.94 453.22,219.94 459.70,219.94 466.18,219.94 472.67,219.94 479.15,219.94 485.64,219.94 492.12,219.94 498.61,219.94 505.09,219.94 511.57,219.94 518.06,219.94 524.54,219.94 531.03,219.94 537.51,219.94 544.00,219.94 550.48,219.94 556.97,219.94 563.45,219.94 569.93,219.94 576.42,219.94 582.90,219.94 589.39,219.94 595.87,219.94 602.36,219.94 608.84,219.94 615.32,219.94 621.81,219.94 628.29,219.94 634.78,219.94 641.26,219.94 647.75,219.94 654.23,219.94 660.71,219.94 667.20,219.94 673.68,219.94 680.17,219.94 686.65,219.94 693.14,219.94 699.62,219.94 706.11,219.94 712.59,219.93 719.07,219.93 725.56,219.93 732.04,219.93 740.45,219.93"/>
<polyline fill="none" stroke="#2ca02c" stroke-width="1.2" opacity="0.55" stroke-dasharray="4 4" points="109.55,364.00 116.03,357.31 122.51,350.59 129.00,343.91 135.48,337.23 141.97,330.58 148.45,323.95 154.94,317.34 161.42,310.77 167.90,304.22 174.39,297.72 180.87,291.29 187.36,284.92 193.84,278.63 200.33,272.48 206.81,266.49 213.29,260.68 219.78,255.21 226.26,250.20 232.75,245.80 239.23,242.21 245.72,239.57 252.20,237.70 258.69,236.23 265.17,234.88 271.65,233.58 278.14,232.30 284.62,231.04 291.11,229.81 297.59,228.61 304.08,227.45 310.56,226.34 317.04,225.28 323.53,224.28 330.01,223.36 336.50,222.53 342.98,221.79 349.47,221.17 355.95,220.69 362.43,220.34 368.92,220.11 375.40,219.99 381.89,219.94 388.37,219.93 394.86,219.93 401.34,219.93 407.83,219.93 414.31,219.93 420.79,219.93 427.28,219.93 433.76,219.93 440.25,219.93 446.73,219.93 453.22,219.93 459.70,219.93 466.18,219.93 472.67,219.93 479.15,219.93 485.64,219.93 492.12,219.93 498.61,219.93 505.09,219.93 511.57,219.93 518.06,219.93 524.54,219.93 531.03,219.93 537.51,219.93 544.00,219.93 550.48,219.93 556.97,219.93 563.45,219.93 569.93,219.93 576.42,219.93 582.90,219.93 589.39,219.93 595.87,219.93 602.36,219.93 608.84,219.93 615.32,219.93 621.81,219.93 628.29,219.93 634.78,219.93 641.26,219.93 647.75,219.93 654.23,219.93 660.71,219.93 667.20,219.93 673.68,219.93 680.17,219.93 686.65,219.93 693.14,219.93 699.62,219.93 706.11,219.93 712.59,219.93 719.07,219.93 725.56,219.93 732.04,219.93 740.45,219.93"/>
<polyline fill="none" stroke="#2ca02c" stroke-width="2.0" opacity="1.0" points="109.55,368.21 116.03,361.71 122.51,355.18 129.00,348.70 135.48,342.22 141.97,335.77 148.45,329.33 154.94,322.90 161.42,316.50 167.90,310.16 174.39,303.83 180.87,297.55 187.36,291.31 193.84,285.14 200.33,279.05 206.81,273.05 213.29,267.19 219.78,261.47 226.26,255.98 232.75,250.77 239.23,245.93 245.72,241.60 252.20,237.89 258.69,234.89 265.17,232.62 271.65,230.97 278.14,229.71 284.62,228.63 291.11,227.63 297.59,226.67 304.08,225.76 310.56,224.90 317.04,224.08 323.53,223.32 330.01,222.61 336.50,221.98 342.98,221.43 349.47,220.96 355.95,220.59 362.43,220.31 368.92,220.12 375.40,220.01 381.89,219.95 388.37,219.94 394.86,219.93 401.34,219.93 407.83,219.93 414.31,219.93 420.79,219.93 427.28,219.93 433.76,219.93 440.25,219.93 446.73,219.93 453.22,219.93 459.70,219.93 466.18,219.93 472.67,219.93 479.15,219.93 485.64,219.93 492.12,219.93 498.61,219.93 505.09,219.93 511.57,219.93 518.06,219.93 524.54,219.93 531.03,219.93 537.51,219.93 544.00,219.93 550.48,219.93 556.97,219.93 563.45,219.93 569.93,219.93 576.42,219.93 582.90,219.93 589.39,219.93 595.87,219.93 602.36,219.93 608.84,219.93 615.32,219.93 621.81,219.93 628.29,219.93 634.78,219.93 641.26,219.93 647.75,219.93 654.23,219.93 660.71,219.93 667.20,219.93 673.68,219.93 680.17,219.93 686.65,219.93 693.14,219.93 699.62,219.93 706.11,219.93 712.59,219.93 719.07,219.93 725.56,219.93 732.04,219.93 740.45,219.93"/>
<polyline fill="none" stroke="#9467bd" stroke-width="1.2" opacity="0.55" stroke-dasharray="4 4" points="109.55,76.00 117.96,83.95 124.44,90.05 130.93,96.16 137.41,102.22 143.89,108.29 150.38,114.33 156.86,120.33 163.35,126.32 169.83,132.28 176.32,138.19 182.80,144.08 189.29,149.90 195.77,155.68 202.25,161.37 208.74,167.00 215.22,172.53 221.71,177.94 228.19,183.19 234.68,188.27 241.16,193.11 247.64,197.66 254.13,201.82 260.61,205.54 267.10,208.72 273.58,211.32 280.07,213.32 286.55,214.77 293.03,215.79 299.52,216.53 306.00,217.07 312.49,217.50 318.97,217.86 325.46,218.16 331.94,218.43 338.43,218.67 344.91,218.89 351.39,219.09 357.88,219.26 364.36,219.41 370.85,219.53 377.33,219.63 383.82,219.71 390.30,219.78 396.78,219.83 403.27,219.86 409.75,219.89 416.24,219.91 422.72,219.92 429.21,219.93 740.45,219.93"/>
<polyline fill="none" stroke="#9467bd" stroke-width="1.2" opacity="0.55" stroke-dasharray="4 4" points="109.55,84.84 117.96,93.45 124.44,100.06 130.93,106.65 137.41,113.23 143.89,119.80 150.38,126.32 156.86,132.85 163.35,139.31 169.83,145.74 176.32,152.13 182.80,158.48 189.29,164.72 195.77,170.89 202.25,176.91 208.74,182.78 215.22,188.40 221.71,193.70 228.19,198.52 234.68,202.70 241.16,206.02 247.64,208.37 254.13,209.91 260.61,210.99 267.10,211.87 273.58,212.68 280.07,213.46 286.55,214.19 293.03,214.89 299.52,215.55 306.00,216.16 312.49,216.72 318.97,217.24 325.46,217.70 331.94,218.12 338.43,218.51 344.91,218.85 351.39,219.12 357.88,219.32 364.36,219.49 370.85,219.62 377.33,219.72 383.82,219.80 390.30,219.85 396.78,219.89 403.27,219.91 409.75,219.92 416.24,219.92 422.72,219.93 429.21,219.93 740.45,219.93"/>
<polyline fill="none" stroke="#9467bd" stroke-width="2.0" opacity="1.0" points="109.55,81.89 117.96,90.21 124.44,96.62 130.93,103.01 137.41,109.38 143.89,115.73 150.38,122.06 156.86,128.34 163.35,134.62 169.83,140.86 176.32,147.05 182.80,153.18 189.29,159.27 195.77,165.27 202.25,171.18 208.74,176.98 215.22,182.63 221.71,188.05 228.19,193.24 234.68,198.05 241.16,202.39 247.64,206.12 254.13,209.13 260.61,211.35 267.10,212.88 273.58,213.93 280.07,214.70 286.55,215.33 293.03,215.89 299.52,216.41 306.00,216.88 312.49,217.32 318.97,217.72 325.46,218.08 331.94,218.40 338.43,218.69 344.91,218.96 351.39,219.18 357.88,219.36 364.36,219.51 370.85,219.62 377.33,219.71 383.82,219.78 390.30,219.84 396.78,219.87 403.27,219.90 409.75,219.91 416.24,219.92 422.72,219.92 429.21,219.93 740.45,219.93"/>
<line x1="88" y1="70" x2="110" y2="70" stroke="#2ca02c" stroke-width="2.4"/>
<text x="116" y="74" font-family="Arial, sans-serif" font-size="12">[GND Clamp]</text>
<line x1="88" y1="88" x2="110" y2="88" stroke="#9467bd" stroke-width="2.4"/>
<text x="116" y="92" font-family="Arial, sans-serif" font-size="12">[POWER Clamp]</text>
<text x="425.00" y="444.00" text-anchor="middle" font-family="Arial, sans-serif" font-size="12">Table voltage (V)</text>
<text transform="translate(18 226.00) rotate(-90)" text-anchor="middle" font-family="Arial, sans-serif" font-size="12">Current (A)</text>
<text x="420" y="42" font-family="Arial, sans-serif" font-size="11" fill="#555">solid=typ, dashed=min/max; dashed vertical=required sweep boundary (5.3.4/5.3.5)</text>
</svg>