<svg xmlns="http://www.w3.org/2000/svg" width="800" height="560" viewBox="0 0 800 560">
<rect width="100%" height="100%" fill="#ffffff"/>
<text x="78" y="25" font-family="Arial, sans-serif" font-size="16" font-weight="700">refclk I-V Clamp Curves</text>
<rect x="78" y="52" width="694" height="348" fill="#fbfbfb" stroke="#c8c8c8"/>
<line x1="78.00" y1="52" x2="78.00" y2="400" stroke="#ececec"/>
<text x="78.00" y="422" text-anchor="middle" font-family="Arial, sans-serif" font-size="11">-1.9</text>
<line x1="216.80" y1="52" x2="216.80" y2="400" stroke="#ececec"/>
<text x="216.80" y="422" text-anchor="middle" font-family="Arial, sans-serif" font-size="11">-1.1</text>
<line x1="355.60" y1="52" x2="355.60" y2="400" stroke="#ececec"/>
<text x="355.60" y="422" text-anchor="middle" font-family="Arial, sans-serif" font-size="11">-0.374</text>
<line x1="494.40" y1="52" x2="494.40" y2="400" stroke="#ececec"/>
<text x="494.40" y="422" text-anchor="middle" font-family="Arial, sans-serif" font-size="11">0.374</text>
<line x1="633.20" y1="52" x2="633.20" y2="400" stroke="#ececec"/>
<text x="633.20" y="422" text-anchor="middle" font-family="Arial, sans-serif" font-size="11">1.1</text>
<line x1="772.00" y1="52" x2="772.00" y2="400" stroke="#ececec"/>
<text x="772.00" y="422" text-anchor="middle" font-family="Arial, sans-serif" font-size="11">1.9</text>
<line x1="78" y1="400.00" x2="772" y2="400.00" stroke="#ececec"/>
<text x="70" y="404.00" text-anchor="end" font-family="Arial, sans-serif" font-size="11">-0.782</text>
<line x1="78" y1="330.40" x2="772" y2="330.40" stroke="#ececec"/>
<text x="70" y="334.40" text-anchor="end" font-family="Arial, sans-serif" font-size="11">-0.479</text>
<line x1="78" y1="260.80" x2="772" y2="260.80" stroke="#ececec"/>
<text x="70" y="264.80" text-anchor="end" font-family="Arial, sans-serif" font-size="11">-0.175</text>
<line x1="78" y1="191.20" x2="772" y2="191.20" stroke="#ececec"/>
<text x="70" y="195.20" text-anchor="end" font-family="Arial, sans-serif" font-size="11">0.128</text>
<line x1="78" y1="121.60" x2="772" y2="121.60" stroke="#ececec"/>
<text x="70" y="125.60" text-anchor="end" font-family="Arial, sans-serif" font-size="11">0.432</text>
<line x1="78" y1="52.00" x2="772" y2="52.00" stroke="#ececec"/>
<text x="70" y="56.00" text-anchor="end" font-family="Arial, sans-serif" font-size="11">0.735</text>
<line x1="425.00" y1="52" x2="425.00" y2="400" stroke="#777" stroke-dasharray="4 4"/>
<line x1="78" y1="220.63" x2="772" y2="220.63" stroke="#777" stroke-dasharray="4 4"/>
<line x1="91.35" y1="52" x2="91.35" y2="400" stroke="#555" stroke-dasharray="2 4"/>
<text x="95.35" y="66" font-family="Arial, sans-serif" font-size="11" fill="#555">-Vcc</text>
<line x1="758.65" y1="52" x2="758.65" y2="400" stroke="#555" stroke-dasharray="2 4"/>
<text x="762.65" y="66" font-family="Arial, sans-serif" font-size="11" fill="#555">Vcc</text>
<polyline fill="none" stroke="#0f766e" stroke-width="2.8" opacity="0.95" stroke-dasharray="6 3" points="91.35,376.00 98.20,369.19 105.06,362.35 111.92,355.56 118.78,348.78 125.64,342.01 132.50,335.27 139.36,328.52 146.21,321.83 153.07,315.17 159.93,308.55 166.79,301.96 173.65,295.43 180.51,288.96 187.36,282.58 194.22,276.30 201.08,270.15 207.94,264.17 214.80,258.41 221.66,252.95 228.51,247.88 235.37,243.35 242.23,239.45 249.09,236.31 255.95,233.93 262.81,232.20 269.67,230.88 276.52,229.75 283.38,228.70 290.24,227.70 297.10,226.75 303.96,225.84 310.82,224.98 317.67,224.19 324.53,223.45 331.39,222.79 338.25,222.21 345.11,221.72 351.97,221.33 358.83,221.03 365.68,220.84 372.54,220.72 379.40,220.66 386.26,220.64 393.12,220.64 399.98,220.64 406.83,220.64 413.69,220.64 420.55,220.64 427.41,220.63 434.27,220.63 441.13,220.63 447.99,220.63 454.84,220.63 461.70,220.63 468.56,220.63 475.42,220.63 482.28,220.63 489.14,220.63 495.99,220.63 502.85,220.63 509.71,220.63 516.57,220.63 523.43,220.63 530.29,220.63 537.14,220.63 544.00,220.63 550.86,220.63 557.72,220.63 564.58,220.63 571.44,220.63 578.30,220.63 585.15,220.63 592.01,220.63 598.87,220.63 605.73,220.63 612.59,220.63 619.45,220.63 626.30,220.63 633.16,220.63 640.02,220.63 646.88,220.63 653.74,220.63 660.60,220.63 667.46,220.63 674.31,220.63 681.17,220.63 688.03,220.63 694.89,220.63 701.75,220.63 708.61,220.63 715.46,220.63 722.32,220.63 729.18,220.63 736.04,220.63 742.90,220.63 749.76,220.63 758.65,220.63"/>
<polyline fill="none" stroke="#7c2d12" stroke-width="2.8" opacity="0.95" stroke-dasharray="6 3" points="91.35,76.00 100.24,84.72 107.10,91.44 113.96,98.13 120.82,104.81 127.68,111.46 134.54,118.09 141.39,124.67 148.25,131.25 155.11,137.79 161.97,144.28 168.83,150.70 175.69,157.08 182.54,163.36 189.40,169.56 196.26,175.63 203.12,181.55 209.98,187.24 216.84,192.67 223.70,197.71 230.55,202.25 237.41,206.17 244.27,209.32 251.13,211.65 257.99,213.25 264.85,214.35 271.70,215.16 278.56,215.82 285.42,216.41 292.28,216.95 299.14,217.45 306.00,217.90 312.86,218.32 319.71,218.69 326.57,219.03 333.43,219.34 340.29,219.62 347.15,219.86 354.01,220.05 360.86,220.20 367.72,220.32 374.58,220.41 381.44,220.48 388.30,220.54 395.16,220.58 402.01,220.60 408.87,220.62 415.73,220.63 422.59,220.63 429.45,220.63 758.65,220.63"/>
<line x1="88" y1="70" x2="110" y2="70" stroke="#0f766e" stroke-width="2.8" stroke-dasharray="6 3"/>
<text x="116" y="74" font-family="Arial, sans-serif" font-size="12">[GND Clamp]</text>
<line x1="88" y1="88" x2="110" y2="88" stroke="#7c2d12" stroke-width="2.8" stroke-dasharray="6 3"/>
<text x="116" y="92" font-family="Arial, sans-serif" font-size="12">[POWER Clamp]</text>
<text x="425.00" y="444.00" text-anchor="middle" font-family="Arial, sans-serif" font-size="12">Table voltage (V)</text>
<text transform="translate(18 226.00) rotate(-90)" text-anchor="middle" font-family="Arial, sans-serif" font-size="12">Current (A)</text>
<text x="420" y="42" font-family="Arial, sans-serif" font-size="11" fill="#555">thick dashed=combined typ curves</text>
</svg>