<svg xmlns="http://www.w3.org/2000/svg" width="800" height="560" viewBox="0 0 800 560">
<rect width="100%" height="100%" fill="#ffffff"/>
<text x="78" y="25" font-family="Arial, sans-serif" font-size="16" font-weight="700">ALERT I-V Combined Curves</text>
<rect x="78" y="52" width="694" height="348" fill="#fbfbfb" stroke="#c8c8c8"/>
<line x1="78.00" y1="52" x2="78.00" y2="400" stroke="#ececec"/>
<text x="78.00" y="422" text-anchor="middle" font-family="Arial, sans-serif" font-size="11">-1.3</text>
<line x1="216.80" y1="52" x2="216.80" y2="400" stroke="#ececec"/>
<text x="216.80" y="422" text-anchor="middle" font-family="Arial, sans-serif" font-size="11">-0.523</text>
<line x1="355.60" y1="52" x2="355.60" y2="400" stroke="#ececec"/>
<text x="355.60" y="422" text-anchor="middle" font-family="Arial, sans-serif" font-size="11">0.226</text>
<line x1="494.40" y1="52" x2="494.40" y2="400" stroke="#ececec"/>
<text x="494.40" y="422" text-anchor="middle" font-family="Arial, sans-serif" font-size="11">0.974</text>
<line x1="633.20" y1="52" x2="633.20" y2="400" stroke="#ececec"/>
<text x="633.20" y="422" text-anchor="middle" font-family="Arial, sans-serif" font-size="11">1.7</text>
<line x1="772.00" y1="52" x2="772.00" y2="400" stroke="#ececec"/>
<text x="772.00" y="422" text-anchor="middle" font-family="Arial, sans-serif" font-size="11">2.5</text>
<line x1="78" y1="400.00" x2="772" y2="400.00" stroke="#ececec"/>
<text x="70" y="404.00" text-anchor="end" font-family="Arial, sans-serif" font-size="11">-0.104</text>
<line x1="78" y1="330.40" x2="772" y2="330.40" stroke="#ececec"/>
<text x="70" y="334.40" text-anchor="end" font-family="Arial, sans-serif" font-size="11">-0.0619</text>
<line x1="78" y1="260.80" x2="772" y2="260.80" stroke="#ececec"/>
<text x="70" y="264.80" text-anchor="end" font-family="Arial, sans-serif" font-size="11">-0.0195</text>
<line x1="78" y1="191.20" x2="772" y2="191.20" stroke="#ececec"/>
<text x="70" y="195.20" text-anchor="end" font-family="Arial, sans-serif" font-size="11">0.0229</text>
<line x1="78" y1="121.60" x2="772" y2="121.60" stroke="#ececec"/>
<text x="70" y="125.60" text-anchor="end" font-family="Arial, sans-serif" font-size="11">0.0654</text>
<line x1="78" y1="52.00" x2="772" y2="52.00" stroke="#ececec"/>
<text x="70" y="56.00" text-anchor="end" font-family="Arial, sans-serif" font-size="11">0.108</text>
<line x1="313.78" y1="52" x2="313.78" y2="400" stroke="#777" stroke-dasharray="4 4"/>
<line x1="78" y1="228.82" x2="772" y2="228.82" stroke="#777" stroke-dasharray="4 4"/>
<line x1="91.35" y1="52" x2="91.35" y2="400" stroke="#555" stroke-dasharray="2 4"/>
<text x="95.35" y="66" font-family="Arial, sans-serif" font-size="11" fill="#555">-Vcc</text>
<line x1="536.22" y1="52" x2="536.22" y2="400" stroke="#555" stroke-dasharray="2 4"/>
<text x="540.22" y="66" font-family="Arial, sans-serif" font-size="11" fill="#555">Vcc</text>
<line x1="758.65" y1="52" x2="758.65" y2="400" stroke="#555" stroke-dasharray="2 4"/>
<text x="762.65" y="66" font-family="Arial, sans-serif" font-size="11" fill="#555">2Vcc</text>
<polyline fill="none" stroke="#0f766e" stroke-width="2.8" opacity="0.95" stroke-dasharray="6 3" points="91.35,376.00 92.27,374.18 94.13,370.59 95.98,367.02 98.76,361.71 99.69,359.95 100.61,358.21 101.54,356.47 102.47,354.74 104.32,351.28 105.25,349.58 107.10,346.19 108.03,344.50 108.96,342.87 109.88,341.26 111.74,338.03 112.66,336.42 113.59,334.81 114.52,333.20 116.37,329.98 117.30,328.46 121.00,322.68 121.93,321.23 122.86,319.78 124.71,316.89 125.64,315.56 130.27,309.59 131.20,308.39 132.13,307.20 133.05,306.00 133.98,304.90 138.61,300.43 139.54,299.54 140.47,298.64 141.39,297.75 142.32,296.90 146.03,294.22 147.88,292.88 148.81,292.21 149.74,291.54 150.66,290.87 151.59,290.34 152.52,289.81 157.15,287.15 158.08,286.61 159.00,286.08 161.78,284.78 166.42,282.62 167.35,282.19 168.27,281.82 171.98,280.34 175.69,278.86 176.61,278.51 177.54,278.16 181.25,276.77 182.17,276.43 183.10,276.08 185.88,275.06 186.81,274.72 188.66,274.03 189.59,273.69 190.52,273.35 194.22,272.00 195.15,271.65 197.00,270.98 197.93,270.64 198.86,270.30 199.78,269.96 201.64,269.28 206.27,267.60 207.20,267.26 208.13,266.92 213.69,264.89 214.61,264.56 215.54,264.22 220.17,262.54 221.10,262.19 222.03,261.86 222.95,261.53 223.88,261.19 226.66,260.18 227.59,259.84 229.44,259.17 230.37,258.84 231.30,258.50 232.22,258.16 234.08,257.49 236.86,256.49 238.71,255.81 239.64,255.48 240.56,255.14 244.27,253.80 245.20,253.47 247.05,252.80 249.83,251.79 250.76,251.46 251.69,251.12 253.54,250.46 256.32,249.45 260.03,248.12 267.44,245.44 273.00,243.45 285.05,239.12 302.66,232.80 313.78,228.82 326.76,224.21 337.88,220.30 348.07,216.77 356.42,213.91 372.17,208.60 375.88,207.37 379.59,206.16 387.00,203.75 394.42,201.33 399.98,199.60 410.17,196.44 414.81,195.02 420.37,193.40 423.15,192.60 428.71,190.98 431.49,190.19 437.05,188.69 441.68,187.44 446.32,186.20 449.10,185.48 454.66,184.10 458.37,183.17 463.00,182.03 472.27,179.87 475.97,179.01 482.46,177.58 488.95,176.17 491.73,175.59 500.07,173.86 504.71,172.95 513.97,171.15 519.54,170.14 523.24,169.47 527.88,168.64 534.36,167.55 539.93,166.61 548.27,165.31 553.83,164.45 557.53,163.91 564.02,162.96 570.51,162.06 575.14,161.43 580.71,160.70 591.83,159.28 604.80,157.72 611.29,156.97 620.56,155.94 630.75,154.83 642.80,153.57 652.07,152.63 662.26,151.62 676.17,150.28 691.00,148.89 707.68,147.37 727.14,145.64 748.46,143.80 758.65,142.93"/>
<polyline fill="none" stroke="#7c2d12" stroke-width="2.8" opacity="0.95" stroke-dasharray="6 3" points="91.35,76.00 92.27,79.10 93.20,82.18 94.13,85.24 95.05,88.30 95.98,91.35 96.91,94.38 97.83,97.41 98.76,100.44 99.69,103.47 100.61,106.45 101.54,109.43 102.47,112.41 103.39,115.39 104.32,118.36 105.25,121.27 106.18,124.19 107.10,127.11 108.03,130.03 108.96,132.87 109.88,135.67 111.74,141.27 112.66,144.07 113.59,146.88 114.52,149.68 116.37,155.28 117.30,157.95 121.00,168.25 121.93,170.82 122.86,173.39 124.71,178.54 125.64,180.95 130.27,191.98 131.20,194.19 132.13,196.40 133.05,198.61 133.98,200.62 138.61,208.75 139.54,210.38 140.47,212.00 141.39,213.63 142.32,215.12 146.03,218.75 146.96,219.66 148.81,221.47 149.74,222.38 150.66,223.26 151.59,223.63 152.52,224.01 156.22,225.51 157.15,225.88 158.08,226.26 159.00,226.63 159.93,226.79 161.78,227.05 162.71,227.18 166.42,227.70 167.35,227.83 168.27,227.89 171.05,228.01 171.98,228.05 175.69,228.20 176.61,228.23 177.54,228.24 181.25,228.30 182.17,228.32 183.10,228.33 185.88,228.36 186.81,228.37 188.66,228.39 191.44,228.41 193.30,228.43 194.22,228.43 198.86,228.47 200.71,228.49 201.64,228.50 208.13,228.53 215.54,228.58 222.03,228.62 224.81,228.63 229.44,228.66 234.08,228.68 240.56,228.71 246.12,228.74 250.76,228.75 254.47,228.77 259.10,228.78 264.66,228.79 270.22,228.80 275.78,228.81 280.42,228.81 285.98,228.82 298.95,228.82 313.78,228.82 758.65,228.82"/>
<line x1="88" y1="70" x2="110" y2="70" stroke="#0f766e" stroke-width="2.8" stroke-dasharray="6 3"/>
<text x="116" y="74" font-family="Arial, sans-serif" font-size="12">[Pulldown]+[GND Clamp]</text>
<line x1="88" y1="88" x2="110" y2="88" stroke="#7c2d12" stroke-width="2.8" stroke-dasharray="6 3"/>
<text x="116" y="92" font-family="Arial, sans-serif" font-size="12">[POWER Clamp]</text>
<text x="425.00" y="444.00" text-anchor="middle" font-family="Arial, sans-serif" font-size="12">Table voltage (V)</text>
<text transform="translate(18 226.00) rotate(-90)" text-anchor="middle" font-family="Arial, sans-serif" font-size="12">Current (A)</text>
<text x="420" y="42" font-family="Arial, sans-serif" font-size="11" fill="#555">thick dashed=combined typ curves</text>
</svg>