<svg xmlns="http://www.w3.org/2000/svg" width="800" height="560" viewBox="0 0 800 560">
<rect width="100%" height="100%" fill="#ffffff"/>
<text x="78" y="25" font-family="Arial, sans-serif" font-size="16" font-weight="700">DQ_48_3200 I-V Clamp Sweep Range</text>
<rect x="78" y="52" width="694" height="348" fill="#fbfbfb" stroke="#c8c8c8"/>
<line x1="78.00" y1="52" x2="78.00" y2="400" stroke="#ececec"/>
<text x="78.00" y="422" text-anchor="middle" font-family="Arial, sans-serif" font-size="11">-1.4</text>
<line x1="216.80" y1="52" x2="216.80" y2="400" stroke="#ececec"/>
<text x="216.80" y="422" text-anchor="middle" font-family="Arial, sans-serif" font-size="11">-0.588</text>
<line x1="355.60" y1="52" x2="355.60" y2="400" stroke="#ececec"/>
<text x="355.60" y="422" text-anchor="middle" font-family="Arial, sans-serif" font-size="11">0.204</text>
<line x1="494.40" y1="52" x2="494.40" y2="400" stroke="#ececec"/>
<text x="494.40" y="422" text-anchor="middle" font-family="Arial, sans-serif" font-size="11">0.996</text>
<line x1="633.20" y1="52" x2="633.20" y2="400" stroke="#ececec"/>
<text x="633.20" y="422" text-anchor="middle" font-family="Arial, sans-serif" font-size="11">1.8</text>
<line x1="772.00" y1="52" x2="772.00" y2="400" stroke="#ececec"/>
<text x="772.00" y="422" text-anchor="middle" font-family="Arial, sans-serif" font-size="11">2.6</text>
<line x1="78" y1="400.00" x2="772" y2="400.00" stroke="#ececec"/>
<text x="70" y="404.00" text-anchor="end" font-family="Arial, sans-serif" font-size="11">-0.178</text>
<line x1="78" y1="330.40" x2="772" y2="330.40" stroke="#ececec"/>
<text x="70" y="334.40" text-anchor="end" font-family="Arial, sans-serif" font-size="11">-0.108</text>
<line x1="78" y1="260.80" x2="772" y2="260.80" stroke="#ececec"/>
<text x="70" y="264.80" text-anchor="end" font-family="Arial, sans-serif" font-size="11">-0.0368</text>
<line x1="78" y1="191.20" x2="772" y2="191.20" stroke="#ececec"/>
<text x="70" y="195.20" text-anchor="end" font-family="Arial, sans-serif" font-size="11">0.034</text>
<line x1="78" y1="121.60" x2="772" y2="121.60" stroke="#ececec"/>
<text x="70" y="125.60" text-anchor="end" font-family="Arial, sans-serif" font-size="11">0.105</text>
<line x1="78" y1="52.00" x2="772" y2="52.00" stroke="#ececec"/>
<text x="70" y="56.00" text-anchor="end" font-family="Arial, sans-serif" font-size="11">0.176</text>
<line x1="319.85" y1="52" x2="319.85" y2="400" stroke="#777" stroke-dasharray="4 4"/>
<line x1="78" y1="224.61" x2="772" y2="224.61" stroke="#777" stroke-dasharray="4 4"/>
<line x1="109.55" y1="52" x2="109.55" y2="400" stroke="#555" stroke-dasharray="2 4"/>
<text x="113.55" y="66" font-family="Arial, sans-serif" font-size="11" fill="#555">-Vcc</text>
<line x1="530.15" y1="52" x2="530.15" y2="400" stroke="#555" stroke-dasharray="2 4"/>
<text x="534.15" y="66" font-family="Arial, sans-serif" font-size="11" fill="#555">Vcc</text>
<line x1="740.45" y1="52" x2="740.45" y2="400" stroke="#555" stroke-dasharray="2 4"/>
<text x="744.45" y="66" font-family="Arial, sans-serif" font-size="11" fill="#555">2Vcc</text>
<polyline fill="none" stroke="#2ca02c" stroke-width="1.2" opacity="0.55" stroke-dasharray="4 4" points="109.55,350.83 111.65,345.80 113.75,340.80 115.33,337.07 116.38,334.60 117.43,332.13 119.01,328.46 120.59,324.81 121.64,322.39 122.16,321.18 122.69,319.98 123.74,317.58 124.27,316.39 125.84,312.83 126.37,311.65 127.42,309.30 129.00,305.81 130.05,303.50 131.10,301.23 132.15,298.96 132.68,297.82 133.20,296.69 133.73,295.57 134.78,293.36 135.31,292.26 135.83,291.15 136.88,288.96 137.41,287.89 137.94,286.82 138.46,285.76 139.51,283.62 140.04,282.59 140.57,281.56 142.14,278.46 142.67,277.46 143.19,276.47 144.77,273.51 145.30,272.53 145.82,271.59 147.40,268.79 147.93,267.86 148.45,266.96 149.50,265.21 150.03,264.34 150.55,263.47 151.08,262.61 152.13,261.00 153.18,259.39 153.71,258.59 154.23,257.84 154.76,257.11 155.81,255.64 156.34,254.91 156.86,254.21 158.44,252.29 158.97,251.65 159.49,251.01 161.07,249.34 161.60,248.79 162.12,248.24 162.65,247.74 163.70,246.88 166.33,244.73 167.90,243.44 168.43,243.09 168.96,242.79 171.58,241.28 173.16,240.37 174.21,239.90 176.84,238.77 177.89,238.31 182.10,236.82 186.31,235.54 188.93,234.84 190.51,234.42 194.72,233.40 198.92,232.49 203.66,231.54 208.91,230.56 212.07,230.00 216.80,229.20 220.48,228.61 225.21,227.90 229.42,227.32 232.05,226.98 235.20,226.60 238.36,226.26 240.46,226.04 243.09,225.81 245.19,225.63 247.29,225.48 250.45,225.27 252.03,225.19 255.71,225.01 260.96,224.84 265.70,224.74 270.95,224.68 279.37,224.64 303.55,224.62 740.45,224.61"/>
<polyline fill="none" stroke="#2ca02c" stroke-width="1.2" opacity="0.55" stroke-dasharray="4 4" points="109.55,376.00 111.65,366.91 113.75,357.83 115.33,351.09 116.38,346.64 117.43,342.22 119.01,335.67 120.59,329.23 121.64,325.00 122.16,322.89 122.69,320.80 123.74,316.68 124.27,314.63 125.84,308.61 126.37,306.65 127.42,302.74 129.00,297.06 130.05,293.49 131.10,289.93 132.15,286.37 132.68,284.71 133.20,283.10 133.73,281.49 134.78,278.27 135.31,276.70 135.83,275.27 136.88,272.42 137.41,271.00 137.94,269.63 138.46,268.41 139.51,265.97 140.04,264.75 140.57,263.60 142.14,260.62 142.67,259.63 143.19,258.71 144.77,256.36 145.30,255.57 145.82,254.86 147.40,253.07 147.93,252.47 148.45,251.94 149.50,251.06 150.03,250.62 150.55,250.18 151.08,249.79 152.13,249.11 153.18,248.44 153.71,248.13 154.23,247.86 154.76,247.58 155.81,247.03 156.34,246.78 156.86,246.55 158.44,245.86 158.97,245.66 159.49,245.47 161.07,244.89 161.60,244.71 162.12,244.54 162.65,244.36 163.70,244.01 166.33,243.17 167.90,242.71 168.43,242.56 168.96,242.40 171.58,241.70 173.16,241.27 174.21,240.99 176.84,240.32 177.89,240.05 182.10,239.01 186.31,237.98 188.93,237.35 190.51,236.97 194.72,235.97 198.92,234.99 203.66,233.91 208.91,232.74 212.07,232.05 216.80,231.05 220.48,230.30 225.21,229.37 229.42,228.59 232.05,228.13 235.20,227.60 238.36,227.11 240.46,226.81 243.09,226.45 245.19,226.19 247.29,225.94 250.45,225.63 252.03,225.49 255.71,225.22 260.96,224.94 265.70,224.79 270.95,224.70 279.37,224.64 303.55,224.62 740.45,224.61"/>
<polyline fill="none" stroke="#2ca02c" stroke-width="2.0" opacity="1.0" points="109.55,357.33 111.65,350.88 113.75,344.50 115.33,339.75 116.38,336.61 117.43,333.48 119.01,328.82 120.59,324.21 121.64,321.16 122.16,319.64 122.69,318.13 123.74,315.13 124.27,313.64 125.84,309.21 126.37,307.75 127.42,304.86 129.00,300.55 130.05,297.75 131.10,294.95 132.15,292.23 132.68,290.87 133.20,289.51 133.73,288.18 134.78,285.57 135.31,284.26 135.83,282.96 136.88,280.47 137.41,279.23 137.94,277.98 138.46,276.77 139.51,274.42 140.04,273.24 140.57,272.07 142.14,268.77 142.67,267.67 143.19,266.65 144.77,263.65 145.30,262.69 145.82,261.79 147.40,259.09 147.93,258.29 148.45,257.49 149.50,255.89 150.03,255.15 150.55,254.46 151.08,253.78 152.13,252.43 153.18,251.30 153.71,250.73 154.23,250.17 154.76,249.67 155.81,248.72 156.34,248.25 156.86,247.80 158.44,246.60 158.97,246.20 159.49,245.86 161.07,244.87 161.60,244.57 162.12,244.30 162.65,244.04 163.70,243.50 166.33,242.34 167.90,241.72 168.43,241.52 168.96,241.32 171.58,240.41 173.16,239.91 174.21,239.57 176.84,238.80 177.89,238.52 182.10,237.41 186.31,236.40 188.93,235.80 190.51,235.44 194.72,234.51 198.92,233.61 203.66,232.63 208.91,231.57 212.07,230.95 216.80,230.05 220.48,229.38 225.21,228.56 229.42,227.88 232.05,227.49 235.20,227.03 238.36,226.62 240.46,226.36 243.09,226.07 245.19,225.85 247.29,225.67 250.45,225.40 252.03,225.30 255.71,225.08 260.96,224.87 265.70,224.76 270.95,224.69 279.37,224.64 303.55,224.62 740.45,224.61"/>
<polyline fill="none" stroke="#9467bd" stroke-width="1.2" opacity="0.55" stroke-dasharray="4 4" points="109.55,77.32 111.12,81.41 115.33,92.28 117.43,97.70 119.53,103.08 121.11,107.09 122.69,111.06 124.27,115.02 125.84,118.94 126.90,121.54 127.42,122.83 129.00,126.69 130.05,129.25 131.10,131.77 132.15,134.29 133.20,136.81 134.26,139.29 135.31,141.76 135.83,142.99 136.88,145.44 137.41,146.64 137.94,147.85 138.99,150.26 139.51,151.46 140.04,152.63 140.57,153.81 142.14,157.32 142.67,158.48 143.19,159.61 144.77,163.02 145.30,164.16 145.82,165.25 147.40,168.54 147.93,169.64 148.45,170.70 149.50,172.80 150.03,173.85 150.55,174.90 151.08,175.94 152.13,177.93 153.18,179.92 153.71,180.92 154.23,181.87 154.76,182.81 155.81,184.68 156.34,185.62 156.86,186.53 158.44,189.11 158.97,189.97 159.49,190.83 161.07,193.17 161.60,193.96 162.12,194.74 162.65,195.46 163.70,196.75 165.28,198.70 166.33,199.99 167.90,201.94 168.43,202.48 168.96,202.96 171.58,205.33 173.16,206.76 173.69,207.13 174.21,207.47 176.84,209.16 177.89,209.84 181.57,211.61 182.10,211.86 186.31,213.41 187.88,213.88 190.51,214.67 193.67,215.47 195.24,215.85 198.92,216.67 203.13,217.52 207.86,218.39 212.59,219.21 216.80,219.90 220.48,220.48 224.69,221.09 229.42,221.74 232.57,222.13 235.20,222.45 238.36,222.79 240.46,223.01 243.09,223.25 245.72,223.49 247.82,223.64 250.45,223.83 252.03,223.91 255.71,224.11 260.96,224.31 266.22,224.44 272.53,224.53 282.52,224.59 311.44,224.61 740.45,224.61"/>
<polyline fill="none" stroke="#9467bd" stroke-width="1.2" opacity="0.55" stroke-dasharray="4 4" points="109.55,76.00 111.12,81.34 115.33,95.54 117.43,102.59 119.53,109.57 121.11,114.75 122.69,119.90 124.27,124.99 125.84,130.02 126.90,133.34 127.42,135.00 129.00,139.91 130.05,143.10 131.10,146.29 132.15,149.48 133.20,152.56 134.26,155.62 135.31,158.67 135.83,160.14 136.88,163.07 137.41,164.53 137.94,165.97 138.99,168.74 139.51,170.12 140.04,171.51 140.57,172.86 142.14,176.73 142.67,178.01 143.19,179.26 144.77,182.77 145.30,183.95 145.82,185.06 147.40,188.16 147.93,189.20 148.45,190.16 149.50,191.93 150.03,192.81 150.55,193.70 151.08,194.51 152.13,195.95 153.18,197.40 153.71,198.04 154.23,198.61 154.76,199.17 155.81,200.31 156.34,200.79 156.86,201.23 158.44,202.52 158.97,202.89 159.49,203.23 161.07,204.22 161.60,204.51 162.12,204.77 162.65,205.04 163.70,205.56 165.28,206.23 166.33,206.67 167.90,207.23 168.43,207.42 168.96,207.60 171.58,208.40 173.16,208.87 173.69,209.03 174.21,209.19 176.84,209.87 177.89,210.15 181.57,211.06 182.10,211.19 186.31,212.20 187.88,212.57 190.51,213.18 193.67,213.91 195.24,214.27 198.92,215.10 203.13,216.03 207.86,217.04 212.59,218.02 216.80,218.86 220.48,219.57 224.69,220.34 229.42,221.16 232.57,221.66 235.20,222.06 238.36,222.51 240.46,222.77 243.09,223.09 245.72,223.37 247.82,223.58 250.45,223.80 252.03,223.92 255.71,224.14 260.96,224.36 266.22,224.49 272.53,224.56 282.52,224.60 311.44,224.61 740.45,224.61"/>
<polyline fill="none" stroke="#9467bd" stroke-width="2.0" opacity="1.0" points="109.55,79.02 111.12,83.60 115.33,95.83 117.43,101.90 119.53,107.91 121.11,112.39 122.69,116.83 124.27,121.24 125.84,125.61 126.90,128.49 127.42,129.92 129.00,134.21 130.05,137.03 131.10,139.85 132.15,142.63 133.20,145.40 134.26,148.13 135.31,150.84 135.83,152.19 136.88,154.83 137.41,156.16 137.94,157.48 138.99,160.06 139.51,161.34 140.04,162.63 140.57,163.90 142.14,167.62 142.67,168.86 143.19,170.05 144.77,173.60 145.30,174.77 145.82,175.89 147.40,179.27 147.93,180.34 148.45,181.40 149.50,183.53 150.03,184.55 150.55,185.53 151.08,186.50 152.13,188.45 153.18,190.21 153.71,191.10 154.23,191.98 154.76,192.81 155.81,194.40 156.34,195.19 156.86,195.97 158.44,198.07 158.97,198.77 159.49,199.38 161.07,201.16 161.60,201.70 162.12,202.18 162.65,202.67 163.70,203.63 165.28,204.86 166.33,205.68 167.90,206.65 168.43,206.97 168.96,207.30 171.58,208.60 173.16,209.26 173.69,209.47 174.21,209.69 176.84,210.62 177.89,210.93 181.57,212.01 182.10,212.16 186.31,213.21 187.88,213.59 190.51,214.18 193.67,214.88 195.24,215.22 198.92,215.99 203.13,216.85 207.86,217.77 212.59,218.67 216.80,219.43 220.48,220.07 224.69,220.77 229.42,221.50 232.57,221.95 235.20,222.30 238.36,222.69 240.46,222.94 243.09,223.21 245.72,223.47 247.82,223.64 250.45,223.85 252.03,223.94 255.71,224.16 260.96,224.36 266.22,224.48 272.53,224.55 282.52,224.60 311.44,224.61 740.45,224.61"/>
<line x1="88" y1="70" x2="110" y2="70" stroke="#2ca02c" stroke-width="2.4"/>
<text x="116" y="74" font-family="Arial, sans-serif" font-size="12">[GND Clamp]</text>
<line x1="88" y1="88" x2="110" y2="88" stroke="#9467bd" stroke-width="2.4"/>
<text x="116" y="92" font-family="Arial, sans-serif" font-size="12">[POWER Clamp]</text>
<text x="425.00" y="444.00" text-anchor="middle" font-family="Arial, sans-serif" font-size="12">Table voltage (V)</text>
<text transform="translate(18 226.00) rotate(-90)" text-anchor="middle" font-family="Arial, sans-serif" font-size="12">Current (A)</text>
<text x="420" y="42" font-family="Arial, sans-serif" font-size="11" fill="#555">solid=typ, dashed=min/max; dashed vertical=required sweep boundary (5.3.4/5.3.5)</text>
</svg>