<svg xmlns="http://www.w3.org/2000/svg" width="800" height="560" viewBox="0 0 800 560">
<rect width="100%" height="100%" fill="#ffffff"/>
<text x="78" y="25" font-family="Arial, sans-serif" font-size="16" font-weight="700">NF_DQ I-V Clamp Sweep Range</text>
<rect x="78" y="52" width="694" height="348" fill="#fbfbfb" stroke="#c8c8c8"/>
<line x1="78.00" y1="52" x2="78.00" y2="400" stroke="#ececec"/>
<text x="78.00" y="422" text-anchor="middle" font-family="Arial, sans-serif" font-size="11">-1.4</text>
<line x1="216.80" y1="52" x2="216.80" y2="400" stroke="#ececec"/>
<text x="216.80" y="422" text-anchor="middle" font-family="Arial, sans-serif" font-size="11">-0.588</text>
<line x1="355.60" y1="52" x2="355.60" y2="400" stroke="#ececec"/>
<text x="355.60" y="422" text-anchor="middle" font-family="Arial, sans-serif" font-size="11">0.204</text>
<line x1="494.40" y1="52" x2="494.40" y2="400" stroke="#ececec"/>
<text x="494.40" y="422" text-anchor="middle" font-family="Arial, sans-serif" font-size="11">0.996</text>
<line x1="633.20" y1="52" x2="633.20" y2="400" stroke="#ececec"/>
<text x="633.20" y="422" text-anchor="middle" font-family="Arial, sans-serif" font-size="11">1.8</text>
<line x1="772.00" y1="52" x2="772.00" y2="400" stroke="#ececec"/>
<text x="772.00" y="422" text-anchor="middle" font-family="Arial, sans-serif" font-size="11">2.6</text>
<line x1="78" y1="400.00" x2="772" y2="400.00" stroke="#ececec"/>
<text x="70" y="404.00" text-anchor="end" font-family="Arial, sans-serif" font-size="11">-0.167</text>
<line x1="78" y1="330.40" x2="772" y2="330.40" stroke="#ececec"/>
<text x="70" y="334.40" text-anchor="end" font-family="Arial, sans-serif" font-size="11">-0.13</text>
<line x1="78" y1="260.80" x2="772" y2="260.80" stroke="#ececec"/>
<text x="70" y="264.80" text-anchor="end" font-family="Arial, sans-serif" font-size="11">-0.0939</text>
<line x1="78" y1="191.20" x2="772" y2="191.20" stroke="#ececec"/>
<text x="70" y="195.20" text-anchor="end" font-family="Arial, sans-serif" font-size="11">-0.0575</text>
<line x1="78" y1="121.60" x2="772" y2="121.60" stroke="#ececec"/>
<text x="70" y="125.60" text-anchor="end" font-family="Arial, sans-serif" font-size="11">-0.0212</text>
<line x1="78" y1="52.00" x2="772" y2="52.00" stroke="#ececec"/>
<text x="70" y="56.00" text-anchor="end" font-family="Arial, sans-serif" font-size="11">0.0152</text>
<line x1="319.85" y1="52" x2="319.85" y2="400" stroke="#777" stroke-dasharray="4 4"/>
<line x1="78" y1="81.08" x2="772" y2="81.08" stroke="#777" stroke-dasharray="4 4"/>
<line x1="109.55" y1="52" x2="109.55" y2="400" stroke="#555" stroke-dasharray="2 4"/>
<text x="113.55" y="66" font-family="Arial, sans-serif" font-size="11" fill="#555">-Vcc</text>
<line x1="530.15" y1="52" x2="530.15" y2="400" stroke="#555" stroke-dasharray="2 4"/>
<text x="534.15" y="66" font-family="Arial, sans-serif" font-size="11" fill="#555">Vcc</text>
<line x1="740.45" y1="52" x2="740.45" y2="400" stroke="#555" stroke-dasharray="2 4"/>
<text x="744.45" y="66" font-family="Arial, sans-serif" font-size="11" fill="#555">2Vcc</text>
<polyline fill="none" stroke="#2ca02c" stroke-width="1.2" opacity="0.55" stroke-dasharray="4 4" points="109.55,326.97 112.17,314.72 114.28,305.00 115.85,297.75 117.43,290.54 119.01,283.38 120.06,278.63 121.11,273.91 122.16,269.22 123.22,264.53 124.27,259.87 125.32,255.25 126.37,250.64 126.90,248.35 127.42,246.07 128.47,241.51 130.05,234.77 130.58,232.53 132.15,225.88 132.68,223.68 133.73,219.31 134.26,217.14 134.78,214.98 135.31,212.82 135.83,210.68 136.88,206.45 137.41,204.33 137.94,202.22 138.99,198.10 139.51,196.04 140.57,191.96 141.09,189.97 141.62,187.97 142.67,183.99 143.19,182.06 143.72,180.14 144.77,176.29 145.30,174.42 145.82,172.58 146.87,168.89 147.40,167.08 147.93,165.32 148.45,163.57 148.98,161.82 149.50,160.07 150.03,158.42 151.61,153.49 152.13,151.91 152.66,150.38 154.23,145.81 155.81,141.59 156.34,140.19 156.86,138.86 158.44,135.00 158.97,133.74 159.49,132.59 161.07,129.14 162.12,127.10 163.17,125.11 163.70,124.16 165.80,120.79 166.85,119.30 168.43,117.13 170.53,114.48 172.64,112.14 173.16,111.62 174.74,110.22 175.27,109.76 177.89,107.87 181.57,105.33 184.20,103.48 184.73,103.14 189.99,100.44 193.14,98.92 196.30,97.52 201.03,95.58 205.76,93.79 211.02,91.93 215.75,90.36 219.95,89.04 224.16,87.79 227.84,86.77 231.52,85.81 234.15,85.19 236.78,84.60 239.93,83.95 243.09,83.40 245.72,82.98 249.40,82.49 254.13,81.99 255.71,81.87 258.86,81.65 262.02,81.48 266.22,81.32 270.95,81.20 279.89,81.12 301.45,81.09 740.45,81.08"/>
<polyline fill="none" stroke="#2ca02c" stroke-width="1.2" opacity="0.55" stroke-dasharray="4 4" points="109.55,376.00 112.17,353.87 114.28,336.21 115.85,323.12 117.43,310.19 119.01,297.44 120.06,289.04 121.11,280.73 122.16,272.53 123.22,264.43 124.27,256.44 125.32,248.58 126.37,240.86 126.90,237.06 127.42,233.28 128.47,225.86 130.05,215.13 130.58,211.55 132.15,201.43 132.68,198.06 133.73,191.77 134.26,188.64 134.78,185.51 135.31,182.59 135.83,179.75 136.88,174.06 137.41,171.42 137.94,168.89 138.99,163.84 139.51,161.49 140.57,157.11 141.09,154.92 141.62,152.89 142.67,149.27 143.19,147.46 143.72,145.76 144.77,142.82 145.30,141.36 145.82,139.95 146.87,137.61 147.40,136.44 147.93,135.30 148.45,134.38 148.98,133.46 149.50,132.54 150.03,131.63 151.61,129.44 152.13,128.72 152.66,128.10 154.23,126.30 155.81,124.87 156.34,124.41 156.86,123.94 158.44,122.54 158.97,122.12 159.49,121.74 161.07,120.61 162.12,119.85 163.17,119.19 163.70,118.86 165.80,117.55 166.85,116.94 168.43,116.04 170.53,114.90 172.64,113.80 173.16,113.53 174.74,112.73 175.27,112.46 177.89,111.16 181.57,109.36 184.20,108.11 184.73,107.86 189.99,105.39 193.14,103.92 196.30,102.47 201.03,100.35 205.76,98.26 211.02,96.01 215.75,94.05 219.95,92.36 224.16,90.73 227.84,89.40 231.52,88.10 234.15,87.25 236.78,86.40 239.93,85.52 243.09,84.64 245.72,84.05 249.40,83.25 254.13,82.48 255.71,82.26 258.86,81.94 262.02,81.64 266.22,81.41 270.95,81.24 279.89,81.12 301.45,81.08 740.45,81.08"/>
<polyline fill="none" stroke="#2ca02c" stroke-width="2.0" opacity="1.0" points="109.55,339.62 112.17,323.95 114.28,311.54 115.85,302.31 117.43,293.16 119.01,284.10 120.06,278.09 121.11,272.13 122.16,266.22 123.22,260.34 124.27,254.53 125.32,248.75 126.37,243.04 126.90,240.19 127.42,237.39 128.47,231.79 130.05,223.53 130.58,220.79 132.15,212.76 132.68,210.13 133.73,204.92 134.26,202.33 134.78,199.80 135.31,197.28 135.83,194.76 136.88,189.86 137.41,187.43 137.94,185.03 138.99,180.36 139.51,178.03 140.57,173.58 141.09,171.36 141.62,169.24 142.67,165.21 143.19,163.20 143.72,161.18 144.77,157.16 145.30,155.32 145.82,153.61 146.87,150.18 147.40,148.47 147.93,146.75 148.45,145.04 148.98,143.57 149.50,142.19 150.03,140.81 151.61,136.68 152.13,135.30 152.66,134.20 154.23,131.05 155.81,127.90 156.34,127.12 156.86,126.34 158.44,124.00 158.97,123.22 159.49,122.47 161.07,120.71 162.12,119.54 163.17,118.40 163.70,117.94 165.80,116.09 166.85,115.19 168.43,114.04 170.53,112.53 172.64,111.20 173.16,110.86 174.74,109.92 175.27,109.63 177.89,108.16 181.57,106.28 184.20,105.01 184.73,104.76 189.99,102.39 193.14,101.03 196.30,99.70 201.03,97.75 205.76,95.85 211.02,93.82 215.75,92.07 219.95,90.55 224.16,89.14 227.84,87.93 231.52,86.84 234.15,86.07 236.78,85.39 239.93,84.59 243.09,83.92 245.72,83.39 249.40,82.76 254.13,82.15 255.71,82.00 258.86,81.72 262.02,81.53 266.22,81.34 270.95,81.22 279.89,81.12 301.45,81.08 740.45,81.08"/>
<polyline fill="none" stroke="#9467bd" stroke-width="1.2" opacity="0.55" stroke-dasharray="4 4" points="109.55,76.57 110.42,76.57 113.93,76.57 118.31,76.57 122.69,76.57 127.07,76.57 131.45,76.57 134.96,76.57 137.59,76.57 138.46,76.57 145.47,76.57 152.48,76.57 160.37,76.60 168.26,76.66 178.77,76.75 188.41,76.85 197.17,76.94 204.18,77.02 209.44,77.09 214.70,77.16 219.95,77.24 221.71,77.26 225.21,77.32 226.96,77.35 228.72,77.39 231.35,77.44 233.97,77.49 234.85,77.51 235.73,77.53 240.11,77.64 240.98,77.66 243.61,77.74 247.12,77.84 247.99,77.87 249.75,77.93 254.13,78.08 255.88,78.15 257.63,78.22 259.39,78.29 261.14,78.36 264.64,78.51 267.27,78.63 270.78,78.79 275.16,78.99 295.31,79.95 303.20,80.32 311.09,80.68 318.10,81.00 319.85,81.08 328.61,81.47 336.50,81.81 340.88,82.00 344.38,82.15 356.65,82.66 359.28,82.77 372.42,83.28 374.18,83.35 376.81,83.45 385.57,83.77 389.95,83.93 390.83,83.96 398.71,84.22 406.60,84.49 412.73,84.67 423.25,84.99 426.75,85.08 439.02,85.41 442.53,85.49 453.04,85.74 456.55,85.83 466.18,86.02 473.19,86.17 474.95,86.20 479.33,86.28 489.84,86.47 493.35,86.53 506.49,86.73 511.75,86.81 520.51,86.94 524.02,86.99 530.15,87.07 534.53,87.13 539.79,87.20 546.80,87.29 557.32,87.42 567.83,87.55 574.84,87.63 585.36,87.75 595.87,87.86 609.02,88.00 627.42,88.19 649.32,88.41 670.35,88.62 691.38,88.83 737.83,89.27 740.45,89.30"/>
<polyline fill="none" stroke="#9467bd" stroke-width="1.2" opacity="0.55" stroke-dasharray="4 4" points="109.55,76.00 110.42,76.01 113.93,76.06 118.31,76.12 122.69,76.18 127.07,76.23 131.45,76.28 134.96,76.32 137.59,76.34 138.46,76.35 145.47,76.41 152.48,76.47 160.37,76.54 168.26,76.61 178.77,76.70 188.41,76.79 197.17,76.88 204.18,76.95 209.44,77.01 214.70,77.08 219.95,77.14 221.71,77.17 225.21,77.22 226.96,77.24 228.72,77.27 231.35,77.32 233.97,77.36 234.85,77.38 235.73,77.40 240.11,77.49 240.98,77.51 243.61,77.58 247.12,77.67 247.99,77.69 249.75,77.75 254.13,77.90 255.88,77.97 257.63,78.04 259.39,78.12 261.14,78.19 264.64,78.35 267.27,78.47 270.78,78.64 275.16,78.86 295.31,79.87 303.20,80.26 311.09,80.65 318.10,80.99 319.85,81.08 328.61,81.50 336.50,81.87 340.88,82.08 344.38,82.25 356.65,82.81 359.28,82.93 372.42,83.52 374.18,83.59 376.81,83.70 385.57,84.08 389.95,84.26 390.83,84.30 398.71,84.62 406.60,84.93 412.73,85.17 423.25,85.56 426.75,85.69 439.02,86.13 442.53,86.25 453.04,86.61 456.55,86.72 466.18,87.03 473.19,87.24 474.95,87.29 479.33,87.43 489.84,87.72 493.35,87.82 506.49,88.15 511.75,88.28 520.51,88.48 524.02,88.56 530.15,88.69 534.53,88.78 539.79,88.89 546.80,89.03 557.32,89.23 567.83,89.42 574.84,89.55 585.36,89.73 595.87,89.90 609.02,90.11 627.42,90.38 649.32,90.71 670.35,91.01 691.38,91.30 737.83,91.92 740.45,91.95"/>
<polyline fill="none" stroke="#9467bd" stroke-width="2.0" opacity="1.0" points="109.55,76.15 110.42,76.16 113.93,76.19 118.31,76.22 122.69,76.26 127.07,76.30 131.45,76.34 134.96,76.38 137.59,76.40 138.46,76.41 145.47,76.47 152.48,76.53 160.37,76.60 168.26,76.67 178.77,76.76 188.41,76.85 197.17,76.94 204.18,77.02 209.44,77.08 214.70,77.14 219.95,77.21 221.71,77.24 225.21,77.29 226.96,77.32 228.72,77.35 231.35,77.39 233.97,77.44 234.85,77.46 235.73,77.47 240.11,77.57 240.98,77.59 243.61,77.67 247.12,77.77 247.99,77.79 249.75,77.85 254.13,78.01 255.88,78.07 257.63,78.14 259.39,78.21 261.14,78.29 264.64,78.44 267.27,78.56 270.78,78.72 275.16,78.93 295.31,79.92 303.20,80.29 311.09,80.67 318.10,81.00 319.85,81.08 328.61,81.48 336.50,81.84 340.88,82.04 344.38,82.19 356.65,82.73 359.28,82.84 372.42,83.39 374.18,83.46 376.81,83.57 385.57,83.91 389.95,84.08 390.83,84.12 398.71,84.40 406.60,84.69 412.73,84.90 423.25,85.26 426.75,85.37 439.02,85.76 442.53,85.86 453.04,86.16 456.55,86.26 466.18,86.51 473.19,86.69 474.95,86.73 479.33,86.84 489.84,87.08 493.35,87.15 506.49,87.42 511.75,87.52 520.51,87.68 524.02,87.74 530.15,87.85 534.53,87.92 539.79,88.01 546.80,88.12 557.32,88.28 567.83,88.44 574.84,88.54 585.36,88.69 595.87,88.83 609.02,89.00 627.42,89.23 649.32,89.50 670.35,89.76 691.38,90.01 737.83,90.55 740.45,90.58"/>
<line x1="88" y1="70" x2="110" y2="70" stroke="#2ca02c" stroke-width="2.4"/>
<text x="116" y="74" font-family="Arial, sans-serif" font-size="12">[GND Clamp]</text>
<line x1="88" y1="88" x2="110" y2="88" stroke="#9467bd" stroke-width="2.4"/>
<text x="116" y="92" font-family="Arial, sans-serif" font-size="12">[POWER Clamp]</text>
<text x="425.00" y="444.00" text-anchor="middle" font-family="Arial, sans-serif" font-size="12">Table voltage (V)</text>
<text transform="translate(18 226.00) rotate(-90)" text-anchor="middle" font-family="Arial, sans-serif" font-size="12">Current (A)</text>
<text x="420" y="42" font-family="Arial, sans-serif" font-size="11" fill="#555">solid=typ, dashed=min/max; dashed vertical=required sweep boundary (5.3.4/5.3.5)</text>
</svg>