<svg xmlns="http://www.w3.org/2000/svg" width="800" height="560" viewBox="0 0 800 560">
<rect width="100%" height="100%" fill="#ffffff"/>
<text x="78" y="25" font-family="Arial, sans-serif" font-size="16" font-weight="700">ALERT I-V Clamp Sweep Range</text>
<rect x="78" y="52" width="694" height="348" fill="#fbfbfb" stroke="#c8c8c8"/>
<line x1="78.00" y1="52" x2="78.00" y2="400" stroke="#ececec"/>
<text x="78.00" y="422" text-anchor="middle" font-family="Arial, sans-serif" font-size="11">-1.4</text>
<line x1="216.80" y1="52" x2="216.80" y2="400" stroke="#ececec"/>
<text x="216.80" y="422" text-anchor="middle" font-family="Arial, sans-serif" font-size="11">-0.588</text>
<line x1="355.60" y1="52" x2="355.60" y2="400" stroke="#ececec"/>
<text x="355.60" y="422" text-anchor="middle" font-family="Arial, sans-serif" font-size="11">0.204</text>
<line x1="494.40" y1="52" x2="494.40" y2="400" stroke="#ececec"/>
<text x="494.40" y="422" text-anchor="middle" font-family="Arial, sans-serif" font-size="11">0.996</text>
<line x1="633.20" y1="52" x2="633.20" y2="400" stroke="#ececec"/>
<text x="633.20" y="422" text-anchor="middle" font-family="Arial, sans-serif" font-size="11">1.8</text>
<line x1="772.00" y1="52" x2="772.00" y2="400" stroke="#ececec"/>
<text x="772.00" y="422" text-anchor="middle" font-family="Arial, sans-serif" font-size="11">2.6</text>
<line x1="78" y1="400.00" x2="772" y2="400.00" stroke="#ececec"/>
<text x="70" y="404.00" text-anchor="end" font-family="Arial, sans-serif" font-size="11">-0.0841</text>
<line x1="78" y1="330.40" x2="772" y2="330.40" stroke="#ececec"/>
<text x="70" y="334.40" text-anchor="end" font-family="Arial, sans-serif" font-size="11">-0.0392</text>
<line x1="78" y1="260.80" x2="772" y2="260.80" stroke="#ececec"/>
<text x="70" y="264.80" text-anchor="end" font-family="Arial, sans-serif" font-size="11">0.00573</text>
<line x1="78" y1="191.20" x2="772" y2="191.20" stroke="#ececec"/>
<text x="70" y="195.20" text-anchor="end" font-family="Arial, sans-serif" font-size="11">0.0506</text>
<line x1="78" y1="121.60" x2="772" y2="121.60" stroke="#ececec"/>
<text x="70" y="125.60" text-anchor="end" font-family="Arial, sans-serif" font-size="11">0.0956</text>
<line x1="78" y1="52.00" x2="772" y2="52.00" stroke="#ececec"/>
<text x="70" y="56.00" text-anchor="end" font-family="Arial, sans-serif" font-size="11">0.14</text>
<line x1="319.85" y1="52" x2="319.85" y2="400" stroke="#777" stroke-dasharray="4 4"/>
<line x1="78" y1="269.68" x2="772" y2="269.68" stroke="#777" stroke-dasharray="4 4"/>
<line x1="109.55" y1="52" x2="109.55" y2="400" stroke="#555" stroke-dasharray="2 4"/>
<text x="113.55" y="66" font-family="Arial, sans-serif" font-size="11" fill="#555">-Vcc</text>
<line x1="530.15" y1="52" x2="530.15" y2="400" stroke="#555" stroke-dasharray="2 4"/>
<text x="534.15" y="66" font-family="Arial, sans-serif" font-size="11" fill="#555">Vcc</text>
<line x1="740.45" y1="52" x2="740.45" y2="400" stroke="#555" stroke-dasharray="2 4"/>
<text x="744.45" y="66" font-family="Arial, sans-serif" font-size="11" fill="#555">2Vcc</text>
<polyline fill="none" stroke="#2ca02c" stroke-width="1.2" opacity="0.55" stroke-dasharray="4 4" points="109.55,374.84 110.42,373.34 112.17,370.38 113.93,367.43 116.56,363.05 117.43,361.60 118.31,360.15 119.18,358.70 120.06,357.25 121.81,354.40 122.69,352.97 124.44,350.13 125.32,348.72 126.19,347.33 127.07,345.93 128.82,343.14 129.70,341.78 130.58,340.45 131.45,339.11 133.20,336.44 134.08,335.11 137.59,329.76 138.46,328.49 139.34,327.26 141.09,324.81 141.97,323.58 146.35,317.44 147.22,316.31 148.10,315.24 148.98,314.18 149.85,313.11 154.23,307.78 155.11,306.71 155.99,305.79 156.86,304.94 157.74,304.09 161.24,300.70 163.00,299.00 163.87,298.15 164.75,297.45 165.63,296.81 166.50,296.17 167.38,295.52 171.76,292.31 172.64,291.67 173.51,291.13 176.14,289.64 180.52,287.15 181.40,286.65 182.28,286.24 185.78,284.68 189.29,283.12 190.16,282.73 191.04,282.42 194.54,281.22 196.30,280.62 198.92,279.72 201.55,278.97 203.31,278.47 206.81,277.48 207.69,277.26 210.32,276.60 212.07,276.16 213.82,275.74 218.20,274.76 219.08,274.56 219.95,274.36 225.21,273.33 226.09,273.15 226.96,272.98 231.35,272.26 232.22,272.12 233.97,271.84 234.85,271.73 237.48,271.40 238.36,271.28 240.11,271.06 240.98,270.97 241.86,270.89 242.74,270.81 244.49,270.66 247.12,270.43 248.87,270.32 249.75,270.28 250.62,270.23 254.13,270.04 255.01,270.01 256.76,269.96 259.39,269.88 261.14,269.84 262.89,269.81 265.52,269.77 269.03,269.74 276.04,269.70 292.68,269.68 319.85,269.68 740.45,269.68"/>
<polyline fill="none" stroke="#2ca02c" stroke-width="1.2" opacity="0.55" stroke-dasharray="4 4" points="109.55,376.00 110.42,373.96 112.17,369.92 113.93,365.91 116.56,360.01 117.43,358.04 118.31,356.08 119.18,354.16 120.06,352.26 121.81,348.46 122.69,346.56 124.44,342.93 125.32,341.11 126.19,339.29 127.07,337.51 128.82,334.09 129.70,332.39 130.58,330.68 131.45,329.11 133.20,326.18 134.08,324.72 137.59,318.85 138.46,317.39 139.34,316.02 141.09,313.94 141.97,312.90 146.35,307.70 147.22,306.66 148.10,305.92 148.98,305.22 149.85,304.52 154.23,301.02 155.11,300.39 155.99,299.85 156.86,299.32 157.74,298.78 161.24,296.63 163.00,295.75 163.87,295.31 164.75,294.87 165.63,294.43 166.50,293.99 167.38,293.60 171.76,291.73 172.64,291.39 173.51,291.05 176.14,290.04 180.52,288.43 181.40,288.12 182.28,287.81 185.78,286.57 189.29,285.35 190.16,285.05 191.04,284.75 194.54,283.57 196.30,282.99 198.92,282.12 201.55,281.26 203.31,280.69 206.81,279.60 207.69,279.32 210.32,278.51 212.07,277.99 213.82,277.49 218.20,276.23 219.08,275.99 219.95,275.76 225.21,274.41 226.09,274.18 226.96,273.97 231.35,273.03 232.22,272.84 233.97,272.46 234.85,272.29 237.48,271.87 238.36,271.73 240.11,271.45 240.98,271.30 241.86,271.16 242.74,271.04 244.49,270.87 247.12,270.60 248.87,270.43 249.75,270.34 250.62,270.27 254.13,270.06 255.01,270.01 256.76,269.95 259.39,269.86 261.14,269.82 262.89,269.79 265.52,269.75 269.03,269.71 276.04,269.69 292.68,269.68 319.85,269.68 740.45,269.68"/>
<polyline fill="none" stroke="#2ca02c" stroke-width="2.0" opacity="1.0" points="109.55,373.78 110.42,372.07 112.17,368.70 113.93,365.34 116.56,360.36 117.43,358.69 118.31,357.06 119.18,355.43 120.06,353.80 121.81,350.55 122.69,348.96 124.44,345.78 125.32,344.19 126.19,342.66 127.07,341.15 128.82,338.12 129.70,336.61 130.58,335.10 131.45,333.59 133.20,330.57 134.08,329.15 137.59,323.73 138.46,322.38 139.34,321.02 141.09,318.31 141.97,317.07 146.35,311.50 147.22,310.39 148.10,309.27 148.98,308.16 149.85,307.14 154.23,303.00 155.11,302.18 155.99,301.35 156.86,300.52 157.74,299.73 161.24,297.29 163.00,296.07 163.87,295.46 164.75,294.84 165.63,294.24 166.50,293.76 167.38,293.29 171.76,290.90 172.64,290.43 173.51,289.95 176.14,288.82 180.52,286.95 181.40,286.58 182.28,286.25 185.78,285.02 189.29,283.79 190.16,283.50 191.04,283.22 194.54,282.10 196.30,281.56 198.92,280.76 201.55,279.96 203.31,279.46 206.81,278.45 207.69,278.20 210.32,277.48 212.07,277.00 213.82,276.53 218.20,275.43 219.08,275.21 219.95,274.99 225.21,273.80 226.09,273.60 226.96,273.43 231.35,272.56 232.22,272.41 233.97,272.12 234.85,271.98 237.48,271.55 238.36,271.43 240.11,271.22 240.98,271.11 241.86,271.01 242.74,270.90 244.49,270.70 247.12,270.49 248.87,270.35 249.75,270.28 250.62,270.21 254.13,270.05 255.01,270.01 256.76,269.93 259.39,269.86 261.14,269.82 262.89,269.79 265.52,269.75 269.03,269.72 276.04,269.69 292.68,269.68 319.85,269.68 740.45,269.68"/>
<polyline fill="none" stroke="#9467bd" stroke-width="1.2" opacity="0.55" stroke-dasharray="4 4" points="109.55,151.35 110.42,153.29 111.30,155.21 112.17,157.13 113.05,159.04 113.93,160.96 114.80,162.86 115.68,164.76 116.56,166.66 117.43,168.54 118.31,170.43 119.18,172.31 120.06,174.19 120.94,176.06 121.81,177.92 122.69,179.78 123.57,181.64 124.44,183.50 125.32,185.34 126.19,187.16 127.07,188.99 128.82,192.64 129.70,194.43 130.58,196.20 131.45,197.96 133.20,201.49 134.08,203.26 137.59,210.32 138.46,212.01 139.34,213.66 141.09,216.97 141.97,218.62 146.35,226.87 147.22,228.41 148.10,229.89 148.98,231.37 149.85,232.84 154.23,240.22 155.11,241.70 155.99,242.99 156.86,244.19 157.74,245.40 161.24,250.22 162.12,251.42 163.87,253.83 164.75,254.76 165.63,255.58 166.50,256.40 167.38,257.22 170.88,260.51 171.76,261.33 172.64,262.15 173.51,262.68 174.39,263.11 176.14,263.98 177.02,264.42 180.52,266.15 181.40,266.59 182.28,266.83 184.90,267.38 185.78,267.56 189.29,268.30 190.16,268.48 191.04,268.57 194.54,268.81 195.42,268.87 196.30,268.93 198.92,269.12 199.80,269.15 201.55,269.20 204.18,269.28 205.93,269.33 206.81,269.35 211.19,269.40 212.94,269.42 213.82,269.43 219.95,269.47 226.96,269.51 233.10,269.54 235.73,269.55 240.11,269.57 244.49,269.58 250.62,269.61 255.88,269.62 260.26,269.63 263.77,269.64 268.15,269.65 273.41,269.66 278.66,269.67 283.92,269.68 288.30,269.68 293.56,269.68 305.83,269.68 319.85,269.68 740.45,269.68"/>
<polyline fill="none" stroke="#9467bd" stroke-width="1.2" opacity="0.55" stroke-dasharray="4 4" points="109.55,76.00 110.42,80.80 111.30,85.58 112.17,90.36 113.05,95.14 113.93,99.92 114.80,104.66 115.68,109.39 116.56,114.12 117.43,118.85 118.31,123.58 119.18,128.23 120.06,132.83 120.94,137.44 121.81,142.04 122.69,146.64 123.57,151.10 124.44,155.55 125.32,159.99 126.19,164.44 127.07,168.84 128.82,177.32 129.70,181.57 130.58,185.81 131.45,189.80 133.20,197.39 134.08,201.18 137.59,216.36 138.46,220.16 139.34,223.73 141.09,229.38 141.97,232.20 146.35,246.30 147.22,249.12 148.10,250.80 148.98,252.31 149.85,253.82 154.23,261.38 155.11,262.47 155.99,263.06 156.86,263.66 157.74,264.25 161.24,266.62 162.12,266.88 163.87,267.34 164.75,267.56 165.63,267.79 166.50,268.01 167.38,268.15 170.88,268.53 171.76,268.61 172.64,268.65 173.51,268.69 174.39,268.73 176.14,268.81 177.02,268.84 180.52,268.92 181.40,268.94 182.28,268.95 184.90,268.99 185.78,269.00 189.29,269.03 190.16,269.04 191.04,269.05 194.54,269.08 195.42,269.09 196.30,269.10 198.92,269.13 199.80,269.14 201.55,269.16 204.18,269.18 205.93,269.20 206.81,269.21 211.19,269.25 212.94,269.27 213.82,269.27 219.95,269.33 226.96,269.38 233.10,269.43 235.73,269.45 240.11,269.48 244.49,269.51 250.62,269.55 255.88,269.58 260.26,269.60 263.77,269.61 268.15,269.63 273.41,269.65 278.66,269.66 283.92,269.67 288.30,269.68 293.56,269.68 305.83,269.68 319.85,269.68 740.45,269.68"/>
<polyline fill="none" stroke="#9467bd" stroke-width="2.0" opacity="1.0" points="109.55,125.34 110.42,128.27 111.30,131.17 112.17,134.07 113.05,136.96 113.93,139.84 114.80,142.70 115.68,145.56 116.56,148.42 117.43,151.28 118.31,154.10 119.18,156.92 120.06,159.73 120.94,162.55 121.81,165.35 122.69,168.10 123.57,170.86 124.44,173.62 125.32,176.38 126.19,179.05 127.07,181.70 128.82,186.99 129.70,189.64 130.58,192.29 131.45,194.93 133.20,200.23 134.08,202.74 137.59,212.47 138.46,214.90 139.34,217.33 141.09,222.20 141.97,224.47 146.35,234.89 147.22,236.97 148.10,239.06 148.98,241.14 149.85,243.05 154.23,250.73 155.11,252.26 155.99,253.80 156.86,255.33 157.74,256.74 161.24,260.17 162.12,261.03 163.87,262.74 164.75,263.60 165.63,264.43 166.50,264.78 167.38,265.14 170.88,266.56 171.76,266.91 172.64,267.27 173.51,267.62 174.39,267.76 176.14,268.01 177.02,268.13 180.52,268.62 181.40,268.75 182.28,268.80 184.90,268.92 185.78,268.95 189.29,269.10 190.16,269.12 191.04,269.14 194.54,269.20 195.42,269.21 196.30,269.22 198.92,269.25 199.80,269.26 201.55,269.27 204.18,269.30 205.93,269.31 206.81,269.32 211.19,269.36 212.94,269.37 213.82,269.38 219.95,269.41 226.96,269.46 233.10,269.49 235.73,269.51 240.11,269.53 244.49,269.55 250.62,269.58 255.88,269.60 260.26,269.62 263.77,269.63 268.15,269.65 273.41,269.66 278.66,269.67 283.92,269.67 288.30,269.68 293.56,269.68 305.83,269.68 319.85,269.68 740.45,269.68"/>
<line x1="88" y1="70" x2="110" y2="70" stroke="#2ca02c" stroke-width="2.4"/>
<text x="116" y="74" font-family="Arial, sans-serif" font-size="12">[GND Clamp]</text>
<line x1="88" y1="88" x2="110" y2="88" stroke="#9467bd" stroke-width="2.4"/>
<text x="116" y="92" font-family="Arial, sans-serif" font-size="12">[POWER Clamp]</text>
<text x="425.00" y="444.00" text-anchor="middle" font-family="Arial, sans-serif" font-size="12">Table voltage (V)</text>
<text transform="translate(18 226.00) rotate(-90)" text-anchor="middle" font-family="Arial, sans-serif" font-size="12">Current (A)</text>
<text x="420" y="42" font-family="Arial, sans-serif" font-size="11" fill="#555">solid=typ, dashed=min/max; dashed vertical=required sweep boundary (5.3.4/5.3.5)</text>
</svg>