<svg xmlns="http://www.w3.org/2000/svg" width="800" height="560" viewBox="0 0 800 560">
<rect width="100%" height="100%" fill="#ffffff"/>
<text x="78" y="25" font-family="Arial, sans-serif" font-size="16" font-weight="700">DQS_40_3200 I-V Clamp Sweep Range</text>
<rect x="78" y="52" width="694" height="348" fill="#fbfbfb" stroke="#c8c8c8"/>
<line x1="78.00" y1="52" x2="78.00" y2="400" stroke="#ececec"/>
<text x="78.00" y="422" text-anchor="middle" font-family="Arial, sans-serif" font-size="11">-1.4</text>
<line x1="216.80" y1="52" x2="216.80" y2="400" stroke="#ececec"/>
<text x="216.80" y="422" text-anchor="middle" font-family="Arial, sans-serif" font-size="11">-0.588</text>
<line x1="355.60" y1="52" x2="355.60" y2="400" stroke="#ececec"/>
<text x="355.60" y="422" text-anchor="middle" font-family="Arial, sans-serif" font-size="11">0.204</text>
<line x1="494.40" y1="52" x2="494.40" y2="400" stroke="#ececec"/>
<text x="494.40" y="422" text-anchor="middle" font-family="Arial, sans-serif" font-size="11">0.996</text>
<line x1="633.20" y1="52" x2="633.20" y2="400" stroke="#ececec"/>
<text x="633.20" y="422" text-anchor="middle" font-family="Arial, sans-serif" font-size="11">1.8</text>
<line x1="772.00" y1="52" x2="772.00" y2="400" stroke="#ececec"/>
<text x="772.00" y="422" text-anchor="middle" font-family="Arial, sans-serif" font-size="11">2.6</text>
<line x1="78" y1="400.00" x2="772" y2="400.00" stroke="#ececec"/>
<text x="70" y="404.00" text-anchor="end" font-family="Arial, sans-serif" font-size="11">-0.178</text>
<line x1="78" y1="330.40" x2="772" y2="330.40" stroke="#ececec"/>
<text x="70" y="334.40" text-anchor="end" font-family="Arial, sans-serif" font-size="11">-0.108</text>
<line x1="78" y1="260.80" x2="772" y2="260.80" stroke="#ececec"/>
<text x="70" y="264.80" text-anchor="end" font-family="Arial, sans-serif" font-size="11">-0.0368</text>
<line x1="78" y1="191.20" x2="772" y2="191.20" stroke="#ececec"/>
<text x="70" y="195.20" text-anchor="end" font-family="Arial, sans-serif" font-size="11">0.034</text>
<line x1="78" y1="121.60" x2="772" y2="121.60" stroke="#ececec"/>
<text x="70" y="125.60" text-anchor="end" font-family="Arial, sans-serif" font-size="11">0.105</text>
<line x1="78" y1="52.00" x2="772" y2="52.00" stroke="#ececec"/>
<text x="70" y="56.00" text-anchor="end" font-family="Arial, sans-serif" font-size="11">0.176</text>
<line x1="319.85" y1="52" x2="319.85" y2="400" stroke="#777" stroke-dasharray="4 4"/>
<line x1="78" y1="224.61" x2="772" y2="224.61" stroke="#777" stroke-dasharray="4 4"/>
<line x1="109.55" y1="52" x2="109.55" y2="400" stroke="#555" stroke-dasharray="2 4"/>
<text x="113.55" y="66" font-family="Arial, sans-serif" font-size="11" fill="#555">-Vcc</text>
<line x1="530.15" y1="52" x2="530.15" y2="400" stroke="#555" stroke-dasharray="2 4"/>
<text x="534.15" y="66" font-family="Arial, sans-serif" font-size="11" fill="#555">Vcc</text>
<line x1="740.45" y1="52" x2="740.45" y2="400" stroke="#555" stroke-dasharray="2 4"/>
<text x="744.45" y="66" font-family="Arial, sans-serif" font-size="11" fill="#555">2Vcc</text>
<polyline fill="none" stroke="#2ca02c" stroke-width="1.2" opacity="0.55" stroke-dasharray="4 4" points="109.55,350.83 111.65,345.80 113.75,340.80 115.33,337.07 116.91,333.36 117.96,330.91 119.01,328.46 120.06,326.02 121.11,323.59 121.64,322.38 123.22,318.78 124.27,316.39 124.79,315.20 125.84,312.83 126.90,310.48 127.42,309.31 128.47,306.96 129.00,305.81 130.05,303.50 131.10,301.21 131.63,300.07 132.68,297.81 133.20,296.68 134.26,294.46 134.78,293.34 135.31,292.23 135.83,291.14 137.41,287.88 137.94,286.80 138.46,285.74 140.04,282.57 140.57,281.54 141.09,280.51 142.14,278.46 143.19,276.46 143.72,275.47 144.25,274.48 144.77,273.49 146.35,270.64 146.87,269.69 148.98,266.07 149.50,265.18 151.61,261.78 152.13,260.98 152.66,260.18 153.71,258.59 154.23,257.83 154.76,257.10 155.29,256.36 156.34,254.91 157.92,252.91 158.44,252.24 159.49,251.04 160.54,249.86 161.07,249.29 163.17,247.22 163.70,246.80 164.22,246.37 166.33,244.67 166.85,244.25 167.38,243.82 167.90,243.42 170.01,242.15 171.58,241.20 172.11,240.90 174.74,239.67 175.79,239.17 176.32,238.94 178.95,237.93 180.00,237.54 182.63,236.66 183.68,236.32 187.36,235.24 191.04,234.28 195.24,233.28 198.92,232.48 203.13,231.63 207.86,230.75 213.12,229.81 217.33,229.11 221.01,228.53 226.26,227.75 228.89,227.38 232.05,226.97 234.68,226.66 237.30,226.36 239.93,226.09 242.56,225.85 245.19,225.63 247.82,225.43 250.45,225.26 253.08,225.12 255.18,225.03 258.33,224.91 259.91,224.87 264.12,224.77 269.38,224.69 276.21,224.64 292.51,224.62 740.45,224.61"/>
<polyline fill="none" stroke="#2ca02c" stroke-width="1.2" opacity="0.55" stroke-dasharray="4 4" points="109.55,376.00 111.65,366.91 113.75,357.83 115.33,351.09 116.91,344.42 117.96,340.03 119.01,335.68 120.06,331.36 121.11,327.10 121.64,325.00 123.22,318.78 124.27,314.64 124.79,312.62 125.84,308.66 126.90,304.70 127.42,302.75 128.47,299.00 129.00,297.13 130.05,293.39 131.10,289.90 131.63,288.15 132.68,284.66 133.20,283.04 134.26,279.88 134.78,278.29 135.31,276.71 135.83,275.22 137.41,271.05 137.94,269.66 138.46,268.33 140.04,264.82 140.57,263.65 141.09,262.48 142.14,260.60 143.19,258.74 143.72,257.80 144.25,257.03 144.77,256.33 146.35,254.22 146.87,253.60 148.98,251.54 149.50,251.04 151.61,249.50 152.13,249.14 152.66,248.83 153.71,248.20 154.23,247.89 154.76,247.63 155.29,247.36 156.34,246.82 157.92,246.13 158.44,245.90 159.49,245.49 160.54,245.09 161.07,244.90 163.17,244.16 163.70,243.99 164.22,243.82 166.33,243.17 166.85,243.01 167.38,242.86 167.90,242.70 170.01,242.11 171.58,241.68 172.11,241.54 174.74,240.86 175.79,240.58 176.32,240.45 178.95,239.79 180.00,239.52 182.63,238.87 183.68,238.61 187.36,237.72 191.04,236.84 195.24,235.85 198.92,234.99 203.13,234.03 207.86,232.97 213.12,231.82 217.33,230.94 221.01,230.19 226.26,229.17 228.89,228.69 232.05,228.13 234.68,227.68 237.30,227.28 239.93,226.87 242.56,226.52 245.19,226.18 247.82,225.90 250.45,225.62 253.08,225.41 255.18,225.25 258.33,225.06 259.91,224.98 264.12,224.83 269.38,224.71 276.21,224.65 292.51,224.61 740.45,224.61"/>
<polyline fill="none" stroke="#2ca02c" stroke-width="2.0" opacity="1.0" points="109.55,357.32 111.65,350.88 113.75,344.50 115.33,339.75 116.91,335.04 117.96,331.92 119.01,328.82 120.06,325.74 121.11,322.68 121.64,321.16 123.22,316.63 124.27,313.64 124.79,312.16 125.84,309.21 126.90,306.29 127.42,304.84 128.47,301.97 129.00,300.56 130.05,297.76 131.10,294.97 131.63,293.57 132.68,290.88 133.20,289.54 134.26,286.87 134.78,285.55 135.31,284.28 135.83,283.01 137.41,279.20 137.94,277.99 138.46,276.81 140.04,273.25 140.57,272.08 141.09,271.00 142.14,268.83 143.19,266.67 143.72,265.65 144.25,264.68 144.77,263.71 146.35,260.81 146.87,259.98 148.98,256.66 149.50,255.89 151.61,253.13 152.13,252.44 152.66,251.86 153.71,250.76 154.23,250.21 154.76,249.66 155.29,249.13 156.34,248.27 157.92,246.98 158.44,246.60 159.49,245.92 160.54,245.24 161.07,244.90 163.17,243.79 163.70,243.52 164.22,243.26 166.33,242.33 166.85,242.10 167.38,241.90 167.90,241.71 170.01,240.93 171.58,240.41 172.11,240.24 174.74,239.42 175.79,239.10 176.32,238.95 178.95,238.21 180.00,237.94 182.63,237.28 183.68,237.03 187.36,236.16 191.04,235.32 195.24,234.40 198.92,233.61 203.13,232.73 207.86,231.77 213.12,230.74 217.33,229.95 221.01,229.28 226.26,228.38 228.89,227.97 232.05,227.48 234.68,227.11 237.30,226.74 239.93,226.42 242.56,226.12 245.19,225.86 247.82,225.61 250.45,225.41 253.08,225.22 255.18,225.12 258.33,224.96 259.91,224.91 264.12,224.79 269.38,224.70 276.21,224.64 292.51,224.61 740.45,224.61"/>
<polyline fill="none" stroke="#9467bd" stroke-width="1.2" opacity="0.55" stroke-dasharray="4 4" points="109.55,77.28 110.07,78.68 115.33,92.28 117.43,97.69 119.53,103.07 121.11,107.08 123.22,112.38 124.27,115.01 125.84,118.94 127.42,122.82 128.47,125.41 130.05,129.24 131.63,133.04 132.68,135.55 133.73,138.05 134.78,140.53 135.31,141.76 135.83,142.99 137.41,146.64 137.94,147.85 138.46,149.05 140.04,152.64 140.57,153.81 141.09,154.98 142.14,157.32 143.19,159.61 143.72,160.75 144.25,161.89 144.77,163.03 146.35,166.35 146.87,167.46 148.98,171.76 149.50,172.82 151.61,176.95 152.13,177.94 152.66,178.93 153.71,180.90 154.23,181.86 154.76,182.80 155.29,183.74 156.34,185.61 157.92,188.26 158.44,189.14 158.97,189.97 160.54,192.43 161.07,193.22 163.17,196.22 163.70,196.86 164.22,197.50 165.28,198.78 166.85,200.70 167.38,201.34 167.90,201.95 169.48,203.46 170.01,203.96 171.58,205.46 172.11,205.92 172.64,206.30 173.69,207.06 175.79,208.57 176.32,208.92 178.95,210.35 180.00,210.91 182.63,212.03 183.68,212.48 187.36,213.74 191.04,214.80 194.72,215.73 198.92,216.67 203.13,217.51 206.81,218.20 211.54,219.03 214.70,219.56 219.43,220.31 222.58,220.79 226.79,221.38 229.94,221.80 232.05,222.07 234.68,222.39 237.30,222.68 239.93,222.96 242.56,223.21 245.19,223.43 247.82,223.64 250.45,223.82 253.08,223.97 255.18,224.08 258.33,224.22 260.44,224.29 264.12,224.39 269.90,224.50 278.31,224.57 296.19,224.61 740.45,224.61"/>
<polyline fill="none" stroke="#9467bd" stroke-width="1.2" opacity="0.55" stroke-dasharray="4 4" points="109.55,76.00 110.07,77.77 115.33,95.54 117.43,102.58 119.53,109.56 121.11,114.75 123.22,121.57 124.27,124.98 125.84,130.00 127.42,134.99 128.47,138.25 130.05,143.13 131.63,147.88 132.68,151.04 133.73,154.09 134.78,157.14 135.31,158.66 135.83,160.15 137.41,164.50 137.94,165.95 138.46,167.38 140.04,171.47 140.57,172.83 141.09,174.20 142.14,176.71 143.19,179.22 143.72,180.48 144.25,181.64 144.77,182.76 146.35,186.14 146.87,187.20 148.98,191.10 149.50,192.05 151.61,195.31 152.13,196.06 152.66,196.72 153.71,198.05 154.23,198.69 154.76,199.22 155.29,199.75 156.34,200.81 157.92,202.09 158.44,202.51 158.97,202.88 160.54,203.89 161.07,204.21 163.17,205.39 163.70,205.62 164.22,205.84 165.28,206.30 166.85,206.90 167.38,207.09 167.90,207.28 169.48,207.80 170.01,207.97 171.58,208.44 172.11,208.60 172.64,208.74 173.69,209.03 175.79,209.60 176.32,209.74 178.95,210.41 180.00,210.67 182.63,211.32 183.68,211.57 187.36,212.45 191.04,213.30 194.72,214.14 198.92,215.09 203.13,216.02 206.81,216.81 211.54,217.80 214.70,218.44 219.43,219.37 222.58,219.95 226.79,220.71 229.94,221.23 232.05,221.57 234.68,221.98 237.30,222.35 239.93,222.71 242.56,223.02 245.19,223.32 247.82,223.56 250.45,223.80 253.08,223.98 255.18,224.11 258.33,224.26 260.44,224.34 264.12,224.45 269.90,224.54 278.31,224.59 296.19,224.61 740.45,224.61"/>
<polyline fill="none" stroke="#9467bd" stroke-width="2.0" opacity="1.0" points="109.55,79.02 110.07,80.54 115.33,95.82 117.43,101.89 119.53,107.90 121.11,112.38 123.22,118.30 124.27,121.23 125.84,125.60 127.42,129.93 128.47,132.79 130.05,137.03 131.63,141.25 132.68,144.00 133.73,146.75 134.78,149.49 135.31,150.82 135.83,152.16 137.41,156.16 137.94,157.46 138.46,158.75 140.04,162.61 140.57,163.89 141.09,165.12 142.14,167.58 143.19,170.04 143.72,171.24 144.25,172.40 144.77,173.57 146.35,177.06 146.87,178.14 148.98,182.46 149.50,183.50 151.61,187.45 152.13,188.43 152.66,189.33 153.71,191.08 154.23,191.95 154.76,192.82 155.29,193.67 156.34,195.17 157.92,197.41 158.44,198.08 158.97,198.69 160.54,200.54 161.07,201.15 163.17,203.11 163.70,203.60 164.22,204.05 165.28,204.82 166.85,205.99 167.38,206.31 167.90,206.62 169.48,207.54 170.01,207.84 171.58,208.58 172.11,208.83 172.64,209.07 173.69,209.48 175.79,210.27 176.32,210.44 178.95,211.25 180.00,211.54 182.63,212.26 183.68,212.53 187.36,213.46 191.04,214.31 194.72,215.09 198.92,215.98 203.13,216.83 206.81,217.56 211.54,218.47 214.70,219.05 219.43,219.88 222.58,220.42 226.79,221.10 229.94,221.57 232.05,221.87 234.68,222.23 237.30,222.57 239.93,222.87 242.56,223.16 245.19,223.41 247.82,223.65 250.45,223.83 253.08,224.01 255.18,224.11 258.33,224.26 260.44,224.33 264.12,224.43 269.90,224.53 278.31,224.59 296.19,224.61 740.45,224.61"/>
<line x1="88" y1="70" x2="110" y2="70" stroke="#2ca02c" stroke-width="2.4"/>
<text x="116" y="74" font-family="Arial, sans-serif" font-size="12">[GND Clamp]</text>
<line x1="88" y1="88" x2="110" y2="88" stroke="#9467bd" stroke-width="2.4"/>
<text x="116" y="92" font-family="Arial, sans-serif" font-size="12">[POWER Clamp]</text>
<text x="425.00" y="444.00" text-anchor="middle" font-family="Arial, sans-serif" font-size="12">Table voltage (V)</text>
<text transform="translate(18 226.00) rotate(-90)" text-anchor="middle" font-family="Arial, sans-serif" font-size="12">Current (A)</text>
<text x="420" y="42" font-family="Arial, sans-serif" font-size="11" fill="#555">solid=typ, dashed=min/max; dashed vertical=required sweep boundary (5.3.4/5.3.5)</text>
</svg>