<svg xmlns="http://www.w3.org/2000/svg" width="800" height="560" viewBox="0 0 800 560">
<rect width="100%" height="100%" fill="#ffffff"/>
<text x="78" y="25" font-family="Arial, sans-serif" font-size="16" font-weight="700">DQ_34_3200 I-V Combined Curves</text>
<rect x="78" y="52" width="694" height="348" fill="#fbfbfb" stroke="#c8c8c8"/>
<line x1="78.00" y1="52" x2="78.00" y2="400" stroke="#ececec"/>
<text x="78.00" y="422" text-anchor="middle" font-family="Arial, sans-serif" font-size="11">-1.3</text>
<line x1="216.80" y1="52" x2="216.80" y2="400" stroke="#ececec"/>
<text x="216.80" y="422" text-anchor="middle" font-family="Arial, sans-serif" font-size="11">-0.523</text>
<line x1="355.60" y1="52" x2="355.60" y2="400" stroke="#ececec"/>
<text x="355.60" y="422" text-anchor="middle" font-family="Arial, sans-serif" font-size="11">0.226</text>
<line x1="494.40" y1="52" x2="494.40" y2="400" stroke="#ececec"/>
<text x="494.40" y="422" text-anchor="middle" font-family="Arial, sans-serif" font-size="11">0.974</text>
<line x1="633.20" y1="52" x2="633.20" y2="400" stroke="#ececec"/>
<text x="633.20" y="422" text-anchor="middle" font-family="Arial, sans-serif" font-size="11">1.7</text>
<line x1="772.00" y1="52" x2="772.00" y2="400" stroke="#ececec"/>
<text x="772.00" y="422" text-anchor="middle" font-family="Arial, sans-serif" font-size="11">2.5</text>
<line x1="78" y1="400.00" x2="772" y2="400.00" stroke="#ececec"/>
<text x="70" y="404.00" text-anchor="end" font-family="Arial, sans-serif" font-size="11">-0.181</text>
<line x1="78" y1="330.40" x2="772" y2="330.40" stroke="#ececec"/>
<text x="70" y="334.40" text-anchor="end" font-family="Arial, sans-serif" font-size="11">-0.106</text>
<line x1="78" y1="260.80" x2="772" y2="260.80" stroke="#ececec"/>
<text x="70" y="264.80" text-anchor="end" font-family="Arial, sans-serif" font-size="11">-0.0319</text>
<line x1="78" y1="191.20" x2="772" y2="191.20" stroke="#ececec"/>
<text x="70" y="195.20" text-anchor="end" font-family="Arial, sans-serif" font-size="11">0.0427</text>
<line x1="78" y1="121.60" x2="772" y2="121.60" stroke="#ececec"/>
<text x="70" y="125.60" text-anchor="end" font-family="Arial, sans-serif" font-size="11">0.117</text>
<line x1="78" y1="52.00" x2="772" y2="52.00" stroke="#ececec"/>
<text x="70" y="56.00" text-anchor="end" font-family="Arial, sans-serif" font-size="11">0.192</text>
<line x1="313.78" y1="52" x2="313.78" y2="400" stroke="#777" stroke-dasharray="4 4"/>
<line x1="78" y1="231.07" x2="772" y2="231.07" stroke="#777" stroke-dasharray="4 4"/>
<line x1="91.35" y1="52" x2="91.35" y2="400" stroke="#555" stroke-dasharray="2 4"/>
<text x="95.35" y="66" font-family="Arial, sans-serif" font-size="11" fill="#555">-Vcc</text>
<line x1="536.22" y1="52" x2="536.22" y2="400" stroke="#555" stroke-dasharray="2 4"/>
<text x="540.22" y="66" font-family="Arial, sans-serif" font-size="11" fill="#555">Vcc</text>
<line x1="758.65" y1="52" x2="758.65" y2="400" stroke="#555" stroke-dasharray="2 4"/>
<text x="762.65" y="66" font-family="Arial, sans-serif" font-size="11" fill="#555">2Vcc</text>
<polyline fill="none" stroke="#0f766e" stroke-width="2.8" opacity="0.95" stroke-dasharray="6 3" points="91.35,376.00 94.13,368.35 96.35,362.28 98.02,357.78 99.69,353.31 101.36,348.88 102.47,345.95 103.58,343.04 104.69,340.15 105.80,337.28 106.92,334.44 108.03,331.62 109.14,328.83 109.70,327.44 110.25,326.07 111.37,323.33 113.03,319.30 113.59,317.96 115.26,314.04 115.81,312.75 116.93,310.20 117.48,308.94 118.04,307.71 118.59,306.47 119.15,305.24 120.26,302.85 120.82,301.66 121.38,300.49 122.49,298.21 123.04,297.07 124.16,294.89 124.71,293.81 125.27,292.77 126.38,290.80 126.94,289.82 127.49,288.83 128.60,286.86 129.16,285.96 129.72,285.12 130.83,283.45 131.38,282.61 131.94,281.77 132.50,280.93 133.05,280.21 133.61,279.54 134.17,278.86 135.83,276.84 136.39,276.16 136.95,275.62 138.61,274.08 139.73,273.05 140.28,272.53 140.84,272.15 141.39,271.76 143.06,270.61 143.62,270.23 144.17,269.86 145.84,268.99 146.96,268.41 148.07,267.85 148.62,267.62 150.85,266.70 151.96,266.26 153.63,265.68 155.85,264.92 158.08,264.25 158.63,264.08 160.30,263.61 160.86,263.46 162.53,263.01 163.64,262.71 167.53,261.74 170.31,261.09 170.87,260.96 171.42,260.84 176.43,259.72 179.21,259.11 179.76,258.99 183.10,258.27 185.33,257.80 188.11,257.20 190.89,256.61 193.11,256.13 194.78,255.79 198.67,254.96 199.23,254.84 202.01,254.26 203.68,253.90 206.46,253.32 208.13,252.96 209.24,252.74 212.02,252.15 212.57,252.03 213.69,251.80 215.91,251.34 216.47,251.21 219.80,250.51 220.36,250.40 222.58,249.94 223.14,249.81 224.81,249.47 225.92,249.23 228.70,248.66 229.26,248.53 230.37,248.30 232.59,247.84 234.26,247.50 235.37,247.26 238.71,246.57 239.27,246.45 239.82,246.34 243.71,245.53 244.27,245.41 244.83,245.30 245.38,245.18 245.94,245.06 248.16,244.60 249.28,244.37 249.83,244.26 252.06,243.80 252.61,243.68 254.84,243.23 257.06,242.76 258.73,242.42 262.07,241.73 263.18,241.50 269.85,240.13 271.52,239.78 282.08,237.61 294.32,235.08 309.33,231.99 313.78,231.07 325.46,228.69 335.47,226.67 344.92,224.78 353.82,223.02 359.94,221.83 371.62,219.58 377.18,218.52 387.74,216.54 392.75,215.62 398.31,214.60 406.09,213.21 408.87,212.72 414.99,211.65 421.66,210.52 425.00,209.96 431.67,208.87 440.01,207.55 442.24,207.21 447.80,206.36 455.03,205.30 458.92,204.73 462.81,204.19 467.82,203.49 476.16,202.36 482.83,201.48 491.73,200.34 497.29,199.65 503.41,198.91 507.86,198.38 513.42,197.73 520.65,196.90 528.99,195.97 535.66,195.25 544.56,194.33 551.79,193.61 556.79,193.13 561.80,192.66 570.14,191.90 574.59,191.51 581.82,190.90 586.27,190.54 591.83,190.09 599.06,189.54 608.51,188.85 612.96,188.54 622.41,187.89 632.42,187.25 642.43,186.62 652.44,186.03 662.45,185.45 673.02,184.87 684.14,184.27 695.26,183.71 706.94,183.12 719.73,182.50 736.41,181.71 754.21,180.90 758.65,180.70"/>
<polyline fill="none" stroke="#7c2d12" stroke-width="2.8" opacity="0.95" stroke-dasharray="6 3" points="91.35,76.00 91.90,77.47 95.79,87.72 96.91,90.66 99.13,96.49 100.80,100.82 101.36,102.27 103.58,108.01 105.80,113.70 106.36,115.10 107.47,117.92 109.14,122.11 110.25,124.88 110.81,126.25 111.37,127.63 113.59,133.07 114.70,135.75 115.81,138.43 116.93,141.07 118.04,143.69 119.15,146.28 120.26,148.84 121.38,151.37 121.93,152.62 122.49,153.86 123.04,155.11 124.16,157.54 124.71,158.75 125.27,159.94 126.38,162.26 126.94,163.42 127.49,164.58 128.60,166.89 129.16,168.00 129.72,169.07 131.38,172.29 131.94,173.36 132.50,174.43 133.05,175.42 133.61,176.38 134.17,177.35 135.83,180.23 136.39,181.20 137.50,182.88 138.61,184.54 139.17,185.38 140.28,187.04 140.84,187.73 141.95,189.10 143.06,190.47 143.62,191.15 144.17,191.82 145.29,192.89 145.84,193.42 146.96,194.49 147.51,195.03 148.07,195.52 148.62,195.93 150.29,197.13 150.85,197.53 151.40,197.93 151.96,198.30 153.07,198.90 153.63,199.21 154.18,199.51 155.30,200.12 155.85,200.39 158.08,201.35 158.63,201.59 159.19,201.83 160.86,202.42 161.41,202.61 163.08,203.19 165.31,203.85 165.86,204.01 167.53,204.48 168.09,204.63 170.87,205.36 172.54,205.76 173.65,206.04 175.87,206.57 178.65,207.22 181.43,207.85 182.54,208.09 183.66,208.34 188.11,209.32 191.44,210.03 193.11,210.39 198.12,211.45 198.67,211.56 203.12,212.47 203.68,212.58 207.57,213.37 210.35,213.91 211.46,214.13 213.69,214.57 214.24,214.67 216.47,215.10 217.02,215.21 219.80,215.73 220.36,215.83 223.14,216.35 225.36,216.75 226.48,216.96 229.26,217.46 232.59,218.05 234.26,218.33 235.37,218.54 238.71,219.11 239.27,219.21 239.82,219.30 243.71,219.96 244.27,220.06 244.83,220.15 245.38,220.24 245.94,220.34 248.16,220.71 249.28,220.90 249.83,220.99 252.06,221.36 252.61,221.45 254.84,221.81 257.62,222.28 258.17,222.37 262.07,223.00 265.40,223.55 269.29,224.16 279.30,225.76 288.20,227.16 297.10,228.54 306.00,229.90 313.78,231.07 324.90,232.72 333.80,234.01 342.70,235.29 351.60,236.54 358.83,237.54 362.72,238.06 370.50,239.10 376.62,239.89 380.51,240.38 387.74,241.28 392.75,241.89 397.20,242.42 403.87,243.19 409.43,243.82 414.99,244.43 418.88,244.86 423.89,245.39 428.34,245.85 432.79,246.31 440.01,247.04 443.91,247.41 447.80,247.78 455.03,248.44 458.92,248.79 462.81,249.13 467.26,249.51 470.04,249.74 476.16,250.23 481.72,250.66 485.61,250.95 492.84,251.48 495.62,251.67 502.85,252.16 507.86,252.48 513.42,252.83 520.65,253.27 529.54,253.78 534.55,254.06 546.23,254.69 557.35,255.26 562.91,255.54 574.03,256.08 586.82,256.67 600.17,257.27 612.96,257.82 627.97,258.44 649.10,259.30 671.90,260.21 695.26,261.11 716.39,261.91 758.65,263.50"/>
<line x1="88" y1="70" x2="110" y2="70" stroke="#0f766e" stroke-width="2.8" stroke-dasharray="6 3"/>
<text x="116" y="74" font-family="Arial, sans-serif" font-size="12">[Pulldown]+[GND Clamp]</text>
<line x1="88" y1="88" x2="110" y2="88" stroke="#7c2d12" stroke-width="2.8" stroke-dasharray="6 3"/>
<text x="116" y="92" font-family="Arial, sans-serif" font-size="12">[Pullup]+[POWER Clamp]</text>
<rect x="78" y="464" width="694" height="44" fill="#fffdf7" stroke="#d8c6a1" rx="4"/>
<text x="88" y="481" font-family="Arial, sans-serif" font-size="11" font-weight="700" fill="#4b3b21">Findings needing attention</text>
<rect x="88" y="488" width="7" height="7" fill="#b54708"/>
<text x="102" y="495" font-family="Arial, sans-serif" font-size="11" fill="#333">WARN 5.3.6: I-V stair-step evidence needs review | [POWER Clamp]: roughness=0.105 &gt; 0.1</text>
<text x="425.00" y="444.00" text-anchor="middle" font-family="Arial, sans-serif" font-size="12">Table voltage (V)</text>
<text transform="translate(18 226.00) rotate(-90)" text-anchor="middle" font-family="Arial, sans-serif" font-size="12">Current (A)</text>
<text x="420" y="42" font-family="Arial, sans-serif" font-size="11" fill="#555">thick dashed=combined typ curves</text>
</svg>