<svg xmlns="http://www.w3.org/2000/svg" width="800" height="560" viewBox="0 0 800 560">
<rect width="100%" height="100%" fill="#ffffff"/>
<text x="78" y="25" font-family="Arial, sans-serif" font-size="16" font-weight="700">DQS_40_3200 I-V Combined Curves</text>
<rect x="78" y="52" width="694" height="348" fill="#fbfbfb" stroke="#c8c8c8"/>
<line x1="78.00" y1="52" x2="78.00" y2="400" stroke="#ececec"/>
<text x="78.00" y="422" text-anchor="middle" font-family="Arial, sans-serif" font-size="11">-1.3</text>
<line x1="216.80" y1="52" x2="216.80" y2="400" stroke="#ececec"/>
<text x="216.80" y="422" text-anchor="middle" font-family="Arial, sans-serif" font-size="11">-0.523</text>
<line x1="355.60" y1="52" x2="355.60" y2="400" stroke="#ececec"/>
<text x="355.60" y="422" text-anchor="middle" font-family="Arial, sans-serif" font-size="11">0.226</text>
<line x1="494.40" y1="52" x2="494.40" y2="400" stroke="#ececec"/>
<text x="494.40" y="422" text-anchor="middle" font-family="Arial, sans-serif" font-size="11">0.974</text>
<line x1="633.20" y1="52" x2="633.20" y2="400" stroke="#ececec"/>
<text x="633.20" y="422" text-anchor="middle" font-family="Arial, sans-serif" font-size="11">1.7</text>
<line x1="772.00" y1="52" x2="772.00" y2="400" stroke="#ececec"/>
<text x="772.00" y="422" text-anchor="middle" font-family="Arial, sans-serif" font-size="11">2.5</text>
<line x1="78" y1="400.00" x2="772" y2="400.00" stroke="#ececec"/>
<text x="70" y="404.00" text-anchor="end" font-family="Arial, sans-serif" font-size="11">-0.178</text>
<line x1="78" y1="330.40" x2="772" y2="330.40" stroke="#ececec"/>
<text x="70" y="334.40" text-anchor="end" font-family="Arial, sans-serif" font-size="11">-0.104</text>
<line x1="78" y1="260.80" x2="772" y2="260.80" stroke="#ececec"/>
<text x="70" y="264.80" text-anchor="end" font-family="Arial, sans-serif" font-size="11">-0.0311</text>
<line x1="78" y1="191.20" x2="772" y2="191.20" stroke="#ececec"/>
<text x="70" y="195.20" text-anchor="end" font-family="Arial, sans-serif" font-size="11">0.0423</text>
<line x1="78" y1="121.60" x2="772" y2="121.60" stroke="#ececec"/>
<text x="70" y="125.60" text-anchor="end" font-family="Arial, sans-serif" font-size="11">0.116</text>
<line x1="78" y1="52.00" x2="772" y2="52.00" stroke="#ececec"/>
<text x="70" y="56.00" text-anchor="end" font-family="Arial, sans-serif" font-size="11">0.189</text>
<line x1="313.78" y1="52" x2="313.78" y2="400" stroke="#777" stroke-dasharray="4 4"/>
<line x1="78" y1="231.31" x2="772" y2="231.31" stroke="#777" stroke-dasharray="4 4"/>
<line x1="91.35" y1="52" x2="91.35" y2="400" stroke="#555" stroke-dasharray="2 4"/>
<text x="95.35" y="66" font-family="Arial, sans-serif" font-size="11" fill="#555">-Vcc</text>
<line x1="536.22" y1="52" x2="536.22" y2="400" stroke="#555" stroke-dasharray="2 4"/>
<text x="540.22" y="66" font-family="Arial, sans-serif" font-size="11" fill="#555">Vcc</text>
<line x1="758.65" y1="52" x2="758.65" y2="400" stroke="#555" stroke-dasharray="2 4"/>
<text x="762.65" y="66" font-family="Arial, sans-serif" font-size="11" fill="#555">2Vcc</text>
<polyline fill="none" stroke="#0f766e" stroke-width="2.8" opacity="0.95" stroke-dasharray="6 3" points="91.35,376.00 93.57,369.77 95.79,363.59 97.46,358.99 99.13,354.43 100.24,351.42 101.36,348.42 102.47,345.43 103.58,342.47 104.14,341.00 105.80,336.62 106.92,333.72 107.47,332.29 108.58,329.43 109.70,326.61 110.25,325.21 111.37,322.43 111.92,321.06 113.03,318.36 114.15,315.65 114.70,314.30 115.81,311.70 116.37,310.40 117.48,307.81 118.04,306.54 118.59,305.31 119.15,304.08 120.82,300.39 121.38,299.22 121.93,298.07 123.60,294.63 124.16,293.50 124.71,292.45 125.82,290.35 126.38,289.31 126.94,288.26 127.49,287.27 128.05,286.33 128.60,285.40 130.27,282.59 130.83,281.78 133.05,278.56 133.61,277.81 135.83,275.14 136.39,274.47 136.95,273.91 138.06,272.84 138.61,272.30 139.17,271.77 139.73,271.25 140.84,270.42 142.51,269.16 143.06,268.79 144.17,268.13 145.29,267.46 145.84,267.13 148.07,266.04 148.62,265.77 149.18,265.52 151.40,264.61 151.96,264.39 152.52,264.19 153.07,264.00 155.30,263.23 156.96,262.71 157.52,262.54 160.30,261.73 161.41,261.41 161.97,261.26 163.64,260.81 164.75,260.51 165.86,260.24 168.64,259.58 169.75,259.32 172.54,258.69 173.65,258.43 177.54,257.56 180.32,256.96 181.99,256.59 185.33,255.87 185.88,255.75 190.33,254.80 191.44,254.57 195.33,253.74 197.00,253.40 200.90,252.58 201.45,252.46 204.23,251.89 205.34,251.65 208.68,250.96 209.24,250.84 213.69,249.93 214.80,249.70 215.35,249.59 217.02,249.25 217.58,249.13 220.36,248.58 220.92,248.46 223.14,248.01 223.70,247.90 225.36,247.57 226.48,247.34 229.26,246.79 231.48,246.36 232.04,246.24 233.71,245.92 234.82,245.70 237.04,245.28 237.60,245.16 239.82,244.74 240.38,244.63 241.49,244.42 242.60,244.21 243.16,244.10 244.83,243.79 245.38,243.69 248.16,243.17 248.72,243.06 249.83,242.85 250.39,242.75 253.72,242.15 254.84,241.93 255.39,241.83 259.84,241.02 260.40,240.92 264.29,240.22 267.63,239.61 270.96,239.01 284.87,236.50 287.09,236.11 313.78,231.32 326.57,229.04 338.81,226.89 349.93,224.96 359.38,223.35 366.05,222.22 377.18,220.36 385.52,219.00 390.52,218.19 397.20,217.13 402.20,216.34 406.65,215.65 412.77,214.71 416.66,214.13 423.33,213.14 432.23,211.87 436.12,211.33 440.57,210.73 443.91,210.28 448.91,209.62 452.80,209.11 460.03,208.21 463.93,207.73 468.93,207.12 472.82,206.66 477.83,206.08 482.28,205.57 486.73,205.07 492.29,204.46 496.18,204.03 501.74,203.44 505.63,203.03 511.19,202.46 519.54,201.62 523.98,201.19 529.54,200.65 538.44,199.82 547.34,199.03 556.79,198.22 565.13,197.54 572.92,196.94 578.48,196.52 585.71,196.00 594.61,195.39 602.95,194.84 610.73,194.35 617.96,193.92 625.75,193.47 635.20,192.94 645.21,192.41 655.22,191.89 665.79,191.37 677.46,190.81 689.14,190.28 700.26,189.78 714.17,189.19 733.07,188.40 750.31,187.71 758.65,187.39"/>
<polyline fill="none" stroke="#7c2d12" stroke-width="2.8" opacity="0.95" stroke-dasharray="6 3" points="91.35,76.00 91.90,77.49 95.79,87.90 97.46,92.37 99.69,98.29 100.80,101.22 101.91,104.15 103.58,108.52 105.80,114.29 106.92,117.16 108.58,121.42 110.25,125.65 111.37,128.44 113.03,132.58 114.15,135.33 114.70,136.70 115.81,139.39 116.93,142.08 118.04,144.75 118.59,146.05 119.15,147.36 120.82,151.27 121.38,152.54 121.93,153.80 123.60,157.57 124.16,158.82 124.71,160.02 125.82,162.43 126.38,163.63 126.94,164.84 127.49,166.00 128.05,167.14 128.60,168.28 130.27,171.69 130.83,172.75 131.94,174.87 133.05,176.98 133.61,178.00 135.83,181.87 136.39,182.83 136.95,183.71 137.50,184.57 138.06,185.43 138.61,186.28 139.17,187.14 139.73,187.97 140.84,189.44 142.51,191.65 143.06,192.31 143.62,192.92 145.29,194.74 145.84,195.35 147.51,196.81 148.07,197.29 148.62,197.78 149.18,198.22 150.29,199.00 151.96,200.17 152.52,200.49 153.07,200.80 154.74,201.74 155.30,202.04 156.96,202.79 157.52,203.05 158.08,203.30 159.19,203.72 161.41,204.54 161.97,204.71 164.75,205.57 165.86,205.88 168.64,206.65 169.20,206.79 169.75,206.94 173.65,207.95 177.54,208.87 179.76,209.36 181.43,209.73 185.88,210.72 187.55,211.08 190.33,211.68 194.22,212.51 199.23,213.55 200.90,213.89 202.56,214.23 205.90,214.89 207.57,215.22 209.79,215.65 210.91,215.87 214.24,216.50 215.35,216.72 217.02,217.02 218.69,217.33 220.92,217.74 223.14,218.13 223.70,218.23 225.92,218.62 226.48,218.72 229.26,219.20 231.48,219.57 232.04,219.67 233.71,219.94 234.82,220.13 237.04,220.49 237.60,220.58 239.82,220.93 240.38,221.02 241.49,221.19 242.60,221.37 243.16,221.46 244.83,221.72 245.38,221.80 248.16,222.22 248.72,222.31 249.83,222.48 250.94,222.64 253.17,222.97 254.84,223.22 255.39,223.30 259.84,223.94 260.95,224.11 265.96,224.81 269.85,225.37 288.76,227.98 299.88,229.48 309.89,230.80 313.78,231.31 324.35,232.68 332.13,233.67 339.92,234.65 347.15,235.54 351.60,236.08 358.27,236.88 364.94,237.67 368.83,238.12 376.62,239.01 384.41,239.86 387.74,240.22 390.52,240.51 396.64,241.15 401.64,241.66 406.09,242.10 412.21,242.70 416.10,243.07 423.33,243.75 432.79,244.60 440.57,245.28 443.91,245.56 449.47,246.02 453.36,246.33 460.03,246.85 463.37,247.10 468.93,247.51 472.27,247.75 478.38,248.17 482.28,248.43 487.28,248.75 491.17,249.00 496.74,249.34 501.18,249.60 506.75,249.92 511.75,250.19 517.87,250.52 523.43,250.81 530.10,251.15 539.00,251.57 547.90,251.99 556.24,252.36 565.13,252.74 574.03,253.12 586.27,253.61 598.50,254.09 612.40,254.61 628.53,255.20 649.66,255.95 673.57,256.78 699.15,257.64 728.07,258.59 758.65,259.59"/>
<line x1="88" y1="70" x2="110" y2="70" stroke="#0f766e" stroke-width="2.8" stroke-dasharray="6 3"/>
<text x="116" y="74" font-family="Arial, sans-serif" font-size="12">[Pulldown]+[GND Clamp]</text>
<line x1="88" y1="88" x2="110" y2="88" stroke="#7c2d12" stroke-width="2.8" stroke-dasharray="6 3"/>
<text x="116" y="92" font-family="Arial, sans-serif" font-size="12">[Pullup]+[POWER Clamp]</text>
<rect x="78" y="464" width="694" height="44" fill="#fffdf7" stroke="#d8c6a1" rx="4"/>
<text x="88" y="481" font-family="Arial, sans-serif" font-size="11" font-weight="700" fill="#4b3b21">Findings needing attention</text>
<rect x="88" y="488" width="7" height="7" fill="#b54708"/>
<text x="102" y="495" font-family="Arial, sans-serif" font-size="11" fill="#333">WARN 5.3.6: I-V stair-step evidence needs review | [POWER Clamp]: roughness=0.105 &gt; 0.1</text>
<text x="425.00" y="444.00" text-anchor="middle" font-family="Arial, sans-serif" font-size="12">Table voltage (V)</text>
<text transform="translate(18 226.00) rotate(-90)" text-anchor="middle" font-family="Arial, sans-serif" font-size="12">Current (A)</text>
<text x="420" y="42" font-family="Arial, sans-serif" font-size="11" fill="#555">thick dashed=combined typ curves</text>
</svg>