<svg xmlns="http://www.w3.org/2000/svg" width="800" height="560" viewBox="0 0 800 560">
<rect width="100%" height="100%" fill="#ffffff"/>
<text x="78" y="25" font-family="Arial, sans-serif" font-size="16" font-weight="700">DQ_48_3200 I-V Combined Curves</text>
<rect x="78" y="52" width="694" height="348" fill="#fbfbfb" stroke="#c8c8c8"/>
<line x1="78.00" y1="52" x2="78.00" y2="400" stroke="#ececec"/>
<text x="78.00" y="422" text-anchor="middle" font-family="Arial, sans-serif" font-size="11">-1.3</text>
<line x1="216.80" y1="52" x2="216.80" y2="400" stroke="#ececec"/>
<text x="216.80" y="422" text-anchor="middle" font-family="Arial, sans-serif" font-size="11">-0.523</text>
<line x1="355.60" y1="52" x2="355.60" y2="400" stroke="#ececec"/>
<text x="355.60" y="422" text-anchor="middle" font-family="Arial, sans-serif" font-size="11">0.226</text>
<line x1="494.40" y1="52" x2="494.40" y2="400" stroke="#ececec"/>
<text x="494.40" y="422" text-anchor="middle" font-family="Arial, sans-serif" font-size="11">0.974</text>
<line x1="633.20" y1="52" x2="633.20" y2="400" stroke="#ececec"/>
<text x="633.20" y="422" text-anchor="middle" font-family="Arial, sans-serif" font-size="11">1.7</text>
<line x1="772.00" y1="52" x2="772.00" y2="400" stroke="#ececec"/>
<text x="772.00" y="422" text-anchor="middle" font-family="Arial, sans-serif" font-size="11">2.5</text>
<line x1="78" y1="400.00" x2="772" y2="400.00" stroke="#ececec"/>
<text x="70" y="404.00" text-anchor="end" font-family="Arial, sans-serif" font-size="11">-0.174</text>
<line x1="78" y1="330.40" x2="772" y2="330.40" stroke="#ececec"/>
<text x="70" y="334.40" text-anchor="end" font-family="Arial, sans-serif" font-size="11">-0.102</text>
<line x1="78" y1="260.80" x2="772" y2="260.80" stroke="#ececec"/>
<text x="70" y="264.80" text-anchor="end" font-family="Arial, sans-serif" font-size="11">-0.0303</text>
<line x1="78" y1="191.20" x2="772" y2="191.20" stroke="#ececec"/>
<text x="70" y="195.20" text-anchor="end" font-family="Arial, sans-serif" font-size="11">0.0418</text>
<line x1="78" y1="121.60" x2="772" y2="121.60" stroke="#ececec"/>
<text x="70" y="125.60" text-anchor="end" font-family="Arial, sans-serif" font-size="11">0.114</text>
<line x1="78" y1="52.00" x2="772" y2="52.00" stroke="#ececec"/>
<text x="70" y="56.00" text-anchor="end" font-family="Arial, sans-serif" font-size="11">0.186</text>
<line x1="313.78" y1="52" x2="313.78" y2="400" stroke="#777" stroke-dasharray="4 4"/>
<line x1="78" y1="231.56" x2="772" y2="231.56" stroke="#777" stroke-dasharray="4 4"/>
<line x1="91.35" y1="52" x2="91.35" y2="400" stroke="#555" stroke-dasharray="2 4"/>
<text x="95.35" y="66" font-family="Arial, sans-serif" font-size="11" fill="#555">-Vcc</text>
<line x1="536.22" y1="52" x2="536.22" y2="400" stroke="#555" stroke-dasharray="2 4"/>
<text x="540.22" y="66" font-family="Arial, sans-serif" font-size="11" fill="#555">Vcc</text>
<line x1="758.65" y1="52" x2="758.65" y2="400" stroke="#555" stroke-dasharray="2 4"/>
<text x="762.65" y="66" font-family="Arial, sans-serif" font-size="11" fill="#555">2Vcc</text>
<polyline fill="none" stroke="#0f766e" stroke-width="2.8" opacity="0.95" stroke-dasharray="6 3" points="91.35,376.00 93.57,369.66 95.79,363.37 97.46,358.70 98.58,355.60 99.69,352.52 101.36,347.94 103.02,343.40 104.14,340.40 104.69,338.90 105.25,337.42 106.36,334.46 106.92,333.00 108.58,328.63 109.14,327.19 109.70,325.77 110.25,324.35 111.92,320.11 113.03,317.35 114.15,314.59 115.26,311.91 115.81,310.57 116.37,309.24 116.93,307.92 118.04,305.35 118.59,304.07 119.15,302.78 120.26,300.33 120.82,299.11 121.38,297.88 121.93,296.69 123.04,294.37 123.60,293.21 124.16,292.06 125.82,288.81 126.38,287.72 126.94,286.72 127.49,285.73 128.60,283.77 129.16,282.82 129.72,281.93 131.38,279.27 131.94,278.48 132.50,277.69 133.61,276.11 134.17,275.38 134.72,274.71 135.28,274.04 136.39,272.70 137.50,271.58 138.06,271.03 138.61,270.47 139.17,269.97 140.28,269.04 140.84,268.58 141.39,268.13 141.95,267.73 143.06,266.94 143.62,266.55 144.17,266.21 145.84,265.23 146.40,264.92 146.96,264.66 147.51,264.40 148.62,263.87 151.40,262.70 153.07,262.09 153.63,261.89 154.18,261.69 156.96,260.77 158.63,260.26 159.75,259.93 162.53,259.15 163.64,258.87 164.75,258.59 168.09,257.73 172.54,256.69 173.65,256.44 175.32,256.06 176.98,255.69 181.43,254.72 185.88,253.76 186.99,253.52 190.89,252.69 192.00,252.46 196.45,251.52 197.00,251.41 199.78,250.83 200.90,250.60 204.79,249.80 207.57,249.23 208.68,249.00 210.35,248.67 213.13,248.11 213.69,247.99 215.35,247.66 218.13,247.11 220.36,246.68 220.92,246.57 222.58,246.25 224.25,245.93 225.92,245.61 227.59,245.30 229.26,244.99 229.81,244.88 230.92,244.68 232.59,244.37 234.82,243.97 236.49,243.67 237.04,243.57 240.38,242.99 241.49,242.80 242.05,242.70 245.94,242.04 249.28,241.50 251.50,241.13 256.50,240.33 260.95,239.64 262.07,239.46 266.51,238.78 270.96,238.09 274.86,237.50 295.43,234.36 296.54,234.19 313.78,231.56 326.02,229.71 338.81,227.81 348.26,226.42 356.60,225.21 365.50,223.93 371.62,223.06 378.29,222.12 386.07,221.04 392.19,220.21 398.31,219.38 403.31,218.72 409.43,217.91 413.88,217.34 420.55,216.49 426.11,215.81 432.23,215.07 437.79,214.42 441.68,213.97 448.91,213.16 453.92,212.61 460.59,211.90 468.93,211.04 474.49,210.49 479.50,209.99 485.61,209.41 493.40,208.68 501.74,207.92 509.53,207.23 514.53,206.80 521.20,206.24 525.65,205.87 530.66,205.47 536.77,204.98 540.11,204.73 547.90,204.15 554.01,203.70 558.46,203.38 565.13,202.93 572.36,202.45 576.26,202.20 586.82,201.55 596.83,200.97 606.29,200.45 614.07,200.05 623.52,199.58 634.09,199.07 644.66,198.59 655.22,198.13 666.34,197.66 678.02,197.19 690.25,196.72 698.04,196.43 701.93,196.30 706.94,196.10 721.40,195.58 736.41,195.06 755.87,194.40 758.65,194.31"/>
<polyline fill="none" stroke="#7c2d12" stroke-width="2.8" opacity="0.95" stroke-dasharray="6 3" points="91.35,76.00 91.90,77.52 93.01,80.54 95.79,88.10 97.46,92.64 99.69,98.65 100.80,101.62 101.91,104.61 103.58,109.04 105.25,113.45 105.80,114.90 106.92,117.82 108.58,122.15 109.70,125.01 110.25,126.43 111.92,130.69 113.03,133.49 114.15,136.28 114.70,137.66 115.26,139.04 116.37,141.79 117.48,144.49 118.59,147.18 119.15,148.53 120.26,151.15 120.82,152.46 121.38,153.77 122.49,156.33 123.04,157.61 123.60,158.88 124.16,160.15 125.82,163.84 126.38,165.07 126.94,166.25 128.60,169.78 129.16,170.93 129.72,172.05 131.38,175.41 131.94,176.47 132.50,177.53 133.61,179.64 134.17,180.65 134.72,181.62 135.28,182.60 136.39,184.53 137.50,186.29 138.06,187.17 138.61,188.05 139.17,188.87 140.28,190.46 140.84,191.26 141.39,192.03 143.06,194.13 143.62,194.83 144.17,195.44 145.84,197.22 146.40,197.77 146.96,198.25 147.51,198.74 148.62,199.70 149.18,200.12 150.29,200.95 151.40,201.78 153.07,202.77 153.63,203.10 154.18,203.43 156.96,204.77 158.63,205.45 159.19,205.67 159.75,205.90 162.53,206.87 163.64,207.20 167.53,208.35 168.09,208.51 169.75,208.93 172.54,209.64 174.20,210.05 176.98,210.70 180.32,211.46 181.99,211.84 185.88,212.69 189.22,213.41 190.33,213.65 195.33,214.70 196.45,214.92 200.34,215.72 202.56,216.16 204.79,216.60 208.13,217.24 208.68,217.35 213.13,218.20 215.91,218.70 218.13,219.11 218.69,219.21 220.92,219.60 221.47,219.69 223.14,219.98 224.25,220.18 225.36,220.36 227.59,220.73 229.26,221.00 229.81,221.09 230.92,221.27 232.04,221.45 232.59,221.53 234.82,221.87 235.37,221.97 235.93,222.05 237.04,222.21 237.60,222.30 240.38,222.71 241.49,222.87 242.05,222.95 245.94,223.49 248.16,223.79 251.50,224.24 256.50,224.88 257.06,224.95 261.51,225.50 263.73,225.78 269.29,226.44 274.30,227.04 288.20,228.66 298.77,229.88 304.88,230.57 308.78,231.00 313.78,231.56 324.35,232.72 332.13,233.56 341.59,234.56 350.48,235.49 356.60,236.12 363.83,236.85 369.39,237.39 374.95,237.93 380.51,238.45 384.41,238.81 387.74,239.11 392.19,239.51 397.75,240.00 403.31,240.47 409.43,240.99 413.32,241.31 420.55,241.89 423.89,242.15 428.34,242.50 431.67,242.75 437.79,243.21 441.13,243.45 448.91,244.00 452.25,244.23 458.92,244.67 466.15,245.13 470.60,245.40 477.83,245.83 483.39,246.14 490.62,246.54 495.07,246.76 501.18,247.07 506.19,247.31 511.19,247.55 517.87,247.85 526.21,248.22 530.10,248.38 539.55,248.77 552.90,249.28 559.02,249.51 565.13,249.73 576.26,250.13 588.49,250.55 600.17,250.93 612.96,251.34 630.20,251.87 651.88,252.52 674.13,253.17 699.15,253.88 729.74,254.74 758.65,255.54"/>
<line x1="88" y1="70" x2="110" y2="70" stroke="#0f766e" stroke-width="2.8" stroke-dasharray="6 3"/>
<text x="116" y="74" font-family="Arial, sans-serif" font-size="12">[Pulldown]+[GND Clamp]</text>
<line x1="88" y1="88" x2="110" y2="88" stroke="#7c2d12" stroke-width="2.8" stroke-dasharray="6 3"/>
<text x="116" y="92" font-family="Arial, sans-serif" font-size="12">[Pullup]+[POWER Clamp]</text>
<text x="425.00" y="444.00" text-anchor="middle" font-family="Arial, sans-serif" font-size="12">Table voltage (V)</text>
<text transform="translate(18 226.00) rotate(-90)" text-anchor="middle" font-family="Arial, sans-serif" font-size="12">Current (A)</text>
<text x="420" y="42" font-family="Arial, sans-serif" font-size="11" fill="#555">thick dashed=combined typ curves</text>
</svg>