<svg xmlns="http://www.w3.org/2000/svg" width="800" height="560" viewBox="0 0 800 560">
<rect width="100%" height="100%" fill="#ffffff"/>
<text x="78" y="25" font-family="Arial, sans-serif" font-size="16" font-weight="700">INPUT I-V Clamp Curves</text>
<rect x="78" y="52" width="694" height="348" fill="#fbfbfb" stroke="#c8c8c8"/>
<line x1="78.00" y1="52" x2="78.00" y2="400" stroke="#ececec"/>
<text x="78.00" y="422" text-anchor="middle" font-family="Arial, sans-serif" font-size="11">-1.3</text>
<line x1="216.80" y1="52" x2="216.80" y2="400" stroke="#ececec"/>
<text x="216.80" y="422" text-anchor="middle" font-family="Arial, sans-serif" font-size="11">-0.523</text>
<line x1="355.60" y1="52" x2="355.60" y2="400" stroke="#ececec"/>
<text x="355.60" y="422" text-anchor="middle" font-family="Arial, sans-serif" font-size="11">0.226</text>
<line x1="494.40" y1="52" x2="494.40" y2="400" stroke="#ececec"/>
<text x="494.40" y="422" text-anchor="middle" font-family="Arial, sans-serif" font-size="11">0.974</text>
<line x1="633.20" y1="52" x2="633.20" y2="400" stroke="#ececec"/>
<text x="633.20" y="422" text-anchor="middle" font-family="Arial, sans-serif" font-size="11">1.7</text>
<line x1="772.00" y1="52" x2="772.00" y2="400" stroke="#ececec"/>
<text x="772.00" y="422" text-anchor="middle" font-family="Arial, sans-serif" font-size="11">2.5</text>
<line x1="78" y1="400.00" x2="772" y2="400.00" stroke="#ececec"/>
<text x="70" y="404.00" text-anchor="end" font-family="Arial, sans-serif" font-size="11">-0.0796</text>
<line x1="78" y1="330.40" x2="772" y2="330.40" stroke="#ececec"/>
<text x="70" y="334.40" text-anchor="end" font-family="Arial, sans-serif" font-size="11">-0.0402</text>
<line x1="78" y1="260.80" x2="772" y2="260.80" stroke="#ececec"/>
<text x="70" y="264.80" text-anchor="end" font-family="Arial, sans-serif" font-size="11">-8.0e-04</text>
<line x1="78" y1="191.20" x2="772" y2="191.20" stroke="#ececec"/>
<text x="70" y="195.20" text-anchor="end" font-family="Arial, sans-serif" font-size="11">0.0386</text>
<line x1="78" y1="121.60" x2="772" y2="121.60" stroke="#ececec"/>
<text x="70" y="125.60" text-anchor="end" font-family="Arial, sans-serif" font-size="11">0.078</text>
<line x1="78" y1="52.00" x2="772" y2="52.00" stroke="#ececec"/>
<text x="70" y="56.00" text-anchor="end" font-family="Arial, sans-serif" font-size="11">0.117</text>
<line x1="313.78" y1="52" x2="313.78" y2="400" stroke="#777" stroke-dasharray="4 4"/>
<line x1="78" y1="259.39" x2="772" y2="259.39" stroke="#777" stroke-dasharray="4 4"/>
<line x1="91.35" y1="52" x2="91.35" y2="400" stroke="#555" stroke-dasharray="2 4"/>
<text x="95.35" y="66" font-family="Arial, sans-serif" font-size="11" fill="#555">-Vcc</text>
<line x1="536.22" y1="52" x2="536.22" y2="400" stroke="#555" stroke-dasharray="2 4"/>
<text x="540.22" y="66" font-family="Arial, sans-serif" font-size="11" fill="#555">Vcc</text>
<line x1="758.65" y1="52" x2="758.65" y2="400" stroke="#555" stroke-dasharray="2 4"/>
<text x="762.65" y="66" font-family="Arial, sans-serif" font-size="11" fill="#555">2Vcc</text>
<polyline fill="none" stroke="#0f766e" stroke-width="2.8" opacity="0.95" stroke-dasharray="6 3" points="91.35,376.00 92.27,373.02 93.20,370.09 94.13,367.18 95.05,364.26 95.98,361.38 96.91,358.49 97.83,355.64 98.76,352.80 101.54,344.38 102.47,341.61 103.39,338.88 105.25,333.43 106.18,330.76 107.10,328.12 108.96,322.86 109.88,320.31 110.81,317.80 111.74,315.28 112.66,312.76 113.59,310.37 114.52,307.99 115.44,305.62 116.37,303.26 119.15,296.64 120.08,294.49 121.00,292.49 122.86,288.50 123.78,286.62 125.64,283.13 126.57,281.38 127.49,279.83 129.35,276.92 130.27,275.47 131.20,274.28 132.13,273.14 133.05,272.00 133.98,270.86 134.91,270.03 135.83,269.20 136.76,268.37 137.69,267.59 138.61,267.03 139.54,266.46 140.47,265.89 141.39,265.40 142.32,265.04 144.17,264.30 145.10,264.01 146.03,263.78 147.88,263.32 148.81,263.15 149.74,263.00 150.66,262.86 151.59,262.71 152.52,262.60 154.37,262.40 155.30,262.31 157.15,262.16 158.08,262.09 159.00,262.03 159.93,261.97 161.78,261.86 162.71,261.80 164.56,261.71 165.49,261.66 168.27,261.54 169.20,261.49 172.91,261.33 173.83,261.29 177.54,261.15 180.32,261.03 182.17,260.97 186.81,260.79 189.59,260.69 193.30,260.56 195.15,260.50 204.42,260.21 205.34,260.18 208.13,260.09 212.76,259.97 214.61,259.92 217.39,259.85 222.03,259.75 223.88,259.71 227.59,259.64 230.37,259.60 233.15,259.56 234.08,259.55 237.78,259.50 243.34,259.45 244.27,259.45 247.05,259.43 250.76,259.42 254.47,259.41 259.10,259.40 268.37,259.39 313.78,259.39 758.65,259.39"/>
<polyline fill="none" stroke="#7c2d12" stroke-width="2.8" opacity="0.95" stroke-dasharray="6 3" points="91.35,76.00 92.27,79.75 93.20,83.47 94.13,87.18 95.05,90.88 95.98,94.57 96.91,98.25 97.83,101.91 98.76,105.57 100.61,112.82 101.54,116.45 102.47,120.05 103.39,123.62 105.25,130.76 106.18,134.29 107.10,137.79 108.96,144.81 109.88,148.25 110.81,151.68 111.74,155.11 112.66,158.53 114.52,165.21 115.44,168.55 116.37,171.87 119.15,181.55 120.08,184.74 121.00,187.83 122.86,194.02 123.78,197.03 125.64,202.89 126.57,205.82 127.49,208.62 129.35,214.07 130.27,216.80 131.20,219.32 132.13,221.80 133.05,224.28 133.98,226.76 134.91,228.94 135.83,231.12 136.76,233.29 137.69,235.41 138.61,237.23 139.54,239.06 140.47,240.89 141.39,242.57 142.32,244.01 144.17,246.89 145.10,248.12 146.03,249.17 147.88,251.28 148.81,252.09 149.74,252.80 150.66,253.51 151.59,254.22 152.52,254.70 153.44,255.15 154.37,255.60 155.30,256.04 156.22,256.31 157.15,256.58 158.08,256.85 159.00,257.09 159.93,257.26 160.86,257.42 161.78,257.58 162.71,257.71 164.56,257.90 165.49,258.00 166.42,258.06 168.27,258.16 169.20,258.21 172.91,258.41 173.83,258.43 177.54,258.53 178.47,258.56 180.32,258.60 182.17,258.64 185.88,258.71 186.81,258.73 189.59,258.77 191.44,258.80 194.22,258.84 196.08,258.86 204.42,258.96 207.20,259.00 211.83,259.04 216.47,259.08 224.81,259.15 234.08,259.22 245.20,259.28 255.39,259.33 265.59,259.36 273.00,259.38 279.49,259.39 292.47,259.39 313.78,259.39 758.65,259.39"/>
<line x1="88" y1="70" x2="110" y2="70" stroke="#0f766e" stroke-width="2.8" stroke-dasharray="6 3"/>
<text x="116" y="74" font-family="Arial, sans-serif" font-size="12">[GND Clamp]</text>
<line x1="88" y1="88" x2="110" y2="88" stroke="#7c2d12" stroke-width="2.8" stroke-dasharray="6 3"/>
<text x="116" y="92" font-family="Arial, sans-serif" font-size="12">[POWER Clamp]</text>
<text x="425.00" y="444.00" text-anchor="middle" font-family="Arial, sans-serif" font-size="12">Table voltage (V)</text>
<text transform="translate(18 226.00) rotate(-90)" text-anchor="middle" font-family="Arial, sans-serif" font-size="12">Current (A)</text>
<text x="420" y="42" font-family="Arial, sans-serif" font-size="11" fill="#555">thick dashed=combined typ curves</text>
</svg>