<svg xmlns="http://www.w3.org/2000/svg" width="800" height="560" viewBox="0 0 800 560">
<rect width="100%" height="100%" fill="#ffffff"/>
<text x="78" y="25" font-family="Arial, sans-serif" font-size="16" font-weight="700">TDQS_ODTOFF_3200 I-V Clamp Curves</text>
<rect x="78" y="52" width="694" height="348" fill="#fbfbfb" stroke="#c8c8c8"/>
<line x1="78.00" y1="52" x2="78.00" y2="400" stroke="#ececec"/>
<text x="78.00" y="422" text-anchor="middle" font-family="Arial, sans-serif" font-size="11">-1.3</text>
<line x1="216.80" y1="52" x2="216.80" y2="400" stroke="#ececec"/>
<text x="216.80" y="422" text-anchor="middle" font-family="Arial, sans-serif" font-size="11">-0.523</text>
<line x1="355.60" y1="52" x2="355.60" y2="400" stroke="#ececec"/>
<text x="355.60" y="422" text-anchor="middle" font-family="Arial, sans-serif" font-size="11">0.226</text>
<line x1="494.40" y1="52" x2="494.40" y2="400" stroke="#ececec"/>
<text x="494.40" y="422" text-anchor="middle" font-family="Arial, sans-serif" font-size="11">0.974</text>
<line x1="633.20" y1="52" x2="633.20" y2="400" stroke="#ececec"/>
<text x="633.20" y="422" text-anchor="middle" font-family="Arial, sans-serif" font-size="11">1.7</text>
<line x1="772.00" y1="52" x2="772.00" y2="400" stroke="#ececec"/>
<text x="772.00" y="422" text-anchor="middle" font-family="Arial, sans-serif" font-size="11">2.5</text>
<line x1="78" y1="400.00" x2="772" y2="400.00" stroke="#ececec"/>
<text x="70" y="404.00" text-anchor="end" font-family="Arial, sans-serif" font-size="11">-0.158</text>
<line x1="78" y1="330.40" x2="772" y2="330.40" stroke="#ececec"/>
<text x="70" y="334.40" text-anchor="end" font-family="Arial, sans-serif" font-size="11">-0.092</text>
<line x1="78" y1="260.80" x2="772" y2="260.80" stroke="#ececec"/>
<text x="70" y="264.80" text-anchor="end" font-family="Arial, sans-serif" font-size="11">-0.0263</text>
<line x1="78" y1="191.20" x2="772" y2="191.20" stroke="#ececec"/>
<text x="70" y="195.20" text-anchor="end" font-family="Arial, sans-serif" font-size="11">0.0394</text>
<line x1="78" y1="121.60" x2="772" y2="121.60" stroke="#ececec"/>
<text x="70" y="125.60" text-anchor="end" font-family="Arial, sans-serif" font-size="11">0.105</text>
<line x1="78" y1="52.00" x2="772" y2="52.00" stroke="#ececec"/>
<text x="70" y="56.00" text-anchor="end" font-family="Arial, sans-serif" font-size="11">0.171</text>
<line x1="313.78" y1="52" x2="313.78" y2="400" stroke="#777" stroke-dasharray="4 4"/>
<line x1="78" y1="232.94" x2="772" y2="232.94" stroke="#777" stroke-dasharray="4 4"/>
<line x1="91.35" y1="52" x2="91.35" y2="400" stroke="#555" stroke-dasharray="2 4"/>
<text x="95.35" y="66" font-family="Arial, sans-serif" font-size="11" fill="#555">-Vcc</text>
<line x1="536.22" y1="52" x2="536.22" y2="400" stroke="#555" stroke-dasharray="2 4"/>
<text x="540.22" y="66" font-family="Arial, sans-serif" font-size="11" fill="#555">Vcc</text>
<line x1="758.65" y1="52" x2="758.65" y2="400" stroke="#555" stroke-dasharray="2 4"/>
<text x="762.65" y="66" font-family="Arial, sans-serif" font-size="11" fill="#555">2Vcc</text>
<polyline fill="none" stroke="#0f766e" stroke-width="2.8" opacity="0.95" stroke-dasharray="6 3" points="91.35,376.00 94.13,367.33 96.35,360.46 98.02,355.36 99.69,350.29 101.36,345.28 102.47,341.95 103.58,338.66 104.69,335.39 105.80,332.13 106.92,328.92 108.03,325.72 109.14,322.56 109.70,320.98 110.25,319.43 111.37,316.33 113.03,311.77 113.59,310.25 115.26,305.81 115.81,304.35 116.93,301.47 117.48,300.03 118.04,298.64 118.59,297.24 119.15,295.84 120.26,293.14 120.82,291.79 121.38,290.46 122.49,287.88 123.04,286.59 124.16,284.13 124.71,282.90 125.27,281.72 126.38,279.49 126.94,278.38 127.49,277.27 128.60,275.04 129.16,274.02 129.72,273.07 130.83,271.18 131.38,270.23 131.94,269.28 132.50,268.33 133.05,267.52 133.61,266.76 134.17,265.99 135.83,263.71 136.39,262.94 136.95,262.34 138.61,260.59 140.28,258.85 140.84,258.42 141.39,257.99 143.06,256.69 143.62,256.26 144.17,255.84 145.84,254.87 146.96,254.22 148.07,253.59 148.62,253.34 150.85,252.31 151.96,251.82 153.63,251.18 155.85,250.34 158.08,249.61 158.63,249.42 160.30,248.90 160.86,248.74 163.64,247.93 167.53,246.89 170.31,246.18 170.87,246.04 176.43,244.74 179.76,243.98 183.10,243.24 188.11,242.16 193.11,241.11 198.67,239.99 203.68,239.02 208.13,238.18 212.57,237.40 216.47,236.73 220.36,236.13 223.14,235.70 225.92,235.33 229.26,234.89 232.59,234.51 235.37,234.22 239.27,233.87 244.27,233.53 245.94,233.45 249.28,233.30 252.61,233.19 257.06,233.09 262.07,233.02 271.52,232.96 294.32,232.94 758.65,232.94"/>
<polyline fill="none" stroke="#7c2d12" stroke-width="2.8" opacity="0.95" stroke-dasharray="6 3" points="91.35,76.00 96.91,92.47 99.13,99.03 101.36,105.52 103.58,111.96 105.80,118.34 107.47,123.08 109.14,127.77 110.25,130.88 111.37,133.96 113.59,140.06 115.81,146.07 116.93,149.03 118.04,151.96 119.15,154.87 120.26,157.73 121.38,160.57 122.49,163.36 123.04,164.76 124.16,167.48 124.71,168.84 125.27,170.17 126.38,172.77 126.94,174.06 127.49,175.36 128.60,177.95 129.16,179.19 129.72,180.39 131.38,183.98 131.94,185.18 132.50,186.38 133.05,187.49 133.61,188.56 134.17,189.64 135.83,192.86 136.39,193.94 137.50,195.81 138.61,197.67 139.17,198.60 140.28,200.45 140.84,201.21 141.95,202.73 143.06,204.26 143.62,205.02 144.17,205.76 145.84,207.52 146.96,208.70 147.51,209.29 148.07,209.84 148.62,210.28 150.29,211.59 150.85,212.03 151.40,212.47 151.96,212.86 153.07,213.52 153.63,213.84 154.18,214.17 155.30,214.83 155.85,215.11 158.08,216.13 158.63,216.38 159.19,216.63 160.86,217.25 163.08,218.06 165.31,218.73 165.86,218.89 167.53,219.37 168.09,219.52 170.87,220.25 173.65,220.93 175.87,221.45 178.65,222.08 181.43,222.70 183.66,223.17 188.11,224.11 193.11,225.13 198.12,226.11 203.12,227.04 207.57,227.85 211.46,228.51 214.24,228.97 217.02,229.41 220.36,229.90 223.14,230.30 226.48,230.73 229.26,231.08 232.59,231.43 235.37,231.71 239.27,232.04 244.27,232.36 245.94,232.44 249.28,232.59 252.61,232.69 257.62,232.80 265.40,232.89 279.30,232.94 758.65,232.94"/>
<line x1="88" y1="70" x2="110" y2="70" stroke="#0f766e" stroke-width="2.8" stroke-dasharray="6 3"/>
<text x="116" y="74" font-family="Arial, sans-serif" font-size="12">[GND Clamp]</text>
<line x1="88" y1="88" x2="110" y2="88" stroke="#7c2d12" stroke-width="2.8" stroke-dasharray="6 3"/>
<text x="116" y="92" font-family="Arial, sans-serif" font-size="12">[POWER Clamp]</text>
<rect x="78" y="464" width="694" height="44" fill="#fffdf7" stroke="#d8c6a1" rx="4"/>
<text x="88" y="481" font-family="Arial, sans-serif" font-size="11" font-weight="700" fill="#4b3b21">Findings needing attention</text>
<rect x="88" y="488" width="7" height="7" fill="#b54708"/>
<text x="102" y="495" font-family="Arial, sans-serif" font-size="11" fill="#333">WARN 5.3.6: I-V stair-step evidence needs review | [POWER Clamp]: roughness=0.105 &gt; 0.1</text>
<text x="425.00" y="444.00" text-anchor="middle" font-family="Arial, sans-serif" font-size="12">Table voltage (V)</text>
<text transform="translate(18 226.00) rotate(-90)" text-anchor="middle" font-family="Arial, sans-serif" font-size="12">Current (A)</text>
<text x="420" y="42" font-family="Arial, sans-serif" font-size="11" fill="#555">thick dashed=combined typ curves</text>
</svg>