<svg xmlns="http://www.w3.org/2000/svg" width="800" height="520" viewBox="0 0 800 520">
<rect width="100%" height="100%" fill="#ffffff"/>
<text x="78" y="25" font-family="Arial, sans-serif" font-size="16" font-weight="700">DQS_40_3200 I-V Pullup/Pulldown 0 V Detail</text>
<rect x="78" y="54" width="690" height="306" fill="#fbfbfb" stroke="#c8c8c8"/>
<line x1="78.00" y1="54" x2="78.00" y2="360" stroke="#ececec"/>
<text x="78.00" y="382" text-anchor="middle" font-family="Arial, sans-serif" font-size="11">0</text>
<line x1="216.00" y1="54" x2="216.00" y2="360" stroke="#ececec"/>
<text x="216.00" y="382" text-anchor="middle" font-family="Arial, sans-serif" font-size="11">0.24</text>
<line x1="354.00" y1="54" x2="354.00" y2="360" stroke="#ececec"/>
<text x="354.00" y="382" text-anchor="middle" font-family="Arial, sans-serif" font-size="11">0.48</text>
<line x1="492.00" y1="54" x2="492.00" y2="360" stroke="#ececec"/>
<text x="492.00" y="382" text-anchor="middle" font-family="Arial, sans-serif" font-size="11">0.72</text>
<line x1="630.00" y1="54" x2="630.00" y2="360" stroke="#ececec"/>
<text x="630.00" y="382" text-anchor="middle" font-family="Arial, sans-serif" font-size="11">0.96</text>
<line x1="768.00" y1="54" x2="768.00" y2="360" stroke="#ececec"/>
<text x="768.00" y="382" text-anchor="middle" font-family="Arial, sans-serif" font-size="11">1.2</text>
<line x1="78" y1="360.00" x2="768" y2="360.00" stroke="#ececec"/>
<text x="70" y="364.00" text-anchor="end" font-family="Arial, sans-serif" font-size="11">-0.0331</text>
<line x1="78" y1="298.80" x2="768" y2="298.80" stroke="#ececec"/>
<text x="70" y="302.80" text-anchor="end" font-family="Arial, sans-serif" font-size="11">-0.0178</text>
<line x1="78" y1="237.60" x2="768" y2="237.60" stroke="#ececec"/>
<text x="70" y="241.60" text-anchor="end" font-family="Arial, sans-serif" font-size="11">-0.00252</text>
<line x1="78" y1="176.40" x2="768" y2="176.40" stroke="#ececec"/>
<text x="70" y="180.40" text-anchor="end" font-family="Arial, sans-serif" font-size="11">0.0128</text>
<line x1="78" y1="115.20" x2="768" y2="115.20" stroke="#ececec"/>
<text x="70" y="119.20" text-anchor="end" font-family="Arial, sans-serif" font-size="11">0.0281</text>
<line x1="78" y1="54.00" x2="768" y2="54.00" stroke="#ececec"/>
<text x="70" y="58.00" text-anchor="end" font-family="Arial, sans-serif" font-size="11">0.0434</text>
<line x1="78.00" y1="54" x2="78.00" y2="360" stroke="#777" stroke-dasharray="4 4"/>
<line x1="78" y1="227.53" x2="768" y2="227.53" stroke="#777" stroke-dasharray="4 4"/>
<line x1="78.00" y1="54" x2="78.00" y2="360" stroke="#555" stroke-dasharray="2 4"/>
<text x="82.00" y="68" font-family="Arial, sans-serif" font-size="11" fill="#555">0V</text>
<line x1="768.00" y1="54" x2="768.00" y2="360" stroke="#555" stroke-dasharray="2 4"/>
<text x="772.00" y="68" font-family="Arial, sans-serif" font-size="11" fill="#555">Vcc</text>
<polyline fill="none" stroke="#1f77b4" stroke-width="1.2" opacity="0.55" stroke-dasharray="4 4" points="78.00,227.53 117.68,218.61 155.62,210.20 190.12,202.68 219.45,196.41 240.15,192.01 274.65,184.82 300.52,179.54 316.05,176.41 336.75,172.31 352.28,169.27 366.08,166.62 385.05,163.00 397.13,160.77 417.82,156.96 445.43,152.07 457.50,150.01 471.30,147.68 481.65,145.98 497.18,143.46 509.25,141.56 531.68,138.12 543.75,136.34 559.28,134.07 571.35,132.38 586.88,130.23 600.68,128.40 614.48,126.58 631.73,124.41 643.80,122.91 661.05,120.85 673.12,119.45 690.38,117.51 716.25,114.73 730.05,113.31 747.30,111.58 768.00,109.61"/>
<polyline fill="none" stroke="#1f77b4" stroke-width="1.2" opacity="0.55" stroke-dasharray="4 4" points="78.00,227.53 117.68,217.68 155.62,208.39 190.12,200.05 219.45,193.06 240.15,188.20 274.65,180.20 300.52,174.31 316.05,170.82 336.75,166.25 352.28,162.89 366.08,159.92 385.05,155.95 397.13,153.46 417.82,149.27 445.43,143.90 457.50,141.61 471.30,139.03 481.65,137.13 497.18,134.32 509.25,132.18 531.68,128.25 543.75,126.18 559.28,123.56 571.35,121.55 586.88,118.99 600.68,116.74 614.48,114.51 631.73,111.76 643.80,109.86 661.05,107.16 673.12,105.28 690.38,102.64 716.25,98.73 730.05,96.66 747.30,94.11 768.00,91.09"/>
<polyline fill="none" stroke="#1f77b4" stroke-width="2.0" opacity="1.0" points="78.00,227.53 117.68,217.94 155.62,208.88 190.12,200.76 219.45,193.96 240.15,189.20 274.65,181.39 300.52,175.64 316.05,172.24 336.75,167.75 352.28,164.44 366.08,161.53 385.05,157.59 397.13,155.13 417.82,150.97 445.43,145.62 457.50,143.35 471.30,140.79 481.65,138.90 497.18,136.14 509.25,134.00 531.68,130.18 543.75,128.16 559.28,125.62 571.35,123.67 586.88,121.22 600.68,119.07 614.48,116.97 631.73,114.38 643.80,112.60 661.05,110.09 673.12,108.37 690.38,105.96 716.25,102.43 730.05,100.60 747.30,98.35 768.00,95.73"/>
<polyline fill="none" stroke="#d62728" stroke-width="1.2" opacity="0.55" stroke-dasharray="4 4" points="78.00,227.53 110.78,233.06 134.93,237.07 159.07,241.00 181.50,244.59 195.30,246.76 216.00,249.94 236.70,253.11 248.78,254.87 272.93,258.39 297.08,261.71 307.43,263.13 316.05,264.27 335.02,266.71 350.55,268.69 364.35,270.36 383.33,272.63 395.40,274.00 417.82,276.52 447.15,279.62 471.30,282.01 481.65,282.99 498.90,284.59 510.98,285.65 531.68,287.43 542.03,288.26 559.28,289.64 569.62,290.42 588.60,291.83 600.68,292.68 616.20,293.75 628.27,294.55 645.52,295.67 659.32,296.53 676.57,297.58 692.10,298.50 711.07,299.57 728.33,300.53 749.02,301.64 768.00,302.63"/>
<polyline fill="none" stroke="#d62728" stroke-width="1.2" opacity="0.55" stroke-dasharray="4 4" points="78.00,227.53 110.78,233.53 134.93,237.90 159.07,242.22 181.50,246.19 195.30,248.61 216.00,252.19 236.70,255.72 248.78,257.75 272.93,261.75 297.08,265.66 307.43,267.30 316.05,268.67 335.02,271.60 350.55,273.97 364.35,276.04 383.33,278.83 395.40,280.59 417.82,283.78 447.15,287.85 471.30,291.11 481.65,292.47 498.90,294.72 510.98,296.26 531.68,298.87 542.03,300.14 559.28,302.21 569.62,303.43 588.60,305.61 600.68,306.97 616.20,308.66 628.27,309.95 645.52,311.74 659.32,313.12 676.57,314.82 692.10,316.29 711.07,318.03 728.33,319.57 749.02,321.35 768.00,322.91"/>
<polyline fill="none" stroke="#d62728" stroke-width="2.0" opacity="1.0" points="78.00,227.53 110.78,233.29 134.93,237.46 159.07,241.58 181.50,245.34 195.30,247.63 216.00,251.00 236.70,254.31 248.78,256.22 272.93,259.95 297.08,263.54 307.43,265.05 316.05,266.28 335.02,268.97 350.55,271.11 364.35,272.99 383.33,275.50 395.40,277.07 417.82,279.93 447.15,283.53 471.30,286.37 481.65,287.56 498.90,289.48 510.98,290.81 531.68,292.99 542.03,294.05 559.28,295.77 569.62,296.78 588.60,298.55 600.68,299.65 616.20,301.01 628.27,302.05 645.52,303.47 659.32,304.58 676.57,305.92 692.10,307.08 711.07,308.47 728.33,309.67 749.02,311.08 768.00,312.33"/>
<circle cx="78.00" cy="227.53" r="4.0" fill="#ffffff" stroke="#1f77b4" stroke-width="1.5"/>
<circle cx="78.00" cy="227.53" r="3.0" fill="#ffffff" stroke="#1f77b4" stroke-width="1.5"/>
<circle cx="78.00" cy="227.53" r="3.0" fill="#ffffff" stroke="#1f77b4" stroke-width="1.5"/>
<circle cx="78.00" cy="227.53" r="4.0" fill="#ffffff" stroke="#d62728" stroke-width="1.5"/>
<circle cx="78.00" cy="227.53" r="3.0" fill="#ffffff" stroke="#d62728" stroke-width="1.5"/>
<circle cx="78.00" cy="227.53" r="3.0" fill="#ffffff" stroke="#d62728" stroke-width="1.5"/>
<line x1="88" y1="72" x2="110" y2="72" stroke="#1f77b4" stroke-width="2.4"/>
<text x="116" y="76" font-family="Arial, sans-serif" font-size="12">[Pulldown]</text>
<line x1="88" y1="90" x2="110" y2="90" stroke="#d62728" stroke-width="2.4"/>
<text x="116" y="94" font-family="Arial, sans-serif" font-size="12">[Pullup]</text>
<text x="423.00" y="404.00" text-anchor="middle" font-family="Arial, sans-serif" font-size="12">Table voltage (V), zoomed around 0 V</text>
<text transform="translate(18 207.00) rotate(-90)" text-anchor="middle" font-family="Arial, sans-serif" font-size="12">Current (A)</text>
<text x="420" y="42" font-family="Arial, sans-serif" font-size="11" fill="#555">pullup/pulldown curves show typ/min/max; open circles mark I(0 V)</text>
<rect x="78" y="422" width="690" height="44" fill="#fffdf7" stroke="#d8c6a1" rx="4"/>
<text x="88" y="439" font-family="Arial, sans-serif" font-size="11" font-weight="700" fill="#4b3b21">Findings needing attention</text>
<rect x="88" y="446" width="7" height="7" fill="#b54708"/>
<text x="102" y="453" font-family="Arial, sans-serif" font-size="11" fill="#333">WARN 5.3.9: [Pullup] zero-current condition at 0V needs review | col 1: 1.06uA, pass limit +/-1uA</text>
</svg>