<svg xmlns="http://www.w3.org/2000/svg" width="800" height="450" viewBox="0 0 800 450">
<rect width="100%" height="100%" fill="#ffffff"/>
<text x="78" y="25" font-family="Arial, sans-serif" font-size="16" font-weight="700">DQS_40_3200 V-T Waveforms</text>
<rect x="78" y="54" width="694" height="230" fill="#fbfbfb" stroke="#c8c8c8"/>
<text transform="translate(18 169.00) rotate(-90)" text-anchor="middle" font-family="Arial, sans-serif" font-size="12">Voltage (V)</text>
<line x1="78.00" y1="54" x2="78.00" y2="284" stroke="#ececec"/>
<text x="78.00" y="302" text-anchor="middle" font-family="Arial, sans-serif" font-size="10">-8.8p</text>
<line x1="216.80" y1="54" x2="216.80" y2="284" stroke="#ececec"/>
<text x="216.80" y="302" text-anchor="middle" font-family="Arial, sans-serif" font-size="10">82.7p</text>
<line x1="355.60" y1="54" x2="355.60" y2="284" stroke="#ececec"/>
<text x="355.60" y="302" text-anchor="middle" font-family="Arial, sans-serif" font-size="10">174p</text>
<line x1="494.40" y1="54" x2="494.40" y2="284" stroke="#ececec"/>
<text x="494.40" y="302" text-anchor="middle" font-family="Arial, sans-serif" font-size="10">266p</text>
<line x1="633.20" y1="54" x2="633.20" y2="284" stroke="#ececec"/>
<text x="633.20" y="302" text-anchor="middle" font-family="Arial, sans-serif" font-size="10">357p</text>
<line x1="772.00" y1="54" x2="772.00" y2="284" stroke="#ececec"/>
<text x="772.00" y="302" text-anchor="middle" font-family="Arial, sans-serif" font-size="10">449p</text>
<line x1="78" y1="284.00" x2="772" y2="284.00" stroke="#ececec"/>
<text x="70" y="288.00" text-anchor="end" font-family="Arial, sans-serif" font-size="10">-0.104</text>
<line x1="78" y1="226.50" x2="772" y2="226.50" stroke="#ececec"/>
<text x="70" y="230.50" text-anchor="end" font-family="Arial, sans-serif" font-size="10">0.248</text>
<line x1="78" y1="169.00" x2="772" y2="169.00" stroke="#ececec"/>
<text x="70" y="173.00" text-anchor="end" font-family="Arial, sans-serif" font-size="10">0.599</text>
<line x1="78" y1="111.50" x2="772" y2="111.50" stroke="#ececec"/>
<text x="70" y="115.50" text-anchor="end" font-family="Arial, sans-serif" font-size="10">0.951</text>
<line x1="78" y1="54.00" x2="772" y2="54.00" stroke="#ececec"/>
<text x="70" y="58.00" text-anchor="end" font-family="Arial, sans-serif" font-size="10">1.3</text>
<line x1="78" y1="267.06" x2="772" y2="267.06" stroke="#1f77b4" opacity="0.18" stroke-dasharray="3 4"/>
<polyline fill="none" stroke="#1f77b4" stroke-width="2.0" points="91.35,267.05 206.61,267.05 230.87,267.06 246.04,267.06 252.11,267.06 256.66,267.06 261.21,267.05 265.76,267.05 270.31,267.04 276.37,267.03 282.44,267.02 288.51,267.01 293.06,267.03 297.60,267.06 300.64,267.10 303.67,267.16 305.19,267.19 306.70,267.23 308.22,267.26 309.74,267.31 311.25,267.35 312.77,267.40 314.29,267.45 315.80,267.50 317.32,267.55 318.84,267.61 320.35,267.67 321.87,267.73 323.39,267.79 324.90,267.85 326.42,267.91 327.94,267.97 329.45,268.03 330.97,268.08 332.49,268.12 334.00,268.14 335.52,268.14 337.04,268.11 338.55,268.05 340.07,267.96 341.59,267.83 343.10,267.67 344.62,267.46 346.14,267.21 347.65,266.93 349.17,266.62 350.69,266.27 352.20,265.88 353.72,265.46 355.24,264.99 356.75,264.50 358.27,263.98 359.79,263.43 361.30,262.85 362.82,262.24 364.34,261.60 365.85,260.92 367.37,260.21 368.89,259.46 370.40,258.67 371.92,257.84 373.44,256.97 374.95,256.06 376.47,255.12 377.99,254.15 379.50,253.14 381.02,252.11 382.53,251.06 384.05,249.99 385.57,248.90 387.08,247.79 388.60,246.68 390.12,245.56 391.63,244.43 393.15,243.30 394.67,242.17 396.18,241.03 397.70,239.90 399.22,238.77 400.73,237.64 402.25,236.51 403.77,235.39 405.28,234.26 406.80,233.13 408.32,232.00 409.83,230.86 411.35,229.69 412.87,228.52 414.38,227.31 415.90,226.08 417.42,224.81 418.93,223.52 420.45,222.20 421.97,220.86 423.48,219.50 425.00,218.12 426.52,216.73 428.03,215.33 431.07,212.52 434.10,209.69 435.62,208.28 437.13,206.88 438.65,205.48 440.17,204.09 441.68,202.70 443.20,201.33 444.72,199.98 446.23,198.64 447.75,197.32 449.27,196.02 450.78,194.75 452.30,193.50 453.82,192.28 455.33,191.09 456.85,189.93 458.37,188.80 459.88,187.70 461.40,186.65 462.92,185.62 464.43,184.63 465.95,183.67 467.47,182.75 468.98,181.87 470.50,181.01 472.01,180.19 473.53,179.41 475.05,178.67 476.56,177.97 478.08,177.26 479.60,176.60 481.11,175.98 482.63,175.35 484.15,174.79 485.66,174.23 487.18,173.71 488.70,173.21 490.21,172.73 491.73,172.27 493.25,171.83 494.76,171.44 496.28,171.05 497.80,170.67 499.31,170.29 500.83,169.96 502.35,169.63 503.86,169.32 505.38,169.03 506.90,168.75 508.41,168.48 509.93,168.23 511.45,167.99 512.96,167.76 514.48,167.54 516.00,167.33 517.51,167.15 519.03,166.97 520.55,166.79 522.06,166.61 523.58,166.45 525.10,166.30 526.61,166.16 528.13,166.01 529.65,165.89 531.16,165.76 532.68,165.64 534.20,165.53 535.71,165.42 537.23,165.32 538.75,165.22 541.78,165.05 543.30,164.96 544.81,164.89 547.85,164.74 550.88,164.62 552.40,164.56 555.43,164.45 558.46,164.34 561.49,164.26 566.04,164.13 570.59,164.03 575.14,163.94 579.69,163.87 584.24,163.80 588.79,163.75 594.86,163.69 599.41,163.65 606.99,163.60 614.58,163.56 623.68,163.53 634.29,163.50 646.42,163.48 661.59,163.46 681.31,163.45 710.12,163.44 758.65,163.43"/>
<line x1="78" y1="70.68" x2="772" y2="70.68" stroke="#d62728" opacity="0.18" stroke-dasharray="3 4"/>
<polyline fill="none" stroke="#d62728" stroke-width="2.0" points="91.35,193.26 191.44,193.26 221.77,193.26 230.87,193.26 239.97,193.26 247.56,193.26 259.69,193.25 262.72,193.25 265.76,193.25 267.27,193.25 268.79,193.25 270.31,193.25 271.82,193.25 273.34,193.25 274.86,193.25 276.37,193.25 277.89,193.25 279.41,193.25 280.92,193.26 282.44,193.26 283.96,193.26 285.47,193.27 286.99,193.28 288.51,193.28 290.02,193.29 291.54,193.30 293.06,193.31 294.57,193.32 296.09,193.33 297.60,193.34 299.12,193.35 300.64,193.36 302.15,193.36 303.67,193.36 305.19,193.36 306.70,193.35 308.22,193.34 309.74,193.31 311.25,193.27 312.77,193.22 314.29,193.15 315.80,193.07 317.32,192.97 318.84,192.83 320.35,192.68 321.87,192.49 323.39,192.27 324.90,192.00 326.42,191.70 327.94,191.34 329.45,190.93 330.97,190.46 332.49,189.94 334.00,189.36 335.52,188.72 337.04,188.03 338.55,187.28 340.07,186.49 341.59,185.65 343.10,184.77 344.62,183.84 346.14,182.88 347.65,181.87 349.17,180.83 350.69,179.74 352.20,178.59 353.72,177.40 355.24,176.15 356.75,174.86 358.27,173.50 359.79,172.10 361.30,170.65 362.82,169.15 364.34,167.62 365.85,166.06 367.37,164.48 368.89,162.88 370.40,161.28 371.92,159.67 373.44,158.07 374.95,156.48 376.47,154.90 377.99,153.34 379.50,151.79 381.02,150.26 382.53,148.74 384.05,147.23 385.57,145.73 387.08,144.24 388.60,142.75 390.12,141.27 391.63,139.78 393.15,138.30 394.67,136.82 396.18,135.33 397.70,133.83 399.22,132.32 400.73,130.80 402.25,129.25 403.77,127.69 405.28,126.10 406.80,124.48 408.32,122.84 409.83,121.18 411.35,119.50 412.87,117.80 414.38,116.09 415.90,114.37 417.42,112.64 418.93,110.92 420.45,109.20 421.97,107.49 423.48,105.80 425.00,104.13 426.52,102.43 428.03,100.95 429.55,99.32 431.07,97.85 432.58,96.37 434.10,95.06 435.62,93.59 437.13,92.45 438.65,91.14 440.17,89.99 441.68,88.85 443.20,87.86 444.72,86.88 446.23,85.90 447.75,85.08 449.27,84.26 450.78,83.44 452.30,82.63 453.82,81.97 455.33,81.32 456.85,80.66 458.37,80.17 459.88,79.52 461.40,79.03 462.92,78.54 464.43,78.04 465.95,77.55 467.47,77.23 468.98,76.90 470.50,76.41 472.01,76.08 473.53,75.75 475.05,75.43 476.56,75.26 478.08,74.94 479.60,74.77 481.11,74.44 482.63,74.28 484.15,73.95 485.66,73.79 487.18,73.63 488.70,73.46 490.21,73.30 491.73,73.13 493.25,72.97 494.76,72.81 496.28,72.81 497.80,72.64 499.31,72.48 500.83,72.48 502.35,72.32 503.86,72.15 505.38,72.15 506.90,71.99 508.41,71.99 509.93,71.83 512.96,71.83 516.00,71.66 519.03,71.50 522.06,71.50 523.58,71.33 526.61,71.33 528.13,71.33 531.16,71.17 534.20,71.17 537.23,71.17 541.78,71.01 544.81,71.01 547.85,71.01 552.40,71.01 558.46,70.84 566.04,70.84 573.63,70.84 582.73,70.84 594.86,70.68 608.51,70.68 626.71,70.68 652.49,70.68 696.47,70.68 758.65,70.68"/>
<line x1="78" y1="70.68" x2="772" y2="70.68" stroke="#2ca02c" opacity="0.18" stroke-dasharray="3 4"/>
<polyline fill="none" stroke="#2ca02c" stroke-width="2.0" points="91.35,70.68 191.44,70.68 217.22,70.68 230.87,70.68 253.62,70.68 258.17,70.68 262.72,70.68 265.76,70.68 267.27,70.68 268.79,70.68 270.31,70.68 273.34,70.68 276.37,70.68 279.41,70.68 282.44,70.68 291.54,70.68 293.06,70.68 294.57,70.68 296.09,70.68 297.60,70.68 299.12,70.68 300.64,70.68 302.15,70.68 303.67,70.68 305.19,70.68 306.70,70.68 308.22,70.68 309.74,70.68 311.25,70.68 312.77,70.68 314.29,70.52 315.80,70.52 317.32,70.52 318.84,70.52 320.35,70.35 321.87,70.35 323.39,70.19 324.90,70.19 326.42,70.19 327.94,70.03 329.45,70.03 330.97,70.03 332.49,69.86 334.00,69.86 335.52,69.86 337.04,70.03 338.55,70.03 340.07,70.19 341.59,70.52 343.10,70.84 344.62,71.17 346.14,71.50 347.65,71.99 349.17,72.48 350.69,73.13 352.20,73.79 353.72,74.61 355.24,75.43 356.75,76.24 358.27,77.06 359.79,78.04 361.30,79.03 362.82,80.01 364.34,81.15 365.85,82.14 367.37,83.44 368.89,84.75 370.40,86.06 371.92,87.37 373.44,88.85 374.95,90.48 376.47,91.95 377.99,93.75 379.50,95.39 381.02,97.03 382.53,98.83 384.05,100.63 385.57,102.43 387.08,104.33 388.60,106.18 390.12,108.04 391.63,109.89 393.15,111.73 394.67,113.56 396.18,115.35 397.70,117.12 399.22,118.84 400.73,120.52 402.25,122.16 403.77,123.74 405.28,125.27 406.80,126.75 408.32,128.18 409.83,129.56 411.35,130.90 412.87,132.21 414.38,133.48 415.90,134.74 417.42,136.00 418.93,137.26 420.45,138.54 421.97,139.86 423.48,141.21 425.00,142.62 426.52,144.07 428.03,145.58 429.55,147.14 431.07,148.74 432.58,150.40 434.10,152.09 435.62,153.81 437.13,155.55 438.65,157.31 440.17,159.06 441.68,160.81 443.20,162.53 444.72,164.21 446.23,165.85 447.75,167.44 449.27,168.96 450.78,170.42 452.30,171.82 453.82,173.14 455.33,174.40 456.85,175.59 458.37,176.71 459.88,177.78 461.40,178.76 462.92,179.72 464.43,180.60 465.95,181.45 467.47,182.23 468.98,182.96 470.50,183.66 472.01,184.30 473.53,184.90 475.05,185.46 476.56,185.97 478.08,186.48 479.60,186.94 481.11,187.36 482.63,187.79 484.15,188.15 485.66,188.51 487.18,188.83 488.70,189.14 490.21,189.42 491.73,189.69 493.25,189.94 494.76,190.15 496.28,190.36 497.80,190.56 499.31,190.76 500.83,190.93 502.35,191.10 503.86,191.24 505.38,191.39 506.90,191.52 508.41,191.64 509.93,191.75 511.45,191.86 512.96,191.96 514.48,192.04 516.00,192.13 517.51,192.20 519.03,192.27 520.55,192.34 522.06,192.41 523.58,192.47 525.10,192.52 526.61,192.57 528.13,192.62 531.16,192.71 532.68,192.75 535.71,192.81 537.23,192.85 538.75,192.88 541.78,192.93 543.30,192.95 544.81,192.97 547.85,193.01 552.40,193.05 556.94,193.10 558.46,193.11 563.01,193.13 567.56,193.16 573.63,193.18 581.21,193.21 590.31,193.22 600.93,193.24 614.58,193.25 634.29,193.25 669.17,193.26 758.65,193.26"/>
<line x1="78" y1="267.06" x2="772" y2="267.06" stroke="#9467bd" opacity="0.18" stroke-dasharray="3 4"/>
<polyline fill="none" stroke="#9467bd" stroke-width="2.0" points="91.35,163.43 197.51,163.43 212.67,163.43 233.91,163.43 239.97,163.43 244.52,163.43 249.07,163.43 252.11,163.43 255.14,163.43 258.17,163.43 259.69,163.43 261.21,163.43 262.72,163.43 264.24,163.43 265.76,163.43 267.27,163.43 268.79,163.44 270.31,163.44 274.86,163.44 277.89,163.44 279.41,163.45 280.92,163.45 282.44,163.45 283.96,163.45 285.47,163.45 286.99,163.45 288.51,163.46 290.02,163.46 291.54,163.46 293.06,163.46 294.57,163.45 296.09,163.45 297.60,163.45 299.12,163.44 300.64,163.44 302.15,163.43 303.67,163.42 305.19,163.40 306.70,163.39 308.22,163.36 309.74,163.34 311.25,163.31 312.77,163.27 314.29,163.24 315.80,163.20 317.32,163.16 318.84,163.12 320.35,163.08 321.87,163.05 323.39,163.02 324.90,163.00 326.42,162.98 327.94,162.98 329.45,163.00 330.97,163.03 332.49,163.09 334.00,163.18 335.52,163.31 337.04,163.50 338.55,163.75 340.07,164.09 341.59,164.49 343.10,165.00 344.62,165.60 346.14,166.30 347.65,167.10 349.17,167.98 350.69,168.95 352.20,170.01 353.72,171.14 355.24,172.35 356.75,173.59 358.27,174.89 359.79,176.23 361.30,177.60 362.82,178.99 364.34,180.41 365.85,181.85 367.37,183.33 368.89,184.83 370.40,186.39 371.92,187.98 373.44,189.63 374.95,191.33 376.47,193.08 377.99,194.87 379.50,196.70 381.02,198.56 382.53,200.44 384.05,202.32 385.57,204.20 387.08,206.05 388.60,207.87 390.12,209.64 391.63,211.36 393.15,213.02 394.67,214.62 396.18,216.15 397.70,217.62 399.22,219.02 400.73,220.36 402.25,221.64 403.77,222.86 405.28,224.03 406.80,225.16 408.32,226.25 409.83,227.31 411.35,228.35 412.87,229.37 414.38,230.38 415.90,231.39 417.42,232.42 418.93,233.46 420.45,234.53 421.97,235.64 423.48,236.79 425.00,237.98 426.52,239.20 428.03,240.46 429.55,241.72 431.07,242.99 432.58,244.25 434.10,245.50 435.62,246.73 437.13,247.92 438.65,249.10 440.17,250.23 441.68,251.33 443.20,252.38 444.72,253.40 446.23,254.36 447.75,255.26 449.27,256.12 450.78,256.92 452.30,257.67 453.82,258.37 455.33,259.02 456.85,259.62 458.37,260.18 459.88,260.70 461.40,261.17 462.92,261.62 464.43,262.03 465.95,262.41 467.47,262.76 468.98,263.09 470.50,263.39 472.01,263.67 473.53,263.92 475.05,264.16 476.56,264.37 478.08,264.58 479.60,264.76 481.11,264.93 482.63,265.10 484.15,265.25 485.66,265.39 487.18,265.51 488.70,265.63 490.21,265.74 491.73,265.84 493.25,265.93 494.76,266.01 496.28,266.08 497.80,266.16 499.31,266.23 500.83,266.29 502.35,266.35 503.86,266.40 505.38,266.45 506.90,266.50 508.41,266.54 509.93,266.58 511.45,266.62 512.96,266.65 516.00,266.71 519.03,266.76 520.55,266.78 522.06,266.80 523.58,266.82 526.61,266.85 528.13,266.87 531.16,266.90 532.68,266.91 537.23,266.94 540.26,266.96 543.30,266.97 544.81,266.98 547.85,266.99 553.91,267.01 558.46,267.02 566.04,267.03 575.14,267.04 585.76,267.05 600.93,267.05 623.68,267.05 672.21,267.05 758.65,267.05"/>
<line x1="88" y1="72" x2="110" y2="72" stroke="#1f77b4" stroke-width="2.4"/>
<text x="116" y="76" font-family="Arial, sans-serif" font-size="12">rising #1</text>
<line x1="88" y1="90" x2="110" y2="90" stroke="#d62728" stroke-width="2.4"/>
<text x="116" y="94" font-family="Arial, sans-serif" font-size="12">rising #2</text>
<line x1="88" y1="108" x2="110" y2="108" stroke="#2ca02c" stroke-width="2.4"/>
<text x="116" y="112" font-family="Arial, sans-serif" font-size="12">falling #3</text>
<line x1="88" y1="126" x2="110" y2="126" stroke="#9467bd" stroke-width="2.4"/>
<text x="116" y="130" font-family="Arial, sans-serif" font-size="12">falling #4</text>
<text x="425.00" y="322.00" text-anchor="middle" font-family="Arial, sans-serif" font-size="12">Time (s)</text>
<text x="420" y="42" font-family="Arial, sans-serif" font-size="11" fill="#555">solid=V-T voltage, faint horizontal=V_fixture</text>
</svg>