<svg xmlns="http://www.w3.org/2000/svg" width="800" height="450" viewBox="0 0 800 450">
<rect width="100%" height="100%" fill="#ffffff"/>
<text x="78" y="25" font-family="Arial, sans-serif" font-size="16" font-weight="700">DQ_34_3200 V-T Waveforms</text>
<rect x="78" y="54" width="694" height="230" fill="#fbfbfb" stroke="#c8c8c8"/>
<text transform="translate(18 169.00) rotate(-90)" text-anchor="middle" font-family="Arial, sans-serif" font-size="12">Voltage (V)</text>
<line x1="78.00" y1="54" x2="78.00" y2="284" stroke="#ececec"/>
<text x="78.00" y="302" text-anchor="middle" font-family="Arial, sans-serif" font-size="10">-8.8p</text>
<line x1="216.80" y1="54" x2="216.80" y2="284" stroke="#ececec"/>
<text x="216.80" y="302" text-anchor="middle" font-family="Arial, sans-serif" font-size="10">82.7p</text>
<line x1="355.60" y1="54" x2="355.60" y2="284" stroke="#ececec"/>
<text x="355.60" y="302" text-anchor="middle" font-family="Arial, sans-serif" font-size="10">174p</text>
<line x1="494.40" y1="54" x2="494.40" y2="284" stroke="#ececec"/>
<text x="494.40" y="302" text-anchor="middle" font-family="Arial, sans-serif" font-size="10">266p</text>
<line x1="633.20" y1="54" x2="633.20" y2="284" stroke="#ececec"/>
<text x="633.20" y="302" text-anchor="middle" font-family="Arial, sans-serif" font-size="10">357p</text>
<line x1="772.00" y1="54" x2="772.00" y2="284" stroke="#ececec"/>
<text x="772.00" y="302" text-anchor="middle" font-family="Arial, sans-serif" font-size="10">449p</text>
<line x1="78" y1="284.00" x2="772" y2="284.00" stroke="#ececec"/>
<text x="70" y="288.00" text-anchor="end" font-family="Arial, sans-serif" font-size="10">-0.105</text>
<line x1="78" y1="226.50" x2="772" y2="226.50" stroke="#ececec"/>
<text x="70" y="230.50" text-anchor="end" font-family="Arial, sans-serif" font-size="10">0.247</text>
<line x1="78" y1="169.00" x2="772" y2="169.00" stroke="#ececec"/>
<text x="70" y="173.00" text-anchor="end" font-family="Arial, sans-serif" font-size="10">0.599</text>
<line x1="78" y1="111.50" x2="772" y2="111.50" stroke="#ececec"/>
<text x="70" y="115.50" text-anchor="end" font-family="Arial, sans-serif" font-size="10">0.951</text>
<line x1="78" y1="54.00" x2="772" y2="54.00" stroke="#ececec"/>
<text x="70" y="58.00" text-anchor="end" font-family="Arial, sans-serif" font-size="10">1.3</text>
<line x1="78" y1="266.81" x2="772" y2="266.81" stroke="#1f77b4" opacity="0.18" stroke-dasharray="3 4"/>
<polyline fill="none" stroke="#1f77b4" stroke-width="2.0" points="91.35,266.80 199.03,266.80 217.22,266.80 235.42,266.81 243.01,266.81 247.56,266.81 252.11,266.81 256.66,266.80 261.21,266.79 265.76,266.78 270.31,266.77 276.37,266.76 282.44,266.75 286.99,266.77 290.02,266.79 293.06,266.83 296.09,266.88 297.60,266.91 299.12,266.95 300.64,267.00 302.15,267.04 303.67,267.09 305.19,267.15 306.70,267.21 308.22,267.27 309.74,267.34 311.25,267.40 312.77,267.48 314.29,267.55 315.80,267.62 317.32,267.70 318.84,267.77 320.35,267.85 321.87,267.92 323.39,267.98 324.90,268.04 326.42,268.09 327.94,268.12 329.45,268.14 330.97,268.13 332.49,268.10 334.00,268.03 335.52,267.92 337.04,267.77 338.55,267.57 340.07,267.31 341.59,267.00 343.10,266.66 344.62,266.26 346.14,265.79 347.65,265.27 349.17,264.70 350.69,264.07 352.20,263.40 353.72,262.68 355.24,261.92 356.75,261.12 358.27,260.29 359.79,259.43 361.30,258.54 362.82,257.61 364.34,256.66 365.85,255.67 367.37,254.65 368.89,253.59 370.40,252.49 371.92,251.36 373.44,250.19 374.95,249.00 376.47,247.77 377.99,246.52 379.50,245.26 381.02,243.97 382.53,242.67 384.05,241.36 385.57,240.04 387.08,238.72 388.60,237.40 390.12,236.08 391.63,234.75 393.15,233.44 394.67,232.12 397.70,229.51 399.22,228.22 400.73,226.92 402.25,225.64 403.77,224.36 405.28,223.07 406.80,221.79 408.32,220.50 409.83,219.20 411.35,217.88 412.87,216.55 414.38,215.19 415.90,213.81 417.42,212.40 418.93,210.98 420.45,209.54 421.97,208.08 423.48,206.62 425.00,205.15 428.03,202.22 429.55,200.76 431.07,199.31 432.58,197.86 434.10,196.42 435.62,195.00 437.13,193.59 438.65,192.19 440.17,190.80 441.68,189.44 443.20,188.09 444.72,186.77 446.23,185.47 447.75,184.19 449.27,182.94 450.78,181.72 452.30,180.53 453.82,179.38 455.33,178.26 456.85,177.18 458.37,176.13 459.88,175.12 461.40,174.15 462.92,173.22 464.43,172.32 465.95,171.47 467.47,170.64 468.98,169.85 470.50,169.10 472.01,168.38 473.53,167.69 475.05,167.05 476.56,166.44 478.08,165.86 479.60,165.28 481.11,164.75 482.63,164.25 484.15,163.75 485.66,163.30 487.18,162.86 488.70,162.45 490.21,162.06 491.73,161.68 493.25,161.33 494.76,160.99 496.28,160.70 497.80,160.40 499.31,160.11 500.83,159.83 502.35,159.58 503.86,159.33 505.38,159.11 506.90,158.89 508.41,158.68 509.93,158.49 511.45,158.30 512.96,158.13 514.48,157.97 516.00,157.81 517.51,157.67 519.03,157.53 520.55,157.41 522.06,157.29 523.58,157.16 525.10,157.05 526.61,156.95 528.13,156.85 529.65,156.75 531.16,156.66 532.68,156.58 535.71,156.42 537.23,156.35 540.26,156.22 543.30,156.11 544.81,156.05 546.33,156.00 549.36,155.91 552.40,155.83 555.43,155.75 559.98,155.67 564.53,155.58 569.08,155.52 573.63,155.46 579.69,155.40 585.76,155.35 591.83,155.31 599.41,155.27 608.51,155.24 619.13,155.22 631.26,155.20 646.42,155.18 667.66,155.17 699.51,155.17 758.65,155.16"/>
<line x1="78" y1="70.84" x2="772" y2="70.84" stroke="#d62728" opacity="0.18" stroke-dasharray="3 4"/>
<polyline fill="none" stroke="#d62728" stroke-width="2.0" points="91.35,200.38 183.86,200.38 215.71,200.38 223.29,200.38 230.87,200.38 236.94,200.38 246.04,200.38 252.11,200.38 255.14,200.38 258.17,200.37 259.69,200.37 261.21,200.37 262.72,200.37 264.24,200.37 265.76,200.37 267.27,200.37 268.79,200.37 270.31,200.37 271.82,200.37 273.34,200.37 274.86,200.37 276.37,200.38 277.89,200.38 279.41,200.38 280.92,200.39 282.44,200.40 283.96,200.40 285.47,200.41 286.99,200.42 288.51,200.43 290.02,200.44 291.54,200.45 293.06,200.46 294.57,200.47 296.09,200.48 297.60,200.48 299.12,200.47 300.64,200.46 302.15,200.45 303.67,200.42 305.19,200.38 306.70,200.32 308.22,200.24 309.74,200.15 311.25,200.03 312.77,199.89 314.29,199.72 315.80,199.52 317.32,199.28 318.84,199.01 320.35,198.70 321.87,198.35 323.39,197.95 324.90,197.49 326.42,196.98 327.94,196.41 329.45,195.77 330.97,195.06 332.49,194.29 334.00,193.44 335.52,192.53 337.04,191.56 338.55,190.52 340.07,189.43 341.59,188.29 343.10,187.10 344.62,185.87 346.14,184.59 347.65,183.27 349.17,181.90 350.69,180.49 352.20,179.03 353.72,177.51 355.24,175.95 356.75,174.32 358.27,172.65 359.79,170.93 361.30,169.16 362.82,167.36 364.34,165.53 365.85,163.68 367.37,161.83 368.89,159.97 370.40,158.12 371.92,156.28 373.44,154.46 374.95,152.67 376.47,150.90 377.99,149.16 379.50,147.45 381.02,145.77 382.53,144.12 384.05,142.49 385.57,140.88 387.08,139.29 388.60,137.71 390.12,136.15 391.63,134.60 393.15,133.05 394.67,131.51 396.18,129.98 397.70,128.44 399.22,126.90 400.73,125.35 402.25,123.79 403.77,122.21 405.28,120.62 406.80,119.01 408.32,117.38 409.83,115.74 411.35,114.09 412.87,112.43 414.38,110.76 415.90,109.09 417.42,107.42 418.93,105.76 420.45,104.12 421.97,102.52 423.48,100.89 425.00,99.26 426.52,97.79 428.03,96.32 429.55,94.85 431.07,93.54 432.58,92.07 434.10,90.93 435.62,89.62 437.13,88.48 438.65,87.50 440.17,86.36 441.68,85.38 443.20,84.56 444.72,83.74 446.23,82.93 447.75,82.11 449.27,81.46 450.78,80.80 452.30,80.15 453.82,79.50 455.33,79.01 456.85,78.52 458.37,78.03 459.88,77.54 461.40,77.05 462.92,76.72 464.43,76.23 465.95,75.90 467.47,75.58 468.98,75.25 470.50,75.09 472.01,74.76 473.53,74.43 475.05,74.27 476.56,74.11 478.08,73.94 479.60,73.62 481.11,73.45 482.63,73.29 484.15,73.13 485.66,72.96 487.18,72.96 488.70,72.80 490.21,72.64 491.73,72.47 493.25,72.47 494.76,72.31 496.28,72.31 497.80,72.15 499.31,72.15 500.83,71.99 502.35,71.99 503.86,71.82 506.90,71.66 508.41,71.66 511.45,71.66 512.96,71.50 514.48,71.50 517.51,71.50 519.03,71.33 522.06,71.33 523.58,71.33 525.10,71.33 528.13,71.17 531.16,71.17 534.20,71.17 537.23,71.17 540.26,71.01 544.81,71.01 547.85,71.01 553.91,71.01 561.49,71.01 567.56,70.84 576.66,70.84 587.28,70.84 600.93,70.84 619.13,70.84 646.42,70.84 699.51,70.84 758.65,70.84"/>
<line x1="78" y1="70.84" x2="772" y2="70.84" stroke="#2ca02c" opacity="0.18" stroke-dasharray="3 4"/>
<polyline fill="none" stroke="#2ca02c" stroke-width="2.0" points="91.35,70.84 183.86,70.84 209.64,70.84 223.29,70.84 235.42,70.84 247.56,70.84 252.11,70.84 255.14,70.84 258.17,70.84 261.21,70.84 262.72,70.84 264.24,70.84 265.76,70.84 267.27,70.84 268.79,70.84 270.31,70.84 271.82,70.84 273.34,70.84 274.86,70.84 277.89,70.84 282.44,70.84 285.47,70.84 286.99,70.84 288.51,70.84 290.02,70.84 291.54,70.84 293.06,70.84 294.57,70.84 296.09,70.84 297.60,70.84 299.12,70.84 300.64,70.84 302.15,70.84 303.67,70.84 305.19,70.84 306.70,70.84 308.22,70.84 309.74,70.68 311.25,70.68 312.77,70.68 314.29,70.52 315.80,70.52 317.32,70.35 318.84,70.35 320.35,70.19 321.87,70.19 323.39,70.03 324.90,70.03 326.42,70.03 327.94,69.86 329.45,69.86 330.97,70.03 332.49,70.03 334.00,70.19 335.52,70.52 337.04,70.68 338.55,71.01 340.07,71.50 341.59,71.99 343.10,72.64 344.62,73.29 346.14,74.11 347.65,75.09 349.17,76.07 350.69,77.21 352.20,78.35 353.72,79.66 355.24,80.97 356.75,82.27 358.27,83.58 359.79,85.05 361.30,86.52 362.82,87.99 364.34,89.62 365.85,91.09 367.37,92.89 368.89,94.52 370.40,96.32 371.92,98.11 373.44,100.07 374.95,101.87 376.47,103.87 377.99,105.86 379.50,107.89 381.02,109.93 382.53,112.00 384.05,114.08 385.57,116.17 387.08,118.26 388.60,120.34 390.12,122.42 391.63,124.47 393.15,126.50 394.67,128.49 396.18,130.44 397.70,132.34 399.22,134.18 400.73,135.96 402.25,137.67 403.77,139.31 405.28,140.89 406.80,142.40 408.32,143.84 409.83,145.22 411.35,146.55 412.87,147.85 414.38,149.10 415.90,150.32 417.42,151.54 418.93,152.75 420.45,153.98 421.97,155.24 423.48,156.54 425.00,157.87 426.52,159.26 428.03,160.69 429.55,162.17 431.07,163.69 432.58,165.26 434.10,166.85 435.62,168.46 437.13,170.09 438.65,171.72 440.17,173.34 441.68,174.93 443.20,176.49 444.72,178.00 446.23,179.46 447.75,180.86 449.27,182.19 450.78,183.44 452.30,184.63 453.82,185.74 455.33,186.79 456.85,187.76 458.37,188.68 459.88,189.53 461.40,190.33 462.92,191.06 464.43,191.76 465.95,192.40 467.47,193.00 468.98,193.55 470.50,194.06 472.01,194.54 473.53,194.99 475.05,195.39 476.56,195.75 478.08,196.10 479.60,196.44 481.11,196.73 482.63,197.00 484.15,197.27 485.66,197.50 487.18,197.72 488.70,197.92 490.21,198.11 491.73,198.29 493.25,198.44 494.76,198.60 496.28,198.72 497.80,198.84 499.31,198.96 500.83,199.08 502.35,199.18 503.86,199.27 505.38,199.35 506.90,199.43 508.41,199.51 509.93,199.57 511.45,199.64 512.96,199.69 514.48,199.75 516.00,199.79 517.51,199.84 519.03,199.88 522.06,199.95 523.58,199.98 525.10,200.02 528.13,200.07 531.16,200.12 532.68,200.14 535.71,200.17 537.23,200.19 540.26,200.22 544.81,200.25 547.85,200.27 553.91,200.30 559.98,200.32 566.04,200.34 575.14,200.35 585.76,200.37 600.93,200.37 623.68,200.38 670.69,200.38 758.65,200.38"/>
<line x1="78" y1="266.81" x2="772" y2="266.81" stroke="#9467bd" opacity="0.18" stroke-dasharray="3 4"/>
<polyline fill="none" stroke="#9467bd" stroke-width="2.0" points="91.35,155.16 176.28,155.16 194.48,155.16 206.61,155.16 218.74,155.16 229.36,155.16 235.42,155.16 239.97,155.16 243.01,155.16 246.04,155.16 249.07,155.16 250.59,155.16 252.11,155.16 253.62,155.16 255.14,155.16 256.66,155.16 258.17,155.16 259.69,155.16 261.21,155.16 262.72,155.16 264.24,155.16 265.76,155.17 268.79,155.17 273.34,155.17 274.86,155.18 276.37,155.18 277.89,155.18 279.41,155.19 280.92,155.19 282.44,155.19 283.96,155.19 285.47,155.19 286.99,155.19 288.51,155.20 290.02,155.19 291.54,155.19 293.06,155.19 294.57,155.18 296.09,155.17 297.60,155.16 299.12,155.15 300.64,155.13 302.15,155.11 303.67,155.08 305.19,155.05 306.70,155.01 308.22,154.97 309.74,154.92 311.25,154.88 312.77,154.83 314.29,154.77 315.80,154.72 317.32,154.68 318.84,154.64 320.35,154.60 321.87,154.58 323.39,154.58 324.90,154.60 326.42,154.65 327.94,154.73 329.45,154.85 330.97,155.03 332.49,155.27 334.00,155.58 335.52,155.98 337.04,156.46 338.55,157.07 340.07,157.78 341.59,158.62 343.10,159.58 344.62,160.67 346.14,161.89 347.65,163.22 349.17,164.67 350.69,166.21 352.20,167.85 353.72,169.56 355.24,171.34 356.75,173.17 358.27,175.03 359.79,176.91 361.30,178.80 362.82,180.69 364.34,182.58 365.85,184.46 367.37,186.35 368.89,188.23 370.40,190.13 371.92,192.05 373.44,193.98 374.95,195.94 376.47,197.92 377.99,199.91 379.50,201.92 381.02,203.94 382.53,205.94 384.05,207.93 385.57,209.89 387.08,211.81 388.60,213.67 390.12,215.46 391.63,217.19 393.15,218.85 394.67,220.43 396.18,221.93 397.70,223.37 399.22,224.73 400.73,226.02 402.25,227.24 403.77,228.41 405.28,229.52 406.80,230.57 408.32,231.58 409.83,232.56 411.35,233.52 412.87,234.45 414.38,235.37 415.90,236.29 417.42,237.21 418.93,238.16 420.45,239.13 421.97,240.12 423.48,241.16 425.00,242.23 426.52,243.33 428.03,244.45 429.55,245.58 431.07,246.71 432.58,247.82 434.10,248.92 435.62,250.00 437.13,251.05 438.65,252.09 440.17,253.08 441.68,254.04 443.20,254.97 444.72,255.85 446.23,256.69 447.75,257.49 449.27,258.23 450.78,258.93 452.30,259.57 453.82,260.16 455.33,260.71 456.85,261.21 458.37,261.68 459.88,262.11 461.40,262.50 462.92,262.85 464.43,263.18 465.95,263.48 467.47,263.76 468.98,264.01 470.50,264.24 472.01,264.46 473.53,264.66 475.05,264.83 476.56,264.99 478.08,265.13 479.60,265.28 481.11,265.40 482.63,265.52 484.15,265.63 485.66,265.72 487.18,265.81 488.70,265.89 490.21,265.97 491.73,266.04 493.25,266.10 494.76,266.16 496.28,266.21 497.80,266.26 499.31,266.30 500.83,266.35 502.35,266.38 503.86,266.42 505.38,266.45 506.90,266.48 508.41,266.51 511.45,266.55 512.96,266.57 514.48,266.59 517.51,266.63 519.03,266.64 522.06,266.67 523.58,266.68 525.10,266.69 528.13,266.71 531.16,266.72 534.20,266.74 537.23,266.75 541.78,266.76 547.85,266.77 555.43,266.78 564.53,266.79 576.66,266.80 593.34,266.80 622.16,266.80 726.81,266.80 758.65,266.80"/>
<line x1="88" y1="72" x2="110" y2="72" stroke="#1f77b4" stroke-width="2.4"/>
<text x="116" y="76" font-family="Arial, sans-serif" font-size="12">rising #1</text>
<line x1="88" y1="90" x2="110" y2="90" stroke="#d62728" stroke-width="2.4"/>
<text x="116" y="94" font-family="Arial, sans-serif" font-size="12">rising #2</text>
<line x1="88" y1="108" x2="110" y2="108" stroke="#2ca02c" stroke-width="2.4"/>
<text x="116" y="112" font-family="Arial, sans-serif" font-size="12">falling #3</text>
<line x1="88" y1="126" x2="110" y2="126" stroke="#9467bd" stroke-width="2.4"/>
<text x="116" y="130" font-family="Arial, sans-serif" font-size="12">falling #4</text>
<text x="425.00" y="322.00" text-anchor="middle" font-family="Arial, sans-serif" font-size="12">Time (s)</text>
<text x="420" y="42" font-family="Arial, sans-serif" font-size="11" fill="#555">solid=V-T voltage, faint horizontal=V_fixture</text>
</svg>