<svg xmlns="http://www.w3.org/2000/svg" width="800" height="450" viewBox="0 0 800 450">
<rect width="100%" height="100%" fill="#ffffff"/>
<text x="78" y="25" font-family="Arial, sans-serif" font-size="16" font-weight="700">ALERT V-T Waveforms</text>
<rect x="78" y="54" width="694" height="230" fill="#fbfbfb" stroke="#c8c8c8"/>
<text transform="translate(18 169.00) rotate(-90)" text-anchor="middle" font-family="Arial, sans-serif" font-size="12">Voltage (V)</text>
<line x1="78.00" y1="54" x2="78.00" y2="284" stroke="#ececec"/>
<text x="78.00" y="302" text-anchor="middle" font-family="Arial, sans-serif" font-size="10">-6p</text>
<line x1="216.80" y1="54" x2="216.80" y2="284" stroke="#ececec"/>
<text x="216.80" y="302" text-anchor="middle" font-family="Arial, sans-serif" font-size="10">56.4p</text>
<line x1="355.60" y1="54" x2="355.60" y2="284" stroke="#ececec"/>
<text x="355.60" y="302" text-anchor="middle" font-family="Arial, sans-serif" font-size="10">119p</text>
<line x1="494.40" y1="54" x2="494.40" y2="284" stroke="#ececec"/>
<text x="494.40" y="302" text-anchor="middle" font-family="Arial, sans-serif" font-size="10">181p</text>
<line x1="633.20" y1="54" x2="633.20" y2="284" stroke="#ececec"/>
<text x="633.20" y="302" text-anchor="middle" font-family="Arial, sans-serif" font-size="10">244p</text>
<line x1="772.00" y1="54" x2="772.00" y2="284" stroke="#ececec"/>
<text x="772.00" y="302" text-anchor="middle" font-family="Arial, sans-serif" font-size="10">306p</text>
<line x1="78" y1="284.00" x2="772" y2="284.00" stroke="#ececec"/>
<text x="70" y="288.00" text-anchor="end" font-family="Arial, sans-serif" font-size="10">0.343</text>
<line x1="78" y1="226.50" x2="772" y2="226.50" stroke="#ececec"/>
<text x="70" y="230.50" text-anchor="end" font-family="Arial, sans-serif" font-size="10">0.576</text>
<line x1="78" y1="169.00" x2="772" y2="169.00" stroke="#ececec"/>
<text x="70" y="173.00" text-anchor="end" font-family="Arial, sans-serif" font-size="10">0.81</text>
<line x1="78" y1="111.50" x2="772" y2="111.50" stroke="#ececec"/>
<text x="70" y="115.50" text-anchor="end" font-family="Arial, sans-serif" font-size="10">1</text>
<line x1="78" y1="54.00" x2="772" y2="54.00" stroke="#ececec"/>
<text x="70" y="58.00" text-anchor="end" font-family="Arial, sans-serif" font-size="10">1.3</text>
<line x1="78" y1="72.82" x2="772" y2="72.82" stroke="#1f77b4" opacity="0.18" stroke-dasharray="3 4"/>
<polyline fill="none" stroke="#1f77b4" stroke-width="2.0" points="91.35,72.82 95.79,72.82 100.24,72.82 104.69,72.82 109.14,72.82 113.59,72.82 118.04,72.82 122.49,72.82 126.94,72.57 131.38,72.33 135.83,72.08 140.28,71.83 144.73,71.34 149.18,71.09 153.63,70.85 158.08,70.35 162.53,70.11 166.97,69.86 171.42,69.86 175.87,70.35 180.32,71.09 184.77,72.33 189.22,74.30 193.67,77.01 198.12,80.70 202.56,85.39 207.01,90.81 211.46,96.97 215.91,104.11 220.36,111.50 224.81,119.39 229.26,127.80 233.71,136.38 238.15,145.14 242.60,153.95 247.05,162.76 251.50,171.47 255.95,180.01 260.40,188.34 264.85,196.40 269.29,204.08 273.74,211.34 278.19,218.10 282.64,224.34 287.09,229.96 291.54,235.03 295.99,239.48 300.44,243.40 304.88,246.77 309.33,249.71 313.78,252.20 318.23,254.35 322.68,256.24 327.13,257.82 331.58,259.17 336.03,260.29 340.47,261.30 344.92,262.17 349.37,262.89 353.82,263.51 358.27,264.04 362.72,264.49 367.17,264.88 371.62,265.23 376.06,265.53 380.51,265.79 384.96,266.02 389.41,266.21 393.86,266.37 398.31,266.51 402.76,266.64 407.21,266.76 411.65,266.85 416.10,266.94 420.55,267.02 425.00,267.09 429.45,267.15 433.90,267.20 438.35,267.25 442.79,267.30 447.24,267.33 451.69,267.37 456.14,267.40 460.59,267.42 465.04,267.45 469.49,267.47 473.94,267.49 478.38,267.51 482.83,267.53 487.28,267.54 491.73,267.55 496.18,267.57 500.63,267.58 505.08,267.59 509.53,267.60 513.97,267.60 518.42,267.61 522.87,267.62 527.32,267.63 531.77,267.63 536.22,267.64 540.67,267.64 545.12,267.65 549.56,267.65 554.01,267.65 558.46,267.66 562.91,267.66 567.36,267.66 571.81,267.67 576.26,267.67 580.71,267.67 585.15,267.67 589.60,267.67 594.05,267.67 598.50,267.68 602.95,267.68 607.40,267.68 611.85,267.68 616.29,267.68 620.74,267.68 625.19,267.68 629.64,267.68 634.09,267.68 638.54,267.69 642.99,267.69 647.44,267.69 651.88,267.69 656.33,267.69 660.78,267.69 665.23,267.69 669.68,267.69 674.13,267.69 678.58,267.69 683.03,267.69 687.47,267.69 691.92,267.69 696.37,267.69 700.82,267.69 705.27,267.69 709.72,267.69 714.17,267.69 718.62,267.69 723.06,267.69 727.51,267.69 731.96,267.69 736.41,267.69 740.86,267.69 745.31,267.69 749.76,267.69 754.21,267.69 758.65,267.69"/>
<line x1="78" y1="72.82" x2="772" y2="72.82" stroke="#d62728" opacity="0.18" stroke-dasharray="3 4"/>
<polyline fill="none" stroke="#d62728" stroke-width="2.0" points="91.35,267.72 95.79,267.73 100.24,267.74 104.69,267.77 109.14,267.79 113.59,267.83 118.04,267.87 122.49,267.92 126.94,267.97 131.38,268.02 135.83,268.07 140.28,268.11 144.73,268.14 149.18,268.14 153.63,268.09 158.08,267.99 162.53,267.80 166.97,267.51 171.42,267.07 175.87,266.44 180.32,265.57 184.77,264.42 189.22,262.94 193.67,261.07 198.12,258.79 202.56,256.09 207.01,252.95 211.46,249.32 215.91,245.21 220.36,240.61 224.81,235.54 229.26,230.06 233.71,224.22 238.15,218.07 242.60,211.73 247.05,205.28 251.50,198.78 255.95,192.36 260.40,186.05 264.85,179.93 269.29,174.07 273.74,168.48 278.19,163.17 282.64,158.11 287.09,153.32 291.54,148.77 295.99,144.47 300.44,140.38 304.88,136.53 309.33,132.88 313.78,129.44 318.23,126.18 322.68,123.08 327.13,120.13 331.58,117.42 336.03,114.95 340.47,112.49 344.92,110.03 349.37,107.81 353.82,105.84 358.27,103.87 362.72,102.14 367.17,100.42 371.62,98.69 376.06,97.21 380.51,95.73 384.96,94.50 389.41,93.27 393.86,92.04 398.31,90.81 402.76,89.82 407.21,88.84 411.65,87.85 416.10,87.11 420.55,86.12 425.00,85.39 429.45,84.65 433.90,83.91 438.35,83.41 442.79,82.68 447.24,82.18 451.69,81.69 456.14,81.20 460.59,80.70 465.04,80.21 469.49,79.72 473.94,79.47 478.38,78.98 482.83,78.73 487.28,78.24 491.73,77.99 496.18,77.75 500.63,77.50 505.08,77.25 509.53,77.01 513.97,76.76 518.42,76.51 522.87,76.27 527.32,76.02 531.77,75.78 536.22,75.78 540.67,75.53 545.12,75.28 549.56,75.28 554.01,75.04 558.46,75.04 562.91,74.79 567.36,74.79 571.81,74.79 576.26,74.54 580.71,74.54 585.15,74.30 589.60,74.30 594.05,74.30 598.50,74.05 602.95,74.05 607.40,74.05 611.85,74.05 616.29,73.80 620.74,73.80 625.19,73.80 629.64,73.80 634.09,73.80 638.54,73.56 642.99,73.56 647.44,73.56 651.88,73.56 656.33,73.56 660.78,73.56 665.23,73.31 669.68,73.31 674.13,73.31 678.58,73.31 683.03,73.31 687.47,73.31 691.92,73.31 696.37,73.31 700.82,73.31 705.27,73.31 709.72,73.07 714.17,73.07 718.62,73.07 723.06,73.07 727.51,73.07 731.96,73.07 736.41,73.07 740.86,73.07 745.31,73.07 749.76,73.07 754.21,73.07 758.65,73.07"/>
<line x1="88" y1="72" x2="110" y2="72" stroke="#1f77b4" stroke-width="2.4"/>
<text x="116" y="76" font-family="Arial, sans-serif" font-size="12">falling #1</text>
<line x1="88" y1="90" x2="110" y2="90" stroke="#d62728" stroke-width="2.4"/>
<text x="116" y="94" font-family="Arial, sans-serif" font-size="12">rising #2</text>
<text x="425.00" y="322.00" text-anchor="middle" font-family="Arial, sans-serif" font-size="12">Time (s)</text>
<text x="420" y="42" font-family="Arial, sans-serif" font-size="11" fill="#555">solid=V-T voltage, faint horizontal=V_fixture</text>
</svg>