<svg xmlns="http://www.w3.org/2000/svg" width="800" height="450" viewBox="0 0 800 450">
<rect width="100%" height="100%" fill="#ffffff"/>
<text x="78" y="25" font-family="Arial, sans-serif" font-size="16" font-weight="700">DQS_48_3200 V-T Waveforms</text>
<rect x="78" y="54" width="694" height="230" fill="#fbfbfb" stroke="#c8c8c8"/>
<text transform="translate(18 169.00) rotate(-90)" text-anchor="middle" font-family="Arial, sans-serif" font-size="12">Voltage (V)</text>
<line x1="78.00" y1="54" x2="78.00" y2="284" stroke="#ececec"/>
<text x="78.00" y="302" text-anchor="middle" font-family="Arial, sans-serif" font-size="10">-8.8p</text>
<line x1="216.80" y1="54" x2="216.80" y2="284" stroke="#ececec"/>
<text x="216.80" y="302" text-anchor="middle" font-family="Arial, sans-serif" font-size="10">82.7p</text>
<line x1="355.60" y1="54" x2="355.60" y2="284" stroke="#ececec"/>
<text x="355.60" y="302" text-anchor="middle" font-family="Arial, sans-serif" font-size="10">174p</text>
<line x1="494.40" y1="54" x2="494.40" y2="284" stroke="#ececec"/>
<text x="494.40" y="302" text-anchor="middle" font-family="Arial, sans-serif" font-size="10">266p</text>
<line x1="633.20" y1="54" x2="633.20" y2="284" stroke="#ececec"/>
<text x="633.20" y="302" text-anchor="middle" font-family="Arial, sans-serif" font-size="10">357p</text>
<line x1="772.00" y1="54" x2="772.00" y2="284" stroke="#ececec"/>
<text x="772.00" y="302" text-anchor="middle" font-family="Arial, sans-serif" font-size="10">449p</text>
<line x1="78" y1="284.00" x2="772" y2="284.00" stroke="#ececec"/>
<text x="70" y="288.00" text-anchor="end" font-family="Arial, sans-serif" font-size="10">-0.0995</text>
<line x1="78" y1="226.50" x2="772" y2="226.50" stroke="#ececec"/>
<text x="70" y="230.50" text-anchor="end" font-family="Arial, sans-serif" font-size="10">0.25</text>
<line x1="78" y1="169.00" x2="772" y2="169.00" stroke="#ececec"/>
<text x="70" y="173.00" text-anchor="end" font-family="Arial, sans-serif" font-size="10">0.599</text>
<line x1="78" y1="111.50" x2="772" y2="111.50" stroke="#ececec"/>
<text x="70" y="115.50" text-anchor="end" font-family="Arial, sans-serif" font-size="10">0.949</text>
<line x1="78" y1="54.00" x2="772" y2="54.00" stroke="#ececec"/>
<text x="70" y="58.00" text-anchor="end" font-family="Arial, sans-serif" font-size="10">1.3</text>
<line x1="78" y1="267.63" x2="772" y2="267.63" stroke="#1f77b4" opacity="0.18" stroke-dasharray="3 4"/>
<polyline fill="none" stroke="#1f77b4" stroke-width="2.0" points="91.35,267.63 203.58,267.63 235.42,267.63 244.52,267.63 252.11,267.63 261.21,267.63 276.37,267.61 283.96,267.62 288.51,267.64 293.06,267.68 296.09,267.71 299.12,267.74 300.64,267.76 302.15,267.79 303.67,267.81 305.19,267.83 306.70,267.86 309.74,267.91 311.25,267.93 312.77,267.96 314.29,267.99 315.80,268.02 317.32,268.04 318.84,268.07 321.87,268.11 324.90,268.14 326.42,268.14 327.94,268.13 329.45,268.11 330.97,268.07 332.49,268.02 334.00,267.95 335.52,267.87 337.04,267.77 338.55,267.65 340.07,267.52 341.59,267.38 343.10,267.22 344.62,267.04 346.14,266.85 347.65,266.64 349.17,266.43 350.69,266.19 352.20,265.95 353.72,265.70 355.24,265.45 356.75,265.18 358.27,264.90 359.79,264.61 361.30,264.32 362.82,264.00 364.34,263.67 365.85,263.32 367.37,262.94 368.89,262.54 370.40,262.10 371.92,261.63 373.44,261.12 374.95,260.58 376.47,260.00 377.99,259.39 379.50,258.74 381.02,258.07 382.53,257.36 384.05,256.63 385.57,255.87 387.08,255.10 388.60,254.30 390.12,253.49 391.63,252.66 393.15,251.83 394.67,250.98 396.18,250.12 397.70,249.25 399.22,248.38 400.73,247.51 402.25,246.63 403.77,245.75 405.28,244.86 406.80,243.97 408.32,243.06 409.83,242.15 411.35,241.22 412.87,240.28 414.38,239.30 415.90,238.29 417.42,237.25 418.93,236.18 420.45,235.07 421.97,233.92 423.48,232.75 425.00,231.55 426.52,230.33 428.03,229.09 429.55,227.82 431.07,226.55 432.58,225.25 434.10,223.95 435.62,222.64 438.65,219.99 441.68,217.34 443.20,216.01 444.72,214.69 446.23,213.38 447.75,212.07 449.27,210.78 450.78,209.51 452.30,208.25 453.82,207.01 455.33,205.79 456.85,204.60 458.37,203.43 459.88,202.29 461.40,201.18 462.92,200.10 464.43,199.06 465.95,198.02 467.47,197.03 468.98,196.07 470.50,195.13 472.01,194.24 473.53,193.37 475.05,192.52 476.56,191.72 478.08,190.95 479.60,190.22 481.11,189.48 482.63,188.78 484.15,188.12 485.66,187.47 487.18,186.86 488.70,186.26 490.21,185.70 491.73,185.15 493.25,184.63 494.76,184.13 496.28,183.65 497.80,183.20 499.31,182.78 500.83,182.36 502.35,181.94 503.86,181.55 505.38,181.19 506.90,180.82 508.41,180.50 509.93,180.17 511.45,179.86 512.96,179.57 514.48,179.29 516.00,179.02 517.51,178.76 519.03,178.52 520.55,178.27 522.06,178.07 523.58,177.86 525.10,177.65 526.61,177.45 528.13,177.26 529.65,177.08 531.16,176.91 532.68,176.74 534.20,176.59 537.23,176.30 538.75,176.17 541.78,175.91 543.30,175.80 546.33,175.57 549.36,175.38 550.88,175.28 552.40,175.20 555.43,175.05 558.46,174.89 559.98,174.81 563.01,174.69 567.56,174.51 570.59,174.41 575.14,174.27 579.69,174.16 582.73,174.08 587.28,173.99 591.83,173.91 597.89,173.82 603.96,173.75 610.03,173.68 614.58,173.64 622.16,173.59 631.26,173.54 641.88,173.49 654.01,173.46 667.66,173.43 685.86,173.41 710.12,173.39 746.52,173.38 758.65,173.38"/>
<line x1="78" y1="70.19" x2="772" y2="70.19" stroke="#d62728" opacity="0.18" stroke-dasharray="3 4"/>
<polyline fill="none" stroke="#d62728" stroke-width="2.0" points="91.35,184.40 214.19,184.40 227.84,184.40 246.04,184.40 250.59,184.39 255.14,184.39 258.17,184.39 261.21,184.39 262.72,184.39 264.24,184.39 265.76,184.39 267.27,184.40 268.79,184.40 270.31,184.40 271.82,184.40 273.34,184.40 274.86,184.40 276.37,184.41 277.89,184.41 279.41,184.42 280.92,184.42 282.44,184.42 283.96,184.43 285.47,184.43 286.99,184.44 288.51,184.44 290.02,184.44 291.54,184.44 293.06,184.43 294.57,184.43 296.09,184.41 297.60,184.39 299.12,184.37 300.64,184.33 302.15,184.29 303.67,184.23 305.19,184.17 306.70,184.09 308.22,183.99 309.74,183.88 311.25,183.75 312.77,183.61 314.29,183.44 315.80,183.26 317.32,183.06 318.84,182.85 320.35,182.61 321.87,182.35 323.39,182.08 324.90,181.78 326.42,181.47 327.94,181.14 329.45,180.78 330.97,180.41 332.49,180.02 334.00,179.60 335.52,179.17 337.04,178.71 338.55,178.23 340.07,177.73 341.59,177.20 343.10,176.65 344.62,176.06 346.14,175.45 347.65,174.80 349.17,174.11 350.69,173.38 352.20,172.61 353.72,171.79 355.24,170.92 356.75,170.00 358.27,169.02 359.79,168.01 361.30,166.95 362.82,165.84 364.34,164.71 365.85,163.55 367.37,162.36 368.89,161.16 370.40,159.95 371.92,158.73 373.44,157.50 374.95,156.27 376.47,155.04 377.99,153.82 379.50,152.59 381.02,151.37 382.53,150.14 384.05,148.91 385.57,147.68 387.08,146.44 388.60,145.19 390.12,143.93 391.63,142.65 393.15,141.37 394.67,140.06 396.18,138.75 397.70,137.40 399.22,136.04 400.73,134.64 402.25,133.22 403.77,131.76 405.28,130.27 406.80,128.74 408.32,127.18 409.83,125.58 411.35,123.95 412.87,122.30 414.38,120.62 415.90,118.92 417.42,117.21 418.93,115.49 420.45,113.76 421.97,112.04 423.48,110.33 425.00,108.63 426.52,106.96 428.03,105.31 429.55,103.70 431.07,102.11 432.58,100.63 434.10,99.15 435.62,97.67 437.13,96.35 438.65,95.04 440.17,93.72 441.68,92.57 443.20,91.42 444.72,90.26 446.23,89.28 447.75,88.29 449.27,87.30 450.78,86.32 452.30,85.49 453.82,84.67 455.33,83.85 456.85,83.19 458.37,82.53 459.88,81.87 461.40,81.22 462.92,80.56 464.43,80.06 465.95,79.57 467.47,79.08 468.98,78.58 470.50,78.09 472.01,77.60 473.53,77.27 475.05,76.94 476.56,76.44 478.08,76.11 479.60,75.79 481.11,75.62 482.63,75.29 484.15,74.96 485.66,74.63 487.18,74.47 488.70,74.30 490.21,73.98 491.73,73.81 493.25,73.65 494.76,73.48 496.28,73.32 497.80,73.15 500.83,72.82 502.35,72.66 503.86,72.49 505.38,72.49 506.90,72.33 509.93,72.00 512.96,71.84 516.00,71.67 517.51,71.67 520.55,71.51 523.58,71.34 526.61,71.18 529.65,71.18 532.68,71.01 535.71,71.01 538.75,70.85 541.78,70.85 547.85,70.68 550.88,70.68 556.94,70.52 559.98,70.52 567.56,70.52 576.66,70.36 585.76,70.36 597.89,70.36 613.06,70.19 632.78,70.19 660.07,70.19 705.57,70.19 758.65,70.19"/>
<line x1="78" y1="70.19" x2="772" y2="70.19" stroke="#2ca02c" opacity="0.18" stroke-dasharray="3 4"/>
<polyline fill="none" stroke="#2ca02c" stroke-width="2.0" points="91.35,70.19 217.22,70.19 247.56,70.19 253.62,70.19 258.17,70.19 262.72,70.19 267.27,70.19 273.34,70.19 282.44,70.19 285.47,70.19 288.51,70.19 290.02,70.19 291.54,70.19 293.06,70.19 294.57,70.19 296.09,70.19 297.60,70.19 299.12,70.19 302.15,70.19 303.67,70.19 305.19,70.19 306.70,70.19 308.22,70.03 309.74,70.03 311.25,70.03 312.77,70.03 314.29,70.03 315.80,70.03 317.32,69.86 318.84,69.86 320.35,69.86 321.87,69.86 323.39,69.86 324.90,69.86 326.42,69.86 327.94,69.86 329.45,70.03 330.97,70.03 332.49,70.19 334.00,70.36 335.52,70.52 337.04,70.68 338.55,70.85 340.07,71.18 341.59,71.34 343.10,71.67 344.62,72.00 346.14,72.49 347.65,72.82 349.17,73.15 350.69,73.65 352.20,74.14 353.72,74.47 355.24,74.96 356.75,75.46 358.27,75.95 359.79,76.44 361.30,76.94 362.82,77.43 364.34,77.92 365.85,78.58 367.37,79.24 368.89,80.06 370.40,80.72 371.92,81.71 373.44,82.53 374.95,83.52 376.47,84.67 377.99,85.82 379.50,86.97 381.02,88.13 382.53,89.44 384.05,90.76 385.57,92.07 387.08,93.39 388.60,94.87 390.12,96.35 391.63,97.67 393.15,99.15 394.67,100.63 396.18,102.11 397.70,103.50 399.22,104.90 400.73,106.29 402.25,107.65 403.77,108.98 405.28,110.27 406.80,111.54 408.32,112.77 409.83,113.97 411.35,115.15 412.87,116.31 414.38,117.45 415.90,118.59 417.42,119.73 418.93,120.90 420.45,122.10 421.97,123.34 423.48,124.63 425.00,125.97 426.52,127.37 428.03,128.83 429.55,130.35 431.07,131.92 432.58,133.55 434.10,135.23 435.62,136.95 437.13,138.70 438.65,140.48 440.17,142.27 441.68,144.07 443.20,145.86 444.72,147.63 446.23,149.38 447.75,151.08 449.27,152.75 450.78,154.36 452.30,155.91 453.82,157.41 455.33,158.85 456.85,160.23 458.37,161.55 459.88,162.81 461.40,164.01 462.92,165.15 464.43,166.21 465.95,167.28 467.47,168.24 468.98,169.18 470.50,170.07 472.01,170.90 473.53,171.69 475.05,172.45 476.56,173.15 478.08,173.81 479.60,174.42 481.11,175.03 482.63,175.59 484.15,176.11 485.66,176.63 487.18,177.09 488.70,177.55 490.21,177.95 491.73,178.35 493.25,178.71 494.76,179.07 496.28,179.39 497.80,179.70 499.31,179.97 500.83,180.23 502.35,180.50 503.86,180.75 505.38,180.97 506.90,181.19 508.41,181.38 509.93,181.57 511.45,181.74 512.96,181.91 514.48,182.07 516.00,182.21 517.51,182.35 519.03,182.47 520.55,182.60 522.06,182.70 523.58,182.80 525.10,182.90 526.61,183.00 528.13,183.09 529.65,183.16 531.16,183.24 532.68,183.32 534.20,183.38 537.23,183.51 538.75,183.56 541.78,183.67 543.30,183.71 546.33,183.80 549.36,183.87 550.88,183.90 553.91,183.96 558.46,184.04 559.98,184.06 563.01,184.10 567.56,184.15 572.11,184.19 576.66,184.23 584.24,184.28 591.83,184.31 599.41,184.33 610.03,184.36 623.68,184.37 643.39,184.39 673.72,184.39 746.52,184.40 758.65,184.40"/>
<line x1="78" y1="267.63" x2="772" y2="267.63" stroke="#9467bd" opacity="0.18" stroke-dasharray="3 4"/>
<polyline fill="none" stroke="#9467bd" stroke-width="2.0" points="91.35,173.38 197.51,173.38 227.84,173.38 236.94,173.38 244.52,173.38 249.07,173.38 253.62,173.38 258.17,173.38 267.27,173.38 270.31,173.38 271.82,173.39 273.34,173.39 274.86,173.39 276.37,173.39 277.89,173.39 279.41,173.39 280.92,173.39 282.44,173.39 283.96,173.39 285.47,173.39 286.99,173.39 288.51,173.38 290.02,173.38 291.54,173.38 293.06,173.37 294.57,173.37 296.09,173.36 297.60,173.35 299.12,173.34 300.64,173.32 302.15,173.31 303.67,173.29 305.19,173.28 306.70,173.26 308.22,173.24 309.74,173.22 311.25,173.21 312.77,173.19 314.29,173.19 315.80,173.18 317.32,173.18 318.84,173.19 320.35,173.21 321.87,173.24 323.39,173.28 324.90,173.34 326.42,173.43 327.94,173.54 329.45,173.68 330.97,173.85 332.49,174.07 334.00,174.32 335.52,174.62 337.04,174.95 338.55,175.34 340.07,175.76 341.59,176.22 343.10,176.72 344.62,177.25 346.14,177.80 347.65,178.38 349.17,178.99 350.69,179.61 352.20,180.24 353.72,180.89 355.24,181.54 356.75,182.20 358.27,182.86 359.79,183.53 361.30,184.21 362.82,184.90 364.34,185.62 365.85,186.38 367.37,187.18 368.89,188.04 370.40,188.96 371.92,189.96 373.44,191.05 374.95,192.20 376.47,193.44 377.99,194.74 379.50,196.12 381.02,197.54 382.53,199.02 384.05,200.53 385.57,202.05 387.08,203.58 388.60,205.09 390.12,206.59 391.63,208.06 393.15,209.50 394.67,210.89 396.18,212.25 397.70,213.56 399.22,214.82 400.73,216.04 402.25,217.21 403.77,218.34 405.28,219.44 406.80,220.50 408.32,221.54 409.83,222.55 411.35,223.56 412.87,224.56 414.38,225.55 415.90,226.56 417.42,227.59 418.93,228.65 420.45,229.75 421.97,230.90 423.48,232.09 425.00,233.34 426.52,234.63 428.03,235.96 429.55,237.31 431.07,238.68 432.58,240.05 434.10,241.42 435.62,242.76 437.13,244.09 438.65,245.38 440.17,246.65 441.68,247.87 443.20,249.07 444.72,250.21 446.23,251.31 447.75,252.35 449.27,253.34 450.78,254.27 452.30,255.15 453.82,255.98 455.33,256.76 456.85,257.48 458.37,258.16 459.88,258.80 461.40,259.39 462.92,259.95 464.43,260.45 465.95,260.95 467.47,261.39 468.98,261.82 470.50,262.22 472.01,262.58 473.53,262.92 475.05,263.25 476.56,263.54 478.08,263.81 479.60,264.06 481.11,264.31 482.63,264.54 484.15,264.75 485.66,264.95 487.18,265.13 488.70,265.30 490.21,265.46 491.73,265.61 493.25,265.75 494.76,265.88 496.28,265.99 497.80,266.11 499.31,266.20 500.83,266.30 502.35,266.39 503.86,266.48 505.38,266.56 506.90,266.63 508.41,266.70 509.93,266.76 511.45,266.82 512.96,266.88 514.48,266.93 516.00,266.98 517.51,267.02 519.03,267.06 520.55,267.10 522.06,267.14 523.58,267.17 526.61,267.23 528.13,267.26 529.65,267.28 532.68,267.33 535.71,267.37 538.75,267.40 541.78,267.44 546.33,267.47 550.88,267.50 556.94,267.53 559.98,267.55 567.56,267.57 576.66,267.59 588.79,267.61 605.48,267.62 629.74,267.63 679.79,267.63 758.65,267.63"/>
<line x1="88" y1="72" x2="110" y2="72" stroke="#1f77b4" stroke-width="2.4"/>
<text x="116" y="76" font-family="Arial, sans-serif" font-size="12">rising #1</text>
<line x1="88" y1="90" x2="110" y2="90" stroke="#d62728" stroke-width="2.4"/>
<text x="116" y="94" font-family="Arial, sans-serif" font-size="12">rising #2</text>
<line x1="88" y1="108" x2="110" y2="108" stroke="#2ca02c" stroke-width="2.4"/>
<text x="116" y="112" font-family="Arial, sans-serif" font-size="12">falling #3</text>
<line x1="88" y1="126" x2="110" y2="126" stroke="#9467bd" stroke-width="2.4"/>
<text x="116" y="130" font-family="Arial, sans-serif" font-size="12">falling #4</text>
<text x="425.00" y="322.00" text-anchor="middle" font-family="Arial, sans-serif" font-size="12">Time (s)</text>
<text x="420" y="42" font-family="Arial, sans-serif" font-size="11" fill="#555">solid=V-T voltage, faint horizontal=V_fixture</text>
</svg>