<svg xmlns="http://www.w3.org/2000/svg" width="900" height="620" viewBox="0 0 900 620">
<rect width="100%" height="100%" fill="#ffffff"/>
<text x="72" y="26" font-family="Arial, sans-serif" font-size="16" font-weight="700">ALERT Zout Load-Line Curves</text>
<text x="72" y="45" font-family="Arial, sans-serif" font-size="11" fill="#555">Rload=50 ohm; solid=device I-V, dashed=load line, circles=operating points</text>
<rect x="72.00" y="62.00" width="800.00" height="286.00" fill="#fbfbfb" stroke="#c8c8c8"/>
<text x="80.00" y="50.00" font-family="Arial, sans-serif" font-size="13" font-weight="700">[Pulldown] Rload to Vdd</text>
<line x1="72.00" y1="62.00" x2="72.00" y2="348.00" stroke="#ececec"/>
<text x="72.00" y="366.00" text-anchor="middle" font-family="Arial, sans-serif" font-size="10">-1.3</text>
<line x1="272.00" y1="62.00" x2="272.00" y2="348.00" stroke="#ececec"/>
<text x="272.00" y="366.00" text-anchor="middle" font-family="Arial, sans-serif" font-size="10">-0.372</text>
<line x1="472.00" y1="62.00" x2="472.00" y2="348.00" stroke="#ececec"/>
<text x="472.00" y="366.00" text-anchor="middle" font-family="Arial, sans-serif" font-size="10">0.6</text>
<line x1="672.00" y1="62.00" x2="672.00" y2="348.00" stroke="#ececec"/>
<text x="672.00" y="366.00" text-anchor="middle" font-family="Arial, sans-serif" font-size="10">1.6</text>
<line x1="872.00" y1="62.00" x2="872.00" y2="348.00" stroke="#ececec"/>
<text x="872.00" y="366.00" text-anchor="middle" font-family="Arial, sans-serif" font-size="10">2.5</text>
<line x1="72.00" y1="348.00" x2="872.00" y2="348.00" stroke="#ececec"/>
<text x="65.00" y="352.00" text-anchor="end" font-family="Arial, sans-serif" font-size="10">-35</text>
<line x1="72.00" y1="276.50" x2="872.00" y2="276.50" stroke="#ececec"/>
<text x="65.00" y="280.50" text-anchor="end" font-family="Arial, sans-serif" font-size="10">-9.5</text>
<line x1="72.00" y1="205.00" x2="872.00" y2="205.00" stroke="#ececec"/>
<text x="65.00" y="209.00" text-anchor="end" font-family="Arial, sans-serif" font-size="10">16</text>
<line x1="72.00" y1="133.50" x2="872.00" y2="133.50" stroke="#ececec"/>
<text x="65.00" y="137.50" text-anchor="end" font-family="Arial, sans-serif" font-size="10">42</text>
<line x1="72.00" y1="62.00" x2="872.00" y2="62.00" stroke="#ececec"/>
<text x="65.00" y="66.00" text-anchor="end" font-family="Arial, sans-serif" font-size="10">67</text>
<line x1="348.54" y1="62" x2="348.54" y2="348" stroke="#777" stroke-dasharray="4 4"/>
<line x1="72.0" y1="249.89" x2="872.0" y2="249.89" stroke="#777" stroke-dasharray="4 4"/>
<polyline fill="none" stroke="#1f77b4" stroke-width="1.8" points="101.63,312.87 112.95,312.71 125.29,312.49 138.67,312.22 147.93,311.99 158.21,311.67 167.47,311.32 176.73,310.89 187.02,310.29 196.28,309.62 202.45,309.10 207.60,308.58 210.68,308.25 215.83,307.64 218.91,307.22 220.97,306.92 224.06,306.48 229.20,305.59 231.26,305.23 238.46,303.71 239.49,303.44 244.63,302.14 246.69,301.54 247.72,301.22 248.75,300.90 251.84,299.95 254.92,298.83 256.98,298.07 258.01,297.69 260.07,296.92 263.15,295.57 267.27,293.78 271.38,291.80 272.41,291.30 274.47,290.30 278.58,288.18 281.67,286.56 288.87,282.69 303.28,274.80 336.20,256.67 348.54,249.89 362.95,242.04 375.29,235.39 386.61,229.36 395.87,224.50 413.36,215.45 417.47,213.35 421.59,211.29 429.82,207.18 438.05,203.06 444.22,200.12 455.54,194.74 460.68,192.31 466.86,189.56 469.94,188.18 476.12,185.44 479.20,184.08 485.37,181.53 490.52,179.41 495.66,177.29 498.75,176.06 504.92,173.70 509.04,172.13 514.18,170.18 524.47,166.50 528.58,165.04 535.79,162.61 542.99,160.19 546.07,159.21 555.33,156.27 560.48,154.72 570.77,151.65 576.94,149.93 581.05,148.79 586.20,147.38 593.40,145.51 599.57,143.92 608.83,141.69 615.00,140.23 619.12,139.31 626.32,137.69 633.52,136.16 638.67,135.09 644.84,133.84 657.19,131.43 671.59,128.77 678.79,127.50 689.08,125.73 700.40,123.85 713.77,121.70 724.06,120.09 735.37,118.37 750.81,116.09 767.27,113.72 785.79,111.13 807.39,108.19 831.05,105.06 842.37,103.58"/>
<polyline fill="none" stroke="#ff7f0e" stroke-width="1.8" stroke-dasharray="5 4" points="101.63,312.21 112.95,312.06 125.29,311.78 138.67,311.35 147.93,310.98 158.21,310.49 167.47,309.97 176.73,309.37 187.02,308.56 196.28,307.71 202.45,307.03 207.60,306.44 210.68,306.03 215.83,305.33 218.91,304.84 220.97,304.51 224.06,303.99 229.20,303.01 231.26,302.62 238.46,300.97 239.49,300.73 244.63,299.31 246.69,298.73 247.72,298.44 248.75,298.09 251.84,297.06 254.92,296.03 256.98,295.26 258.01,294.86 260.07,294.05 263.15,292.85 267.27,291.04 271.38,289.22 272.41,288.73 274.47,287.75 278.58,285.78 281.67,284.25 288.87,280.62 303.28,273.21 336.20,256.22 348.54,249.89 362.95,242.59 375.29,236.41 386.61,230.82 395.87,226.30 413.36,217.98 417.47,216.02 421.59,214.08 429.82,210.33 438.05,206.57 444.22,203.75 455.54,198.86 460.68,196.63 466.86,193.97 469.94,192.68 476.12,190.21 479.20,188.98 485.37,186.51 490.52,184.47 495.66,182.60 498.75,181.47 504.92,179.22 509.04,177.73 514.18,176.03 524.47,172.66 528.58,171.32 535.79,169.20 542.99,167.08 546.07,166.21 555.33,163.75 560.48,162.38 570.77,159.89 576.94,158.42 581.05,157.51 586.20,156.37 593.40,154.80 599.57,153.55 608.83,151.68 615.00,150.51 619.12,149.73 626.32,148.40 633.52,147.12 638.67,146.20 644.84,145.15 657.19,143.09 671.59,140.78 678.79,139.66 689.08,138.08 700.40,136.39 713.77,134.45 724.06,132.98 735.37,131.39 750.81,129.26 767.27,127.04 785.79,124.59 807.39,121.79 831.05,118.77 842.37,117.34"/>
<polyline fill="none" stroke="#2ca02c" stroke-width="1.8" stroke-dasharray="2 4" points="101.63,311.72 112.95,311.54 125.29,311.36 138.67,311.19 147.93,311.07 158.21,310.91 167.47,310.74 176.73,310.51 187.02,310.17 196.28,309.74 202.45,309.37 207.60,308.99 210.68,308.76 215.83,308.26 218.91,307.95 220.97,307.73 224.06,307.32 229.20,306.63 231.26,306.28 238.46,304.98 239.49,304.76 244.63,303.50 246.69,303.00 247.72,302.75 248.75,302.46 251.84,301.45 254.92,300.44 256.98,299.76 258.01,299.39 260.07,298.52 263.15,297.22 267.27,295.46 271.38,293.48 272.41,292.98 274.47,291.91 278.58,289.75 281.67,288.07 288.87,284.07 303.28,275.86 336.20,256.98 348.54,249.89 362.95,241.67 375.29,234.70 386.61,228.41 395.87,223.29 413.36,213.79 417.47,211.61 421.59,209.43 429.82,205.10 438.05,200.87 444.22,197.73 455.54,192.14 460.68,189.70 466.86,186.79 469.94,185.38 476.12,182.59 479.20,181.23 485.37,178.54 490.52,176.37 495.66,174.23 498.75,172.97 504.92,170.48 509.04,168.87 514.18,166.86 524.47,162.95 528.58,161.43 535.79,158.79 542.99,156.20 546.07,155.11 555.33,151.87 560.48,150.10 570.77,146.67 576.94,144.63 581.05,143.27 586.20,141.65 593.40,139.39 599.57,137.45 608.83,134.73 615.00,132.91 619.12,131.71 626.32,129.75 633.52,127.79 638.67,126.41 644.84,124.87 657.19,121.79 671.59,118.50 678.79,116.89 689.08,114.73 700.40,112.45 713.77,109.89 724.06,108.02 735.37,106.02 750.81,103.40 767.27,100.74 785.79,97.86 807.39,94.64 831.05,91.26 842.37,89.68"/>
<polyline fill="none" stroke="#1f77b4" stroke-width="1.1" stroke-dasharray="6 4" points="72.00,107.69 82.13,110.44 92.25,113.19 102.38,115.94 112.51,118.69 122.63,121.44 132.76,124.19 142.89,126.94 153.01,129.69 163.14,132.44 173.27,135.20 183.39,137.95 193.52,140.70 203.65,143.45 213.77,146.20 223.90,148.95 234.03,151.70 244.15,154.45 254.28,157.20 264.41,159.96 274.53,162.71 284.66,165.46 294.78,168.21 304.91,170.96 315.04,173.71 325.16,176.46 335.29,179.21 345.42,181.96 355.54,184.71 365.67,187.47 375.80,190.22 385.92,192.97 396.05,195.72 406.18,198.47 416.30,201.22 426.43,203.97 436.56,206.72 446.68,209.47 456.81,212.22 466.94,214.98 477.06,217.73 487.19,220.48 497.32,223.23 507.44,225.98 517.57,228.73 527.70,231.48 537.82,234.23 547.95,236.98 558.08,239.74 568.20,242.49 578.33,245.24 588.46,247.99 598.58,250.74 608.71,253.49 618.84,256.24 628.96,258.99 639.09,261.74 649.22,264.49 659.34,267.25 669.47,270.00 679.59,272.75 689.72,275.50 699.85,278.25 709.97,281.00 720.10,283.75 730.23,286.50 740.35,289.25 750.48,292.01 760.61,294.76 770.73,297.51 780.86,300.26 790.99,303.01 801.11,305.76 811.24,308.51 821.37,311.26 831.49,314.01 841.62,316.76 851.75,319.52 861.87,322.27 872.00,325.02"/>
<circle cx="432.78" cy="205.70" r="4.6" fill="#ffffff" stroke="#1f77b4" stroke-width="2"/>
<text x="438.78" y="199.70" font-family="Arial, sans-serif" font-size="10" fill="#1f77b4">typ 25.9 ohm</text>
<polyline fill="none" stroke="#ff7f0e" stroke-width="1.1" stroke-dasharray="6 4" points="72.00,111.04 82.13,113.79 92.25,116.54 102.38,119.29 112.51,122.04 122.63,124.79 132.76,127.55 142.89,130.30 153.01,133.05 163.14,135.80 173.27,138.55 183.39,141.30 193.52,144.05 203.65,146.80 213.77,149.55 223.90,152.30 234.03,155.06 244.15,157.81 254.28,160.56 264.41,163.31 274.53,166.06 284.66,168.81 294.78,171.56 304.91,174.31 315.04,177.06 325.16,179.82 335.29,182.57 345.42,185.32 355.54,188.07 365.67,190.82 375.80,193.57 385.92,196.32 396.05,199.07 406.18,201.82 416.30,204.57 426.43,207.33 436.56,210.08 446.68,212.83 456.81,215.58 466.94,218.33 477.06,221.08 487.19,223.83 497.32,226.58 507.44,229.33 517.57,232.09 527.70,234.84 537.82,237.59 547.95,240.34 558.08,243.09 568.20,245.84 578.33,248.59 588.46,251.34 598.58,254.09 608.71,256.84 618.84,259.60 628.96,262.35 639.09,265.10 649.22,267.85 659.34,270.60 669.47,273.35 679.59,276.10 689.72,278.85 699.85,281.60 709.97,284.36 720.10,287.11 730.23,289.86 740.35,292.61 750.48,295.36 760.61,298.11 770.73,300.86 780.86,303.61 790.99,306.36 801.11,309.11 811.24,311.87 821.37,314.62 831.49,317.37 841.62,320.12 851.75,322.87 861.87,325.62 872.00,328.37"/>
<circle cx="432.67" cy="209.02" r="4.6" fill="#ffffff" stroke="#ff7f0e" stroke-width="2"/>
<text x="438.67" y="203.02" font-family="Arial, sans-serif" font-size="10" fill="#ff7f0e">min 28 ohm</text>
<polyline fill="none" stroke="#2ca02c" stroke-width="1.1" stroke-dasharray="6 4" points="72.00,104.33 82.13,107.08 92.25,109.83 102.38,112.58 112.51,115.34 122.63,118.09 132.76,120.84 142.89,123.59 153.01,126.34 163.14,129.09 173.27,131.84 183.39,134.59 193.52,137.34 203.65,140.09 213.77,142.85 223.90,145.60 234.03,148.35 244.15,151.10 254.28,153.85 264.41,156.60 274.53,159.35 284.66,162.10 294.78,164.85 304.91,167.61 315.04,170.36 325.16,173.11 335.29,175.86 345.42,178.61 355.54,181.36 365.67,184.11 375.80,186.86 385.92,189.61 396.05,192.36 406.18,195.12 416.30,197.87 426.43,200.62 436.56,203.37 446.68,206.12 456.81,208.87 466.94,211.62 477.06,214.37 487.19,217.12 497.32,219.88 507.44,222.63 517.57,225.38 527.70,228.13 537.82,230.88 547.95,233.63 558.08,236.38 568.20,239.13 578.33,241.88 588.46,244.63 598.58,247.39 608.71,250.14 618.84,252.89 628.96,255.64 639.09,258.39 649.22,261.14 659.34,263.89 669.47,266.64 679.59,269.39 689.72,272.15 699.85,274.90 709.97,277.65 720.10,280.40 730.23,283.15 740.35,285.90 750.48,288.65 760.61,291.40 770.73,294.15 780.86,296.90 790.99,299.66 801.11,302.41 811.24,305.16 821.37,307.91 831.49,310.66 841.62,313.41 851.75,316.16 861.87,318.91 872.00,321.66"/>
<circle cx="434.35" cy="202.77" r="4.6" fill="#ffffff" stroke="#2ca02c" stroke-width="2"/>
<text x="440.35" y="196.77" font-family="Arial, sans-serif" font-size="10" fill="#2ca02c">max 24.7 ohm</text>
<line x1="82.00" y1="80.00" x2="104.00" y2="80.00" stroke="#1f77b4" stroke-width="2"/>
<text x="110.00" y="84.00" font-family="Arial, sans-serif" font-size="11">typ</text>
<line x1="82.00" y1="97.00" x2="104.00" y2="97.00" stroke="#ff7f0e" stroke-width="2" stroke-dasharray="5 4"/>
<text x="110.00" y="101.00" font-family="Arial, sans-serif" font-size="11">min</text>
<line x1="82.00" y1="114.00" x2="104.00" y2="114.00" stroke="#2ca02c" stroke-width="2" stroke-dasharray="2 4"/>
<text x="110.00" y="118.00" font-family="Arial, sans-serif" font-size="11">max</text>
<text x="472.00" y="386.00" text-anchor="middle" font-family="Arial, sans-serif" font-size="11">Output voltage (V)</text>
<text transform="translate(22.00 205.00) rotate(-90)" text-anchor="middle" font-family="Arial, sans-serif" font-size="11">Current (mA)</text>
<rect x="72.00" y="418.00" width="800.00" height="87.00" fill="#ffffff" stroke="#c8c8c8"/>
<text x="82.00" y="436.00" font-family="Arial, sans-serif" font-size="12" font-weight="700">Operating-point summary</text>
<text x="82.00" y="454.00" font-family="Arial, sans-serif" font-size="10" font-weight="700" fill="#333">Table</text>
<text x="174.00" y="454.00" font-family="Arial, sans-serif" font-size="10" font-weight="700" fill="#333">Corner</text>
<text x="242.00" y="454.00" font-family="Arial, sans-serif" font-size="10" font-weight="700" fill="#333">Vout</text>
<text x="332.00" y="454.00" font-family="Arial, sans-serif" font-size="10" font-weight="700" fill="#333">Iop</text>
<text x="422.00" y="454.00" font-family="Arial, sans-serif" font-size="10" font-weight="700" fill="#333">Zout</text>
<text x="512.00" y="454.00" font-family="Arial, sans-serif" font-size="10" font-weight="700" fill="#333">Rseries</text>
<text x="82.00" y="473.00" font-family="Arial, sans-serif" font-size="10" fill="#1f77b4">pulldown</text>
<text x="174.00" y="473.00" font-family="Arial, sans-serif" font-size="10" fill="#1f77b4">typ</text>
<text x="242.00" y="473.00" font-family="Arial, sans-serif" font-size="10" fill="#1f77b4">0.4094 V</text>
<text x="332.00" y="473.00" font-family="Arial, sans-serif" font-size="10" fill="#1f77b4">16 mA</text>
<text x="422.00" y="473.00" font-family="Arial, sans-serif" font-size="10" fill="#1f77b4">25.9 ohm</text>
<text x="512.00" y="473.00" font-family="Arial, sans-serif" font-size="10" fill="#1f77b4">24.1 ohm</text>
<text x="82.00" y="492.00" font-family="Arial, sans-serif" font-size="10" fill="#ff7f0e">pulldown</text>
<text x="174.00" y="492.00" font-family="Arial, sans-serif" font-size="10" fill="#ff7f0e">min</text>
<text x="242.00" y="492.00" font-family="Arial, sans-serif" font-size="10" fill="#ff7f0e">0.4089 V</text>
<text x="332.00" y="492.00" font-family="Arial, sans-serif" font-size="10" fill="#ff7f0e">15 mA</text>
<text x="422.00" y="492.00" font-family="Arial, sans-serif" font-size="10" fill="#ff7f0e">28 ohm</text>
<text x="512.00" y="492.00" font-family="Arial, sans-serif" font-size="10" fill="#ff7f0e">22 ohm</text>
<text x="82.00" y="511.00" font-family="Arial, sans-serif" font-size="10" fill="#2ca02c">pulldown</text>
<text x="174.00" y="511.00" font-family="Arial, sans-serif" font-size="10" fill="#2ca02c">max</text>
<text x="242.00" y="511.00" font-family="Arial, sans-serif" font-size="10" fill="#2ca02c">0.417 V</text>
<text x="332.00" y="511.00" font-family="Arial, sans-serif" font-size="10" fill="#2ca02c">17 mA</text>
<text x="422.00" y="511.00" font-family="Arial, sans-serif" font-size="10" fill="#2ca02c">24.7 ohm</text>
<text x="512.00" y="511.00" font-family="Arial, sans-serif" font-size="10" fill="#2ca02c">25.3 ohm</text>
</svg>