<svg xmlns="http://www.w3.org/2000/svg" width="900" height="620" viewBox="0 0 900 620">
<rect width="100%" height="100%" fill="#ffffff"/>
<text x="72" y="26" font-family="Arial, sans-serif" font-size="16" font-weight="700">DQ_40_3200 Zout Load-Line Curves</text>
<text x="72" y="45" font-family="Arial, sans-serif" font-size="11" fill="#555">Rload=50 ohm; solid=device I-V, dashed=load line, circles=operating points</text>
<rect x="72.00" y="62.00" width="380.00" height="286.00" fill="#fbfbfb" stroke="#c8c8c8"/>
<text x="80.00" y="50.00" font-family="Arial, sans-serif" font-size="13" font-weight="700">[Pulldown] Rload to Vdd</text>
<line x1="72.00" y1="62.00" x2="72.00" y2="348.00" stroke="#ececec"/>
<text x="72.00" y="366.00" text-anchor="middle" font-family="Arial, sans-serif" font-size="10">-1.3</text>
<line x1="167.00" y1="62.00" x2="167.00" y2="348.00" stroke="#ececec"/>
<text x="167.00" y="366.00" text-anchor="middle" font-family="Arial, sans-serif" font-size="10">-0.372</text>
<line x1="262.00" y1="62.00" x2="262.00" y2="348.00" stroke="#ececec"/>
<text x="262.00" y="366.00" text-anchor="middle" font-family="Arial, sans-serif" font-size="10">0.6</text>
<line x1="357.00" y1="62.00" x2="357.00" y2="348.00" stroke="#ececec"/>
<text x="357.00" y="366.00" text-anchor="middle" font-family="Arial, sans-serif" font-size="10">1.6</text>
<line x1="452.00" y1="62.00" x2="452.00" y2="348.00" stroke="#ececec"/>
<text x="452.00" y="366.00" text-anchor="middle" font-family="Arial, sans-serif" font-size="10">2.5</text>
<line x1="72.00" y1="348.00" x2="452.00" y2="348.00" stroke="#ececec"/>
<text x="65.00" y="352.00" text-anchor="end" font-family="Arial, sans-serif" font-size="10">-34</text>
<line x1="72.00" y1="276.50" x2="452.00" y2="276.50" stroke="#ececec"/>
<text x="65.00" y="280.50" text-anchor="end" font-family="Arial, sans-serif" font-size="10">-11</text>
<line x1="72.00" y1="205.00" x2="452.00" y2="205.00" stroke="#ececec"/>
<text x="65.00" y="209.00" text-anchor="end" font-family="Arial, sans-serif" font-size="10">13</text>
<line x1="72.00" y1="133.50" x2="452.00" y2="133.50" stroke="#ececec"/>
<text x="65.00" y="137.50" text-anchor="end" font-family="Arial, sans-serif" font-size="10">37</text>
<line x1="72.00" y1="62.00" x2="452.00" y2="62.00" stroke="#ececec"/>
<text x="65.00" y="66.00" text-anchor="end" font-family="Arial, sans-serif" font-size="10">60</text>
<line x1="203.36" y1="62" x2="203.36" y2="348" stroke="#777" stroke-dasharray="4 4"/>
<line x1="72.0" y1="244.03" x2="452.0" y2="244.03" stroke="#777" stroke-dasharray="4 4"/>
<polyline fill="none" stroke="#1f77b4" stroke-width="1.8" points="86.07,296.58 95.16,296.33 104.55,296.07 112.17,295.84 118.62,295.60 124.19,295.31 128.88,294.98 132.99,294.59 135.63,294.29 138.85,293.84 141.78,293.36 144.13,292.89 145.60,292.58 147.94,292.00 150.58,291.23 151.46,290.95 152.34,290.64 154.10,290.00 155.56,289.37 156.74,288.86 157.32,288.58 158.79,287.81 159.96,287.19 161.14,286.45 161.72,286.08 162.90,285.34 164.36,284.26 165.24,283.61 165.83,283.17 167.00,282.18 168.76,280.69 169.64,279.87 171.69,277.94 172.57,277.07 174.92,274.71 177.26,272.26 180.78,268.51 189.28,259.30 203.36,244.03 210.10,236.76 216.55,229.90 222.42,223.76 227.40,218.61 230.92,215.01 236.78,209.09 241.18,204.74 243.82,202.17 247.34,198.77 249.98,196.26 252.32,194.06 255.55,191.08 257.60,189.21 261.12,186.07 265.81,182.01 267.86,180.29 270.21,178.36 271.97,176.92 274.61,174.83 276.66,173.22 280.47,170.32 282.52,168.79 285.16,166.87 287.22,165.39 289.85,163.54 292.20,161.91 294.55,160.32 297.48,158.36 299.53,157.01 302.46,155.11 304.52,153.81 307.45,151.98 311.85,149.31 314.19,147.93 317.12,146.22 321.81,143.58 326.51,141.05 331.49,138.48 335.89,136.31 339.99,134.39 342.93,133.06 346.74,131.39 351.43,129.43 355.83,127.69 359.93,126.14 363.74,124.75 367.85,123.32 372.83,121.63 378.11,119.93 383.39,118.28 388.96,116.61 395.12,114.83 401.27,113.14 407.14,111.57 414.47,109.67 424.44,107.16 433.53,104.96 437.93,103.92"/>
<polyline fill="none" stroke="#ff7f0e" stroke-width="1.8" stroke-dasharray="5 4" points="86.07,296.23 95.16,296.03 104.55,295.71 112.17,295.35 118.62,294.93 124.19,294.47 128.88,293.98 132.99,293.45 135.63,293.05 138.85,292.48 141.78,291.87 144.13,291.32 145.60,290.93 147.94,290.25 150.58,289.37 151.46,289.05 152.34,288.72 154.10,287.98 155.56,287.30 156.74,286.74 157.32,286.43 158.79,285.63 159.96,284.93 161.14,284.20 161.72,283.82 162.90,283.03 164.36,281.97 165.24,281.31 165.83,280.84 167.00,279.91 168.76,278.41 169.64,277.64 171.69,275.77 172.57,274.95 174.92,272.71 177.26,270.41 180.78,266.89 189.28,258.28 203.36,244.03 210.10,237.27 216.55,230.91 222.42,225.21 227.40,220.47 230.92,217.13 236.78,211.69 241.18,207.69 243.82,205.32 247.34,202.22 249.98,199.91 252.32,197.91 255.55,195.17 257.60,193.48 261.12,190.59 265.81,186.89 267.86,185.34 270.21,183.57 271.97,182.28 274.61,180.38 276.66,178.94 280.47,176.33 282.52,174.98 285.16,173.27 287.22,171.99 289.85,170.36 292.20,168.97 294.55,167.60 297.48,165.95 299.53,164.82 302.46,163.26 304.52,162.20 307.45,160.73 311.85,158.62 314.19,157.55 317.12,156.24 321.81,154.25 326.51,152.37 331.49,150.49 335.89,148.92 339.99,147.52 342.93,146.55 346.74,145.34 351.43,143.91 355.83,142.62 359.93,141.46 363.74,140.41 367.85,139.30 372.83,138.00 378.11,136.67 383.39,135.37 388.96,134.05 395.12,132.62 401.27,131.23 407.14,129.93 414.47,128.34 424.44,126.24 433.53,124.38 437.93,123.49"/>
<polyline fill="none" stroke="#2ca02c" stroke-width="1.8" stroke-dasharray="2 4" points="86.07,294.06 95.16,293.64 104.55,293.26 112.17,293.01 118.62,292.84 124.19,292.70 128.88,292.55 132.99,292.37 135.63,292.23 138.85,292.00 141.78,291.71 144.13,291.45 145.60,291.22 147.94,290.86 150.58,290.29 151.46,290.10 152.34,289.88 154.10,289.36 155.56,288.92 156.74,288.46 157.32,288.24 158.79,287.65 159.96,287.08 161.14,286.50 161.72,286.19 162.90,285.48 164.36,284.59 165.24,283.96 165.83,283.53 167.00,282.68 168.76,281.21 169.64,280.47 171.69,278.55 172.57,277.71 174.92,275.34 177.26,272.88 180.78,269.07 189.28,259.68 203.36,244.03 210.10,236.57 216.55,229.54 222.42,223.22 227.40,217.93 230.92,214.25 236.78,208.19 241.18,203.73 243.82,201.09 247.34,197.63 249.98,195.08 252.32,192.84 255.55,189.83 257.60,187.95 261.12,184.78 265.81,180.71 267.86,178.98 270.21,177.02 271.97,175.59 274.61,173.46 276.66,171.83 280.47,168.86 282.52,167.30 285.16,165.31 287.22,163.78 289.85,161.85 292.20,160.14 294.55,158.46 297.48,156.38 299.53,154.94 302.46,152.89 304.52,151.47 307.45,149.47 311.85,146.51 314.19,144.95 317.12,143.01 321.81,139.97 326.51,136.98 331.49,133.88 335.89,131.21 339.99,128.78 342.93,127.07 346.74,124.91 351.43,122.33 355.83,120.00 359.93,117.91 363.74,116.05 367.85,114.12 372.83,111.87 378.11,109.60 383.39,107.43 388.96,105.26 395.12,102.97 401.27,100.80 407.14,98.84 414.47,96.50 424.44,93.51 433.53,90.90 437.93,89.68"/>
<polyline fill="none" stroke="#1f77b4" stroke-width="1.1" stroke-dasharray="6 4" points="72.00,89.98 76.81,92.96 81.62,95.94 86.43,98.92 91.24,101.90 96.05,104.88 100.86,107.86 105.67,110.84 110.48,113.82 115.29,116.80 120.10,119.78 124.91,122.76 129.72,125.74 134.53,128.72 139.34,131.70 144.15,134.68 148.96,137.66 153.77,140.64 158.58,143.62 163.39,146.60 168.20,149.58 173.01,152.56 177.82,155.54 182.63,158.52 187.44,161.50 192.25,164.48 197.06,167.46 201.87,170.44 206.68,173.42 211.49,176.40 216.30,179.38 221.11,182.36 225.92,185.34 230.73,188.32 235.54,191.30 240.35,194.28 245.16,197.26 249.97,200.24 254.78,203.22 259.59,206.20 264.41,209.18 269.22,212.16 274.03,215.14 278.84,218.12 283.65,221.11 288.46,224.09 293.27,227.07 298.08,230.05 302.89,233.03 307.70,236.01 312.51,238.99 317.32,241.97 322.13,244.95 326.94,247.93 331.75,250.91 336.56,253.89 341.37,256.87 346.18,259.85 350.99,262.83 355.80,265.81 360.61,268.79 365.42,271.77 370.23,274.75 375.04,277.73 379.85,280.71 384.66,283.69 389.47,286.67 394.28,289.65 399.09,292.63 403.90,295.61 408.71,298.59 413.52,301.57 418.33,304.55 423.14,307.53 427.95,310.51 432.76,313.49 437.57,316.47 442.38,319.45 447.19,322.43 452.00,325.41"/>
<circle cx="247.44" cy="198.67" r="4.6" fill="#ffffff" stroke="#1f77b4" stroke-width="2"/>
<text x="253.44" y="192.67" font-family="Arial, sans-serif" font-size="10" fill="#1f77b4">typ 30.1 ohm</text>
<polyline fill="none" stroke="#ff7f0e" stroke-width="1.1" stroke-dasharray="6 4" points="72.00,93.61 76.81,96.59 81.62,99.57 86.43,102.55 91.24,105.53 96.05,108.51 100.86,111.49 105.67,114.47 110.48,117.45 115.29,120.43 120.10,123.41 124.91,126.39 129.72,129.37 134.53,132.35 139.34,135.33 144.15,138.32 148.96,141.30 153.77,144.28 158.58,147.26 163.39,150.24 168.20,153.22 173.01,156.20 177.82,159.18 182.63,162.16 187.44,165.14 192.25,168.12 197.06,171.10 201.87,174.08 206.68,177.06 211.49,180.04 216.30,183.02 221.11,186.00 225.92,188.98 230.73,191.96 235.54,194.94 240.35,197.92 245.16,200.90 249.97,203.88 254.78,206.86 259.59,209.84 264.41,212.82 269.22,215.80 274.03,218.78 278.84,221.76 283.65,224.74 288.46,227.72 293.27,230.70 298.08,233.68 302.89,236.66 307.70,239.64 312.51,242.62 317.32,245.60 322.13,248.58 326.94,251.56 331.75,254.54 336.56,257.52 341.37,260.50 346.18,263.48 350.99,266.46 355.80,269.44 360.61,272.42 365.42,275.40 370.23,278.38 375.04,281.36 379.85,284.34 384.66,287.32 389.47,290.30 394.28,293.28 399.09,296.26 403.90,299.24 408.71,302.22 413.52,305.20 418.33,308.18 423.14,311.16 427.95,314.14 432.76,317.12 437.57,320.10 442.38,323.08 447.19,326.06 452.00,329.04"/>
<circle cx="247.32" cy="202.23" r="4.6" fill="#ffffff" stroke="#ff7f0e" stroke-width="2"/>
<text x="253.32" y="196.23" font-family="Arial, sans-serif" font-size="10" fill="#ff7f0e">min 32.6 ohm</text>
<polyline fill="none" stroke="#2ca02c" stroke-width="1.1" stroke-dasharray="6 4" points="72.00,86.35 76.81,89.33 81.62,92.31 86.43,95.29 91.24,98.27 96.05,101.25 100.86,104.23 105.67,107.21 110.48,110.19 115.29,113.17 120.10,116.15 124.91,119.13 129.72,122.11 134.53,125.09 139.34,128.07 144.15,131.05 148.96,134.03 153.77,137.01 158.58,139.99 163.39,142.97 168.20,145.95 173.01,148.93 177.82,151.91 182.63,154.89 187.44,157.87 192.25,160.85 197.06,163.83 201.87,166.81 206.68,169.79 211.49,172.77 216.30,175.75 221.11,178.73 225.92,181.71 230.73,184.69 235.54,187.67 240.35,190.65 245.16,193.63 249.97,196.61 254.78,199.59 259.59,202.57 264.41,205.55 269.22,208.53 274.03,211.51 278.84,214.49 283.65,217.47 288.46,220.45 293.27,223.43 298.08,226.41 302.89,229.39 307.70,232.37 312.51,235.35 317.32,238.33 322.13,241.31 326.94,244.29 331.75,247.27 336.56,250.25 341.37,253.23 346.18,256.21 350.99,259.19 355.80,262.17 360.61,265.15 365.42,268.13 370.23,271.11 375.04,274.09 379.85,277.07 384.66,280.05 389.47,283.03 394.28,286.01 399.09,288.99 403.90,291.97 408.71,294.95 413.52,297.93 418.33,300.92 423.14,303.90 427.95,306.88 432.76,309.86 437.57,312.84 442.38,315.82 447.19,318.80 452.00,321.78"/>
<circle cx="249.01" cy="196.02" r="4.6" fill="#ffffff" stroke="#2ca02c" stroke-width="2"/>
<text x="255.01" y="190.02" font-family="Arial, sans-serif" font-size="10" fill="#2ca02c">max 29.5 ohm</text>
<line x1="82.00" y1="80.00" x2="104.00" y2="80.00" stroke="#1f77b4" stroke-width="2"/>
<text x="110.00" y="84.00" font-family="Arial, sans-serif" font-size="11">typ</text>
<line x1="82.00" y1="97.00" x2="104.00" y2="97.00" stroke="#ff7f0e" stroke-width="2" stroke-dasharray="5 4"/>
<text x="110.00" y="101.00" font-family="Arial, sans-serif" font-size="11">min</text>
<line x1="82.00" y1="114.00" x2="104.00" y2="114.00" stroke="#2ca02c" stroke-width="2" stroke-dasharray="2 4"/>
<text x="110.00" y="118.00" font-family="Arial, sans-serif" font-size="11">max</text>
<text x="262.00" y="386.00" text-anchor="middle" font-family="Arial, sans-serif" font-size="11">Output voltage (V)</text>
<text transform="translate(22.00 205.00) rotate(-90)" text-anchor="middle" font-family="Arial, sans-serif" font-size="11">Current (mA)</text>
<rect x="492.00" y="62.00" width="380.00" height="286.00" fill="#fbfbfb" stroke="#c8c8c8"/>
<text x="500.00" y="50.00" font-family="Arial, sans-serif" font-size="13" font-weight="700">[Pullup] Rload to GND</text>
<line x1="492.00" y1="62.00" x2="492.00" y2="348.00" stroke="#ececec"/>
<text x="492.00" y="366.00" text-anchor="middle" font-family="Arial, sans-serif" font-size="10">-1.3</text>
<line x1="587.00" y1="62.00" x2="587.00" y2="348.00" stroke="#ececec"/>
<text x="587.00" y="366.00" text-anchor="middle" font-family="Arial, sans-serif" font-size="10">-0.372</text>
<line x1="682.00" y1="62.00" x2="682.00" y2="348.00" stroke="#ececec"/>
<text x="682.00" y="366.00" text-anchor="middle" font-family="Arial, sans-serif" font-size="10">0.6</text>
<line x1="777.00" y1="62.00" x2="777.00" y2="348.00" stroke="#ececec"/>
<text x="777.00" y="366.00" text-anchor="middle" font-family="Arial, sans-serif" font-size="10">1.6</text>
<line x1="872.00" y1="62.00" x2="872.00" y2="348.00" stroke="#ececec"/>
<text x="872.00" y="366.00" text-anchor="middle" font-family="Arial, sans-serif" font-size="10">2.5</text>
<line x1="492.00" y1="348.00" x2="872.00" y2="348.00" stroke="#ececec"/>
<text x="485.00" y="352.00" text-anchor="end" font-family="Arial, sans-serif" font-size="10">-58</text>
<line x1="492.00" y1="276.50" x2="872.00" y2="276.50" stroke="#ececec"/>
<text x="485.00" y="280.50" text-anchor="end" font-family="Arial, sans-serif" font-size="10">-35</text>
<line x1="492.00" y1="205.00" x2="872.00" y2="205.00" stroke="#ececec"/>
<text x="485.00" y="209.00" text-anchor="end" font-family="Arial, sans-serif" font-size="10">-12</text>
<line x1="492.00" y1="133.50" x2="872.00" y2="133.50" stroke="#ececec"/>
<text x="485.00" y="137.50" text-anchor="end" font-family="Arial, sans-serif" font-size="10">11</text>
<line x1="492.00" y1="62.00" x2="872.00" y2="62.00" stroke="#ececec"/>
<text x="485.00" y="66.00" text-anchor="end" font-family="Arial, sans-serif" font-size="10">34</text>
<line x1="623.36" y1="62" x2="623.36" y2="348" stroke="#777" stroke-dasharray="4 4"/>
<line x1="492.0" y1="167.80" x2="872.0" y2="167.80" stroke="#777" stroke-dasharray="4 4"/>
<polyline fill="none" stroke="#1f77b4" stroke-width="1.8" points="506.07,119.91 506.37,119.98 508.42,120.24 511.06,120.63 513.70,121.04 516.04,121.42 518.10,121.77 521.91,122.39 524.55,122.81 527.48,123.26 530.41,123.70 535.69,124.48 541.26,125.33 547.12,126.26 552.69,127.20 556.80,127.94 560.32,128.63 563.84,129.36 566.48,129.95 568.53,130.44 570.87,131.05 572.34,131.48 574.39,132.10 575.56,132.50 577.03,133.00 578.79,133.72 579.96,134.20 581.14,134.77 581.72,135.06 582.90,135.63 584.36,136.48 585.24,136.98 585.83,137.33 587.00,138.10 588.76,139.28 589.64,139.93 591.40,141.24 592.57,142.16 594.92,144.04 598.14,146.73 610.16,156.91 616.03,161.81 621.31,166.13 623.36,167.80 628.93,172.26 633.03,175.49 637.14,178.69 640.95,181.61 643.30,183.38 646.81,185.99 650.33,188.56 652.39,190.04 656.49,192.93 660.60,195.71 662.35,196.88 663.82,197.84 667.05,199.93 669.69,201.58 672.03,203.04 675.26,204.98 677.31,206.21 681.12,208.42 686.10,211.21 690.21,213.41 691.97,214.33 694.90,215.83 696.95,216.85 700.47,218.55 702.23,219.37 705.16,220.70 706.92,221.48 710.15,222.86 712.20,223.71 714.84,224.76 716.89,225.57 719.82,226.67 722.17,227.53 725.10,228.57 727.74,229.47 730.97,230.54 733.90,231.47 737.42,232.57 742.11,233.97 746.80,235.32 751.20,236.54 755.89,237.79 760.58,239.01 767.03,240.63 773.48,242.19 780.81,243.90 789.31,245.82 800.46,248.27 813.06,250.97 826.55,253.77 841.80,256.89 857.93,260.15"/>
<polyline fill="none" stroke="#ff7f0e" stroke-width="1.8" stroke-dasharray="5 4" points="506.07,123.94 506.37,123.94 508.42,123.94 511.06,123.94 513.70,123.94 516.04,123.94 518.10,123.94 521.91,123.94 524.55,123.94 527.48,123.94 530.41,123.94 535.69,124.43 541.26,125.23 547.12,126.17 552.69,127.15 556.80,127.95 560.32,128.69 563.84,129.49 566.48,130.15 568.53,130.70 570.87,131.39 572.34,131.85 574.39,132.55 575.56,133.00 577.03,133.57 578.79,134.32 579.96,134.88 581.14,135.45 581.72,135.75 582.90,136.36 584.36,137.21 585.24,137.73 585.83,138.10 587.00,138.84 588.76,140.04 589.64,140.66 591.40,141.95 592.57,142.85 594.92,144.68 598.14,147.29 610.16,157.23 616.03,162.00 621.31,166.19 623.36,167.80 628.93,172.09 633.03,175.19 637.14,178.24 640.95,181.03 643.30,182.71 646.81,185.17 650.33,187.63 652.39,188.99 656.49,191.73 660.60,194.30 662.35,195.40 663.82,196.28 667.05,198.17 669.69,199.71 672.03,201.00 675.26,202.76 677.31,203.82 681.12,205.78 686.10,208.18 690.21,210.03 691.97,210.79 694.90,212.03 696.95,212.86 700.47,214.23 702.23,214.88 705.16,215.95 706.92,216.55 710.15,217.64 712.20,218.30 714.84,219.14 716.89,219.76 719.82,220.62 722.17,221.29 725.10,222.10 727.74,222.81 730.97,223.65 733.90,224.39 737.42,225.25 742.11,226.36 746.80,227.43 751.20,228.40 755.89,229.41 760.58,230.39 767.03,231.69 773.48,232.96 780.81,234.34 789.31,235.92 800.46,237.93 813.06,240.13 826.55,242.45 841.80,245.03 857.93,247.73"/>
<polyline fill="none" stroke="#2ca02c" stroke-width="1.8" stroke-dasharray="2 4" points="506.07,118.46 506.37,118.55 508.42,119.06 511.06,119.70 513.70,120.29 516.04,120.76 518.10,121.13 521.91,121.78 524.55,122.21 527.48,122.69 530.41,123.14 535.69,123.93 541.26,124.76 547.12,125.68 552.69,126.62 556.80,127.35 560.32,128.02 563.84,128.72 566.48,129.31 568.53,129.78 570.87,130.37 572.34,130.75 574.39,131.35 575.56,131.70 577.03,132.22 578.79,132.85 579.96,133.35 581.14,133.85 581.72,134.12 582.90,134.72 584.36,135.49 585.24,136.02 585.83,136.38 587.00,137.11 588.76,138.35 589.64,138.97 591.40,140.34 592.57,141.27 594.92,143.22 598.14,145.99 610.16,156.51 616.03,161.56 621.31,166.06 623.36,167.80 628.93,172.45 633.03,175.84 637.14,179.19 640.95,182.26 643.30,184.14 646.81,186.91 650.33,189.65 652.39,191.23 656.49,194.33 660.60,197.36 662.35,198.63 663.82,199.69 667.05,201.97 669.69,203.80 672.03,205.41 675.26,207.57 677.31,208.93 681.12,211.41 686.10,214.56 690.21,217.08 691.97,218.14 694.90,219.88 696.95,221.08 700.47,223.10 702.23,224.08 705.16,225.69 706.92,226.64 710.15,228.33 712.20,229.38 714.84,230.69 716.89,231.69 719.82,233.08 722.17,234.15 725.10,235.47 727.74,236.61 730.97,237.96 733.90,239.15 737.42,240.53 742.11,242.29 746.80,243.97 751.20,245.48 755.89,247.03 760.58,248.53 767.03,250.52 773.48,252.41 780.81,254.48 789.31,256.77 800.46,259.68 813.06,262.87 826.55,266.17 841.80,269.78 857.93,273.55"/>
<polyline fill="none" stroke="#1f77b4" stroke-width="1.1" stroke-dasharray="6 4" points="492.00,325.53 496.81,322.48 501.62,319.43 506.43,316.38 511.24,313.33 516.05,310.27 520.86,307.22 525.67,304.17 530.48,301.12 535.29,298.07 540.10,295.02 544.91,291.97 549.72,288.91 554.53,285.86 559.34,282.81 564.15,279.76 568.96,276.71 573.77,273.66 578.58,270.61 583.39,267.55 588.20,264.50 593.01,261.45 597.82,258.40 602.63,255.35 607.44,252.30 612.25,249.25 617.06,246.19 621.87,243.14 626.68,240.09 631.49,237.04 636.30,233.99 641.11,230.94 645.92,227.89 650.73,224.83 655.54,221.78 660.35,218.73 665.16,215.68 669.97,212.63 674.78,209.58 679.59,206.53 684.41,203.47 689.22,200.42 694.03,197.37 698.84,194.32 703.65,191.27 708.46,188.22 713.27,185.17 718.08,182.11 722.89,179.06 727.70,176.01 732.51,172.96 737.32,169.91 742.13,166.86 746.94,163.81 751.75,160.75 756.56,157.70 761.37,154.65 766.18,151.60 770.99,148.55 775.80,145.50 780.61,142.45 785.42,139.39 790.23,136.34 795.04,133.29 799.85,130.24 804.66,127.19 809.47,124.14 814.28,121.09 819.09,118.03 823.90,114.98 828.71,111.93 833.52,108.88 838.33,105.83 843.14,102.78 847.95,99.73 852.76,96.67 857.57,93.62 862.38,90.57 867.19,87.52 872.00,84.47"/>
<circle cx="678.77" cy="207.05" r="4.6" fill="#ffffff" stroke="#1f77b4" stroke-width="2"/>
<text x="684.77" y="201.05" font-family="Arial, sans-serif" font-size="10" fill="#1f77b4">typ 44.8 ohm</text>
<polyline fill="none" stroke="#ff7f0e" stroke-width="1.1" stroke-dasharray="6 4" points="492.00,321.81 496.81,318.76 501.62,315.71 506.43,312.66 511.24,309.60 516.05,306.55 520.86,303.50 525.67,300.45 530.48,297.40 535.29,294.35 540.10,291.30 544.91,288.25 549.72,285.19 554.53,282.14 559.34,279.09 564.15,276.04 568.96,272.99 573.77,269.94 578.58,266.89 583.39,263.83 588.20,260.78 593.01,257.73 597.82,254.68 602.63,251.63 607.44,248.58 612.25,245.53 617.06,242.47 621.87,239.42 626.68,236.37 631.49,233.32 636.30,230.27 641.11,227.22 645.92,224.17 650.73,221.11 655.54,218.06 660.35,215.01 665.16,211.96 669.97,208.91 674.78,205.86 679.59,202.81 684.41,199.75 689.22,196.70 694.03,193.65 698.84,190.60 703.65,187.55 708.46,184.50 713.27,181.45 718.08,178.39 722.89,175.34 727.70,172.29 732.51,169.24 737.32,166.19 742.13,163.14 746.94,160.09 751.75,157.03 756.56,153.98 761.37,150.93 766.18,147.88 770.99,144.83 775.80,141.78 780.61,138.73 785.42,135.67 790.23,132.62 795.04,129.57 799.85,126.52 804.66,123.47 809.47,120.42 814.28,117.37 819.09,114.31 823.90,111.26 828.71,108.21 833.52,105.16 838.33,102.11 843.14,99.06 847.95,96.01 852.76,92.95 857.57,89.90 862.38,86.85 867.19,83.80 872.00,80.75"/>
<circle cx="677.69" cy="204.02" r="4.6" fill="#ffffff" stroke="#ff7f0e" stroke-width="2"/>
<text x="683.69" y="198.02" font-family="Arial, sans-serif" font-size="10" fill="#ff7f0e">min 47.6 ohm</text>
<polyline fill="none" stroke="#2ca02c" stroke-width="1.1" stroke-dasharray="6 4" points="492.00,329.25 496.81,326.20 501.62,323.15 506.43,320.10 511.24,317.05 516.05,313.99 520.86,310.94 525.67,307.89 530.48,304.84 535.29,301.79 540.10,298.74 544.91,295.69 549.72,292.63 554.53,289.58 559.34,286.53 564.15,283.48 568.96,280.43 573.77,277.38 578.58,274.33 583.39,271.27 588.20,268.22 593.01,265.17 597.82,262.12 602.63,259.07 607.44,256.02 612.25,252.97 617.06,249.91 621.87,246.86 626.68,243.81 631.49,240.76 636.30,237.71 641.11,234.66 645.92,231.61 650.73,228.55 655.54,225.50 660.35,222.45 665.16,219.40 669.97,216.35 674.78,213.30 679.59,210.25 684.41,207.19 689.22,204.14 694.03,201.09 698.84,198.04 703.65,194.99 708.46,191.94 713.27,188.89 718.08,185.83 722.89,182.78 727.70,179.73 732.51,176.68 737.32,173.63 742.13,170.58 746.94,167.53 751.75,164.47 756.56,161.42 761.37,158.37 766.18,155.32 770.99,152.27 775.80,149.22 780.61,146.17 785.42,143.11 790.23,140.06 795.04,137.01 799.85,133.96 804.66,130.91 809.47,127.86 814.28,124.81 819.09,121.75 823.90,118.70 828.71,115.65 833.52,112.60 838.33,109.55 843.14,106.50 847.95,103.45 852.76,100.40 857.57,97.34 862.38,94.29 867.19,91.24 872.00,88.19"/>
<circle cx="679.46" cy="210.33" r="4.6" fill="#ffffff" stroke="#2ca02c" stroke-width="2"/>
<text x="685.46" y="204.33" font-family="Arial, sans-serif" font-size="10" fill="#2ca02c">max 41.8 ohm</text>
<line x1="502.00" y1="80.00" x2="524.00" y2="80.00" stroke="#1f77b4" stroke-width="2"/>
<text x="530.00" y="84.00" font-family="Arial, sans-serif" font-size="11">typ</text>
<line x1="502.00" y1="97.00" x2="524.00" y2="97.00" stroke="#ff7f0e" stroke-width="2" stroke-dasharray="5 4"/>
<text x="530.00" y="101.00" font-family="Arial, sans-serif" font-size="11">min</text>
<line x1="502.00" y1="114.00" x2="524.00" y2="114.00" stroke="#2ca02c" stroke-width="2" stroke-dasharray="2 4"/>
<text x="530.00" y="118.00" font-family="Arial, sans-serif" font-size="11">max</text>
<text x="682.00" y="386.00" text-anchor="middle" font-family="Arial, sans-serif" font-size="11">Vcc-relative table voltage (V)</text>
<text transform="translate(442.00 205.00) rotate(-90)" text-anchor="middle" font-family="Arial, sans-serif" font-size="11">Current (mA)</text>
<rect x="72.00" y="418.00" width="800.00" height="144.00" fill="#ffffff" stroke="#c8c8c8"/>
<text x="82.00" y="436.00" font-family="Arial, sans-serif" font-size="12" font-weight="700">Operating-point summary</text>
<text x="82.00" y="454.00" font-family="Arial, sans-serif" font-size="10" font-weight="700" fill="#333">Table</text>
<text x="174.00" y="454.00" font-family="Arial, sans-serif" font-size="10" font-weight="700" fill="#333">Corner</text>
<text x="242.00" y="454.00" font-family="Arial, sans-serif" font-size="10" font-weight="700" fill="#333">Vout</text>
<text x="332.00" y="454.00" font-family="Arial, sans-serif" font-size="10" font-weight="700" fill="#333">Iop</text>
<text x="422.00" y="454.00" font-family="Arial, sans-serif" font-size="10" font-weight="700" fill="#333">Zout</text>
<text x="512.00" y="454.00" font-family="Arial, sans-serif" font-size="10" font-weight="700" fill="#333">Rseries</text>
<text x="82.00" y="473.00" font-family="Arial, sans-serif" font-size="10" fill="#1f77b4">pulldown</text>
<text x="174.00" y="473.00" font-family="Arial, sans-serif" font-size="10" fill="#1f77b4">typ</text>
<text x="242.00" y="473.00" font-family="Arial, sans-serif" font-size="10" fill="#1f77b4">0.451 V</text>
<text x="332.00" y="473.00" font-family="Arial, sans-serif" font-size="10" fill="#1f77b4">15 mA</text>
<text x="422.00" y="473.00" font-family="Arial, sans-serif" font-size="10" fill="#1f77b4">30.1 ohm</text>
<text x="512.00" y="473.00" font-family="Arial, sans-serif" font-size="10" fill="#1f77b4">19.9 ohm</text>
<text x="82.00" y="492.00" font-family="Arial, sans-serif" font-size="10" fill="#ff7f0e">pulldown</text>
<text x="174.00" y="492.00" font-family="Arial, sans-serif" font-size="10" fill="#ff7f0e">min</text>
<text x="242.00" y="492.00" font-family="Arial, sans-serif" font-size="10" fill="#ff7f0e">0.4498 V</text>
<text x="332.00" y="492.00" font-family="Arial, sans-serif" font-size="10" fill="#ff7f0e">14 mA</text>
<text x="422.00" y="492.00" font-family="Arial, sans-serif" font-size="10" fill="#ff7f0e">32.6 ohm</text>
<text x="512.00" y="492.00" font-family="Arial, sans-serif" font-size="10" fill="#ff7f0e">17.4 ohm</text>
<text x="82.00" y="511.00" font-family="Arial, sans-serif" font-size="10" fill="#2ca02c">pulldown</text>
<text x="174.00" y="511.00" font-family="Arial, sans-serif" font-size="10" fill="#2ca02c">max</text>
<text x="242.00" y="511.00" font-family="Arial, sans-serif" font-size="10" fill="#2ca02c">0.4671 V</text>
<text x="332.00" y="511.00" font-family="Arial, sans-serif" font-size="10" fill="#2ca02c">16 mA</text>
<text x="422.00" y="511.00" font-family="Arial, sans-serif" font-size="10" fill="#2ca02c">29.5 ohm</text>
<text x="512.00" y="511.00" font-family="Arial, sans-serif" font-size="10" fill="#2ca02c">20.5 ohm</text>
<text x="82.00" y="530.00" font-family="Arial, sans-serif" font-size="10" fill="#1f77b4">pullup</text>
<text x="174.00" y="530.00" font-family="Arial, sans-serif" font-size="10" fill="#1f77b4">typ</text>
<text x="242.00" y="530.00" font-family="Arial, sans-serif" font-size="10" fill="#1f77b4">0.6331 V</text>
<text x="332.00" y="530.00" font-family="Arial, sans-serif" font-size="10" fill="#1f77b4">-13 mA</text>
<text x="422.00" y="530.00" font-family="Arial, sans-serif" font-size="10" fill="#1f77b4">44.8 ohm</text>
<text x="512.00" y="530.00" font-family="Arial, sans-serif" font-size="10" fill="#1f77b4">5.227 ohm</text>
<text x="82.00" y="549.00" font-family="Arial, sans-serif" font-size="10" fill="#ff7f0e">pullup</text>
<text x="174.00" y="549.00" font-family="Arial, sans-serif" font-size="10" fill="#ff7f0e">min</text>
<text x="242.00" y="549.00" font-family="Arial, sans-serif" font-size="10" fill="#ff7f0e">0.5841 V</text>
<text x="332.00" y="549.00" font-family="Arial, sans-serif" font-size="10" fill="#ff7f0e">-12 mA</text>
<text x="422.00" y="549.00" font-family="Arial, sans-serif" font-size="10" fill="#ff7f0e">47.6 ohm</text>
<text x="512.00" y="549.00" font-family="Arial, sans-serif" font-size="10" fill="#ff7f0e">2.419 ohm</text>
<text x="82.00" y="568.00" font-family="Arial, sans-serif" font-size="10" fill="#2ca02c">pullup</text>
<text x="174.00" y="568.00" font-family="Arial, sans-serif" font-size="10" fill="#2ca02c">max</text>
<text x="242.00" y="568.00" font-family="Arial, sans-serif" font-size="10" fill="#2ca02c">0.686 V</text>
<text x="332.00" y="568.00" font-family="Arial, sans-serif" font-size="10" fill="#2ca02c">-14 mA</text>
<text x="422.00" y="568.00" font-family="Arial, sans-serif" font-size="10" fill="#2ca02c">41.8 ohm</text>
<text x="512.00" y="568.00" font-family="Arial, sans-serif" font-size="10" fill="#2ca02c">8.159 ohm</text>
</svg>