<svg xmlns="http://www.w3.org/2000/svg" width="900" height="620" viewBox="0 0 900 620">
<rect width="100%" height="100%" fill="#ffffff"/>
<text x="72" y="26" font-family="Arial, sans-serif" font-size="16" font-weight="700">DQ_34_3200 Zout Load-Line Curves</text>
<text x="72" y="45" font-family="Arial, sans-serif" font-size="11" fill="#555">Rload=50 ohm; solid=device I-V, dashed=load line, circles=operating points</text>
<rect x="72.00" y="62.00" width="380.00" height="286.00" fill="#fbfbfb" stroke="#c8c8c8"/>
<text x="80.00" y="50.00" font-family="Arial, sans-serif" font-size="13" font-weight="700">[Pulldown] Rload to Vdd</text>
<line x1="72.00" y1="62.00" x2="72.00" y2="348.00" stroke="#ececec"/>
<text x="72.00" y="366.00" text-anchor="middle" font-family="Arial, sans-serif" font-size="10">-1.3</text>
<line x1="167.00" y1="62.00" x2="167.00" y2="348.00" stroke="#ececec"/>
<text x="167.00" y="366.00" text-anchor="middle" font-family="Arial, sans-serif" font-size="10">-0.372</text>
<line x1="262.00" y1="62.00" x2="262.00" y2="348.00" stroke="#ececec"/>
<text x="262.00" y="366.00" text-anchor="middle" font-family="Arial, sans-serif" font-size="10">0.6</text>
<line x1="357.00" y1="62.00" x2="357.00" y2="348.00" stroke="#ececec"/>
<text x="357.00" y="366.00" text-anchor="middle" font-family="Arial, sans-serif" font-size="10">1.6</text>
<line x1="452.00" y1="62.00" x2="452.00" y2="348.00" stroke="#ececec"/>
<text x="452.00" y="366.00" text-anchor="middle" font-family="Arial, sans-serif" font-size="10">2.5</text>
<line x1="72.00" y1="348.00" x2="452.00" y2="348.00" stroke="#ececec"/>
<text x="65.00" y="352.00" text-anchor="end" font-family="Arial, sans-serif" font-size="10">-35</text>
<line x1="72.00" y1="276.50" x2="452.00" y2="276.50" stroke="#ececec"/>
<text x="65.00" y="280.50" text-anchor="end" font-family="Arial, sans-serif" font-size="10">-9.1</text>
<line x1="72.00" y1="205.00" x2="452.00" y2="205.00" stroke="#ececec"/>
<text x="65.00" y="209.00" text-anchor="end" font-family="Arial, sans-serif" font-size="10">17</text>
<line x1="72.00" y1="133.50" x2="452.00" y2="133.50" stroke="#ececec"/>
<text x="65.00" y="137.50" text-anchor="end" font-family="Arial, sans-serif" font-size="10">43</text>
<line x1="72.00" y1="62.00" x2="452.00" y2="62.00" stroke="#ececec"/>
<text x="65.00" y="66.00" text-anchor="end" font-family="Arial, sans-serif" font-size="10">70</text>
<line x1="203.36" y1="62" x2="203.36" y2="348" stroke="#777" stroke-dasharray="4 4"/>
<line x1="72.0" y1="251.68" x2="452.0" y2="251.68" stroke="#777" stroke-dasharray="4 4"/>
<polyline fill="none" stroke="#1f77b4" stroke-width="1.8" points="86.07,306.85 94.87,306.59 103.96,306.33 111.58,306.10 118.03,305.84 123.60,305.55 128.30,305.21 132.40,304.82 135.63,304.44 138.56,304.02 140.61,303.67 142.96,303.23 144.42,302.91 146.77,302.33 148.23,301.95 149.70,301.49 150.58,301.21 151.75,300.84 153.81,300.02 155.27,299.43 156.44,298.85 157.03,298.56 158.50,297.83 159.38,297.30 160.55,296.59 161.43,296.05 163.77,294.38 164.36,293.94 166.41,292.25 167.00,291.76 167.29,291.48 168.76,290.13 169.64,289.31 170.81,288.14 172.28,286.67 174.33,284.50 176.68,281.95 180.19,278.03 186.65,270.72 201.01,254.35 203.36,251.68 209.52,244.71 214.79,238.81 219.78,233.30 224.47,228.17 227.69,224.68 233.85,218.11 236.78,215.03 242.35,209.24 244.99,206.56 247.93,203.60 252.03,199.52 253.50,198.10 256.72,194.99 260.24,191.67 262.00,190.05 265.52,186.85 269.92,183.00 271.09,182.01 274.02,179.54 277.83,176.43 279.89,174.78 281.94,173.18 284.58,171.14 288.98,167.85 292.49,165.29 297.19,161.97 300.12,159.96 303.34,157.78 305.69,156.23 308.62,154.32 312.43,151.91 316.83,149.20 320.35,147.11 325.04,144.42 328.85,142.32 331.49,140.91 334.13,139.53 338.53,137.32 340.87,136.19 344.69,134.40 347.03,133.34 349.96,132.04 353.77,130.42 358.76,128.40 361.10,127.49 366.09,125.63 371.37,123.73 376.65,121.92 381.92,120.17 387.20,118.49 392.77,116.78 398.64,115.05 404.50,113.40 410.66,111.69 417.40,109.88 426.20,107.57 435.58,105.20 437.93,104.63"/>
<polyline fill="none" stroke="#ff7f0e" stroke-width="1.8" stroke-dasharray="5 4" points="86.07,306.48 94.87,306.28 103.96,305.96 111.58,305.58 118.03,305.16 123.60,304.68 128.30,304.18 132.40,303.64 135.63,303.13 138.56,302.59 140.61,302.16 142.96,301.61 144.42,301.24 146.77,300.57 148.23,300.09 149.70,299.59 150.58,299.26 151.75,298.82 153.81,297.95 155.27,297.24 156.44,296.67 157.03,296.34 158.50,295.52 159.38,294.98 160.55,294.23 161.43,293.66 163.77,291.95 164.36,291.48 166.41,289.82 167.00,289.30 167.29,289.05 168.76,287.76 169.64,286.93 170.81,285.82 172.28,284.40 174.33,282.37 176.68,279.98 180.19,276.29 186.65,269.46 201.01,254.17 203.36,251.68 209.52,245.20 214.79,239.73 219.78,234.62 224.47,229.87 227.69,226.64 233.85,220.59 236.78,217.75 242.35,212.43 244.99,209.96 247.93,207.25 252.03,203.52 253.50,202.21 256.72,199.38 260.24,196.36 262.00,194.87 265.52,191.96 269.92,188.46 271.09,187.55 274.02,185.32 277.83,182.52 279.89,181.06 281.94,179.62 284.58,177.81 288.98,174.92 292.49,172.71 297.19,169.90 300.12,168.21 303.34,166.43 305.69,165.17 308.62,163.65 312.43,161.75 316.83,159.68 320.35,158.09 325.04,156.10 328.85,154.55 331.49,153.51 334.13,152.52 338.53,150.91 340.87,150.08 344.69,148.78 347.03,148.00 349.96,147.06 353.77,145.87 358.76,144.37 361.10,143.68 366.09,142.26 371.37,140.80 376.65,139.38 381.92,138.01 387.20,136.68 392.77,135.32 398.64,133.91 404.50,132.53 410.66,131.11 417.40,129.60 426.20,127.67 435.58,125.66 437.93,125.17"/>
<polyline fill="none" stroke="#2ca02c" stroke-width="1.8" stroke-dasharray="2 4" points="86.07,304.20 94.87,303.77 103.96,303.39 111.58,303.12 118.03,302.93 123.60,302.78 128.30,302.64 132.40,302.47 135.63,302.29 138.56,302.06 140.61,301.87 142.96,301.61 144.42,301.41 146.77,301.06 148.23,300.76 149.70,300.47 150.58,300.27 151.75,299.95 153.81,299.39 155.27,298.87 156.44,298.45 157.03,298.24 158.50,297.56 159.38,297.15 160.55,296.60 161.43,296.07 163.77,294.65 164.36,294.22 166.41,292.67 167.00,292.22 167.29,292.00 168.76,290.67 169.64,289.87 170.81,288.80 172.28,287.29 174.33,285.18 176.68,282.61 180.19,278.63 186.65,271.17 201.01,254.42 203.36,251.68 209.52,244.53 214.79,238.48 219.78,232.82 224.47,227.56 227.69,223.98 233.85,217.26 236.78,214.07 242.35,208.19 244.99,205.40 247.93,202.43 252.03,198.28 253.50,196.80 256.72,193.72 260.24,190.36 262.00,188.68 265.52,185.54 269.92,181.62 271.09,180.61 274.02,178.15 277.83,174.95 279.89,173.29 281.94,171.65 284.58,169.53 288.98,166.13 292.49,163.43 297.19,159.92 300.12,157.75 303.34,155.40 305.69,153.70 308.62,151.62 312.43,148.92 316.83,145.88 320.35,143.47 325.04,140.31 328.85,137.81 331.49,136.09 334.13,134.40 338.53,131.63 340.87,130.19 344.69,127.89 347.03,126.49 349.96,124.81 353.77,122.64 358.76,119.94 361.10,118.72 366.09,116.19 371.37,113.65 376.65,111.24 381.92,108.94 387.20,106.74 392.77,104.53 398.64,102.32 404.50,100.21 410.66,98.10 417.40,95.90 426.20,93.16 435.58,90.36 437.93,89.68"/>
<polyline fill="none" stroke="#1f77b4" stroke-width="1.1" stroke-dasharray="6 4" points="72.00,113.08 76.81,115.77 81.62,118.45 86.43,121.13 91.24,123.81 96.05,126.49 100.86,129.17 105.67,131.85 110.48,134.53 115.29,137.22 120.10,139.90 124.91,142.58 129.72,145.26 134.53,147.94 139.34,150.62 144.15,153.30 148.96,155.98 153.77,158.66 158.58,161.35 163.39,164.03 168.20,166.71 173.01,169.39 177.82,172.07 182.63,174.75 187.44,177.43 192.25,180.11 197.06,182.80 201.87,185.48 206.68,188.16 211.49,190.84 216.30,193.52 221.11,196.20 225.92,198.88 230.73,201.56 235.54,204.24 240.35,206.93 245.16,209.61 249.97,212.29 254.78,214.97 259.59,217.65 264.41,220.33 269.22,223.01 274.03,225.69 278.84,228.38 283.65,231.06 288.46,233.74 293.27,236.42 298.08,239.10 302.89,241.78 307.70,244.46 312.51,247.14 317.32,249.83 322.13,252.51 326.94,255.19 331.75,257.87 336.56,260.55 341.37,263.23 346.18,265.91 350.99,268.59 355.80,271.27 360.61,273.96 365.42,276.64 370.23,279.32 375.04,282.00 379.85,284.68 384.66,287.36 389.47,290.04 394.28,292.72 399.09,295.41 403.90,298.09 408.71,300.77 413.52,303.45 418.33,306.13 423.14,308.81 427.95,311.49 432.76,314.17 437.57,316.86 442.38,319.54 447.19,322.22 452.00,324.90"/>
<circle cx="243.12" cy="208.47" r="4.6" fill="#ffffff" stroke="#1f77b4" stroke-width="2"/>
<text x="249.12" y="202.47" font-family="Arial, sans-serif" font-size="10" fill="#1f77b4">typ 25.6 ohm</text>
<polyline fill="none" stroke="#ff7f0e" stroke-width="1.1" stroke-dasharray="6 4" points="72.00,116.35 76.81,119.03 81.62,121.72 86.43,124.40 91.24,127.08 96.05,129.76 100.86,132.44 105.67,135.12 110.48,137.80 115.29,140.48 120.10,143.17 124.91,145.85 129.72,148.53 134.53,151.21 139.34,153.89 144.15,156.57 148.96,159.25 153.77,161.93 158.58,164.61 163.39,167.30 168.20,169.98 173.01,172.66 177.82,175.34 182.63,178.02 187.44,180.70 192.25,183.38 197.06,186.06 201.87,188.75 206.68,191.43 211.49,194.11 216.30,196.79 221.11,199.47 225.92,202.15 230.73,204.83 235.54,207.51 240.35,210.19 245.16,212.88 249.97,215.56 254.78,218.24 259.59,220.92 264.41,223.60 269.22,226.28 274.03,228.96 278.84,231.64 283.65,234.33 288.46,237.01 293.27,239.69 298.08,242.37 302.89,245.05 307.70,247.73 312.51,250.41 317.32,253.09 322.13,255.78 326.94,258.46 331.75,261.14 336.56,263.82 341.37,266.50 346.18,269.18 350.99,271.86 355.80,274.54 360.61,277.22 365.42,279.91 370.23,282.59 375.04,285.27 379.85,287.95 384.66,290.63 389.47,293.31 394.28,295.99 399.09,298.67 403.90,301.36 408.71,304.04 413.52,306.72 418.33,309.40 423.14,312.08 427.95,314.76 432.76,317.44 437.57,320.12 442.38,322.81 447.19,325.49 452.00,328.17"/>
<circle cx="243.10" cy="211.73" r="4.6" fill="#ffffff" stroke="#ff7f0e" stroke-width="2"/>
<text x="249.10" y="205.73" font-family="Arial, sans-serif" font-size="10" fill="#ff7f0e">min 27.7 ohm</text>
<polyline fill="none" stroke="#2ca02c" stroke-width="1.1" stroke-dasharray="6 4" points="72.00,109.82 76.81,112.50 81.62,115.18 86.43,117.86 91.24,120.54 96.05,123.22 100.86,125.90 105.67,128.58 110.48,131.27 115.29,133.95 120.10,136.63 124.91,139.31 129.72,141.99 134.53,144.67 139.34,147.35 144.15,150.03 148.96,152.71 153.77,155.40 158.58,158.08 163.39,160.76 168.20,163.44 173.01,166.12 177.82,168.80 182.63,171.48 187.44,174.16 192.25,176.85 197.06,179.53 201.87,182.21 206.68,184.89 211.49,187.57 216.30,190.25 221.11,192.93 225.92,195.61 230.73,198.30 235.54,200.98 240.35,203.66 245.16,206.34 249.97,209.02 254.78,211.70 259.59,214.38 264.41,217.06 269.22,219.74 274.03,222.43 278.84,225.11 283.65,227.79 288.46,230.47 293.27,233.15 298.08,235.83 302.89,238.51 307.70,241.19 312.51,243.88 317.32,246.56 322.13,249.24 326.94,251.92 331.75,254.60 336.56,257.28 341.37,259.96 346.18,262.64 350.99,265.32 355.80,268.01 360.61,270.69 365.42,273.37 370.23,276.05 375.04,278.73 379.85,281.41 384.66,284.09 389.47,286.77 394.28,289.46 399.09,292.14 403.90,294.82 408.71,297.50 413.52,300.18 418.33,302.86 423.14,305.54 427.95,308.22 432.76,310.91 437.57,313.59 442.38,316.27 447.19,318.95 452.00,321.63"/>
<circle cx="244.47" cy="205.95" r="4.6" fill="#ffffff" stroke="#2ca02c" stroke-width="2"/>
<text x="250.47" y="199.95" font-family="Arial, sans-serif" font-size="10" fill="#2ca02c">max 25.1 ohm</text>
<line x1="82.00" y1="80.00" x2="104.00" y2="80.00" stroke="#1f77b4" stroke-width="2"/>
<text x="110.00" y="84.00" font-family="Arial, sans-serif" font-size="11">typ</text>
<line x1="82.00" y1="97.00" x2="104.00" y2="97.00" stroke="#ff7f0e" stroke-width="2" stroke-dasharray="5 4"/>
<text x="110.00" y="101.00" font-family="Arial, sans-serif" font-size="11">min</text>
<line x1="82.00" y1="114.00" x2="104.00" y2="114.00" stroke="#2ca02c" stroke-width="2" stroke-dasharray="2 4"/>
<text x="110.00" y="118.00" font-family="Arial, sans-serif" font-size="11">max</text>
<text x="262.00" y="386.00" text-anchor="middle" font-family="Arial, sans-serif" font-size="11">Output voltage (V)</text>
<text transform="translate(22.00 205.00) rotate(-90)" text-anchor="middle" font-family="Arial, sans-serif" font-size="11">Current (mA)</text>
<rect x="492.00" y="62.00" width="380.00" height="286.00" fill="#fbfbfb" stroke="#c8c8c8"/>
<text x="500.00" y="50.00" font-family="Arial, sans-serif" font-size="13" font-weight="700">[Pullup] Rload to GND</text>
<line x1="492.00" y1="62.00" x2="492.00" y2="348.00" stroke="#ececec"/>
<text x="492.00" y="366.00" text-anchor="middle" font-family="Arial, sans-serif" font-size="10">-1.3</text>
<line x1="587.00" y1="62.00" x2="587.00" y2="348.00" stroke="#ececec"/>
<text x="587.00" y="366.00" text-anchor="middle" font-family="Arial, sans-serif" font-size="10">-0.372</text>
<line x1="682.00" y1="62.00" x2="682.00" y2="348.00" stroke="#ececec"/>
<text x="682.00" y="366.00" text-anchor="middle" font-family="Arial, sans-serif" font-size="10">0.6</text>
<line x1="777.00" y1="62.00" x2="777.00" y2="348.00" stroke="#ececec"/>
<text x="777.00" y="366.00" text-anchor="middle" font-family="Arial, sans-serif" font-size="10">1.6</text>
<line x1="872.00" y1="62.00" x2="872.00" y2="348.00" stroke="#ececec"/>
<text x="872.00" y="366.00" text-anchor="middle" font-family="Arial, sans-serif" font-size="10">2.5</text>
<line x1="492.00" y1="348.00" x2="872.00" y2="348.00" stroke="#ececec"/>
<text x="485.00" y="352.00" text-anchor="end" font-family="Arial, sans-serif" font-size="10">-58</text>
<line x1="492.00" y1="276.50" x2="872.00" y2="276.50" stroke="#ececec"/>
<text x="485.00" y="280.50" text-anchor="end" font-family="Arial, sans-serif" font-size="10">-35</text>
<line x1="492.00" y1="205.00" x2="872.00" y2="205.00" stroke="#ececec"/>
<text x="485.00" y="209.00" text-anchor="end" font-family="Arial, sans-serif" font-size="10">-12</text>
<line x1="492.00" y1="133.50" x2="872.00" y2="133.50" stroke="#ececec"/>
<text x="485.00" y="137.50" text-anchor="end" font-family="Arial, sans-serif" font-size="10">11</text>
<line x1="492.00" y1="62.00" x2="872.00" y2="62.00" stroke="#ececec"/>
<text x="485.00" y="66.00" text-anchor="end" font-family="Arial, sans-serif" font-size="10">34</text>
<line x1="623.36" y1="62" x2="623.36" y2="348" stroke="#777" stroke-dasharray="4 4"/>
<line x1="492.0" y1="167.80" x2="872.0" y2="167.80" stroke="#777" stroke-dasharray="4 4"/>
<polyline fill="none" stroke="#1f77b4" stroke-width="1.8" points="506.07,111.94 506.37,112.01 508.42,112.31 511.06,112.76 513.99,113.30 516.34,113.76 518.39,114.16 522.20,114.87 524.55,115.30 527.19,115.78 530.41,116.35 534.52,117.06 537.45,117.57 543.02,118.57 548.88,119.67 554.16,120.73 558.85,121.76 562.66,122.65 565.30,123.33 567.35,123.89 568.82,124.31 570.58,124.85 572.05,125.32 573.81,125.95 575.56,126.60 576.74,127.11 577.32,127.37 578.79,128.02 580.55,128.94 581.43,129.40 583.77,130.84 584.36,131.22 586.41,132.69 587.00,133.13 587.29,133.37 588.76,134.55 589.64,135.28 590.81,136.31 592.28,137.61 594.04,139.26 596.09,141.22 599.90,144.95 609.87,154.81 614.56,159.39 619.25,163.90 623.36,167.80 629.22,173.27 633.91,177.58 638.60,181.82 643.30,185.97 647.11,189.29 649.16,191.02 653.27,194.48 656.49,197.10 658.54,198.74 662.35,201.73 664.99,203.73 667.34,205.49 670.86,208.07 673.79,210.15 676.72,212.20 678.77,213.60 681.41,215.38 683.76,216.92 686.10,218.44 689.92,220.84 691.97,222.08 694.02,223.32 697.83,225.52 699.89,226.68 701.94,227.80 704.28,229.06 705.75,229.82 708.98,231.46 711.91,232.88 713.96,233.85 717.77,235.59 719.24,236.22 723.05,237.85 725.69,238.93 728.62,240.09 732.43,241.55 737.12,243.26 739.76,244.19 745.92,246.28 751.78,248.17 754.72,249.10 760.58,250.87 767.32,252.85 774.36,254.83 781.10,256.65 789.02,258.73 800.16,261.59 812.19,264.61 824.50,267.59 835.64,270.26 857.93,275.52"/>
<polyline fill="none" stroke="#ff7f0e" stroke-width="1.8" stroke-dasharray="5 4" points="506.07,116.52 506.37,116.52 508.42,116.52 511.06,116.52 513.99,116.52 516.34,116.52 518.39,116.52 522.20,116.52 524.55,116.52 527.19,116.52 530.41,116.52 534.52,117.03 537.45,117.48 543.02,118.45 548.88,119.58 554.16,120.70 558.85,121.80 562.66,122.78 565.30,123.52 567.35,124.15 568.82,124.61 570.58,125.22 572.05,125.76 573.81,126.44 575.56,127.20 576.74,127.73 577.32,128.02 578.79,128.75 580.55,129.73 581.43,130.22 583.77,131.71 584.36,132.12 586.41,133.58 587.00,134.04 587.29,134.27 588.76,135.41 589.64,136.16 590.81,137.15 592.28,138.44 594.04,140.02 596.09,141.92 599.90,145.57 609.87,155.19 614.56,159.65 619.25,164.03 623.36,167.80 629.22,173.06 633.91,177.19 638.60,181.24 643.30,185.20 647.11,188.33 649.16,189.99 653.27,193.24 656.49,195.69 658.54,197.24 662.35,200.01 664.99,201.86 667.34,203.46 670.86,205.79 673.79,207.68 676.72,209.48 678.77,210.72 681.41,212.27 683.76,213.60 686.10,214.90 689.92,216.92 691.97,217.96 694.02,218.97 697.83,220.78 699.89,221.70 701.94,222.61 704.28,223.60 705.75,224.21 708.98,225.50 711.91,226.61 713.96,227.37 717.77,228.72 719.24,229.22 723.05,230.49 725.69,231.34 728.62,232.25 732.43,233.39 737.12,234.74 739.76,235.48 745.92,237.14 751.78,238.65 754.72,239.38 760.58,240.82 767.32,242.41 774.36,244.01 781.10,245.49 789.02,247.20 800.16,249.54 812.19,251.99 824.50,254.47 835.64,256.68 857.93,261.03"/>
<polyline fill="none" stroke="#2ca02c" stroke-width="1.8" stroke-dasharray="2 4" points="506.07,110.25 506.37,110.33 508.42,110.93 511.06,111.69 513.99,112.45 516.34,112.99 518.39,113.41 522.20,114.16 524.55,114.61 527.19,115.13 530.41,115.70 534.52,116.42 537.45,116.92 543.02,117.90 548.88,118.99 554.16,120.04 558.85,121.05 562.66,121.93 565.30,122.58 567.35,123.11 568.82,123.52 570.58,124.03 572.05,124.49 573.81,125.06 575.56,125.71 576.74,126.15 577.32,126.39 578.79,127.06 580.55,127.87 581.43,128.38 583.77,129.72 584.36,130.13 586.41,131.60 587.00,132.02 587.29,132.23 588.76,133.47 589.64,134.21 590.81,135.21 592.28,136.60 594.04,138.26 596.09,140.30 599.90,144.15 609.87,154.33 614.56,159.06 619.25,163.74 623.36,167.80 629.22,173.51 633.91,178.02 638.60,182.47 643.30,186.86 647.11,190.36 649.16,192.20 653.27,195.87 656.49,198.75 658.54,200.50 662.35,203.74 664.99,205.97 667.34,207.87 670.86,210.70 673.79,213.05 676.72,215.30 678.77,216.86 681.41,218.89 683.76,220.61 686.10,222.31 689.92,225.08 691.97,226.51 694.02,227.93 697.83,230.56 699.89,231.90 701.94,233.24 704.28,234.77 705.75,235.69 708.98,237.67 711.91,239.46 713.96,240.64 717.77,242.82 719.24,243.63 723.05,245.65 725.69,247.04 728.62,248.48 732.43,250.35 737.12,252.49 739.76,253.68 745.92,256.31 751.78,258.66 754.72,259.78 760.58,261.98 767.32,264.40 774.36,266.81 781.10,269.01 789.02,271.51 800.16,274.89 812.19,278.44 824.50,281.97 835.64,285.07 857.93,291.15"/>
<polyline fill="none" stroke="#1f77b4" stroke-width="1.1" stroke-dasharray="6 4" points="492.00,325.53 496.81,322.48 501.62,319.43 506.43,316.38 511.24,313.33 516.05,310.27 520.86,307.22 525.67,304.17 530.48,301.12 535.29,298.07 540.10,295.02 544.91,291.97 549.72,288.91 554.53,285.86 559.34,282.81 564.15,279.76 568.96,276.71 573.77,273.66 578.58,270.61 583.39,267.55 588.20,264.50 593.01,261.45 597.82,258.40 602.63,255.35 607.44,252.30 612.25,249.25 617.06,246.19 621.87,243.14 626.68,240.09 631.49,237.04 636.30,233.99 641.11,230.94 645.92,227.89 650.73,224.83 655.54,221.78 660.35,218.73 665.16,215.68 669.97,212.63 674.78,209.58 679.59,206.53 684.41,203.47 689.22,200.42 694.03,197.37 698.84,194.32 703.65,191.27 708.46,188.22 713.27,185.17 718.08,182.11 722.89,179.06 727.70,176.01 732.51,172.96 737.32,169.91 742.13,166.86 746.94,163.81 751.75,160.75 756.56,157.70 761.37,154.65 766.18,151.60 770.99,148.55 775.80,145.50 780.61,142.45 785.42,139.39 790.23,136.34 795.04,133.29 799.85,130.24 804.66,127.19 809.47,124.14 814.28,121.09 819.09,118.03 823.90,114.98 828.71,111.93 833.52,108.88 838.33,105.83 843.14,102.78 847.95,99.73 852.76,96.67 857.57,93.62 862.38,90.57 867.19,87.52 872.00,84.47"/>
<circle cx="673.83" cy="210.18" r="4.6" fill="#ffffff" stroke="#1f77b4" stroke-width="2"/>
<text x="679.83" y="204.18" font-family="Arial, sans-serif" font-size="10" fill="#1f77b4">typ 37.8 ohm</text>
<polyline fill="none" stroke="#ff7f0e" stroke-width="1.1" stroke-dasharray="6 4" points="492.00,321.81 496.81,318.76 501.62,315.71 506.43,312.66 511.24,309.60 516.05,306.55 520.86,303.50 525.67,300.45 530.48,297.40 535.29,294.35 540.10,291.30 544.91,288.25 549.72,285.19 554.53,282.14 559.34,279.09 564.15,276.04 568.96,272.99 573.77,269.94 578.58,266.89 583.39,263.83 588.20,260.78 593.01,257.73 597.82,254.68 602.63,251.63 607.44,248.58 612.25,245.53 617.06,242.47 621.87,239.42 626.68,236.37 631.49,233.32 636.30,230.27 641.11,227.22 645.92,224.17 650.73,221.11 655.54,218.06 660.35,215.01 665.16,211.96 669.97,208.91 674.78,205.86 679.59,202.81 684.41,199.75 689.22,196.70 694.03,193.65 698.84,190.60 703.65,187.55 708.46,184.50 713.27,181.45 718.08,178.39 722.89,175.34 727.70,172.29 732.51,169.24 737.32,166.19 742.13,163.14 746.94,160.09 751.75,157.03 756.56,153.98 761.37,150.93 766.18,147.88 770.99,144.83 775.80,141.78 780.61,138.73 785.42,135.67 790.23,132.62 795.04,129.57 799.85,126.52 804.66,123.47 809.47,120.42 814.28,117.37 819.09,114.31 823.90,111.26 828.71,108.21 833.52,105.16 838.33,102.11 843.14,99.06 847.95,96.01 852.76,92.95 857.57,89.90 862.38,86.85 867.19,83.80 872.00,80.75"/>
<circle cx="672.86" cy="207.08" r="4.6" fill="#ffffff" stroke="#ff7f0e" stroke-width="2"/>
<text x="678.86" y="201.08" font-family="Arial, sans-serif" font-size="10" fill="#ff7f0e">min 40 ohm</text>
<polyline fill="none" stroke="#2ca02c" stroke-width="1.1" stroke-dasharray="6 4" points="492.00,329.25 496.81,326.20 501.62,323.15 506.43,320.10 511.24,317.05 516.05,313.99 520.86,310.94 525.67,307.89 530.48,304.84 535.29,301.79 540.10,298.74 544.91,295.69 549.72,292.63 554.53,289.58 559.34,286.53 564.15,283.48 568.96,280.43 573.77,277.38 578.58,274.33 583.39,271.27 588.20,268.22 593.01,265.17 597.82,262.12 602.63,259.07 607.44,256.02 612.25,252.97 617.06,249.91 621.87,246.86 626.68,243.81 631.49,240.76 636.30,237.71 641.11,234.66 645.92,231.61 650.73,228.55 655.54,225.50 660.35,222.45 665.16,219.40 669.97,216.35 674.78,213.30 679.59,210.25 684.41,207.19 689.22,204.14 694.03,201.09 698.84,198.04 703.65,194.99 708.46,191.94 713.27,188.89 718.08,185.83 722.89,182.78 727.70,179.73 732.51,176.68 737.32,173.63 742.13,170.58 746.94,167.53 751.75,164.47 756.56,161.42 761.37,158.37 766.18,155.32 770.99,152.27 775.80,149.22 780.61,146.17 785.42,143.11 790.23,140.06 795.04,137.01 799.85,133.96 804.66,130.91 809.47,127.86 814.28,124.81 819.09,121.75 823.90,118.70 828.71,115.65 833.52,112.60 838.33,109.55 843.14,106.50 847.95,103.45 852.76,100.40 857.57,97.34 862.38,94.29 867.19,91.24 872.00,88.19"/>
<circle cx="674.42" cy="213.53" r="4.6" fill="#ffffff" stroke="#2ca02c" stroke-width="2"/>
<text x="680.42" y="207.53" font-family="Arial, sans-serif" font-size="10" fill="#2ca02c">max 35.4 ohm</text>
<line x1="502.00" y1="80.00" x2="524.00" y2="80.00" stroke="#1f77b4" stroke-width="2"/>
<text x="530.00" y="84.00" font-family="Arial, sans-serif" font-size="11">typ</text>
<line x1="502.00" y1="97.00" x2="524.00" y2="97.00" stroke="#ff7f0e" stroke-width="2" stroke-dasharray="5 4"/>
<text x="530.00" y="101.00" font-family="Arial, sans-serif" font-size="11">min</text>
<line x1="502.00" y1="114.00" x2="524.00" y2="114.00" stroke="#2ca02c" stroke-width="2" stroke-dasharray="2 4"/>
<text x="530.00" y="118.00" font-family="Arial, sans-serif" font-size="11">max</text>
<text x="682.00" y="386.00" text-anchor="middle" font-family="Arial, sans-serif" font-size="11">Vcc-relative table voltage (V)</text>
<text transform="translate(442.00 205.00) rotate(-90)" text-anchor="middle" font-family="Arial, sans-serif" font-size="11">Current (mA)</text>
<rect x="72.00" y="418.00" width="800.00" height="144.00" fill="#ffffff" stroke="#c8c8c8"/>
<text x="82.00" y="436.00" font-family="Arial, sans-serif" font-size="12" font-weight="700">Operating-point summary</text>
<text x="82.00" y="454.00" font-family="Arial, sans-serif" font-size="10" font-weight="700" fill="#333">Table</text>
<text x="174.00" y="454.00" font-family="Arial, sans-serif" font-size="10" font-weight="700" fill="#333">Corner</text>
<text x="242.00" y="454.00" font-family="Arial, sans-serif" font-size="10" font-weight="700" fill="#333">Vout</text>
<text x="332.00" y="454.00" font-family="Arial, sans-serif" font-size="10" font-weight="700" fill="#333">Iop</text>
<text x="422.00" y="454.00" font-family="Arial, sans-serif" font-size="10" font-weight="700" fill="#333">Zout</text>
<text x="512.00" y="454.00" font-family="Arial, sans-serif" font-size="10" font-weight="700" fill="#333">Rseries</text>
<text x="82.00" y="473.00" font-family="Arial, sans-serif" font-size="10" fill="#1f77b4">pulldown</text>
<text x="174.00" y="473.00" font-family="Arial, sans-serif" font-size="10" fill="#1f77b4">typ</text>
<text x="242.00" y="473.00" font-family="Arial, sans-serif" font-size="10" fill="#1f77b4">0.4068 V</text>
<text x="332.00" y="473.00" font-family="Arial, sans-serif" font-size="10" fill="#1f77b4">16 mA</text>
<text x="422.00" y="473.00" font-family="Arial, sans-serif" font-size="10" fill="#1f77b4">25.6 ohm</text>
<text x="512.00" y="473.00" font-family="Arial, sans-serif" font-size="10" fill="#1f77b4">24.4 ohm</text>
<text x="82.00" y="492.00" font-family="Arial, sans-serif" font-size="10" fill="#ff7f0e">pulldown</text>
<text x="174.00" y="492.00" font-family="Arial, sans-serif" font-size="10" fill="#ff7f0e">min</text>
<text x="242.00" y="492.00" font-family="Arial, sans-serif" font-size="10" fill="#ff7f0e">0.4067 V</text>
<text x="332.00" y="492.00" font-family="Arial, sans-serif" font-size="10" fill="#ff7f0e">15 mA</text>
<text x="422.00" y="492.00" font-family="Arial, sans-serif" font-size="10" fill="#ff7f0e">27.7 ohm</text>
<text x="512.00" y="492.00" font-family="Arial, sans-serif" font-size="10" fill="#ff7f0e">22.3 ohm</text>
<text x="82.00" y="511.00" font-family="Arial, sans-serif" font-size="10" fill="#2ca02c">pulldown</text>
<text x="174.00" y="511.00" font-family="Arial, sans-serif" font-size="10" fill="#2ca02c">max</text>
<text x="242.00" y="511.00" font-family="Arial, sans-serif" font-size="10" fill="#2ca02c">0.4207 V</text>
<text x="332.00" y="511.00" font-family="Arial, sans-serif" font-size="10" fill="#2ca02c">17 mA</text>
<text x="422.00" y="511.00" font-family="Arial, sans-serif" font-size="10" fill="#2ca02c">25.1 ohm</text>
<text x="512.00" y="511.00" font-family="Arial, sans-serif" font-size="10" fill="#2ca02c">24.9 ohm</text>
<text x="82.00" y="530.00" font-family="Arial, sans-serif" font-size="10" fill="#1f77b4">pullup</text>
<text x="174.00" y="530.00" font-family="Arial, sans-serif" font-size="10" fill="#1f77b4">typ</text>
<text x="242.00" y="530.00" font-family="Arial, sans-serif" font-size="10" fill="#1f77b4">0.6835 V</text>
<text x="332.00" y="530.00" font-family="Arial, sans-serif" font-size="10" fill="#1f77b4">-14 mA</text>
<text x="422.00" y="530.00" font-family="Arial, sans-serif" font-size="10" fill="#1f77b4">37.8 ohm</text>
<text x="512.00" y="530.00" font-family="Arial, sans-serif" font-size="10" fill="#1f77b4">12.2 ohm</text>
<text x="82.00" y="549.00" font-family="Arial, sans-serif" font-size="10" fill="#ff7f0e">pullup</text>
<text x="174.00" y="549.00" font-family="Arial, sans-serif" font-size="10" fill="#ff7f0e">min</text>
<text x="242.00" y="549.00" font-family="Arial, sans-serif" font-size="10" fill="#ff7f0e">0.6335 V</text>
<text x="332.00" y="549.00" font-family="Arial, sans-serif" font-size="10" fill="#ff7f0e">-13 mA</text>
<text x="422.00" y="549.00" font-family="Arial, sans-serif" font-size="10" fill="#ff7f0e">40 ohm</text>
<text x="512.00" y="549.00" font-family="Arial, sans-serif" font-size="10" fill="#ff7f0e">10 ohm</text>
<text x="82.00" y="568.00" font-family="Arial, sans-serif" font-size="10" fill="#2ca02c">pullup</text>
<text x="174.00" y="568.00" font-family="Arial, sans-serif" font-size="10" fill="#2ca02c">max</text>
<text x="242.00" y="568.00" font-family="Arial, sans-serif" font-size="10" fill="#2ca02c">0.7376 V</text>
<text x="332.00" y="568.00" font-family="Arial, sans-serif" font-size="10" fill="#2ca02c">-15 mA</text>
<text x="422.00" y="568.00" font-family="Arial, sans-serif" font-size="10" fill="#2ca02c">35.4 ohm</text>
<text x="512.00" y="568.00" font-family="Arial, sans-serif" font-size="10" fill="#2ca02c">14.6 ohm</text>
</svg>