<svg xmlns="http://www.w3.org/2000/svg" width="800" height="560" viewBox="0 0 800 560">
<rect width="100%" height="100%" fill="#ffffff"/>
<text x="78" y="25" font-family="Arial, sans-serif" font-size="16" font-weight="700">DQ_IN_ODTOFF_4800 I-V Clamp Sweep Range</text>
<rect x="78" y="52" width="694" height="348" fill="#fbfbfb" stroke="#c8c8c8"/>
<line x1="78.00" y1="52" x2="78.00" y2="400" stroke="#ececec"/>
<text x="78.00" y="422" text-anchor="middle" font-family="Arial, sans-serif" font-size="11">-1.3</text>
<line x1="216.80" y1="52" x2="216.80" y2="400" stroke="#ececec"/>
<text x="216.80" y="422" text-anchor="middle" font-family="Arial, sans-serif" font-size="11">-0.539</text>
<line x1="355.60" y1="52" x2="355.60" y2="400" stroke="#ececec"/>
<text x="355.60" y="422" text-anchor="middle" font-family="Arial, sans-serif" font-size="11">0.187</text>
<line x1="494.40" y1="52" x2="494.40" y2="400" stroke="#ececec"/>
<text x="494.40" y="422" text-anchor="middle" font-family="Arial, sans-serif" font-size="11">0.913</text>
<line x1="633.20" y1="52" x2="633.20" y2="400" stroke="#ececec"/>
<text x="633.20" y="422" text-anchor="middle" font-family="Arial, sans-serif" font-size="11">1.6</text>
<line x1="772.00" y1="52" x2="772.00" y2="400" stroke="#ececec"/>
<text x="772.00" y="422" text-anchor="middle" font-family="Arial, sans-serif" font-size="11">2.4</text>
<line x1="78" y1="400.00" x2="772" y2="400.00" stroke="#ececec"/>
<text x="70" y="404.00" text-anchor="end" font-family="Arial, sans-serif" font-size="11">-0.0785</text>
<line x1="78" y1="330.40" x2="772" y2="330.40" stroke="#ececec"/>
<text x="70" y="334.40" text-anchor="end" font-family="Arial, sans-serif" font-size="11">-0.0481</text>
<line x1="78" y1="260.80" x2="772" y2="260.80" stroke="#ececec"/>
<text x="70" y="264.80" text-anchor="end" font-family="Arial, sans-serif" font-size="11">-0.0177</text>
<line x1="78" y1="191.20" x2="772" y2="191.20" stroke="#ececec"/>
<text x="70" y="195.20" text-anchor="end" font-family="Arial, sans-serif" font-size="11">0.0127</text>
<line x1="78" y1="121.60" x2="772" y2="121.60" stroke="#ececec"/>
<text x="70" y="125.60" text-anchor="end" font-family="Arial, sans-serif" font-size="11">0.0431</text>
<line x1="78" y1="52.00" x2="772" y2="52.00" stroke="#ececec"/>
<text x="70" y="56.00" text-anchor="end" font-family="Arial, sans-serif" font-size="11">0.0735</text>
<line x1="319.85" y1="52" x2="319.85" y2="400" stroke="#777" stroke-dasharray="4 4"/>
<line x1="78" y1="220.31" x2="772" y2="220.31" stroke="#777" stroke-dasharray="4 4"/>
<line x1="109.55" y1="52" x2="109.55" y2="400" stroke="#555" stroke-dasharray="2 4"/>
<text x="113.55" y="66" font-family="Arial, sans-serif" font-size="11" fill="#555">-Vcc</text>
<line x1="530.15" y1="52" x2="530.15" y2="400" stroke="#555" stroke-dasharray="2 4"/>
<text x="534.15" y="66" font-family="Arial, sans-serif" font-size="11" fill="#555">Vcc</text>
<line x1="740.45" y1="52" x2="740.45" y2="400" stroke="#555" stroke-dasharray="2 4"/>
<text x="744.45" y="66" font-family="Arial, sans-serif" font-size="11" fill="#555">2Vcc</text>
<polyline fill="none" stroke="#2ca02c" stroke-width="1.2" opacity="0.55" stroke-dasharray="4 4" points="109.55,366.46 110.69,362.67 111.84,358.92 112.99,355.21 114.13,351.54 114.71,349.72 115.28,347.92 115.85,346.12 116.43,344.34 117.00,342.57 118.15,339.08 118.72,337.35 119.30,335.63 119.87,333.94 120.44,332.25 121.59,328.92 122.16,327.27 122.74,325.66 123.31,324.05 123.88,322.46 124.46,320.89 125.03,319.32 125.60,317.80 126.18,316.28 126.75,314.78 127.33,313.30 127.90,311.83 129.05,308.99 129.62,307.59 130.19,306.22 130.77,304.85 131.91,302.23 132.49,300.96 133.06,299.74 134.21,297.30 134.78,296.08 135.36,294.90 136.50,292.71 137.65,290.52 138.22,289.46 139.37,287.52 140.52,285.58 141.09,284.64 142.24,282.93 143.96,280.40 145.68,278.16 146.83,276.68 149.12,274.04 149.69,273.39 152.56,270.46 155.43,267.81 157.72,265.87 158.87,264.93 161.17,263.10 163.46,261.36 166.33,259.24 169.20,257.23 172.06,255.25 174.93,253.31 178.95,250.65 184.11,247.34 188.70,244.48 192.71,242.06 195.58,240.39 199.59,238.09 202.46,236.52 204.76,235.28 207.05,234.10 209.92,232.64 212.21,231.55 215.08,230.21 219.09,228.49 220.81,227.80 223.11,226.93 224.26,226.50 225.40,226.09 227.12,225.54 228.27,225.17 229.99,224.63 232.29,224.02 234.01,223.59 235.73,223.16 236.30,223.05 238.02,222.72 240.32,222.29 241.46,222.10 244.33,221.70 246.05,221.47 248.35,221.26 251.21,221.00 254.65,220.80 257.52,220.67 260.96,220.55 266.70,220.43 274.16,220.36 297.10,220.31 740.45,220.31"/>
<polyline fill="none" stroke="#2ca02c" stroke-width="1.2" opacity="0.55" stroke-dasharray="4 4" points="109.55,376.00 110.69,370.91 111.84,365.93 112.99,361.07 114.13,356.33 114.71,354.02 115.28,351.74 115.85,349.50 116.43,347.30 117.00,345.14 118.15,340.96 118.72,338.89 119.30,336.93 119.87,334.97 120.44,333.08 121.59,329.40 122.16,327.68 122.74,325.98 123.31,324.32 123.88,322.75 124.46,321.17 125.03,319.71 125.60,318.27 126.18,316.86 126.75,315.55 127.33,314.24 127.90,313.01 129.05,310.65 129.62,309.57 130.19,308.50 130.77,307.49 131.91,305.57 132.49,304.69 133.06,303.82 134.21,302.20 134.78,301.40 135.36,300.66 136.50,299.21 137.65,297.86 138.22,297.19 139.37,295.87 140.52,294.67 141.09,294.07 142.24,292.88 143.96,291.21 145.68,289.57 146.83,288.50 149.12,286.40 149.69,285.89 152.56,283.33 155.43,280.82 157.72,278.83 158.87,277.85 161.17,275.89 163.46,273.94 166.33,271.52 169.20,269.13 172.06,266.75 174.93,264.40 178.95,261.15 184.11,257.05 188.70,253.47 192.71,250.40 195.58,248.26 199.59,245.32 202.46,243.27 204.76,241.66 207.05,240.09 209.92,238.18 212.21,236.70 215.08,234.89 219.09,232.50 220.81,231.54 223.11,230.29 224.26,229.69 225.40,229.12 227.12,228.27 228.27,227.73 229.99,226.97 232.29,225.99 234.01,225.35 235.73,224.72 236.30,224.50 238.02,223.99 240.32,223.30 241.46,223.01 244.33,222.34 246.05,222.03 248.35,221.65 251.21,221.27 254.65,220.95 257.52,220.75 260.96,220.58 266.70,220.43 274.16,220.35 297.10,220.31 740.45,220.31"/>
<polyline fill="none" stroke="#2ca02c" stroke-width="2.0" opacity="1.0" points="109.55,371.03 110.69,366.69 111.84,362.40 112.99,358.18 114.13,354.03 114.71,351.99 115.28,349.96 115.85,347.96 116.43,345.97 117.00,344.01 118.15,340.17 118.72,338.26 119.30,336.38 119.87,334.55 120.44,332.71 121.59,329.17 122.16,327.41 122.74,325.72 123.31,324.03 123.88,322.38 124.46,320.82 125.03,319.27 125.60,317.71 126.18,316.16 126.75,314.60 127.33,313.18 127.90,311.80 129.05,309.04 129.62,307.66 130.19,306.42 130.77,305.22 131.91,302.80 132.49,301.59 133.06,300.54 134.21,298.47 134.78,297.42 135.36,296.39 136.50,294.61 137.65,292.83 138.22,291.96 139.37,290.42 140.52,288.88 141.09,288.14 142.24,286.78 143.96,284.77 145.68,282.94 146.83,281.76 149.12,279.58 149.69,279.06 152.56,276.60 155.43,274.18 157.72,272.20 158.87,271.29 161.17,269.46 163.46,267.57 166.33,265.44 169.20,263.22 172.06,261.07 174.93,258.91 178.95,255.95 184.11,252.23 188.70,248.99 192.71,246.22 195.58,244.29 199.59,241.65 202.46,239.82 204.76,238.39 207.05,237.01 209.92,235.32 212.21,234.00 215.08,232.42 219.09,230.35 220.81,229.53 223.11,228.45 224.26,227.95 225.40,227.45 227.12,226.74 228.27,226.30 229.99,225.63 232.29,224.86 234.01,224.30 235.73,223.82 236.30,223.65 238.02,223.21 240.32,222.68 241.46,222.45 244.33,221.93 246.05,221.69 248.35,221.39 251.21,221.10 254.65,220.84 257.52,220.68 260.96,220.55 266.70,220.42 274.16,220.35 297.10,220.31 740.45,220.31"/>
<polyline fill="none" stroke="#9467bd" stroke-width="1.2" opacity="0.55" stroke-dasharray="4 4" points="109.55,80.18 110.12,81.85 111.27,85.11 112.41,88.35 113.56,91.57 114.71,94.78 115.85,97.97 117.00,101.14 118.72,105.85 119.87,108.96 120.44,110.51 121.59,113.58 122.16,115.11 122.74,116.63 123.31,118.14 123.88,119.65 124.46,121.15 125.60,124.12 126.18,125.60 126.75,127.06 127.33,128.52 127.90,129.98 129.05,132.85 129.62,134.27 130.19,135.68 130.77,137.10 131.91,139.87 132.49,141.24 133.06,142.58 133.63,143.93 134.78,146.61 135.36,147.93 135.93,149.21 136.50,150.50 137.65,153.06 138.22,154.31 138.80,155.53 139.37,156.73 140.52,159.15 141.09,160.34 141.66,161.47 142.24,162.59 143.39,164.85 143.96,165.96 145.11,168.03 146.25,170.10 146.83,171.11 147.97,172.98 149.12,174.85 149.69,175.77 150.84,177.42 151.99,179.07 152.56,179.89 154.86,182.75 155.43,183.47 157.72,185.92 158.30,186.53 160.59,188.61 161.17,189.13 163.46,190.91 164.03,191.36 166.90,193.30 169.77,194.88 172.64,196.44 174.93,197.51 178.37,199.07 183.53,201.20 189.27,203.39 195.00,205.49 200.17,207.31 205.33,209.04 209.92,210.51 213.93,211.74 217.37,212.74 220.24,213.56 223.68,214.46 225.98,215.04 228.27,215.59 230.57,216.13 232.86,216.60 235.73,217.19 237.45,217.49 240.89,218.08 244.33,218.56 246.62,218.86 248.35,219.04 251.21,219.34 254.65,219.59 256.95,219.74 260.39,219.91 263.83,220.03 268.42,220.15 276.45,220.25 292.51,220.30 740.45,220.31"/>
<polyline fill="none" stroke="#9467bd" stroke-width="1.2" opacity="0.55" stroke-dasharray="4 4" points="109.55,76.00 110.12,78.58 111.27,83.69 112.41,88.73 113.56,93.71 114.71,98.61 115.85,103.43 117.00,108.15 118.72,115.07 119.87,119.54 120.44,121.73 121.59,126.05 122.16,128.13 122.74,130.20 123.31,132.24 123.88,134.22 124.46,136.19 125.60,139.96 126.18,141.81 126.75,143.58 127.33,145.35 127.90,147.03 129.05,150.31 129.62,151.84 130.19,153.37 130.77,154.80 131.91,157.57 132.49,158.83 133.06,160.09 133.63,161.27 134.78,163.52 135.36,164.52 135.93,165.51 136.50,166.43 137.65,168.09 138.22,168.91 138.80,169.74 139.37,170.50 140.52,171.77 141.09,172.40 141.66,173.03 142.24,173.63 143.39,174.63 143.96,175.13 145.11,176.12 146.25,176.95 146.83,177.36 147.97,178.18 149.12,178.90 149.69,179.27 150.84,179.99 151.99,180.64 152.56,180.97 154.86,182.25 155.43,182.56 157.72,183.79 158.30,184.09 160.59,185.28 161.17,185.57 163.46,186.73 164.03,187.02 166.90,188.44 169.77,189.85 172.64,191.24 174.93,192.35 178.37,193.98 183.53,196.40 189.27,199.03 195.00,201.59 200.17,203.83 205.33,205.99 209.92,207.84 213.93,209.40 217.37,210.68 220.24,211.71 223.68,212.89 225.98,213.63 228.27,214.35 230.57,215.03 232.86,215.68 235.73,216.43 237.45,216.84 240.89,217.61 244.33,218.27 246.62,218.63 248.35,218.88 251.21,219.24 254.65,219.57 256.95,219.74 260.39,219.94 263.83,220.07 268.42,220.18 276.45,220.27 292.51,220.31 740.45,220.31"/>
<polyline fill="none" stroke="#9467bd" stroke-width="2.0" opacity="1.0" points="109.55,79.83 110.12,81.82 111.27,85.78 112.41,89.70 113.56,93.60 114.71,97.46 115.85,101.28 117.00,105.06 118.72,110.66 119.87,114.33 120.44,116.16 121.59,119.75 122.16,121.54 122.74,123.30 123.31,125.05 123.88,126.80 124.46,128.49 125.60,131.86 126.18,133.55 126.75,135.24 127.33,136.86 127.90,138.46 129.05,141.65 129.62,143.24 130.19,144.75 130.77,146.24 131.91,149.22 132.49,150.71 133.06,152.08 133.63,153.45 134.78,156.18 135.36,157.54 135.93,158.77 136.50,160.00 137.65,162.45 138.22,163.65 138.80,164.73 139.37,165.80 140.52,167.94 141.09,168.98 141.66,169.89 142.24,170.81 143.39,172.63 143.96,173.49 145.11,175.03 146.25,176.56 146.83,177.26 147.97,178.52 149.12,179.79 149.69,180.35 150.84,181.39 151.99,182.42 152.56,182.88 154.86,184.60 155.43,184.98 157.72,186.48 158.30,186.83 160.59,188.20 161.17,188.50 163.46,189.71 164.03,189.99 166.90,191.39 169.77,192.76 172.64,194.08 174.93,195.11 178.37,196.63 183.53,198.86 189.27,201.26 195.00,203.59 200.17,205.63 205.33,207.58 209.92,209.25 213.93,210.66 217.37,211.80 220.24,212.72 223.68,213.78 225.98,214.45 228.27,215.07 230.57,215.68 232.86,216.24 235.73,216.90 237.45,217.27 240.89,217.93 244.33,218.50 246.62,218.81 248.35,219.03 251.21,219.33 254.65,219.62 256.95,219.77 260.39,219.95 263.83,220.08 268.42,220.18 276.45,220.27 292.51,220.31 740.45,220.31"/>
<line x1="88" y1="70" x2="110" y2="70" stroke="#2ca02c" stroke-width="2.4"/>
<text x="116" y="74" font-family="Arial, sans-serif" font-size="12">[GND Clamp]</text>
<line x1="88" y1="88" x2="110" y2="88" stroke="#9467bd" stroke-width="2.4"/>
<text x="116" y="92" font-family="Arial, sans-serif" font-size="12">[POWER Clamp]</text>
<text x="425.00" y="444.00" text-anchor="middle" font-family="Arial, sans-serif" font-size="12">Table voltage (V)</text>
<text transform="translate(18 226.00) rotate(-90)" text-anchor="middle" font-family="Arial, sans-serif" font-size="12">Current (A)</text>
<text x="420" y="42" font-family="Arial, sans-serif" font-size="11" fill="#555">solid=typ, dashed=min/max; dashed vertical=required sweep boundary (5.3.4/5.3.5)</text>
</svg>