<svg xmlns="http://www.w3.org/2000/svg" width="800" height="560" viewBox="0 0 800 560">
<rect width="100%" height="100%" fill="#ffffff"/>
<text x="78" y="25" font-family="Arial, sans-serif" font-size="16" font-weight="700">NF_DQ I-V Clamp Sweep Range</text>
<rect x="78" y="52" width="694" height="348" fill="#fbfbfb" stroke="#c8c8c8"/>
<line x1="78.00" y1="52" x2="78.00" y2="400" stroke="#ececec"/>
<text x="78.00" y="422" text-anchor="middle" font-family="Arial, sans-serif" font-size="11">-1.3</text>
<line x1="216.80" y1="52" x2="216.80" y2="400" stroke="#ececec"/>
<text x="216.80" y="422" text-anchor="middle" font-family="Arial, sans-serif" font-size="11">-0.539</text>
<line x1="355.60" y1="52" x2="355.60" y2="400" stroke="#ececec"/>
<text x="355.60" y="422" text-anchor="middle" font-family="Arial, sans-serif" font-size="11">0.187</text>
<line x1="494.40" y1="52" x2="494.40" y2="400" stroke="#ececec"/>
<text x="494.40" y="422" text-anchor="middle" font-family="Arial, sans-serif" font-size="11">0.913</text>
<line x1="633.20" y1="52" x2="633.20" y2="400" stroke="#ececec"/>
<text x="633.20" y="422" text-anchor="middle" font-family="Arial, sans-serif" font-size="11">1.6</text>
<line x1="772.00" y1="52" x2="772.00" y2="400" stroke="#ececec"/>
<text x="772.00" y="422" text-anchor="middle" font-family="Arial, sans-serif" font-size="11">2.4</text>
<line x1="78" y1="400.00" x2="772" y2="400.00" stroke="#ececec"/>
<text x="70" y="404.00" text-anchor="end" font-family="Arial, sans-serif" font-size="11">-0.0736</text>
<line x1="78" y1="330.40" x2="772" y2="330.40" stroke="#ececec"/>
<text x="70" y="334.40" text-anchor="end" font-family="Arial, sans-serif" font-size="11">-0.0575</text>
<line x1="78" y1="260.80" x2="772" y2="260.80" stroke="#ececec"/>
<text x="70" y="264.80" text-anchor="end" font-family="Arial, sans-serif" font-size="11">-0.0415</text>
<line x1="78" y1="191.20" x2="772" y2="191.20" stroke="#ececec"/>
<text x="70" y="195.20" text-anchor="end" font-family="Arial, sans-serif" font-size="11">-0.0254</text>
<line x1="78" y1="121.60" x2="772" y2="121.60" stroke="#ececec"/>
<text x="70" y="125.60" text-anchor="end" font-family="Arial, sans-serif" font-size="11">-0.00935</text>
<line x1="78" y1="52.00" x2="772" y2="52.00" stroke="#ececec"/>
<text x="70" y="56.00" text-anchor="end" font-family="Arial, sans-serif" font-size="11">0.00671</text>
<line x1="319.85" y1="52" x2="319.85" y2="400" stroke="#777" stroke-dasharray="4 4"/>
<line x1="78" y1="81.08" x2="772" y2="81.08" stroke="#777" stroke-dasharray="4 4"/>
<line x1="109.55" y1="52" x2="109.55" y2="400" stroke="#555" stroke-dasharray="2 4"/>
<text x="113.55" y="66" font-family="Arial, sans-serif" font-size="11" fill="#555">-Vcc</text>
<line x1="530.15" y1="52" x2="530.15" y2="400" stroke="#555" stroke-dasharray="2 4"/>
<text x="534.15" y="66" font-family="Arial, sans-serif" font-size="11" fill="#555">Vcc</text>
<line x1="740.45" y1="52" x2="740.45" y2="400" stroke="#555" stroke-dasharray="2 4"/>
<text x="744.45" y="66" font-family="Arial, sans-serif" font-size="11" fill="#555">2Vcc</text>
<polyline fill="none" stroke="#2ca02c" stroke-width="1.2" opacity="0.55" stroke-dasharray="4 4" points="109.55,357.93 110.69,350.74 111.84,343.64 112.99,336.61 114.13,329.66 114.71,326.23 115.28,322.81 115.85,319.41 116.43,316.03 117.00,312.68 118.15,306.07 118.72,302.79 119.30,299.53 119.87,296.32 120.44,293.11 121.59,286.82 122.16,283.70 122.74,280.64 123.31,277.58 123.88,274.58 124.46,271.60 125.03,268.63 125.60,265.75 126.18,262.86 126.75,260.03 127.33,257.23 127.90,254.45 129.05,249.05 129.62,246.41 130.19,243.82 130.77,241.22 131.91,236.26 132.49,233.86 133.06,231.54 134.21,226.91 134.78,224.60 135.36,222.38 136.50,218.23 137.65,214.07 138.22,212.07 139.37,208.39 140.52,204.72 141.09,202.93 142.24,199.70 143.96,194.90 145.68,190.66 146.83,187.85 149.12,182.86 149.69,181.63 152.56,176.08 155.43,171.06 157.72,167.38 158.87,165.59 161.17,162.14 163.46,158.83 166.33,154.83 169.20,151.02 172.06,147.25 174.93,143.59 178.95,138.55 184.11,132.28 188.70,126.86 192.71,122.28 195.58,119.10 199.59,114.75 202.46,111.78 204.76,109.44 207.05,107.19 209.92,104.44 212.21,102.37 215.08,99.83 219.09,96.56 220.81,95.26 223.11,93.62 224.26,92.80 225.40,92.02 227.12,90.98 228.27,90.29 229.99,89.25 232.29,88.11 234.01,87.28 235.73,86.48 236.30,86.27 238.02,85.65 240.32,84.82 241.46,84.47 244.33,83.71 246.05,83.27 248.35,82.87 251.21,82.38 254.65,82.01 257.52,81.75 260.96,81.53 266.70,81.30 274.16,81.17 297.10,81.08 740.45,81.08"/>
<polyline fill="none" stroke="#2ca02c" stroke-width="1.2" opacity="0.55" stroke-dasharray="4 4" points="109.55,376.00 110.69,366.35 111.84,356.92 112.99,347.71 114.13,338.74 114.71,334.36 115.28,330.04 115.85,325.80 116.43,321.63 117.00,317.53 118.15,309.62 118.72,305.70 119.30,301.99 119.87,298.28 120.44,294.69 121.59,287.73 122.16,284.47 122.74,281.24 123.31,278.10 123.88,275.12 124.46,272.14 125.03,269.37 125.60,266.64 126.18,263.98 126.75,261.49 127.33,259.00 127.90,256.68 129.05,252.21 129.62,250.17 130.19,248.13 130.77,246.22 131.91,242.58 132.49,240.93 133.06,239.27 134.21,236.20 134.78,234.69 135.36,233.28 136.50,230.53 137.65,227.98 138.22,226.71 139.37,224.21 140.52,221.93 141.09,220.80 142.24,218.55 143.96,215.38 145.68,212.27 146.83,210.25 149.12,206.28 149.69,205.30 152.56,200.46 155.43,195.70 157.72,191.94 158.87,190.07 161.17,186.35 163.46,182.66 166.33,178.09 169.20,173.55 172.06,169.06 174.93,164.60 178.95,158.44 184.11,150.67 188.70,143.89 192.71,138.08 195.58,134.01 199.59,128.45 202.46,124.57 204.76,121.53 207.05,118.55 209.92,114.92 212.21,112.13 215.08,108.69 219.09,104.16 220.81,102.35 223.11,99.97 224.26,98.84 225.40,97.77 227.12,96.15 228.27,95.12 229.99,93.70 232.29,91.83 234.01,90.63 235.73,89.42 236.30,89.02 238.02,88.04 240.32,86.73 241.46,86.20 244.33,84.92 246.05,84.34 248.35,83.62 251.21,82.90 254.65,82.28 257.52,81.90 260.96,81.59 266.70,81.31 274.16,81.15 297.10,81.08 740.45,81.08"/>
<polyline fill="none" stroke="#2ca02c" stroke-width="2.0" opacity="1.0" points="109.55,366.58 110.69,358.36 111.84,350.24 112.99,342.24 114.13,334.38 114.71,330.51 115.28,326.67 115.85,322.87 116.43,319.11 117.00,315.39 118.15,308.12 118.72,304.51 119.30,300.95 119.87,297.48 120.44,294.00 121.59,287.28 122.16,283.95 122.74,280.75 123.31,277.56 123.88,274.42 124.46,271.47 125.03,268.53 125.60,265.58 126.18,262.64 126.75,259.70 127.33,257.00 127.90,254.38 129.05,249.15 129.62,246.54 130.19,244.20 130.77,241.91 131.91,237.34 132.49,235.05 133.06,233.06 134.21,229.13 134.78,227.15 135.36,225.20 136.50,221.83 137.65,218.45 138.22,216.80 139.37,213.88 140.52,210.97 141.09,209.56 142.24,206.99 143.96,203.18 145.68,199.72 146.83,197.47 149.12,193.35 149.69,192.37 152.56,187.70 155.43,183.12 157.72,179.37 158.87,177.65 161.17,174.18 163.46,170.61 166.33,166.57 169.20,162.37 172.06,158.28 174.93,154.19 178.95,148.59 184.11,141.54 188.70,135.39 192.71,130.16 195.58,126.50 199.59,121.50 202.46,118.03 204.76,115.33 207.05,112.70 209.92,109.50 212.21,107.01 215.08,104.02 219.09,100.09 220.81,98.53 223.11,96.50 224.26,95.55 225.40,94.61 227.12,93.26 228.27,92.42 229.99,91.16 232.29,89.69 234.01,88.64 235.73,87.72 236.30,87.41 238.02,86.56 240.32,85.57 241.46,85.12 244.33,84.15 246.05,83.69 248.35,83.12 251.21,82.56 254.65,82.07 257.52,81.78 260.96,81.53 266.70,81.29 274.16,81.16 297.10,81.08 740.45,81.08"/>
<polyline fill="none" stroke="#9467bd" stroke-width="1.2" opacity="0.55" stroke-dasharray="4 4" points="109.55,76.00 120.06,76.05 133.20,76.12 148.98,76.21 161.25,76.29 172.64,76.38 181.40,76.45 189.29,76.52 195.42,76.59 199.80,76.63 202.43,76.66 209.44,76.75 214.70,76.83 216.45,76.86 219.08,76.90 224.34,77.01 227.84,77.08 228.72,77.09 229.59,77.11 232.22,77.19 235.73,77.28 239.23,77.37 240.11,77.40 247.12,77.65 248.00,77.68 248.87,77.71 249.75,77.75 255.88,78.01 256.76,78.05 259.39,78.16 262.89,78.32 264.64,78.41 269.90,78.66 277.79,79.05 290.06,79.66 298.82,80.09 305.83,80.42 312.84,80.75 318.10,81.00 319.85,81.08 324.23,81.27 331.24,81.59 334.75,81.75 340.00,81.97 344.38,82.17 348.77,82.35 354.90,82.61 360.16,82.83 364.54,83.01 370.67,83.25 374.18,83.39 379.43,83.59 382.06,83.69 383.82,83.76 387.32,83.88 389.95,83.98 394.33,84.13 396.96,84.22 401.34,84.37 403.97,84.46 409.23,84.62 412.73,84.73 416.24,84.84 420.62,84.96 424.12,85.06 427.63,85.16 431.13,85.25 435.52,85.36 439.90,85.47 443.40,85.56 446.91,85.64 450.41,85.72 454.79,85.81 459.17,85.91 462.68,85.98 465.31,86.04 469.69,86.12 474.07,86.21 480.20,86.32 485.46,86.42 489.84,86.50 498.61,86.64 506.49,86.77 514.47,86.89 523.08,87.03 531.11,87.15 538.95,87.26 546.78,87.37 555.58,87.49 566.09,87.63 577.37,87.78 590.57,87.95 604.71,88.13 621.35,88.33 640.47,88.57 660.73,88.81 683.48,89.07 711.59,89.40 740.45,89.73"/>
<polyline fill="none" stroke="#9467bd" stroke-width="1.2" opacity="0.55" stroke-dasharray="4 4" points="109.55,76.18 120.06,76.23 133.20,76.30 148.98,76.38 161.25,76.45 172.64,76.52 181.40,76.58 189.29,76.64 195.42,76.68 199.80,76.72 202.43,76.75 209.44,76.81 214.70,76.86 216.45,76.88 219.08,76.91 224.34,76.98 227.84,77.04 228.72,77.06 229.59,77.07 232.22,77.12 235.73,77.20 239.23,77.28 240.11,77.30 247.12,77.51 248.00,77.54 248.87,77.58 249.75,77.61 255.88,77.86 256.76,77.90 259.39,78.02 262.89,78.18 264.64,78.27 269.90,78.53 277.79,78.94 290.06,79.57 298.82,80.02 305.83,80.38 312.84,80.73 318.10,80.99 319.85,81.08 324.23,81.29 331.24,81.63 334.75,81.80 340.00,82.05 344.38,82.26 348.77,82.47 354.90,82.76 360.16,82.99 364.54,83.19 370.67,83.47 374.18,83.62 379.43,83.84 382.06,83.95 383.82,84.03 387.32,84.17 389.95,84.28 394.33,84.46 396.96,84.56 401.34,84.73 403.97,84.83 409.23,85.02 412.73,85.15 416.24,85.28 420.62,85.44 424.12,85.56 427.63,85.68 431.13,85.80 435.52,85.94 439.90,86.08 443.40,86.20 446.91,86.30 450.41,86.41 454.79,86.54 459.17,86.67 462.68,86.77 465.31,86.85 469.69,86.96 474.07,87.08 480.20,87.25 485.46,87.37 489.84,87.48 498.61,87.68 506.49,87.86 514.47,88.03 523.08,88.20 531.11,88.35 538.95,88.50 546.78,88.64 555.58,88.79 566.09,88.97 577.37,89.15 590.57,89.36 604.71,89.57 621.35,89.81 640.47,90.08 660.73,90.36 683.48,90.67 711.59,91.03 740.45,91.40"/>
<polyline fill="none" stroke="#9467bd" stroke-width="2.0" opacity="1.0" points="109.55,76.15 120.06,76.21 133.20,76.28 148.98,76.36 161.25,76.43 172.64,76.50 181.40,76.56 189.29,76.62 195.42,76.67 199.80,76.71 202.43,76.73 209.44,76.80 214.70,76.86 216.45,76.88 219.08,76.92 224.34,77.00 227.84,77.06 228.72,77.08 229.59,77.10 232.22,77.16 235.73,77.24 239.23,77.32 240.11,77.35 247.12,77.58 248.00,77.61 248.87,77.64 249.75,77.67 255.88,77.93 256.76,77.97 259.39,78.09 262.89,78.25 264.64,78.34 269.90,78.60 277.79,78.99 290.06,79.62 298.82,80.05 305.83,80.40 312.84,80.74 318.10,80.99 319.85,81.08 324.23,81.28 331.24,81.61 334.75,81.77 340.00,82.02 344.38,82.22 348.77,82.41 354.90,82.69 360.16,82.92 364.54,83.11 370.67,83.36 374.18,83.51 379.43,83.72 382.06,83.83 383.82,83.90 387.32,84.03 389.95,84.14 394.33,84.30 396.96,84.40 401.34,84.55 403.97,84.65 409.23,84.83 412.73,84.95 416.24,85.06 420.62,85.21 424.12,85.32 427.63,85.42 431.13,85.53 435.52,85.66 439.90,85.78 443.40,85.88 446.91,85.98 450.41,86.07 454.79,86.19 459.17,86.30 462.68,86.38 465.31,86.44 469.69,86.55 474.07,86.65 480.20,86.78 485.46,86.89 489.84,86.98 498.61,87.16 506.49,87.31 514.47,87.45 523.08,87.60 531.11,87.74 538.95,87.86 546.78,87.99 555.58,88.13 566.09,88.29 577.37,88.45 590.57,88.64 604.71,88.84 621.35,89.07 640.47,89.32 660.73,89.58 683.48,89.87 711.59,90.22 740.45,90.58"/>
<line x1="88" y1="70" x2="110" y2="70" stroke="#2ca02c" stroke-width="2.4"/>
<text x="116" y="74" font-family="Arial, sans-serif" font-size="12">[GND Clamp]</text>
<line x1="88" y1="88" x2="110" y2="88" stroke="#9467bd" stroke-width="2.4"/>
<text x="116" y="92" font-family="Arial, sans-serif" font-size="12">[POWER Clamp]</text>
<text x="425.00" y="444.00" text-anchor="middle" font-family="Arial, sans-serif" font-size="12">Table voltage (V)</text>
<text transform="translate(18 226.00) rotate(-90)" text-anchor="middle" font-family="Arial, sans-serif" font-size="12">Current (A)</text>
<text x="420" y="42" font-family="Arial, sans-serif" font-size="11" fill="#555">solid=typ, dashed=min/max; dashed vertical=required sweep boundary (5.3.4/5.3.5)</text>
</svg>