<svg xmlns="http://www.w3.org/2000/svg" width="800" height="560" viewBox="0 0 800 560">
<rect width="100%" height="100%" fill="#ffffff"/>
<text x="78" y="25" font-family="Arial, sans-serif" font-size="16" font-weight="700">ALERT I-V Clamp Sweep Range</text>
<rect x="78" y="52" width="694" height="348" fill="#fbfbfb" stroke="#c8c8c8"/>
<line x1="78.00" y1="52" x2="78.00" y2="400" stroke="#ececec"/>
<text x="78.00" y="422" text-anchor="middle" font-family="Arial, sans-serif" font-size="11">-1.3</text>
<line x1="216.80" y1="52" x2="216.80" y2="400" stroke="#ececec"/>
<text x="216.80" y="422" text-anchor="middle" font-family="Arial, sans-serif" font-size="11">-0.539</text>
<line x1="355.60" y1="52" x2="355.60" y2="400" stroke="#ececec"/>
<text x="355.60" y="422" text-anchor="middle" font-family="Arial, sans-serif" font-size="11">0.187</text>
<line x1="494.40" y1="52" x2="494.40" y2="400" stroke="#ececec"/>
<text x="494.40" y="422" text-anchor="middle" font-family="Arial, sans-serif" font-size="11">0.913</text>
<line x1="633.20" y1="52" x2="633.20" y2="400" stroke="#ececec"/>
<text x="633.20" y="422" text-anchor="middle" font-family="Arial, sans-serif" font-size="11">1.6</text>
<line x1="772.00" y1="52" x2="772.00" y2="400" stroke="#ececec"/>
<text x="772.00" y="422" text-anchor="middle" font-family="Arial, sans-serif" font-size="11">2.4</text>
<line x1="78" y1="400.00" x2="772" y2="400.00" stroke="#ececec"/>
<text x="70" y="404.00" text-anchor="end" font-family="Arial, sans-serif" font-size="11">-0.0801</text>
<line x1="78" y1="330.40" x2="772" y2="330.40" stroke="#ececec"/>
<text x="70" y="334.40" text-anchor="end" font-family="Arial, sans-serif" font-size="11">-0.0541</text>
<line x1="78" y1="260.80" x2="772" y2="260.80" stroke="#ececec"/>
<text x="70" y="264.80" text-anchor="end" font-family="Arial, sans-serif" font-size="11">-0.028</text>
<line x1="78" y1="191.20" x2="772" y2="191.20" stroke="#ececec"/>
<text x="70" y="195.20" text-anchor="end" font-family="Arial, sans-serif" font-size="11">-0.00196</text>
<line x1="78" y1="121.60" x2="772" y2="121.60" stroke="#ececec"/>
<text x="70" y="125.60" text-anchor="end" font-family="Arial, sans-serif" font-size="11">0.0241</text>
<line x1="78" y1="52.00" x2="772" y2="52.00" stroke="#ececec"/>
<text x="70" y="56.00" text-anchor="end" font-family="Arial, sans-serif" font-size="11">0.0501</text>
<line x1="319.85" y1="52" x2="319.85" y2="400" stroke="#777" stroke-dasharray="4 4"/>
<line x1="78" y1="185.96" x2="772" y2="185.96" stroke="#777" stroke-dasharray="4 4"/>
<line x1="109.55" y1="52" x2="109.55" y2="400" stroke="#555" stroke-dasharray="2 4"/>
<text x="113.55" y="66" font-family="Arial, sans-serif" font-size="11" fill="#555">-Vcc</text>
<line x1="530.15" y1="52" x2="530.15" y2="400" stroke="#555" stroke-dasharray="2 4"/>
<text x="534.15" y="66" font-family="Arial, sans-serif" font-size="11" fill="#555">Vcc</text>
<line x1="740.45" y1="52" x2="740.45" y2="400" stroke="#555" stroke-dasharray="2 4"/>
<text x="744.45" y="66" font-family="Arial, sans-serif" font-size="11" fill="#555">2Vcc</text>
<polyline fill="none" stroke="#2ca02c" stroke-width="1.2" opacity="0.55" stroke-dasharray="4 4" points="109.55,366.46 110.50,362.95 111.27,359.48 112.22,356.04 112.99,352.62 113.94,349.24 114.71,345.89 115.66,342.55 116.62,339.28 117.38,336.02 118.34,332.82 119.10,329.69 121.78,320.31 122.74,317.33 126.18,305.67 127.13,302.99 127.90,300.32 128.82,297.66 129.70,294.99 130.58,292.39 131.45,290.01 134.08,282.89 134.96,280.66 135.83,278.61 138.46,272.45 139.34,270.62 140.21,268.88 141.09,267.13 142.84,263.64 143.72,262.29 144.60,260.94 146.35,258.25 147.22,256.91 150.73,251.52 151.61,250.34 152.48,249.33 153.36,248.32 159.49,241.25 161.25,239.54 165.63,235.26 167.38,233.55 168.25,232.73 169.13,231.95 171.76,229.60 176.14,225.69 177.89,224.23 180.52,222.04 183.15,219.84 184.03,219.11 184.90,218.41 188.41,215.69 190.16,214.33 191.04,213.66 192.79,212.30 194.54,211.05 196.30,209.81 200.68,206.69 201.55,206.10 203.31,204.97 206.81,202.72 207.69,202.16 209.44,201.04 212.94,199.06 215.57,197.58 217.33,196.59 218.20,196.15 219.08,195.74 225.21,192.87 226.09,192.47 231.35,190.64 232.22,190.33 233.10,190.03 233.97,189.77 236.60,189.10 237.48,188.88 238.36,188.67 239.23,188.48 240.11,188.29 241.86,187.96 242.74,187.81 243.61,187.66 246.24,187.30 247.12,187.18 248.87,186.99 250.62,186.81 252.38,186.68 253.25,186.61 254.13,186.55 257.63,186.38 259.39,186.30 262.02,186.20 263.77,186.16 265.52,186.13 269.03,186.06 273.41,186.02 280.42,185.98 298.82,185.96 740.45,185.96"/>
<polyline fill="none" stroke="#2ca02c" stroke-width="1.2" opacity="0.55" stroke-dasharray="4 4" points="109.55,376.00 110.50,371.33 111.27,366.74 112.22,362.23 112.99,357.80 113.94,353.45 114.71,349.27 115.66,345.09 116.62,341.06 117.38,337.14 118.34,333.25 119.10,329.80 121.78,319.45 122.74,316.07 126.18,305.00 127.13,302.32 127.90,300.22 128.82,298.12 129.70,296.02 130.58,293.92 131.45,291.90 134.08,287.11 134.96,285.52 135.83,283.98 138.46,280.12 139.34,278.84 140.21,277.59 141.09,276.47 142.84,274.23 143.72,273.11 144.60,272.01 146.35,269.97 147.22,268.95 150.73,264.87 151.61,263.86 152.48,262.84 153.36,261.84 159.49,255.15 161.25,253.26 165.63,248.69 167.38,246.87 168.25,245.95 169.13,245.06 171.76,242.42 176.14,238.02 177.89,236.30 180.52,233.74 183.15,231.19 184.03,230.36 184.90,229.52 188.41,226.20 190.16,224.57 191.04,223.77 192.79,222.15 194.54,220.54 196.30,218.98 200.68,215.09 201.55,214.34 203.31,212.86 206.81,209.90 207.69,209.20 209.44,207.81 212.94,205.02 215.57,203.10 217.33,201.82 218.20,201.18 219.08,200.54 225.21,196.54 226.09,196.06 231.35,193.15 232.22,192.76 233.10,192.38 233.97,191.99 236.60,190.84 237.48,190.48 238.36,190.20 239.23,189.92 240.11,189.64 241.86,189.08 242.74,188.80 243.61,188.54 246.24,188.00 247.12,187.82 248.87,187.46 250.62,187.23 252.38,187.00 253.25,186.89 254.13,186.77 257.63,186.48 259.39,186.34 262.02,186.23 263.77,186.15 265.52,186.11 269.03,186.06 273.41,186.01 280.42,185.97 298.82,185.96 740.45,185.96"/>
<polyline fill="none" stroke="#2ca02c" stroke-width="2.0" opacity="1.0" points="109.55,370.95 110.50,366.95 111.27,362.99 112.22,359.09 112.99,355.22 113.94,351.40 114.71,347.64 115.66,343.91 116.62,340.32 117.38,336.75 118.34,333.18 119.10,329.68 121.78,319.66 122.74,316.66 126.18,305.09 127.13,302.19 127.90,299.30 128.82,296.82 129.70,294.58 130.58,292.34 131.45,290.11 134.08,283.40 134.96,281.47 135.83,279.84 138.46,274.96 139.34,273.33 140.21,271.70 141.09,270.23 142.84,267.77 143.72,266.55 144.60,265.32 146.35,262.86 147.22,261.69 150.73,257.58 151.61,256.55 152.48,255.52 153.36,254.51 159.49,247.96 161.25,246.19 165.63,241.76 167.38,240.06 168.25,239.22 169.13,238.37 171.76,235.82 176.14,231.74 177.89,230.11 180.52,227.75 183.15,225.40 184.03,224.62 184.90,223.86 188.41,220.85 190.16,219.35 191.04,218.61 192.79,217.16 194.54,215.72 196.30,214.28 200.68,210.82 201.55,210.13 203.31,208.81 206.81,206.19 207.69,205.54 209.44,204.32 212.94,201.88 215.57,200.19 217.33,199.07 218.20,198.50 219.08,197.97 225.21,194.57 226.09,194.12 231.35,191.77 232.22,191.38 233.10,191.04 233.97,190.76 236.60,189.90 237.48,189.61 238.36,189.33 239.23,189.04 240.11,188.82 241.86,188.45 242.74,188.26 243.61,188.08 246.24,187.52 247.12,187.40 248.87,187.18 250.62,186.97 252.38,186.76 253.25,186.68 254.13,186.62 257.63,186.40 259.39,186.30 262.02,186.21 263.77,186.15 265.52,186.10 269.03,186.05 273.41,186.01 280.42,185.98 298.82,185.96 740.45,185.96"/>
<polyline fill="none" stroke="#9467bd" stroke-width="1.2" opacity="0.55" stroke-dasharray="4 4" points="109.55,76.00 110.50,78.53 111.27,81.02 112.22,83.50 112.99,85.98 113.94,88.44 114.71,90.88 115.66,93.32 116.62,95.73 117.38,98.15 118.34,100.53 119.10,102.89 121.78,109.96 122.74,112.26 126.18,121.35 127.13,123.53 127.90,125.70 128.82,127.87 129.70,130.04 130.58,132.19 131.45,134.24 134.08,140.37 134.96,142.35 135.83,144.24 138.46,149.92 139.34,151.68 140.21,153.39 141.09,155.09 142.84,158.51 143.72,159.87 144.60,161.22 146.35,163.93 147.22,165.29 150.73,170.71 151.61,171.80 152.48,172.62 153.36,173.44 158.62,178.37 159.49,179.19 160.37,179.58 161.25,179.97 165.63,181.92 166.50,182.31 167.38,182.70 168.25,182.97 169.13,183.13 171.76,183.62 172.64,183.78 175.27,184.26 176.14,184.42 177.02,184.49 177.89,184.56 178.77,184.63 183.15,184.97 184.03,185.04 184.90,185.09 190.16,185.32 191.04,185.36 191.91,185.40 192.79,185.43 196.30,185.52 200.68,185.63 201.55,185.65 207.69,185.73 209.44,185.76 213.82,185.80 217.33,185.82 218.20,185.82 219.95,185.85 225.21,185.88 226.09,185.89 231.35,185.89 233.10,185.89 233.97,185.90 234.85,185.90 235.73,185.90 237.48,185.90 240.11,185.90 243.61,185.91 247.12,185.91 248.87,185.92 253.25,185.92 255.00,185.92 259.39,185.93 262.02,185.94 264.64,185.94 268.15,185.95 271.65,185.95 274.28,185.95 277.79,185.95 282.17,185.96 286.55,185.96 319.85,185.96 740.45,185.96"/>
<polyline fill="none" stroke="#9467bd" stroke-width="1.2" opacity="0.55" stroke-dasharray="4 4" points="109.55,85.36 110.50,89.48 111.27,93.53 112.22,97.54 112.99,101.51 113.94,105.44 114.71,109.26 115.66,113.09 116.62,116.83 117.38,120.51 118.34,124.17 119.10,127.57 121.78,137.75 122.74,141.11 126.18,152.80 127.13,155.64 127.90,157.96 128.82,160.27 129.70,162.58 130.58,164.89 131.45,167.10 134.08,171.95 134.96,173.57 135.83,175.07 138.46,177.98 139.34,178.95 140.21,179.82 141.09,180.31 142.84,181.30 143.72,181.80 144.60,182.22 146.35,182.64 147.22,182.85 150.73,183.68 151.61,183.89 152.48,184.09 153.36,184.26 158.62,184.63 159.49,184.70 160.37,184.76 161.25,184.81 165.63,184.95 166.50,184.98 167.38,185.01 168.25,185.04 169.13,185.06 171.76,185.10 172.64,185.12 175.27,185.16 176.14,185.17 177.02,185.18 177.89,185.20 178.77,185.21 183.15,185.26 184.03,185.27 184.90,185.28 190.16,185.34 191.04,185.35 191.91,185.36 192.79,185.37 196.30,185.41 200.68,185.45 201.55,185.46 207.69,185.52 209.44,185.54 213.82,185.58 217.33,185.62 218.20,185.62 219.95,185.64 225.21,185.68 226.09,185.69 231.35,185.73 233.10,185.75 233.97,185.75 234.85,185.76 235.73,185.77 237.48,185.78 240.11,185.80 243.61,185.82 247.12,185.84 248.87,185.85 253.25,185.87 255.00,185.88 259.39,185.90 262.02,185.91 264.64,185.92 268.15,185.93 271.65,185.94 274.28,185.95 277.79,185.95 282.17,185.96 286.55,185.96 319.85,185.96 740.45,185.96"/>
<polyline fill="none" stroke="#9467bd" stroke-width="2.0" opacity="1.0" points="109.55,82.91 110.50,86.04 111.27,89.12 112.22,92.17 112.99,95.21 113.94,98.23 114.71,101.22 115.66,104.19 116.62,107.10 117.38,110.01 118.34,112.91 119.10,115.78 121.78,124.15 122.74,126.78 126.18,137.09 127.13,139.67 127.90,142.24 128.82,144.57 129.70,146.77 130.58,148.96 131.45,151.15 134.08,157.73 134.96,159.65 135.83,161.32 138.46,166.32 139.34,167.98 140.21,169.65 141.09,171.08 142.84,173.20 143.72,174.26 144.60,175.32 146.35,177.44 147.22,178.37 150.73,180.53 151.61,181.08 152.48,181.62 153.36,182.12 158.62,183.59 159.49,183.84 160.37,183.95 161.25,184.06 165.63,184.61 166.50,184.68 167.38,184.73 168.25,184.79 169.13,184.85 171.76,185.02 172.64,185.05 175.27,185.15 176.14,185.18 177.02,185.21 177.89,185.24 178.77,185.27 183.15,185.38 184.03,185.40 184.90,185.41 190.16,185.49 191.04,185.50 191.91,185.51 192.79,185.52 196.30,185.55 200.68,185.59 201.55,185.60 207.69,185.64 209.44,185.66 213.82,185.69 217.33,185.71 218.20,185.72 219.95,185.73 225.21,185.76 226.09,185.77 231.35,185.80 233.10,185.81 233.97,185.81 234.85,185.82 235.73,185.82 237.48,185.83 240.11,185.84 243.61,185.86 247.12,185.88 248.87,185.88 253.25,185.90 255.00,185.91 259.39,185.92 262.02,185.93 264.64,185.93 268.15,185.94 271.65,185.95 274.28,185.95 277.79,185.95 282.17,185.96 286.55,185.96 319.85,185.96 740.45,185.96"/>
<line x1="88" y1="70" x2="110" y2="70" stroke="#2ca02c" stroke-width="2.4"/>
<text x="116" y="74" font-family="Arial, sans-serif" font-size="12">[GND Clamp]</text>
<line x1="88" y1="88" x2="110" y2="88" stroke="#9467bd" stroke-width="2.4"/>
<text x="116" y="92" font-family="Arial, sans-serif" font-size="12">[POWER Clamp]</text>
<text x="425.00" y="444.00" text-anchor="middle" font-family="Arial, sans-serif" font-size="12">Table voltage (V)</text>
<text transform="translate(18 226.00) rotate(-90)" text-anchor="middle" font-family="Arial, sans-serif" font-size="12">Current (A)</text>
<text x="420" y="42" font-family="Arial, sans-serif" font-size="11" fill="#555">solid=typ, dashed=min/max; dashed vertical=required sweep boundary (5.3.4/5.3.5)</text>
</svg>