<svg xmlns="http://www.w3.org/2000/svg" width="800" height="560" viewBox="0 0 800 560">
<rect width="100%" height="100%" fill="#ffffff"/>
<text x="78" y="25" font-family="Arial, sans-serif" font-size="16" font-weight="700">DQ_IN_ODT60_4800 I-V Clamp Curves</text>
<rect x="78" y="52" width="694" height="348" fill="#fbfbfb" stroke="#c8c8c8"/>
<line x1="78.00" y1="52" x2="78.00" y2="400" stroke="#ececec"/>
<text x="78.00" y="422" text-anchor="middle" font-family="Arial, sans-serif" font-size="11">-1.2</text>
<line x1="216.80" y1="52" x2="216.80" y2="400" stroke="#ececec"/>
<text x="216.80" y="422" text-anchor="middle" font-family="Arial, sans-serif" font-size="11">-0.48</text>
<line x1="355.60" y1="52" x2="355.60" y2="400" stroke="#ececec"/>
<text x="355.60" y="422" text-anchor="middle" font-family="Arial, sans-serif" font-size="11">0.207</text>
<line x1="494.40" y1="52" x2="494.40" y2="400" stroke="#ececec"/>
<text x="494.40" y="422" text-anchor="middle" font-family="Arial, sans-serif" font-size="11">0.893</text>
<line x1="633.20" y1="52" x2="633.20" y2="400" stroke="#ececec"/>
<text x="633.20" y="422" text-anchor="middle" font-family="Arial, sans-serif" font-size="11">1.6</text>
<line x1="772.00" y1="52" x2="772.00" y2="400" stroke="#ececec"/>
<text x="772.00" y="422" text-anchor="middle" font-family="Arial, sans-serif" font-size="11">2.3</text>
<line x1="78" y1="400.00" x2="772" y2="400.00" stroke="#ececec"/>
<text x="70" y="404.00" text-anchor="end" font-family="Arial, sans-serif" font-size="11">-0.076</text>
<line x1="78" y1="330.40" x2="772" y2="330.40" stroke="#ececec"/>
<text x="70" y="334.40" text-anchor="end" font-family="Arial, sans-serif" font-size="11">-0.0465</text>
<line x1="78" y1="260.80" x2="772" y2="260.80" stroke="#ececec"/>
<text x="70" y="264.80" text-anchor="end" font-family="Arial, sans-serif" font-size="11">-0.017</text>
<line x1="78" y1="191.20" x2="772" y2="191.20" stroke="#ececec"/>
<text x="70" y="195.20" text-anchor="end" font-family="Arial, sans-serif" font-size="11">0.0125</text>
<line x1="78" y1="121.60" x2="772" y2="121.60" stroke="#ececec"/>
<text x="70" y="125.60" text-anchor="end" font-family="Arial, sans-serif" font-size="11">0.042</text>
<line x1="78" y1="52.00" x2="772" y2="52.00" stroke="#ececec"/>
<text x="70" y="56.00" text-anchor="end" font-family="Arial, sans-serif" font-size="11">0.0716</text>
<line x1="313.78" y1="52" x2="313.78" y2="400" stroke="#777" stroke-dasharray="4 4"/>
<line x1="78" y1="220.73" x2="772" y2="220.73" stroke="#777" stroke-dasharray="4 4"/>
<line x1="91.35" y1="52" x2="91.35" y2="400" stroke="#555" stroke-dasharray="2 4"/>
<text x="95.35" y="66" font-family="Arial, sans-serif" font-size="11" fill="#555">-Vcc</text>
<line x1="536.22" y1="52" x2="536.22" y2="400" stroke="#555" stroke-dasharray="2 4"/>
<text x="540.22" y="66" font-family="Arial, sans-serif" font-size="11" fill="#555">Vcc</text>
<line x1="758.65" y1="52" x2="758.65" y2="400" stroke="#555" stroke-dasharray="2 4"/>
<text x="762.65" y="66" font-family="Arial, sans-serif" font-size="11" fill="#555">2Vcc</text>
<polyline fill="none" stroke="#0f766e" stroke-width="2.8" opacity="0.95" stroke-dasharray="6 3" points="91.35,376.00 92.56,371.53 93.77,367.11 94.99,362.76 96.20,358.49 96.81,356.38 97.41,354.29 98.02,352.23 98.63,350.18 99.23,348.16 100.45,344.20 101.05,342.24 101.66,340.30 102.27,338.42 102.87,336.53 104.09,332.87 104.69,331.06 105.30,329.32 105.91,327.58 106.51,325.88 107.12,324.27 107.73,322.67 108.33,321.07 108.94,319.47 109.55,317.87 110.15,316.40 110.76,314.98 111.97,312.13 112.58,310.71 113.19,309.44 113.79,308.20 115.01,305.71 115.61,304.47 116.22,303.38 117.43,301.24 118.04,300.17 118.65,299.11 119.86,297.27 121.07,295.44 121.68,294.54 122.89,292.95 124.10,291.37 124.71,290.60 125.92,289.20 127.74,287.13 129.56,285.25 130.78,284.03 133.20,281.79 133.81,281.26 136.84,278.71 139.88,276.22 142.30,274.18 143.52,273.25 145.94,271.36 148.37,269.42 151.40,267.22 154.44,264.94 157.47,262.71 160.50,260.49 164.75,257.44 170.21,253.61 175.06,250.27 179.31,247.42 182.34,245.43 186.59,242.71 189.62,240.82 192.05,239.36 194.48,237.92 197.51,236.18 199.94,234.83 202.97,233.20 207.22,231.07 209.03,230.22 211.46,229.11 212.67,228.60 213.89,228.08 215.71,227.35 216.92,226.89 218.74,226.21 221.17,225.41 222.99,224.84 224.81,224.34 225.41,224.17 227.23,223.71 229.66,223.17 230.87,222.92 233.91,222.40 235.73,222.15 238.15,221.84 241.19,221.54 244.83,221.27 247.86,221.11 251.50,220.97 257.57,220.84 265.45,220.77 289.72,220.73 758.65,220.73"/>
<polyline fill="none" stroke="#7c2d12" stroke-width="2.8" opacity="0.95" stroke-dasharray="6 3" points="91.35,76.00 91.95,78.05 93.17,82.13 94.38,86.17 95.59,90.18 96.81,94.16 98.02,98.10 99.23,101.99 101.05,107.76 102.27,111.54 102.87,113.42 104.09,117.13 104.69,118.97 105.30,120.78 105.91,122.59 106.51,124.39 107.12,126.12 108.33,129.60 108.94,131.35 109.55,133.09 110.15,134.75 110.76,136.40 111.97,139.68 112.58,141.33 113.19,142.88 113.79,144.42 115.01,147.48 115.61,149.02 116.22,150.43 116.83,151.84 118.04,154.66 118.65,156.06 119.25,157.33 119.86,158.59 121.07,161.12 121.68,162.36 122.28,163.46 122.89,164.57 124.10,166.78 124.71,167.84 125.32,168.78 125.92,169.72 127.14,171.61 127.74,172.49 128.96,174.07 130.17,175.65 130.78,176.37 131.99,177.67 133.20,178.98 133.81,179.56 135.02,180.63 136.24,181.69 136.84,182.17 139.27,183.93 139.88,184.33 142.30,185.87 142.91,186.23 145.34,187.64 145.94,187.96 148.37,189.20 148.98,189.49 152.01,190.93 155.04,192.34 158.08,193.71 160.50,194.77 164.14,196.33 169.60,198.62 175.67,201.10 181.74,203.50 187.20,205.60 192.66,207.61 197.51,209.33 201.76,210.78 205.40,211.96 208.43,212.91 212.07,213.99 214.49,214.68 216.92,215.33 219.35,215.95 221.77,216.54 224.81,217.21 226.63,217.60 230.27,218.28 233.91,218.86 236.33,219.18 238.15,219.41 241.19,219.72 244.83,220.02 247.25,220.17 250.89,220.35 254.53,220.48 259.39,220.59 267.88,220.68 284.87,220.72 758.65,220.73"/>
<line x1="88" y1="70" x2="110" y2="70" stroke="#0f766e" stroke-width="2.8" stroke-dasharray="6 3"/>
<text x="116" y="74" font-family="Arial, sans-serif" font-size="12">[GND Clamp]</text>
<line x1="88" y1="88" x2="110" y2="88" stroke="#7c2d12" stroke-width="2.8" stroke-dasharray="6 3"/>
<text x="116" y="92" font-family="Arial, sans-serif" font-size="12">[POWER Clamp]</text>
<text x="425.00" y="444.00" text-anchor="middle" font-family="Arial, sans-serif" font-size="12">Table voltage (V)</text>
<text transform="translate(18 226.00) rotate(-90)" text-anchor="middle" font-family="Arial, sans-serif" font-size="12">Current (A)</text>
<text x="420" y="42" font-family="Arial, sans-serif" font-size="11" fill="#555">thick dashed=combined typ curves</text>
</svg>