<svg xmlns="http://www.w3.org/2000/svg" width="800" height="560" viewBox="0 0 800 560">
<rect width="100%" height="100%" fill="#ffffff"/>
<text x="78" y="25" font-family="Arial, sans-serif" font-size="16" font-weight="700">DQ_48_4800 I-V Combined Curves</text>
<rect x="78" y="52" width="694" height="348" fill="#fbfbfb" stroke="#c8c8c8"/>
<line x1="78.00" y1="52" x2="78.00" y2="400" stroke="#ececec"/>
<text x="78.00" y="422" text-anchor="middle" font-family="Arial, sans-serif" font-size="11">-1.2</text>
<line x1="216.80" y1="52" x2="216.80" y2="400" stroke="#ececec"/>
<text x="216.80" y="422" text-anchor="middle" font-family="Arial, sans-serif" font-size="11">-0.48</text>
<line x1="355.60" y1="52" x2="355.60" y2="400" stroke="#ececec"/>
<text x="355.60" y="422" text-anchor="middle" font-family="Arial, sans-serif" font-size="11">0.207</text>
<line x1="494.40" y1="52" x2="494.40" y2="400" stroke="#ececec"/>
<text x="494.40" y="422" text-anchor="middle" font-family="Arial, sans-serif" font-size="11">0.893</text>
<line x1="633.20" y1="52" x2="633.20" y2="400" stroke="#ececec"/>
<text x="633.20" y="422" text-anchor="middle" font-family="Arial, sans-serif" font-size="11">1.6</text>
<line x1="772.00" y1="52" x2="772.00" y2="400" stroke="#ececec"/>
<text x="772.00" y="422" text-anchor="middle" font-family="Arial, sans-serif" font-size="11">2.3</text>
<line x1="78" y1="400.00" x2="772" y2="400.00" stroke="#ececec"/>
<text x="70" y="404.00" text-anchor="end" font-family="Arial, sans-serif" font-size="11">-0.0958</text>
<line x1="78" y1="330.40" x2="772" y2="330.40" stroke="#ececec"/>
<text x="70" y="334.40" text-anchor="end" font-family="Arial, sans-serif" font-size="11">-0.0596</text>
<line x1="78" y1="260.80" x2="772" y2="260.80" stroke="#ececec"/>
<text x="70" y="264.80" text-anchor="end" font-family="Arial, sans-serif" font-size="11">-0.0234</text>
<line x1="78" y1="191.20" x2="772" y2="191.20" stroke="#ececec"/>
<text x="70" y="195.20" text-anchor="end" font-family="Arial, sans-serif" font-size="11">0.0128</text>
<line x1="78" y1="121.60" x2="772" y2="121.60" stroke="#ececec"/>
<text x="70" y="125.60" text-anchor="end" font-family="Arial, sans-serif" font-size="11">0.049</text>
<line x1="78" y1="52.00" x2="772" y2="52.00" stroke="#ececec"/>
<text x="70" y="56.00" text-anchor="end" font-family="Arial, sans-serif" font-size="11">0.0852</text>
<line x1="313.78" y1="52" x2="313.78" y2="400" stroke="#777" stroke-dasharray="4 4"/>
<line x1="78" y1="215.82" x2="772" y2="215.82" stroke="#777" stroke-dasharray="4 4"/>
<line x1="91.35" y1="52" x2="91.35" y2="400" stroke="#555" stroke-dasharray="2 4"/>
<text x="95.35" y="66" font-family="Arial, sans-serif" font-size="11" fill="#555">-Vcc</text>
<line x1="536.22" y1="52" x2="536.22" y2="400" stroke="#555" stroke-dasharray="2 4"/>
<text x="540.22" y="66" font-family="Arial, sans-serif" font-size="11" fill="#555">Vcc</text>
<line x1="758.65" y1="52" x2="758.65" y2="400" stroke="#555" stroke-dasharray="2 4"/>
<text x="762.65" y="66" font-family="Arial, sans-serif" font-size="11" fill="#555">2Vcc</text>
<polyline fill="none" stroke="#0f766e" stroke-width="2.8" opacity="0.95" stroke-dasharray="6 3" points="91.35,376.00 92.56,372.33 93.77,368.72 94.99,365.16 96.20,361.66 96.81,359.93 98.02,356.53 98.63,354.86 99.23,353.20 99.84,351.56 100.45,349.94 101.05,348.34 101.66,346.76 102.87,343.69 103.48,342.16 104.09,340.68 104.69,339.22 105.30,337.76 105.91,336.35 106.51,334.97 107.12,333.58 107.73,332.25 108.33,330.94 108.94,329.64 109.55,328.39 110.15,327.17 110.76,325.95 111.37,324.78 111.97,323.65 112.58,322.53 113.19,321.44 114.40,319.36 115.01,318.36 116.22,316.46 116.83,315.55 117.43,314.68 118.04,313.81 118.65,312.98 119.86,311.41 120.47,310.65 122.28,308.53 122.89,307.88 123.50,307.23 124.10,306.60 125.32,305.39 125.92,304.80 127.14,303.69 127.74,303.14 129.56,301.60 130.17,301.11 131.38,300.15 132.60,299.22 133.20,298.76 135.63,297.00 138.06,295.29 140.48,293.64 143.52,291.63 144.12,291.24 145.94,290.05 150.80,286.96 152.62,285.83 156.26,283.55 159.29,281.69 161.72,280.20 165.36,278.00 165.96,277.63 172.03,273.99 177.49,270.78 179.92,269.37 182.95,267.62 186.59,265.54 191.44,262.82 192.05,262.49 193.87,261.47 197.51,259.51 201.15,257.54 202.97,256.60 206.61,254.73 207.82,254.11 208.43,253.79 210.85,252.61 212.67,251.72 215.71,250.25 217.53,249.42 219.35,248.60 222.38,247.22 222.99,246.95 225.41,245.94 227.84,244.92 229.05,244.42 230.27,243.91 231.48,243.44 233.30,242.75 237.55,241.12 239.37,240.46 241.79,239.58 242.40,239.37 244.83,238.49 247.25,237.65 251.50,236.19 256.35,234.54 256.96,234.33 263.03,232.32 265.45,231.50 276.98,227.72 289.72,223.56 292.75,222.58 300.64,220.03 309.74,217.11 313.78,215.82 323.08,212.89 331.58,210.27 339.46,207.88 345.53,206.07 352.20,204.11 357.66,202.54 361.91,201.35 366.76,200.01 371.01,198.86 375.26,197.72 380.11,196.47 384.96,195.25 389.81,194.06 394.06,193.07 398.31,192.09 403.16,191.02 406.80,190.24 411.65,189.24 417.11,188.17 420.15,187.58 426.21,186.47 431.07,185.62 434.71,185.02 438.35,184.43 442.59,183.77 446.84,183.13 451.09,182.51 457.15,181.68 462.61,180.96 468.68,180.20 474.74,179.48 482.02,178.66 489.30,177.88 496.58,177.13 505.08,176.31 512.36,175.64 520.85,174.88 529.95,174.11 539.66,173.32 551.79,172.37 562.10,171.60 575.45,170.64 588.79,169.71 604.57,168.66 622.77,167.49 642.18,166.28 664.02,164.96 688.28,163.55 715.58,162.00 746.52,160.29 758.65,159.63"/>
<polyline fill="none" stroke="#7c2d12" stroke-width="2.8" opacity="0.95" stroke-dasharray="6 3" points="91.35,76.00 92.56,79.37 93.77,82.71 94.99,86.03 96.20,89.31 97.41,92.57 98.02,94.19 99.23,97.40 100.45,100.57 101.05,102.14 101.66,103.71 102.87,106.80 104.09,109.86 104.69,111.36 105.91,114.35 106.51,115.82 107.73,118.73 108.33,120.16 109.55,122.99 110.76,125.76 111.37,127.12 111.97,128.45 112.58,129.78 113.19,131.08 114.40,133.64 115.01,134.89 116.22,137.32 116.83,138.51 117.43,139.66 118.04,140.81 118.65,141.94 119.86,144.09 120.47,145.14 121.07,146.14 121.68,147.14 122.28,148.12 122.89,149.04 123.50,149.96 124.10,150.85 125.32,152.53 125.92,153.34 126.53,154.10 127.74,155.59 128.96,156.94 129.56,157.60 130.17,158.21 130.78,158.81 131.38,159.39 132.60,160.46 133.20,160.98 135.02,162.38 135.63,162.79 138.06,164.44 138.66,164.84 140.48,165.85 141.09,166.18 142.30,166.85 145.34,168.30 145.94,168.60 148.98,169.92 149.58,170.18 150.80,170.68 153.83,171.92 155.65,172.64 156.26,172.88 159.90,174.28 161.11,174.75 165.96,176.56 169.00,177.68 172.03,178.80 176.88,180.54 177.49,180.76 182.34,182.47 182.95,182.68 187.20,184.17 187.80,184.37 192.66,186.02 193.26,186.23 196.30,187.22 198.12,187.82 201.15,188.81 201.76,189.01 203.58,189.59 206.61,190.55 207.82,190.92 209.03,191.31 209.64,191.49 212.67,192.41 213.28,192.59 215.71,193.33 217.53,193.86 218.13,194.03 219.95,194.56 221.77,195.08 222.38,195.26 222.99,195.44 225.41,196.10 226.02,196.27 227.84,196.77 229.05,197.10 230.27,197.43 231.48,197.75 232.09,197.91 233.30,198.22 234.51,198.54 237.55,199.32 238.15,199.47 241.79,200.36 242.40,200.51 243.61,200.81 244.22,200.96 244.83,201.09 246.04,201.39 246.65,201.53 248.47,201.96 249.07,202.10 250.89,202.51 251.50,202.66 253.93,203.21 255.14,203.49 256.35,203.76 259.99,204.56 261.21,204.84 267.88,206.29 270.91,206.95 281.83,209.27 290.93,211.18 292.75,211.55 299.42,212.93 306.70,214.40 313.78,215.82 323.08,217.65 331.58,219.30 340.07,220.92 347.96,222.40 355.24,223.74 360.70,224.72 366.76,225.80 371.01,226.54 375.86,227.37 380.72,228.18 386.78,229.17 391.03,229.84 397.70,230.87 403.77,231.77 408.01,232.38 413.47,233.15 418.93,233.90 425.61,234.78 430.46,235.40 435.31,236.00 440.77,236.65 446.84,237.35 451.69,237.90 458.37,238.61 465.04,239.30 471.71,239.95 478.38,240.58 485.06,241.19 491.73,241.76 498.40,242.33 506.29,242.96 512.36,243.43 520.24,244.02 528.74,244.64 537.84,245.27 546.33,245.85 554.82,246.41 565.74,247.11 576.66,247.79 588.79,248.52 603.35,249.38 619.13,250.28 637.33,251.30 657.34,252.40 679.79,253.60 705.88,254.97 736.81,256.58 758.65,257.70"/>
<line x1="88" y1="70" x2="110" y2="70" stroke="#0f766e" stroke-width="2.8" stroke-dasharray="6 3"/>
<text x="116" y="74" font-family="Arial, sans-serif" font-size="12">[Pulldown]+[GND Clamp]</text>
<line x1="88" y1="88" x2="110" y2="88" stroke="#7c2d12" stroke-width="2.8" stroke-dasharray="6 3"/>
<text x="116" y="92" font-family="Arial, sans-serif" font-size="12">[Pullup]+[POWER Clamp]</text>
<text x="425.00" y="444.00" text-anchor="middle" font-family="Arial, sans-serif" font-size="12">Table voltage (V)</text>
<text transform="translate(18 226.00) rotate(-90)" text-anchor="middle" font-family="Arial, sans-serif" font-size="12">Current (A)</text>
<text x="420" y="42" font-family="Arial, sans-serif" font-size="11" fill="#555">thick dashed=combined typ curves</text>
</svg>