<svg xmlns="http://www.w3.org/2000/svg" width="800" height="560" viewBox="0 0 800 560">
<rect width="100%" height="100%" fill="#ffffff"/>
<text x="78" y="25" font-family="Arial, sans-serif" font-size="16" font-weight="700">DQS_34_4800 I-V Combined Curves</text>
<rect x="78" y="52" width="694" height="348" fill="#fbfbfb" stroke="#c8c8c8"/>
<line x1="78.00" y1="52" x2="78.00" y2="400" stroke="#ececec"/>
<text x="78.00" y="422" text-anchor="middle" font-family="Arial, sans-serif" font-size="11">-1.2</text>
<line x1="216.80" y1="52" x2="216.80" y2="400" stroke="#ececec"/>
<text x="216.80" y="422" text-anchor="middle" font-family="Arial, sans-serif" font-size="11">-0.48</text>
<line x1="355.60" y1="52" x2="355.60" y2="400" stroke="#ececec"/>
<text x="355.60" y="422" text-anchor="middle" font-family="Arial, sans-serif" font-size="11">0.207</text>
<line x1="494.40" y1="52" x2="494.40" y2="400" stroke="#ececec"/>
<text x="494.40" y="422" text-anchor="middle" font-family="Arial, sans-serif" font-size="11">0.893</text>
<line x1="633.20" y1="52" x2="633.20" y2="400" stroke="#ececec"/>
<text x="633.20" y="422" text-anchor="middle" font-family="Arial, sans-serif" font-size="11">1.6</text>
<line x1="772.00" y1="52" x2="772.00" y2="400" stroke="#ececec"/>
<text x="772.00" y="422" text-anchor="middle" font-family="Arial, sans-serif" font-size="11">2.3</text>
<line x1="78" y1="400.00" x2="772" y2="400.00" stroke="#ececec"/>
<text x="70" y="404.00" text-anchor="end" font-family="Arial, sans-serif" font-size="11">-0.104</text>
<line x1="78" y1="330.40" x2="772" y2="330.40" stroke="#ececec"/>
<text x="70" y="334.40" text-anchor="end" font-family="Arial, sans-serif" font-size="11">-0.0648</text>
<line x1="78" y1="260.80" x2="772" y2="260.80" stroke="#ececec"/>
<text x="70" y="264.80" text-anchor="end" font-family="Arial, sans-serif" font-size="11">-0.026</text>
<line x1="78" y1="191.20" x2="772" y2="191.20" stroke="#ececec"/>
<text x="70" y="195.20" text-anchor="end" font-family="Arial, sans-serif" font-size="11">0.0129</text>
<line x1="78" y1="121.60" x2="772" y2="121.60" stroke="#ececec"/>
<text x="70" y="125.60" text-anchor="end" font-family="Arial, sans-serif" font-size="11">0.0518</text>
<line x1="78" y1="52.00" x2="772" y2="52.00" stroke="#ececec"/>
<text x="70" y="56.00" text-anchor="end" font-family="Arial, sans-serif" font-size="11">0.0906</text>
<line x1="313.78" y1="52" x2="313.78" y2="400" stroke="#777" stroke-dasharray="4 4"/>
<line x1="78" y1="214.29" x2="772" y2="214.29" stroke="#777" stroke-dasharray="4 4"/>
<line x1="91.35" y1="52" x2="91.35" y2="400" stroke="#555" stroke-dasharray="2 4"/>
<text x="95.35" y="66" font-family="Arial, sans-serif" font-size="11" fill="#555">-Vcc</text>
<line x1="536.22" y1="52" x2="536.22" y2="400" stroke="#555" stroke-dasharray="2 4"/>
<text x="540.22" y="66" font-family="Arial, sans-serif" font-size="11" fill="#555">Vcc</text>
<line x1="758.65" y1="52" x2="758.65" y2="400" stroke="#555" stroke-dasharray="2 4"/>
<text x="762.65" y="66" font-family="Arial, sans-serif" font-size="11" fill="#555">2Vcc</text>
<polyline fill="none" stroke="#0f766e" stroke-width="2.8" opacity="0.95" stroke-dasharray="6 3" points="91.35,376.00 92.56,372.59 93.77,369.22 94.99,365.90 96.20,362.64 96.81,361.03 97.41,359.43 98.02,357.86 98.63,356.30 99.23,354.75 100.45,351.73 101.05,350.24 101.66,348.76 102.27,347.31 102.87,345.87 104.09,343.08 104.69,341.69 105.30,340.36 105.91,339.04 106.51,337.73 107.12,336.51 107.73,335.29 108.33,334.06 108.94,332.84 109.55,331.61 110.15,330.49 110.76,329.40 111.97,327.23 112.58,326.14 113.19,325.16 113.79,324.21 114.40,323.26 115.01,322.31 115.61,321.35 116.22,320.52 117.43,318.88 118.04,318.06 118.65,317.24 119.86,315.83 121.07,314.42 121.68,313.73 122.89,312.51 124.10,311.30 124.71,310.70 125.32,310.16 125.92,309.62 127.74,308.03 129.56,306.57 130.78,305.62 133.20,303.89 133.81,303.47 135.02,302.69 136.84,301.50 139.88,299.56 142.30,297.97 143.52,297.24 145.94,295.76 148.37,294.24 151.40,292.51 152.01,292.15 154.44,290.71 157.47,288.95 159.90,287.54 160.50,287.18 164.75,284.74 165.36,284.40 170.21,281.63 170.82,281.29 175.06,278.89 175.67,278.55 179.31,276.50 181.13,275.50 182.34,274.82 186.59,272.48 189.62,270.82 190.23,270.49 192.05,269.50 194.48,268.19 196.90,266.89 197.51,266.56 198.72,265.92 199.94,265.26 202.36,263.98 202.97,263.65 204.79,262.72 207.22,261.45 208.43,260.82 209.03,260.51 210.85,259.59 211.46,259.27 212.07,258.96 212.67,258.66 213.89,258.04 215.71,257.13 216.92,256.53 218.74,255.62 221.17,254.44 222.99,253.56 224.81,252.69 225.41,252.40 226.63,251.84 227.23,251.54 229.66,250.41 230.87,249.84 233.91,248.45 235.73,247.62 237.55,246.80 238.15,246.52 241.19,245.17 244.22,243.83 244.83,243.56 247.25,242.50 247.86,242.23 250.89,240.91 251.50,240.64 255.75,238.81 257.57,238.01 263.63,235.42 265.45,234.63 280.62,228.18 289.72,224.33 292.15,223.31 303.06,218.74 313.38,214.46 313.78,214.30 320.05,211.72 327.33,208.78 334.00,206.11 341.89,203.03 349.17,200.23 354.63,198.18 360.70,195.93 364.34,194.61 369.80,192.67 375.26,190.78 380.11,189.14 385.57,187.36 389.21,186.22 393.45,184.90 397.09,183.81 400.73,182.74 406.19,181.20 411.05,179.89 414.69,178.94 420.15,177.57 425.00,176.40 428.64,175.56 433.49,174.49 437.74,173.58 441.99,172.71 448.05,171.53 452.91,170.62 459.58,169.44 465.04,168.53 471.10,167.56 477.17,166.63 485.06,165.49 491.73,164.58 499.62,163.54 507.50,162.56 516.60,161.48 525.70,160.45 534.80,159.46 543.90,158.51 551.79,157.72 563.31,156.60 576.66,155.35 591.22,154.04 606.99,152.67 625.80,151.10 645.82,149.48 667.66,147.78 692.53,145.90 721.04,143.80 753.19,141.49 758.65,141.11"/>
<polyline fill="none" stroke="#7c2d12" stroke-width="2.8" opacity="0.95" stroke-dasharray="6 3" points="91.35,76.00 91.95,77.57 93.17,80.71 94.38,83.82 95.59,86.90 96.81,89.96 97.41,91.47 98.02,92.99 99.23,95.98 101.05,100.41 102.27,103.32 102.87,104.77 104.09,107.62 104.69,109.04 105.30,110.43 105.91,111.82 106.51,113.20 107.12,114.54 108.33,117.22 108.94,118.56 109.55,119.90 110.15,121.18 110.76,122.45 111.97,124.98 112.58,126.24 113.19,127.44 113.79,128.62 115.01,130.99 115.61,132.17 116.22,133.26 116.83,134.35 118.04,136.52 118.65,137.61 119.25,138.58 119.86,139.56 121.07,141.52 121.68,142.48 122.28,143.33 122.89,144.19 124.10,145.90 124.71,146.73 125.32,147.46 125.92,148.19 127.14,149.66 127.74,150.35 128.96,151.58 130.17,152.82 130.78,153.39 131.99,154.41 133.20,155.43 133.81,155.89 135.02,156.74 136.24,157.59 136.84,157.97 139.27,159.39 139.88,159.71 142.30,160.95 142.91,161.24 145.34,162.39 145.94,162.65 146.55,162.90 148.37,163.67 148.98,163.91 152.01,165.11 155.04,166.28 158.08,167.42 160.50,168.31 164.14,169.63 167.18,170.70 169.60,171.57 175.67,173.69 181.74,175.77 187.20,177.61 192.05,179.21 192.66,179.42 197.51,180.99 201.15,182.16 201.76,182.36 202.97,182.74 205.40,183.51 207.82,184.27 208.43,184.46 211.46,185.40 212.07,185.59 213.89,186.15 214.49,186.34 216.31,186.90 216.92,187.08 218.74,187.63 219.35,187.82 221.17,188.37 221.77,188.56 222.99,188.91 224.81,189.47 225.41,189.65 226.63,190.01 229.66,190.92 230.27,191.10 230.87,191.28 233.91,192.17 235.73,192.71 236.33,192.89 237.55,193.24 238.15,193.42 238.76,193.60 241.19,194.30 242.40,194.65 244.22,195.18 244.83,195.36 246.04,195.71 247.25,196.06 249.68,196.75 250.89,197.11 252.11,197.46 254.53,198.16 255.14,198.32 258.78,199.36 259.39,199.53 266.06,201.41 267.88,201.92 281.83,205.78 284.87,206.61 290.93,208.25 299.42,210.52 305.49,212.12 311.56,213.71 313.78,214.28 320.66,216.05 327.94,217.89 335.22,219.71 342.50,221.51 350.99,223.57 356.45,224.86 361.91,226.15 367.37,227.40 374.04,228.90 380.11,230.23 386.17,231.51 389.21,232.14 393.45,233.01 397.70,233.85 402.55,234.80 408.01,235.83 413.47,236.83 419.54,237.91 424.39,238.74 429.85,239.65 435.31,240.54 441.38,241.48 448.05,242.48 453.51,243.27 460.19,244.19 466.25,245.00 471.71,245.70 477.17,246.37 485.06,247.30 491.73,248.06 499.01,248.85 506.90,249.68 514.78,250.47 522.06,251.17 530.56,251.97 540.87,252.90 549.97,253.70 560.28,254.57 571.20,255.47 583.33,256.44 597.29,257.52 612.45,258.67 628.83,259.87 647.03,261.19 668.26,262.68 693.14,264.40 722.26,266.38 757.44,268.74 758.65,268.82"/>
<line x1="88" y1="70" x2="110" y2="70" stroke="#0f766e" stroke-width="2.8" stroke-dasharray="6 3"/>
<text x="116" y="74" font-family="Arial, sans-serif" font-size="12">[Pulldown]+[GND Clamp]</text>
<line x1="88" y1="88" x2="110" y2="88" stroke="#7c2d12" stroke-width="2.8" stroke-dasharray="6 3"/>
<text x="116" y="92" font-family="Arial, sans-serif" font-size="12">[Pullup]+[POWER Clamp]</text>
<text x="425.00" y="444.00" text-anchor="middle" font-family="Arial, sans-serif" font-size="12">Table voltage (V)</text>
<text transform="translate(18 226.00) rotate(-90)" text-anchor="middle" font-family="Arial, sans-serif" font-size="12">Current (A)</text>
<text x="420" y="42" font-family="Arial, sans-serif" font-size="11" fill="#555">thick dashed=combined typ curves</text>
</svg>