<svg xmlns="http://www.w3.org/2000/svg" width="800" height="560" viewBox="0 0 800 560">
<rect width="100%" height="100%" fill="#ffffff"/>
<text x="78" y="25" font-family="Arial, sans-serif" font-size="16" font-weight="700">DQS_40_4800 I-V Combined Curves</text>
<rect x="78" y="52" width="694" height="348" fill="#fbfbfb" stroke="#c8c8c8"/>
<line x1="78.00" y1="52" x2="78.00" y2="400" stroke="#ececec"/>
<text x="78.00" y="422" text-anchor="middle" font-family="Arial, sans-serif" font-size="11">-1.2</text>
<line x1="216.80" y1="52" x2="216.80" y2="400" stroke="#ececec"/>
<text x="216.80" y="422" text-anchor="middle" font-family="Arial, sans-serif" font-size="11">-0.48</text>
<line x1="355.60" y1="52" x2="355.60" y2="400" stroke="#ececec"/>
<text x="355.60" y="422" text-anchor="middle" font-family="Arial, sans-serif" font-size="11">0.207</text>
<line x1="494.40" y1="52" x2="494.40" y2="400" stroke="#ececec"/>
<text x="494.40" y="422" text-anchor="middle" font-family="Arial, sans-serif" font-size="11">0.893</text>
<line x1="633.20" y1="52" x2="633.20" y2="400" stroke="#ececec"/>
<text x="633.20" y="422" text-anchor="middle" font-family="Arial, sans-serif" font-size="11">1.6</text>
<line x1="772.00" y1="52" x2="772.00" y2="400" stroke="#ececec"/>
<text x="772.00" y="422" text-anchor="middle" font-family="Arial, sans-serif" font-size="11">2.3</text>
<line x1="78" y1="400.00" x2="772" y2="400.00" stroke="#ececec"/>
<text x="70" y="404.00" text-anchor="end" font-family="Arial, sans-serif" font-size="11">-0.0997</text>
<line x1="78" y1="330.40" x2="772" y2="330.40" stroke="#ececec"/>
<text x="70" y="334.40" text-anchor="end" font-family="Arial, sans-serif" font-size="11">-0.0622</text>
<line x1="78" y1="260.80" x2="772" y2="260.80" stroke="#ececec"/>
<text x="70" y="264.80" text-anchor="end" font-family="Arial, sans-serif" font-size="11">-0.0247</text>
<line x1="78" y1="191.20" x2="772" y2="191.20" stroke="#ececec"/>
<text x="70" y="195.20" text-anchor="end" font-family="Arial, sans-serif" font-size="11">0.0128</text>
<line x1="78" y1="121.60" x2="772" y2="121.60" stroke="#ececec"/>
<text x="70" y="125.60" text-anchor="end" font-family="Arial, sans-serif" font-size="11">0.0504</text>
<line x1="78" y1="52.00" x2="772" y2="52.00" stroke="#ececec"/>
<text x="70" y="56.00" text-anchor="end" font-family="Arial, sans-serif" font-size="11">0.0879</text>
<line x1="313.78" y1="52" x2="313.78" y2="400" stroke="#777" stroke-dasharray="4 4"/>
<line x1="78" y1="215.04" x2="772" y2="215.04" stroke="#777" stroke-dasharray="4 4"/>
<line x1="91.35" y1="52" x2="91.35" y2="400" stroke="#555" stroke-dasharray="2 4"/>
<text x="95.35" y="66" font-family="Arial, sans-serif" font-size="11" fill="#555">-Vcc</text>
<line x1="536.22" y1="52" x2="536.22" y2="400" stroke="#555" stroke-dasharray="2 4"/>
<text x="540.22" y="66" font-family="Arial, sans-serif" font-size="11" fill="#555">Vcc</text>
<line x1="758.65" y1="52" x2="758.65" y2="400" stroke="#555" stroke-dasharray="2 4"/>
<text x="762.65" y="66" font-family="Arial, sans-serif" font-size="11" fill="#555">2Vcc</text>
<polyline fill="none" stroke="#0f766e" stroke-width="2.8" opacity="0.95" stroke-dasharray="6 3" points="91.35,376.00 92.56,372.46 93.77,368.97 94.99,365.53 96.20,362.16 96.81,360.49 97.41,358.84 98.02,357.21 98.63,355.60 99.23,353.99 100.45,350.85 101.05,349.30 101.66,347.78 102.27,346.29 102.87,344.81 103.48,343.34 104.09,341.91 105.30,339.09 105.91,337.73 107.12,335.06 107.73,333.77 108.33,332.51 108.94,331.25 109.55,330.04 110.15,328.87 110.76,327.69 111.37,326.56 111.97,325.47 112.58,324.38 113.19,323.33 113.79,322.33 114.40,321.32 115.01,320.36 115.61,319.44 116.22,318.52 116.83,317.64 118.04,315.97 118.65,315.16 119.86,313.65 120.47,312.91 121.07,312.22 122.28,310.86 122.89,310.22 124.10,308.97 125.92,307.24 126.53,306.70 127.74,305.64 129.56,304.16 131.38,302.76 131.99,302.32 133.81,300.99 135.02,300.11 136.84,298.88 137.45,298.46 139.27,297.25 140.48,296.46 143.52,294.51 145.34,293.38 147.16,292.23 148.98,291.11 153.22,288.52 153.83,288.15 158.68,285.24 160.50,284.16 162.32,283.07 164.14,282.00 167.78,279.85 169.00,279.15 172.64,277.03 173.24,276.69 176.28,274.93 179.92,272.85 180.52,272.52 182.34,271.48 182.95,271.14 187.20,268.76 191.44,266.41 193.87,265.08 198.12,262.79 198.72,262.47 200.54,261.49 202.97,260.22 206.61,258.32 207.82,257.71 212.07,255.57 213.28,254.96 215.10,254.08 216.31,253.49 219.95,251.74 221.17,251.19 224.81,249.53 225.41,249.25 226.63,248.70 227.84,248.17 229.66,247.38 233.30,245.80 235.73,244.79 236.33,244.54 236.94,244.29 239.37,243.28 241.19,242.55 241.79,242.30 244.22,241.32 247.25,240.13 251.50,238.47 256.35,236.60 257.57,236.12 264.24,233.58 267.27,232.41 281.83,226.92 294.57,222.15 304.88,218.31 313.78,215.04 320.66,212.54 326.72,210.36 335.22,207.35 341.89,205.04 347.35,203.17 354.02,200.93 360.09,198.94 364.34,197.56 369.80,195.84 375.86,193.98 378.29,193.25 383.75,191.65 388.60,190.28 393.45,188.93 398.31,187.65 403.77,186.25 409.23,184.92 412.87,184.07 418.33,182.82 423.18,181.77 428.64,180.65 431.67,180.04 436.53,179.11 440.77,178.33 446.23,177.37 452.30,176.35 457.76,175.49 464.43,174.48 471.10,173.53 477.78,172.63 485.06,171.70 492.94,170.74 500.83,169.83 510.54,168.77 520.24,167.77 529.95,166.81 539.05,165.95 549.97,164.96 562.71,163.85 576.05,162.74 590.61,161.57 606.99,160.31 625.19,158.96 645.21,157.53 668.26,155.93 693.74,154.22 722.86,152.32 756.23,150.19 758.65,150.04"/>
<polyline fill="none" stroke="#7c2d12" stroke-width="2.8" opacity="0.95" stroke-dasharray="6 3" points="91.35,76.00 92.56,79.25 93.77,82.48 94.99,85.68 96.20,88.86 97.41,92.00 98.63,95.12 99.23,96.67 101.05,101.26 102.27,104.26 102.87,105.75 104.09,108.71 104.69,110.16 105.30,111.61 105.91,113.05 107.12,115.89 108.33,118.66 108.94,120.04 110.15,122.74 110.76,124.07 111.37,125.38 111.97,126.67 112.58,127.96 113.19,129.22 113.79,130.45 114.40,131.69 115.01,132.90 115.61,134.07 116.22,135.25 116.83,136.40 118.04,138.62 118.65,139.71 119.25,140.75 119.86,141.80 120.47,142.81 121.07,143.77 121.68,144.74 122.28,145.68 122.89,146.56 123.50,147.45 124.10,148.31 125.32,149.92 125.92,150.71 126.53,151.45 127.74,152.91 128.96,154.24 129.56,154.88 130.78,156.05 131.38,156.62 131.99,157.10 132.60,157.60 134.42,159.07 135.02,159.54 137.45,161.11 138.06,161.50 138.66,161.89 140.48,162.86 142.30,163.84 142.91,164.12 143.52,164.41 144.73,164.97 145.94,165.54 148.37,166.57 148.98,166.83 153.22,168.56 153.83,168.79 155.65,169.48 158.08,170.40 161.11,171.55 162.93,172.22 164.14,172.66 168.39,174.21 172.64,175.73 173.24,175.95 179.92,178.30 181.74,178.92 182.95,179.34 187.80,181.00 192.05,182.42 195.08,183.42 195.69,183.62 199.33,184.81 201.15,185.39 202.36,185.78 204.18,186.35 206.61,187.12 207.22,187.32 207.82,187.51 210.85,188.44 212.07,188.82 213.28,189.19 215.10,189.74 215.71,189.92 216.31,190.11 219.95,191.20 221.17,191.55 221.77,191.73 224.81,192.61 225.41,192.79 226.63,193.14 227.23,193.32 228.45,193.66 229.66,194.00 230.27,194.17 232.69,194.85 233.30,195.03 234.51,195.36 236.94,196.03 238.76,196.52 239.37,196.70 239.97,196.86 241.19,197.18 243.61,197.83 244.22,198.00 244.83,198.16 246.04,198.48 246.65,198.64 247.86,198.95 249.68,199.43 252.71,200.21 253.32,200.37 256.96,201.30 259.39,201.92 259.99,202.07 266.67,203.75 267.27,203.90 281.23,207.33 282.44,207.63 289.72,209.39 297.60,211.27 304.88,212.98 312.16,214.66 313.78,215.03 320.05,216.46 326.72,217.97 335.22,219.86 341.28,221.19 347.96,222.63 354.02,223.92 360.70,225.31 364.94,226.19 369.80,227.17 375.26,228.25 378.29,228.84 383.14,229.76 387.39,230.55 392.85,231.55 397.70,232.41 403.16,233.35 408.62,234.27 412.87,234.96 418.33,235.83 423.79,236.67 429.85,237.56 432.28,237.92 438.35,238.77 444.41,239.60 450.48,240.39 456.55,241.16 463.22,241.96 468.68,242.59 474.74,243.27 481.42,243.98 487.48,244.61 494.76,245.33 501.44,245.96 509.93,246.74 517.82,247.44 525.70,248.11 533.59,248.76 543.30,249.53 551.79,250.18 563.31,251.04 573.63,251.79 585.15,252.60 598.50,253.52 612.45,254.46 628.23,255.49 645.82,256.62 665.84,257.87 688.28,259.25 714.98,260.87 746.52,262.76 758.65,263.47"/>
<line x1="88" y1="70" x2="110" y2="70" stroke="#0f766e" stroke-width="2.8" stroke-dasharray="6 3"/>
<text x="116" y="74" font-family="Arial, sans-serif" font-size="12">[Pulldown]+[GND Clamp]</text>
<line x1="88" y1="88" x2="110" y2="88" stroke="#7c2d12" stroke-width="2.8" stroke-dasharray="6 3"/>
<text x="116" y="92" font-family="Arial, sans-serif" font-size="12">[Pullup]+[POWER Clamp]</text>
<text x="425.00" y="444.00" text-anchor="middle" font-family="Arial, sans-serif" font-size="12">Table voltage (V)</text>
<text transform="translate(18 226.00) rotate(-90)" text-anchor="middle" font-family="Arial, sans-serif" font-size="12">Current (A)</text>
<text x="420" y="42" font-family="Arial, sans-serif" font-size="11" fill="#555">thick dashed=combined typ curves</text>
</svg>