<svg xmlns="http://www.w3.org/2000/svg" width="800" height="520" viewBox="0 0 800 520">
<rect width="100%" height="100%" fill="#ffffff"/>
<text x="78" y="25" font-family="Arial, sans-serif" font-size="16" font-weight="700">DQ_40_4800 I-V Pullup/Pulldown 0 V Detail</text>
<rect x="78" y="54" width="690" height="306" fill="#fbfbfb" stroke="#c8c8c8"/>
<line x1="78.00" y1="54" x2="78.00" y2="360" stroke="#ececec"/>
<text x="78.00" y="382" text-anchor="middle" font-family="Arial, sans-serif" font-size="11">0</text>
<line x1="216.00" y1="54" x2="216.00" y2="360" stroke="#ececec"/>
<text x="216.00" y="382" text-anchor="middle" font-family="Arial, sans-serif" font-size="11">0.22</text>
<line x1="354.00" y1="54" x2="354.00" y2="360" stroke="#ececec"/>
<text x="354.00" y="382" text-anchor="middle" font-family="Arial, sans-serif" font-size="11">0.44</text>
<line x1="492.00" y1="54" x2="492.00" y2="360" stroke="#ececec"/>
<text x="492.00" y="382" text-anchor="middle" font-family="Arial, sans-serif" font-size="11">0.66</text>
<line x1="630.00" y1="54" x2="630.00" y2="360" stroke="#ececec"/>
<text x="630.00" y="382" text-anchor="middle" font-family="Arial, sans-serif" font-size="11">0.88</text>
<line x1="768.00" y1="54" x2="768.00" y2="360" stroke="#ececec"/>
<text x="768.00" y="382" text-anchor="middle" font-family="Arial, sans-serif" font-size="11">1.1</text>
<line x1="78" y1="360.00" x2="768" y2="360.00" stroke="#ececec"/>
<text x="70" y="364.00" text-anchor="end" font-family="Arial, sans-serif" font-size="11">-0.0276</text>
<line x1="78" y1="298.80" x2="768" y2="298.80" stroke="#ececec"/>
<text x="70" y="302.80" text-anchor="end" font-family="Arial, sans-serif" font-size="11">-0.015</text>
<line x1="78" y1="237.60" x2="768" y2="237.60" stroke="#ececec"/>
<text x="70" y="241.60" text-anchor="end" font-family="Arial, sans-serif" font-size="11">-0.00242</text>
<line x1="78" y1="176.40" x2="768" y2="176.40" stroke="#ececec"/>
<text x="70" y="180.40" text-anchor="end" font-family="Arial, sans-serif" font-size="11">0.0102</text>
<line x1="78" y1="115.20" x2="768" y2="115.20" stroke="#ececec"/>
<text x="70" y="119.20" text-anchor="end" font-family="Arial, sans-serif" font-size="11">0.0228</text>
<line x1="78" y1="54.00" x2="768" y2="54.00" stroke="#ececec"/>
<text x="70" y="58.00" text-anchor="end" font-family="Arial, sans-serif" font-size="11">0.0353</text>
<line x1="78.00" y1="54" x2="78.00" y2="360" stroke="#777" stroke-dasharray="4 4"/>
<line x1="78" y1="225.85" x2="768" y2="225.85" stroke="#777" stroke-dasharray="4 4"/>
<line x1="78.00" y1="54" x2="78.00" y2="360" stroke="#555" stroke-dasharray="2 4"/>
<text x="82.00" y="68" font-family="Arial, sans-serif" font-size="11" fill="#555">0V</text>
<line x1="768.00" y1="54" x2="768.00" y2="360" stroke="#555" stroke-dasharray="2 4"/>
<text x="772.00" y="68" font-family="Arial, sans-serif" font-size="11" fill="#555">Vcc</text>
<polyline fill="none" stroke="#1f77b4" stroke-width="1.2" opacity="0.55" stroke-dasharray="4 4" points="78.00,225.86 99.33,219.71 118.15,214.34 144.49,206.98 165.19,201.32 182.13,196.75 202.83,191.26 221.65,186.38 234.82,183.02 251.75,178.79 270.57,174.18 278.10,172.39 295.04,168.38 310.09,164.94 325.15,161.59 340.20,158.36 357.14,154.84 374.07,151.48 385.36,149.31 402.30,146.21 417.35,143.57 434.29,140.77 443.70,139.24 458.75,136.93 471.93,134.96 488.86,132.57 507.68,130.04 524.62,127.89 545.32,125.36 566.02,122.97 586.72,120.70 609.30,118.34 633.76,115.89 658.23,113.56 688.34,110.83 718.45,108.21 748.55,105.71 768.00,104.16"/>
<polyline fill="none" stroke="#1f77b4" stroke-width="1.2" opacity="0.55" stroke-dasharray="4 4" points="78.00,225.85 99.33,219.14 118.15,213.26 144.49,205.16 165.19,198.94 182.13,193.90 202.83,187.88 221.65,182.56 234.82,178.90 251.75,174.32 270.57,169.41 278.10,167.48 295.04,163.24 310.09,159.58 325.15,156.05 340.20,152.61 357.14,148.87 374.07,145.24 385.36,142.90 402.30,139.48 417.35,136.55 434.29,133.35 443.70,131.63 458.75,128.94 471.93,126.67 488.86,123.86 507.68,120.87 524.62,118.29 545.32,115.30 566.02,112.46 586.72,109.78 609.30,106.99 633.76,104.17 658.23,101.49 688.34,98.40 718.45,95.50 748.55,92.77 768.00,91.09"/>
<polyline fill="none" stroke="#1f77b4" stroke-width="2.0" opacity="1.0" points="78.00,225.85 99.33,219.29 118.15,213.58 144.49,205.71 165.19,199.64 182.13,194.75 202.83,188.89 221.65,183.67 234.82,180.06 251.75,175.54 270.57,170.66 278.10,168.75 295.04,164.55 310.09,160.97 325.15,157.44 340.20,154.07 357.14,150.42 374.07,146.93 385.36,144.69 402.30,141.43 417.35,138.68 434.29,135.73 443.70,134.15 458.75,131.71 471.93,129.66 488.86,127.14 507.68,124.48 524.62,122.22 545.32,119.58 566.02,117.09 586.72,114.73 609.30,112.28 633.76,109.78 658.23,107.39 688.34,104.61 718.45,101.98 748.55,99.47 768.00,97.92"/>
<polyline fill="none" stroke="#d62728" stroke-width="1.2" opacity="0.55" stroke-dasharray="4 4" points="78.00,225.84 97.45,229.42 118.15,233.18 144.49,237.88 163.31,241.18 184.01,244.76 202.83,247.96 223.53,251.40 236.70,253.55 251.75,255.96 268.69,258.63 278.10,260.07 293.15,262.36 306.33,264.30 323.26,266.73 338.32,268.82 355.25,271.10 372.19,273.29 385.36,274.95 402.30,276.99 419.24,278.96 438.05,281.05 445.58,281.86 464.40,283.83 483.22,285.71 502.04,287.49 520.85,289.21 541.55,291.02 558.49,292.43 577.31,293.95 598.01,295.54 616.83,296.95 639.41,298.59 660.11,300.03 686.45,301.79 710.92,303.38 735.38,304.93 759.85,306.43 768.00,306.91"/>
<polyline fill="none" stroke="#d62728" stroke-width="1.2" opacity="0.55" stroke-dasharray="4 4" points="78.00,225.85 97.45,229.72 118.15,233.84 144.49,239.01 163.31,242.64 184.01,246.60 202.83,250.15 223.53,253.98 236.70,256.38 251.75,259.07 268.69,262.03 278.10,263.66 293.15,266.21 306.33,268.40 323.26,271.15 338.32,273.55 355.25,276.19 372.19,278.77 385.36,280.74 402.30,283.22 419.24,285.64 438.05,288.27 445.58,289.30 464.40,291.84 483.22,294.30 502.04,296.68 520.85,299.00 541.55,301.45 558.49,303.39 577.31,305.48 598.01,307.68 616.83,309.61 639.41,311.84 660.11,313.79 686.45,316.18 710.92,318.30 735.38,320.33 759.85,322.28 768.00,322.91"/>
<polyline fill="none" stroke="#d62728" stroke-width="2.0" opacity="1.0" points="78.00,225.85 97.45,229.59 118.15,233.53 144.49,238.49 163.31,241.97 184.01,245.75 202.83,249.13 223.53,252.77 236.70,255.07 251.75,257.65 268.69,260.47 278.10,262.02 293.15,264.44 306.33,266.51 323.26,269.13 338.32,271.38 355.25,273.84 372.19,276.24 385.36,278.04 402.30,280.32 419.24,282.52 438.05,284.88 445.58,285.80 464.40,288.05 483.22,290.21 502.04,292.29 520.85,294.29 541.55,296.39 558.49,298.05 577.31,299.82 598.01,301.69 616.83,303.33 639.41,305.22 660.11,306.89 686.45,308.92 710.92,310.75 735.38,312.50 759.85,314.20 768.00,314.74"/>
<circle cx="78.00" cy="225.85" r="4.0" fill="#ffffff" stroke="#1f77b4" stroke-width="1.5"/>
<circle cx="78.00" cy="225.86" r="3.0" fill="#ffffff" stroke="#1f77b4" stroke-width="1.5"/>
<circle cx="78.00" cy="225.85" r="3.0" fill="#ffffff" stroke="#1f77b4" stroke-width="1.5"/>
<circle cx="78.00" cy="225.85" r="4.0" fill="#ffffff" stroke="#d62728" stroke-width="1.5"/>
<circle cx="78.00" cy="225.84" r="3.0" fill="#ffffff" stroke="#d62728" stroke-width="1.5"/>
<circle cx="78.00" cy="225.85" r="3.0" fill="#ffffff" stroke="#d62728" stroke-width="1.5"/>
<line x1="88" y1="72" x2="110" y2="72" stroke="#1f77b4" stroke-width="2.4"/>
<text x="116" y="76" font-family="Arial, sans-serif" font-size="12">[Pulldown]</text>
<line x1="88" y1="90" x2="110" y2="90" stroke="#d62728" stroke-width="2.4"/>
<text x="116" y="94" font-family="Arial, sans-serif" font-size="12">[Pullup]</text>
<text x="423.00" y="404.00" text-anchor="middle" font-family="Arial, sans-serif" font-size="12">Table voltage (V), zoomed around 0 V</text>
<text transform="translate(18 207.00) rotate(-90)" text-anchor="middle" font-family="Arial, sans-serif" font-size="12">Current (A)</text>
<text x="420" y="42" font-family="Arial, sans-serif" font-size="11" fill="#555">pullup/pulldown curves show typ/min/max; open circles mark I(0 V)</text>
<rect x="78" y="422" width="690" height="60" fill="#fffdf7" stroke="#d8c6a1" rx="4"/>
<text x="88" y="439" font-family="Arial, sans-serif" font-size="11" font-weight="700" fill="#4b3b21">Findings needing attention</text>
<rect x="88" y="446" width="7" height="7" fill="#b54708"/>
<text x="102" y="453" font-family="Arial, sans-serif" font-size="11" fill="#333">WARN 5.3.8: [Pulldown] zero-current condition at 0V needs review | col 2: -2.16uA, pass limit +/-1uA</text>
<rect x="88" y="462" width="7" height="7" fill="#b54708"/>
<text x="102" y="469" font-family="Arial, sans-serif" font-size="11" fill="#333">WARN 5.3.9: [Pullup] zero-current condition at 0V needs review | col 2: 1.63uA, pass limit +/-1uA</text>
</svg>