<svg xmlns="http://www.w3.org/2000/svg" width="800" height="450" viewBox="0 0 800 450">
<rect width="100%" height="100%" fill="#ffffff"/>
<text x="78" y="25" font-family="Arial, sans-serif" font-size="16" font-weight="700">ALERT V-T Waveforms</text>
<rect x="78" y="54" width="694" height="230" fill="#fbfbfb" stroke="#c8c8c8"/>
<text transform="translate(18 169.00) rotate(-90)" text-anchor="middle" font-family="Arial, sans-serif" font-size="12">Voltage (V)</text>
<line x1="78.00" y1="54" x2="78.00" y2="284" stroke="#ececec"/>
<text x="78.00" y="302" text-anchor="middle" font-family="Arial, sans-serif" font-size="10">-6p</text>
<line x1="216.80" y1="54" x2="216.80" y2="284" stroke="#ececec"/>
<text x="216.80" y="302" text-anchor="middle" font-family="Arial, sans-serif" font-size="10">56.4p</text>
<line x1="355.60" y1="54" x2="355.60" y2="284" stroke="#ececec"/>
<text x="355.60" y="302" text-anchor="middle" font-family="Arial, sans-serif" font-size="10">119p</text>
<line x1="494.40" y1="54" x2="494.40" y2="284" stroke="#ececec"/>
<text x="494.40" y="302" text-anchor="middle" font-family="Arial, sans-serif" font-size="10">181p</text>
<line x1="633.20" y1="54" x2="633.20" y2="284" stroke="#ececec"/>
<text x="633.20" y="302" text-anchor="middle" font-family="Arial, sans-serif" font-size="10">244p</text>
<line x1="772.00" y1="54" x2="772.00" y2="284" stroke="#ececec"/>
<text x="772.00" y="302" text-anchor="middle" font-family="Arial, sans-serif" font-size="10">306p</text>
<line x1="78" y1="284.00" x2="772" y2="284.00" stroke="#ececec"/>
<text x="70" y="288.00" text-anchor="end" font-family="Arial, sans-serif" font-size="10">0.279</text>
<line x1="78" y1="226.50" x2="772" y2="226.50" stroke="#ececec"/>
<text x="70" y="230.50" text-anchor="end" font-family="Arial, sans-serif" font-size="10">0.503</text>
<line x1="78" y1="169.00" x2="772" y2="169.00" stroke="#ececec"/>
<text x="70" y="173.00" text-anchor="end" font-family="Arial, sans-serif" font-size="10">0.727</text>
<line x1="78" y1="111.50" x2="772" y2="111.50" stroke="#ececec"/>
<text x="70" y="115.50" text-anchor="end" font-family="Arial, sans-serif" font-size="10">0.952</text>
<line x1="78" y1="54.00" x2="772" y2="54.00" stroke="#ececec"/>
<text x="70" y="58.00" text-anchor="end" font-family="Arial, sans-serif" font-size="10">1.2</text>
<line x1="78" y1="73.45" x2="772" y2="73.45" stroke="#1f77b4" opacity="0.18" stroke-dasharray="3 4"/>
<polyline fill="none" stroke="#1f77b4" stroke-width="2.0" points="91.35,73.45 115.81,73.45 129.16,73.45 140.28,73.45 149.18,73.45 158.08,73.45 166.97,73.45 175.87,73.45 182.54,73.45 186.99,73.45 193.67,73.45 200.34,73.45 207.01,73.45 211.46,73.71 215.91,73.71 220.36,73.71 224.81,73.71 227.03,73.71 229.26,73.71 231.48,73.71 235.93,73.71 240.38,73.71 244.83,73.71 249.28,73.71 253.72,73.71 255.95,73.71 258.17,73.71 260.40,73.71 262.62,73.71 264.85,73.71 267.07,73.71 269.29,73.45 271.52,73.45 273.74,73.45 275.97,73.20 278.19,73.20 280.42,72.94 282.64,72.68 284.87,72.68 287.09,72.43 289.31,72.17 291.54,72.17 293.76,71.91 295.99,71.66 298.21,71.40 300.44,71.14 302.66,70.89 304.88,70.89 307.11,70.63 309.33,70.37 311.56,70.12 313.78,70.12 316.01,69.86 318.23,69.86 320.46,69.86 322.68,70.12 324.90,70.37 327.13,71.14 329.35,71.91 331.58,72.94 333.80,74.22 336.03,75.76 338.25,77.56 340.47,79.86 342.70,82.17 344.92,84.99 347.15,87.81 349.37,91.15 351.60,94.48 353.82,98.33 356.04,102.12 358.27,106.21 360.49,110.31 362.72,114.63 364.94,118.96 367.17,123.46 369.39,127.95 371.62,132.53 373.84,137.10 376.06,141.70 378.29,146.29 380.51,150.84 382.74,155.39 384.96,159.84 387.19,164.29 389.41,168.59 391.63,172.90 393.86,177.06 396.08,181.22 398.31,185.17 400.53,189.11 402.76,192.84 404.98,196.57 407.21,200.07 409.43,203.58 411.65,206.80 413.88,210.03 416.10,213.03 418.33,216.02 420.55,218.77 422.78,221.52 425.00,223.98 427.22,226.43 429.45,228.68 431.67,230.93 433.90,232.97 436.12,235.00 438.35,236.82 440.57,238.64 442.79,240.26 445.02,241.88 447.24,243.32 449.47,244.76 451.69,246.04 453.92,247.32 456.14,248.39 458.37,249.46 460.59,250.50 462.81,251.54 465.04,252.38 467.26,253.23 469.49,254.02 471.71,254.81 473.94,255.50 476.16,256.18 478.38,256.78 480.61,257.38 482.83,257.91 485.06,258.44 487.28,258.90 489.51,259.36 491.73,259.75 493.96,260.13 496.18,260.52 498.40,260.90 500.63,261.20 502.85,261.49 505.08,261.78 507.30,262.07 509.53,262.31 511.75,262.55 513.97,262.77 516.20,262.98 518.42,263.18 520.65,263.37 522.87,263.54 525.10,263.71 527.32,263.86 529.54,264.00 531.77,264.13 533.99,264.26 536.22,264.37 538.44,264.47 540.67,264.58 542.89,264.69 547.34,264.87 549.56,264.95 551.79,265.03 554.01,265.10 556.24,265.18 558.46,265.24 560.69,265.30 562.91,265.36 565.13,265.41 569.58,265.51 571.81,265.56 574.03,265.60 578.48,265.68 580.71,265.71 582.93,265.75 587.38,265.81 589.60,265.84 591.83,265.86 596.28,265.91 600.72,265.95 602.95,265.97 609.62,266.02 611.85,266.04 616.29,266.07 620.74,266.09 629.64,266.14 634.09,266.16 638.54,266.18 642.99,266.19 647.44,266.21 651.88,266.22 660.78,266.24 665.23,266.25 674.13,266.26 678.58,266.27 687.47,266.28 691.92,266.28 700.82,266.29 705.27,266.29 718.62,266.30 731.96,266.31 754.21,266.32 758.65,266.32"/>
<line x1="78" y1="73.45" x2="772" y2="73.45" stroke="#d62728" opacity="0.18" stroke-dasharray="3 4"/>
<polyline fill="none" stroke="#d62728" stroke-width="2.0" points="91.35,266.33 115.81,266.32 129.16,266.30 138.06,266.29 146.96,266.28 153.63,266.27 160.30,266.26 166.97,266.25 175.87,266.26 182.54,266.29 189.22,266.34 193.67,266.40 198.12,266.47 202.56,266.56 207.01,266.66 213.69,266.85 220.36,267.07 224.81,267.22 227.03,267.30 229.26,267.39 231.48,267.47 233.71,267.56 235.93,267.64 238.15,267.73 240.38,267.81 244.83,267.96 249.28,268.08 253.72,268.14 258.17,268.13 260.40,268.07 262.62,268.01 264.85,267.88 267.07,267.74 269.29,267.52 271.52,267.29 273.74,266.94 275.97,266.59 278.19,266.07 280.42,265.55 282.64,264.83 284.87,264.11 287.09,263.13 289.31,262.14 291.54,260.83 293.76,259.52 295.99,257.83 298.21,256.14 300.44,254.03 302.66,251.92 304.88,249.40 307.11,246.89 309.33,243.98 311.56,241.07 313.78,237.84 316.01,234.61 318.23,231.16 320.46,227.72 322.68,224.16 324.90,220.61 327.13,217.05 329.35,213.48 331.58,209.98 333.80,206.47 336.03,203.06 338.25,199.65 340.47,196.36 342.70,193.07 344.92,189.90 347.15,186.74 349.37,183.71 351.60,180.69 353.82,177.79 356.04,174.89 358.27,172.13 360.49,169.37 362.72,166.74 364.94,164.10 367.17,161.60 369.39,159.10 371.62,156.73 373.84,154.35 376.06,152.10 378.29,149.85 380.51,147.71 382.74,145.57 384.96,143.55 387.19,141.53 389.41,139.62 391.63,137.72 393.86,135.90 396.08,134.09 398.31,132.38 400.53,130.67 402.76,129.05 404.98,127.44 407.21,125.91 409.43,124.38 411.65,122.94 413.88,121.50 416.10,120.14 418.33,118.78 420.55,117.50 422.78,116.21 425.00,115.01 427.22,113.81 429.45,112.67 431.67,111.53 433.90,110.44 436.12,109.36 438.35,108.34 440.57,107.33 442.79,106.37 445.02,105.41 447.24,104.50 449.47,103.60 451.69,102.74 453.92,101.89 456.14,101.11 458.37,100.32 460.59,99.55 462.81,98.84 465.04,98.07 467.26,97.30 469.49,96.79 471.71,96.02 473.94,95.25 476.16,94.74 478.38,94.23 480.61,93.46 482.83,92.94 485.06,92.43 487.28,91.92 489.51,91.40 491.73,90.89 493.96,90.38 496.18,89.87 498.40,89.35 500.63,88.84 502.85,88.58 505.08,88.07 507.30,87.56 509.53,87.30 511.75,86.79 513.97,86.53 516.20,86.02 518.42,85.76 520.65,85.51 522.87,84.99 525.10,84.74 527.32,84.48 529.54,83.97 531.77,83.71 533.99,83.45 536.22,83.20 538.44,82.94 542.89,82.43 547.34,81.92 549.56,81.66 551.79,81.40 556.24,80.89 560.69,80.63 562.91,80.38 565.13,80.12 569.58,79.86 571.81,79.61 574.03,79.35 578.48,79.09 580.71,78.84 582.93,78.84 587.38,78.58 589.60,78.32 591.83,78.32 596.28,78.07 600.72,77.81 602.95,77.56 609.62,77.30 611.85,77.30 616.29,77.04 620.74,76.79 629.64,76.53 634.09,76.27 638.54,76.02 642.99,76.02 651.88,75.76 660.78,75.50 669.68,75.25 678.58,74.99 683.03,74.99 691.92,74.73 696.37,74.73 705.27,74.73 714.17,74.48 727.51,74.22 736.41,74.22 754.21,73.97 758.65,73.97"/>
<line x1="88" y1="72" x2="110" y2="72" stroke="#1f77b4" stroke-width="2.4"/>
<text x="116" y="76" font-family="Arial, sans-serif" font-size="12">falling #1</text>
<line x1="88" y1="90" x2="110" y2="90" stroke="#d62728" stroke-width="2.4"/>
<text x="116" y="94" font-family="Arial, sans-serif" font-size="12">rising #2</text>
<text x="425.00" y="322.00" text-anchor="middle" font-family="Arial, sans-serif" font-size="12">Time (s)</text>
<text x="420" y="42" font-family="Arial, sans-serif" font-size="11" fill="#555">solid=V-T voltage, faint horizontal=V_fixture</text>
</svg>