<svg xmlns="http://www.w3.org/2000/svg" width="800" height="450" viewBox="0 0 800 450">
<rect width="100%" height="100%" fill="#ffffff"/>
<text x="78" y="25" font-family="Arial, sans-serif" font-size="16" font-weight="700">DQS_34_4800 V-T Waveforms</text>
<rect x="78" y="54" width="694" height="230" fill="#fbfbfb" stroke="#c8c8c8"/>
<text transform="translate(18 169.00) rotate(-90)" text-anchor="middle" font-family="Arial, sans-serif" font-size="12">Voltage (V)</text>
<line x1="78.00" y1="54" x2="78.00" y2="284" stroke="#ececec"/>
<text x="78.00" y="302" text-anchor="middle" font-family="Arial, sans-serif" font-size="10">-6p</text>
<line x1="216.80" y1="54" x2="216.80" y2="284" stroke="#ececec"/>
<text x="216.80" y="302" text-anchor="middle" font-family="Arial, sans-serif" font-size="10">56.4p</text>
<line x1="355.60" y1="54" x2="355.60" y2="284" stroke="#ececec"/>
<text x="355.60" y="302" text-anchor="middle" font-family="Arial, sans-serif" font-size="10">119p</text>
<line x1="494.40" y1="54" x2="494.40" y2="284" stroke="#ececec"/>
<text x="494.40" y="302" text-anchor="middle" font-family="Arial, sans-serif" font-size="10">181p</text>
<line x1="633.20" y1="54" x2="633.20" y2="284" stroke="#ececec"/>
<text x="633.20" y="302" text-anchor="middle" font-family="Arial, sans-serif" font-size="10">244p</text>
<line x1="772.00" y1="54" x2="772.00" y2="284" stroke="#ececec"/>
<text x="772.00" y="302" text-anchor="middle" font-family="Arial, sans-serif" font-size="10">306p</text>
<line x1="78" y1="284.00" x2="772" y2="284.00" stroke="#ececec"/>
<text x="70" y="288.00" text-anchor="end" font-family="Arial, sans-serif" font-size="10">-0.108</text>
<line x1="78" y1="226.50" x2="772" y2="226.50" stroke="#ececec"/>
<text x="70" y="230.50" text-anchor="end" font-family="Arial, sans-serif" font-size="10">0.222</text>
<line x1="78" y1="169.00" x2="772" y2="169.00" stroke="#ececec"/>
<text x="70" y="173.00" text-anchor="end" font-family="Arial, sans-serif" font-size="10">0.552</text>
<line x1="78" y1="111.50" x2="772" y2="111.50" stroke="#ececec"/>
<text x="70" y="115.50" text-anchor="end" font-family="Arial, sans-serif" font-size="10">0.882</text>
<line x1="78" y1="54.00" x2="772" y2="54.00" stroke="#ececec"/>
<text x="70" y="58.00" text-anchor="end" font-family="Arial, sans-serif" font-size="10">1.2</text>
<line x1="78" y1="265.26" x2="772" y2="265.26" stroke="#1f77b4" opacity="0.18" stroke-dasharray="3 4"/>
<polyline fill="none" stroke="#1f77b4" stroke-width="2.0" points="91.35,265.26 120.26,265.26 133.61,265.26 146.96,265.27 162.53,265.27 182.54,265.26 193.67,265.25 202.56,265.22 211.46,265.17 218.13,265.14 224.81,265.09 229.26,265.07 233.71,265.04 235.93,265.03 240.38,265.01 244.83,264.99 247.05,264.99 251.50,264.98 253.72,264.97 255.95,264.97 258.17,264.98 260.40,264.98 262.62,264.99 264.85,265.01 267.07,265.03 269.29,265.06 271.52,265.10 273.74,265.14 275.97,265.20 278.19,265.26 280.42,265.34 282.64,265.42 284.87,265.51 287.09,265.61 289.31,265.73 291.54,265.85 293.76,265.98 295.99,266.13 298.21,266.28 300.44,266.43 302.66,266.59 304.88,266.76 307.11,266.93 309.33,267.10 311.56,267.27 313.78,267.44 316.01,267.60 318.23,267.76 320.46,267.90 322.68,268.02 324.90,268.10 327.13,268.14 329.35,268.13 331.58,268.05 333.80,267.90 336.03,267.68 338.25,267.37 340.47,266.96 342.70,266.46 344.92,265.85 347.15,265.16 349.37,264.35 351.60,263.42 353.82,262.38 356.04,261.22 358.27,259.97 360.49,258.62 362.72,257.15 364.94,255.60 367.17,253.96 369.39,252.23 371.62,250.42 373.84,248.56 376.06,246.65 378.29,244.68 380.51,242.68 382.74,240.64 384.96,238.57 387.19,236.49 389.41,234.39 391.63,232.29 393.86,230.19 396.08,228.10 398.31,226.01 400.53,223.95 402.76,221.90 404.98,219.88 407.21,217.88 409.43,215.91 411.65,213.98 413.88,212.09 416.10,210.23 418.33,208.40 420.55,206.62 422.78,204.90 425.00,203.19 427.22,201.54 429.45,199.91 431.67,198.36 433.90,196.83 436.12,195.34 438.35,193.92 440.57,192.53 442.79,191.18 445.02,189.89 447.24,188.62 449.47,187.40 451.69,186.23 453.92,185.09 456.14,183.98 458.37,182.95 460.59,181.92 462.81,180.92 465.04,179.98 467.26,179.04 469.49,178.18 471.71,177.31 473.94,176.51 476.16,175.71 478.38,174.97 480.61,174.23 482.83,173.54 485.06,172.86 487.28,172.25 489.51,171.65 491.73,171.04 493.96,170.44 496.18,169.91 498.40,169.38 500.63,168.87 502.85,168.39 505.08,167.92 509.53,167.05 511.75,166.64 513.97,166.25 516.20,165.87 518.42,165.52 520.65,165.17 522.87,164.86 525.10,164.55 527.32,164.25 529.54,163.94 531.77,163.66 533.99,163.40 536.22,163.14 538.44,162.89 540.67,162.66 542.89,162.43 545.12,162.22 547.34,162.02 549.56,161.82 551.79,161.63 554.01,161.45 556.24,161.28 558.46,161.11 560.69,160.96 562.91,160.80 565.13,160.66 569.58,160.41 571.81,160.28 576.26,160.03 578.48,159.92 582.93,159.72 585.15,159.62 587.38,159.52 591.83,159.35 596.28,159.19 598.50,159.12 600.72,159.05 602.95,158.98 605.17,158.91 609.62,158.80 614.07,158.69 618.52,158.60 622.97,158.51 625.19,158.47 629.64,158.39 631.87,158.35 636.31,158.28 638.54,158.24 642.99,158.18 654.11,158.05 658.56,158.00 660.78,157.97 669.68,157.90 671.90,157.88 678.58,157.83 687.47,157.78 696.37,157.73 703.04,157.71 714.17,157.66 723.06,157.64 738.63,157.61 745.31,157.60 758.65,157.58"/>
<line x1="78" y1="73.52" x2="772" y2="73.52" stroke="#d62728" opacity="0.18" stroke-dasharray="3 4"/>
<polyline fill="none" stroke="#d62728" stroke-width="2.0" points="91.35,203.82 135.83,203.82 144.73,203.82 151.40,203.81 158.08,203.81 162.53,203.80 166.97,203.80 171.42,203.79 175.87,203.79 182.54,203.78 186.99,203.77 191.44,203.76 195.89,203.76 200.34,203.75 204.79,203.74 209.24,203.73 213.69,203.73 218.13,203.74 222.58,203.75 224.81,203.76 229.26,203.79 231.48,203.81 233.71,203.83 235.93,203.86 238.15,203.89 240.38,203.92 244.83,203.99 249.28,204.07 251.50,204.11 253.72,204.16 255.95,204.21 258.17,204.26 260.40,204.31 262.62,204.37 264.85,204.43 267.07,204.50 269.29,204.57 271.52,204.64 273.74,204.71 275.97,204.79 278.19,204.86 280.42,204.93 282.64,205.00 284.87,205.06 287.09,205.12 289.31,205.17 291.54,205.21 293.76,205.24 295.99,205.24 298.21,205.23 300.44,205.18 302.66,205.11 304.88,204.99 307.11,204.83 309.33,204.62 311.56,204.35 313.78,204.01 316.01,203.60 318.23,203.09 320.46,202.48 322.68,201.76 324.90,200.91 327.13,199.89 329.35,198.73 331.58,197.41 333.80,195.91 336.03,194.24 338.25,192.41 340.47,190.39 342.70,188.21 344.92,185.88 347.15,183.43 349.37,180.85 351.60,178.17 353.82,175.40 356.04,172.55 358.27,169.65 360.49,166.69 362.72,163.69 364.94,160.67 367.17,157.62 369.39,154.57 371.62,151.52 373.84,148.49 376.06,145.47 378.29,142.50 380.51,139.57 382.74,136.70 384.96,133.90 387.19,131.17 389.41,128.51 391.63,125.94 393.86,123.45 396.08,121.07 398.31,118.74 400.53,116.51 402.76,114.37 404.98,112.31 407.21,110.33 409.43,108.46 411.65,106.66 413.88,104.94 416.10,103.30 418.33,101.74 420.55,100.25 422.78,98.88 425.00,97.50 427.22,96.23 429.45,94.99 431.67,93.86 433.90,92.76 436.12,91.71 438.35,90.78 440.57,89.73 442.79,88.86 445.02,88.16 447.24,87.29 449.47,86.60 451.69,85.90 453.92,85.20 456.14,84.50 458.37,83.98 460.59,83.46 462.81,82.76 465.04,82.24 467.26,81.89 469.49,81.37 471.71,81.02 473.94,80.49 476.16,80.15 478.38,79.80 480.61,79.45 482.83,79.10 485.06,78.75 487.28,78.58 489.51,78.23 491.73,78.05 493.96,77.71 496.18,77.53 498.40,77.36 500.63,77.01 502.85,76.83 505.08,76.66 509.53,76.31 511.75,76.14 513.97,76.14 516.20,75.96 518.42,75.79 520.65,75.61 522.87,75.61 525.10,75.44 527.32,75.44 529.54,75.27 531.77,75.09 533.99,75.09 536.22,74.92 538.44,74.92 540.67,74.74 542.89,74.74 545.12,74.74 547.34,74.57 549.56,74.57 551.79,74.57 554.01,74.39 556.24,74.39 558.46,74.39 560.69,74.39 562.91,74.22 565.13,74.22 569.58,74.22 571.81,74.05 576.26,74.05 578.48,74.05 585.15,73.87 587.38,73.87 591.83,73.87 596.28,73.87 602.95,73.87 609.62,73.70 614.07,73.70 620.74,73.70 627.42,73.70 634.09,73.70 638.54,73.70 645.21,73.70 654.11,73.52 663.01,73.52 671.90,73.52 683.03,73.52 691.92,73.52 707.49,73.52 729.74,73.52 756.43,73.52 758.65,73.52"/>
<line x1="78" y1="73.52" x2="772" y2="73.52" stroke="#2ca02c" opacity="0.18" stroke-dasharray="3 4"/>
<polyline fill="none" stroke="#2ca02c" stroke-width="2.0" points="91.35,73.52 113.59,73.52 126.94,73.52 138.06,73.52 151.40,73.52 171.42,73.52 182.54,73.52 191.44,73.52 200.34,73.52 207.01,73.70 211.46,73.70 215.91,73.70 220.36,73.70 222.58,73.70 224.81,73.70 227.03,73.70 229.26,73.70 231.48,73.70 233.71,73.70 235.93,73.87 238.15,73.87 240.38,73.87 244.83,73.87 247.05,73.87 249.28,73.87 251.50,73.87 253.72,73.87 255.95,73.87 258.17,73.87 260.40,73.70 262.62,73.70 264.85,73.70 267.07,73.70 269.29,73.52 271.52,73.52 273.74,73.35 275.97,73.35 278.19,73.17 280.42,73.00 282.64,73.00 284.87,72.83 287.09,72.65 289.31,72.48 291.54,72.30 293.76,72.13 295.99,71.95 298.21,71.78 300.44,71.61 302.66,71.43 304.88,71.08 307.11,70.91 309.33,70.73 311.56,70.56 313.78,70.38 316.01,70.21 318.23,70.04 320.46,70.04 322.68,69.86 324.90,69.86 327.13,70.04 329.35,70.21 331.58,70.56 333.80,71.08 336.03,71.61 338.25,72.30 340.47,73.17 342.70,74.22 344.92,75.44 347.15,76.83 349.37,78.40 351.60,79.97 353.82,81.89 356.04,83.81 358.27,85.90 360.49,87.99 362.72,90.26 364.94,92.63 367.17,95.07 369.39,97.58 371.62,100.16 373.84,102.77 376.06,105.41 378.29,108.09 380.51,110.78 382.74,113.49 384.96,116.20 387.19,118.91 389.41,121.61 391.63,124.29 393.86,126.96 396.08,129.59 398.31,132.20 400.53,134.77 402.76,137.31 404.98,139.80 407.21,142.25 409.43,144.64 411.65,146.99 413.88,149.28 416.10,151.51 418.33,153.70 420.55,155.82 422.78,157.84 425.00,159.87 427.22,161.80 429.45,163.70 431.67,165.50 433.90,167.25 436.12,168.96 438.35,170.57 440.57,172.13 442.79,173.64 445.02,175.08 447.24,176.47 449.47,177.81 451.69,179.07 453.92,180.30 456.14,181.47 458.37,182.54 460.59,183.62 462.81,184.67 465.04,185.62 467.26,186.58 469.49,187.44 471.71,188.30 473.94,189.08 476.16,189.86 478.38,190.57 480.61,191.28 482.83,191.92 485.06,192.56 487.28,193.11 489.51,193.65 491.73,194.20 493.96,194.75 496.18,195.21 498.40,195.67 500.63,196.11 502.85,196.51 505.08,196.91 509.53,197.63 511.75,197.95 513.97,198.27 516.20,198.57 518.42,198.85 520.65,199.12 522.87,199.35 525.10,199.58 527.32,199.80 529.54,200.03 531.77,200.24 533.99,200.43 536.22,200.61 538.44,200.79 540.67,200.95 542.89,201.10 545.12,201.25 547.34,201.39 549.56,201.52 551.79,201.64 554.01,201.76 556.24,201.87 558.46,201.98 560.69,202.07 562.91,202.17 565.13,202.25 569.58,202.40 571.81,202.48 576.26,202.63 578.48,202.69 582.93,202.80 585.15,202.86 587.38,202.92 591.83,203.01 596.28,203.09 600.72,203.17 602.95,203.20 605.17,203.24 609.62,203.29 614.07,203.34 618.52,203.39 622.97,203.43 627.42,203.47 631.87,203.50 636.31,203.53 638.54,203.55 642.99,203.58 654.11,203.63 660.78,203.66 669.68,203.69 676.35,203.71 683.03,203.73 687.47,203.74 698.60,203.76 705.27,203.77 718.62,203.78 740.86,203.79 758.65,203.80"/>
<line x1="78" y1="265.26" x2="772" y2="265.26" stroke="#9467bd" opacity="0.18" stroke-dasharray="3 4"/>
<polyline fill="none" stroke="#9467bd" stroke-width="2.0" points="91.35,157.52 120.26,157.51 129.16,157.51 138.06,157.52 144.73,157.52 149.18,157.53 153.63,157.53 158.08,157.53 162.53,157.54 164.75,157.54 166.97,157.54 169.20,157.55 171.42,157.55 173.65,157.55 175.87,157.55 180.32,157.56 182.54,157.57 186.99,157.57 189.22,157.58 191.44,157.58 193.67,157.59 198.12,157.59 202.56,157.60 204.79,157.60 209.24,157.60 211.46,157.60 213.69,157.60 215.91,157.60 218.13,157.59 220.36,157.59 222.58,157.58 224.81,157.57 229.26,157.54 231.48,157.52 233.71,157.50 235.93,157.48 238.15,157.46 240.38,157.43 242.60,157.41 244.83,157.37 247.05,157.34 249.28,157.30 251.50,157.26 253.72,157.22 255.95,157.17 258.17,157.12 260.40,157.06 262.62,157.00 264.85,156.94 267.07,156.87 269.29,156.80 271.52,156.73 273.74,156.66 275.97,156.60 278.19,156.53 280.42,156.48 282.64,156.43 284.87,156.40 287.09,156.38 289.31,156.39 291.54,156.41 293.76,156.48 295.99,156.57 298.21,156.71 300.44,156.89 302.66,157.12 304.88,157.41 307.11,157.77 309.33,158.19 311.56,158.68 313.78,159.27 316.01,159.93 318.23,160.70 320.46,161.56 322.68,162.54 324.90,163.64 327.13,164.89 329.35,166.26 331.58,167.79 333.80,169.46 336.03,171.28 338.25,173.24 340.47,175.35 342.70,177.59 344.92,179.96 347.15,182.43 349.37,185.02 351.60,187.69 353.82,190.44 356.04,193.26 358.27,196.12 360.49,199.02 362.72,201.95 364.94,204.87 367.17,207.78 369.39,210.66 371.62,213.48 373.84,216.25 376.06,218.95 378.29,221.56 380.51,224.07 382.74,226.48 384.96,228.79 387.19,230.99 389.41,233.09 391.63,235.08 393.86,236.97 396.08,238.72 398.31,240.43 400.53,242.02 402.76,243.52 404.98,244.94 407.21,246.27 409.43,247.50 411.65,248.67 413.88,249.76 416.10,250.78 418.33,251.75 420.55,252.65 422.78,253.46 425.00,254.26 427.22,255.00 429.45,255.70 431.67,256.33 433.90,256.94 436.12,257.51 438.35,258.02 440.57,258.50 442.79,258.96 445.02,259.38 447.24,259.78 449.47,260.15 451.69,260.49 453.92,260.82 456.14,261.12 458.37,261.38 460.59,261.65 462.81,261.90 465.04,262.12 467.26,262.34 469.49,262.53 471.71,262.72 473.94,262.89 476.16,263.06 478.38,263.20 480.61,263.34 482.83,263.47 485.06,263.59 487.28,263.69 489.51,263.80 491.73,263.90 493.96,264.00 496.18,264.08 498.40,264.16 500.63,264.23 502.85,264.30 505.08,264.37 509.53,264.48 511.75,264.53 513.97,264.58 516.20,264.63 520.65,264.71 522.87,264.74 525.10,264.77 527.32,264.81 529.54,264.84 531.77,264.87 533.99,264.89 536.22,264.92 538.44,264.94 540.67,264.96 542.89,264.98 545.12,265.00 549.56,265.03 551.79,265.05 556.24,265.07 558.46,265.09 562.91,265.11 565.13,265.12 569.58,265.13 571.81,265.14 576.26,265.16 580.71,265.17 585.15,265.18 587.38,265.19 594.05,265.20 600.72,265.21 607.40,265.22 616.29,265.23 627.42,265.23 638.54,265.24 656.33,265.25 674.13,265.25 694.15,265.25 718.62,265.26 758.65,265.26"/>
<line x1="88" y1="72" x2="110" y2="72" stroke="#1f77b4" stroke-width="2.4"/>
<text x="116" y="76" font-family="Arial, sans-serif" font-size="12">rising #1</text>
<line x1="88" y1="90" x2="110" y2="90" stroke="#d62728" stroke-width="2.4"/>
<text x="116" y="94" font-family="Arial, sans-serif" font-size="12">rising #2</text>
<line x1="88" y1="108" x2="110" y2="108" stroke="#2ca02c" stroke-width="2.4"/>
<text x="116" y="112" font-family="Arial, sans-serif" font-size="12">falling #3</text>
<line x1="88" y1="126" x2="110" y2="126" stroke="#9467bd" stroke-width="2.4"/>
<text x="116" y="130" font-family="Arial, sans-serif" font-size="12">falling #4</text>
<text x="425.00" y="322.00" text-anchor="middle" font-family="Arial, sans-serif" font-size="12">Time (s)</text>
<text x="420" y="42" font-family="Arial, sans-serif" font-size="11" fill="#555">solid=V-T voltage, faint horizontal=V_fixture</text>
</svg>