<svg xmlns="http://www.w3.org/2000/svg" width="800" height="450" viewBox="0 0 800 450">
<rect width="100%" height="100%" fill="#ffffff"/>
<text x="78" y="25" font-family="Arial, sans-serif" font-size="16" font-weight="700">DQ_40_4800 V-T Waveforms</text>
<rect x="78" y="54" width="694" height="230" fill="#fbfbfb" stroke="#c8c8c8"/>
<text transform="translate(18 169.00) rotate(-90)" text-anchor="middle" font-family="Arial, sans-serif" font-size="12">Voltage (V)</text>
<line x1="78.00" y1="54" x2="78.00" y2="284" stroke="#ececec"/>
<text x="78.00" y="302" text-anchor="middle" font-family="Arial, sans-serif" font-size="10">-6p</text>
<line x1="216.80" y1="54" x2="216.80" y2="284" stroke="#ececec"/>
<text x="216.80" y="302" text-anchor="middle" font-family="Arial, sans-serif" font-size="10">56.4p</text>
<line x1="355.60" y1="54" x2="355.60" y2="284" stroke="#ececec"/>
<text x="355.60" y="302" text-anchor="middle" font-family="Arial, sans-serif" font-size="10">119p</text>
<line x1="494.40" y1="54" x2="494.40" y2="284" stroke="#ececec"/>
<text x="494.40" y="302" text-anchor="middle" font-family="Arial, sans-serif" font-size="10">181p</text>
<line x1="633.20" y1="54" x2="633.20" y2="284" stroke="#ececec"/>
<text x="633.20" y="302" text-anchor="middle" font-family="Arial, sans-serif" font-size="10">244p</text>
<line x1="772.00" y1="54" x2="772.00" y2="284" stroke="#ececec"/>
<text x="772.00" y="302" text-anchor="middle" font-family="Arial, sans-serif" font-size="10">306p</text>
<line x1="78" y1="284.00" x2="772" y2="284.00" stroke="#ececec"/>
<text x="70" y="288.00" text-anchor="end" font-family="Arial, sans-serif" font-size="10">-0.106</text>
<line x1="78" y1="226.50" x2="772" y2="226.50" stroke="#ececec"/>
<text x="70" y="230.50" text-anchor="end" font-family="Arial, sans-serif" font-size="10">0.223</text>
<line x1="78" y1="169.00" x2="772" y2="169.00" stroke="#ececec"/>
<text x="70" y="173.00" text-anchor="end" font-family="Arial, sans-serif" font-size="10">0.552</text>
<line x1="78" y1="111.50" x2="772" y2="111.50" stroke="#ececec"/>
<text x="70" y="115.50" text-anchor="end" font-family="Arial, sans-serif" font-size="10">0.88</text>
<line x1="78" y1="54.00" x2="772" y2="54.00" stroke="#ececec"/>
<text x="70" y="58.00" text-anchor="end" font-family="Arial, sans-serif" font-size="10">1.2</text>
<line x1="78" y1="265.52" x2="772" y2="265.52" stroke="#1f77b4" opacity="0.18" stroke-dasharray="3 4"/>
<polyline fill="none" stroke="#1f77b4" stroke-width="2.0" points="91.35,265.52 120.26,265.52 133.61,265.52 146.96,265.53 166.97,265.53 184.77,265.52 193.67,265.50 202.56,265.48 213.69,265.42 220.36,265.39 227.03,265.35 231.48,265.33 235.93,265.31 240.38,265.29 244.83,265.27 249.28,265.26 251.50,265.26 255.95,265.26 258.17,265.26 260.40,265.27 262.62,265.28 264.85,265.30 267.07,265.32 269.29,265.35 271.52,265.39 273.74,265.44 275.97,265.49 278.19,265.55 280.42,265.63 282.64,265.71 284.87,265.80 287.09,265.89 289.31,266.00 291.54,266.12 293.76,266.25 295.99,266.38 298.21,266.52 300.44,266.66 302.66,266.81 304.88,266.97 307.11,267.12 309.33,267.28 311.56,267.43 313.78,267.59 316.01,267.73 318.23,267.87 320.46,267.98 322.68,268.08 324.90,268.13 327.13,268.14 329.35,268.09 331.58,267.98 333.80,267.81 336.03,267.55 338.25,267.22 340.47,266.80 342.70,266.28 344.92,265.68 347.15,264.99 349.37,264.20 351.60,263.29 353.82,262.29 356.04,261.20 358.27,260.01 360.49,258.74 362.72,257.38 364.94,255.94 367.17,254.41 369.39,252.84 371.62,251.21 373.84,249.53 376.06,247.79 378.29,246.02 380.51,244.22 382.74,242.40 384.96,240.56 387.19,238.70 389.41,236.84 391.63,234.98 393.86,233.13 396.08,231.28 398.31,229.44 400.53,227.62 402.76,225.81 404.98,224.03 407.21,222.27 409.43,220.55 411.65,218.84 413.88,217.17 416.10,215.56 418.33,213.95 420.55,212.37 422.78,210.84 425.00,209.32 427.22,207.87 429.45,206.43 431.67,205.05 433.90,203.69 436.12,202.37 438.35,201.10 440.57,199.86 442.79,198.66 445.02,197.49 447.24,196.36 449.47,195.26 451.69,194.19 453.92,193.15 456.14,192.16 458.37,191.18 460.59,190.25 462.81,189.35 465.04,188.50 467.26,187.64 469.49,186.79 471.71,186.02 473.94,185.25 476.16,184.51 478.38,183.80 480.61,183.11 482.83,182.45 485.06,181.80 487.28,181.20 489.51,180.59 491.73,180.03 493.96,179.47 496.18,178.96 498.40,178.47 500.63,177.98 502.85,177.49 505.08,177.01 507.30,176.58 509.53,176.15 511.75,175.74 513.97,175.35 516.20,174.97 518.42,174.61 520.65,174.26 522.87,173.91 525.10,173.60 527.32,173.29 529.54,172.98 533.99,172.42 536.22,172.16 538.44,171.92 540.67,171.68 542.89,171.44 545.12,171.20 547.34,170.97 549.56,170.77 551.79,170.57 554.01,170.36 556.24,170.18 558.46,170.00 560.69,169.83 562.91,169.66 565.13,169.50 567.36,169.35 569.58,169.20 571.81,169.06 576.26,168.79 578.48,168.67 580.71,168.55 582.93,168.43 585.15,168.32 589.60,168.13 591.83,168.03 594.05,167.94 596.28,167.84 598.50,167.74 600.72,167.66 602.95,167.58 605.17,167.50 609.62,167.36 611.85,167.29 614.07,167.23 616.29,167.17 618.52,167.11 622.97,167.00 627.42,166.90 629.64,166.85 631.87,166.81 638.54,166.68 642.99,166.60 651.88,166.45 654.11,166.42 658.56,166.37 663.01,166.31 669.68,166.23 671.90,166.20 685.25,166.08 687.47,166.06 691.92,166.03 703.04,165.96 709.72,165.91 718.62,165.87 723.06,165.86 738.63,165.81 743.08,165.80 758.65,165.76"/>
<line x1="78" y1="73.01" x2="772" y2="73.01" stroke="#d62728" opacity="0.18" stroke-dasharray="3 4"/>
<polyline fill="none" stroke="#d62728" stroke-width="2.0" points="91.35,196.39 133.61,196.40 142.51,196.39 149.18,196.39 155.85,196.38 160.30,196.38 164.75,196.37 169.20,196.37 173.65,196.36 178.10,196.36 182.54,196.35 186.99,196.34 191.44,196.33 195.89,196.33 200.34,196.32 204.79,196.31 209.24,196.31 213.69,196.32 218.13,196.33 222.58,196.35 227.03,196.39 229.26,196.41 231.48,196.44 235.93,196.50 238.15,196.53 240.38,196.57 244.83,196.65 247.05,196.70 249.28,196.74 251.50,196.80 253.72,196.85 255.95,196.90 258.17,196.96 260.40,197.02 262.62,197.09 264.85,197.16 267.07,197.23 269.29,197.30 271.52,197.37 273.74,197.44 275.97,197.51 278.19,197.58 280.42,197.65 282.64,197.70 284.87,197.75 287.09,197.79 289.31,197.82 291.54,197.84 293.76,197.83 295.99,197.80 298.21,197.74 300.44,197.64 302.66,197.51 304.88,197.33 307.11,197.09 309.33,196.80 311.56,196.43 313.78,195.99 316.01,195.46 318.23,194.84 320.46,194.10 322.68,193.25 324.90,192.27 327.13,191.13 329.35,189.85 331.58,188.41 333.80,186.83 336.03,185.08 338.25,183.19 340.47,181.16 342.70,178.98 344.92,176.69 347.15,174.29 349.37,171.81 351.60,169.24 353.82,166.62 356.04,163.95 358.27,161.23 360.49,158.49 362.72,155.72 364.94,152.95 367.17,150.17 369.39,147.40 371.62,144.64 373.84,141.90 376.06,139.21 378.29,136.56 380.51,133.97 382.74,131.43 384.96,128.96 387.19,126.56 389.41,124.22 391.63,121.96 393.86,119.80 396.08,117.69 398.31,115.64 400.53,113.68 402.76,111.78 404.98,109.95 407.21,108.22 409.43,106.56 411.65,104.95 413.88,103.42 416.10,102.01 418.33,100.59 420.55,99.24 422.78,97.98 425.00,96.73 427.22,95.58 429.45,94.46 431.67,93.42 433.90,92.41 436.12,91.44 438.35,90.54 440.57,89.64 442.79,88.94 445.02,88.06 447.24,87.36 449.47,86.66 451.69,85.96 453.92,85.26 456.14,84.74 458.37,84.04 460.59,83.51 462.81,82.99 465.04,82.46 467.26,82.11 469.49,81.59 471.71,81.24 473.94,80.71 476.16,80.36 478.38,80.01 480.61,79.66 482.83,79.31 485.06,78.96 487.28,78.61 489.51,78.44 491.73,78.09 493.96,77.91 496.18,77.56 498.40,77.39 500.63,77.21 502.85,77.04 505.08,76.69 507.30,76.51 509.53,76.34 511.75,76.16 513.97,76.16 516.20,75.99 518.42,75.81 520.65,75.64 522.87,75.46 525.10,75.46 527.32,75.29 529.54,75.11 533.99,74.94 536.22,74.94 538.44,74.76 540.67,74.76 542.89,74.59 545.12,74.59 547.34,74.41 549.56,74.41 551.79,74.24 554.01,74.24 556.24,74.24 558.46,74.06 560.69,74.06 562.91,74.06 565.13,73.89 567.36,73.89 569.58,73.89 571.81,73.89 576.26,73.71 580.71,73.71 585.15,73.54 591.83,73.54 596.28,73.54 598.50,73.54 602.95,73.36 607.40,73.36 611.85,73.36 616.29,73.36 622.97,73.36 627.42,73.19 634.09,73.19 638.54,73.19 645.21,73.19 654.11,73.19 665.23,73.19 671.90,73.19 687.47,73.01 700.82,73.01 714.17,73.01 734.19,73.01 756.43,73.01 758.65,73.01"/>
<line x1="78" y1="73.01" x2="772" y2="73.01" stroke="#2ca02c" opacity="0.18" stroke-dasharray="3 4"/>
<polyline fill="none" stroke="#2ca02c" stroke-width="2.0" points="91.35,73.01 115.81,73.01 131.38,73.01 146.96,73.01 166.97,73.01 180.32,73.01 191.44,73.01 202.56,73.01 209.24,73.19 213.69,73.19 218.13,73.19 222.58,73.19 227.03,73.19 229.26,73.19 231.48,73.19 233.71,73.19 235.93,73.19 238.15,73.19 240.38,73.19 242.60,73.36 244.83,73.36 247.05,73.36 249.28,73.36 251.50,73.36 253.72,73.36 255.95,73.19 258.17,73.19 260.40,73.19 262.62,73.19 264.85,73.19 267.07,73.01 269.29,73.01 271.52,73.01 273.74,72.84 275.97,72.84 278.19,72.66 280.42,72.49 282.64,72.49 284.87,72.31 287.09,72.14 289.31,71.96 291.54,71.79 293.76,71.79 295.99,71.61 298.21,71.44 300.44,71.26 302.66,71.09 304.88,70.91 307.11,70.74 309.33,70.56 311.56,70.39 313.78,70.21 316.01,70.04 318.23,69.86 320.46,69.86 322.68,69.86 324.90,69.86 327.13,70.04 329.35,70.21 331.58,70.56 333.80,71.09 336.03,71.61 338.25,72.31 340.47,73.19 342.70,74.06 344.92,75.29 347.15,76.51 349.37,77.91 351.60,79.49 353.82,81.24 356.04,82.99 358.27,84.91 360.49,86.84 362.72,88.94 364.94,91.00 367.17,93.22 369.39,95.47 371.62,97.76 373.84,100.10 376.06,102.47 378.29,104.86 380.51,107.26 382.74,109.68 387.19,114.50 389.41,116.91 391.63,119.29 393.86,121.66 396.08,124.01 398.31,126.34 400.53,128.63 402.76,130.90 404.98,133.13 407.21,135.32 409.43,137.46 411.65,139.57 413.88,141.64 416.10,143.62 418.33,145.60 420.55,147.53 422.78,149.39 425.00,151.25 427.22,153.01 429.45,154.74 431.67,156.41 433.90,158.04 436.12,159.62 438.35,161.13 440.57,162.59 442.79,164.01 445.02,165.38 447.24,166.70 449.47,167.98 451.69,169.21 453.92,170.41 456.14,171.54 458.37,172.65 460.59,173.69 462.81,174.70 465.04,175.64 467.26,176.58 469.49,177.53 471.71,178.36 473.94,179.19 476.16,179.99 478.38,180.74 480.61,181.47 482.83,182.15 485.06,182.83 487.28,183.45 489.51,184.07 491.73,184.64 493.96,185.20 496.18,185.71 498.40,186.19 500.63,186.66 502.85,187.14 505.08,187.61 507.30,188.01 509.53,188.42 511.75,188.81 513.97,189.16 516.20,189.51 518.42,189.84 520.65,190.15 522.87,190.47 525.10,190.74 527.32,191.02 529.54,191.28 533.99,191.76 536.22,191.97 538.44,192.17 540.67,192.37 542.89,192.57 545.12,192.77 547.34,192.95 549.56,193.11 551.79,193.27 554.01,193.43 556.24,193.57 558.46,193.71 560.69,193.84 562.91,193.97 565.13,194.08 567.36,194.19 569.58,194.31 571.81,194.41 576.26,194.60 578.48,194.68 580.71,194.77 582.93,194.85 585.15,194.92 589.60,195.05 591.83,195.11 594.05,195.18 596.28,195.24 598.50,195.30 600.72,195.36 602.95,195.41 605.17,195.45 609.62,195.54 614.07,195.62 618.52,195.69 622.97,195.75 627.42,195.81 631.87,195.86 638.54,195.93 642.99,195.98 651.88,196.05 654.11,196.07 665.23,196.14 669.68,196.16 674.13,196.19 687.47,196.24 694.15,196.26 703.04,196.29 714.17,196.31 725.29,196.33 743.08,196.35 758.65,196.36"/>
<line x1="78" y1="265.52" x2="772" y2="265.52" stroke="#9467bd" opacity="0.18" stroke-dasharray="3 4"/>
<polyline fill="none" stroke="#9467bd" stroke-width="2.0" points="91.35,165.64 120.26,165.64 131.38,165.64 138.06,165.65 144.73,165.65 149.18,165.66 153.63,165.66 155.85,165.66 160.30,165.67 162.53,165.67 164.75,165.67 169.20,165.68 171.42,165.68 173.65,165.68 175.87,165.68 178.10,165.69 182.54,165.69 186.99,165.70 191.44,165.71 195.89,165.71 198.12,165.72 202.56,165.72 207.01,165.72 209.24,165.72 211.46,165.71 213.69,165.71 215.91,165.70 218.13,165.70 220.36,165.69 222.58,165.68 224.81,165.66 227.03,165.65 229.26,165.63 231.48,165.61 233.71,165.59 235.93,165.56 238.15,165.54 240.38,165.51 242.60,165.48 244.83,165.45 247.05,165.41 249.28,165.37 251.50,165.33 253.72,165.29 255.95,165.24 258.17,165.19 260.40,165.13 262.62,165.07 264.85,165.01 267.07,164.95 269.29,164.89 271.52,164.83 273.74,164.78 275.97,164.73 278.19,164.68 280.42,164.64 282.64,164.62 284.87,164.62 287.09,164.63 289.31,164.67 291.54,164.74 293.76,164.84 295.99,164.98 298.21,165.16 300.44,165.39 302.66,165.68 304.88,166.02 307.11,166.42 309.33,166.90 311.56,167.45 313.78,168.07 316.01,168.78 318.23,169.57 320.46,170.46 322.68,171.45 324.90,172.56 327.13,173.79 329.35,175.14 331.58,176.63 333.80,178.24 336.03,179.97 338.25,181.83 340.47,183.81 342.70,185.91 344.92,188.10 347.15,190.39 349.37,192.75 351.60,195.20 353.82,197.69 356.04,200.23 358.27,202.81 360.49,205.40 362.72,208.00 364.94,210.58 367.17,213.13 369.39,215.65 371.62,218.12 373.84,220.52 376.06,222.85 378.29,225.10 380.51,227.26 382.74,229.34 384.96,231.34 387.19,233.25 389.41,235.07 391.63,236.80 393.86,238.43 396.08,239.99 398.31,241.49 400.53,242.89 402.76,244.23 404.98,245.50 407.21,246.69 409.43,247.81 411.65,248.87 413.88,249.88 416.10,250.78 418.33,251.68 420.55,252.53 422.78,253.30 425.00,254.07 427.22,254.76 429.45,255.42 431.67,256.04 433.90,256.62 436.12,257.17 438.35,257.67 440.57,258.15 442.79,258.60 445.02,259.02 447.24,259.42 449.47,259.80 451.69,260.15 453.92,260.48 456.14,260.79 458.37,261.09 460.59,261.36 462.81,261.61 465.04,261.84 467.26,262.07 469.49,262.30 471.71,262.49 473.94,262.68 476.16,262.86 478.38,263.02 480.61,263.18 482.83,263.32 485.06,263.46 487.28,263.58 489.51,263.71 491.73,263.82 493.96,263.92 496.18,264.02 498.40,264.10 500.63,264.19 502.85,264.28 505.08,264.36 507.30,264.43 509.53,264.49 511.75,264.56 513.97,264.62 516.20,264.67 518.42,264.73 520.65,264.77 522.87,264.82 525.10,264.86 527.32,264.90 529.54,264.94 533.99,265.01 536.22,265.04 540.67,265.09 542.89,265.12 545.12,265.15 547.34,265.17 549.56,265.19 551.79,265.21 554.01,265.23 556.24,265.25 558.46,265.26 562.91,265.30 565.13,265.31 569.58,265.33 571.81,265.34 576.26,265.37 582.93,265.39 585.15,265.40 591.83,265.42 596.28,265.43 600.72,265.44 607.40,265.45 616.29,265.47 625.19,265.48 636.31,265.49 651.88,265.50 663.01,265.50 674.13,265.51 691.92,265.51 711.94,265.51 754.21,265.52 758.65,265.52"/>
<line x1="88" y1="72" x2="110" y2="72" stroke="#1f77b4" stroke-width="2.4"/>
<text x="116" y="76" font-family="Arial, sans-serif" font-size="12">rising #1</text>
<line x1="88" y1="90" x2="110" y2="90" stroke="#d62728" stroke-width="2.4"/>
<text x="116" y="94" font-family="Arial, sans-serif" font-size="12">rising #2</text>
<line x1="88" y1="108" x2="110" y2="108" stroke="#2ca02c" stroke-width="2.4"/>
<text x="116" y="112" font-family="Arial, sans-serif" font-size="12">falling #3</text>
<line x1="88" y1="126" x2="110" y2="126" stroke="#9467bd" stroke-width="2.4"/>
<text x="116" y="130" font-family="Arial, sans-serif" font-size="12">falling #4</text>
<text x="425.00" y="322.00" text-anchor="middle" font-family="Arial, sans-serif" font-size="12">Time (s)</text>
<text x="420" y="42" font-family="Arial, sans-serif" font-size="11" fill="#555">solid=V-T voltage, faint horizontal=V_fixture</text>
</svg>