<svg xmlns="http://www.w3.org/2000/svg" width="800" height="450" viewBox="0 0 800 450">
<rect width="100%" height="100%" fill="#ffffff"/>
<text x="78" y="25" font-family="Arial, sans-serif" font-size="16" font-weight="700">DQS_48_4800 V-T Waveforms</text>
<rect x="78" y="54" width="694" height="230" fill="#fbfbfb" stroke="#c8c8c8"/>
<text transform="translate(18 169.00) rotate(-90)" text-anchor="middle" font-family="Arial, sans-serif" font-size="12">Voltage (V)</text>
<line x1="78.00" y1="54" x2="78.00" y2="284" stroke="#ececec"/>
<text x="78.00" y="302" text-anchor="middle" font-family="Arial, sans-serif" font-size="10">-6p</text>
<line x1="216.80" y1="54" x2="216.80" y2="284" stroke="#ececec"/>
<text x="216.80" y="302" text-anchor="middle" font-family="Arial, sans-serif" font-size="10">56.4p</text>
<line x1="355.60" y1="54" x2="355.60" y2="284" stroke="#ececec"/>
<text x="355.60" y="302" text-anchor="middle" font-family="Arial, sans-serif" font-size="10">119p</text>
<line x1="494.40" y1="54" x2="494.40" y2="284" stroke="#ececec"/>
<text x="494.40" y="302" text-anchor="middle" font-family="Arial, sans-serif" font-size="10">181p</text>
<line x1="633.20" y1="54" x2="633.20" y2="284" stroke="#ececec"/>
<text x="633.20" y="302" text-anchor="middle" font-family="Arial, sans-serif" font-size="10">244p</text>
<line x1="772.00" y1="54" x2="772.00" y2="284" stroke="#ececec"/>
<text x="772.00" y="302" text-anchor="middle" font-family="Arial, sans-serif" font-size="10">306p</text>
<line x1="78" y1="284.00" x2="772" y2="284.00" stroke="#ececec"/>
<text x="70" y="288.00" text-anchor="end" font-family="Arial, sans-serif" font-size="10">-0.103</text>
<line x1="78" y1="226.50" x2="772" y2="226.50" stroke="#ececec"/>
<text x="70" y="230.50" text-anchor="end" font-family="Arial, sans-serif" font-size="10">0.224</text>
<line x1="78" y1="169.00" x2="772" y2="169.00" stroke="#ececec"/>
<text x="70" y="173.00" text-anchor="end" font-family="Arial, sans-serif" font-size="10">0.552</text>
<line x1="78" y1="111.50" x2="772" y2="111.50" stroke="#ececec"/>
<text x="70" y="115.50" text-anchor="end" font-family="Arial, sans-serif" font-size="10">0.879</text>
<line x1="78" y1="54.00" x2="772" y2="54.00" stroke="#ececec"/>
<text x="70" y="58.00" text-anchor="end" font-family="Arial, sans-serif" font-size="10">1.2</text>
<line x1="78" y1="265.88" x2="772" y2="265.88" stroke="#1f77b4" opacity="0.18" stroke-dasharray="3 4"/>
<polyline fill="none" stroke="#1f77b4" stroke-width="2.0" points="91.35,265.88 122.49,265.88 138.06,265.88 153.63,265.89 182.54,265.88 193.67,265.87 202.56,265.85 213.69,265.81 220.36,265.77 227.03,265.74 233.71,265.71 238.15,265.69 240.38,265.68 244.83,265.67 247.05,265.66 249.28,265.66 253.72,265.65 255.95,265.65 258.17,265.65 262.62,265.66 264.85,265.67 267.07,265.68 269.29,265.70 271.52,265.73 273.74,265.76 275.97,265.80 278.19,265.85 280.42,265.91 282.64,265.97 284.87,266.04 287.09,266.12 289.31,266.21 291.54,266.30 293.76,266.40 295.99,266.51 298.21,266.63 300.44,266.75 302.66,266.88 304.88,267.01 307.11,267.14 309.33,267.28 311.56,267.41 313.78,267.55 316.01,267.68 318.23,267.81 320.46,267.92 322.68,268.02 324.90,268.10 327.13,268.13 329.35,268.14 331.58,268.10 333.80,268.00 336.03,267.85 338.25,267.63 340.47,267.34 342.70,266.97 344.92,266.53 347.15,266.01 349.37,265.43 351.60,264.76 353.82,263.99 356.04,263.15 358.27,262.23 360.49,261.24 362.72,260.17 364.94,259.03 367.17,257.83 369.39,256.55 371.62,255.25 373.84,253.86 376.06,252.45 378.29,251.00 380.51,249.52 382.74,248.01 384.96,246.47 387.19,244.92 389.41,243.36 391.63,241.79 393.86,240.21 396.08,238.64 398.31,237.07 400.53,235.50 402.76,233.95 404.98,232.41 407.21,230.89 409.43,229.38 411.65,227.90 413.88,226.44 416.10,225.01 418.33,223.58 420.55,222.19 422.78,220.82 425.00,219.47 427.22,218.16 429.45,216.88 431.67,215.62 433.90,214.39 436.12,213.19 438.35,212.02 440.57,210.88 442.79,209.77 445.02,208.69 447.24,207.64 449.47,206.61 451.69,205.61 453.92,204.64 456.14,203.69 458.37,202.78 460.59,201.89 462.81,201.04 465.04,200.20 467.26,199.35 469.49,198.58 471.71,197.80 473.94,197.06 476.16,196.34 478.38,195.62 480.61,194.96 482.83,194.29 485.06,193.66 487.28,193.04 489.51,192.44 491.73,191.87 493.96,191.30 496.18,190.79 498.40,190.28 500.63,189.77 502.85,189.27 505.08,188.77 507.30,188.34 509.53,187.90 511.75,187.47 513.97,187.03 516.20,186.64 518.42,186.25 520.65,185.87 525.10,185.17 527.32,184.82 529.54,184.50 533.99,183.88 536.22,183.59 538.44,183.31 540.67,183.03 542.89,182.78 545.12,182.54 547.34,182.30 549.56,182.06 551.79,181.82 554.01,181.58 556.24,181.37 558.46,181.17 560.69,180.98 562.91,180.78 565.13,180.59 567.36,180.40 569.58,180.23 571.81,180.07 574.03,179.90 576.26,179.74 578.48,179.60 582.93,179.31 585.15,179.17 591.83,178.79 594.05,178.68 596.28,178.57 598.50,178.46 600.72,178.35 602.95,178.24 607.40,178.05 609.62,177.96 614.07,177.80 616.29,177.71 618.52,177.63 622.97,177.49 625.19,177.42 627.42,177.35 634.09,177.16 636.31,177.10 638.54,177.04 642.99,176.94 645.21,176.88 647.44,176.83 649.66,176.78 656.33,176.65 660.78,176.57 663.01,176.53 669.68,176.43 674.13,176.36 680.80,176.27 683.03,176.24 687.47,176.19 696.37,176.10 703.04,176.04 707.49,176.00 714.17,175.95 723.06,175.89 736.41,175.82 740.86,175.80 756.43,175.74 758.65,175.73"/>
<line x1="78" y1="72.67" x2="772" y2="72.67" stroke="#d62728" opacity="0.18" stroke-dasharray="3 4"/>
<polyline fill="none" stroke="#d62728" stroke-width="2.0" points="91.35,187.17 133.61,187.17 142.51,187.16 149.18,187.16 155.85,187.15 162.53,187.15 166.97,187.14 171.42,187.14 173.65,187.13 178.10,187.13 182.54,187.12 186.99,187.11 191.44,187.11 195.89,187.10 200.34,187.09 207.01,187.09 211.46,187.09 215.91,187.10 220.36,187.12 222.58,187.13 227.03,187.17 231.48,187.22 233.71,187.24 235.93,187.28 240.38,187.35 242.60,187.39 244.83,187.43 247.05,187.48 249.28,187.53 251.50,187.58 253.72,187.64 255.95,187.70 258.17,187.76 260.40,187.82 262.62,187.88 264.85,187.95 267.07,188.02 269.29,188.09 271.52,188.16 273.74,188.23 275.97,188.30 278.19,188.37 280.42,188.43 282.64,188.48 284.87,188.53 287.09,188.56 289.31,188.59 291.54,188.59 293.76,188.58 295.99,188.54 298.21,188.48 300.44,188.38 302.66,188.24 304.88,188.06 307.11,187.83 309.33,187.54 311.56,187.19 313.78,186.77 316.01,186.27 318.23,185.69 320.46,185.02 322.68,184.25 324.90,183.37 327.13,182.37 329.35,181.25 331.58,180.01 333.80,178.64 336.03,177.14 338.25,175.52 340.47,173.77 342.70,171.91 344.92,169.93 347.15,167.87 349.37,165.73 351.60,163.51 353.82,161.23 356.04,158.90 358.27,156.54 360.49,154.14 362.72,151.73 364.94,149.30 367.17,146.86 369.39,144.43 371.62,142.01 373.84,139.61 376.06,137.23 378.29,134.89 380.51,132.59 382.74,130.33 384.96,128.13 387.19,125.97 389.41,123.87 391.63,121.84 393.86,119.88 396.08,117.93 398.31,116.09 400.53,114.27 402.76,112.53 404.98,110.86 407.21,109.23 409.43,107.67 411.65,106.17 413.88,104.75 416.10,103.38 418.33,102.01 420.55,100.75 422.78,99.52 425.00,98.31 427.22,97.19 429.45,96.10 431.67,95.06 433.90,94.07 436.12,93.11 438.35,92.20 440.57,91.34 442.79,90.50 445.02,89.71 447.24,89.01 449.47,88.30 451.69,87.60 453.92,86.90 456.14,86.20 458.37,85.67 460.59,84.97 462.81,84.44 465.04,83.91 467.26,83.39 469.49,82.86 471.71,82.51 473.94,81.98 476.16,81.63 478.38,81.10 480.61,80.75 482.83,80.40 485.06,80.05 487.28,79.70 489.51,79.35 491.73,79.17 493.96,78.82 496.18,78.64 498.40,78.29 500.63,78.12 502.85,77.77 505.08,77.59 507.30,77.41 509.53,77.06 511.75,76.89 513.97,76.71 516.20,76.54 518.42,76.36 520.65,76.19 525.10,75.83 527.32,75.66 529.54,75.66 533.99,75.31 536.22,75.31 538.44,75.13 540.67,74.96 542.89,74.96 545.12,74.78 547.34,74.78 549.56,74.60 551.79,74.60 554.01,74.43 556.24,74.43 558.46,74.25 560.69,74.25 565.13,74.08 567.36,74.08 569.58,73.90 571.81,73.90 576.26,73.73 580.71,73.73 585.15,73.55 591.83,73.55 594.05,73.37 596.28,73.37 600.72,73.37 605.17,73.37 609.62,73.20 616.29,73.20 622.97,73.02 627.42,73.02 636.31,73.02 640.76,73.02 645.21,73.02 649.66,72.85 656.33,72.85 663.01,72.85 669.68,72.85 678.58,72.85 685.25,72.85 698.60,72.85 711.94,72.67 727.51,72.67 745.31,72.67 758.65,72.67"/>
<line x1="78" y1="72.67" x2="772" y2="72.67" stroke="#2ca02c" opacity="0.18" stroke-dasharray="3 4"/>
<polyline fill="none" stroke="#2ca02c" stroke-width="2.0" points="91.35,72.67 118.04,72.67 133.61,72.67 149.18,72.67 173.65,72.67 184.77,72.67 195.89,72.67 207.01,72.67 213.69,72.85 218.13,72.85 222.58,72.85 227.03,72.85 231.48,72.85 233.71,72.85 235.93,72.85 240.38,72.85 244.83,72.85 247.05,72.85 249.28,72.85 251.50,72.85 253.72,72.85 255.95,72.85 258.17,72.85 260.40,72.85 262.62,72.85 264.85,72.85 267.07,72.85 269.29,72.67 271.52,72.67 273.74,72.67 275.97,72.50 278.19,72.50 280.42,72.32 282.64,72.32 284.87,72.15 287.09,71.97 289.31,71.97 291.54,71.79 293.76,71.62 295.99,71.44 298.21,71.27 300.44,71.27 302.66,71.09 304.88,70.92 307.11,70.74 309.33,70.56 311.56,70.39 313.78,70.21 316.01,70.21 318.23,70.04 320.46,70.04 322.68,69.86 324.90,70.04 327.13,70.04 329.35,70.21 331.58,70.39 333.80,70.74 336.03,71.27 338.25,71.79 340.47,72.50 342.70,73.20 344.92,74.08 347.15,75.13 349.37,76.19 351.60,77.41 353.82,78.82 356.04,80.22 358.27,81.81 360.49,83.39 362.72,85.14 364.94,86.90 367.17,88.66 369.39,90.57 371.62,92.47 373.84,94.43 376.06,96.41 378.29,98.42 380.51,100.45 382.74,102.49 384.96,104.53 389.41,108.63 391.63,110.68 393.86,112.71 396.08,114.74 398.31,116.75 400.53,118.74 402.76,120.71 404.98,122.65 407.21,124.57 409.43,126.47 411.65,128.33 413.88,130.14 416.10,131.93 418.33,133.72 420.55,135.43 422.78,137.13 425.00,138.80 427.22,140.42 429.45,142.00 431.67,143.55 433.90,145.05 436.12,146.53 438.35,147.96 440.57,149.34 442.79,150.70 445.02,152.01 447.24,153.28 449.47,154.52 451.69,155.73 453.92,156.89 456.14,158.03 458.37,159.12 460.59,160.16 462.81,161.17 465.04,162.17 467.26,163.16 469.49,164.07 471.71,164.97 473.94,165.84 476.16,166.67 478.38,167.49 480.61,168.25 482.83,169.01 485.06,169.73 487.28,170.42 489.51,171.10 491.73,171.73 493.96,172.37 496.18,172.93 498.40,173.48 500.63,174.04 502.85,174.60 505.08,175.13 507.30,175.59 509.53,176.06 511.75,176.52 513.97,176.99 516.20,177.39 518.42,177.79 520.65,178.20 525.10,178.91 527.32,179.27 529.54,179.59 533.99,180.21 536.22,180.50 538.44,180.78 540.67,181.05 542.89,181.29 545.12,181.52 547.34,181.75 549.56,181.98 551.79,182.20 554.01,182.43 556.24,182.63 558.46,182.80 560.69,182.98 562.91,183.16 565.13,183.34 567.36,183.51 569.58,183.66 571.81,183.80 574.03,183.95 576.26,184.09 578.48,184.21 582.93,184.46 585.15,184.58 591.83,184.89 594.05,184.99 596.28,185.08 598.50,185.17 602.95,185.34 607.40,185.49 609.62,185.57 614.07,185.70 616.29,185.76 618.52,185.82 622.97,185.93 625.19,185.98 627.42,186.03 634.09,186.17 636.31,186.22 638.54,186.26 642.99,186.33 645.21,186.37 647.44,186.40 649.66,186.44 656.33,186.53 660.78,186.58 663.01,186.61 669.68,186.68 676.35,186.74 683.03,186.79 687.47,186.82 696.37,186.87 705.27,186.92 716.39,186.97 725.29,187.00 740.86,187.04 758.65,187.07"/>
<line x1="78" y1="265.88" x2="772" y2="265.88" stroke="#9467bd" opacity="0.18" stroke-dasharray="3 4"/>
<polyline fill="none" stroke="#9467bd" stroke-width="2.0" points="91.35,175.51 120.26,175.51 131.38,175.51 138.06,175.52 144.73,175.52 149.18,175.53 153.63,175.53 158.08,175.53 162.53,175.54 164.75,175.54 169.20,175.54 171.42,175.55 173.65,175.55 178.10,175.55 180.32,175.56 182.54,175.56 184.77,175.56 186.99,175.57 191.44,175.57 195.89,175.58 200.34,175.58 204.79,175.58 207.01,175.58 211.46,175.57 215.91,175.56 218.13,175.55 220.36,175.54 222.58,175.53 227.03,175.50 229.26,175.49 231.48,175.47 233.71,175.45 235.93,175.42 238.15,175.40 240.38,175.37 242.60,175.34 244.83,175.31 247.05,175.27 249.28,175.23 251.50,175.19 253.72,175.15 255.95,175.11 258.17,175.06 260.40,175.01 262.62,174.95 264.85,174.90 267.07,174.84 269.29,174.79 271.52,174.74 273.74,174.69 275.97,174.64 278.19,174.61 280.42,174.58 282.64,174.57 284.87,174.57 287.09,174.59 289.31,174.63 291.54,174.71 293.76,174.81 295.99,174.95 298.21,175.13 300.44,175.35 302.66,175.63 304.88,175.95 307.11,176.33 309.33,176.77 311.56,177.28 313.78,177.85 316.01,178.50 318.23,179.21 320.46,180.01 322.68,180.89 324.90,181.86 327.13,182.94 329.35,184.12 331.58,185.39 333.80,186.78 336.03,188.27 338.25,189.85 340.47,191.55 342.70,193.33 344.92,195.20 347.15,197.14 349.37,199.15 351.60,201.21 353.82,203.33 356.04,205.48 358.27,207.66 360.49,209.85 362.72,212.05 364.94,214.23 367.17,216.40 369.39,218.53 371.62,220.64 373.84,222.69 376.06,224.69 378.29,226.63 380.51,228.51 382.74,230.33 384.96,232.08 387.19,233.76 389.41,235.38 391.63,236.92 393.86,238.38 396.08,239.83 398.31,241.15 400.53,242.47 402.76,243.69 404.98,244.86 407.21,245.98 409.43,247.04 411.65,248.04 413.88,248.98 416.10,249.87 418.33,250.76 420.55,251.56 422.78,252.34 425.00,253.09 427.22,253.78 429.45,254.44 431.67,255.07 433.90,255.66 436.12,256.23 438.35,256.76 440.57,257.25 442.79,257.73 445.02,258.17 447.24,258.60 449.47,259.00 451.69,259.38 453.92,259.74 456.14,260.08 458.37,260.40 460.59,260.70 462.81,260.97 465.04,261.25 467.26,261.52 469.49,261.75 471.71,261.99 473.94,262.20 476.16,262.41 478.38,262.61 480.61,262.78 482.83,262.96 485.06,263.12 487.28,263.27 489.51,263.42 491.73,263.55 493.96,263.69 496.18,263.80 498.40,263.91 500.63,264.02 502.85,264.13 505.08,264.23 507.30,264.31 509.53,264.40 511.75,264.48 513.97,264.57 516.20,264.64 518.42,264.70 520.65,264.77 525.10,264.89 527.32,264.95 529.54,265.00 533.99,265.09 536.22,265.14 538.44,265.18 540.67,265.22 542.89,265.25 545.12,265.28 547.34,265.31 549.56,265.34 554.01,265.41 556.24,265.43 558.46,265.45 560.69,265.48 567.36,265.54 569.58,265.56 571.81,265.58 576.26,265.61 580.71,265.64 585.15,265.66 591.83,265.70 596.28,265.72 602.95,265.74 609.62,265.76 616.29,265.78 622.97,265.80 627.42,265.80 636.31,265.82 645.21,265.83 654.11,265.84 663.01,265.85 671.90,265.85 687.47,265.86 705.27,265.87 731.96,265.87 758.65,265.87"/>
<line x1="88" y1="72" x2="110" y2="72" stroke="#1f77b4" stroke-width="2.4"/>
<text x="116" y="76" font-family="Arial, sans-serif" font-size="12">rising #1</text>
<line x1="88" y1="90" x2="110" y2="90" stroke="#d62728" stroke-width="2.4"/>
<text x="116" y="94" font-family="Arial, sans-serif" font-size="12">rising #2</text>
<line x1="88" y1="108" x2="110" y2="108" stroke="#2ca02c" stroke-width="2.4"/>
<text x="116" y="112" font-family="Arial, sans-serif" font-size="12">falling #3</text>
<line x1="88" y1="126" x2="110" y2="126" stroke="#9467bd" stroke-width="2.4"/>
<text x="116" y="130" font-family="Arial, sans-serif" font-size="12">falling #4</text>
<text x="425.00" y="322.00" text-anchor="middle" font-family="Arial, sans-serif" font-size="12">Time (s)</text>
<text x="420" y="42" font-family="Arial, sans-serif" font-size="11" fill="#555">solid=V-T voltage, faint horizontal=V_fixture</text>
</svg>