<svg xmlns="http://www.w3.org/2000/svg" width="900" height="620" viewBox="0 0 900 620">
<rect width="100%" height="100%" fill="#ffffff"/>
<text x="72" y="26" font-family="Arial, sans-serif" font-size="16" font-weight="700">DQ_40_4800 Zout Load-Line Curves</text>
<text x="72" y="45" font-family="Arial, sans-serif" font-size="11" fill="#555">Rload=50 ohm; solid=device I-V, dashed=load line, circles=operating points</text>
<rect x="72.00" y="62.00" width="380.00" height="286.00" fill="#fbfbfb" stroke="#c8c8c8"/>
<text x="80.00" y="50.00" font-family="Arial, sans-serif" font-size="13" font-weight="700">[Pulldown] Rload to Vdd</text>
<line x1="72.00" y1="62.00" x2="72.00" y2="348.00" stroke="#ececec"/>
<text x="72.00" y="366.00" text-anchor="middle" font-family="Arial, sans-serif" font-size="10">-1.2</text>
<line x1="167.00" y1="62.00" x2="167.00" y2="348.00" stroke="#ececec"/>
<text x="167.00" y="366.00" text-anchor="middle" font-family="Arial, sans-serif" font-size="10">-0.341</text>
<line x1="262.00" y1="62.00" x2="262.00" y2="348.00" stroke="#ececec"/>
<text x="262.00" y="366.00" text-anchor="middle" font-family="Arial, sans-serif" font-size="10">0.55</text>
<line x1="357.00" y1="62.00" x2="357.00" y2="348.00" stroke="#ececec"/>
<text x="357.00" y="366.00" text-anchor="middle" font-family="Arial, sans-serif" font-size="10">1.4</text>
<line x1="452.00" y1="62.00" x2="452.00" y2="348.00" stroke="#ececec"/>
<text x="452.00" y="366.00" text-anchor="middle" font-family="Arial, sans-serif" font-size="10">2.3</text>
<line x1="72.00" y1="348.00" x2="452.00" y2="348.00" stroke="#ececec"/>
<text x="65.00" y="352.00" text-anchor="end" font-family="Arial, sans-serif" font-size="10">-31</text>
<line x1="72.00" y1="276.50" x2="452.00" y2="276.50" stroke="#ececec"/>
<text x="65.00" y="280.50" text-anchor="end" font-family="Arial, sans-serif" font-size="10">-10</text>
<line x1="72.00" y1="205.00" x2="452.00" y2="205.00" stroke="#ececec"/>
<text x="65.00" y="209.00" text-anchor="end" font-family="Arial, sans-serif" font-size="10">11</text>
<line x1="72.00" y1="133.50" x2="452.00" y2="133.50" stroke="#ececec"/>
<text x="65.00" y="137.50" text-anchor="end" font-family="Arial, sans-serif" font-size="10">32</text>
<line x1="72.00" y1="62.00" x2="452.00" y2="62.00" stroke="#ececec"/>
<text x="65.00" y="66.00" text-anchor="end" font-family="Arial, sans-serif" font-size="10">53</text>
<line x1="203.36" y1="62" x2="203.36" y2="348" stroke="#777" stroke-dasharray="4 4"/>
<line x1="72.0" y1="242.20" x2="452.0" y2="242.20" stroke="#777" stroke-dasharray="4 4"/>
<polyline fill="none" stroke="#1f77b4" stroke-width="1.8" points="86.07,312.86 92.15,312.62 98.55,312.36 104.63,312.12 110.06,311.88 114.54,311.66 118.70,311.41 122.54,311.12 124.46,310.94 127.02,310.67 129.26,310.40 133.09,309.82 134.37,309.57 136.61,309.13 138.85,308.57 140.13,308.25 142.69,307.44 143.65,307.12 144.93,306.61 146.85,305.85 147.49,305.53 149.73,304.40 150.37,304.08 151.33,303.47 151.97,303.06 153.89,301.84 154.53,301.33 156.44,299.82 157.40,299.05 158.04,298.45 159.00,297.54 160.92,295.72 162.20,294.35 162.84,293.67 164.12,292.28 165.08,291.16 166.68,289.29 168.28,287.34 170.52,284.55 173.08,281.29 177.24,275.91 186.51,263.83 193.23,255.15 198.67,248.17 203.36,242.20 206.98,237.64 210.18,233.67 214.66,228.19 218.18,223.97 221.06,220.57 224.58,216.49 227.77,212.86 230.01,210.35 232.89,207.20 236.09,203.81 237.37,202.48 240.25,199.56 242.81,197.07 245.37,194.61 247.93,192.27 250.80,189.73 253.68,187.30 255.60,185.75 258.48,183.48 261.04,181.56 263.92,179.51 265.52,178.41 268.08,176.71 270.32,175.29 273.20,173.53 276.39,171.68 279.27,170.11 282.79,168.27 286.31,166.54 289.83,164.90 293.67,163.20 297.82,161.45 301.98,159.80 307.10,157.86 312.22,156.03 317.34,154.29 322.13,152.72 327.89,150.91 334.61,148.89 341.65,146.87 349.32,144.74 357.96,142.44 367.56,139.98 378.11,137.36 390.27,134.45 403.70,131.33 419.05,127.87 436.65,124.00 437.93,123.72"/>
<polyline fill="none" stroke="#ff7f0e" stroke-width="1.8" stroke-dasharray="5 4" points="86.07,318.22 92.15,317.78 98.55,317.21 104.63,316.55 110.06,315.85 114.54,315.18 118.70,314.47 122.54,313.72 124.46,313.30 127.02,312.69 129.26,312.13 133.09,311.02 134.37,310.62 136.61,309.82 138.85,309.02 140.13,308.46 142.69,307.33 143.65,306.89 144.93,306.20 146.85,305.16 147.49,304.81 149.73,303.36 150.37,302.94 151.33,302.30 151.97,301.81 153.89,300.33 154.53,299.83 156.44,298.12 157.40,297.26 158.04,296.67 159.00,295.70 160.92,293.76 162.20,292.37 162.84,291.66 164.12,290.25 165.08,289.14 166.68,287.26 168.28,285.36 170.52,282.63 173.08,279.47 177.24,274.27 186.51,262.70 193.23,254.42 198.67,247.82 203.36,242.21 206.98,237.93 210.18,234.20 214.66,229.08 218.18,225.14 221.06,221.96 224.58,218.14 227.77,214.74 230.01,212.41 232.89,209.46 236.09,206.26 237.37,205.01 240.25,202.22 242.81,199.83 245.37,197.50 247.93,195.25 250.80,192.80 253.68,190.46 255.60,188.96 258.48,186.80 261.04,184.97 263.92,183.01 265.52,181.95 268.08,180.34 270.32,178.98 273.20,177.31 276.39,175.55 279.27,174.06 282.79,172.29 286.31,170.64 289.83,169.05 293.67,167.41 297.82,165.71 301.98,164.09 307.10,162.19 312.22,160.37 317.34,158.63 322.13,157.06 327.89,155.23 334.61,153.18 341.65,151.12 349.32,148.94 357.96,146.57 367.56,144.02 378.11,141.31 390.27,138.27 403.70,134.99 419.05,131.35 436.65,127.26 437.93,126.97"/>
<polyline fill="none" stroke="#2ca02c" stroke-width="1.8" stroke-dasharray="2 4" points="86.07,308.96 92.15,308.57 98.55,308.15 104.63,307.75 110.06,307.40 114.54,307.12 118.70,306.88 122.54,306.66 124.46,306.55 127.02,306.41 129.26,306.28 133.09,306.01 134.37,305.91 136.61,305.70 138.85,305.43 140.13,305.24 142.69,304.80 143.65,304.59 144.93,304.32 146.85,303.79 147.49,303.59 149.73,302.80 150.37,302.53 151.33,302.12 151.97,301.84 153.89,300.83 154.53,300.46 156.44,299.24 157.40,298.53 158.04,298.05 159.00,297.32 160.92,295.64 162.20,294.41 162.84,293.79 164.12,292.45 165.08,291.41 166.68,289.61 168.28,287.73 170.52,284.99 173.08,281.77 177.24,276.41 186.51,264.25 193.23,255.43 198.67,248.32 203.36,242.20 206.98,237.54 210.18,233.44 214.66,227.81 218.18,223.49 221.06,219.98 224.58,215.79 227.77,212.09 230.01,209.55 232.89,206.36 236.09,202.94 237.37,201.59 240.25,198.65 242.81,196.10 245.37,193.65 247.93,191.26 250.80,188.65 253.68,186.13 255.60,184.50 258.48,182.12 261.04,180.08 263.92,177.86 265.52,176.66 268.08,174.79 270.32,173.21 273.20,171.25 276.39,169.17 279.27,167.38 282.79,165.30 286.31,163.32 289.83,161.45 293.67,159.52 297.82,157.55 301.98,155.69 307.10,153.54 312.22,151.53 317.34,149.62 322.13,147.93 327.89,146.00 334.61,143.86 341.65,141.74 349.32,139.54 357.96,137.18 367.56,134.68 378.11,132.05 390.27,129.14 403.70,126.05 419.05,122.64 436.65,118.87 437.93,118.60"/>
<polyline fill="none" stroke="#1f77b4" stroke-width="1.1" stroke-dasharray="6 4" points="72.00,84.47 76.81,87.52 81.62,90.57 86.43,93.62 91.24,96.67 96.05,99.73 100.86,102.78 105.67,105.83 110.48,108.88 115.29,111.93 120.10,114.98 124.91,118.03 129.72,121.09 134.53,124.14 139.34,127.19 144.15,130.24 148.96,133.29 153.77,136.34 158.58,139.39 163.39,142.45 168.20,145.50 173.01,148.55 177.82,151.60 182.63,154.65 187.44,157.70 192.25,160.75 197.06,163.81 201.87,166.86 206.68,169.91 211.49,172.96 216.30,176.01 221.11,179.06 225.92,182.11 230.73,185.17 235.54,188.22 240.35,191.27 245.16,194.32 249.97,197.37 254.78,200.42 259.59,203.47 264.41,206.53 269.22,209.58 274.03,212.63 278.84,215.68 283.65,218.73 288.46,221.78 293.27,224.83 298.08,227.89 302.89,230.94 307.70,233.99 312.51,237.04 317.32,240.09 322.13,243.14 326.94,246.19 331.75,249.25 336.56,252.30 341.37,255.35 346.18,258.40 350.99,261.45 355.80,264.50 360.61,267.55 365.42,270.61 370.23,273.66 375.04,276.71 379.85,279.76 384.66,282.81 389.47,285.86 394.28,288.91 399.09,291.97 403.90,295.02 408.71,298.07 413.52,301.12 418.33,304.17 423.14,307.22 427.95,310.27 432.76,313.33 437.57,316.38 442.38,319.43 447.19,322.48 452.00,325.53"/>
<circle cx="245.47" cy="194.52" r="4.6" fill="#ffffff" stroke="#1f77b4" stroke-width="2"/>
<text x="251.47" y="188.52" font-family="Arial, sans-serif" font-size="10" fill="#1f77b4">typ 28 ohm</text>
<polyline fill="none" stroke="#ff7f0e" stroke-width="1.1" stroke-dasharray="6 4" points="72.00,88.19 76.81,91.24 81.62,94.29 86.43,97.34 91.24,100.40 96.05,103.45 100.86,106.50 105.67,109.55 110.48,112.60 115.29,115.65 120.10,118.70 124.91,121.75 129.72,124.81 134.53,127.86 139.34,130.91 144.15,133.96 148.96,137.01 153.77,140.06 158.58,143.11 163.39,146.17 168.20,149.22 173.01,152.27 177.82,155.32 182.63,158.37 187.44,161.42 192.25,164.47 197.06,167.53 201.87,170.58 206.68,173.63 211.49,176.68 216.30,179.73 221.11,182.78 225.92,185.83 230.73,188.89 235.54,191.94 240.35,194.99 245.16,198.04 249.97,201.09 254.78,204.14 259.59,207.19 264.41,210.25 269.22,213.30 274.03,216.35 278.84,219.40 283.65,222.45 288.46,225.50 293.27,228.55 298.08,231.61 302.89,234.66 307.70,237.71 312.51,240.76 317.32,243.81 322.13,246.86 326.94,249.91 331.75,252.97 336.56,256.02 341.37,259.07 346.18,262.12 350.99,265.17 355.80,268.22 360.61,271.27 365.42,274.33 370.23,277.38 375.04,280.43 379.85,283.48 384.66,286.53 389.47,289.58 394.28,292.63 399.09,295.69 403.90,298.74 408.71,301.79 413.52,304.84 418.33,307.89 423.14,310.94 427.95,313.99 432.76,317.05 437.57,320.10 442.38,323.15 447.19,326.20 452.00,329.25"/>
<circle cx="244.94" cy="197.89" r="4.6" fill="#ffffff" stroke="#ff7f0e" stroke-width="2"/>
<text x="250.94" y="191.89" font-family="Arial, sans-serif" font-size="10" fill="#ff7f0e">min 29.8 ohm</text>
<polyline fill="none" stroke="#2ca02c" stroke-width="1.1" stroke-dasharray="6 4" points="72.00,80.75 76.81,83.80 81.62,86.85 86.43,89.90 91.24,92.95 96.05,96.01 100.86,99.06 105.67,102.11 110.48,105.16 115.29,108.21 120.10,111.26 124.91,114.31 129.72,117.37 134.53,120.42 139.34,123.47 144.15,126.52 148.96,129.57 153.77,132.62 158.58,135.67 163.39,138.73 168.20,141.78 173.01,144.83 177.82,147.88 182.63,150.93 187.44,153.98 192.25,157.03 197.06,160.09 201.87,163.14 206.68,166.19 211.49,169.24 216.30,172.29 221.11,175.34 225.92,178.39 230.73,181.45 235.54,184.50 240.35,187.55 245.16,190.60 249.97,193.65 254.78,196.70 259.59,199.75 264.41,202.81 269.22,205.86 274.03,208.91 278.84,211.96 283.65,215.01 288.46,218.06 293.27,221.11 298.08,224.17 302.89,227.22 307.70,230.27 312.51,233.32 317.32,236.37 322.13,239.42 326.94,242.47 331.75,245.53 336.56,248.58 341.37,251.63 346.18,254.68 350.99,257.73 355.80,260.78 360.61,263.83 365.42,266.89 370.23,269.94 375.04,272.99 379.85,276.04 384.66,279.09 389.47,282.14 394.28,285.19 399.09,288.25 403.90,291.30 408.71,294.35 413.52,297.40 418.33,300.45 423.14,303.50 427.95,306.55 432.76,309.60 437.57,312.66 442.38,315.71 447.19,318.76 452.00,321.81"/>
<circle cx="247.23" cy="191.91" r="4.6" fill="#ffffff" stroke="#2ca02c" stroke-width="2"/>
<text x="253.23" y="185.91" font-family="Arial, sans-serif" font-size="10" fill="#2ca02c">max 27.7 ohm</text>
<line x1="82.00" y1="80.00" x2="104.00" y2="80.00" stroke="#1f77b4" stroke-width="2"/>
<text x="110.00" y="84.00" font-family="Arial, sans-serif" font-size="11">typ</text>
<line x1="82.00" y1="97.00" x2="104.00" y2="97.00" stroke="#ff7f0e" stroke-width="2" stroke-dasharray="5 4"/>
<text x="110.00" y="101.00" font-family="Arial, sans-serif" font-size="11">min</text>
<line x1="82.00" y1="114.00" x2="104.00" y2="114.00" stroke="#2ca02c" stroke-width="2" stroke-dasharray="2 4"/>
<text x="110.00" y="118.00" font-family="Arial, sans-serif" font-size="11">max</text>
<text x="262.00" y="386.00" text-anchor="middle" font-family="Arial, sans-serif" font-size="11">Output voltage (V)</text>
<text transform="translate(22.00 205.00) rotate(-90)" text-anchor="middle" font-family="Arial, sans-serif" font-size="11">Current (mA)</text>
<rect x="492.00" y="62.00" width="380.00" height="286.00" fill="#fbfbfb" stroke="#c8c8c8"/>
<text x="500.00" y="50.00" font-family="Arial, sans-serif" font-size="13" font-weight="700">[Pullup] Rload to GND</text>
<line x1="492.00" y1="62.00" x2="492.00" y2="348.00" stroke="#ececec"/>
<text x="492.00" y="366.00" text-anchor="middle" font-family="Arial, sans-serif" font-size="10">-1.2</text>
<line x1="587.00" y1="62.00" x2="587.00" y2="348.00" stroke="#ececec"/>
<text x="587.00" y="366.00" text-anchor="middle" font-family="Arial, sans-serif" font-size="10">-0.341</text>
<line x1="682.00" y1="62.00" x2="682.00" y2="348.00" stroke="#ececec"/>
<text x="682.00" y="366.00" text-anchor="middle" font-family="Arial, sans-serif" font-size="10">0.55</text>
<line x1="777.00" y1="62.00" x2="777.00" y2="348.00" stroke="#ececec"/>
<text x="777.00" y="366.00" text-anchor="middle" font-family="Arial, sans-serif" font-size="10">1.4</text>
<line x1="872.00" y1="62.00" x2="872.00" y2="348.00" stroke="#ececec"/>
<text x="872.00" y="366.00" text-anchor="middle" font-family="Arial, sans-serif" font-size="10">2.3</text>
<line x1="492.00" y1="348.00" x2="872.00" y2="348.00" stroke="#ececec"/>
<text x="485.00" y="352.00" text-anchor="end" font-family="Arial, sans-serif" font-size="10">-53</text>
<line x1="492.00" y1="276.50" x2="872.00" y2="276.50" stroke="#ececec"/>
<text x="485.00" y="280.50" text-anchor="end" font-family="Arial, sans-serif" font-size="10">-32</text>
<line x1="492.00" y1="205.00" x2="872.00" y2="205.00" stroke="#ececec"/>
<text x="485.00" y="209.00" text-anchor="end" font-family="Arial, sans-serif" font-size="10">-11</text>
<line x1="492.00" y1="133.50" x2="872.00" y2="133.50" stroke="#ececec"/>
<text x="485.00" y="137.50" text-anchor="end" font-family="Arial, sans-serif" font-size="10">10</text>
<line x1="492.00" y1="62.00" x2="872.00" y2="62.00" stroke="#ececec"/>
<text x="485.00" y="66.00" text-anchor="end" font-family="Arial, sans-serif" font-size="10">31</text>
<line x1="623.36" y1="62" x2="623.36" y2="348" stroke="#777" stroke-dasharray="4 4"/>
<line x1="492.0" y1="167.80" x2="872.0" y2="167.80" stroke="#777" stroke-dasharray="4 4"/>
<polyline fill="none" stroke="#1f77b4" stroke-width="1.8" points="506.07,121.95 513.11,122.60 520.47,123.25 527.51,123.88 534.22,124.50 539.98,125.08 544.46,125.56 549.26,126.11 553.73,126.68 556.93,127.13 559.17,127.47 560.77,127.74 563.01,128.14 563.97,128.33 565.57,128.66 566.85,128.93 567.49,129.09 569.73,129.67 570.37,129.83 571.33,130.14 571.97,130.34 573.89,130.96 574.53,131.22 576.44,131.99 577.40,132.38 577.72,132.54 579.00,133.18 580.60,133.97 580.92,134.15 581.56,134.52 582.84,135.29 583.80,135.86 584.44,136.28 586.36,137.59 587.00,138.04 587.64,138.52 588.60,139.23 589.56,139.96 591.16,141.21 593.40,143.02 595.00,144.35 598.52,147.30 606.19,153.77 610.67,157.50 614.83,160.93 618.67,164.05 622.51,167.12 623.36,167.80 626.66,170.40 630.18,173.15 634.66,176.59 637.86,179.01 641.38,181.64 644.58,184.00 648.09,186.53 650.33,188.13 652.89,189.92 655.77,191.89 657.37,192.96 659.93,194.65 662.17,196.09 665.05,197.91 667.61,199.47 670.48,201.19 673.36,202.86 675.60,204.11 678.48,205.70 681.36,207.23 684.56,208.87 685.84,209.51 689.04,211.07 692.24,212.58 695.43,214.02 698.63,215.41 702.15,216.87 705.03,218.03 708.23,219.26 711.75,220.56 714.95,221.70 718.78,223.02 722.30,224.18 726.78,225.59 730.94,226.86 735.10,228.08 739.26,229.26 744.37,230.67 748.85,231.86 754.93,233.43 760.37,234.79 766.44,236.28 773.48,237.95 780.84,239.65 789.15,241.53 798.43,243.59 808.99,245.88 820.82,248.40 834.90,251.35 851.53,254.78 857.93,256.09"/>
<polyline fill="none" stroke="#ff7f0e" stroke-width="1.8" stroke-dasharray="5 4" points="506.07,120.68 513.11,121.20 520.47,121.88 527.51,122.61 534.22,123.36 539.98,124.06 544.46,124.66 549.26,125.36 553.73,126.08 556.93,126.69 559.17,127.12 560.77,127.48 563.01,127.99 563.97,128.23 565.57,128.67 566.85,129.02 567.49,129.19 569.73,129.93 570.37,130.14 571.33,130.46 571.97,130.71 573.89,131.47 574.53,131.72 576.44,132.61 577.40,133.05 577.72,133.20 579.00,133.89 580.60,134.75 580.92,134.93 581.56,135.31 582.84,136.11 583.80,136.71 584.44,137.11 586.36,138.45 587.00,138.90 587.64,139.34 588.60,140.07 589.56,140.79 591.16,142.01 593.40,143.79 595.00,145.08 598.52,147.95 606.19,154.25 610.67,157.88 614.83,161.19 618.67,164.20 622.51,167.15 623.36,167.79 626.66,170.28 630.18,172.90 634.66,176.17 637.86,178.47 641.38,180.95 644.58,183.18 648.09,185.57 650.33,187.07 652.89,188.75 655.77,190.60 657.37,191.60 659.93,193.20 662.17,194.55 665.05,196.24 667.61,197.70 670.48,199.28 673.36,200.81 675.60,201.96 678.48,203.38 681.36,204.75 684.56,206.20 685.84,206.77 689.04,208.14 692.24,209.44 695.43,210.68 698.63,211.88 702.15,213.14 705.03,214.12 708.23,215.17 711.75,216.29 714.95,217.27 718.78,218.40 722.30,219.40 726.78,220.63 730.94,221.74 735.10,222.81 739.26,223.86 744.37,225.10 748.85,226.17 754.93,227.58 760.37,228.82 766.44,230.16 773.48,231.69 780.84,233.25 789.15,234.99 798.43,236.89 808.99,239.02 820.82,241.38 834.90,244.15 851.53,247.38 857.93,248.62"/>
<polyline fill="none" stroke="#2ca02c" stroke-width="1.8" stroke-dasharray="2 4" points="506.07,122.16 513.11,122.76 520.47,123.37 527.51,123.99 534.22,124.64 539.98,125.23 544.46,125.73 549.26,126.29 553.73,126.86 556.93,127.30 559.17,127.63 560.77,127.88 563.01,128.24 563.97,128.41 565.57,128.70 566.85,128.95 567.49,129.08 569.73,129.58 570.37,129.74 571.33,129.99 571.97,130.15 573.89,130.72 574.53,130.93 576.44,131.60 577.40,131.99 577.72,132.12 579.00,132.66 580.60,133.44 580.92,133.59 581.56,133.94 582.84,134.65 583.80,135.23 584.44,135.62 586.36,136.91 587.00,137.37 587.64,137.83 588.60,138.54 589.56,139.27 591.16,140.54 593.40,142.37 595.00,143.71 598.52,146.72 606.19,153.34 610.67,157.17 614.83,160.69 618.67,163.91 622.51,167.09 623.36,167.80 626.66,170.50 630.18,173.36 634.66,176.95 637.86,179.48 641.38,182.24 644.58,184.71 648.09,187.37 650.33,189.04 652.89,190.91 655.77,192.97 657.37,194.10 659.93,195.88 662.17,197.40 665.05,199.32 667.61,200.99 670.48,202.82 673.36,204.61 675.60,205.98 678.48,207.71 681.36,209.40 684.56,211.23 685.84,211.94 689.04,213.70 692.24,215.42 695.43,217.08 698.63,218.69 702.15,220.39 705.03,221.74 708.23,223.19 711.75,224.73 714.95,226.07 718.78,227.62 722.30,228.98 726.78,230.64 730.94,232.12 735.10,233.53 739.26,234.89 744.37,236.50 748.85,237.85 754.93,239.62 760.37,241.14 766.44,242.79 773.48,244.63 780.84,246.50 789.15,248.55 798.43,250.76 808.99,253.22 820.82,255.90 834.90,259.03 851.53,262.64 857.93,264.02"/>
<polyline fill="none" stroke="#1f77b4" stroke-width="1.1" stroke-dasharray="6 4" points="492.00,325.53 496.81,322.48 501.62,319.43 506.43,316.38 511.24,313.33 516.05,310.27 520.86,307.22 525.67,304.17 530.48,301.12 535.29,298.07 540.10,295.02 544.91,291.97 549.72,288.91 554.53,285.86 559.34,282.81 564.15,279.76 568.96,276.71 573.77,273.66 578.58,270.61 583.39,267.55 588.20,264.50 593.01,261.45 597.82,258.40 602.63,255.35 607.44,252.30 612.25,249.25 617.06,246.19 621.87,243.14 626.68,240.09 631.49,237.04 636.30,233.99 641.11,230.94 645.92,227.89 650.73,224.83 655.54,221.78 660.35,218.73 665.16,215.68 669.97,212.63 674.78,209.58 679.59,206.53 684.41,203.47 689.22,200.42 694.03,197.37 698.84,194.32 703.65,191.27 708.46,188.22 713.27,185.17 718.08,182.11 722.89,179.06 727.70,176.01 732.51,172.96 737.32,169.91 742.13,166.86 746.94,163.81 751.75,160.75 756.56,157.70 761.37,154.65 766.18,151.60 770.99,148.55 775.80,145.50 780.61,142.45 785.42,139.39 790.23,136.34 795.04,133.29 799.85,130.24 804.66,127.19 809.47,124.14 814.28,121.09 819.09,118.03 823.90,114.98 828.71,111.93 833.52,108.88 838.33,105.83 843.14,102.78 847.95,99.73 852.76,96.67 857.57,93.62 862.38,90.57 867.19,87.52 872.00,84.47"/>
<circle cx="679.80" cy="206.40" r="4.6" fill="#ffffff" stroke="#1f77b4" stroke-width="2"/>
<text x="685.80" y="200.40" font-family="Arial, sans-serif" font-size="10" fill="#1f77b4">typ 46.4 ohm</text>
<polyline fill="none" stroke="#ff7f0e" stroke-width="1.1" stroke-dasharray="6 4" points="492.00,321.81 496.81,318.76 501.62,315.71 506.43,312.66 511.24,309.60 516.05,306.55 520.86,303.50 525.67,300.45 530.48,297.40 535.29,294.35 540.10,291.30 544.91,288.25 549.72,285.19 554.53,282.14 559.34,279.09 564.15,276.04 568.96,272.99 573.77,269.94 578.58,266.89 583.39,263.83 588.20,260.78 593.01,257.73 597.82,254.68 602.63,251.63 607.44,248.58 612.25,245.53 617.06,242.47 621.87,239.42 626.68,236.37 631.49,233.32 636.30,230.27 641.11,227.22 645.92,224.17 650.73,221.11 655.54,218.06 660.35,215.01 665.16,211.96 669.97,208.91 674.78,205.86 679.59,202.81 684.41,199.75 689.22,196.70 694.03,193.65 698.84,190.60 703.65,187.55 708.46,184.50 713.27,181.45 718.08,178.39 722.89,175.34 727.70,172.29 732.51,169.24 737.32,166.19 742.13,163.14 746.94,160.09 751.75,157.03 756.56,153.98 761.37,150.93 766.18,147.88 770.99,144.83 775.80,141.78 780.61,138.73 785.42,135.67 790.23,132.62 795.04,129.57 799.85,126.52 804.66,123.47 809.47,120.42 814.28,117.37 819.09,114.31 823.90,111.26 828.71,108.21 833.52,105.16 838.33,102.11 843.14,99.06 847.95,96.01 852.76,92.95 857.57,89.90 862.38,86.85 867.19,83.80 872.00,80.75"/>
<circle cx="678.60" cy="203.44" r="4.6" fill="#ffffff" stroke="#ff7f0e" stroke-width="2"/>
<text x="684.60" y="197.44" font-family="Arial, sans-serif" font-size="10" fill="#ff7f0e">min 49.2 ohm</text>
<polyline fill="none" stroke="#2ca02c" stroke-width="1.1" stroke-dasharray="6 4" points="492.00,329.25 496.81,326.20 501.62,323.15 506.43,320.10 511.24,317.05 516.05,313.99 520.86,310.94 525.67,307.89 530.48,304.84 535.29,301.79 540.10,298.74 544.91,295.69 549.72,292.63 554.53,289.58 559.34,286.53 564.15,283.48 568.96,280.43 573.77,277.38 578.58,274.33 583.39,271.27 588.20,268.22 593.01,265.17 597.82,262.12 602.63,259.07 607.44,256.02 612.25,252.97 617.06,249.91 621.87,246.86 626.68,243.81 631.49,240.76 636.30,237.71 641.11,234.66 645.92,231.61 650.73,228.55 655.54,225.50 660.35,222.45 665.16,219.40 669.97,216.35 674.78,213.30 679.59,210.25 684.41,207.19 689.22,204.14 694.03,201.09 698.84,198.04 703.65,194.99 708.46,191.94 713.27,188.89 718.08,185.83 722.89,182.78 727.70,179.73 732.51,176.68 737.32,173.63 742.13,170.58 746.94,167.53 751.75,164.47 756.56,161.42 761.37,158.37 766.18,155.32 770.99,152.27 775.80,149.22 780.61,146.17 785.42,143.11 790.23,140.06 795.04,137.01 799.85,133.96 804.66,130.91 809.47,127.86 814.28,124.81 819.09,121.75 823.90,118.70 828.71,115.65 833.52,112.60 838.33,109.55 843.14,106.50 847.95,103.45 852.76,100.40 857.57,97.34 862.38,94.29 867.19,91.24 872.00,88.19"/>
<circle cx="681.14" cy="209.27" r="4.6" fill="#ffffff" stroke="#2ca02c" stroke-width="2"/>
<text x="687.14" y="203.27" font-family="Arial, sans-serif" font-size="10" fill="#2ca02c">max 44.2 ohm</text>
<line x1="502.00" y1="80.00" x2="524.00" y2="80.00" stroke="#1f77b4" stroke-width="2"/>
<text x="530.00" y="84.00" font-family="Arial, sans-serif" font-size="11">typ</text>
<line x1="502.00" y1="97.00" x2="524.00" y2="97.00" stroke="#ff7f0e" stroke-width="2" stroke-dasharray="5 4"/>
<text x="530.00" y="101.00" font-family="Arial, sans-serif" font-size="11">min</text>
<line x1="502.00" y1="114.00" x2="524.00" y2="114.00" stroke="#2ca02c" stroke-width="2" stroke-dasharray="2 4"/>
<text x="530.00" y="118.00" font-family="Arial, sans-serif" font-size="11">max</text>
<text x="682.00" y="386.00" text-anchor="middle" font-family="Arial, sans-serif" font-size="11">Vcc-relative table voltage (V)</text>
<text transform="translate(442.00 205.00) rotate(-90)" text-anchor="middle" font-family="Arial, sans-serif" font-size="11">Current (mA)</text>
<rect x="72.00" y="418.00" width="800.00" height="144.00" fill="#ffffff" stroke="#c8c8c8"/>
<text x="82.00" y="436.00" font-family="Arial, sans-serif" font-size="12" font-weight="700">Operating-point summary</text>
<text x="82.00" y="454.00" font-family="Arial, sans-serif" font-size="10" font-weight="700" fill="#333">Table</text>
<text x="174.00" y="454.00" font-family="Arial, sans-serif" font-size="10" font-weight="700" fill="#333">Corner</text>
<text x="242.00" y="454.00" font-family="Arial, sans-serif" font-size="10" font-weight="700" fill="#333">Vout</text>
<text x="332.00" y="454.00" font-family="Arial, sans-serif" font-size="10" font-weight="700" fill="#333">Iop</text>
<text x="422.00" y="454.00" font-family="Arial, sans-serif" font-size="10" font-weight="700" fill="#333">Zout</text>
<text x="512.00" y="454.00" font-family="Arial, sans-serif" font-size="10" font-weight="700" fill="#333">Rseries</text>
<text x="82.00" y="473.00" font-family="Arial, sans-serif" font-size="10" fill="#1f77b4">pulldown</text>
<text x="174.00" y="473.00" font-family="Arial, sans-serif" font-size="10" fill="#1f77b4">typ</text>
<text x="242.00" y="473.00" font-family="Arial, sans-serif" font-size="10" fill="#1f77b4">0.395 V</text>
<text x="332.00" y="473.00" font-family="Arial, sans-serif" font-size="10" fill="#1f77b4">14 mA</text>
<text x="422.00" y="473.00" font-family="Arial, sans-serif" font-size="10" fill="#1f77b4">28 ohm</text>
<text x="512.00" y="473.00" font-family="Arial, sans-serif" font-size="10" fill="#1f77b4">22 ohm</text>
<text x="82.00" y="492.00" font-family="Arial, sans-serif" font-size="10" fill="#ff7f0e">pulldown</text>
<text x="174.00" y="492.00" font-family="Arial, sans-serif" font-size="10" fill="#ff7f0e">min</text>
<text x="242.00" y="492.00" font-family="Arial, sans-serif" font-size="10" fill="#ff7f0e">0.39 V</text>
<text x="332.00" y="492.00" font-family="Arial, sans-serif" font-size="10" fill="#ff7f0e">13 mA</text>
<text x="422.00" y="492.00" font-family="Arial, sans-serif" font-size="10" fill="#ff7f0e">29.8 ohm</text>
<text x="512.00" y="492.00" font-family="Arial, sans-serif" font-size="10" fill="#ff7f0e">20.2 ohm</text>
<text x="82.00" y="511.00" font-family="Arial, sans-serif" font-size="10" fill="#2ca02c">pulldown</text>
<text x="174.00" y="511.00" font-family="Arial, sans-serif" font-size="10" fill="#2ca02c">max</text>
<text x="242.00" y="511.00" font-family="Arial, sans-serif" font-size="10" fill="#2ca02c">0.4114 V</text>
<text x="332.00" y="511.00" font-family="Arial, sans-serif" font-size="10" fill="#2ca02c">15 mA</text>
<text x="422.00" y="511.00" font-family="Arial, sans-serif" font-size="10" fill="#2ca02c">27.7 ohm</text>
<text x="512.00" y="511.00" font-family="Arial, sans-serif" font-size="10" fill="#2ca02c">22.3 ohm</text>
<text x="82.00" y="530.00" font-family="Arial, sans-serif" font-size="10" fill="#1f77b4">pullup</text>
<text x="174.00" y="530.00" font-family="Arial, sans-serif" font-size="10" fill="#1f77b4">typ</text>
<text x="242.00" y="530.00" font-family="Arial, sans-serif" font-size="10" fill="#1f77b4">0.5706 V</text>
<text x="332.00" y="530.00" font-family="Arial, sans-serif" font-size="10" fill="#1f77b4">-11 mA</text>
<text x="422.00" y="530.00" font-family="Arial, sans-serif" font-size="10" fill="#1f77b4">46.4 ohm</text>
<text x="512.00" y="530.00" font-family="Arial, sans-serif" font-size="10" fill="#1f77b4">3.618 ohm</text>
<text x="82.00" y="549.00" font-family="Arial, sans-serif" font-size="10" fill="#ff7f0e">pullup</text>
<text x="174.00" y="549.00" font-family="Arial, sans-serif" font-size="10" fill="#ff7f0e">min</text>
<text x="242.00" y="549.00" font-family="Arial, sans-serif" font-size="10" fill="#ff7f0e">0.5269 V</text>
<text x="332.00" y="549.00" font-family="Arial, sans-serif" font-size="10" fill="#ff7f0e">-11 mA</text>
<text x="422.00" y="549.00" font-family="Arial, sans-serif" font-size="10" fill="#ff7f0e">49.2 ohm</text>
<text x="512.00" y="549.00" font-family="Arial, sans-serif" font-size="10" fill="#ff7f0e">0.8324 ohm</text>
<text x="82.00" y="568.00" font-family="Arial, sans-serif" font-size="10" fill="#2ca02c">pullup</text>
<text x="174.00" y="568.00" font-family="Arial, sans-serif" font-size="10" fill="#2ca02c">max</text>
<text x="242.00" y="568.00" font-family="Arial, sans-serif" font-size="10" fill="#2ca02c">0.6131 V</text>
<text x="332.00" y="568.00" font-family="Arial, sans-serif" font-size="10" fill="#2ca02c">-12 mA</text>
<text x="422.00" y="568.00" font-family="Arial, sans-serif" font-size="10" fill="#2ca02c">44.2 ohm</text>
<text x="512.00" y="568.00" font-family="Arial, sans-serif" font-size="10" fill="#2ca02c">5.804 ohm</text>
</svg>