<svg xmlns="http://www.w3.org/2000/svg" width="900" height="620" viewBox="0 0 900 620">
<rect width="100%" height="100%" fill="#ffffff"/>
<text x="72" y="26" font-family="Arial, sans-serif" font-size="16" font-weight="700">ALERT Zout Load-Line Curves</text>
<text x="72" y="45" font-family="Arial, sans-serif" font-size="11" fill="#555">Rload=50 ohm; solid=device I-V, dashed=load line, circles=operating points</text>
<rect x="72.00" y="62.00" width="800.00" height="286.00" fill="#fbfbfb" stroke="#c8c8c8"/>
<text x="80.00" y="50.00" font-family="Arial, sans-serif" font-size="13" font-weight="700">[Pulldown] Rload to Vdd</text>
<line x1="72.00" y1="62.00" x2="72.00" y2="348.00" stroke="#ececec"/>
<text x="72.00" y="366.00" text-anchor="middle" font-family="Arial, sans-serif" font-size="10">-1.2</text>
<line x1="272.00" y1="62.00" x2="272.00" y2="348.00" stroke="#ececec"/>
<text x="272.00" y="366.00" text-anchor="middle" font-family="Arial, sans-serif" font-size="10">-0.341</text>
<line x1="472.00" y1="62.00" x2="472.00" y2="348.00" stroke="#ececec"/>
<text x="472.00" y="366.00" text-anchor="middle" font-family="Arial, sans-serif" font-size="10">0.55</text>
<line x1="672.00" y1="62.00" x2="672.00" y2="348.00" stroke="#ececec"/>
<text x="672.00" y="366.00" text-anchor="middle" font-family="Arial, sans-serif" font-size="10">1.4</text>
<line x1="872.00" y1="62.00" x2="872.00" y2="348.00" stroke="#ececec"/>
<text x="872.00" y="366.00" text-anchor="middle" font-family="Arial, sans-serif" font-size="10">2.3</text>
<line x1="72.00" y1="348.00" x2="872.00" y2="348.00" stroke="#ececec"/>
<text x="65.00" y="352.00" text-anchor="end" font-family="Arial, sans-serif" font-size="10">-36</text>
<line x1="72.00" y1="276.50" x2="872.00" y2="276.50" stroke="#ececec"/>
<text x="65.00" y="280.50" text-anchor="end" font-family="Arial, sans-serif" font-size="10">-14</text>
<line x1="72.00" y1="205.00" x2="872.00" y2="205.00" stroke="#ececec"/>
<text x="65.00" y="209.00" text-anchor="end" font-family="Arial, sans-serif" font-size="10">8.8</text>
<line x1="72.00" y1="133.50" x2="872.00" y2="133.50" stroke="#ececec"/>
<text x="65.00" y="137.50" text-anchor="end" font-family="Arial, sans-serif" font-size="10">31</text>
<line x1="72.00" y1="62.00" x2="872.00" y2="62.00" stroke="#ececec"/>
<text x="65.00" y="66.00" text-anchor="end" font-family="Arial, sans-serif" font-size="10">54</text>
<line x1="348.54" y1="62" x2="348.54" y2="348" stroke="#777" stroke-dasharray="4 4"/>
<line x1="72.0" y1="233.14" x2="872.0" y2="233.14" stroke="#777" stroke-dasharray="4 4"/>
<polyline fill="none" stroke="#1f77b4" stroke-width="1.8" points="101.63,313.93 115.10,313.60 128.38,313.26 140.72,312.93 152.04,312.61 161.30,312.33 171.59,311.95 180.85,311.52 190.11,310.96 197.31,310.40 199.37,310.20 204.51,309.68 209.65,309.06 215.83,308.15 217.88,307.80 218.91,307.61 223.03,306.85 228.17,305.68 230.23,305.18 237.43,303.09 238.46,302.75 244.63,300.46 245.66,300.07 246.69,299.64 249.78,298.21 251.84,297.26 253.89,296.31 255.95,295.21 259.04,293.51 262.12,291.82 265.21,289.93 269.33,287.40 271.38,286.07 277.56,282.00 284.76,277.10 295.05,269.97 313.56,257.10 326.94,247.87 334.14,242.94 347.51,233.84 348.54,233.15 358.83,226.26 363.98,222.88 371.18,218.19 380.44,212.28 388.67,207.14 395.87,202.74 398.95,200.88 404.10,197.84 409.24,194.85 413.36,192.57 417.47,190.29 419.53,189.15 423.65,186.88 429.82,183.71 435.99,180.55 446.28,175.69 448.34,174.73 450.40,173.85 459.65,169.84 463.77,168.22 472.00,164.99 477.14,163.17 480.23,162.08 484.35,160.62 490.52,158.64 496.69,156.66 504.92,154.29 509.04,153.11 513.15,152.02 518.30,150.67 522.41,149.63 527.56,148.39 532.70,147.15 538.87,145.78 546.07,144.19 553.28,142.71 559.45,141.46 567.68,139.87 574.81,138.54 583.11,137.05 590.29,135.80 603.76,133.56 618.13,131.30 632.49,129.08 646.86,126.98 660.33,125.06 676.71,122.80 698.26,119.93 722.06,116.90 749.89,113.47 782.66,109.52 820.82,105.09 842.37,102.63"/>
<polyline fill="none" stroke="#ff7f0e" stroke-width="1.8" stroke-dasharray="5 4" points="101.63,320.32 115.10,319.79 128.38,319.11 140.72,318.36 152.04,317.54 161.30,316.77 171.59,315.76 180.85,314.71 190.11,313.49 197.31,312.36 199.37,312.04 204.51,311.07 209.65,310.07 215.83,308.65 217.88,308.17 218.91,307.93 223.03,306.75 228.17,305.28 230.23,304.57 237.43,302.00 238.46,301.62 244.63,298.92 245.66,298.47 246.69,298.02 249.78,296.53 251.84,295.48 253.89,294.39 255.95,293.27 259.04,291.52 262.12,289.70 265.21,287.83 269.33,285.26 271.38,283.95 277.56,279.92 284.76,275.15 295.05,268.26 313.56,255.89 326.94,247.08 334.14,242.41 347.51,233.81 348.54,233.16 358.83,226.72 363.98,223.51 371.18,219.16 380.44,213.58 388.67,208.83 395.87,204.67 398.95,202.95 404.10,200.13 409.24,197.31 413.36,195.06 417.47,192.95 419.53,191.90 423.65,189.80 429.82,186.65 435.99,183.77 446.28,178.99 448.34,178.12 450.40,177.27 459.65,173.45 463.77,171.78 472.00,168.84 477.14,167.00 480.23,165.91 484.35,164.63 490.52,162.72 496.69,160.80 504.92,158.55 509.04,157.43 513.15,156.38 518.30,155.10 522.41,154.09 527.56,152.89 532.70,151.72 538.87,150.34 546.07,148.83 553.28,147.35 559.45,146.15 567.68,144.57 574.81,143.24 583.11,141.77 590.29,140.52 603.76,138.26 618.13,135.93 632.49,133.70 646.86,131.54 660.33,129.59 676.71,127.25 698.26,124.28 722.06,121.13 749.89,117.53 782.66,113.38 820.82,108.71 842.37,106.11"/>
<polyline fill="none" stroke="#2ca02c" stroke-width="1.8" stroke-dasharray="2 4" points="101.63,309.41 115.10,308.91 128.38,308.39 140.72,307.89 152.04,307.44 161.30,307.07 171.59,306.67 180.85,306.33 190.11,305.97 197.31,305.67 199.37,305.58 204.51,305.31 209.65,305.00 215.83,304.52 217.88,304.31 218.91,304.20 223.03,303.76 228.17,303.00 230.23,302.69 237.43,301.21 238.46,300.93 244.63,299.22 245.66,298.85 246.69,298.47 249.78,297.35 251.84,296.59 253.89,295.65 255.95,294.72 259.04,293.30 262.12,291.64 265.21,289.97 269.33,287.51 271.38,286.28 277.56,282.34 284.76,277.51 295.05,270.43 313.56,257.51 326.94,248.16 334.14,243.15 347.51,233.86 348.54,233.15 358.83,226.10 363.98,222.63 371.18,217.82 380.44,211.75 388.67,206.48 395.87,202.01 398.95,200.10 404.10,197.11 409.24,194.12 413.36,191.73 417.47,189.33 419.53,188.22 423.65,186.05 429.82,182.80 435.99,179.57 446.28,174.61 448.34,173.62 450.40,172.67 459.65,168.55 463.77,166.74 472.00,163.37 477.14,161.27 480.23,160.11 484.35,158.57 490.52,156.26 496.69,154.15 504.92,151.37 509.04,150.10 513.15,148.84 518.30,147.26 522.41,146.11 527.56,144.68 532.70,143.27 538.87,141.71 546.07,139.91 553.28,138.26 559.45,136.85 567.68,135.12 574.81,133.62 583.11,132.02 590.29,130.65 603.76,128.25 618.13,125.82 632.49,123.51 646.86,121.32 660.33,119.36 676.71,117.05 698.26,114.15 722.06,111.11 749.89,107.68 782.66,103.79 820.82,99.46 842.37,97.06"/>
<polyline fill="none" stroke="#1f77b4" stroke-width="1.1" stroke-dasharray="6 4" points="72.00,84.78 82.13,87.65 92.25,90.52 102.38,93.39 112.51,96.26 122.63,99.13 132.76,102.00 142.89,104.87 153.01,107.74 163.14,110.61 173.27,113.48 183.39,116.35 193.52,119.22 203.65,122.09 213.77,124.96 223.90,127.83 234.03,130.70 244.15,133.57 254.28,136.44 264.41,139.31 274.53,142.18 284.66,145.05 294.78,147.92 304.91,150.79 315.04,153.66 325.16,156.53 335.29,159.40 345.42,162.27 355.54,165.15 365.67,168.02 375.80,170.89 385.92,173.76 396.05,176.63 406.18,179.50 416.30,182.37 426.43,185.24 436.56,188.11 446.68,190.98 456.81,193.85 466.94,196.72 477.06,199.59 487.19,202.46 497.32,205.33 507.44,208.20 517.57,211.07 527.70,213.94 537.82,216.81 547.95,219.68 558.08,222.55 568.20,225.42 578.33,228.29 588.46,231.16 598.58,234.03 608.71,236.90 618.84,239.77 628.96,242.64 639.09,245.51 649.22,248.38 659.34,251.25 669.47,254.12 679.59,256.99 689.72,259.86 699.85,262.73 709.97,265.60 720.10,268.47 730.23,271.34 740.35,274.21 750.48,277.08 760.61,279.95 770.73,282.82 780.86,285.69 790.99,288.57 801.11,291.44 811.24,294.31 821.37,297.18 831.49,300.05 841.62,302.92 851.75,305.79 861.87,308.66 872.00,311.53"/>
<circle cx="426.69" cy="185.31" r="4.6" fill="#ffffff" stroke="#1f77b4" stroke-width="2"/>
<text x="432.69" y="179.31" font-family="Arial, sans-serif" font-size="10" fill="#1f77b4">typ 23.2 ohm</text>
<polyline fill="none" stroke="#ff7f0e" stroke-width="1.1" stroke-dasharray="6 4" points="72.00,88.28 82.13,91.15 92.25,94.02 102.38,96.89 112.51,99.76 122.63,102.63 132.76,105.50 142.89,108.37 153.01,111.24 163.14,114.11 173.27,116.98 183.39,119.85 193.52,122.72 203.65,125.59 213.77,128.46 223.90,131.33 234.03,134.20 244.15,137.07 254.28,139.94 264.41,142.81 274.53,145.68 284.66,148.55 294.78,151.42 304.91,154.29 315.04,157.16 325.16,160.03 335.29,162.90 345.42,165.77 355.54,168.64 365.67,171.51 375.80,174.38 385.92,177.25 396.05,180.13 406.18,183.00 416.30,185.87 426.43,188.74 436.56,191.61 446.68,194.48 456.81,197.35 466.94,200.22 477.06,203.09 487.19,205.96 497.32,208.83 507.44,211.70 517.57,214.57 527.70,217.44 537.82,220.31 547.95,223.18 558.08,226.05 568.20,228.92 578.33,231.79 588.46,234.66 598.58,237.53 608.71,240.40 618.84,243.27 628.96,246.14 639.09,249.01 649.22,251.88 659.34,254.75 669.47,257.62 679.59,260.49 689.72,263.36 699.85,266.23 709.97,269.10 720.10,271.97 730.23,274.84 740.35,277.71 750.48,280.58 760.61,283.45 770.73,286.32 780.86,289.19 790.99,292.06 801.11,294.93 811.24,297.80 821.37,300.67 831.49,303.55 841.62,306.42 851.75,309.29 861.87,312.16 872.00,315.03"/>
<circle cx="425.98" cy="188.61" r="4.6" fill="#ffffff" stroke="#ff7f0e" stroke-width="2"/>
<text x="431.98" y="182.61" font-family="Arial, sans-serif" font-size="10" fill="#ff7f0e">min 24.6 ohm</text>
<polyline fill="none" stroke="#2ca02c" stroke-width="1.1" stroke-dasharray="6 4" points="72.00,81.28 82.13,84.15 92.25,87.02 102.38,89.89 112.51,92.76 122.63,95.63 132.76,98.50 142.89,101.37 153.01,104.24 163.14,107.11 173.27,109.98 183.39,112.85 193.52,115.72 203.65,118.59 213.77,121.46 223.90,124.33 234.03,127.20 244.15,130.07 254.28,132.94 264.41,135.81 274.53,138.68 284.66,141.55 294.78,144.42 304.91,147.29 315.04,150.16 325.16,153.04 335.29,155.91 345.42,158.78 355.54,161.65 365.67,164.52 375.80,167.39 385.92,170.26 396.05,173.13 406.18,176.00 416.30,178.87 426.43,181.74 436.56,184.61 446.68,187.48 456.81,190.35 466.94,193.22 477.06,196.09 487.19,198.96 497.32,201.83 507.44,204.70 517.57,207.57 527.70,210.44 537.82,213.31 547.95,216.18 558.08,219.05 568.20,221.92 578.33,224.79 588.46,227.66 598.58,230.53 608.71,233.40 618.84,236.27 628.96,239.14 639.09,242.01 649.22,244.88 659.34,247.75 669.47,250.62 679.59,253.49 689.72,256.36 699.85,259.23 709.97,262.10 720.10,264.97 730.23,267.84 740.35,270.71 750.48,273.58 760.61,276.46 770.73,279.33 780.86,282.20 790.99,285.07 801.11,287.94 811.24,290.81 821.37,293.68 831.49,296.55 841.62,299.42 851.75,302.29 861.87,305.16 872.00,308.03"/>
<circle cx="429.94" cy="182.73" r="4.6" fill="#ffffff" stroke="#2ca02c" stroke-width="2"/>
<text x="435.94" y="176.73" font-family="Arial, sans-serif" font-size="10" fill="#2ca02c">max 22.9 ohm</text>
<line x1="82.00" y1="80.00" x2="104.00" y2="80.00" stroke="#1f77b4" stroke-width="2"/>
<text x="110.00" y="84.00" font-family="Arial, sans-serif" font-size="11">typ</text>
<line x1="82.00" y1="97.00" x2="104.00" y2="97.00" stroke="#ff7f0e" stroke-width="2" stroke-dasharray="5 4"/>
<text x="110.00" y="101.00" font-family="Arial, sans-serif" font-size="11">min</text>
<line x1="82.00" y1="114.00" x2="104.00" y2="114.00" stroke="#2ca02c" stroke-width="2" stroke-dasharray="2 4"/>
<text x="110.00" y="118.00" font-family="Arial, sans-serif" font-size="11">max</text>
<text x="472.00" y="386.00" text-anchor="middle" font-family="Arial, sans-serif" font-size="11">Output voltage (V)</text>
<text transform="translate(22.00 205.00) rotate(-90)" text-anchor="middle" font-family="Arial, sans-serif" font-size="11">Current (mA)</text>
<rect x="72.00" y="418.00" width="800.00" height="87.00" fill="#ffffff" stroke="#c8c8c8"/>
<text x="82.00" y="436.00" font-family="Arial, sans-serif" font-size="12" font-weight="700">Operating-point summary</text>
<text x="82.00" y="454.00" font-family="Arial, sans-serif" font-size="10" font-weight="700" fill="#333">Table</text>
<text x="174.00" y="454.00" font-family="Arial, sans-serif" font-size="10" font-weight="700" fill="#333">Corner</text>
<text x="242.00" y="454.00" font-family="Arial, sans-serif" font-size="10" font-weight="700" fill="#333">Vout</text>
<text x="332.00" y="454.00" font-family="Arial, sans-serif" font-size="10" font-weight="700" fill="#333">Iop</text>
<text x="422.00" y="454.00" font-family="Arial, sans-serif" font-size="10" font-weight="700" fill="#333">Zout</text>
<text x="512.00" y="454.00" font-family="Arial, sans-serif" font-size="10" font-weight="700" fill="#333">Rseries</text>
<text x="82.00" y="473.00" font-family="Arial, sans-serif" font-size="10" fill="#1f77b4">pulldown</text>
<text x="174.00" y="473.00" font-family="Arial, sans-serif" font-size="10" fill="#1f77b4">typ</text>
<text x="242.00" y="473.00" font-family="Arial, sans-serif" font-size="10" fill="#1f77b4">0.3482 V</text>
<text x="332.00" y="473.00" font-family="Arial, sans-serif" font-size="10" fill="#1f77b4">15 mA</text>
<text x="422.00" y="473.00" font-family="Arial, sans-serif" font-size="10" fill="#1f77b4">23.2 ohm</text>
<text x="512.00" y="473.00" font-family="Arial, sans-serif" font-size="10" fill="#1f77b4">26.8 ohm</text>
<text x="82.00" y="492.00" font-family="Arial, sans-serif" font-size="10" fill="#ff7f0e">pulldown</text>
<text x="174.00" y="492.00" font-family="Arial, sans-serif" font-size="10" fill="#ff7f0e">min</text>
<text x="242.00" y="492.00" font-family="Arial, sans-serif" font-size="10" fill="#ff7f0e">0.345 V</text>
<text x="332.00" y="492.00" font-family="Arial, sans-serif" font-size="10" fill="#ff7f0e">14 mA</text>
<text x="422.00" y="492.00" font-family="Arial, sans-serif" font-size="10" fill="#ff7f0e">24.6 ohm</text>
<text x="512.00" y="492.00" font-family="Arial, sans-serif" font-size="10" fill="#ff7f0e">25.4 ohm</text>
<text x="82.00" y="511.00" font-family="Arial, sans-serif" font-size="10" fill="#2ca02c">pulldown</text>
<text x="174.00" y="511.00" font-family="Arial, sans-serif" font-size="10" fill="#2ca02c">max</text>
<text x="242.00" y="511.00" font-family="Arial, sans-serif" font-size="10" fill="#2ca02c">0.3626 V</text>
<text x="332.00" y="511.00" font-family="Arial, sans-serif" font-size="10" fill="#2ca02c">16 mA</text>
<text x="422.00" y="511.00" font-family="Arial, sans-serif" font-size="10" fill="#2ca02c">22.9 ohm</text>
<text x="512.00" y="511.00" font-family="Arial, sans-serif" font-size="10" fill="#2ca02c">27.1 ohm</text>
</svg>