<svg xmlns="http://www.w3.org/2000/svg" width="900" height="620" viewBox="0 0 900 620">
<rect width="100%" height="100%" fill="#ffffff"/>
<text x="72" y="26" font-family="Arial, sans-serif" font-size="16" font-weight="700">DQS_48_4800 Zout Load-Line Curves</text>
<text x="72" y="45" font-family="Arial, sans-serif" font-size="11" fill="#555">Rload=50 ohm; solid=device I-V, dashed=load line, circles=operating points</text>
<rect x="72.00" y="62.00" width="380.00" height="286.00" fill="#fbfbfb" stroke="#c8c8c8"/>
<text x="80.00" y="50.00" font-family="Arial, sans-serif" font-size="13" font-weight="700">[Pulldown] Rload to Vdd</text>
<line x1="72.00" y1="62.00" x2="72.00" y2="348.00" stroke="#ececec"/>
<text x="72.00" y="366.00" text-anchor="middle" font-family="Arial, sans-serif" font-size="10">-1.2</text>
<line x1="167.00" y1="62.00" x2="167.00" y2="348.00" stroke="#ececec"/>
<text x="167.00" y="366.00" text-anchor="middle" font-family="Arial, sans-serif" font-size="10">-0.341</text>
<line x1="262.00" y1="62.00" x2="262.00" y2="348.00" stroke="#ececec"/>
<text x="262.00" y="366.00" text-anchor="middle" font-family="Arial, sans-serif" font-size="10">0.55</text>
<line x1="357.00" y1="62.00" x2="357.00" y2="348.00" stroke="#ececec"/>
<text x="357.00" y="366.00" text-anchor="middle" font-family="Arial, sans-serif" font-size="10">1.4</text>
<line x1="452.00" y1="62.00" x2="452.00" y2="348.00" stroke="#ececec"/>
<text x="452.00" y="366.00" text-anchor="middle" font-family="Arial, sans-serif" font-size="10">2.3</text>
<line x1="72.00" y1="348.00" x2="452.00" y2="348.00" stroke="#ececec"/>
<text x="65.00" y="352.00" text-anchor="end" font-family="Arial, sans-serif" font-size="10">-31</text>
<line x1="72.00" y1="276.50" x2="452.00" y2="276.50" stroke="#ececec"/>
<text x="65.00" y="280.50" text-anchor="end" font-family="Arial, sans-serif" font-size="10">-10</text>
<line x1="72.00" y1="205.00" x2="452.00" y2="205.00" stroke="#ececec"/>
<text x="65.00" y="209.00" text-anchor="end" font-family="Arial, sans-serif" font-size="10">11</text>
<line x1="72.00" y1="133.50" x2="452.00" y2="133.50" stroke="#ececec"/>
<text x="65.00" y="137.50" text-anchor="end" font-family="Arial, sans-serif" font-size="10">32</text>
<line x1="72.00" y1="62.00" x2="452.00" y2="62.00" stroke="#ececec"/>
<text x="65.00" y="66.00" text-anchor="end" font-family="Arial, sans-serif" font-size="10">53</text>
<line x1="203.36" y1="62" x2="203.36" y2="348" stroke="#777" stroke-dasharray="4 4"/>
<line x1="72.0" y1="242.20" x2="452.0" y2="242.20" stroke="#777" stroke-dasharray="4 4"/>
<polyline fill="none" stroke="#1f77b4" stroke-width="1.8" points="86.07,301.08 92.15,300.88 98.55,300.66 104.31,300.47 109.42,300.29 113.90,300.11 118.38,299.89 121.90,299.68 125.10,299.44 128.62,299.12 131.49,298.78 132.77,298.61 134.37,298.37 136.29,298.06 139.17,297.48 140.13,297.29 142.05,296.78 143.97,296.27 144.93,295.94 146.85,295.28 147.49,295.06 147.81,294.94 149.09,294.38 150.05,293.95 151.65,293.23 152.61,292.68 153.57,292.13 155.16,291.22 155.48,291.03 156.76,290.12 158.04,289.20 158.68,288.74 159.32,288.28 159.96,287.73 160.92,286.91 163.16,284.98 164.12,284.06 165.72,282.51 167.00,281.27 168.28,279.95 170.52,277.63 173.08,274.91 176.60,271.11 183.95,263.09 190.67,255.80 196.43,249.59 201.23,244.47 203.36,242.20 208.26,237.05 212.74,232.43 216.90,228.23 220.10,225.05 223.62,221.61 226.49,218.86 228.73,216.76 231.29,214.39 233.53,212.38 235.77,210.38 238.33,208.17 240.89,206.02 243.45,203.94 245.69,202.20 247.93,200.47 250.48,198.59 252.40,197.22 254.96,195.46 257.84,193.58 259.44,192.55 262.64,190.60 265.20,189.11 267.12,188.04 269.04,187.00 271.28,185.84 273.52,184.73 275.75,183.63 278.95,182.17 281.83,180.90 285.03,179.57 288.23,178.30 292.07,176.86 295.91,175.49 299.74,174.18 304.22,172.73 308.06,171.55 312.54,170.22 317.34,168.86 322.45,167.47 328.85,165.81 334.29,164.45 341.33,162.76 348.36,161.13 356.68,159.28 366.28,157.22 376.51,155.09 388.03,152.78 400.82,150.29 415.22,147.57 431.53,144.56 437.93,143.40"/>
<polyline fill="none" stroke="#ff7f0e" stroke-width="1.8" stroke-dasharray="5 4" points="86.07,305.57 92.15,305.21 98.55,304.74 104.31,304.22 109.42,303.69 113.90,303.14 118.38,302.52 121.90,301.96 125.10,301.39 128.62,300.69 131.49,300.03 132.77,299.71 134.37,299.30 136.29,298.77 139.17,297.87 140.13,297.54 142.05,296.85 143.97,296.08 144.93,295.68 146.85,294.81 147.49,294.50 147.81,294.34 149.09,293.67 150.05,293.17 151.65,292.22 152.61,291.65 153.57,291.01 155.16,289.93 155.48,289.71 156.76,288.74 158.04,287.78 158.68,287.24 159.32,286.70 159.96,286.17 160.92,285.35 163.16,283.32 164.12,282.41 165.72,280.88 167.00,279.61 168.28,278.33 170.52,276.05 173.08,273.41 176.60,269.73 183.95,262.03 190.67,255.06 196.43,249.17 201.23,244.34 203.36,242.20 208.26,237.37 212.74,233.05 216.90,229.11 220.10,226.15 223.62,222.93 226.49,220.36 228.73,218.39 231.29,216.18 233.53,214.27 235.77,212.41 238.33,210.30 240.89,208.26 243.45,206.28 245.69,204.60 247.93,202.94 250.48,201.14 252.40,199.81 254.96,198.12 257.84,196.30 259.44,195.33 262.64,193.46 265.20,192.05 267.12,191.02 269.04,190.04 271.28,188.93 273.52,187.86 275.75,186.83 278.95,185.44 281.83,184.23 285.03,182.95 288.23,181.74 292.07,180.34 295.91,179.01 299.74,177.74 304.22,176.31 308.06,175.14 312.54,173.82 317.34,172.47 322.45,171.07 328.85,169.39 334.29,168.02 341.33,166.29 348.36,164.62 356.68,162.72 366.28,160.59 376.51,158.38 388.03,155.97 400.82,153.36 415.22,150.49 431.53,147.32 437.93,146.09"/>
<polyline fill="none" stroke="#2ca02c" stroke-width="1.8" stroke-dasharray="2 4" points="86.07,297.82 92.15,297.49 98.55,297.15 104.31,296.83 109.42,296.55 113.90,296.32 118.38,296.10 121.90,295.94 125.10,295.79 128.62,295.62 131.49,295.47 132.77,295.39 134.37,295.29 136.29,295.14 139.17,294.86 140.13,294.75 142.05,294.49 143.97,294.17 144.93,293.98 146.85,293.57 147.49,293.40 147.81,293.31 149.09,292.95 150.05,292.65 151.65,292.08 152.61,291.69 153.57,291.29 155.16,290.53 155.48,290.35 156.76,289.65 158.04,288.86 158.68,288.44 159.32,288.01 159.96,287.57 160.92,286.81 163.16,285.04 164.12,284.19 165.72,282.75 167.00,281.52 168.28,280.27 170.52,277.98 173.08,275.29 176.60,271.50 183.95,263.45 190.67,256.07 196.43,249.76 201.23,244.52 203.36,242.20 208.26,236.91 212.74,232.17 216.90,227.85 220.10,224.59 223.62,221.07 226.49,218.25 228.73,216.11 231.29,213.71 233.53,211.66 235.77,209.66 238.33,207.43 240.89,205.27 243.45,203.17 245.69,201.38 247.93,199.64 250.48,197.70 252.40,196.29 254.96,194.46 257.84,192.46 259.44,191.38 262.64,189.28 265.20,187.67 267.12,186.50 269.04,185.35 271.28,184.06 273.52,182.79 275.75,181.58 278.95,179.91 281.83,178.48 285.03,176.96 288.23,175.51 292.07,173.87 295.91,172.32 299.74,170.85 304.22,169.23 308.06,167.92 312.54,166.46 317.34,164.98 322.45,163.48 328.85,161.70 334.29,160.27 341.33,158.50 348.36,156.81 356.68,154.91 366.28,152.81 376.51,150.67 388.03,148.36 400.82,145.89 415.22,143.21 431.53,140.27 437.93,139.14"/>
<polyline fill="none" stroke="#1f77b4" stroke-width="1.1" stroke-dasharray="6 4" points="72.00,84.47 76.81,87.52 81.62,90.57 86.43,93.62 91.24,96.67 96.05,99.73 100.86,102.78 105.67,105.83 110.48,108.88 115.29,111.93 120.10,114.98 124.91,118.03 129.72,121.09 134.53,124.14 139.34,127.19 144.15,130.24 148.96,133.29 153.77,136.34 158.58,139.39 163.39,142.45 168.20,145.50 173.01,148.55 177.82,151.60 182.63,154.65 187.44,157.70 192.25,160.75 197.06,163.81 201.87,166.86 206.68,169.91 211.49,172.96 216.30,176.01 221.11,179.06 225.92,182.11 230.73,185.17 235.54,188.22 240.35,191.27 245.16,194.32 249.97,197.37 254.78,200.42 259.59,203.47 264.41,206.53 269.22,209.58 274.03,212.63 278.84,215.68 283.65,218.73 288.46,221.78 293.27,224.83 298.08,227.89 302.89,230.94 307.70,233.99 312.51,237.04 317.32,240.09 322.13,243.14 326.94,246.19 331.75,249.25 336.56,252.30 341.37,255.35 346.18,258.40 350.99,261.45 355.80,264.50 360.61,267.55 365.42,270.61 370.23,273.66 375.04,276.71 379.85,279.76 384.66,282.81 389.47,285.86 394.28,288.91 399.09,291.97 403.90,295.02 408.71,298.07 413.52,301.12 418.33,304.17 423.14,307.22 427.95,310.27 432.76,313.33 437.57,316.38 442.38,319.43 447.19,322.48 452.00,325.53"/>
<circle cx="251.15" cy="198.12" r="4.6" fill="#ffffff" stroke="#1f77b4" stroke-width="2"/>
<text x="257.15" y="192.12" font-family="Arial, sans-serif" font-size="10" fill="#1f77b4">typ 34.4 ohm</text>
<polyline fill="none" stroke="#ff7f0e" stroke-width="1.1" stroke-dasharray="6 4" points="72.00,88.19 76.81,91.24 81.62,94.29 86.43,97.34 91.24,100.40 96.05,103.45 100.86,106.50 105.67,109.55 110.48,112.60 115.29,115.65 120.10,118.70 124.91,121.75 129.72,124.81 134.53,127.86 139.34,130.91 144.15,133.96 148.96,137.01 153.77,140.06 158.58,143.11 163.39,146.17 168.20,149.22 173.01,152.27 177.82,155.32 182.63,158.37 187.44,161.42 192.25,164.47 197.06,167.53 201.87,170.58 206.68,173.63 211.49,176.68 216.30,179.73 221.11,182.78 225.92,185.83 230.73,188.89 235.54,191.94 240.35,194.99 245.16,198.04 249.97,201.09 254.78,204.14 259.59,207.19 264.41,210.25 269.22,213.30 274.03,216.35 278.84,219.40 283.65,222.45 288.46,225.50 293.27,228.55 298.08,231.61 302.89,234.66 307.70,237.71 312.51,240.76 317.32,243.81 322.13,246.86 326.94,249.91 331.75,252.97 336.56,256.02 341.37,259.07 346.18,262.12 350.99,265.17 355.80,268.22 360.61,271.27 365.42,274.33 370.23,277.38 375.04,280.43 379.85,283.48 384.66,286.53 389.47,289.58 394.28,292.63 399.09,295.69 403.90,298.74 408.71,301.79 413.52,304.84 418.33,307.89 423.14,310.94 427.95,313.99 432.76,317.05 437.57,320.10 442.38,323.15 447.19,326.20 452.00,329.25"/>
<circle cx="250.28" cy="201.29" r="4.6" fill="#ffffff" stroke="#ff7f0e" stroke-width="2"/>
<text x="256.28" y="195.29" font-family="Arial, sans-serif" font-size="10" fill="#ff7f0e">min 36.4 ohm</text>
<polyline fill="none" stroke="#2ca02c" stroke-width="1.1" stroke-dasharray="6 4" points="72.00,80.75 76.81,83.80 81.62,86.85 86.43,89.90 91.24,92.95 96.05,96.01 100.86,99.06 105.67,102.11 110.48,105.16 115.29,108.21 120.10,111.26 124.91,114.31 129.72,117.37 134.53,120.42 139.34,123.47 144.15,126.52 148.96,129.57 153.77,132.62 158.58,135.67 163.39,138.73 168.20,141.78 173.01,144.83 177.82,147.88 182.63,150.93 187.44,153.98 192.25,157.03 197.06,160.09 201.87,163.14 206.68,166.19 211.49,169.24 216.30,172.29 221.11,175.34 225.92,178.39 230.73,181.45 235.54,184.50 240.35,187.55 245.16,190.60 249.97,193.65 254.78,196.70 259.59,199.75 264.41,202.81 269.22,205.86 274.03,208.91 278.84,211.96 283.65,215.01 288.46,218.06 293.27,221.11 298.08,224.17 302.89,227.22 307.70,230.27 312.51,233.32 317.32,236.37 322.13,239.42 326.94,242.47 331.75,245.53 336.56,248.58 341.37,251.63 346.18,254.68 350.99,257.73 355.80,260.78 360.61,263.83 365.42,266.89 370.23,269.94 375.04,272.99 379.85,276.04 384.66,279.09 389.47,282.14 394.28,285.19 399.09,288.25 403.90,291.30 408.71,294.35 413.52,297.40 418.33,300.45 423.14,303.50 427.95,306.55 432.76,309.60 437.57,312.66 442.38,315.71 447.19,318.76 452.00,321.81"/>
<circle cx="253.22" cy="195.71" r="4.6" fill="#ffffff" stroke="#2ca02c" stroke-width="2"/>
<text x="259.22" y="189.71" font-family="Arial, sans-serif" font-size="10" fill="#2ca02c">max 34 ohm</text>
<line x1="82.00" y1="80.00" x2="104.00" y2="80.00" stroke="#1f77b4" stroke-width="2"/>
<text x="110.00" y="84.00" font-family="Arial, sans-serif" font-size="11">typ</text>
<line x1="82.00" y1="97.00" x2="104.00" y2="97.00" stroke="#ff7f0e" stroke-width="2" stroke-dasharray="5 4"/>
<text x="110.00" y="101.00" font-family="Arial, sans-serif" font-size="11">min</text>
<line x1="82.00" y1="114.00" x2="104.00" y2="114.00" stroke="#2ca02c" stroke-width="2" stroke-dasharray="2 4"/>
<text x="110.00" y="118.00" font-family="Arial, sans-serif" font-size="11">max</text>
<text x="262.00" y="386.00" text-anchor="middle" font-family="Arial, sans-serif" font-size="11">Output voltage (V)</text>
<text transform="translate(22.00 205.00) rotate(-90)" text-anchor="middle" font-family="Arial, sans-serif" font-size="11">Current (mA)</text>
<rect x="492.00" y="62.00" width="380.00" height="286.00" fill="#fbfbfb" stroke="#c8c8c8"/>
<text x="500.00" y="50.00" font-family="Arial, sans-serif" font-size="13" font-weight="700">[Pullup] Rload to GND</text>
<line x1="492.00" y1="62.00" x2="492.00" y2="348.00" stroke="#ececec"/>
<text x="492.00" y="366.00" text-anchor="middle" font-family="Arial, sans-serif" font-size="10">-1.2</text>
<line x1="587.00" y1="62.00" x2="587.00" y2="348.00" stroke="#ececec"/>
<text x="587.00" y="366.00" text-anchor="middle" font-family="Arial, sans-serif" font-size="10">-0.341</text>
<line x1="682.00" y1="62.00" x2="682.00" y2="348.00" stroke="#ececec"/>
<text x="682.00" y="366.00" text-anchor="middle" font-family="Arial, sans-serif" font-size="10">0.55</text>
<line x1="777.00" y1="62.00" x2="777.00" y2="348.00" stroke="#ececec"/>
<text x="777.00" y="366.00" text-anchor="middle" font-family="Arial, sans-serif" font-size="10">1.4</text>
<line x1="872.00" y1="62.00" x2="872.00" y2="348.00" stroke="#ececec"/>
<text x="872.00" y="366.00" text-anchor="middle" font-family="Arial, sans-serif" font-size="10">2.3</text>
<line x1="492.00" y1="348.00" x2="872.00" y2="348.00" stroke="#ececec"/>
<text x="485.00" y="352.00" text-anchor="end" font-family="Arial, sans-serif" font-size="10">-53</text>
<line x1="492.00" y1="276.50" x2="872.00" y2="276.50" stroke="#ececec"/>
<text x="485.00" y="280.50" text-anchor="end" font-family="Arial, sans-serif" font-size="10">-32</text>
<line x1="492.00" y1="205.00" x2="872.00" y2="205.00" stroke="#ececec"/>
<text x="485.00" y="209.00" text-anchor="end" font-family="Arial, sans-serif" font-size="10">-11</text>
<line x1="492.00" y1="133.50" x2="872.00" y2="133.50" stroke="#ececec"/>
<text x="485.00" y="137.50" text-anchor="end" font-family="Arial, sans-serif" font-size="10">10</text>
<line x1="492.00" y1="62.00" x2="872.00" y2="62.00" stroke="#ececec"/>
<text x="485.00" y="66.00" text-anchor="end" font-family="Arial, sans-serif" font-size="10">31</text>
<line x1="623.36" y1="62" x2="623.36" y2="348" stroke="#777" stroke-dasharray="4 4"/>
<line x1="492.0" y1="167.80" x2="872.0" y2="167.80" stroke="#777" stroke-dasharray="4 4"/>
<polyline fill="none" stroke="#1f77b4" stroke-width="1.8" points="506.07,129.58 513.11,130.12 522.39,130.80 529.42,131.33 536.46,131.89 542.22,132.38 547.02,132.83 551.18,133.24 554.37,133.59 556.93,133.89 559.49,134.22 561.41,134.49 563.97,134.88 565.25,135.11 567.49,135.51 568.45,135.72 570.05,136.08 571.65,136.45 572.61,136.73 573.89,137.09 575.16,137.47 575.48,137.56 576.76,138.04 578.04,138.52 578.68,138.75 579.32,138.99 579.96,139.29 580.92,139.74 583.16,140.78 583.48,140.96 585.72,142.22 586.36,142.57 587.00,142.93 587.96,143.53 588.92,144.14 590.20,144.95 591.80,146.01 593.08,146.88 595.00,148.19 599.15,151.11 606.51,156.29 611.31,159.64 615.79,162.71 619.63,165.30 623.36,167.80 628.26,171.02 632.74,173.92 637.22,176.77 641.38,179.37 645.22,181.73 648.09,183.45 651.29,185.35 653.53,186.64 656.09,188.10 658.65,189.52 661.85,191.26 664.09,192.44 667.61,194.25 670.80,195.84 673.04,196.92 675.92,198.26 678.80,199.58 682.32,201.12 684.88,202.22 687.44,203.27 690.32,204.43 693.52,205.65 696.07,206.61 699.59,207.87 703.11,209.08 706.63,210.23 710.15,211.34 713.67,212.40 717.19,213.41 720.70,214.40 724.86,215.51 728.06,216.34 732.22,217.38 736.70,218.46 741.49,219.58 745.97,220.59 750.45,221.58 756.21,222.81 761.97,224.00 768.36,225.29 776.04,226.80 784.36,228.39 793.95,230.18 804.51,232.11 816.34,234.22 830.10,236.63 846.41,239.45 857.93,241.43"/>
<polyline fill="none" stroke="#ff7f0e" stroke-width="1.8" stroke-dasharray="5 4" points="506.07,128.52 513.11,128.94 522.39,129.67 529.42,130.29 536.46,130.97 542.22,131.57 547.02,132.12 551.18,132.65 554.37,133.10 556.93,133.49 559.49,133.92 561.41,134.27 563.97,134.78 565.25,135.06 567.49,135.58 568.45,135.84 570.05,136.26 571.65,136.74 572.61,137.03 573.89,137.47 575.16,137.91 575.48,138.02 576.76,138.53 578.04,139.03 578.68,139.31 579.32,139.60 579.96,139.89 580.92,140.33 583.16,141.47 583.48,141.63 585.72,142.88 586.36,143.25 587.00,143.64 587.96,144.22 588.92,144.80 590.20,145.62 591.80,146.66 593.08,147.51 595.00,148.80 599.15,151.64 606.51,156.69 611.31,159.93 615.79,162.91 619.63,165.41 623.36,167.80 628.26,170.88 632.74,173.63 637.22,176.34 641.38,178.80 645.22,181.02 648.09,182.65 651.29,184.43 653.53,185.65 656.09,187.02 658.65,188.36 661.85,189.98 664.09,191.09 667.61,192.77 670.80,194.23 673.04,195.23 675.92,196.45 678.80,197.64 682.32,199.02 684.88,199.97 687.44,200.91 690.32,201.91 693.52,202.98 696.07,203.80 699.59,204.88 703.11,205.91 706.63,206.89 710.15,207.84 713.67,208.75 717.19,209.63 720.70,210.48 724.86,211.44 728.06,212.16 732.22,213.08 736.70,214.03 741.49,215.02 745.97,215.92 750.45,216.80 756.21,217.91 761.97,218.99 768.36,220.16 776.04,221.54 784.36,223.01 793.95,224.66 804.51,226.45 816.34,228.42 830.10,230.69 846.41,233.34 857.93,235.20"/>
<polyline fill="none" stroke="#2ca02c" stroke-width="1.8" stroke-dasharray="2 4" points="506.07,129.76 513.11,130.25 522.39,130.91 529.42,131.43 536.46,132.01 542.22,132.52 547.02,132.98 551.18,133.40 554.37,133.75 556.93,134.04 559.49,134.35 561.41,134.60 563.97,134.95 565.25,135.15 567.49,135.52 568.45,135.68 570.05,135.99 571.65,136.33 572.61,136.55 573.89,136.87 575.16,137.21 575.48,137.31 576.76,137.70 578.04,138.13 578.68,138.36 579.32,138.60 579.96,138.85 580.92,139.27 583.16,140.28 583.48,140.44 585.72,141.63 586.36,142.01 587.00,142.38 587.96,142.95 588.92,143.56 590.20,144.38 591.80,145.46 593.08,146.33 595.00,147.68 599.15,150.65 606.51,155.95 611.31,159.37 615.79,162.54 619.63,165.22 623.36,167.80 628.26,171.15 632.74,174.16 637.22,177.14 641.38,179.86 645.22,182.33 648.09,184.15 651.29,186.13 653.53,187.49 656.09,189.02 658.65,190.51 661.85,192.34 664.09,193.59 667.61,195.51 670.80,197.21 673.04,198.37 675.92,199.84 678.80,201.27 682.32,202.98 684.88,204.20 687.44,205.39 690.32,206.68 693.52,208.10 696.07,209.20 699.59,210.66 703.11,212.07 706.63,213.42 710.15,214.73 713.67,215.97 717.19,217.17 720.70,218.33 724.86,219.64 728.06,220.60 732.22,221.82 736.70,223.07 741.49,224.35 745.97,225.50 750.45,226.62 756.21,228.00 761.97,229.33 768.36,230.76 776.04,232.42 784.36,234.16 793.95,236.10 804.51,238.17 816.34,240.43 830.10,242.99 846.41,245.96 857.93,248.03"/>
<polyline fill="none" stroke="#1f77b4" stroke-width="1.1" stroke-dasharray="6 4" points="492.00,325.53 496.81,322.48 501.62,319.43 506.43,316.38 511.24,313.33 516.05,310.27 520.86,307.22 525.67,304.17 530.48,301.12 535.29,298.07 540.10,295.02 544.91,291.97 549.72,288.91 554.53,285.86 559.34,282.81 564.15,279.76 568.96,276.71 573.77,273.66 578.58,270.61 583.39,267.55 588.20,264.50 593.01,261.45 597.82,258.40 602.63,255.35 607.44,252.30 612.25,249.25 617.06,246.19 621.87,243.14 626.68,240.09 631.49,237.04 636.30,233.99 641.11,230.94 645.92,227.89 650.73,224.83 655.54,221.78 660.35,218.73 665.16,215.68 669.97,212.63 674.78,209.58 679.59,206.53 684.41,203.47 689.22,200.42 694.03,197.37 698.84,194.32 703.65,191.27 708.46,188.22 713.27,185.17 718.08,182.11 722.89,179.06 727.70,176.01 732.51,172.96 737.32,169.91 742.13,166.86 746.94,163.81 751.75,160.75 756.56,157.70 761.37,154.65 766.18,151.60 770.99,148.55 775.80,145.50 780.61,142.45 785.42,139.39 790.23,136.34 795.04,133.29 799.85,130.24 804.66,127.19 809.47,124.14 814.28,121.09 819.09,118.03 823.90,114.98 828.71,111.93 833.52,108.88 838.33,105.83 843.14,102.78 847.95,99.73 852.76,96.67 857.57,93.62 862.38,90.57 867.19,87.52 872.00,84.47"/>
<circle cx="685.79" cy="202.59" r="4.6" fill="#ffffff" stroke="#1f77b4" stroke-width="2"/>
<text x="691.79" y="196.59" font-family="Arial, sans-serif" font-size="10" fill="#1f77b4">typ 56.9 ohm</text>
<polyline fill="none" stroke="#ff7f0e" stroke-width="1.1" stroke-dasharray="6 4" points="492.00,321.81 496.81,318.76 501.62,315.71 506.43,312.66 511.24,309.60 516.05,306.55 520.86,303.50 525.67,300.45 530.48,297.40 535.29,294.35 540.10,291.30 544.91,288.25 549.72,285.19 554.53,282.14 559.34,279.09 564.15,276.04 568.96,272.99 573.77,269.94 578.58,266.89 583.39,263.83 588.20,260.78 593.01,257.73 597.82,254.68 602.63,251.63 607.44,248.58 612.25,245.53 617.06,242.47 621.87,239.42 626.68,236.37 631.49,233.32 636.30,230.27 641.11,227.22 645.92,224.17 650.73,221.11 655.54,218.06 660.35,215.01 665.16,211.96 669.97,208.91 674.78,205.86 679.59,202.81 684.41,199.75 689.22,196.70 694.03,193.65 698.84,190.60 703.65,187.55 708.46,184.50 713.27,181.45 718.08,178.39 722.89,175.34 727.70,172.29 732.51,169.24 737.32,166.19 742.13,163.14 746.94,160.09 751.75,157.03 756.56,153.98 761.37,150.93 766.18,147.88 770.99,144.83 775.80,141.78 780.61,138.73 785.42,135.67 790.23,132.62 795.04,129.57 799.85,126.52 804.66,123.47 809.47,120.42 814.28,117.37 819.09,114.31 823.90,111.26 828.71,108.21 833.52,105.16 838.33,102.11 843.14,99.06 847.95,96.01 852.76,92.95 857.57,89.90 862.38,86.85 867.19,83.80 872.00,80.75"/>
<circle cx="684.36" cy="199.78" r="4.6" fill="#ffffff" stroke="#ff7f0e" stroke-width="2"/>
<text x="690.36" y="193.78" font-family="Arial, sans-serif" font-size="10" fill="#ff7f0e">min 60.5 ohm</text>
<polyline fill="none" stroke="#2ca02c" stroke-width="1.1" stroke-dasharray="6 4" points="492.00,329.25 496.81,326.20 501.62,323.15 506.43,320.10 511.24,317.05 516.05,313.99 520.86,310.94 525.67,307.89 530.48,304.84 535.29,301.79 540.10,298.74 544.91,295.69 549.72,292.63 554.53,289.58 559.34,286.53 564.15,283.48 568.96,280.43 573.77,277.38 578.58,274.33 583.39,271.27 588.20,268.22 593.01,265.17 597.82,262.12 602.63,259.07 607.44,256.02 612.25,252.97 617.06,249.91 621.87,246.86 626.68,243.81 631.49,240.76 636.30,237.71 641.11,234.66 645.92,231.61 650.73,228.55 655.54,225.50 660.35,222.45 665.16,219.40 669.97,216.35 674.78,213.30 679.59,210.25 684.41,207.19 689.22,204.14 694.03,201.09 698.84,198.04 703.65,194.99 708.46,191.94 713.27,188.89 718.08,185.83 722.89,182.78 727.70,179.73 732.51,176.68 737.32,173.63 742.13,170.58 746.94,167.53 751.75,164.47 756.56,161.42 761.37,158.37 766.18,155.32 770.99,152.27 775.80,149.22 780.61,146.17 785.42,143.11 790.23,140.06 795.04,137.01 799.85,133.96 804.66,130.91 809.47,127.86 814.28,124.81 819.09,121.75 823.90,118.70 828.71,115.65 833.52,112.60 838.33,109.55 843.14,106.50 847.95,103.45 852.76,100.40 857.57,97.34 862.38,94.29 867.19,91.24 872.00,88.19"/>
<circle cx="687.33" cy="205.34" r="4.6" fill="#ffffff" stroke="#2ca02c" stroke-width="2"/>
<text x="693.33" y="199.34" font-family="Arial, sans-serif" font-size="10" fill="#2ca02c">max 54.1 ohm</text>
<line x1="502.00" y1="80.00" x2="524.00" y2="80.00" stroke="#1f77b4" stroke-width="2"/>
<text x="530.00" y="84.00" font-family="Arial, sans-serif" font-size="11">typ</text>
<line x1="502.00" y1="97.00" x2="524.00" y2="97.00" stroke="#ff7f0e" stroke-width="2" stroke-dasharray="5 4"/>
<text x="530.00" y="101.00" font-family="Arial, sans-serif" font-size="11">min</text>
<line x1="502.00" y1="114.00" x2="524.00" y2="114.00" stroke="#2ca02c" stroke-width="2" stroke-dasharray="2 4"/>
<text x="530.00" y="118.00" font-family="Arial, sans-serif" font-size="11">max</text>
<text x="682.00" y="386.00" text-anchor="middle" font-family="Arial, sans-serif" font-size="11">Vcc-relative table voltage (V)</text>
<text transform="translate(442.00 205.00) rotate(-90)" text-anchor="middle" font-family="Arial, sans-serif" font-size="11">Current (mA)</text>
<rect x="72.00" y="418.00" width="800.00" height="144.00" fill="#ffffff" stroke="#c8c8c8"/>
<text x="82.00" y="436.00" font-family="Arial, sans-serif" font-size="12" font-weight="700">Operating-point summary</text>
<text x="82.00" y="454.00" font-family="Arial, sans-serif" font-size="10" font-weight="700" fill="#333">Table</text>
<text x="174.00" y="454.00" font-family="Arial, sans-serif" font-size="10" font-weight="700" fill="#333">Corner</text>
<text x="242.00" y="454.00" font-family="Arial, sans-serif" font-size="10" font-weight="700" fill="#333">Vout</text>
<text x="332.00" y="454.00" font-family="Arial, sans-serif" font-size="10" font-weight="700" fill="#333">Iop</text>
<text x="422.00" y="454.00" font-family="Arial, sans-serif" font-size="10" font-weight="700" fill="#333">Zout</text>
<text x="512.00" y="454.00" font-family="Arial, sans-serif" font-size="10" font-weight="700" fill="#333">Rseries</text>
<text x="82.00" y="473.00" font-family="Arial, sans-serif" font-size="10" fill="#1f77b4">pulldown</text>
<text x="174.00" y="473.00" font-family="Arial, sans-serif" font-size="10" fill="#1f77b4">typ</text>
<text x="242.00" y="473.00" font-family="Arial, sans-serif" font-size="10" fill="#1f77b4">0.4482 V</text>
<text x="332.00" y="473.00" font-family="Arial, sans-serif" font-size="10" fill="#1f77b4">13 mA</text>
<text x="422.00" y="473.00" font-family="Arial, sans-serif" font-size="10" fill="#1f77b4">34.4 ohm</text>
<text x="512.00" y="473.00" font-family="Arial, sans-serif" font-size="10" fill="#1f77b4">15.6 ohm</text>
<text x="82.00" y="492.00" font-family="Arial, sans-serif" font-size="10" fill="#ff7f0e">pulldown</text>
<text x="174.00" y="492.00" font-family="Arial, sans-serif" font-size="10" fill="#ff7f0e">min</text>
<text x="242.00" y="492.00" font-family="Arial, sans-serif" font-size="10" fill="#ff7f0e">0.4401 V</text>
<text x="332.00" y="492.00" font-family="Arial, sans-serif" font-size="10" fill="#ff7f0e">12 mA</text>
<text x="422.00" y="492.00" font-family="Arial, sans-serif" font-size="10" fill="#ff7f0e">36.4 ohm</text>
<text x="512.00" y="492.00" font-family="Arial, sans-serif" font-size="10" fill="#ff7f0e">13.6 ohm</text>
<text x="82.00" y="511.00" font-family="Arial, sans-serif" font-size="10" fill="#2ca02c">pulldown</text>
<text x="174.00" y="511.00" font-family="Arial, sans-serif" font-size="10" fill="#2ca02c">max</text>
<text x="242.00" y="511.00" font-family="Arial, sans-serif" font-size="10" fill="#2ca02c">0.4676 V</text>
<text x="332.00" y="511.00" font-family="Arial, sans-serif" font-size="10" fill="#2ca02c">14 mA</text>
<text x="422.00" y="511.00" font-family="Arial, sans-serif" font-size="10" fill="#2ca02c">34 ohm</text>
<text x="512.00" y="511.00" font-family="Arial, sans-serif" font-size="10" fill="#2ca02c">16 ohm</text>
<text x="82.00" y="530.00" font-family="Arial, sans-serif" font-size="10" fill="#1f77b4">pullup</text>
<text x="174.00" y="530.00" font-family="Arial, sans-serif" font-size="10" fill="#1f77b4">typ</text>
<text x="242.00" y="530.00" font-family="Arial, sans-serif" font-size="10" fill="#1f77b4">0.5144 V</text>
<text x="332.00" y="530.00" font-family="Arial, sans-serif" font-size="10" fill="#1f77b4">-10 mA</text>
<text x="422.00" y="530.00" font-family="Arial, sans-serif" font-size="10" fill="#1f77b4">56.9 ohm</text>
<text x="512.00" y="530.00" font-family="Arial, sans-serif" font-size="10" fill="#1f77b4">-6.916 ohm</text>
<text x="82.00" y="549.00" font-family="Arial, sans-serif" font-size="10" fill="#ff7f0e">pullup</text>
<text x="174.00" y="549.00" font-family="Arial, sans-serif" font-size="10" fill="#ff7f0e">min</text>
<text x="242.00" y="549.00" font-family="Arial, sans-serif" font-size="10" fill="#ff7f0e">0.4728 V</text>
<text x="332.00" y="549.00" font-family="Arial, sans-serif" font-size="10" fill="#ff7f0e">-9.5 mA</text>
<text x="422.00" y="549.00" font-family="Arial, sans-serif" font-size="10" fill="#ff7f0e">60.5 ohm</text>
<text x="512.00" y="549.00" font-family="Arial, sans-serif" font-size="10" fill="#ff7f0e">-10.5 ohm</text>
<text x="82.00" y="568.00" font-family="Arial, sans-serif" font-size="10" fill="#2ca02c">pullup</text>
<text x="174.00" y="568.00" font-family="Arial, sans-serif" font-size="10" fill="#2ca02c">max</text>
<text x="242.00" y="568.00" font-family="Arial, sans-serif" font-size="10" fill="#2ca02c">0.555 V</text>
<text x="332.00" y="568.00" font-family="Arial, sans-serif" font-size="10" fill="#2ca02c">-11 mA</text>
<text x="422.00" y="568.00" font-family="Arial, sans-serif" font-size="10" fill="#2ca02c">54.1 ohm</text>
<text x="512.00" y="568.00" font-family="Arial, sans-serif" font-size="10" fill="#2ca02c">-4.057 ohm</text>
</svg>