<svg xmlns="http://www.w3.org/2000/svg" width="800" height="560" viewBox="0 0 800 560">
<rect width="100%" height="100%" fill="#ffffff"/>
<text x="78" y="25" font-family="Arial, sans-serif" font-size="16" font-weight="700">CLKIN I-V Clamp Sweep Range</text>
<rect x="78" y="52" width="694" height="348" fill="#fbfbfb" stroke="#c8c8c8"/>
<line x1="78.00" y1="52" x2="78.00" y2="400" stroke="#ececec"/>
<text x="78.00" y="422" text-anchor="middle" font-family="Arial, sans-serif" font-size="11">-1.4</text>
<line x1="216.80" y1="52" x2="216.80" y2="400" stroke="#ececec"/>
<text x="216.80" y="422" text-anchor="middle" font-family="Arial, sans-serif" font-size="11">-0.588</text>
<line x1="355.60" y1="52" x2="355.60" y2="400" stroke="#ececec"/>
<text x="355.60" y="422" text-anchor="middle" font-family="Arial, sans-serif" font-size="11">0.204</text>
<line x1="494.40" y1="52" x2="494.40" y2="400" stroke="#ececec"/>
<text x="494.40" y="422" text-anchor="middle" font-family="Arial, sans-serif" font-size="11">0.996</text>
<line x1="633.20" y1="52" x2="633.20" y2="400" stroke="#ececec"/>
<text x="633.20" y="422" text-anchor="middle" font-family="Arial, sans-serif" font-size="11">1.8</text>
<line x1="772.00" y1="52" x2="772.00" y2="400" stroke="#ececec"/>
<text x="772.00" y="422" text-anchor="middle" font-family="Arial, sans-serif" font-size="11">2.6</text>
<line x1="78" y1="400.00" x2="772" y2="400.00" stroke="#ececec"/>
<text x="70" y="404.00" text-anchor="end" font-family="Arial, sans-serif" font-size="11">-0.125</text>
<line x1="78" y1="330.40" x2="772" y2="330.40" stroke="#ececec"/>
<text x="70" y="334.40" text-anchor="end" font-family="Arial, sans-serif" font-size="11">-0.0601</text>
<line x1="78" y1="260.80" x2="772" y2="260.80" stroke="#ececec"/>
<text x="70" y="264.80" text-anchor="end" font-family="Arial, sans-serif" font-size="11">0.00445</text>
<line x1="78" y1="191.20" x2="772" y2="191.20" stroke="#ececec"/>
<text x="70" y="195.20" text-anchor="end" font-family="Arial, sans-serif" font-size="11">0.069</text>
<line x1="78" y1="121.60" x2="772" y2="121.60" stroke="#ececec"/>
<text x="70" y="125.60" text-anchor="end" font-family="Arial, sans-serif" font-size="11">0.134</text>
<line x1="78" y1="52.00" x2="772" y2="52.00" stroke="#ececec"/>
<text x="70" y="56.00" text-anchor="end" font-family="Arial, sans-serif" font-size="11">0.198</text>
<line x1="319.85" y1="52" x2="319.85" y2="400" stroke="#777" stroke-dasharray="4 4"/>
<line x1="78" y1="265.60" x2="772" y2="265.60" stroke="#777" stroke-dasharray="4 4"/>
<line x1="109.55" y1="52" x2="109.55" y2="400" stroke="#555" stroke-dasharray="2 4"/>
<text x="113.55" y="66" font-family="Arial, sans-serif" font-size="11" fill="#555">-Vcc</text>
<line x1="530.15" y1="52" x2="530.15" y2="400" stroke="#555" stroke-dasharray="2 4"/>
<text x="534.15" y="66" font-family="Arial, sans-serif" font-size="11" fill="#555">Vcc</text>
<line x1="740.45" y1="52" x2="740.45" y2="400" stroke="#555" stroke-dasharray="2 4"/>
<text x="744.45" y="66" font-family="Arial, sans-serif" font-size="11" fill="#555">2Vcc</text>
<polyline fill="none" stroke="#2ca02c" stroke-width="1.2" opacity="0.55" stroke-dasharray="4 4" points="109.55,357.48 110.42,355.57 111.30,353.67 112.17,351.79 113.05,349.91 113.93,348.04 114.80,346.17 115.68,344.31 116.56,342.46 117.43,340.62 118.31,338.79 119.18,336.97 120.06,335.16 120.94,333.34 121.81,331.53 122.69,329.76 123.57,327.98 124.44,326.21 125.32,324.43 126.19,322.71 127.07,321.03 127.95,319.34 128.82,317.65 129.70,315.96 130.58,314.28 131.45,312.59 132.33,310.90 133.20,309.21 134.08,307.59 134.96,306.04 135.83,304.50 136.71,302.95 137.59,301.40 138.46,299.85 139.34,298.30 140.21,296.80 141.09,295.42 141.97,294.04 142.84,292.66 144.60,289.89 145.47,288.51 146.35,287.29 148.10,284.90 148.98,283.71 149.85,282.52 150.73,281.43 151.61,280.44 152.48,279.46 153.36,278.47 154.23,277.48 155.11,276.64 155.99,275.86 156.86,275.09 157.74,274.31 158.62,273.60 159.49,273.02 161.24,271.86 162.12,271.29 163.87,270.49 164.75,270.08 165.63,269.68 166.50,269.38 168.26,268.86 169.13,268.59 170.01,268.37 170.88,268.21 172.64,267.87 173.51,267.72 175.27,267.51 177.02,267.30 177.89,267.23 179.65,267.09 180.52,267.03 181.40,266.97 184.90,266.79 188.41,266.66 192.79,266.53 197.17,266.42 201.55,266.33 206.81,266.22 212.94,266.11 218.20,266.02 219.95,265.99 224.34,265.92 229.59,265.85 232.22,265.81 236.60,265.77 239.23,265.74 244.49,265.69 247.99,265.67 252.38,265.65 255.01,265.63 260.26,265.62 266.40,265.61 275.16,265.60 319.85,265.60 740.45,265.60"/>
<polyline fill="none" stroke="#2ca02c" stroke-width="1.2" opacity="0.55" stroke-dasharray="4 4" points="109.55,376.00 110.42,372.43 111.30,368.89 112.17,365.37 113.05,361.90 113.93,358.43 114.80,354.97 115.68,351.57 116.56,348.17 117.43,344.81 118.31,341.49 119.18,338.19 120.06,334.94 120.94,331.71 121.81,328.54 122.69,325.40 123.57,322.32 124.44,319.28 125.32,316.29 126.19,313.37 127.07,310.50 127.95,307.69 128.82,304.97 129.70,302.30 130.58,299.72 131.45,297.22 132.33,294.81 133.20,292.50 134.08,290.29 134.96,288.19 135.83,286.20 136.71,284.35 137.59,282.61 138.46,280.98 139.34,279.47 140.21,278.18 141.09,277.00 141.97,275.83 142.84,274.68 144.60,273.14 145.47,272.38 146.35,271.73 148.10,270.77 148.98,270.36 149.85,270.05 150.73,269.74 151.61,269.51 152.48,269.30 153.36,269.13 154.23,268.97 155.11,268.85 155.99,268.73 156.86,268.63 157.74,268.54 158.62,268.47 159.49,268.40 161.24,268.28 162.12,268.23 163.87,268.13 164.75,268.09 165.63,268.05 166.50,268.01 168.26,267.93 169.13,267.90 170.01,267.86 170.88,267.83 172.64,267.76 173.51,267.73 175.27,267.66 177.02,267.60 177.89,267.57 179.65,267.50 180.52,267.47 181.40,267.44 184.90,267.32 188.41,267.20 192.79,267.06 197.17,266.92 201.55,266.78 206.81,266.63 212.94,266.46 218.20,266.31 219.95,266.26 224.34,266.16 229.59,266.04 232.22,265.98 236.60,265.90 239.23,265.86 244.49,265.76 247.99,265.73 252.38,265.68 255.01,265.65 260.26,265.63 266.40,265.61 275.16,265.60 319.85,265.60 740.45,265.60"/>
<polyline fill="none" stroke="#2ca02c" stroke-width="2.0" opacity="1.0" points="109.55,361.46 110.42,358.97 111.30,356.52 112.17,354.08 113.05,351.65 113.93,349.23 114.80,346.82 115.68,344.42 116.56,342.05 117.43,339.67 118.31,337.35 119.18,335.02 120.06,332.70 120.94,330.37 121.81,328.10 122.69,325.86 123.57,323.61 124.44,321.37 125.32,319.14 126.19,317.01 127.07,314.87 127.95,312.74 128.82,310.60 129.70,308.56 130.58,306.55 131.45,304.55 132.33,302.54 133.20,300.58 134.08,298.75 134.96,296.91 135.83,295.08 136.71,293.24 137.59,291.59 138.46,289.97 139.34,288.35 140.21,286.73 141.09,285.22 141.97,283.87 142.84,282.52 144.60,279.82 145.47,278.77 146.35,277.73 148.10,275.65 148.98,274.79 149.85,274.07 150.73,273.36 151.61,272.65 152.48,271.97 153.36,271.53 154.23,271.09 155.11,270.65 155.99,270.21 156.86,269.88 157.74,269.60 158.62,269.33 159.49,269.09 161.24,268.70 162.12,268.52 163.87,268.20 164.75,268.06 165.63,267.94 166.50,267.82 168.26,267.65 169.13,267.59 170.01,267.55 170.88,267.51 172.64,267.46 173.51,267.44 175.27,267.38 177.02,267.28 177.89,267.23 179.65,267.14 180.52,267.11 181.40,267.08 184.90,266.97 188.41,266.87 192.79,266.75 197.17,266.64 201.55,266.53 206.81,266.40 212.94,266.26 218.20,266.15 219.95,266.11 224.34,266.02 229.59,265.93 232.22,265.88 236.60,265.82 239.23,265.78 244.49,265.72 247.99,265.69 252.38,265.65 255.01,265.64 260.26,265.62 266.40,265.61 275.16,265.60 319.85,265.60 740.45,265.60"/>
<polyline fill="none" stroke="#9467bd" stroke-width="1.2" opacity="0.55" stroke-dasharray="4 4" points="109.55,76.11 110.42,79.40 111.30,82.66 112.17,85.92 113.05,89.16 113.93,92.41 114.80,95.64 115.68,98.87 116.56,102.08 117.43,105.29 118.31,108.47 119.18,111.65 120.94,118.00 121.81,121.17 122.69,124.29 123.57,127.42 124.44,130.55 125.32,133.67 126.19,136.74 127.07,139.78 127.95,142.81 128.82,145.85 129.70,148.88 130.58,151.92 131.45,154.95 132.33,157.99 133.20,161.02 134.08,163.99 134.96,166.88 135.83,169.77 136.71,172.66 137.59,175.55 138.46,178.44 139.34,181.34 140.21,184.18 141.09,186.91 141.97,189.63 142.84,192.36 144.60,197.81 145.47,200.54 146.35,203.11 148.10,208.19 148.98,210.73 149.85,213.27 150.73,215.71 151.61,218.04 152.48,220.37 153.36,222.70 154.23,225.04 155.11,227.21 155.99,229.31 156.86,231.41 157.74,233.51 158.62,235.51 159.49,237.35 160.37,239.19 161.24,241.02 162.12,242.84 163.00,244.38 163.87,245.91 164.75,247.45 165.63,248.99 166.50,250.28 167.38,251.49 168.26,252.70 169.13,253.91 170.01,254.98 170.88,255.87 171.76,256.76 172.64,257.65 173.51,258.50 175.27,259.72 177.02,260.94 177.89,261.37 179.65,262.16 180.52,262.56 181.40,262.88 182.28,263.12 184.03,263.61 184.90,263.84 187.53,264.27 188.41,264.42 191.04,264.69 191.91,264.77 192.79,264.84 196.30,265.03 199.80,265.16 204.18,265.26 212.07,265.37 221.71,265.45 233.97,265.50 248.87,265.55 266.40,265.58 284.80,265.59 319.85,265.60 740.45,265.60"/>
<polyline fill="none" stroke="#9467bd" stroke-width="1.2" opacity="0.55" stroke-dasharray="4 4" points="109.55,76.00 110.42,80.51 111.30,85.00 112.17,89.47 113.05,93.91 113.93,98.36 114.80,102.79 115.68,107.19 116.56,111.59 117.43,115.96 118.31,120.31 119.18,124.65 120.94,133.25 121.81,137.51 122.69,141.75 123.57,145.96 124.44,150.15 125.32,154.31 126.19,158.44 127.07,162.54 127.95,166.60 128.82,170.63 129.70,174.62 130.58,178.57 131.45,182.48 132.33,186.34 133.20,190.16 134.08,193.92 134.96,197.63 135.83,201.28 136.71,204.86 137.59,208.38 138.46,211.84 139.34,215.22 140.21,218.46 141.09,221.61 141.97,224.77 142.84,227.91 144.60,233.48 145.47,236.27 146.35,238.89 148.10,243.66 148.98,245.87 149.85,247.89 150.73,249.86 151.61,251.56 152.48,253.21 153.36,254.63 154.23,255.98 155.11,257.12 155.99,258.20 156.86,259.10 157.74,259.94 158.62,260.62 159.49,261.25 160.37,261.76 161.24,262.22 162.12,262.59 163.00,262.93 163.87,263.20 164.75,263.44 165.63,263.63 166.50,263.81 167.38,263.95 168.26,264.06 169.13,264.15 170.01,264.24 170.88,264.32 171.76,264.39 172.64,264.44 173.51,264.49 175.27,264.58 177.02,264.64 177.89,264.67 179.65,264.71 180.52,264.73 181.40,264.75 182.28,264.77 184.03,264.80 184.90,264.82 187.53,264.87 188.41,264.88 191.04,264.92 191.91,264.94 192.79,264.95 196.30,265.00 199.80,265.05 204.18,265.11 212.07,265.21 221.71,265.32 233.97,265.42 248.87,265.51 266.40,265.57 284.80,265.59 319.85,265.60 740.45,265.60"/>
<polyline fill="none" stroke="#9467bd" stroke-width="2.0" opacity="1.0" points="109.55,78.96 110.42,82.76 111.30,86.54 112.17,90.30 113.05,94.06 113.93,97.81 114.80,101.54 115.68,105.27 116.56,108.97 117.43,112.68 118.31,116.34 119.18,120.00 120.94,127.32 121.81,130.94 122.69,134.54 123.57,138.13 124.44,141.72 125.32,145.30 126.19,148.80 127.07,152.31 127.95,155.81 128.82,159.32 129.70,162.75 130.58,166.16 131.45,169.56 132.33,172.97 133.20,176.33 134.08,179.61 134.96,182.89 135.83,186.16 136.71,189.44 137.59,192.58 138.46,195.70 139.34,198.82 140.21,201.94 141.09,204.97 141.97,207.89 142.84,210.80 144.60,216.64 145.47,219.31 146.35,221.97 148.10,227.29 148.98,229.78 149.85,232.11 150.73,234.45 151.61,236.78 152.48,239.08 153.36,241.04 154.23,243.00 155.11,244.95 155.99,246.91 156.86,248.60 157.74,250.16 158.62,251.72 159.49,253.17 160.37,254.37 161.24,255.57 162.12,256.65 163.00,257.54 163.87,258.44 164.75,259.15 165.63,259.81 166.50,260.44 167.38,260.94 168.26,261.44 169.13,261.87 170.01,262.27 170.88,262.66 171.76,262.97 172.64,263.28 173.51,263.55 175.27,264.00 177.02,264.35 177.89,264.51 179.65,264.72 180.52,264.72 181.40,264.72 182.28,264.74 184.03,264.83 184.90,264.86 187.53,264.96 188.41,264.98 191.04,265.05 191.91,265.06 192.79,265.08 196.30,265.14 199.80,265.18 204.18,265.24 212.07,265.32 221.71,265.40 233.97,265.47 248.87,265.53 266.40,265.58 284.80,265.59 319.85,265.60 740.45,265.60"/>
<line x1="88" y1="70" x2="110" y2="70" stroke="#2ca02c" stroke-width="2.4"/>
<text x="116" y="74" font-family="Arial, sans-serif" font-size="12">[GND Clamp]</text>
<line x1="88" y1="88" x2="110" y2="88" stroke="#9467bd" stroke-width="2.4"/>
<text x="116" y="92" font-family="Arial, sans-serif" font-size="12">[POWER Clamp]</text>
<text x="425.00" y="444.00" text-anchor="middle" font-family="Arial, sans-serif" font-size="12">Table voltage (V)</text>
<text transform="translate(18 226.00) rotate(-90)" text-anchor="middle" font-family="Arial, sans-serif" font-size="12">Current (A)</text>
<text x="420" y="42" font-family="Arial, sans-serif" font-size="11" fill="#555">solid=typ, dashed=min/max; dashed vertical=required sweep boundary (5.3.4/5.3.5)</text>
</svg>