<svg xmlns="http://www.w3.org/2000/svg" width="800" height="560" viewBox="0 0 800 560">
<rect width="100%" height="100%" fill="#ffffff"/>
<text x="78" y="25" font-family="Arial, sans-serif" font-size="16" font-weight="700">DQS_48_3200 I-V Clamp Sweep Range</text>
<rect x="78" y="52" width="694" height="348" fill="#fbfbfb" stroke="#c8c8c8"/>
<line x1="78.00" y1="52" x2="78.00" y2="400" stroke="#ececec"/>
<text x="78.00" y="422" text-anchor="middle" font-family="Arial, sans-serif" font-size="11">-1.4</text>
<line x1="216.80" y1="52" x2="216.80" y2="400" stroke="#ececec"/>
<text x="216.80" y="422" text-anchor="middle" font-family="Arial, sans-serif" font-size="11">-0.588</text>
<line x1="355.60" y1="52" x2="355.60" y2="400" stroke="#ececec"/>
<text x="355.60" y="422" text-anchor="middle" font-family="Arial, sans-serif" font-size="11">0.204</text>
<line x1="494.40" y1="52" x2="494.40" y2="400" stroke="#ececec"/>
<text x="494.40" y="422" text-anchor="middle" font-family="Arial, sans-serif" font-size="11">0.996</text>
<line x1="633.20" y1="52" x2="633.20" y2="400" stroke="#ececec"/>
<text x="633.20" y="422" text-anchor="middle" font-family="Arial, sans-serif" font-size="11">1.8</text>
<line x1="772.00" y1="52" x2="772.00" y2="400" stroke="#ececec"/>
<text x="772.00" y="422" text-anchor="middle" font-family="Arial, sans-serif" font-size="11">2.6</text>
<line x1="78" y1="400.00" x2="772" y2="400.00" stroke="#ececec"/>
<text x="70" y="404.00" text-anchor="end" font-family="Arial, sans-serif" font-size="11">-0.16</text>
<line x1="78" y1="330.40" x2="772" y2="330.40" stroke="#ececec"/>
<text x="70" y="334.40" text-anchor="end" font-family="Arial, sans-serif" font-size="11">-0.0932</text>
<line x1="78" y1="260.80" x2="772" y2="260.80" stroke="#ececec"/>
<text x="70" y="264.80" text-anchor="end" font-family="Arial, sans-serif" font-size="11">-0.0267</text>
<line x1="78" y1="191.20" x2="772" y2="191.20" stroke="#ececec"/>
<text x="70" y="195.20" text-anchor="end" font-family="Arial, sans-serif" font-size="11">0.0398</text>
<line x1="78" y1="121.60" x2="772" y2="121.60" stroke="#ececec"/>
<text x="70" y="125.60" text-anchor="end" font-family="Arial, sans-serif" font-size="11">0.106</text>
<line x1="78" y1="52.00" x2="772" y2="52.00" stroke="#ececec"/>
<text x="70" y="56.00" text-anchor="end" font-family="Arial, sans-serif" font-size="11">0.173</text>
<line x1="319.85" y1="52" x2="319.85" y2="400" stroke="#777" stroke-dasharray="4 4"/>
<line x1="78" y1="232.85" x2="772" y2="232.85" stroke="#777" stroke-dasharray="4 4"/>
<line x1="109.55" y1="52" x2="109.55" y2="400" stroke="#555" stroke-dasharray="2 4"/>
<text x="113.55" y="66" font-family="Arial, sans-serif" font-size="11" fill="#555">-Vcc</text>
<line x1="530.15" y1="52" x2="530.15" y2="400" stroke="#555" stroke-dasharray="2 4"/>
<text x="534.15" y="66" font-family="Arial, sans-serif" font-size="11" fill="#555">Vcc</text>
<line x1="740.45" y1="52" x2="740.45" y2="400" stroke="#555" stroke-dasharray="2 4"/>
<text x="744.45" y="66" font-family="Arial, sans-serif" font-size="11" fill="#555">2Vcc</text>
<polyline fill="none" stroke="#2ca02c" stroke-width="1.2" opacity="0.55" stroke-dasharray="4 4" points="109.55,367.25 111.12,363.23 112.70,359.22 114.28,355.24 115.85,351.28 117.43,347.34 118.48,344.73 119.53,342.13 120.59,339.54 121.64,336.96 122.69,334.40 123.22,333.12 124.27,330.57 125.32,328.05 126.37,325.52 127.42,323.03 128.47,320.54 129.00,319.31 129.52,318.08 130.58,315.64 131.10,314.43 131.63,313.22 132.15,312.01 132.68,310.80 133.20,309.59 133.73,308.40 134.26,307.23 135.31,304.88 135.83,303.70 136.36,302.53 137.41,300.23 137.94,299.09 138.46,297.95 139.51,295.68 140.57,293.48 141.62,291.29 142.67,289.12 143.19,288.07 144.25,285.97 144.77,284.92 145.30,283.87 146.35,281.88 147.40,279.89 147.93,278.89 148.98,277.01 149.50,276.08 150.03,275.15 151.08,273.31 152.13,271.59 153.71,269.02 154.23,268.23 154.76,267.45 156.34,265.11 156.86,264.36 158.97,261.63 159.49,260.95 161.07,259.18 161.60,258.59 162.12,258.00 162.65,257.48 163.70,256.56 166.33,254.27 167.90,252.90 168.43,252.52 169.48,251.88 172.11,250.27 173.16,249.63 175.27,248.64 177.37,247.67 177.89,247.43 182.10,245.85 186.31,244.49 190.51,243.28 194.72,242.21 199.45,241.12 204.18,240.12 211.02,238.78 217.33,237.64 222.58,236.77 227.32,236.04 231.00,235.51 234.68,235.03 237.30,234.72 240.46,234.36 244.67,233.97 247.82,233.73 250.97,233.51 253.60,233.38 256.76,233.23 261.49,233.08 267.27,232.96 276.21,232.88 300.40,232.85 319.85,232.85 740.45,232.85"/>
<polyline fill="none" stroke="#2ca02c" stroke-width="1.2" opacity="0.55" stroke-dasharray="4 4" points="109.55,376.00 111.12,368.62 112.70,361.32 114.28,354.11 115.85,346.99 117.43,339.99 118.48,335.39 119.53,330.85 120.59,326.37 121.64,321.97 122.69,317.65 123.22,315.51 124.27,311.31 125.32,307.21 126.37,303.22 127.42,299.35 128.47,295.61 129.00,293.80 129.52,292.01 130.58,288.56 131.10,286.91 131.63,285.29 132.15,283.72 132.68,282.20 133.20,280.72 133.73,279.31 134.26,277.93 135.31,275.34 135.83,274.15 136.36,272.98 137.41,270.84 137.94,269.89 138.46,268.94 139.51,267.27 140.57,265.79 141.62,264.50 142.67,263.37 143.19,262.86 144.25,261.91 144.77,261.47 145.30,261.06 146.35,260.31 147.40,259.66 147.93,259.36 148.98,258.79 149.50,258.52 150.03,258.27 151.08,257.79 152.13,257.34 153.71,256.70 154.23,256.50 154.76,256.31 156.34,255.74 156.86,255.56 158.97,254.86 159.49,254.69 161.07,254.19 161.60,254.04 162.12,253.88 162.65,253.72 163.70,253.40 166.33,252.63 167.90,252.18 168.43,252.02 169.48,251.72 172.11,250.98 173.16,250.68 175.27,250.09 177.37,249.51 177.89,249.36 182.10,248.20 186.31,247.05 190.51,245.92 194.72,244.80 199.45,243.57 204.18,242.36 211.02,240.67 217.33,239.18 222.58,238.01 227.32,237.02 231.00,236.30 234.68,235.64 237.30,235.20 240.46,234.71 244.67,234.17 247.82,233.83 250.97,233.55 253.60,233.37 256.76,233.19 261.49,233.03 267.27,232.92 276.21,232.86 300.40,232.85 319.85,232.85 740.45,232.85"/>
<polyline fill="none" stroke="#2ca02c" stroke-width="2.0" opacity="1.0" points="109.55,374.17 111.12,369.01 112.70,363.90 114.28,358.82 115.85,353.77 117.43,348.77 118.48,345.46 119.53,342.17 120.59,338.90 121.64,335.66 122.69,332.43 123.22,330.83 124.27,327.65 125.32,324.50 126.37,321.37 127.42,318.30 128.47,315.23 129.00,313.71 129.52,312.22 130.58,309.23 131.10,307.74 131.63,306.29 132.15,304.84 132.68,303.40 133.20,301.96 133.73,300.54 134.26,299.15 135.31,296.37 135.83,294.98 136.36,293.65 137.41,291.00 137.94,289.67 138.46,288.39 139.51,285.88 140.57,283.38 141.62,281.04 142.67,278.69 143.19,277.60 144.25,275.48 144.77,274.42 145.30,273.39 146.35,271.48 147.40,269.56 147.93,268.70 148.98,267.00 149.50,266.15 150.03,265.36 151.08,263.91 152.13,262.46 153.71,260.66 154.23,260.06 154.76,259.52 156.34,258.02 156.86,257.54 158.97,255.84 159.49,255.47 161.07,254.42 161.60,254.09 162.12,253.81 162.65,253.53 163.70,252.96 166.33,251.72 167.90,251.07 168.43,250.85 169.48,250.44 172.11,249.48 173.16,249.13 175.27,248.45 177.37,247.81 177.89,247.66 182.10,246.47 186.31,245.40 190.51,244.38 194.72,243.39 199.45,242.31 204.18,241.26 211.02,239.81 217.33,238.54 222.58,237.53 227.32,236.69 231.00,236.07 234.68,235.49 237.30,235.13 240.46,234.70 244.67,234.22 247.82,233.92 250.97,233.65 253.60,233.48 256.76,233.30 261.49,233.11 267.27,232.97 276.21,232.88 300.40,232.85 319.85,232.85 740.45,232.85"/>
<polyline fill="none" stroke="#9467bd" stroke-width="1.2" opacity="0.55" stroke-dasharray="4 4" points="109.55,76.00 112.17,83.25 114.28,89.04 116.38,94.82 118.48,100.57 120.59,106.27 122.16,110.52 123.74,114.74 125.32,118.93 126.37,121.71 127.42,124.47 128.47,127.21 129.52,129.94 130.58,132.64 131.63,135.32 132.68,138.01 133.73,140.68 134.26,141.99 135.31,144.61 135.83,145.93 136.36,147.24 137.41,149.82 138.46,152.38 139.51,154.95 140.57,157.45 141.62,159.94 142.14,161.19 142.67,162.42 143.19,163.63 143.72,164.84 144.25,166.05 144.77,167.26 145.30,168.47 146.35,170.80 147.40,173.14 147.93,174.30 148.45,175.44 149.50,177.68 150.03,178.79 150.55,179.91 151.08,181.02 151.61,182.08 152.13,183.14 152.66,184.20 153.71,186.32 154.23,187.33 154.76,188.33 155.81,190.32 156.34,191.32 156.86,192.29 158.44,195.04 158.97,195.95 159.49,196.87 160.54,198.54 161.07,199.37 161.60,200.20 162.12,201.03 162.65,201.80 163.70,203.18 165.28,205.25 166.33,206.63 167.90,208.70 168.43,209.28 168.96,209.79 171.58,212.32 173.16,213.84 173.69,214.23 174.21,214.59 176.84,216.40 177.89,217.12 182.10,219.26 186.31,220.91 187.88,221.42 190.51,222.25 194.19,223.26 198.92,224.39 203.13,225.29 208.39,226.32 213.65,227.28 217.85,228.01 222.58,228.77 226.79,229.41 229.94,229.86 233.62,230.34 236.78,230.73 240.46,231.14 244.67,231.55 247.82,231.81 250.97,232.04 253.60,232.19 256.23,232.33 261.49,232.54 267.27,232.68 274.11,232.77 286.73,232.83 319.32,232.85 319.85,232.85 740.45,232.85"/>
<polyline fill="none" stroke="#9467bd" stroke-width="1.2" opacity="0.55" stroke-dasharray="4 4" points="109.55,87.62 112.17,97.30 114.28,104.98 116.38,112.58 118.48,120.11 120.59,127.54 122.16,133.05 123.74,138.49 125.32,143.86 126.37,147.40 127.42,150.89 128.47,154.34 129.52,157.74 130.58,161.09 131.63,164.38 132.68,167.61 133.73,170.78 134.26,172.34 135.31,175.40 135.83,176.89 136.36,178.37 137.41,181.26 138.46,184.04 139.51,186.71 140.57,189.26 141.62,191.70 142.14,192.86 142.67,193.99 143.19,195.08 143.72,196.14 144.25,197.15 144.77,198.11 145.30,199.04 146.35,200.78 147.40,202.38 147.93,203.09 148.45,203.81 149.50,205.08 150.03,205.64 150.55,206.20 151.08,206.70 151.61,207.20 152.13,207.64 152.66,208.07 153.71,208.85 154.23,209.19 154.76,209.51 155.81,210.14 156.34,210.43 156.86,210.69 158.44,211.45 158.97,211.66 159.49,211.87 160.54,212.30 161.07,212.48 161.60,212.66 162.12,212.84 162.65,213.02 163.70,213.38 165.28,213.91 166.33,214.22 167.90,214.70 168.43,214.85 168.96,215.01 171.58,215.76 173.16,216.20 173.69,216.35 174.21,216.49 176.84,217.22 177.89,217.50 182.10,218.64 186.31,219.75 187.88,220.16 190.51,220.84 194.19,221.79 198.92,222.97 203.13,224.00 208.39,225.26 213.65,226.46 217.85,227.38 222.58,228.36 226.79,229.18 229.94,229.75 233.62,230.37 236.78,230.86 240.46,231.36 244.67,231.84 247.82,232.12 250.97,232.34 253.60,232.48 256.23,232.60 261.49,232.73 267.27,232.80 274.11,232.83 286.73,232.85 319.32,232.85 319.85,232.85 740.45,232.85"/>
<polyline fill="none" stroke="#9467bd" stroke-width="2.0" opacity="1.0" points="109.55,77.81 112.17,85.95 114.28,92.46 116.38,98.94 118.48,105.38 120.59,111.75 122.16,116.50 123.74,121.21 125.32,125.87 126.37,128.96 127.42,132.01 128.47,135.06 129.52,138.08 130.58,141.09 131.63,144.07 132.68,147.02 133.73,149.96 134.26,151.40 135.31,154.29 135.83,155.73 136.36,157.14 137.41,159.95 138.46,162.74 139.51,165.47 140.57,168.20 141.62,170.84 142.14,172.16 142.67,173.47 143.19,174.75 143.72,176.01 144.25,177.27 144.77,178.53 145.30,179.77 146.35,182.17 147.40,184.56 147.93,185.70 148.45,186.83 149.50,189.10 150.03,190.18 150.55,191.22 151.08,192.26 151.61,193.30 152.13,194.33 152.66,195.28 153.71,197.16 154.23,198.10 154.76,198.98 155.81,200.67 156.34,201.52 156.86,202.34 158.44,204.58 158.97,205.33 159.49,205.98 160.54,207.24 161.07,207.87 161.60,208.45 162.12,208.96 162.65,209.47 163.70,210.50 165.28,211.81 166.33,212.69 167.90,213.72 168.43,214.06 168.96,214.41 171.58,215.80 173.16,216.49 173.69,216.73 174.21,216.96 176.84,217.95 177.89,218.28 182.10,219.59 186.31,220.71 187.88,221.11 190.51,221.74 194.19,222.60 198.92,223.66 203.13,224.58 208.39,225.67 213.65,226.72 217.85,227.52 222.58,228.38 226.79,229.10 229.94,229.61 233.62,230.16 236.78,230.59 240.46,231.06 244.67,231.53 247.82,231.81 250.97,232.06 253.60,232.23 256.23,232.38 261.49,232.59 267.27,232.72 274.11,232.80 286.73,232.84 319.32,232.85 319.85,232.85 740.45,232.85"/>
<line x1="88" y1="70" x2="110" y2="70" stroke="#2ca02c" stroke-width="2.4"/>
<text x="116" y="74" font-family="Arial, sans-serif" font-size="12">[GND Clamp]</text>
<line x1="88" y1="88" x2="110" y2="88" stroke="#9467bd" stroke-width="2.4"/>
<text x="116" y="92" font-family="Arial, sans-serif" font-size="12">[POWER Clamp]</text>
<text x="425.00" y="444.00" text-anchor="middle" font-family="Arial, sans-serif" font-size="12">Table voltage (V)</text>
<text transform="translate(18 226.00) rotate(-90)" text-anchor="middle" font-family="Arial, sans-serif" font-size="12">Current (A)</text>
<text x="420" y="42" font-family="Arial, sans-serif" font-size="11" fill="#555">solid=typ, dashed=min/max; dashed vertical=required sweep boundary (5.3.4/5.3.5)</text>
</svg>