<svg xmlns="http://www.w3.org/2000/svg" width="800" height="560" viewBox="0 0 800 560">
<rect width="100%" height="100%" fill="#ffffff"/>
<text x="78" y="25" font-family="Arial, sans-serif" font-size="16" font-weight="700">DQS_40_3200 I-V Clamp Sweep Range</text>
<rect x="78" y="52" width="694" height="348" fill="#fbfbfb" stroke="#c8c8c8"/>
<line x1="78.00" y1="52" x2="78.00" y2="400" stroke="#ececec"/>
<text x="78.00" y="422" text-anchor="middle" font-family="Arial, sans-serif" font-size="11">-1.4</text>
<line x1="216.80" y1="52" x2="216.80" y2="400" stroke="#ececec"/>
<text x="216.80" y="422" text-anchor="middle" font-family="Arial, sans-serif" font-size="11">-0.588</text>
<line x1="355.60" y1="52" x2="355.60" y2="400" stroke="#ececec"/>
<text x="355.60" y="422" text-anchor="middle" font-family="Arial, sans-serif" font-size="11">0.204</text>
<line x1="494.40" y1="52" x2="494.40" y2="400" stroke="#ececec"/>
<text x="494.40" y="422" text-anchor="middle" font-family="Arial, sans-serif" font-size="11">0.996</text>
<line x1="633.20" y1="52" x2="633.20" y2="400" stroke="#ececec"/>
<text x="633.20" y="422" text-anchor="middle" font-family="Arial, sans-serif" font-size="11">1.8</text>
<line x1="772.00" y1="52" x2="772.00" y2="400" stroke="#ececec"/>
<text x="772.00" y="422" text-anchor="middle" font-family="Arial, sans-serif" font-size="11">2.6</text>
<line x1="78" y1="400.00" x2="772" y2="400.00" stroke="#ececec"/>
<text x="70" y="404.00" text-anchor="end" font-family="Arial, sans-serif" font-size="11">-0.16</text>
<line x1="78" y1="330.40" x2="772" y2="330.40" stroke="#ececec"/>
<text x="70" y="334.40" text-anchor="end" font-family="Arial, sans-serif" font-size="11">-0.0932</text>
<line x1="78" y1="260.80" x2="772" y2="260.80" stroke="#ececec"/>
<text x="70" y="264.80" text-anchor="end" font-family="Arial, sans-serif" font-size="11">-0.0267</text>
<line x1="78" y1="191.20" x2="772" y2="191.20" stroke="#ececec"/>
<text x="70" y="195.20" text-anchor="end" font-family="Arial, sans-serif" font-size="11">0.0398</text>
<line x1="78" y1="121.60" x2="772" y2="121.60" stroke="#ececec"/>
<text x="70" y="125.60" text-anchor="end" font-family="Arial, sans-serif" font-size="11">0.106</text>
<line x1="78" y1="52.00" x2="772" y2="52.00" stroke="#ececec"/>
<text x="70" y="56.00" text-anchor="end" font-family="Arial, sans-serif" font-size="11">0.173</text>
<line x1="319.85" y1="52" x2="319.85" y2="400" stroke="#777" stroke-dasharray="4 4"/>
<line x1="78" y1="232.86" x2="772" y2="232.86" stroke="#777" stroke-dasharray="4 4"/>
<line x1="109.55" y1="52" x2="109.55" y2="400" stroke="#555" stroke-dasharray="2 4"/>
<text x="113.55" y="66" font-family="Arial, sans-serif" font-size="11" fill="#555">-Vcc</text>
<line x1="530.15" y1="52" x2="530.15" y2="400" stroke="#555" stroke-dasharray="2 4"/>
<text x="534.15" y="66" font-family="Arial, sans-serif" font-size="11" fill="#555">Vcc</text>
<line x1="740.45" y1="52" x2="740.45" y2="400" stroke="#555" stroke-dasharray="2 4"/>
<text x="744.45" y="66" font-family="Arial, sans-serif" font-size="11" fill="#555">2Vcc</text>
<polyline fill="none" stroke="#2ca02c" stroke-width="1.2" opacity="0.55" stroke-dasharray="4 4" points="109.55,367.25 111.12,363.23 112.70,359.22 114.28,355.24 115.85,351.28 116.91,348.65 117.96,346.04 119.01,343.43 120.06,340.84 120.59,339.54 121.64,336.96 123.22,333.13 124.79,329.32 125.84,326.79 126.37,325.53 127.42,323.04 127.95,321.79 129.00,319.32 129.52,318.09 131.10,314.42 131.63,313.21 132.68,310.80 133.20,309.59 134.26,307.23 134.78,306.04 135.83,303.70 136.36,302.54 137.41,300.23 137.94,299.08 138.99,296.83 139.51,295.70 140.04,294.57 140.57,293.48 141.09,292.38 142.14,290.20 142.67,289.12 143.19,288.07 143.72,287.01 144.25,285.96 144.77,284.91 145.30,283.90 145.82,282.89 146.35,281.88 146.87,280.86 147.93,278.93 148.98,277.00 149.50,276.06 150.55,274.25 151.61,272.43 152.13,271.58 152.66,270.74 153.71,269.05 154.23,268.23 155.29,266.67 156.34,265.12 157.92,262.99 158.44,262.28 160.02,260.38 160.54,259.74 161.07,259.14 163.17,256.94 164.22,256.03 166.85,253.77 167.90,252.89 170.01,251.54 171.58,250.52 172.11,250.21 175.79,248.37 176.32,248.12 178.95,247.05 180.00,246.62 183.15,245.51 184.73,245.00 187.36,244.19 191.56,243.02 195.24,242.10 199.45,241.13 203.66,240.24 209.44,239.09 215.75,237.93 222.06,236.86 227.32,236.05 232.05,235.38 236.78,234.79 238.36,234.61 242.56,234.18 244.14,234.03 247.82,233.74 249.92,233.59 253.08,233.41 255.71,233.29 258.86,233.17 261.49,233.09 265.17,233.01 270.95,232.94 281.99,232.88 319.32,232.86 319.85,232.86 740.45,232.86"/>
<polyline fill="none" stroke="#2ca02c" stroke-width="1.2" opacity="0.55" stroke-dasharray="4 4" points="109.55,376.00 111.12,368.62 112.70,361.32 114.28,354.11 115.85,347.00 116.91,342.32 117.96,337.69 119.01,333.12 120.06,328.61 120.59,326.38 121.64,321.98 123.22,315.51 124.79,309.26 125.84,305.24 126.37,303.23 127.42,299.39 127.95,297.47 129.00,293.83 129.52,292.02 131.10,286.91 131.63,285.32 132.68,282.20 133.20,280.76 134.26,277.95 134.78,276.66 135.83,274.17 136.36,273.04 137.41,270.89 137.94,269.92 138.99,268.10 139.51,267.30 140.04,266.55 140.57,265.80 141.09,265.13 142.14,263.90 142.67,263.35 143.19,262.85 143.72,262.35 144.25,261.90 144.77,261.49 145.30,261.07 145.82,260.69 146.35,260.35 146.87,260.00 147.93,259.39 148.98,258.82 149.50,258.55 150.55,258.04 151.61,257.58 152.13,257.35 152.66,257.14 153.71,256.72 154.23,256.52 155.29,256.13 156.34,255.76 157.92,255.22 158.44,255.04 160.02,254.54 160.54,254.37 161.07,254.21 163.17,253.57 164.22,253.26 166.85,252.49 167.90,252.19 170.01,251.59 171.58,251.14 172.11,250.99 175.79,249.96 176.32,249.81 178.95,249.08 180.00,248.79 183.15,247.93 184.73,247.50 187.36,246.78 191.56,245.65 195.24,244.68 199.45,243.58 203.66,242.51 209.44,241.07 215.75,239.56 222.06,238.14 227.32,237.04 232.05,236.12 236.78,235.31 238.36,235.05 242.56,234.46 244.14,234.25 247.82,233.86 249.92,233.65 253.08,233.43 255.71,233.26 258.86,233.13 261.49,233.04 265.17,232.96 270.95,232.90 281.99,232.87 319.32,232.86 319.85,232.86 740.45,232.86"/>
<polyline fill="none" stroke="#2ca02c" stroke-width="2.0" opacity="1.0" points="109.55,374.17 111.12,369.02 112.70,363.90 114.28,358.82 115.85,353.78 116.91,350.43 117.96,347.12 119.01,343.82 120.06,340.53 120.59,338.91 121.64,335.66 123.22,330.84 124.79,326.08 125.84,322.93 126.37,321.38 127.42,318.29 127.95,316.76 129.00,313.72 129.52,312.23 131.10,307.77 131.63,306.28 132.68,303.43 133.20,302.00 134.26,299.15 134.78,297.74 135.83,295.04 136.36,293.69 137.41,290.99 137.94,289.70 138.99,287.17 139.51,285.91 140.04,284.65 140.57,283.40 141.09,282.25 142.14,279.95 142.67,278.79 143.19,277.64 143.72,276.56 144.25,275.53 144.77,274.50 145.30,273.47 145.82,272.44 146.35,271.41 146.87,270.52 147.93,268.75 148.98,266.99 149.50,266.16 150.55,264.70 151.61,263.23 152.13,262.50 152.66,261.88 153.71,260.71 154.23,260.12 155.29,258.97 156.34,258.05 157.92,256.68 158.44,256.28 160.02,255.19 160.54,254.83 161.07,254.47 163.17,253.29 164.22,252.72 166.85,251.49 167.90,251.06 170.01,250.24 171.58,249.69 172.11,249.50 175.79,248.29 176.32,248.13 178.95,247.34 180.00,247.05 183.15,246.22 184.73,245.82 187.36,245.16 191.56,244.14 195.24,243.29 199.45,242.33 203.66,241.40 209.44,240.15 215.75,238.86 222.06,237.64 227.32,236.70 232.05,235.92 236.78,235.20 238.36,235.00 242.56,234.47 244.14,234.30 247.82,233.92 249.92,233.76 253.08,233.52 255.71,233.37 258.86,233.22 261.49,233.13 265.17,233.03 270.95,232.94 281.99,232.88 319.32,232.86 319.85,232.86 740.45,232.86"/>
<polyline fill="none" stroke="#9467bd" stroke-width="1.2" opacity="0.55" stroke-dasharray="4 4" points="109.55,76.00 110.07,77.49 112.70,84.74 114.80,90.52 116.91,96.30 119.01,102.03 121.11,107.72 123.22,113.37 124.79,117.56 126.37,121.74 127.95,125.87 129.52,129.96 131.10,134.02 131.63,135.36 132.68,138.04 134.26,142.02 134.78,143.34 135.83,145.96 136.88,148.55 137.41,149.85 138.46,152.41 138.99,153.69 139.51,154.96 140.04,156.23 140.57,157.48 141.09,158.72 142.14,161.21 142.67,162.44 143.19,163.66 143.72,164.87 144.25,166.08 144.77,167.29 145.30,168.47 145.82,169.65 146.35,170.84 146.87,172.02 147.40,173.17 148.45,175.45 148.98,176.60 149.50,177.73 150.03,178.82 150.55,179.92 151.61,182.12 152.13,183.17 152.66,184.23 153.18,185.28 153.71,186.33 154.76,188.35 155.29,189.35 156.34,191.34 157.92,194.16 158.44,195.10 160.54,198.60 161.07,199.44 162.12,201.04 163.17,202.64 163.70,203.32 164.22,204.00 166.85,207.41 167.38,208.09 167.90,208.74 169.48,210.34 170.01,210.87 171.58,212.47 172.11,212.96 172.64,213.37 174.74,214.98 175.79,215.79 176.32,216.15 178.95,217.68 180.00,218.27 182.63,219.47 183.68,219.94 187.36,221.29 191.04,222.42 195.24,223.54 198.92,224.41 203.13,225.31 207.86,226.24 213.12,227.21 217.85,228.03 222.06,228.71 226.79,229.43 231.52,230.09 236.78,230.75 238.36,230.93 242.56,231.37 244.14,231.52 247.82,231.83 249.40,231.95 253.08,232.19 255.71,232.33 258.86,232.47 262.02,232.58 267.80,232.71 276.74,232.81 294.61,232.86 319.85,232.86 740.45,232.86"/>
<polyline fill="none" stroke="#9467bd" stroke-width="1.2" opacity="0.55" stroke-dasharray="4 4" points="109.55,87.65 110.07,89.59 112.70,99.26 114.80,106.92 116.91,114.50 119.01,122.00 121.11,129.41 123.22,136.71 124.79,142.11 126.37,147.42 127.95,152.64 129.52,157.76 131.10,162.77 131.63,164.40 132.68,167.64 134.26,172.36 134.78,173.88 135.83,176.91 136.88,179.81 137.41,181.26 138.46,184.02 138.99,185.39 139.51,186.70 140.04,187.98 140.57,189.27 141.09,190.49 142.14,192.85 142.67,193.97 143.19,195.05 143.72,196.13 144.25,197.14 144.77,198.09 145.30,199.05 145.82,199.94 146.35,200.77 146.87,201.60 147.40,202.37 148.45,203.80 148.98,204.46 149.50,205.05 150.03,205.65 150.55,206.20 151.61,207.18 152.13,207.64 152.66,208.05 153.18,208.47 153.71,208.85 154.76,209.54 155.29,209.86 156.34,210.40 157.92,211.21 158.44,211.46 160.54,212.30 161.07,212.50 162.12,212.88 163.17,213.24 163.70,213.41 164.22,213.59 166.85,214.40 167.38,214.56 167.90,214.72 169.48,215.18 170.01,215.33 171.58,215.78 172.11,215.93 172.64,216.08 174.74,216.67 175.79,216.96 176.32,217.10 178.95,217.81 180.00,218.09 182.63,218.79 183.68,219.07 187.36,220.04 191.04,221.00 195.24,222.07 198.92,222.99 203.13,224.02 207.86,225.15 213.12,226.36 217.85,227.40 222.06,228.27 226.79,229.20 231.52,230.05 236.78,230.87 238.36,231.10 242.56,231.62 244.14,231.79 247.82,232.12 249.40,232.26 253.08,232.46 255.71,232.59 258.86,232.68 262.02,232.75 267.80,232.82 276.74,232.86 294.61,232.86 319.85,232.86 740.45,232.86"/>
<polyline fill="none" stroke="#9467bd" stroke-width="2.0" opacity="1.0" points="109.55,77.85 110.07,79.46 112.70,87.61 114.80,94.12 116.91,100.59 119.01,107.01 121.11,113.37 123.22,119.67 124.79,124.35 126.37,128.99 127.95,133.58 129.52,138.11 131.10,142.61 131.63,144.11 132.68,147.04 134.26,151.43 134.78,152.88 135.83,155.72 136.88,158.57 137.41,159.99 138.46,162.74 138.99,164.11 139.51,165.48 140.04,166.85 140.57,168.21 141.09,169.52 142.14,172.14 142.67,173.46 143.19,174.77 143.72,176.04 144.25,177.28 144.77,178.52 145.30,179.75 145.82,180.99 146.35,182.23 146.87,183.39 147.40,184.54 148.45,186.84 148.98,187.99 149.50,189.10 150.03,190.15 150.55,191.20 151.61,193.29 152.13,194.34 152.66,195.30 153.18,196.23 153.71,197.16 154.76,199.02 155.29,199.92 156.34,201.51 157.92,203.90 158.44,204.61 160.54,207.23 161.07,207.88 162.12,208.93 163.17,209.97 163.70,210.49 164.22,210.97 166.85,213.03 167.38,213.37 167.90,213.70 169.48,214.69 170.01,215.00 171.58,215.79 172.11,216.06 172.64,216.32 174.74,217.18 175.79,217.60 176.32,217.77 178.95,218.64 180.00,218.95 182.63,219.71 183.68,220.01 187.36,220.99 191.04,221.89 195.24,222.85 198.92,223.67 203.13,224.58 207.86,225.58 213.12,226.63 217.85,227.54 222.06,228.31 226.79,229.12 231.52,229.88 236.78,230.62 238.36,230.82 242.56,231.32 244.14,231.48 247.82,231.84 249.40,231.96 253.08,232.22 255.71,232.36 258.86,232.51 262.02,232.62 267.80,232.74 276.74,232.83 294.61,232.86 319.85,232.86 740.45,232.86"/>
<line x1="88" y1="70" x2="110" y2="70" stroke="#2ca02c" stroke-width="2.4"/>
<text x="116" y="74" font-family="Arial, sans-serif" font-size="12">[GND Clamp]</text>
<line x1="88" y1="88" x2="110" y2="88" stroke="#9467bd" stroke-width="2.4"/>
<text x="116" y="92" font-family="Arial, sans-serif" font-size="12">[POWER Clamp]</text>
<text x="425.00" y="444.00" text-anchor="middle" font-family="Arial, sans-serif" font-size="12">Table voltage (V)</text>
<text transform="translate(18 226.00) rotate(-90)" text-anchor="middle" font-family="Arial, sans-serif" font-size="12">Current (A)</text>
<text x="420" y="42" font-family="Arial, sans-serif" font-size="11" fill="#555">solid=typ, dashed=min/max; dashed vertical=required sweep boundary (5.3.4/5.3.5)</text>
</svg>