<svg xmlns="http://www.w3.org/2000/svg" width="800" height="560" viewBox="0 0 800 560">
<rect width="100%" height="100%" fill="#ffffff"/>
<text x="78" y="25" font-family="Arial, sans-serif" font-size="16" font-weight="700">DM_ODT60_3200 I-V Clamp Curves</text>
<rect x="78" y="52" width="694" height="348" fill="#fbfbfb" stroke="#c8c8c8"/>
<line x1="78.00" y1="52" x2="78.00" y2="400" stroke="#ececec"/>
<text x="78.00" y="422" text-anchor="middle" font-family="Arial, sans-serif" font-size="11">-1.3</text>
<line x1="216.80" y1="52" x2="216.80" y2="400" stroke="#ececec"/>
<text x="216.80" y="422" text-anchor="middle" font-family="Arial, sans-serif" font-size="11">-0.523</text>
<line x1="355.60" y1="52" x2="355.60" y2="400" stroke="#ececec"/>
<text x="355.60" y="422" text-anchor="middle" font-family="Arial, sans-serif" font-size="11">0.226</text>
<line x1="494.40" y1="52" x2="494.40" y2="400" stroke="#ececec"/>
<text x="494.40" y="422" text-anchor="middle" font-family="Arial, sans-serif" font-size="11">0.974</text>
<line x1="633.20" y1="52" x2="633.20" y2="400" stroke="#ececec"/>
<text x="633.20" y="422" text-anchor="middle" font-family="Arial, sans-serif" font-size="11">1.7</text>
<line x1="772.00" y1="52" x2="772.00" y2="400" stroke="#ececec"/>
<text x="772.00" y="422" text-anchor="middle" font-family="Arial, sans-serif" font-size="11">2.5</text>
<line x1="78" y1="400.00" x2="772" y2="400.00" stroke="#ececec"/>
<text x="70" y="404.00" text-anchor="end" font-family="Arial, sans-serif" font-size="11">-0.158</text>
<line x1="78" y1="330.40" x2="772" y2="330.40" stroke="#ececec"/>
<text x="70" y="334.40" text-anchor="end" font-family="Arial, sans-serif" font-size="11">-0.092</text>
<line x1="78" y1="260.80" x2="772" y2="260.80" stroke="#ececec"/>
<text x="70" y="264.80" text-anchor="end" font-family="Arial, sans-serif" font-size="11">-0.0263</text>
<line x1="78" y1="191.20" x2="772" y2="191.20" stroke="#ececec"/>
<text x="70" y="195.20" text-anchor="end" font-family="Arial, sans-serif" font-size="11">0.0394</text>
<line x1="78" y1="121.60" x2="772" y2="121.60" stroke="#ececec"/>
<text x="70" y="125.60" text-anchor="end" font-family="Arial, sans-serif" font-size="11">0.105</text>
<line x1="78" y1="52.00" x2="772" y2="52.00" stroke="#ececec"/>
<text x="70" y="56.00" text-anchor="end" font-family="Arial, sans-serif" font-size="11">0.171</text>
<line x1="313.78" y1="52" x2="313.78" y2="400" stroke="#777" stroke-dasharray="4 4"/>
<line x1="78" y1="232.94" x2="772" y2="232.94" stroke="#777" stroke-dasharray="4 4"/>
<line x1="91.35" y1="52" x2="91.35" y2="400" stroke="#555" stroke-dasharray="2 4"/>
<text x="95.35" y="66" font-family="Arial, sans-serif" font-size="11" fill="#555">-Vcc</text>
<line x1="536.22" y1="52" x2="536.22" y2="400" stroke="#555" stroke-dasharray="2 4"/>
<text x="540.22" y="66" font-family="Arial, sans-serif" font-size="11" fill="#555">Vcc</text>
<line x1="758.65" y1="52" x2="758.65" y2="400" stroke="#555" stroke-dasharray="2 4"/>
<text x="762.65" y="66" font-family="Arial, sans-serif" font-size="11" fill="#555">2Vcc</text>
<polyline fill="none" stroke="#0f766e" stroke-width="2.8" opacity="0.95" stroke-dasharray="6 3" points="91.35,376.00 93.01,370.79 94.68,365.61 96.35,360.46 98.02,355.36 99.13,351.97 100.24,348.62 101.36,345.28 102.47,341.95 103.58,338.66 104.69,335.39 105.80,332.13 106.92,328.92 107.47,327.31 108.03,325.72 109.14,322.56 109.70,320.98 110.25,319.43 110.81,317.88 111.37,316.33 111.92,314.80 112.48,313.28 113.03,311.77 113.59,310.25 114.70,307.29 115.26,305.81 116.37,302.91 116.93,301.47 117.48,300.03 118.04,298.64 119.15,295.84 119.71,294.48 120.82,291.79 121.38,290.46 122.49,287.88 123.04,286.59 124.16,284.13 124.71,282.90 125.27,281.72 125.82,280.61 126.38,279.49 126.94,278.38 127.49,277.27 128.60,275.04 129.16,274.02 130.27,272.13 131.38,270.23 132.50,268.33 133.05,267.52 133.61,266.76 135.28,264.47 135.83,263.71 136.39,262.94 137.50,261.75 138.61,260.59 140.28,258.85 140.84,258.42 141.95,257.55 143.62,256.26 144.17,255.84 145.84,254.87 146.96,254.22 148.07,253.59 148.62,253.34 150.85,252.31 151.96,251.82 153.63,251.18 155.85,250.34 158.08,249.61 158.63,249.42 160.86,248.74 163.64,247.93 168.09,246.74 170.31,246.18 170.87,246.04 177.54,244.48 181.43,243.61 186.99,242.40 193.11,241.11 199.23,239.88 203.68,239.02 209.79,237.88 216.47,236.73 221.47,235.95 224.81,235.48 228.14,235.03 232.04,234.57 234.26,234.33 238.15,233.97 240.93,233.76 243.71,233.57 248.16,233.35 253.17,233.17 259.84,233.04 269.85,232.97 295.43,232.94 313.78,232.94 758.65,232.94"/>
<polyline fill="none" stroke="#7c2d12" stroke-width="2.8" opacity="0.95" stroke-dasharray="6 3" points="91.35,76.00 93.57,82.59 95.79,89.18 98.02,95.76 100.24,102.28 102.47,108.75 104.14,113.56 106.36,119.92 108.03,124.65 111.37,133.96 112.48,137.02 113.59,140.06 114.70,143.08 115.81,146.07 116.37,147.55 117.48,150.51 118.04,151.96 119.15,154.87 119.71,156.31 120.82,159.16 121.38,160.57 122.49,163.36 123.04,164.76 124.16,167.48 124.71,168.84 125.27,170.17 125.82,171.47 126.94,174.06 127.49,175.36 128.60,177.95 129.16,179.19 130.27,181.59 131.38,183.98 132.50,186.38 133.05,187.49 133.61,188.56 134.72,190.71 135.28,191.79 135.83,192.86 136.39,193.94 136.95,194.89 137.50,195.81 138.61,197.67 139.73,199.52 140.28,200.45 140.84,201.21 141.95,202.73 143.62,205.02 144.17,205.76 145.84,207.52 146.96,208.70 147.51,209.29 148.07,209.84 148.62,210.28 150.85,212.03 151.40,212.47 151.96,212.86 153.07,213.52 153.63,213.84 155.30,214.83 155.85,215.11 158.08,216.13 158.63,216.38 159.19,216.63 160.86,217.25 163.08,218.06 165.31,218.73 165.86,218.89 167.53,219.37 168.09,219.52 170.87,220.25 173.65,220.93 175.87,221.45 178.65,222.08 181.43,222.70 183.66,223.17 188.11,224.11 193.11,225.13 198.12,226.11 202.56,226.94 208.13,227.95 213.13,228.79 216.47,229.33 221.47,230.07 224.25,230.45 227.59,230.87 229.81,231.14 233.15,231.49 235.93,231.75 238.15,231.94 240.93,232.15 243.16,232.29 245.94,232.44 248.72,232.56 254.28,232.74 260.40,232.85 270.41,232.92 289.87,232.94 313.78,232.94 758.65,232.94"/>
<line x1="88" y1="70" x2="110" y2="70" stroke="#0f766e" stroke-width="2.8" stroke-dasharray="6 3"/>
<text x="116" y="74" font-family="Arial, sans-serif" font-size="12">[GND Clamp]</text>
<line x1="88" y1="88" x2="110" y2="88" stroke="#7c2d12" stroke-width="2.8" stroke-dasharray="6 3"/>
<text x="116" y="92" font-family="Arial, sans-serif" font-size="12">[POWER Clamp]</text>
<text x="425.00" y="444.00" text-anchor="middle" font-family="Arial, sans-serif" font-size="12">Table voltage (V)</text>
<text transform="translate(18 226.00) rotate(-90)" text-anchor="middle" font-family="Arial, sans-serif" font-size="12">Current (A)</text>
<text x="420" y="42" font-family="Arial, sans-serif" font-size="11" fill="#555">thick dashed=combined typ curves</text>
</svg>