<svg xmlns="http://www.w3.org/2000/svg" width="800" height="560" viewBox="0 0 800 560">
<rect width="100%" height="100%" fill="#ffffff"/>
<text x="78" y="25" font-family="Arial, sans-serif" font-size="16" font-weight="700">DQS_40_3200 I-V Combined Curves</text>
<rect x="78" y="52" width="694" height="348" fill="#fbfbfb" stroke="#c8c8c8"/>
<line x1="78.00" y1="52" x2="78.00" y2="400" stroke="#ececec"/>
<text x="78.00" y="422" text-anchor="middle" font-family="Arial, sans-serif" font-size="11">-1.3</text>
<line x1="216.80" y1="52" x2="216.80" y2="400" stroke="#ececec"/>
<text x="216.80" y="422" text-anchor="middle" font-family="Arial, sans-serif" font-size="11">-0.523</text>
<line x1="355.60" y1="52" x2="355.60" y2="400" stroke="#ececec"/>
<text x="355.60" y="422" text-anchor="middle" font-family="Arial, sans-serif" font-size="11">0.226</text>
<line x1="494.40" y1="52" x2="494.40" y2="400" stroke="#ececec"/>
<text x="494.40" y="422" text-anchor="middle" font-family="Arial, sans-serif" font-size="11">0.974</text>
<line x1="633.20" y1="52" x2="633.20" y2="400" stroke="#ececec"/>
<text x="633.20" y="422" text-anchor="middle" font-family="Arial, sans-serif" font-size="11">1.7</text>
<line x1="772.00" y1="52" x2="772.00" y2="400" stroke="#ececec"/>
<text x="772.00" y="422" text-anchor="middle" font-family="Arial, sans-serif" font-size="11">2.5</text>
<line x1="78" y1="400.00" x2="772" y2="400.00" stroke="#ececec"/>
<text x="70" y="404.00" text-anchor="end" font-family="Arial, sans-serif" font-size="11">-0.178</text>
<line x1="78" y1="330.40" x2="772" y2="330.40" stroke="#ececec"/>
<text x="70" y="334.40" text-anchor="end" font-family="Arial, sans-serif" font-size="11">-0.104</text>
<line x1="78" y1="260.80" x2="772" y2="260.80" stroke="#ececec"/>
<text x="70" y="264.80" text-anchor="end" font-family="Arial, sans-serif" font-size="11">-0.0311</text>
<line x1="78" y1="191.20" x2="772" y2="191.20" stroke="#ececec"/>
<text x="70" y="195.20" text-anchor="end" font-family="Arial, sans-serif" font-size="11">0.0423</text>
<line x1="78" y1="121.60" x2="772" y2="121.60" stroke="#ececec"/>
<text x="70" y="125.60" text-anchor="end" font-family="Arial, sans-serif" font-size="11">0.116</text>
<line x1="78" y1="52.00" x2="772" y2="52.00" stroke="#ececec"/>
<text x="70" y="56.00" text-anchor="end" font-family="Arial, sans-serif" font-size="11">0.189</text>
<line x1="313.78" y1="52" x2="313.78" y2="400" stroke="#777" stroke-dasharray="4 4"/>
<line x1="78" y1="231.31" x2="772" y2="231.31" stroke="#777" stroke-dasharray="4 4"/>
<line x1="91.35" y1="52" x2="91.35" y2="400" stroke="#555" stroke-dasharray="2 4"/>
<text x="95.35" y="66" font-family="Arial, sans-serif" font-size="11" fill="#555">-Vcc</text>
<line x1="536.22" y1="52" x2="536.22" y2="400" stroke="#555" stroke-dasharray="2 4"/>
<text x="540.22" y="66" font-family="Arial, sans-serif" font-size="11" fill="#555">Vcc</text>
<line x1="758.65" y1="52" x2="758.65" y2="400" stroke="#555" stroke-dasharray="2 4"/>
<text x="762.65" y="66" font-family="Arial, sans-serif" font-size="11" fill="#555">2Vcc</text>
<polyline fill="none" stroke="#0f766e" stroke-width="2.8" opacity="0.95" stroke-dasharray="6 3" points="91.35,376.00 93.01,371.32 94.68,366.67 96.35,362.05 98.02,357.47 99.13,354.43 100.24,351.42 101.36,348.42 102.47,345.43 103.02,343.95 104.14,341.00 105.80,336.62 107.47,332.29 108.58,329.43 109.14,328.02 110.25,325.21 110.81,323.82 111.92,321.06 112.48,319.71 114.15,315.65 114.70,314.30 115.81,311.70 116.37,310.40 117.48,307.81 118.04,306.54 119.15,304.08 119.71,302.85 120.82,300.39 121.38,299.22 122.49,296.93 123.04,295.78 123.60,294.63 124.16,293.50 124.71,292.45 125.82,290.35 126.38,289.30 126.94,288.26 127.49,287.27 128.05,286.33 128.60,285.40 129.16,284.46 129.72,283.52 130.27,282.59 130.83,281.78 131.94,280.17 133.05,278.56 133.61,277.81 134.72,276.47 135.83,275.14 136.39,274.47 136.95,273.91 138.06,272.84 138.61,272.30 139.73,271.25 140.84,270.42 142.51,269.16 143.06,268.79 144.73,267.79 145.29,267.46 145.84,267.13 148.07,266.04 149.18,265.52 151.96,264.39 153.07,264.00 155.30,263.23 156.96,262.71 157.52,262.54 161.41,261.41 161.97,261.26 163.64,260.81 164.75,260.51 165.86,260.24 169.20,259.45 170.87,259.06 172.54,258.69 173.65,258.43 178.10,257.44 180.32,256.96 181.99,256.59 186.44,255.63 186.99,255.51 190.89,254.68 193.11,254.22 197.00,253.39 198.67,253.05 203.12,252.11 203.68,251.99 206.46,251.42 209.79,250.73 210.35,250.62 213.69,249.94 215.35,249.59 215.91,249.47 217.58,249.14 220.36,248.58 220.92,248.46 223.70,247.90 225.92,247.45 227.03,247.23 227.59,247.12 229.26,246.80 231.48,246.36 232.04,246.24 233.15,246.03 233.71,245.92 237.04,245.28 237.60,245.16 239.27,244.84 239.82,244.74 241.49,244.42 242.60,244.22 243.16,244.10 245.38,243.69 245.94,243.58 248.16,243.18 249.28,242.96 251.50,242.55 252.06,242.44 254.28,242.04 255.95,241.73 257.62,241.43 260.40,240.93 262.07,240.61 265.40,240.02 273.74,238.50 274.86,238.31 303.22,233.21 313.23,231.41 313.78,231.31 326.57,229.04 338.81,226.89 350.48,224.86 359.94,223.25 365.50,222.31 373.28,221.01 378.29,220.18 382.74,219.45 388.85,218.46 394.97,217.48 399.42,216.77 404.98,215.90 408.87,215.31 412.77,214.71 416.66,214.13 423.33,213.14 427.22,212.58 433.34,211.71 442.24,210.50 451.14,209.33 457.81,208.48 462.26,207.93 468.93,207.12 472.82,206.66 477.83,206.08 482.28,205.57 486.73,205.07 492.29,204.45 496.18,204.03 501.74,203.44 505.63,203.03 511.19,202.46 519.54,201.62 523.98,201.18 529.54,200.65 538.44,199.82 547.34,199.03 556.79,198.22 566.25,197.46 575.70,196.73 585.15,196.04 594.61,195.39 603.50,194.80 611.85,194.28 620.19,193.79 629.08,193.28 638.54,192.76 648.55,192.23 659.11,191.69 670.24,191.15 681.36,190.63 693.59,190.08 704.16,189.62 715.28,189.14 732.52,188.43 749.76,187.73 758.65,187.39"/>
<polyline fill="none" stroke="#7c2d12" stroke-width="2.8" opacity="0.95" stroke-dasharray="6 3" points="91.35,76.00 91.90,77.49 94.68,84.94 95.79,87.91 96.91,90.89 99.13,96.81 100.80,101.22 101.36,102.69 103.58,108.52 105.80,114.29 106.36,115.72 107.47,118.58 109.14,122.83 110.81,127.04 112.48,131.20 114.15,135.33 114.70,136.70 115.81,139.39 117.48,143.42 118.04,144.75 119.15,147.36 120.26,149.97 120.82,151.27 121.93,153.80 122.49,155.06 123.04,156.31 123.60,157.57 124.16,158.82 124.71,160.02 125.82,162.43 126.38,163.63 126.94,164.84 127.49,166.00 128.05,167.14 128.60,168.28 129.16,169.42 129.72,170.55 130.27,171.69 130.83,172.75 131.38,173.81 132.50,175.92 133.05,176.98 133.61,178.00 134.17,178.97 134.72,179.94 135.28,180.90 135.83,181.87 136.39,182.83 136.95,183.71 137.50,184.57 138.06,185.43 139.17,187.14 139.73,187.97 140.84,189.44 142.51,191.65 143.06,192.31 145.29,194.74 145.84,195.35 146.96,196.32 148.07,197.29 148.62,197.78 149.18,198.22 151.96,200.17 152.52,200.49 153.07,200.80 154.74,201.74 155.30,202.04 156.41,202.54 156.96,202.79 157.52,203.05 158.08,203.30 160.30,204.13 161.41,204.54 161.97,204.71 164.75,205.57 165.86,205.88 166.42,206.03 168.64,206.65 169.75,206.94 173.65,207.94 177.54,208.87 181.99,209.86 185.88,210.72 186.99,210.96 190.33,211.68 195.33,212.74 200.90,213.89 202.56,214.22 205.90,214.89 207.57,215.22 210.35,215.76 211.46,215.97 215.35,216.72 218.69,217.33 220.36,217.64 220.92,217.74 225.36,218.53 225.92,218.63 227.03,218.82 227.59,218.91 229.81,219.29 231.48,219.57 232.04,219.67 233.15,219.85 233.71,219.94 237.04,220.48 237.60,220.58 239.27,220.85 241.49,221.19 242.60,221.37 243.16,221.46 245.38,221.80 245.94,221.89 248.16,222.22 249.28,222.39 251.50,222.73 252.61,222.89 254.28,223.13 258.17,223.70 258.73,223.79 261.51,224.18 267.63,225.05 268.18,225.13 284.31,227.37 287.09,227.75 295.99,228.96 306.00,230.29 313.78,231.31 324.35,232.68 332.13,233.67 339.92,234.65 347.15,235.54 351.60,236.08 358.27,236.88 364.39,237.60 368.83,238.12 373.28,238.63 377.18,239.07 382.18,239.62 387.19,240.16 389.41,240.39 396.64,241.15 401.09,241.60 406.09,242.10 412.21,242.70 416.10,243.07 423.33,243.75 428.34,244.20 433.34,244.66 442.24,245.42 451.14,246.16 456.70,246.59 460.59,246.90 466.15,247.31 470.60,247.63 477.83,248.13 481.72,248.40 487.28,248.76 491.17,249.00 496.74,249.34 501.18,249.60 506.19,249.89 511.19,250.17 515.64,250.41 521.76,250.73 529.54,251.12 535.66,251.42 542.89,251.76 551.79,252.16 560.69,252.55 570.70,252.98 580.71,253.39 593.50,253.90 607.40,254.43 622.41,254.98 644.10,255.76 669.12,256.63 694.15,257.47 718.06,258.26 758.65,259.59"/>
<line x1="88" y1="70" x2="110" y2="70" stroke="#0f766e" stroke-width="2.8" stroke-dasharray="6 3"/>
<text x="116" y="74" font-family="Arial, sans-serif" font-size="12">[Pulldown]+[GND Clamp]</text>
<line x1="88" y1="88" x2="110" y2="88" stroke="#7c2d12" stroke-width="2.8" stroke-dasharray="6 3"/>
<text x="116" y="92" font-family="Arial, sans-serif" font-size="12">[Pullup]+[POWER Clamp]</text>
<text x="425.00" y="444.00" text-anchor="middle" font-family="Arial, sans-serif" font-size="12">Table voltage (V)</text>
<text transform="translate(18 226.00) rotate(-90)" text-anchor="middle" font-family="Arial, sans-serif" font-size="12">Current (A)</text>
<text x="420" y="42" font-family="Arial, sans-serif" font-size="11" fill="#555">thick dashed=combined typ curves</text>
</svg>