<svg xmlns="http://www.w3.org/2000/svg" width="800" height="560" viewBox="0 0 800 560">
<rect width="100%" height="100%" fill="#ffffff"/>
<text x="78" y="25" font-family="Arial, sans-serif" font-size="16" font-weight="700">DQ_48_3200 I-V Combined Curves</text>
<rect x="78" y="52" width="694" height="348" fill="#fbfbfb" stroke="#c8c8c8"/>
<line x1="78.00" y1="52" x2="78.00" y2="400" stroke="#ececec"/>
<text x="78.00" y="422" text-anchor="middle" font-family="Arial, sans-serif" font-size="11">-1.3</text>
<line x1="216.80" y1="52" x2="216.80" y2="400" stroke="#ececec"/>
<text x="216.80" y="422" text-anchor="middle" font-family="Arial, sans-serif" font-size="11">-0.523</text>
<line x1="355.60" y1="52" x2="355.60" y2="400" stroke="#ececec"/>
<text x="355.60" y="422" text-anchor="middle" font-family="Arial, sans-serif" font-size="11">0.226</text>
<line x1="494.40" y1="52" x2="494.40" y2="400" stroke="#ececec"/>
<text x="494.40" y="422" text-anchor="middle" font-family="Arial, sans-serif" font-size="11">0.974</text>
<line x1="633.20" y1="52" x2="633.20" y2="400" stroke="#ececec"/>
<text x="633.20" y="422" text-anchor="middle" font-family="Arial, sans-serif" font-size="11">1.7</text>
<line x1="772.00" y1="52" x2="772.00" y2="400" stroke="#ececec"/>
<text x="772.00" y="422" text-anchor="middle" font-family="Arial, sans-serif" font-size="11">2.5</text>
<line x1="78" y1="400.00" x2="772" y2="400.00" stroke="#ececec"/>
<text x="70" y="404.00" text-anchor="end" font-family="Arial, sans-serif" font-size="11">-0.174</text>
<line x1="78" y1="330.40" x2="772" y2="330.40" stroke="#ececec"/>
<text x="70" y="334.40" text-anchor="end" font-family="Arial, sans-serif" font-size="11">-0.102</text>
<line x1="78" y1="260.80" x2="772" y2="260.80" stroke="#ececec"/>
<text x="70" y="264.80" text-anchor="end" font-family="Arial, sans-serif" font-size="11">-0.0303</text>
<line x1="78" y1="191.20" x2="772" y2="191.20" stroke="#ececec"/>
<text x="70" y="195.20" text-anchor="end" font-family="Arial, sans-serif" font-size="11">0.0418</text>
<line x1="78" y1="121.60" x2="772" y2="121.60" stroke="#ececec"/>
<text x="70" y="125.60" text-anchor="end" font-family="Arial, sans-serif" font-size="11">0.114</text>
<line x1="78" y1="52.00" x2="772" y2="52.00" stroke="#ececec"/>
<text x="70" y="56.00" text-anchor="end" font-family="Arial, sans-serif" font-size="11">0.186</text>
<line x1="313.78" y1="52" x2="313.78" y2="400" stroke="#777" stroke-dasharray="4 4"/>
<line x1="78" y1="231.56" x2="772" y2="231.56" stroke="#777" stroke-dasharray="4 4"/>
<line x1="91.35" y1="52" x2="91.35" y2="400" stroke="#555" stroke-dasharray="2 4"/>
<text x="95.35" y="66" font-family="Arial, sans-serif" font-size="11" fill="#555">-Vcc</text>
<line x1="536.22" y1="52" x2="536.22" y2="400" stroke="#555" stroke-dasharray="2 4"/>
<text x="540.22" y="66" font-family="Arial, sans-serif" font-size="11" fill="#555">Vcc</text>
<line x1="758.65" y1="52" x2="758.65" y2="400" stroke="#555" stroke-dasharray="2 4"/>
<text x="762.65" y="66" font-family="Arial, sans-serif" font-size="11" fill="#555">2Vcc</text>
<polyline fill="none" stroke="#0f766e" stroke-width="2.8" opacity="0.95" stroke-dasharray="6 3" points="91.35,376.00 93.01,371.24 94.68,366.51 96.35,361.81 98.02,357.15 99.69,352.52 100.80,349.46 101.91,346.42 103.02,343.40 104.14,340.40 105.25,337.42 105.80,335.94 106.92,333.00 108.03,330.08 109.14,327.19 110.25,324.35 111.37,321.51 111.92,320.11 112.48,318.73 113.59,315.97 114.15,314.59 114.70,313.25 115.26,311.91 115.81,310.57 116.37,309.24 116.93,307.92 117.48,306.64 118.59,304.07 119.15,302.79 119.71,301.56 120.82,299.11 121.38,297.88 121.93,296.69 123.04,294.37 124.16,292.06 125.27,289.89 126.38,287.72 126.94,286.72 128.05,284.75 128.60,283.77 129.16,282.82 130.27,281.05 131.38,279.27 131.94,278.48 133.05,276.90 133.61,276.11 134.17,275.38 135.28,274.04 136.39,272.70 138.06,271.03 138.61,270.47 139.17,269.97 140.84,268.58 141.39,268.13 143.62,266.55 144.17,266.21 145.84,265.23 146.40,264.92 146.96,264.66 147.51,264.40 148.62,263.87 151.40,262.70 153.07,262.09 153.63,261.89 154.74,261.50 157.52,260.60 158.63,260.26 160.86,259.62 163.08,259.01 163.64,258.87 168.09,257.73 171.98,256.83 172.54,256.69 176.98,255.69 179.76,255.09 181.43,254.72 186.44,253.64 191.44,252.58 195.89,251.65 198.67,251.06 199.78,250.84 202.56,250.26 205.34,249.68 205.90,249.57 208.68,249.01 210.91,248.55 212.57,248.23 214.80,247.78 215.91,247.55 217.58,247.23 219.80,246.79 222.03,246.36 223.70,246.03 225.36,245.72 226.48,245.51 229.26,244.99 229.81,244.88 230.92,244.68 233.71,244.17 234.26,244.07 234.82,243.97 235.93,243.77 237.60,243.47 238.15,243.38 240.38,242.99 240.93,242.89 242.05,242.70 243.71,242.42 245.94,242.06 247.05,241.86 250.94,241.23 252.06,241.04 255.39,240.52 257.62,240.16 258.17,240.07 262.62,239.39 267.63,238.60 270.41,238.19 289.87,235.21 293.21,234.69 313.78,231.56 324.90,229.88 336.58,228.14 344.37,226.99 353.82,225.61 363.83,224.16 372.17,222.98 378.29,222.12 385.52,221.11 392.75,220.13 398.31,219.38 403.87,218.64 408.87,217.98 413.32,217.41 419.44,216.63 422.78,216.22 430.00,215.34 433.90,214.87 440.57,214.09 447.80,213.28 451.14,212.91 458.37,212.14 462.26,211.73 470.04,210.93 478.38,210.10 485.61,209.41 492.84,208.73 500.63,208.02 508.97,207.28 514.53,206.80 520.65,206.28 524.54,205.96 530.10,205.51 534.55,205.16 539.00,204.81 543.45,204.48 552.34,203.83 558.46,203.38 568.47,202.71 575.70,202.23 583.49,201.75 588.49,201.45 596.83,200.97 605.17,200.51 612.96,200.10 620.74,199.71 629.08,199.31 637.98,198.89 647.44,198.47 657.45,198.03 668.57,197.57 680.25,197.10 691.92,196.66 698.04,196.43 701.93,196.30 706.38,196.12 718.06,195.70 736.41,195.06 753.09,194.49 758.65,194.31"/>
<polyline fill="none" stroke="#7c2d12" stroke-width="2.8" opacity="0.95" stroke-dasharray="6 3" points="91.35,76.00 91.90,77.52 94.13,83.57 95.79,88.10 96.35,89.62 98.58,95.65 100.24,100.14 100.80,101.63 103.02,107.57 104.69,111.98 105.80,114.90 106.36,116.37 108.03,120.71 109.14,123.59 109.70,125.01 110.25,126.43 111.37,129.27 112.48,132.09 113.59,134.89 114.70,137.66 115.81,140.41 116.93,143.15 117.48,144.49 118.59,147.18 119.15,148.53 119.71,149.84 120.26,151.15 120.82,152.46 121.93,155.06 123.04,157.60 124.16,160.15 124.71,161.38 125.27,162.60 125.82,163.83 126.38,165.06 126.94,166.25 127.49,167.43 128.05,168.60 128.60,169.78 129.16,170.93 130.27,173.17 131.38,175.41 131.94,176.47 132.50,177.53 133.61,179.64 134.17,180.65 134.72,181.62 135.28,182.60 135.83,183.57 136.39,184.53 136.95,185.41 137.50,186.29 138.06,187.17 138.61,188.05 139.17,188.88 140.28,190.46 140.84,191.26 141.39,192.03 143.06,194.13 143.62,194.83 144.17,195.44 145.29,196.63 145.84,197.22 146.40,197.77 146.96,198.25 147.51,198.74 148.62,199.70 150.29,200.95 151.40,201.78 153.07,202.77 153.63,203.10 154.18,203.43 156.96,204.77 158.63,205.45 159.19,205.67 159.75,205.90 162.53,206.87 163.64,207.20 166.97,208.18 168.09,208.51 172.54,209.64 174.20,210.05 176.98,210.70 180.88,211.59 185.88,212.69 190.33,213.65 193.67,214.34 195.89,214.81 199.78,215.60 201.45,215.94 204.79,216.60 205.90,216.82 208.68,217.35 210.91,217.78 213.13,218.19 215.35,218.60 217.58,219.00 218.69,219.21 220.36,219.50 222.03,219.79 222.58,219.89 223.70,220.07 225.36,220.36 225.92,220.45 229.26,221.00 229.81,221.09 230.37,221.18 233.71,221.71 234.26,221.80 234.82,221.88 235.93,222.04 237.60,222.30 238.15,222.38 240.38,222.70 240.93,222.79 242.05,222.95 243.71,223.18 245.94,223.49 246.50,223.57 247.05,223.64 250.94,224.15 252.06,224.31 255.39,224.73 257.62,225.02 258.17,225.09 262.62,225.63 265.40,225.98 270.41,226.57 278.75,227.57 284.87,228.28 295.43,229.50 304.88,230.57 313.23,231.50 313.78,231.56 324.35,232.72 331.58,233.50 340.47,234.45 348.82,235.32 353.26,235.78 361.61,236.62 364.39,236.90 371.62,237.60 374.95,237.93 382.18,238.60 384.96,238.86 389.97,239.31 393.86,239.66 397.75,240.00 403.31,240.47 408.87,240.95 412.77,241.26 420.55,241.89 423.33,242.11 431.12,242.71 438.90,243.29 441.68,243.49 448.91,244.00 451.69,244.19 458.37,244.63 461.70,244.85 468.38,245.27 473.94,245.60 478.94,245.89 485.61,246.27 491.73,246.59 498.96,246.96 506.75,247.34 511.19,247.55 517.87,247.85 525.10,248.17 531.21,248.43 539.55,248.77 549.01,249.13 559.02,249.51 570.14,249.91 577.92,250.19 589.60,250.59 601.84,250.99 615.18,251.41 631.31,251.90 651.88,252.52 676.35,253.24 703.60,254.01 723.06,254.55 758.65,255.54"/>
<line x1="88" y1="70" x2="110" y2="70" stroke="#0f766e" stroke-width="2.8" stroke-dasharray="6 3"/>
<text x="116" y="74" font-family="Arial, sans-serif" font-size="12">[Pulldown]+[GND Clamp]</text>
<line x1="88" y1="88" x2="110" y2="88" stroke="#7c2d12" stroke-width="2.8" stroke-dasharray="6 3"/>
<text x="116" y="92" font-family="Arial, sans-serif" font-size="12">[Pullup]+[POWER Clamp]</text>
<text x="425.00" y="444.00" text-anchor="middle" font-family="Arial, sans-serif" font-size="12">Table voltage (V)</text>
<text transform="translate(18 226.00) rotate(-90)" text-anchor="middle" font-family="Arial, sans-serif" font-size="12">Current (A)</text>
<text x="420" y="42" font-family="Arial, sans-serif" font-size="11" fill="#555">thick dashed=combined typ curves</text>
</svg>