<svg xmlns="http://www.w3.org/2000/svg" width="800" height="520" viewBox="0 0 800 520">
<rect width="100%" height="100%" fill="#ffffff"/>
<text x="78" y="25" font-family="Arial, sans-serif" font-size="16" font-weight="700">DQ_48_3200 I-V Pullup/Pulldown 0 V Detail</text>
<rect x="78" y="54" width="690" height="306" fill="#fbfbfb" stroke="#c8c8c8"/>
<line x1="78.00" y1="54" x2="78.00" y2="360" stroke="#ececec"/>
<text x="78.00" y="382" text-anchor="middle" font-family="Arial, sans-serif" font-size="11">0</text>
<line x1="216.00" y1="54" x2="216.00" y2="360" stroke="#ececec"/>
<text x="216.00" y="382" text-anchor="middle" font-family="Arial, sans-serif" font-size="11">0.24</text>
<line x1="354.00" y1="54" x2="354.00" y2="360" stroke="#ececec"/>
<text x="354.00" y="382" text-anchor="middle" font-family="Arial, sans-serif" font-size="11">0.48</text>
<line x1="492.00" y1="54" x2="492.00" y2="360" stroke="#ececec"/>
<text x="492.00" y="382" text-anchor="middle" font-family="Arial, sans-serif" font-size="11">0.72</text>
<line x1="630.00" y1="54" x2="630.00" y2="360" stroke="#ececec"/>
<text x="630.00" y="382" text-anchor="middle" font-family="Arial, sans-serif" font-size="11">0.96</text>
<line x1="768.00" y1="54" x2="768.00" y2="360" stroke="#ececec"/>
<text x="768.00" y="382" text-anchor="middle" font-family="Arial, sans-serif" font-size="11">1.2</text>
<line x1="78" y1="360.00" x2="768" y2="360.00" stroke="#ececec"/>
<text x="70" y="364.00" text-anchor="end" font-family="Arial, sans-serif" font-size="11">-0.028</text>
<line x1="78" y1="298.80" x2="768" y2="298.80" stroke="#ececec"/>
<text x="70" y="302.80" text-anchor="end" font-family="Arial, sans-serif" font-size="11">-0.0152</text>
<line x1="78" y1="237.60" x2="768" y2="237.60" stroke="#ececec"/>
<text x="70" y="241.60" text-anchor="end" font-family="Arial, sans-serif" font-size="11">-0.00238</text>
<line x1="78" y1="176.40" x2="768" y2="176.40" stroke="#ececec"/>
<text x="70" y="180.40" text-anchor="end" font-family="Arial, sans-serif" font-size="11">0.0104</text>
<line x1="78" y1="115.20" x2="768" y2="115.20" stroke="#ececec"/>
<text x="70" y="119.20" text-anchor="end" font-family="Arial, sans-serif" font-size="11">0.0233</text>
<line x1="78" y1="54.00" x2="768" y2="54.00" stroke="#ececec"/>
<text x="70" y="58.00" text-anchor="end" font-family="Arial, sans-serif" font-size="11">0.0361</text>
<line x1="78.00" y1="54" x2="78.00" y2="360" stroke="#777" stroke-dasharray="4 4"/>
<line x1="78" y1="226.26" x2="768" y2="226.26" stroke="#777" stroke-dasharray="4 4"/>
<line x1="78.00" y1="54" x2="78.00" y2="360" stroke="#555" stroke-dasharray="2 4"/>
<text x="82.00" y="68" font-family="Arial, sans-serif" font-size="11" fill="#555">0V</text>
<line x1="768.00" y1="54" x2="768.00" y2="360" stroke="#555" stroke-dasharray="2 4"/>
<text x="772.00" y="68" font-family="Arial, sans-serif" font-size="11" fill="#555">Vcc</text>
<polyline fill="none" stroke="#1f77b4" stroke-width="1.2" opacity="0.55" stroke-dasharray="4 4" points="78.00,226.26 112.50,218.53 148.73,210.53 172.88,205.26 202.20,198.95 233.25,192.37 259.12,186.97 278.10,183.08 300.52,178.52 322.95,174.03 340.20,170.66 357.45,167.31 372.98,164.35 386.78,161.75 405.75,158.26 416.10,156.38 438.53,152.41 450.60,150.33 471.30,146.82 493.73,143.20 504.08,141.55 526.50,138.11 538.58,136.32 562.73,132.82 588.60,129.25 611.03,126.30 633.45,123.46 657.60,120.55 683.47,117.59 700.73,115.71 719.70,113.72 731.77,112.48 749.02,110.78 762.83,109.47 768.00,108.99"/>
<polyline fill="none" stroke="#1f77b4" stroke-width="1.2" opacity="0.55" stroke-dasharray="4 4" points="78.00,226.26 112.50,217.55 148.73,208.54 172.88,202.61 202.20,195.51 233.25,188.11 259.12,182.05 278.10,177.69 300.52,172.63 322.95,167.69 340.20,163.98 357.45,160.38 372.98,157.20 386.78,154.44 405.75,150.74 416.10,148.76 438.53,144.58 450.60,142.37 471.30,138.66 493.73,134.72 504.08,132.93 526.50,129.11 538.58,127.07 562.73,123.06 588.60,118.82 611.03,115.20 633.45,111.63 657.60,107.82 683.47,103.81 700.73,101.16 719.70,98.28 731.77,96.46 749.02,93.89 762.83,91.85 768.00,91.09"/>
<polyline fill="none" stroke="#1f77b4" stroke-width="2.0" opacity="1.0" points="78.00,226.26 112.50,217.95 148.73,209.34 172.88,203.66 202.20,196.83 233.25,189.70 259.12,183.85 278.10,179.61 300.52,174.64 322.95,169.78 340.20,166.06 357.45,162.43 372.98,159.17 386.78,156.36 405.75,152.50 416.10,150.47 438.53,146.10 450.60,143.82 471.30,139.97 493.73,135.94 504.08,134.13 526.50,130.29 538.58,128.27 562.73,124.33 588.60,120.25 611.03,116.80 633.45,113.46 657.60,109.94 683.47,106.29 700.73,103.93 719.70,101.38 731.77,99.79 749.02,97.55 762.83,95.82 768.00,95.17"/>
<polyline fill="none" stroke="#d62728" stroke-width="1.2" opacity="0.55" stroke-dasharray="4 4" points="78.00,226.26 110.78,231.76 133.20,235.46 160.80,239.94 186.68,244.05 200.47,246.20 226.35,250.15 234.98,251.45 257.40,254.72 267.75,256.21 290.17,259.34 298.80,260.51 314.32,262.57 326.40,264.16 338.48,265.67 355.73,267.83 372.98,269.89 385.05,271.31 409.20,274.03 417.82,274.97 441.98,277.53 466.13,279.93 474.75,280.77 497.18,282.84 505.80,283.61 526.50,285.39 536.85,286.24 557.55,287.89 574.80,289.19 590.33,290.32 611.03,291.77 630.00,293.03 652.43,294.46 676.57,295.93 690.38,296.73 711.07,297.90 733.50,299.13 752.48,300.14 768.00,300.94"/>
<polyline fill="none" stroke="#d62728" stroke-width="1.2" opacity="0.55" stroke-dasharray="4 4" points="78.00,226.26 110.78,232.47 133.20,236.67 160.80,241.78 186.68,246.50 200.47,248.99 226.35,253.59 234.98,255.10 257.40,258.97 267.75,260.73 290.17,264.48 298.80,265.89 314.32,268.40 326.40,270.33 338.48,272.23 355.73,274.90 372.98,277.52 385.05,279.32 409.20,282.86 417.82,284.10 441.98,287.51 466.13,290.83 474.75,291.99 497.18,294.95 505.80,296.07 526.50,298.68 536.85,299.96 557.55,302.45 574.80,304.47 590.33,306.22 611.03,308.48 630.00,310.47 652.43,312.73 676.57,315.05 690.38,316.33 711.07,318.17 733.50,320.10 752.48,321.68 768.00,322.91"/>
<polyline fill="none" stroke="#d62728" stroke-width="2.0" opacity="1.0" points="78.00,226.25 110.78,231.98 133.20,235.83 160.80,240.52 186.68,244.81 200.47,247.09 226.35,251.26 234.98,252.63 257.40,256.11 267.75,257.71 290.17,261.04 298.80,262.32 314.32,264.54 326.40,266.25 338.48,267.95 355.73,270.29 372.98,272.62 385.05,274.18 409.20,277.29 417.82,278.35 441.98,281.33 466.13,284.19 474.75,285.18 497.18,287.70 505.80,288.64 526.50,290.83 536.85,291.90 557.55,293.96 574.80,295.62 590.33,297.06 611.03,298.90 630.00,300.51 652.43,302.34 676.57,304.21 690.38,305.25 711.07,306.74 733.50,308.30 752.48,309.58 768.00,310.59"/>
<circle cx="78.00" cy="226.26" r="4.0" fill="#ffffff" stroke="#1f77b4" stroke-width="1.5"/>
<circle cx="78.00" cy="226.26" r="3.0" fill="#ffffff" stroke="#1f77b4" stroke-width="1.5"/>
<circle cx="78.00" cy="226.26" r="3.0" fill="#ffffff" stroke="#1f77b4" stroke-width="1.5"/>
<circle cx="78.00" cy="226.25" r="4.0" fill="#ffffff" stroke="#d62728" stroke-width="1.5"/>
<circle cx="78.00" cy="226.26" r="3.0" fill="#ffffff" stroke="#d62728" stroke-width="1.5"/>
<circle cx="78.00" cy="226.26" r="3.0" fill="#ffffff" stroke="#d62728" stroke-width="1.5"/>
<line x1="78" y1="226.25" x2="768" y2="226.25" stroke="#b54708" stroke-width="1.4" stroke-dasharray="5 3"/>
<text x="764" y="222.25" text-anchor="end" font-family="Arial, sans-serif" font-size="10" fill="#b54708">+1uA leakage limit</text>
<line x1="78" y1="226.26" x2="768" y2="226.26" stroke="#b54708" stroke-width="1.4" stroke-dasharray="5 3"/>
<text x="764" y="222.26" text-anchor="end" font-family="Arial, sans-serif" font-size="10" fill="#b54708">-1uA leakage limit</text>
<line x1="88" y1="72" x2="110" y2="72" stroke="#1f77b4" stroke-width="2.4"/>
<text x="116" y="76" font-family="Arial, sans-serif" font-size="12">[Pulldown]</text>
<line x1="88" y1="90" x2="110" y2="90" stroke="#d62728" stroke-width="2.4"/>
<text x="116" y="94" font-family="Arial, sans-serif" font-size="12">[Pullup]</text>
<text x="423.00" y="404.00" text-anchor="middle" font-family="Arial, sans-serif" font-size="12">Table voltage (V), zoomed around 0 V</text>
<text transform="translate(18 207.00) rotate(-90)" text-anchor="middle" font-family="Arial, sans-serif" font-size="12">Current (A)</text>
<text x="420" y="42" font-family="Arial, sans-serif" font-size="11" fill="#555">pullup/pulldown curves show typ/min/max; open circles mark I(0 V)</text>
</svg>