<svg xmlns="http://www.w3.org/2000/svg" width="800" height="450" viewBox="0 0 800 450">
<rect width="100%" height="100%" fill="#ffffff"/>
<text x="78" y="25" font-family="Arial, sans-serif" font-size="16" font-weight="700">DQ_40_3200 V-T Waveforms</text>
<rect x="78" y="54" width="694" height="230" fill="#fbfbfb" stroke="#c8c8c8"/>
<text transform="translate(18 169.00) rotate(-90)" text-anchor="middle" font-family="Arial, sans-serif" font-size="12">Voltage (V)</text>
<line x1="78.00" y1="54" x2="78.00" y2="284" stroke="#ececec"/>
<text x="78.00" y="302" text-anchor="middle" font-family="Arial, sans-serif" font-size="10">-8.8p</text>
<line x1="216.80" y1="54" x2="216.80" y2="284" stroke="#ececec"/>
<text x="216.80" y="302" text-anchor="middle" font-family="Arial, sans-serif" font-size="10">82.7p</text>
<line x1="355.60" y1="54" x2="355.60" y2="284" stroke="#ececec"/>
<text x="355.60" y="302" text-anchor="middle" font-family="Arial, sans-serif" font-size="10">174p</text>
<line x1="494.40" y1="54" x2="494.40" y2="284" stroke="#ececec"/>
<text x="494.40" y="302" text-anchor="middle" font-family="Arial, sans-serif" font-size="10">266p</text>
<line x1="633.20" y1="54" x2="633.20" y2="284" stroke="#ececec"/>
<text x="633.20" y="302" text-anchor="middle" font-family="Arial, sans-serif" font-size="10">357p</text>
<line x1="772.00" y1="54" x2="772.00" y2="284" stroke="#ececec"/>
<text x="772.00" y="302" text-anchor="middle" font-family="Arial, sans-serif" font-size="10">449p</text>
<line x1="78" y1="284.00" x2="772" y2="284.00" stroke="#ececec"/>
<text x="70" y="288.00" text-anchor="end" font-family="Arial, sans-serif" font-size="10">-0.104</text>
<line x1="78" y1="226.50" x2="772" y2="226.50" stroke="#ececec"/>
<text x="70" y="230.50" text-anchor="end" font-family="Arial, sans-serif" font-size="10">0.248</text>
<line x1="78" y1="169.00" x2="772" y2="169.00" stroke="#ececec"/>
<text x="70" y="173.00" text-anchor="end" font-family="Arial, sans-serif" font-size="10">0.599</text>
<line x1="78" y1="111.50" x2="772" y2="111.50" stroke="#ececec"/>
<text x="70" y="115.50" text-anchor="end" font-family="Arial, sans-serif" font-size="10">0.951</text>
<line x1="78" y1="54.00" x2="772" y2="54.00" stroke="#ececec"/>
<text x="70" y="58.00" text-anchor="end" font-family="Arial, sans-serif" font-size="10">1.3</text>
<line x1="78" y1="267.06" x2="772" y2="267.06" stroke="#1f77b4" opacity="0.18" stroke-dasharray="3 4"/>
<polyline fill="none" stroke="#1f77b4" stroke-width="2.0" points="91.35,267.06 206.61,267.06 227.84,267.06 246.04,267.06 252.11,267.05 256.66,267.04 261.21,267.04 265.76,267.03 270.31,267.02 274.86,267.02 279.41,267.02 283.96,267.05 286.99,267.08 290.02,267.13 293.06,267.19 296.09,267.26 300.64,267.40 302.15,267.45 303.67,267.50 305.19,267.55 306.70,267.61 308.22,267.66 309.74,267.72 311.25,267.79 312.77,267.85 314.29,267.91 315.80,267.97 317.32,268.03 318.84,268.08 320.35,268.12 321.87,268.14 323.39,268.14 324.90,268.11 326.42,268.05 327.94,267.96 329.45,267.84 330.97,267.67 332.49,267.47 334.00,267.22 335.52,266.94 337.04,266.63 338.55,266.29 340.07,265.90 341.59,265.48 343.10,265.02 344.62,264.53 346.14,264.01 347.65,263.46 349.17,262.88 350.69,262.27 352.20,261.63 353.72,260.96 355.24,260.25 356.75,259.50 358.27,258.71 359.79,257.89 361.30,257.02 362.82,256.12 364.34,255.18 365.85,254.21 367.37,253.21 368.89,252.19 370.40,251.13 371.92,250.07 373.44,248.98 374.95,247.88 376.47,246.77 377.99,245.65 379.50,244.53 381.02,243.40 382.53,242.27 384.05,241.14 385.57,240.01 387.08,238.88 388.60,237.75 391.63,235.50 394.67,233.25 396.18,232.12 397.70,230.97 399.22,229.82 400.73,228.64 402.25,227.44 403.77,226.20 405.28,224.94 406.80,223.65 408.32,222.33 409.83,220.99 411.35,219.63 412.87,218.25 414.38,216.87 415.90,215.47 417.42,214.07 418.93,212.66 420.45,211.25 421.97,209.84 423.48,208.44 425.00,207.03 426.52,205.63 428.03,204.24 429.55,202.86 431.07,201.49 432.58,200.14 434.10,198.80 435.62,197.48 437.13,196.18 438.65,194.90 440.17,193.65 441.68,192.43 443.20,191.24 444.72,190.08 446.23,188.95 447.75,187.85 449.27,186.79 450.78,185.78 452.30,184.77 453.82,183.82 455.33,182.90 456.85,182.00 458.37,181.15 459.88,180.34 461.40,179.55 462.92,178.79 464.43,178.09 465.95,177.40 467.47,176.71 468.98,176.10 470.50,175.48 472.01,174.90 473.53,174.34 475.05,173.82 476.56,173.31 478.08,172.83 479.60,172.37 481.11,171.94 482.63,171.52 484.15,171.14 485.66,170.77 487.18,170.39 488.70,170.04 490.21,169.72 491.73,169.40 493.25,169.11 494.76,168.82 496.28,168.56 497.80,168.30 499.31,168.06 500.83,167.82 502.35,167.60 503.86,167.39 505.38,167.20 506.90,167.02 508.41,166.84 509.93,166.67 511.45,166.49 512.96,166.35 514.48,166.21 516.00,166.06 517.51,165.92 519.03,165.80 520.55,165.68 522.06,165.57 523.58,165.46 525.10,165.36 526.61,165.26 528.13,165.16 529.65,165.08 531.16,164.99 532.68,164.91 534.20,164.84 535.71,164.77 537.23,164.70 538.75,164.64 540.26,164.58 543.30,164.47 544.81,164.42 547.85,164.31 550.88,164.23 553.91,164.15 556.94,164.08 559.98,164.02 563.01,163.96 564.53,163.93 567.56,163.88 572.11,163.81 576.66,163.76 581.21,163.71 585.76,163.67 590.31,163.64 596.38,163.60 602.44,163.57 608.51,163.54 616.09,163.52 625.19,163.49 634.29,163.48 646.42,163.46 660.07,163.45 678.27,163.44 702.54,163.44 740.45,163.44 758.65,163.44"/>
<line x1="78" y1="70.68" x2="772" y2="70.68" stroke="#d62728" opacity="0.18" stroke-dasharray="3 4"/>
<polyline fill="none" stroke="#d62728" stroke-width="2.0" points="91.35,193.26 188.41,193.26 220.26,193.26 229.36,193.26 236.94,193.26 244.52,193.25 252.11,193.25 259.69,193.25 262.72,193.25 264.24,193.25 265.76,193.25 267.27,193.26 268.79,193.26 270.31,193.26 271.82,193.27 273.34,193.27 274.86,193.28 276.37,193.28 277.89,193.29 279.41,193.30 280.92,193.31 282.44,193.32 283.96,193.33 285.47,193.34 286.99,193.35 288.51,193.36 290.02,193.36 291.54,193.36 293.06,193.36 294.57,193.35 296.09,193.34 297.60,193.31 299.12,193.27 300.64,193.22 302.15,193.16 303.67,193.07 305.19,192.97 306.70,192.84 308.22,192.69 309.74,192.50 311.25,192.28 312.77,192.02 314.29,191.71 315.80,191.35 317.32,190.95 318.84,190.48 320.35,189.96 321.87,189.39 323.39,188.75 324.90,188.06 326.42,187.32 327.94,186.53 329.45,185.70 330.97,184.82 332.49,183.90 334.00,182.94 335.52,181.94 337.04,180.90 338.55,179.81 340.07,178.67 341.59,177.49 343.10,176.24 344.62,174.95 346.14,173.60 347.65,172.21 349.17,170.76 350.69,169.26 352.20,167.74 353.72,166.18 355.24,164.61 356.75,163.01 358.27,161.42 359.79,159.81 361.30,158.22 362.82,156.63 364.34,155.05 365.85,153.49 367.37,151.95 368.89,150.41 370.40,148.89 371.92,147.39 373.44,145.89 374.95,144.40 376.47,142.91 377.99,141.43 379.50,139.95 381.02,138.47 382.53,136.98 384.05,135.50 385.57,134.00 387.08,132.49 388.60,130.97 390.12,129.42 391.63,127.86 393.15,126.27 394.67,124.66 396.18,123.02 397.70,121.36 399.22,119.68 400.73,117.99 402.25,116.28 403.77,114.56 405.28,112.83 406.80,111.11 408.32,109.39 409.83,107.68 411.35,105.99 412.87,104.33 414.38,102.76 415.90,101.12 417.42,99.48 418.93,98.01 420.45,96.54 421.97,95.23 423.48,93.75 425.00,92.61 426.52,91.30 428.03,90.15 429.55,89.01 431.07,88.03 432.58,87.05 434.10,86.06 435.62,85.24 437.13,84.43 438.65,83.61 440.17,82.79 441.68,82.14 443.20,81.48 444.72,80.83 446.23,80.17 447.75,79.68 449.27,79.19 450.78,78.70 452.30,78.21 453.82,77.72 455.33,77.39 456.85,76.90 458.37,76.57 459.88,76.24 461.40,75.92 462.92,75.59 464.43,75.26 465.95,75.10 467.47,74.77 468.98,74.44 470.50,74.28 472.01,74.12 473.53,73.95 475.05,73.63 476.56,73.46 478.08,73.30 479.60,73.14 481.11,73.14 482.63,72.97 484.15,72.81 485.66,72.64 487.18,72.48 488.70,72.48 490.21,72.32 491.73,72.32 493.25,72.15 494.76,72.15 496.28,71.99 497.80,71.99 499.31,71.83 500.83,71.83 502.35,71.66 503.86,71.66 505.38,71.66 506.90,71.50 508.41,71.50 511.45,71.50 512.96,71.33 516.00,71.33 517.51,71.33 520.55,71.17 522.06,71.17 525.10,71.17 528.13,71.01 531.16,71.01 532.68,71.01 537.23,71.01 541.78,71.01 546.33,70.84 547.85,70.84 552.40,70.84 558.46,70.84 564.53,70.84 572.11,70.68 579.69,70.68 588.79,70.68 599.41,70.68 613.06,70.68 629.74,70.68 652.49,70.68 690.41,70.68 758.65,70.68"/>
<line x1="78" y1="70.68" x2="772" y2="70.68" stroke="#2ca02c" opacity="0.18" stroke-dasharray="3 4"/>
<polyline fill="none" stroke="#2ca02c" stroke-width="2.0" points="91.35,70.68 188.41,70.68 215.71,70.68 229.36,70.68 246.04,70.68 255.14,70.68 259.69,70.68 262.72,70.68 265.76,70.68 267.27,70.68 268.79,70.68 270.31,70.68 271.82,70.68 273.34,70.68 274.86,70.68 276.37,70.68 279.41,70.68 282.44,70.68 286.99,70.68 290.02,70.68 291.54,70.68 293.06,70.68 294.57,70.68 296.09,70.68 297.60,70.68 299.12,70.68 300.64,70.68 302.15,70.52 303.67,70.52 305.19,70.52 306.70,70.52 308.22,70.35 309.74,70.35 311.25,70.19 312.77,70.19 314.29,70.19 315.80,70.03 317.32,70.03 318.84,70.03 320.35,69.86 321.87,69.86 323.39,69.86 324.90,70.03 326.42,70.03 327.94,70.19 329.45,70.52 330.97,70.84 332.49,71.17 334.00,71.50 335.52,71.99 337.04,72.48 338.55,73.14 340.07,73.79 341.59,74.61 343.10,75.26 344.62,76.24 346.14,77.06 347.65,78.04 349.17,78.86 350.69,80.01 352.20,80.99 353.72,82.14 355.24,83.28 356.75,84.59 358.27,85.90 359.79,87.37 361.30,88.85 362.82,90.32 364.34,91.95 365.85,93.59 367.37,95.23 368.89,97.03 370.40,98.83 371.92,100.63 373.44,102.43 374.95,104.20 376.47,106.05 377.99,107.90 379.50,109.75 381.02,111.59 382.53,113.41 384.05,115.21 385.57,116.97 387.08,118.69 388.60,120.37 390.12,122.00 391.63,123.58 393.15,125.11 394.67,126.60 396.18,128.03 397.70,129.41 399.22,130.75 400.73,132.06 402.25,133.34 403.77,134.59 405.28,135.85 406.80,137.11 408.32,138.39 409.83,139.71 411.35,141.06 412.87,142.46 414.38,143.91 415.90,145.42 417.42,146.98 418.93,148.58 420.45,150.23 421.97,151.92 423.48,153.64 425.00,155.38 426.52,157.13 428.03,158.89 429.55,160.63 431.07,162.35 432.58,164.04 434.10,165.68 435.62,167.27 437.13,168.79 438.65,170.26 440.17,171.65 441.68,172.98 443.20,174.24 444.72,175.44 446.23,176.57 447.75,177.64 449.27,178.64 450.78,179.57 452.30,180.48 453.82,181.31 455.33,182.10 456.85,182.85 458.37,183.54 459.88,184.19 461.40,184.80 462.92,185.38 464.43,185.88 465.95,186.38 467.47,186.87 468.98,187.28 470.50,187.69 472.01,188.08 473.53,188.43 475.05,188.76 476.56,189.07 478.08,189.36 479.60,189.63 481.11,189.88 482.63,190.11 484.15,190.31 485.66,190.51 487.18,190.71 488.70,190.89 490.21,191.05 491.73,191.21 493.25,191.35 494.76,191.49 496.28,191.61 497.80,191.72 499.31,191.83 500.83,191.93 502.35,192.02 503.86,192.11 505.38,192.19 506.90,192.25 508.41,192.32 509.93,192.39 511.45,192.46 512.96,192.51 514.48,192.56 516.00,192.61 517.51,192.65 519.03,192.69 520.55,192.73 522.06,192.77 523.58,192.80 525.10,192.84 526.61,192.87 528.13,192.89 529.65,192.92 531.16,192.94 532.68,192.97 535.71,193.00 537.23,193.02 540.26,193.05 543.30,193.08 546.33,193.10 547.85,193.12 550.88,193.13 555.43,193.16 559.98,193.18 564.53,193.19 569.08,193.21 575.14,193.22 582.73,193.23 590.31,193.24 600.93,193.25 614.58,193.25 632.78,193.26 663.11,193.26 746.52,193.26 758.65,193.26"/>
<line x1="78" y1="267.06" x2="772" y2="267.06" stroke="#9467bd" opacity="0.18" stroke-dasharray="3 4"/>
<polyline fill="none" stroke="#9467bd" stroke-width="2.0" points="91.35,163.43 197.51,163.43 212.67,163.43 233.91,163.43 239.97,163.43 244.52,163.43 249.07,163.43 252.11,163.43 255.14,163.44 258.17,163.44 259.69,163.44 261.21,163.44 262.72,163.44 264.24,163.44 265.76,163.44 267.27,163.45 268.79,163.45 271.82,163.45 277.89,163.46 279.41,163.46 280.92,163.46 282.44,163.46 283.96,163.45 285.47,163.45 286.99,163.45 288.51,163.44 290.02,163.43 291.54,163.42 293.06,163.40 294.57,163.39 296.09,163.36 297.60,163.34 299.12,163.31 300.64,163.28 302.15,163.24 303.67,163.20 305.19,163.16 306.70,163.12 308.22,163.08 309.74,163.05 311.25,163.02 312.77,163.00 314.29,162.98 315.80,162.98 317.32,163.00 318.84,163.03 320.35,163.09 321.87,163.18 323.39,163.31 324.90,163.50 326.42,163.75 327.94,164.07 329.45,164.48 330.97,164.98 332.49,165.58 334.00,166.28 335.52,167.06 337.04,167.94 338.55,168.91 340.07,169.96 341.59,171.08 343.10,172.28 344.62,173.53 346.14,174.82 347.65,176.15 349.17,177.52 350.69,178.91 352.20,180.32 353.72,181.76 355.24,183.23 356.75,184.73 358.27,186.28 359.79,187.87 361.30,189.52 362.82,191.21 364.34,192.96 365.85,194.74 367.37,196.57 368.89,198.43 370.40,200.30 371.92,202.18 373.44,204.05 374.95,205.90 376.47,207.72 377.99,209.49 379.50,211.21 381.02,212.86 382.53,214.46 384.05,216.00 385.57,217.47 387.08,218.87 388.60,220.21 390.12,221.50 391.63,222.72 393.15,223.90 394.67,225.03 396.18,226.12 397.70,227.18 399.22,228.22 400.73,229.24 402.25,230.26 403.77,231.27 405.28,232.30 406.80,233.34 408.32,234.41 409.83,235.52 411.35,236.67 412.87,237.86 414.38,239.08 415.90,240.33 417.42,241.60 418.93,242.87 420.45,244.13 421.97,245.38 423.48,246.61 425.00,247.81 426.52,248.98 428.03,250.11 429.55,251.21 431.07,252.27 432.58,253.28 434.10,254.25 435.62,255.16 437.13,256.02 438.65,256.83 440.17,257.58 441.68,258.29 443.20,258.94 444.72,259.54 446.23,260.11 447.75,260.63 449.27,261.11 450.78,261.54 452.30,261.97 453.82,262.35 455.33,262.70 456.85,263.03 458.37,263.34 459.88,263.62 461.40,263.88 462.92,264.12 464.43,264.33 465.95,264.53 467.47,264.74 468.98,264.90 470.50,265.06 472.01,265.22 473.53,265.36 475.05,265.48 476.56,265.60 478.08,265.71 479.60,265.82 481.11,265.91 482.63,266.00 484.15,266.07 485.66,266.14 487.18,266.21 488.70,266.28 490.21,266.34 491.73,266.39 493.25,266.44 494.76,266.49 496.28,266.53 497.80,266.57 499.31,266.61 500.83,266.64 502.35,266.67 503.86,266.70 505.38,266.73 506.90,266.75 508.41,266.77 509.93,266.80 511.45,266.82 512.96,266.83 514.48,266.85 516.00,266.87 517.51,266.88 520.55,266.91 522.06,266.92 525.10,266.94 528.13,266.96 531.16,266.97 534.20,266.98 537.23,266.99 541.78,267.01 546.33,267.02 549.36,267.02 555.43,267.03 561.49,267.04 569.08,267.04 578.18,267.05 590.31,267.05 606.99,267.06 634.29,267.06 708.61,267.06 758.65,267.06"/>
<line x1="88" y1="72" x2="110" y2="72" stroke="#1f77b4" stroke-width="2.4"/>
<text x="116" y="76" font-family="Arial, sans-serif" font-size="12">rising #1</text>
<line x1="88" y1="90" x2="110" y2="90" stroke="#d62728" stroke-width="2.4"/>
<text x="116" y="94" font-family="Arial, sans-serif" font-size="12">rising #2</text>
<line x1="88" y1="108" x2="110" y2="108" stroke="#2ca02c" stroke-width="2.4"/>
<text x="116" y="112" font-family="Arial, sans-serif" font-size="12">falling #3</text>
<line x1="88" y1="126" x2="110" y2="126" stroke="#9467bd" stroke-width="2.4"/>
<text x="116" y="130" font-family="Arial, sans-serif" font-size="12">falling #4</text>
<text x="425.00" y="322.00" text-anchor="middle" font-family="Arial, sans-serif" font-size="12">Time (s)</text>
<text x="420" y="42" font-family="Arial, sans-serif" font-size="11" fill="#555">solid=V-T voltage, faint horizontal=V_fixture</text>
</svg>