<svg xmlns="http://www.w3.org/2000/svg" width="800" height="450" viewBox="0 0 800 450">
<rect width="100%" height="100%" fill="#ffffff"/>
<text x="78" y="25" font-family="Arial, sans-serif" font-size="16" font-weight="700">DQS_34_3200 V-T Waveforms</text>
<rect x="78" y="54" width="694" height="230" fill="#fbfbfb" stroke="#c8c8c8"/>
<text transform="translate(18 169.00) rotate(-90)" text-anchor="middle" font-family="Arial, sans-serif" font-size="12">Voltage (V)</text>
<line x1="78.00" y1="54" x2="78.00" y2="284" stroke="#ececec"/>
<text x="78.00" y="302" text-anchor="middle" font-family="Arial, sans-serif" font-size="10">-8.8p</text>
<line x1="216.80" y1="54" x2="216.80" y2="284" stroke="#ececec"/>
<text x="216.80" y="302" text-anchor="middle" font-family="Arial, sans-serif" font-size="10">82.7p</text>
<line x1="355.60" y1="54" x2="355.60" y2="284" stroke="#ececec"/>
<text x="355.60" y="302" text-anchor="middle" font-family="Arial, sans-serif" font-size="10">174p</text>
<line x1="494.40" y1="54" x2="494.40" y2="284" stroke="#ececec"/>
<text x="494.40" y="302" text-anchor="middle" font-family="Arial, sans-serif" font-size="10">266p</text>
<line x1="633.20" y1="54" x2="633.20" y2="284" stroke="#ececec"/>
<text x="633.20" y="302" text-anchor="middle" font-family="Arial, sans-serif" font-size="10">357p</text>
<line x1="772.00" y1="54" x2="772.00" y2="284" stroke="#ececec"/>
<text x="772.00" y="302" text-anchor="middle" font-family="Arial, sans-serif" font-size="10">449p</text>
<line x1="78" y1="284.00" x2="772" y2="284.00" stroke="#ececec"/>
<text x="70" y="288.00" text-anchor="end" font-family="Arial, sans-serif" font-size="10">-0.105</text>
<line x1="78" y1="226.50" x2="772" y2="226.50" stroke="#ececec"/>
<text x="70" y="230.50" text-anchor="end" font-family="Arial, sans-serif" font-size="10">0.247</text>
<line x1="78" y1="169.00" x2="772" y2="169.00" stroke="#ececec"/>
<text x="70" y="173.00" text-anchor="end" font-family="Arial, sans-serif" font-size="10">0.599</text>
<line x1="78" y1="111.50" x2="772" y2="111.50" stroke="#ececec"/>
<text x="70" y="115.50" text-anchor="end" font-family="Arial, sans-serif" font-size="10">0.951</text>
<line x1="78" y1="54.00" x2="772" y2="54.00" stroke="#ececec"/>
<text x="70" y="58.00" text-anchor="end" font-family="Arial, sans-serif" font-size="10">1.3</text>
<line x1="78" y1="266.81" x2="772" y2="266.81" stroke="#1f77b4" opacity="0.18" stroke-dasharray="3 4"/>
<polyline fill="none" stroke="#1f77b4" stroke-width="2.0" points="91.35,266.81 199.03,266.81 217.22,266.81 235.42,266.81 243.01,266.81 247.56,266.80 252.11,266.79 256.66,266.78 261.21,266.77 265.76,266.76 270.31,266.76 274.86,266.77 277.89,266.79 280.92,266.83 283.96,266.88 286.99,266.96 290.02,267.05 293.06,267.15 296.09,267.27 297.60,267.34 299.12,267.41 300.64,267.48 302.15,267.55 303.67,267.62 305.19,267.70 306.70,267.77 308.22,267.85 309.74,267.92 311.25,267.98 312.77,268.04 314.29,268.09 315.80,268.12 317.32,268.14 318.84,268.13 320.35,268.10 321.87,268.03 323.39,267.92 324.90,267.77 326.42,267.57 327.94,267.32 329.45,267.01 330.97,266.66 332.49,266.26 334.00,265.80 335.52,265.28 337.04,264.71 338.55,264.08 340.07,263.41 341.59,262.70 343.10,261.94 344.62,261.15 346.14,260.32 347.65,259.46 349.17,258.57 350.69,257.65 352.20,256.70 353.72,255.71 355.24,254.69 356.75,253.63 358.27,252.54 359.79,251.41 361.30,250.25 362.82,249.06 364.34,247.84 365.85,246.59 367.37,245.33 368.89,244.04 370.40,242.75 371.92,241.44 373.44,240.13 374.95,238.81 376.47,237.49 377.99,236.17 379.50,234.85 381.02,233.53 382.53,232.22 384.05,230.91 387.08,228.32 390.12,225.75 393.15,223.18 394.67,221.90 396.18,220.61 397.70,219.31 399.22,218.00 400.73,216.66 402.25,215.31 403.77,213.93 405.28,212.52 406.80,211.10 408.32,209.66 409.83,208.21 411.35,206.75 414.38,203.82 415.90,202.36 417.42,200.90 418.93,199.44 420.45,198.00 421.97,196.56 423.48,195.14 425.00,193.73 426.52,192.33 428.03,190.95 429.55,189.58 431.07,188.24 432.58,186.91 434.10,185.61 435.62,184.34 437.13,183.09 438.65,181.87 440.17,180.68 441.68,179.52 443.20,178.40 444.72,177.32 446.23,176.27 447.75,175.25 449.27,174.28 450.78,173.36 452.30,172.45 453.82,171.59 455.33,170.76 456.85,169.97 458.37,169.22 459.88,168.50 461.40,167.81 462.92,167.15 464.43,166.56 465.95,165.96 467.47,165.38 468.98,164.86 470.50,164.34 472.01,163.85 473.53,163.38 475.05,162.95 476.56,162.53 478.08,162.14 479.60,161.76 481.11,161.41 482.63,161.08 484.15,160.77 485.66,160.47 487.18,160.17 488.70,159.90 490.21,159.64 491.73,159.39 493.25,159.17 494.76,158.94 496.28,158.74 497.80,158.54 499.31,158.36 500.83,158.18 502.35,158.01 503.86,157.86 505.38,157.71 506.90,157.58 508.41,157.45 509.93,157.32 511.45,157.19 512.96,157.09 514.48,156.98 516.00,156.88 517.51,156.78 519.03,156.69 520.55,156.61 522.06,156.52 523.58,156.45 525.10,156.38 526.61,156.31 528.13,156.25 529.65,156.19 532.68,156.07 535.71,155.97 538.75,155.89 540.26,155.85 541.78,155.81 544.81,155.74 547.85,155.68 550.88,155.62 553.91,155.57 558.46,155.51 561.49,155.47 566.04,155.42 570.59,155.38 575.14,155.34 581.21,155.31 587.28,155.28 594.86,155.25 602.44,155.23 611.54,155.21 622.16,155.19 635.81,155.18 652.49,155.17 675.24,155.17 713.16,155.17 758.65,155.17"/>
<line x1="78" y1="70.84" x2="772" y2="70.84" stroke="#d62728" opacity="0.18" stroke-dasharray="3 4"/>
<polyline fill="none" stroke="#d62728" stroke-width="2.0" points="91.35,200.38 182.34,200.38 215.71,200.38 223.29,200.38 229.36,200.38 235.42,200.38 243.01,200.38 250.59,200.37 253.62,200.37 256.66,200.37 258.17,200.37 259.69,200.37 261.21,200.37 262.72,200.37 264.24,200.38 265.76,200.38 267.27,200.39 268.79,200.39 270.31,200.40 271.82,200.41 273.34,200.41 274.86,200.42 276.37,200.43 277.89,200.44 279.41,200.45 280.92,200.46 282.44,200.47 283.96,200.48 285.47,200.48 286.99,200.48 288.51,200.47 290.02,200.45 291.54,200.42 293.06,200.38 294.57,200.32 296.09,200.25 297.60,200.15 299.12,200.03 300.64,199.89 302.15,199.72 303.67,199.52 305.19,199.29 306.70,199.02 308.22,198.71 309.74,198.36 311.25,197.96 312.77,197.51 314.29,197.00 315.80,196.43 317.32,195.80 318.84,195.09 320.35,194.32 321.87,193.47 323.39,192.56 324.90,191.59 326.42,190.56 327.94,189.47 329.45,188.33 330.97,187.15 332.49,185.92 334.00,184.65 335.52,183.33 337.04,181.97 338.55,180.55 340.07,179.10 341.59,177.59 343.10,176.03 344.62,174.41 346.14,172.74 347.65,171.03 349.17,169.26 350.69,167.47 352.20,165.65 353.72,163.80 355.24,161.95 356.75,160.10 358.27,158.25 359.79,156.42 361.30,154.60 362.82,152.81 364.34,151.04 365.85,149.31 367.37,147.60 368.89,145.92 370.40,144.27 371.92,142.64 373.44,141.03 374.95,139.44 376.47,137.86 377.99,136.30 379.50,134.75 381.02,133.20 382.53,131.66 384.05,130.13 385.57,128.59 387.08,127.05 388.60,125.50 390.12,123.94 391.63,122.36 393.15,120.77 394.67,119.16 396.18,117.53 397.70,115.89 399.22,114.24 400.73,112.58 402.25,110.91 403.77,109.24 405.28,107.58 406.80,105.92 408.32,104.27 409.83,102.69 411.35,101.05 412.87,99.42 414.38,97.95 415.90,96.48 417.42,95.01 418.93,93.54 420.45,92.24 421.97,90.93 423.48,89.79 425.00,88.64 426.52,87.50 428.03,86.52 429.55,85.54 431.07,84.72 432.58,83.74 434.10,82.93 435.62,82.27 437.13,81.46 438.65,80.80 440.17,80.15 441.68,79.66 443.20,79.01 444.72,78.52 446.23,78.03 447.75,77.54 449.27,77.21 450.78,76.72 452.30,76.39 453.82,76.07 455.33,75.74 456.85,75.41 458.37,75.09 459.88,74.76 461.40,74.60 462.92,74.27 464.43,74.11 465.95,73.94 467.47,73.78 468.98,73.62 470.50,73.29 472.01,73.13 473.53,73.13 475.05,72.96 476.56,72.80 478.08,72.64 479.60,72.64 481.11,72.47 482.63,72.31 484.15,72.31 485.66,72.15 487.18,72.15 488.70,71.99 490.21,71.99 491.73,71.82 493.25,71.82 494.76,71.82 496.28,71.66 497.80,71.66 499.31,71.66 500.83,71.50 502.35,71.50 503.86,71.50 505.38,71.50 508.41,71.33 511.45,71.33 512.96,71.33 516.00,71.17 517.51,71.17 520.55,71.17 522.06,71.17 526.61,71.17 531.16,71.01 535.71,71.01 540.26,71.01 544.81,71.01 550.88,71.01 556.94,70.84 564.53,70.84 573.63,70.84 584.24,70.84 596.38,70.84 613.06,70.84 635.81,70.84 675.24,70.84 758.65,70.84"/>
<line x1="78" y1="70.84" x2="772" y2="70.84" stroke="#2ca02c" opacity="0.18" stroke-dasharray="3 4"/>
<polyline fill="none" stroke="#2ca02c" stroke-width="2.0" points="91.35,70.84 182.34,70.84 208.12,70.84 221.77,70.84 232.39,70.84 246.04,70.84 250.59,70.84 253.62,70.84 256.66,70.84 259.69,70.84 261.21,70.84 262.72,70.84 264.24,70.84 265.76,70.84 267.27,70.84 268.79,70.84 270.31,70.84 271.82,70.84 273.34,70.84 274.86,70.84 276.37,70.84 279.41,70.84 283.96,70.84 285.47,70.84 286.99,70.84 288.51,70.84 290.02,70.84 291.54,70.84 293.06,70.84 294.57,70.84 296.09,70.84 297.60,70.68 299.12,70.68 300.64,70.68 302.15,70.52 303.67,70.52 305.19,70.35 306.70,70.35 308.22,70.19 309.74,70.19 311.25,70.03 312.77,70.03 314.29,70.03 315.80,69.86 317.32,69.86 318.84,70.03 320.35,70.03 321.87,70.19 323.39,70.52 324.90,70.68 326.42,71.17 327.94,71.50 329.45,71.99 330.97,72.64 332.49,73.29 334.00,74.11 335.52,75.09 337.04,76.07 338.55,77.21 340.07,78.35 341.59,79.66 343.10,80.80 344.62,82.11 346.14,83.58 347.65,84.89 349.17,86.36 350.69,87.99 352.20,89.46 353.72,91.09 355.24,92.72 356.75,94.52 358.27,96.15 359.79,97.95 361.30,99.91 362.82,101.87 364.34,103.76 365.85,105.75 367.37,107.77 368.89,109.81 370.40,111.87 371.92,113.95 373.44,116.03 374.95,118.12 376.47,120.20 377.99,122.28 379.50,124.33 381.02,126.36 382.53,128.34 384.05,130.29 385.57,132.19 387.08,134.03 388.60,135.80 390.12,137.51 391.63,139.16 393.15,140.74 394.67,142.25 396.18,143.69 397.70,145.08 399.22,146.42 400.73,147.71 402.25,148.96 403.77,150.19 405.28,151.40 406.80,152.62 408.32,153.85 409.83,155.11 411.35,156.41 412.87,157.75 414.38,159.14 415.90,160.57 417.42,162.05 418.93,163.57 420.45,165.13 421.97,166.73 423.48,168.34 425.00,169.97 426.52,171.59 428.03,173.21 429.55,174.81 431.07,176.37 432.58,177.88 434.10,179.34 435.62,180.73 437.13,182.06 438.65,183.32 440.17,184.51 441.68,185.63 443.20,186.68 444.72,187.66 446.23,188.58 447.75,189.44 449.27,190.24 450.78,190.97 452.30,191.68 453.82,192.32 455.33,192.92 456.85,193.48 458.37,194.00 459.88,194.47 461.40,194.92 462.92,195.33 464.43,195.69 465.95,196.04 467.47,196.39 468.98,196.67 470.50,196.96 472.01,197.22 473.53,197.46 475.05,197.68 476.56,197.89 478.08,198.08 479.60,198.26 481.11,198.42 482.63,198.56 484.15,198.69 485.66,198.82 487.18,198.95 488.70,199.06 490.21,199.16 491.73,199.25 493.25,199.34 494.76,199.42 496.28,199.49 497.80,199.56 499.31,199.62 500.83,199.68 502.35,199.74 503.86,199.78 505.38,199.83 506.90,199.87 508.41,199.90 509.93,199.94 511.45,199.98 512.96,200.01 514.48,200.04 516.00,200.06 517.51,200.09 519.03,200.11 520.55,200.13 522.06,200.15 523.58,200.17 526.61,200.20 529.65,200.23 532.68,200.25 535.71,200.27 540.26,200.30 543.30,200.31 547.85,200.32 552.40,200.34 558.46,200.35 564.53,200.36 572.11,200.37 581.21,200.37 593.34,200.38 610.03,200.38 635.81,200.38 699.51,200.38 758.65,200.38"/>
<line x1="78" y1="266.81" x2="772" y2="266.81" stroke="#9467bd" opacity="0.18" stroke-dasharray="3 4"/>
<polyline fill="none" stroke="#9467bd" stroke-width="2.0" points="91.35,155.17 177.79,155.17 195.99,155.17 208.12,155.17 220.26,155.16 230.87,155.16 235.42,155.16 239.97,155.16 243.01,155.16 246.04,155.16 249.07,155.16 250.59,155.16 252.11,155.17 253.62,155.17 255.14,155.17 256.66,155.17 258.17,155.17 259.69,155.17 261.21,155.18 262.72,155.18 264.24,155.18 265.76,155.18 268.79,155.19 273.34,155.20 274.86,155.20 276.37,155.20 277.89,155.20 279.41,155.19 280.92,155.19 282.44,155.18 283.96,155.18 285.47,155.16 286.99,155.15 288.51,155.13 290.02,155.11 291.54,155.08 293.06,155.05 294.57,155.01 296.09,154.97 297.60,154.93 299.12,154.88 300.64,154.83 302.15,154.78 303.67,154.73 305.19,154.68 306.70,154.64 308.22,154.61 309.74,154.59 311.25,154.58 312.77,154.60 314.29,154.65 315.80,154.73 317.32,154.85 318.84,155.03 320.35,155.27 321.87,155.58 323.39,155.97 324.90,156.46 326.42,157.06 327.94,157.77 329.45,158.61 330.97,159.56 332.49,160.65 334.00,161.86 335.52,163.19 337.04,164.63 338.55,166.18 340.07,167.80 341.59,169.51 343.10,171.28 344.62,173.10 346.14,174.96 347.65,176.83 349.17,178.72 350.69,180.60 352.20,182.49 353.72,184.37 355.24,186.24 356.75,188.13 358.27,190.02 359.79,191.93 361.30,193.86 362.82,195.82 364.34,197.79 365.85,199.79 367.37,201.79 368.89,203.80 370.40,205.81 371.92,207.80 373.44,209.76 374.95,211.67 376.47,213.53 377.99,215.32 379.50,217.05 381.02,218.71 382.53,220.29 384.05,221.80 385.57,223.24 387.08,224.60 388.60,225.89 390.12,227.12 391.63,228.29 393.15,229.40 394.67,230.46 396.18,231.48 397.70,232.46 399.22,233.42 400.73,234.35 402.25,235.28 403.77,236.20 405.28,237.13 406.80,238.07 408.32,239.04 409.83,240.04 411.35,241.08 412.87,242.15 414.38,243.25 415.90,244.37 417.42,245.50 418.93,246.63 420.45,247.74 421.97,248.85 423.48,249.93 425.00,250.98 426.52,252.01 428.03,253.01 429.55,253.98 431.07,254.90 432.58,255.79 434.10,256.63 435.62,257.42 437.13,258.17 438.65,258.86 440.17,259.51 441.68,260.10 443.20,260.66 444.72,261.16 446.23,261.63 447.75,262.06 449.27,262.46 450.78,262.80 452.30,263.14 453.82,263.44 455.33,263.72 456.85,263.98 458.37,264.22 459.88,264.43 461.40,264.63 462.92,264.81 464.43,264.96 465.95,265.12 467.47,265.26 468.98,265.38 470.50,265.50 472.01,265.61 473.53,265.71 475.05,265.80 476.56,265.88 478.08,265.96 479.60,266.03 481.11,266.09 482.63,266.15 484.15,266.20 485.66,266.25 487.18,266.30 488.70,266.34 490.21,266.38 491.73,266.42 493.25,266.45 494.76,266.48 496.28,266.50 497.80,266.53 499.31,266.55 500.83,266.57 502.35,266.59 503.86,266.61 505.38,266.63 506.90,266.64 508.41,266.65 511.45,266.68 512.96,266.69 516.00,266.71 517.51,266.72 520.55,266.73 522.06,266.74 525.10,266.75 529.65,266.76 534.20,266.77 538.75,266.78 544.81,266.79 550.88,266.79 558.46,266.80 567.56,266.80 579.69,266.81 597.89,266.81 629.74,266.81 758.65,266.81"/>
<line x1="88" y1="72" x2="110" y2="72" stroke="#1f77b4" stroke-width="2.4"/>
<text x="116" y="76" font-family="Arial, sans-serif" font-size="12">rising #1</text>
<line x1="88" y1="90" x2="110" y2="90" stroke="#d62728" stroke-width="2.4"/>
<text x="116" y="94" font-family="Arial, sans-serif" font-size="12">rising #2</text>
<line x1="88" y1="108" x2="110" y2="108" stroke="#2ca02c" stroke-width="2.4"/>
<text x="116" y="112" font-family="Arial, sans-serif" font-size="12">falling #3</text>
<line x1="88" y1="126" x2="110" y2="126" stroke="#9467bd" stroke-width="2.4"/>
<text x="116" y="130" font-family="Arial, sans-serif" font-size="12">falling #4</text>
<text x="425.00" y="322.00" text-anchor="middle" font-family="Arial, sans-serif" font-size="12">Time (s)</text>
<text x="420" y="42" font-family="Arial, sans-serif" font-size="11" fill="#555">solid=V-T voltage, faint horizontal=V_fixture</text>
</svg>