<svg xmlns="http://www.w3.org/2000/svg" width="900" height="620" viewBox="0 0 900 620">
<rect width="100%" height="100%" fill="#ffffff"/>
<text x="72" y="26" font-family="Arial, sans-serif" font-size="16" font-weight="700">DQ_34_3200 Zout Load-Line Curves</text>
<text x="72" y="45" font-family="Arial, sans-serif" font-size="11" fill="#555">Rload=50 ohm; solid=device I-V, dashed=load line, circles=operating points</text>
<rect x="72.00" y="62.00" width="380.00" height="286.00" fill="#fbfbfb" stroke="#c8c8c8"/>
<text x="80.00" y="50.00" font-family="Arial, sans-serif" font-size="13" font-weight="700">[Pulldown] Rload to Vdd</text>
<line x1="72.00" y1="62.00" x2="72.00" y2="348.00" stroke="#ececec"/>
<text x="72.00" y="366.00" text-anchor="middle" font-family="Arial, sans-serif" font-size="10">-1.3</text>
<line x1="167.00" y1="62.00" x2="167.00" y2="348.00" stroke="#ececec"/>
<text x="167.00" y="366.00" text-anchor="middle" font-family="Arial, sans-serif" font-size="10">-0.372</text>
<line x1="262.00" y1="62.00" x2="262.00" y2="348.00" stroke="#ececec"/>
<text x="262.00" y="366.00" text-anchor="middle" font-family="Arial, sans-serif" font-size="10">0.6</text>
<line x1="357.00" y1="62.00" x2="357.00" y2="348.00" stroke="#ececec"/>
<text x="357.00" y="366.00" text-anchor="middle" font-family="Arial, sans-serif" font-size="10">1.6</text>
<line x1="452.00" y1="62.00" x2="452.00" y2="348.00" stroke="#ececec"/>
<text x="452.00" y="366.00" text-anchor="middle" font-family="Arial, sans-serif" font-size="10">2.5</text>
<line x1="72.00" y1="348.00" x2="452.00" y2="348.00" stroke="#ececec"/>
<text x="65.00" y="352.00" text-anchor="end" font-family="Arial, sans-serif" font-size="10">-35</text>
<line x1="72.00" y1="276.50" x2="452.00" y2="276.50" stroke="#ececec"/>
<text x="65.00" y="280.50" text-anchor="end" font-family="Arial, sans-serif" font-size="10">-9.2</text>
<line x1="72.00" y1="205.00" x2="452.00" y2="205.00" stroke="#ececec"/>
<text x="65.00" y="209.00" text-anchor="end" font-family="Arial, sans-serif" font-size="10">17</text>
<line x1="72.00" y1="133.50" x2="452.00" y2="133.50" stroke="#ececec"/>
<text x="65.00" y="137.50" text-anchor="end" font-family="Arial, sans-serif" font-size="10">43</text>
<line x1="72.00" y1="62.00" x2="452.00" y2="62.00" stroke="#ececec"/>
<text x="65.00" y="66.00" text-anchor="end" font-family="Arial, sans-serif" font-size="10">69</text>
<line x1="203.36" y1="62" x2="203.36" y2="348" stroke="#777" stroke-dasharray="4 4"/>
<line x1="72.0" y1="251.50" x2="452.0" y2="251.50" stroke="#777" stroke-dasharray="4 4"/>
<polyline fill="none" stroke="#1f77b4" stroke-width="1.8" points="86.07,306.81 94.28,306.57 103.08,306.32 110.41,306.10 116.57,305.87 122.14,305.60 126.83,305.29 130.94,304.93 134.45,304.54 136.80,304.24 139.73,303.79 142.08,303.36 144.13,302.94 146.77,302.28 148.23,301.90 149.41,301.53 151.75,300.79 154.10,299.84 154.98,299.49 155.56,299.24 156.44,298.79 157.91,298.06 158.79,297.60 160.84,296.35 161.43,295.99 163.19,294.73 164.07,294.10 165.83,292.66 166.71,291.94 168.47,290.32 169.35,289.51 171.10,287.76 172.28,286.58 174.04,284.71 175.50,283.13 177.85,280.55 182.54,275.26 188.70,268.24 203.36,251.50 209.81,244.18 214.50,238.92 218.90,234.04 224.18,228.25 228.87,223.17 233.85,217.84 238.54,212.91 242.94,208.35 244.41,206.85 247.63,203.58 249.39,201.82 252.03,199.20 254.67,196.63 256.72,194.65 259.36,192.16 261.12,190.51 265.23,186.76 269.62,182.89 273.73,179.41 275.49,177.95 277.83,176.05 279.89,174.40 281.94,172.79 284.28,170.97 286.63,169.20 288.98,167.44 293.08,164.45 297.19,161.55 301.29,158.73 304.22,156.76 307.74,154.45 311.55,152.00 314.78,150.01 317.12,148.58 320.94,146.30 324.75,144.12 328.27,142.17 330.90,140.74 335.01,138.60 338.53,136.84 340.87,135.70 344.69,133.90 349.08,131.92 353.19,130.16 357.00,128.59 360.81,127.09 364.62,125.65 368.73,124.15 372.83,122.70 377.52,121.09 382.51,119.45 387.79,117.77 393.06,116.15 398.64,114.51 404.79,112.77 410.95,111.05 416.81,109.48 425.61,107.16 433.82,105.07 437.93,104.06"/>
<polyline fill="none" stroke="#ff7f0e" stroke-width="1.8" stroke-dasharray="5 4" points="86.07,306.44 94.28,306.26 103.08,305.96 110.41,305.61 116.57,305.23 122.14,304.78 126.83,304.31 130.94,303.80 134.45,303.29 136.80,302.88 139.73,302.31 142.08,301.78 144.13,301.27 146.77,300.52 148.23,300.04 149.41,299.64 151.75,298.76 154.10,297.75 154.98,297.32 155.56,297.04 156.44,296.61 157.91,295.78 158.79,295.28 160.84,293.97 161.43,293.58 163.19,292.30 164.07,291.64 165.83,290.22 166.71,289.48 168.47,287.93 169.35,287.12 171.10,285.45 172.28,284.30 174.04,282.56 175.50,281.08 177.85,278.65 182.54,273.69 188.70,267.12 203.36,251.50 209.81,244.70 214.50,239.82 218.90,235.29 224.18,229.93 228.87,225.23 233.85,220.32 238.54,215.78 242.94,211.59 244.41,210.22 247.63,207.22 249.39,205.61 252.03,203.22 254.67,200.87 256.72,199.06 259.36,196.78 261.12,195.28 265.23,191.86 269.62,188.33 273.73,185.18 275.49,183.87 277.83,182.15 279.89,180.69 281.94,179.24 284.28,177.63 286.63,176.08 288.98,174.54 293.08,171.96 297.19,169.50 301.29,167.15 304.22,165.54 307.74,163.69 311.55,161.77 314.78,160.22 317.12,159.12 320.94,157.41 324.75,155.78 328.27,154.34 330.90,153.30 335.01,151.74 338.53,150.46 340.87,149.63 344.69,148.32 349.08,146.88 353.19,145.59 357.00,144.43 360.81,143.30 364.62,142.20 368.73,141.05 372.83,139.92 377.52,138.67 382.51,137.38 387.79,136.05 393.06,134.76 398.64,133.42 404.79,131.97 410.95,130.55 416.81,129.22 425.61,127.29 433.82,125.52 437.93,124.65"/>
<polyline fill="none" stroke="#2ca02c" stroke-width="1.8" stroke-dasharray="2 4" points="86.07,305.26 94.28,304.85 103.08,304.47 110.41,304.24 116.57,304.14 122.14,304.10 126.83,304.09 130.94,304.08 134.45,304.03 136.80,303.97 139.73,303.84 142.08,303.67 144.13,303.49 146.77,303.13 148.23,302.91 149.41,302.66 151.75,302.15 154.10,301.44 154.98,301.16 155.56,300.92 156.44,300.56 157.91,299.95 158.79,299.47 160.84,298.35 161.43,297.96 163.19,296.77 164.07,296.08 165.83,294.66 166.71,293.85 168.47,292.21 169.35,291.30 171.10,289.48 172.28,288.20 174.04,286.25 175.50,284.57 177.85,281.84 182.54,276.31 188.70,269.00 203.36,251.50 209.81,243.84 214.50,238.34 218.90,233.24 224.18,227.21 228.87,221.92 233.85,216.41 238.54,211.34 242.94,206.71 244.41,205.18 247.63,201.92 249.39,200.15 252.03,197.61 254.67,195.07 256.72,193.18 259.36,190.74 261.12,189.18 265.23,185.56 269.62,181.82 273.73,178.42 275.49,176.98 277.83,175.09 279.89,173.44 281.94,171.82 284.28,169.98 286.63,168.15 288.98,166.34 293.08,163.21 297.19,160.11 301.29,157.06 304.22,154.91 307.74,152.34 311.55,149.60 314.78,147.32 317.12,145.66 320.94,143.01 324.75,140.40 328.27,138.04 330.90,136.29 335.01,133.61 338.53,131.37 340.87,129.90 344.69,127.56 349.08,124.95 353.19,122.60 357.00,120.49 360.81,118.46 364.62,116.52 368.73,114.51 372.83,112.59 377.52,110.48 382.51,108.35 387.79,106.19 393.06,104.14 398.64,102.07 404.79,99.89 410.95,97.82 416.81,95.94 425.61,93.26 433.82,90.85 437.93,89.68"/>
<polyline fill="none" stroke="#1f77b4" stroke-width="1.1" stroke-dasharray="6 4" points="72.00,112.53 76.81,115.22 81.62,117.91 86.43,120.60 91.24,123.29 96.05,125.98 100.86,128.66 105.67,131.35 110.48,134.04 115.29,136.73 120.10,139.42 124.91,142.11 129.72,144.79 134.53,147.48 139.34,150.17 144.15,152.86 148.96,155.55 153.77,158.24 158.58,160.92 163.39,163.61 168.20,166.30 173.01,168.99 177.82,171.68 182.63,174.37 187.44,177.05 192.25,179.74 197.06,182.43 201.87,185.12 206.68,187.81 211.49,190.50 216.30,193.18 221.11,195.87 225.92,198.56 230.73,201.25 235.54,203.94 240.35,206.63 245.16,209.31 249.97,212.00 254.78,214.69 259.59,217.38 264.41,220.07 269.22,222.76 274.03,225.44 278.84,228.13 283.65,230.82 288.46,233.51 293.27,236.20 298.08,238.89 302.89,241.57 307.70,244.26 312.51,246.95 317.32,249.64 322.13,252.33 326.94,255.01 331.75,257.70 336.56,260.39 341.37,263.08 346.18,265.77 350.99,268.46 355.80,271.14 360.61,273.83 365.42,276.52 370.23,279.21 375.04,281.90 379.85,284.59 384.66,287.27 389.47,289.96 394.28,292.65 399.09,295.34 403.90,298.03 408.71,300.72 413.52,303.40 418.33,306.09 423.14,308.78 427.95,311.47 432.76,314.16 437.57,316.85 442.38,319.53 447.19,322.22 452.00,324.91"/>
<circle cx="243.12" cy="208.17" r="4.6" fill="#ffffff" stroke="#1f77b4" stroke-width="2"/>
<text x="249.12" y="202.17" font-family="Arial, sans-serif" font-size="10" fill="#1f77b4">typ 25.6 ohm</text>
<polyline fill="none" stroke="#ff7f0e" stroke-width="1.1" stroke-dasharray="6 4" points="72.00,115.81 76.81,118.50 81.62,121.19 86.43,123.88 91.24,126.57 96.05,129.25 100.86,131.94 105.67,134.63 110.48,137.32 115.29,140.01 120.10,142.70 124.91,145.38 129.72,148.07 134.53,150.76 139.34,153.45 144.15,156.14 148.96,158.82 153.77,161.51 158.58,164.20 163.39,166.89 168.20,169.58 173.01,172.27 177.82,174.95 182.63,177.64 187.44,180.33 192.25,183.02 197.06,185.71 201.87,188.40 206.68,191.08 211.49,193.77 216.30,196.46 221.11,199.15 225.92,201.84 230.73,204.53 235.54,207.21 240.35,209.90 245.16,212.59 249.97,215.28 254.78,217.97 259.59,220.66 264.41,223.34 269.22,226.03 274.03,228.72 278.84,231.41 283.65,234.10 288.46,236.79 293.27,239.47 298.08,242.16 302.89,244.85 307.70,247.54 312.51,250.23 317.32,252.92 322.13,255.60 326.94,258.29 331.75,260.98 336.56,263.67 341.37,266.36 346.18,269.05 350.99,271.73 355.80,274.42 360.61,277.11 365.42,279.80 370.23,282.49 375.04,285.18 379.85,287.86 384.66,290.55 389.47,293.24 394.28,295.93 399.09,298.62 403.90,301.31 408.71,303.99 413.52,306.68 418.33,309.37 423.14,312.06 427.95,314.75 432.76,317.44 437.57,320.12 442.38,322.81 447.19,325.50 452.00,328.19"/>
<circle cx="243.10" cy="211.44" r="4.6" fill="#ffffff" stroke="#ff7f0e" stroke-width="2"/>
<text x="249.10" y="205.44" font-family="Arial, sans-serif" font-size="10" fill="#ff7f0e">min 27.7 ohm</text>
<polyline fill="none" stroke="#2ca02c" stroke-width="1.1" stroke-dasharray="6 4" points="72.00,109.26 76.81,111.95 81.62,114.63 86.43,117.32 91.24,120.01 96.05,122.70 100.86,125.39 105.67,128.08 110.48,130.76 115.29,133.45 120.10,136.14 124.91,138.83 129.72,141.52 134.53,144.21 139.34,146.89 144.15,149.58 148.96,152.27 153.77,154.96 158.58,157.65 163.39,160.34 168.20,163.02 173.01,165.71 177.82,168.40 182.63,171.09 187.44,173.78 192.25,176.46 197.06,179.15 201.87,181.84 206.68,184.53 211.49,187.22 216.30,189.91 221.11,192.59 225.92,195.28 230.73,197.97 235.54,200.66 240.35,203.35 245.16,206.04 249.97,208.72 254.78,211.41 259.59,214.10 264.41,216.79 269.22,219.48 274.03,222.17 278.84,224.85 283.65,227.54 288.46,230.23 293.27,232.92 298.08,235.61 302.89,238.30 307.70,240.98 312.51,243.67 317.32,246.36 322.13,249.05 326.94,251.74 331.75,254.43 336.56,257.11 341.37,259.80 346.18,262.49 350.99,265.18 355.80,267.87 360.61,270.56 365.42,273.24 370.23,275.93 375.04,278.62 379.85,281.31 384.66,284.00 389.47,286.69 394.28,289.37 399.09,292.06 403.90,294.75 408.71,297.44 413.52,300.13 418.33,302.82 423.14,305.50 427.95,308.19 432.76,310.88 437.57,313.57 442.38,316.26 447.19,318.95 452.00,321.63"/>
<circle cx="244.14" cy="205.46" r="4.6" fill="#ffffff" stroke="#2ca02c" stroke-width="2"/>
<text x="250.14" y="199.46" font-family="Arial, sans-serif" font-size="10" fill="#2ca02c">max 24.8 ohm</text>
<line x1="82.00" y1="80.00" x2="104.00" y2="80.00" stroke="#1f77b4" stroke-width="2"/>
<text x="110.00" y="84.00" font-family="Arial, sans-serif" font-size="11">typ</text>
<line x1="82.00" y1="97.00" x2="104.00" y2="97.00" stroke="#ff7f0e" stroke-width="2" stroke-dasharray="5 4"/>
<text x="110.00" y="101.00" font-family="Arial, sans-serif" font-size="11">min</text>
<line x1="82.00" y1="114.00" x2="104.00" y2="114.00" stroke="#2ca02c" stroke-width="2" stroke-dasharray="2 4"/>
<text x="110.00" y="118.00" font-family="Arial, sans-serif" font-size="11">max</text>
<text x="262.00" y="386.00" text-anchor="middle" font-family="Arial, sans-serif" font-size="11">Output voltage (V)</text>
<text transform="translate(22.00 205.00) rotate(-90)" text-anchor="middle" font-family="Arial, sans-serif" font-size="11">Current (mA)</text>
<rect x="492.00" y="62.00" width="380.00" height="286.00" fill="#fbfbfb" stroke="#c8c8c8"/>
<text x="500.00" y="50.00" font-family="Arial, sans-serif" font-size="13" font-weight="700">[Pullup] Rload to GND</text>
<line x1="492.00" y1="62.00" x2="492.00" y2="348.00" stroke="#ececec"/>
<text x="492.00" y="366.00" text-anchor="middle" font-family="Arial, sans-serif" font-size="10">-1.3</text>
<line x1="587.00" y1="62.00" x2="587.00" y2="348.00" stroke="#ececec"/>
<text x="587.00" y="366.00" text-anchor="middle" font-family="Arial, sans-serif" font-size="10">-0.372</text>
<line x1="682.00" y1="62.00" x2="682.00" y2="348.00" stroke="#ececec"/>
<text x="682.00" y="366.00" text-anchor="middle" font-family="Arial, sans-serif" font-size="10">0.6</text>
<line x1="777.00" y1="62.00" x2="777.00" y2="348.00" stroke="#ececec"/>
<text x="777.00" y="366.00" text-anchor="middle" font-family="Arial, sans-serif" font-size="10">1.6</text>
<line x1="872.00" y1="62.00" x2="872.00" y2="348.00" stroke="#ececec"/>
<text x="872.00" y="366.00" text-anchor="middle" font-family="Arial, sans-serif" font-size="10">2.5</text>
<line x1="492.00" y1="348.00" x2="872.00" y2="348.00" stroke="#ececec"/>
<text x="485.00" y="352.00" text-anchor="end" font-family="Arial, sans-serif" font-size="10">-58</text>
<line x1="492.00" y1="276.50" x2="872.00" y2="276.50" stroke="#ececec"/>
<text x="485.00" y="280.50" text-anchor="end" font-family="Arial, sans-serif" font-size="10">-35</text>
<line x1="492.00" y1="205.00" x2="872.00" y2="205.00" stroke="#ececec"/>
<text x="485.00" y="209.00" text-anchor="end" font-family="Arial, sans-serif" font-size="10">-12</text>
<line x1="492.00" y1="133.50" x2="872.00" y2="133.50" stroke="#ececec"/>
<text x="485.00" y="137.50" text-anchor="end" font-family="Arial, sans-serif" font-size="10">11</text>
<line x1="492.00" y1="62.00" x2="872.00" y2="62.00" stroke="#ececec"/>
<text x="485.00" y="66.00" text-anchor="end" font-family="Arial, sans-serif" font-size="10">34</text>
<line x1="623.36" y1="62" x2="623.36" y2="348" stroke="#777" stroke-dasharray="4 4"/>
<line x1="492.0" y1="167.80" x2="872.0" y2="167.80" stroke="#777" stroke-dasharray="4 4"/>
<polyline fill="none" stroke="#1f77b4" stroke-width="1.8" points="506.07,111.94 506.37,112.01 508.42,112.31 511.06,112.76 513.11,113.14 513.40,113.19 513.70,113.25 514.28,113.36 516.34,113.76 518.39,114.16 522.20,114.87 524.55,115.30 530.12,116.29 532.76,116.75 536.27,117.37 542.43,118.46 548.30,119.56 553.57,120.61 557.97,121.56 561.49,122.37 564.72,123.18 567.35,123.89 568.82,124.31 571.75,125.21 574.10,126.06 574.98,126.37 575.86,126.73 576.74,127.11 577.91,127.62 578.79,128.02 580.84,129.09 581.72,129.58 583.19,130.48 584.07,131.03 585.83,132.27 586.71,132.90 588.47,134.32 589.35,135.03 591.40,136.83 592.57,137.89 594.33,139.53 596.68,141.79 602.25,147.28 609.58,154.52 614.56,159.39 619.25,163.90 623.36,167.80 629.22,173.27 633.91,177.58 638.90,182.08 643.59,186.23 647.99,190.04 653.27,194.48 657.96,198.28 659.72,199.67 662.65,201.96 664.70,203.51 667.34,205.49 669.98,207.42 672.32,209.11 674.96,210.98 677.31,212.60 680.24,214.60 682.59,216.15 685.52,218.07 689.92,220.84 693.73,223.14 695.78,224.34 697.83,225.52 699.89,226.68 701.94,227.80 704.28,229.06 706.34,230.12 708.98,231.46 711.32,232.60 713.67,233.72 716.60,235.06 718.65,235.97 721.58,237.23 725.98,239.04 729.50,240.43 732.43,241.55 737.12,243.26 742.11,245.00 746.80,246.57 751.49,248.08 757.06,249.81 763.22,251.66 770.55,253.76 777.88,255.79 785.21,257.74 796.06,260.55 808.67,263.73 820.69,266.68 834.76,270.05 857.93,275.52"/>
<polyline fill="none" stroke="#ff7f0e" stroke-width="1.8" stroke-dasharray="5 4" points="506.07,116.52 506.37,116.52 508.42,116.52 511.06,116.52 513.11,116.52 513.40,116.52 513.70,116.52 514.28,116.52 516.34,116.52 518.39,116.52 522.20,116.52 524.55,116.52 530.12,116.52 532.76,116.79 536.27,117.29 542.43,118.34 548.30,119.46 553.57,120.57 557.97,121.59 561.49,122.47 564.72,123.35 567.35,124.15 568.82,124.61 571.75,125.64 574.10,126.56 574.98,126.94 575.86,127.33 576.74,127.73 577.91,128.31 578.79,128.75 580.84,129.89 581.72,130.41 583.19,131.34 584.07,131.91 585.83,133.16 586.71,133.81 588.47,135.18 589.35,135.91 591.40,137.66 592.57,138.70 594.33,140.29 596.68,142.48 602.25,147.84 609.58,154.92 614.56,159.65 619.25,164.03 623.36,167.80 629.22,173.06 633.91,177.19 638.90,181.49 643.59,185.44 647.99,189.06 653.27,193.24 657.96,196.81 659.72,198.09 662.65,200.22 664.70,201.65 667.34,203.46 669.98,205.22 672.32,206.74 674.96,208.40 677.31,209.85 680.24,211.58 682.59,212.94 685.52,214.59 689.92,216.92 693.73,218.83 695.78,219.81 697.83,220.78 699.89,221.70 701.94,222.61 704.28,223.60 706.34,224.44 708.98,225.50 711.32,226.39 713.67,227.26 716.60,228.32 718.65,229.02 721.58,230.01 725.98,231.43 729.50,232.51 732.43,233.39 737.12,234.74 742.11,236.12 746.80,237.37 751.49,238.58 757.06,239.96 763.22,241.45 770.55,243.15 777.88,244.78 785.21,246.38 796.06,248.69 808.67,251.28 820.69,253.71 834.76,256.50 857.93,261.03"/>
<polyline fill="none" stroke="#2ca02c" stroke-width="1.8" stroke-dasharray="2 4" points="506.07,108.58 506.37,108.64 508.42,109.10 511.06,109.66 513.11,110.07 513.40,110.16 513.70,110.22 514.28,110.29 516.34,110.68 518.39,111.07 522.20,111.77 524.55,112.17 530.12,113.05 532.76,113.46 536.27,114.02 542.43,115.04 548.30,116.07 553.57,117.09 557.97,117.98 561.49,118.75 564.72,119.50 567.35,120.16 568.82,120.55 571.75,121.38 574.10,122.18 574.98,122.48 575.86,122.85 576.74,123.22 577.91,123.72 578.79,124.18 580.84,125.28 581.72,125.86 583.19,126.82 584.07,127.50 585.83,128.89 586.71,129.68 588.47,131.28 589.35,132.14 591.40,134.19 592.57,135.40 594.33,137.24 596.68,139.73 602.25,145.69 609.58,153.48 614.56,158.71 619.25,163.58 623.36,167.80 629.22,173.75 633.91,178.43 638.90,183.35 643.59,187.91 647.99,192.10 653.27,197.01 657.96,201.24 659.72,202.80 662.65,205.35 664.70,207.12 667.34,209.34 669.98,211.54 672.32,213.44 674.96,215.58 677.31,217.43 680.24,219.72 682.59,221.50 685.52,223.71 689.92,226.94 693.73,229.64 695.78,231.07 697.83,232.46 699.89,233.85 701.94,235.19 704.28,236.70 706.34,238.00 708.98,239.62 711.32,241.03 713.67,242.38 716.60,244.05 718.65,245.16 721.58,246.74 725.98,248.98 729.50,250.68 732.43,252.07 737.12,254.19 742.11,256.32 746.80,258.24 751.49,260.09 757.06,262.20 763.22,264.43 770.55,266.98 777.88,269.42 785.21,271.77 796.06,275.11 808.67,278.89 820.69,282.40 834.76,286.41 857.93,292.83"/>
<polyline fill="none" stroke="#1f77b4" stroke-width="1.1" stroke-dasharray="6 4" points="492.00,325.53 496.81,322.48 501.62,319.43 506.43,316.38 511.24,313.33 516.05,310.27 520.86,307.22 525.67,304.17 530.48,301.12 535.29,298.07 540.10,295.02 544.91,291.97 549.72,288.91 554.53,285.86 559.34,282.81 564.15,279.76 568.96,276.71 573.77,273.66 578.58,270.61 583.39,267.55 588.20,264.50 593.01,261.45 597.82,258.40 602.63,255.35 607.44,252.30 612.25,249.25 617.06,246.19 621.87,243.14 626.68,240.09 631.49,237.04 636.30,233.99 641.11,230.94 645.92,227.89 650.73,224.83 655.54,221.78 660.35,218.73 665.16,215.68 669.97,212.63 674.78,209.58 679.59,206.53 684.41,203.47 689.22,200.42 694.03,197.37 698.84,194.32 703.65,191.27 708.46,188.22 713.27,185.17 718.08,182.11 722.89,179.06 727.70,176.01 732.51,172.96 737.32,169.91 742.13,166.86 746.94,163.81 751.75,160.75 756.56,157.70 761.37,154.65 766.18,151.60 770.99,148.55 775.80,145.50 780.61,142.45 785.42,139.39 790.23,136.34 795.04,133.29 799.85,130.24 804.66,127.19 809.47,124.14 814.28,121.09 819.09,118.03 823.90,114.98 828.71,111.93 833.52,108.88 838.33,105.83 843.14,102.78 847.95,99.73 852.76,96.67 857.57,93.62 862.38,90.57 867.19,87.52 872.00,84.47"/>
<circle cx="673.83" cy="210.18" r="4.6" fill="#ffffff" stroke="#1f77b4" stroke-width="2"/>
<text x="679.83" y="204.18" font-family="Arial, sans-serif" font-size="10" fill="#1f77b4">typ 37.8 ohm</text>
<polyline fill="none" stroke="#ff7f0e" stroke-width="1.1" stroke-dasharray="6 4" points="492.00,321.81 496.81,318.76 501.62,315.71 506.43,312.66 511.24,309.60 516.05,306.55 520.86,303.50 525.67,300.45 530.48,297.40 535.29,294.35 540.10,291.30 544.91,288.25 549.72,285.19 554.53,282.14 559.34,279.09 564.15,276.04 568.96,272.99 573.77,269.94 578.58,266.89 583.39,263.83 588.20,260.78 593.01,257.73 597.82,254.68 602.63,251.63 607.44,248.58 612.25,245.53 617.06,242.47 621.87,239.42 626.68,236.37 631.49,233.32 636.30,230.27 641.11,227.22 645.92,224.17 650.73,221.11 655.54,218.06 660.35,215.01 665.16,211.96 669.97,208.91 674.78,205.86 679.59,202.81 684.41,199.75 689.22,196.70 694.03,193.65 698.84,190.60 703.65,187.55 708.46,184.50 713.27,181.45 718.08,178.39 722.89,175.34 727.70,172.29 732.51,169.24 737.32,166.19 742.13,163.14 746.94,160.09 751.75,157.03 756.56,153.98 761.37,150.93 766.18,147.88 770.99,144.83 775.80,141.78 780.61,138.73 785.42,135.67 790.23,132.62 795.04,129.57 799.85,126.52 804.66,123.47 809.47,120.42 814.28,117.37 819.09,114.31 823.90,111.26 828.71,108.21 833.52,105.16 838.33,102.11 843.14,99.06 847.95,96.01 852.76,92.95 857.57,89.90 862.38,86.85 867.19,83.80 872.00,80.75"/>
<circle cx="672.86" cy="207.08" r="4.6" fill="#ffffff" stroke="#ff7f0e" stroke-width="2"/>
<text x="678.86" y="201.08" font-family="Arial, sans-serif" font-size="10" fill="#ff7f0e">min 40 ohm</text>
<polyline fill="none" stroke="#2ca02c" stroke-width="1.1" stroke-dasharray="6 4" points="492.00,329.25 496.81,326.20 501.62,323.15 506.43,320.10 511.24,317.05 516.05,313.99 520.86,310.94 525.67,307.89 530.48,304.84 535.29,301.79 540.10,298.74 544.91,295.69 549.72,292.63 554.53,289.58 559.34,286.53 564.15,283.48 568.96,280.43 573.77,277.38 578.58,274.33 583.39,271.27 588.20,268.22 593.01,265.17 597.82,262.12 602.63,259.07 607.44,256.02 612.25,252.97 617.06,249.91 621.87,246.86 626.68,243.81 631.49,240.76 636.30,237.71 641.11,234.66 645.92,231.61 650.73,228.55 655.54,225.50 660.35,222.45 665.16,219.40 669.97,216.35 674.78,213.30 679.59,210.25 684.41,207.19 689.22,204.14 694.03,201.09 698.84,198.04 703.65,194.99 708.46,191.94 713.27,188.89 718.08,185.83 722.89,182.78 727.70,179.73 732.51,176.68 737.32,173.63 742.13,170.58 746.94,167.53 751.75,164.47 756.56,161.42 761.37,158.37 766.18,155.32 770.99,152.27 775.80,149.22 780.61,146.17 785.42,143.11 790.23,140.06 795.04,137.01 799.85,133.96 804.66,130.91 809.47,127.86 814.28,124.81 819.09,121.75 823.90,118.70 828.71,115.65 833.52,112.60 838.33,109.55 843.14,106.50 847.95,103.45 852.76,100.40 857.57,97.34 862.38,94.29 867.19,91.24 872.00,88.19"/>
<circle cx="673.30" cy="214.24" r="4.6" fill="#ffffff" stroke="#2ca02c" stroke-width="2"/>
<text x="679.30" y="208.24" font-family="Arial, sans-serif" font-size="10" fill="#2ca02c">max 34.1 ohm</text>
<line x1="502.00" y1="80.00" x2="524.00" y2="80.00" stroke="#1f77b4" stroke-width="2"/>
<text x="530.00" y="84.00" font-family="Arial, sans-serif" font-size="11">typ</text>
<line x1="502.00" y1="97.00" x2="524.00" y2="97.00" stroke="#ff7f0e" stroke-width="2" stroke-dasharray="5 4"/>
<text x="530.00" y="101.00" font-family="Arial, sans-serif" font-size="11">min</text>
<line x1="502.00" y1="114.00" x2="524.00" y2="114.00" stroke="#2ca02c" stroke-width="2" stroke-dasharray="2 4"/>
<text x="530.00" y="118.00" font-family="Arial, sans-serif" font-size="11">max</text>
<text x="682.00" y="386.00" text-anchor="middle" font-family="Arial, sans-serif" font-size="11">Vcc-relative table voltage (V)</text>
<text transform="translate(442.00 205.00) rotate(-90)" text-anchor="middle" font-family="Arial, sans-serif" font-size="11">Current (mA)</text>
<rect x="72.00" y="418.00" width="800.00" height="144.00" fill="#ffffff" stroke="#c8c8c8"/>
<text x="82.00" y="436.00" font-family="Arial, sans-serif" font-size="12" font-weight="700">Operating-point summary</text>
<text x="82.00" y="454.00" font-family="Arial, sans-serif" font-size="10" font-weight="700" fill="#333">Table</text>
<text x="174.00" y="454.00" font-family="Arial, sans-serif" font-size="10" font-weight="700" fill="#333">Corner</text>
<text x="242.00" y="454.00" font-family="Arial, sans-serif" font-size="10" font-weight="700" fill="#333">Vout</text>
<text x="332.00" y="454.00" font-family="Arial, sans-serif" font-size="10" font-weight="700" fill="#333">Iop</text>
<text x="422.00" y="454.00" font-family="Arial, sans-serif" font-size="10" font-weight="700" fill="#333">Zout</text>
<text x="512.00" y="454.00" font-family="Arial, sans-serif" font-size="10" font-weight="700" fill="#333">Rseries</text>
<text x="82.00" y="473.00" font-family="Arial, sans-serif" font-size="10" fill="#1f77b4">pulldown</text>
<text x="174.00" y="473.00" font-family="Arial, sans-serif" font-size="10" fill="#1f77b4">typ</text>
<text x="242.00" y="473.00" font-family="Arial, sans-serif" font-size="10" fill="#1f77b4">0.4068 V</text>
<text x="332.00" y="473.00" font-family="Arial, sans-serif" font-size="10" fill="#1f77b4">16 mA</text>
<text x="422.00" y="473.00" font-family="Arial, sans-serif" font-size="10" fill="#1f77b4">25.6 ohm</text>
<text x="512.00" y="473.00" font-family="Arial, sans-serif" font-size="10" fill="#1f77b4">24.4 ohm</text>
<text x="82.00" y="492.00" font-family="Arial, sans-serif" font-size="10" fill="#ff7f0e">pulldown</text>
<text x="174.00" y="492.00" font-family="Arial, sans-serif" font-size="10" fill="#ff7f0e">min</text>
<text x="242.00" y="492.00" font-family="Arial, sans-serif" font-size="10" fill="#ff7f0e">0.4067 V</text>
<text x="332.00" y="492.00" font-family="Arial, sans-serif" font-size="10" fill="#ff7f0e">15 mA</text>
<text x="422.00" y="492.00" font-family="Arial, sans-serif" font-size="10" fill="#ff7f0e">27.7 ohm</text>
<text x="512.00" y="492.00" font-family="Arial, sans-serif" font-size="10" fill="#ff7f0e">22.3 ohm</text>
<text x="82.00" y="511.00" font-family="Arial, sans-serif" font-size="10" fill="#2ca02c">pulldown</text>
<text x="174.00" y="511.00" font-family="Arial, sans-serif" font-size="10" fill="#2ca02c">max</text>
<text x="242.00" y="511.00" font-family="Arial, sans-serif" font-size="10" fill="#2ca02c">0.4173 V</text>
<text x="332.00" y="511.00" font-family="Arial, sans-serif" font-size="10" fill="#2ca02c">17 mA</text>
<text x="422.00" y="511.00" font-family="Arial, sans-serif" font-size="10" fill="#2ca02c">24.8 ohm</text>
<text x="512.00" y="511.00" font-family="Arial, sans-serif" font-size="10" fill="#2ca02c">25.2 ohm</text>
<text x="82.00" y="530.00" font-family="Arial, sans-serif" font-size="10" fill="#1f77b4">pullup</text>
<text x="174.00" y="530.00" font-family="Arial, sans-serif" font-size="10" fill="#1f77b4">typ</text>
<text x="242.00" y="530.00" font-family="Arial, sans-serif" font-size="10" fill="#1f77b4">0.6835 V</text>
<text x="332.00" y="530.00" font-family="Arial, sans-serif" font-size="10" fill="#1f77b4">-14 mA</text>
<text x="422.00" y="530.00" font-family="Arial, sans-serif" font-size="10" fill="#1f77b4">37.8 ohm</text>
<text x="512.00" y="530.00" font-family="Arial, sans-serif" font-size="10" fill="#1f77b4">12.2 ohm</text>
<text x="82.00" y="549.00" font-family="Arial, sans-serif" font-size="10" fill="#ff7f0e">pullup</text>
<text x="174.00" y="549.00" font-family="Arial, sans-serif" font-size="10" fill="#ff7f0e">min</text>
<text x="242.00" y="549.00" font-family="Arial, sans-serif" font-size="10" fill="#ff7f0e">0.6335 V</text>
<text x="332.00" y="549.00" font-family="Arial, sans-serif" font-size="10" fill="#ff7f0e">-13 mA</text>
<text x="422.00" y="549.00" font-family="Arial, sans-serif" font-size="10" fill="#ff7f0e">40 ohm</text>
<text x="512.00" y="549.00" font-family="Arial, sans-serif" font-size="10" fill="#ff7f0e">10 ohm</text>
<text x="82.00" y="568.00" font-family="Arial, sans-serif" font-size="10" fill="#2ca02c">pullup</text>
<text x="174.00" y="568.00" font-family="Arial, sans-serif" font-size="10" fill="#2ca02c">max</text>
<text x="242.00" y="568.00" font-family="Arial, sans-serif" font-size="10" fill="#2ca02c">0.749 V</text>
<text x="332.00" y="568.00" font-family="Arial, sans-serif" font-size="10" fill="#2ca02c">-15 mA</text>
<text x="422.00" y="568.00" font-family="Arial, sans-serif" font-size="10" fill="#2ca02c">34.1 ohm</text>
<text x="512.00" y="568.00" font-family="Arial, sans-serif" font-size="10" fill="#2ca02c">15.9 ohm</text>
</svg>