<svg xmlns="http://www.w3.org/2000/svg" width="900" height="620" viewBox="0 0 900 620">
<rect width="100%" height="100%" fill="#ffffff"/>
<text x="72" y="26" font-family="Arial, sans-serif" font-size="16" font-weight="700">DQ_48_3200 Zout Load-Line Curves</text>
<text x="72" y="45" font-family="Arial, sans-serif" font-size="11" fill="#555">Rload=50 ohm; solid=device I-V, dashed=load line, circles=operating points</text>
<rect x="72.00" y="62.00" width="380.00" height="286.00" fill="#fbfbfb" stroke="#c8c8c8"/>
<text x="80.00" y="50.00" font-family="Arial, sans-serif" font-size="13" font-weight="700">[Pulldown] Rload to Vdd</text>
<line x1="72.00" y1="62.00" x2="72.00" y2="348.00" stroke="#ececec"/>
<text x="72.00" y="366.00" text-anchor="middle" font-family="Arial, sans-serif" font-size="10">-1.3</text>
<line x1="167.00" y1="62.00" x2="167.00" y2="348.00" stroke="#ececec"/>
<text x="167.00" y="366.00" text-anchor="middle" font-family="Arial, sans-serif" font-size="10">-0.372</text>
<line x1="262.00" y1="62.00" x2="262.00" y2="348.00" stroke="#ececec"/>
<text x="262.00" y="366.00" text-anchor="middle" font-family="Arial, sans-serif" font-size="10">0.6</text>
<line x1="357.00" y1="62.00" x2="357.00" y2="348.00" stroke="#ececec"/>
<text x="357.00" y="366.00" text-anchor="middle" font-family="Arial, sans-serif" font-size="10">1.6</text>
<line x1="452.00" y1="62.00" x2="452.00" y2="348.00" stroke="#ececec"/>
<text x="452.00" y="366.00" text-anchor="middle" font-family="Arial, sans-serif" font-size="10">2.5</text>
<line x1="72.00" y1="348.00" x2="452.00" y2="348.00" stroke="#ececec"/>
<text x="65.00" y="352.00" text-anchor="end" font-family="Arial, sans-serif" font-size="10">-34</text>
<line x1="72.00" y1="276.50" x2="452.00" y2="276.50" stroke="#ececec"/>
<text x="65.00" y="280.50" text-anchor="end" font-family="Arial, sans-serif" font-size="10">-11</text>
<line x1="72.00" y1="205.00" x2="452.00" y2="205.00" stroke="#ececec"/>
<text x="65.00" y="209.00" text-anchor="end" font-family="Arial, sans-serif" font-size="10">12</text>
<line x1="72.00" y1="133.50" x2="452.00" y2="133.50" stroke="#ececec"/>
<text x="65.00" y="137.50" text-anchor="end" font-family="Arial, sans-serif" font-size="10">35</text>
<line x1="72.00" y1="62.00" x2="452.00" y2="62.00" stroke="#ececec"/>
<text x="65.00" y="66.00" text-anchor="end" font-family="Arial, sans-serif" font-size="10">58</text>
<line x1="203.36" y1="62" x2="203.36" y2="348" stroke="#777" stroke-dasharray="4 4"/>
<line x1="72.0" y1="242.20" x2="452.0" y2="242.20" stroke="#777" stroke-dasharray="4 4"/>
<polyline fill="none" stroke="#1f77b4" stroke-width="1.8" points="86.07,287.04 95.46,286.82 104.55,286.61 112.17,286.41 118.62,286.20 124.19,285.96 128.59,285.69 132.69,285.37 136.21,285.02 138.85,284.71 141.20,284.39 143.25,284.05 144.72,283.79 146.48,283.45 147.94,283.13 149.99,282.64 151.17,282.31 152.63,281.90 153.81,281.51 154.98,281.11 155.86,280.81 156.74,280.44 158.79,279.59 159.67,279.15 161.14,278.42 161.72,278.12 162.31,277.78 163.48,277.08 164.65,276.38 165.53,275.78 167.59,274.36 168.17,273.91 170.23,272.34 172.57,270.39 173.74,269.39 176.38,267.07 180.49,263.36 190.75,253.88 203.36,242.20 209.22,236.80 215.38,231.21 219.48,227.52 224.47,223.09 229.75,218.45 234.15,214.65 237.37,211.90 241.18,208.67 244.99,205.51 247.93,203.10 250.86,200.73 253.50,198.62 255.84,196.79 259.07,194.29 260.83,192.97 264.64,190.13 266.69,188.64 270.21,186.14 274.02,183.53 275.78,182.35 279.59,179.86 281.65,178.54 285.75,175.98 290.15,173.33 293.96,171.09 297.77,168.92 301.88,166.64 306.27,164.27 309.21,162.73 312.43,161.07 314.48,160.04 317.42,158.59 319.76,157.46 322.11,156.34 324.45,155.29 329.15,153.19 332.37,151.76 337.65,149.61 341.46,148.06 345.56,146.52 348.20,145.56 352.60,144.01 357.00,142.54 361.10,141.23 365.21,139.98 369.61,138.68 374.30,137.35 379.28,135.98 384.56,134.59 390.43,133.11 396.58,131.61 402.74,130.17 405.97,129.45 408.02,129.02 410.36,128.45 416.52,127.09 426.20,125.04 434.99,123.24 437.93,122.65"/>
<polyline fill="none" stroke="#ff7f0e" stroke-width="1.8" stroke-dasharray="5 4" points="86.07,286.75 95.46,286.57 104.55,286.30 112.17,285.99 118.62,285.64 124.19,285.24 128.59,284.85 132.69,284.41 136.21,283.95 138.85,283.54 141.20,283.13 143.25,282.73 144.72,282.42 146.48,282.01 147.94,281.65 149.99,281.06 151.17,280.71 152.63,280.22 153.81,279.82 154.98,279.36 155.86,279.01 156.74,278.64 158.79,277.70 159.67,277.26 161.14,276.48 161.72,276.17 162.31,275.83 163.48,275.11 164.65,274.40 165.53,273.80 167.59,272.40 168.17,271.96 170.23,270.45 172.57,268.60 173.74,267.65 176.38,265.46 180.49,261.97 190.75,253.10 203.36,242.20 209.22,237.18 215.38,231.98 219.48,228.56 224.47,224.46 229.75,220.18 234.15,216.68 237.37,214.15 241.18,211.19 244.99,208.27 247.93,206.08 250.86,203.90 253.50,201.98 255.84,200.29 259.07,198.02 260.83,196.80 264.64,194.22 266.69,192.88 270.21,190.60 274.02,188.24 275.78,187.17 279.59,184.93 281.65,183.77 285.75,181.50 290.15,179.18 293.96,177.26 297.77,175.42 301.88,173.53 306.27,171.61 309.21,170.38 312.43,169.09 314.48,168.29 317.42,167.18 319.76,166.33 322.11,165.50 324.45,164.68 329.15,163.13 332.37,162.11 337.65,160.52 341.46,159.43 345.56,158.30 348.20,157.60 352.60,156.47 357.00,155.38 361.10,154.39 365.21,153.44 369.61,152.44 374.30,151.41 379.28,150.34 384.56,149.25 390.43,148.07 396.58,146.85 402.74,145.67 405.97,145.06 408.02,144.67 410.36,144.24 416.52,143.11 426.20,141.38 434.99,139.85 437.93,139.34"/>
<polyline fill="none" stroke="#2ca02c" stroke-width="1.8" stroke-dasharray="2 4" points="86.07,285.79 95.46,285.41 104.55,285.10 112.17,284.93 118.62,284.86 124.19,284.84 128.59,284.84 132.69,284.82 136.21,284.76 138.85,284.68 141.20,284.57 143.25,284.43 144.72,284.30 146.48,284.11 147.94,283.93 149.99,283.61 151.17,283.38 152.63,283.08 153.81,282.78 154.98,282.46 155.86,282.19 156.74,281.91 158.79,281.13 159.67,280.73 161.14,280.05 161.72,279.73 162.31,279.40 163.48,278.74 164.65,277.98 165.53,277.41 167.59,275.90 168.17,275.45 170.23,273.77 172.57,271.71 173.74,270.65 176.38,268.20 180.49,264.30 190.75,254.41 203.36,242.20 209.22,236.55 215.38,230.69 219.48,226.84 224.47,222.22 229.75,217.42 234.15,213.48 237.37,210.65 241.18,207.36 244.99,204.15 247.93,201.74 250.86,199.40 253.50,197.34 255.84,195.54 259.07,193.14 260.83,191.86 264.64,189.14 266.69,187.70 270.21,185.29 274.02,182.73 275.78,181.57 279.59,179.09 281.65,177.77 285.75,175.16 290.15,172.40 293.96,170.05 297.77,167.73 301.88,165.26 306.27,162.65 309.21,160.93 312.43,159.06 314.48,157.88 317.42,156.20 319.76,154.88 322.11,153.57 324.45,152.27 329.15,149.71 332.37,147.99 337.65,145.23 341.46,143.30 345.56,141.27 348.20,140.00 352.60,137.94 357.00,135.97 361.10,134.19 365.21,132.51 369.61,130.78 374.30,129.02 379.28,127.23 384.56,125.43 390.43,123.53 396.58,121.65 402.74,119.85 405.97,118.95 408.02,118.38 410.36,117.75 416.52,116.15 426.20,113.75 434.99,111.67 437.93,110.99"/>
<polyline fill="none" stroke="#1f77b4" stroke-width="1.1" stroke-dasharray="6 4" points="72.00,84.47 76.81,87.52 81.62,90.57 86.43,93.62 91.24,96.67 96.05,99.73 100.86,102.78 105.67,105.83 110.48,108.88 115.29,111.93 120.10,114.98 124.91,118.03 129.72,121.09 134.53,124.14 139.34,127.19 144.15,130.24 148.96,133.29 153.77,136.34 158.58,139.39 163.39,142.45 168.20,145.50 173.01,148.55 177.82,151.60 182.63,154.65 187.44,157.70 192.25,160.75 197.06,163.81 201.87,166.86 206.68,169.91 211.49,172.96 216.30,176.01 221.11,179.06 225.92,182.11 230.73,185.17 235.54,188.22 240.35,191.27 245.16,194.32 249.97,197.37 254.78,200.42 259.59,203.47 264.41,206.53 269.22,209.58 274.03,212.63 278.84,215.68 283.65,218.73 288.46,221.78 293.27,224.83 298.08,227.89 302.89,230.94 307.70,233.99 312.51,237.04 317.32,240.09 322.13,243.14 326.94,246.19 331.75,249.25 336.56,252.30 341.37,255.35 346.18,258.40 350.99,261.45 355.80,264.50 360.61,267.55 365.42,270.61 370.23,273.66 375.04,276.71 379.85,279.76 384.66,282.81 389.47,285.86 394.28,288.91 399.09,291.97 403.90,295.02 408.71,298.07 413.52,301.12 418.33,304.17 423.14,307.22 427.95,310.27 432.76,313.33 437.57,316.38 442.38,319.43 447.19,322.48 452.00,325.53"/>
<circle cx="252.81" cy="199.17" r="4.6" fill="#ffffff" stroke="#1f77b4" stroke-width="2"/>
<text x="258.81" y="193.17" font-family="Arial, sans-serif" font-size="10" fill="#1f77b4">typ 36.5 ohm</text>
<polyline fill="none" stroke="#ff7f0e" stroke-width="1.1" stroke-dasharray="6 4" points="72.00,88.19 76.81,91.24 81.62,94.29 86.43,97.34 91.24,100.40 96.05,103.45 100.86,106.50 105.67,109.55 110.48,112.60 115.29,115.65 120.10,118.70 124.91,121.75 129.72,124.81 134.53,127.86 139.34,130.91 144.15,133.96 148.96,137.01 153.77,140.06 158.58,143.11 163.39,146.17 168.20,149.22 173.01,152.27 177.82,155.32 182.63,158.37 187.44,161.42 192.25,164.47 197.06,167.53 201.87,170.58 206.68,173.63 211.49,176.68 216.30,179.73 221.11,182.78 225.92,185.83 230.73,188.89 235.54,191.94 240.35,194.99 245.16,198.04 249.97,201.09 254.78,204.14 259.59,207.19 264.41,210.25 269.22,213.30 274.03,216.35 278.84,219.40 283.65,222.45 288.46,225.50 293.27,228.55 298.08,231.61 302.89,234.66 307.70,237.71 312.51,240.76 317.32,243.81 322.13,246.86 326.94,249.91 331.75,252.97 336.56,256.02 341.37,259.07 346.18,262.12 350.99,265.17 355.80,268.22 360.61,271.27 365.42,274.33 370.23,277.38 375.04,280.43 379.85,283.48 384.66,286.53 389.47,289.58 394.28,292.63 399.09,295.69 403.90,298.74 408.71,301.79 413.52,304.84 418.33,307.89 423.14,310.94 427.95,313.99 432.76,317.05 437.57,320.10 442.38,323.15 447.19,326.20 452.00,329.25"/>
<circle cx="252.51" cy="202.70" r="4.6" fill="#ffffff" stroke="#ff7f0e" stroke-width="2"/>
<text x="258.51" y="196.70" font-family="Arial, sans-serif" font-size="10" fill="#ff7f0e">min 39.5 ohm</text>
<polyline fill="none" stroke="#2ca02c" stroke-width="1.1" stroke-dasharray="6 4" points="72.00,80.75 76.81,83.80 81.62,86.85 86.43,89.90 91.24,92.95 96.05,96.01 100.86,99.06 105.67,102.11 110.48,105.16 115.29,108.21 120.10,111.26 124.91,114.31 129.72,117.37 134.53,120.42 139.34,123.47 144.15,126.52 148.96,129.57 153.77,132.62 158.58,135.67 163.39,138.73 168.20,141.78 173.01,144.83 177.82,147.88 182.63,150.93 187.44,153.98 192.25,157.03 197.06,160.09 201.87,163.14 206.68,166.19 211.49,169.24 216.30,172.29 221.11,175.34 225.92,178.39 230.73,181.45 235.54,184.50 240.35,187.55 245.16,190.60 249.97,193.65 254.78,196.70 259.59,199.75 264.41,202.81 269.22,205.86 274.03,208.91 278.84,211.96 283.65,215.01 288.46,218.06 293.27,221.11 298.08,224.17 302.89,227.22 307.70,230.27 312.51,233.32 317.32,236.37 322.13,239.42 326.94,242.47 331.75,245.53 336.56,248.58 341.37,251.63 346.18,254.68 350.99,257.73 355.80,260.78 360.61,263.83 365.42,266.89 370.23,269.94 375.04,272.99 379.85,276.04 384.66,279.09 389.47,282.14 394.28,285.19 399.09,288.25 403.90,291.30 408.71,294.35 413.52,297.40 418.33,300.45 423.14,303.50 427.95,306.55 432.76,309.60 437.57,312.66 442.38,315.71 447.19,318.76 452.00,321.81"/>
<circle cx="254.53" cy="196.54" r="4.6" fill="#ffffff" stroke="#2ca02c" stroke-width="2"/>
<text x="260.53" y="190.54" font-family="Arial, sans-serif" font-size="10" fill="#2ca02c">max 35.6 ohm</text>
<line x1="82.00" y1="80.00" x2="104.00" y2="80.00" stroke="#1f77b4" stroke-width="2"/>
<text x="110.00" y="84.00" font-family="Arial, sans-serif" font-size="11">typ</text>
<line x1="82.00" y1="97.00" x2="104.00" y2="97.00" stroke="#ff7f0e" stroke-width="2" stroke-dasharray="5 4"/>
<text x="110.00" y="101.00" font-family="Arial, sans-serif" font-size="11">min</text>
<line x1="82.00" y1="114.00" x2="104.00" y2="114.00" stroke="#2ca02c" stroke-width="2" stroke-dasharray="2 4"/>
<text x="110.00" y="118.00" font-family="Arial, sans-serif" font-size="11">max</text>
<text x="262.00" y="386.00" text-anchor="middle" font-family="Arial, sans-serif" font-size="11">Output voltage (V)</text>
<text transform="translate(22.00 205.00) rotate(-90)" text-anchor="middle" font-family="Arial, sans-serif" font-size="11">Current (mA)</text>
<rect x="492.00" y="62.00" width="380.00" height="286.00" fill="#fbfbfb" stroke="#c8c8c8"/>
<text x="500.00" y="50.00" font-family="Arial, sans-serif" font-size="13" font-weight="700">[Pullup] Rload to GND</text>
<line x1="492.00" y1="62.00" x2="492.00" y2="348.00" stroke="#ececec"/>
<text x="492.00" y="366.00" text-anchor="middle" font-family="Arial, sans-serif" font-size="10">-1.3</text>
<line x1="587.00" y1="62.00" x2="587.00" y2="348.00" stroke="#ececec"/>
<text x="587.00" y="366.00" text-anchor="middle" font-family="Arial, sans-serif" font-size="10">-0.372</text>
<line x1="682.00" y1="62.00" x2="682.00" y2="348.00" stroke="#ececec"/>
<text x="682.00" y="366.00" text-anchor="middle" font-family="Arial, sans-serif" font-size="10">0.6</text>
<line x1="777.00" y1="62.00" x2="777.00" y2="348.00" stroke="#ececec"/>
<text x="777.00" y="366.00" text-anchor="middle" font-family="Arial, sans-serif" font-size="10">1.6</text>
<line x1="872.00" y1="62.00" x2="872.00" y2="348.00" stroke="#ececec"/>
<text x="872.00" y="366.00" text-anchor="middle" font-family="Arial, sans-serif" font-size="10">2.5</text>
<line x1="492.00" y1="348.00" x2="872.00" y2="348.00" stroke="#ececec"/>
<text x="485.00" y="352.00" text-anchor="end" font-family="Arial, sans-serif" font-size="10">-58</text>
<line x1="492.00" y1="276.50" x2="872.00" y2="276.50" stroke="#ececec"/>
<text x="485.00" y="280.50" text-anchor="end" font-family="Arial, sans-serif" font-size="10">-35</text>
<line x1="492.00" y1="205.00" x2="872.00" y2="205.00" stroke="#ececec"/>
<text x="485.00" y="209.00" text-anchor="end" font-family="Arial, sans-serif" font-size="10">-12</text>
<line x1="492.00" y1="133.50" x2="872.00" y2="133.50" stroke="#ececec"/>
<text x="485.00" y="137.50" text-anchor="end" font-family="Arial, sans-serif" font-size="10">11</text>
<line x1="492.00" y1="62.00" x2="872.00" y2="62.00" stroke="#ececec"/>
<text x="485.00" y="66.00" text-anchor="end" font-family="Arial, sans-serif" font-size="10">34</text>
<line x1="623.36" y1="62" x2="623.36" y2="348" stroke="#777" stroke-dasharray="4 4"/>
<line x1="492.0" y1="167.80" x2="872.0" y2="167.80" stroke="#777" stroke-dasharray="4 4"/>
<polyline fill="none" stroke="#1f77b4" stroke-width="1.8" points="506.07,127.89 506.37,127.95 508.42,128.16 510.77,128.45 513.70,128.83 515.75,129.11 517.80,129.41 521.32,129.87 523.67,130.19 526.60,130.56 530.41,131.05 535.69,131.70 540.67,132.33 545.95,133.02 551.23,133.75 555.92,134.45 560.02,135.10 563.25,135.65 565.89,136.14 567.94,136.55 570.29,137.04 571.46,137.32 572.63,137.59 574.10,137.97 574.98,138.21 575.86,138.45 576.74,138.73 578.79,139.38 579.38,139.60 581.14,140.26 581.72,140.49 582.31,140.75 583.48,141.27 584.65,141.81 585.53,142.27 587.59,143.36 588.17,143.70 590.23,144.92 592.57,146.43 593.74,147.21 596.38,149.01 600.49,151.89 608.11,157.28 613.68,161.18 618.67,164.61 623.36,167.80 628.93,171.52 632.74,174.02 637.43,177.07 641.83,179.86 644.18,181.33 648.57,184.04 650.04,184.93 653.85,187.19 655.61,188.23 659.42,190.40 660.89,191.23 663.53,192.67 665.58,193.78 667.63,194.89 670.56,196.40 673.50,197.92 675.55,198.93 679.65,200.95 681.12,201.64 685.23,203.58 689.33,205.43 690.80,206.08 694.61,207.72 696.07,208.33 699.59,209.75 701.35,210.45 704.87,211.79 707.80,212.86 710.44,213.79 713.96,214.99 717.19,216.04 721.00,217.23 725.10,218.44 727.45,219.11 730.97,220.09 734.78,221.10 738.00,221.93 742.40,223.02 747.39,224.19 752.66,225.41 758.53,226.69 762.63,227.58 768.79,228.85 775.24,230.14 782.28,231.49 790.78,233.09 801.63,235.07 814.53,237.36 828.90,239.84 839.16,241.59 857.93,244.75"/>
<polyline fill="none" stroke="#ff7f0e" stroke-width="1.8" stroke-dasharray="5 4" points="506.07,131.17 506.37,131.17 508.42,131.17 510.77,131.17 513.70,131.17 515.75,131.17 517.80,131.17 521.32,131.17 523.67,131.17 526.60,131.17 530.41,131.17 535.69,131.66 540.67,132.25 545.95,132.94 551.23,133.70 555.92,134.44 560.02,135.15 563.25,135.76 565.89,136.29 567.94,136.75 570.29,137.31 571.46,137.61 572.63,137.93 574.10,138.34 574.98,138.62 575.86,138.89 576.74,139.18 578.79,139.90 579.38,140.12 581.14,140.84 581.72,141.08 582.31,141.34 583.48,141.89 584.65,142.44 585.53,142.91 587.59,143.99 588.17,144.33 590.23,145.53 592.57,147.00 593.74,147.76 596.38,149.51 600.49,152.32 608.11,157.58 613.68,161.39 618.67,164.72 623.36,167.80 628.93,171.38 632.74,173.78 637.43,176.69 641.83,179.36 644.18,180.75 648.57,183.32 650.04,184.16 653.85,186.29 655.61,187.26 659.42,189.29 660.89,190.05 663.53,191.39 665.58,192.42 667.63,193.41 670.56,194.81 673.50,196.14 675.55,197.07 679.65,198.84 681.12,199.44 685.23,201.11 689.33,202.67 690.80,203.21 694.61,204.56 696.07,205.06 699.59,206.22 701.35,206.77 704.87,207.84 707.80,208.68 710.44,209.42 713.96,210.36 717.19,211.18 721.00,212.11 725.10,213.06 727.45,213.58 730.97,214.34 734.78,215.14 738.00,215.80 742.40,216.66 747.39,217.60 752.66,218.57 758.53,219.61 762.63,220.31 768.79,221.34 775.24,222.38 782.28,223.48 790.78,224.79 801.63,226.41 814.53,228.28 828.90,230.34 839.16,231.79 857.93,234.40"/>
<polyline fill="none" stroke="#2ca02c" stroke-width="1.8" stroke-dasharray="2 4" points="506.07,125.49 506.37,125.55 508.42,125.87 510.77,126.23 513.70,126.63 515.75,126.92 517.80,127.19 521.32,127.67 523.67,127.96 526.60,128.30 530.41,128.73 535.69,129.32 540.67,129.90 545.95,130.55 551.23,131.24 555.92,131.91 560.02,132.53 563.25,133.04 565.89,133.50 567.94,133.87 570.29,134.33 571.46,134.59 572.63,134.85 574.10,135.20 574.98,135.43 575.86,135.68 576.74,135.93 578.79,136.62 579.38,136.84 581.14,137.55 581.72,137.82 582.31,138.11 583.48,138.68 584.65,139.33 585.53,139.82 587.59,141.12 588.17,141.51 590.23,142.93 592.57,144.64 593.74,145.52 596.38,147.52 600.49,150.66 608.11,156.46 613.68,160.65 618.67,164.35 623.36,167.80 628.93,171.84 632.74,174.57 637.43,177.89 641.83,180.95 644.18,182.57 648.57,185.56 650.04,186.54 653.85,189.05 655.61,190.19 659.42,192.63 660.89,193.55 663.53,195.18 665.58,196.43 667.63,197.67 670.56,199.40 673.50,201.10 675.55,202.27 679.65,204.57 681.12,205.38 685.23,207.59 689.33,209.75 690.80,210.51 694.61,212.43 696.07,213.15 699.59,214.85 701.35,215.68 704.87,217.30 707.80,218.61 710.44,219.75 713.96,221.21 717.19,222.51 721.00,223.98 725.10,225.48 727.45,226.31 730.97,227.51 734.78,228.77 738.00,229.79 742.40,231.12 747.39,232.58 752.66,234.05 758.53,235.62 762.63,236.68 768.79,238.22 775.24,239.78 782.28,241.41 790.78,243.30 801.63,245.66 814.53,248.39 828.90,251.35 839.16,253.40 857.93,257.12"/>
<polyline fill="none" stroke="#1f77b4" stroke-width="1.1" stroke-dasharray="6 4" points="492.00,325.53 496.81,322.48 501.62,319.43 506.43,316.38 511.24,313.33 516.05,310.27 520.86,307.22 525.67,304.17 530.48,301.12 535.29,298.07 540.10,295.02 544.91,291.97 549.72,288.91 554.53,285.86 559.34,282.81 564.15,279.76 568.96,276.71 573.77,273.66 578.58,270.61 583.39,267.55 588.20,264.50 593.01,261.45 597.82,258.40 602.63,255.35 607.44,252.30 612.25,249.25 617.06,246.19 621.87,243.14 626.68,240.09 631.49,237.04 636.30,233.99 641.11,230.94 645.92,227.89 650.73,224.83 655.54,221.78 660.35,218.73 665.16,215.68 669.97,212.63 674.78,209.58 679.59,206.53 684.41,203.47 689.22,200.42 694.03,197.37 698.84,194.32 703.65,191.27 708.46,188.22 713.27,185.17 718.08,182.11 722.89,179.06 727.70,176.01 732.51,172.96 737.32,169.91 742.13,166.86 746.94,163.81 751.75,160.75 756.56,157.70 761.37,154.65 766.18,151.60 770.99,148.55 775.80,145.50 780.61,142.45 785.42,139.39 790.23,136.34 795.04,133.29 799.85,130.24 804.66,127.19 809.47,124.14 814.28,121.09 819.09,118.03 823.90,114.98 828.71,111.93 833.52,108.88 838.33,105.83 843.14,102.78 847.95,99.73 852.76,96.67 857.57,93.62 862.38,90.57 867.19,87.52 872.00,84.47"/>
<circle cx="684.66" cy="203.31" r="4.6" fill="#ffffff" stroke="#1f77b4" stroke-width="2"/>
<text x="690.66" y="197.31" font-family="Arial, sans-serif" font-size="10" fill="#1f77b4">typ 54.8 ohm</text>
<polyline fill="none" stroke="#ff7f0e" stroke-width="1.1" stroke-dasharray="6 4" points="492.00,321.81 496.81,318.76 501.62,315.71 506.43,312.66 511.24,309.60 516.05,306.55 520.86,303.50 525.67,300.45 530.48,297.40 535.29,294.35 540.10,291.30 544.91,288.25 549.72,285.19 554.53,282.14 559.34,279.09 564.15,276.04 568.96,272.99 573.77,269.94 578.58,266.89 583.39,263.83 588.20,260.78 593.01,257.73 597.82,254.68 602.63,251.63 607.44,248.58 612.25,245.53 617.06,242.47 621.87,239.42 626.68,236.37 631.49,233.32 636.30,230.27 641.11,227.22 645.92,224.17 650.73,221.11 655.54,218.06 660.35,215.01 665.16,211.96 669.97,208.91 674.78,205.86 679.59,202.81 684.41,199.75 689.22,196.70 694.03,193.65 698.84,190.60 703.65,187.55 708.46,184.50 713.27,181.45 718.08,178.39 722.89,175.34 727.70,172.29 732.51,169.24 737.32,166.19 742.13,163.14 746.94,160.09 751.75,157.03 756.56,153.98 761.37,150.93 766.18,147.88 770.99,144.83 775.80,141.78 780.61,138.73 785.42,135.67 790.23,132.62 795.04,129.57 799.85,126.52 804.66,123.47 809.47,120.42 814.28,117.37 819.09,114.31 823.90,111.26 828.71,108.21 833.52,105.16 838.33,102.11 843.14,99.06 847.95,96.01 852.76,92.95 857.57,89.90 862.38,86.85 867.19,83.80 872.00,80.75"/>
<circle cx="683.42" cy="200.38" r="4.6" fill="#ffffff" stroke="#ff7f0e" stroke-width="2"/>
<text x="689.42" y="194.38" font-family="Arial, sans-serif" font-size="10" fill="#ff7f0e">min 58.5 ohm</text>
<polyline fill="none" stroke="#2ca02c" stroke-width="1.1" stroke-dasharray="6 4" points="492.00,329.25 496.81,326.20 501.62,323.15 506.43,320.10 511.24,317.05 516.05,313.99 520.86,310.94 525.67,307.89 530.48,304.84 535.29,301.79 540.10,298.74 544.91,295.69 549.72,292.63 554.53,289.58 559.34,286.53 564.15,283.48 568.96,280.43 573.77,277.38 578.58,274.33 583.39,271.27 588.20,268.22 593.01,265.17 597.82,262.12 602.63,259.07 607.44,256.02 612.25,252.97 617.06,249.91 621.87,246.86 626.68,243.81 631.49,240.76 636.30,237.71 641.11,234.66 645.92,231.61 650.73,228.55 655.54,225.50 660.35,222.45 665.16,219.40 669.97,216.35 674.78,213.30 679.59,210.25 684.41,207.19 689.22,204.14 694.03,201.09 698.84,198.04 703.65,194.99 708.46,191.94 713.27,188.89 718.08,185.83 722.89,182.78 727.70,179.73 732.51,176.68 737.32,173.63 742.13,170.58 746.94,167.53 751.75,164.47 756.56,161.42 761.37,158.37 766.18,155.32 770.99,152.27 775.80,149.22 780.61,146.17 785.42,143.11 790.23,140.06 795.04,137.01 799.85,133.96 804.66,130.91 809.47,127.86 814.28,124.81 819.09,121.75 823.90,118.70 828.71,115.65 833.52,112.60 838.33,109.55 843.14,106.50 847.95,103.45 852.76,100.40 857.57,97.34 862.38,94.29 867.19,91.24 872.00,88.19"/>
<circle cx="684.44" cy="207.17" r="4.6" fill="#ffffff" stroke="#2ca02c" stroke-width="2"/>
<text x="690.44" y="201.17" font-family="Arial, sans-serif" font-size="10" fill="#2ca02c">max 49.2 ohm</text>
<line x1="502.00" y1="80.00" x2="524.00" y2="80.00" stroke="#1f77b4" stroke-width="2"/>
<text x="530.00" y="84.00" font-family="Arial, sans-serif" font-size="11">typ</text>
<line x1="502.00" y1="97.00" x2="524.00" y2="97.00" stroke="#ff7f0e" stroke-width="2" stroke-dasharray="5 4"/>
<text x="530.00" y="101.00" font-family="Arial, sans-serif" font-size="11">min</text>
<line x1="502.00" y1="114.00" x2="524.00" y2="114.00" stroke="#2ca02c" stroke-width="2" stroke-dasharray="2 4"/>
<text x="530.00" y="118.00" font-family="Arial, sans-serif" font-size="11">max</text>
<text x="682.00" y="386.00" text-anchor="middle" font-family="Arial, sans-serif" font-size="11">Vcc-relative table voltage (V)</text>
<text transform="translate(442.00 205.00) rotate(-90)" text-anchor="middle" font-family="Arial, sans-serif" font-size="11">Current (mA)</text>
<rect x="72.00" y="418.00" width="800.00" height="144.00" fill="#ffffff" stroke="#c8c8c8"/>
<text x="82.00" y="436.00" font-family="Arial, sans-serif" font-size="12" font-weight="700">Operating-point summary</text>
<text x="82.00" y="454.00" font-family="Arial, sans-serif" font-size="10" font-weight="700" fill="#333">Table</text>
<text x="174.00" y="454.00" font-family="Arial, sans-serif" font-size="10" font-weight="700" fill="#333">Corner</text>
<text x="242.00" y="454.00" font-family="Arial, sans-serif" font-size="10" font-weight="700" fill="#333">Vout</text>
<text x="332.00" y="454.00" font-family="Arial, sans-serif" font-size="10" font-weight="700" fill="#333">Iop</text>
<text x="422.00" y="454.00" font-family="Arial, sans-serif" font-size="10" font-weight="700" fill="#333">Zout</text>
<text x="512.00" y="454.00" font-family="Arial, sans-serif" font-size="10" font-weight="700" fill="#333">Rseries</text>
<text x="82.00" y="473.00" font-family="Arial, sans-serif" font-size="10" fill="#1f77b4">pulldown</text>
<text x="174.00" y="473.00" font-family="Arial, sans-serif" font-size="10" fill="#1f77b4">typ</text>
<text x="242.00" y="473.00" font-family="Arial, sans-serif" font-size="10" fill="#1f77b4">0.506 V</text>
<text x="332.00" y="473.00" font-family="Arial, sans-serif" font-size="10" fill="#1f77b4">14 mA</text>
<text x="422.00" y="473.00" font-family="Arial, sans-serif" font-size="10" fill="#1f77b4">36.5 ohm</text>
<text x="512.00" y="473.00" font-family="Arial, sans-serif" font-size="10" fill="#1f77b4">13.5 ohm</text>
<text x="82.00" y="492.00" font-family="Arial, sans-serif" font-size="10" fill="#ff7f0e">pulldown</text>
<text x="174.00" y="492.00" font-family="Arial, sans-serif" font-size="10" fill="#ff7f0e">min</text>
<text x="242.00" y="492.00" font-family="Arial, sans-serif" font-size="10" fill="#ff7f0e">0.5029 V</text>
<text x="332.00" y="492.00" font-family="Arial, sans-serif" font-size="10" fill="#ff7f0e">13 mA</text>
<text x="422.00" y="492.00" font-family="Arial, sans-serif" font-size="10" fill="#ff7f0e">39.5 ohm</text>
<text x="512.00" y="492.00" font-family="Arial, sans-serif" font-size="10" fill="#ff7f0e">10.5 ohm</text>
<text x="82.00" y="511.00" font-family="Arial, sans-serif" font-size="10" fill="#2ca02c">pulldown</text>
<text x="174.00" y="511.00" font-family="Arial, sans-serif" font-size="10" fill="#2ca02c">max</text>
<text x="242.00" y="511.00" font-family="Arial, sans-serif" font-size="10" fill="#2ca02c">0.5236 V</text>
<text x="332.00" y="511.00" font-family="Arial, sans-serif" font-size="10" fill="#2ca02c">15 mA</text>
<text x="422.00" y="511.00" font-family="Arial, sans-serif" font-size="10" fill="#2ca02c">35.6 ohm</text>
<text x="512.00" y="511.00" font-family="Arial, sans-serif" font-size="10" fill="#2ca02c">14.4 ohm</text>
<text x="82.00" y="530.00" font-family="Arial, sans-serif" font-size="10" fill="#1f77b4">pullup</text>
<text x="174.00" y="530.00" font-family="Arial, sans-serif" font-size="10" fill="#1f77b4">typ</text>
<text x="242.00" y="530.00" font-family="Arial, sans-serif" font-size="10" fill="#1f77b4">0.5728 V</text>
<text x="332.00" y="530.00" font-family="Arial, sans-serif" font-size="10" fill="#1f77b4">-11 mA</text>
<text x="422.00" y="530.00" font-family="Arial, sans-serif" font-size="10" fill="#1f77b4">54.8 ohm</text>
<text x="512.00" y="530.00" font-family="Arial, sans-serif" font-size="10" fill="#1f77b4">-4.75 ohm</text>
<text x="82.00" y="549.00" font-family="Arial, sans-serif" font-size="10" fill="#ff7f0e">pullup</text>
<text x="174.00" y="549.00" font-family="Arial, sans-serif" font-size="10" fill="#ff7f0e">min</text>
<text x="242.00" y="549.00" font-family="Arial, sans-serif" font-size="10" fill="#ff7f0e">0.5255 V</text>
<text x="332.00" y="549.00" font-family="Arial, sans-serif" font-size="10" fill="#ff7f0e">-11 mA</text>
<text x="422.00" y="549.00" font-family="Arial, sans-serif" font-size="10" fill="#ff7f0e">58.5 ohm</text>
<text x="512.00" y="549.00" font-family="Arial, sans-serif" font-size="10" fill="#ff7f0e">-8.478 ohm</text>
<text x="82.00" y="568.00" font-family="Arial, sans-serif" font-size="10" fill="#2ca02c">pullup</text>
<text x="174.00" y="568.00" font-family="Arial, sans-serif" font-size="10" fill="#2ca02c">max</text>
<text x="242.00" y="568.00" font-family="Arial, sans-serif" font-size="10" fill="#2ca02c">0.635 V</text>
<text x="332.00" y="568.00" font-family="Arial, sans-serif" font-size="10" fill="#2ca02c">-13 mA</text>
<text x="422.00" y="568.00" font-family="Arial, sans-serif" font-size="10" fill="#2ca02c">49.2 ohm</text>
<text x="512.00" y="568.00" font-family="Arial, sans-serif" font-size="10" fill="#2ca02c">0.79 ohm</text>
</svg>