<svg xmlns="http://www.w3.org/2000/svg" width="900" height="620" viewBox="0 0 900 620">
<rect width="100%" height="100%" fill="#ffffff"/>
<text x="72" y="26" font-family="Arial, sans-serif" font-size="16" font-weight="700">DQ_40_3200 Zout Load-Line Curves</text>
<text x="72" y="45" font-family="Arial, sans-serif" font-size="11" fill="#555">Rload=50 ohm; solid=device I-V, dashed=load line, circles=operating points</text>
<rect x="72.00" y="62.00" width="380.00" height="286.00" fill="#fbfbfb" stroke="#c8c8c8"/>
<text x="80.00" y="50.00" font-family="Arial, sans-serif" font-size="13" font-weight="700">[Pulldown] Rload to Vdd</text>
<line x1="72.00" y1="62.00" x2="72.00" y2="348.00" stroke="#ececec"/>
<text x="72.00" y="366.00" text-anchor="middle" font-family="Arial, sans-serif" font-size="10">-1.3</text>
<line x1="167.00" y1="62.00" x2="167.00" y2="348.00" stroke="#ececec"/>
<text x="167.00" y="366.00" text-anchor="middle" font-family="Arial, sans-serif" font-size="10">-0.372</text>
<line x1="262.00" y1="62.00" x2="262.00" y2="348.00" stroke="#ececec"/>
<text x="262.00" y="366.00" text-anchor="middle" font-family="Arial, sans-serif" font-size="10">0.6</text>
<line x1="357.00" y1="62.00" x2="357.00" y2="348.00" stroke="#ececec"/>
<text x="357.00" y="366.00" text-anchor="middle" font-family="Arial, sans-serif" font-size="10">1.6</text>
<line x1="452.00" y1="62.00" x2="452.00" y2="348.00" stroke="#ececec"/>
<text x="452.00" y="366.00" text-anchor="middle" font-family="Arial, sans-serif" font-size="10">2.5</text>
<line x1="72.00" y1="348.00" x2="452.00" y2="348.00" stroke="#ececec"/>
<text x="65.00" y="352.00" text-anchor="end" font-family="Arial, sans-serif" font-size="10">-34</text>
<line x1="72.00" y1="276.50" x2="452.00" y2="276.50" stroke="#ececec"/>
<text x="65.00" y="280.50" text-anchor="end" font-family="Arial, sans-serif" font-size="10">-11</text>
<line x1="72.00" y1="205.00" x2="452.00" y2="205.00" stroke="#ececec"/>
<text x="65.00" y="209.00" text-anchor="end" font-family="Arial, sans-serif" font-size="10">13</text>
<line x1="72.00" y1="133.50" x2="452.00" y2="133.50" stroke="#ececec"/>
<text x="65.00" y="137.50" text-anchor="end" font-family="Arial, sans-serif" font-size="10">36</text>
<line x1="72.00" y1="62.00" x2="452.00" y2="62.00" stroke="#ececec"/>
<text x="65.00" y="66.00" text-anchor="end" font-family="Arial, sans-serif" font-size="10">60</text>
<line x1="203.36" y1="62" x2="203.36" y2="348" stroke="#777" stroke-dasharray="4 4"/>
<line x1="72.0" y1="243.83" x2="452.0" y2="243.83" stroke="#777" stroke-dasharray="4 4"/>
<polyline fill="none" stroke="#1f77b4" stroke-width="1.8" points="86.07,296.52 95.16,296.26 104.55,296.01 112.17,295.78 118.62,295.54 124.19,295.24 128.88,294.91 132.99,294.53 136.51,294.11 139.73,293.64 142.66,293.12 145.01,292.64 146.77,292.22 148.53,291.77 150.58,291.16 151.46,290.88 152.63,290.45 154.10,289.93 155.86,289.16 157.03,288.65 157.62,288.34 158.79,287.72 159.96,287.10 160.84,286.55 162.90,285.26 164.07,284.39 165.24,283.51 165.83,283.08 167.29,281.83 168.76,280.59 170.52,278.94 171.98,277.55 173.74,275.78 175.21,274.28 177.85,271.51 182.83,266.16 197.79,249.89 203.36,243.83 210.10,236.55 216.55,229.67 222.71,223.20 227.69,218.05 230.63,215.04 234.73,210.88 237.37,208.23 239.72,205.90 242.94,202.73 246.17,199.58 248.51,197.34 251.44,194.55 253.50,192.65 255.55,190.75 257.60,188.88 261.12,185.72 263.17,183.94 266.40,181.16 271.09,177.26 275.78,173.53 279.30,170.83 281.65,169.05 285.16,166.48 287.22,165.00 289.85,163.14 292.20,161.51 294.55,159.91 297.48,157.94 299.53,156.59 302.46,154.69 304.52,153.39 307.45,151.56 311.85,148.88 314.19,147.49 317.12,145.78 321.81,143.13 326.51,140.59 331.49,138.02 336.48,135.57 341.46,133.24 346.44,131.04 351.43,128.95 356.12,127.08 360.52,125.43 364.92,123.84 369.61,122.21 374.59,120.55 379.87,118.86 385.44,117.14 391.31,115.40 397.17,113.74 403.62,111.98 409.19,110.50 415.06,108.98 424.15,106.69 433.23,104.48 437.93,103.37"/>
<polyline fill="none" stroke="#ff7f0e" stroke-width="1.8" stroke-dasharray="5 4" points="86.07,296.17 95.16,295.97 104.55,295.65 112.17,295.28 118.62,294.87 124.19,294.40 128.88,293.91 132.99,293.38 136.51,292.83 139.73,292.24 142.66,291.60 145.01,291.01 146.77,290.52 148.53,289.99 150.58,289.30 151.46,288.97 152.63,288.52 154.10,287.90 155.86,287.08 157.03,286.50 157.62,286.18 158.79,285.54 159.96,284.84 160.84,284.31 162.90,282.94 164.07,282.08 165.24,281.21 165.83,280.74 167.29,279.56 168.76,278.30 170.52,276.74 171.98,275.38 173.74,273.72 175.21,272.30 177.85,269.70 182.83,264.68 197.79,249.48 203.36,243.83 210.10,237.06 216.55,230.68 222.71,224.69 227.69,219.93 230.63,217.15 234.73,213.32 237.37,210.88 239.72,208.74 242.94,205.81 246.17,202.96 248.51,200.88 251.44,198.35 253.50,196.59 255.55,194.85 257.60,193.16 261.12,190.27 263.17,188.64 266.40,186.10 271.09,182.57 275.78,179.19 279.30,176.76 281.65,175.19 285.16,172.90 287.22,171.61 289.85,169.98 292.20,168.59 294.55,167.21 297.48,165.56 299.53,164.43 302.46,162.86 304.52,161.80 307.45,160.32 311.85,158.21 314.19,157.14 317.12,155.82 321.81,153.83 326.51,151.95 331.49,150.06 336.48,148.28 341.46,146.59 346.44,144.98 351.43,143.46 356.12,142.08 360.52,140.83 364.92,139.63 369.61,138.38 374.59,137.09 379.87,135.76 385.44,134.41 391.31,133.03 397.17,131.68 403.62,130.22 409.19,128.99 415.06,127.72 424.15,125.81 433.23,123.94 437.93,122.99"/>
<polyline fill="none" stroke="#2ca02c" stroke-width="1.8" stroke-dasharray="2 4" points="86.07,295.05 95.16,294.61 104.55,294.24 112.17,294.04 118.62,293.95 124.19,293.93 128.88,293.93 132.99,293.90 136.51,293.83 139.73,293.70 142.66,293.49 145.01,293.26 146.77,293.04 148.53,292.76 150.58,292.36 151.46,292.15 152.63,291.85 154.10,291.43 155.86,290.78 157.03,290.34 157.62,290.12 158.79,289.52 159.96,288.93 160.84,288.47 162.90,287.12 164.07,286.34 165.24,285.38 165.83,284.90 167.29,283.70 168.76,282.30 170.52,280.62 171.98,279.10 173.74,277.25 175.21,275.66 177.85,272.74 182.83,267.15 197.79,250.18 203.36,243.83 210.10,236.20 216.55,229.02 222.71,222.27 227.69,216.91 230.63,213.79 234.73,209.49 237.37,206.78 239.72,204.39 242.94,201.16 246.17,198.01 248.51,195.75 251.44,193.02 253.50,191.14 255.55,189.30 257.60,187.47 261.12,184.45 263.17,182.72 266.40,180.05 271.09,176.28 275.78,172.61 279.30,169.91 281.65,168.14 285.16,165.51 287.22,163.99 289.85,162.05 292.20,160.35 294.55,158.66 297.48,156.56 299.53,155.10 302.46,153.04 304.52,151.60 307.45,149.57 311.85,146.56 314.19,144.97 317.12,143.01 321.81,139.91 326.51,136.86 331.49,133.70 336.48,130.62 341.46,127.64 346.44,124.76 351.43,121.99 356.12,119.48 360.52,117.24 364.92,115.10 369.61,112.93 374.59,110.74 379.87,108.52 385.44,106.30 391.31,104.09 397.17,101.99 403.62,99.80 409.19,97.99 415.06,96.17 424.15,93.50 433.23,90.95 437.93,89.68"/>
<polyline fill="none" stroke="#1f77b4" stroke-width="1.1" stroke-dasharray="6 4" points="72.00,89.40 76.81,92.38 81.62,95.37 86.43,98.36 91.24,101.35 96.05,104.33 100.86,107.32 105.67,110.31 110.48,113.30 115.29,116.28 120.10,119.27 124.91,122.26 129.72,125.25 134.53,128.23 139.34,131.22 144.15,134.21 148.96,137.20 153.77,140.19 158.58,143.17 163.39,146.16 168.20,149.15 173.01,152.14 177.82,155.12 182.63,158.11 187.44,161.10 192.25,164.09 197.06,167.07 201.87,170.06 206.68,173.05 211.49,176.04 216.30,179.03 221.11,182.01 225.92,185.00 230.73,187.99 235.54,190.98 240.35,193.96 245.16,196.95 249.97,199.94 254.78,202.93 259.59,205.91 264.41,208.90 269.22,211.89 274.03,214.88 278.84,217.87 283.65,220.85 288.46,223.84 293.27,226.83 298.08,229.82 302.89,232.80 307.70,235.79 312.51,238.78 317.32,241.77 322.13,244.75 326.94,247.74 331.75,250.73 336.56,253.72 341.37,256.71 346.18,259.69 350.99,262.68 355.80,265.67 360.61,268.66 365.42,271.64 370.23,274.63 375.04,277.62 379.85,280.61 384.66,283.59 389.47,286.58 394.28,289.57 399.09,292.56 403.90,295.55 408.71,298.53 413.52,301.52 418.33,304.51 423.14,307.50 427.95,310.48 432.76,313.47 437.57,316.46 442.38,319.45 447.19,322.43 452.00,325.42"/>
<circle cx="247.44" cy="198.37" r="4.6" fill="#ffffff" stroke="#1f77b4" stroke-width="2"/>
<text x="253.44" y="192.37" font-family="Arial, sans-serif" font-size="10" fill="#1f77b4">typ 30.1 ohm</text>
<polyline fill="none" stroke="#ff7f0e" stroke-width="1.1" stroke-dasharray="6 4" points="72.00,93.04 76.81,96.03 81.62,99.01 86.43,102.00 91.24,104.99 96.05,107.98 100.86,110.96 105.67,113.95 110.48,116.94 115.29,119.93 120.10,122.91 124.91,125.90 129.72,128.89 134.53,131.88 139.34,134.87 144.15,137.85 148.96,140.84 153.77,143.83 158.58,146.82 163.39,149.80 168.20,152.79 173.01,155.78 177.82,158.77 182.63,161.75 187.44,164.74 192.25,167.73 197.06,170.72 201.87,173.70 206.68,176.69 211.49,179.68 216.30,182.67 221.11,185.66 225.92,188.64 230.73,191.63 235.54,194.62 240.35,197.61 245.16,200.59 249.97,203.58 254.78,206.57 259.59,209.56 264.41,212.54 269.22,215.53 274.03,218.52 278.84,221.51 283.65,224.50 288.46,227.48 293.27,230.47 298.08,233.46 302.89,236.45 307.70,239.43 312.51,242.42 317.32,245.41 322.13,248.40 326.94,251.38 331.75,254.37 336.56,257.36 341.37,260.35 346.18,263.34 350.99,266.32 355.80,269.31 360.61,272.30 365.42,275.29 370.23,278.27 375.04,281.26 379.85,284.25 384.66,287.24 389.47,290.22 394.28,293.21 399.09,296.20 403.90,299.19 408.71,302.18 413.52,305.16 418.33,308.15 423.14,311.14 427.95,314.13 432.76,317.11 437.57,320.10 442.38,323.09 447.19,326.08 452.00,329.06"/>
<circle cx="247.32" cy="201.93" r="4.6" fill="#ffffff" stroke="#ff7f0e" stroke-width="2"/>
<text x="253.32" y="195.93" font-family="Arial, sans-serif" font-size="10" fill="#ff7f0e">min 32.6 ohm</text>
<polyline fill="none" stroke="#2ca02c" stroke-width="1.1" stroke-dasharray="6 4" points="72.00,85.75 76.81,88.74 81.62,91.73 86.43,94.72 91.24,97.70 96.05,100.69 100.86,103.68 105.67,106.67 110.48,109.65 115.29,112.64 120.10,115.63 124.91,118.62 129.72,121.60 134.53,124.59 139.34,127.58 144.15,130.57 148.96,133.56 153.77,136.54 158.58,139.53 163.39,142.52 168.20,145.51 173.01,148.49 177.82,151.48 182.63,154.47 187.44,157.46 192.25,160.44 197.06,163.43 201.87,166.42 206.68,169.41 211.49,172.40 216.30,175.38 221.11,178.37 225.92,181.36 230.73,184.35 235.54,187.33 240.35,190.32 245.16,193.31 249.97,196.30 254.78,199.28 259.59,202.27 264.41,205.26 269.22,208.25 274.03,211.24 278.84,214.22 283.65,217.21 288.46,220.20 293.27,223.19 298.08,226.17 302.89,229.16 307.70,232.15 312.51,235.14 317.32,238.12 322.13,241.11 326.94,244.10 331.75,247.09 336.56,250.08 341.37,253.06 346.18,256.05 350.99,259.04 355.80,262.03 360.61,265.01 365.42,268.00 370.23,270.99 375.04,273.98 379.85,276.96 384.66,279.95 389.47,282.94 394.28,285.93 399.09,288.92 403.90,291.90 408.71,294.89 413.52,297.88 418.33,300.87 423.14,303.85 427.95,306.84 432.76,309.83 437.57,312.82 442.38,315.80 447.19,318.79 452.00,321.78"/>
<circle cx="248.75" cy="195.53" r="4.6" fill="#ffffff" stroke="#2ca02c" stroke-width="2"/>
<text x="254.75" y="189.53" font-family="Arial, sans-serif" font-size="10" fill="#2ca02c">max 29.2 ohm</text>
<line x1="82.00" y1="80.00" x2="104.00" y2="80.00" stroke="#1f77b4" stroke-width="2"/>
<text x="110.00" y="84.00" font-family="Arial, sans-serif" font-size="11">typ</text>
<line x1="82.00" y1="97.00" x2="104.00" y2="97.00" stroke="#ff7f0e" stroke-width="2" stroke-dasharray="5 4"/>
<text x="110.00" y="101.00" font-family="Arial, sans-serif" font-size="11">min</text>
<line x1="82.00" y1="114.00" x2="104.00" y2="114.00" stroke="#2ca02c" stroke-width="2" stroke-dasharray="2 4"/>
<text x="110.00" y="118.00" font-family="Arial, sans-serif" font-size="11">max</text>
<text x="262.00" y="386.00" text-anchor="middle" font-family="Arial, sans-serif" font-size="11">Output voltage (V)</text>
<text transform="translate(22.00 205.00) rotate(-90)" text-anchor="middle" font-family="Arial, sans-serif" font-size="11">Current (mA)</text>
<rect x="492.00" y="62.00" width="380.00" height="286.00" fill="#fbfbfb" stroke="#c8c8c8"/>
<text x="500.00" y="50.00" font-family="Arial, sans-serif" font-size="13" font-weight="700">[Pullup] Rload to GND</text>
<line x1="492.00" y1="62.00" x2="492.00" y2="348.00" stroke="#ececec"/>
<text x="492.00" y="366.00" text-anchor="middle" font-family="Arial, sans-serif" font-size="10">-1.3</text>
<line x1="587.00" y1="62.00" x2="587.00" y2="348.00" stroke="#ececec"/>
<text x="587.00" y="366.00" text-anchor="middle" font-family="Arial, sans-serif" font-size="10">-0.372</text>
<line x1="682.00" y1="62.00" x2="682.00" y2="348.00" stroke="#ececec"/>
<text x="682.00" y="366.00" text-anchor="middle" font-family="Arial, sans-serif" font-size="10">0.6</text>
<line x1="777.00" y1="62.00" x2="777.00" y2="348.00" stroke="#ececec"/>
<text x="777.00" y="366.00" text-anchor="middle" font-family="Arial, sans-serif" font-size="10">1.6</text>
<line x1="872.00" y1="62.00" x2="872.00" y2="348.00" stroke="#ececec"/>
<text x="872.00" y="366.00" text-anchor="middle" font-family="Arial, sans-serif" font-size="10">2.5</text>
<line x1="492.00" y1="348.00" x2="872.00" y2="348.00" stroke="#ececec"/>
<text x="485.00" y="352.00" text-anchor="end" font-family="Arial, sans-serif" font-size="10">-58</text>
<line x1="492.00" y1="276.50" x2="872.00" y2="276.50" stroke="#ececec"/>
<text x="485.00" y="280.50" text-anchor="end" font-family="Arial, sans-serif" font-size="10">-35</text>
<line x1="492.00" y1="205.00" x2="872.00" y2="205.00" stroke="#ececec"/>
<text x="485.00" y="209.00" text-anchor="end" font-family="Arial, sans-serif" font-size="10">-12</text>
<line x1="492.00" y1="133.50" x2="872.00" y2="133.50" stroke="#ececec"/>
<text x="485.00" y="137.50" text-anchor="end" font-family="Arial, sans-serif" font-size="10">11</text>
<line x1="492.00" y1="62.00" x2="872.00" y2="62.00" stroke="#ececec"/>
<text x="485.00" y="66.00" text-anchor="end" font-family="Arial, sans-serif" font-size="10">34</text>
<line x1="623.36" y1="62" x2="623.36" y2="348" stroke="#777" stroke-dasharray="4 4"/>
<line x1="492.0" y1="167.80" x2="872.0" y2="167.80" stroke="#777" stroke-dasharray="4 4"/>
<polyline fill="none" stroke="#1f77b4" stroke-width="1.8" points="506.07,119.91 506.37,119.98 508.42,120.24 511.06,120.63 513.99,121.09 516.34,121.47 518.98,121.91 522.49,122.49 525.13,122.89 529.24,123.52 534.81,124.35 540.38,125.19 545.66,126.02 551.52,127.00 556.51,127.89 560.90,128.74 564.72,129.55 567.35,130.16 569.41,130.67 571.46,131.22 573.22,131.74 574.39,132.10 576.74,132.90 577.62,133.24 579.08,133.84 579.96,134.20 580.84,134.63 582.90,135.63 584.07,136.31 585.24,136.98 585.83,137.33 587.29,138.30 588.76,139.28 590.52,140.59 591.98,141.69 594.04,143.33 595.80,144.77 599.02,147.47 607.82,154.93 613.98,160.10 619.25,164.46 623.36,167.80 628.93,172.26 633.03,175.49 637.14,178.69 640.95,181.61 643.30,183.38 646.81,185.99 650.04,188.35 652.39,190.04 654.73,191.69 656.78,193.13 659.42,194.92 662.06,196.69 663.23,197.46 667.05,199.93 669.39,201.39 672.03,203.04 675.26,204.98 677.31,206.21 681.12,208.42 683.76,209.90 686.40,211.37 691.09,213.88 695.78,216.27 698.71,217.70 700.77,218.69 703.70,220.04 706.04,221.10 709.85,222.73 711.91,223.59 714.84,224.76 716.89,225.57 719.82,226.67 722.17,227.53 724.81,228.46 727.45,229.37 729.79,230.15 733.02,231.20 737.12,232.48 740.35,233.46 744.16,234.57 748.85,235.89 753.54,237.17 758.82,238.56 764.10,239.90 770.84,241.56 778.17,243.29 786.09,245.09 797.52,247.63 810.72,250.47 823.91,253.23 836.52,255.81 857.93,260.15"/>
<polyline fill="none" stroke="#ff7f0e" stroke-width="1.8" stroke-dasharray="5 4" points="506.07,123.94 506.37,123.94 508.42,123.94 511.06,123.94 513.99,123.94 516.34,123.94 518.98,123.94 522.49,123.94 525.13,123.94 529.24,123.94 534.81,124.31 540.38,125.10 545.66,125.92 551.52,126.94 556.51,127.89 560.90,128.82 564.72,129.70 567.35,130.38 569.41,130.95 571.46,131.57 573.22,132.15 574.39,132.55 576.74,133.45 577.62,133.82 579.08,134.46 579.96,134.88 580.84,135.29 582.90,136.36 584.07,137.04 585.24,137.73 585.83,138.10 587.29,139.04 588.76,140.04 590.52,141.30 591.98,142.40 594.04,143.99 595.80,145.39 599.02,148.01 607.82,155.31 613.98,160.34 619.25,164.57 623.36,167.80 628.93,172.09 633.03,175.19 637.14,178.24 640.95,181.03 643.30,182.71 646.81,185.17 650.04,187.43 652.39,188.99 654.73,190.55 656.78,191.91 659.42,193.56 662.06,195.22 663.23,195.94 667.05,198.17 669.39,199.54 672.03,201.00 675.26,202.76 677.31,203.82 681.12,205.78 683.76,207.05 686.40,208.31 691.09,210.42 695.78,212.39 698.71,213.55 700.77,214.34 703.70,215.42 706.04,216.25 709.85,217.55 711.91,218.21 714.84,219.14 716.89,219.76 719.82,220.62 722.17,221.29 724.81,222.02 727.45,222.73 729.79,223.35 733.02,224.17 737.12,225.18 740.35,225.95 744.16,226.83 748.85,227.88 753.54,228.91 758.82,230.02 764.10,231.11 770.84,232.44 778.17,233.85 786.09,235.32 797.52,237.41 810.72,239.72 823.91,242.00 836.52,244.14 857.93,247.73"/>
<polyline fill="none" stroke="#2ca02c" stroke-width="1.8" stroke-dasharray="2 4" points="506.07,117.04 506.37,117.10 508.42,117.48 511.06,117.97 513.99,118.46 516.34,118.84 518.98,119.27 522.49,119.83 525.13,120.20 529.24,120.76 534.81,121.51 540.38,122.28 545.66,123.06 551.52,123.98 556.51,124.83 560.90,125.64 564.72,126.39 567.35,126.96 569.41,127.43 571.46,127.94 573.22,128.43 574.39,128.78 576.74,129.59 577.62,129.89 579.08,130.55 579.96,130.95 580.84,131.35 582.90,132.54 584.07,133.23 585.24,134.07 585.83,134.50 587.29,135.55 588.76,136.76 590.52,138.22 591.98,139.51 594.04,141.34 595.80,142.93 599.02,145.89 607.82,153.93 613.98,159.48 619.25,164.18 623.36,167.80 628.93,172.64 633.03,176.17 637.14,179.65 640.95,182.85 643.30,184.79 646.81,187.67 650.04,190.28 652.39,192.14 654.73,193.98 656.78,195.57 659.42,197.58 662.06,199.56 663.23,200.44 667.05,203.21 669.39,204.88 672.03,206.73 675.26,208.95 677.31,210.35 681.12,212.88 683.76,214.59 686.40,216.29 691.09,219.22 695.78,222.04 698.71,223.74 700.77,224.92 703.70,226.54 706.04,227.82 709.85,229.83 711.91,230.86 714.84,232.32 716.89,233.29 719.82,234.67 722.17,235.72 724.81,236.88 727.45,238.00 729.79,238.97 733.02,240.26 737.12,241.84 740.35,243.03 744.16,244.40 748.85,246.02 753.54,247.58 758.82,249.26 764.10,250.89 770.84,252.90 778.17,254.99 786.09,257.16 797.52,260.17 810.72,263.54 823.91,266.83 836.52,269.90 857.93,274.99"/>
<polyline fill="none" stroke="#1f77b4" stroke-width="1.1" stroke-dasharray="6 4" points="492.00,325.53 496.81,322.48 501.62,319.43 506.43,316.38 511.24,313.33 516.05,310.27 520.86,307.22 525.67,304.17 530.48,301.12 535.29,298.07 540.10,295.02 544.91,291.97 549.72,288.91 554.53,285.86 559.34,282.81 564.15,279.76 568.96,276.71 573.77,273.66 578.58,270.61 583.39,267.55 588.20,264.50 593.01,261.45 597.82,258.40 602.63,255.35 607.44,252.30 612.25,249.25 617.06,246.19 621.87,243.14 626.68,240.09 631.49,237.04 636.30,233.99 641.11,230.94 645.92,227.89 650.73,224.83 655.54,221.78 660.35,218.73 665.16,215.68 669.97,212.63 674.78,209.58 679.59,206.53 684.41,203.47 689.22,200.42 694.03,197.37 698.84,194.32 703.65,191.27 708.46,188.22 713.27,185.17 718.08,182.11 722.89,179.06 727.70,176.01 732.51,172.96 737.32,169.91 742.13,166.86 746.94,163.81 751.75,160.75 756.56,157.70 761.37,154.65 766.18,151.60 770.99,148.55 775.80,145.50 780.61,142.45 785.42,139.39 790.23,136.34 795.04,133.29 799.85,130.24 804.66,127.19 809.47,124.14 814.28,121.09 819.09,118.03 823.90,114.98 828.71,111.93 833.52,108.88 838.33,105.83 843.14,102.78 847.95,99.73 852.76,96.67 857.57,93.62 862.38,90.57 867.19,87.52 872.00,84.47"/>
<circle cx="678.77" cy="207.05" r="4.6" fill="#ffffff" stroke="#1f77b4" stroke-width="2"/>
<text x="684.77" y="201.05" font-family="Arial, sans-serif" font-size="10" fill="#1f77b4">typ 44.8 ohm</text>
<polyline fill="none" stroke="#ff7f0e" stroke-width="1.1" stroke-dasharray="6 4" points="492.00,321.81 496.81,318.76 501.62,315.71 506.43,312.66 511.24,309.60 516.05,306.55 520.86,303.50 525.67,300.45 530.48,297.40 535.29,294.35 540.10,291.30 544.91,288.25 549.72,285.19 554.53,282.14 559.34,279.09 564.15,276.04 568.96,272.99 573.77,269.94 578.58,266.89 583.39,263.83 588.20,260.78 593.01,257.73 597.82,254.68 602.63,251.63 607.44,248.58 612.25,245.53 617.06,242.47 621.87,239.42 626.68,236.37 631.49,233.32 636.30,230.27 641.11,227.22 645.92,224.17 650.73,221.11 655.54,218.06 660.35,215.01 665.16,211.96 669.97,208.91 674.78,205.86 679.59,202.81 684.41,199.75 689.22,196.70 694.03,193.65 698.84,190.60 703.65,187.55 708.46,184.50 713.27,181.45 718.08,178.39 722.89,175.34 727.70,172.29 732.51,169.24 737.32,166.19 742.13,163.14 746.94,160.09 751.75,157.03 756.56,153.98 761.37,150.93 766.18,147.88 770.99,144.83 775.80,141.78 780.61,138.73 785.42,135.67 790.23,132.62 795.04,129.57 799.85,126.52 804.66,123.47 809.47,120.42 814.28,117.37 819.09,114.31 823.90,111.26 828.71,108.21 833.52,105.16 838.33,102.11 843.14,99.06 847.95,96.01 852.76,92.95 857.57,89.90 862.38,86.85 867.19,83.80 872.00,80.75"/>
<circle cx="677.69" cy="204.02" r="4.6" fill="#ffffff" stroke="#ff7f0e" stroke-width="2"/>
<text x="683.69" y="198.02" font-family="Arial, sans-serif" font-size="10" fill="#ff7f0e">min 47.6 ohm</text>
<polyline fill="none" stroke="#2ca02c" stroke-width="1.1" stroke-dasharray="6 4" points="492.00,329.25 496.81,326.20 501.62,323.15 506.43,320.10 511.24,317.05 516.05,313.99 520.86,310.94 525.67,307.89 530.48,304.84 535.29,301.79 540.10,298.74 544.91,295.69 549.72,292.63 554.53,289.58 559.34,286.53 564.15,283.48 568.96,280.43 573.77,277.38 578.58,274.33 583.39,271.27 588.20,268.22 593.01,265.17 597.82,262.12 602.63,259.07 607.44,256.02 612.25,252.97 617.06,249.91 621.87,246.86 626.68,243.81 631.49,240.76 636.30,237.71 641.11,234.66 645.92,231.61 650.73,228.55 655.54,225.50 660.35,222.45 665.16,219.40 669.97,216.35 674.78,213.30 679.59,210.25 684.41,207.19 689.22,204.14 694.03,201.09 698.84,198.04 703.65,194.99 708.46,191.94 713.27,188.89 718.08,185.83 722.89,182.78 727.70,179.73 732.51,176.68 737.32,173.63 742.13,170.58 746.94,167.53 751.75,164.47 756.56,161.42 761.37,158.37 766.18,155.32 770.99,152.27 775.80,149.22 780.61,146.17 785.42,143.11 790.23,140.06 795.04,137.01 799.85,133.96 804.66,130.91 809.47,127.86 814.28,124.81 819.09,121.75 823.90,118.70 828.71,115.65 833.52,112.60 838.33,109.55 843.14,106.50 847.95,103.45 852.76,100.40 857.57,97.34 862.38,94.29 867.19,91.24 872.00,88.19"/>
<circle cx="678.35" cy="211.04" r="4.6" fill="#ffffff" stroke="#2ca02c" stroke-width="2"/>
<text x="684.35" y="205.04" font-family="Arial, sans-serif" font-size="10" fill="#2ca02c">max 40.3 ohm</text>
<line x1="502.00" y1="80.00" x2="524.00" y2="80.00" stroke="#1f77b4" stroke-width="2"/>
<text x="530.00" y="84.00" font-family="Arial, sans-serif" font-size="11">typ</text>
<line x1="502.00" y1="97.00" x2="524.00" y2="97.00" stroke="#ff7f0e" stroke-width="2" stroke-dasharray="5 4"/>
<text x="530.00" y="101.00" font-family="Arial, sans-serif" font-size="11">min</text>
<line x1="502.00" y1="114.00" x2="524.00" y2="114.00" stroke="#2ca02c" stroke-width="2" stroke-dasharray="2 4"/>
<text x="530.00" y="118.00" font-family="Arial, sans-serif" font-size="11">max</text>
<text x="682.00" y="386.00" text-anchor="middle" font-family="Arial, sans-serif" font-size="11">Vcc-relative table voltage (V)</text>
<text transform="translate(442.00 205.00) rotate(-90)" text-anchor="middle" font-family="Arial, sans-serif" font-size="11">Current (mA)</text>
<rect x="72.00" y="418.00" width="800.00" height="144.00" fill="#ffffff" stroke="#c8c8c8"/>
<text x="82.00" y="436.00" font-family="Arial, sans-serif" font-size="12" font-weight="700">Operating-point summary</text>
<text x="82.00" y="454.00" font-family="Arial, sans-serif" font-size="10" font-weight="700" fill="#333">Table</text>
<text x="174.00" y="454.00" font-family="Arial, sans-serif" font-size="10" font-weight="700" fill="#333">Corner</text>
<text x="242.00" y="454.00" font-family="Arial, sans-serif" font-size="10" font-weight="700" fill="#333">Vout</text>
<text x="332.00" y="454.00" font-family="Arial, sans-serif" font-size="10" font-weight="700" fill="#333">Iop</text>
<text x="422.00" y="454.00" font-family="Arial, sans-serif" font-size="10" font-weight="700" fill="#333">Zout</text>
<text x="512.00" y="454.00" font-family="Arial, sans-serif" font-size="10" font-weight="700" fill="#333">Rseries</text>
<text x="82.00" y="473.00" font-family="Arial, sans-serif" font-size="10" fill="#1f77b4">pulldown</text>
<text x="174.00" y="473.00" font-family="Arial, sans-serif" font-size="10" fill="#1f77b4">typ</text>
<text x="242.00" y="473.00" font-family="Arial, sans-serif" font-size="10" fill="#1f77b4">0.451 V</text>
<text x="332.00" y="473.00" font-family="Arial, sans-serif" font-size="10" fill="#1f77b4">15 mA</text>
<text x="422.00" y="473.00" font-family="Arial, sans-serif" font-size="10" fill="#1f77b4">30.1 ohm</text>
<text x="512.00" y="473.00" font-family="Arial, sans-serif" font-size="10" fill="#1f77b4">19.9 ohm</text>
<text x="82.00" y="492.00" font-family="Arial, sans-serif" font-size="10" fill="#ff7f0e">pulldown</text>
<text x="174.00" y="492.00" font-family="Arial, sans-serif" font-size="10" fill="#ff7f0e">min</text>
<text x="242.00" y="492.00" font-family="Arial, sans-serif" font-size="10" fill="#ff7f0e">0.4498 V</text>
<text x="332.00" y="492.00" font-family="Arial, sans-serif" font-size="10" fill="#ff7f0e">14 mA</text>
<text x="422.00" y="492.00" font-family="Arial, sans-serif" font-size="10" fill="#ff7f0e">32.6 ohm</text>
<text x="512.00" y="492.00" font-family="Arial, sans-serif" font-size="10" fill="#ff7f0e">17.4 ohm</text>
<text x="82.00" y="511.00" font-family="Arial, sans-serif" font-size="10" fill="#2ca02c">pulldown</text>
<text x="174.00" y="511.00" font-family="Arial, sans-serif" font-size="10" fill="#2ca02c">max</text>
<text x="242.00" y="511.00" font-family="Arial, sans-serif" font-size="10" fill="#2ca02c">0.4644 V</text>
<text x="332.00" y="511.00" font-family="Arial, sans-serif" font-size="10" fill="#2ca02c">16 mA</text>
<text x="422.00" y="511.00" font-family="Arial, sans-serif" font-size="10" fill="#2ca02c">29.2 ohm</text>
<text x="512.00" y="511.00" font-family="Arial, sans-serif" font-size="10" fill="#2ca02c">20.8 ohm</text>
<text x="82.00" y="530.00" font-family="Arial, sans-serif" font-size="10" fill="#1f77b4">pullup</text>
<text x="174.00" y="530.00" font-family="Arial, sans-serif" font-size="10" fill="#1f77b4">typ</text>
<text x="242.00" y="530.00" font-family="Arial, sans-serif" font-size="10" fill="#1f77b4">0.6331 V</text>
<text x="332.00" y="530.00" font-family="Arial, sans-serif" font-size="10" fill="#1f77b4">-13 mA</text>
<text x="422.00" y="530.00" font-family="Arial, sans-serif" font-size="10" fill="#1f77b4">44.8 ohm</text>
<text x="512.00" y="530.00" font-family="Arial, sans-serif" font-size="10" fill="#1f77b4">5.227 ohm</text>
<text x="82.00" y="549.00" font-family="Arial, sans-serif" font-size="10" fill="#ff7f0e">pullup</text>
<text x="174.00" y="549.00" font-family="Arial, sans-serif" font-size="10" fill="#ff7f0e">min</text>
<text x="242.00" y="549.00" font-family="Arial, sans-serif" font-size="10" fill="#ff7f0e">0.5841 V</text>
<text x="332.00" y="549.00" font-family="Arial, sans-serif" font-size="10" fill="#ff7f0e">-12 mA</text>
<text x="422.00" y="549.00" font-family="Arial, sans-serif" font-size="10" fill="#ff7f0e">47.6 ohm</text>
<text x="512.00" y="549.00" font-family="Arial, sans-serif" font-size="10" fill="#ff7f0e">2.419 ohm</text>
<text x="82.00" y="568.00" font-family="Arial, sans-serif" font-size="10" fill="#2ca02c">pullup</text>
<text x="174.00" y="568.00" font-family="Arial, sans-serif" font-size="10" fill="#2ca02c">max</text>
<text x="242.00" y="568.00" font-family="Arial, sans-serif" font-size="10" fill="#2ca02c">0.6974 V</text>
<text x="332.00" y="568.00" font-family="Arial, sans-serif" font-size="10" fill="#2ca02c">-14 mA</text>
<text x="422.00" y="568.00" font-family="Arial, sans-serif" font-size="10" fill="#2ca02c">40.3 ohm</text>
<text x="512.00" y="568.00" font-family="Arial, sans-serif" font-size="10" fill="#2ca02c">9.664 ohm</text>
</svg>