<svg xmlns="http://www.w3.org/2000/svg" width="800" height="520" viewBox="0 0 800 520">
<rect width="100%" height="100%" fill="#ffffff"/>
<text x="78" y="25" font-family="Arial, sans-serif" font-size="16" font-weight="700">I2C_RX_RPU1RPD0_rx I-V Clamp Detail</text>
<rect x="78" y="54" width="690" height="306" fill="#fbfbfb" stroke="#c8c8c8"/>
<line x1="78.00" y1="54" x2="78.00" y2="360" stroke="#ececec"/>
<text x="78.00" y="382" text-anchor="middle" font-family="Arial, sans-serif" font-size="11">0</text>
<line x1="216.00" y1="54" x2="216.00" y2="360" stroke="#ececec"/>
<text x="216.00" y="382" text-anchor="middle" font-family="Arial, sans-serif" font-size="11">0.24</text>
<line x1="354.00" y1="54" x2="354.00" y2="360" stroke="#ececec"/>
<text x="354.00" y="382" text-anchor="middle" font-family="Arial, sans-serif" font-size="11">0.48</text>
<line x1="492.00" y1="54" x2="492.00" y2="360" stroke="#ececec"/>
<text x="492.00" y="382" text-anchor="middle" font-family="Arial, sans-serif" font-size="11">0.72</text>
<line x1="630.00" y1="54" x2="630.00" y2="360" stroke="#ececec"/>
<text x="630.00" y="382" text-anchor="middle" font-family="Arial, sans-serif" font-size="11">0.96</text>
<line x1="768.00" y1="54" x2="768.00" y2="360" stroke="#ececec"/>
<text x="768.00" y="382" text-anchor="middle" font-family="Arial, sans-serif" font-size="11">1.2</text>
<line x1="78" y1="360.00" x2="768" y2="360.00" stroke="#ececec"/>
<text x="70" y="364.00" text-anchor="end" font-family="Arial, sans-serif" font-size="11">-2.1e-05</text>
<line x1="78" y1="298.80" x2="768" y2="298.80" stroke="#ececec"/>
<text x="70" y="302.80" text-anchor="end" font-family="Arial, sans-serif" font-size="11">-1.6e-05</text>
<line x1="78" y1="237.60" x2="768" y2="237.60" stroke="#ececec"/>
<text x="70" y="241.60" text-anchor="end" font-family="Arial, sans-serif" font-size="11">-1.1e-05</text>
<line x1="78" y1="176.40" x2="768" y2="176.40" stroke="#ececec"/>
<text x="70" y="180.40" text-anchor="end" font-family="Arial, sans-serif" font-size="11">-6.5e-06</text>
<line x1="78" y1="115.20" x2="768" y2="115.20" stroke="#ececec"/>
<text x="70" y="119.20" text-anchor="end" font-family="Arial, sans-serif" font-size="11">-1.8e-06</text>
<line x1="78" y1="54.00" x2="768" y2="54.00" stroke="#ececec"/>
<text x="70" y="58.00" text-anchor="end" font-family="Arial, sans-serif" font-size="11">2.9e-06</text>
<line x1="78.00" y1="54" x2="78.00" y2="360" stroke="#777" stroke-dasharray="4 4"/>
<line x1="78" y1="91.43" x2="768" y2="91.43" stroke="#777" stroke-dasharray="4 4"/>
<line x1="78.00" y1="54" x2="78.00" y2="360" stroke="#555" stroke-dasharray="2 4"/>
<text x="82.00" y="68" font-family="Arial, sans-serif" font-size="11" fill="#555">0V</text>
<line x1="768.00" y1="54" x2="768.00" y2="360" stroke="#555" stroke-dasharray="2 4"/>
<text x="772.00" y="68" font-family="Arial, sans-serif" font-size="11" fill="#555">Vcc</text>
<polyline fill="none" stroke="#2ca02c" stroke-width="1.2" opacity="0.55" stroke-dasharray="4 4" points="78.00,91.81 99.56,91.63 121.12,91.55 142.69,91.50 164.25,91.47 185.81,91.45 207.38,91.43 228.94,91.42 250.50,91.41 272.06,91.40 293.62,91.39 315.19,91.38 336.75,91.37 358.31,91.37 379.88,91.36 401.44,91.35 423.00,91.34 444.56,91.34 466.13,91.33 487.69,91.32 509.25,91.32 530.81,91.31 552.38,91.30 573.94,91.28 595.50,91.27 617.06,91.25 638.62,91.21 660.19,91.17 681.75,91.10 703.31,91.09 724.88,91.43 746.44,91.43 768.00,91.43"/>
<polyline fill="none" stroke="#2ca02c" stroke-width="1.2" opacity="0.55" stroke-dasharray="4 4" points="78.00,91.52 99.56,91.52 121.12,91.51 142.69,91.51 164.25,91.50 185.81,91.49 207.38,91.47 228.94,91.46 250.50,91.45 272.06,91.44 293.62,91.44 315.19,91.44 336.75,91.43 358.31,91.43 379.88,91.43 401.44,91.43 423.00,91.43 444.56,91.43 466.13,91.43 487.69,91.43 509.25,91.43 530.81,91.43 552.38,91.43 573.94,91.43 595.50,91.43 617.06,91.43 638.62,91.43 660.19,91.43 681.75,91.42 703.31,91.42 724.88,91.41 746.44,91.39 768.00,91.38"/>
<polyline fill="none" stroke="#2ca02c" stroke-width="2.0" opacity="1.0" points="78.00,322.91 99.56,318.37 121.12,313.44 142.69,308.16 164.25,302.56 185.81,296.70 207.38,290.60 228.94,284.29 250.50,277.79 272.06,271.11 293.62,264.29 315.19,257.32 336.75,250.22 358.31,243.01 379.88,235.68 401.44,228.26 423.00,220.74 444.56,213.13 466.13,205.44 487.69,197.68 509.25,189.84 530.81,181.93 552.38,173.96 573.94,165.93 595.50,157.85 617.06,149.71 638.62,141.51 660.19,133.27 681.75,124.98 703.31,116.64 724.88,108.26 746.44,99.83 768.00,91.37"/>
<polyline fill="none" stroke="#9467bd" stroke-width="1.2" opacity="0.55" stroke-dasharray="4 4" points="78.00,91.43 99.56,91.43 121.12,91.43 142.69,91.43 164.25,91.43 185.81,91.43 207.38,91.43 228.94,91.43 250.50,91.43 272.06,91.43 293.62,91.43 315.19,91.43 336.75,91.43 358.31,91.43 379.88,91.43 401.44,91.43 423.00,91.43 444.56,91.43 466.13,91.43 487.69,91.43 509.25,91.43 530.81,91.43 552.38,91.43 573.94,91.43 595.50,91.43 617.06,91.43 638.62,91.43 660.19,91.43 681.75,91.43 703.31,91.43 724.88,91.43 746.44,91.43 768.00,91.43"/>
<polyline fill="none" stroke="#9467bd" stroke-width="1.2" opacity="0.55" stroke-dasharray="4 4" points="78.00,91.43 99.56,91.43 121.12,91.43 142.69,91.43 164.25,91.43 185.81,91.43 207.38,91.43 228.94,91.43 250.50,91.43 272.06,91.43 293.62,91.43 315.19,91.43 336.75,91.43 358.31,91.43 379.88,91.43 401.44,91.43 423.00,91.43 444.56,91.43 466.13,91.43 487.69,91.43 509.25,91.43 530.81,91.43 552.38,91.43 573.94,91.43 595.50,91.43 617.06,91.43 638.62,91.43 660.19,91.43 681.75,91.43 703.31,91.43 724.88,91.43 746.44,91.43 768.00,91.43"/>
<polyline fill="none" stroke="#9467bd" stroke-width="2.0" opacity="1.0" points="78.00,91.43 99.56,91.43 121.12,91.43 142.69,91.43 164.25,91.43 185.81,91.43 207.38,91.43 228.94,91.43 250.50,91.43 272.06,91.43 293.62,91.43 315.19,91.43 336.75,91.43 358.31,91.43 379.88,91.43 401.44,91.43 423.00,91.43 444.56,91.43 466.13,91.43 487.69,91.43 509.25,91.43 530.81,91.43 552.38,91.43 573.94,91.43 595.50,91.43 617.06,91.43 638.62,91.43 660.19,91.43 681.75,91.43 703.31,91.43 724.88,91.43 746.44,91.43 768.00,91.43"/>
<circle cx="78.00" cy="322.91" r="4.0" fill="#ffffff" stroke="#2ca02c" stroke-width="1.5"/>
<circle cx="78.00" cy="91.81" r="3.0" fill="#ffffff" stroke="#2ca02c" stroke-width="1.5"/>
<circle cx="78.00" cy="91.52" r="3.0" fill="#ffffff" stroke="#2ca02c" stroke-width="1.5"/>
<circle cx="78.00" cy="91.43" r="4.0" fill="#ffffff" stroke="#9467bd" stroke-width="1.5"/>
<circle cx="78.00" cy="91.43" r="3.0" fill="#ffffff" stroke="#9467bd" stroke-width="1.5"/>
<circle cx="78.00" cy="91.43" r="3.0" fill="#ffffff" stroke="#9467bd" stroke-width="1.5"/>
<line x1="88" y1="72" x2="110" y2="72" stroke="#2ca02c" stroke-width="2.4"/>
<text x="116" y="76" font-family="Arial, sans-serif" font-size="12">[GND Clamp]</text>
<line x1="88" y1="90" x2="110" y2="90" stroke="#9467bd" stroke-width="2.4"/>
<text x="116" y="94" font-family="Arial, sans-serif" font-size="12">[POWER Clamp]</text>
<text x="423.00" y="404.00" text-anchor="middle" font-family="Arial, sans-serif" font-size="12">Table voltage (V), zoomed 0..Vcc</text>
<text transform="translate(18 207.00) rotate(-90)" text-anchor="middle" font-family="Arial, sans-serif" font-size="12">Current (A)</text>
<text x="420" y="42" font-family="Arial, sans-serif" font-size="11" fill="#555">clamp curves show typ/min/max; open circles mark clamp I(0 V)</text>
<rect x="78" y="422" width="690" height="44" fill="#fffdf7" stroke="#d8c6a1" rx="4"/>
<text x="88" y="439" font-family="Arial, sans-serif" font-size="11" font-weight="700" fill="#4b3b21">Findings needing attention</text>
<rect x="88" y="446" width="7" height="7" fill="#b54708"/>
<text x="102" y="453" font-family="Arial, sans-serif" font-size="11" fill="#333">WARN 5.3.10: Clamp leakage evidence needs review | [GND Clamp]: I(0V)=-17.8 uA</text>
</svg>