<svg xmlns="http://www.w3.org/2000/svg" width="800" height="560" viewBox="0 0 800 560">
<rect width="100%" height="100%" fill="#ffffff"/>
<text x="78" y="25" font-family="Arial, sans-serif" font-size="16" font-weight="700">I3C_TX_0p125mA_tx I-V Clamp Sweep Range</text>
<rect x="78" y="52" width="694" height="348" fill="#fbfbfb" stroke="#c8c8c8"/>
<line x1="78.00" y1="52" x2="78.00" y2="400" stroke="#ececec"/>
<text x="78.00" y="422" text-anchor="middle" font-family="Arial, sans-serif" font-size="11">-1.4</text>
<line x1="216.80" y1="52" x2="216.80" y2="400" stroke="#ececec"/>
<text x="216.80" y="422" text-anchor="middle" font-family="Arial, sans-serif" font-size="11">-0.588</text>
<line x1="355.60" y1="52" x2="355.60" y2="400" stroke="#ececec"/>
<text x="355.60" y="422" text-anchor="middle" font-family="Arial, sans-serif" font-size="11">0.204</text>
<line x1="494.40" y1="52" x2="494.40" y2="400" stroke="#ececec"/>
<text x="494.40" y="422" text-anchor="middle" font-family="Arial, sans-serif" font-size="11">0.996</text>
<line x1="633.20" y1="52" x2="633.20" y2="400" stroke="#ececec"/>
<text x="633.20" y="422" text-anchor="middle" font-family="Arial, sans-serif" font-size="11">1.8</text>
<line x1="772.00" y1="52" x2="772.00" y2="400" stroke="#ececec"/>
<text x="772.00" y="422" text-anchor="middle" font-family="Arial, sans-serif" font-size="11">2.6</text>
<line x1="78" y1="400.00" x2="772" y2="400.00" stroke="#ececec"/>
<text x="70" y="404.00" text-anchor="end" font-family="Arial, sans-serif" font-size="11">-0.893</text>
<line x1="78" y1="330.40" x2="772" y2="330.40" stroke="#ececec"/>
<text x="70" y="334.40" text-anchor="end" font-family="Arial, sans-serif" font-size="11">-0.455</text>
<line x1="78" y1="260.80" x2="772" y2="260.80" stroke="#ececec"/>
<text x="70" y="264.80" text-anchor="end" font-family="Arial, sans-serif" font-size="11">-0.0169</text>
<line x1="78" y1="191.20" x2="772" y2="191.20" stroke="#ececec"/>
<text x="70" y="195.20" text-anchor="end" font-family="Arial, sans-serif" font-size="11">0.421</text>
<line x1="78" y1="121.60" x2="772" y2="121.60" stroke="#ececec"/>
<text x="70" y="125.60" text-anchor="end" font-family="Arial, sans-serif" font-size="11">0.859</text>
<line x1="78" y1="52.00" x2="772" y2="52.00" stroke="#ececec"/>
<text x="70" y="56.00" text-anchor="end" font-family="Arial, sans-serif" font-size="11">1.3</text>
<line x1="319.85" y1="52" x2="319.85" y2="400" stroke="#777" stroke-dasharray="4 4"/>
<line x1="78" y1="258.11" x2="772" y2="258.11" stroke="#777" stroke-dasharray="4 4"/>
<line x1="109.55" y1="52" x2="109.55" y2="400" stroke="#555" stroke-dasharray="2 4"/>
<text x="113.55" y="66" font-family="Arial, sans-serif" font-size="11" fill="#555">-Vcc</text>
<line x1="530.15" y1="52" x2="530.15" y2="400" stroke="#555" stroke-dasharray="2 4"/>
<text x="534.15" y="66" font-family="Arial, sans-serif" font-size="11" fill="#555">Vcc</text>
<line x1="740.45" y1="52" x2="740.45" y2="400" stroke="#555" stroke-dasharray="2 4"/>
<text x="744.45" y="66" font-family="Arial, sans-serif" font-size="11" fill="#555">2Vcc</text>
<polyline fill="none" stroke="#2ca02c" stroke-width="1.2" opacity="0.55" stroke-dasharray="4 4" points="109.55,341.65 116.12,327.10 122.69,312.55 129.26,298.00 135.83,283.44 142.41,272.97 148.98,267.03 155.55,263.80 162.12,262.10 168.69,261.17 175.27,260.61 181.84,260.23 194.98,259.67 208.12,259.22 221.27,258.83 227.84,258.65 234.41,258.50 240.98,258.37 247.56,258.26 254.13,258.19 260.70,258.14 267.27,258.12 273.84,258.11 280.42,258.11 313.28,258.11 319.85,258.11 326.42,258.11 332.99,258.11 339.56,258.11 346.14,258.11 352.71,258.11 359.28,258.11 365.85,258.11 372.42,258.11 379.00,258.11 385.57,258.11 392.14,258.11 398.71,258.11 405.28,258.11 411.86,258.11 418.43,258.11 425.00,258.11 431.57,258.11 438.14,258.11 444.72,258.11 451.29,258.11 457.86,258.11 464.43,258.11 471.00,258.11 477.58,258.11 484.15,258.11 490.72,258.11 497.29,258.11 503.86,258.11 510.44,258.11 517.01,258.11 523.58,258.11 530.15,258.11 536.72,258.11 576.16,258.11 589.30,258.11 595.87,258.11 602.44,258.11 609.02,258.11 615.59,258.11 622.16,258.11 628.73,258.11 635.30,258.11 641.88,258.11 655.02,258.11 661.59,258.11 668.16,258.11 674.73,258.11 681.31,258.11 687.88,258.11 694.45,258.11 701.02,258.11 707.59,258.11 714.17,258.11 720.74,258.11 727.31,258.11 733.88,258.11 740.45,258.11"/>
<polyline fill="none" stroke="#2ca02c" stroke-width="1.2" opacity="0.55" stroke-dasharray="4 4" points="109.55,361.01 116.12,338.80 122.69,316.60 129.26,294.39 135.83,277.66 142.41,268.56 148.98,264.84 155.55,263.50 162.12,262.87 168.69,262.44 175.27,262.06 181.84,261.70 194.98,260.99 208.12,260.31 221.27,259.66 227.84,259.35 234.41,259.06 240.98,258.79 247.56,258.55 254.13,258.35 260.70,258.22 267.27,258.15 273.84,258.12 280.42,258.11 313.28,258.11 319.85,258.11 326.42,258.11 332.99,258.11 339.56,258.11 346.14,258.11 352.71,258.11 359.28,258.11 365.85,258.11 372.42,258.11 379.00,258.11 385.57,258.11 392.14,258.11 398.71,258.11 405.28,258.11 411.86,258.11 418.43,258.11 425.00,258.11 431.57,258.11 438.14,258.11 444.72,258.11 451.29,258.11 457.86,258.11 464.43,258.11 471.00,258.11 477.58,258.11 484.15,258.11 490.72,258.11 497.29,258.11 503.86,258.11 510.44,258.11 517.01,258.11 523.58,258.11 530.15,258.11 536.72,258.11 576.16,258.11 589.30,258.11 595.87,258.11 602.44,258.11 609.02,258.11 615.59,258.11 622.16,258.11 628.73,258.11 635.30,258.11 641.88,258.11 655.02,258.11 661.59,258.11 668.16,258.11 674.73,258.11 681.31,258.11 687.88,258.11 694.45,258.11 701.02,258.11 707.59,258.11 714.17,258.11 720.74,258.11 727.31,258.11 733.88,258.11 740.45,258.11"/>
<polyline fill="none" stroke="#2ca02c" stroke-width="2.0" opacity="1.0" points="109.55,376.00 116.12,345.14 122.69,317.72 129.26,295.17 135.83,278.95 142.41,269.43 148.98,264.92 155.55,263.00 162.12,262.11 168.69,261.60 175.27,261.23 181.84,260.91 194.98,260.31 208.12,259.76 221.27,259.24 227.84,258.99 234.41,258.77 240.98,258.57 247.56,258.40 254.13,258.26 260.70,258.18 267.27,258.13 273.84,258.12 280.42,258.11 313.28,258.11 319.85,258.11 326.42,258.11 332.99,258.11 339.56,258.11 346.14,258.11 352.71,258.11 359.28,258.11 365.85,258.11 372.42,258.11 379.00,258.11 385.57,258.11 392.14,258.11 398.71,258.11 405.28,258.11 411.86,258.11 418.43,258.11 425.00,258.11 431.57,258.11 438.14,258.11 444.72,258.11 451.29,258.11 457.86,258.11 464.43,258.11 471.00,258.11 477.58,258.11 484.15,258.11 490.72,258.11 497.29,258.11 503.86,258.11 510.44,258.11 517.01,258.11 523.58,258.11 530.15,258.11 536.72,258.11 576.16,258.11 589.30,258.11 595.87,258.11 602.44,258.11 609.02,258.11 615.59,258.11 622.16,258.11 628.73,258.11 635.30,258.11 641.88,258.11 655.02,258.11 661.59,258.11 668.16,258.11 674.73,258.11 681.31,258.11 687.88,258.11 694.45,258.11 701.02,258.11 707.59,258.11 714.17,258.11 720.74,258.11 727.31,258.11 733.88,258.11 740.45,258.11"/>
<polyline fill="none" stroke="#9467bd" stroke-width="1.2" opacity="0.55" stroke-dasharray="4 4" points="109.55,112.85 116.12,136.36 122.69,159.87 129.26,183.37 135.83,206.88 142.41,226.25 148.98,239.51 155.55,247.61 162.12,251.96 168.69,254.13 175.27,255.23 181.84,255.85 194.98,256.55 208.12,257.04 221.27,257.45 227.84,257.63 234.41,257.78 240.98,257.90 247.56,258.00 254.13,258.06 260.70,258.09 267.27,258.10 273.84,258.11 280.42,258.11 313.28,258.11 319.85,258.11 326.42,258.11 332.99,258.11 339.56,258.11 346.14,258.11 352.71,258.11 359.28,258.11 365.85,258.11 372.42,258.11 379.00,258.11 385.57,258.11 392.14,258.11 398.71,258.11 405.28,258.11 411.86,258.11 418.43,258.11 425.00,258.11 431.57,258.11 438.14,258.11 444.72,258.11 451.29,258.11 457.86,258.11 464.43,258.11 471.00,258.11 477.58,258.11 484.15,258.11 490.72,258.11 497.29,258.11 503.86,258.11 510.44,258.11 517.01,258.11 523.58,258.11 530.15,258.11 536.72,258.11 576.16,258.11 589.30,258.11 595.87,258.11 602.44,258.11 609.02,258.11 615.59,258.11 622.16,258.11 628.73,258.11 635.30,258.11 641.88,258.11 655.02,258.11 661.59,258.11 668.16,258.11 674.73,258.11 681.31,258.11 687.88,258.11 694.45,258.11 701.02,258.11 707.59,258.11 714.17,258.11 720.74,258.11 727.31,258.11 733.88,258.11 740.45,258.11"/>
<polyline fill="none" stroke="#9467bd" stroke-width="1.2" opacity="0.55" stroke-dasharray="4 4" points="109.55,76.00 116.12,108.90 122.69,141.81 129.26,174.71 135.83,204.59 142.41,228.28 148.98,243.67 155.55,250.98 162.12,253.42 168.69,254.28 175.27,254.76 181.84,255.16 194.98,255.89 208.12,256.58 221.27,257.20 227.84,257.47 234.41,257.71 240.98,257.90 247.56,258.03 254.13,258.09 260.70,258.10 267.27,258.11 273.84,258.11 280.42,258.11 313.28,258.11 319.85,258.11 326.42,258.11 332.99,258.11 339.56,258.11 346.14,258.11 352.71,258.11 359.28,258.11 365.85,258.11 372.42,258.11 379.00,258.11 385.57,258.11 392.14,258.11 398.71,258.11 405.28,258.11 411.86,258.11 418.43,258.11 425.00,258.11 431.57,258.11 438.14,258.11 444.72,258.11 451.29,258.11 457.86,258.11 464.43,258.11 471.00,258.11 477.58,258.11 484.15,258.11 490.72,258.11 497.29,258.11 503.86,258.11 510.44,258.11 517.01,258.11 523.58,258.11 530.15,258.11 536.72,258.11 576.16,258.11 589.30,258.11 595.87,258.11 602.44,258.11 609.02,258.11 615.59,258.11 622.16,258.11 628.73,258.11 635.30,258.11 641.88,258.11 655.02,258.11 661.59,258.11 668.16,258.11 674.73,258.11 681.31,258.11 687.88,258.11 694.45,258.11 701.02,258.11 707.59,258.11 714.17,258.11 720.74,258.11 727.31,258.11 733.88,258.11 740.45,258.11"/>
<polyline fill="none" stroke="#9467bd" stroke-width="2.0" opacity="1.0" points="109.55,78.05 116.12,114.05 122.69,148.18 129.26,179.61 135.83,207.07 142.41,228.78 148.98,243.13 155.55,250.49 162.12,253.51 168.69,254.74 175.27,255.34 181.84,255.74 194.98,256.37 208.12,256.93 221.27,257.42 227.84,257.64 234.41,257.82 240.98,257.96 247.56,258.04 254.13,258.09 260.70,258.10 267.27,258.11 273.84,258.11 280.42,258.11 313.28,258.11 319.85,258.11 326.42,258.11 332.99,258.11 339.56,258.11 346.14,258.11 352.71,258.11 359.28,258.11 365.85,258.11 372.42,258.11 379.00,258.11 385.57,258.11 392.14,258.11 398.71,258.11 405.28,258.11 411.86,258.11 418.43,258.11 425.00,258.11 431.57,258.11 438.14,258.11 444.72,258.11 451.29,258.11 457.86,258.11 464.43,258.11 471.00,258.11 477.58,258.11 484.15,258.11 490.72,258.11 497.29,258.11 503.86,258.11 510.44,258.11 517.01,258.11 523.58,258.11 530.15,258.11 536.72,258.11 576.16,258.11 589.30,258.11 595.87,258.11 602.44,258.11 609.02,258.11 615.59,258.11 622.16,258.11 628.73,258.11 635.30,258.11 641.88,258.11 655.02,258.11 661.59,258.11 668.16,258.11 674.73,258.11 681.31,258.11 687.88,258.11 694.45,258.11 701.02,258.11 707.59,258.11 714.17,258.11 720.74,258.11 727.31,258.11 733.88,258.11 740.45,258.11"/>
<line x1="88" y1="70" x2="110" y2="70" stroke="#2ca02c" stroke-width="2.4"/>
<text x="116" y="74" font-family="Arial, sans-serif" font-size="12">[GND Clamp]</text>
<line x1="88" y1="88" x2="110" y2="88" stroke="#9467bd" stroke-width="2.4"/>
<text x="116" y="92" font-family="Arial, sans-serif" font-size="12">[POWER Clamp]</text>
<text x="425.00" y="444.00" text-anchor="middle" font-family="Arial, sans-serif" font-size="12">Table voltage (V)</text>
<text transform="translate(18 226.00) rotate(-90)" text-anchor="middle" font-family="Arial, sans-serif" font-size="12">Current (A)</text>
<text x="420" y="42" font-family="Arial, sans-serif" font-size="11" fill="#555">solid=typ, dashed=min/max; dashed vertical=required sweep boundary (5.3.4/5.3.5)</text>
</svg>