<svg xmlns="http://www.w3.org/2000/svg" width="800" height="560" viewBox="0 0 800 560">
<rect width="100%" height="100%" fill="#ffffff"/>
<text x="78" y="25" font-family="Arial, sans-serif" font-size="16" font-weight="700">I2C_TX_8mA_tx I-V Combined Curves</text>
<rect x="78" y="52" width="694" height="348" fill="#fbfbfb" stroke="#c8c8c8"/>
<line x1="78.00" y1="52" x2="78.00" y2="400" stroke="#ececec"/>
<text x="78.00" y="422" text-anchor="middle" font-family="Arial, sans-serif" font-size="11">-1.3</text>
<line x1="216.80" y1="52" x2="216.80" y2="400" stroke="#ececec"/>
<text x="216.80" y="422" text-anchor="middle" font-family="Arial, sans-serif" font-size="11">-0.523</text>
<line x1="355.60" y1="52" x2="355.60" y2="400" stroke="#ececec"/>
<text x="355.60" y="422" text-anchor="middle" font-family="Arial, sans-serif" font-size="11">0.226</text>
<line x1="494.40" y1="52" x2="494.40" y2="400" stroke="#ececec"/>
<text x="494.40" y="422" text-anchor="middle" font-family="Arial, sans-serif" font-size="11">0.974</text>
<line x1="633.20" y1="52" x2="633.20" y2="400" stroke="#ececec"/>
<text x="633.20" y="422" text-anchor="middle" font-family="Arial, sans-serif" font-size="11">1.7</text>
<line x1="772.00" y1="52" x2="772.00" y2="400" stroke="#ececec"/>
<text x="772.00" y="422" text-anchor="middle" font-family="Arial, sans-serif" font-size="11">2.5</text>
<line x1="78" y1="400.00" x2="772" y2="400.00" stroke="#ececec"/>
<text x="70" y="404.00" text-anchor="end" font-family="Arial, sans-serif" font-size="11">-0.913</text>
<line x1="78" y1="330.40" x2="772" y2="330.40" stroke="#ececec"/>
<text x="70" y="334.40" text-anchor="end" font-family="Arial, sans-serif" font-size="11">-0.469</text>
<line x1="78" y1="260.80" x2="772" y2="260.80" stroke="#ececec"/>
<text x="70" y="264.80" text-anchor="end" font-family="Arial, sans-serif" font-size="11">-0.0252</text>
<line x1="78" y1="191.20" x2="772" y2="191.20" stroke="#ececec"/>
<text x="70" y="195.20" text-anchor="end" font-family="Arial, sans-serif" font-size="11">0.419</text>
<line x1="78" y1="121.60" x2="772" y2="121.60" stroke="#ececec"/>
<text x="70" y="125.60" text-anchor="end" font-family="Arial, sans-serif" font-size="11">0.863</text>
<line x1="78" y1="52.00" x2="772" y2="52.00" stroke="#ececec"/>
<text x="70" y="56.00" text-anchor="end" font-family="Arial, sans-serif" font-size="11">1.3</text>
<line x1="313.78" y1="52" x2="313.78" y2="400" stroke="#777" stroke-dasharray="4 4"/>
<line x1="78" y1="256.85" x2="772" y2="256.85" stroke="#777" stroke-dasharray="4 4"/>
<line x1="91.35" y1="52" x2="91.35" y2="400" stroke="#555" stroke-dasharray="2 4"/>
<text x="95.35" y="66" font-family="Arial, sans-serif" font-size="11" fill="#555">-Vcc</text>
<line x1="536.22" y1="52" x2="536.22" y2="400" stroke="#555" stroke-dasharray="2 4"/>
<text x="540.22" y="66" font-family="Arial, sans-serif" font-size="11" fill="#555">Vcc</text>
<line x1="758.65" y1="52" x2="758.65" y2="400" stroke="#555" stroke-dasharray="2 4"/>
<text x="762.65" y="66" font-family="Arial, sans-serif" font-size="11" fill="#555">2Vcc</text>
<polyline fill="none" stroke="#0f766e" stroke-width="2.8" opacity="0.95" stroke-dasharray="6 3" points="91.35,376.00 98.30,345.49 105.25,318.39 112.20,296.09 119.15,280.04 126.10,270.59 133.05,266.11 140.00,264.17 146.96,263.25 153.91,262.71 160.86,262.30 167.81,261.94 181.71,261.26 195.61,260.62 209.52,259.99 216.47,259.69 223.42,259.40 230.37,259.12 237.32,258.86 244.27,258.62 251.22,258.40 258.17,258.21 265.12,258.03 285.98,257.52 306.83,257.02 313.78,256.85 320.73,256.69 327.68,256.52 334.64,256.36 341.59,256.19 348.54,256.02 355.49,255.86 362.44,255.69 369.39,255.53 376.34,255.36 383.29,255.20 390.24,255.03 397.20,254.86 404.15,254.70 411.10,254.53 418.05,254.36 425.00,254.20 431.95,254.03 438.90,253.86 445.85,253.70 452.80,253.53 459.76,253.36 466.71,253.20 473.66,253.03 480.61,252.87 487.56,252.70 494.51,252.53 501.46,252.37 508.41,252.20 515.36,252.04 522.32,251.88 529.27,251.72 536.22,251.56 543.17,251.40 570.97,250.80 598.78,250.30 605.73,250.20 612.68,250.13 619.63,250.09 626.58,250.08 633.53,250.10 640.48,250.14 647.44,250.20 654.39,250.28 668.29,250.46 675.24,250.57 682.19,250.69 689.14,250.81 696.09,250.93 703.04,251.06 710.00,251.20 716.95,251.34 723.90,251.48 730.85,251.62 737.80,251.76 744.75,251.91 751.70,252.06 758.65,252.21"/>
<polyline fill="none" stroke="#7c2d12" stroke-width="2.8" opacity="0.95" stroke-dasharray="6 3" points="91.35,76.00 98.30,111.58 105.25,145.31 112.20,176.37 119.15,203.52 126.10,224.99 133.05,239.20 140.00,246.51 146.96,249.53 153.91,250.78 160.86,251.43 167.81,251.87 181.71,252.59 195.61,253.26 209.52,253.88 216.47,254.17 223.42,254.45 230.37,254.70 237.32,254.93 244.27,255.12 251.22,255.31 258.17,255.48 265.12,255.66 285.98,256.17 306.83,256.69 313.78,256.85 320.73,257.02 327.68,257.19 334.64,257.36 341.59,257.53 348.54,257.70 355.49,257.87 362.44,258.04 369.39,258.21 376.34,258.38 383.29,258.55 390.24,258.72 397.20,258.89 404.15,259.05 411.10,259.22 418.05,259.39 425.00,259.56 431.95,259.73 438.90,259.90 445.85,260.07 452.80,260.24 459.76,260.42 466.71,260.59 473.66,260.76 480.61,260.93 487.56,261.10 494.51,261.27 501.46,261.44 508.41,261.60 515.36,261.77 522.32,261.94 529.27,262.11 536.22,262.27 543.17,262.43 570.97,263.06 598.78,263.59 605.73,263.67 612.68,263.72 619.63,263.74 626.58,263.74 633.53,263.72 640.48,263.67 647.44,263.62 654.39,263.55 668.29,263.38 675.24,263.28 682.19,263.17 689.14,263.06 696.09,262.94 703.04,262.82 710.00,262.70 716.95,262.57 723.90,262.44 730.85,262.30 737.80,262.17 744.75,262.03 751.70,261.89 758.65,261.75"/>
<circle cx="633.53" cy="250.10" r="6" fill="none" stroke="#b42318" stroke-width="2"/>
<line x1="628.53" y1="245.10" x2="638.53" y2="255.10" stroke="#b42318" stroke-width="1.6"/>
<line x1="628.53" y1="255.10" x2="638.53" y2="245.10" stroke="#b42318" stroke-width="1.6"/>
<circle cx="640.48" cy="250.14" r="6" fill="none" stroke="#b42318" stroke-width="2"/>
<line x1="635.48" y1="245.14" x2="645.48" y2="255.14" stroke="#b42318" stroke-width="1.6"/>
<line x1="635.48" y1="255.14" x2="645.48" y2="245.14" stroke="#b42318" stroke-width="1.6"/>
<circle cx="647.44" cy="250.20" r="6" fill="none" stroke="#b42318" stroke-width="2"/>
<line x1="642.44" y1="245.20" x2="652.44" y2="255.20" stroke="#b42318" stroke-width="1.6"/>
<line x1="642.44" y1="255.20" x2="652.44" y2="245.20" stroke="#b42318" stroke-width="1.6"/>
<circle cx="654.39" cy="250.28" r="6" fill="none" stroke="#b42318" stroke-width="2"/>
<line x1="649.39" y1="245.28" x2="659.39" y2="255.28" stroke="#b42318" stroke-width="1.6"/>
<line x1="649.39" y1="255.28" x2="659.39" y2="245.28" stroke="#b42318" stroke-width="1.6"/>
<circle cx="668.29" cy="250.46" r="6" fill="none" stroke="#b42318" stroke-width="2"/>
<line x1="663.29" y1="245.46" x2="673.29" y2="255.46" stroke="#b42318" stroke-width="1.6"/>
<line x1="663.29" y1="255.46" x2="673.29" y2="245.46" stroke="#b42318" stroke-width="1.6"/>
<circle cx="675.24" cy="250.57" r="6" fill="none" stroke="#b42318" stroke-width="2"/>
<line x1="670.24" y1="245.57" x2="680.24" y2="255.57" stroke="#b42318" stroke-width="1.6"/>
<line x1="670.24" y1="255.57" x2="680.24" y2="245.57" stroke="#b42318" stroke-width="1.6"/>
<circle cx="682.19" cy="250.69" r="6" fill="none" stroke="#b42318" stroke-width="2"/>
<line x1="677.19" y1="245.69" x2="687.19" y2="255.69" stroke="#b42318" stroke-width="1.6"/>
<line x1="677.19" y1="255.69" x2="687.19" y2="245.69" stroke="#b42318" stroke-width="1.6"/>
<circle cx="689.14" cy="250.81" r="6" fill="none" stroke="#b42318" stroke-width="2"/>
<line x1="684.14" y1="245.81" x2="694.14" y2="255.81" stroke="#b42318" stroke-width="1.6"/>
<line x1="684.14" y1="255.81" x2="694.14" y2="245.81" stroke="#b42318" stroke-width="1.6"/>
<circle cx="696.09" cy="250.93" r="6" fill="none" stroke="#b42318" stroke-width="2"/>
<line x1="691.09" y1="245.93" x2="701.09" y2="255.93" stroke="#b42318" stroke-width="1.6"/>
<line x1="691.09" y1="255.93" x2="701.09" y2="245.93" stroke="#b42318" stroke-width="1.6"/>
<circle cx="703.04" cy="251.06" r="6" fill="none" stroke="#b42318" stroke-width="2"/>
<line x1="698.04" y1="246.06" x2="708.04" y2="256.06" stroke="#b42318" stroke-width="1.6"/>
<line x1="698.04" y1="256.06" x2="708.04" y2="246.06" stroke="#b42318" stroke-width="1.6"/>
<circle cx="626.58" cy="263.74" r="6" fill="none" stroke="#b42318" stroke-width="2"/>
<line x1="621.58" y1="258.74" x2="631.58" y2="268.74" stroke="#b42318" stroke-width="1.6"/>
<line x1="621.58" y1="268.74" x2="631.58" y2="258.74" stroke="#b42318" stroke-width="1.6"/>
<circle cx="633.53" cy="263.72" r="6" fill="none" stroke="#b42318" stroke-width="2"/>
<line x1="628.53" y1="258.72" x2="638.53" y2="268.72" stroke="#b42318" stroke-width="1.6"/>
<line x1="628.53" y1="268.72" x2="638.53" y2="258.72" stroke="#b42318" stroke-width="1.6"/>
<circle cx="640.48" cy="263.67" r="6" fill="none" stroke="#b42318" stroke-width="2"/>
<line x1="635.48" y1="258.67" x2="645.48" y2="268.67" stroke="#b42318" stroke-width="1.6"/>
<line x1="635.48" y1="268.67" x2="645.48" y2="258.67" stroke="#b42318" stroke-width="1.6"/>
<circle cx="647.44" cy="263.62" r="6" fill="none" stroke="#b42318" stroke-width="2"/>
<line x1="642.44" y1="258.62" x2="652.44" y2="268.62" stroke="#b42318" stroke-width="1.6"/>
<line x1="642.44" y1="268.62" x2="652.44" y2="258.62" stroke="#b42318" stroke-width="1.6"/>
<circle cx="654.39" cy="263.55" r="6" fill="none" stroke="#b42318" stroke-width="2"/>
<line x1="649.39" y1="258.55" x2="659.39" y2="268.55" stroke="#b42318" stroke-width="1.6"/>
<line x1="649.39" y1="268.55" x2="659.39" y2="258.55" stroke="#b42318" stroke-width="1.6"/>
<circle cx="668.29" cy="263.38" r="6" fill="none" stroke="#b42318" stroke-width="2"/>
<line x1="663.29" y1="258.38" x2="673.29" y2="268.38" stroke="#b42318" stroke-width="1.6"/>
<line x1="663.29" y1="268.38" x2="673.29" y2="258.38" stroke="#b42318" stroke-width="1.6"/>
<circle cx="675.24" cy="263.28" r="6" fill="none" stroke="#b42318" stroke-width="2"/>
<line x1="670.24" y1="258.28" x2="680.24" y2="268.28" stroke="#b42318" stroke-width="1.6"/>
<line x1="670.24" y1="268.28" x2="680.24" y2="258.28" stroke="#b42318" stroke-width="1.6"/>
<circle cx="682.19" cy="263.17" r="6" fill="none" stroke="#b42318" stroke-width="2"/>
<line x1="677.19" y1="258.17" x2="687.19" y2="268.17" stroke="#b42318" stroke-width="1.6"/>
<line x1="677.19" y1="268.17" x2="687.19" y2="258.17" stroke="#b42318" stroke-width="1.6"/>
<circle cx="689.14" cy="263.06" r="6" fill="none" stroke="#b42318" stroke-width="2"/>
<line x1="684.14" y1="258.06" x2="694.14" y2="268.06" stroke="#b42318" stroke-width="1.6"/>
<line x1="684.14" y1="268.06" x2="694.14" y2="258.06" stroke="#b42318" stroke-width="1.6"/>
<circle cx="696.09" cy="262.94" r="6" fill="none" stroke="#b42318" stroke-width="2"/>
<line x1="691.09" y1="257.94" x2="701.09" y2="267.94" stroke="#b42318" stroke-width="1.6"/>
<line x1="691.09" y1="267.94" x2="701.09" y2="257.94" stroke="#b42318" stroke-width="1.6"/>
<text x="420" y="30" font-family="Arial, sans-serif" font-size="11" fill="#b42318">x = 5.3.7 monotonicity violation</text>
<line x1="88" y1="70" x2="110" y2="70" stroke="#0f766e" stroke-width="2.8" stroke-dasharray="6 3"/>
<text x="116" y="74" font-family="Arial, sans-serif" font-size="12">[Pulldown]+[GND Clamp]</text>
<line x1="88" y1="88" x2="110" y2="88" stroke="#7c2d12" stroke-width="2.8" stroke-dasharray="6 3"/>
<text x="116" y="92" font-family="Arial, sans-serif" font-size="12">[Pullup]+[POWER Clamp]</text>
<rect x="78" y="464" width="694" height="76" fill="#fffdf7" stroke="#d8c6a1" rx="4"/>
<text x="88" y="481" font-family="Arial, sans-serif" font-size="11" font-weight="700" fill="#4b3b21">Findings needing attention</text>
<rect x="88" y="488" width="7" height="7" fill="#b42318"/>
<text x="102" y="495" font-family="Arial, sans-serif" font-size="11" fill="#333">FAIL 5.3.7: [Pulldown] + [GND Clamp] combined curve non-monotonic (... | V=1.725: combined current decreases from 43.22mA to...</text>
<rect x="88" y="504" width="7" height="7" fill="#b42318"/>
<text x="102" y="511" font-family="Arial, sans-serif" font-size="11" fill="#333">FAIL 5.3.7: [Pullup] + [POWER Clamp] combined curve non-monotonic (... | V=1.688: combined current increases from -43.91mA t...</text>
<rect x="88" y="520" width="7" height="7" fill="#b54708"/>
<text x="102" y="527" font-family="Arial, sans-serif" font-size="11" fill="#333">WARN 5.3.6: I-V stair-step evidence needs review | [GND Clamp]: roughness=0.262 &gt; 0.1</text>
<text x="425.00" y="444.00" text-anchor="middle" font-family="Arial, sans-serif" font-size="12">Table voltage (V)</text>
<text transform="translate(18 226.00) rotate(-90)" text-anchor="middle" font-family="Arial, sans-serif" font-size="12">Current (A)</text>
<text x="420" y="42" font-family="Arial, sans-serif" font-size="11" fill="#555">thick dashed=combined typ curves</text>
</svg>