<svg xmlns="http://www.w3.org/2000/svg" width="800" height="520" viewBox="0 0 800 520">
<rect width="100%" height="100%" fill="#ffffff"/>
<text x="78" y="25" font-family="Arial, sans-serif" font-size="16" font-weight="700">I2C_TX_8mA_tx I-V Pullup/Pulldown 0 V Detail</text>
<rect x="78" y="54" width="690" height="306" fill="#fbfbfb" stroke="#c8c8c8"/>
<line x1="78.00" y1="54" x2="78.00" y2="360" stroke="#ececec"/>
<text x="78.00" y="382" text-anchor="middle" font-family="Arial, sans-serif" font-size="11">0</text>
<line x1="216.00" y1="54" x2="216.00" y2="360" stroke="#ececec"/>
<text x="216.00" y="382" text-anchor="middle" font-family="Arial, sans-serif" font-size="11">0.24</text>
<line x1="354.00" y1="54" x2="354.00" y2="360" stroke="#ececec"/>
<text x="354.00" y="382" text-anchor="middle" font-family="Arial, sans-serif" font-size="11">0.48</text>
<line x1="492.00" y1="54" x2="492.00" y2="360" stroke="#ececec"/>
<text x="492.00" y="382" text-anchor="middle" font-family="Arial, sans-serif" font-size="11">0.72</text>
<line x1="630.00" y1="54" x2="630.00" y2="360" stroke="#ececec"/>
<text x="630.00" y="382" text-anchor="middle" font-family="Arial, sans-serif" font-size="11">0.96</text>
<line x1="768.00" y1="54" x2="768.00" y2="360" stroke="#ececec"/>
<text x="768.00" y="382" text-anchor="middle" font-family="Arial, sans-serif" font-size="11">1.2</text>
<line x1="78" y1="360.00" x2="768" y2="360.00" stroke="#ececec"/>
<text x="70" y="364.00" text-anchor="end" font-family="Arial, sans-serif" font-size="11">-0.0572</text>
<line x1="78" y1="298.80" x2="768" y2="298.80" stroke="#ececec"/>
<text x="70" y="302.80" text-anchor="end" font-family="Arial, sans-serif" font-size="11">-0.0345</text>
<line x1="78" y1="237.60" x2="768" y2="237.60" stroke="#ececec"/>
<text x="70" y="241.60" text-anchor="end" font-family="Arial, sans-serif" font-size="11">-0.0117</text>
<line x1="78" y1="176.40" x2="768" y2="176.40" stroke="#ececec"/>
<text x="70" y="180.40" text-anchor="end" font-family="Arial, sans-serif" font-size="11">0.011</text>
<line x1="78" y1="115.20" x2="768" y2="115.20" stroke="#ececec"/>
<text x="70" y="119.20" text-anchor="end" font-family="Arial, sans-serif" font-size="11">0.0337</text>
<line x1="78" y1="54.00" x2="768" y2="54.00" stroke="#ececec"/>
<text x="70" y="58.00" text-anchor="end" font-family="Arial, sans-serif" font-size="11">0.0564</text>
<line x1="78.00" y1="54" x2="78.00" y2="360" stroke="#777" stroke-dasharray="4 4"/>
<line x1="78" y1="206.02" x2="768" y2="206.02" stroke="#777" stroke-dasharray="4 4"/>
<line x1="78.00" y1="54" x2="78.00" y2="360" stroke="#555" stroke-dasharray="2 4"/>
<text x="82.00" y="68" font-family="Arial, sans-serif" font-size="11" fill="#555">0V</text>
<line x1="768.00" y1="54" x2="768.00" y2="360" stroke="#555" stroke-dasharray="2 4"/>
<text x="772.00" y="68" font-family="Arial, sans-serif" font-size="11" fill="#555">Vcc</text>
<polyline fill="none" stroke="#1f77b4" stroke-width="1.2" opacity="0.55" stroke-dasharray="4 4" points="78.00,206.02 99.56,203.74 121.12,201.46 142.69,199.20 164.25,196.94 185.81,194.70 207.38,192.46 228.94,190.24 250.50,188.02 272.06,185.82 293.62,183.63 315.19,181.45 336.75,179.29 358.31,177.14 379.88,175.01 401.44,172.91 423.00,170.82 444.56,168.75 466.13,166.71 487.69,164.71 509.25,162.74 530.81,160.80 552.38,158.91 573.94,157.07 595.50,155.29 617.06,153.57 638.62,151.93 660.19,150.39 681.75,148.95 703.31,147.64 724.88,146.46 746.44,145.42 768.00,144.52"/>
<polyline fill="none" stroke="#1f77b4" stroke-width="1.2" opacity="0.55" stroke-dasharray="4 4" points="78.00,206.02 99.56,202.54 121.12,199.07 142.69,195.60 164.25,192.13 185.81,188.65 207.38,185.17 228.94,181.69 250.50,178.20 272.06,174.71 293.62,171.20 315.19,167.69 336.75,164.17 358.31,160.64 379.88,157.09 401.44,153.54 423.00,149.97 444.56,146.39 466.13,142.80 487.69,139.19 509.25,135.57 530.81,131.93 552.38,128.29 573.94,124.62 595.50,120.94 617.06,117.25 638.62,113.55 660.19,109.83 681.75,106.10 703.31,102.36 724.88,98.61 746.44,94.86 768.00,91.09"/>
<polyline fill="none" stroke="#1f77b4" stroke-width="2.0" opacity="1.0" points="78.00,206.02 99.56,203.16 121.12,200.30 142.69,197.45 164.25,194.60 185.81,191.75 207.38,188.90 228.94,186.06 250.50,183.21 272.06,180.36 293.62,177.51 315.19,174.66 336.75,171.81 358.31,168.95 379.88,166.10 401.44,163.24 423.00,160.38 444.56,157.52 466.13,154.66 487.69,151.80 509.25,148.93 530.81,146.07 552.38,143.21 573.94,140.35 595.50,137.49 617.06,134.64 638.62,131.79 660.19,128.96 681.75,126.13 703.31,123.32 724.88,120.53 746.44,117.76 768.00,115.01"/>
<polyline fill="none" stroke="#d62728" stroke-width="1.2" opacity="0.55" stroke-dasharray="4 4" points="78.00,206.02 99.56,208.39 121.12,210.75 142.69,213.10 164.25,215.45 185.81,217.79 207.38,220.12 228.94,222.44 250.50,224.76 272.06,227.06 293.62,229.36 315.19,231.65 336.75,233.92 358.31,236.19 379.88,238.44 401.44,240.68 423.00,242.91 444.56,245.12 466.13,247.31 487.69,249.47 509.25,251.62 530.81,253.74 552.38,255.82 573.94,257.88 595.50,259.89 617.06,261.86 638.62,263.78 660.19,265.65 681.75,267.43 703.31,269.14 724.88,270.77 746.44,272.29 768.00,273.70"/>
<polyline fill="none" stroke="#d62728" stroke-width="1.2" opacity="0.55" stroke-dasharray="4 4" points="78.00,206.02 99.56,209.54 121.12,213.07 142.69,216.59 164.25,220.12 185.81,223.65 207.38,227.18 228.94,230.72 250.50,234.26 272.06,237.81 293.62,241.37 315.19,244.93 336.75,248.51 358.31,252.10 379.88,255.70 401.44,259.32 423.00,262.94 444.56,266.58 466.13,270.24 487.69,273.90 509.25,277.59 530.81,281.29 552.38,285.00 573.94,288.73 595.50,292.47 617.06,296.23 638.62,300.01 660.19,303.79 681.75,307.59 703.31,311.41 724.88,315.23 746.44,319.06 768.00,322.91"/>
<polyline fill="none" stroke="#d62728" stroke-width="2.0" opacity="1.0" points="78.00,206.02 99.56,208.93 121.12,211.84 142.69,214.75 164.25,217.65 185.81,220.55 207.38,223.46 228.94,226.36 250.50,229.26 272.06,232.16 293.62,235.07 315.19,237.98 336.75,240.89 358.31,243.80 379.88,246.71 401.44,249.63 423.00,252.55 444.56,255.47 466.13,258.39 487.69,261.32 509.25,264.24 530.81,267.17 552.38,270.10 573.94,273.02 595.50,275.95 617.06,278.87 638.62,281.78 660.19,284.69 681.75,287.59 703.31,290.48 724.88,293.35 746.44,296.20 768.00,299.03"/>
<circle cx="78.00" cy="206.02" r="4.0" fill="#ffffff" stroke="#1f77b4" stroke-width="1.5"/>
<circle cx="78.00" cy="206.02" r="3.0" fill="#ffffff" stroke="#1f77b4" stroke-width="1.5"/>
<circle cx="78.00" cy="206.02" r="3.0" fill="#ffffff" stroke="#1f77b4" stroke-width="1.5"/>
<circle cx="78.00" cy="206.02" r="4.0" fill="#ffffff" stroke="#d62728" stroke-width="1.5"/>
<circle cx="78.00" cy="206.02" r="3.0" fill="#ffffff" stroke="#d62728" stroke-width="1.5"/>
<circle cx="78.00" cy="206.02" r="3.0" fill="#ffffff" stroke="#d62728" stroke-width="1.5"/>
<line x1="78" y1="206.01" x2="768" y2="206.01" stroke="#b54708" stroke-width="1.4" stroke-dasharray="5 3"/>
<text x="764" y="202.01" text-anchor="end" font-family="Arial, sans-serif" font-size="10" fill="#b54708">+1uA leakage limit</text>
<line x1="78" y1="206.02" x2="768" y2="206.02" stroke="#b54708" stroke-width="1.4" stroke-dasharray="5 3"/>
<text x="764" y="202.02" text-anchor="end" font-family="Arial, sans-serif" font-size="10" fill="#b54708">-1uA leakage limit</text>
<line x1="88" y1="72" x2="110" y2="72" stroke="#1f77b4" stroke-width="2.4"/>
<text x="116" y="76" font-family="Arial, sans-serif" font-size="12">[Pulldown]</text>
<line x1="88" y1="90" x2="110" y2="90" stroke="#d62728" stroke-width="2.4"/>
<text x="116" y="94" font-family="Arial, sans-serif" font-size="12">[Pullup]</text>
<text x="423.00" y="404.00" text-anchor="middle" font-family="Arial, sans-serif" font-size="12">Table voltage (V), zoomed around 0 V</text>
<text transform="translate(18 207.00) rotate(-90)" text-anchor="middle" font-family="Arial, sans-serif" font-size="12">Current (A)</text>
<text x="420" y="42" font-family="Arial, sans-serif" font-size="11" fill="#555">pullup/pulldown curves show typ/min/max; open circles mark I(0 V)</text>
</svg>