<svg xmlns="http://www.w3.org/2000/svg" width="800" height="450" viewBox="0 0 800 450">
<rect width="100%" height="100%" fill="#ffffff"/>
<text x="78" y="25" font-family="Arial, sans-serif" font-size="16" font-weight="700">I3C_TX_0p125mA_tx V-T Waveforms</text>
<rect x="78" y="54" width="694" height="230" fill="#fbfbfb" stroke="#c8c8c8"/>
<text transform="translate(18 169.00) rotate(-90)" text-anchor="middle" font-family="Arial, sans-serif" font-size="12">Voltage (V)</text>
<line x1="78.00" y1="54" x2="78.00" y2="284" stroke="#ececec"/>
<text x="78.00" y="302" text-anchor="middle" font-family="Arial, sans-serif" font-size="10">-1.5n</text>
<line x1="216.80" y1="54" x2="216.80" y2="284" stroke="#ececec"/>
<text x="216.80" y="302" text-anchor="middle" font-family="Arial, sans-serif" font-size="10">14.1n</text>
<line x1="355.60" y1="54" x2="355.60" y2="284" stroke="#ececec"/>
<text x="355.60" y="302" text-anchor="middle" font-family="Arial, sans-serif" font-size="10">29.7n</text>
<line x1="494.40" y1="54" x2="494.40" y2="284" stroke="#ececec"/>
<text x="494.40" y="302" text-anchor="middle" font-family="Arial, sans-serif" font-size="10">45.3n</text>
<line x1="633.20" y1="54" x2="633.20" y2="284" stroke="#ececec"/>
<text x="633.20" y="302" text-anchor="middle" font-family="Arial, sans-serif" font-size="10">60.9n</text>
<line x1="772.00" y1="54" x2="772.00" y2="284" stroke="#ececec"/>
<text x="772.00" y="302" text-anchor="middle" font-family="Arial, sans-serif" font-size="10">76.5n</text>
<line x1="78" y1="284.00" x2="772" y2="284.00" stroke="#ececec"/>
<text x="70" y="288.00" text-anchor="end" font-family="Arial, sans-serif" font-size="10">-0.0969</text>
<line x1="78" y1="226.50" x2="772" y2="226.50" stroke="#ececec"/>
<text x="70" y="230.50" text-anchor="end" font-family="Arial, sans-serif" font-size="10">0.251</text>
<line x1="78" y1="169.00" x2="772" y2="169.00" stroke="#ececec"/>
<text x="70" y="173.00" text-anchor="end" font-family="Arial, sans-serif" font-size="10">0.6</text>
<line x1="78" y1="111.50" x2="772" y2="111.50" stroke="#ececec"/>
<text x="70" y="115.50" text-anchor="end" font-family="Arial, sans-serif" font-size="10">0.948</text>
<line x1="78" y1="54.00" x2="772" y2="54.00" stroke="#ececec"/>
<text x="70" y="58.00" text-anchor="end" font-family="Arial, sans-serif" font-size="10">1.3</text>
<line x1="78" y1="268.01" x2="772" y2="268.01" stroke="#1f77b4" opacity="0.18" stroke-dasharray="3 4"/>
<polyline fill="none" stroke="#1f77b4" stroke-width="2.0" points="91.35,268.01 91.49,268.01 91.75,268.01 91.95,268.01 92.08,268.01 92.21,268.01 92.35,268.01 92.42,268.01 92.64,268.01 92.75,268.01 92.88,268.01 93.09,268.01 93.19,268.01 93.42,268.01 93.63,268.01 93.80,268.01 93.91,268.01 94.03,268.01 94.09,268.01 94.33,268.01 94.50,268.01 94.66,268.01 94.79,268.01 94.89,268.01 94.98,268.01 95.06,268.01 95.14,268.01 95.24,268.01 95.34,268.01 95.46,268.01 95.59,268.01 95.63,268.01 95.69,268.01 95.72,268.01 95.77,268.01 95.82,268.01 95.87,268.01 95.92,268.01 95.96,268.01 96.03,268.01 96.08,268.01 96.14,268.01 96.19,268.01 96.24,268.01 96.27,268.01 96.30,268.01 96.33,268.01 96.37,268.01 96.39,268.01 96.42,268.01 96.43,268.01 96.45,268.01 96.48,268.01 96.51,268.01 96.53,268.01 96.60,268.01 96.64,268.01 96.69,268.01 96.71,268.01 96.75,268.01 96.80,268.01 96.85,268.01 96.88,268.01 96.92,268.01 96.96,268.01 97.01,268.01 97.06,268.01 97.12,268.01 97.15,268.01 97.19,268.01 97.25,268.01 97.32,268.01 97.43,268.01 97.49,268.01 97.54,268.01 97.57,268.01 97.62,268.01 97.66,268.01 97.69,268.01 97.73,268.01 97.76,268.01 97.80,268.01 97.82,268.02 97.87,268.02 97.92,268.03 97.95,268.03 97.98,268.03 98.02,268.04 98.05,268.05 98.14,268.06 98.23,268.08 98.32,268.10 98.36,268.11 98.42,268.12 98.47,268.13 98.52,268.14 98.54,268.14 98.58,268.13 98.61,268.13 98.65,268.11 98.72,268.08 98.74,268.07 98.76,268.05 98.79,268.03 98.82,268.00 98.84,267.96 98.90,267.84 98.92,267.79 98.94,267.73 98.98,267.61 99.03,267.40 99.10,267.11 99.13,266.95 99.23,266.47 99.28,266.22 99.32,265.98 99.38,265.63 99.46,265.26 99.52,264.97 99.54,264.88 99.64,264.47 99.72,264.17 99.78,263.97 99.87,263.70 99.96,263.45 100.05,263.23 100.22,262.89 100.32,262.71 100.38,262.61 100.64,262.27 100.72,262.17 100.83,262.06 100.96,261.94 101.11,261.82 101.25,261.73 101.49,261.59 101.59,261.55 101.71,261.49 101.76,261.47 101.86,261.44 101.96,261.40 102.01,261.39 102.05,261.37 102.10,261.36 102.15,261.34 102.21,261.33 102.30,261.31 102.33,261.30 102.40,261.28 102.45,261.27 102.57,261.25 102.70,261.22 102.82,261.20 102.95,261.18 103.13,261.16 103.25,261.14 103.35,261.13 103.48,261.12 103.57,261.11 103.65,261.10 103.74,261.09 103.79,261.09 103.86,261.09 103.93,261.08 103.97,261.08 104.02,261.07 104.08,261.07 104.15,261.06 104.24,261.06 104.32,261.05 104.43,261.05 104.56,261.04 104.69,261.03 104.73,261.03 104.98,261.02 105.13,261.01 105.29,261.01 105.50,261.00 105.58,261.00 105.71,260.99 106.02,260.98 106.13,260.98 106.33,260.98 106.44,260.97 106.76,260.97 107.13,260.96 107.39,260.95 107.81,260.95 108.01,260.95 108.71,260.94 108.85,260.94 109.69,260.93 110.34,260.92 110.53,260.92 111.39,260.92 112.21,260.91 113.05,260.91 114.07,260.91 115.15,260.91 115.85,260.91 116.75,260.91 117.64,260.90 119.43,260.90 121.21,260.90 123.16,260.90 124.79,260.90 126.37,260.90 128.98,260.90 132.33,260.90 135.51,260.90 139.04,260.90 139.19,260.90 145.60,260.90 146.23,260.90 153.38,260.90 159.16,260.90 164.83,260.90 167.67,260.90 174.82,260.90 179.28,260.90 190.48,260.90 199.41,260.90 210.56,260.90 216.12,260.90 226.24,260.90 239.65,260.90 253.44,260.90 266.48,260.90 282.03,260.90 305.87,260.90 320.14,260.90 346.97,260.90 373.80,260.90 400.64,260.90 434.09,260.90 534.79,260.90 588.45,260.90 653.70,260.90 710.88,260.90 758.65,260.90"/>
<line x1="78" y1="69.90" x2="772" y2="69.90" stroke="#d62728" opacity="0.18" stroke-dasharray="3 4"/>
<polyline fill="none" stroke="#d62728" stroke-width="2.0" points="91.35,76.75 91.56,76.75 91.67,76.75 91.92,76.75 92.09,76.75 92.17,76.75 92.18,76.75 92.25,76.75 92.33,76.75 92.39,76.75 92.48,76.75 92.50,76.75 92.58,76.75 92.59,76.75 92.69,76.75 92.81,76.75 92.97,76.75 93.04,76.75 93.04,76.75 93.12,76.75 93.26,76.75 93.39,76.75 93.46,76.75 93.65,76.75 93.77,76.75 93.81,76.75 93.92,76.75 94.10,76.75 94.34,76.75 94.40,76.75 94.56,76.75 94.66,76.75 94.80,76.75 94.87,76.75 95.01,76.75 95.09,76.75 95.27,76.75 95.34,76.75 95.52,76.75 95.61,76.75 95.63,76.75 95.68,76.75 95.72,76.75 95.75,76.75 95.83,76.75 95.86,76.75 95.90,76.75 95.94,76.75 95.98,76.75 96.00,76.75 96.03,76.76 96.07,76.76 96.09,76.76 96.11,76.76 96.14,76.76 96.17,76.76 96.20,76.76 96.21,76.76 96.23,76.76 96.25,76.76 96.28,76.76 96.30,76.76 96.31,76.76 96.32,76.76 96.33,76.76 96.36,76.76 96.39,76.76 96.42,76.75 96.44,76.75 96.49,76.75 96.53,76.75 96.55,76.75 96.58,76.75 96.61,76.75 96.63,76.75 96.67,76.75 96.71,76.75 96.76,76.75 96.79,76.75 96.87,76.75 96.97,76.75 97.02,76.75 97.06,76.75 97.18,76.75 97.25,76.75 97.33,76.75 97.35,76.75 97.43,76.75 97.44,76.75 97.51,76.75 97.55,76.75 97.60,76.76 97.65,76.76 97.71,76.76 97.75,76.76 97.81,76.76 97.85,76.76 97.86,76.76 97.89,76.76 97.92,76.76 97.97,76.75 98.04,76.73 98.07,76.72 98.14,76.67 98.19,76.59 98.22,76.54 98.28,76.40 98.32,76.27 98.35,76.16 98.35,76.13 98.39,75.99 98.44,75.77 98.47,75.63 98.50,75.52 98.51,75.46 98.56,75.27 98.60,75.05 98.65,74.84 98.67,74.73 98.69,74.62 98.71,74.51 98.76,74.28 98.80,74.04 98.87,73.69 98.91,73.50 98.96,73.29 99.02,73.02 99.09,72.78 99.13,72.67 99.20,72.48 99.26,72.32 99.30,72.24 99.36,72.10 99.49,71.88 99.55,71.78 99.61,71.69 99.85,71.39 99.96,71.28 100.12,71.13 100.29,71.01 100.48,70.90 100.62,70.82 100.77,70.75 100.91,70.69 100.93,70.68 101.12,70.61 101.33,70.55 101.39,70.53 101.54,70.49 101.62,70.47 101.74,70.44 101.78,70.43 101.84,70.41 101.92,70.40 101.95,70.39 102.03,70.37 102.12,70.36 102.16,70.35 102.23,70.34 102.29,70.33 102.32,70.32 102.38,70.31 102.49,70.29 102.58,70.28 102.65,70.27 102.75,70.25 102.75,70.25 102.84,70.24 102.91,70.23 102.99,70.22 103.03,70.22 103.09,70.21 103.16,70.20 103.22,70.19 103.29,70.19 103.35,70.18 103.41,70.17 103.41,70.17 103.48,70.17 103.54,70.16 103.60,70.15 103.67,70.15 103.70,70.15 103.79,70.14 103.90,70.13 104.02,70.12 104.13,70.11 104.25,70.10 104.32,70.09 104.47,70.08 104.58,70.08 104.76,70.06 104.91,70.06 105.20,70.04 105.49,70.03 105.65,70.02 106.14,70.00 106.40,69.99 106.78,69.98 107.12,69.97 107.31,69.96 107.42,69.96 108.22,69.95 108.67,69.94 109.13,69.93 109.84,69.92 110.29,69.92 110.95,69.91 111.62,69.91 112.52,69.91 113.41,69.90 113.72,69.90 114.59,69.90 115.19,69.90 116.25,69.90 117.87,69.90 118.78,69.90 120.05,69.90 121.43,69.90 123.70,69.90 125.00,69.90 126.78,69.90 127.34,69.90 131.41,69.90 134.62,69.90 137.48,69.90 141.51,69.90 146.56,69.90 150.49,69.90 153.72,69.90 156.67,69.90 166.77,69.90 176.88,69.90 186.98,69.90 191.92,69.90 197.53,69.90 256.33,69.90 378.98,69.90 468.00,69.90 758.65,69.90"/>
<line x1="78" y1="268.01" x2="772" y2="268.01" stroke="#2ca02c" opacity="0.18" stroke-dasharray="3 4"/>
<polyline fill="none" stroke="#2ca02c" stroke-width="2.0" points="91.35,260.90 91.43,260.90 91.47,260.90 91.56,260.90 91.57,260.90 91.64,260.90 91.68,260.90 91.72,260.90 91.81,260.90 91.87,260.90 91.94,260.90 92.00,260.90 92.07,260.90 92.10,260.90 92.13,260.90 92.16,260.90 92.20,260.90 92.22,260.90 92.25,260.90 92.26,260.90 92.28,260.90 92.30,260.90 92.31,260.90 92.34,260.90 92.35,260.90 92.37,260.90 92.39,260.90 92.41,260.90 92.44,260.90 92.46,260.90 92.49,260.90 92.51,260.90 92.53,260.90 92.56,260.90 92.58,260.90 92.60,260.90 92.63,260.90 92.65,260.90 92.68,260.90 92.71,260.90 92.74,260.90 92.76,260.90 92.79,260.90 92.81,260.90 92.83,260.90 92.85,260.90 92.89,260.90 92.90,260.90 92.94,260.90 92.98,260.90 93.01,260.90 93.04,260.90 93.09,260.90 93.14,260.90 93.17,260.90 93.21,260.90 93.25,260.90 93.28,260.90 93.32,260.90 93.35,260.90 93.39,260.90 93.44,260.90 93.47,260.90 93.50,260.90 93.55,260.90 93.59,260.90 93.62,260.90 93.67,260.90 93.71,260.90 93.74,260.90 93.78,260.90 93.81,260.90 93.86,260.90 93.91,260.90 93.96,260.90 94.04,260.90 94.09,260.90 94.17,260.90 94.22,260.90 94.25,260.90 94.32,260.90 94.39,260.90 94.46,260.90 94.53,260.90 94.57,260.90 94.63,260.90 94.67,260.90 94.71,260.90 94.73,260.90 94.77,260.90 94.79,260.90 94.82,260.90 94.87,260.90 94.89,260.90 94.92,260.90 94.97,260.90 94.99,260.90 95.03,260.90 95.06,260.90 95.09,260.90 95.11,260.90 95.14,260.90 95.17,260.90 95.20,260.90 95.25,260.90 95.29,260.90 95.32,260.90 95.35,260.90 95.40,260.90 95.44,260.90 95.48,260.90 95.54,260.90 95.60,260.90 95.64,260.90 95.69,260.90 95.72,260.90 95.74,260.90 95.79,260.90 95.84,260.90 95.88,260.90 95.92,260.90 95.98,260.90 96.05,260.90 96.12,260.90 96.20,260.90 96.26,260.90 96.33,260.90 96.38,260.90 96.43,260.90 96.46,260.90 96.51,260.90 96.54,260.89 96.59,260.89 96.62,260.89 96.66,260.89 96.70,260.89 96.75,260.89 96.78,260.88 96.81,260.88 96.87,260.88 96.94,260.88 96.96,260.87 97.05,260.88 97.09,260.88 97.16,260.90 97.25,260.93 97.30,260.97 97.34,261.01 97.41,261.13 97.45,261.21 97.53,261.46 97.61,261.85 97.66,262.11 97.72,262.50 97.77,262.88 97.81,263.13 97.86,263.48 97.95,263.95 97.99,264.15 98.08,264.54 98.20,264.96 98.27,265.19 98.42,265.60 98.56,265.90 98.67,266.12 98.82,266.38 98.95,266.56 99.14,266.78 99.35,266.98 99.58,267.15 99.90,267.33 100.03,267.39 100.09,267.42 100.17,267.45 100.23,267.47 100.32,267.50 100.45,267.54 100.53,267.57 100.62,267.59 100.77,267.62 100.82,267.64 100.89,267.65 100.98,267.67 101.10,267.69 101.19,267.71 101.40,267.74 101.56,267.76 101.68,267.77 101.86,267.79 101.93,267.80 102.04,267.81 102.26,267.83 102.32,267.83 102.45,267.84 102.63,267.85 102.72,267.86 102.85,267.87 103.03,267.88 103.26,267.89 103.60,267.90 103.77,267.91 104.44,267.93 104.64,267.93 105.24,267.95 105.83,267.96 106.42,267.97 107.03,267.97 107.82,267.98 108.25,267.98 109.81,267.99 111.40,268.00 112.62,268.00 113.79,268.00 115.57,268.01 117.37,268.01 119.36,268.01 122.85,268.01 125.89,268.01 128.84,268.01 133.80,268.01 140.05,268.01 146.42,268.01 155.38,268.01 164.93,268.01 171.89,268.01 179.64,268.01 193.57,268.01 205.83,268.01 222.21,268.01 241.92,268.01 267.38,268.01 292.85,268.01 336.77,268.01 363.00,268.01 394.71,268.01 451.34,268.01 496.58,268.01 572.55,268.01 700.31,268.01 758.65,268.01"/>
<line x1="78" y1="69.90" x2="772" y2="69.90" stroke="#9467bd" opacity="0.18" stroke-dasharray="3 4"/>
<polyline fill="none" stroke="#9467bd" stroke-width="2.0" points="91.35,69.90 91.81,69.90 92.01,69.90 92.10,69.90 92.15,69.90 92.26,69.90 92.29,69.90 92.33,69.90 92.40,69.90 92.41,69.90 92.49,69.90 92.51,69.90 92.58,69.90 92.59,69.90 92.65,69.90 92.67,69.90 92.71,69.90 92.74,69.89 92.79,69.89 92.89,69.89 92.89,69.89 93.03,69.89 93.08,69.89 93.16,69.89 93.21,69.89 93.26,69.89 93.32,69.89 93.41,69.89 93.50,69.89 93.58,69.89 93.66,69.90 93.74,69.90 93.83,69.90 93.90,69.90 93.98,69.90 93.99,69.90 94.09,69.90 94.22,69.90 94.32,69.90 94.37,69.90 94.39,69.90 94.51,69.90 94.57,69.90 94.67,69.90 94.71,69.90 94.79,69.90 94.83,69.90 94.87,69.90 94.93,69.90 95.00,69.90 95.04,69.90 95.09,69.90 95.14,69.90 95.16,69.90 95.20,69.90 95.23,69.90 95.27,69.90 95.30,69.90 95.34,69.90 95.36,69.90 95.37,69.90 95.40,69.90 95.42,69.90 95.45,69.90 95.47,69.90 95.48,69.90 95.53,69.90 95.58,69.90 95.63,69.90 95.67,69.90 95.69,69.90 95.73,69.90 95.77,69.90 95.81,69.90 95.85,69.90 95.87,69.90 95.92,69.90 95.97,69.90 96.03,69.90 96.05,69.90 96.10,69.90 96.13,69.90 96.18,69.90 96.21,69.90 96.24,69.90 96.29,69.90 96.35,69.90 96.38,69.90 96.41,69.90 96.45,69.90 96.49,69.90 96.53,69.89 96.60,69.89 96.62,69.89 96.70,69.89 96.76,69.89 96.78,69.89 96.83,69.89 96.86,69.88 96.91,69.88 96.94,69.88 97.01,69.87 97.04,69.87 97.09,69.87 97.13,69.86 97.18,69.86 97.24,69.86 97.28,69.86 97.32,69.87 97.35,69.87 97.38,69.87 97.40,69.87 97.42,69.88 97.45,69.89 97.45,69.89 97.47,69.90 97.49,69.92 97.54,69.97 97.58,70.01 97.60,70.04 97.62,70.08 97.68,70.19 97.72,70.27 97.78,70.47 97.83,70.63 97.88,70.82 97.95,71.09 98.07,71.65 98.12,71.88 98.20,72.29 98.28,72.66 98.33,72.87 98.38,73.05 98.45,73.33 98.51,73.52 98.60,73.80 98.64,73.92 98.77,74.26 98.85,74.43 98.95,74.62 99.07,74.81 99.18,74.97 99.37,75.20 99.50,75.33 99.62,75.44 99.77,75.56 99.92,75.67 100.06,75.75 100.14,75.79 100.21,75.83 100.32,75.88 100.37,75.90 100.45,75.93 100.53,75.97 100.62,76.00 100.70,76.03 100.77,76.05 100.79,76.06 100.84,76.08 100.91,76.10 100.98,76.12 101.02,76.13 101.17,76.17 101.32,76.21 101.42,76.24 101.52,76.26 101.65,76.28 101.71,76.29 101.82,76.32 101.87,76.33 101.98,76.34 102.09,76.36 102.17,76.38 102.19,76.38 102.22,76.38 102.25,76.39 102.27,76.39 102.28,76.39 102.32,76.40 102.37,76.40 102.45,76.41 102.52,76.42 102.59,76.43 102.69,76.45 102.72,76.45 102.86,76.46 103.06,76.49 103.17,76.50 103.26,76.51 103.44,76.52 103.55,76.53 103.71,76.54 103.89,76.56 103.98,76.56 104.22,76.58 104.41,76.59 104.70,76.61 105.06,76.63 105.24,76.63 105.42,76.64 105.60,76.65 105.96,76.66 106.14,76.67 106.32,76.67 106.68,76.68 106.97,76.69 107.29,76.70 107.82,76.71 108.30,76.71 108.68,76.72 109.33,76.73 109.74,76.73 110.46,76.73 111.24,76.74 112.40,76.74 112.95,76.75 114.45,76.75 114.79,76.75 116.36,76.75 117.67,76.75 118.54,76.75 119.78,76.75 120.58,76.75 122.00,76.75 124.67,76.75 124.90,76.75 128.32,76.75 130.65,76.75 133.54,76.75 136.42,76.75 139.30,76.75 145.07,76.75 147.45,76.75 159.75,76.75 169.66,76.75 183.51,76.75 191.21,76.75 196.64,76.75 220.90,76.75 758.65,76.75"/>
<line x1="88" y1="72" x2="110" y2="72" stroke="#1f77b4" stroke-width="2.4"/>
<text x="116" y="76" font-family="Arial, sans-serif" font-size="12">rising #1</text>
<line x1="88" y1="90" x2="110" y2="90" stroke="#d62728" stroke-width="2.4"/>
<text x="116" y="94" font-family="Arial, sans-serif" font-size="12">rising #2</text>
<line x1="88" y1="108" x2="110" y2="108" stroke="#2ca02c" stroke-width="2.4"/>
<text x="116" y="112" font-family="Arial, sans-serif" font-size="12">falling #3</text>
<line x1="88" y1="126" x2="110" y2="126" stroke="#9467bd" stroke-width="2.4"/>
<text x="116" y="130" font-family="Arial, sans-serif" font-size="12">falling #4</text>
<rect x="78" y="342" width="694" height="44" fill="#fffdf7" stroke="#d8c6a1" rx="4"/>
<text x="88" y="359" font-family="Arial, sans-serif" font-size="11" font-weight="700" fill="#4b3b21">Findings needing attention</text>
<rect x="88" y="366" width="7" height="7" fill="#b42318"/>
<text x="102" y="373" font-family="Arial, sans-serif" font-size="11" fill="#333">FAIL 5.5.3: [Ramp] dV inconsistent with I-V load-line (2 corner(s)) | Rise dV/max: ramp=0.03503V, expected≈0.03171V (10.5...</text>
<text x="425.00" y="322.00" text-anchor="middle" font-family="Arial, sans-serif" font-size="12">Time (s)</text>
<text x="420" y="42" font-family="Arial, sans-serif" font-size="11" fill="#555">solid=V-T voltage, faint horizontal=V_fixture</text>
</svg>