<svg xmlns="http://www.w3.org/2000/svg" width="900" height="620" viewBox="0 0 900 620">
<rect width="100%" height="100%" fill="#ffffff"/>
<text x="72" y="26" font-family="Arial, sans-serif" font-size="16" font-weight="700">I2C_TX_8mA_tx Zout Load-Line Curves</text>
<text x="72" y="45" font-family="Arial, sans-serif" font-size="11" fill="#555">Rload=50 ohm; solid=device I-V, dashed=load line, circles=operating points</text>
<rect x="72.00" y="62.00" width="380.00" height="286.00" fill="#fbfbfb" stroke="#c8c8c8"/>
<text x="80.00" y="50.00" font-family="Arial, sans-serif" font-size="13" font-weight="700">[Pulldown] Rload to Vdd</text>
<line x1="72.00" y1="62.00" x2="72.00" y2="348.00" stroke="#ececec"/>
<text x="72.00" y="366.00" text-anchor="middle" font-family="Arial, sans-serif" font-size="10">-1.3</text>
<line x1="167.00" y1="62.00" x2="167.00" y2="348.00" stroke="#ececec"/>
<text x="167.00" y="366.00" text-anchor="middle" font-family="Arial, sans-serif" font-size="10">-0.372</text>
<line x1="262.00" y1="62.00" x2="262.00" y2="348.00" stroke="#ececec"/>
<text x="262.00" y="366.00" text-anchor="middle" font-family="Arial, sans-serif" font-size="10">0.6</text>
<line x1="357.00" y1="62.00" x2="357.00" y2="348.00" stroke="#ececec"/>
<text x="357.00" y="366.00" text-anchor="middle" font-family="Arial, sans-serif" font-size="10">1.6</text>
<line x1="452.00" y1="62.00" x2="452.00" y2="348.00" stroke="#ececec"/>
<text x="452.00" y="366.00" text-anchor="middle" font-family="Arial, sans-serif" font-size="10">2.5</text>
<line x1="72.00" y1="348.00" x2="452.00" y2="348.00" stroke="#ececec"/>
<text x="65.00" y="352.00" text-anchor="end" font-family="Arial, sans-serif" font-size="10">-37</text>
<line x1="72.00" y1="276.50" x2="452.00" y2="276.50" stroke="#ececec"/>
<text x="65.00" y="280.50" text-anchor="end" font-family="Arial, sans-serif" font-size="10">-9.4</text>
<line x1="72.00" y1="205.00" x2="452.00" y2="205.00" stroke="#ececec"/>
<text x="65.00" y="209.00" text-anchor="end" font-family="Arial, sans-serif" font-size="10">18</text>
<line x1="72.00" y1="133.50" x2="452.00" y2="133.50" stroke="#ececec"/>
<text x="65.00" y="137.50" text-anchor="end" font-family="Arial, sans-serif" font-size="10">46</text>
<line x1="72.00" y1="62.00" x2="452.00" y2="62.00" stroke="#ececec"/>
<text x="65.00" y="66.00" text-anchor="end" font-family="Arial, sans-serif" font-size="10">74</text>
<line x1="203.36" y1="62" x2="203.36" y2="348" stroke="#777" stroke-dasharray="4 4"/>
<line x1="72.0" y1="252.36" x2="452.0" y2="252.36" stroke="#777" stroke-dasharray="4 4"/>
<polyline fill="none" stroke="#1f77b4" stroke-width="1.8" points="86.07,297.82 89.74,297.16 93.40,296.50 97.07,295.84 100.73,295.18 104.40,294.52 108.06,293.86 111.73,293.20 115.40,292.53 119.06,291.85 122.73,291.16 126.39,290.46 133.72,289.01 141.05,287.42 148.38,285.62 152.05,284.60 155.71,283.45 159.38,282.15 163.04,280.64 166.71,278.84 170.37,276.71 174.04,274.26 177.70,271.59 188.70,263.34 199.69,255.10 203.36,252.36 207.02,249.63 210.69,246.90 214.35,244.18 218.02,241.45 221.68,238.73 225.35,236.01 229.01,233.29 232.68,230.56 236.34,227.84 240.01,225.12 243.67,222.39 247.34,219.67 251.00,216.94 254.67,214.21 258.33,211.48 262.00,208.75 265.67,206.01 269.33,203.28 273.00,200.54 276.66,197.80 280.33,195.07 283.99,192.33 287.66,189.60 291.32,186.87 294.99,184.14 298.65,181.42 302.32,178.71 305.98,176.01 309.65,173.32 313.31,170.65 316.98,168.00 320.64,165.38 324.31,162.79 338.97,152.98 353.63,144.77 357.29,143.19 360.96,141.98 364.62,141.28 368.29,141.11 371.95,141.41 375.62,142.10 379.28,143.10 382.95,144.36 390.28,147.45 393.94,149.22 397.61,151.10 401.27,153.09 404.94,155.15 408.60,157.29 412.27,159.49 415.94,161.75 419.60,164.06 423.27,166.41 426.93,168.80 430.60,171.23 434.26,173.69 437.93,176.19"/>
<polyline fill="none" stroke="#ff7f0e" stroke-width="1.8" stroke-dasharray="5 4" points="86.07,290.55 89.74,290.08 93.40,289.60 97.07,289.13 100.73,288.66 104.40,288.18 108.06,287.69 111.73,287.19 115.40,286.68 119.06,286.15 122.73,285.60 126.39,285.03 133.72,283.79 141.05,282.37 148.38,280.67 152.05,279.67 155.71,278.54 159.38,277.25 163.04,275.76 166.71,274.04 170.37,272.11 174.04,270.01 177.70,267.83 188.70,261.17 199.69,254.55 203.36,252.36 207.02,250.18 210.69,248.01 214.35,245.85 218.02,243.69 221.68,241.55 225.35,239.41 229.01,237.28 232.68,235.16 236.34,233.06 240.01,230.96 243.67,228.88 247.34,226.82 251.00,224.77 254.67,222.73 258.33,220.72 262.00,218.72 265.67,216.75 269.33,214.80 273.00,212.88 276.66,211.00 280.33,209.15 283.99,207.34 287.66,205.58 291.32,203.88 294.99,202.24 298.65,200.67 302.32,199.19 305.98,197.82 309.65,196.56 313.31,195.43 316.98,194.44 320.64,193.58 324.31,192.85 338.97,191.05 353.63,191.70 357.29,192.50 360.96,193.52 364.62,194.72 368.29,196.07 371.95,197.55 375.62,199.12 379.28,200.78 382.95,202.51 390.28,206.13 393.94,208.02 397.61,209.95 401.27,211.91 404.94,213.90 408.60,215.89 412.27,217.86 415.94,219.77 419.60,221.69 423.27,223.60 426.93,225.52 430.60,227.44 434.26,229.35 437.93,231.27"/>
<polyline fill="none" stroke="#2ca02c" stroke-width="1.8" stroke-dasharray="2 4" points="86.07,306.54 89.74,305.67 93.40,304.80 97.07,303.93 100.73,303.06 104.40,302.20 108.06,301.34 111.73,300.47 115.40,299.61 119.06,298.75 122.73,297.88 126.39,297.00 133.72,295.22 141.05,293.35 148.38,291.31 152.05,290.18 155.71,288.95 159.38,287.57 163.04,285.97 166.71,284.04 170.37,281.67 174.04,278.84 177.70,275.67 188.70,265.68 199.69,255.69 203.36,252.36 207.02,249.05 210.69,245.73 214.35,242.41 218.02,239.09 221.68,235.77 225.35,232.44 229.01,229.11 232.68,225.78 236.34,222.44 240.01,219.09 243.67,215.73 247.34,212.36 251.00,208.99 254.67,205.60 258.33,202.20 262.00,198.79 265.67,195.37 269.33,191.94 273.00,188.49 276.66,185.03 280.33,181.55 283.99,178.07 287.66,174.56 291.32,171.05 294.99,167.52 298.65,163.98 302.32,160.43 305.98,156.86 309.65,153.29 313.31,149.70 316.98,146.11 320.64,142.51 324.31,138.91 338.97,124.53 353.63,110.44 357.29,107.03 360.96,103.69 364.62,100.44 368.29,97.38 371.95,94.71 375.62,92.62 379.28,91.14 382.95,90.21 390.28,89.68 393.94,89.97 397.61,90.59 401.27,91.51 404.94,92.71 408.60,94.18 412.27,95.86 415.94,97.74 419.60,99.78 423.27,101.97 426.93,104.28 430.60,106.70 434.26,109.22 437.93,111.82"/>
<polyline fill="none" stroke="#1f77b4" stroke-width="1.1" stroke-dasharray="6 4" points="72.00,121.39 76.81,123.92 81.62,126.46 86.43,128.99 91.24,131.53 96.05,134.06 100.86,136.59 105.67,139.13 110.48,141.66 115.29,144.19 120.10,146.73 124.91,149.26 129.72,151.80 134.53,154.33 139.34,156.86 144.15,159.40 148.96,161.93 153.77,164.46 158.58,167.00 163.39,169.53 168.20,172.07 173.01,174.60 177.82,177.13 182.63,179.67 187.44,182.20 192.25,184.73 197.06,187.27 201.87,189.80 206.68,192.34 211.49,194.87 216.30,197.40 221.11,199.94 225.92,202.47 230.73,205.00 235.54,207.54 240.35,210.07 245.16,212.61 249.97,215.14 254.78,217.67 259.59,220.21 264.41,222.74 269.22,225.27 274.03,227.81 278.84,230.34 283.65,232.88 288.46,235.41 293.27,237.94 298.08,240.48 302.89,243.01 307.70,245.54 312.51,248.08 317.32,250.61 322.13,253.15 326.94,255.68 331.75,258.21 336.56,260.75 341.37,263.28 346.18,265.82 350.99,268.35 355.80,270.88 360.61,273.42 365.42,275.95 370.23,278.48 375.04,281.02 379.85,283.55 384.66,286.09 389.47,288.62 394.28,291.15 399.09,293.69 403.90,296.22 408.71,298.75 413.52,301.29 418.33,303.82 423.14,306.36 427.95,308.89 432.76,311.42 437.57,313.96 442.38,316.49 447.19,319.02 452.00,321.56"/>
<circle cx="251.99" cy="216.20" r="4.6" fill="#ffffff" stroke="#1f77b4" stroke-width="2"/>
<text x="257.99" y="210.20" font-family="Arial, sans-serif" font-size="10" fill="#1f77b4">typ 35.4 ohm</text>
<polyline fill="none" stroke="#ff7f0e" stroke-width="1.1" stroke-dasharray="6 4" points="72.00,127.57 76.81,130.10 81.62,132.64 86.43,135.17 91.24,137.70 96.05,140.24 100.86,142.77 105.67,145.30 110.48,147.84 115.29,150.37 120.10,152.91 124.91,155.44 129.72,157.97 134.53,160.51 139.34,163.04 144.15,165.57 148.96,168.11 153.77,170.64 158.58,173.18 163.39,175.71 168.20,178.24 173.01,180.78 177.82,183.31 182.63,185.84 187.44,188.38 192.25,190.91 197.06,193.45 201.87,195.98 206.68,198.51 211.49,201.05 216.30,203.58 221.11,206.12 225.92,208.65 230.73,211.18 235.54,213.72 240.35,216.25 245.16,218.78 249.97,221.32 254.78,223.85 259.59,226.39 264.41,228.92 269.22,231.45 274.03,233.99 278.84,236.52 283.65,239.05 288.46,241.59 293.27,244.12 298.08,246.66 302.89,249.19 307.70,251.72 312.51,254.26 317.32,256.79 322.13,259.32 326.94,261.86 331.75,264.39 336.56,266.93 341.37,269.46 346.18,271.99 350.99,274.53 355.80,277.06 360.61,279.59 365.42,282.13 370.23,284.66 375.04,287.20 379.85,289.73 384.66,292.26 389.47,294.80 394.28,297.33 399.09,299.86 403.90,302.40 408.71,304.93 413.52,307.47 418.33,310.00 423.14,312.53 427.95,315.07 432.76,317.60 437.57,320.13 442.38,322.67 447.19,325.20 452.00,327.74"/>
<circle cx="253.69" cy="223.28" r="4.6" fill="#ffffff" stroke="#ff7f0e" stroke-width="2"/>
<text x="259.69" y="217.28" font-family="Arial, sans-serif" font-size="10" fill="#ff7f0e">min 45.6 ohm</text>
<polyline fill="none" stroke="#2ca02c" stroke-width="1.1" stroke-dasharray="6 4" points="72.00,115.21 76.81,117.75 81.62,120.28 86.43,122.81 91.24,125.35 96.05,127.88 100.86,130.41 105.67,132.95 110.48,135.48 115.29,138.02 120.10,140.55 124.91,143.08 129.72,145.62 134.53,148.15 139.34,150.68 144.15,153.22 148.96,155.75 153.77,158.29 158.58,160.82 163.39,163.35 168.20,165.89 173.01,168.42 177.82,170.96 182.63,173.49 187.44,176.02 192.25,178.56 197.06,181.09 201.87,183.62 206.68,186.16 211.49,188.69 216.30,191.23 221.11,193.76 225.92,196.29 230.73,198.83 235.54,201.36 240.35,203.89 245.16,206.43 249.97,208.96 254.78,211.50 259.59,214.03 264.41,216.56 269.22,219.10 274.03,221.63 278.84,224.16 283.65,226.70 288.46,229.23 293.27,231.77 298.08,234.30 302.89,236.83 307.70,239.37 312.51,241.90 317.32,244.43 322.13,246.97 326.94,249.50 331.75,252.04 336.56,254.57 341.37,257.10 346.18,259.64 350.99,262.17 355.80,264.70 360.61,267.24 365.42,269.77 370.23,272.31 375.04,274.84 379.85,277.37 384.66,279.91 389.47,282.44 394.28,284.97 399.09,287.51 403.90,290.04 408.71,292.58 413.52,295.11 418.33,297.64 423.14,300.18 427.95,302.71 432.76,305.25 437.57,307.78 442.38,310.31 447.19,312.85 452.00,315.38"/>
<circle cx="250.65" cy="209.32" r="4.6" fill="#ffffff" stroke="#2ca02c" stroke-width="2"/>
<text x="256.65" y="203.32" font-family="Arial, sans-serif" font-size="10" fill="#2ca02c">max 28.9 ohm</text>
<line x1="82.00" y1="80.00" x2="104.00" y2="80.00" stroke="#1f77b4" stroke-width="2"/>
<text x="110.00" y="84.00" font-family="Arial, sans-serif" font-size="11">typ</text>
<line x1="82.00" y1="97.00" x2="104.00" y2="97.00" stroke="#ff7f0e" stroke-width="2" stroke-dasharray="5 4"/>
<text x="110.00" y="101.00" font-family="Arial, sans-serif" font-size="11">min</text>
<line x1="82.00" y1="114.00" x2="104.00" y2="114.00" stroke="#2ca02c" stroke-width="2" stroke-dasharray="2 4"/>
<text x="110.00" y="118.00" font-family="Arial, sans-serif" font-size="11">max</text>
<text x="262.00" y="386.00" text-anchor="middle" font-family="Arial, sans-serif" font-size="11">Output voltage (V)</text>
<text transform="translate(22.00 205.00) rotate(-90)" text-anchor="middle" font-family="Arial, sans-serif" font-size="11">Current (mA)</text>
<rect x="492.00" y="62.00" width="380.00" height="286.00" fill="#fbfbfb" stroke="#c8c8c8"/>
<text x="500.00" y="50.00" font-family="Arial, sans-serif" font-size="13" font-weight="700">[Pullup] Rload to GND</text>
<line x1="492.00" y1="62.00" x2="492.00" y2="348.00" stroke="#ececec"/>
<text x="492.00" y="366.00" text-anchor="middle" font-family="Arial, sans-serif" font-size="10">-1.3</text>
<line x1="587.00" y1="62.00" x2="587.00" y2="348.00" stroke="#ececec"/>
<text x="587.00" y="366.00" text-anchor="middle" font-family="Arial, sans-serif" font-size="10">-0.372</text>
<line x1="682.00" y1="62.00" x2="682.00" y2="348.00" stroke="#ececec"/>
<text x="682.00" y="366.00" text-anchor="middle" font-family="Arial, sans-serif" font-size="10">0.6</text>
<line x1="777.00" y1="62.00" x2="777.00" y2="348.00" stroke="#ececec"/>
<text x="777.00" y="366.00" text-anchor="middle" font-family="Arial, sans-serif" font-size="10">1.6</text>
<line x1="872.00" y1="62.00" x2="872.00" y2="348.00" stroke="#ececec"/>
<text x="872.00" y="366.00" text-anchor="middle" font-family="Arial, sans-serif" font-size="10">2.5</text>
<line x1="492.00" y1="348.00" x2="872.00" y2="348.00" stroke="#ececec"/>
<text x="485.00" y="352.00" text-anchor="end" font-family="Arial, sans-serif" font-size="10">-75</text>
<line x1="492.00" y1="276.50" x2="872.00" y2="276.50" stroke="#ececec"/>
<text x="485.00" y="280.50" text-anchor="end" font-family="Arial, sans-serif" font-size="10">-47</text>
<line x1="492.00" y1="205.00" x2="872.00" y2="205.00" stroke="#ececec"/>
<text x="485.00" y="209.00" text-anchor="end" font-family="Arial, sans-serif" font-size="10">-19</text>
<line x1="492.00" y1="133.50" x2="872.00" y2="133.50" stroke="#ececec"/>
<text x="485.00" y="137.50" text-anchor="end" font-family="Arial, sans-serif" font-size="10">9.3</text>
<line x1="492.00" y1="62.00" x2="872.00" y2="62.00" stroke="#ececec"/>
<text x="485.00" y="66.00" text-anchor="end" font-family="Arial, sans-serif" font-size="10">37</text>
<line x1="623.36" y1="62" x2="623.36" y2="348" stroke="#777" stroke-dasharray="4 4"/>
<line x1="492.0" y1="157.22" x2="872.0" y2="157.22" stroke="#777" stroke-dasharray="4 4"/>
<polyline fill="none" stroke="#1f77b4" stroke-width="1.8" points="506.07,106.47 509.74,107.13 513.40,107.78 517.07,108.44 520.73,109.10 524.40,109.77 528.06,110.44 531.73,111.12 535.40,111.81 539.06,112.52 542.73,113.25 546.39,114.01 553.72,115.64 561.05,117.50 568.38,119.74 572.05,121.10 575.71,122.68 579.38,124.56 583.04,126.79 586.71,129.33 590.37,132.07 594.04,134.87 597.70,137.69 608.70,146.10 619.69,154.45 623.36,157.22 627.02,159.99 630.69,162.75 634.35,165.51 638.02,168.27 641.68,171.03 645.35,173.79 649.01,176.55 652.68,179.30 656.34,182.06 660.01,184.82 663.67,187.58 667.34,190.35 671.00,193.11 674.67,195.88 678.33,198.65 682.00,201.42 685.67,204.20 689.33,206.98 693.00,209.75 696.66,212.53 700.33,215.32 703.99,218.10 707.66,220.88 711.32,223.65 714.99,226.43 718.65,229.20 722.32,231.96 725.98,234.71 729.65,237.46 733.31,240.19 736.98,242.90 740.64,245.59 744.31,248.25 758.97,258.49 773.63,267.08 777.29,268.38 780.96,269.19 784.62,269.56 788.29,269.53 791.95,269.16 795.62,268.50 799.28,267.58 802.95,266.45 810.28,263.65 813.94,262.03 817.61,260.31 821.27,258.48 824.94,256.58 828.60,254.60 832.27,252.56 835.94,250.47 839.60,248.32 843.27,246.14 846.93,243.91 850.60,241.65 854.26,239.35 857.93,237.02"/>
<polyline fill="none" stroke="#ff7f0e" stroke-width="1.8" stroke-dasharray="5 4" points="506.07,116.77 509.74,117.25 513.40,117.73 517.07,118.21 520.73,118.69 524.40,119.18 528.06,119.68 531.73,120.19 535.40,120.72 539.06,121.27 542.73,121.85 546.39,122.45 553.72,123.77 561.05,125.30 568.38,127.16 572.05,128.27 575.71,129.54 579.38,131.01 583.04,132.70 586.71,134.62 590.37,136.74 594.04,138.97 597.70,141.26 608.70,148.14 619.69,154.96 623.36,157.22 627.02,159.47 630.69,161.72 634.35,163.95 638.02,166.18 641.68,168.40 645.35,170.62 649.01,172.82 652.68,175.02 656.34,177.21 660.01,179.40 663.67,181.57 667.34,183.73 671.00,185.88 674.67,188.02 678.33,190.15 682.00,192.27 685.67,194.36 689.33,196.44 693.00,198.50 696.66,200.54 700.33,202.55 703.99,204.54 707.66,206.49 711.32,208.40 714.99,210.27 718.65,212.10 722.32,213.87 725.98,215.57 729.65,217.19 733.31,218.73 736.98,220.18 740.64,221.52 744.31,222.74 758.97,226.31 773.63,226.35 777.29,225.66 780.96,224.76 784.62,223.68 788.29,222.47 791.95,221.12 795.62,219.68 799.28,218.16 802.95,216.57 810.28,213.22 813.94,211.47 817.61,209.68 821.27,207.86 824.94,206.00 828.60,204.12 832.27,202.21 835.94,200.30 839.60,198.39 843.27,196.48 846.93,194.56 850.60,192.65 854.26,190.74 857.93,188.83"/>
<polyline fill="none" stroke="#2ca02c" stroke-width="1.8" stroke-dasharray="2 4" points="506.07,96.45 509.74,97.30 513.40,98.16 517.07,99.02 520.73,99.87 524.40,100.73 528.06,101.59 531.73,102.45 535.40,103.31 539.06,104.19 542.73,105.08 546.39,106.00 553.72,107.92 561.05,110.07 568.38,112.60 572.05,114.11 575.71,115.86 579.38,117.95 583.04,120.49 586.71,123.53 590.37,126.84 594.04,130.22 597.70,133.62 608.70,143.78 619.69,153.87 623.36,157.22 627.02,160.57 630.69,163.92 634.35,167.27 638.02,170.62 641.68,173.97 645.35,177.33 649.01,180.69 652.68,184.05 656.34,187.42 660.01,190.80 663.67,194.19 667.34,197.59 671.00,201.00 674.67,204.42 678.33,207.86 682.00,211.30 685.67,214.76 689.33,218.23 693.00,221.71 696.66,225.21 700.33,228.73 703.99,232.25 707.66,235.80 711.32,239.35 714.99,242.92 718.65,246.51 722.32,250.11 725.98,253.72 729.65,257.34 733.31,260.97 736.98,264.62 740.64,268.27 744.31,271.93 758.97,286.60 773.63,301.16 777.29,304.72 780.96,308.14 784.62,311.22 788.29,313.70 791.95,315.66 795.62,317.20 799.28,318.39 802.95,319.27 810.28,320.23 813.94,320.32 817.61,320.16 821.27,319.75 824.94,319.10 828.60,318.17 832.27,317.02 835.94,315.66 839.60,314.10 843.27,312.37 846.93,310.48 850.60,308.45 854.26,306.29 857.93,304.03"/>
<polyline fill="none" stroke="#1f77b4" stroke-width="1.1" stroke-dasharray="6 4" points="492.00,287.40 496.81,284.88 501.62,282.36 506.43,279.84 511.24,277.32 516.05,274.80 520.86,272.29 525.67,269.77 530.48,267.25 535.29,264.73 540.10,262.21 544.91,259.69 549.72,257.18 554.53,254.66 559.34,252.14 564.15,249.62 568.96,247.10 573.77,244.58 578.58,242.07 583.39,239.55 588.20,237.03 593.01,234.51 597.82,231.99 602.63,229.47 607.44,226.96 612.25,224.44 617.06,221.92 621.87,219.40 626.68,216.88 631.49,214.36 636.30,211.85 641.11,209.33 645.92,206.81 650.73,204.29 655.54,201.77 660.35,199.25 665.16,196.74 669.97,194.22 674.78,191.70 679.59,189.18 684.41,186.66 689.22,184.14 694.03,181.63 698.84,179.11 703.65,176.59 708.46,174.07 713.27,171.55 718.08,169.04 722.89,166.52 727.70,164.00 732.51,161.48 737.32,158.96 742.13,156.44 746.94,153.93 751.75,151.41 756.56,148.89 761.37,146.37 766.18,143.85 770.99,141.33 775.80,138.82 780.61,136.30 785.42,133.78 790.23,131.26 795.04,128.74 799.85,126.22 804.66,123.71 809.47,121.19 814.28,118.67 819.09,116.15 823.90,113.63 828.71,111.11 833.52,108.60 838.33,106.08 843.14,103.56 847.95,101.04 852.76,98.52 857.57,96.00 862.38,93.49 867.19,90.97 872.00,88.45"/>
<circle cx="671.45" cy="193.45" r="4.6" fill="#ffffff" stroke="#1f77b4" stroke-width="2"/>
<text x="677.45" y="187.45" font-family="Arial, sans-serif" font-size="10" fill="#1f77b4">typ 34.8 ohm</text>
<polyline fill="none" stroke="#ff7f0e" stroke-width="1.1" stroke-dasharray="6 4" points="492.00,281.26 496.81,278.74 501.62,276.22 506.43,273.70 511.24,271.18 516.05,268.66 520.86,266.15 525.67,263.63 530.48,261.11 535.29,258.59 540.10,256.07 544.91,253.55 549.72,251.04 554.53,248.52 559.34,246.00 564.15,243.48 568.96,240.96 573.77,238.44 578.58,235.93 583.39,233.41 588.20,230.89 593.01,228.37 597.82,225.85 602.63,223.33 607.44,220.82 612.25,218.30 617.06,215.78 621.87,213.26 626.68,210.74 631.49,208.22 636.30,205.71 641.11,203.19 645.92,200.67 650.73,198.15 655.54,195.63 660.35,193.11 665.16,190.60 669.97,188.08 674.78,185.56 679.59,183.04 684.41,180.52 689.22,178.00 694.03,175.49 698.84,172.97 703.65,170.45 708.46,167.93 713.27,165.41 718.08,162.89 722.89,160.38 727.70,157.86 732.51,155.34 737.32,152.82 742.13,150.30 746.94,147.78 751.75,145.27 756.56,142.75 761.37,140.23 766.18,137.71 770.99,135.19 775.80,132.68 780.61,130.16 785.42,127.64 790.23,125.12 795.04,122.60 799.85,120.08 804.66,117.57 809.47,115.05 814.28,112.53 819.09,110.01 823.90,107.49 828.71,104.97 833.52,102.46 838.33,99.94 843.14,97.42 847.95,94.90 852.76,92.38 857.57,89.86 862.38,87.35 867.19,84.83 872.00,82.31"/>
<circle cx="672.50" cy="186.76" r="4.6" fill="#ffffff" stroke="#ff7f0e" stroke-width="2"/>
<text x="678.50" y="180.76" font-family="Arial, sans-serif" font-size="10" fill="#ff7f0e">min 43.6 ohm</text>
<polyline fill="none" stroke="#2ca02c" stroke-width="1.1" stroke-dasharray="6 4" points="492.00,293.54 496.81,291.02 501.62,288.50 506.43,285.98 511.24,283.46 516.05,280.94 520.86,278.43 525.67,275.91 530.48,273.39 535.29,270.87 540.10,268.35 544.91,265.83 549.72,263.32 554.53,260.80 559.34,258.28 564.15,255.76 568.96,253.24 573.77,250.72 578.58,248.21 583.39,245.69 588.20,243.17 593.01,240.65 597.82,238.13 602.63,235.61 607.44,233.10 612.25,230.58 617.06,228.06 621.87,225.54 626.68,223.02 631.49,220.50 636.30,217.99 641.11,215.47 645.92,212.95 650.73,210.43 655.54,207.91 660.35,205.40 665.16,202.88 669.97,200.36 674.78,197.84 679.59,195.32 684.41,192.80 689.22,190.29 694.03,187.77 698.84,185.25 703.65,182.73 708.46,180.21 713.27,177.69 718.08,175.18 722.89,172.66 727.70,170.14 732.51,167.62 737.32,165.10 742.13,162.58 746.94,160.07 751.75,157.55 756.56,155.03 761.37,152.51 766.18,149.99 770.99,147.47 775.80,144.96 780.61,142.44 785.42,139.92 790.23,137.40 795.04,134.88 799.85,132.36 804.66,129.85 809.47,127.33 814.28,124.81 819.09,122.29 823.90,119.77 828.71,117.25 833.52,114.74 838.33,112.22 843.14,109.70 847.95,107.18 852.76,104.66 857.57,102.14 862.38,99.63 867.19,97.11 872.00,94.59"/>
<circle cx="670.19" cy="200.25" r="4.6" fill="#ffffff" stroke="#2ca02c" stroke-width="2"/>
<text x="676.19" y="194.25" font-family="Arial, sans-serif" font-size="10" fill="#2ca02c">max 28.5 ohm</text>
<line x1="502.00" y1="80.00" x2="524.00" y2="80.00" stroke="#1f77b4" stroke-width="2"/>
<text x="530.00" y="84.00" font-family="Arial, sans-serif" font-size="11">typ</text>
<line x1="502.00" y1="97.00" x2="524.00" y2="97.00" stroke="#ff7f0e" stroke-width="2" stroke-dasharray="5 4"/>
<text x="530.00" y="101.00" font-family="Arial, sans-serif" font-size="11">min</text>
<line x1="502.00" y1="114.00" x2="524.00" y2="114.00" stroke="#2ca02c" stroke-width="2" stroke-dasharray="2 4"/>
<text x="530.00" y="118.00" font-family="Arial, sans-serif" font-size="11">max</text>
<text x="682.00" y="386.00" text-anchor="middle" font-family="Arial, sans-serif" font-size="11">Vcc-relative table voltage (V)</text>
<text transform="translate(442.00 205.00) rotate(-90)" text-anchor="middle" font-family="Arial, sans-serif" font-size="11">Current (mA)</text>
<rect x="72.00" y="418.00" width="800.00" height="144.00" fill="#ffffff" stroke="#c8c8c8"/>
<text x="82.00" y="436.00" font-family="Arial, sans-serif" font-size="12" font-weight="700">Operating-point summary</text>
<text x="82.00" y="454.00" font-family="Arial, sans-serif" font-size="10" font-weight="700" fill="#333">Table</text>
<text x="174.00" y="454.00" font-family="Arial, sans-serif" font-size="10" font-weight="700" fill="#333">Corner</text>
<text x="242.00" y="454.00" font-family="Arial, sans-serif" font-size="10" font-weight="700" fill="#333">Vout</text>
<text x="332.00" y="454.00" font-family="Arial, sans-serif" font-size="10" font-weight="700" fill="#333">Iop</text>
<text x="422.00" y="454.00" font-family="Arial, sans-serif" font-size="10" font-weight="700" fill="#333">Zout</text>
<text x="512.00" y="454.00" font-family="Arial, sans-serif" font-size="10" font-weight="700" fill="#333">Rseries</text>
<text x="82.00" y="473.00" font-family="Arial, sans-serif" font-size="10" fill="#1f77b4">pulldown</text>
<text x="174.00" y="473.00" font-family="Arial, sans-serif" font-size="10" fill="#1f77b4">typ</text>
<text x="242.00" y="473.00" font-family="Arial, sans-serif" font-size="10" fill="#1f77b4">0.4976 V</text>
<text x="332.00" y="473.00" font-family="Arial, sans-serif" font-size="10" fill="#1f77b4">14 mA</text>
<text x="422.00" y="473.00" font-family="Arial, sans-serif" font-size="10" fill="#1f77b4">35.4 ohm</text>
<text x="512.00" y="473.00" font-family="Arial, sans-serif" font-size="10" fill="#1f77b4">14.6 ohm</text>
<text x="82.00" y="492.00" font-family="Arial, sans-serif" font-size="10" fill="#ff7f0e">pulldown</text>
<text x="174.00" y="492.00" font-family="Arial, sans-serif" font-size="10" fill="#ff7f0e">min</text>
<text x="242.00" y="492.00" font-family="Arial, sans-serif" font-size="10" fill="#ff7f0e">0.515 V</text>
<text x="332.00" y="492.00" font-family="Arial, sans-serif" font-size="10" fill="#ff7f0e">11 mA</text>
<text x="422.00" y="492.00" font-family="Arial, sans-serif" font-size="10" fill="#ff7f0e">45.6 ohm</text>
<text x="512.00" y="492.00" font-family="Arial, sans-serif" font-size="10" fill="#ff7f0e">4.428 ohm</text>
<text x="82.00" y="511.00" font-family="Arial, sans-serif" font-size="10" fill="#2ca02c">pulldown</text>
<text x="174.00" y="511.00" font-family="Arial, sans-serif" font-size="10" fill="#2ca02c">max</text>
<text x="242.00" y="511.00" font-family="Arial, sans-serif" font-size="10" fill="#2ca02c">0.4839 V</text>
<text x="332.00" y="511.00" font-family="Arial, sans-serif" font-size="10" fill="#2ca02c">17 mA</text>
<text x="422.00" y="511.00" font-family="Arial, sans-serif" font-size="10" fill="#2ca02c">28.9 ohm</text>
<text x="512.00" y="511.00" font-family="Arial, sans-serif" font-size="10" fill="#2ca02c">21.1 ohm</text>
<text x="82.00" y="530.00" font-family="Arial, sans-serif" font-size="10" fill="#1f77b4">pullup</text>
<text x="174.00" y="530.00" font-family="Arial, sans-serif" font-size="10" fill="#1f77b4">typ</text>
<text x="242.00" y="530.00" font-family="Arial, sans-serif" font-size="10" fill="#1f77b4">0.708 V</text>
<text x="332.00" y="530.00" font-family="Arial, sans-serif" font-size="10" fill="#1f77b4">-14 mA</text>
<text x="422.00" y="530.00" font-family="Arial, sans-serif" font-size="10" fill="#1f77b4">34.8 ohm</text>
<text x="512.00" y="530.00" font-family="Arial, sans-serif" font-size="10" fill="#1f77b4">15.2 ohm</text>
<text x="82.00" y="549.00" font-family="Arial, sans-serif" font-size="10" fill="#ff7f0e">pullup</text>
<text x="174.00" y="549.00" font-family="Arial, sans-serif" font-size="10" fill="#ff7f0e">min</text>
<text x="242.00" y="549.00" font-family="Arial, sans-serif" font-size="10" fill="#ff7f0e">0.5772 V</text>
<text x="332.00" y="549.00" font-family="Arial, sans-serif" font-size="10" fill="#ff7f0e">-12 mA</text>
<text x="422.00" y="549.00" font-family="Arial, sans-serif" font-size="10" fill="#ff7f0e">43.6 ohm</text>
<text x="512.00" y="549.00" font-family="Arial, sans-serif" font-size="10" fill="#ff7f0e">6.446 ohm</text>
<text x="82.00" y="568.00" font-family="Arial, sans-serif" font-size="10" fill="#2ca02c">pullup</text>
<text x="174.00" y="568.00" font-family="Arial, sans-serif" font-size="10" fill="#2ca02c">max</text>
<text x="242.00" y="568.00" font-family="Arial, sans-serif" font-size="10" fill="#2ca02c">0.8408 V</text>
<text x="332.00" y="568.00" font-family="Arial, sans-serif" font-size="10" fill="#2ca02c">-17 mA</text>
<text x="422.00" y="568.00" font-family="Arial, sans-serif" font-size="10" fill="#2ca02c">28.5 ohm</text>
<text x="512.00" y="568.00" font-family="Arial, sans-serif" font-size="10" fill="#2ca02c">21.5 ohm</text>
</svg>