<svg xmlns="http://www.w3.org/2000/svg" width="900" height="620" viewBox="0 0 900 620">
<rect width="100%" height="100%" fill="#ffffff"/>
<text x="72" y="26" font-family="Arial, sans-serif" font-size="16" font-weight="700">I3C_TX_0p125mA_tx Zout Load-Line Curves</text>
<text x="72" y="45" font-family="Arial, sans-serif" font-size="11" fill="#555">Rload=50 ohm; solid=device I-V, dashed=load line, circles=operating points</text>
<rect x="72.00" y="62.00" width="380.00" height="286.00" fill="#fbfbfb" stroke="#c8c8c8"/>
<text x="80.00" y="50.00" font-family="Arial, sans-serif" font-size="13" font-weight="700">[Pulldown] Rload to Vdd</text>
<line x1="72.00" y1="62.00" x2="72.00" y2="348.00" stroke="#ececec"/>
<text x="72.00" y="366.00" text-anchor="middle" font-family="Arial, sans-serif" font-size="10">-1.3</text>
<line x1="167.00" y1="62.00" x2="167.00" y2="348.00" stroke="#ececec"/>
<text x="167.00" y="366.00" text-anchor="middle" font-family="Arial, sans-serif" font-size="10">-0.372</text>
<line x1="262.00" y1="62.00" x2="262.00" y2="348.00" stroke="#ececec"/>
<text x="262.00" y="366.00" text-anchor="middle" font-family="Arial, sans-serif" font-size="10">0.6</text>
<line x1="357.00" y1="62.00" x2="357.00" y2="348.00" stroke="#ececec"/>
<text x="357.00" y="366.00" text-anchor="middle" font-family="Arial, sans-serif" font-size="10">1.6</text>
<line x1="452.00" y1="62.00" x2="452.00" y2="348.00" stroke="#ececec"/>
<text x="452.00" y="366.00" text-anchor="middle" font-family="Arial, sans-serif" font-size="10">2.5</text>
<line x1="72.00" y1="348.00" x2="452.00" y2="348.00" stroke="#ececec"/>
<text x="65.00" y="352.00" text-anchor="end" font-family="Arial, sans-serif" font-size="10">-36</text>
<line x1="72.00" y1="276.50" x2="452.00" y2="276.50" stroke="#ececec"/>
<text x="65.00" y="280.50" text-anchor="end" font-family="Arial, sans-serif" font-size="10">-12</text>
<line x1="72.00" y1="205.00" x2="452.00" y2="205.00" stroke="#ececec"/>
<text x="65.00" y="209.00" text-anchor="end" font-family="Arial, sans-serif" font-size="10">12</text>
<line x1="72.00" y1="133.50" x2="452.00" y2="133.50" stroke="#ececec"/>
<text x="65.00" y="137.50" text-anchor="end" font-family="Arial, sans-serif" font-size="10">36</text>
<line x1="72.00" y1="62.00" x2="452.00" y2="62.00" stroke="#ececec"/>
<text x="65.00" y="66.00" text-anchor="end" font-family="Arial, sans-serif" font-size="10">60</text>
<line x1="203.36" y1="62" x2="203.36" y2="348" stroke="#777" stroke-dasharray="4 4"/>
<line x1="72.0" y1="241.04" x2="452.0" y2="241.04" stroke="#777" stroke-dasharray="4 4"/>
<polyline fill="none" stroke="#1f77b4" stroke-width="1.8" points="86.07,242.35 89.74,242.33 93.40,242.32 97.07,242.30 100.73,242.28 104.40,242.26 108.06,242.25 111.73,242.23 115.40,242.21 119.06,242.19 122.73,242.17 126.39,242.16 133.72,242.12 141.05,242.07 148.38,242.02 152.05,241.99 155.71,241.96 159.38,241.92 163.04,241.88 166.71,241.82 170.37,241.76 174.04,241.69 177.70,241.61 181.37,241.53 199.69,241.12 203.36,241.04 207.02,240.96 210.69,240.88 214.35,240.79 218.02,240.71 221.68,240.63 225.35,240.55 229.01,240.47 232.68,240.39 236.34,240.31 240.01,240.23 243.67,240.15 247.34,240.06 251.00,239.98 254.67,239.90 258.33,239.82 262.00,239.74 265.67,239.66 269.33,239.58 273.00,239.50 276.66,239.42 280.33,239.34 283.99,239.26 287.66,239.17 291.32,239.09 294.99,239.01 298.65,238.93 302.32,238.85 305.98,238.77 309.65,238.69 313.31,238.61 316.98,238.53 320.64,238.46 324.31,238.38 346.30,237.94 353.63,237.81 357.29,237.75 360.96,237.70 364.62,237.67 368.29,237.65 371.95,237.65 375.62,237.66 379.28,237.68 382.95,237.71 390.28,237.79 393.94,237.84 397.61,237.89 401.27,237.94 404.94,238.00 408.60,238.06 412.27,238.13 415.94,238.19 419.60,238.26 423.27,238.33 426.93,238.40 430.60,238.47 434.26,238.54 437.93,238.62"/>
<polyline fill="none" stroke="#ff7f0e" stroke-width="1.8" stroke-dasharray="5 4" points="86.07,242.15 89.74,242.14 93.40,242.13 97.07,242.12 100.73,242.10 104.40,242.09 108.06,242.08 111.73,242.06 115.40,242.05 119.06,242.04 122.73,242.02 126.39,242.00 133.72,241.97 141.05,241.93 148.38,241.88 152.05,241.85 155.71,241.82 159.38,241.78 163.04,241.74 166.71,241.69 170.37,241.63 174.04,241.57 177.70,241.50 181.37,241.43 199.69,241.10 203.36,241.04 207.02,240.97 210.69,240.91 214.35,240.84 218.02,240.78 221.68,240.71 225.35,240.65 229.01,240.59 232.68,240.52 236.34,240.46 240.01,240.40 243.67,240.33 247.34,240.27 251.00,240.21 254.67,240.15 258.33,240.09 262.00,240.03 265.67,239.97 269.33,239.91 273.00,239.85 276.66,239.79 280.33,239.74 283.99,239.68 287.66,239.63 291.32,239.57 294.99,239.52 298.65,239.47 302.32,239.43 305.98,239.38 309.65,239.34 313.31,239.30 316.98,239.26 320.64,239.23 324.31,239.21 346.30,239.12 353.63,239.15 357.29,239.17 360.96,239.20 364.62,239.24 368.29,239.28 371.95,239.32 375.62,239.37 379.28,239.42 382.95,239.47 390.28,239.58 393.94,239.64 397.61,239.69 401.27,239.75 404.94,239.81 408.60,239.87 412.27,239.93 415.94,240.00 419.60,240.06 423.27,240.12 426.93,240.18 430.60,240.24 434.26,240.30 437.93,240.36"/>
<polyline fill="none" stroke="#2ca02c" stroke-width="1.8" stroke-dasharray="2 4" points="86.07,242.59 89.74,242.57 93.40,242.54 97.07,242.52 100.73,242.50 104.40,242.48 108.06,242.45 111.73,242.43 115.40,242.41 119.06,242.39 122.73,242.36 126.39,242.34 133.72,242.29 141.05,242.24 148.38,242.18 152.05,242.15 155.71,242.12 159.38,242.08 163.04,242.03 166.71,241.98 170.37,241.91 174.04,241.82 177.70,241.73 181.37,241.63 199.69,241.14 203.36,241.04 207.02,240.94 210.69,240.84 214.35,240.74 218.02,240.64 221.68,240.54 225.35,240.45 229.01,240.35 232.68,240.25 236.34,240.15 240.01,240.05 243.67,239.95 247.34,239.85 251.00,239.75 254.67,239.65 258.33,239.55 262.00,239.45 265.67,239.35 269.33,239.25 273.00,239.15 276.66,239.05 280.33,238.95 283.99,238.84 287.66,238.74 291.32,238.64 294.99,238.54 298.65,238.43 302.32,238.33 305.98,238.23 309.65,238.12 313.31,238.02 316.98,237.92 320.64,237.81 324.31,237.71 346.30,237.08 353.63,236.87 357.29,236.77 360.96,236.67 364.62,236.57 368.29,236.47 371.95,236.38 375.62,236.32 379.28,236.26 382.95,236.22 390.28,236.18 393.94,236.18 397.61,236.18 401.27,236.19 404.94,236.20 408.60,236.23 412.27,236.26 415.94,236.30 419.60,236.35 423.27,236.40 426.93,236.45 430.60,236.52 434.26,236.58 437.93,236.65"/>
<polyline fill="none" stroke="#1f77b4" stroke-width="1.1" stroke-dasharray="6 4" points="72.00,88.24 76.81,91.19 81.62,94.15 86.43,97.10 91.24,100.06 96.05,103.02 100.86,105.97 105.67,108.93 110.48,111.88 115.29,114.84 120.10,117.80 124.91,120.75 129.72,123.71 134.53,126.66 139.34,129.62 144.15,132.58 148.96,135.53 153.77,138.49 158.58,141.44 163.39,144.40 168.20,147.36 173.01,150.31 177.82,153.27 182.63,156.23 187.44,159.18 192.25,162.14 197.06,165.09 201.87,168.05 206.68,171.01 211.49,173.96 216.30,176.92 221.11,179.87 225.92,182.83 230.73,185.79 235.54,188.74 240.35,191.70 245.16,194.65 249.97,197.61 254.78,200.57 259.59,203.52 264.41,206.48 269.22,209.43 274.03,212.39 278.84,215.35 283.65,218.30 288.46,221.26 293.27,224.21 298.08,227.17 302.89,230.13 307.70,233.08 312.51,236.04 317.32,238.99 322.13,241.95 326.94,244.91 331.75,247.86 336.56,250.82 341.37,253.77 346.18,256.73 350.99,259.69 355.80,262.64 360.61,265.60 365.42,268.56 370.23,271.51 375.04,274.47 379.85,277.42 384.66,280.38 389.47,283.34 394.28,286.29 399.09,289.25 403.90,292.20 408.71,295.16 413.52,298.12 418.33,301.07 423.14,304.03 427.95,306.98 432.76,309.94 437.57,312.90 442.38,315.85 447.19,318.81 452.00,321.76"/>
<circle cx="316.58" cy="238.54" r="4.6" fill="#ffffff" stroke="#1f77b4" stroke-width="2"/>
<text x="322.58" y="232.54" font-family="Arial, sans-serif" font-size="10" fill="#1f77b4">typ 1394 ohm</text>
<polyline fill="none" stroke="#ff7f0e" stroke-width="1.1" stroke-dasharray="6 4" points="72.00,95.44 76.81,98.40 81.62,101.36 86.43,104.31 91.24,107.27 96.05,110.22 100.86,113.18 105.67,116.14 110.48,119.09 115.29,122.05 120.10,125.00 124.91,127.96 129.72,130.92 134.53,133.87 139.34,136.83 144.15,139.78 148.96,142.74 153.77,145.70 158.58,148.65 163.39,151.61 168.20,154.56 173.01,157.52 177.82,160.48 182.63,163.43 187.44,166.39 192.25,169.34 197.06,172.30 201.87,175.26 206.68,178.21 211.49,181.17 216.30,184.13 221.11,187.08 225.92,190.04 230.73,192.99 235.54,195.95 240.35,198.91 245.16,201.86 249.97,204.82 254.78,207.77 259.59,210.73 264.41,213.69 269.22,216.64 274.03,219.60 278.84,222.55 283.65,225.51 288.46,228.47 293.27,231.42 298.08,234.38 302.89,237.33 307.70,240.29 312.51,243.25 317.32,246.20 322.13,249.16 326.94,252.11 331.75,255.07 336.56,258.03 341.37,260.98 346.18,263.94 350.99,266.89 355.80,269.85 360.61,272.81 365.42,275.76 370.23,278.72 375.04,281.67 379.85,284.63 384.66,287.59 389.47,290.54 394.28,293.50 399.09,296.46 403.90,299.41 408.71,302.37 413.52,305.32 418.33,308.28 423.14,311.24 427.95,314.19 432.76,317.15 437.57,320.10 442.38,323.06 447.19,326.02 452.00,328.97"/>
<circle cx="306.21" cy="239.38" r="4.6" fill="#ffffff" stroke="#ff7f0e" stroke-width="2"/>
<text x="312.21" y="233.38" font-family="Arial, sans-serif" font-size="10" fill="#ff7f0e">min 1904 ohm</text>
<polyline fill="none" stroke="#2ca02c" stroke-width="1.1" stroke-dasharray="6 4" points="72.00,81.03 76.81,83.98 81.62,86.94 86.43,89.90 91.24,92.85 96.05,95.81 100.86,98.76 105.67,101.72 110.48,104.68 115.29,107.63 120.10,110.59 124.91,113.54 129.72,116.50 134.53,119.46 139.34,122.41 144.15,125.37 148.96,128.33 153.77,131.28 158.58,134.24 163.39,137.19 168.20,140.15 173.01,143.11 177.82,146.06 182.63,149.02 187.44,151.97 192.25,154.93 197.06,157.89 201.87,160.84 206.68,163.80 211.49,166.75 216.30,169.71 221.11,172.67 225.92,175.62 230.73,178.58 235.54,181.53 240.35,184.49 245.16,187.45 249.97,190.40 254.78,193.36 259.59,196.31 264.41,199.27 269.22,202.23 274.03,205.18 278.84,208.14 283.65,211.09 288.46,214.05 293.27,217.01 298.08,219.96 302.89,222.92 307.70,225.87 312.51,228.83 317.32,231.79 322.13,234.74 326.94,237.70 331.75,240.66 336.56,243.61 341.37,246.57 346.18,249.52 350.99,252.48 355.80,255.44 360.61,258.39 365.42,261.35 370.23,264.30 375.04,267.26 379.85,270.22 384.66,273.17 389.47,276.13 394.28,279.08 399.09,282.04 403.90,285.00 408.71,287.95 413.52,290.91 418.33,293.86 423.14,296.82 427.95,299.78 432.76,302.73 437.57,305.69 442.38,308.64 447.19,311.60 452.00,314.56"/>
<circle cx="326.83" cy="237.63" r="4.6" fill="#ffffff" stroke="#2ca02c" stroke-width="2"/>
<text x="332.83" y="231.63" font-family="Arial, sans-serif" font-size="10" fill="#2ca02c">max 1114 ohm</text>
<line x1="82.00" y1="80.00" x2="104.00" y2="80.00" stroke="#1f77b4" stroke-width="2"/>
<text x="110.00" y="84.00" font-family="Arial, sans-serif" font-size="11">typ</text>
<line x1="82.00" y1="97.00" x2="104.00" y2="97.00" stroke="#ff7f0e" stroke-width="2" stroke-dasharray="5 4"/>
<text x="110.00" y="101.00" font-family="Arial, sans-serif" font-size="11">min</text>
<line x1="82.00" y1="114.00" x2="104.00" y2="114.00" stroke="#2ca02c" stroke-width="2" stroke-dasharray="2 4"/>
<text x="110.00" y="118.00" font-family="Arial, sans-serif" font-size="11">max</text>
<text x="262.00" y="386.00" text-anchor="middle" font-family="Arial, sans-serif" font-size="11">Output voltage (V)</text>
<text transform="translate(22.00 205.00) rotate(-90)" text-anchor="middle" font-family="Arial, sans-serif" font-size="11">Current (mA)</text>
<rect x="492.00" y="62.00" width="380.00" height="286.00" fill="#fbfbfb" stroke="#c8c8c8"/>
<text x="500.00" y="50.00" font-family="Arial, sans-serif" font-size="13" font-weight="700">[Pullup] Rload to GND</text>
<line x1="492.00" y1="62.00" x2="492.00" y2="348.00" stroke="#ececec"/>
<text x="492.00" y="366.00" text-anchor="middle" font-family="Arial, sans-serif" font-size="10">-1.3</text>
<line x1="587.00" y1="62.00" x2="587.00" y2="348.00" stroke="#ececec"/>
<text x="587.00" y="366.00" text-anchor="middle" font-family="Arial, sans-serif" font-size="10">-0.372</text>
<line x1="682.00" y1="62.00" x2="682.00" y2="348.00" stroke="#ececec"/>
<text x="682.00" y="366.00" text-anchor="middle" font-family="Arial, sans-serif" font-size="10">0.6</text>
<line x1="777.00" y1="62.00" x2="777.00" y2="348.00" stroke="#ececec"/>
<text x="777.00" y="366.00" text-anchor="middle" font-family="Arial, sans-serif" font-size="10">1.6</text>
<line x1="872.00" y1="62.00" x2="872.00" y2="348.00" stroke="#ececec"/>
<text x="872.00" y="366.00" text-anchor="middle" font-family="Arial, sans-serif" font-size="10">2.5</text>
<line x1="492.00" y1="348.00" x2="872.00" y2="348.00" stroke="#ececec"/>
<text x="485.00" y="352.00" text-anchor="end" font-family="Arial, sans-serif" font-size="10">-60</text>
<line x1="492.00" y1="276.50" x2="872.00" y2="276.50" stroke="#ececec"/>
<text x="485.00" y="280.50" text-anchor="end" font-family="Arial, sans-serif" font-size="10">-36</text>
<line x1="492.00" y1="205.00" x2="872.00" y2="205.00" stroke="#ececec"/>
<text x="485.00" y="209.00" text-anchor="end" font-family="Arial, sans-serif" font-size="10">-12</text>
<line x1="492.00" y1="133.50" x2="872.00" y2="133.50" stroke="#ececec"/>
<text x="485.00" y="137.50" text-anchor="end" font-family="Arial, sans-serif" font-size="10">12</text>
<line x1="492.00" y1="62.00" x2="872.00" y2="62.00" stroke="#ececec"/>
<text x="485.00" y="66.00" text-anchor="end" font-family="Arial, sans-serif" font-size="10">36</text>
<line x1="623.36" y1="62" x2="623.36" y2="348" stroke="#777" stroke-dasharray="4 4"/>
<line x1="492.0" y1="168.96" x2="872.0" y2="168.96" stroke="#777" stroke-dasharray="4 4"/>
<polyline fill="none" stroke="#1f77b4" stroke-width="1.8" points="506.07,167.47 509.74,167.49 513.40,167.50 517.07,167.52 520.73,167.54 524.40,167.56 528.06,167.57 531.73,167.59 535.40,167.61 539.06,167.63 542.73,167.65 546.39,167.67 553.72,167.72 561.05,167.77 568.38,167.83 572.05,167.87 575.71,167.92 579.38,167.98 583.04,168.04 586.71,168.12 590.37,168.20 594.04,168.29 597.70,168.37 601.37,168.46 619.69,168.88 623.36,168.96 627.02,169.05 630.69,169.13 634.35,169.21 638.02,169.30 641.68,169.38 645.35,169.46 649.01,169.55 652.68,169.63 656.34,169.72 660.01,169.80 663.67,169.88 667.34,169.97 671.00,170.05 674.67,170.13 678.33,170.22 682.00,170.30 685.67,170.39 689.33,170.47 693.00,170.55 696.66,170.64 700.33,170.72 703.99,170.81 707.66,170.89 711.32,170.97 714.99,171.06 718.65,171.14 722.32,171.23 725.98,171.31 729.65,171.39 733.31,171.48 736.98,171.56 740.64,171.64 744.31,171.73 766.30,172.21 773.63,172.34 777.29,172.40 780.96,172.44 784.62,172.46 788.29,172.48 791.95,172.49 795.62,172.49 799.28,172.49 802.95,172.47 810.28,172.43 813.94,172.40 817.61,172.36 821.27,172.32 824.94,172.27 828.60,172.22 832.27,172.17 835.94,172.11 839.60,172.05 843.27,171.99 846.93,171.93 850.60,171.87 854.26,171.80 857.93,171.73"/>
<polyline fill="none" stroke="#ff7f0e" stroke-width="1.8" stroke-dasharray="5 4" points="506.07,167.76 509.74,167.77 513.40,167.79 517.07,167.80 520.73,167.81 524.40,167.83 528.06,167.84 531.73,167.85 535.40,167.87 539.06,167.88 542.73,167.90 546.39,167.92 553.72,167.95 561.05,168.00 568.38,168.05 572.05,168.09 575.71,168.12 579.38,168.17 583.04,168.22 586.71,168.28 590.37,168.34 594.04,168.41 597.70,168.48 601.37,168.55 619.69,168.89 623.36,168.96 627.02,169.03 630.69,169.10 634.35,169.17 638.02,169.23 641.68,169.30 645.35,169.37 649.01,169.44 652.68,169.50 656.34,169.57 660.01,169.64 663.67,169.71 667.34,169.77 671.00,169.84 674.67,169.90 678.33,169.97 682.00,170.03 685.67,170.10 689.33,170.16 693.00,170.23 696.66,170.29 700.33,170.35 703.99,170.41 707.66,170.47 711.32,170.54 714.99,170.60 718.65,170.65 722.32,170.71 725.98,170.77 729.65,170.82 733.31,170.87 736.98,170.92 740.64,170.97 744.31,171.02 766.30,171.20 773.63,171.20 777.29,171.19 780.96,171.16 784.62,171.14 788.29,171.10 791.95,171.07 795.62,171.02 799.28,170.98 802.95,170.93 810.28,170.84 813.94,170.79 817.61,170.73 821.27,170.68 824.94,170.62 828.60,170.57 832.27,170.51 835.94,170.45 839.60,170.40 843.27,170.34 846.93,170.28 850.60,170.23 854.26,170.17 857.93,170.11"/>
<polyline fill="none" stroke="#2ca02c" stroke-width="1.8" stroke-dasharray="2 4" points="506.07,167.19 509.74,167.21 513.40,167.23 517.07,167.26 520.73,167.28 524.40,167.30 528.06,167.32 531.73,167.34 535.40,167.37 539.06,167.39 542.73,167.41 546.39,167.44 553.72,167.49 561.05,167.55 568.38,167.62 572.05,167.67 575.71,167.72 579.38,167.78 583.04,167.85 586.71,167.95 590.37,168.04 594.04,168.15 597.70,168.25 601.37,168.35 619.69,168.86 623.36,168.96 627.02,169.06 630.69,169.16 634.35,169.27 638.02,169.37 641.68,169.47 645.35,169.57 649.01,169.67 652.68,169.77 656.34,169.87 660.01,169.98 663.67,170.08 667.34,170.18 671.00,170.28 674.67,170.39 678.33,170.49 682.00,170.59 685.67,170.70 689.33,170.80 693.00,170.90 696.66,171.01 700.33,171.11 703.99,171.22 707.66,171.32 711.32,171.43 714.99,171.54 718.65,171.64 722.32,171.75 725.98,171.86 729.65,171.96 733.31,172.07 736.98,172.18 740.64,172.29 744.31,172.40 766.30,173.06 773.63,173.28 777.29,173.39 780.96,173.49 784.62,173.59 788.29,173.67 791.95,173.73 795.62,173.79 799.28,173.83 802.95,173.87 810.28,173.94 813.94,173.96 817.61,173.98 821.27,174.00 824.94,174.01 828.60,174.02 832.27,174.02 835.94,174.01 839.60,174.00 843.27,173.98 846.93,173.96 850.60,173.93 854.26,173.89 857.93,173.85"/>
<polyline fill="none" stroke="#1f77b4" stroke-width="1.1" stroke-dasharray="6 4" points="492.00,321.76 496.81,318.81 501.62,315.85 506.43,312.90 511.24,309.94 516.05,306.98 520.86,304.03 525.67,301.07 530.48,298.12 535.29,295.16 540.10,292.20 544.91,289.25 549.72,286.29 554.53,283.34 559.34,280.38 564.15,277.42 568.96,274.47 573.77,271.51 578.58,268.56 583.39,265.60 588.20,262.64 593.01,259.69 597.82,256.73 602.63,253.77 607.44,250.82 612.25,247.86 617.06,244.91 621.87,241.95 626.68,238.99 631.49,236.04 636.30,233.08 641.11,230.13 645.92,227.17 650.73,224.21 655.54,221.26 660.35,218.30 665.16,215.35 669.97,212.39 674.78,209.43 679.59,206.48 684.41,203.52 689.22,200.57 694.03,197.61 698.84,194.65 703.65,191.70 708.46,188.74 713.27,185.79 718.08,182.83 722.89,179.87 727.70,176.92 732.51,173.96 737.32,171.01 742.13,168.05 746.94,165.09 751.75,162.14 756.56,159.18 761.37,156.23 766.18,153.27 770.99,150.31 775.80,147.36 780.61,144.40 785.42,141.44 790.23,138.49 795.04,135.53 799.85,132.58 804.66,129.62 809.47,126.66 814.28,123.71 819.09,120.75 823.90,117.80 828.71,114.84 833.52,111.88 838.33,108.93 843.14,105.97 847.95,103.02 852.76,100.06 857.57,97.10 862.38,94.15 867.19,91.19 872.00,88.24"/>
<circle cx="736.43" cy="171.55" r="4.6" fill="#ffffff" stroke="#1f77b4" stroke-width="2"/>
<text x="742.43" y="165.55" font-family="Arial, sans-serif" font-size="10" fill="#1f77b4">typ 1344 ohm</text>
<polyline fill="none" stroke="#ff7f0e" stroke-width="1.1" stroke-dasharray="6 4" points="492.00,314.56 496.81,311.60 501.62,308.64 506.43,305.69 511.24,302.73 516.05,299.78 520.86,296.82 525.67,293.86 530.48,290.91 535.29,287.95 540.10,285.00 544.91,282.04 549.72,279.08 554.53,276.13 559.34,273.17 564.15,270.22 568.96,267.26 573.77,264.30 578.58,261.35 583.39,258.39 588.20,255.44 593.01,252.48 597.82,249.52 602.63,246.57 607.44,243.61 612.25,240.66 617.06,237.70 621.87,234.74 626.68,231.79 631.49,228.83 636.30,225.87 641.11,222.92 645.92,219.96 650.73,217.01 655.54,214.05 660.35,211.09 665.16,208.14 669.97,205.18 674.78,202.23 679.59,199.27 684.41,196.31 689.22,193.36 694.03,190.40 698.84,187.45 703.65,184.49 708.46,181.53 713.27,178.58 718.08,175.62 722.89,172.67 727.70,169.71 732.51,166.75 737.32,163.80 742.13,160.84 746.94,157.89 751.75,154.93 756.56,151.97 761.37,149.02 766.18,146.06 770.99,143.11 775.80,140.15 780.61,137.19 785.42,134.24 790.23,131.28 795.04,128.33 799.85,125.37 804.66,122.41 809.47,119.46 814.28,116.50 819.09,113.54 823.90,110.59 828.71,107.63 833.52,104.68 838.33,101.72 843.14,98.76 847.95,95.81 852.76,92.85 857.57,89.90 862.38,86.94 867.19,83.98 872.00,81.03"/>
<circle cx="725.98" cy="170.77" r="4.6" fill="#ffffff" stroke="#ff7f0e" stroke-width="2"/>
<text x="731.98" y="164.77" font-family="Arial, sans-serif" font-size="10" fill="#ff7f0e">min 1747 ohm</text>
<polyline fill="none" stroke="#2ca02c" stroke-width="1.1" stroke-dasharray="6 4" points="492.00,328.97 496.81,326.02 501.62,323.06 506.43,320.10 511.24,317.15 516.05,314.19 520.86,311.24 525.67,308.28 530.48,305.32 535.29,302.37 540.10,299.41 544.91,296.46 549.72,293.50 554.53,290.54 559.34,287.59 564.15,284.63 568.96,281.67 573.77,278.72 578.58,275.76 583.39,272.81 588.20,269.85 593.01,266.89 597.82,263.94 602.63,260.98 607.44,258.03 612.25,255.07 617.06,252.11 621.87,249.16 626.68,246.20 631.49,243.25 636.30,240.29 641.11,237.33 645.92,234.38 650.73,231.42 655.54,228.47 660.35,225.51 665.16,222.55 669.97,219.60 674.78,216.64 679.59,213.69 684.41,210.73 689.22,207.77 694.03,204.82 698.84,201.86 703.65,198.91 708.46,195.95 713.27,192.99 718.08,190.04 722.89,187.08 727.70,184.13 732.51,181.17 737.32,178.21 742.13,175.26 746.94,172.30 751.75,169.34 756.56,166.39 761.37,163.43 766.18,160.48 770.99,157.52 775.80,154.56 780.61,151.61 785.42,148.65 790.23,145.70 795.04,142.74 799.85,139.78 804.66,136.83 809.47,133.87 814.28,130.92 819.09,127.96 823.90,125.00 828.71,122.05 833.52,119.09 838.33,116.14 843.14,113.18 847.95,110.22 852.76,107.27 857.57,104.31 862.38,101.36 867.19,98.40 872.00,95.44"/>
<circle cx="746.66" cy="172.47" r="4.6" fill="#ffffff" stroke="#2ca02c" stroke-width="2"/>
<text x="752.66" y="166.47" font-family="Arial, sans-serif" font-size="10" fill="#2ca02c">max 1080 ohm</text>
<line x1="502.00" y1="80.00" x2="524.00" y2="80.00" stroke="#1f77b4" stroke-width="2"/>
<text x="530.00" y="84.00" font-family="Arial, sans-serif" font-size="11">typ</text>
<line x1="502.00" y1="97.00" x2="524.00" y2="97.00" stroke="#ff7f0e" stroke-width="2" stroke-dasharray="5 4"/>
<text x="530.00" y="101.00" font-family="Arial, sans-serif" font-size="11">min</text>
<line x1="502.00" y1="114.00" x2="524.00" y2="114.00" stroke="#2ca02c" stroke-width="2" stroke-dasharray="2 4"/>
<text x="530.00" y="118.00" font-family="Arial, sans-serif" font-size="11">max</text>
<text x="682.00" y="386.00" text-anchor="middle" font-family="Arial, sans-serif" font-size="11">Vcc-relative table voltage (V)</text>
<text transform="translate(442.00 205.00) rotate(-90)" text-anchor="middle" font-family="Arial, sans-serif" font-size="11">Current (mA)</text>
<rect x="72.00" y="418.00" width="800.00" height="144.00" fill="#ffffff" stroke="#c8c8c8"/>
<text x="82.00" y="436.00" font-family="Arial, sans-serif" font-size="12" font-weight="700">Operating-point summary</text>
<text x="82.00" y="454.00" font-family="Arial, sans-serif" font-size="10" font-weight="700" fill="#333">Table</text>
<text x="174.00" y="454.00" font-family="Arial, sans-serif" font-size="10" font-weight="700" fill="#333">Corner</text>
<text x="242.00" y="454.00" font-family="Arial, sans-serif" font-size="10" font-weight="700" fill="#333">Vout</text>
<text x="332.00" y="454.00" font-family="Arial, sans-serif" font-size="10" font-weight="700" fill="#333">Iop</text>
<text x="422.00" y="454.00" font-family="Arial, sans-serif" font-size="10" font-weight="700" fill="#333">Zout</text>
<text x="512.00" y="454.00" font-family="Arial, sans-serif" font-size="10" font-weight="700" fill="#333">Rseries</text>
<text x="82.00" y="473.00" font-family="Arial, sans-serif" font-size="10" fill="#1f77b4">pulldown</text>
<text x="174.00" y="473.00" font-family="Arial, sans-serif" font-size="10" fill="#1f77b4">typ</text>
<text x="242.00" y="473.00" font-family="Arial, sans-serif" font-size="10" fill="#1f77b4">1.158 V</text>
<text x="332.00" y="473.00" font-family="Arial, sans-serif" font-size="10" fill="#1f77b4">0.831 mA</text>
<text x="422.00" y="473.00" font-family="Arial, sans-serif" font-size="10" fill="#1f77b4">1394 ohm</text>
<text x="512.00" y="473.00" font-family="Arial, sans-serif" font-size="10" fill="#1f77b4">-1344 ohm</text>
<text x="82.00" y="492.00" font-family="Arial, sans-serif" font-size="10" fill="#ff7f0e">pulldown</text>
<text x="174.00" y="492.00" font-family="Arial, sans-serif" font-size="10" fill="#ff7f0e">min</text>
<text x="242.00" y="492.00" font-family="Arial, sans-serif" font-size="10" fill="#ff7f0e">1.052 V</text>
<text x="332.00" y="492.00" font-family="Arial, sans-serif" font-size="10" fill="#ff7f0e">0.553 mA</text>
<text x="422.00" y="492.00" font-family="Arial, sans-serif" font-size="10" fill="#ff7f0e">1904 ohm</text>
<text x="512.00" y="492.00" font-family="Arial, sans-serif" font-size="10" fill="#ff7f0e">-1854 ohm</text>
<text x="82.00" y="511.00" font-family="Arial, sans-serif" font-size="10" fill="#2ca02c">pulldown</text>
<text x="174.00" y="511.00" font-family="Arial, sans-serif" font-size="10" fill="#2ca02c">max</text>
<text x="242.00" y="511.00" font-family="Arial, sans-serif" font-size="10" fill="#2ca02c">1.263 V</text>
<text x="332.00" y="511.00" font-family="Arial, sans-serif" font-size="10" fill="#2ca02c">1.1 mA</text>
<text x="422.00" y="511.00" font-family="Arial, sans-serif" font-size="10" fill="#2ca02c">1114 ohm</text>
<text x="512.00" y="511.00" font-family="Arial, sans-serif" font-size="10" fill="#2ca02c">-1064 ohm</text>
<text x="82.00" y="530.00" font-family="Arial, sans-serif" font-size="10" fill="#1f77b4">pullup</text>
<text x="174.00" y="530.00" font-family="Arial, sans-serif" font-size="10" fill="#1f77b4">typ</text>
<text x="242.00" y="530.00" font-family="Arial, sans-serif" font-size="10" fill="#1f77b4">0.04305 V</text>
<text x="332.00" y="530.00" font-family="Arial, sans-serif" font-size="10" fill="#1f77b4">-0.861 mA</text>
<text x="422.00" y="530.00" font-family="Arial, sans-serif" font-size="10" fill="#1f77b4">1344 ohm</text>
<text x="512.00" y="530.00" font-family="Arial, sans-serif" font-size="10" fill="#1f77b4">-1294 ohm</text>
<text x="82.00" y="549.00" font-family="Arial, sans-serif" font-size="10" fill="#ff7f0e">pullup</text>
<text x="174.00" y="549.00" font-family="Arial, sans-serif" font-size="10" fill="#ff7f0e">min</text>
<text x="242.00" y="549.00" font-family="Arial, sans-serif" font-size="10" fill="#ff7f0e">0.03006 V</text>
<text x="332.00" y="549.00" font-family="Arial, sans-serif" font-size="10" fill="#ff7f0e">-0.601 mA</text>
<text x="422.00" y="549.00" font-family="Arial, sans-serif" font-size="10" fill="#ff7f0e">1747 ohm</text>
<text x="512.00" y="549.00" font-family="Arial, sans-serif" font-size="10" fill="#ff7f0e">-1697 ohm</text>
<text x="82.00" y="568.00" font-family="Arial, sans-serif" font-size="10" fill="#2ca02c">pullup</text>
<text x="174.00" y="568.00" font-family="Arial, sans-serif" font-size="10" fill="#2ca02c">max</text>
<text x="242.00" y="568.00" font-family="Arial, sans-serif" font-size="10" fill="#2ca02c">0.05839 V</text>
<text x="332.00" y="568.00" font-family="Arial, sans-serif" font-size="10" fill="#2ca02c">-1.2 mA</text>
<text x="422.00" y="568.00" font-family="Arial, sans-serif" font-size="10" fill="#2ca02c">1080 ohm</text>
<text x="512.00" y="568.00" font-family="Arial, sans-serif" font-size="10" fill="#2ca02c">-1030 ohm</text>
</svg>